<?xml version="1.0" encoding="UTF-8" standalone="no"?>
<!DOCTYPE svg PUBLIC "-//W3C//DTD SVG 1.1//EN"
 "http://www.w3.org/Graphics/SVG/1.1/DTD/svg11.dtd">
<!-- Generated by graphviz version 2.43.0 (0)
 -->
<!-- Title: inc/CCSDSManager.h Pages: 1 -->
<!--zoomable 522 -->

<svg id="main" version="1.1" xmlns="http://www.w3.org/2000/svg" xmlns:xlink="http://www.w3.org/1999/xlink" xml:space="preserve" onload="init(evt)">
<style type="text/css"><![CDATA[
.node, .edge {opacity: 0.7;}
.node.selected, .edge.selected {opacity: 1;}
.edge:hover path { stroke: red; }
.edge:hover polygon { stroke: red; fill: red; }
]]></style>

<defs>
  <circle id="rim" cx="0" cy="0" r="7"/>
  <circle id="rim2" cx="0" cy="0" r="3.5"/>
  <g id="zoomPlus">
    <use xlink:href="#rim" fill="#404040"><set attributeName="fill" to="#808080" begin="zoomplus.mouseover" end="zoomplus.mouseout"/></use>
    <path d="M-4,0h8M0,-4v8" fill="none" stroke="white" stroke-width="1.5" pointer-events="none"/>
  </g>
  <g id="zoomMin">
    <use xlink:href="#rim" fill="#404040"><set attributeName="fill" to="#808080" begin="zoomminus.mouseover" end="zoomminus.mouseout"/></use>
    <path d="M-4,0h8" fill="none" stroke="white" stroke-width="1.5" pointer-events="none"/>
  </g>
  <g id="arrowUp" transform="translate(30 24)">
    <use xlink:href="#rim"/>
    <path pointer-events="none" fill="none" stroke="white" stroke-width="1.5" d="M0,-3.0v7 M-2.5,-0.5L0,-3.0L2.5,-0.5"/>
  </g>
  <g id="arrowRight" transform="rotate(90) translate(36 -43)">
    <use xlink:href="#rim"/>
    <path pointer-events="none" fill="none" stroke="white" stroke-width="1.5" d="M0,-3.0v7 M-2.5,-0.5L0,-3.0L2.5,-0.5"/>
  </g>
  <g id="arrowDown" transform="rotate(180) translate(-30 -48)">
    <use xlink:href="#rim"/>
    <path pointer-events="none" fill="none" stroke="white" stroke-width="1.5" d="M0,-3.0v7 M-2.5,-0.5L0,-3.0L2.5,-0.5"/>
  </g>
  <g id="arrowLeft" transform="rotate(270) translate(-36 17)">
    <use xlink:href="#rim"/>
    <path pointer-events="none" fill="none" stroke="white" stroke-width="1.5" d="M0,-3.0v7 M-2.5,-0.5L0,-3.0L2.5,-0.5"/>
  </g>
  <g id="resetDef">
    <use xlink:href="#rim2" fill="#404040"><set attributeName="fill" to="#808080" begin="reset.mouseover" end="reset.mouseout"/></use>
  </g>
</defs>
<script type="application/ecmascript">
var viewWidth = 720;
var viewHeight = 522;
var sectionId = 'dynsection-0';
</script>
<script type="application/ecmascript" xlink:href="svg.min.js"/>
<svg id="graph" class="graph">
<g id="viewport">
<title>inc/CCSDSManager.h</title>
<!-- Node1 -->
<g id="Node000001" class="node">
<title>Node1</title>
<g id="a_Node000001"><a xlink:title=" ">
<polygon fill="#999999" stroke="#666666" points="693,-514 575,-514 575,-495 693,-495 693,-514"/>
<text text-anchor="middle" x="634" y="-502" font-family="Helvetica,sans-Serif" font-size="10.00">inc/CCSDSManager.h</text>
</a>
</g>
</g>
<!-- Node2 -->
<g id="Node000002" class="node">
<title>Node2</title>
<g id="a_Node000002"><a xlink:title=" ">
<polygon fill="#e0e0e0" stroke="#999999" points="526.5,-459 481.5,-459 481.5,-440 526.5,-440 526.5,-459"/>
<text text-anchor="middle" x="504" y="-447" font-family="Helvetica,sans-Serif" font-size="10.00">utility</text>
</a>
</g>
</g>
<!-- Node1&#45;&gt;Node2 -->
<g id="edge1_Node000001_Node000002" class="edge">
<title>Node1&#45;&gt;Node2</title>
<g id="a_edge1_Node000001_Node000002"><a xlink:title=" ">
<path fill="none" stroke="#63b8ff" d="M613.11,-494.98C591.92,-486.34 558.87,-472.87 534.7,-463.02"/>
<polygon fill="#63b8ff" stroke="#63b8ff" points="535.85,-459.7 525.27,-459.17 533.21,-466.19 535.85,-459.7"/>
</a>
</g>
</g>
<!-- Node3 -->
<g id="Node000003" class="node">
<title>Node3</title>
<g id="a_Node000003"><a xlink:href="CCSDSPacket_8h.html" target="_top" xlink:title=" ">
<polygon fill="white" stroke="#666666" points="641,-404 551,-404 551,-385 641,-385 641,-404"/>
<text text-anchor="middle" x="596" y="-392" font-family="Helvetica,sans-Serif" font-size="10.00">CCSDSPacket.h</text>
</a>
</g>
</g>
<!-- Node1&#45;&gt;Node3 -->
<g id="edge2_Node000001_Node000003" class="edge">
<title>Node1&#45;&gt;Node3</title>
<g id="a_edge2_Node000001_Node000003"><a xlink:title=" ">
<path fill="none" stroke="#63b8ff" d="M640.67,-494.97C649.58,-482.47 663.2,-458.66 654,-440 647.51,-426.85 635.07,-416.5 623.36,-409.11"/>
<polygon fill="#63b8ff" stroke="#63b8ff" points="625.07,-406.05 614.67,-404.03 621.54,-412.1 625.07,-406.05"/>
</a>
</g>
</g>
<!-- Node4 -->
<g id="Node000004" class="node">
<title>Node4</title>
<g id="a_Node000004"><a xlink:href="CCSDSResult_8h.html" target="_top" xlink:title=" ">
<polygon fill="white" stroke="#666666" points="558.5,-74 469.5,-74 469.5,-55 558.5,-55 558.5,-74"/>
<text text-anchor="middle" x="514" y="-62" font-family="Helvetica,sans-Serif" font-size="10.00">CCSDSResult.h</text>
</a>
</g>
</g>
<!-- Node1&#45;&gt;Node4 -->
<g id="edge38_Node000001_Node000004" class="edge">
<title>Node1&#45;&gt;Node4</title>
<g id="a_edge38_Node000001_Node000004"><a xlink:title=" ">
<path fill="none" stroke="#63b8ff" d="M646.19,-494.95C668.12,-478.45 712,-439.91 712,-395.5 712,-395.5 712,-395.5 712,-173.5 712,-107.98 627.42,-81.97 568.82,-71.82"/>
<polygon fill="#63b8ff" stroke="#63b8ff" points="569.36,-68.36 558.93,-70.21 568.24,-75.27 569.36,-68.36"/>
</a>
</g>
</g>
<!-- Node19 -->
<g id="Node000019" class="node">
<title>Node19</title>
<g id="a_Node000019"><a xlink:href="CCSDSValidator_8h.html" target="_top" xlink:title="Defines the Validator class for CCSDS packet validation.">
<polygon fill="white" stroke="#666666" points="645.5,-459 544.5,-459 544.5,-440 645.5,-440 645.5,-459"/>
<text text-anchor="middle" x="595" y="-447" font-family="Helvetica,sans-Serif" font-size="10.00">CCSDSValidator.h</text>
</a>
</g>
</g>
<!-- Node1&#45;&gt;Node19 -->
<g id="edge39_Node000001_Node000019" class="edge">
<title>Node1&#45;&gt;Node19</title>
<g id="a_edge39_Node000001_Node000019"><a xlink:title=" ">
<path fill="none" stroke="#63b8ff" d="M627.56,-494.75C622.11,-487.34 614.14,-476.5 607.44,-467.41"/>
<polygon fill="#63b8ff" stroke="#63b8ff" points="610.07,-465.07 601.32,-459.09 604.43,-469.22 610.07,-465.07"/>
</a>
</g>
</g>
<!-- Node3&#45;&gt;Node4 -->
<g id="edge3_Node000003_Node000004" class="edge">
<title>Node3&#45;&gt;Node4</title>
<g id="a_edge3_Node000003_Node000004"><a xlink:title=" ">
<path fill="none" stroke="#63b8ff" d="M608.19,-384.95C630.12,-368.45 674,-329.91 674,-285.5 674,-285.5 674,-285.5 674,-173.5 674,-119.53 610.68,-90.72 563.71,-76.78"/>
<polygon fill="#63b8ff" stroke="#63b8ff" points="564.54,-73.37 553.96,-74.02 562.63,-80.11 564.54,-73.37"/>
</a>
</g>
</g>
<!-- Node6 -->
<g id="Node000006" class="node">
<title>Node6</title>
<g id="a_Node000006"><a xlink:title=" ">
<polygon fill="#e0e0e0" stroke="#999999" points="311.5,-19 264.5,-19 264.5,0 311.5,0 311.5,-19"/>
<text text-anchor="middle" x="288" y="-7" font-family="Helvetica,sans-Serif" font-size="10.00">vector</text>
</a>
</g>
</g>
<!-- Node3&#45;&gt;Node6 -->
<g id="edge8_Node000003_Node000006" class="edge">
<title>Node3&#45;&gt;Node6</title>
<g id="a_edge8_Node000003_Node000006"><a xlink:title=" ">
<path fill="none" stroke="#63b8ff" d="M550.71,-390.08C411.63,-378.99 0,-341.43 0,-285.5 0,-285.5 0,-285.5 0,-118.5 0,-85.38 11.64,-73.66 39,-55 73.57,-31.43 194.64,-18.29 254.28,-13.12"/>
<polygon fill="#63b8ff" stroke="#63b8ff" points="254.66,-16.6 264.33,-12.27 254.07,-9.62 254.66,-16.6"/>
</a>
</g>
</g>
<!-- Node9 -->
<g id="Node000009" class="node">
<title>Node9</title>
<g id="a_Node000009"><a xlink:href="CCSDSHeader_8h.html" target="_top" xlink:title=" ">
<polygon fill="white" stroke="#666666" points="485.5,-129 392.5,-129 392.5,-110 485.5,-110 485.5,-129"/>
<text text-anchor="middle" x="439" y="-117" font-family="Helvetica,sans-Serif" font-size="10.00">CCSDSHeader.h</text>
</a>
</g>
</g>
<!-- Node3&#45;&gt;Node9 -->
<g id="edge9_Node000003_Node000009" class="edge">
<title>Node3&#45;&gt;Node9</title>
<g id="a_edge9_Node000003_Node000009"><a xlink:title=" ">
<path fill="none" stroke="#63b8ff" d="M596.27,-384.82C596.82,-366.48 598,-322.44 598,-285.5 598,-285.5 598,-285.5 598,-228.5 598,-199.04 599.65,-186.01 579,-165 557.09,-142.71 524.07,-131.57 495.6,-126"/>
<polygon fill="#63b8ff" stroke="#63b8ff" points="496.21,-122.55 485.75,-124.26 494.99,-129.45 496.21,-122.55"/>
</a>
</g>
</g>
<!-- Node10 -->
<g id="Node000010" class="node">
<title>Node10</title>
<g id="a_Node000010"><a xlink:href="CCSDSDataField_8h.html" target="_top" xlink:title=" ">
<polygon fill="white" stroke="#666666" points="430.5,-349 325.5,-349 325.5,-330 430.5,-330 430.5,-349"/>
<text text-anchor="middle" x="378" y="-337" font-family="Helvetica,sans-Serif" font-size="10.00">CCSDSDataField.h</text>
</a>
</g>
</g>
<!-- Node3&#45;&gt;Node10 -->
<g id="edge13_Node000003_Node000010" class="edge">
<title>Node3&#45;&gt;Node10</title>
<g id="a_edge13_Node000003_Node000010"><a xlink:title=" ">
<path fill="none" stroke="#63b8ff" d="M560.97,-384.98C523.5,-375.87 463.95,-361.4 423.02,-351.45"/>
<polygon fill="#63b8ff" stroke="#63b8ff" points="423.84,-348.04 413.3,-349.08 422.19,-354.85 423.84,-348.04"/>
</a>
</g>
</g>
<!-- Node5 -->
<g id="Node000005" class="node">
<title>Node5</title>
<g id="a_Node000005"><a xlink:title=" ">
<polygon fill="#e0e0e0" stroke="#999999" points="528.5,-19 477.5,-19 477.5,0 528.5,0 528.5,-19"/>
<text text-anchor="middle" x="503" y="-7" font-family="Helvetica,sans-Serif" font-size="10.00">variant</text>
</a>
</g>
</g>
<!-- Node4&#45;&gt;Node5 -->
<g id="edge4_Node000004_Node000005" class="edge">
<title>Node4&#45;&gt;Node5</title>
<g id="a_edge4_Node000004_Node000005"><a xlink:title=" ">
<path fill="none" stroke="#63b8ff" d="M512.18,-54.75C510.74,-47.8 508.68,-37.85 506.87,-29.13"/>
<polygon fill="#63b8ff" stroke="#63b8ff" points="510.24,-28.17 504.78,-19.09 503.39,-29.59 510.24,-28.17"/>
</a>
</g>
</g>
<!-- Node4&#45;&gt;Node6 -->
<g id="edge5_Node000004_Node000006" class="edge">
<title>Node4&#45;&gt;Node6</title>
<g id="a_edge5_Node000004_Node000006"><a xlink:title=" ">
<path fill="none" stroke="#63b8ff" d="M477.69,-54.98C434.67,-44.9 363.57,-28.22 321.72,-18.41"/>
<polygon fill="#63b8ff" stroke="#63b8ff" points="322.28,-14.94 311.74,-16.07 320.68,-21.76 322.28,-14.94"/>
</a>
</g>
</g>
<!-- Node7 -->
<g id="Node000007" class="node">
<title>Node7</title>
<g id="a_Node000007"><a xlink:title=" ">
<polygon fill="#e0e0e0" stroke="#999999" points="438,-19 388,-19 388,0 438,0 438,-19"/>
<text text-anchor="middle" x="413" y="-7" font-family="Helvetica,sans-Serif" font-size="10.00">cstdint</text>
</a>
</g>
</g>
<!-- Node4&#45;&gt;Node7 -->
<g id="edge6_Node000004_Node000007" class="edge">
<title>Node4&#45;&gt;Node7</title>
<g id="a_edge6_Node000004_Node000007"><a xlink:title=" ">
<path fill="none" stroke="#63b8ff" d="M497.77,-54.98C481.82,-46.61 457.22,-33.7 438.62,-23.95"/>
<polygon fill="#63b8ff" stroke="#63b8ff" points="440,-20.72 429.52,-19.17 436.75,-26.92 440,-20.72"/>
</a>
</g>
</g>
<!-- Node8 -->
<g id="Node000008" class="node">
<title>Node8</title>
<g id="a_Node000008"><a xlink:title=" ">
<polygon fill="#e0e0e0" stroke="#999999" points="607,-19 547,-19 547,0 607,0 607,-19"/>
<text text-anchor="middle" x="577" y="-7" font-family="Helvetica,sans-Serif" font-size="10.00">iostream</text>
</a>
</g>
</g>
<!-- Node4&#45;&gt;Node8 -->
<g id="edge7_Node000004_Node000008" class="edge">
<title>Node4&#45;&gt;Node8</title>
<g id="a_edge7_Node000004_Node000008"><a xlink:title=" ">
<path fill="none" stroke="#63b8ff" d="M524.12,-54.98C533.44,-47.15 547.47,-35.34 558.74,-25.86"/>
<polygon fill="#63b8ff" stroke="#63b8ff" points="561.29,-28.29 566.69,-19.17 556.79,-22.93 561.29,-28.29"/>
</a>
</g>
</g>
<!-- Node9&#45;&gt;Node4 -->
<g id="edge10_Node000009_Node000004" class="edge">
<title>Node9&#45;&gt;Node4</title>
<g id="a_edge10_Node000009_Node000004"><a xlink:title=" ">
<path fill="none" stroke="#63b8ff" d="M451.05,-109.98C462.46,-101.92 479.83,-89.65 493.43,-80.03"/>
<polygon fill="#63b8ff" stroke="#63b8ff" points="495.58,-82.8 501.73,-74.17 491.54,-77.08 495.58,-82.8"/>
</a>
</g>
</g>
<!-- Node9&#45;&gt;Node6 -->
<g id="edge12_Node000009_Node000006" class="edge">
<title>Node9&#45;&gt;Node6</title>
<g id="a_edge12_Node000009_Node000006"><a xlink:title=" ">
<path fill="none" stroke="#63b8ff" d="M426.9,-109.84C401.05,-91.36 340.23,-47.86 308.34,-25.05"/>
<polygon fill="#63b8ff" stroke="#63b8ff" points="310.33,-22.17 300.16,-19.2 306.26,-27.86 310.33,-22.17"/>
</a>
</g>
</g>
<!-- Node9&#45;&gt;Node7 -->
<g id="edge11_Node000009_Node000007" class="edge">
<title>Node9&#45;&gt;Node7</title>
<g id="a_edge11_Node000009_Node000007"><a xlink:title=" ">
<path fill="none" stroke="#63b8ff" d="M436.87,-109.66C432.64,-92.09 423.1,-52.45 417.44,-28.95"/>
<polygon fill="#63b8ff" stroke="#63b8ff" points="420.83,-28.06 415.08,-19.16 414.02,-29.7 420.83,-28.06"/>
</a>
</g>
</g>
<!-- Node10&#45;&gt;Node4 -->
<g id="edge14_Node000010_Node000004" class="edge">
<title>Node10&#45;&gt;Node4</title>
<g id="a_edge14_Node000010_Node000004"><a xlink:title=" ">
<path fill="none" stroke="#63b8ff" d="M400.74,-329.96C445.88,-311.54 545.36,-263.2 579,-184 595.4,-145.39 557.19,-102.91 532.65,-80.8"/>
<polygon fill="#63b8ff" stroke="#63b8ff" points="534.79,-78.03 524.95,-74.12 530.21,-83.31 534.79,-78.03"/>
</a>
</g>
</g>
<!-- Node10&#45;&gt;Node6 -->
<g id="edge15_Node000010_Node000006" class="edge">
<title>Node10&#45;&gt;Node6</title>
<g id="a_edge15_Node000010_Node000006"><a xlink:title=" ">
<path fill="none" stroke="#63b8ff" d="M325.25,-332.82C229.75,-321.06 38,-290.03 38,-230.5 38,-230.5 38,-230.5 38,-118.5 38,-89.04 35.15,-74.76 57,-55 85.53,-29.2 197.13,-17.28 254.12,-12.77"/>
<polygon fill="#63b8ff" stroke="#63b8ff" points="254.71,-16.24 264.42,-12 254.18,-9.26 254.71,-16.24"/>
</a>
</g>
</g>
<!-- Node11 -->
<g id="Node000011" class="node">
<title>Node11</title>
<g id="a_Node000011"><a xlink:title=" ">
<polygon fill="#e0e0e0" stroke="#999999" points="570,-184 512,-184 512,-165 570,-165 570,-184"/>
<text text-anchor="middle" x="541" y="-172" font-family="Helvetica,sans-Serif" font-size="10.00">memory</text>
</a>
</g>
</g>
<!-- Node10&#45;&gt;Node11 -->
<g id="edge16_Node000010_Node000011" class="edge">
<title>Node10&#45;&gt;Node11</title>
<g id="a_edge16_Node000010_Node000011"><a xlink:title=" ">
<path fill="none" stroke="#63b8ff" d="M390.56,-329.92C413.56,-313.83 463.26,-277.28 498,-239 510.96,-224.72 523.02,-206.27 531.05,-192.94"/>
<polygon fill="#63b8ff" stroke="#63b8ff" points="534.09,-194.67 536.14,-184.27 528.06,-191.12 534.09,-194.67"/>
</a>
</g>
</g>
<!-- Node12 -->
<g id="Node000012" class="node">
<title>Node12</title>
<g id="a_Node000012"><a xlink:href="CCSDSSecondaryHeaderAbstract_8h.html" target="_top" xlink:title=" ">
<polygon fill="white" stroke="#666666" points="456.5,-184 271.5,-184 271.5,-165 456.5,-165 456.5,-184"/>
<text text-anchor="middle" x="364" y="-172" font-family="Helvetica,sans-Serif" font-size="10.00">CCSDSSecondaryHeaderAbstract.h</text>
</a>
</g>
</g>
<!-- Node10&#45;&gt;Node12 -->
<g id="edge17_Node000010_Node000012" class="edge">
<title>Node10&#45;&gt;Node12</title>
<g id="a_edge17_Node000010_Node000012"><a xlink:title=" ">
<path fill="none" stroke="#63b8ff" d="M377.25,-329.74C375.06,-304.31 368.69,-230.08 365.65,-194.69"/>
<polygon fill="#63b8ff" stroke="#63b8ff" points="369.1,-193.97 364.76,-184.31 362.13,-194.57 369.1,-193.97"/>
</a>
</g>
</g>
<!-- Node16 -->
<g id="Node000016" class="node">
<title>Node16</title>
<g id="a_Node000016"><a xlink:href="CCSDSSecondaryHeaderFactory_8h.html" target="_top" xlink:title=" ">
<polygon fill="white" stroke="#666666" points="252.5,-239 73.5,-239 73.5,-220 252.5,-220 252.5,-239"/>
<text text-anchor="middle" x="163" y="-227" font-family="Helvetica,sans-Serif" font-size="10.00">CCSDSSecondaryHeaderFactory.h</text>
</a>
</g>
</g>
<!-- Node10&#45;&gt;Node16 -->
<g id="edge27_Node000010_Node000016" class="edge">
<title>Node10&#45;&gt;Node16</title>
<g id="a_edge27_Node000010_Node000016"><a xlink:title=" ">
<path fill="none" stroke="#63b8ff" d="M348.81,-329.96C323.78,-322.12 287.08,-309.4 257,-294 229.43,-279.88 200.26,-259.15 181.86,-245.25"/>
<polygon fill="#63b8ff" stroke="#63b8ff" points="183.81,-242.34 173.75,-239.04 179.56,-247.9 183.81,-242.34"/>
</a>
</g>
</g>
<!-- Node18 -->
<g id="Node000018" class="node">
<title>Node18</title>
<g id="a_Node000018"><a xlink:href="PusServices_8h.html" target="_top" xlink:title=" ">
<polygon fill="white" stroke="#666666" points="350,-294 266,-294 266,-275 350,-275 350,-294"/>
<text text-anchor="middle" x="308" y="-282" font-family="Helvetica,sans-Serif" font-size="10.00">PusServices.h</text>
</a>
</g>
</g>
<!-- Node10&#45;&gt;Node18 -->
<g id="edge33_Node000010_Node000018" class="edge">
<title>Node10&#45;&gt;Node18</title>
<g id="a_edge33_Node000010_Node000018"><a xlink:title=" ">
<path fill="none" stroke="#63b8ff" d="M366.75,-329.98C356.2,-322 340.2,-309.88 327.56,-300.31"/>
<polygon fill="#63b8ff" stroke="#63b8ff" points="329.54,-297.42 319.45,-294.17 325.31,-303 329.54,-297.42"/>
</a>
</g>
</g>
<!-- Node12&#45;&gt;Node4 -->
<g id="edge18_Node000012_Node000004" class="edge">
<title>Node12&#45;&gt;Node4</title>
<g id="a_edge18_Node000012_Node000004"><a xlink:title=" ">
<path fill="none" stroke="#63b8ff" d="M424.74,-164.91C449.1,-158.64 475.68,-147.78 494,-129 505.72,-116.99 510.58,-98.18 512.59,-84.14"/>
<polygon fill="#63b8ff" stroke="#63b8ff" points="516.08,-84.45 513.67,-74.13 509.12,-83.7 516.08,-84.45"/>
</a>
</g>
</g>
<!-- Node12&#45;&gt;Node6 -->
<g id="edge19_Node000012_Node000006" class="edge">
<title>Node12&#45;&gt;Node6</title>
<g id="a_edge19_Node000012_Node000006"><a xlink:title=" ">
<path fill="none" stroke="#63b8ff" d="M359.91,-164.74C347.95,-139.09 312.84,-63.78 296.52,-28.78"/>
<polygon fill="#63b8ff" stroke="#63b8ff" points="299.5,-26.89 292.11,-19.31 293.16,-29.85 299.5,-26.89"/>
</a>
</g>
</g>
<!-- Node12&#45;&gt;Node7 -->
<g id="edge20_Node000012_Node000007" class="edge">
<title>Node12&#45;&gt;Node7</title>
<g id="a_edge20_Node000012_Node000007"><a xlink:title=" ">
<path fill="none" stroke="#63b8ff" d="M366.58,-164.87C370.22,-152.65 377.11,-129.62 383,-110 391.54,-81.57 401.49,-48.58 407.52,-28.64"/>
<polygon fill="#63b8ff" stroke="#63b8ff" points="410.88,-29.6 410.43,-19.02 404.18,-27.58 410.88,-29.6"/>
</a>
</g>
</g>
<!-- Node13 -->
<g id="Node000013" class="node">
<title>Node13</title>
<g id="a_Node000013"><a xlink:href="CCSDSConfig_8h.html" target="_top" xlink:title=" ">
<polygon fill="white" stroke="#666666" points="294.5,-129 205.5,-129 205.5,-110 294.5,-110 294.5,-129"/>
<text text-anchor="middle" x="250" y="-117" font-family="Helvetica,sans-Serif" font-size="10.00">CCSDSConfig.h</text>
</a>
</g>
</g>
<!-- Node12&#45;&gt;Node13 -->
<g id="edge21_Node000012_Node000013" class="edge">
<title>Node12&#45;&gt;Node13</title>
<g id="a_edge21_Node000012_Node000013"><a xlink:title=" ">
<path fill="none" stroke="#63b8ff" d="M345.68,-164.98C327.34,-156.46 298.89,-143.23 277.77,-133.41"/>
<polygon fill="#63b8ff" stroke="#63b8ff" points="279.19,-130.21 268.65,-129.17 276.24,-136.56 279.19,-130.21"/>
</a>
</g>
</g>
<!-- Node13&#45;&gt;Node4 -->
<g id="edge25_Node000013_Node000004" class="edge">
<title>Node13&#45;&gt;Node4</title>
<g id="a_edge25_Node000013_Node000004"><a xlink:title=" ">
<path fill="none" stroke="#63b8ff" d="M292.42,-109.98C338.37,-100.76 411.75,-86.03 461.35,-76.07"/>
<polygon fill="#63b8ff" stroke="#63b8ff" points="462.14,-79.48 471.25,-74.08 460.76,-72.62 462.14,-79.48"/>
</a>
</g>
</g>
<!-- Node13&#45;&gt;Node6 -->
<g id="edge24_Node000013_Node000006" class="edge">
<title>Node13&#45;&gt;Node6</title>
<g id="a_edge24_Node000013_Node000006"><a xlink:title=" ">
<path fill="none" stroke="#63b8ff" d="M253.11,-109.66C259.32,-92.01 273.37,-52.09 281.62,-28.64"/>
<polygon fill="#63b8ff" stroke="#63b8ff" points="284.94,-29.75 284.95,-19.16 278.33,-27.43 284.94,-29.75"/>
</a>
</g>
</g>
<!-- Node13&#45;&gt;Node7 -->
<g id="edge23_Node000013_Node000007" class="edge">
<title>Node13&#45;&gt;Node7</title>
<g id="a_edge23_Node000013_Node000007"><a xlink:title=" ">
<path fill="none" stroke="#63b8ff" d="M263.06,-109.84C291.08,-91.28 357.18,-47.49 391.49,-24.75"/>
<polygon fill="#63b8ff" stroke="#63b8ff" points="393.47,-27.64 399.87,-19.2 389.6,-21.8 393.47,-27.64"/>
</a>
</g>
</g>
<!-- Node14 -->
<g id="Node000014" class="node">
<title>Node14</title>
<g id="a_Node000014"><a xlink:title=" ">
<polygon fill="#e0e0e0" stroke="#999999" points="110,-74 66,-74 66,-55 110,-55 110,-74"/>
<text text-anchor="middle" x="88" y="-62" font-family="Helvetica,sans-Serif" font-size="10.00">string</text>
</a>
</g>
</g>
<!-- Node13&#45;&gt;Node14 -->
<g id="edge22_Node000013_Node000014" class="edge">
<title>Node13&#45;&gt;Node14</title>
<g id="a_edge22_Node000013_Node000014"><a xlink:title=" ">
<path fill="none" stroke="#63b8ff" d="M223.97,-109.98C195.69,-100.73 150.47,-85.94 120.02,-75.98"/>
<polygon fill="#63b8ff" stroke="#63b8ff" points="120.91,-72.58 110.31,-72.8 118.73,-79.24 120.91,-72.58"/>
</a>
</g>
</g>
<!-- Node15 -->
<g id="Node000015" class="node">
<title>Node15</title>
<g id="a_Node000015"><a xlink:title=" ">
<polygon fill="#e0e0e0" stroke="#999999" points="221.5,-74 128.5,-74 128.5,-55 221.5,-55 221.5,-74"/>
<text text-anchor="middle" x="175" y="-62" font-family="Helvetica,sans-Serif" font-size="10.00">unordered_map</text>
</a>
</g>
</g>
<!-- Node13&#45;&gt;Node15 -->
<g id="edge26_Node000013_Node000015" class="edge">
<title>Node13&#45;&gt;Node15</title>
<g id="a_edge26_Node000013_Node000015"><a xlink:title=" ">
<path fill="none" stroke="#63b8ff" d="M237.95,-109.98C226.54,-101.92 209.17,-89.65 195.57,-80.03"/>
<polygon fill="#63b8ff" stroke="#63b8ff" points="197.46,-77.08 187.27,-74.17 193.42,-82.8 197.46,-77.08"/>
</a>
</g>
</g>
<!-- Node16&#45;&gt;Node11 -->
<g id="edge28_Node000016_Node000011" class="edge">
<title>Node16&#45;&gt;Node11</title>
<g id="a_edge28_Node000016_Node000011"><a xlink:title=" ">
<path fill="none" stroke="#63b8ff" d="M223.73,-219.98C301.98,-209.01 435.77,-190.25 501.79,-181"/>
<polygon fill="#63b8ff" stroke="#63b8ff" points="502.37,-184.45 511.78,-179.6 501.39,-177.52 502.37,-184.45"/>
</a>
</g>
</g>
<!-- Node16&#45;&gt;Node12 -->
<g id="edge32_Node000016_Node000012" class="edge">
<title>Node16&#45;&gt;Node12</title>
<g id="a_edge32_Node000016_Node000012"><a xlink:title=" ">
<path fill="none" stroke="#63b8ff" d="M195.29,-219.98C229.62,-210.93 284.06,-196.58 321.77,-186.64"/>
<polygon fill="#63b8ff" stroke="#63b8ff" points="322.68,-190.02 331.45,-184.08 320.89,-183.25 322.68,-190.02"/>
</a>
</g>
</g>
<!-- Node16&#45;&gt;Node14 -->
<g id="edge31_Node000016_Node000014" class="edge">
<title>Node16&#45;&gt;Node14</title>
<g id="a_edge31_Node000016_Node000014"><a xlink:title=" ">
<path fill="none" stroke="#63b8ff" d="M156.93,-219.91C150.89,-211.15 141.61,-197.02 135,-184 117.62,-149.75 102.21,-107.49 94.08,-83.81"/>
<polygon fill="#63b8ff" stroke="#63b8ff" points="97.3,-82.42 90.79,-74.07 90.67,-84.66 97.3,-82.42"/>
</a>
</g>
</g>
<!-- Node16&#45;&gt;Node15 -->
<g id="edge29_Node000016_Node000015" class="edge">
<title>Node16&#45;&gt;Node15</title>
<g id="a_edge29_Node000016_Node000015"><a xlink:title=" ">
<path fill="none" stroke="#63b8ff" d="M157.16,-219.76C151.75,-211.1 144.1,-197.26 141,-184 132.51,-147.69 151.33,-105.92 164.21,-82.94"/>
<polygon fill="#63b8ff" stroke="#63b8ff" points="167.38,-84.44 169.43,-74.05 161.35,-80.9 167.38,-84.44"/>
</a>
</g>
</g>
<!-- Node17 -->
<g id="Node000017" class="node">
<title>Node17</title>
<g id="a_Node000017"><a xlink:title=" ">
<polygon fill="#e0e0e0" stroke="#999999" points="215.5,-184 150.5,-184 150.5,-165 215.5,-165 215.5,-184"/>
<text text-anchor="middle" x="183" y="-172" font-family="Helvetica,sans-Serif" font-size="10.00">functional</text>
</a>
</g>
</g>
<!-- Node16&#45;&gt;Node17 -->
<g id="edge30_Node000016_Node000017" class="edge">
<title>Node16&#45;&gt;Node17</title>
<g id="a_edge30_Node000016_Node000017"><a xlink:title=" ">
<path fill="none" stroke="#63b8ff" d="M166.3,-219.75C168.98,-212.65 172.85,-202.4 176.19,-193.56"/>
<polygon fill="#63b8ff" stroke="#63b8ff" points="179.5,-194.68 179.76,-184.09 172.95,-192.21 179.5,-194.68"/>
</a>
</g>
</g>
<!-- Node18&#45;&gt;Node4 -->
<g id="edge36_Node000018_Node000004" class="edge">
<title>Node18&#45;&gt;Node4</title>
<g id="a_edge36_Node000018_Node000004"><a xlink:title=" ">
<path fill="none" stroke="#63b8ff" d="M332.96,-274.96C380.75,-256.98 483.13,-210.05 514,-129 519.46,-114.66 518.98,-97.13 517.41,-84.13"/>
<polygon fill="#63b8ff" stroke="#63b8ff" points="520.84,-83.42 515.87,-74.06 513.92,-84.48 520.84,-83.42"/>
</a>
</g>
</g>
<!-- Node18&#45;&gt;Node12 -->
<g id="edge34_Node000018_Node000012" class="edge">
<title>Node18&#45;&gt;Node12</title>
<g id="a_edge34_Node000018_Node000012"><a xlink:title=" ">
<path fill="none" stroke="#63b8ff" d="M312.58,-274.66C321.78,-256.93 342.62,-216.73 354.76,-193.32"/>
<polygon fill="#63b8ff" stroke="#63b8ff" points="358.01,-194.65 359.51,-184.16 351.8,-191.42 358.01,-194.65"/>
</a>
</g>
</g>
<!-- Node18&#45;&gt;Node13 -->
<g id="edge37_Node000018_Node000013" class="edge">
<title>Node18&#45;&gt;Node13</title>
<g id="a_edge37_Node000018_Node000013"><a xlink:title=" ">
<path fill="none" stroke="#63b8ff" d="M303.05,-274.74C293.66,-257.77 273.2,-218.98 262,-184 257.29,-169.29 254.17,-152.04 252.3,-139.23"/>
<polygon fill="#63b8ff" stroke="#63b8ff" points="255.77,-138.74 250.97,-129.3 248.83,-139.67 255.77,-138.74"/>
</a>
</g>
</g>
<!-- Node18&#45;&gt;Node16 -->
<g id="edge35_Node000018_Node000016" class="edge">
<title>Node18&#45;&gt;Node16</title>
<g id="a_edge35_Node000018_Node000016"><a xlink:title=" ">
<path fill="none" stroke="#63b8ff" d="M284.7,-274.98C260.75,-266.23 223.22,-252.51 196.17,-242.62"/>
<polygon fill="#63b8ff" stroke="#63b8ff" points="197.31,-239.32 186.72,-239.17 194.91,-245.89 197.31,-239.32"/>
</a>
</g>
</g>
<!-- Node19&#45;&gt;Node3 -->
<g id="edge40_Node000019_Node000003" class="edge">
<title>Node19&#45;&gt;Node3</title>
<g id="a_edge40_Node000019_Node000003"><a xlink:title=" ">
<path fill="none" stroke="#63b8ff" d="M595.17,-439.75C595.3,-432.8 595.48,-422.85 595.65,-414.13"/>
<polygon fill="#63b8ff" stroke="#63b8ff" points="599.15,-414.15 595.84,-404.09 592.15,-414.02 599.15,-414.15"/>
</a>
</g>
</g>
</g>
</svg>

<g id="navigator" transform="translate(0 0)" fill="#404254">
  <rect fill="#f2f5e9" fill-opacity="0.5" stroke="#606060" stroke-width=".5" x="0" y="0" width="60" height="60"/>
  <use id="zoomplus" xlink:href="#zoomPlus" x="17" y="9" onmousedown="handleZoom(evt,'in')"/>
  <use id="zoomminus" xlink:href="#zoomMin" x="42" y="9" onmousedown="handleZoom(evt,'out')"/>
  <use id="reset" xlink:href="#resetDef" x="30" y="36" onmousedown="handleReset()"/>
   <use id="arrowup" xlink:href="#arrowUp" x="0" y="0" onmousedown="handlePan(0,-1)"/>
  <use id="arrowright" xlink:href="#arrowRight" x="0" y="0" onmousedown="handlePan(1,0)"/>
  <use id="arrowdown" xlink:href="#arrowDown" x="0" y="0" onmousedown="handlePan(0,1)"/>
  <use id="arrowleft" xlink:href="#arrowLeft" x="0" y="0" onmousedown="handlePan(-1,0)"/>
</g>
<svg viewBox="0 0 15 15" width="100%" height="30px" preserveAspectRatio="xMaxYMin meet">
 <g id="arrow_out" transform="scale(0.3 0.3)">
  <a xlink:href="CCSDSManager_8h__incl_org.svg" target="_base">
   <rect id="button" ry="5" rx="5" y="6" x="6" height="38" width="38"
        fill="#f2f5e9" fill-opacity="0.5" stroke="#606060" stroke-width="1.0"/>
   <path id="arrow"
     d="M 11.500037,31.436501 C 11.940474,20.09759 22.043105,11.32322 32.158766,21.979434 L 37.068811,17.246167 C 37.068811,17.246167 37.088388,32 37.088388,32 L 22.160133,31.978069 C 22.160133,31.978069 26.997745,27.140456 26.997745,27.140456 C 18.528582,18.264221 13.291696,25.230495 11.500037,31.436501 z"
     style="fill:#404040;"/>
  </a>
 </g>
</svg>

<style type='text/css'>
<![CDATA[
[data-mouse-over-selected='false'] { opacity: 0.7; }
[data-mouse-over-selected='true']  { opacity: 1.0; }
]]>
</style>
<script type="application/ecmascript"><![CDATA[
document.addEventListener('DOMContentLoaded', (event) => {
  highlightEdges();
  highlightAdjacentNodes();
});
]]></script>
</svg>
