<?xml version="1.0" encoding="UTF-8" standalone="no"?>
<!DOCTYPE svg PUBLIC "-//W3C//DTD SVG 1.1//EN"
 "http://www.w3.org/Graphics/SVG/1.1/DTD/svg11.dtd">
<!-- Generated by graphviz version 2.43.0 (0)
 -->
<!-- Title: inc/CCSDSResult.h Pages: 1 -->
<!--zoomable 654 -->

<svg id="main" version="1.1" xmlns="http://www.w3.org/2000/svg" xmlns:xlink="http://www.w3.org/1999/xlink" xml:space="preserve" onload="init(evt)">
<style type="text/css"><![CDATA[
.node, .edge {opacity: 0.7;}
.node.selected, .edge.selected {opacity: 1;}
.edge:hover path { stroke: red; }
.edge:hover polygon { stroke: red; fill: red; }
]]></style>

<defs>
  <circle id="rim" cx="0" cy="0" r="7"/>
  <circle id="rim2" cx="0" cy="0" r="3.5"/>
  <g id="zoomPlus">
    <use xlink:href="#rim" fill="#404040"><set attributeName="fill" to="#808080" begin="zoomplus.mouseover" end="zoomplus.mouseout"/></use>
    <path d="M-4,0h8M0,-4v8" fill="none" stroke="white" stroke-width="1.5" pointer-events="none"/>
  </g>
  <g id="zoomMin">
    <use xlink:href="#rim" fill="#404040"><set attributeName="fill" to="#808080" begin="zoomminus.mouseover" end="zoomminus.mouseout"/></use>
    <path d="M-4,0h8" fill="none" stroke="white" stroke-width="1.5" pointer-events="none"/>
  </g>
  <g id="arrowUp" transform="translate(30 24)">
    <use xlink:href="#rim"/>
    <path pointer-events="none" fill="none" stroke="white" stroke-width="1.5" d="M0,-3.0v7 M-2.5,-0.5L0,-3.0L2.5,-0.5"/>
  </g>
  <g id="arrowRight" transform="rotate(90) translate(36 -43)">
    <use xlink:href="#rim"/>
    <path pointer-events="none" fill="none" stroke="white" stroke-width="1.5" d="M0,-3.0v7 M-2.5,-0.5L0,-3.0L2.5,-0.5"/>
  </g>
  <g id="arrowDown" transform="rotate(180) translate(-30 -48)">
    <use xlink:href="#rim"/>
    <path pointer-events="none" fill="none" stroke="white" stroke-width="1.5" d="M0,-3.0v7 M-2.5,-0.5L0,-3.0L2.5,-0.5"/>
  </g>
  <g id="arrowLeft" transform="rotate(270) translate(-36 17)">
    <use xlink:href="#rim"/>
    <path pointer-events="none" fill="none" stroke="white" stroke-width="1.5" d="M0,-3.0v7 M-2.5,-0.5L0,-3.0L2.5,-0.5"/>
  </g>
  <g id="resetDef">
    <use xlink:href="#rim2" fill="#404040"><set attributeName="fill" to="#808080" begin="reset.mouseover" end="reset.mouseout"/></use>
  </g>
</defs>
<script type="application/ecmascript">
var viewWidth = 1262;
var viewHeight = 654;
var sectionId = 'dynsection-1';
</script>
<script type="application/ecmascript" xlink:href="svg.min.js"/>
<svg id="graph" class="graph">
<g id="viewport">
<title>inc/CCSDSResult.h</title>
<!-- Node1 -->
<g id="Node000001" class="node">
<title>Node1</title>
<g id="a_Node000001"><a xlink:title=" ">
<polygon fill="#999999" stroke="#666666" points="627.5,-646 520.5,-646 520.5,-627 627.5,-627 627.5,-646"/>
<text text-anchor="middle" x="574" y="-634" font-family="Helvetica,sans-Serif" font-size="10.00">inc/CCSDSResult.h</text>
</a>
</g>
</g>
<!-- Node2 -->
<g id="Node000002" class="node">
<title>Node2</title>
<g id="a_Node000002"><a xlink:href="CCSDSConfig_8h.html" target="_top" xlink:title=" ">
<polygon fill="white" stroke="#666666" points="464.5,-591 357.5,-591 357.5,-572 464.5,-572 464.5,-591"/>
<text text-anchor="middle" x="411" y="-579" font-family="Helvetica,sans-Serif" font-size="10.00">inc/CCSDSConfig.h</text>
</a>
</g>
</g>
<!-- Node1&#45;&gt;Node2 -->
<g id="edge1_Node000001_Node000002" class="edge">
<title>Node1&#45;&gt;Node2</title>
<g id="a_edge1_Node000001_Node000002"><a xlink:title=" ">
<path fill="none" stroke="#63b8ff" d="M538.01,-623.8C507.59,-613.91 464.72,-599.97 437.39,-591.08"/>
<polygon fill="#63b8ff" stroke="#63b8ff" points="537.22,-627.22 547.81,-626.98 539.38,-620.56 537.22,-627.22"/>
</a>
</g>
</g>
<!-- Node3 -->
<g id="Node000003" class="node">
<title>Node3</title>
<g id="a_Node000003"><a xlink:href="CCSDSSecondaryHeaderAbstract_8h.html" target="_top" xlink:title=" ">
<polygon fill="white" stroke="#666666" points="295.5,-536 142.5,-536 142.5,-506 295.5,-506 295.5,-536"/>
<text text-anchor="start" x="150.5" y="-524" font-family="Helvetica,sans-Serif" font-size="10.00">inc/CCSDSSecondaryHeader</text>
<text text-anchor="middle" x="219" y="-513" font-family="Helvetica,sans-Serif" font-size="10.00">Abstract.h</text>
</a>
</g>
</g>
<!-- Node1&#45;&gt;Node3 -->
<g id="edge51_Node000001_Node000003" class="edge">
<title>Node1&#45;&gt;Node3</title>
<g id="a_edge51_Node000001_Node000003"><a xlink:title=" ">
<path fill="none" stroke="#63b8ff" d="M510.16,-628.08C464.13,-621.5 401.05,-609.93 348,-591 308.05,-576.74 265.33,-551.72 240.45,-536.05"/>
<polygon fill="#63b8ff" stroke="#63b8ff" points="509.91,-631.58 520.29,-629.49 510.87,-624.65 509.91,-631.58"/>
</a>
</g>
</g>
<!-- Node4 -->
<g id="Node000004" class="node">
<title>Node4</title>
<g id="a_Node000004"><a xlink:href="CCSDSDataField_8h.html" target="_top" xlink:title=" ">
<polygon fill="white" stroke="#666666" points="352,-349 230,-349 230,-330 352,-330 352,-349"/>
<text text-anchor="middle" x="291" y="-337" font-family="Helvetica,sans-Serif" font-size="10.00">inc/CCSDSDataField.h</text>
</a>
</g>
</g>
<!-- Node1&#45;&gt;Node4 -->
<g id="edge43_Node000001_Node000004" class="edge">
<title>Node1&#45;&gt;Node4</title>
<g id="a_edge43_Node000001_Node000004"><a xlink:title=" ">
<path fill="none" stroke="#63b8ff" d="M569.44,-616.92C565.88,-603.94 560.31,-586.42 553,-572 502.62,-472.61 477.09,-449.18 386,-385 363.82,-369.37 335.27,-356.86 315.29,-349.13"/>
<polygon fill="#63b8ff" stroke="#63b8ff" points="566.15,-618.16 572.04,-626.96 572.92,-616.4 566.15,-618.16"/>
</a>
</g>
</g>
<!-- Node5 -->
<g id="Node000005" class="node">
<title>Node5</title>
<g id="a_Node000005"><a xlink:href="CCSDSPack_8h.html" target="_top" xlink:title=" ">
<polygon fill="white" stroke="#666666" points="305,-74 207,-74 207,-55 305,-55 305,-74"/>
<text text-anchor="middle" x="256" y="-62" font-family="Helvetica,sans-Serif" font-size="10.00">inc/CCSDSPack.h</text>
</a>
</g>
</g>
<!-- Node1&#45;&gt;Node5 -->
<g id="edge49_Node000001_Node000005" class="edge">
<title>Node1&#45;&gt;Node5</title>
<g id="a_edge49_Node000001_Node000005"><a xlink:title=" ">
<path fill="none" stroke="#63b8ff" d="M509.85,-636.18C360.07,-636.03 0,-624.98 0,-522 0,-522 0,-522 0,-173.5 0,-84.62 132.61,-67.74 206.94,-65.25"/>
<polygon fill="#63b8ff" stroke="#63b8ff" points="510.26,-639.68 520.26,-636.17 510.25,-632.68 510.26,-639.68"/>
</a>
</g>
</g>
<!-- Node9 -->
<g id="Node000009" class="node">
<title>Node9</title>
<g id="a_Node000009"><a xlink:href="CCSDSPacket_8h.html" target="_top" xlink:title=" ">
<polygon fill="white" stroke="#666666" points="702.5,-294 595.5,-294 595.5,-275 702.5,-275 702.5,-294"/>
<text text-anchor="middle" x="649" y="-282" font-family="Helvetica,sans-Serif" font-size="10.00">inc/CCSDSPacket.h</text>
</a>
</g>
</g>
<!-- Node1&#45;&gt;Node9 -->
<g id="edge50_Node000001_Node000009" class="edge">
<title>Node1&#45;&gt;Node9</title>
<g id="a_edge50_Node000001_Node000009"><a xlink:title=" ">
<path fill="none" stroke="#63b8ff" d="M604.75,-622.76C640.59,-605.61 695,-571.44 695,-522 695,-522 695,-522 695,-393.5 695,-353.76 668.31,-311.9 655.59,-294.2"/>
<polygon fill="#63b8ff" stroke="#63b8ff" points="603.26,-619.59 595.63,-626.95 606.18,-625.95 603.26,-619.59"/>
</a>
</g>
</g>
<!-- Node10 -->
<g id="Node000010" class="node">
<title>Node10</title>
<g id="a_Node000010"><a xlink:href="CCSDSManager_8h.html" target="_top" xlink:title=" ">
<polygon fill="white" stroke="#666666" points="831,-184 713,-184 713,-165 831,-165 831,-184"/>
<text text-anchor="middle" x="772" y="-172" font-family="Helvetica,sans-Serif" font-size="10.00">inc/CCSDSManager.h</text>
</a>
</g>
</g>
<!-- Node1&#45;&gt;Node10 -->
<g id="edge48_Node000001_Node000010" class="edge">
<title>Node1&#45;&gt;Node10</title>
<g id="a_edge48_Node000001_Node000010"><a xlink:title=" ">
<path fill="none" stroke="#63b8ff" d="M630.75,-624.95C714.14,-607.8 860,-570.83 860,-522 860,-522 860,-522 860,-283.5 860,-254.04 858.7,-243.55 841,-220 828.58,-203.48 808.1,-191.39 792.66,-184.02"/>
<polygon fill="#63b8ff" stroke="#63b8ff" points="630.01,-621.53 620.91,-626.94 631.4,-628.39 630.01,-621.53"/>
</a>
</g>
</g>
<!-- Node21 -->
<g id="Node000021" class="node">
<title>Node21</title>
<g id="a_Node000021"><a xlink:href="PusServices_8h.html" target="_top" xlink:title=" ">
<polygon fill="white" stroke="#666666" points="377.5,-404 276.5,-404 276.5,-385 377.5,-385 377.5,-404"/>
<text text-anchor="middle" x="327" y="-392" font-family="Helvetica,sans-Serif" font-size="10.00">inc/PusServices.h</text>
</a>
</g>
</g>
<!-- Node1&#45;&gt;Node21 -->
<g id="edge52_Node000001_Node000021" class="edge">
<title>Node1&#45;&gt;Node21</title>
<g id="a_edge52_Node000001_Node000021"><a xlink:title=" ">
<path fill="none" stroke="#63b8ff" d="M563.73,-618.17C547.73,-592.03 514.92,-541.76 479,-506 434.38,-461.57 370.65,-421.33 341.98,-404.21"/>
<polygon fill="#63b8ff" stroke="#63b8ff" points="560.85,-620.18 569.01,-626.93 566.85,-616.56 560.85,-620.18"/>
</a>
</g>
</g>
<!-- Node23 -->
<g id="Node000023" class="node">
<title>Node23</title>
<g id="a_Node000023"><a xlink:href="CCSDSHeader_8h.html" target="_top" xlink:title=" ">
<polygon fill="white" stroke="#666666" points="667,-349 557,-349 557,-330 667,-330 667,-349"/>
<text text-anchor="middle" x="612" y="-337" font-family="Helvetica,sans-Serif" font-size="10.00">inc/CCSDSHeader.h</text>
</a>
</g>
</g>
<!-- Node1&#45;&gt;Node23 -->
<g id="edge44_Node000001_Node000023" class="edge">
<title>Node1&#45;&gt;Node23</title>
<g id="a_edge44_Node000001_Node000023"><a xlink:title=" ">
<path fill="none" stroke="#63b8ff" d="M583.8,-618C595.06,-596.21 612,-557.52 612,-522 612,-522 612,-522 612,-454 612,-414.79 612,-367.95 612,-349.04"/>
<polygon fill="#63b8ff" stroke="#63b8ff" points="580.61,-616.53 578.97,-627 586.78,-619.84 580.61,-616.53"/>
</a>
</g>
</g>
<!-- Node24 -->
<g id="Node000024" class="node">
<title>Node24</title>
<g id="a_Node000024"><a xlink:href="exec__utils_8h.html" target="_top" xlink:title=" ">
<polygon fill="white" stroke="#666666" points="1248,-74 1156,-74 1156,-55 1248,-55 1248,-74"/>
<text text-anchor="middle" x="1202" y="-62" font-family="Helvetica,sans-Serif" font-size="10.00">inc/exec_utils.h</text>
</a>
</g>
</g>
<!-- Node1&#45;&gt;Node24 -->
<g id="edge53_Node000001_Node000024" class="edge">
<title>Node1&#45;&gt;Node24</title>
<g id="a_edge53_Node000001_Node000024"><a xlink:title=" ">
<path fill="none" stroke="#63b8ff" d="M638.21,-635.16C779.72,-632.67 1106,-616.67 1106,-522 1106,-522 1106,-522 1106,-173.5 1106,-126.09 1158.33,-89.82 1185.71,-74.08"/>
<polygon fill="#63b8ff" stroke="#63b8ff" points="637.88,-631.66 627.94,-635.32 637.99,-638.66 637.88,-631.66"/>
</a>
</g>
</g>
<!-- Node2&#45;&gt;Node3 -->
<g id="edge2_Node000002_Node000003" class="edge">
<title>Node2&#45;&gt;Node3</title>
<g id="a_edge2_Node000002_Node000003"><a xlink:title=" ">
<path fill="none" stroke="#63b8ff" d="M373.51,-569.08C342.5,-559.63 298.34,-546.17 265.16,-536.06"/>
<polygon fill="#63b8ff" stroke="#63b8ff" points="372.5,-572.43 383.08,-571.99 374.54,-565.73 372.5,-572.43"/>
</a>
</g>
</g>
<!-- Node14 -->
<g id="Node000014" class="node">
<title>Node14</title>
<g id="a_Node000014"><a xlink:href="CCSDSPacket_8cpp.html" target="_top" xlink:title=" ">
<polygon fill="white" stroke="#666666" points="573.5,-74 454.5,-74 454.5,-55 573.5,-55 573.5,-74"/>
<text text-anchor="middle" x="514" y="-62" font-family="Helvetica,sans-Serif" font-size="10.00">src/CCSDSPacket.cpp</text>
</a>
</g>
</g>
<!-- Node2&#45;&gt;Node14 -->
<g id="edge42_Node000002_Node000014" class="edge">
<title>Node2&#45;&gt;Node14</title>
<g id="a_edge42_Node000002_Node000014"><a xlink:title=" ">
<path fill="none" stroke="#63b8ff" d="M439.79,-567.17C453.29,-559.67 468.65,-549.15 479,-536 519.98,-483.91 529,-461.78 529,-395.5 529,-395.5 529,-395.5 529,-283.5 529,-201.94 518.42,-103.61 515.03,-74.21"/>
<polygon fill="#63b8ff" stroke="#63b8ff" points="438.05,-564.13 430.82,-571.88 441.3,-570.33 438.05,-564.13"/>
</a>
</g>
</g>
<!-- Node2&#45;&gt;Node21 -->
<g id="edge40_Node000002_Node000021" class="edge">
<title>Node2&#45;&gt;Node21</title>
<g id="a_edge40_Node000002_Node000021"><a xlink:title=" ">
<path fill="none" stroke="#63b8ff" d="M379.43,-567.36C365.99,-560.12 351.48,-549.76 343,-536 316.34,-492.74 322.33,-427.58 325.6,-404.22"/>
<polygon fill="#63b8ff" stroke="#63b8ff" points="377.97,-570.54 388.48,-571.88 381.1,-564.28 377.97,-570.54"/>
</a>
</g>
</g>
<!-- Node22 -->
<g id="Node000022" class="node">
<title>Node22</title>
<g id="a_Node000022"><a xlink:href="CCSDSConfig_8cpp.html" target="_top" xlink:title=" ">
<polygon fill="white" stroke="#666666" points="470,-530.5 352,-530.5 352,-511.5 470,-511.5 470,-530.5"/>
<text text-anchor="middle" x="411" y="-518.5" font-family="Helvetica,sans-Serif" font-size="10.00">src/CCSDSConfig.cpp</text>
</a>
</g>
</g>
<!-- Node2&#45;&gt;Node22 -->
<g id="edge41_Node000002_Node000022" class="edge">
<title>Node2&#45;&gt;Node22</title>
<g id="a_edge41_Node000002_Node000022"><a xlink:title=" ">
<path fill="none" stroke="#63b8ff" d="M411,-561.66C411,-551.24 411,-538.8 411,-530.67"/>
<polygon fill="#63b8ff" stroke="#63b8ff" points="407.5,-561.87 411,-571.87 414.5,-561.87 407.5,-561.87"/>
</a>
</g>
</g>
<!-- Node3&#45;&gt;Node4 -->
<g id="edge3_Node000003_Node000004" class="edge">
<title>Node3&#45;&gt;Node4</title>
<g id="a_edge3_Node000003_Node000004"><a xlink:title=" ">
<path fill="none" stroke="#63b8ff" d="M226.28,-496.09C234.87,-468.76 250.15,-422.93 267,-385 272.7,-372.17 280.65,-357.99 285.81,-349.17"/>
<polygon fill="#63b8ff" stroke="#63b8ff" points="222.84,-495.34 223.22,-505.93 229.53,-497.42 222.84,-495.34"/>
</a>
</g>
</g>
<!-- Node3&#45;&gt;Node5 -->
<g id="edge30_Node000003_Node000005" class="edge">
<title>Node3&#45;&gt;Node5</title>
<g id="a_edge30_Node000003_Node000005"><a xlink:title=" ">
<path fill="none" stroke="#63b8ff" d="M132.37,-510.15C105.01,-503 76.79,-490.8 57,-470 33.44,-445.25 38,-429.67 38,-395.5 38,-395.5 38,-395.5 38,-173.5 38,-98.63 142.51,-75.67 206.8,-68.62"/>
<polygon fill="#63b8ff" stroke="#63b8ff" points="131.85,-513.62 142.39,-512.56 133.48,-506.82 131.85,-513.62"/>
</a>
</g>
</g>
<!-- Node20 -->
<g id="Node000020" class="node">
<title>Node20</title>
<g id="a_Node000020"><a xlink:href="CCSDSSecondaryHeaderFactory_8h.html" target="_top" xlink:title=" ">
<polygon fill="white" stroke="#666666" points="219.5,-470 66.5,-470 66.5,-440 219.5,-440 219.5,-470"/>
<text text-anchor="start" x="74.5" y="-458" font-family="Helvetica,sans-Serif" font-size="10.00">inc/CCSDSSecondaryHeader</text>
<text text-anchor="middle" x="143" y="-447" font-family="Helvetica,sans-Serif" font-size="10.00">Factory.h</text>
</a>
</g>
</g>
<!-- Node3&#45;&gt;Node20 -->
<g id="edge31_Node000003_Node000020" class="edge">
<title>Node3&#45;&gt;Node20</title>
<g id="a_edge31_Node000003_Node000020"><a xlink:title=" ">
<path fill="none" stroke="#63b8ff" d="M194.3,-499.2C183.02,-489.7 169.95,-478.69 159.82,-470.16"/>
<polygon fill="#63b8ff" stroke="#63b8ff" points="192.23,-502.03 202.13,-505.8 196.74,-496.68 192.23,-502.03"/>
</a>
</g>
</g>
<!-- Node3&#45;&gt;Node21 -->
<g id="edge39_Node000003_Node000021" class="edge">
<title>Node3&#45;&gt;Node21</title>
<g id="a_edge39_Node000003_Node000021"><a xlink:title=" ">
<path fill="none" stroke="#63b8ff" d="M238.04,-498.05C262.26,-470.13 302.93,-423.25 319.57,-404.07"/>
<polygon fill="#63b8ff" stroke="#63b8ff" points="235.3,-495.87 231.39,-505.72 240.59,-500.46 235.3,-495.87"/>
</a>
</g>
</g>
<!-- Node4&#45;&gt;Node5 -->
<g id="edge4_Node000004_Node000005" class="edge">
<title>Node4&#45;&gt;Node5</title>
<g id="a_edge4_Node000004_Node000005"><a xlink:title=" ">
<path fill="none" stroke="#63b8ff" d="M289.44,-319.66C288.33,-307.02 286.74,-289.99 285,-275 275.91,-196.95 261.75,-102.99 257.35,-74.26"/>
<polygon fill="#63b8ff" stroke="#63b8ff" points="285.97,-320.19 290.3,-329.86 292.94,-319.6 285.97,-320.19"/>
</a>
</g>
</g>
<!-- Node4&#45;&gt;Node9 -->
<g id="edge8_Node000004_Node000009" class="edge">
<title>Node4&#45;&gt;Node9</title>
<g id="a_edge8_Node000004_Node000009"><a xlink:title=" ">
<path fill="none" stroke="#63b8ff" d="M358.8,-328.46C427.49,-318.29 532.35,-302.77 595.43,-293.43"/>
<polygon fill="#63b8ff" stroke="#63b8ff" points="357.9,-325.06 348.52,-329.98 358.92,-331.98 357.9,-325.06"/>
</a>
</g>
</g>
<!-- Node4&#45;&gt;Node14 -->
<g id="edge28_Node000004_Node000014" class="edge">
<title>Node4&#45;&gt;Node14</title>
<g id="a_edge28_Node000004_Node000014"><a xlink:title=" ">
<path fill="none" stroke="#63b8ff" d="M309.92,-323.6C319.91,-315.34 332.12,-304.62 342,-294 415.39,-215.11 487.95,-105.78 508.35,-74.3"/>
<polygon fill="#63b8ff" stroke="#63b8ff" points="307.71,-320.89 302.14,-329.91 312.11,-326.33 307.71,-320.89"/>
</a>
</g>
</g>
<!-- Node17 -->
<g id="Node000017" class="node">
<title>Node17</title>
<g id="a_Node000017"><a xlink:href="PusServices_8cpp.html" target="_top" xlink:title=" ">
<polygon fill="white" stroke="#666666" points="436.5,-74 323.5,-74 323.5,-55 436.5,-55 436.5,-74"/>
<text text-anchor="middle" x="380" y="-62" font-family="Helvetica,sans-Serif" font-size="10.00">src/PusServices.cpp</text>
</a>
</g>
</g>
<!-- Node4&#45;&gt;Node17 -->
<g id="edge29_Node000004_Node000017" class="edge">
<title>Node4&#45;&gt;Node17</title>
<g id="a_edge29_Node000004_Node000017"><a xlink:title=" ">
<path fill="none" stroke="#63b8ff" d="M304.44,-322.01C319.55,-301.75 342,-265.72 342,-230.5 342,-230.5 342,-230.5 342,-173.5 342,-134.54 364.27,-91.93 374.72,-74.1"/>
<polygon fill="#63b8ff" stroke="#63b8ff" points="301.67,-319.87 298.31,-329.91 307.2,-324.16 301.67,-319.87"/>
</a>
</g>
</g>
<!-- Node19 -->
<g id="Node000019" class="node">
<title>Node19</title>
<g id="a_Node000019"><a xlink:href="CCSDSDataField_8cpp.html" target="_top" xlink:title=" ">
<polygon fill="white" stroke="#666666" points="276,-294 142,-294 142,-275 276,-275 276,-294"/>
<text text-anchor="middle" x="209" y="-282" font-family="Helvetica,sans-Serif" font-size="10.00">src/CCSDSDataField.cpp</text>
</a>
</g>
</g>
<!-- Node4&#45;&gt;Node19 -->
<g id="edge27_Node000004_Node000019" class="edge">
<title>Node4&#45;&gt;Node19</title>
<g id="a_edge27_Node000004_Node000019"><a xlink:title=" ">
<path fill="none" stroke="#63b8ff" d="M269.22,-324.42C254.34,-314.81 235.09,-302.37 222.41,-294.17"/>
<polygon fill="#63b8ff" stroke="#63b8ff" points="267.53,-327.5 277.83,-329.98 271.33,-321.62 267.53,-327.5"/>
</a>
</g>
</g>
<!-- Node6 -->
<g id="Node000006" class="node">
<title>Node6</title>
<g id="a_Node000006"><a xlink:href="exec__decoder_8cpp.html" target="_top" xlink:title=" ">
<polygon fill="white" stroke="#666666" points="583,-19 463,-19 463,0 583,0 583,-19"/>
<text text-anchor="middle" x="523" y="-7" font-family="Helvetica,sans-Serif" font-size="10.00">src/exec_decoder.cpp</text>
</a>
</g>
</g>
<!-- Node5&#45;&gt;Node6 -->
<g id="edge5_Node000005_Node000006" class="edge">
<title>Node5&#45;&gt;Node6</title>
<g id="a_edge5_Node000005_Node000006"><a xlink:title=" ">
<path fill="none" stroke="#63b8ff" d="M308.88,-53C358.93,-43.07 433.16,-28.33 479.77,-19.08"/>
<polygon fill="#63b8ff" stroke="#63b8ff" points="308.03,-49.6 298.9,-54.98 309.39,-56.47 308.03,-49.6"/>
</a>
</g>
</g>
<!-- Node7 -->
<g id="Node000007" class="node">
<title>Node7</title>
<g id="a_Node000007"><a xlink:href="exec__encoder_8cpp.html" target="_top" xlink:title=" ">
<polygon fill="white" stroke="#666666" points="855,-19 735,-19 735,0 855,0 855,-19"/>
<text text-anchor="middle" x="795" y="-7" font-family="Helvetica,sans-Serif" font-size="10.00">src/exec_encoder.cpp</text>
</a>
</g>
</g>
<!-- Node5&#45;&gt;Node7 -->
<g id="edge6_Node000005_Node000007" class="edge">
<title>Node5&#45;&gt;Node7</title>
<g id="a_edge6_Node000005_Node000007"><a xlink:title=" ">
<path fill="none" stroke="#63b8ff" d="M315.37,-54.9C472.77,-36.31 645.7,-21.97 734.9,-15.03"/>
<polygon fill="#63b8ff" stroke="#63b8ff" points="314.54,-51.47 305.02,-56.13 315.37,-58.42 314.54,-51.47"/>
</a>
</g>
</g>
<!-- Node8 -->
<g id="Node000008" class="node">
<title>Node8</title>
<g id="a_Node000008"><a xlink:href="exec__validator_8cpp.html" target="_top" xlink:title=" ">
<polygon fill="white" stroke="#666666" points="1065.5,-19 940.5,-19 940.5,0 1065.5,0 1065.5,-19"/>
<text text-anchor="middle" x="1003" y="-7" font-family="Helvetica,sans-Serif" font-size="10.00">src/exec_validator.cpp</text>
</a>
</g>
</g>
<!-- Node5&#45;&gt;Node8 -->
<g id="edge7_Node000005_Node000008" class="edge">
<title>Node5&#45;&gt;Node8</title>
<g id="a_edge7_Node000005_Node000008"><a xlink:title=" ">
<path fill="none" stroke="#63b8ff" d="M315.43,-55.09C392.86,-48.73 785.58,-24.08 940.33,-14.41"/>
<polygon fill="#63b8ff" stroke="#63b8ff" points="314.66,-51.65 305.01,-56.03 315.29,-58.62 314.66,-51.65"/>
</a>
</g>
</g>
<!-- Node9&#45;&gt;Node5 -->
<g id="edge20_Node000009_Node000005" class="edge">
<title>Node9&#45;&gt;Node5</title>
<g id="a_edge20_Node000009_Node000005"><a xlink:title=" ">
<path fill="none" stroke="#63b8ff" d="M624.58,-269.95C550.92,-229.09 332.32,-107.83 271.73,-74.22"/>
<polygon fill="#63b8ff" stroke="#63b8ff" points="623.15,-273.16 633.59,-274.95 626.55,-267.04 623.15,-273.16"/>
</a>
</g>
</g>
<!-- Node9&#45;&gt;Node10 -->
<g id="edge9_Node000009_Node000010" class="edge">
<title>Node9&#45;&gt;Node10</title>
<g id="a_edge9_Node000009_Node000010"><a xlink:title=" ">
<path fill="none" stroke="#63b8ff" d="M661.5,-266.62C671.98,-253.12 687.78,-234.17 704,-220 720.47,-205.61 741.92,-192.33 756.29,-184.09"/>
<polygon fill="#63b8ff" stroke="#63b8ff" points="658.7,-264.52 655.44,-274.6 664.27,-268.76 658.7,-264.52"/>
</a>
</g>
</g>
<!-- Node11 -->
<g id="Node000011" class="node">
<title>Node11</title>
<g id="a_Node000011"><a xlink:href="CCSDSUtils_8h.html" target="_top" xlink:title=" ">
<polygon fill="white" stroke="#666666" points="772,-129 674,-129 674,-110 772,-110 772,-129"/>
<text text-anchor="middle" x="723" y="-117" font-family="Helvetica,sans-Serif" font-size="10.00">inc/CCSDSUtils.h</text>
</a>
</g>
</g>
<!-- Node9&#45;&gt;Node11 -->
<g id="edge21_Node000009_Node000011" class="edge">
<title>Node9&#45;&gt;Node11</title>
<g id="a_edge21_Node000009_Node000011"><a xlink:title=" ">
<path fill="none" stroke="#63b8ff" d="M657.27,-265.28C673.14,-230.32 707.33,-155.01 719,-129.31"/>
<polygon fill="#63b8ff" stroke="#63b8ff" points="653.93,-264.18 652.98,-274.74 660.3,-267.08 653.93,-264.18"/>
</a>
</g>
</g>
<!-- Node9&#45;&gt;Node14 -->
<g id="edge26_Node000009_Node000014" class="edge">
<title>Node9&#45;&gt;Node14</title>
<g id="a_edge26_Node000009_Node000014"><a xlink:title=" ">
<path fill="none" stroke="#63b8ff" d="M639.12,-265.7C621.32,-233.92 582.35,-165.54 546,-110 537.66,-97.26 527.25,-83.06 520.61,-74.21"/>
<polygon fill="#63b8ff" stroke="#63b8ff" points="636.19,-267.64 644.12,-274.67 642.31,-264.23 636.19,-267.64"/>
</a>
</g>
</g>
<!-- Node18 -->
<g id="Node000018" class="node">
<title>Node18</title>
<g id="a_Node000018"><a xlink:href="CCSDSValidator_8h.html" target="_top" xlink:title="Defines the Validator class for CCSDS packet validation.">
<polygon fill="white" stroke="#666666" points="831.5,-239 712.5,-239 712.5,-220 831.5,-220 831.5,-239"/>
<text text-anchor="middle" x="772" y="-227" font-family="Helvetica,sans-Serif" font-size="10.00">inc/CCSDSValidator.h</text>
</a>
</g>
</g>
<!-- Node9&#45;&gt;Node18 -->
<g id="edge22_Node000009_Node000018" class="edge">
<title>Node9&#45;&gt;Node18</title>
<g id="a_edge22_Node000009_Node000018"><a xlink:title=" ">
<path fill="none" stroke="#63b8ff" d="M678.25,-270.9C700.97,-261.11 731.87,-247.79 751.88,-239.17"/>
<polygon fill="#63b8ff" stroke="#63b8ff" points="676.56,-267.81 668.76,-274.98 679.33,-274.24 676.56,-267.81"/>
</a>
</g>
</g>
<!-- Node10&#45;&gt;Node5 -->
<g id="edge10_Node000010_Node000005" class="edge">
<title>Node10&#45;&gt;Node5</title>
<g id="a_edge10_Node000010_Node000005"><a xlink:title=" ">
<path fill="none" stroke="#63b8ff" d="M741.33,-161.09C704.55,-146.69 640.73,-123.23 584,-110 466.1,-82.5 433.89,-90.78 314,-74 311.08,-73.59 308.07,-73.17 305.04,-72.73"/>
<polygon fill="#63b8ff" stroke="#63b8ff" points="740.37,-164.48 750.96,-164.9 742.95,-157.97 740.37,-164.48"/>
</a>
</g>
</g>
<!-- Node10&#45;&gt;Node11 -->
<g id="edge11_Node000010_Node000011" class="edge">
<title>Node10&#45;&gt;Node11</title>
<g id="a_edge11_Node000010_Node000011"><a xlink:title=" ">
<path fill="none" stroke="#63b8ff" d="M756.97,-157.24C748.38,-147.95 737.96,-136.68 730.94,-129.09"/>
<polygon fill="#63b8ff" stroke="#63b8ff" points="754.55,-159.78 763.91,-164.75 759.69,-155.03 754.55,-159.78"/>
</a>
</g>
</g>
<!-- Node13 -->
<g id="Node000013" class="node">
<title>Node13</title>
<g id="a_Node000013"><a xlink:href="CCSDSManager_8cpp.html" target="_top" xlink:title=" ">
<polygon fill="white" stroke="#666666" points="849.5,-74 720.5,-74 720.5,-55 849.5,-55 849.5,-74"/>
<text text-anchor="middle" x="785" y="-62" font-family="Helvetica,sans-Serif" font-size="10.00">src/CCSDSManager.cpp</text>
</a>
</g>
</g>
<!-- Node10&#45;&gt;Node13 -->
<g id="edge19_Node000010_Node000013" class="edge">
<title>Node10&#45;&gt;Node13</title>
<g id="a_edge19_Node000010_Node000013"><a xlink:title=" ">
<path fill="none" stroke="#63b8ff" d="M776.39,-154.7C778.09,-146.81 779.88,-137.5 781,-129 783.57,-109.51 784.5,-86.42 784.83,-74.16"/>
<polygon fill="#63b8ff" stroke="#63b8ff" points="772.93,-154.17 774.15,-164.69 779.76,-155.7 772.93,-154.17"/>
</a>
</g>
</g>
<!-- Node11&#45;&gt;Node5 -->
<g id="edge12_Node000011_Node000005" class="edge">
<title>Node11&#45;&gt;Node5</title>
<g id="a_edge12_Node000011_Node000005"><a xlink:title=" ">
<path fill="none" stroke="#63b8ff" d="M663.5,-112.73C583.82,-104.83 438.09,-89.84 314,-74 311.07,-73.63 308.06,-73.23 305.03,-72.82"/>
<polygon fill="#63b8ff" stroke="#63b8ff" points="663.53,-116.25 673.82,-113.75 664.22,-109.28 663.53,-116.25"/>
</a>
</g>
</g>
<!-- Node12 -->
<g id="Node000012" class="node">
<title>Node12</title>
<g id="a_Node000012"><a xlink:href="CCSDSHeader_8cpp.html" target="_top" xlink:title=" ">
<polygon fill="white" stroke="#666666" points="1138,-74 1016,-74 1016,-55 1138,-55 1138,-74"/>
<text text-anchor="middle" x="1077" y="-62" font-family="Helvetica,sans-Serif" font-size="10.00">src/CCSDSHeader.cpp</text>
</a>
</g>
</g>
<!-- Node11&#45;&gt;Node12 -->
<g id="edge13_Node000011_Node000012" class="edge">
<title>Node11&#45;&gt;Node12</title>
<g id="a_edge13_Node000011_Node000012"><a xlink:title=" ">
<path fill="none" stroke="#63b8ff" d="M782.49,-109.59C848.67,-99.68 954.84,-83.79 1020,-74.03"/>
<polygon fill="#63b8ff" stroke="#63b8ff" points="781.59,-106.19 772.22,-111.13 782.63,-113.11 781.59,-106.19"/>
</a>
</g>
</g>
<!-- Node11&#45;&gt;Node13 -->
<g id="edge14_Node000011_Node000013" class="edge">
<title>Node11&#45;&gt;Node13</title>
<g id="a_edge14_Node000011_Node000013"><a xlink:title=" ">
<path fill="none" stroke="#63b8ff" d="M740.75,-103.32C751.81,-93.87 765.63,-82.06 774.86,-74.17"/>
<polygon fill="#63b8ff" stroke="#63b8ff" points="738.29,-100.83 732.96,-109.98 742.84,-106.15 738.29,-100.83"/>
</a>
</g>
</g>
<!-- Node11&#45;&gt;Node14 -->
<g id="edge15_Node000011_Node000014" class="edge">
<title>Node11&#45;&gt;Node14</title>
<g id="a_edge15_Node000011_Node000014"><a xlink:title=" ">
<path fill="none" stroke="#63b8ff" d="M679.63,-107.5C640.49,-97.58 583.72,-83.18 547.84,-74.08"/>
<polygon fill="#63b8ff" stroke="#63b8ff" points="678.87,-110.92 689.42,-109.98 680.59,-104.13 678.87,-110.92"/>
</a>
</g>
</g>
<!-- Node15 -->
<g id="Node000015" class="node">
<title>Node15</title>
<g id="a_Node000015"><a xlink:href="CCSDSUtils_8cpp.html" target="_top" xlink:title=" ">
<polygon fill="white" stroke="#666666" points="702,-74 592,-74 592,-55 702,-55 702,-74"/>
<text text-anchor="middle" x="647" y="-62" font-family="Helvetica,sans-Serif" font-size="10.00">src/CCSDSUtils.cpp</text>
</a>
</g>
</g>
<!-- Node11&#45;&gt;Node15 -->
<g id="edge16_Node000011_Node000015" class="edge">
<title>Node11&#45;&gt;Node15</title>
<g id="a_edge16_Node000011_Node000015"><a xlink:title=" ">
<path fill="none" stroke="#63b8ff" d="M702.42,-104.15C688.69,-94.57 671.07,-82.29 659.43,-74.17"/>
<polygon fill="#63b8ff" stroke="#63b8ff" points="700.58,-107.14 710.79,-109.98 704.59,-101.39 700.58,-107.14"/>
</a>
</g>
</g>
<!-- Node16 -->
<g id="Node000016" class="node">
<title>Node16</title>
<g id="a_Node000016"><a xlink:href="CCSDSValidator_8cpp.html" target="_top" xlink:title=" ">
<polygon fill="white" stroke="#666666" points="998,-74 868,-74 868,-55 998,-55 998,-74"/>
<text text-anchor="middle" x="933" y="-62" font-family="Helvetica,sans-Serif" font-size="10.00">src/CCSDSValidator.cpp</text>
</a>
</g>
</g>
<!-- Node11&#45;&gt;Node16 -->
<g id="edge17_Node000011_Node000016" class="edge">
<title>Node11&#45;&gt;Node16</title>
<g id="a_edge17_Node000011_Node000016"><a xlink:title=" ">
<path fill="none" stroke="#63b8ff" d="M766.58,-107.5C805.9,-97.58 862.95,-83.18 899,-74.08"/>
<polygon fill="#63b8ff" stroke="#63b8ff" points="765.58,-104.14 756.74,-109.98 767.29,-110.93 765.58,-104.14"/>
</a>
</g>
</g>
<!-- Node11&#45;&gt;Node17 -->
<g id="edge18_Node000011_Node000017" class="edge">
<title>Node11&#45;&gt;Node17</title>
<g id="a_edge18_Node000011_Node000017"><a xlink:title=" ">
<path fill="none" stroke="#63b8ff" d="M663.87,-109.36C599.58,-99.43 497.64,-83.68 435.01,-74"/>
<polygon fill="#63b8ff" stroke="#63b8ff" points="663.44,-112.84 673.86,-110.91 664.51,-105.92 663.44,-112.84"/>
</a>
</g>
</g>
<!-- Node18&#45;&gt;Node5 -->
<g id="edge24_Node000018_Node000005" class="edge">
<title>Node18&#45;&gt;Node5</title>
<g id="a_edge24_Node000018_Node000005"><a xlink:title=" ">
<path fill="none" stroke="#63b8ff" d="M743.96,-215.64C691.26,-191.9 573.45,-140.81 470,-110 414.36,-93.43 348.78,-80.77 305.03,-73.27"/>
<polygon fill="#63b8ff" stroke="#63b8ff" points="742.76,-218.94 753.31,-219.88 745.65,-212.56 742.76,-218.94"/>
</a>
</g>
</g>
<!-- Node18&#45;&gt;Node10 -->
<g id="edge23_Node000018_Node000010" class="edge">
<title>Node18&#45;&gt;Node10</title>
<g id="a_edge23_Node000018_Node000010"><a xlink:title=" ">
<path fill="none" stroke="#63b8ff" d="M772,-209.66C772,-200.93 772,-190.99 772,-184.09"/>
<polygon fill="#63b8ff" stroke="#63b8ff" points="768.5,-209.75 772,-219.75 775.5,-209.75 768.5,-209.75"/>
</a>
</g>
</g>
<!-- Node18&#45;&gt;Node16 -->
<g id="edge25_Node000018_Node000016" class="edge">
<title>Node18&#45;&gt;Node16</title>
<g id="a_edge25_Node000018_Node000016"><a xlink:title=" ">
<path fill="none" stroke="#63b8ff" d="M796.95,-214.86C810.46,-206.83 826.99,-195.94 840,-184 879.12,-148.11 914.68,-94.63 927.72,-74.02"/>
<polygon fill="#63b8ff" stroke="#63b8ff" points="795.07,-211.9 788.16,-219.93 798.57,-217.96 795.07,-211.9"/>
</a>
</g>
</g>
<!-- Node20&#45;&gt;Node4 -->
<g id="edge32_Node000020_Node000004" class="edge">
<title>Node20&#45;&gt;Node4</title>
<g id="a_edge32_Node000020_Node000004"><a xlink:title=" ">
<path fill="none" stroke="#63b8ff" d="M169.65,-433.56C202.31,-408.52 256.17,-367.21 279.56,-349.27"/>
<polygon fill="#63b8ff" stroke="#63b8ff" points="167.25,-430.99 161.45,-439.85 171.51,-436.55 167.25,-430.99"/>
</a>
</g>
</g>
<!-- Node20&#45;&gt;Node5 -->
<g id="edge33_Node000020_Node000005" class="edge">
<title>Node20&#45;&gt;Node5</title>
<g id="a_edge33_Node000020_Node000005"><a xlink:title=" ">
<path fill="none" stroke="#63b8ff" d="M120.67,-432.3C101.18,-410.95 76,-376.41 76,-340.5 76,-340.5 76,-340.5 76,-173.5 76,-112.28 153.52,-84.9 206.81,-73.31"/>
<polygon fill="#63b8ff" stroke="#63b8ff" points="118.38,-434.97 127.8,-439.82 123.45,-430.15 118.38,-434.97"/>
</a>
</g>
</g>
<!-- Node20&#45;&gt;Node19 -->
<g id="edge38_Node000020_Node000019" class="edge">
<title>Node20&#45;&gt;Node19</title>
<g id="a_edge38_Node000020_Node000019"><a xlink:title=" ">
<path fill="none" stroke="#63b8ff" d="M152.33,-430.18C167.24,-392.12 195.74,-319.34 205.57,-294.25"/>
<polygon fill="#63b8ff" stroke="#63b8ff" points="148.9,-429.34 148.51,-439.92 155.42,-431.89 148.9,-429.34"/>
</a>
</g>
</g>
<!-- Node20&#45;&gt;Node21 -->
<g id="edge34_Node000020_Node000021" class="edge">
<title>Node20&#45;&gt;Node21</title>
<g id="a_edge34_Node000020_Node000021"><a xlink:title=" ">
<path fill="none" stroke="#63b8ff" d="M196.85,-436.88C230.77,-426.09 273.1,-412.64 300.1,-404.05"/>
<polygon fill="#63b8ff" stroke="#63b8ff" points="195.54,-433.62 187.07,-439.99 197.66,-440.29 195.54,-433.62"/>
</a>
</g>
</g>
<!-- Node21&#45;&gt;Node4 -->
<g id="edge35_Node000021_Node000004" class="edge">
<title>Node21&#45;&gt;Node4</title>
<g id="a_edge35_Node000021_Node000004"><a xlink:title=" ">
<path fill="none" stroke="#63b8ff" d="M315.38,-376.39C309.18,-367.27 301.83,-356.45 296.83,-349.09"/>
<polygon fill="#63b8ff" stroke="#63b8ff" points="312.54,-378.44 321.06,-384.75 318.33,-374.51 312.54,-378.44"/>
</a>
</g>
</g>
<!-- Node21&#45;&gt;Node5 -->
<g id="edge36_Node000021_Node000005" class="edge">
<title>Node21&#45;&gt;Node5</title>
<g id="a_edge36_Node000021_Node000005"><a xlink:title=" ">
<path fill="none" stroke="#63b8ff" d="M280.25,-382.08C235.47,-368.64 169.49,-341.85 133,-294 115.14,-270.57 114,-259.96 114,-230.5 114,-230.5 114,-230.5 114,-173.5 114,-118.21 183.04,-87.52 224.84,-74"/>
<polygon fill="#63b8ff" stroke="#63b8ff" points="279.44,-385.49 290.02,-384.9 281.38,-378.76 279.44,-385.49"/>
</a>
</g>
</g>
<!-- Node21&#45;&gt;Node17 -->
<g id="edge37_Node000021_Node000017" class="edge">
<title>Node21&#45;&gt;Node17</title>
<g id="a_edge37_Node000021_Node000017"><a xlink:title=" ">
<path fill="none" stroke="#63b8ff" d="M341.78,-377.15C348.41,-369.13 355.87,-359.05 361,-349 374.38,-322.76 380,-314.96 380,-285.5 380,-285.5 380,-285.5 380,-173.5 380,-136.56 380,-92.52 380,-74.18"/>
<polygon fill="#63b8ff" stroke="#63b8ff" points="338.94,-375.09 335.06,-384.95 344.24,-379.65 338.94,-375.09"/>
</a>
</g>
</g>
<!-- Node23&#45;&gt;Node5 -->
<g id="edge45_Node000023_Node000005" class="edge">
<title>Node23&#45;&gt;Node5</title>
<g id="a_edge45_Node000023_Node000005"><a xlink:title=" ">
<path fill="none" stroke="#63b8ff" d="M592.65,-323.91C547.65,-289.93 432.5,-202.8 337,-129 311.83,-109.55 282.5,-86.45 266.97,-74.18"/>
<polygon fill="#63b8ff" stroke="#63b8ff" points="590.6,-326.74 600.69,-329.97 594.82,-321.16 590.6,-326.74"/>
</a>
</g>
</g>
<!-- Node23&#45;&gt;Node9 -->
<g id="edge46_Node000023_Node000009" class="edge">
<title>Node23&#45;&gt;Node9</title>
<g id="a_edge46_Node000023_Node000009"><a xlink:title=" ">
<path fill="none" stroke="#63b8ff" d="M623.95,-321.39C630.31,-312.27 637.87,-301.45 643,-294.09"/>
<polygon fill="#63b8ff" stroke="#63b8ff" points="620.96,-319.55 618.11,-329.75 626.7,-323.55 620.96,-319.55"/>
</a>
</g>
</g>
<!-- Node23&#45;&gt;Node12 -->
<g id="edge47_Node000023_Node000012" class="edge">
<title>Node23&#45;&gt;Node12</title>
<g id="a_edge47_Node000023_Node000012"><a xlink:title=" ">
<path fill="none" stroke="#63b8ff" d="M677.36,-330.07C771.48,-316.06 934,-284.12 934,-230.5 934,-230.5 934,-230.5 934,-173.5 934,-118.12 1003.13,-87.54 1045.26,-74.05"/>
<polygon fill="#63b8ff" stroke="#63b8ff" points="676.74,-326.62 667.35,-331.52 677.75,-333.54 676.74,-326.62"/>
</a>
</g>
</g>
<!-- Node24&#45;&gt;Node6 -->
<g id="edge54_Node000024_Node000006" class="edge">
<title>Node24&#45;&gt;Node6</title>
<g id="a_edge54_Node000024_Node000006"><a xlink:title=" ">
<path fill="none" stroke="#63b8ff" d="M1145.73,-54.95C933.21,-31.35 693.22,-18.35 583.39,-13.16"/>
<polygon fill="#63b8ff" stroke="#63b8ff" points="1145.5,-58.45 1155.82,-56.08 1146.28,-51.49 1145.5,-58.45"/>
</a>
</g>
</g>
<!-- Node24&#45;&gt;Node7 -->
<g id="edge55_Node000024_Node000007" class="edge">
<title>Node24&#45;&gt;Node7</title>
<g id="a_edge55_Node000024_Node000007"><a xlink:title=" ">
<path fill="none" stroke="#63b8ff" d="M1145.69,-54.85C1037.49,-39.75 923.19,-25.73 855.17,-17.59"/>
<polygon fill="#63b8ff" stroke="#63b8ff" points="1145.41,-58.34 1155.8,-56.27 1146.38,-51.41 1145.41,-58.34"/>
</a>
</g>
</g>
<!-- Node24&#45;&gt;Node8 -->
<g id="edge57_Node000024_Node000008" class="edge">
<title>Node24&#45;&gt;Node8</title>
<g id="a_edge57_Node000024_Node000008"><a xlink:title=" ">
<path fill="none" stroke="#63b8ff" d="M1159.99,-52.31C1122.75,-42.39 1069.16,-28.12 1035.22,-19.08"/>
<polygon fill="#63b8ff" stroke="#63b8ff" points="1159.46,-55.79 1170.03,-54.98 1161.26,-49.03 1159.46,-55.79"/>
</a>
</g>
</g>
<!-- Node25 -->
<g id="Node000025" class="node">
<title>Node25</title>
<g id="a_Node000025"><a xlink:href="exec__utils_8cpp.html" target="_top" xlink:title=" ">
<polygon fill="white" stroke="#666666" points="1253.5,-19 1150.5,-19 1150.5,0 1253.5,0 1253.5,-19"/>
<text text-anchor="middle" x="1202" y="-7" font-family="Helvetica,sans-Serif" font-size="10.00">src/exec_utils.cpp</text>
</a>
</g>
</g>
<!-- Node24&#45;&gt;Node25 -->
<g id="edge56_Node000024_Node000025" class="edge">
<title>Node24&#45;&gt;Node25</title>
<g id="a_edge56_Node000024_Node000025"><a xlink:title=" ">
<path fill="none" stroke="#63b8ff" d="M1202,-44.66C1202,-35.93 1202,-25.99 1202,-19.09"/>
<polygon fill="#63b8ff" stroke="#63b8ff" points="1198.5,-44.75 1202,-54.75 1205.5,-44.75 1198.5,-44.75"/>
</a>
</g>
</g>
</g>
</svg>

<g id="navigator" transform="translate(0 0)" fill="#404254">
  <rect fill="#f2f5e9" fill-opacity="0.5" stroke="#606060" stroke-width=".5" x="0" y="0" width="60" height="60"/>
  <use id="zoomplus" xlink:href="#zoomPlus" x="17" y="9" onmousedown="handleZoom(evt,'in')"/>
  <use id="zoomminus" xlink:href="#zoomMin" x="42" y="9" onmousedown="handleZoom(evt,'out')"/>
  <use id="reset" xlink:href="#resetDef" x="30" y="36" onmousedown="handleReset()"/>
   <use id="arrowup" xlink:href="#arrowUp" x="0" y="0" onmousedown="handlePan(0,-1)"/>
  <use id="arrowright" xlink:href="#arrowRight" x="0" y="0" onmousedown="handlePan(1,0)"/>
  <use id="arrowdown" xlink:href="#arrowDown" x="0" y="0" onmousedown="handlePan(0,1)"/>
  <use id="arrowleft" xlink:href="#arrowLeft" x="0" y="0" onmousedown="handlePan(-1,0)"/>
</g>
<svg viewBox="0 0 15 15" width="100%" height="30px" preserveAspectRatio="xMaxYMin meet">
 <g id="arrow_out" transform="scale(0.3 0.3)">
  <a xlink:href="CCSDSResult_8h__dep__incl_org.svg" target="_base">
   <rect id="button" ry="5" rx="5" y="6" x="6" height="38" width="38"
        fill="#f2f5e9" fill-opacity="0.5" stroke="#606060" stroke-width="1.0"/>
   <path id="arrow"
     d="M 11.500037,31.436501 C 11.940474,20.09759 22.043105,11.32322 32.158766,21.979434 L 37.068811,17.246167 C 37.068811,17.246167 37.088388,32 37.088388,32 L 22.160133,31.978069 C 22.160133,31.978069 26.997745,27.140456 26.997745,27.140456 C 18.528582,18.264221 13.291696,25.230495 11.500037,31.436501 z"
     style="fill:#404040;"/>
  </a>
 </g>
</svg>

<style type='text/css'>
<![CDATA[
[data-mouse-over-selected='false'] { opacity: 0.7; }
[data-mouse-over-selected='true']  { opacity: 1.0; }
]]>
</style>
<script type="application/ecmascript"><![CDATA[
document.addEventListener('DOMContentLoaded', (event) => {
  highlightEdges();
  highlightAdjacentNodes();
});
]]></script>
</svg>
