<?xml version="1.0" encoding="UTF-8" standalone="no"?>
<!DOCTYPE svg PUBLIC "-//W3C//DTD SVG 1.1//EN"
 "http://www.w3.org/Graphics/SVG/1.1/DTD/svg11.dtd">
<!-- Generated by graphviz version 2.43.0 (0)
 -->
<!-- Title: src/CCSDSUtils.cpp Pages: 1 -->
<svg width="1082pt" height="467pt"
 viewBox="0.00 0.00 1081.50 467.00" xmlns="http://www.w3.org/2000/svg" xmlns:xlink="http://www.w3.org/1999/xlink">
<g id="graph0" class="graph" transform="scale(1 1) rotate(0) translate(4 463)">
<title>src/CCSDSUtils.cpp</title>
<!-- Node1 -->
<g id="Node000001" class="node">
<title>Node1</title>
<g id="a_Node000001"><a xlink:title=" ">
<polygon fill="#999999" stroke="#666666" points="999,-459 889,-459 889,-440 999,-440 999,-459"/>
<text text-anchor="middle" x="944" y="-447" font-family="Helvetica,sans-Serif" font-size="10.00">src/CCSDSUtils.cpp</text>
</a>
</g>
</g>
<!-- Node2 -->
<g id="Node000002" class="node">
<title>Node2</title>
<g id="a_Node000002"><a xlink:href="CCSDSUtils_8h.html" target="_top" xlink:title=" ">
<polygon fill="white" stroke="#666666" points="804.5,-404 723.5,-404 723.5,-385 804.5,-385 804.5,-404"/>
<text text-anchor="middle" x="764" y="-392" font-family="Helvetica,sans-Serif" font-size="10.00">CCSDSUtils.h</text>
</a>
</g>
</g>
<!-- Node1&#45;&gt;Node2 -->
<g id="edge1_Node000001_Node000002" class="edge">
<title>Node1&#45;&gt;Node2</title>
<g id="a_edge1_Node000001_Node000002"><a xlink:title=" ">
<path fill="none" stroke="#63b8ff" d="M915.08,-439.98C884.73,-431.05 836.83,-416.94 803.12,-407.02"/>
<polygon fill="#63b8ff" stroke="#63b8ff" points="803.73,-403.55 793.15,-404.08 801.75,-410.26 803.73,-403.55"/>
</a>
</g>
</g>
<!-- Node9 -->
<g id="Node000009" class="node">
<title>Node9</title>
<g id="a_Node000009"><a xlink:title=" ">
<polygon fill="#e0e0e0" stroke="#999999" points="903,-19 843,-19 843,0 903,0 903,-19"/>
<text text-anchor="middle" x="873" y="-7" font-family="Helvetica,sans-Serif" font-size="10.00">iostream</text>
</a>
</g>
</g>
<!-- Node1&#45;&gt;Node9 -->
<g id="edge37_Node000001_Node000009" class="edge">
<title>Node1&#45;&gt;Node9</title>
<g id="a_edge37_Node000001_Node000009"><a xlink:title=" ">
<path fill="none" stroke="#63b8ff" d="M940.11,-439.74C932.41,-421.6 916,-378.46 916,-340.5 916,-340.5 916,-340.5 916,-118.5 916,-84.53 897.41,-48.53 884.67,-27.87"/>
<polygon fill="#63b8ff" stroke="#63b8ff" points="887.5,-25.8 879.16,-19.27 881.61,-29.58 887.5,-25.8"/>
</a>
</g>
</g>
<!-- Node18 -->
<g id="Node000018" class="node">
<title>Node18</title>
<g id="a_Node000018"><a xlink:title=" ">
<polygon fill="#e0e0e0" stroke="#999999" points="1000,-404 944,-404 944,-385 1000,-385 1000,-404"/>
<text text-anchor="middle" x="972" y="-392" font-family="Helvetica,sans-Serif" font-size="10.00">iomanip</text>
</a>
</g>
</g>
<!-- Node1&#45;&gt;Node18 -->
<g id="edge38_Node000001_Node000018" class="edge">
<title>Node1&#45;&gt;Node18</title>
<g id="a_edge38_Node000001_Node000018"><a xlink:title=" ">
<path fill="none" stroke="#63b8ff" d="M948.62,-439.75C952.46,-432.49 958.02,-421.95 962.76,-412.98"/>
<polygon fill="#63b8ff" stroke="#63b8ff" points="965.89,-414.57 967.46,-404.09 959.7,-411.3 965.89,-414.57"/>
</a>
</g>
</g>
<!-- Node19 -->
<g id="Node000019" class="node">
<title>Node19</title>
<g id="a_Node000019"><a xlink:title=" ">
<polygon fill="#e0e0e0" stroke="#999999" points="1073.5,-404 1018.5,-404 1018.5,-385 1073.5,-385 1073.5,-404"/>
<text text-anchor="middle" x="1046" y="-392" font-family="Helvetica,sans-Serif" font-size="10.00">fstream</text>
</a>
</g>
</g>
<!-- Node1&#45;&gt;Node19 -->
<g id="edge39_Node000001_Node000019" class="edge">
<title>Node1&#45;&gt;Node19</title>
<g id="a_edge39_Node000001_Node000019"><a xlink:title=" ">
<path fill="none" stroke="#63b8ff" d="M960.39,-439.98C976.57,-431.57 1001.57,-418.59 1020.38,-408.81"/>
<polygon fill="#63b8ff" stroke="#63b8ff" points="1022.05,-411.89 1029.31,-404.17 1018.83,-405.68 1022.05,-411.89"/>
</a>
</g>
</g>
<!-- Node3 -->
<g id="Node000003" class="node">
<title>Node3</title>
<g id="a_Node000003"><a xlink:href="CCSDSPacket_8h.html" target="_top" xlink:title=" ">
<polygon fill="white" stroke="#666666" points="609,-349 519,-349 519,-330 609,-330 609,-349"/>
<text text-anchor="middle" x="564" y="-337" font-family="Helvetica,sans-Serif" font-size="10.00">CCSDSPacket.h</text>
</a>
</g>
</g>
<!-- Node2&#45;&gt;Node3 -->
<g id="edge2_Node000002_Node000003" class="edge">
<title>Node2&#45;&gt;Node3</title>
<g id="a_edge2_Node000002_Node000003"><a xlink:title=" ">
<path fill="none" stroke="#63b8ff" d="M731.87,-384.98C697.85,-375.97 644,-361.7 606.5,-351.76"/>
<polygon fill="#63b8ff" stroke="#63b8ff" points="606.95,-348.26 596.39,-349.08 605.16,-355.03 606.95,-348.26"/>
</a>
</g>
</g>
<!-- Node7 -->
<g id="Node000007" class="node">
<title>Node7</title>
<g id="a_Node000007"><a xlink:title=" ">
<polygon fill="#e0e0e0" stroke="#999999" points="136.5,-19 89.5,-19 89.5,0 136.5,0 136.5,-19"/>
<text text-anchor="middle" x="113" y="-7" font-family="Helvetica,sans-Serif" font-size="10.00">vector</text>
</a>
</g>
</g>
<!-- Node2&#45;&gt;Node7 -->
<g id="edge36_Node000002_Node000007" class="edge">
<title>Node2&#45;&gt;Node7</title>
<g id="a_edge36_Node000002_Node000007"><a xlink:title=" ">
<path fill="none" stroke="#63b8ff" d="M723.46,-392.09C565.52,-386.04 0,-359.26 0,-285.5 0,-285.5 0,-285.5 0,-118.5 0,-72.68 49.15,-40.32 82.62,-23.6"/>
<polygon fill="#63b8ff" stroke="#63b8ff" points="84.5,-26.58 92.01,-19.11 81.48,-20.27 84.5,-26.58"/>
</a>
</g>
</g>
<!-- Node8 -->
<g id="Node000008" class="node">
<title>Node8</title>
<g id="a_Node000008"><a xlink:title=" ">
<polygon fill="#e0e0e0" stroke="#999999" points="740,-19 690,-19 690,0 740,0 740,-19"/>
<text text-anchor="middle" x="715" y="-7" font-family="Helvetica,sans-Serif" font-size="10.00">cstdint</text>
</a>
</g>
</g>
<!-- Node2&#45;&gt;Node8 -->
<g id="edge35_Node000002_Node000008" class="edge">
<title>Node2&#45;&gt;Node8</title>
<g id="a_edge35_Node000002_Node000008"><a xlink:title=" ">
<path fill="none" stroke="#63b8ff" d="M785.18,-384.95C818.14,-370.06 878,-336.07 878,-285.5 878,-285.5 878,-285.5 878,-118.5 878,-57.62 798,-29.04 750.1,-17.38"/>
<polygon fill="#63b8ff" stroke="#63b8ff" points="750.64,-13.91 740.11,-15.08 749.07,-20.73 750.64,-13.91"/>
</a>
</g>
</g>
<!-- Node16 -->
<g id="Node000016" class="node">
<title>Node16</title>
<g id="a_Node000016"><a xlink:title=" ">
<polygon fill="#e0e0e0" stroke="#999999" points="736,-129 692,-129 692,-110 736,-110 736,-129"/>
<text text-anchor="middle" x="714" y="-117" font-family="Helvetica,sans-Serif" font-size="10.00">string</text>
</a>
</g>
</g>
<!-- Node2&#45;&gt;Node16 -->
<g id="edge34_Node000002_Node000016" class="edge">
<title>Node2&#45;&gt;Node16</title>
<g id="a_edge34_Node000002_Node000016"><a xlink:title=" ">
<path fill="none" stroke="#63b8ff" d="M764,-384.82C764,-366.48 764,-322.44 764,-285.5 764,-285.5 764,-285.5 764,-228.5 764,-193.56 742.18,-157.66 727.37,-137.31"/>
<polygon fill="#63b8ff" stroke="#63b8ff" points="729.99,-134.97 721.16,-129.11 724.41,-139.2 729.99,-134.97"/>
</a>
</g>
</g>
<!-- Node4 -->
<g id="Node000004" class="node">
<title>Node4</title>
<g id="a_Node000004"><a xlink:href="CCSDSResult_8h.html" target="_top" xlink:title=" ">
<polygon fill="white" stroke="#666666" points="506.5,-74 417.5,-74 417.5,-55 506.5,-55 506.5,-74"/>
<text text-anchor="middle" x="462" y="-62" font-family="Helvetica,sans-Serif" font-size="10.00">CCSDSResult.h</text>
</a>
</g>
</g>
<!-- Node3&#45;&gt;Node4 -->
<g id="edge3_Node000003_Node000004" class="edge">
<title>Node3&#45;&gt;Node4</title>
<g id="a_edge3_Node000003_Node000004"><a xlink:title=" ">
<path fill="none" stroke="#63b8ff" d="M580.68,-329.81C637.52,-299.12 816.2,-193.28 745,-110 716.21,-76.33 590.48,-67.97 516.64,-66"/>
<polygon fill="#63b8ff" stroke="#63b8ff" points="516.66,-62.5 506.58,-65.76 516.5,-69.5 516.66,-62.5"/>
</a>
</g>
</g>
<!-- Node3&#45;&gt;Node7 -->
<g id="edge10_Node000003_Node000007" class="edge">
<title>Node3&#45;&gt;Node7</title>
<g id="a_edge10_Node000003_Node000007"><a xlink:title=" ">
<path fill="none" stroke="#63b8ff" d="M518.7,-338.77C391.11,-338.33 38,-328.27 38,-230.5 38,-230.5 38,-230.5 38,-118.5 38,-79.64 71.17,-44.7 93.39,-25.65"/>
<polygon fill="#63b8ff" stroke="#63b8ff" points="95.79,-28.22 101.28,-19.16 91.34,-22.81 95.79,-28.22"/>
</a>
</g>
</g>
<!-- Node3&#45;&gt;Node8 -->
<g id="edge9_Node000003_Node000008" class="edge">
<title>Node3&#45;&gt;Node8</title>
<g id="a_edge9_Node000003_Node000008"><a xlink:title=" ">
<path fill="none" stroke="#63b8ff" d="M609.27,-330.47C687.57,-315.29 840,-279.45 840,-230.5 840,-230.5 840,-230.5 840,-118.5 840,-70.32 786.17,-38.87 749.16,-22.93"/>
<polygon fill="#63b8ff" stroke="#63b8ff" points="750.28,-19.61 739.7,-19.03 747.61,-26.08 750.28,-19.61"/>
</a>
</g>
</g>
<!-- Node10 -->
<g id="Node000010" class="node">
<title>Node10</title>
<g id="a_Node000010"><a xlink:href="CCSDSHeader_8h.html" target="_top" xlink:title=" ">
<polygon fill="white" stroke="#666666" points="197.5,-129 104.5,-129 104.5,-110 197.5,-110 197.5,-129"/>
<text text-anchor="middle" x="151" y="-117" font-family="Helvetica,sans-Serif" font-size="10.00">CCSDSHeader.h</text>
</a>
</g>
</g>
<!-- Node3&#45;&gt;Node10 -->
<g id="edge11_Node000003_Node000010" class="edge">
<title>Node3&#45;&gt;Node10</title>
<g id="a_edge11_Node000003_Node000010"><a xlink:title=" ">
<path fill="none" stroke="#63b8ff" d="M518.64,-331.29C480.7,-324.38 425.61,-312.27 380,-294 287.84,-257.08 200.55,-172.69 166.28,-136.96"/>
<polygon fill="#63b8ff" stroke="#63b8ff" points="168.5,-134.21 159.08,-129.36 163.41,-139.03 168.5,-134.21"/>
</a>
</g>
</g>
<!-- Node11 -->
<g id="Node000011" class="node">
<title>Node11</title>
<g id="a_Node000011"><a xlink:href="CCSDSDataField_8h.html" target="_top" xlink:title=" ">
<polygon fill="white" stroke="#666666" points="494.5,-294 389.5,-294 389.5,-275 494.5,-275 494.5,-294"/>
<text text-anchor="middle" x="442" y="-282" font-family="Helvetica,sans-Serif" font-size="10.00">CCSDSDataField.h</text>
</a>
</g>
</g>
<!-- Node3&#45;&gt;Node11 -->
<g id="edge15_Node000003_Node000011" class="edge">
<title>Node3&#45;&gt;Node11</title>
<g id="a_edge15_Node000003_Node000011"><a xlink:title=" ">
<path fill="none" stroke="#63b8ff" d="M544.4,-329.98C524.68,-321.42 494.05,-308.11 471.42,-298.28"/>
<polygon fill="#63b8ff" stroke="#63b8ff" points="472.52,-294.94 461.96,-294.17 469.74,-301.37 472.52,-294.94"/>
</a>
</g>
</g>
<!-- Node5 -->
<g id="Node000005" class="node">
<title>Node5</title>
<g id="a_Node000005"><a xlink:title=" ">
<polygon fill="#e0e0e0" stroke="#999999" points="402.5,-19 309.5,-19 309.5,0 402.5,0 402.5,-19"/>
<text text-anchor="middle" x="356" y="-7" font-family="Helvetica,sans-Serif" font-size="10.00">unordered_map</text>
</a>
</g>
</g>
<!-- Node4&#45;&gt;Node5 -->
<g id="edge4_Node000004_Node000005" class="edge">
<title>Node4&#45;&gt;Node5</title>
<g id="a_edge4_Node000004_Node000005"><a xlink:title=" ">
<path fill="none" stroke="#63b8ff" d="M444.97,-54.98C428.07,-46.54 401.94,-33.47 382.36,-23.68"/>
<polygon fill="#63b8ff" stroke="#63b8ff" points="383.85,-20.51 373.34,-19.17 380.72,-26.77 383.85,-20.51"/>
</a>
</g>
</g>
<!-- Node6 -->
<g id="Node000006" class="node">
<title>Node6</title>
<g id="a_Node000006"><a xlink:title=" ">
<polygon fill="#e0e0e0" stroke="#999999" points="487.5,-19 436.5,-19 436.5,0 487.5,0 487.5,-19"/>
<text text-anchor="middle" x="462" y="-7" font-family="Helvetica,sans-Serif" font-size="10.00">variant</text>
</a>
</g>
</g>
<!-- Node4&#45;&gt;Node6 -->
<g id="edge5_Node000004_Node000006" class="edge">
<title>Node4&#45;&gt;Node6</title>
<g id="a_edge5_Node000004_Node000006"><a xlink:title=" ">
<path fill="none" stroke="#63b8ff" d="M462,-54.75C462,-47.8 462,-37.85 462,-29.13"/>
<polygon fill="#63b8ff" stroke="#63b8ff" points="465.5,-29.09 462,-19.09 458.5,-29.09 465.5,-29.09"/>
</a>
</g>
</g>
<!-- Node4&#45;&gt;Node7 -->
<g id="edge6_Node000004_Node000007" class="edge">
<title>Node4&#45;&gt;Node7</title>
<g id="a_edge6_Node000004_Node000007"><a xlink:title=" ">
<path fill="none" stroke="#63b8ff" d="M417.44,-56.73C346.74,-46 210.39,-25.29 146.97,-15.66"/>
<polygon fill="#63b8ff" stroke="#63b8ff" points="147.14,-12.14 136.72,-14.1 146.09,-19.06 147.14,-12.14"/>
</a>
</g>
</g>
<!-- Node4&#45;&gt;Node8 -->
<g id="edge7_Node000004_Node000008" class="edge">
<title>Node4&#45;&gt;Node8</title>
<g id="a_edge7_Node000004_Node000008"><a xlink:title=" ">
<path fill="none" stroke="#63b8ff" d="M502.65,-54.98C551.74,-44.7 633.48,-27.58 679.92,-17.85"/>
<polygon fill="#63b8ff" stroke="#63b8ff" points="680.76,-21.25 689.83,-15.77 679.32,-14.4 680.76,-21.25"/>
</a>
</g>
</g>
<!-- Node4&#45;&gt;Node9 -->
<g id="edge8_Node000004_Node000009" class="edge">
<title>Node4&#45;&gt;Node9</title>
<g id="a_edge8_Node000004_Node000009"><a xlink:title=" ">
<path fill="none" stroke="#63b8ff" d="M506.77,-57.73C587.24,-47.35 755.15,-25.7 832.45,-15.73"/>
<polygon fill="#63b8ff" stroke="#63b8ff" points="833.27,-19.15 842.74,-14.4 832.37,-12.21 833.27,-19.15"/>
</a>
</g>
</g>
<!-- Node10&#45;&gt;Node4 -->
<g id="edge12_Node000010_Node000004" class="edge">
<title>Node10&#45;&gt;Node4</title>
<g id="a_edge12_Node000010_Node000004"><a xlink:title=" ">
<path fill="none" stroke="#63b8ff" d="M197.56,-110.57C253.7,-101 347.93,-84.94 407.43,-74.8"/>
<polygon fill="#63b8ff" stroke="#63b8ff" points="408.12,-78.23 417.39,-73.1 406.95,-71.33 408.12,-78.23"/>
</a>
</g>
</g>
<!-- Node10&#45;&gt;Node7 -->
<g id="edge14_Node000010_Node000007" class="edge">
<title>Node10&#45;&gt;Node7</title>
<g id="a_edge14_Node000010_Node000007"><a xlink:title=" ">
<path fill="none" stroke="#63b8ff" d="M147.89,-109.66C141.68,-92.01 127.63,-52.09 119.38,-28.64"/>
<polygon fill="#63b8ff" stroke="#63b8ff" points="122.67,-27.43 116.05,-19.16 116.06,-29.75 122.67,-27.43"/>
</a>
</g>
</g>
<!-- Node10&#45;&gt;Node8 -->
<g id="edge13_Node000010_Node000008" class="edge">
<title>Node10&#45;&gt;Node8</title>
<g id="a_edge13_Node000010_Node000008"><a xlink:title=" ">
<path fill="none" stroke="#63b8ff" d="M181.25,-110C229.07,-96.79 325.23,-71.18 408,-55 505.77,-35.88 622.55,-21.16 679.81,-14.46"/>
<polygon fill="#63b8ff" stroke="#63b8ff" points="680.26,-17.93 689.79,-13.3 679.45,-10.98 680.26,-17.93"/>
</a>
</g>
</g>
<!-- Node11&#45;&gt;Node4 -->
<g id="edge16_Node000011_Node000004" class="edge">
<title>Node11&#45;&gt;Node4</title>
<g id="a_edge16_Node000011_Node000004"><a xlink:title=" ">
<path fill="none" stroke="#63b8ff" d="M395.62,-275C369.41,-268.46 337.16,-257.33 313,-239 261.37,-199.82 204.03,-160.22 245,-110 255.25,-97.43 346.27,-82.1 407.12,-73.1"/>
<polygon fill="#63b8ff" stroke="#63b8ff" points="407.97,-76.52 417.36,-71.61 406.96,-69.59 407.97,-76.52"/>
</a>
</g>
</g>
<!-- Node11&#45;&gt;Node7 -->
<g id="edge18_Node000011_Node000007" class="edge">
<title>Node11&#45;&gt;Node7</title>
<g id="a_edge18_Node000011_Node000007"><a xlink:title=" ">
<path fill="none" stroke="#63b8ff" d="M389.48,-278.66C308.35,-267.94 155.61,-234.12 95,-129 76.63,-97.14 92.21,-52.78 103.61,-28.38"/>
<polygon fill="#63b8ff" stroke="#63b8ff" points="106.84,-29.75 108.13,-19.23 100.56,-26.65 106.84,-29.75"/>
</a>
</g>
</g>
<!-- Node11&#45;&gt;Node8 -->
<g id="edge17_Node000011_Node000008" class="edge">
<title>Node11&#45;&gt;Node8</title>
<g id="a_edge17_Node000011_Node000008"><a xlink:title=" ">
<path fill="none" stroke="#63b8ff" d="M493.29,-274.99C565.13,-259.95 692.78,-221.06 745,-129 763.67,-96.08 741.77,-51.52 726.77,-27.52"/>
<polygon fill="#63b8ff" stroke="#63b8ff" points="729.67,-25.56 721.26,-19.12 723.82,-29.4 729.67,-25.56"/>
</a>
</g>
</g>
<!-- Node12 -->
<g id="Node000012" class="node">
<title>Node12</title>
<g id="a_Node000012"><a xlink:title=" ">
<polygon fill="#e0e0e0" stroke="#999999" points="312,-129 254,-129 254,-110 312,-110 312,-129"/>
<text text-anchor="middle" x="283" y="-117" font-family="Helvetica,sans-Serif" font-size="10.00">memory</text>
</a>
</g>
</g>
<!-- Node11&#45;&gt;Node12 -->
<g id="edge19_Node000011_Node000012" class="edge">
<title>Node11&#45;&gt;Node12</title>
<g id="a_edge19_Node000011_Node000012"><a xlink:title=" ">
<path fill="none" stroke="#63b8ff" d="M413.55,-274.99C376.16,-262.11 311.96,-233.73 284,-184 276.4,-170.49 276.85,-152.66 278.8,-139.33"/>
<polygon fill="#63b8ff" stroke="#63b8ff" points="282.26,-139.86 280.64,-129.39 275.37,-138.59 282.26,-139.86"/>
</a>
</g>
</g>
<!-- Node13 -->
<g id="Node000013" class="node">
<title>Node13</title>
<g id="a_Node000013"><a xlink:href="CCSDSSecondaryHeaderAbstract_8h.html" target="_top" xlink:title=" ">
<polygon fill="white" stroke="#666666" points="674.5,-129 489.5,-129 489.5,-110 674.5,-110 674.5,-129"/>
<text text-anchor="middle" x="582" y="-117" font-family="Helvetica,sans-Serif" font-size="10.00">CCSDSSecondaryHeaderAbstract.h</text>
</a>
</g>
</g>
<!-- Node11&#45;&gt;Node13 -->
<g id="edge20_Node000011_Node000013" class="edge">
<title>Node11&#45;&gt;Node13</title>
<g id="a_edge20_Node000011_Node000013"><a xlink:title=" ">
<path fill="none" stroke="#63b8ff" d="M477.44,-274.93C498.17,-268.26 523.45,-257.03 540,-239 566.11,-210.55 576.19,-164.83 579.93,-139.3"/>
<polygon fill="#63b8ff" stroke="#63b8ff" points="583.43,-139.49 581.23,-129.12 576.49,-138.59 583.43,-139.49"/>
</a>
</g>
</g>
<!-- Node14 -->
<g id="Node000014" class="node">
<title>Node14</title>
<g id="a_Node000014"><a xlink:href="CCSDSSecondaryHeaderFactory_8h.html" target="_top" xlink:title=" ">
<polygon fill="white" stroke="#666666" points="472.5,-184 293.5,-184 293.5,-165 472.5,-165 472.5,-184"/>
<text text-anchor="middle" x="383" y="-172" font-family="Helvetica,sans-Serif" font-size="10.00">CCSDSSecondaryHeaderFactory.h</text>
</a>
</g>
</g>
<!-- Node11&#45;&gt;Node14 -->
<g id="edge24_Node000011_Node000014" class="edge">
<title>Node11&#45;&gt;Node14</title>
<g id="a_edge24_Node000011_Node000014"><a xlink:title=" ">
<path fill="none" stroke="#63b8ff" d="M437.17,-274.66C427.44,-256.85 405.32,-216.37 392.56,-193.01"/>
<polygon fill="#63b8ff" stroke="#63b8ff" points="395.6,-191.26 387.73,-184.16 389.45,-194.61 395.6,-191.26"/>
</a>
</g>
</g>
<!-- Node17 -->
<g id="Node000017" class="node">
<title>Node17</title>
<g id="a_Node000017"><a xlink:href="PusServices_8h.html" target="_top" xlink:title=" ">
<polygon fill="white" stroke="#666666" points="531,-239 447,-239 447,-220 531,-220 531,-239"/>
<text text-anchor="middle" x="489" y="-227" font-family="Helvetica,sans-Serif" font-size="10.00">PusServices.h</text>
</a>
</g>
</g>
<!-- Node11&#45;&gt;Node17 -->
<g id="edge30_Node000011_Node000017" class="edge">
<title>Node11&#45;&gt;Node17</title>
<g id="a_edge30_Node000011_Node000017"><a xlink:title=" ">
<path fill="none" stroke="#63b8ff" d="M449.76,-274.75C456.47,-267.18 466.34,-256.05 474.51,-246.84"/>
<polygon fill="#63b8ff" stroke="#63b8ff" points="477.37,-248.89 481.38,-239.09 472.13,-244.25 477.37,-248.89"/>
</a>
</g>
</g>
<!-- Node13&#45;&gt;Node4 -->
<g id="edge21_Node000013_Node000004" class="edge">
<title>Node13&#45;&gt;Node4</title>
<g id="a_edge21_Node000013_Node000004"><a xlink:title=" ">
<path fill="none" stroke="#63b8ff" d="M562.72,-109.98C543.33,-101.42 513.19,-88.11 490.93,-78.28"/>
<polygon fill="#63b8ff" stroke="#63b8ff" points="492.19,-75.01 481.63,-74.17 489.36,-81.41 492.19,-75.01"/>
</a>
</g>
</g>
<!-- Node13&#45;&gt;Node7 -->
<g id="edge22_Node000013_Node000007" class="edge">
<title>Node13&#45;&gt;Node7</title>
<g id="a_edge22_Node000013_Node000007"><a xlink:title=" ">
<path fill="none" stroke="#63b8ff" d="M544.81,-109.94C455.79,-89.44 231.58,-37.81 146.47,-18.21"/>
<polygon fill="#63b8ff" stroke="#63b8ff" points="147.1,-14.76 136.57,-15.93 145.53,-21.58 147.1,-14.76"/>
</a>
</g>
</g>
<!-- Node13&#45;&gt;Node8 -->
<g id="edge23_Node000013_Node000008" class="edge">
<title>Node13&#45;&gt;Node8</title>
<g id="a_edge23_Node000013_Node000008"><a xlink:title=" ">
<path fill="none" stroke="#63b8ff" d="M592.88,-109.66C615.6,-91.22 668.27,-48.45 696.44,-25.57"/>
<polygon fill="#63b8ff" stroke="#63b8ff" points="698.78,-28.18 704.34,-19.16 694.37,-22.75 698.78,-28.18"/>
</a>
</g>
</g>
<!-- Node14&#45;&gt;Node5 -->
<g id="edge26_Node000014_Node000005" class="edge">
<title>Node14&#45;&gt;Node5</title>
<g id="a_edge26_Node000014_Node000005"><a xlink:title=" ">
<path fill="none" stroke="#63b8ff" d="M376.71,-164.82C370.87,-156.21 362.56,-142.4 359,-129 349.86,-94.65 351.69,-52.7 353.85,-29.05"/>
<polygon fill="#63b8ff" stroke="#63b8ff" points="357.34,-29.33 354.88,-19.02 350.37,-28.61 357.34,-29.33"/>
</a>
</g>
</g>
<!-- Node14&#45;&gt;Node12 -->
<g id="edge25_Node000014_Node000012" class="edge">
<title>Node14&#45;&gt;Node12</title>
<g id="a_edge25_Node000014_Node000012"><a xlink:title=" ">
<path fill="none" stroke="#63b8ff" d="M366.93,-164.98C351.14,-156.61 326.78,-143.7 308.37,-133.95"/>
<polygon fill="#63b8ff" stroke="#63b8ff" points="309.83,-130.76 299.36,-129.17 306.56,-136.95 309.83,-130.76"/>
</a>
</g>
</g>
<!-- Node14&#45;&gt;Node13 -->
<g id="edge29_Node000014_Node000013" class="edge">
<title>Node14&#45;&gt;Node13</title>
<g id="a_edge29_Node000014_Node000013"><a xlink:title=" ">
<path fill="none" stroke="#63b8ff" d="M414.97,-164.98C448.82,-155.97 502.4,-141.7 539.71,-131.76"/>
<polygon fill="#63b8ff" stroke="#63b8ff" points="541.01,-135.04 549.78,-129.08 539.21,-128.27 541.01,-135.04"/>
</a>
</g>
</g>
<!-- Node15 -->
<g id="Node000015" class="node">
<title>Node15</title>
<g id="a_Node000015"><a xlink:title=" ">
<polygon fill="#e0e0e0" stroke="#999999" points="433.5,-129 368.5,-129 368.5,-110 433.5,-110 433.5,-129"/>
<text text-anchor="middle" x="401" y="-117" font-family="Helvetica,sans-Serif" font-size="10.00">functional</text>
</a>
</g>
</g>
<!-- Node14&#45;&gt;Node15 -->
<g id="edge27_Node000014_Node000015" class="edge">
<title>Node14&#45;&gt;Node15</title>
<g id="a_edge27_Node000014_Node000015"><a xlink:title=" ">
<path fill="none" stroke="#63b8ff" d="M385.97,-164.75C388.36,-157.72 391.79,-147.62 394.77,-138.84"/>
<polygon fill="#63b8ff" stroke="#63b8ff" points="398.18,-139.68 398.08,-129.09 391.55,-137.43 398.18,-139.68"/>
</a>
</g>
</g>
<!-- Node14&#45;&gt;Node16 -->
<g id="edge28_Node000014_Node000016" class="edge">
<title>Node14&#45;&gt;Node16</title>
<g id="a_edge28_Node000014_Node000016"><a xlink:title=" ">
<path fill="none" stroke="#63b8ff" d="M457.41,-164.99C516.01,-157.71 599.88,-146.01 681.75,-129.05"/>
<polygon fill="#63b8ff" stroke="#63b8ff" points="682.66,-132.43 691.73,-126.95 681.22,-125.58 682.66,-132.43"/>
</a>
</g>
</g>
<!-- Node17&#45;&gt;Node4 -->
<g id="edge33_Node000017_Node000004" class="edge">
<title>Node17&#45;&gt;Node4</title>
<g id="a_edge33_Node000017_Node000004"><a xlink:title=" ">
<path fill="none" stroke="#63b8ff" d="M488.09,-219.85C486.75,-207.6 484.09,-184.54 481,-165 476.52,-136.7 470.05,-104.12 465.93,-84.17"/>
<polygon fill="#63b8ff" stroke="#63b8ff" points="469.33,-83.33 463.86,-74.25 462.48,-84.76 469.33,-83.33"/>
</a>
</g>
</g>
<!-- Node17&#45;&gt;Node13 -->
<g id="edge31_Node000017_Node000013" class="edge">
<title>Node17&#45;&gt;Node13</title>
<g id="a_edge31_Node000017_Node000013"><a xlink:title=" ">
<path fill="none" stroke="#63b8ff" d="M496.61,-219.66C512.22,-201.54 548.06,-159.91 567.99,-136.77"/>
<polygon fill="#63b8ff" stroke="#63b8ff" points="570.67,-139.02 574.54,-129.16 565.37,-134.45 570.67,-139.02"/>
</a>
</g>
</g>
<!-- Node17&#45;&gt;Node14 -->
<g id="edge32_Node000017_Node000014" class="edge">
<title>Node17&#45;&gt;Node14</title>
<g id="a_edge32_Node000017_Node000014"><a xlink:title=" ">
<path fill="none" stroke="#63b8ff" d="M471.97,-219.98C455.07,-211.54 428.94,-198.47 409.36,-188.68"/>
<polygon fill="#63b8ff" stroke="#63b8ff" points="410.85,-185.51 400.34,-184.17 407.72,-191.77 410.85,-185.51"/>
</a>
</g>
</g>
</g>
</svg>
