<?xml version="1.0" encoding="UTF-8" standalone="no"?>
<!DOCTYPE svg PUBLIC "-//W3C//DTD SVG 1.1//EN"
 "http://www.w3.org/Graphics/SVG/1.1/DTD/svg11.dtd">
<!-- Generated by graphviz version 2.43.0 (0)
 -->
<!-- Title: inc/CCSDSConfig.h Pages: 1 -->
<svg width="1088pt" height="599pt"
 viewBox="0.00 0.00 1087.50 599.00" xmlns="http://www.w3.org/2000/svg" xmlns:xlink="http://www.w3.org/1999/xlink">
<g id="graph0" class="graph" transform="scale(1 1) rotate(0) translate(4 595)">
<title>inc/CCSDSConfig.h</title>
<!-- Node1 -->
<g id="Node000001" class="node">
<title>Node1</title>
<g id="a_Node000001"><a xlink:title=" ">
<polygon fill="#999999" stroke="#666666" points="580.5,-591 473.5,-591 473.5,-572 580.5,-572 580.5,-591"/>
<text text-anchor="middle" x="527" y="-579" font-family="Helvetica,sans-Serif" font-size="10.00">inc/CCSDSConfig.h</text>
</a>
</g>
</g>
<!-- Node2 -->
<g id="Node000002" class="node">
<title>Node2</title>
<g id="a_Node000002"><a xlink:href="CCSDSPack_8h.html" target="_top" xlink:title=" ">
<polygon fill="white" stroke="#666666" points="247,-74 149,-74 149,-55 247,-55 247,-74"/>
<text text-anchor="middle" x="198" y="-62" font-family="Helvetica,sans-Serif" font-size="10.00">inc/CCSDSPack.h</text>
</a>
</g>
</g>
<!-- Node1&#45;&gt;Node2 -->
<g id="edge1_Node000001_Node000002" class="edge">
<title>Node1&#45;&gt;Node2</title>
<g id="a_edge1_Node000001_Node000002"><a xlink:title=" ">
<path fill="none" stroke="#63b8ff" d="M463.21,-574.23C349.13,-561.24 122,-526.51 122,-456 122,-456 122,-456 122,-173.5 122,-129.48 164.75,-90.74 186.12,-74.12"/>
<polygon fill="#63b8ff" stroke="#63b8ff" points="462.89,-577.72 473.22,-575.35 463.67,-570.76 462.89,-577.72"/>
</a>
</g>
</g>
<!-- Node6 -->
<g id="Node000006" class="node">
<title>Node6</title>
<g id="a_Node000006"><a xlink:href="CCSDSSecondaryHeaderAbstract_8h.html" target="_top" xlink:title=" ">
<polygon fill="white" stroke="#666666" points="492.5,-536 339.5,-536 339.5,-506 492.5,-506 492.5,-536"/>
<text text-anchor="start" x="347.5" y="-524" font-family="Helvetica,sans-Serif" font-size="10.00">inc/CCSDSSecondaryHeader</text>
<text text-anchor="middle" x="416" y="-513" font-family="Helvetica,sans-Serif" font-size="10.00">Abstract.h</text>
</a>
</g>
</g>
<!-- Node1&#45;&gt;Node6 -->
<g id="edge5_Node000001_Node000006" class="edge">
<title>Node1&#45;&gt;Node6</title>
<g id="a_edge5_Node000001_Node000006"><a xlink:title=" ">
<path fill="none" stroke="#63b8ff" d="M501.52,-567.07C483.95,-557.81 460.63,-545.52 442.78,-536.11"/>
<polygon fill="#63b8ff" stroke="#63b8ff" points="500.14,-570.3 510.62,-571.87 503.41,-564.11 500.14,-570.3"/>
</a>
</g>
</g>
<!-- Node13 -->
<g id="Node000013" class="node">
<title>Node13</title>
<g id="a_Node000013"><a xlink:href="CCSDSPacket_8cpp.html" target="_top" xlink:title=" ">
<polygon fill="white" stroke="#666666" points="948.5,-74 829.5,-74 829.5,-55 948.5,-55 948.5,-74"/>
<text text-anchor="middle" x="889" y="-62" font-family="Helvetica,sans-Serif" font-size="10.00">src/CCSDSPacket.cpp</text>
</a>
</g>
</g>
<!-- Node1&#45;&gt;Node13 -->
<g id="edge42_Node000001_Node000013" class="edge">
<title>Node1&#45;&gt;Node13</title>
<g id="a_edge42_Node000001_Node000013"><a xlink:title=" ">
<path fill="none" stroke="#63b8ff" d="M585.29,-570.04C677.08,-551.89 845,-511.15 845,-456 845,-456 845,-456 845,-173.5 845,-134.02 870.53,-92.02 882.7,-74.25"/>
<polygon fill="#63b8ff" stroke="#63b8ff" points="584.44,-566.64 575.3,-571.99 585.78,-573.51 584.44,-566.64"/>
</a>
</g>
</g>
<!-- Node20 -->
<g id="Node000020" class="node">
<title>Node20</title>
<g id="a_Node000020"><a xlink:href="PusServices_8h.html" target="_top" xlink:title=" ">
<polygon fill="white" stroke="#666666" points="460.5,-404 359.5,-404 359.5,-385 460.5,-385 460.5,-404"/>
<text text-anchor="middle" x="410" y="-392" font-family="Helvetica,sans-Serif" font-size="10.00">inc/PusServices.h</text>
</a>
</g>
</g>
<!-- Node1&#45;&gt;Node20 -->
<g id="edge40_Node000001_Node000020" class="edge">
<title>Node1&#45;&gt;Node20</title>
<g id="a_edge40_Node000001_Node000020"><a xlink:title=" ">
<path fill="none" stroke="#63b8ff" d="M522.47,-561.87C518.24,-546.31 511.05,-523.87 501,-506 477.24,-463.76 436.88,-421.76 418.99,-404.14"/>
<polygon fill="#63b8ff" stroke="#63b8ff" points="519.15,-563.01 525.03,-571.82 525.93,-561.26 519.15,-563.01"/>
</a>
</g>
</g>
<!-- Node21 -->
<g id="Node000021" class="node">
<title>Node21</title>
<g id="a_Node000021"><a xlink:href="CCSDSConfig_8cpp.html" target="_top" xlink:title=" ">
<polygon fill="white" stroke="#666666" points="991,-530.5 873,-530.5 873,-511.5 991,-511.5 991,-530.5"/>
<text text-anchor="middle" x="932" y="-518.5" font-family="Helvetica,sans-Serif" font-size="10.00">src/CCSDSConfig.cpp</text>
</a>
</g>
</g>
<!-- Node1&#45;&gt;Node21 -->
<g id="edge41_Node000001_Node000021" class="edge">
<title>Node1&#45;&gt;Node21</title>
<g id="a_edge41_Node000001_Node000021"><a xlink:title=" ">
<path fill="none" stroke="#63b8ff" d="M590.59,-573.06C657.53,-564.97 765.91,-551.15 859,-536 868.93,-534.38 879.59,-532.45 889.61,-530.55"/>
<polygon fill="#63b8ff" stroke="#63b8ff" points="590.12,-569.59 580.61,-574.26 590.96,-576.54 590.12,-569.59"/>
</a>
</g>
</g>
<!-- Node3 -->
<g id="Node000003" class="node">
<title>Node3</title>
<g id="a_Node000003"><a xlink:href="exec__decoder_8cpp.html" target="_top" xlink:title=" ">
<polygon fill="white" stroke="#666666" points="120,-19 0,-19 0,0 120,0 120,-19"/>
<text text-anchor="middle" x="60" y="-7" font-family="Helvetica,sans-Serif" font-size="10.00">src/exec_decoder.cpp</text>
</a>
</g>
</g>
<!-- Node2&#45;&gt;Node3 -->
<g id="edge2_Node000002_Node000003" class="edge">
<title>Node2&#45;&gt;Node3</title>
<g id="a_edge2_Node000002_Node000003"><a xlink:title=" ">
<path fill="none" stroke="#63b8ff" d="M166.21,-51.29C140.63,-41.47 105.33,-27.91 82.58,-19.17"/>
<polygon fill="#63b8ff" stroke="#63b8ff" points="165.24,-54.67 175.83,-54.98 167.75,-48.13 165.24,-54.67"/>
</a>
</g>
</g>
<!-- Node4 -->
<g id="Node000004" class="node">
<title>Node4</title>
<g id="a_Node000004"><a xlink:href="exec__encoder_8cpp.html" target="_top" xlink:title=" ">
<polygon fill="white" stroke="#666666" points="258,-19 138,-19 138,0 258,0 258,-19"/>
<text text-anchor="middle" x="198" y="-7" font-family="Helvetica,sans-Serif" font-size="10.00">src/exec_encoder.cpp</text>
</a>
</g>
</g>
<!-- Node2&#45;&gt;Node4 -->
<g id="edge3_Node000002_Node000004" class="edge">
<title>Node2&#45;&gt;Node4</title>
<g id="a_edge3_Node000002_Node000004"><a xlink:title=" ">
<path fill="none" stroke="#63b8ff" d="M198,-44.66C198,-35.93 198,-25.99 198,-19.09"/>
<polygon fill="#63b8ff" stroke="#63b8ff" points="194.5,-44.75 198,-54.75 201.5,-44.75 194.5,-44.75"/>
</a>
</g>
</g>
<!-- Node5 -->
<g id="Node000005" class="node">
<title>Node5</title>
<g id="a_Node000005"><a xlink:href="exec__validator_8cpp.html" target="_top" xlink:title=" ">
<polygon fill="white" stroke="#666666" points="401.5,-19 276.5,-19 276.5,0 401.5,0 401.5,-19"/>
<text text-anchor="middle" x="339" y="-7" font-family="Helvetica,sans-Serif" font-size="10.00">src/exec_validator.cpp</text>
</a>
</g>
</g>
<!-- Node2&#45;&gt;Node5 -->
<g id="edge4_Node000002_Node000005" class="edge">
<title>Node2&#45;&gt;Node5</title>
<g id="a_edge4_Node000002_Node000005"><a xlink:title=" ">
<path fill="none" stroke="#63b8ff" d="M230.14,-51.42C256.29,-41.59 292.59,-27.95 315.93,-19.17"/>
<polygon fill="#63b8ff" stroke="#63b8ff" points="228.78,-48.19 220.65,-54.98 231.25,-54.74 228.78,-48.19"/>
</a>
</g>
</g>
<!-- Node6&#45;&gt;Node2 -->
<g id="edge30_Node000006_Node000002" class="edge">
<title>Node6&#45;&gt;Node2</title>
<g id="a_edge30_Node000006_Node000002"><a xlink:title=" ">
<path fill="none" stroke="#63b8ff" d="M328.87,-513.07C254.67,-501.84 160,-472.44 160,-395.5 160,-395.5 160,-395.5 160,-173.5 160,-134.54 182.27,-91.93 192.72,-74.1"/>
<polygon fill="#63b8ff" stroke="#63b8ff" points="328.8,-516.6 339.19,-514.54 329.78,-509.67 328.8,-516.6"/>
</a>
</g>
</g>
<!-- Node7 -->
<g id="Node000007" class="node">
<title>Node7</title>
<g id="a_Node000007"><a xlink:href="CCSDSDataField_8h.html" target="_top" xlink:title=" ">
<polygon fill="white" stroke="#666666" points="544,-349 422,-349 422,-330 544,-330 544,-349"/>
<text text-anchor="middle" x="483" y="-337" font-family="Helvetica,sans-Serif" font-size="10.00">inc/CCSDSDataField.h</text>
</a>
</g>
</g>
<!-- Node6&#45;&gt;Node7 -->
<g id="edge6_Node000006_Node000007" class="edge">
<title>Node6&#45;&gt;Node7</title>
<g id="a_edge6_Node000006_Node000007"><a xlink:title=" ">
<path fill="none" stroke="#63b8ff" d="M428.39,-496.77C440.23,-473.76 457.88,-437.26 469,-404 475.37,-384.94 479.65,-361.69 481.67,-349.29"/>
<polygon fill="#63b8ff" stroke="#63b8ff" points="425.23,-495.27 423.71,-505.75 431.43,-498.5 425.23,-495.27"/>
</a>
</g>
</g>
<!-- Node19 -->
<g id="Node000019" class="node">
<title>Node19</title>
<g id="a_Node000019"><a xlink:href="CCSDSSecondaryHeaderFactory_8h.html" target="_top" xlink:title=" ">
<polygon fill="white" stroke="#666666" points="387.5,-470 234.5,-470 234.5,-440 387.5,-440 387.5,-470"/>
<text text-anchor="start" x="242.5" y="-458" font-family="Helvetica,sans-Serif" font-size="10.00">inc/CCSDSSecondaryHeader</text>
<text text-anchor="middle" x="311" y="-447" font-family="Helvetica,sans-Serif" font-size="10.00">Factory.h</text>
</a>
</g>
</g>
<!-- Node6&#45;&gt;Node19 -->
<g id="edge31_Node000006_Node000019" class="edge">
<title>Node6&#45;&gt;Node19</title>
<g id="a_edge31_Node000006_Node000019"><a xlink:title=" ">
<path fill="none" stroke="#63b8ff" d="M384.33,-500.69C368.12,-490.82 348.75,-479.01 333.99,-470.01"/>
<polygon fill="#63b8ff" stroke="#63b8ff" points="382.6,-503.74 392.96,-505.95 386.24,-497.76 382.6,-503.74"/>
</a>
</g>
</g>
<!-- Node6&#45;&gt;Node20 -->
<g id="edge39_Node000006_Node000020" class="edge">
<title>Node6&#45;&gt;Node20</title>
<g id="a_edge39_Node000006_Node000020"><a xlink:title=" ">
<path fill="none" stroke="#63b8ff" d="M414.82,-495.48C413.46,-467.34 411.31,-422.67 410.41,-404.07"/>
<polygon fill="#63b8ff" stroke="#63b8ff" points="411.33,-495.9 415.31,-505.72 418.33,-495.56 411.33,-495.9"/>
</a>
</g>
</g>
<!-- Node7&#45;&gt;Node2 -->
<g id="edge7_Node000007_Node000002" class="edge">
<title>Node7&#45;&gt;Node2</title>
<g id="a_edge7_Node000007_Node000002"><a xlink:title=" ">
<path fill="none" stroke="#63b8ff" d="M465.68,-323.17C445.48,-304.66 411.93,-271.9 389,-239 352.4,-186.5 372.96,-152.38 325,-110 303.29,-90.82 272.81,-79.78 247.16,-73.49"/>
<polygon fill="#63b8ff" stroke="#63b8ff" points="463.44,-325.86 473.2,-329.97 468.13,-320.67 463.44,-325.86"/>
</a>
</g>
</g>
<!-- Node8 -->
<g id="Node000008" class="node">
<title>Node8</title>
<g id="a_Node000008"><a xlink:href="CCSDSPacket_8h.html" target="_top" xlink:title=" ">
<polygon fill="white" stroke="#666666" points="589.5,-294 482.5,-294 482.5,-275 589.5,-275 589.5,-294"/>
<text text-anchor="middle" x="536" y="-282" font-family="Helvetica,sans-Serif" font-size="10.00">inc/CCSDSPacket.h</text>
</a>
</g>
</g>
<!-- Node7&#45;&gt;Node8 -->
<g id="edge8_Node000007_Node000008" class="edge">
<title>Node7&#45;&gt;Node8</title>
<g id="a_edge8_Node000007_Node000008"><a xlink:title=" ">
<path fill="none" stroke="#63b8ff" d="M498.98,-322.52C508.32,-313.18 519.75,-301.75 527.41,-294.09"/>
<polygon fill="#63b8ff" stroke="#63b8ff" points="496.35,-320.2 491.75,-329.75 501.3,-325.15 496.35,-320.2"/>
</a>
</g>
</g>
<!-- Node7&#45;&gt;Node13 -->
<g id="edge28_Node000007_Node000013" class="edge">
<title>Node7&#45;&gt;Node13</title>
<g id="a_edge28_Node000007_Node000013"><a xlink:title=" ">
<path fill="none" stroke="#63b8ff" d="M554.43,-336.66C627.69,-330.52 731,-308.09 731,-230.5 731,-230.5 731,-230.5 731,-173.5 731,-143.33 733.24,-130.9 755,-110 775.07,-90.73 803.68,-79.8 829.32,-73.6"/>
<polygon fill="#63b8ff" stroke="#63b8ff" points="554.01,-333.18 544.3,-337.42 554.54,-340.16 554.01,-333.18"/>
</a>
</g>
</g>
<!-- Node16 -->
<g id="Node000016" class="node">
<title>Node16</title>
<g id="a_Node000016"><a xlink:href="PusServices_8cpp.html" target="_top" xlink:title=" ">
<polygon fill="white" stroke="#666666" points="1079.5,-74 966.5,-74 966.5,-55 1079.5,-55 1079.5,-74"/>
<text text-anchor="middle" x="1023" y="-62" font-family="Helvetica,sans-Serif" font-size="10.00">src/PusServices.cpp</text>
</a>
</g>
</g>
<!-- Node7&#45;&gt;Node16 -->
<g id="edge29_Node000007_Node000016" class="edge">
<title>Node7&#45;&gt;Node16</title>
<g id="a_edge29_Node000007_Node000016"><a xlink:title=" ">
<path fill="none" stroke="#63b8ff" d="M554.41,-330.89C614.08,-323.5 693.67,-310.91 721,-294 751.08,-275.38 769,-265.88 769,-230.5 769,-230.5 769,-230.5 769,-173.5 769,-143.33 769.93,-129.44 793,-110 806.18,-98.89 902.74,-82.99 966.48,-73.5"/>
<polygon fill="#63b8ff" stroke="#63b8ff" points="553.78,-327.44 544.27,-332.12 554.62,-334.39 553.78,-327.44"/>
</a>
</g>
</g>
<!-- Node18 -->
<g id="Node000018" class="node">
<title>Node18</title>
<g id="a_Node000018"><a xlink:href="CCSDSDataField_8cpp.html" target="_top" xlink:title=" ">
<polygon fill="white" stroke="#666666" points="360,-294 226,-294 226,-275 360,-275 360,-294"/>
<text text-anchor="middle" x="293" y="-282" font-family="Helvetica,sans-Serif" font-size="10.00">src/CCSDSDataField.cpp</text>
</a>
</g>
</g>
<!-- Node7&#45;&gt;Node18 -->
<g id="edge27_Node000007_Node000018" class="edge">
<title>Node7&#45;&gt;Node18</title>
<g id="a_edge27_Node000007_Node000018"><a xlink:title=" ">
<path fill="none" stroke="#63b8ff" d="M442.43,-327.18C406.9,-317.27 356.03,-303.08 323.77,-294.08"/>
<polygon fill="#63b8ff" stroke="#63b8ff" points="441.9,-330.67 452.47,-329.98 443.78,-323.93 441.9,-330.67"/>
</a>
</g>
</g>
<!-- Node8&#45;&gt;Node2 -->
<g id="edge20_Node000008_Node000002" class="edge">
<title>Node8&#45;&gt;Node2</title>
<g id="a_edge20_Node000008_Node000002"><a xlink:title=" ">
<path fill="none" stroke="#63b8ff" d="M472.37,-273.96C448.89,-267.55 423.71,-256.86 406,-239 363.44,-196.09 406.96,-151.47 363,-110 346.33,-94.27 289.68,-81.32 247.38,-73.52"/>
<polygon fill="#63b8ff" stroke="#63b8ff" points="471.76,-277.41 482.31,-276.45 473.46,-270.62 471.76,-277.41"/>
</a>
</g>
</g>
<!-- Node9 -->
<g id="Node000009" class="node">
<title>Node9</title>
<g id="a_Node000009"><a xlink:href="CCSDSManager_8h.html" target="_top" xlink:title=" ">
<polygon fill="white" stroke="#666666" points="609,-184 491,-184 491,-165 609,-165 609,-184"/>
<text text-anchor="middle" x="550" y="-172" font-family="Helvetica,sans-Serif" font-size="10.00">inc/CCSDSManager.h</text>
</a>
</g>
</g>
<!-- Node8&#45;&gt;Node9 -->
<g id="edge9_Node000008_Node000009" class="edge">
<title>Node8&#45;&gt;Node9</title>
<g id="a_edge9_Node000008_Node000009"><a xlink:title=" ">
<path fill="none" stroke="#63b8ff" d="M539.12,-264.93C540.4,-256.96 541.86,-247.54 543,-239 545.62,-219.43 547.98,-196.38 549.18,-184.14"/>
<polygon fill="#63b8ff" stroke="#63b8ff" points="535.63,-264.55 537.46,-274.99 542.54,-265.69 535.63,-264.55"/>
</a>
</g>
</g>
<!-- Node10 -->
<g id="Node000010" class="node">
<title>Node10</title>
<g id="a_Node000010"><a xlink:href="CCSDSUtils_8h.html" target="_top" xlink:title=" ">
<polygon fill="white" stroke="#666666" points="665,-129 567,-129 567,-110 665,-110 665,-129"/>
<text text-anchor="middle" x="616" y="-117" font-family="Helvetica,sans-Serif" font-size="10.00">inc/CCSDSUtils.h</text>
</a>
</g>
</g>
<!-- Node8&#45;&gt;Node10 -->
<g id="edge21_Node000008_Node000010" class="edge">
<title>Node8&#45;&gt;Node10</title>
<g id="a_edge21_Node000008_Node000010"><a xlink:title=" ">
<path fill="none" stroke="#63b8ff" d="M554.58,-268.26C574.65,-250.47 605.44,-219 618,-184 624.71,-165.31 620.99,-141.51 618.2,-129.03"/>
<polygon fill="#63b8ff" stroke="#63b8ff" points="552.27,-265.63 546.97,-274.8 556.84,-270.94 552.27,-265.63"/>
</a>
</g>
</g>
<!-- Node8&#45;&gt;Node13 -->
<g id="edge26_Node000008_Node000013" class="edge">
<title>Node8&#45;&gt;Node13</title>
<g id="a_edge26_Node000008_Node000013"><a xlink:title=" ">
<path fill="none" stroke="#63b8ff" d="M560.83,-269.82C574.52,-261.72 591.44,-250.76 605,-239 662.37,-189.26 652.45,-149.98 717,-110 738.04,-96.97 800.31,-82.78 843.84,-74.02"/>
<polygon fill="#63b8ff" stroke="#63b8ff" points="558.86,-266.91 551.95,-274.94 562.36,-272.98 558.86,-266.91"/>
</a>
</g>
</g>
<!-- Node17 -->
<g id="Node000017" class="node">
<title>Node17</title>
<g id="a_Node000017"><a xlink:href="CCSDSValidator_8h.html" target="_top" xlink:title="Defines the Validator class for CCSDS packet validation.">
<polygon fill="white" stroke="#666666" points="534.5,-239 415.5,-239 415.5,-220 534.5,-220 534.5,-239"/>
<text text-anchor="middle" x="475" y="-227" font-family="Helvetica,sans-Serif" font-size="10.00">inc/CCSDSValidator.h</text>
</a>
</g>
</g>
<!-- Node8&#45;&gt;Node17 -->
<g id="edge22_Node000008_Node000017" class="edge">
<title>Node8&#45;&gt;Node17</title>
<g id="a_edge22_Node000008_Node000017"><a xlink:title=" ">
<path fill="none" stroke="#63b8ff" d="M518.53,-268.32C507.66,-258.87 494.06,-247.06 484.98,-239.17"/>
<polygon fill="#63b8ff" stroke="#63b8ff" points="516.35,-271.07 526.2,-274.98 520.95,-265.78 516.35,-271.07"/>
</a>
</g>
</g>
<!-- Node9&#45;&gt;Node2 -->
<g id="edge10_Node000009_Node000002" class="edge">
<title>Node9&#45;&gt;Node2</title>
<g id="a_edge10_Node000009_Node000002"><a xlink:title=" ">
<path fill="none" stroke="#63b8ff" d="M529.7,-159.07C508.2,-144.48 472.75,-122.36 439,-110 421.27,-103.51 312.27,-84.62 247.08,-73.65"/>
<polygon fill="#63b8ff" stroke="#63b8ff" points="527.8,-162.01 538.02,-164.82 531.78,-156.25 527.8,-162.01"/>
</a>
</g>
</g>
<!-- Node9&#45;&gt;Node10 -->
<g id="edge11_Node000009_Node000010" class="edge">
<title>Node9&#45;&gt;Node10</title>
<g id="a_edge11_Node000009_Node000010"><a xlink:title=" ">
<path fill="none" stroke="#63b8ff" d="M568.55,-158.6C580.38,-149.11 595.29,-137.13 605.2,-129.17"/>
<polygon fill="#63b8ff" stroke="#63b8ff" points="566.21,-155.99 560.6,-164.98 570.59,-161.45 566.21,-155.99"/>
</a>
</g>
</g>
<!-- Node12 -->
<g id="Node000012" class="node">
<title>Node12</title>
<g id="a_Node000012"><a xlink:href="CCSDSManager_8cpp.html" target="_top" xlink:title=" ">
<polygon fill="white" stroke="#666666" points="542.5,-74 413.5,-74 413.5,-55 542.5,-55 542.5,-74"/>
<text text-anchor="middle" x="478" y="-62" font-family="Helvetica,sans-Serif" font-size="10.00">src/CCSDSManager.cpp</text>
</a>
</g>
</g>
<!-- Node9&#45;&gt;Node12 -->
<g id="edge19_Node000009_Node000012" class="edge">
<title>Node9&#45;&gt;Node12</title>
<g id="a_edge19_Node000009_Node000012"><a xlink:title=" ">
<path fill="none" stroke="#63b8ff" d="M541.36,-155.73C534.74,-142.7 525.08,-124.77 515,-110 506.05,-96.89 494.06,-83.01 486.18,-74.31"/>
<polygon fill="#63b8ff" stroke="#63b8ff" points="538.37,-157.58 545.95,-164.98 544.64,-154.47 538.37,-157.58"/>
</a>
</g>
</g>
<!-- Node10&#45;&gt;Node2 -->
<g id="edge12_Node000010_Node000002" class="edge">
<title>Node10&#45;&gt;Node2</title>
<g id="a_edge12_Node000010_Node000002"><a xlink:title=" ">
<path fill="none" stroke="#63b8ff" d="M556.6,-111.57C485.19,-103.15 361.73,-88.28 256,-74 253.08,-73.6 250.07,-73.19 247.04,-72.77"/>
<polygon fill="#63b8ff" stroke="#63b8ff" points="556.41,-115.07 566.75,-112.77 557.23,-108.12 556.41,-115.07"/>
</a>
</g>
</g>
<!-- Node11 -->
<g id="Node000011" class="node">
<title>Node11</title>
<g id="a_Node000011"><a xlink:href="CCSDSHeader_8cpp.html" target="_top" xlink:title=" ">
<polygon fill="white" stroke="#666666" points="811,-74 689,-74 689,-55 811,-55 811,-74"/>
<text text-anchor="middle" x="750" y="-62" font-family="Helvetica,sans-Serif" font-size="10.00">src/CCSDSHeader.cpp</text>
</a>
</g>
</g>
<!-- Node10&#45;&gt;Node11 -->
<g id="edge13_Node000010_Node000011" class="edge">
<title>Node10&#45;&gt;Node11</title>
<g id="a_edge13_Node000010_Node000011"><a xlink:title=" ">
<path fill="none" stroke="#63b8ff" d="M646.87,-106.29C671.7,-96.47 705.99,-82.91 728.08,-74.17"/>
<polygon fill="#63b8ff" stroke="#63b8ff" points="645.54,-103.05 637.53,-109.98 648.12,-109.56 645.54,-103.05"/>
</a>
</g>
</g>
<!-- Node10&#45;&gt;Node12 -->
<g id="edge14_Node000010_Node000012" class="edge">
<title>Node10&#45;&gt;Node12</title>
<g id="a_edge14_Node000010_Node000012"><a xlink:title=" ">
<path fill="none" stroke="#63b8ff" d="M584.21,-106.29C558.63,-96.47 523.33,-82.91 500.58,-74.17"/>
<polygon fill="#63b8ff" stroke="#63b8ff" points="583.24,-109.67 593.83,-109.98 585.75,-103.13 583.24,-109.67"/>
</a>
</g>
</g>
<!-- Node10&#45;&gt;Node13 -->
<g id="edge15_Node000010_Node000013" class="edge">
<title>Node10&#45;&gt;Node13</title>
<g id="a_edge15_Node000010_Node000013"><a xlink:title=" ">
<path fill="none" stroke="#63b8ff" d="M669.75,-108.07C720.93,-98.13 797.04,-83.35 844.79,-74.08"/>
<polygon fill="#63b8ff" stroke="#63b8ff" points="669.01,-104.64 659.86,-109.98 670.35,-111.51 669.01,-104.64"/>
</a>
</g>
</g>
<!-- Node14 -->
<g id="Node000014" class="node">
<title>Node14</title>
<g id="a_Node000014"><a xlink:href="CCSDSUtils_8cpp.html" target="_top" xlink:title=" ">
<polygon fill="white" stroke="#666666" points="671,-74 561,-74 561,-55 671,-55 671,-74"/>
<text text-anchor="middle" x="616" y="-62" font-family="Helvetica,sans-Serif" font-size="10.00">src/CCSDSUtils.cpp</text>
</a>
</g>
</g>
<!-- Node10&#45;&gt;Node14 -->
<g id="edge16_Node000010_Node000014" class="edge">
<title>Node10&#45;&gt;Node14</title>
<g id="a_edge16_Node000010_Node000014"><a xlink:title=" ">
<path fill="none" stroke="#63b8ff" d="M616,-99.66C616,-90.93 616,-80.99 616,-74.09"/>
<polygon fill="#63b8ff" stroke="#63b8ff" points="612.5,-99.75 616,-109.75 619.5,-99.75 612.5,-99.75"/>
</a>
</g>
</g>
<!-- Node15 -->
<g id="Node000015" class="node">
<title>Node15</title>
<g id="a_Node000015"><a xlink:href="CCSDSValidator_8cpp.html" target="_top" xlink:title=" ">
<polygon fill="white" stroke="#666666" points="395,-74 265,-74 265,-55 395,-55 395,-74"/>
<text text-anchor="middle" x="330" y="-62" font-family="Helvetica,sans-Serif" font-size="10.00">src/CCSDSValidator.cpp</text>
</a>
</g>
</g>
<!-- Node10&#45;&gt;Node15 -->
<g id="edge17_Node000010_Node000015" class="edge">
<title>Node10&#45;&gt;Node15</title>
<g id="a_edge17_Node000010_Node000015"><a xlink:title=" ">
<path fill="none" stroke="#63b8ff" d="M560.03,-108.13C506.41,-98.19 426.45,-83.37 376.31,-74.08"/>
<polygon fill="#63b8ff" stroke="#63b8ff" points="559.58,-111.6 570.05,-109.98 560.85,-104.72 559.58,-111.6"/>
</a>
</g>
</g>
<!-- Node10&#45;&gt;Node16 -->
<g id="edge18_Node000010_Node000016" class="edge">
<title>Node10&#45;&gt;Node16</title>
<g id="a_edge18_Node000010_Node000016"><a xlink:title=" ">
<path fill="none" stroke="#63b8ff" d="M675.4,-110.78C743.62,-101.92 858.89,-86.93 958,-74 960.71,-73.65 963.48,-73.28 966.28,-72.92"/>
<polygon fill="#63b8ff" stroke="#63b8ff" points="674.74,-107.34 665.27,-112.1 675.64,-114.28 674.74,-107.34"/>
</a>
</g>
</g>
<!-- Node17&#45;&gt;Node2 -->
<g id="edge24_Node000017_Node000002" class="edge">
<title>Node17&#45;&gt;Node2</title>
<g id="a_edge24_Node000017_Node000002"><a xlink:title=" ">
<path fill="none" stroke="#63b8ff" d="M468.91,-210.49C459.03,-184.09 436.89,-135.31 401,-110 388.39,-101.11 302.05,-84.24 246.11,-74.02"/>
<polygon fill="#63b8ff" stroke="#63b8ff" points="465.65,-211.76 472.31,-220 472.25,-209.41 465.65,-211.76"/>
</a>
</g>
</g>
<!-- Node17&#45;&gt;Node9 -->
<g id="edge23_Node000017_Node000009" class="edge">
<title>Node17&#45;&gt;Node9</title>
<g id="a_edge23_Node000017_Node000009"><a xlink:title=" ">
<path fill="none" stroke="#63b8ff" d="M495.31,-214.15C508.86,-204.57 526.24,-192.29 537.73,-184.17"/>
<polygon fill="#63b8ff" stroke="#63b8ff" points="493.2,-211.36 487.05,-219.98 497.24,-217.07 493.2,-211.36"/>
</a>
</g>
</g>
<!-- Node17&#45;&gt;Node15 -->
<g id="edge25_Node000017_Node000015" class="edge">
<title>Node17&#45;&gt;Node15</title>
<g id="a_edge25_Node000017_Node000015"><a xlink:title=" ">
<path fill="none" stroke="#63b8ff" d="M474.15,-209.61C472.02,-183.96 464.62,-138.11 439,-110 422.07,-91.42 396.24,-80.42 373.98,-74.01"/>
<polygon fill="#63b8ff" stroke="#63b8ff" points="470.67,-210.07 474.8,-219.83 477.66,-209.63 470.67,-210.07"/>
</a>
</g>
</g>
<!-- Node19&#45;&gt;Node2 -->
<g id="edge33_Node000019_Node000002" class="edge">
<title>Node19&#45;&gt;Node2</title>
<g id="a_edge33_Node000019_Node000002"><a xlink:title=" ">
<path fill="none" stroke="#63b8ff" d="M271.78,-434.87C239.15,-415.9 198,-383.45 198,-340.5 198,-340.5 198,-340.5 198,-173.5 198,-136.56 198,-92.52 198,-74.18"/>
<polygon fill="#63b8ff" stroke="#63b8ff" points="270.28,-438.04 280.72,-439.87 273.69,-431.93 270.28,-438.04"/>
</a>
</g>
</g>
<!-- Node19&#45;&gt;Node7 -->
<g id="edge32_Node000019_Node000007" class="edge">
<title>Node19&#45;&gt;Node7</title>
<g id="a_edge32_Node000019_Node000007"><a xlink:title=" ">
<path fill="none" stroke="#63b8ff" d="M319.31,-430.21C325.63,-415.33 335.68,-396.81 350,-385 372.64,-366.33 403.43,-355.38 429.69,-349.01"/>
<polygon fill="#63b8ff" stroke="#63b8ff" points="315.94,-429.21 315.54,-439.8 322.46,-431.78 315.94,-429.21"/>
</a>
</g>
</g>
<!-- Node19&#45;&gt;Node18 -->
<g id="edge38_Node000019_Node000018" class="edge">
<title>Node19&#45;&gt;Node18</title>
<g id="a_edge38_Node000019_Node000018"><a xlink:title=" ">
<path fill="none" stroke="#63b8ff" d="M308.4,-429.69C304.32,-391.5 296.6,-319.23 293.94,-294.25"/>
<polygon fill="#63b8ff" stroke="#63b8ff" points="304.95,-430.35 309.5,-439.92 311.91,-429.61 304.95,-430.35"/>
</a>
</g>
</g>
<!-- Node19&#45;&gt;Node20 -->
<g id="edge34_Node000019_Node000020" class="edge">
<title>Node19&#45;&gt;Node20</title>
<g id="a_edge34_Node000019_Node000020"><a xlink:title=" ">
<path fill="none" stroke="#63b8ff" d="M343.52,-434.78C361.04,-424.43 381.78,-412.18 395.38,-404.14"/>
<polygon fill="#63b8ff" stroke="#63b8ff" points="341.54,-431.89 334.71,-439.99 345.1,-437.91 341.54,-431.89"/>
</a>
</g>
</g>
<!-- Node20&#45;&gt;Node2 -->
<g id="edge36_Node000020_Node000002" class="edge">
<title>Node20&#45;&gt;Node2</title>
<g id="a_edge36_Node000020_Node000002"><a xlink:title=" ">
<path fill="none" stroke="#63b8ff" d="M405.71,-374.8C399.69,-350.7 387.4,-307.99 369,-275 320.51,-188.08 235.06,-101.45 207.12,-74.24"/>
<polygon fill="#63b8ff" stroke="#63b8ff" points="402.35,-375.82 408.09,-384.73 409.16,-374.19 402.35,-375.82"/>
</a>
</g>
</g>
<!-- Node20&#45;&gt;Node7 -->
<g id="edge35_Node000020_Node000007" class="edge">
<title>Node20&#45;&gt;Node7</title>
<g id="a_edge35_Node000020_Node000007"><a xlink:title=" ">
<path fill="none" stroke="#63b8ff" d="M430.14,-378.88C443.28,-369.34 459.98,-357.21 471.06,-349.17"/>
<polygon fill="#63b8ff" stroke="#63b8ff" points="427.76,-376.28 421.73,-384.98 431.88,-381.94 427.76,-376.28"/>
</a>
</g>
</g>
<!-- Node20&#45;&gt;Node16 -->
<g id="edge37_Node000020_Node000016" class="edge">
<title>Node20&#45;&gt;Node16</title>
<g id="a_edge37_Node000020_Node000016"><a xlink:title=" ">
<path fill="none" stroke="#63b8ff" d="M470.76,-389.58C581.98,-380.74 807,-354.33 807,-285.5 807,-285.5 807,-285.5 807,-173.5 807,-132.62 932.33,-91.36 992.05,-74.01"/>
<polygon fill="#63b8ff" stroke="#63b8ff" points="470.38,-386.1 460.68,-390.36 470.92,-393.08 470.38,-386.1"/>
</a>
</g>
</g>
</g>
</svg>
