<?xml version="1.0" encoding="UTF-8" standalone="no"?>
<!DOCTYPE svg PUBLIC "-//W3C//DTD SVG 1.1//EN"
 "http://www.w3.org/Graphics/SVG/1.1/DTD/svg11.dtd">
<!-- Generated by graphviz version 2.43.0 (0)
 -->
<!-- Title: inc/CCSDSValidator.h Pages: 1 -->
<svg width="810pt" height="412pt"
 viewBox="0.00 0.00 810.00 412.00" xmlns="http://www.w3.org/2000/svg" xmlns:xlink="http://www.w3.org/1999/xlink">
<g id="graph0" class="graph" transform="scale(1 1) rotate(0) translate(4 408)">
<title>inc/CCSDSValidator.h</title>
<!-- Node1 -->
<g id="Node000001" class="node">
<title>Node1</title>
<g id="a_Node000001"><a xlink:title="Defines the Validator class for CCSDS packet validation.">
<polygon fill="#999999" stroke="#666666" points="487.5,-404 368.5,-404 368.5,-385 487.5,-385 487.5,-404"/>
<text text-anchor="middle" x="428" y="-392" font-family="Helvetica,sans-Serif" font-size="10.00">inc/CCSDSValidator.h</text>
</a>
</g>
</g>
<!-- Node2 -->
<g id="Node000002" class="node">
<title>Node2</title>
<g id="a_Node000002"><a xlink:href="CCSDSPacket_8h.html" target="_top" xlink:title=" ">
<polygon fill="white" stroke="#666666" points="473,-349 383,-349 383,-330 473,-330 473,-349"/>
<text text-anchor="middle" x="428" y="-337" font-family="Helvetica,sans-Serif" font-size="10.00">CCSDSPacket.h</text>
</a>
</g>
</g>
<!-- Node1&#45;&gt;Node2 -->
<g id="edge1_Node000001_Node000002" class="edge">
<title>Node1&#45;&gt;Node2</title>
<g id="a_edge1_Node000001_Node000002"><a xlink:title=" ">
<path fill="none" stroke="#63b8ff" d="M428,-384.75C428,-377.8 428,-367.85 428,-359.13"/>
<polygon fill="#63b8ff" stroke="#63b8ff" points="431.5,-359.09 428,-349.09 424.5,-359.09 431.5,-359.09"/>
</a>
</g>
</g>
<!-- Node3 -->
<g id="Node000003" class="node">
<title>Node3</title>
<g id="a_Node000003"><a xlink:href="CCSDSResult_8h.html" target="_top" xlink:title=" ">
<polygon fill="white" stroke="#666666" points="352.5,-74 263.5,-74 263.5,-55 352.5,-55 352.5,-74"/>
<text text-anchor="middle" x="308" y="-62" font-family="Helvetica,sans-Serif" font-size="10.00">CCSDSResult.h</text>
</a>
</g>
</g>
<!-- Node2&#45;&gt;Node3 -->
<g id="edge2_Node000002_Node000003" class="edge">
<title>Node2&#45;&gt;Node3</title>
<g id="a_edge2_Node000002_Node000003"><a xlink:title=" ">
<path fill="none" stroke="#63b8ff" d="M455.88,-329.93C542.54,-302.01 796.13,-209.62 707,-110 684.46,-84.8 466.86,-72.24 362.85,-67.63"/>
<polygon fill="#63b8ff" stroke="#63b8ff" points="362.99,-64.13 352.84,-67.2 362.68,-71.13 362.99,-64.13"/>
</a>
</g>
</g>
<!-- Node6 -->
<g id="Node000006" class="node">
<title>Node6</title>
<g id="a_Node000006"><a xlink:title=" ">
<polygon fill="#e0e0e0" stroke="#999999" points="136.5,-19 89.5,-19 89.5,0 136.5,0 136.5,-19"/>
<text text-anchor="middle" x="113" y="-7" font-family="Helvetica,sans-Serif" font-size="10.00">vector</text>
</a>
</g>
</g>
<!-- Node2&#45;&gt;Node6 -->
<g id="edge9_Node000002_Node000006" class="edge">
<title>Node2&#45;&gt;Node6</title>
<g id="a_edge9_Node000002_Node000006"><a xlink:title=" ">
<path fill="none" stroke="#63b8ff" d="M382.6,-336.64C272.45,-330.89 0,-308.76 0,-230.5 0,-230.5 0,-230.5 0,-118.5 0,-72.68 49.15,-40.32 82.62,-23.6"/>
<polygon fill="#63b8ff" stroke="#63b8ff" points="84.5,-26.58 92.01,-19.11 81.48,-20.27 84.5,-26.58"/>
</a>
</g>
</g>
<!-- Node7 -->
<g id="Node000007" class="node">
<title>Node7</title>
<g id="a_Node000007"><a xlink:title=" ">
<polygon fill="#e0e0e0" stroke="#999999" points="518,-19 468,-19 468,0 518,0 518,-19"/>
<text text-anchor="middle" x="493" y="-7" font-family="Helvetica,sans-Serif" font-size="10.00">cstdint</text>
</a>
</g>
</g>
<!-- Node2&#45;&gt;Node7 -->
<g id="edge8_Node000002_Node000007" class="edge">
<title>Node2&#45;&gt;Node7</title>
<g id="a_edge8_Node000002_Node000007"><a xlink:title=" ">
<path fill="none" stroke="#63b8ff" d="M473.11,-335.03C572.59,-326.13 802,-298.25 802,-230.5 802,-230.5 802,-230.5 802,-118.5 802,-61.05 609.28,-26.98 528.24,-15.2"/>
<polygon fill="#63b8ff" stroke="#63b8ff" points="528.42,-11.69 518.03,-13.74 527.43,-18.62 528.42,-11.69"/>
</a>
</g>
</g>
<!-- Node9 -->
<g id="Node000009" class="node">
<title>Node9</title>
<g id="a_Node000009"><a xlink:href="CCSDSHeader_8h.html" target="_top" xlink:title=" ">
<polygon fill="white" stroke="#666666" points="159.5,-129 66.5,-129 66.5,-110 159.5,-110 159.5,-129"/>
<text text-anchor="middle" x="113" y="-117" font-family="Helvetica,sans-Serif" font-size="10.00">CCSDSHeader.h</text>
</a>
</g>
</g>
<!-- Node2&#45;&gt;Node9 -->
<g id="edge10_Node000002_Node000009" class="edge">
<title>Node2&#45;&gt;Node9</title>
<g id="a_edge10_Node000002_Node000009"><a xlink:title=" ">
<path fill="none" stroke="#63b8ff" d="M415.65,-329.95C367.83,-296.86 194.48,-176.89 134,-135.03"/>
<polygon fill="#63b8ff" stroke="#63b8ff" points="135.82,-132.04 125.61,-129.22 131.84,-137.79 135.82,-132.04"/>
</a>
</g>
</g>
<!-- Node10 -->
<g id="Node000010" class="node">
<title>Node10</title>
<g id="a_Node000010"><a xlink:href="CCSDSDataField_8h.html" target="_top" xlink:title=" ">
<polygon fill="white" stroke="#666666" points="480.5,-294 375.5,-294 375.5,-275 480.5,-275 480.5,-294"/>
<text text-anchor="middle" x="428" y="-282" font-family="Helvetica,sans-Serif" font-size="10.00">CCSDSDataField.h</text>
</a>
</g>
</g>
<!-- Node2&#45;&gt;Node10 -->
<g id="edge14_Node000002_Node000010" class="edge">
<title>Node2&#45;&gt;Node10</title>
<g id="a_edge14_Node000002_Node000010"><a xlink:title=" ">
<path fill="none" stroke="#63b8ff" d="M428,-329.75C428,-322.8 428,-312.85 428,-304.13"/>
<polygon fill="#63b8ff" stroke="#63b8ff" points="431.5,-304.09 428,-294.09 424.5,-304.09 431.5,-304.09"/>
</a>
</g>
</g>
<!-- Node4 -->
<g id="Node000004" class="node">
<title>Node4</title>
<g id="a_Node000004"><a xlink:title=" ">
<polygon fill="#e0e0e0" stroke="#999999" points="449.5,-19 356.5,-19 356.5,0 449.5,0 449.5,-19"/>
<text text-anchor="middle" x="403" y="-7" font-family="Helvetica,sans-Serif" font-size="10.00">unordered_map</text>
</a>
</g>
</g>
<!-- Node3&#45;&gt;Node4 -->
<g id="edge3_Node000003_Node000004" class="edge">
<title>Node3&#45;&gt;Node4</title>
<g id="a_edge3_Node000003_Node000004"><a xlink:title=" ">
<path fill="none" stroke="#63b8ff" d="M323.26,-54.98C338.13,-46.69 360.98,-33.94 378.42,-24.22"/>
<polygon fill="#63b8ff" stroke="#63b8ff" points="380.43,-27.1 387.46,-19.17 377.02,-20.99 380.43,-27.1"/>
</a>
</g>
</g>
<!-- Node5 -->
<g id="Node000005" class="node">
<title>Node5</title>
<g id="a_Node000005"><a xlink:title=" ">
<polygon fill="#e0e0e0" stroke="#999999" points="259.5,-19 208.5,-19 208.5,0 259.5,0 259.5,-19"/>
<text text-anchor="middle" x="234" y="-7" font-family="Helvetica,sans-Serif" font-size="10.00">variant</text>
</a>
</g>
</g>
<!-- Node3&#45;&gt;Node5 -->
<g id="edge4_Node000003_Node000005" class="edge">
<title>Node3&#45;&gt;Node5</title>
<g id="a_edge4_Node000003_Node000005"><a xlink:title=" ">
<path fill="none" stroke="#63b8ff" d="M296.11,-54.98C284.85,-46.92 267.71,-34.65 254.29,-25.03"/>
<polygon fill="#63b8ff" stroke="#63b8ff" points="256.27,-22.15 246.11,-19.17 252.2,-27.84 256.27,-22.15"/>
</a>
</g>
</g>
<!-- Node3&#45;&gt;Node6 -->
<g id="edge5_Node000003_Node000006" class="edge">
<title>Node3&#45;&gt;Node6</title>
<g id="a_edge5_Node000003_Node000006"><a xlink:title=" ">
<path fill="none" stroke="#63b8ff" d="M276.67,-54.98C240.95,-45.28 182.79,-29.47 146.27,-19.54"/>
<polygon fill="#63b8ff" stroke="#63b8ff" points="147.15,-16.16 136.59,-16.91 145.32,-22.91 147.15,-16.16"/>
</a>
</g>
</g>
<!-- Node3&#45;&gt;Node7 -->
<g id="edge6_Node000003_Node000007" class="edge">
<title>Node3&#45;&gt;Node7</title>
<g id="a_edge6_Node000003_Node000007"><a xlink:title=" ">
<path fill="none" stroke="#63b8ff" d="M337.72,-54.98C370.54,-45.58 423.31,-30.46 458.08,-20.51"/>
<polygon fill="#63b8ff" stroke="#63b8ff" points="459.16,-23.84 467.81,-17.72 457.23,-17.11 459.16,-23.84"/>
</a>
</g>
</g>
<!-- Node8 -->
<g id="Node000008" class="node">
<title>Node8</title>
<g id="a_Node000008"><a xlink:title=" ">
<polygon fill="#e0e0e0" stroke="#999999" points="338,-19 278,-19 278,0 338,0 338,-19"/>
<text text-anchor="middle" x="308" y="-7" font-family="Helvetica,sans-Serif" font-size="10.00">iostream</text>
</a>
</g>
</g>
<!-- Node3&#45;&gt;Node8 -->
<g id="edge7_Node000003_Node000008" class="edge">
<title>Node3&#45;&gt;Node8</title>
<g id="a_edge7_Node000003_Node000008"><a xlink:title=" ">
<path fill="none" stroke="#63b8ff" d="M308,-54.75C308,-47.8 308,-37.85 308,-29.13"/>
<polygon fill="#63b8ff" stroke="#63b8ff" points="311.5,-29.09 308,-19.09 304.5,-29.09 311.5,-29.09"/>
</a>
</g>
</g>
<!-- Node9&#45;&gt;Node3 -->
<g id="edge11_Node000009_Node000003" class="edge">
<title>Node9&#45;&gt;Node3</title>
<g id="a_edge11_Node000009_Node000003"><a xlink:title=" ">
<path fill="none" stroke="#63b8ff" d="M144.33,-109.98C177.49,-100.97 230,-86.7 266.56,-76.76"/>
<polygon fill="#63b8ff" stroke="#63b8ff" points="267.69,-80.08 276.42,-74.08 265.86,-73.33 267.69,-80.08"/>
</a>
</g>
</g>
<!-- Node9&#45;&gt;Node6 -->
<g id="edge13_Node000009_Node000006" class="edge">
<title>Node9&#45;&gt;Node6</title>
<g id="a_edge13_Node000009_Node000006"><a xlink:title=" ">
<path fill="none" stroke="#63b8ff" d="M113,-109.66C113,-92.17 113,-52.8 113,-29.27"/>
<polygon fill="#63b8ff" stroke="#63b8ff" points="116.5,-29.16 113,-19.16 109.5,-29.16 116.5,-29.16"/>
</a>
</g>
</g>
<!-- Node9&#45;&gt;Node7 -->
<g id="edge12_Node000009_Node000007" class="edge">
<title>Node9&#45;&gt;Node7</title>
<g id="a_edge12_Node000009_Node000007"><a xlink:title=" ">
<path fill="none" stroke="#63b8ff" d="M128.69,-109.94C154.35,-96.29 207.24,-69.65 255,-55 340.01,-28.93 367.11,-37.52 457.91,-19.07"/>
<polygon fill="#63b8ff" stroke="#63b8ff" points="458.72,-22.48 467.79,-17.01 457.29,-15.63 458.72,-22.48"/>
</a>
</g>
</g>
<!-- Node10&#45;&gt;Node3 -->
<g id="edge15_Node000010_Node000003" class="edge">
<title>Node10&#45;&gt;Node3</title>
<g id="a_edge15_Node000010_Node000003"><a xlink:title=" ">
<path fill="none" stroke="#63b8ff" d="M402.68,-274.92C353.98,-256.87 248.43,-209.82 207,-129 193.73,-103.11 225.43,-86.51 256.75,-76.81"/>
<polygon fill="#63b8ff" stroke="#63b8ff" points="257.77,-80.15 266.4,-74.01 255.82,-73.43 257.77,-80.15"/>
</a>
</g>
</g>
<!-- Node10&#45;&gt;Node6 -->
<g id="edge17_Node000010_Node000006" class="edge">
<title>Node10&#45;&gt;Node6</title>
<g id="a_edge17_Node000010_Node000006"><a xlink:title=" ">
<path fill="none" stroke="#63b8ff" d="M375.4,-279.96C268.95,-271.35 38,-244.7 38,-175.5 38,-175.5 38,-175.5 38,-118.5 38,-79.64 71.17,-44.7 93.39,-25.65"/>
<polygon fill="#63b8ff" stroke="#63b8ff" points="95.79,-28.22 101.28,-19.16 91.34,-22.81 95.79,-28.22"/>
</a>
</g>
</g>
<!-- Node10&#45;&gt;Node7 -->
<g id="edge16_Node000010_Node000007" class="edge">
<title>Node10&#45;&gt;Node7</title>
<g id="a_edge16_Node000010_Node000007"><a xlink:title=" ">
<path fill="none" stroke="#63b8ff" d="M480.68,-275.76C515.37,-269.23 561.04,-257.85 598,-239 659.31,-207.73 684.95,-194.2 707,-129 733.47,-50.72 596.06,-22.98 528.61,-14.17"/>
<polygon fill="#63b8ff" stroke="#63b8ff" points="528.77,-10.66 518.42,-12.92 527.91,-17.61 528.77,-10.66"/>
</a>
</g>
</g>
<!-- Node11 -->
<g id="Node000011" class="node">
<title>Node11</title>
<g id="a_Node000011"><a xlink:title=" ">
<polygon fill="#e0e0e0" stroke="#999999" points="698,-129 640,-129 640,-110 698,-110 698,-129"/>
<text text-anchor="middle" x="669" y="-117" font-family="Helvetica,sans-Serif" font-size="10.00">memory</text>
</a>
</g>
</g>
<!-- Node10&#45;&gt;Node11 -->
<g id="edge18_Node000010_Node000011" class="edge">
<title>Node10&#45;&gt;Node11</title>
<g id="a_edge18_Node000010_Node000011"><a xlink:title=" ">
<path fill="none" stroke="#63b8ff" d="M468.31,-274.9C516.53,-262.64 596.77,-235.65 645,-184 656.55,-171.63 662.69,-153.15 665.86,-139.32"/>
<polygon fill="#63b8ff" stroke="#63b8ff" points="669.31,-139.91 667.81,-129.42 662.45,-138.56 669.31,-139.91"/>
</a>
</g>
</g>
<!-- Node12 -->
<g id="Node000012" class="node">
<title>Node12</title>
<g id="a_Node000012"><a xlink:href="CCSDSSecondaryHeaderAbstract_8h.html" target="_top" xlink:title=" ">
<polygon fill="white" stroke="#666666" points="400.5,-129 215.5,-129 215.5,-110 400.5,-110 400.5,-129"/>
<text text-anchor="middle" x="308" y="-117" font-family="Helvetica,sans-Serif" font-size="10.00">CCSDSSecondaryHeaderAbstract.h</text>
</a>
</g>
</g>
<!-- Node10&#45;&gt;Node12 -->
<g id="edge19_Node000010_Node000012" class="edge">
<title>Node10&#45;&gt;Node12</title>
<g id="a_edge19_Node000010_Node000012"><a xlink:title=" ">
<path fill="none" stroke="#63b8ff" d="M416.08,-274.9C405.06,-266.57 388.67,-253.13 377,-239 350.33,-206.7 327.72,-162.82 316.19,-138.54"/>
<polygon fill="#63b8ff" stroke="#63b8ff" points="319.22,-136.74 311.83,-129.14 312.87,-139.69 319.22,-136.74"/>
</a>
</g>
</g>
<!-- Node13 -->
<g id="Node000013" class="node">
<title>Node13</title>
<g id="a_Node000013"><a xlink:href="CCSDSSecondaryHeaderFactory_8h.html" target="_top" xlink:title=" ">
<polygon fill="white" stroke="#666666" points="635.5,-184 456.5,-184 456.5,-165 635.5,-165 635.5,-184"/>
<text text-anchor="middle" x="546" y="-172" font-family="Helvetica,sans-Serif" font-size="10.00">CCSDSSecondaryHeaderFactory.h</text>
</a>
</g>
</g>
<!-- Node10&#45;&gt;Node13 -->
<g id="edge23_Node000010_Node000013" class="edge">
<title>Node10&#45;&gt;Node13</title>
<g id="a_edge23_Node000010_Node000013"><a xlink:title=" ">
<path fill="none" stroke="#63b8ff" d="M438.27,-274.76C448.65,-265.87 465.09,-251.65 479,-239 496.48,-223.11 516.04,-204.46 529.49,-191.5"/>
<polygon fill="#63b8ff" stroke="#63b8ff" points="532.25,-193.71 537.01,-184.25 527.38,-188.68 532.25,-193.71"/>
</a>
</g>
</g>
<!-- Node16 -->
<g id="Node000016" class="node">
<title>Node16</title>
<g id="a_Node000016"><a xlink:href="PusServices_8h.html" target="_top" xlink:title=" ">
<polygon fill="white" stroke="#666666" points="470,-239 386,-239 386,-220 470,-220 470,-239"/>
<text text-anchor="middle" x="428" y="-227" font-family="Helvetica,sans-Serif" font-size="10.00">PusServices.h</text>
</a>
</g>
</g>
<!-- Node10&#45;&gt;Node16 -->
<g id="edge29_Node000010_Node000016" class="edge">
<title>Node10&#45;&gt;Node16</title>
<g id="a_edge29_Node000010_Node000016"><a xlink:title=" ">
<path fill="none" stroke="#63b8ff" d="M428,-274.75C428,-267.8 428,-257.85 428,-249.13"/>
<polygon fill="#63b8ff" stroke="#63b8ff" points="431.5,-249.09 428,-239.09 424.5,-249.09 431.5,-249.09"/>
</a>
</g>
</g>
<!-- Node12&#45;&gt;Node3 -->
<g id="edge20_Node000012_Node000003" class="edge">
<title>Node12&#45;&gt;Node3</title>
<g id="a_edge20_Node000012_Node000003"><a xlink:title=" ">
<path fill="none" stroke="#63b8ff" d="M308,-109.75C308,-102.8 308,-92.85 308,-84.13"/>
<polygon fill="#63b8ff" stroke="#63b8ff" points="311.5,-84.09 308,-74.09 304.5,-84.09 311.5,-84.09"/>
</a>
</g>
</g>
<!-- Node12&#45;&gt;Node6 -->
<g id="edge21_Node000012_Node000006" class="edge">
<title>Node12&#45;&gt;Node6</title>
<g id="a_edge21_Node000012_Node000006"><a xlink:title=" ">
<path fill="none" stroke="#63b8ff" d="M292.37,-109.84C258.49,-91.08 178.04,-46.52 137.39,-24.01"/>
<polygon fill="#63b8ff" stroke="#63b8ff" points="138.88,-20.83 128.43,-19.05 135.48,-26.95 138.88,-20.83"/>
</a>
</g>
</g>
<!-- Node12&#45;&gt;Node7 -->
<g id="edge22_Node000012_Node000007" class="edge">
<title>Node12&#45;&gt;Node7</title>
<g id="a_edge22_Node000012_Node000007"><a xlink:title=" ">
<path fill="none" stroke="#63b8ff" d="M322.83,-109.84C354.84,-91.16 430.65,-46.9 469.37,-24.3"/>
<polygon fill="#63b8ff" stroke="#63b8ff" points="471.49,-27.11 478.36,-19.05 467.96,-21.07 471.49,-27.11"/>
</a>
</g>
</g>
<!-- Node13&#45;&gt;Node4 -->
<g id="edge25_Node000013_Node000004" class="edge">
<title>Node13&#45;&gt;Node4</title>
<g id="a_edge25_Node000013_Node000004"><a xlink:title=" ">
<path fill="none" stroke="#63b8ff" d="M560.56,-164.82C578.6,-152.92 605.5,-130.65 593,-110 563.1,-60.58 499.67,-34.52 454.33,-21.66"/>
<polygon fill="#63b8ff" stroke="#63b8ff" points="455.23,-18.27 444.66,-19.03 453.4,-25.03 455.23,-18.27"/>
</a>
</g>
</g>
<!-- Node13&#45;&gt;Node11 -->
<g id="edge24_Node000013_Node000011" class="edge">
<title>Node13&#45;&gt;Node11</title>
<g id="a_edge24_Node000013_Node000011"><a xlink:title=" ">
<path fill="none" stroke="#63b8ff" d="M565.76,-164.98C585.73,-156.38 616.8,-142.99 639.65,-133.15"/>
<polygon fill="#63b8ff" stroke="#63b8ff" points="641.08,-136.34 648.88,-129.17 638.31,-129.91 641.08,-136.34"/>
</a>
</g>
</g>
<!-- Node13&#45;&gt;Node12 -->
<g id="edge28_Node000013_Node000012" class="edge">
<title>Node13&#45;&gt;Node12</title>
<g id="a_edge28_Node000013_Node000012"><a xlink:title=" ">
<path fill="none" stroke="#63b8ff" d="M507.76,-164.98C466.59,-155.82 401.01,-141.21 356.3,-131.26"/>
<polygon fill="#63b8ff" stroke="#63b8ff" points="357.06,-127.84 346.54,-129.08 355.54,-134.67 357.06,-127.84"/>
</a>
</g>
</g>
<!-- Node14 -->
<g id="Node000014" class="node">
<title>Node14</title>
<g id="a_Node000014"><a xlink:title=" ">
<polygon fill="#e0e0e0" stroke="#999999" points="583.5,-129 518.5,-129 518.5,-110 583.5,-110 583.5,-129"/>
<text text-anchor="middle" x="551" y="-117" font-family="Helvetica,sans-Serif" font-size="10.00">functional</text>
</a>
</g>
</g>
<!-- Node13&#45;&gt;Node14 -->
<g id="edge26_Node000013_Node000014" class="edge">
<title>Node13&#45;&gt;Node14</title>
<g id="a_edge26_Node000013_Node000014"><a xlink:title=" ">
<path fill="none" stroke="#63b8ff" d="M546.83,-164.75C547.48,-157.8 548.42,-147.85 549.24,-139.13"/>
<polygon fill="#63b8ff" stroke="#63b8ff" points="552.73,-139.37 550.19,-129.09 545.77,-138.72 552.73,-139.37"/>
</a>
</g>
</g>
<!-- Node15 -->
<g id="Node000015" class="node">
<title>Node15</title>
<g id="a_Node000015"><a xlink:title=" ">
<polygon fill="#e0e0e0" stroke="#999999" points="500,-129 456,-129 456,-110 500,-110 500,-129"/>
<text text-anchor="middle" x="478" y="-117" font-family="Helvetica,sans-Serif" font-size="10.00">string</text>
</a>
</g>
</g>
<!-- Node13&#45;&gt;Node15 -->
<g id="edge27_Node000013_Node000015" class="edge">
<title>Node13&#45;&gt;Node15</title>
<g id="a_edge27_Node000013_Node000015"><a xlink:title=" ">
<path fill="none" stroke="#63b8ff" d="M535.07,-164.98C524.92,-157.07 509.58,-145.11 497.35,-135.58"/>
<polygon fill="#63b8ff" stroke="#63b8ff" points="499.16,-132.56 489.12,-129.17 494.86,-138.08 499.16,-132.56"/>
</a>
</g>
</g>
<!-- Node16&#45;&gt;Node3 -->
<g id="edge32_Node000016_Node000003" class="edge">
<title>Node16&#45;&gt;Node3</title>
<g id="a_edge32_Node000016_Node000003"><a xlink:title=" ">
<path fill="none" stroke="#63b8ff" d="M429.27,-219.99C431.94,-198.92 435.86,-143.66 410,-110 397.88,-94.22 379,-83.94 360.77,-77.28"/>
<polygon fill="#63b8ff" stroke="#63b8ff" points="361.63,-73.88 351.04,-74.03 359.41,-80.52 361.63,-73.88"/>
</a>
</g>
</g>
<!-- Node16&#45;&gt;Node12 -->
<g id="edge30_Node000016_Node000012" class="edge">
<title>Node16&#45;&gt;Node12</title>
<g id="a_edge30_Node000016_Node000012"><a xlink:title=" ">
<path fill="none" stroke="#63b8ff" d="M418.18,-219.66C397.77,-201.3 350.57,-158.81 325.07,-135.87"/>
<polygon fill="#63b8ff" stroke="#63b8ff" points="327.39,-133.25 317.62,-129.16 322.71,-138.45 327.39,-133.25"/>
</a>
</g>
</g>
<!-- Node16&#45;&gt;Node13 -->
<g id="edge31_Node000016_Node000013" class="edge">
<title>Node16&#45;&gt;Node13</title>
<g id="a_edge31_Node000016_Node000013"><a xlink:title=" ">
<path fill="none" stroke="#63b8ff" d="M446.96,-219.98C466.03,-211.42 495.66,-198.11 517.55,-188.28"/>
<polygon fill="#63b8ff" stroke="#63b8ff" points="519.01,-191.46 526.7,-184.17 516.14,-185.07 519.01,-191.46"/>
</a>
</g>
</g>
</g>
</svg>
