<?xml version="1.0" encoding="UTF-8" standalone="no"?>
<!DOCTYPE svg PUBLIC "-//W3C//DTD SVG 1.1//EN"
 "http://www.w3.org/Graphics/SVG/1.1/DTD/svg11.dtd">
<!-- Generated by graphviz version 2.43.0 (0)
 -->
<!-- Title: inc/CCSDSResult.h Pages: 1 -->
<!--zoomable 489 -->

<svg id="main" version="1.1" xmlns="http://www.w3.org/2000/svg" xmlns:xlink="http://www.w3.org/1999/xlink" xml:space="preserve" onload="init(evt)">
<style type="text/css"><![CDATA[
.node, .edge {opacity: 0.7;}
.node.selected, .edge.selected {opacity: 1;}
.edge:hover path { stroke: red; }
.edge:hover polygon { stroke: red; fill: red; }
]]></style>

<defs>
  <circle id="rim" cx="0" cy="0" r="7"/>
  <circle id="rim2" cx="0" cy="0" r="3.5"/>
  <g id="zoomPlus">
    <use xlink:href="#rim" fill="#404040"><set attributeName="fill" to="#808080" begin="zoomplus.mouseover" end="zoomplus.mouseout"/></use>
    <path d="M-4,0h8M0,-4v8" fill="none" stroke="white" stroke-width="1.5" pointer-events="none"/>
  </g>
  <g id="zoomMin">
    <use xlink:href="#rim" fill="#404040"><set attributeName="fill" to="#808080" begin="zoomminus.mouseover" end="zoomminus.mouseout"/></use>
    <path d="M-4,0h8" fill="none" stroke="white" stroke-width="1.5" pointer-events="none"/>
  </g>
  <g id="arrowUp" transform="translate(30 24)">
    <use xlink:href="#rim"/>
    <path pointer-events="none" fill="none" stroke="white" stroke-width="1.5" d="M0,-3.0v7 M-2.5,-0.5L0,-3.0L2.5,-0.5"/>
  </g>
  <g id="arrowRight" transform="rotate(90) translate(36 -43)">
    <use xlink:href="#rim"/>
    <path pointer-events="none" fill="none" stroke="white" stroke-width="1.5" d="M0,-3.0v7 M-2.5,-0.5L0,-3.0L2.5,-0.5"/>
  </g>
  <g id="arrowDown" transform="rotate(180) translate(-30 -48)">
    <use xlink:href="#rim"/>
    <path pointer-events="none" fill="none" stroke="white" stroke-width="1.5" d="M0,-3.0v7 M-2.5,-0.5L0,-3.0L2.5,-0.5"/>
  </g>
  <g id="arrowLeft" transform="rotate(270) translate(-36 17)">
    <use xlink:href="#rim"/>
    <path pointer-events="none" fill="none" stroke="white" stroke-width="1.5" d="M0,-3.0v7 M-2.5,-0.5L0,-3.0L2.5,-0.5"/>
  </g>
  <g id="resetDef">
    <use xlink:href="#rim2" fill="#404040"><set attributeName="fill" to="#808080" begin="reset.mouseover" end="reset.mouseout"/></use>
  </g>
</defs>
<script type="application/ecmascript">
var viewWidth = 870;
var viewHeight = 489;
var sectionId = 'dynsection-1';
</script>
<script type="application/ecmascript" xlink:href="svg.min.js"/>
<svg id="graph" class="graph">
<g id="viewport">
<title>inc/CCSDSResult.h</title>
<!-- Node1 -->
<g id="Node000001" class="node">
<title>Node1</title>
<g id="a_Node000001"><a xlink:title=" ">
<polygon fill="#999999" stroke="#666666" points="391.5,-481 284.5,-481 284.5,-462 391.5,-462 391.5,-481"/>
<text text-anchor="middle" x="338" y="-469" font-family="Helvetica,sans-Serif" font-size="10.00">inc/CCSDSResult.h</text>
</a>
</g>
</g>
<!-- Node2 -->
<g id="Node000002" class="node">
<title>Node2</title>
<g id="a_Node000002"><a xlink:href="CCSDSDataField_8h.html" target="_top" xlink:title=" ">
<polygon fill="white" stroke="#666666" points="303,-239 181,-239 181,-220 303,-220 303,-239"/>
<text text-anchor="middle" x="242" y="-227" font-family="Helvetica,sans-Serif" font-size="10.00">inc/CCSDSDataField.h</text>
</a>
</g>
</g>
<!-- Node1&#45;&gt;Node2 -->
<g id="edge1_Node000001_Node000002" class="edge">
<title>Node1&#45;&gt;Node2</title>
<g id="a_edge1_Node000001_Node000002"><a xlink:title=" ">
<path fill="none" stroke="#63b8ff" d="M334.75,-451.85C327.96,-415.98 310.2,-335.52 278,-275 270.72,-261.31 258.94,-247.78 250.85,-239.3"/>
<polygon fill="#63b8ff" stroke="#63b8ff" points="331.33,-452.64 336.57,-461.86 338.22,-451.39 331.33,-452.64"/>
</a>
</g>
</g>
<!-- Node3 -->
<g id="Node000003" class="node">
<title>Node3</title>
<g id="a_Node000003"><a xlink:href="CCSDSPacket_8h.html" target="_top" xlink:title=" ">
<polygon fill="white" stroke="#666666" points="423.5,-184 316.5,-184 316.5,-165 423.5,-165 423.5,-184"/>
<text text-anchor="middle" x="370" y="-172" font-family="Helvetica,sans-Serif" font-size="10.00">inc/CCSDSPacket.h</text>
</a>
</g>
</g>
<!-- Node1&#45;&gt;Node3 -->
<g id="edge22_Node000001_Node000003" class="edge">
<title>Node1&#45;&gt;Node3</title>
<g id="a_edge22_Node000001_Node000003"><a xlink:title=" ">
<path fill="none" stroke="#63b8ff" d="M342.65,-451.87C348.27,-427.65 357,-383.94 357,-346 357,-346 357,-346 357,-283.5 357,-246.3 364.7,-202.4 368.25,-184.14"/>
<polygon fill="#63b8ff" stroke="#63b8ff" points="339.19,-451.27 340.25,-461.81 346,-452.91 339.19,-451.27"/>
</a>
</g>
</g>
<!-- Node4 -->
<g id="Node000004" class="node">
<title>Node4</title>
<g id="a_Node000004"><a xlink:href="CCSDSManager_8h.html" target="_top" xlink:title=" ">
<polygon fill="white" stroke="#666666" points="862,-74 744,-74 744,-55 862,-55 862,-74"/>
<text text-anchor="middle" x="803" y="-62" font-family="Helvetica,sans-Serif" font-size="10.00">inc/CCSDSManager.h</text>
</a>
</g>
</g>
<!-- Node1&#45;&gt;Node4 -->
<g id="edge21_Node000001_Node000004" class="edge">
<title>Node1&#45;&gt;Node4</title>
<g id="a_edge21_Node000001_Node000004"><a xlink:title=" ">
<path fill="none" stroke="#63b8ff" d="M402.01,-464.54C517.77,-451.97 750,-417.81 750,-346 750,-346 750,-346 750,-173.5 750,-132.77 780.75,-91.43 795.41,-74.04"/>
<polygon fill="#63b8ff" stroke="#63b8ff" points="401.44,-461.08 391.86,-465.62 402.18,-468.04 401.44,-461.08"/>
</a>
</g>
</g>
<!-- Node13 -->
<g id="Node000013" class="node">
<title>Node13</title>
<g id="a_Node000013"><a xlink:href="CCSDSHeader_8h.html" target="_top" xlink:title=" ">
<polygon fill="white" stroke="#666666" points="495,-239 385,-239 385,-220 495,-220 495,-239"/>
<text text-anchor="middle" x="440" y="-227" font-family="Helvetica,sans-Serif" font-size="10.00">inc/CCSDSHeader.h</text>
</a>
</g>
</g>
<!-- Node1&#45;&gt;Node13 -->
<g id="edge18_Node000001_Node000013" class="edge">
<title>Node1&#45;&gt;Node13</title>
<g id="a_edge18_Node000001_Node000013"><a xlink:title=" ">
<path fill="none" stroke="#63b8ff" d="M352.11,-453.98C358.49,-445.92 365.76,-435.85 371,-426 407.16,-357.99 431.08,-267.07 437.96,-239.07"/>
<polygon fill="#63b8ff" stroke="#63b8ff" points="349.3,-451.88 345.67,-461.83 354.72,-456.32 349.3,-451.88"/>
</a>
</g>
</g>
<!-- Node14 -->
<g id="Node000014" class="node">
<title>Node14</title>
<g id="a_Node000014"><a xlink:href="CCSDSSecondaryHeaderAbstract_8h.html" target="_top" xlink:title=" ">
<polygon fill="white" stroke="#666666" points="271.5,-426 118.5,-426 118.5,-396 271.5,-396 271.5,-426"/>
<text text-anchor="start" x="126.5" y="-414" font-family="Helvetica,sans-Serif" font-size="10.00">inc/CCSDSSecondaryHeader</text>
<text text-anchor="middle" x="195" y="-403" font-family="Helvetica,sans-Serif" font-size="10.00">Abstract.h</text>
</a>
</g>
</g>
<!-- Node1&#45;&gt;Node14 -->
<g id="edge23_Node000001_Node000014" class="edge">
<title>Node1&#45;&gt;Node14</title>
<g id="a_edge23_Node000001_Node000014"><a xlink:title=" ">
<path fill="none" stroke="#63b8ff" d="M307.95,-458.21C285,-448.82 253.34,-435.87 229.38,-426.06"/>
<polygon fill="#63b8ff" stroke="#63b8ff" points="306.63,-461.45 317.21,-461.99 309.28,-454.97 306.63,-461.45"/>
</a>
</g>
</g>
<!-- Node16 -->
<g id="Node000016" class="node">
<title>Node16</title>
<g id="a_Node000016"><a xlink:href="PusServices_8h.html" target="_top" xlink:title=" ">
<polygon fill="white" stroke="#666666" points="121.5,-294 20.5,-294 20.5,-275 121.5,-275 121.5,-294"/>
<text text-anchor="middle" x="71" y="-282" font-family="Helvetica,sans-Serif" font-size="10.00">inc/PusServices.h</text>
</a>
</g>
</g>
<!-- Node1&#45;&gt;Node16 -->
<g id="edge32_Node000001_Node000016" class="edge">
<title>Node1&#45;&gt;Node16</title>
<g id="a_edge32_Node000001_Node000016"><a xlink:title=" ">
<path fill="none" stroke="#63b8ff" d="M274.17,-464.14C215.85,-457.27 134.89,-444.72 109,-426 81.75,-406.3 80.72,-392.48 72,-360 65.83,-337.01 68.01,-308.58 69.73,-294.41"/>
<polygon fill="#63b8ff" stroke="#63b8ff" points="274.08,-467.65 284.41,-465.32 274.88,-460.7 274.08,-467.65"/>
</a>
</g>
</g>
<!-- Node2&#45;&gt;Node3 -->
<g id="edge2_Node000002_Node000003" class="edge">
<title>Node2&#45;&gt;Node3</title>
<g id="a_edge2_Node000002_Node000003"><a xlink:title=" ">
<path fill="none" stroke="#63b8ff" d="M272.12,-216.03C295.79,-206.23 328.15,-192.83 349.06,-184.17"/>
<polygon fill="#63b8ff" stroke="#63b8ff" points="270.47,-212.93 262.57,-219.98 273.14,-219.39 270.47,-212.93"/>
</a>
</g>
</g>
<!-- Node7 -->
<g id="Node000007" class="node">
<title>Node7</title>
<g id="a_Node000007"><a xlink:href="CCSDSDataField_8cpp.html" target="_top" xlink:title=" ">
<polygon fill="white" stroke="#666666" points="134,-74 0,-74 0,-55 134,-55 134,-74"/>
<text text-anchor="middle" x="67" y="-62" font-family="Helvetica,sans-Serif" font-size="10.00">src/CCSDSDataField.cpp</text>
</a>
</g>
</g>
<!-- Node2&#45;&gt;Node7 -->
<g id="edge16_Node000002_Node000007" class="edge">
<title>Node2&#45;&gt;Node7</title>
<g id="a_edge16_Node000002_Node000007"><a xlink:title=" ">
<path fill="none" stroke="#63b8ff" d="M234.58,-210.31C223.37,-184.82 199.88,-138.41 167,-110 147.01,-92.73 119.25,-81.1 98.05,-74.07"/>
<polygon fill="#63b8ff" stroke="#63b8ff" points="231.5,-212 238.63,-219.84 237.94,-209.27 231.5,-212"/>
</a>
</g>
</g>
<!-- Node9 -->
<g id="Node000009" class="node">
<title>Node9</title>
<g id="a_Node000009"><a xlink:href="CCSDSPacket_8cpp.html" target="_top" xlink:title=" ">
<polygon fill="white" stroke="#666666" points="271.5,-74 152.5,-74 152.5,-55 271.5,-55 271.5,-74"/>
<text text-anchor="middle" x="212" y="-62" font-family="Helvetica,sans-Serif" font-size="10.00">src/CCSDSPacket.cpp</text>
</a>
</g>
</g>
<!-- Node2&#45;&gt;Node9 -->
<g id="edge17_Node000002_Node000009" class="edge">
<title>Node2&#45;&gt;Node9</title>
<g id="a_edge17_Node000002_Node000009"><a xlink:title=" ">
<path fill="none" stroke="#63b8ff" d="M238.56,-209.83C232.09,-174.67 218.33,-99.9 213.62,-74.31"/>
<polygon fill="#63b8ff" stroke="#63b8ff" points="235.13,-210.54 240.39,-219.74 242.02,-209.27 235.13,-210.54"/>
</a>
</g>
</g>
<!-- Node3&#45;&gt;Node4 -->
<g id="edge3_Node000003_Node000004" class="edge">
<title>Node3&#45;&gt;Node4</title>
<g id="a_edge3_Node000003_Node000004"><a xlink:title=" ">
<path fill="none" stroke="#63b8ff" d="M428.84,-163.09C473.33,-154.86 535.81,-142.53 590,-129 658.14,-111.99 737.05,-87.07 776.98,-74.09"/>
<polygon fill="#63b8ff" stroke="#63b8ff" points="427.98,-159.69 418.78,-164.94 429.25,-166.57 427.98,-159.69"/>
</a>
</g>
</g>
<!-- Node6 -->
<g id="Node000006" class="node">
<title>Node6</title>
<g id="a_Node000006"><a xlink:href="CCSDSUtils_8h.html" target="_top" xlink:title=" ">
<polygon fill="white" stroke="#666666" points="419,-129 321,-129 321,-110 419,-110 419,-129"/>
<text text-anchor="middle" x="370" y="-117" font-family="Helvetica,sans-Serif" font-size="10.00">inc/CCSDSUtils.h</text>
</a>
</g>
</g>
<!-- Node3&#45;&gt;Node6 -->
<g id="edge5_Node000003_Node000006" class="edge">
<title>Node3&#45;&gt;Node6</title>
<g id="a_edge5_Node000003_Node000006"><a xlink:title=" ">
<path fill="none" stroke="#63b8ff" d="M370,-154.66C370,-145.93 370,-135.99 370,-129.09"/>
<polygon fill="#63b8ff" stroke="#63b8ff" points="366.5,-154.75 370,-164.75 373.5,-154.75 366.5,-154.75"/>
</a>
</g>
</g>
<!-- Node3&#45;&gt;Node9 -->
<g id="edge15_Node000003_Node000009" class="edge">
<title>Node3&#45;&gt;Node9</title>
<g id="a_edge15_Node000003_Node000009"><a xlink:title=" ">
<path fill="none" stroke="#63b8ff" d="M348.8,-159.01C315.46,-136.22 251.82,-92.72 224.72,-74.2"/>
<polygon fill="#63b8ff" stroke="#63b8ff" points="347.11,-162.09 357.34,-164.84 351.06,-156.31 347.11,-162.09"/>
</a>
</g>
</g>
<!-- Node12 -->
<g id="Node000012" class="node">
<title>Node12</title>
<g id="a_Node000012"><a xlink:href="CCSDSValidator_8h.html" target="_top" xlink:title="Defines the Validator class for CCSDS packet validation.">
<polygon fill="white" stroke="#666666" points="580.5,-129 461.5,-129 461.5,-110 580.5,-110 580.5,-129"/>
<text text-anchor="middle" x="521" y="-117" font-family="Helvetica,sans-Serif" font-size="10.00">inc/CCSDSValidator.h</text>
</a>
</g>
</g>
<!-- Node3&#45;&gt;Node12 -->
<g id="edge12_Node000003_Node000012" class="edge">
<title>Node3&#45;&gt;Node12</title>
<g id="a_edge12_Node000003_Node000012"><a xlink:title=" ">
<path fill="none" stroke="#63b8ff" d="M404.05,-161.55C432.09,-151.71 471.18,-137.98 496.3,-129.17"/>
<polygon fill="#63b8ff" stroke="#63b8ff" points="402.54,-158.37 394.26,-164.98 404.86,-164.98 402.54,-158.37"/>
</a>
</g>
</g>
<!-- Node5 -->
<g id="Node000005" class="node">
<title>Node5</title>
<g id="a_Node000005"><a xlink:href="CCSDSManager_8cpp.html" target="_top" xlink:title=" ">
<polygon fill="white" stroke="#666666" points="615.5,-19 486.5,-19 486.5,0 615.5,0 615.5,-19"/>
<text text-anchor="middle" x="551" y="-7" font-family="Helvetica,sans-Serif" font-size="10.00">src/CCSDSManager.cpp</text>
</a>
</g>
</g>
<!-- Node4&#45;&gt;Node5 -->
<g id="edge4_Node000004_Node000005" class="edge">
<title>Node4&#45;&gt;Node5</title>
<g id="a_edge4_Node000004_Node000005"><a xlink:title=" ">
<path fill="none" stroke="#63b8ff" d="M752.5,-52.88C705.26,-42.94 635.61,-28.3 591.81,-19.08"/>
<polygon fill="#63b8ff" stroke="#63b8ff" points="752.01,-56.35 762.51,-54.98 753.45,-49.5 752.01,-56.35"/>
</a>
</g>
</g>
<!-- Node6&#45;&gt;Node5 -->
<g id="edge8_Node000006_Node000005" class="edge">
<title>Node6&#45;&gt;Node5</title>
<g id="a_edge8_Node000006_Node000005"><a xlink:title=" ">
<path fill="none" stroke="#63b8ff" d="M345.69,-104.38C326.5,-91.45 305.1,-71.82 319,-55 339.9,-29.71 425.3,-18.65 486.41,-13.91"/>
<polygon fill="#63b8ff" stroke="#63b8ff" points="343.9,-107.39 354.22,-109.81 347.67,-101.48 343.9,-107.39"/>
</a>
</g>
</g>
<!-- Node6&#45;&gt;Node7 -->
<g id="edge6_Node000006_Node000007" class="edge">
<title>Node6&#45;&gt;Node7</title>
<g id="a_edge6_Node000006_Node000007"><a xlink:title=" ">
<path fill="none" stroke="#63b8ff" d="M311.39,-108.25C254.49,-98.3 169.13,-83.36 115.81,-74.04"/>
<polygon fill="#63b8ff" stroke="#63b8ff" points="310.86,-111.71 321.32,-109.98 312.07,-104.81 310.86,-111.71"/>
</a>
</g>
</g>
<!-- Node8 -->
<g id="Node000008" class="node">
<title>Node8</title>
<g id="a_Node000008"><a xlink:href="CCSDSHeader_8cpp.html" target="_top" xlink:title=" ">
<polygon fill="white" stroke="#666666" points="726,-74 604,-74 604,-55 726,-55 726,-74"/>
<text text-anchor="middle" x="665" y="-62" font-family="Helvetica,sans-Serif" font-size="10.00">src/CCSDSHeader.cpp</text>
</a>
</g>
</g>
<!-- Node6&#45;&gt;Node8 -->
<g id="edge7_Node000006_Node000008" class="edge">
<title>Node6&#45;&gt;Node8</title>
<g id="a_edge7_Node000006_Node000008"><a xlink:title=" ">
<path fill="none" stroke="#63b8ff" d="M427.39,-108.19C482.7,-98.25 565.41,-83.39 617.23,-74.08"/>
<polygon fill="#63b8ff" stroke="#63b8ff" points="426.62,-104.77 417.4,-109.98 427.86,-111.66 426.62,-104.77"/>
</a>
</g>
</g>
<!-- Node6&#45;&gt;Node9 -->
<g id="edge9_Node000006_Node000009" class="edge">
<title>Node6&#45;&gt;Node9</title>
<g id="a_edge9_Node000006_Node000009"><a xlink:title=" ">
<path fill="none" stroke="#63b8ff" d="M335.12,-106.8C305.63,-96.91 264.07,-82.97 237.58,-74.08"/>
<polygon fill="#63b8ff" stroke="#63b8ff" points="334.02,-110.12 344.61,-109.98 336.25,-103.49 334.02,-110.12"/>
</a>
</g>
</g>
<!-- Node10 -->
<g id="Node000010" class="node">
<title>Node10</title>
<g id="a_Node000010"><a xlink:href="CCSDSUtils_8cpp.html" target="_top" xlink:title=" ">
<polygon fill="white" stroke="#666666" points="438,-74 328,-74 328,-55 438,-55 438,-74"/>
<text text-anchor="middle" x="383" y="-62" font-family="Helvetica,sans-Serif" font-size="10.00">src/CCSDSUtils.cpp</text>
</a>
</g>
</g>
<!-- Node6&#45;&gt;Node10 -->
<g id="edge10_Node000006_Node000010" class="edge">
<title>Node6&#45;&gt;Node10</title>
<g id="a_edge10_Node000006_Node000010"><a xlink:title=" ">
<path fill="none" stroke="#63b8ff" d="M374.55,-99.95C376.71,-91.15 379.18,-81.06 380.89,-74.09"/>
<polygon fill="#63b8ff" stroke="#63b8ff" points="371.13,-99.2 372.15,-109.75 377.93,-100.87 371.13,-99.2"/>
</a>
</g>
</g>
<!-- Node11 -->
<g id="Node000011" class="node">
<title>Node11</title>
<g id="a_Node000011"><a xlink:href="CCSDSValidator_8cpp.html" target="_top" xlink:title=" ">
<polygon fill="white" stroke="#666666" points="586,-74 456,-74 456,-55 586,-55 586,-74"/>
<text text-anchor="middle" x="521" y="-62" font-family="Helvetica,sans-Serif" font-size="10.00">src/CCSDSValidator.cpp</text>
</a>
</g>
</g>
<!-- Node6&#45;&gt;Node11 -->
<g id="edge11_Node000006_Node000011" class="edge">
<title>Node6&#45;&gt;Node11</title>
<g id="a_edge11_Node000006_Node000011"><a xlink:title=" ">
<path fill="none" stroke="#63b8ff" d="M404.05,-106.55C432.09,-96.71 471.18,-82.98 496.3,-74.17"/>
<polygon fill="#63b8ff" stroke="#63b8ff" points="402.54,-103.37 394.26,-109.98 404.86,-109.98 402.54,-103.37"/>
</a>
</g>
</g>
<!-- Node12&#45;&gt;Node4 -->
<g id="edge13_Node000012_Node000004" class="edge">
<title>Node12&#45;&gt;Node4</title>
<g id="a_edge13_Node000012_Node000004"><a xlink:title=" ">
<path fill="none" stroke="#63b8ff" d="M576.19,-108.13C629.06,-98.19 707.9,-83.37 757.34,-74.08"/>
<polygon fill="#63b8ff" stroke="#63b8ff" points="575.49,-104.7 566.31,-109.98 576.78,-111.58 575.49,-104.7"/>
</a>
</g>
</g>
<!-- Node12&#45;&gt;Node11 -->
<g id="edge14_Node000012_Node000011" class="edge">
<title>Node12&#45;&gt;Node11</title>
<g id="a_edge14_Node000012_Node000011"><a xlink:title=" ">
<path fill="none" stroke="#63b8ff" d="M521,-99.66C521,-90.93 521,-80.99 521,-74.09"/>
<polygon fill="#63b8ff" stroke="#63b8ff" points="517.5,-99.75 521,-109.75 524.5,-99.75 517.5,-99.75"/>
</a>
</g>
</g>
<!-- Node13&#45;&gt;Node3 -->
<g id="edge19_Node000013_Node000003" class="edge">
<title>Node13&#45;&gt;Node3</title>
<g id="a_edge19_Node000013_Node000003"><a xlink:title=" ">
<path fill="none" stroke="#63b8ff" d="M420.69,-213.88C408.09,-204.34 392.07,-192.21 381.45,-184.17"/>
<polygon fill="#63b8ff" stroke="#63b8ff" points="418.67,-216.74 428.75,-219.98 422.89,-211.16 418.67,-216.74"/>
</a>
</g>
</g>
<!-- Node13&#45;&gt;Node8 -->
<g id="edge20_Node000013_Node000008" class="edge">
<title>Node13&#45;&gt;Node8</title>
<g id="a_edge20_Node000013_Node000008"><a xlink:title=" ">
<path fill="none" stroke="#63b8ff" d="M462.85,-214.51C492.76,-195.94 546.48,-161.68 590,-129 614.56,-110.56 641.66,-86.66 655.59,-74.09"/>
<polygon fill="#63b8ff" stroke="#63b8ff" points="460.69,-211.73 454.02,-219.97 464.37,-217.69 460.69,-211.73"/>
</a>
</g>
</g>
<!-- Node14&#45;&gt;Node2 -->
<g id="edge24_Node000014_Node000002" class="edge">
<title>Node14&#45;&gt;Node2</title>
<g id="a_edge24_Node000014_Node000002"><a xlink:title=" ">
<path fill="none" stroke="#63b8ff" d="M232.77,-390.41C243.95,-382.57 254.83,-372.41 261,-360 281.63,-318.49 257.32,-260.9 246.59,-239.22"/>
<polygon fill="#63b8ff" stroke="#63b8ff" points="230.72,-387.56 224.25,-395.95 234.54,-393.43 230.72,-387.56"/>
</a>
</g>
</g>
<!-- Node15 -->
<g id="Node000015" class="node">
<title>Node15</title>
<g id="a_Node000015"><a xlink:href="CCSDSSecondaryHeaderFactory_8h.html" target="_top" xlink:title=" ">
<polygon fill="white" stroke="#666666" points="252.5,-360 99.5,-360 99.5,-330 252.5,-330 252.5,-360"/>
<text text-anchor="start" x="107.5" y="-348" font-family="Helvetica,sans-Serif" font-size="10.00">inc/CCSDSSecondaryHeader</text>
<text text-anchor="middle" x="176" y="-337" font-family="Helvetica,sans-Serif" font-size="10.00">Factory.h</text>
</a>
</g>
</g>
<!-- Node14&#45;&gt;Node15 -->
<g id="edge25_Node000014_Node000015" class="edge">
<title>Node14&#45;&gt;Node15</title>
<g id="a_edge25_Node000014_Node000015"><a xlink:title=" ">
<path fill="none" stroke="#63b8ff" d="M187.91,-386.11C185.31,-377.38 182.47,-367.78 180.2,-360.16"/>
<polygon fill="#63b8ff" stroke="#63b8ff" points="184.58,-387.21 190.78,-395.8 191.29,-385.21 184.58,-387.21"/>
</a>
</g>
</g>
<!-- Node14&#45;&gt;Node16 -->
<g id="edge31_Node000014_Node000016" class="edge">
<title>Node14&#45;&gt;Node16</title>
<g id="a_edge31_Node000014_Node000016"><a xlink:title=" ">
<path fill="none" stroke="#63b8ff" d="M134.29,-391.87C117.89,-384.35 101.52,-374.02 90,-360 74.06,-340.61 71.29,-309.52 70.94,-294.37"/>
<polygon fill="#63b8ff" stroke="#63b8ff" points="133.34,-395.27 143.91,-395.97 136.08,-388.83 133.34,-395.27"/>
</a>
</g>
</g>
<!-- Node15&#45;&gt;Node2 -->
<g id="edge26_Node000015_Node000002" class="edge">
<title>Node15&#45;&gt;Node2</title>
<g id="a_edge26_Node000015_Node000002"><a xlink:title=" ">
<path fill="none" stroke="#63b8ff" d="M189.55,-320.7C204.23,-295.45 226.89,-256.48 236.92,-239.23"/>
<polygon fill="#63b8ff" stroke="#63b8ff" points="186.36,-319.22 184.36,-329.63 192.41,-322.74 186.36,-319.22"/>
</a>
</g>
</g>
<!-- Node15&#45;&gt;Node7 -->
<g id="edge30_Node000015_Node000007" class="edge">
<title>Node15&#45;&gt;Node7</title>
<g id="a_edge30_Node000015_Node000007"><a xlink:title=" ">
<path fill="none" stroke="#63b8ff" d="M168.25,-320.04C161.57,-297.27 153,-261.92 153,-230.5 153,-230.5 153,-230.5 153,-173.5 153,-127.96 105.63,-90.53 81.2,-74.25"/>
<polygon fill="#63b8ff" stroke="#63b8ff" points="164.97,-321.31 171.23,-329.85 171.67,-319.27 164.97,-321.31"/>
</a>
</g>
</g>
<!-- Node15&#45;&gt;Node16 -->
<g id="edge27_Node000015_Node000016" class="edge">
<title>Node15&#45;&gt;Node16</title>
<g id="a_edge27_Node000015_Node000016"><a xlink:title=" ">
<path fill="none" stroke="#63b8ff" d="M142.02,-325.07C123.33,-314.66 101.06,-302.25 86.51,-294.14"/>
<polygon fill="#63b8ff" stroke="#63b8ff" points="140.41,-328.18 150.85,-329.99 143.82,-322.06 140.41,-328.18"/>
</a>
</g>
</g>
<!-- Node16&#45;&gt;Node2 -->
<g id="edge28_Node000016_Node000002" class="edge">
<title>Node16&#45;&gt;Node2</title>
<g id="a_edge28_Node000016_Node000002"><a xlink:title=" ">
<path fill="none" stroke="#63b8ff" d="M108.34,-271.93C140.28,-262.03 185.52,-248.01 214.31,-239.08"/>
<polygon fill="#63b8ff" stroke="#63b8ff" points="106.99,-268.68 98.47,-274.98 109.06,-275.37 106.99,-268.68"/>
</a>
</g>
</g>
<!-- Node17 -->
<g id="Node000017" class="node">
<title>Node17</title>
<g id="a_Node000017"><a xlink:href="PusServices_8cpp.html" target="_top" xlink:title=" ">
<polygon fill="white" stroke="#666666" points="124.5,-239 11.5,-239 11.5,-220 124.5,-220 124.5,-239"/>
<text text-anchor="middle" x="68" y="-227" font-family="Helvetica,sans-Serif" font-size="10.00">src/PusServices.cpp</text>
</a>
</g>
</g>
<!-- Node16&#45;&gt;Node17 -->
<g id="edge29_Node000016_Node000017" class="edge">
<title>Node16&#45;&gt;Node17</title>
<g id="a_edge29_Node000016_Node000017"><a xlink:title=" ">
<path fill="none" stroke="#63b8ff" d="M69.93,-264.66C69.44,-255.93 68.88,-245.99 68.49,-239.09"/>
<polygon fill="#63b8ff" stroke="#63b8ff" points="66.44,-264.96 70.5,-274.75 73.43,-264.57 66.44,-264.96"/>
</a>
</g>
</g>
</g>
</svg>

<g id="navigator" transform="translate(0 0)" fill="#404254">
  <rect fill="#f2f5e9" fill-opacity="0.5" stroke="#606060" stroke-width=".5" x="0" y="0" width="60" height="60"/>
  <use id="zoomplus" xlink:href="#zoomPlus" x="17" y="9" onmousedown="handleZoom(evt,'in')"/>
  <use id="zoomminus" xlink:href="#zoomMin" x="42" y="9" onmousedown="handleZoom(evt,'out')"/>
  <use id="reset" xlink:href="#resetDef" x="30" y="36" onmousedown="handleReset()"/>
   <use id="arrowup" xlink:href="#arrowUp" x="0" y="0" onmousedown="handlePan(0,-1)"/>
  <use id="arrowright" xlink:href="#arrowRight" x="0" y="0" onmousedown="handlePan(1,0)"/>
  <use id="arrowdown" xlink:href="#arrowDown" x="0" y="0" onmousedown="handlePan(0,1)"/>
  <use id="arrowleft" xlink:href="#arrowLeft" x="0" y="0" onmousedown="handlePan(-1,0)"/>
</g>
<svg viewBox="0 0 15 15" width="100%" height="30px" preserveAspectRatio="xMaxYMin meet">
 <g id="arrow_out" transform="scale(0.3 0.3)">
  <a xlink:href="CCSDSResult_8h__dep__incl_org.svg" target="_base">
   <rect id="button" ry="5" rx="5" y="6" x="6" height="38" width="38"
        fill="#f2f5e9" fill-opacity="0.5" stroke="#606060" stroke-width="1.0"/>
   <path id="arrow"
     d="M 11.500037,31.436501 C 11.940474,20.09759 22.043105,11.32322 32.158766,21.979434 L 37.068811,17.246167 C 37.068811,17.246167 37.088388,32 37.088388,32 L 22.160133,31.978069 C 22.160133,31.978069 26.997745,27.140456 26.997745,27.140456 C 18.528582,18.264221 13.291696,25.230495 11.500037,31.436501 z"
     style="fill:#404040;"/>
  </a>
 </g>
</svg>

<style type='text/css'>
<![CDATA[
[data-mouse-over-selected='false'] { opacity: 0.7; }
[data-mouse-over-selected='true']  { opacity: 1.0; }
]]>
</style>
<script type="application/ecmascript"><![CDATA[
document.addEventListener('DOMContentLoaded', (event) => {
  highlightEdges();
  highlightAdjacentNodes();
});
]]></script>
</svg>
