<?xml version="1.0" encoding="UTF-8" standalone="no"?>
<!DOCTYPE svg PUBLIC "-//W3C//DTD SVG 1.1//EN"
 "http://www.w3.org/Graphics/SVG/1.1/DTD/svg11.dtd">
<!-- Generated by graphviz version 2.43.0 (0)
 -->
<!-- Title: src/CCSDSDataField.cpp Pages: 1 -->
<!--zoomable 467 -->

<svg id="main" version="1.1" xmlns="http://www.w3.org/2000/svg" xmlns:xlink="http://www.w3.org/1999/xlink" xml:space="preserve" onload="init(evt)">
<style type="text/css"><![CDATA[
.node, .edge {opacity: 0.7;}
.node.selected, .edge.selected {opacity: 1;}
.edge:hover path { stroke: red; }
.edge:hover polygon { stroke: red; fill: red; }
]]></style>

<defs>
  <circle id="rim" cx="0" cy="0" r="7"/>
  <circle id="rim2" cx="0" cy="0" r="3.5"/>
  <g id="zoomPlus">
    <use xlink:href="#rim" fill="#404040"><set attributeName="fill" to="#808080" begin="zoomplus.mouseover" end="zoomplus.mouseout"/></use>
    <path d="M-4,0h8M0,-4v8" fill="none" stroke="white" stroke-width="1.5" pointer-events="none"/>
  </g>
  <g id="zoomMin">
    <use xlink:href="#rim" fill="#404040"><set attributeName="fill" to="#808080" begin="zoomminus.mouseover" end="zoomminus.mouseout"/></use>
    <path d="M-4,0h8" fill="none" stroke="white" stroke-width="1.5" pointer-events="none"/>
  </g>
  <g id="arrowUp" transform="translate(30 24)">
    <use xlink:href="#rim"/>
    <path pointer-events="none" fill="none" stroke="white" stroke-width="1.5" d="M0,-3.0v7 M-2.5,-0.5L0,-3.0L2.5,-0.5"/>
  </g>
  <g id="arrowRight" transform="rotate(90) translate(36 -43)">
    <use xlink:href="#rim"/>
    <path pointer-events="none" fill="none" stroke="white" stroke-width="1.5" d="M0,-3.0v7 M-2.5,-0.5L0,-3.0L2.5,-0.5"/>
  </g>
  <g id="arrowDown" transform="rotate(180) translate(-30 -48)">
    <use xlink:href="#rim"/>
    <path pointer-events="none" fill="none" stroke="white" stroke-width="1.5" d="M0,-3.0v7 M-2.5,-0.5L0,-3.0L2.5,-0.5"/>
  </g>
  <g id="arrowLeft" transform="rotate(270) translate(-36 17)">
    <use xlink:href="#rim"/>
    <path pointer-events="none" fill="none" stroke="white" stroke-width="1.5" d="M0,-3.0v7 M-2.5,-0.5L0,-3.0L2.5,-0.5"/>
  </g>
  <g id="resetDef">
    <use xlink:href="#rim2" fill="#404040"><set attributeName="fill" to="#808080" begin="reset.mouseover" end="reset.mouseout"/></use>
  </g>
</defs>
<script type="application/ecmascript">
var viewWidth = 999;
var viewHeight = 467;
var sectionId = 'dynsection-0';
</script>
<script type="application/ecmascript" xlink:href="svg.min.js"/>
<svg id="graph" class="graph">
<g id="viewport">
<title>src/CCSDSDataField.cpp</title>
<!-- Node1 -->
<g id="Node000001" class="node">
<title>Node1</title>
<g id="a_Node000001"><a xlink:title=" ">
<polygon fill="#999999" stroke="#666666" points="679,-459 545,-459 545,-440 679,-440 679,-459"/>
<text text-anchor="middle" x="612" y="-447" font-family="Helvetica,sans-Serif" font-size="10.00">src/CCSDSDataField.cpp</text>
</a>
</g>
</g>
<!-- Node2 -->
<g id="Node000002" class="node">
<title>Node2</title>
<g id="a_Node000002"><a xlink:href="CCSDSDataField_8h.html" target="_top" xlink:title=" ">
<polygon fill="white" stroke="#666666" points="579.5,-294 474.5,-294 474.5,-275 579.5,-275 579.5,-294"/>
<text text-anchor="middle" x="527" y="-282" font-family="Helvetica,sans-Serif" font-size="10.00">CCSDSDataField.h</text>
</a>
</g>
</g>
<!-- Node1&#45;&gt;Node2 -->
<g id="edge1_Node000001_Node000002" class="edge">
<title>Node1&#45;&gt;Node2</title>
<g id="a_edge1_Node000001_Node000002"><a xlink:title=" ">
<path fill="none" stroke="#63b8ff" d="M598.63,-439.82C587.32,-431.81 571.46,-418.91 562,-404 541.96,-372.41 532.98,-328.87 529.29,-304.32"/>
<polygon fill="#63b8ff" stroke="#63b8ff" points="532.73,-303.65 527.92,-294.21 525.8,-304.59 532.73,-303.65"/>
</a>
</g>
</g>
<!-- Node8 -->
<g id="Node000008" class="node">
<title>Node8</title>
<g id="a_Node000008"><a xlink:title=" ">
<polygon fill="#e0e0e0" stroke="#999999" points="926,-19 866,-19 866,0 926,0 926,-19"/>
<text text-anchor="middle" x="896" y="-7" font-family="Helvetica,sans-Serif" font-size="10.00">iostream</text>
</a>
</g>
</g>
<!-- Node1&#45;&gt;Node8 -->
<g id="edge39_Node000001_Node000008" class="edge">
<title>Node1&#45;&gt;Node8</title>
<g id="a_edge39_Node000001_Node000008"><a xlink:title=" ">
<path fill="none" stroke="#63b8ff" d="M670.45,-440C759.01,-425.45 917,-392.25 917,-340.5 917,-340.5 917,-340.5 917,-118.5 917,-86.46 907.98,-50.03 901.77,-28.73"/>
<polygon fill="#63b8ff" stroke="#63b8ff" points="905.09,-27.62 898.83,-19.07 898.39,-29.65 905.09,-27.62"/>
</a>
</g>
</g>
<!-- Node11 -->
<g id="Node000011" class="node">
<title>Node11</title>
<g id="a_Node000011"><a xlink:href="CCSDSSecondaryHeaderFactory_8h.html" target="_top" xlink:title=" ">
<polygon fill="white" stroke="#666666" points="342.5,-184 163.5,-184 163.5,-165 342.5,-165 342.5,-184"/>
<text text-anchor="middle" x="253" y="-172" font-family="Helvetica,sans-Serif" font-size="10.00">CCSDSSecondaryHeaderFactory.h</text>
</a>
</g>
</g>
<!-- Node1&#45;&gt;Node11 -->
<g id="edge25_Node000001_Node000011" class="edge">
<title>Node1&#45;&gt;Node11</title>
<g id="a_edge25_Node000001_Node000011"><a xlink:title=" ">
<path fill="none" stroke="#63b8ff" d="M599.11,-439.83C586.09,-430.99 565.45,-416.81 548,-404 441.55,-325.84 317.56,-227.26 271.48,-190.35"/>
<polygon fill="#63b8ff" stroke="#63b8ff" points="273.55,-187.53 263.56,-184 269.18,-192.99 273.55,-187.53"/>
</a>
</g>
</g>
<!-- Node15 -->
<g id="Node000015" class="node">
<title>Node15</title>
<g id="a_Node000015"><a xlink:href="CCSDSUtils_8h.html" target="_top" xlink:title=" ">
<polygon fill="white" stroke="#666666" points="652.5,-404 571.5,-404 571.5,-385 652.5,-385 652.5,-404"/>
<text text-anchor="middle" x="612" y="-392" font-family="Helvetica,sans-Serif" font-size="10.00">CCSDSUtils.h</text>
</a>
</g>
</g>
<!-- Node1&#45;&gt;Node15 -->
<g id="edge26_Node000001_Node000015" class="edge">
<title>Node1&#45;&gt;Node15</title>
<g id="a_edge26_Node000001_Node000015"><a xlink:title=" ">
<path fill="none" stroke="#63b8ff" d="M612,-439.75C612,-432.8 612,-422.85 612,-414.13"/>
<polygon fill="#63b8ff" stroke="#63b8ff" points="615.5,-414.09 612,-404.09 608.5,-414.09 615.5,-414.09"/>
</a>
</g>
</g>
<!-- Node18 -->
<g id="Node000018" class="node">
<title>Node18</title>
<g id="a_Node000018"><a xlink:title=" ">
<polygon fill="#e0e0e0" stroke="#999999" points="990.5,-404 945.5,-404 945.5,-385 990.5,-385 990.5,-404"/>
<text text-anchor="middle" x="968" y="-392" font-family="Helvetica,sans-Serif" font-size="10.00">utility</text>
</a>
</g>
</g>
<!-- Node1&#45;&gt;Node18 -->
<g id="edge40_Node000001_Node000018" class="edge">
<title>Node1&#45;&gt;Node18</title>
<g id="a_edge40_Node000001_Node000018"><a xlink:title=" ">
<path fill="none" stroke="#63b8ff" d="M679.18,-440.86C743.92,-433.08 844.52,-419.93 931,-404 932.46,-403.73 933.95,-403.44 935.45,-403.14"/>
<polygon fill="#63b8ff" stroke="#63b8ff" points="936.32,-406.54 945.37,-401.03 934.86,-399.69 936.32,-406.54"/>
</a>
</g>
</g>
<!-- Node3 -->
<g id="Node000003" class="node">
<title>Node3</title>
<g id="a_Node000003"><a xlink:href="CCSDSResult_8h.html" target="_top" xlink:title=" ">
<polygon fill="white" stroke="#666666" points="659.5,-74 570.5,-74 570.5,-55 659.5,-55 659.5,-74"/>
<text text-anchor="middle" x="615" y="-62" font-family="Helvetica,sans-Serif" font-size="10.00">CCSDSResult.h</text>
</a>
</g>
</g>
<!-- Node2&#45;&gt;Node3 -->
<g id="edge2_Node000002_Node000003" class="edge">
<title>Node2&#45;&gt;Node3</title>
<g id="a_edge2_Node000002_Node000003"><a xlink:title=" ">
<path fill="none" stroke="#63b8ff" d="M541.39,-274.74C553.09,-266.86 569.06,-254.19 578,-239 607.61,-188.66 613.66,-117.69 614.8,-84.28"/>
<polygon fill="#63b8ff" stroke="#63b8ff" points="618.3,-84.2 615.03,-74.13 611.3,-84.04 618.3,-84.2"/>
</a>
</g>
</g>
<!-- Node6 -->
<g id="Node000006" class="node">
<title>Node6</title>
<g id="a_Node000006"><a xlink:title=" ">
<polygon fill="#e0e0e0" stroke="#999999" points="789.5,-19 742.5,-19 742.5,0 789.5,0 789.5,-19"/>
<text text-anchor="middle" x="766" y="-7" font-family="Helvetica,sans-Serif" font-size="10.00">vector</text>
</a>
</g>
</g>
<!-- Node2&#45;&gt;Node6 -->
<g id="edge9_Node000002_Node000006" class="edge">
<title>Node2&#45;&gt;Node6</title>
<g id="a_edge9_Node000002_Node000006"><a xlink:title=" ">
<path fill="none" stroke="#63b8ff" d="M574.76,-274.99C653.76,-259.53 803,-223.93 803,-175.5 803,-175.5 803,-175.5 803,-118.5 803,-85.12 786.98,-48.91 776.02,-28.04"/>
<polygon fill="#63b8ff" stroke="#63b8ff" points="779.01,-26.21 771.14,-19.12 772.87,-29.57 779.01,-26.21"/>
</a>
</g>
</g>
<!-- Node7 -->
<g id="Node000007" class="node">
<title>Node7</title>
<g id="a_Node000007"><a xlink:title=" ">
<polygon fill="#e0e0e0" stroke="#999999" points="126,-19 76,-19 76,0 126,0 126,-19"/>
<text text-anchor="middle" x="101" y="-7" font-family="Helvetica,sans-Serif" font-size="10.00">cstdint</text>
</a>
</g>
</g>
<!-- Node2&#45;&gt;Node7 -->
<g id="edge8_Node000002_Node000007" class="edge">
<title>Node2&#45;&gt;Node7</title>
<g id="a_edge8_Node000002_Node000007"><a xlink:title=" ">
<path fill="none" stroke="#63b8ff" d="M474.2,-282.91C347.76,-280.07 38,-264.07 38,-175.5 38,-175.5 38,-175.5 38,-118.5 38,-81.49 65.95,-45.87 84.61,-26.21"/>
<polygon fill="#63b8ff" stroke="#63b8ff" points="87.17,-28.6 91.7,-19.03 82.19,-23.68 87.17,-28.6"/>
</a>
</g>
</g>
<!-- Node9 -->
<g id="Node000009" class="node">
<title>Node9</title>
<g id="a_Node000009"><a xlink:title=" ">
<polygon fill="#e0e0e0" stroke="#999999" points="346,-129 288,-129 288,-110 346,-110 346,-129"/>
<text text-anchor="middle" x="317" y="-117" font-family="Helvetica,sans-Serif" font-size="10.00">memory</text>
</a>
</g>
</g>
<!-- Node2&#45;&gt;Node9 -->
<g id="edge10_Node000002_Node000009" class="edge">
<title>Node2&#45;&gt;Node9</title>
<g id="a_edge10_Node000002_Node000009"><a xlink:title=" ">
<path fill="none" stroke="#63b8ff" d="M514.51,-274.82C501.89,-265.99 481.89,-251.81 465,-239 417.43,-202.93 362.98,-158.49 335.27,-135.64"/>
<polygon fill="#63b8ff" stroke="#63b8ff" points="337.2,-132.69 327.26,-129.02 332.74,-138.09 337.2,-132.69"/>
</a>
</g>
</g>
<!-- Node10 -->
<g id="Node000010" class="node">
<title>Node10</title>
<g id="a_Node000010"><a xlink:href="CCSDSSecondaryHeaderAbstract_8h.html" target="_top" xlink:title=" ">
<polygon fill="white" stroke="#666666" points="549.5,-129 364.5,-129 364.5,-110 549.5,-110 549.5,-129"/>
<text text-anchor="middle" x="457" y="-117" font-family="Helvetica,sans-Serif" font-size="10.00">CCSDSSecondaryHeaderAbstract.h</text>
</a>
</g>
</g>
<!-- Node2&#45;&gt;Node10 -->
<g id="edge11_Node000002_Node000010" class="edge">
<title>Node2&#45;&gt;Node10</title>
<g id="a_edge11_Node000002_Node000010"><a xlink:title=" ">
<path fill="none" stroke="#63b8ff" d="M512.4,-274.86C500.59,-267.04 484.55,-254.42 476,-239 458.38,-207.22 455.95,-163.75 456.19,-139.26"/>
<polygon fill="#63b8ff" stroke="#63b8ff" points="459.69,-139.27 456.46,-129.18 452.69,-139.08 459.69,-139.27"/>
</a>
</g>
</g>
<!-- Node2&#45;&gt;Node11 -->
<g id="edge15_Node000002_Node000011" class="edge">
<title>Node2&#45;&gt;Node11</title>
<g id="a_edge15_Node000002_Node000011"><a xlink:title=" ">
<path fill="none" stroke="#63b8ff" d="M496.74,-274.93C468.52,-266.66 425.43,-253.31 389,-239 349.69,-223.55 305.63,-202.21 278.6,-188.63"/>
<polygon fill="#63b8ff" stroke="#63b8ff" points="279.96,-185.39 269.46,-184 276.8,-191.64 279.96,-185.39"/>
</a>
</g>
</g>
<!-- Node14 -->
<g id="Node000014" class="node">
<title>Node14</title>
<g id="a_Node000014"><a xlink:href="PusServices_8h.html" target="_top" xlink:title=" ">
<polygon fill="white" stroke="#666666" points="569,-239 485,-239 485,-220 569,-220 569,-239"/>
<text text-anchor="middle" x="527" y="-227" font-family="Helvetica,sans-Serif" font-size="10.00">PusServices.h</text>
</a>
</g>
</g>
<!-- Node2&#45;&gt;Node14 -->
<g id="edge21_Node000002_Node000014" class="edge">
<title>Node2&#45;&gt;Node14</title>
<g id="a_edge21_Node000002_Node000014"><a xlink:title=" ">
<path fill="none" stroke="#63b8ff" d="M527,-274.75C527,-267.8 527,-257.85 527,-249.13"/>
<polygon fill="#63b8ff" stroke="#63b8ff" points="530.5,-249.09 527,-239.09 523.5,-249.09 530.5,-249.09"/>
</a>
</g>
</g>
<!-- Node4 -->
<g id="Node000004" class="node">
<title>Node4</title>
<g id="a_Node000004"><a xlink:title=" ">
<polygon fill="#e0e0e0" stroke="#999999" points="249.5,-19 156.5,-19 156.5,0 249.5,0 249.5,-19"/>
<text text-anchor="middle" x="203" y="-7" font-family="Helvetica,sans-Serif" font-size="10.00">unordered_map</text>
</a>
</g>
</g>
<!-- Node3&#45;&gt;Node4 -->
<g id="edge3_Node000003_Node000004" class="edge">
<title>Node3&#45;&gt;Node4</title>
<g id="a_edge3_Node000003_Node000004"><a xlink:title=" ">
<path fill="none" stroke="#63b8ff" d="M570.12,-57.73C494.65,-48.02 342.44,-28.44 259.69,-17.79"/>
<polygon fill="#63b8ff" stroke="#63b8ff" points="260.08,-14.31 249.71,-16.51 259.18,-21.26 260.08,-14.31"/>
</a>
</g>
</g>
<!-- Node5 -->
<g id="Node000005" class="node">
<title>Node5</title>
<g id="a_Node000005"><a xlink:title=" ">
<polygon fill="#e0e0e0" stroke="#999999" points="640.5,-19 589.5,-19 589.5,0 640.5,0 640.5,-19"/>
<text text-anchor="middle" x="615" y="-7" font-family="Helvetica,sans-Serif" font-size="10.00">variant</text>
</a>
</g>
</g>
<!-- Node3&#45;&gt;Node5 -->
<g id="edge4_Node000003_Node000005" class="edge">
<title>Node3&#45;&gt;Node5</title>
<g id="a_edge4_Node000003_Node000005"><a xlink:title=" ">
<path fill="none" stroke="#63b8ff" d="M615,-54.75C615,-47.8 615,-37.85 615,-29.13"/>
<polygon fill="#63b8ff" stroke="#63b8ff" points="618.5,-29.09 615,-19.09 611.5,-29.09 618.5,-29.09"/>
</a>
</g>
</g>
<!-- Node3&#45;&gt;Node6 -->
<g id="edge5_Node000003_Node000006" class="edge">
<title>Node3&#45;&gt;Node6</title>
<g id="a_edge5_Node000003_Node000006"><a xlink:title=" ">
<path fill="none" stroke="#63b8ff" d="M639.26,-54.98C664.62,-46.09 704.57,-32.06 732.83,-22.14"/>
<polygon fill="#63b8ff" stroke="#63b8ff" points="734.02,-25.43 742.3,-18.82 731.7,-18.83 734.02,-25.43"/>
</a>
</g>
</g>
<!-- Node3&#45;&gt;Node7 -->
<g id="edge6_Node000003_Node000007" class="edge">
<title>Node3&#45;&gt;Node7</title>
<g id="a_edge6_Node000003_Node000007"><a xlink:title=" ">
<path fill="none" stroke="#63b8ff" d="M570.32,-60.57C486.88,-54.79 301.79,-40.62 147,-19 143.52,-18.51 139.89,-17.95 136.28,-17.34"/>
<polygon fill="#63b8ff" stroke="#63b8ff" points="136.7,-13.86 126.24,-15.58 135.48,-20.76 136.7,-13.86"/>
</a>
</g>
</g>
<!-- Node3&#45;&gt;Node8 -->
<g id="edge7_Node000003_Node000008" class="edge">
<title>Node3&#45;&gt;Node8</title>
<g id="a_edge7_Node000003_Node000008"><a xlink:title=" ">
<path fill="none" stroke="#63b8ff" d="M659.53,-55.1C713.64,-44.9 804.14,-27.83 856.09,-18.03"/>
<polygon fill="#63b8ff" stroke="#63b8ff" points="856.76,-21.46 865.94,-16.17 855.46,-14.58 856.76,-21.46"/>
</a>
</g>
</g>
<!-- Node10&#45;&gt;Node3 -->
<g id="edge12_Node000010_Node000003" class="edge">
<title>Node10&#45;&gt;Node3</title>
<g id="a_edge12_Node000010_Node000003"><a xlink:title=" ">
<path fill="none" stroke="#63b8ff" d="M482.39,-109.98C508.8,-101.13 550.35,-87.19 579.89,-77.28"/>
<polygon fill="#63b8ff" stroke="#63b8ff" points="581.05,-80.58 589.42,-74.08 578.82,-73.94 581.05,-80.58"/>
</a>
</g>
</g>
<!-- Node10&#45;&gt;Node6 -->
<g id="edge13_Node000010_Node000006" class="edge">
<title>Node10&#45;&gt;Node6</title>
<g id="a_edge13_Node000010_Node000006"><a xlink:title=" ">
<path fill="none" stroke="#63b8ff" d="M468.18,-109.91C486.54,-96.23 524.67,-69.55 561,-55 618.69,-31.89 690.56,-19.82 732.07,-14.34"/>
<polygon fill="#63b8ff" stroke="#63b8ff" points="732.71,-17.78 742.19,-13.05 731.83,-10.84 732.71,-17.78"/>
</a>
</g>
</g>
<!-- Node10&#45;&gt;Node7 -->
<g id="edge14_Node000010_Node000007" class="edge">
<title>Node10&#45;&gt;Node7</title>
<g id="a_edge14_Node000010_Node000007"><a xlink:title=" ">
<path fill="none" stroke="#63b8ff" d="M366.76,-109.97C279.18,-101.04 156.78,-86.6 138,-74 122.14,-63.36 112.18,-43.46 106.64,-28.76"/>
<polygon fill="#63b8ff" stroke="#63b8ff" points="109.91,-27.51 103.37,-19.18 103.29,-29.78 109.91,-27.51"/>
</a>
</g>
</g>
<!-- Node11&#45;&gt;Node4 -->
<g id="edge17_Node000011_Node000004" class="edge">
<title>Node11&#45;&gt;Node4</title>
<g id="a_edge17_Node000011_Node000004"><a xlink:title=" ">
<path fill="none" stroke="#63b8ff" d="M234.33,-164.97C220.67,-157.59 203.14,-145.5 195,-129 179.02,-96.61 188.66,-53.06 196.33,-28.79"/>
<polygon fill="#63b8ff" stroke="#63b8ff" points="199.72,-29.7 199.62,-19.11 193.09,-27.45 199.72,-29.7"/>
</a>
</g>
</g>
<!-- Node11&#45;&gt;Node9 -->
<g id="edge16_Node000011_Node000009" class="edge">
<title>Node11&#45;&gt;Node9</title>
<g id="a_edge16_Node000011_Node000009"><a xlink:title=" ">
<path fill="none" stroke="#63b8ff" d="M263.28,-164.98C272.84,-157.07 287.28,-145.11 298.78,-135.58"/>
<polygon fill="#63b8ff" stroke="#63b8ff" points="301.06,-138.24 306.53,-129.17 296.6,-132.85 301.06,-138.24"/>
</a>
</g>
</g>
<!-- Node11&#45;&gt;Node10 -->
<g id="edge20_Node000011_Node000010" class="edge">
<title>Node11&#45;&gt;Node10</title>
<g id="a_edge20_Node000011_Node000010"><a xlink:title=" ">
<path fill="none" stroke="#63b8ff" d="M285.78,-164.98C320.62,-155.93 375.87,-141.58 414.14,-131.64"/>
<polygon fill="#63b8ff" stroke="#63b8ff" points="415.17,-134.98 423.97,-129.08 413.41,-128.21 415.17,-134.98"/>
</a>
</g>
</g>
<!-- Node12 -->
<g id="Node000012" class="node">
<title>Node12</title>
<g id="a_Node000012"><a xlink:title=" ">
<polygon fill="#e0e0e0" stroke="#999999" points="269.5,-129 204.5,-129 204.5,-110 269.5,-110 269.5,-129"/>
<text text-anchor="middle" x="237" y="-117" font-family="Helvetica,sans-Serif" font-size="10.00">functional</text>
</a>
</g>
</g>
<!-- Node11&#45;&gt;Node12 -->
<g id="edge18_Node000011_Node000012" class="edge">
<title>Node11&#45;&gt;Node12</title>
<g id="a_edge18_Node000011_Node000012"><a xlink:title=" ">
<path fill="none" stroke="#63b8ff" d="M250.36,-164.75C248.24,-157.72 245.19,-147.62 242.54,-138.84"/>
<polygon fill="#63b8ff" stroke="#63b8ff" points="245.83,-137.65 239.59,-129.09 239.13,-139.67 245.83,-137.65"/>
</a>
</g>
</g>
<!-- Node13 -->
<g id="Node000013" class="node">
<title>Node13</title>
<g id="a_Node000013"><a xlink:title=" ">
<polygon fill="#e0e0e0" stroke="#999999" points="148,-129 104,-129 104,-110 148,-110 148,-129"/>
<text text-anchor="middle" x="126" y="-117" font-family="Helvetica,sans-Serif" font-size="10.00">string</text>
</a>
</g>
</g>
<!-- Node11&#45;&gt;Node13 -->
<g id="edge19_Node000011_Node000013" class="edge">
<title>Node11&#45;&gt;Node13</title>
<g id="a_edge19_Node000011_Node000013"><a xlink:title=" ">
<path fill="none" stroke="#63b8ff" d="M232.6,-164.98C211.98,-156.38 179.89,-142.99 156.31,-133.15"/>
<polygon fill="#63b8ff" stroke="#63b8ff" points="157.35,-129.79 146.78,-129.17 154.66,-136.25 157.35,-129.79"/>
</a>
</g>
</g>
<!-- Node14&#45;&gt;Node3 -->
<g id="edge24_Node000014_Node000003" class="edge">
<title>Node14&#45;&gt;Node3</title>
<g id="a_edge24_Node000014_Node000003"><a xlink:title=" ">
<path fill="none" stroke="#63b8ff" d="M531.73,-219.74C545.64,-193.98 586.58,-118.13 605.38,-83.33"/>
<polygon fill="#63b8ff" stroke="#63b8ff" points="608.57,-84.77 610.25,-74.31 602.41,-81.44 608.57,-84.77"/>
</a>
</g>
</g>
<!-- Node14&#45;&gt;Node10 -->
<g id="edge22_Node000014_Node000010" class="edge">
<title>Node14&#45;&gt;Node10</title>
<g id="a_edge22_Node000014_Node000010"><a xlink:title=" ">
<path fill="none" stroke="#63b8ff" d="M521.27,-219.66C509.68,-201.77 483.25,-161 468.14,-137.69"/>
<polygon fill="#63b8ff" stroke="#63b8ff" points="470.99,-135.65 462.61,-129.16 465.11,-139.45 470.99,-135.65"/>
</a>
</g>
</g>
<!-- Node14&#45;&gt;Node11 -->
<g id="edge23_Node000014_Node000011" class="edge">
<title>Node14&#45;&gt;Node11</title>
<g id="a_edge23_Node000014_Node000011"><a xlink:title=" ">
<path fill="none" stroke="#63b8ff" d="M484.79,-220.33C437.08,-211.11 359.29,-196.06 307.15,-185.97"/>
<polygon fill="#63b8ff" stroke="#63b8ff" points="307.56,-182.49 297.08,-184.03 306.23,-189.36 307.56,-182.49"/>
</a>
</g>
</g>
<!-- Node15&#45;&gt;Node6 -->
<g id="edge38_Node000015_Node000006" class="edge">
<title>Node15&#45;&gt;Node6</title>
<g id="a_edge38_Node000015_Node000006"><a xlink:title=" ">
<path fill="none" stroke="#63b8ff" d="M652.55,-385.86C727.24,-370.63 879,-333.75 879,-285.5 879,-285.5 879,-285.5 879,-118.5 879,-72.68 829.85,-40.32 796.38,-23.6"/>
<polygon fill="#63b8ff" stroke="#63b8ff" points="797.52,-20.27 786.99,-19.11 794.5,-26.58 797.52,-20.27"/>
</a>
</g>
</g>
<!-- Node15&#45;&gt;Node7 -->
<g id="edge37_Node000015_Node000007" class="edge">
<title>Node15&#45;&gt;Node7</title>
<g id="a_edge37_Node000015_Node000007"><a xlink:title=" ">
<path fill="none" stroke="#63b8ff" d="M571.32,-387.77C564.54,-386.83 557.57,-385.88 551,-385 352.65,-358.38 277.95,-402.83 110,-294 49.69,-254.92 0,-247.36 0,-175.5 0,-175.5 0,-175.5 0,-118.5 0,-74.76 44.74,-41.41 74.66,-23.99"/>
<polygon fill="#63b8ff" stroke="#63b8ff" points="76.39,-27.03 83.41,-19.1 72.97,-20.92 76.39,-27.03"/>
</a>
</g>
</g>
<!-- Node15&#45;&gt;Node13 -->
<g id="edge36_Node000015_Node000013" class="edge">
<title>Node15&#45;&gt;Node13</title>
<g id="a_edge36_Node000015_Node000013"><a xlink:title=" ">
<path fill="none" stroke="#63b8ff" d="M571.25,-386.82C452.31,-367.07 114,-308.83 114,-285.5 114,-285.5 114,-285.5 114,-228.5 114,-197 119.11,-160.64 122.66,-139.16"/>
<polygon fill="#63b8ff" stroke="#63b8ff" points="126.13,-139.59 124.38,-129.14 119.24,-138.4 126.13,-139.59"/>
</a>
</g>
</g>
<!-- Node16 -->
<g id="Node000016" class="node">
<title>Node16</title>
<g id="a_Node000016"><a xlink:href="CCSDSPacket_8h.html" target="_top" xlink:title=" ">
<polygon fill="white" stroke="#666666" points="685,-349 595,-349 595,-330 685,-330 685,-349"/>
<text text-anchor="middle" x="640" y="-337" font-family="Helvetica,sans-Serif" font-size="10.00">CCSDSPacket.h</text>
</a>
</g>
</g>
<!-- Node15&#45;&gt;Node16 -->
<g id="edge27_Node000015_Node000016" class="edge">
<title>Node15&#45;&gt;Node16</title>
<g id="a_edge27_Node000015_Node000016"><a xlink:title=" ">
<path fill="none" stroke="#63b8ff" d="M616.62,-384.75C620.46,-377.49 626.02,-366.95 630.76,-357.98"/>
<polygon fill="#63b8ff" stroke="#63b8ff" points="633.89,-359.57 635.46,-349.09 627.7,-356.3 633.89,-359.57"/>
</a>
</g>
</g>
<!-- Node16&#45;&gt;Node2 -->
<g id="edge35_Node000016_Node000002" class="edge">
<title>Node16&#45;&gt;Node2</title>
<g id="a_edge35_Node000016_Node000002"><a xlink:title=" ">
<path fill="none" stroke="#63b8ff" d="M621.84,-329.98C603.75,-321.5 575.72,-308.35 554.81,-298.54"/>
<polygon fill="#63b8ff" stroke="#63b8ff" points="556.03,-295.25 545.49,-294.17 553.05,-301.59 556.03,-295.25"/>
</a>
</g>
</g>
<!-- Node16&#45;&gt;Node3 -->
<g id="edge28_Node000016_Node000003" class="edge">
<title>Node16&#45;&gt;Node3</title>
<g id="a_edge28_Node000016_Node000003"><a xlink:title=" ">
<path fill="none" stroke="#63b8ff" d="M641.75,-329.86C645.3,-311.6 653,-267.7 653,-230.5 653,-230.5 653,-230.5 653,-173.5 653,-140.02 636.55,-103.84 625.3,-83.01"/>
<polygon fill="#63b8ff" stroke="#63b8ff" points="628.24,-81.1 620.28,-74.1 622.13,-84.53 628.24,-81.1"/>
</a>
</g>
</g>
<!-- Node16&#45;&gt;Node6 -->
<g id="edge30_Node000016_Node000006" class="edge">
<title>Node16&#45;&gt;Node6</title>
<g id="a_edge30_Node000016_Node000006"><a xlink:title=" ">
<path fill="none" stroke="#63b8ff" d="M685.11,-334.1C744.37,-325.54 841,-300.82 841,-230.5 841,-230.5 841,-230.5 841,-118.5 841,-79.64 807.83,-44.7 785.61,-25.65"/>
<polygon fill="#63b8ff" stroke="#63b8ff" points="787.66,-22.81 777.72,-19.16 783.21,-28.22 787.66,-22.81"/>
</a>
</g>
</g>
<!-- Node16&#45;&gt;Node7 -->
<g id="edge29_Node000016_Node000007" class="edge">
<title>Node16&#45;&gt;Node7</title>
<g id="a_edge29_Node000016_Node000007"><a xlink:title=" ">
<path fill="none" stroke="#63b8ff" d="M594.82,-331.49C505.29,-316.09 301.24,-273.29 154,-184 123.35,-165.41 109.3,-161.87 95,-129 80.68,-96.07 88.64,-53.05 95.18,-28.94"/>
<polygon fill="#63b8ff" stroke="#63b8ff" points="98.55,-29.88 98,-19.3 91.84,-27.92 98.55,-29.88"/>
</a>
</g>
</g>
<!-- Node17 -->
<g id="Node000017" class="node">
<title>Node17</title>
<g id="a_Node000017"><a xlink:href="CCSDSHeader_8h.html" target="_top" xlink:title=" ">
<polygon fill="white" stroke="#666666" points="774.5,-129 681.5,-129 681.5,-110 774.5,-110 774.5,-129"/>
<text text-anchor="middle" x="728" y="-117" font-family="Helvetica,sans-Serif" font-size="10.00">CCSDSHeader.h</text>
</a>
</g>
</g>
<!-- Node16&#45;&gt;Node17 -->
<g id="edge31_Node000016_Node000017" class="edge">
<title>Node16&#45;&gt;Node17</title>
<g id="a_edge31_Node000016_Node000017"><a xlink:title=" ">
<path fill="none" stroke="#63b8ff" d="M645.94,-329.93C651.82,-321.19 660.82,-307.07 667,-294 692.76,-239.52 713.7,-171.06 722.92,-138.85"/>
<polygon fill="#63b8ff" stroke="#63b8ff" points="726.33,-139.63 725.68,-129.05 719.6,-137.73 726.33,-139.63"/>
</a>
</g>
</g>
<!-- Node17&#45;&gt;Node3 -->
<g id="edge32_Node000017_Node000003" class="edge">
<title>Node17&#45;&gt;Node3</title>
<g id="a_edge32_Node000017_Node000003"><a xlink:title=" ">
<path fill="none" stroke="#63b8ff" d="M709.84,-109.98C691.75,-101.5 663.72,-88.35 642.81,-78.54"/>
<polygon fill="#63b8ff" stroke="#63b8ff" points="644.03,-75.25 633.49,-74.17 641.05,-81.59 644.03,-75.25"/>
</a>
</g>
</g>
<!-- Node17&#45;&gt;Node6 -->
<g id="edge34_Node000017_Node000006" class="edge">
<title>Node17&#45;&gt;Node6</title>
<g id="a_edge34_Node000017_Node000006"><a xlink:title=" ">
<path fill="none" stroke="#63b8ff" d="M731.11,-109.66C737.32,-92.01 751.37,-52.09 759.62,-28.64"/>
<polygon fill="#63b8ff" stroke="#63b8ff" points="762.94,-29.75 762.95,-19.16 756.33,-27.43 762.94,-29.75"/>
</a>
</g>
</g>
<!-- Node17&#45;&gt;Node7 -->
<g id="edge33_Node000017_Node000007" class="edge">
<title>Node17&#45;&gt;Node7</title>
<g id="a_edge33_Node000017_Node000007"><a xlink:title=" ">
<path fill="none" stroke="#63b8ff" d="M681.27,-110.71C582.54,-94.21 345.48,-54.33 147,-19 143.54,-18.38 139.93,-17.73 136.32,-17.08"/>
<polygon fill="#63b8ff" stroke="#63b8ff" points="136.76,-13.6 126.3,-15.24 135.5,-20.48 136.76,-13.6"/>
</a>
</g>
</g>
</g>
</svg>

<g id="navigator" transform="translate(0 0)" fill="#404254">
  <rect fill="#f2f5e9" fill-opacity="0.5" stroke="#606060" stroke-width=".5" x="0" y="0" width="60" height="60"/>
  <use id="zoomplus" xlink:href="#zoomPlus" x="17" y="9" onmousedown="handleZoom(evt,'in')"/>
  <use id="zoomminus" xlink:href="#zoomMin" x="42" y="9" onmousedown="handleZoom(evt,'out')"/>
  <use id="reset" xlink:href="#resetDef" x="30" y="36" onmousedown="handleReset()"/>
   <use id="arrowup" xlink:href="#arrowUp" x="0" y="0" onmousedown="handlePan(0,-1)"/>
  <use id="arrowright" xlink:href="#arrowRight" x="0" y="0" onmousedown="handlePan(1,0)"/>
  <use id="arrowdown" xlink:href="#arrowDown" x="0" y="0" onmousedown="handlePan(0,1)"/>
  <use id="arrowleft" xlink:href="#arrowLeft" x="0" y="0" onmousedown="handlePan(-1,0)"/>
</g>
<svg viewBox="0 0 15 15" width="100%" height="30px" preserveAspectRatio="xMaxYMin meet">
 <g id="arrow_out" transform="scale(0.3 0.3)">
  <a xlink:href="CCSDSDataField_8cpp__incl_org.svg" target="_base">
   <rect id="button" ry="5" rx="5" y="6" x="6" height="38" width="38"
        fill="#f2f5e9" fill-opacity="0.5" stroke="#606060" stroke-width="1.0"/>
   <path id="arrow"
     d="M 11.500037,31.436501 C 11.940474,20.09759 22.043105,11.32322 32.158766,21.979434 L 37.068811,17.246167 C 37.068811,17.246167 37.088388,32 37.088388,32 L 22.160133,31.978069 C 22.160133,31.978069 26.997745,27.140456 26.997745,27.140456 C 18.528582,18.264221 13.291696,25.230495 11.500037,31.436501 z"
     style="fill:#404040;"/>
  </a>
 </g>
</svg>

<style type='text/css'>
<![CDATA[
[data-mouse-over-selected='false'] { opacity: 0.7; }
[data-mouse-over-selected='true']  { opacity: 1.0; }
]]>
</style>
<script type="application/ecmascript"><![CDATA[
document.addEventListener('DOMContentLoaded', (event) => {
  highlightEdges();
  highlightAdjacentNodes();
});
]]></script>
</svg>
