<?xml version="1.0" encoding="UTF-8" standalone="no"?>
<!DOCTYPE svg PUBLIC "-//W3C//DTD SVG 1.1//EN"
 "http://www.w3.org/Graphics/SVG/1.1/DTD/svg11.dtd">
<!-- Generated by graphviz version 2.43.0 (0)
 -->
<!-- Title: inc/CCSDSDataField.h Pages: 1 -->
<svg width="982pt" height="302pt"
 viewBox="0.00 0.00 981.50 302.00" xmlns="http://www.w3.org/2000/svg" xmlns:xlink="http://www.w3.org/1999/xlink">
<g id="graph0" class="graph" transform="scale(1 1) rotate(0) translate(4 298)">
<title>inc/CCSDSDataField.h</title>
<!-- Node1 -->
<g id="Node000001" class="node">
<title>Node1</title>
<g id="a_Node000001"><a xlink:title=" ">
<polygon fill="#999999" stroke="#666666" points="629,-294 507,-294 507,-275 629,-275 629,-294"/>
<text text-anchor="middle" x="568" y="-282" font-family="Helvetica,sans-Serif" font-size="10.00">inc/CCSDSDataField.h</text>
</a>
</g>
</g>
<!-- Node2 -->
<g id="Node000002" class="node">
<title>Node2</title>
<g id="a_Node000002"><a xlink:href="CCSDSPacket_8h.html" target="_top" xlink:title=" ">
<polygon fill="white" stroke="#666666" points="621.5,-239 514.5,-239 514.5,-220 621.5,-220 621.5,-239"/>
<text text-anchor="middle" x="568" y="-227" font-family="Helvetica,sans-Serif" font-size="10.00">inc/CCSDSPacket.h</text>
</a>
</g>
</g>
<!-- Node1&#45;&gt;Node2 -->
<g id="edge1_Node000001_Node000002" class="edge">
<title>Node1&#45;&gt;Node2</title>
<g id="a_edge1_Node000001_Node000002"><a xlink:title=" ">
<path fill="none" stroke="#63b8ff" d="M568,-264.66C568,-255.93 568,-245.99 568,-239.09"/>
<polygon fill="#63b8ff" stroke="#63b8ff" points="564.5,-264.75 568,-274.75 571.5,-264.75 564.5,-264.75"/>
</a>
</g>
</g>
<!-- Node5 -->
<g id="Node000005" class="node">
<title>Node5</title>
<g id="a_Node000005"><a xlink:href="CCSDSDataField_8cpp.html" target="_top" xlink:title=" ">
<polygon fill="white" stroke="#666666" points="134,-19 0,-19 0,0 134,0 134,-19"/>
<text text-anchor="middle" x="67" y="-7" font-family="Helvetica,sans-Serif" font-size="10.00">src/CCSDSDataField.cpp</text>
</a>
</g>
</g>
<!-- Node1&#45;&gt;Node5 -->
<g id="edge18_Node000001_Node000005" class="edge">
<title>Node1&#45;&gt;Node5</title>
<g id="a_edge18_Node000001_Node000005"><a xlink:title=" ">
<path fill="none" stroke="#63b8ff" d="M496.48,-278.19C384.64,-267.9 181,-240.27 181,-175.5 181,-175.5 181,-175.5 181,-118.5 181,-67.93 121.14,-33.94 88.18,-19.05"/>
<polygon fill="#63b8ff" stroke="#63b8ff" points="496.41,-281.7 506.68,-279.11 497.03,-274.73 496.41,-281.7"/>
</a>
</g>
</g>
<!-- Node8 -->
<g id="Node000008" class="node">
<title>Node8</title>
<g id="a_Node000008"><a xlink:href="CCSDSPacket_8cpp.html" target="_top" xlink:title=" ">
<polygon fill="white" stroke="#666666" points="973.5,-19 854.5,-19 854.5,0 973.5,0 973.5,-19"/>
<text text-anchor="middle" x="914" y="-7" font-family="Helvetica,sans-Serif" font-size="10.00">src/CCSDSPacket.cpp</text>
</a>
</g>
</g>
<!-- Node1&#45;&gt;Node8 -->
<g id="edge19_Node000001_Node000008" class="edge">
<title>Node1&#45;&gt;Node8</title>
<g id="a_edge19_Node000001_Node000008"><a xlink:title=" ">
<path fill="none" stroke="#63b8ff" d="M639.38,-274.01C733.69,-259.43 888,-227.62 888,-175.5 888,-175.5 888,-175.5 888,-118.5 888,-80.51 903.4,-37.03 910.49,-19.01"/>
<polygon fill="#63b8ff" stroke="#63b8ff" points="638.68,-270.57 629.32,-275.53 639.73,-277.5 638.68,-270.57"/>
</a>
</g>
</g>
<!-- Node3 -->
<g id="Node000003" class="node">
<title>Node3</title>
<g id="a_Node000003"><a xlink:href="CCSDSManager_8h.html" target="_top" xlink:title=" ">
<polygon fill="white" stroke="#666666" points="496,-129 378,-129 378,-110 496,-110 496,-129"/>
<text text-anchor="middle" x="437" y="-117" font-family="Helvetica,sans-Serif" font-size="10.00">inc/CCSDSManager.h</text>
</a>
</g>
</g>
<!-- Node2&#45;&gt;Node3 -->
<g id="edge2_Node000002_Node000003" class="edge">
<title>Node2&#45;&gt;Node3</title>
<g id="a_edge2_Node000002_Node000003"><a xlink:title=" ">
<path fill="none" stroke="#63b8ff" d="M547.97,-213.61C536.68,-205.1 522.41,-194.14 510,-184 486.85,-165.08 460.6,-141.77 446.75,-129.32"/>
<polygon fill="#63b8ff" stroke="#63b8ff" points="546.18,-216.64 556.28,-219.84 550.38,-211.04 546.18,-216.64"/>
</a>
</g>
</g>
<!-- Node4 -->
<g id="Node000004" class="node">
<title>Node4</title>
<g id="a_Node000004"><a xlink:href="CCSDSUtils_8h.html" target="_top" xlink:title=" ">
<polygon fill="white" stroke="#666666" points="548,-74 450,-74 450,-55 548,-55 548,-74"/>
<text text-anchor="middle" x="499" y="-62" font-family="Helvetica,sans-Serif" font-size="10.00">inc/CCSDSUtils.h</text>
</a>
</g>
</g>
<!-- Node2&#45;&gt;Node4 -->
<g id="edge13_Node000002_Node000004" class="edge">
<title>Node2&#45;&gt;Node4</title>
<g id="a_edge13_Node000002_Node000004"><a xlink:title=" ">
<path fill="none" stroke="#63b8ff" d="M557.34,-211.02C552.64,-202.95 547.24,-193.15 543,-184 524.46,-143.97 507.91,-93.75 501.65,-74.02"/>
<polygon fill="#63b8ff" stroke="#63b8ff" points="554.48,-213.05 562.6,-219.85 560.49,-209.47 554.48,-213.05"/>
</a>
</g>
</g>
<!-- Node2&#45;&gt;Node8 -->
<g id="edge17_Node000002_Node000008" class="edge">
<title>Node2&#45;&gt;Node8</title>
<g id="a_edge17_Node000002_Node000008"><a xlink:title=" ">
<path fill="none" stroke="#63b8ff" d="M604.97,-216.73C627.6,-208.86 656.76,-197.48 681,-184 774.88,-131.78 873.84,-46.35 904.43,-19.12"/>
<polygon fill="#63b8ff" stroke="#63b8ff" points="603.73,-213.46 595.39,-219.99 605.99,-220.08 603.73,-213.46"/>
</a>
</g>
</g>
<!-- Node12 -->
<g id="Node000012" class="node">
<title>Node12</title>
<g id="a_Node000012"><a xlink:href="CCSDSValidator_8h.html" target="_top" xlink:title="Defines the Validator class for CCSDS packet validation.">
<polygon fill="white" stroke="#666666" points="671.5,-184 552.5,-184 552.5,-165 671.5,-165 671.5,-184"/>
<text text-anchor="middle" x="612" y="-172" font-family="Helvetica,sans-Serif" font-size="10.00">inc/CCSDSValidator.h</text>
</a>
</g>
</g>
<!-- Node2&#45;&gt;Node12 -->
<g id="edge14_Node000002_Node000012" class="edge">
<title>Node2&#45;&gt;Node12</title>
<g id="a_edge14_Node000002_Node000012"><a xlink:title=" ">
<path fill="none" stroke="#63b8ff" d="M581.73,-211.96C589.4,-202.72 598.63,-191.6 604.87,-184.09"/>
<polygon fill="#63b8ff" stroke="#63b8ff" points="578.96,-209.82 575.27,-219.75 584.35,-214.29 578.96,-209.82"/>
</a>
</g>
</g>
<!-- Node3&#45;&gt;Node4 -->
<g id="edge3_Node000003_Node000004" class="edge">
<title>Node3&#45;&gt;Node4</title>
<g id="a_edge3_Node000003_Node000004"><a xlink:title=" ">
<path fill="none" stroke="#63b8ff" d="M454.75,-103.32C465.81,-93.87 479.63,-82.06 488.86,-74.17"/>
<polygon fill="#63b8ff" stroke="#63b8ff" points="452.29,-100.83 446.96,-109.98 456.84,-106.15 452.29,-100.83"/>
</a>
</g>
</g>
<!-- Node7 -->
<g id="Node000007" class="node">
<title>Node7</title>
<g id="a_Node000007"><a xlink:href="CCSDSManager_8cpp.html" target="_top" xlink:title=" ">
<polygon fill="white" stroke="#666666" points="281.5,-19 152.5,-19 152.5,0 281.5,0 281.5,-19"/>
<text text-anchor="middle" x="217" y="-7" font-family="Helvetica,sans-Serif" font-size="10.00">src/CCSDSManager.cpp</text>
</a>
</g>
</g>
<!-- Node3&#45;&gt;Node7 -->
<g id="edge11_Node000003_Node000007" class="edge">
<title>Node3&#45;&gt;Node7</title>
<g id="a_edge11_Node000003_Node000007"><a xlink:title=" ">
<path fill="none" stroke="#63b8ff" d="M410.37,-105.43C364.72,-83.02 272.76,-37.87 234.41,-19.05"/>
<polygon fill="#63b8ff" stroke="#63b8ff" points="408.85,-108.58 419.37,-109.84 411.93,-102.3 408.85,-108.58"/>
</a>
</g>
</g>
<!-- Node11 -->
<g id="Node000011" class="node">
<title>Node11</title>
<g id="a_Node000011"><a xlink:href="exec__encoder_8cpp.html" target="_top" xlink:title=" ">
<polygon fill="white" stroke="#666666" points="420,-19 300,-19 300,0 420,0 420,-19"/>
<text text-anchor="middle" x="360" y="-7" font-family="Helvetica,sans-Serif" font-size="10.00">src/exec_encoder.cpp</text>
</a>
</g>
</g>
<!-- Node3&#45;&gt;Node11 -->
<g id="edge12_Node000003_Node000011" class="edge">
<title>Node3&#45;&gt;Node11</title>
<g id="a_edge12_Node000003_Node000011"><a xlink:title=" ">
<path fill="none" stroke="#63b8ff" d="M424.8,-101.38C408.13,-78.01 378.87,-36.97 366.17,-19.16"/>
<polygon fill="#63b8ff" stroke="#63b8ff" points="422.04,-103.55 430.7,-109.66 427.74,-99.49 422.04,-103.55"/>
</a>
</g>
</g>
<!-- Node4&#45;&gt;Node5 -->
<g id="edge4_Node000004_Node000005" class="edge">
<title>Node4&#45;&gt;Node5</title>
<g id="a_edge4_Node000004_Node000005"><a xlink:title=" ">
<path fill="none" stroke="#63b8ff" d="M439.48,-56.2C359.51,-46.39 217.78,-29 134.11,-18.73"/>
<polygon fill="#63b8ff" stroke="#63b8ff" points="439.51,-59.73 449.86,-57.47 440.37,-52.78 439.51,-59.73"/>
</a>
</g>
</g>
<!-- Node6 -->
<g id="Node000006" class="node">
<title>Node6</title>
<g id="a_Node000006"><a xlink:href="CCSDSHeader_8cpp.html" target="_top" xlink:title=" ">
<polygon fill="white" stroke="#666666" points="560,-19 438,-19 438,0 560,0 560,-19"/>
<text text-anchor="middle" x="499" y="-7" font-family="Helvetica,sans-Serif" font-size="10.00">src/CCSDSHeader.cpp</text>
</a>
</g>
</g>
<!-- Node4&#45;&gt;Node6 -->
<g id="edge5_Node000004_Node000006" class="edge">
<title>Node4&#45;&gt;Node6</title>
<g id="a_edge5_Node000004_Node000006"><a xlink:title=" ">
<path fill="none" stroke="#63b8ff" d="M499,-44.66C499,-35.93 499,-25.99 499,-19.09"/>
<polygon fill="#63b8ff" stroke="#63b8ff" points="495.5,-44.75 499,-54.75 502.5,-44.75 495.5,-44.75"/>
</a>
</g>
</g>
<!-- Node4&#45;&gt;Node7 -->
<g id="edge6_Node000004_Node000007" class="edge">
<title>Node4&#45;&gt;Node7</title>
<g id="a_edge6_Node000004_Node000007"><a xlink:title=" ">
<path fill="none" stroke="#63b8ff" d="M443.81,-53.13C390.94,-43.19 312.1,-28.37 262.66,-19.08"/>
<polygon fill="#63b8ff" stroke="#63b8ff" points="443.22,-56.58 453.69,-54.98 444.51,-49.7 443.22,-56.58"/>
</a>
</g>
</g>
<!-- Node4&#45;&gt;Node8 -->
<g id="edge7_Node000004_Node000008" class="edge">
<title>Node4&#45;&gt;Node8</title>
<g id="a_edge7_Node000004_Node000008"><a xlink:title=" ">
<path fill="none" stroke="#63b8ff" d="M558.48,-55.9C637.32,-45.84 775.6,-28.18 854.46,-18.1"/>
<polygon fill="#63b8ff" stroke="#63b8ff" points="557.71,-52.47 548.24,-57.21 558.6,-59.42 557.71,-52.47"/>
</a>
</g>
</g>
<!-- Node9 -->
<g id="Node000009" class="node">
<title>Node9</title>
<g id="a_Node000009"><a xlink:href="CCSDSUtils_8cpp.html" target="_top" xlink:title=" ">
<polygon fill="white" stroke="#666666" points="688,-19 578,-19 578,0 688,0 688,-19"/>
<text text-anchor="middle" x="633" y="-7" font-family="Helvetica,sans-Serif" font-size="10.00">src/CCSDSUtils.cpp</text>
</a>
</g>
</g>
<!-- Node4&#45;&gt;Node9 -->
<g id="edge8_Node000004_Node000009" class="edge">
<title>Node4&#45;&gt;Node9</title>
<g id="a_edge8_Node000004_Node000009"><a xlink:title=" ">
<path fill="none" stroke="#63b8ff" d="M529.87,-51.29C554.7,-41.47 588.99,-27.91 611.08,-19.17"/>
<polygon fill="#63b8ff" stroke="#63b8ff" points="528.54,-48.05 520.53,-54.98 531.12,-54.56 528.54,-48.05"/>
</a>
</g>
</g>
<!-- Node10 -->
<g id="Node000010" class="node">
<title>Node10</title>
<g id="a_Node000010"><a xlink:href="CCSDSValidator_8cpp.html" target="_top" xlink:title=" ">
<polygon fill="white" stroke="#666666" points="836,-19 706,-19 706,0 836,0 836,-19"/>
<text text-anchor="middle" x="771" y="-7" font-family="Helvetica,sans-Serif" font-size="10.00">src/CCSDSValidator.cpp</text>
</a>
</g>
</g>
<!-- Node4&#45;&gt;Node10 -->
<g id="edge9_Node000004_Node000010" class="edge">
<title>Node4&#45;&gt;Node10</title>
<g id="a_edge9_Node000004_Node000010"><a xlink:title=" ">
<path fill="none" stroke="#63b8ff" d="M552.55,-53.07C603.55,-43.13 679.37,-28.35 726.96,-19.08"/>
<polygon fill="#63b8ff" stroke="#63b8ff" points="551.85,-49.64 542.7,-54.98 553.19,-56.51 551.85,-49.64"/>
</a>
</g>
</g>
<!-- Node4&#45;&gt;Node11 -->
<g id="edge10_Node000004_Node000011" class="edge">
<title>Node4&#45;&gt;Node11</title>
<g id="a_edge10_Node000004_Node000011"><a xlink:title=" ">
<path fill="none" stroke="#63b8ff" d="M467.32,-51.42C441.53,-41.59 405.76,-27.95 382.74,-19.17"/>
<polygon fill="#63b8ff" stroke="#63b8ff" points="466.08,-54.69 476.67,-54.98 468.57,-48.15 466.08,-54.69"/>
</a>
</g>
</g>
<!-- Node12&#45;&gt;Node3 -->
<g id="edge15_Node000012_Node000003" class="edge">
<title>Node12&#45;&gt;Node3</title>
<g id="a_edge15_Node000012_Node000003"><a xlink:title=" ">
<path fill="none" stroke="#63b8ff" d="M574.21,-162.06C541.5,-152.15 494.93,-138.04 465.34,-129.08"/>
<polygon fill="#63b8ff" stroke="#63b8ff" points="573.3,-165.44 583.88,-164.98 575.33,-158.74 573.3,-165.44"/>
</a>
</g>
</g>
<!-- Node12&#45;&gt;Node10 -->
<g id="edge16_Node000012_Node000010" class="edge">
<title>Node12&#45;&gt;Node10</title>
<g id="a_edge16_Node000012_Node000010"><a xlink:title=" ">
<path fill="none" stroke="#63b8ff" d="M627.62,-157.49C660.68,-123.59 736.79,-45.57 762.41,-19.31"/>
<polygon fill="#63b8ff" stroke="#63b8ff" points="625.03,-155.13 620.55,-164.74 630.04,-160.02 625.03,-155.13"/>
</a>
</g>
</g>
</g>
</svg>
