<?xml version="1.0" encoding="UTF-8" standalone="no"?>
<!DOCTYPE svg PUBLIC "-//W3C//DTD SVG 1.1//EN"
 "http://www.w3.org/Graphics/SVG/1.1/DTD/svg11.dtd">
<!-- Generated by graphviz version 2.43.0 (0)
 -->
<!-- Title: src/CCSDSPacket.cpp Pages: 1 -->
<!--zoomable 577 -->

<svg id="main" version="1.1" xmlns="http://www.w3.org/2000/svg" xmlns:xlink="http://www.w3.org/1999/xlink" xml:space="preserve" onload="init(evt)">
<style type="text/css"><![CDATA[
.node, .edge {opacity: 0.7;}
.node.selected, .edge.selected {opacity: 1;}
.edge:hover path { stroke: red; }
.edge:hover polygon { stroke: red; fill: red; }
]]></style>

<defs>
  <circle id="rim" cx="0" cy="0" r="7"/>
  <circle id="rim2" cx="0" cy="0" r="3.5"/>
  <g id="zoomPlus">
    <use xlink:href="#rim" fill="#404040"><set attributeName="fill" to="#808080" begin="zoomplus.mouseover" end="zoomplus.mouseout"/></use>
    <path d="M-4,0h8M0,-4v8" fill="none" stroke="white" stroke-width="1.5" pointer-events="none"/>
  </g>
  <g id="zoomMin">
    <use xlink:href="#rim" fill="#404040"><set attributeName="fill" to="#808080" begin="zoomminus.mouseover" end="zoomminus.mouseout"/></use>
    <path d="M-4,0h8" fill="none" stroke="white" stroke-width="1.5" pointer-events="none"/>
  </g>
  <g id="arrowUp" transform="translate(30 24)">
    <use xlink:href="#rim"/>
    <path pointer-events="none" fill="none" stroke="white" stroke-width="1.5" d="M0,-3.0v7 M-2.5,-0.5L0,-3.0L2.5,-0.5"/>
  </g>
  <g id="arrowRight" transform="rotate(90) translate(36 -43)">
    <use xlink:href="#rim"/>
    <path pointer-events="none" fill="none" stroke="white" stroke-width="1.5" d="M0,-3.0v7 M-2.5,-0.5L0,-3.0L2.5,-0.5"/>
  </g>
  <g id="arrowDown" transform="rotate(180) translate(-30 -48)">
    <use xlink:href="#rim"/>
    <path pointer-events="none" fill="none" stroke="white" stroke-width="1.5" d="M0,-3.0v7 M-2.5,-0.5L0,-3.0L2.5,-0.5"/>
  </g>
  <g id="arrowLeft" transform="rotate(270) translate(-36 17)">
    <use xlink:href="#rim"/>
    <path pointer-events="none" fill="none" stroke="white" stroke-width="1.5" d="M0,-3.0v7 M-2.5,-0.5L0,-3.0L2.5,-0.5"/>
  </g>
  <g id="resetDef">
    <use xlink:href="#rim2" fill="#404040"><set attributeName="fill" to="#808080" begin="reset.mouseover" end="reset.mouseout"/></use>
  </g>
</defs>
<script type="application/ecmascript">
var viewWidth = 925;
var viewHeight = 577;
var sectionId = 'dynsection-0';
</script>
<script type="application/ecmascript" xlink:href="svg.min.js"/>
<svg id="graph" class="graph">
<g id="viewport">
<title>src/CCSDSPacket.cpp</title>
<!-- Node1 -->
<g id="Node000001" class="node">
<title>Node1</title>
<g id="a_Node000001"><a xlink:title=" ">
<polygon fill="#999999" stroke="#666666" points="511.5,-569 392.5,-569 392.5,-550 511.5,-550 511.5,-569"/>
<text text-anchor="middle" x="452" y="-557" font-family="Helvetica,sans-Serif" font-size="10.00">src/CCSDSPacket.cpp</text>
</a>
</g>
</g>
<!-- Node2 -->
<g id="Node000002" class="node">
<title>Node2</title>
<g id="a_Node000002"><a xlink:href="CCSDSPacket_8h.html" target="_top" xlink:title=" ">
<polygon fill="white" stroke="#666666" points="309,-349 219,-349 219,-330 309,-330 309,-349"/>
<text text-anchor="middle" x="264" y="-337" font-family="Helvetica,sans-Serif" font-size="10.00">CCSDSPacket.h</text>
</a>
</g>
</g>
<!-- Node1&#45;&gt;Node2 -->
<g id="edge1_Node000001_Node000002" class="edge">
<title>Node1&#45;&gt;Node2</title>
<g id="a_edge1_Node000001_Node000002"><a xlink:title=" ">
<path fill="none" stroke="#63b8ff" d="M444.59,-549.81C422.9,-524.38 357.64,-447.98 303,-385 294.82,-375.57 285.62,-365.07 278.21,-356.64"/>
<polygon fill="#63b8ff" stroke="#63b8ff" points="280.73,-354.21 271.5,-349.01 275.48,-358.83 280.73,-354.21"/>
</a>
</g>
</g>
<!-- Node10 -->
<g id="Node000010" class="node">
<title>Node10</title>
<g id="a_Node000010"><a xlink:href="CCSDSDataField_8h.html" target="_top" xlink:title=" ">
<polygon fill="white" stroke="#666666" points="542.5,-294 437.5,-294 437.5,-275 542.5,-275 542.5,-294"/>
<text text-anchor="middle" x="490" y="-282" font-family="Helvetica,sans-Serif" font-size="10.00">CCSDSDataField.h</text>
</a>
</g>
</g>
<!-- Node1&#45;&gt;Node10 -->
<g id="edge33_Node000001_Node000010" class="edge">
<title>Node1&#45;&gt;Node10</title>
<g id="a_edge33_Node000001_Node000010"><a xlink:title=" ">
<path fill="none" stroke="#63b8ff" d="M457.28,-549.9C467.73,-532.07 490,-489.46 490,-450.5 490,-450.5 490,-450.5 490,-393.5 490,-362.19 490,-325.77 490,-304.23"/>
<polygon fill="#63b8ff" stroke="#63b8ff" points="493.5,-304.18 490,-294.18 486.5,-304.18 493.5,-304.18"/>
</a>
</g>
</g>
<!-- Node17 -->
<g id="Node000017" class="node">
<title>Node17</title>
<g id="a_Node000017"><a xlink:href="CCSDSUtils_8h.html" target="_top" xlink:title=" ">
<polygon fill="white" stroke="#666666" points="378.5,-514 297.5,-514 297.5,-495 378.5,-495 378.5,-514"/>
<text text-anchor="middle" x="338" y="-502" font-family="Helvetica,sans-Serif" font-size="10.00">CCSDSUtils.h</text>
</a>
</g>
</g>
<!-- Node1&#45;&gt;Node17 -->
<g id="edge34_Node000001_Node000017" class="edge">
<title>Node1&#45;&gt;Node17</title>
<g id="a_edge34_Node000001_Node000017"><a xlink:title=" ">
<path fill="none" stroke="#63b8ff" d="M433.68,-549.98C415.34,-541.46 386.89,-528.23 365.77,-518.41"/>
<polygon fill="#63b8ff" stroke="#63b8ff" points="367.19,-515.21 356.65,-514.17 364.24,-521.56 367.19,-515.21"/>
</a>
</g>
</g>
<!-- Node3 -->
<g id="Node000003" class="node">
<title>Node3</title>
<g id="a_Node000003"><a xlink:href="CCSDSResult_8h.html" target="_top" xlink:title=" ">
<polygon fill="white" stroke="#666666" points="346.5,-74 257.5,-74 257.5,-55 346.5,-55 346.5,-74"/>
<text text-anchor="middle" x="302" y="-62" font-family="Helvetica,sans-Serif" font-size="10.00">CCSDSResult.h</text>
</a>
</g>
</g>
<!-- Node2&#45;&gt;Node3 -->
<g id="edge2_Node000002_Node000003" class="edge">
<title>Node2&#45;&gt;Node3</title>
<g id="a_edge2_Node000002_Node000003"><a xlink:title=" ">
<path fill="none" stroke="#63b8ff" d="M264,-329.82C264,-311.48 264,-267.44 264,-230.5 264,-230.5 264,-230.5 264,-173.5 264,-140.02 280.45,-103.84 291.7,-83.01"/>
<polygon fill="#63b8ff" stroke="#63b8ff" points="294.87,-84.53 296.72,-74.1 288.76,-81.1 294.87,-84.53"/>
</a>
</g>
</g>
<!-- Node6 -->
<g id="Node000006" class="node">
<title>Node6</title>
<g id="a_Node000006"><a xlink:title=" ">
<polygon fill="#e0e0e0" stroke="#999999" points="179.5,-19 132.5,-19 132.5,0 179.5,0 179.5,-19"/>
<text text-anchor="middle" x="156" y="-7" font-family="Helvetica,sans-Serif" font-size="10.00">vector</text>
</a>
</g>
</g>
<!-- Node2&#45;&gt;Node6 -->
<g id="edge9_Node000002_Node000006" class="edge">
<title>Node2&#45;&gt;Node6</title>
<g id="a_edge9_Node000002_Node000006"><a xlink:title=" ">
<path fill="none" stroke="#63b8ff" d="M218.97,-332.6C163.35,-322.5 76,-296.18 76,-230.5 76,-230.5 76,-230.5 76,-118.5 76,-78.81 111.32,-44.18 135.03,-25.41"/>
<polygon fill="#63b8ff" stroke="#63b8ff" points="137.31,-28.07 143.15,-19.23 133.07,-22.5 137.31,-28.07"/>
</a>
</g>
</g>
<!-- Node7 -->
<g id="Node000007" class="node">
<title>Node7</title>
<g id="a_Node000007"><a xlink:title=" ">
<polygon fill="#e0e0e0" stroke="#999999" points="744,-19 694,-19 694,0 744,0 744,-19"/>
<text text-anchor="middle" x="719" y="-7" font-family="Helvetica,sans-Serif" font-size="10.00">cstdint</text>
</a>
</g>
</g>
<!-- Node2&#45;&gt;Node7 -->
<g id="edge8_Node000002_Node000007" class="edge">
<title>Node2&#45;&gt;Node7</title>
<g id="a_edge8_Node000002_Node000007"><a xlink:title=" ">
<path fill="none" stroke="#63b8ff" d="M309.22,-335.34C451.25,-324.83 879,-288.36 879,-230.5 879,-230.5 879,-230.5 879,-118.5 879,-58.71 801.29,-29.8 754.18,-17.77"/>
<polygon fill="#63b8ff" stroke="#63b8ff" points="754.9,-14.34 744.35,-15.39 753.25,-21.15 754.9,-14.34"/>
</a>
</g>
</g>
<!-- Node9 -->
<g id="Node000009" class="node">
<title>Node9</title>
<g id="a_Node000009"><a xlink:href="CCSDSHeader_8h.html" target="_top" xlink:title=" ">
<polygon fill="white" stroke="#666666" points="235.5,-129 142.5,-129 142.5,-110 235.5,-110 235.5,-129"/>
<text text-anchor="middle" x="189" y="-117" font-family="Helvetica,sans-Serif" font-size="10.00">CCSDSHeader.h</text>
</a>
</g>
</g>
<!-- Node2&#45;&gt;Node9 -->
<g id="edge10_Node000002_Node000009" class="edge">
<title>Node2&#45;&gt;Node9</title>
<g id="a_edge10_Node000002_Node000009"><a xlink:title=" ">
<path fill="none" stroke="#63b8ff" d="M261.06,-329.95C250,-297.81 210.75,-183.72 195.31,-138.83"/>
<polygon fill="#63b8ff" stroke="#63b8ff" points="198.56,-137.54 192,-129.22 191.94,-139.82 198.56,-137.54"/>
</a>
</g>
</g>
<!-- Node2&#45;&gt;Node10 -->
<g id="edge14_Node000002_Node000010" class="edge">
<title>Node2&#45;&gt;Node10</title>
<g id="a_edge14_Node000002_Node000010"><a xlink:title=" ">
<path fill="none" stroke="#63b8ff" d="M300.31,-329.98C339.24,-320.86 401.16,-306.33 443.6,-296.38"/>
<polygon fill="#63b8ff" stroke="#63b8ff" points="444.47,-299.77 453.4,-294.08 442.87,-292.96 444.47,-299.77"/>
</a>
</g>
</g>
<!-- Node4 -->
<g id="Node000004" class="node">
<title>Node4</title>
<g id="a_Node000004"><a xlink:title=" ">
<polygon fill="#e0e0e0" stroke="#999999" points="606.5,-19 513.5,-19 513.5,0 606.5,0 606.5,-19"/>
<text text-anchor="middle" x="560" y="-7" font-family="Helvetica,sans-Serif" font-size="10.00">unordered_map</text>
</a>
</g>
</g>
<!-- Node3&#45;&gt;Node4 -->
<g id="edge3_Node000003_Node000004" class="edge">
<title>Node3&#45;&gt;Node4</title>
<g id="a_edge3_Node000003_Node000004"><a xlink:title=" ">
<path fill="none" stroke="#63b8ff" d="M343.45,-54.98C388.27,-45.78 459.77,-31.09 508.25,-21.13"/>
<polygon fill="#63b8ff" stroke="#63b8ff" points="509.13,-24.52 518.22,-19.08 507.72,-17.67 509.13,-24.52"/>
</a>
</g>
</g>
<!-- Node5 -->
<g id="Node000005" class="node">
<title>Node5</title>
<g id="a_Node000005"><a xlink:title=" ">
<polygon fill="#e0e0e0" stroke="#999999" points="271.5,-19 220.5,-19 220.5,0 271.5,0 271.5,-19"/>
<text text-anchor="middle" x="246" y="-7" font-family="Helvetica,sans-Serif" font-size="10.00">variant</text>
</a>
</g>
</g>
<!-- Node3&#45;&gt;Node5 -->
<g id="edge4_Node000003_Node000005" class="edge">
<title>Node3&#45;&gt;Node5</title>
<g id="a_edge4_Node000003_Node000005"><a xlink:title=" ">
<path fill="none" stroke="#63b8ff" d="M293,-54.98C284.81,-47.23 272.49,-35.58 262.53,-26.14"/>
<polygon fill="#63b8ff" stroke="#63b8ff" points="264.83,-23.5 255.16,-19.17 260.02,-28.59 264.83,-23.5"/>
</a>
</g>
</g>
<!-- Node3&#45;&gt;Node6 -->
<g id="edge5_Node000003_Node000006" class="edge">
<title>Node3&#45;&gt;Node6</title>
<g id="a_edge5_Node000003_Node000006"><a xlink:title=" ">
<path fill="none" stroke="#63b8ff" d="M278.54,-54.98C254.42,-46.23 216.63,-32.51 189.4,-22.62"/>
<polygon fill="#63b8ff" stroke="#63b8ff" points="190.48,-19.29 179.88,-19.17 188.09,-25.87 190.48,-19.29"/>
</a>
</g>
</g>
<!-- Node3&#45;&gt;Node7 -->
<g id="edge6_Node000003_Node000007" class="edge">
<title>Node3&#45;&gt;Node7</title>
<g id="a_edge6_Node000003_Node000007"><a xlink:title=" ">
<path fill="none" stroke="#63b8ff" d="M346.63,-57.83C430.1,-47.22 608.26,-24.57 683.88,-14.96"/>
<polygon fill="#63b8ff" stroke="#63b8ff" points="684.37,-18.43 693.85,-13.7 683.49,-11.48 684.37,-18.43"/>
</a>
</g>
</g>
<!-- Node8 -->
<g id="Node000008" class="node">
<title>Node8</title>
<g id="a_Node000008"><a xlink:title=" ">
<polygon fill="#e0e0e0" stroke="#999999" points="350,-19 290,-19 290,0 350,0 350,-19"/>
<text text-anchor="middle" x="320" y="-7" font-family="Helvetica,sans-Serif" font-size="10.00">iostream</text>
</a>
</g>
</g>
<!-- Node3&#45;&gt;Node8 -->
<g id="edge7_Node000003_Node000008" class="edge">
<title>Node3&#45;&gt;Node8</title>
<g id="a_edge7_Node000003_Node000008"><a xlink:title=" ">
<path fill="none" stroke="#63b8ff" d="M304.97,-54.75C307.36,-47.72 310.79,-37.62 313.77,-28.84"/>
<polygon fill="#63b8ff" stroke="#63b8ff" points="317.18,-29.68 317.08,-19.09 310.55,-27.43 317.18,-29.68"/>
</a>
</g>
</g>
<!-- Node9&#45;&gt;Node3 -->
<g id="edge11_Node000009_Node000003" class="edge">
<title>Node9&#45;&gt;Node3</title>
<g id="a_edge11_Node000009_Node000003"><a xlink:title=" ">
<path fill="none" stroke="#63b8ff" d="M207.16,-109.98C225.25,-101.5 253.28,-88.35 274.19,-78.54"/>
<polygon fill="#63b8ff" stroke="#63b8ff" points="275.95,-81.59 283.51,-74.17 272.97,-75.25 275.95,-81.59"/>
</a>
</g>
</g>
<!-- Node9&#45;&gt;Node6 -->
<g id="edge13_Node000009_Node000006" class="edge">
<title>Node9&#45;&gt;Node6</title>
<g id="a_edge13_Node000009_Node000006"><a xlink:title=" ">
<path fill="none" stroke="#63b8ff" d="M186.3,-109.66C180.93,-92.09 168.82,-52.45 161.64,-28.95"/>
<polygon fill="#63b8ff" stroke="#63b8ff" points="164.92,-27.7 158.65,-19.16 158.22,-29.74 164.92,-27.7"/>
</a>
</g>
</g>
<!-- Node9&#45;&gt;Node7 -->
<g id="edge12_Node000009_Node000007" class="edge">
<title>Node9&#45;&gt;Node7</title>
<g id="a_edge12_Node000009_Node000007"><a xlink:title=" ">
<path fill="none" stroke="#63b8ff" d="M231.03,-109.94C332.62,-89.23 590.05,-36.78 684,-17.63"/>
<polygon fill="#63b8ff" stroke="#63b8ff" points="684.76,-21.05 693.86,-15.62 683.36,-14.19 684.76,-21.05"/>
</a>
</g>
</g>
<!-- Node10&#45;&gt;Node3 -->
<g id="edge15_Node000010_Node000003" class="edge">
<title>Node10&#45;&gt;Node3</title>
<g id="a_edge15_Node000010_Node000003"><a xlink:title=" ">
<path fill="none" stroke="#63b8ff" d="M477.65,-274.94C465.71,-266.42 447.37,-252.67 433,-239 386.21,-194.47 375.22,-181.8 338,-129 327.63,-114.29 317.68,-96.36 310.89,-83.3"/>
<polygon fill="#63b8ff" stroke="#63b8ff" points="313.82,-81.36 306.16,-74.04 307.59,-84.54 313.82,-81.36"/>
</a>
</g>
</g>
<!-- Node10&#45;&gt;Node6 -->
<g id="edge17_Node000010_Node000006" class="edge">
<title>Node10&#45;&gt;Node6</title>
<g id="a_edge17_Node000010_Node000006"><a xlink:title=" ">
<path fill="none" stroke="#63b8ff" d="M437.36,-278.36C355.8,-267.24 201.22,-232.86 133,-129 112.47,-97.75 131.73,-52.5 145.29,-27.94"/>
<polygon fill="#63b8ff" stroke="#63b8ff" points="148.45,-29.47 150.45,-19.06 142.4,-25.95 148.45,-29.47"/>
</a>
</g>
</g>
<!-- Node10&#45;&gt;Node7 -->
<g id="edge16_Node000010_Node000007" class="edge">
<title>Node10&#45;&gt;Node7</title>
<g id="a_edge16_Node000010_Node000007"><a xlink:title=" ">
<path fill="none" stroke="#63b8ff" d="M542.55,-278.36C640.47,-267.32 841,-237.18 841,-175.5 841,-175.5 841,-175.5 841,-118.5 841,-70.85 788.18,-39.15 752.05,-23.04"/>
<polygon fill="#63b8ff" stroke="#63b8ff" points="753.38,-19.8 742.81,-19.09 750.63,-26.24 753.38,-19.8"/>
</a>
</g>
</g>
<!-- Node11 -->
<g id="Node000011" class="node">
<title>Node11</title>
<g id="a_Node000011"><a xlink:title=" ">
<polygon fill="#e0e0e0" stroke="#999999" points="813,-129 755,-129 755,-110 813,-110 813,-129"/>
<text text-anchor="middle" x="784" y="-117" font-family="Helvetica,sans-Serif" font-size="10.00">memory</text>
</a>
</g>
</g>
<!-- Node10&#45;&gt;Node11 -->
<g id="edge18_Node000010_Node000011" class="edge">
<title>Node10&#45;&gt;Node11</title>
<g id="a_edge18_Node000010_Node000011"><a xlink:title=" ">
<path fill="none" stroke="#63b8ff" d="M542.73,-278.52C604.5,-269.89 705.89,-246.55 765,-184 776.48,-171.86 781.05,-153.06 782.85,-139.07"/>
<polygon fill="#63b8ff" stroke="#63b8ff" points="786.34,-139.37 783.79,-129.09 779.37,-138.72 786.34,-139.37"/>
</a>
</g>
</g>
<!-- Node12 -->
<g id="Node000012" class="node">
<title>Node12</title>
<g id="a_Node000012"><a xlink:href="CCSDSSecondaryHeaderAbstract_8h.html" target="_top" xlink:title=" ">
<polygon fill="white" stroke="#666666" points="615.5,-129 430.5,-129 430.5,-110 615.5,-110 615.5,-129"/>
<text text-anchor="middle" x="523" y="-117" font-family="Helvetica,sans-Serif" font-size="10.00">CCSDSSecondaryHeaderAbstract.h</text>
</a>
</g>
</g>
<!-- Node10&#45;&gt;Node12 -->
<g id="edge19_Node000010_Node000012" class="edge">
<title>Node10&#45;&gt;Node12</title>
<g id="a_edge19_Node000010_Node000012"><a xlink:title=" ">
<path fill="none" stroke="#63b8ff" d="M503.49,-274.75C514.29,-266.87 528.65,-254.21 535,-239 548.89,-205.74 538.3,-162.84 530.13,-138.84"/>
<polygon fill="#63b8ff" stroke="#63b8ff" points="533.35,-137.45 526.64,-129.25 526.77,-139.84 533.35,-137.45"/>
</a>
</g>
</g>
<!-- Node13 -->
<g id="Node000013" class="node">
<title>Node13</title>
<g id="a_Node000013"><a xlink:href="CCSDSSecondaryHeaderFactory_8h.html" target="_top" xlink:title=" ">
<polygon fill="white" stroke="#666666" points="755.5,-184 576.5,-184 576.5,-165 755.5,-165 755.5,-184"/>
<text text-anchor="middle" x="666" y="-172" font-family="Helvetica,sans-Serif" font-size="10.00">CCSDSSecondaryHeaderFactory.h</text>
</a>
</g>
</g>
<!-- Node10&#45;&gt;Node13 -->
<g id="edge23_Node000010_Node000013" class="edge">
<title>Node10&#45;&gt;Node13</title>
<g id="a_edge23_Node000010_Node000013"><a xlink:title=" ">
<path fill="none" stroke="#63b8ff" d="M505.69,-274.89C521.55,-266.11 546.69,-251.97 568,-239 594.76,-222.71 624.92,-202.95 644.63,-189.84"/>
<polygon fill="#63b8ff" stroke="#63b8ff" points="646.77,-192.62 653.15,-184.16 642.89,-186.8 646.77,-192.62"/>
</a>
</g>
</g>
<!-- Node16 -->
<g id="Node000016" class="node">
<title>Node16</title>
<g id="a_Node000016"><a xlink:href="PusServices_8h.html" target="_top" xlink:title=" ">
<polygon fill="white" stroke="#666666" points="526,-239 442,-239 442,-220 526,-220 526,-239"/>
<text text-anchor="middle" x="484" y="-227" font-family="Helvetica,sans-Serif" font-size="10.00">PusServices.h</text>
</a>
</g>
</g>
<!-- Node10&#45;&gt;Node16 -->
<g id="edge29_Node000010_Node000016" class="edge">
<title>Node10&#45;&gt;Node16</title>
<g id="a_edge29_Node000010_Node000016"><a xlink:title=" ">
<path fill="none" stroke="#63b8ff" d="M489.01,-274.75C488.22,-267.8 487.1,-257.85 486.11,-249.13"/>
<polygon fill="#63b8ff" stroke="#63b8ff" points="489.58,-248.63 484.97,-239.09 482.62,-249.42 489.58,-248.63"/>
</a>
</g>
</g>
<!-- Node12&#45;&gt;Node3 -->
<g id="edge20_Node000012_Node000003" class="edge">
<title>Node12&#45;&gt;Node3</title>
<g id="a_edge20_Node000012_Node000003"><a xlink:title=" ">
<path fill="none" stroke="#63b8ff" d="M487.49,-109.98C449.51,-100.87 389.13,-86.4 347.64,-76.45"/>
<polygon fill="#63b8ff" stroke="#63b8ff" points="348.33,-73.01 337.79,-74.08 346.69,-79.82 348.33,-73.01"/>
</a>
</g>
</g>
<!-- Node12&#45;&gt;Node6 -->
<g id="edge21_Node000012_Node000006" class="edge">
<title>Node12&#45;&gt;Node6</title>
<g id="a_edge21_Node000012_Node000006"><a xlink:title=" ">
<path fill="none" stroke="#63b8ff" d="M503.14,-109.94C472.03,-96.78 409.67,-71.35 355,-55 297.71,-37.86 229.39,-23.97 189.53,-16.5"/>
<polygon fill="#63b8ff" stroke="#63b8ff" points="190.03,-13.03 179.56,-14.65 188.76,-19.91 190.03,-13.03"/>
</a>
</g>
</g>
<!-- Node12&#45;&gt;Node7 -->
<g id="edge22_Node000012_Node000007" class="edge">
<title>Node12&#45;&gt;Node7</title>
<g id="a_edge22_Node000012_Node000007"><a xlink:title=" ">
<path fill="none" stroke="#63b8ff" d="M538.71,-109.84C572.77,-91.08 653.63,-46.52 694.48,-24.01"/>
<polygon fill="#63b8ff" stroke="#63b8ff" points="696.42,-26.94 703.49,-19.05 693.04,-20.81 696.42,-26.94"/>
</a>
</g>
</g>
<!-- Node13&#45;&gt;Node4 -->
<g id="edge25_Node000013_Node000004" class="edge">
<title>Node13&#45;&gt;Node4</title>
<g id="a_edge25_Node000013_Node000004"><a xlink:title=" ">
<path fill="none" stroke="#63b8ff" d="M678.67,-164.99C694.71,-153.1 719,-130.65 708,-110 684.32,-65.54 630.96,-37.4 595.21,-22.8"/>
<polygon fill="#63b8ff" stroke="#63b8ff" points="596.22,-19.43 585.63,-19.04 593.66,-25.95 596.22,-19.43"/>
</a>
</g>
</g>
<!-- Node13&#45;&gt;Node11 -->
<g id="edge24_Node000013_Node000011" class="edge">
<title>Node13&#45;&gt;Node11</title>
<g id="a_edge24_Node000013_Node000011"><a xlink:title=" ">
<path fill="none" stroke="#63b8ff" d="M684.96,-164.98C704.03,-156.42 733.66,-143.11 755.55,-133.28"/>
<polygon fill="#63b8ff" stroke="#63b8ff" points="757.01,-136.46 764.7,-129.17 754.14,-130.07 757.01,-136.46"/>
</a>
</g>
</g>
<!-- Node13&#45;&gt;Node12 -->
<g id="edge28_Node000013_Node000012" class="edge">
<title>Node13&#45;&gt;Node12</title>
<g id="a_edge28_Node000013_Node000012"><a xlink:title=" ">
<path fill="none" stroke="#63b8ff" d="M643.02,-164.98C619.5,-156.27 582.71,-142.63 556.06,-132.75"/>
<polygon fill="#63b8ff" stroke="#63b8ff" points="556.99,-129.36 546.39,-129.17 554.55,-135.93 556.99,-129.36"/>
</a>
</g>
</g>
<!-- Node14 -->
<g id="Node000014" class="node">
<title>Node14</title>
<g id="a_Node000014"><a xlink:title=" ">
<polygon fill="#e0e0e0" stroke="#999999" points="698.5,-129 633.5,-129 633.5,-110 698.5,-110 698.5,-129"/>
<text text-anchor="middle" x="666" y="-117" font-family="Helvetica,sans-Serif" font-size="10.00">functional</text>
</a>
</g>
</g>
<!-- Node13&#45;&gt;Node14 -->
<g id="edge26_Node000013_Node000014" class="edge">
<title>Node13&#45;&gt;Node14</title>
<g id="a_edge26_Node000013_Node000014"><a xlink:title=" ">
<path fill="none" stroke="#63b8ff" d="M666,-164.75C666,-157.8 666,-147.85 666,-139.13"/>
<polygon fill="#63b8ff" stroke="#63b8ff" points="669.5,-139.09 666,-129.09 662.5,-139.09 669.5,-139.09"/>
</a>
</g>
</g>
<!-- Node15 -->
<g id="Node000015" class="node">
<title>Node15</title>
<g id="a_Node000015"><a xlink:title=" ">
<polygon fill="#e0e0e0" stroke="#999999" points="412,-129 368,-129 368,-110 412,-110 412,-129"/>
<text text-anchor="middle" x="390" y="-117" font-family="Helvetica,sans-Serif" font-size="10.00">string</text>
</a>
</g>
</g>
<!-- Node13&#45;&gt;Node15 -->
<g id="edge27_Node000013_Node000015" class="edge">
<title>Node13&#45;&gt;Node15</title>
<g id="a_edge27_Node000013_Node000015"><a xlink:title=" ">
<path fill="none" stroke="#63b8ff" d="M611.23,-164.97C563.63,-157.23 492.65,-144.93 422.22,-129.12"/>
<polygon fill="#63b8ff" stroke="#63b8ff" points="422.82,-125.67 412.29,-126.86 421.27,-132.49 422.82,-125.67"/>
</a>
</g>
</g>
<!-- Node16&#45;&gt;Node3 -->
<g id="edge32_Node000016_Node000003" class="edge">
<title>Node16&#45;&gt;Node3</title>
<g id="a_edge32_Node000016_Node000003"><a xlink:title=" ">
<path fill="none" stroke="#63b8ff" d="M471.74,-219.8C448.69,-203.23 397.76,-165.53 359,-129 343.08,-114 326.56,-95.18 315.43,-81.93"/>
<polygon fill="#63b8ff" stroke="#63b8ff" points="318.04,-79.59 308.96,-74.13 312.65,-84.06 318.04,-79.59"/>
</a>
</g>
</g>
<!-- Node16&#45;&gt;Node12 -->
<g id="edge30_Node000016_Node000012" class="edge">
<title>Node16&#45;&gt;Node12</title>
<g id="a_edge30_Node000016_Node000012"><a xlink:title=" ">
<path fill="none" stroke="#63b8ff" d="M487.19,-219.66C493.57,-202.01 507.98,-162.09 516.45,-138.64"/>
<polygon fill="#63b8ff" stroke="#63b8ff" points="519.77,-139.75 519.87,-129.16 513.18,-137.38 519.77,-139.75"/>
</a>
</g>
</g>
<!-- Node16&#45;&gt;Node13 -->
<g id="edge31_Node000016_Node000013" class="edge">
<title>Node16&#45;&gt;Node13</title>
<g id="a_edge31_Node000016_Node000013"><a xlink:title=" ">
<path fill="none" stroke="#63b8ff" d="M513.24,-219.98C544.06,-211.01 592.78,-196.82 626.89,-186.89"/>
<polygon fill="#63b8ff" stroke="#63b8ff" points="627.91,-190.24 636.53,-184.08 625.95,-183.52 627.91,-190.24"/>
</a>
</g>
</g>
<!-- Node17&#45;&gt;Node2 -->
<g id="edge35_Node000017_Node000002" class="edge">
<title>Node17&#45;&gt;Node2</title>
<g id="a_edge35_Node000017_Node000002"><a xlink:title=" ">
<path fill="none" stroke="#63b8ff" d="M334.02,-494.74C322.38,-469.09 288.19,-393.78 272.3,-358.78"/>
<polygon fill="#63b8ff" stroke="#63b8ff" points="275.32,-356.97 268,-349.31 268.95,-359.86 275.32,-356.97"/>
</a>
</g>
</g>
<!-- Node17&#45;&gt;Node6 -->
<g id="edge44_Node000017_Node000006" class="edge">
<title>Node17&#45;&gt;Node6</title>
<g id="a_edge44_Node000017_Node000006"><a xlink:title=" ">
<path fill="none" stroke="#63b8ff" d="M297.23,-499.18C207.33,-488.53 0,-457.26 0,-395.5 0,-395.5 0,-395.5 0,-118.5 0,-59.4 76.64,-30.09 122.48,-17.84"/>
<polygon fill="#63b8ff" stroke="#63b8ff" points="123.47,-21.2 132.31,-15.35 121.75,-14.42 123.47,-21.2"/>
</a>
</g>
</g>
<!-- Node17&#45;&gt;Node7 -->
<g id="edge43_Node000017_Node000007" class="edge">
<title>Node17&#45;&gt;Node7</title>
<g id="a_edge43_Node000017_Node000007"><a xlink:title=" ">
<path fill="none" stroke="#63b8ff" d="M357.26,-494.99C457.73,-450.51 917,-246.34 917,-230.5 917,-230.5 917,-230.5 917,-118.5 917,-45.14 810.97,-21.32 754.09,-13.81"/>
<polygon fill="#63b8ff" stroke="#63b8ff" points="754.43,-10.32 744.08,-12.59 753.58,-17.27 754.43,-10.32"/>
</a>
</g>
</g>
<!-- Node17&#45;&gt;Node15 -->
<g id="edge42_Node000017_Node000015" class="edge">
<title>Node17&#45;&gt;Node15</title>
<g id="a_edge42_Node000017_Node000015"><a xlink:title=" ">
<path fill="none" stroke="#63b8ff" d="M343.28,-494.9C353.73,-477.07 376,-434.46 376,-395.5 376,-395.5 376,-395.5 376,-283.5 376,-231.11 383.27,-169.61 387.33,-139.31"/>
<polygon fill="#63b8ff" stroke="#63b8ff" points="390.81,-139.7 388.71,-129.31 383.88,-138.74 390.81,-139.7"/>
</a>
</g>
</g>
<!-- Node18 -->
<g id="Node000018" class="node">
<title>Node18</title>
<g id="a_Node000018"><a xlink:href="CCSDSManager_8h.html" target="_top" xlink:title=" ">
<polygon fill="white" stroke="#666666" points="261.5,-459 160.5,-459 160.5,-440 261.5,-440 261.5,-459"/>
<text text-anchor="middle" x="211" y="-447" font-family="Helvetica,sans-Serif" font-size="10.00">CCSDSManager.h</text>
</a>
</g>
</g>
<!-- Node17&#45;&gt;Node18 -->
<g id="edge36_Node000017_Node000018" class="edge">
<title>Node17&#45;&gt;Node18</title>
<g id="a_edge36_Node000017_Node000018"><a xlink:title=" ">
<path fill="none" stroke="#63b8ff" d="M317.6,-494.98C296.98,-486.38 264.89,-472.99 241.31,-463.15"/>
<polygon fill="#63b8ff" stroke="#63b8ff" points="242.35,-459.79 231.78,-459.17 239.66,-466.25 242.35,-459.79"/>
</a>
</g>
</g>
<!-- Node18&#45;&gt;Node2 -->
<g id="edge38_Node000018_Node000002" class="edge">
<title>Node18&#45;&gt;Node2</title>
<g id="a_edge38_Node000018_Node000002"><a xlink:title=" ">
<path fill="none" stroke="#63b8ff" d="M218.18,-439.76C225.02,-431.1 235.25,-417.26 242,-404 249.44,-389.38 255.35,-371.66 259.16,-358.66"/>
<polygon fill="#63b8ff" stroke="#63b8ff" points="262.53,-359.59 261.85,-349.02 255.79,-357.71 262.53,-359.59"/>
</a>
</g>
</g>
<!-- Node18&#45;&gt;Node3 -->
<g id="edge39_Node000018_Node000003" class="edge">
<title>Node18&#45;&gt;Node3</title>
<g id="a_edge39_Node000018_Node000003"><a xlink:title=" ">
<path fill="none" stroke="#63b8ff" d="M160.3,-445.25C127.83,-440.61 86.89,-429.66 60,-404 38.39,-383.38 38,-370.37 38,-340.5 38,-340.5 38,-340.5 38,-173.5 38,-83.93 169.8,-67.02 247.14,-64.8"/>
<polygon fill="#63b8ff" stroke="#63b8ff" points="247.29,-68.3 257.22,-64.59 247.14,-61.3 247.29,-68.3"/>
</a>
</g>
</g>
<!-- Node19 -->
<g id="Node000019" class="node">
<title>Node19</title>
<g id="a_Node000019"><a xlink:title=" ">
<polygon fill="#e0e0e0" stroke="#999999" points="233.5,-404 188.5,-404 188.5,-385 233.5,-385 233.5,-404"/>
<text text-anchor="middle" x="211" y="-392" font-family="Helvetica,sans-Serif" font-size="10.00">utility</text>
</a>
</g>
</g>
<!-- Node18&#45;&gt;Node19 -->
<g id="edge37_Node000018_Node000019" class="edge">
<title>Node18&#45;&gt;Node19</title>
<g id="a_edge37_Node000018_Node000019"><a xlink:title=" ">
<path fill="none" stroke="#63b8ff" d="M211,-439.75C211,-432.8 211,-422.85 211,-414.13"/>
<polygon fill="#63b8ff" stroke="#63b8ff" points="214.5,-414.09 211,-404.09 207.5,-414.09 214.5,-414.09"/>
</a>
</g>
</g>
<!-- Node20 -->
<g id="Node000020" class="node">
<title>Node20</title>
<g id="a_Node000020"><a xlink:href="CCSDSValidator_8h.html" target="_top" xlink:title="Defines the Validator class for CCSDS packet validation.">
<polygon fill="white" stroke="#666666" points="170.5,-404 69.5,-404 69.5,-385 170.5,-385 170.5,-404"/>
<text text-anchor="middle" x="120" y="-392" font-family="Helvetica,sans-Serif" font-size="10.00">CCSDSValidator.h</text>
</a>
</g>
</g>
<!-- Node18&#45;&gt;Node20 -->
<g id="edge40_Node000018_Node000020" class="edge">
<title>Node18&#45;&gt;Node20</title>
<g id="a_edge40_Node000018_Node000020"><a xlink:title=" ">
<path fill="none" stroke="#63b8ff" d="M196.38,-439.98C182.14,-431.69 160.25,-418.94 143.55,-409.22"/>
<polygon fill="#63b8ff" stroke="#63b8ff" points="145.29,-406.18 134.89,-404.17 141.77,-412.23 145.29,-406.18"/>
</a>
</g>
</g>
<!-- Node20&#45;&gt;Node2 -->
<g id="edge41_Node000020_Node000002" class="edge">
<title>Node20&#45;&gt;Node2</title>
<g id="a_edge41_Node000020_Node000002"><a xlink:title=" ">
<path fill="none" stroke="#63b8ff" d="M143.14,-384.98C166.82,-376.27 203.87,-362.63 230.71,-352.75"/>
<polygon fill="#63b8ff" stroke="#63b8ff" points="232.27,-355.91 240.44,-349.17 229.85,-349.34 232.27,-355.91"/>
</a>
</g>
</g>
</g>
</svg>

<g id="navigator" transform="translate(0 0)" fill="#404254">
  <rect fill="#f2f5e9" fill-opacity="0.5" stroke="#606060" stroke-width=".5" x="0" y="0" width="60" height="60"/>
  <use id="zoomplus" xlink:href="#zoomPlus" x="17" y="9" onmousedown="handleZoom(evt,'in')"/>
  <use id="zoomminus" xlink:href="#zoomMin" x="42" y="9" onmousedown="handleZoom(evt,'out')"/>
  <use id="reset" xlink:href="#resetDef" x="30" y="36" onmousedown="handleReset()"/>
   <use id="arrowup" xlink:href="#arrowUp" x="0" y="0" onmousedown="handlePan(0,-1)"/>
  <use id="arrowright" xlink:href="#arrowRight" x="0" y="0" onmousedown="handlePan(1,0)"/>
  <use id="arrowdown" xlink:href="#arrowDown" x="0" y="0" onmousedown="handlePan(0,1)"/>
  <use id="arrowleft" xlink:href="#arrowLeft" x="0" y="0" onmousedown="handlePan(-1,0)"/>
</g>
<svg viewBox="0 0 15 15" width="100%" height="30px" preserveAspectRatio="xMaxYMin meet">
 <g id="arrow_out" transform="scale(0.3 0.3)">
  <a xlink:href="CCSDSPacket_8cpp__incl_org.svg" target="_base">
   <rect id="button" ry="5" rx="5" y="6" x="6" height="38" width="38"
        fill="#f2f5e9" fill-opacity="0.5" stroke="#606060" stroke-width="1.0"/>
   <path id="arrow"
     d="M 11.500037,31.436501 C 11.940474,20.09759 22.043105,11.32322 32.158766,21.979434 L 37.068811,17.246167 C 37.068811,17.246167 37.088388,32 37.088388,32 L 22.160133,31.978069 C 22.160133,31.978069 26.997745,27.140456 26.997745,27.140456 C 18.528582,18.264221 13.291696,25.230495 11.500037,31.436501 z"
     style="fill:#404040;"/>
  </a>
 </g>
</svg>

<style type='text/css'>
<![CDATA[
[data-mouse-over-selected='false'] { opacity: 0.7; }
[data-mouse-over-selected='true']  { opacity: 1.0; }
]]>
</style>
<script type="application/ecmascript"><![CDATA[
document.addEventListener('DOMContentLoaded', (event) => {
  highlightEdges();
  highlightAdjacentNodes();
});
]]></script>
</svg>
