<?xml version="1.0" encoding="UTF-8" standalone="no"?>
<!DOCTYPE svg PUBLIC "-//W3C//DTD SVG 1.1//EN"
 "http://www.w3.org/Graphics/SVG/1.1/DTD/svg11.dtd">
<!-- Generated by graphviz version 2.43.0 (0)
 -->
<!-- Title: src/CCSDSDataField.cpp Pages: 1 -->
<svg width="975pt" height="577pt"
 viewBox="0.00 0.00 974.55 577.00" xmlns="http://www.w3.org/2000/svg" xmlns:xlink="http://www.w3.org/1999/xlink">
<g id="graph0" class="graph" transform="scale(1 1) rotate(0) translate(4 573)">
<title>src/CCSDSDataField.cpp</title>
<!-- Node1 -->
<g id="Node000001" class="node">
<title>Node1</title>
<g id="a_Node000001"><a xlink:title=" ">
<polygon fill="#999999" stroke="#666666" points="441,-569 307,-569 307,-550 441,-550 441,-569"/>
<text text-anchor="middle" x="374" y="-557" font-family="Helvetica,sans-Serif" font-size="10.00">src/CCSDSDataField.cpp</text>
</a>
</g>
</g>
<!-- Node2 -->
<g id="Node000002" class="node">
<title>Node2</title>
<g id="a_Node000002"><a xlink:href="CCSDSDataField_8h.html" target="_top" xlink:title=" ">
<polygon fill="white" stroke="#666666" points="518.5,-294 413.5,-294 413.5,-275 518.5,-275 518.5,-294"/>
<text text-anchor="middle" x="466" y="-282" font-family="Helvetica,sans-Serif" font-size="10.00">CCSDSDataField.h</text>
</a>
</g>
</g>
<!-- Node1&#45;&gt;Node2 -->
<g id="edge1_Node000001_Node000002" class="edge">
<title>Node1&#45;&gt;Node2</title>
<g id="a_edge1_Node000001_Node000002"><a xlink:title=" ">
<path fill="none" stroke="#63b8ff" d="M384.33,-549.87C403.35,-532.93 442,-493.26 442,-450.5 442,-450.5 442,-450.5 442,-393.5 442,-361.28 452.31,-324.91 459.41,-303.66"/>
<polygon fill="#63b8ff" stroke="#63b8ff" points="462.78,-304.63 462.76,-294.04 456.17,-302.33 462.78,-304.63"/>
</a>
</g>
</g>
<!-- Node8 -->
<g id="Node000008" class="node">
<title>Node8</title>
<g id="a_Node000008"><a xlink:title=" ">
<polygon fill="#e0e0e0" stroke="#999999" points="88,-19 28,-19 28,0 88,0 88,-19"/>
<text text-anchor="middle" x="58" y="-7" font-family="Helvetica,sans-Serif" font-size="10.00">iostream</text>
</a>
</g>
</g>
<!-- Node1&#45;&gt;Node8 -->
<g id="edge45_Node000001_Node000008" class="edge">
<title>Node1&#45;&gt;Node8</title>
<g id="a_edge45_Node000001_Node000008"><a xlink:title=" ">
<path fill="none" stroke="#63b8ff" d="M306.7,-552.92C199.03,-542.11 0,-513.61 0,-450.5 0,-450.5 0,-450.5 0,-118.5 0,-82.37 25.5,-46.67 42.69,-26.71"/>
<polygon fill="#63b8ff" stroke="#63b8ff" points="45.38,-28.95 49.44,-19.17 40.16,-24.28 45.38,-28.95"/>
</a>
</g>
</g>
<!-- Node11 -->
<g id="Node000011" class="node">
<title>Node11</title>
<g id="a_Node000011"><a xlink:href="CCSDSSecondaryHeaderFactory_8h.html" target="_top" xlink:title=" ">
<polygon fill="white" stroke="#666666" points="837.5,-184 658.5,-184 658.5,-165 837.5,-165 837.5,-184"/>
<text text-anchor="middle" x="748" y="-172" font-family="Helvetica,sans-Serif" font-size="10.00">CCSDSSecondaryHeaderFactory.h</text>
</a>
</g>
</g>
<!-- Node1&#45;&gt;Node11 -->
<g id="edge25_Node000001_Node000011" class="edge">
<title>Node1&#45;&gt;Node11</title>
<g id="a_edge25_Node000001_Node000011"><a xlink:title=" ">
<path fill="none" stroke="#63b8ff" d="M441.48,-556.37C567.95,-550.53 828,-528.99 828,-450.5 828,-450.5 828,-450.5 828,-283.5 828,-243.81 792.68,-209.18 768.97,-190.41"/>
<polygon fill="#63b8ff" stroke="#63b8ff" points="770.93,-187.5 760.85,-184.23 766.69,-193.07 770.93,-187.5"/>
</a>
</g>
</g>
<!-- Node15 -->
<g id="Node000015" class="node">
<title>Node15</title>
<g id="a_Node000015"><a xlink:href="CCSDSUtils_8h.html" target="_top" xlink:title=" ">
<polygon fill="white" stroke="#666666" points="340.5,-514 259.5,-514 259.5,-495 340.5,-495 340.5,-514"/>
<text text-anchor="middle" x="300" y="-502" font-family="Helvetica,sans-Serif" font-size="10.00">CCSDSUtils.h</text>
</a>
</g>
</g>
<!-- Node1&#45;&gt;Node15 -->
<g id="edge26_Node000001_Node000015" class="edge">
<title>Node1&#45;&gt;Node15</title>
<g id="a_edge26_Node000001_Node000015"><a xlink:title=" ">
<path fill="none" stroke="#63b8ff" d="M362.11,-549.98C350.85,-541.92 333.71,-529.65 320.29,-520.03"/>
<polygon fill="#63b8ff" stroke="#63b8ff" points="322.27,-517.15 312.11,-514.17 318.2,-522.84 322.27,-517.15"/>
</a>
</g>
</g>
<!-- Node19 -->
<g id="Node000019" class="node">
<title>Node19</title>
<g id="a_Node000019"><a xlink:title=" ">
<polygon fill="#e0e0e0" stroke="#999999" points="389.5,-404 344.5,-404 344.5,-385 389.5,-385 389.5,-404"/>
<text text-anchor="middle" x="367" y="-392" font-family="Helvetica,sans-Serif" font-size="10.00">utility</text>
</a>
</g>
</g>
<!-- Node1&#45;&gt;Node19 -->
<g id="edge46_Node000001_Node000019" class="edge">
<title>Node1&#45;&gt;Node19</title>
<g id="a_edge46_Node000001_Node000019"><a xlink:title=" ">
<path fill="none" stroke="#63b8ff" d="M373.62,-549.74C372.53,-524.31 369.34,-450.08 367.82,-414.69"/>
<polygon fill="#63b8ff" stroke="#63b8ff" points="371.3,-414.15 367.38,-404.31 364.31,-414.45 371.3,-414.15"/>
</a>
</g>
</g>
<!-- Node3 -->
<g id="Node000003" class="node">
<title>Node3</title>
<g id="a_Node000003"><a xlink:href="CCSDSResult_8h.html" target="_top" xlink:title=" ">
<polygon fill="white" stroke="#666666" points="348.5,-74 259.5,-74 259.5,-55 348.5,-55 348.5,-74"/>
<text text-anchor="middle" x="304" y="-62" font-family="Helvetica,sans-Serif" font-size="10.00">CCSDSResult.h</text>
</a>
</g>
</g>
<!-- Node2&#45;&gt;Node3 -->
<g id="edge2_Node000002_Node000003" class="edge">
<title>Node2&#45;&gt;Node3</title>
<g id="a_edge2_Node000002_Node000003"><a xlink:title=" ">
<path fill="none" stroke="#63b8ff" d="M459.65,-274.95C435.51,-242.47 349.18,-126.29 316.58,-82.43"/>
<polygon fill="#63b8ff" stroke="#63b8ff" points="319.26,-80.16 310.48,-74.22 313.64,-84.34 319.26,-80.16"/>
</a>
</g>
</g>
<!-- Node6 -->
<g id="Node000006" class="node">
<title>Node6</title>
<g id="a_Node000006"><a xlink:title=" ">
<polygon fill="#e0e0e0" stroke="#999999" points="470.5,-19 423.5,-19 423.5,0 470.5,0 470.5,-19"/>
<text text-anchor="middle" x="447" y="-7" font-family="Helvetica,sans-Serif" font-size="10.00">vector</text>
</a>
</g>
</g>
<!-- Node2&#45;&gt;Node6 -->
<g id="edge9_Node000002_Node000006" class="edge">
<title>Node2&#45;&gt;Node6</title>
<g id="a_edge9_Node000002_Node000006"><a xlink:title=" ">
<path fill="none" stroke="#63b8ff" d="M514.3,-274.96C538.57,-268.56 566.99,-257.58 587,-239 632.06,-197.16 668.83,-162.61 637,-110 602.93,-53.7 525.35,-27.71 480.57,-17.02"/>
<polygon fill="#63b8ff" stroke="#63b8ff" points="481.26,-13.59 470.74,-14.79 479.72,-20.41 481.26,-13.59"/>
</a>
</g>
</g>
<!-- Node7 -->
<g id="Node000007" class="node">
<title>Node7</title>
<g id="a_Node000007"><a xlink:title=" ">
<polygon fill="#e0e0e0" stroke="#999999" points="176,-19 126,-19 126,0 176,0 176,-19"/>
<text text-anchor="middle" x="151" y="-7" font-family="Helvetica,sans-Serif" font-size="10.00">cstdint</text>
</a>
</g>
</g>
<!-- Node2&#45;&gt;Node7 -->
<g id="edge8_Node000002_Node000007" class="edge">
<title>Node2&#45;&gt;Node7</title>
<g id="a_edge8_Node000002_Node000007"><a xlink:title=" ">
<path fill="none" stroke="#63b8ff" d="M413.3,-278.39C315.11,-267.4 114,-237.35 114,-175.5 114,-175.5 114,-175.5 114,-118.5 114,-85.12 130.02,-48.91 140.98,-28.04"/>
<polygon fill="#63b8ff" stroke="#63b8ff" points="144.13,-29.57 145.86,-19.12 137.99,-26.21 144.13,-29.57"/>
</a>
</g>
</g>
<!-- Node9 -->
<g id="Node000009" class="node">
<title>Node9</title>
<g id="a_Node000009"><a xlink:title=" ">
<polygon fill="#e0e0e0" stroke="#999999" points="864,-129 806,-129 806,-110 864,-110 864,-129"/>
<text text-anchor="middle" x="835" y="-117" font-family="Helvetica,sans-Serif" font-size="10.00">memory</text>
</a>
</g>
</g>
<!-- Node2&#45;&gt;Node9 -->
<g id="edge10_Node000002_Node000009" class="edge">
<title>Node2&#45;&gt;Node9</title>
<g id="a_edge10_Node000002_Node000009"><a xlink:title=" ">
<path fill="none" stroke="#63b8ff" d="M518.65,-277.85C613.84,-266.39 808.35,-236.94 847,-184 856.69,-170.73 851.36,-151.86 845.03,-138.14"/>
<polygon fill="#63b8ff" stroke="#63b8ff" points="848.13,-136.51 840.45,-129.22 841.91,-139.71 848.13,-136.51"/>
</a>
</g>
</g>
<!-- Node10 -->
<g id="Node000010" class="node">
<title>Node10</title>
<g id="a_Node000010"><a xlink:href="CCSDSSecondaryHeaderAbstract_8h.html" target="_top" xlink:title=" ">
<polygon fill="white" stroke="#666666" points="628.5,-129 443.5,-129 443.5,-110 628.5,-110 628.5,-129"/>
<text text-anchor="middle" x="536" y="-117" font-family="Helvetica,sans-Serif" font-size="10.00">CCSDSSecondaryHeaderAbstract.h</text>
</a>
</g>
</g>
<!-- Node2&#45;&gt;Node10 -->
<g id="edge11_Node000002_Node000010" class="edge">
<title>Node2&#45;&gt;Node10</title>
<g id="a_edge11_Node000002_Node000010"><a xlink:title=" ">
<path fill="none" stroke="#63b8ff" d="M468.09,-274.7C471.16,-262.28 477.36,-239.01 485,-220 496.96,-190.25 514.72,-157.46 525.82,-137.94"/>
<polygon fill="#63b8ff" stroke="#63b8ff" points="528.99,-139.45 530.95,-129.03 522.92,-135.95 528.99,-139.45"/>
</a>
</g>
</g>
<!-- Node2&#45;&gt;Node11 -->
<g id="edge15_Node000002_Node000011" class="edge">
<title>Node2&#45;&gt;Node11</title>
<g id="a_edge15_Node000002_Node000011"><a xlink:title=" ">
<path fill="none" stroke="#63b8ff" d="M517.18,-274.98C553.49,-267.92 602.87,-256.23 644,-239 675.14,-225.96 707.86,-204.51 728.1,-190.19"/>
<polygon fill="#63b8ff" stroke="#63b8ff" points="730.39,-192.86 736.47,-184.18 726.31,-187.17 730.39,-192.86"/>
</a>
</g>
</g>
<!-- Node14 -->
<g id="Node000014" class="node">
<title>Node14</title>
<g id="a_Node000014"><a xlink:href="PusServices_8h.html" target="_top" xlink:title=" ">
<polygon fill="white" stroke="#666666" points="578,-239 494,-239 494,-220 578,-220 578,-239"/>
<text text-anchor="middle" x="536" y="-227" font-family="Helvetica,sans-Serif" font-size="10.00">PusServices.h</text>
</a>
</g>
</g>
<!-- Node2&#45;&gt;Node14 -->
<g id="edge21_Node000002_Node000014" class="edge">
<title>Node2&#45;&gt;Node14</title>
<g id="a_edge21_Node000002_Node000014"><a xlink:title=" ">
<path fill="none" stroke="#63b8ff" d="M477.25,-274.98C487.8,-267 503.8,-254.88 516.44,-245.31"/>
<polygon fill="#63b8ff" stroke="#63b8ff" points="518.69,-248 524.55,-239.17 514.46,-242.42 518.69,-248"/>
</a>
</g>
</g>
<!-- Node4 -->
<g id="Node000004" class="node">
<title>Node4</title>
<g id="a_Node000004"><a xlink:title=" ">
<polygon fill="#e0e0e0" stroke="#999999" points="737.5,-19 644.5,-19 644.5,0 737.5,0 737.5,-19"/>
<text text-anchor="middle" x="691" y="-7" font-family="Helvetica,sans-Serif" font-size="10.00">unordered_map</text>
</a>
</g>
</g>
<!-- Node3&#45;&gt;Node4 -->
<g id="edge3_Node000003_Node000004" class="edge">
<title>Node3&#45;&gt;Node4</title>
<g id="a_edge3_Node000003_Node000004"><a xlink:title=" ">
<path fill="none" stroke="#63b8ff" d="M348.77,-57.37C419.42,-47.69 556.66,-28.9 634.16,-18.28"/>
<polygon fill="#63b8ff" stroke="#63b8ff" points="634.79,-21.73 644.23,-16.91 633.84,-14.8 634.79,-21.73"/>
</a>
</g>
</g>
<!-- Node5 -->
<g id="Node000005" class="node">
<title>Node5</title>
<g id="a_Node000005"><a xlink:title=" ">
<polygon fill="#e0e0e0" stroke="#999999" points="329.5,-19 278.5,-19 278.5,0 329.5,0 329.5,-19"/>
<text text-anchor="middle" x="304" y="-7" font-family="Helvetica,sans-Serif" font-size="10.00">variant</text>
</a>
</g>
</g>
<!-- Node3&#45;&gt;Node5 -->
<g id="edge4_Node000003_Node000005" class="edge">
<title>Node3&#45;&gt;Node5</title>
<g id="a_edge4_Node000003_Node000005"><a xlink:title=" ">
<path fill="none" stroke="#63b8ff" d="M304,-54.75C304,-47.8 304,-37.85 304,-29.13"/>
<polygon fill="#63b8ff" stroke="#63b8ff" points="307.5,-29.09 304,-19.09 300.5,-29.09 307.5,-29.09"/>
</a>
</g>
</g>
<!-- Node3&#45;&gt;Node6 -->
<g id="edge5_Node000003_Node000006" class="edge">
<title>Node3&#45;&gt;Node6</title>
<g id="a_edge5_Node000003_Node000006"><a xlink:title=" ">
<path fill="none" stroke="#63b8ff" d="M326.98,-54.98C350.5,-46.27 387.29,-32.63 413.94,-22.75"/>
<polygon fill="#63b8ff" stroke="#63b8ff" points="415.45,-25.93 423.61,-19.17 413.01,-19.36 415.45,-25.93"/>
</a>
</g>
</g>
<!-- Node3&#45;&gt;Node7 -->
<g id="edge6_Node000003_Node000007" class="edge">
<title>Node3&#45;&gt;Node7</title>
<g id="a_edge6_Node000003_Node000007"><a xlink:title=" ">
<path fill="none" stroke="#63b8ff" d="M279.42,-54.98C253.95,-46.16 213.96,-32.31 185.37,-22.41"/>
<polygon fill="#63b8ff" stroke="#63b8ff" points="186.37,-19.05 175.77,-19.08 184.08,-25.66 186.37,-19.05"/>
</a>
</g>
</g>
<!-- Node3&#45;&gt;Node8 -->
<g id="edge7_Node000003_Node000008" class="edge">
<title>Node3&#45;&gt;Node8</title>
<g id="a_edge7_Node000003_Node000008"><a xlink:title=" ">
<path fill="none" stroke="#63b8ff" d="M264.48,-54.98C218.77,-45.14 143.94,-29.01 98.02,-19.12"/>
<polygon fill="#63b8ff" stroke="#63b8ff" points="98.63,-15.67 88.12,-16.99 97.16,-22.52 98.63,-15.67"/>
</a>
</g>
</g>
<!-- Node10&#45;&gt;Node3 -->
<g id="edge12_Node000010_Node000003" class="edge">
<title>Node10&#45;&gt;Node3</title>
<g id="a_edge12_Node000010_Node000003"><a xlink:title=" ">
<path fill="none" stroke="#63b8ff" d="M498.73,-109.98C458.68,-100.84 394.93,-86.27 351.36,-76.32"/>
<polygon fill="#63b8ff" stroke="#63b8ff" points="352.1,-72.9 341.57,-74.08 350.54,-79.72 352.1,-72.9"/>
</a>
</g>
</g>
<!-- Node10&#45;&gt;Node6 -->
<g id="edge13_Node000010_Node000006" class="edge">
<title>Node10&#45;&gt;Node6</title>
<g id="a_edge13_Node000010_Node000006"><a xlink:title=" ">
<path fill="none" stroke="#63b8ff" d="M528.72,-109.66C513.84,-91.61 479.78,-50.28 460.66,-27.08"/>
<polygon fill="#63b8ff" stroke="#63b8ff" points="463.2,-24.65 454.14,-19.16 457.79,-29.1 463.2,-24.65"/>
</a>
</g>
</g>
<!-- Node10&#45;&gt;Node7 -->
<g id="edge14_Node000010_Node000007" class="edge">
<title>Node10&#45;&gt;Node7</title>
<g id="a_edge14_Node000010_Node000007"><a xlink:title=" ">
<path fill="none" stroke="#63b8ff" d="M514.79,-109.98C481.57,-96.85 415.04,-71.49 357,-55 297.79,-38.18 227.43,-24.25 186.15,-16.67"/>
<polygon fill="#63b8ff" stroke="#63b8ff" points="186.77,-13.23 176.31,-14.89 185.52,-20.11 186.77,-13.23"/>
</a>
</g>
</g>
<!-- Node11&#45;&gt;Node4 -->
<g id="edge17_Node000011_Node000004" class="edge">
<title>Node11&#45;&gt;Node4</title>
<g id="a_edge17_Node000011_Node000004"><a xlink:title=" ">
<path fill="none" stroke="#63b8ff" d="M752.08,-164.71C757.27,-152.29 764.88,-129.03 759,-110 748.77,-76.89 723.31,-44.97 706.61,-26.56"/>
<polygon fill="#63b8ff" stroke="#63b8ff" points="709.03,-24.02 699.64,-19.1 703.91,-28.8 709.03,-24.02"/>
</a>
</g>
</g>
<!-- Node11&#45;&gt;Node9 -->
<g id="edge16_Node000011_Node000009" class="edge">
<title>Node11&#45;&gt;Node9</title>
<g id="a_edge16_Node000011_Node000009"><a xlink:title=" ">
<path fill="none" stroke="#63b8ff" d="M761.98,-164.98C775.47,-156.77 796.13,-144.18 812.04,-134.49"/>
<polygon fill="#63b8ff" stroke="#63b8ff" points="814.05,-137.36 820.77,-129.17 810.41,-131.38 814.05,-137.36"/>
</a>
</g>
</g>
<!-- Node11&#45;&gt;Node10 -->
<g id="edge20_Node000011_Node000010" class="edge">
<title>Node11&#45;&gt;Node10</title>
<g id="a_edge20_Node000011_Node000010"><a xlink:title=" ">
<path fill="none" stroke="#63b8ff" d="M713.94,-164.98C677.58,-155.89 619.83,-141.46 580.03,-131.51"/>
<polygon fill="#63b8ff" stroke="#63b8ff" points="580.88,-128.11 570.33,-129.08 579.18,-134.9 580.88,-128.11"/>
</a>
</g>
</g>
<!-- Node12 -->
<g id="Node000012" class="node">
<title>Node12</title>
<g id="a_Node000012"><a xlink:title=" ">
<polygon fill="#e0e0e0" stroke="#999999" points="749.5,-129 684.5,-129 684.5,-110 749.5,-110 749.5,-129"/>
<text text-anchor="middle" x="717" y="-117" font-family="Helvetica,sans-Serif" font-size="10.00">functional</text>
</a>
</g>
</g>
<!-- Node11&#45;&gt;Node12 -->
<g id="edge18_Node000011_Node000012" class="edge">
<title>Node11&#45;&gt;Node12</title>
<g id="a_edge18_Node000011_Node000012"><a xlink:title=" ">
<path fill="none" stroke="#63b8ff" d="M742.88,-164.75C738.64,-157.49 732.47,-146.95 727.22,-137.98"/>
<polygon fill="#63b8ff" stroke="#63b8ff" points="730.09,-135.95 722.02,-129.09 724.05,-139.49 730.09,-135.95"/>
</a>
</g>
</g>
<!-- Node13 -->
<g id="Node000013" class="node">
<title>Node13</title>
<g id="a_Node000013"><a xlink:title=" ">
<polygon fill="#e0e0e0" stroke="#999999" points="926,-129 882,-129 882,-110 926,-110 926,-129"/>
<text text-anchor="middle" x="904" y="-117" font-family="Helvetica,sans-Serif" font-size="10.00">string</text>
</a>
</g>
</g>
<!-- Node11&#45;&gt;Node13 -->
<g id="edge19_Node000011_Node000013" class="edge">
<title>Node11&#45;&gt;Node13</title>
<g id="a_edge19_Node000011_Node000013"><a xlink:title=" ">
<path fill="none" stroke="#63b8ff" d="M773.06,-164.98C799.88,-155.88 842.49,-141.4 871.77,-131.45"/>
<polygon fill="#63b8ff" stroke="#63b8ff" points="873.19,-134.67 881.53,-128.13 870.94,-128.04 873.19,-134.67"/>
</a>
</g>
</g>
<!-- Node14&#45;&gt;Node3 -->
<g id="edge24_Node000014_Node000003" class="edge">
<title>Node14&#45;&gt;Node3</title>
<g id="a_edge24_Node000014_Node000003"><a xlink:title=" ">
<path fill="none" stroke="#63b8ff" d="M523.85,-219.97C486.28,-193.57 371.63,-113.02 324.53,-79.93"/>
<polygon fill="#63b8ff" stroke="#63b8ff" points="326.5,-77.03 316.31,-74.15 322.48,-82.76 326.5,-77.03"/>
</a>
</g>
</g>
<!-- Node14&#45;&gt;Node10 -->
<g id="edge22_Node000014_Node000010" class="edge">
<title>Node14&#45;&gt;Node10</title>
<g id="a_edge22_Node000014_Node000010"><a xlink:title=" ">
<path fill="none" stroke="#63b8ff" d="M536,-219.66C536,-202.17 536,-162.8 536,-139.27"/>
<polygon fill="#63b8ff" stroke="#63b8ff" points="539.5,-139.16 536,-129.16 532.5,-139.16 539.5,-139.16"/>
</a>
</g>
</g>
<!-- Node14&#45;&gt;Node11 -->
<g id="edge23_Node000014_Node000011" class="edge">
<title>Node14&#45;&gt;Node11</title>
<g id="a_edge23_Node000014_Node000011"><a xlink:title=" ">
<path fill="none" stroke="#63b8ff" d="M570.06,-219.98C606.42,-210.89 664.17,-196.46 703.97,-186.51"/>
<polygon fill="#63b8ff" stroke="#63b8ff" points="704.82,-189.9 713.67,-184.08 703.12,-183.11 704.82,-189.9"/>
</a>
</g>
</g>
<!-- Node15&#45;&gt;Node6 -->
<g id="edge44_Node000015_Node000006" class="edge">
<title>Node15&#45;&gt;Node6</title>
<g id="a_edge44_Node000015_Node000006"><a xlink:title=" ">
<path fill="none" stroke="#63b8ff" d="M340.72,-503.61C453.4,-501.49 770.71,-478.66 918,-294 969.21,-229.8 986.95,-173.61 935,-110 877.15,-39.17 581.69,-17.46 480.81,-12.05"/>
<polygon fill="#63b8ff" stroke="#63b8ff" points="480.74,-8.54 470.58,-11.52 480.38,-15.53 480.74,-8.54"/>
</a>
</g>
</g>
<!-- Node15&#45;&gt;Node7 -->
<g id="edge43_Node000015_Node000007" class="edge">
<title>Node15&#45;&gt;Node7</title>
<g id="a_edge43_Node000015_Node000007"><a xlink:title=" ">
<path fill="none" stroke="#63b8ff" d="M259.35,-504.34C185.76,-503.52 38,-490.09 38,-395.5 38,-395.5 38,-395.5 38,-118.5 38,-72.68 87.15,-40.32 120.62,-23.6"/>
<polygon fill="#63b8ff" stroke="#63b8ff" points="122.5,-26.58 130.01,-19.11 119.48,-20.27 122.5,-26.58"/>
</a>
</g>
</g>
<!-- Node15&#45;&gt;Node13 -->
<g id="edge42_Node000015_Node000013" class="edge">
<title>Node15&#45;&gt;Node13</title>
<g id="a_edge42_Node000015_Node000013"><a xlink:title=" ">
<path fill="none" stroke="#63b8ff" d="M340.57,-500.56C475.99,-490.19 904,-452.89 904,-395.5 904,-395.5 904,-395.5 904,-228.5 904,-197.19 904,-160.77 904,-139.23"/>
<polygon fill="#63b8ff" stroke="#63b8ff" points="907.5,-139.18 904,-129.18 900.5,-139.18 907.5,-139.18"/>
</a>
</g>
</g>
<!-- Node16 -->
<g id="Node000016" class="node">
<title>Node16</title>
<g id="a_Node000016"><a xlink:href="CCSDSPacket_8h.html" target="_top" xlink:title=" ">
<polygon fill="white" stroke="#666666" points="264,-349 174,-349 174,-330 264,-330 264,-349"/>
<text text-anchor="middle" x="219" y="-337" font-family="Helvetica,sans-Serif" font-size="10.00">CCSDSPacket.h</text>
</a>
</g>
</g>
<!-- Node15&#45;&gt;Node16 -->
<g id="edge27_Node000015_Node000016" class="edge">
<title>Node15&#45;&gt;Node16</title>
<g id="a_edge27_Node000015_Node000016"><a xlink:title=" ">
<path fill="none" stroke="#63b8ff" d="M264.87,-494.96C223.04,-482.7 155.05,-455.66 125,-404 110.66,-379.35 142.63,-362.26 173.1,-352.08"/>
<polygon fill="#63b8ff" stroke="#63b8ff" points="174.38,-355.34 182.88,-349.01 172.29,-348.66 174.38,-355.34"/>
</a>
</g>
</g>
<!-- Node18 -->
<g id="Node000018" class="node">
<title>Node18</title>
<g id="a_Node000018"><a xlink:href="CCSDSManager_8h.html" target="_top" xlink:title=" ">
<polygon fill="white" stroke="#666666" points="345.5,-459 244.5,-459 244.5,-440 345.5,-440 345.5,-459"/>
<text text-anchor="middle" x="295" y="-447" font-family="Helvetica,sans-Serif" font-size="10.00">CCSDSManager.h</text>
</a>
</g>
</g>
<!-- Node15&#45;&gt;Node18 -->
<g id="edge36_Node000015_Node000018" class="edge">
<title>Node15&#45;&gt;Node18</title>
<g id="a_edge36_Node000015_Node000018"><a xlink:title=" ">
<path fill="none" stroke="#63b8ff" d="M299.17,-494.75C298.52,-487.8 297.58,-477.85 296.76,-469.13"/>
<polygon fill="#63b8ff" stroke="#63b8ff" points="300.23,-468.72 295.81,-459.09 293.27,-469.37 300.23,-468.72"/>
</a>
</g>
</g>
<!-- Node16&#45;&gt;Node2 -->
<g id="edge35_Node000016_Node000002" class="edge">
<title>Node16&#45;&gt;Node2</title>
<g id="a_edge35_Node000016_Node000002"><a xlink:title=" ">
<path fill="none" stroke="#63b8ff" d="M258.68,-329.98C301.5,-320.8 369.76,-306.15 416.16,-296.19"/>
<polygon fill="#63b8ff" stroke="#63b8ff" points="416.96,-299.6 426,-294.08 415.49,-292.76 416.96,-299.6"/>
</a>
</g>
</g>
<!-- Node16&#45;&gt;Node3 -->
<g id="edge28_Node000016_Node000003" class="edge">
<title>Node16&#45;&gt;Node3</title>
<g id="a_edge28_Node000016_Node000003"><a xlink:title=" ">
<path fill="none" stroke="#63b8ff" d="M225.45,-329.77C237.89,-312.04 264,-270.11 264,-230.5 264,-230.5 264,-230.5 264,-173.5 264,-139.67 281.47,-103.38 293.32,-82.66"/>
<polygon fill="#63b8ff" stroke="#63b8ff" points="296.34,-84.44 298.44,-74.06 290.32,-80.86 296.34,-84.44"/>
</a>
</g>
</g>
<!-- Node16&#45;&gt;Node6 -->
<g id="edge30_Node000016_Node000006" class="edge">
<title>Node16&#45;&gt;Node6</title>
<g id="a_edge30_Node000016_Node000006"><a xlink:title=" ">
<path fill="none" stroke="#63b8ff" d="M229.17,-329.9C238.96,-321.35 253.87,-307.58 265,-294 341.15,-201.04 412.3,-74.68 437.42,-28.42"/>
<polygon fill="#63b8ff" stroke="#63b8ff" points="440.65,-29.8 442.32,-19.34 434.49,-26.48 440.65,-29.8"/>
</a>
</g>
</g>
<!-- Node16&#45;&gt;Node7 -->
<g id="edge29_Node000016_Node000007" class="edge">
<title>Node16&#45;&gt;Node7</title>
<g id="a_edge29_Node000016_Node000007"><a xlink:title=" ">
<path fill="none" stroke="#63b8ff" d="M187.26,-329.95C145.13,-316.46 76,-285.88 76,-230.5 76,-230.5 76,-230.5 76,-118.5 76,-79.64 109.17,-44.7 131.39,-25.65"/>
<polygon fill="#63b8ff" stroke="#63b8ff" points="133.79,-28.22 139.28,-19.16 129.34,-22.81 133.79,-28.22"/>
</a>
</g>
</g>
<!-- Node17 -->
<g id="Node000017" class="node">
<title>Node17</title>
<g id="a_Node000017"><a xlink:href="CCSDSHeader_8h.html" target="_top" xlink:title=" ">
<polygon fill="white" stroke="#666666" points="235.5,-129 142.5,-129 142.5,-110 235.5,-110 235.5,-129"/>
<text text-anchor="middle" x="189" y="-117" font-family="Helvetica,sans-Serif" font-size="10.00">CCSDSHeader.h</text>
</a>
</g>
</g>
<!-- Node16&#45;&gt;Node17 -->
<g id="edge31_Node000016_Node000017" class="edge">
<title>Node16&#45;&gt;Node17</title>
<g id="a_edge31_Node000016_Node000017"><a xlink:title=" ">
<path fill="none" stroke="#63b8ff" d="M217.82,-329.95C213.42,-297.95 197.83,-184.68 191.6,-139.4"/>
<polygon fill="#63b8ff" stroke="#63b8ff" points="195.03,-138.65 190.2,-129.22 188.1,-139.61 195.03,-138.65"/>
</a>
</g>
</g>
<!-- Node17&#45;&gt;Node3 -->
<g id="edge32_Node000017_Node000003" class="edge">
<title>Node17&#45;&gt;Node3</title>
<g id="a_edge32_Node000017_Node000003"><a xlink:title=" ">
<path fill="none" stroke="#63b8ff" d="M207.48,-109.98C225.98,-101.46 254.68,-88.23 275.98,-78.41"/>
<polygon fill="#63b8ff" stroke="#63b8ff" points="277.57,-81.53 285.19,-74.17 274.64,-75.18 277.57,-81.53"/>
</a>
</g>
</g>
<!-- Node17&#45;&gt;Node6 -->
<g id="edge34_Node000017_Node000006" class="edge">
<title>Node17&#45;&gt;Node6</title>
<g id="a_edge34_Node000017_Node000006"><a xlink:title=" ">
<path fill="none" stroke="#63b8ff" d="M194.63,-109.99C204.26,-96.16 225.24,-68.98 250,-55 302.11,-25.59 372.28,-15.62 413.28,-12.23"/>
<polygon fill="#63b8ff" stroke="#63b8ff" points="413.58,-15.72 423.3,-11.49 413.06,-8.74 413.58,-15.72"/>
</a>
</g>
</g>
<!-- Node17&#45;&gt;Node7 -->
<g id="edge33_Node000017_Node000007" class="edge">
<title>Node17&#45;&gt;Node7</title>
<g id="a_edge33_Node000017_Node000007"><a xlink:title=" ">
<path fill="none" stroke="#63b8ff" d="M185.89,-109.66C179.68,-92.01 165.63,-52.09 157.38,-28.64"/>
<polygon fill="#63b8ff" stroke="#63b8ff" points="160.67,-27.43 154.05,-19.16 154.06,-29.75 160.67,-27.43"/>
</a>
</g>
</g>
<!-- Node18&#45;&gt;Node3 -->
<g id="edge39_Node000018_Node000003" class="edge">
<title>Node18&#45;&gt;Node3</title>
<g id="a_edge39_Node000018_Node000003"><a xlink:title=" ">
<path fill="none" stroke="#63b8ff" d="M295.94,-439.83C297.85,-421.52 302,-377.52 302,-340.5 302,-340.5 302,-340.5 302,-173.5 302,-142.18 302.85,-105.77 303.44,-84.23"/>
<polygon fill="#63b8ff" stroke="#63b8ff" points="306.94,-84.27 303.73,-74.18 299.95,-84.07 306.94,-84.27"/>
</a>
</g>
</g>
<!-- Node18&#45;&gt;Node16 -->
<g id="edge38_Node000018_Node000016" class="edge">
<title>Node18&#45;&gt;Node16</title>
<g id="a_edge38_Node000018_Node000016"><a xlink:title=" ">
<path fill="none" stroke="#63b8ff" d="M288.78,-439.66C276.14,-421.69 247.25,-380.64 230.88,-357.38"/>
<polygon fill="#63b8ff" stroke="#63b8ff" points="233.71,-355.32 225.09,-349.16 227.99,-359.35 233.71,-355.32"/>
</a>
</g>
</g>
<!-- Node18&#45;&gt;Node19 -->
<g id="edge37_Node000018_Node000019" class="edge">
<title>Node18&#45;&gt;Node19</title>
<g id="a_edge37_Node000018_Node000019"><a xlink:title=" ">
<path fill="none" stroke="#63b8ff" d="M306.57,-439.98C317.42,-432 333.88,-419.88 346.88,-410.31"/>
<polygon fill="#63b8ff" stroke="#63b8ff" points="349.24,-412.92 355.22,-404.17 345.09,-407.28 349.24,-412.92"/>
</a>
</g>
</g>
<!-- Node20 -->
<g id="Node000020" class="node">
<title>Node20</title>
<g id="a_Node000020"><a xlink:href="CCSDSValidator_8h.html" target="_top" xlink:title="Defines the Validator class for CCSDS packet validation.">
<polygon fill="white" stroke="#666666" points="235.5,-404 134.5,-404 134.5,-385 235.5,-385 235.5,-404"/>
<text text-anchor="middle" x="185" y="-392" font-family="Helvetica,sans-Serif" font-size="10.00">CCSDSValidator.h</text>
</a>
</g>
</g>
<!-- Node18&#45;&gt;Node20 -->
<g id="edge40_Node000018_Node000020" class="edge">
<title>Node18&#45;&gt;Node20</title>
<g id="a_edge40_Node000018_Node000020"><a xlink:title=" ">
<path fill="none" stroke="#63b8ff" d="M277.33,-439.98C259.71,-431.5 232.42,-418.35 212.07,-408.54"/>
<polygon fill="#63b8ff" stroke="#63b8ff" points="213.52,-405.36 202.99,-404.17 210.48,-411.66 213.52,-405.36"/>
</a>
</g>
</g>
<!-- Node20&#45;&gt;Node16 -->
<g id="edge41_Node000020_Node000016" class="edge">
<title>Node20&#45;&gt;Node16</title>
<g id="a_edge41_Node000020_Node000016"><a xlink:title=" ">
<path fill="none" stroke="#63b8ff" d="M190.61,-384.75C195.32,-377.42 202.17,-366.73 207.97,-357.7"/>
<polygon fill="#63b8ff" stroke="#63b8ff" points="211.04,-359.4 213.49,-349.09 205.14,-355.62 211.04,-359.4"/>
</a>
</g>
</g>
</g>
</svg>
