<?xml version="1.0" encoding="UTF-8" standalone="no"?>
<!DOCTYPE svg PUBLIC "-//W3C//DTD SVG 1.1//EN"
 "http://www.w3.org/Graphics/SVG/1.1/DTD/svg11.dtd">
<!-- Generated by graphviz version 2.43.0 (0)
 -->
<!-- Title: inc/CCSDSUtils.h Pages: 1 -->
<svg width="929pt" height="522pt"
 viewBox="0.00 0.00 928.73 522.00" xmlns="http://www.w3.org/2000/svg" xmlns:xlink="http://www.w3.org/1999/xlink">
<g id="graph0" class="graph" transform="scale(1 1) rotate(0) translate(4 518)">
<title>inc/CCSDSUtils.h</title>
<!-- Node1 -->
<g id="Node000001" class="node">
<title>Node1</title>
<g id="a_Node000001"><a xlink:title=" ">
<polygon fill="#999999" stroke="#666666" points="359.73,-514 261.73,-514 261.73,-495 359.73,-495 359.73,-514"/>
<text text-anchor="middle" x="310.73" y="-502" font-family="Helvetica,sans-Serif" font-size="10.00">inc/CCSDSUtils.h</text>
</a>
</g>
</g>
<!-- Node2 -->
<g id="Node000002" class="node">
<title>Node2</title>
<g id="a_Node000002"><a xlink:href="CCSDSPacket_8h.html" target="_top" xlink:title=" ">
<polygon fill="white" stroke="#666666" points="537.73,-349 447.73,-349 447.73,-330 537.73,-330 537.73,-349"/>
<text text-anchor="middle" x="492.73" y="-337" font-family="Helvetica,sans-Serif" font-size="10.00">CCSDSPacket.h</text>
</a>
</g>
</g>
<!-- Node1&#45;&gt;Node2 -->
<g id="edge1_Node000001_Node000002" class="edge">
<title>Node1&#45;&gt;Node2</title>
<g id="a_edge1_Node000001_Node000002"><a xlink:title=" ">
<path fill="none" stroke="#63b8ff" d="M335.67,-494.9C371.51,-481.25 437.3,-451.26 473.73,-404 483.72,-391.04 488.47,-372.89 490.73,-359.31"/>
<polygon fill="#63b8ff" stroke="#63b8ff" points="494.22,-359.57 492.09,-349.19 487.29,-358.64 494.22,-359.57"/>
</a>
</g>
</g>
<!-- Node6 -->
<g id="Node000006" class="node">
<title>Node6</title>
<g id="a_Node000006"><a xlink:title=" ">
<polygon fill="#e0e0e0" stroke="#999999" points="619.23,-19 572.23,-19 572.23,0 619.23,0 619.23,-19"/>
<text text-anchor="middle" x="595.73" y="-7" font-family="Helvetica,sans-Serif" font-size="10.00">vector</text>
</a>
</g>
</g>
<!-- Node1&#45;&gt;Node6 -->
<g id="edge41_Node000001_Node000006" class="edge">
<title>Node1&#45;&gt;Node6</title>
<g id="a_edge41_Node000001_Node000006"><a xlink:title=" ">
<path fill="none" stroke="#63b8ff" d="M285.43,-494.99C212.12,-468.56 4.73,-380.54 4.73,-230.5 4.73,-230.5 4.73,-230.5 4.73,-173.5 4.73,-130.5 39.07,-128.82 77.73,-110 164.72,-67.66 461.01,-27.43 561.83,-14.67"/>
<polygon fill="#63b8ff" stroke="#63b8ff" points="562.56,-18.1 572.05,-13.38 561.69,-11.16 562.56,-18.1"/>
</a>
</g>
</g>
<!-- Node7 -->
<g id="Node000007" class="node">
<title>Node7</title>
<g id="a_Node000007"><a xlink:title=" ">
<polygon fill="#e0e0e0" stroke="#999999" points="850.73,-19 800.73,-19 800.73,0 850.73,0 850.73,-19"/>
<text text-anchor="middle" x="825.73" y="-7" font-family="Helvetica,sans-Serif" font-size="10.00">cstdint</text>
</a>
</g>
</g>
<!-- Node1&#45;&gt;Node7 -->
<g id="edge40_Node000001_Node000007" class="edge">
<title>Node1&#45;&gt;Node7</title>
<g id="a_edge40_Node000001_Node000007"><a xlink:title=" ">
<path fill="none" stroke="#63b8ff" d="M359.88,-499.98C504.86,-488.94 920.73,-452.33 920.73,-395.5 920.73,-395.5 920.73,-395.5 920.73,-118.5 920.73,-75.91 878.57,-42.14 850.42,-24.33"/>
<polygon fill="#63b8ff" stroke="#63b8ff" points="852.21,-21.32 841.85,-19.12 848.58,-27.31 852.21,-21.32"/>
</a>
</g>
</g>
<!-- Node15 -->
<g id="Node000015" class="node">
<title>Node15</title>
<g id="a_Node000015"><a xlink:title=" ">
<polygon fill="#e0e0e0" stroke="#999999" points="152.73,-129 108.73,-129 108.73,-110 152.73,-110 152.73,-129"/>
<text text-anchor="middle" x="130.73" y="-117" font-family="Helvetica,sans-Serif" font-size="10.00">string</text>
</a>
</g>
</g>
<!-- Node1&#45;&gt;Node15 -->
<g id="edge39_Node000001_Node000015" class="edge">
<title>Node1&#45;&gt;Node15</title>
<g id="a_edge39_Node000001_Node000015"><a xlink:title=" ">
<path fill="none" stroke="#63b8ff" d="M261.61,-503.1C188.92,-501.36 58.11,-493.38 28.73,-459 -56.63,-359.11 72.11,-189.56 116.56,-136.72"/>
<polygon fill="#63b8ff" stroke="#63b8ff" points="119.31,-138.89 123.14,-129.01 113.99,-134.34 119.31,-138.89"/>
</a>
</g>
</g>
<!-- Node17 -->
<g id="Node000017" class="node">
<title>Node17</title>
<g id="a_Node000017"><a xlink:href="CCSDSManager_8h.html" target="_top" xlink:title=" ">
<polygon fill="white" stroke="#666666" points="361.23,-459 260.23,-459 260.23,-440 361.23,-440 361.23,-459"/>
<text text-anchor="middle" x="310.73" y="-447" font-family="Helvetica,sans-Serif" font-size="10.00">CCSDSManager.h</text>
</a>
</g>
</g>
<!-- Node1&#45;&gt;Node17 -->
<g id="edge33_Node000001_Node000017" class="edge">
<title>Node1&#45;&gt;Node17</title>
<g id="a_edge33_Node000001_Node000017"><a xlink:title=" ">
<path fill="none" stroke="#63b8ff" d="M310.73,-494.75C310.73,-487.8 310.73,-477.85 310.73,-469.13"/>
<polygon fill="#63b8ff" stroke="#63b8ff" points="314.23,-469.09 310.73,-459.09 307.23,-469.09 314.23,-469.09"/>
</a>
</g>
</g>
<!-- Node3 -->
<g id="Node000003" class="node">
<title>Node3</title>
<g id="a_Node000003"><a xlink:href="CCSDSResult_8h.html" target="_top" xlink:title=" ">
<polygon fill="white" stroke="#666666" points="461.23,-74 372.23,-74 372.23,-55 461.23,-55 461.23,-74"/>
<text text-anchor="middle" x="416.73" y="-62" font-family="Helvetica,sans-Serif" font-size="10.00">CCSDSResult.h</text>
</a>
</g>
</g>
<!-- Node2&#45;&gt;Node3 -->
<g id="edge2_Node000002_Node000003" class="edge">
<title>Node2&#45;&gt;Node3</title>
<g id="a_edge2_Node000002_Node000003"><a xlink:title=" ">
<path fill="none" stroke="#63b8ff" d="M447.64,-332.03C358.23,-316.34 161.72,-266.86 99.73,-129 96.27,-121.3 94.19,-116.37 99.73,-110 116.66,-90.53 275.83,-75.89 361.98,-69.32"/>
<polygon fill="#63b8ff" stroke="#63b8ff" points="362.4,-72.8 372.11,-68.56 361.87,-65.82 362.4,-72.8"/>
</a>
</g>
</g>
<!-- Node2&#45;&gt;Node6 -->
<g id="edge9_Node000002_Node000006" class="edge">
<title>Node2&#45;&gt;Node6</title>
<g id="a_edge9_Node000002_Node000006"><a xlink:title=" ">
<path fill="none" stroke="#63b8ff" d="M538.05,-332.55C625.01,-319.86 806.73,-286.64 806.73,-230.5 806.73,-230.5 806.73,-230.5 806.73,-173.5 806.73,-144.04 805.99,-133.12 787.73,-110 747.02,-58.44 672.27,-30.88 629.02,-18.6"/>
<polygon fill="#63b8ff" stroke="#63b8ff" points="629.83,-15.19 619.27,-15.94 627.99,-21.95 629.83,-15.19"/>
</a>
</g>
</g>
<!-- Node2&#45;&gt;Node7 -->
<g id="edge8_Node000002_Node000007" class="edge">
<title>Node2&#45;&gt;Node7</title>
<g id="a_edge8_Node000002_Node000007"><a xlink:title=" ">
<path fill="none" stroke="#63b8ff" d="M537.85,-335.55C640.51,-327.61 882.73,-301.37 882.73,-230.5 882.73,-230.5 882.73,-230.5 882.73,-118.5 882.73,-82.51 857.67,-46.76 840.78,-26.76"/>
<polygon fill="#63b8ff" stroke="#63b8ff" points="843.37,-24.4 834.14,-19.2 838.11,-29.02 843.37,-24.4"/>
</a>
</g>
</g>
<!-- Node9 -->
<g id="Node000009" class="node">
<title>Node9</title>
<g id="a_Node000009"><a xlink:href="CCSDSHeader_8h.html" target="_top" xlink:title=" ">
<polygon fill="white" stroke="#666666" points="778.23,-129 685.23,-129 685.23,-110 778.23,-110 778.23,-129"/>
<text text-anchor="middle" x="731.73" y="-117" font-family="Helvetica,sans-Serif" font-size="10.00">CCSDSHeader.h</text>
</a>
</g>
</g>
<!-- Node2&#45;&gt;Node9 -->
<g id="edge10_Node000002_Node000009" class="edge">
<title>Node2&#45;&gt;Node9</title>
<g id="a_edge10_Node000002_Node000009"><a xlink:title=" ">
<path fill="none" stroke="#63b8ff" d="M517.53,-329.98C554.88,-316.08 625.96,-285.34 670.73,-239 699.16,-209.58 717.42,-164.26 726,-139.05"/>
<polygon fill="#63b8ff" stroke="#63b8ff" points="729.4,-139.88 729.17,-129.29 722.75,-137.72 729.4,-139.88"/>
</a>
</g>
</g>
<!-- Node10 -->
<g id="Node000010" class="node">
<title>Node10</title>
<g id="a_Node000010"><a xlink:href="CCSDSDataField_8h.html" target="_top" xlink:title=" ">
<polygon fill="white" stroke="#666666" points="545.23,-294 440.23,-294 440.23,-275 545.23,-275 545.23,-294"/>
<text text-anchor="middle" x="492.73" y="-282" font-family="Helvetica,sans-Serif" font-size="10.00">CCSDSDataField.h</text>
</a>
</g>
</g>
<!-- Node2&#45;&gt;Node10 -->
<g id="edge14_Node000002_Node000010" class="edge">
<title>Node2&#45;&gt;Node10</title>
<g id="a_edge14_Node000002_Node000010"><a xlink:title=" ">
<path fill="none" stroke="#63b8ff" d="M492.73,-329.75C492.73,-322.8 492.73,-312.85 492.73,-304.13"/>
<polygon fill="#63b8ff" stroke="#63b8ff" points="496.23,-304.09 492.73,-294.09 489.23,-304.09 496.23,-304.09"/>
</a>
</g>
</g>
<!-- Node4 -->
<g id="Node000004" class="node">
<title>Node4</title>
<g id="a_Node000004"><a xlink:title=" ">
<polygon fill="#e0e0e0" stroke="#999999" points="264.23,-19 171.23,-19 171.23,0 264.23,0 264.23,-19"/>
<text text-anchor="middle" x="217.73" y="-7" font-family="Helvetica,sans-Serif" font-size="10.00">unordered_map</text>
</a>
</g>
</g>
<!-- Node3&#45;&gt;Node4 -->
<g id="edge3_Node000003_Node000004" class="edge">
<title>Node3&#45;&gt;Node4</title>
<g id="a_edge3_Node000003_Node000004"><a xlink:title=" ">
<path fill="none" stroke="#63b8ff" d="M384.76,-54.98C350.91,-45.97 297.34,-31.7 260.02,-21.76"/>
<polygon fill="#63b8ff" stroke="#63b8ff" points="260.52,-18.27 249.95,-19.08 258.72,-25.04 260.52,-18.27"/>
</a>
</g>
</g>
<!-- Node5 -->
<g id="Node000005" class="node">
<title>Node5</title>
<g id="a_Node000005"><a xlink:title=" ">
<polygon fill="#e0e0e0" stroke="#999999" points="406.23,-19 355.23,-19 355.23,0 406.23,0 406.23,-19"/>
<text text-anchor="middle" x="380.73" y="-7" font-family="Helvetica,sans-Serif" font-size="10.00">variant</text>
</a>
</g>
</g>
<!-- Node3&#45;&gt;Node5 -->
<g id="edge4_Node000003_Node000005" class="edge">
<title>Node3&#45;&gt;Node5</title>
<g id="a_edge4_Node000003_Node000005"><a xlink:title=" ">
<path fill="none" stroke="#63b8ff" d="M410.79,-54.75C405.75,-47.34 398.39,-36.5 392.22,-27.41"/>
<polygon fill="#63b8ff" stroke="#63b8ff" points="395.08,-25.39 386.57,-19.09 389.29,-29.33 395.08,-25.39"/>
</a>
</g>
</g>
<!-- Node3&#45;&gt;Node6 -->
<g id="edge5_Node000003_Node000006" class="edge">
<title>Node3&#45;&gt;Node6</title>
<g id="a_edge5_Node000003_Node000006"><a xlink:title=" ">
<path fill="none" stroke="#63b8ff" d="M445.49,-54.98C477.37,-45.54 528.73,-30.34 562.36,-20.38"/>
<polygon fill="#63b8ff" stroke="#63b8ff" points="563.59,-23.67 572.19,-17.47 561.6,-16.95 563.59,-23.67"/>
</a>
</g>
</g>
<!-- Node3&#45;&gt;Node7 -->
<g id="edge6_Node000003_Node000007" class="edge">
<title>Node3&#45;&gt;Node7</title>
<g id="a_edge6_Node000003_Node000007"><a xlink:title=" ">
<path fill="none" stroke="#63b8ff" d="M461.28,-57.73C543.17,-47.12 716.05,-24.71 790.46,-15.07"/>
<polygon fill="#63b8ff" stroke="#63b8ff" points="791.23,-18.5 800.7,-13.74 790.33,-11.56 791.23,-18.5"/>
</a>
</g>
</g>
<!-- Node8 -->
<g id="Node000008" class="node">
<title>Node8</title>
<g id="a_Node000008"><a xlink:title=" ">
<polygon fill="#e0e0e0" stroke="#999999" points="484.73,-19 424.73,-19 424.73,0 484.73,0 484.73,-19"/>
<text text-anchor="middle" x="454.73" y="-7" font-family="Helvetica,sans-Serif" font-size="10.00">iostream</text>
</a>
</g>
</g>
<!-- Node3&#45;&gt;Node8 -->
<g id="edge7_Node000003_Node000008" class="edge">
<title>Node3&#45;&gt;Node8</title>
<g id="a_edge7_Node000003_Node000008"><a xlink:title=" ">
<path fill="none" stroke="#63b8ff" d="M423.01,-54.75C428.32,-47.34 436.09,-36.5 442.61,-27.41"/>
<polygon fill="#63b8ff" stroke="#63b8ff" points="445.59,-29.26 448.57,-19.09 439.9,-25.18 445.59,-29.26"/>
</a>
</g>
</g>
<!-- Node9&#45;&gt;Node3 -->
<g id="edge11_Node000009_Node000003" class="edge">
<title>Node9&#45;&gt;Node3</title>
<g id="a_edge11_Node000009_Node000003"><a xlink:title=" ">
<path fill="none" stroke="#63b8ff" d="M684.91,-110.62C627.88,-101.03 531.71,-84.85 471.36,-74.69"/>
<polygon fill="#63b8ff" stroke="#63b8ff" points="471.7,-71.2 461.26,-72.99 470.54,-78.1 471.7,-71.2"/>
</a>
</g>
</g>
<!-- Node9&#45;&gt;Node6 -->
<g id="edge13_Node000009_Node000006" class="edge">
<title>Node9&#45;&gt;Node6</title>
<g id="a_edge13_Node000009_Node000006"><a xlink:title=" ">
<path fill="none" stroke="#63b8ff" d="M724.17,-109.61C712.9,-96.68 690.67,-72.32 668.73,-55 653.92,-43.3 635.81,-32.25 621.34,-24.08"/>
<polygon fill="#63b8ff" stroke="#63b8ff" points="622.87,-20.93 612.42,-19.16 619.48,-27.06 622.87,-20.93"/>
</a>
</g>
</g>
<!-- Node9&#45;&gt;Node7 -->
<g id="edge12_Node000009_Node000007" class="edge">
<title>Node9&#45;&gt;Node7</title>
<g id="a_edge12_Node000009_Node000007"><a xlink:title=" ">
<path fill="none" stroke="#63b8ff" d="M743.44,-109.72C754.3,-101.25 770.58,-87.73 782.73,-74 795.51,-59.56 807.59,-41.13 815.68,-27.85"/>
<polygon fill="#63b8ff" stroke="#63b8ff" points="818.71,-29.6 820.81,-19.22 812.69,-26.03 818.71,-29.6"/>
</a>
</g>
</g>
<!-- Node10&#45;&gt;Node3 -->
<g id="edge15_Node000010_Node000003" class="edge">
<title>Node10&#45;&gt;Node3</title>
<g id="a_edge15_Node000010_Node000003"><a xlink:title=" ">
<path fill="none" stroke="#63b8ff" d="M489.32,-274.86C480.17,-251.51 454.46,-185.14 435.73,-129 430.72,-113.97 425.6,-96.74 421.94,-84.03"/>
<polygon fill="#63b8ff" stroke="#63b8ff" points="425.24,-82.84 419.14,-74.18 418.51,-84.76 425.24,-82.84"/>
</a>
</g>
</g>
<!-- Node10&#45;&gt;Node6 -->
<g id="edge17_Node000010_Node000006" class="edge">
<title>Node10&#45;&gt;Node6</title>
<g id="a_edge17_Node000010_Node000006"><a xlink:title=" ">
<path fill="none" stroke="#63b8ff" d="M506.26,-274.71C536.95,-253.86 611.32,-197.93 638.73,-129 653.01,-93.09 627.14,-50.35 609.71,-27.28"/>
<polygon fill="#63b8ff" stroke="#63b8ff" points="612.27,-24.87 603.33,-19.19 606.77,-29.21 612.27,-24.87"/>
</a>
</g>
</g>
<!-- Node10&#45;&gt;Node7 -->
<g id="edge16_Node000010_Node000007" class="edge">
<title>Node10&#45;&gt;Node7</title>
<g id="a_edge16_Node000010_Node000007"><a xlink:title=" ">
<path fill="none" stroke="#63b8ff" d="M526.86,-274.89C588.1,-257.68 716.84,-213.28 787.73,-129 812.33,-99.75 821.08,-54.34 824.14,-29.07"/>
<polygon fill="#63b8ff" stroke="#63b8ff" points="827.63,-29.31 825.18,-19.01 820.67,-28.59 827.63,-29.31"/>
</a>
</g>
</g>
<!-- Node11 -->
<g id="Node000011" class="node">
<title>Node11</title>
<g id="a_Node000011"><a xlink:title=" ">
<polygon fill="#e0e0e0" stroke="#999999" points="350.73,-129 292.73,-129 292.73,-110 350.73,-110 350.73,-129"/>
<text text-anchor="middle" x="321.73" y="-117" font-family="Helvetica,sans-Serif" font-size="10.00">memory</text>
</a>
</g>
</g>
<!-- Node10&#45;&gt;Node11 -->
<g id="edge18_Node000010_Node000011" class="edge">
<title>Node10&#45;&gt;Node11</title>
<g id="a_edge18_Node000010_Node000011"><a xlink:title=" ">
<path fill="none" stroke="#63b8ff" d="M483.54,-274.74C456.05,-248.53 374.2,-170.51 338.59,-136.57"/>
<polygon fill="#63b8ff" stroke="#63b8ff" points="340.62,-133.67 330.97,-129.31 335.79,-138.74 340.62,-133.67"/>
</a>
</g>
</g>
<!-- Node12 -->
<g id="Node000012" class="node">
<title>Node12</title>
<g id="a_Node000012"><a xlink:href="CCSDSSecondaryHeaderAbstract_8h.html" target="_top" xlink:title=" ">
<polygon fill="white" stroke="#666666" points="629.23,-129 444.23,-129 444.23,-110 629.23,-110 629.23,-129"/>
<text text-anchor="middle" x="536.73" y="-117" font-family="Helvetica,sans-Serif" font-size="10.00">CCSDSSecondaryHeaderAbstract.h</text>
</a>
</g>
</g>
<!-- Node10&#45;&gt;Node12 -->
<g id="edge19_Node000010_Node000012" class="edge">
<title>Node10&#45;&gt;Node12</title>
<g id="a_edge19_Node000010_Node000012"><a xlink:title=" ">
<path fill="none" stroke="#63b8ff" d="M495.67,-274.68C498.61,-265.73 503.2,-251.47 506.73,-239 516.68,-203.91 526.8,-162.52 532.37,-139.11"/>
<polygon fill="#63b8ff" stroke="#63b8ff" points="535.82,-139.71 534.72,-129.17 529.01,-138.1 535.82,-139.71"/>
</a>
</g>
</g>
<!-- Node13 -->
<g id="Node000013" class="node">
<title>Node13</title>
<g id="a_Node000013"><a xlink:href="CCSDSSecondaryHeaderFactory_8h.html" target="_top" xlink:title=" ">
<polygon fill="white" stroke="#666666" points="350.23,-184 171.23,-184 171.23,-165 350.23,-165 350.23,-184"/>
<text text-anchor="middle" x="260.73" y="-172" font-family="Helvetica,sans-Serif" font-size="10.00">CCSDSSecondaryHeaderFactory.h</text>
</a>
</g>
</g>
<!-- Node10&#45;&gt;Node13 -->
<g id="edge23_Node000010_Node000013" class="edge">
<title>Node10&#45;&gt;Node13</title>
<g id="a_edge23_Node000010_Node000013"><a xlink:title=" ">
<path fill="none" stroke="#63b8ff" d="M440.14,-283.13C397.38,-280.32 337.49,-270.39 295.73,-239 280.98,-227.91 271.64,-208.69 266.36,-194.3"/>
<polygon fill="#63b8ff" stroke="#63b8ff" points="269.56,-192.83 263.09,-184.44 262.92,-195.03 269.56,-192.83"/>
</a>
</g>
</g>
<!-- Node16 -->
<g id="Node000016" class="node">
<title>Node16</title>
<g id="a_Node000016"><a xlink:href="PusServices_8h.html" target="_top" xlink:title=" ">
<polygon fill="white" stroke="#666666" points="388.73,-239 304.73,-239 304.73,-220 388.73,-220 388.73,-239"/>
<text text-anchor="middle" x="346.73" y="-227" font-family="Helvetica,sans-Serif" font-size="10.00">PusServices.h</text>
</a>
</g>
</g>
<!-- Node10&#45;&gt;Node16 -->
<g id="edge29_Node000010_Node000016" class="edge">
<title>Node10&#45;&gt;Node16</title>
<g id="a_edge29_Node000010_Node000016"><a xlink:title=" ">
<path fill="none" stroke="#63b8ff" d="M469.27,-274.98C445.15,-266.23 407.37,-252.51 380.13,-242.62"/>
<polygon fill="#63b8ff" stroke="#63b8ff" points="381.21,-239.29 370.62,-239.17 378.82,-245.87 381.21,-239.29"/>
</a>
</g>
</g>
<!-- Node12&#45;&gt;Node3 -->
<g id="edge20_Node000012_Node000003" class="edge">
<title>Node12&#45;&gt;Node3</title>
<g id="a_edge20_Node000012_Node000003"><a xlink:title=" ">
<path fill="none" stroke="#63b8ff" d="M517.45,-109.98C498.06,-101.42 467.92,-88.11 445.67,-78.28"/>
<polygon fill="#63b8ff" stroke="#63b8ff" points="446.92,-75.01 436.36,-74.17 444.1,-81.41 446.92,-75.01"/>
</a>
</g>
</g>
<!-- Node12&#45;&gt;Node6 -->
<g id="edge21_Node000012_Node000006" class="edge">
<title>Node12&#45;&gt;Node6</title>
<g id="a_edge21_Node000012_Node000006"><a xlink:title=" ">
<path fill="none" stroke="#63b8ff" d="M541.56,-109.66C551.29,-91.85 573.41,-51.37 586.17,-28.01"/>
<polygon fill="#63b8ff" stroke="#63b8ff" points="589.28,-29.61 591,-19.16 583.14,-26.26 589.28,-29.61"/>
</a>
</g>
</g>
<!-- Node12&#45;&gt;Node7 -->
<g id="edge22_Node000012_Node000007" class="edge">
<title>Node12&#45;&gt;Node7</title>
<g id="a_edge22_Node000012_Node000007"><a xlink:title=" ">
<path fill="none" stroke="#63b8ff" d="M559.89,-109.84C611.17,-90.68 734.4,-44.63 793.31,-22.62"/>
<polygon fill="#63b8ff" stroke="#63b8ff" points="794.72,-25.83 802.86,-19.05 792.27,-19.27 794.72,-25.83"/>
</a>
</g>
</g>
<!-- Node13&#45;&gt;Node4 -->
<g id="edge25_Node000013_Node000004" class="edge">
<title>Node13&#45;&gt;Node4</title>
<g id="a_edge25_Node000013_Node000004"><a xlink:title=" ">
<path fill="none" stroke="#63b8ff" d="M240.53,-164.91C226.26,-157.64 208.23,-145.71 199.73,-129 183.14,-96.36 197.86,-52.6 208.69,-28.44"/>
<polygon fill="#63b8ff" stroke="#63b8ff" points="212,-29.63 213.12,-19.09 205.67,-26.62 212,-29.63"/>
</a>
</g>
</g>
<!-- Node13&#45;&gt;Node11 -->
<g id="edge24_Node000013_Node000011" class="edge">
<title>Node13&#45;&gt;Node11</title>
<g id="a_edge24_Node000013_Node000011"><a xlink:title=" ">
<path fill="none" stroke="#63b8ff" d="M270.53,-164.98C279.55,-157.15 293.14,-145.34 304.05,-135.86"/>
<polygon fill="#63b8ff" stroke="#63b8ff" points="306.5,-138.37 311.75,-129.17 301.91,-133.09 306.5,-138.37"/>
</a>
</g>
</g>
<!-- Node13&#45;&gt;Node12 -->
<g id="edge28_Node000013_Node000012" class="edge">
<title>Node13&#45;&gt;Node12</title>
<g id="a_edge28_Node000013_Node000012"><a xlink:title=" ">
<path fill="none" stroke="#63b8ff" d="M305.08,-164.98C353.22,-155.74 430.15,-140.97 482.02,-131.01"/>
<polygon fill="#63b8ff" stroke="#63b8ff" points="482.88,-134.41 492.04,-129.08 481.56,-127.53 482.88,-134.41"/>
</a>
</g>
</g>
<!-- Node14 -->
<g id="Node000014" class="node">
<title>Node14</title>
<g id="a_Node000014"><a xlink:title=" ">
<polygon fill="#e0e0e0" stroke="#999999" points="274.23,-129 209.23,-129 209.23,-110 274.23,-110 274.23,-129"/>
<text text-anchor="middle" x="241.73" y="-117" font-family="Helvetica,sans-Serif" font-size="10.00">functional</text>
</a>
</g>
</g>
<!-- Node13&#45;&gt;Node14 -->
<g id="edge26_Node000013_Node000014" class="edge">
<title>Node13&#45;&gt;Node14</title>
<g id="a_edge26_Node000013_Node000014"><a xlink:title=" ">
<path fill="none" stroke="#63b8ff" d="M257.59,-164.75C255.05,-157.65 251.37,-147.4 248.2,-138.56"/>
<polygon fill="#63b8ff" stroke="#63b8ff" points="251.48,-137.32 244.81,-129.09 244.89,-139.68 251.48,-137.32"/>
</a>
</g>
</g>
<!-- Node13&#45;&gt;Node15 -->
<g id="edge27_Node000013_Node000015" class="edge">
<title>Node13&#45;&gt;Node15</title>
<g id="a_edge27_Node000013_Node000015"><a xlink:title=" ">
<path fill="none" stroke="#63b8ff" d="M239.84,-164.98C218.65,-156.34 185.6,-142.87 161.43,-133.02"/>
<polygon fill="#63b8ff" stroke="#63b8ff" points="162.58,-129.7 152,-129.17 159.94,-136.19 162.58,-129.7"/>
</a>
</g>
</g>
<!-- Node16&#45;&gt;Node3 -->
<g id="edge32_Node000016_Node000003" class="edge">
<title>Node16&#45;&gt;Node3</title>
<g id="a_edge32_Node000016_Node000003"><a xlink:title=" ">
<path fill="none" stroke="#63b8ff" d="M350.49,-219.74C361.51,-194.09 393.85,-118.78 408.88,-83.78"/>
<polygon fill="#63b8ff" stroke="#63b8ff" points="412.22,-84.88 412.95,-74.31 405.79,-82.11 412.22,-84.88"/>
</a>
</g>
</g>
<!-- Node16&#45;&gt;Node12 -->
<g id="edge30_Node000016_Node000012" class="edge">
<title>Node16&#45;&gt;Node12</title>
<g id="a_edge30_Node000016_Node000012"><a xlink:title=" ">
<path fill="none" stroke="#63b8ff" d="M361.96,-219.84C394.98,-201.08 473.36,-156.52 512.96,-134.01"/>
<polygon fill="#63b8ff" stroke="#63b8ff" points="514.73,-137.03 521.69,-129.05 511.27,-130.95 514.73,-137.03"/>
</a>
</g>
</g>
<!-- Node16&#45;&gt;Node13 -->
<g id="edge31_Node000016_Node000013" class="edge">
<title>Node16&#45;&gt;Node13</title>
<g id="a_edge31_Node000016_Node000013"><a xlink:title=" ">
<path fill="none" stroke="#63b8ff" d="M332.91,-219.98C319.58,-211.77 299.15,-199.18 283.43,-189.49"/>
<polygon fill="#63b8ff" stroke="#63b8ff" points="285.15,-186.44 274.8,-184.17 281.48,-192.4 285.15,-186.44"/>
</a>
</g>
</g>
<!-- Node17&#45;&gt;Node2 -->
<g id="edge35_Node000017_Node000002" class="edge">
<title>Node17&#45;&gt;Node2</title>
<g id="a_edge35_Node000017_Node000002"><a xlink:title=" ">
<path fill="none" stroke="#63b8ff" d="M303.38,-439.76C293.22,-426.57 277.55,-401.4 290.73,-385 308.85,-362.45 384.18,-350.66 437.52,-345.01"/>
<polygon fill="#63b8ff" stroke="#63b8ff" points="437.94,-348.49 447.54,-344 437.24,-341.53 437.94,-348.49"/>
</a>
</g>
</g>
<!-- Node17&#45;&gt;Node3 -->
<g id="edge36_Node000017_Node000003" class="edge">
<title>Node17&#45;&gt;Node3</title>
<g id="a_edge36_Node000017_Node000003"><a xlink:title=" ">
<path fill="none" stroke="#63b8ff" d="M296.96,-439.76C235,-399.43 -10.41,-228.27 92.73,-110 110.14,-90.04 274.33,-75.53 362.06,-69.14"/>
<polygon fill="#63b8ff" stroke="#63b8ff" points="362.38,-72.62 372.11,-68.41 361.88,-65.64 362.38,-72.62"/>
</a>
</g>
</g>
<!-- Node18 -->
<g id="Node000018" class="node">
<title>Node18</title>
<g id="a_Node000018"><a xlink:title=" ">
<polygon fill="#e0e0e0" stroke="#999999" points="464.23,-404 419.23,-404 419.23,-385 464.23,-385 464.23,-404"/>
<text text-anchor="middle" x="441.73" y="-392" font-family="Helvetica,sans-Serif" font-size="10.00">utility</text>
</a>
</g>
</g>
<!-- Node17&#45;&gt;Node18 -->
<g id="edge34_Node000017_Node000018" class="edge">
<title>Node17&#45;&gt;Node18</title>
<g id="a_edge34_Node000017_Node000018"><a xlink:title=" ">
<path fill="none" stroke="#63b8ff" d="M331.78,-439.98C353.14,-431.34 386.44,-417.87 410.8,-408.02"/>
<polygon fill="#63b8ff" stroke="#63b8ff" points="412.34,-411.17 420.3,-404.17 409.72,-404.68 412.34,-411.17"/>
</a>
</g>
</g>
<!-- Node19 -->
<g id="Node000019" class="node">
<title>Node19</title>
<g id="a_Node000019"><a xlink:href="CCSDSValidator_8h.html" target="_top" xlink:title="Defines the Validator class for CCSDS packet validation.">
<polygon fill="white" stroke="#666666" points="401.23,-404 300.23,-404 300.23,-385 401.23,-385 401.23,-404"/>
<text text-anchor="middle" x="350.73" y="-392" font-family="Helvetica,sans-Serif" font-size="10.00">CCSDSValidator.h</text>
</a>
</g>
</g>
<!-- Node17&#45;&gt;Node19 -->
<g id="edge37_Node000017_Node000019" class="edge">
<title>Node17&#45;&gt;Node19</title>
<g id="a_edge37_Node000017_Node000019"><a xlink:title=" ">
<path fill="none" stroke="#63b8ff" d="M317.34,-439.75C322.99,-432.26 331.28,-421.28 338.18,-412.13"/>
<polygon fill="#63b8ff" stroke="#63b8ff" points="341.02,-414.18 344.25,-404.09 335.43,-409.96 341.02,-414.18"/>
</a>
</g>
</g>
<!-- Node19&#45;&gt;Node2 -->
<g id="edge38_Node000019_Node000002" class="edge">
<title>Node19&#45;&gt;Node2</title>
<g id="a_edge38_Node000019_Node000002"><a xlink:title=" ">
<path fill="none" stroke="#63b8ff" d="M373.55,-384.98C396.9,-376.27 433.44,-362.63 459.9,-352.75"/>
<polygon fill="#63b8ff" stroke="#63b8ff" points="461.36,-355.95 469.5,-349.17 458.91,-349.39 461.36,-355.95"/>
</a>
</g>
</g>
</g>
</svg>
