<?xml version="1.0" encoding="UTF-8" standalone="no"?>
<!DOCTYPE svg PUBLIC "-//W3C//DTD SVG 1.1//EN"
 "http://www.w3.org/Graphics/SVG/1.1/DTD/svg11.dtd">
<!-- Generated by graphviz version 2.43.0 (0)
 -->
<!-- Title: inc/CCSDSPacket.h Pages: 1 -->
<svg width="1120pt" height="247pt"
 viewBox="0.00 0.00 1119.50 247.00" xmlns="http://www.w3.org/2000/svg" xmlns:xlink="http://www.w3.org/1999/xlink">
<g id="graph0" class="graph" transform="scale(1 1) rotate(0) translate(4 243)">
<title>inc/CCSDSPacket.h</title>
<!-- Node1 -->
<g id="Node000001" class="node">
<title>Node1</title>
<g id="a_Node000001"><a xlink:title=" ">
<polygon fill="#999999" stroke="#666666" points="802.5,-239 695.5,-239 695.5,-220 802.5,-220 802.5,-239"/>
<text text-anchor="middle" x="749" y="-227" font-family="Helvetica,sans-Serif" font-size="10.00">inc/CCSDSPacket.h</text>
</a>
</g>
</g>
<!-- Node2 -->
<g id="Node000002" class="node">
<title>Node2</title>
<g id="a_Node000002"><a xlink:href="CCSDSManager_8h.html" target="_top" xlink:title=" ">
<polygon fill="white" stroke="#666666" points="764,-129 646,-129 646,-110 764,-110 764,-129"/>
<text text-anchor="middle" x="705" y="-117" font-family="Helvetica,sans-Serif" font-size="10.00">inc/CCSDSManager.h</text>
</a>
</g>
</g>
<!-- Node1&#45;&gt;Node2 -->
<g id="edge1_Node000001_Node000002" class="edge">
<title>Node1&#45;&gt;Node2</title>
<g id="a_edge1_Node000001_Node000002"><a xlink:title=" ">
<path fill="none" stroke="#63b8ff" d="M738.07,-211.14C733.31,-203.1 727.94,-193.28 724,-184 716,-165.14 709.94,-141.81 706.99,-129.34"/>
<polygon fill="#63b8ff" stroke="#63b8ff" points="735.23,-213.21 743.43,-219.93 741.21,-209.57 735.23,-213.21"/>
</a>
</g>
</g>
<!-- Node3 -->
<g id="Node000003" class="node">
<title>Node3</title>
<g id="a_Node000003"><a xlink:href="CCSDSUtils_8h.html" target="_top" xlink:title=" ">
<polygon fill="white" stroke="#666666" points="667,-74 569,-74 569,-55 667,-55 667,-74"/>
<text text-anchor="middle" x="618" y="-62" font-family="Helvetica,sans-Serif" font-size="10.00">inc/CCSDSUtils.h</text>
</a>
</g>
</g>
<!-- Node1&#45;&gt;Node3 -->
<g id="edge14_Node000001_Node000003" class="edge">
<title>Node1&#45;&gt;Node3</title>
<g id="a_edge14_Node000001_Node000003"><a xlink:title=" ">
<path fill="none" stroke="#63b8ff" d="M726.47,-214.2C701.11,-196.97 660.41,-165.72 637,-129 625.86,-111.53 621,-87.24 619.09,-74.35"/>
<polygon fill="#63b8ff" stroke="#63b8ff" points="724.79,-217.28 735.06,-219.9 728.66,-211.45 724.79,-217.28"/>
</a>
</g>
</g>
<!-- Node7 -->
<g id="Node000007" class="node">
<title>Node7</title>
<g id="a_Node000007"><a xlink:href="CCSDSPacket_8cpp.html" target="_top" xlink:title=" ">
<polygon fill="white" stroke="#666666" points="1111.5,-19 992.5,-19 992.5,0 1111.5,0 1111.5,-19"/>
<text text-anchor="middle" x="1052" y="-7" font-family="Helvetica,sans-Serif" font-size="10.00">src/CCSDSPacket.cpp</text>
</a>
</g>
</g>
<!-- Node1&#45;&gt;Node7 -->
<g id="edge18_Node000001_Node000007" class="edge">
<title>Node1&#45;&gt;Node7</title>
<g id="a_edge18_Node000001_Node000007"><a xlink:title=" ">
<path fill="none" stroke="#63b8ff" d="M788.76,-216.81C811.21,-209.26 839.25,-198.19 862,-184 942.73,-133.65 1020.65,-46.98 1044.55,-19.28"/>
<polygon fill="#63b8ff" stroke="#63b8ff" points="787.61,-213.51 779.19,-219.93 789.78,-220.16 787.61,-213.51"/>
</a>
</g>
</g>
<!-- Node12 -->
<g id="Node000012" class="node">
<title>Node12</title>
<g id="a_Node000012"><a xlink:href="CCSDSValidator_8h.html" target="_top" xlink:title="Defines the Validator class for CCSDS packet validation.">
<polygon fill="white" stroke="#666666" points="852.5,-184 733.5,-184 733.5,-165 852.5,-165 852.5,-184"/>
<text text-anchor="middle" x="793" y="-172" font-family="Helvetica,sans-Serif" font-size="10.00">inc/CCSDSValidator.h</text>
</a>
</g>
</g>
<!-- Node1&#45;&gt;Node12 -->
<g id="edge15_Node000001_Node000012" class="edge">
<title>Node1&#45;&gt;Node12</title>
<g id="a_edge15_Node000001_Node000012"><a xlink:title=" ">
<path fill="none" stroke="#63b8ff" d="M762.73,-211.96C770.4,-202.72 779.63,-191.6 785.87,-184.09"/>
<polygon fill="#63b8ff" stroke="#63b8ff" points="759.96,-209.82 756.27,-219.75 765.35,-214.29 759.96,-209.82"/>
</a>
</g>
</g>
<!-- Node2&#45;&gt;Node3 -->
<g id="edge2_Node000002_Node000003" class="edge">
<title>Node2&#45;&gt;Node3</title>
<g id="a_edge2_Node000002_Node000003"><a xlink:title=" ">
<path fill="none" stroke="#63b8ff" d="M682.34,-104.7C666.49,-95.04 645.81,-82.44 632.23,-74.17"/>
<polygon fill="#63b8ff" stroke="#63b8ff" points="680.66,-107.77 691.02,-109.98 684.3,-101.79 680.66,-107.77"/>
</a>
</g>
</g>
<!-- Node6 -->
<g id="Node000006" class="node">
<title>Node6</title>
<g id="a_Node000006"><a xlink:href="CCSDSManager_8cpp.html" target="_top" xlink:title=" ">
<polygon fill="white" stroke="#666666" points="825.5,-19 696.5,-19 696.5,0 825.5,0 825.5,-19"/>
<text text-anchor="middle" x="761" y="-7" font-family="Helvetica,sans-Serif" font-size="10.00">src/CCSDSManager.cpp</text>
</a>
</g>
</g>
<!-- Node2&#45;&gt;Node6 -->
<g id="edge11_Node000002_Node000006" class="edge">
<title>Node2&#45;&gt;Node6</title>
<g id="a_edge11_Node000002_Node000006"><a xlink:title=" ">
<path fill="none" stroke="#63b8ff" d="M714.2,-100.76C726.37,-77.28 747.36,-36.81 756.51,-19.16"/>
<polygon fill="#63b8ff" stroke="#63b8ff" points="711.08,-99.17 709.58,-109.66 717.29,-102.4 711.08,-99.17"/>
</a>
</g>
</g>
<!-- Node10 -->
<g id="Node000010" class="node">
<title>Node10</title>
<g id="a_Node000010"><a xlink:href="exec__decoder_8cpp.html" target="_top" xlink:title=" ">
<polygon fill="white" stroke="#666666" points="120,-19 0,-19 0,0 120,0 120,-19"/>
<text text-anchor="middle" x="60" y="-7" font-family="Helvetica,sans-Serif" font-size="10.00">src/exec_decoder.cpp</text>
</a>
</g>
</g>
<!-- Node2&#45;&gt;Node10 -->
<g id="edge12_Node000002_Node000010" class="edge">
<title>Node2&#45;&gt;Node10</title>
<g id="a_edge12_Node000002_Node000010"><a xlink:title=" ">
<path fill="none" stroke="#63b8ff" d="M644.21,-108.32C517.68,-87.14 228.1,-38.65 110.77,-19"/>
<polygon fill="#63b8ff" stroke="#63b8ff" points="643.68,-111.78 654.12,-109.98 644.83,-104.88 643.68,-111.78"/>
</a>
</g>
</g>
<!-- Node11 -->
<g id="Node000011" class="node">
<title>Node11</title>
<g id="a_Node000011"><a xlink:href="exec__encoder_8cpp.html" target="_top" xlink:title=" ">
<polygon fill="white" stroke="#666666" points="678,-19 558,-19 558,0 678,0 678,-19"/>
<text text-anchor="middle" x="618" y="-7" font-family="Helvetica,sans-Serif" font-size="10.00">src/exec_encoder.cpp</text>
</a>
</g>
</g>
<!-- Node2&#45;&gt;Node11 -->
<g id="edge13_Node000002_Node000011" class="edge">
<title>Node2&#45;&gt;Node11</title>
<g id="a_edge13_Node000002_Node000011"><a xlink:title=" ">
<path fill="none" stroke="#63b8ff" d="M699.41,-100.4C694.64,-86.94 686.84,-68.62 676,-55 663.98,-39.91 645.79,-27.05 632.99,-19.09"/>
<polygon fill="#63b8ff" stroke="#63b8ff" points="696.11,-101.58 702.58,-109.98 702.76,-99.38 696.11,-101.58"/>
</a>
</g>
</g>
<!-- Node4 -->
<g id="Node000004" class="node">
<title>Node4</title>
<g id="a_Node000004"><a xlink:href="CCSDSDataField_8cpp.html" target="_top" xlink:title=" ">
<polygon fill="white" stroke="#666666" points="272,-19 138,-19 138,0 272,0 272,-19"/>
<text text-anchor="middle" x="205" y="-7" font-family="Helvetica,sans-Serif" font-size="10.00">src/CCSDSDataField.cpp</text>
</a>
</g>
</g>
<!-- Node3&#45;&gt;Node4 -->
<g id="edge3_Node000003_Node000004" class="edge">
<title>Node3&#45;&gt;Node4</title>
<g id="a_edge3_Node000003_Node000004"><a xlink:title=" ">
<path fill="none" stroke="#63b8ff" d="M558.22,-55.83C482.05,-46.05 350.78,-29.21 271.52,-19.04"/>
<polygon fill="#63b8ff" stroke="#63b8ff" points="558.23,-59.36 568.59,-57.16 559.12,-52.42 558.23,-59.36"/>
</a>
</g>
</g>
<!-- Node5 -->
<g id="Node000005" class="node">
<title>Node5</title>
<g id="a_Node000005"><a xlink:href="CCSDSHeader_8cpp.html" target="_top" xlink:title=" ">
<polygon fill="white" stroke="#666666" points="412,-19 290,-19 290,0 412,0 412,-19"/>
<text text-anchor="middle" x="351" y="-7" font-family="Helvetica,sans-Serif" font-size="10.00">src/CCSDSHeader.cpp</text>
</a>
</g>
</g>
<!-- Node3&#45;&gt;Node5 -->
<g id="edge4_Node000003_Node000005" class="edge">
<title>Node3&#45;&gt;Node5</title>
<g id="a_edge4_Node000003_Node000005"><a xlink:title=" ">
<path fill="none" stroke="#63b8ff" d="M565.12,-53C515.07,-43.07 440.84,-28.33 394.23,-19.08"/>
<polygon fill="#63b8ff" stroke="#63b8ff" points="564.61,-56.47 575.1,-54.98 565.97,-49.6 564.61,-56.47"/>
</a>
</g>
</g>
<!-- Node3&#45;&gt;Node6 -->
<g id="edge5_Node000003_Node000006" class="edge">
<title>Node3&#45;&gt;Node6</title>
<g id="a_edge5_Node000003_Node000006"><a xlink:title=" ">
<path fill="none" stroke="#63b8ff" d="M650.59,-51.42C677.12,-41.59 713.93,-27.95 737.61,-19.17"/>
<polygon fill="#63b8ff" stroke="#63b8ff" points="649.14,-48.23 640.98,-54.98 651.57,-54.79 649.14,-48.23"/>
</a>
</g>
</g>
<!-- Node3&#45;&gt;Node7 -->
<g id="edge6_Node000003_Node000007" class="edge">
<title>Node3&#45;&gt;Node7</title>
<g id="a_edge6_Node000003_Node000007"><a xlink:title=" ">
<path fill="none" stroke="#63b8ff" d="M677.26,-56.3C749.47,-47.52 875.2,-32.21 983,-19 986,-18.63 989.06,-18.26 992.16,-17.88"/>
<polygon fill="#63b8ff" stroke="#63b8ff" points="676.51,-52.86 667,-57.55 677.35,-59.81 676.51,-52.86"/>
</a>
</g>
</g>
<!-- Node8 -->
<g id="Node000008" class="node">
<title>Node8</title>
<g id="a_Node000008"><a xlink:href="CCSDSUtils_8cpp.html" target="_top" xlink:title=" ">
<polygon fill="white" stroke="#666666" points="540,-19 430,-19 430,0 540,0 540,-19"/>
<text text-anchor="middle" x="485" y="-7" font-family="Helvetica,sans-Serif" font-size="10.00">src/CCSDSUtils.cpp</text>
</a>
</g>
</g>
<!-- Node3&#45;&gt;Node8 -->
<g id="edge7_Node000003_Node000008" class="edge">
<title>Node3&#45;&gt;Node8</title>
<g id="a_edge7_Node000003_Node000008"><a xlink:title=" ">
<path fill="none" stroke="#63b8ff" d="M587.03,-51.16C562.41,-41.35 528.59,-27.87 506.76,-19.17"/>
<polygon fill="#63b8ff" stroke="#63b8ff" points="586.05,-54.53 596.63,-54.98 588.64,-48.03 586.05,-54.53"/>
</a>
</g>
</g>
<!-- Node9 -->
<g id="Node000009" class="node">
<title>Node9</title>
<g id="a_Node000009"><a xlink:href="CCSDSValidator_8cpp.html" target="_top" xlink:title=" ">
<polygon fill="white" stroke="#666666" points="974,-19 844,-19 844,0 974,0 974,-19"/>
<text text-anchor="middle" x="909" y="-7" font-family="Helvetica,sans-Serif" font-size="10.00">src/CCSDSValidator.cpp</text>
</a>
</g>
</g>
<!-- Node3&#45;&gt;Node9 -->
<g id="edge8_Node000003_Node000009" class="edge">
<title>Node3&#45;&gt;Node9</title>
<g id="a_edge8_Node000003_Node000009"><a xlink:title=" ">
<path fill="none" stroke="#63b8ff" d="M674.61,-53.19C729.17,-43.25 810.76,-28.39 861.88,-19.08"/>
<polygon fill="#63b8ff" stroke="#63b8ff" points="673.97,-49.75 664.75,-54.98 675.22,-56.64 673.97,-49.75"/>
</a>
</g>
</g>
<!-- Node3&#45;&gt;Node10 -->
<g id="edge9_Node000003_Node000010" class="edge">
<title>Node3&#45;&gt;Node10</title>
<g id="a_edge9_Node000003_Node000010"><a xlink:title=" ">
<path fill="none" stroke="#63b8ff" d="M558.42,-58.69C466.28,-51.12 283.66,-35.56 129,-19 126.12,-18.69 123.17,-18.37 120.2,-18.03"/>
<polygon fill="#63b8ff" stroke="#63b8ff" points="558.42,-62.2 568.67,-59.53 558.99,-55.23 558.42,-62.2"/>
</a>
</g>
</g>
<!-- Node3&#45;&gt;Node11 -->
<g id="edge10_Node000003_Node000011" class="edge">
<title>Node3&#45;&gt;Node11</title>
<g id="a_edge10_Node000003_Node000011"><a xlink:title=" ">
<path fill="none" stroke="#63b8ff" d="M618,-44.66C618,-35.93 618,-25.99 618,-19.09"/>
<polygon fill="#63b8ff" stroke="#63b8ff" points="614.5,-44.75 618,-54.75 621.5,-44.75 614.5,-44.75"/>
</a>
</g>
</g>
<!-- Node12&#45;&gt;Node2 -->
<g id="edge16_Node000012_Node000002" class="edge">
<title>Node12&#45;&gt;Node2</title>
<g id="a_edge16_Node000012_Node000002"><a xlink:title=" ">
<path fill="none" stroke="#63b8ff" d="M770.08,-159.7C754.05,-150.04 733.13,-137.44 719.4,-129.17"/>
<polygon fill="#63b8ff" stroke="#63b8ff" points="768.49,-162.82 778.86,-164.98 772.1,-156.83 768.49,-162.82"/>
</a>
</g>
</g>
<!-- Node12&#45;&gt;Node9 -->
<g id="edge17_Node000012_Node000009" class="edge">
<title>Node12&#45;&gt;Node9</title>
<g id="a_edge17_Node000012_Node000009"><a xlink:title=" ">
<path fill="none" stroke="#63b8ff" d="M805.33,-156.18C829.92,-121.62 884.28,-45.23 902.73,-19.31"/>
<polygon fill="#63b8ff" stroke="#63b8ff" points="802.18,-154.56 799.24,-164.74 807.89,-158.62 802.18,-154.56"/>
</a>
</g>
</g>
</g>
</svg>
