<?xml version="1.0" encoding="UTF-8" standalone="no"?>
<!DOCTYPE svg PUBLIC "-//W3C//DTD SVG 1.1//EN"
 "http://www.w3.org/Graphics/SVG/1.1/DTD/svg11.dtd">
<!-- Generated by graphviz version 2.43.0 (0)
 -->
<!-- Title: printPackets Pages: 1 -->
<!--zoomable 617 -->

<svg id="main" version="1.1" xmlns="http://www.w3.org/2000/svg" xmlns:xlink="http://www.w3.org/1999/xlink" xml:space="preserve" onload="init(evt)">
<style type="text/css"><![CDATA[
.node, .edge {opacity: 0.7;}
.node.selected, .edge.selected {opacity: 1;}
.edge:hover path { stroke: red; }
.edge:hover polygon { stroke: red; fill: red; }
]]></style>

<defs>
  <circle id="rim" cx="0" cy="0" r="7"/>
  <circle id="rim2" cx="0" cy="0" r="3.5"/>
  <g id="zoomPlus">
    <use xlink:href="#rim" fill="#404040"><set attributeName="fill" to="#808080" begin="zoomplus.mouseover" end="zoomplus.mouseout"/></use>
    <path d="M-4,0h8M0,-4v8" fill="none" stroke="white" stroke-width="1.5" pointer-events="none"/>
  </g>
  <g id="zoomMin">
    <use xlink:href="#rim" fill="#404040"><set attributeName="fill" to="#808080" begin="zoomminus.mouseover" end="zoomminus.mouseout"/></use>
    <path d="M-4,0h8" fill="none" stroke="white" stroke-width="1.5" pointer-events="none"/>
  </g>
  <g id="arrowUp" transform="translate(30 24)">
    <use xlink:href="#rim"/>
    <path pointer-events="none" fill="none" stroke="white" stroke-width="1.5" d="M0,-3.0v7 M-2.5,-0.5L0,-3.0L2.5,-0.5"/>
  </g>
  <g id="arrowRight" transform="rotate(90) translate(36 -43)">
    <use xlink:href="#rim"/>
    <path pointer-events="none" fill="none" stroke="white" stroke-width="1.5" d="M0,-3.0v7 M-2.5,-0.5L0,-3.0L2.5,-0.5"/>
  </g>
  <g id="arrowDown" transform="rotate(180) translate(-30 -48)">
    <use xlink:href="#rim"/>
    <path pointer-events="none" fill="none" stroke="white" stroke-width="1.5" d="M0,-3.0v7 M-2.5,-0.5L0,-3.0L2.5,-0.5"/>
  </g>
  <g id="arrowLeft" transform="rotate(270) translate(-36 17)">
    <use xlink:href="#rim"/>
    <path pointer-events="none" fill="none" stroke="white" stroke-width="1.5" d="M0,-3.0v7 M-2.5,-0.5L0,-3.0L2.5,-0.5"/>
  </g>
  <g id="resetDef">
    <use xlink:href="#rim2" fill="#404040"><set attributeName="fill" to="#808080" begin="reset.mouseover" end="reset.mouseout"/></use>
  </g>
</defs>
<script type="application/ecmascript">
var viewWidth = 876;
var viewHeight = 617;
var sectionId = 'dynsection-16';
</script>
<script type="application/ecmascript" xlink:href="svg.min.js"/>
<svg id="graph" class="graph">
<g id="viewport">
<title>printPackets</title>
<!-- Node1 -->
<g id="Node000001" class="node">
<title>Node1</title>
<g id="a_Node000001"><a xlink:title="Prints to console a series of CCSDS Packets contained in the manager.">
<polygon fill="#999999" stroke="#666666" points="76,-246.12 0,-246.12 0,-227.12 76,-227.12 76,-246.12"/>
<text text-anchor="middle" x="38" y="-234.12" font-family="Helvetica,sans-Serif" font-size="10.00">printPackets</text>
</a>
</g>
</g>
<!-- Node2 -->
<g id="Node000002" class="node">
<title>Node2</title>
<g id="a_Node000002"><a xlink:href="classCCSDS_1_1Manager.html#a4551f2d0dab76e85ef697c4f390cbd7c" target="_top" xlink:title="Returns a reference to the packets vector.">
<polygon fill="white" stroke="#666666" points="279.5,-402.62 122.5,-402.62 122.5,-372.62 279.5,-372.62 279.5,-402.62"/>
<text text-anchor="start" x="130.5" y="-390.62" font-family="Helvetica,sans-Serif" font-size="10.00">CCSDS::Manager::getPackets</text>
<text text-anchor="middle" x="201" y="-379.62" font-family="Helvetica,sans-Serif" font-size="10.00">Reference</text>
</a>
</g>
</g>
<!-- Node1&#45;&gt;Node2 -->
<g id="edge1_Node000001_Node000002" class="edge">
<title>Node1&#45;&gt;Node2</title>
<g id="a_edge1_Node000001_Node000002"><a xlink:title=" ">
<path fill="none" stroke="#63b8ff" d="M41.73,-246.29C48.96,-270.09 70.94,-331.91 112,-363.62 113.78,-365 115.64,-366.3 117.55,-367.52"/>
<polygon fill="#63b8ff" stroke="#63b8ff" points="115.86,-370.58 126.29,-372.42 119.28,-364.48 115.86,-370.58"/>
</a>
</g>
</g>
<!-- Node3 -->
<g id="Node000003" class="node">
<title>Node3</title>
<g id="a_Node000003"><a xlink:href="classCCSDS_1_1Manager.html#a540afafc78a4450dd6d2a2113d5a3640" target="_top" xlink:title="returns the currently set sync pattern.">
<polygon fill="white" stroke="#666666" points="290,-354.12 112,-354.12 112,-335.12 290,-335.12 290,-354.12"/>
<text text-anchor="middle" x="201" y="-342.12" font-family="Helvetica,sans-Serif" font-size="10.00">CCSDS::Manager::getSyncPattern</text>
</a>
</g>
</g>
<!-- Node1&#45;&gt;Node3 -->
<g id="edge2_Node000001_Node000003" class="edge">
<title>Node1&#45;&gt;Node3</title>
<g id="a_edge2_Node000001_Node000003"><a xlink:title=" ">
<path fill="none" stroke="#63b8ff" d="M43.95,-246.2C54.05,-264.72 78.91,-305.42 112,-325.62 115.6,-327.82 119.42,-329.77 123.38,-331.49"/>
<polygon fill="#63b8ff" stroke="#63b8ff" points="122.21,-334.79 132.8,-335.12 124.73,-328.26 122.21,-334.79"/>
</a>
</g>
</g>
<!-- Node4 -->
<g id="Node000004" class="node">
<title>Node4</title>
<g id="a_Node000004"><a xlink:href="classCCSDS_1_1Manager.html#ab57dc694191ba220e81f7b7d833504e7" target="_top" xlink:title="returns the current settings of the sync pattern enable">
<polygon fill="white" stroke="#666666" points="290,-316.62 112,-316.62 112,-286.62 290,-286.62 290,-316.62"/>
<text text-anchor="start" x="120" y="-304.62" font-family="Helvetica,sans-Serif" font-size="10.00">CCSDS::Manager::getSyncPattern</text>
<text text-anchor="middle" x="201" y="-293.62" font-family="Helvetica,sans-Serif" font-size="10.00">Enable</text>
</a>
</g>
</g>
<!-- Node1&#45;&gt;Node4 -->
<g id="edge3_Node000001_Node000004" class="edge">
<title>Node1&#45;&gt;Node4</title>
<g id="a_edge3_Node000001_Node000004"><a xlink:title=" ">
<path fill="none" stroke="#63b8ff" d="M53.56,-246.22C67.92,-255.34 90.75,-268.91 112,-277.62 117.04,-279.69 122.31,-281.63 127.66,-283.45"/>
<polygon fill="#63b8ff" stroke="#63b8ff" points="126.75,-286.83 137.34,-286.58 128.91,-280.17 126.75,-286.83"/>
</a>
</g>
</g>
<!-- Node5 -->
<g id="Node000005" class="node">
<title>Node5</title>
<g id="a_Node000005"><a xlink:href="classCCSDS_1_1Manager.html#a6a35b16dd386f9519552d43a079263c2" target="_top" xlink:title="Retrieves the packet template.">
<polygon fill="white" stroke="#666666" points="283.5,-268.12 118.5,-268.12 118.5,-249.12 283.5,-249.12 283.5,-268.12"/>
<text text-anchor="middle" x="201" y="-256.12" font-family="Helvetica,sans-Serif" font-size="10.00">CCSDS::Manager::getTemplate</text>
</a>
</g>
</g>
<!-- Node1&#45;&gt;Node5 -->
<g id="edge4_Node000001_Node000005" class="edge">
<title>Node1&#45;&gt;Node5</title>
<g id="a_edge4_Node000001_Node000005"><a xlink:title=" ">
<path fill="none" stroke="#63b8ff" d="M76.34,-241.72C89.52,-243.53 104.9,-245.63 120.24,-247.72"/>
<polygon fill="#63b8ff" stroke="#63b8ff" points="119.91,-251.21 130.29,-249.1 120.86,-244.27 119.91,-251.21"/>
</a>
</g>
</g>
<!-- Node6 -->
<g id="Node000006" class="node">
<title>Node6</title>
<g id="a_Node000006"><a xlink:href="classCCSDS_1_1Manager.html#a67eb2b2ef2b45dcd25cdd80fa4057bbf" target="_top" xlink:title="Retrieves the total number of packets managed.">
<polygon fill="white" stroke="#666666" points="272.5,-230.62 129.5,-230.62 129.5,-200.62 272.5,-200.62 272.5,-230.62"/>
<text text-anchor="start" x="137.5" y="-218.62" font-family="Helvetica,sans-Serif" font-size="10.00">CCSDS::Manager::getTotal</text>
<text text-anchor="middle" x="201" y="-207.62" font-family="Helvetica,sans-Serif" font-size="10.00">Packets</text>
</a>
</g>
</g>
<!-- Node1&#45;&gt;Node6 -->
<g id="edge5_Node000001_Node000006" class="edge">
<title>Node1&#45;&gt;Node6</title>
<g id="a_edge5_Node000001_Node000006"><a xlink:title=" ">
<path fill="none" stroke="#63b8ff" d="M76.34,-231.75C89.17,-230.08 104.08,-228.13 119.01,-226.19"/>
<polygon fill="#63b8ff" stroke="#63b8ff" points="119.86,-229.6 129.32,-224.84 118.96,-222.66 119.86,-229.6"/>
</a>
</g>
</g>
<!-- Node7 -->
<g id="Node000007" class="node">
<title>Node7</title>
<g id="a_Node000007"><a xlink:href="CCSDSUtils_8cpp.html#ac77b078f446e1e3842c118709505e87b" target="_top" xlink:title="Prints to console the HEX data from the bytes vector.">
<polygon fill="white" stroke="#666666" points="813,-20.12 721,-20.12 721,-1.12 813,-1.12 813,-20.12"/>
<text text-anchor="middle" x="767" y="-8.12" font-family="Helvetica,sans-Serif" font-size="10.00">printBufferData</text>
</a>
</g>
</g>
<!-- Node1&#45;&gt;Node7 -->
<g id="edge6_Node000001_Node000007" class="edge">
<title>Node1&#45;&gt;Node7</title>
<g id="a_edge6_Node000001_Node000007"><a xlink:title=" ">
<path fill="none" stroke="#63b8ff" d="M41.84,-226.91C49.17,-203.64 71.13,-144.55 112,-116.62 300.72,12.32 590.5,4.96 710.75,-4.8"/>
<polygon fill="#63b8ff" stroke="#63b8ff" points="710.57,-8.3 720.83,-5.65 711.16,-1.32 710.57,-8.3"/>
</a>
</g>
</g>
<!-- Node8 -->
<g id="Node000008" class="node">
<title>Node8</title>
<g id="a_Node000008"><a xlink:href="CCSDSUtils_8cpp.html#a2e40e3867139b28c1b2fa0465c3afd7e" target="_top" xlink:title="Prints to console a CCSDS Packets, breaking it down to Primary header and Data field.">
<polygon fill="white" stroke="#666666" points="236.5,-144.12 165.5,-144.12 165.5,-125.12 236.5,-125.12 236.5,-144.12"/>
<text text-anchor="middle" x="201" y="-132.12" font-family="Helvetica,sans-Serif" font-size="10.00">printPacket</text>
</a>
</g>
</g>
<!-- Node1&#45;&gt;Node8 -->
<g id="edge7_Node000001_Node000008" class="edge">
<title>Node1&#45;&gt;Node8</title>
<g id="a_edge7_Node000001_Node000008"><a xlink:title=" ">
<path fill="none" stroke="#63b8ff" d="M45.21,-227.11C56.5,-210.61 81.98,-176.72 112,-158.62 125.11,-150.72 140.87,-145.36 155.41,-141.75"/>
<polygon fill="#63b8ff" stroke="#63b8ff" points="156.26,-145.15 165.23,-139.53 154.71,-138.33 156.26,-145.15"/>
</a>
</g>
</g>
<!-- Node17 -->
<g id="Node000017" class="node">
<title>Node17</title>
<g id="a_Node000017"><a xlink:href="CCSDSUtils_8cpp.html#a3c45ef84a35555519e34164e000dada5" target="_top" xlink:title="Prints to console the primary header of a provided CCSDS packet.">
<polygon fill="white" stroke="#666666" points="439,-197.12 326,-197.12 326,-178.12 439,-178.12 439,-197.12"/>
<text text-anchor="middle" x="382.5" y="-185.12" font-family="Helvetica,sans-Serif" font-size="10.00">printPrimaryHeader</text>
</a>
</g>
</g>
<!-- Node1&#45;&gt;Node17 -->
<g id="edge31_Node000001_Node000017" class="edge">
<title>Node1&#45;&gt;Node17</title>
<g id="a_edge31_Node000001_Node000017"><a xlink:title=" ">
<path fill="none" stroke="#63b8ff" d="M50.44,-226.81C64.05,-215.81 87.99,-198.62 112,-191.62 179.35,-171.99 260.24,-173.98 315.72,-179"/>
<polygon fill="#63b8ff" stroke="#63b8ff" points="315.48,-182.49 325.77,-179.97 316.15,-175.53 315.48,-182.49"/>
</a>
</g>
</g>
<!-- Node9 -->
<g id="Node000009" class="node">
<title>Node9</title>
<g id="a_Node000009"><a xlink:href="CCSDSUtils_8cpp.html#aed99c8e7576ac25c49f6b913b46d1b76" target="_top" xlink:title="Prints the data field and the CRC&#45;16 checksum of the packet.">
<polygon fill="white" stroke="#666666" points="425.5,-136.12 339.5,-136.12 339.5,-117.12 425.5,-117.12 425.5,-136.12"/>
<text text-anchor="middle" x="382.5" y="-124.12" font-family="Helvetica,sans-Serif" font-size="10.00">printDataField</text>
</a>
</g>
</g>
<!-- Node8&#45;&gt;Node9 -->
<g id="edge8_Node000008_Node000009" class="edge">
<title>Node8&#45;&gt;Node9</title>
<g id="a_edge8_Node000008_Node000009"><a xlink:title=" ">
<path fill="none" stroke="#63b8ff" d="M236.61,-133.08C262.86,-131.91 299.37,-130.28 329.18,-128.95"/>
<polygon fill="#63b8ff" stroke="#63b8ff" points="329.58,-132.44 339.42,-128.5 329.27,-125.45 329.58,-132.44"/>
</a>
</g>
</g>
<!-- Node8&#45;&gt;Node17 -->
<g id="edge17_Node000008_Node000017" class="edge">
<title>Node8&#45;&gt;Node17</title>
<g id="a_edge17_Node000008_Node000017"><a xlink:title=" ">
<path fill="none" stroke="#63b8ff" d="M236.78,-143.76C253,-148.11 272.53,-153.47 290,-158.62 307.34,-163.73 326.42,-169.72 342.64,-174.92"/>
<polygon fill="#63b8ff" stroke="#63b8ff" points="341.74,-178.31 352.34,-178.05 343.89,-171.65 341.74,-178.31"/>
</a>
</g>
</g>
<!-- Node10 -->
<g id="Node000010" class="node">
<title>Node10</title>
<g id="a_Node000010"><a xlink:href="classCCSDS_1_1Packet.html#a6b0791e2a62a2db48b12a5ee6b762a7b" target="_top" xlink:title="Computes and retrieves the CRC&#45;16 checksum of the packet.">
<polygon fill="white" stroke="#666666" points="617,-81.12 488,-81.12 488,-62.12 617,-62.12 617,-81.12"/>
<text text-anchor="middle" x="552.5" y="-69.12" font-family="Helvetica,sans-Serif" font-size="10.00">CCSDS::Packet::getCRC</text>
</a>
</g>
</g>
<!-- Node9&#45;&gt;Node10 -->
<g id="edge9_Node000009_Node000010" class="edge">
<title>Node9&#45;&gt;Node10</title>
<g id="a_edge9_Node000009_Node000010"><a xlink:title=" ">
<path fill="none" stroke="#63b8ff" d="M404.61,-117.01C422.94,-108.92 450.34,-97.46 475,-89.62 481.79,-87.46 489,-85.44 496.17,-83.58"/>
<polygon fill="#63b8ff" stroke="#63b8ff" points="497.03,-86.97 505.88,-81.15 495.33,-80.18 497.03,-86.97"/>
</a>
</g>
</g>
<!-- Node11 -->
<g id="Node000011" class="node">
<title>Node11</title>
<g id="a_Node000011"><a xlink:href="classCCSDS_1_1Packet.html#ae788c8d3ae1fcec2c18787c9491cdca3" target="_top" xlink:title="returns the CCSDS packet&#39;s DataField.">
<polygon fill="white" stroke="#666666" points="630,-155.12 475,-155.12 475,-136.12 630,-136.12 630,-155.12"/>
<text text-anchor="middle" x="552.5" y="-143.12" font-family="Helvetica,sans-Serif" font-size="10.00">CCSDS::Packet::getDataField</text>
</a>
</g>
</g>
<!-- Node9&#45;&gt;Node11 -->
<g id="edge10_Node000009_Node000011" class="edge">
<title>Node9&#45;&gt;Node11</title>
<g id="a_edge10_Node000009_Node000011"><a xlink:title=" ">
<path fill="none" stroke="#63b8ff" d="M425.89,-131.42C437.74,-132.76 451.07,-134.26 464.51,-135.78"/>
<polygon fill="#63b8ff" stroke="#63b8ff" points="464.44,-139.3 474.77,-136.94 465.23,-132.34 464.44,-139.3"/>
</a>
</g>
</g>
<!-- Node12 -->
<g id="Node000012" class="node">
<title>Node12</title>
<g id="a_Node000012"><a xlink:href="CCSDSUtils_8cpp.html#a6e927daa91ea42db4bb94bfc51425b96" target="_top" xlink:title="Prints the data field details, including the secondary header and application data.">
<polygon fill="white" stroke="#666666" points="583.5,-118.12 521.5,-118.12 521.5,-99.12 583.5,-99.12 583.5,-118.12"/>
<text text-anchor="middle" x="552.5" y="-106.12" font-family="Helvetica,sans-Serif" font-size="10.00">printData</text>
</a>
</g>
</g>
<!-- Node9&#45;&gt;Node12 -->
<g id="edge11_Node000009_Node000012" class="edge">
<title>Node9&#45;&gt;Node12</title>
<g id="a_edge11_Node000009_Node000012"><a xlink:title=" ">
<path fill="none" stroke="#63b8ff" d="M425.89,-122.08C452.04,-119.28 485.37,-115.71 511.13,-112.95"/>
<polygon fill="#63b8ff" stroke="#63b8ff" points="511.74,-116.4 521.31,-111.86 510.99,-109.44 511.74,-116.4"/>
</a>
</g>
</g>
<!-- Node12&#45;&gt;Node7 -->
<g id="edge16_Node000012_Node000007" class="edge">
<title>Node12&#45;&gt;Node7</title>
<g id="a_edge16_Node000012_Node000007"><a xlink:title=" ">
<path fill="none" stroke="#63b8ff" d="M583.78,-106.56C598.87,-104.25 616.69,-99.47 630,-89.62 655,-71.13 640.49,-47.41 666,-29.62 679.02,-20.54 695.21,-15.49 710.75,-12.77"/>
<polygon fill="#63b8ff" stroke="#63b8ff" points="711.44,-16.2 720.83,-11.29 710.43,-9.28 711.44,-16.2"/>
</a>
</g>
</g>
<!-- Node13 -->
<g id="Node000013" class="node">
<title>Node13</title>
<g id="a_Node000013"><a xlink:href="classCCSDS_1_1DataField.html#a692e61aef588439155bdd3e289bfa103" target="_top" xlink:title="Retrieves the application data from the data field.">
<polygon fill="white" stroke="#666666" points="868,-106.12 666,-106.12 666,-87.12 868,-87.12 868,-106.12"/>
<text text-anchor="middle" x="767" y="-94.12" font-family="Helvetica,sans-Serif" font-size="10.00">CCSDS::DataField::getApplicationData</text>
</a>
</g>
</g>
<!-- Node12&#45;&gt;Node13 -->
<g id="edge12_Node000012_Node000013" class="edge">
<title>Node12&#45;&gt;Node13</title>
<g id="a_edge12_Node000012_Node000013"><a xlink:title=" ">
<path fill="none" stroke="#63b8ff" d="M583.95,-106.9C603.18,-105.82 629.33,-104.34 655.8,-102.84"/>
<polygon fill="#63b8ff" stroke="#63b8ff" points="656.16,-106.33 665.95,-102.27 655.77,-99.34 656.16,-106.33"/>
</a>
</g>
</g>
<!-- Node14 -->
<g id="Node000014" class="node">
<title>Node14</title>
<g id="a_Node000014"><a xlink:href="CCSDSUtils_8cpp.html#a6a4f98ed870a1cf55c943c9ace54a0cf" target="_top" xlink:title="Generates a string of spaces for formatting binary outputs.">
<polygon fill="white" stroke="#666666" points="810,-192.12 724,-192.12 724,-173.12 810,-173.12 810,-192.12"/>
<text text-anchor="middle" x="767" y="-180.12" font-family="Helvetica,sans-Serif" font-size="10.00">getBitsSpaces</text>
</a>
</g>
</g>
<!-- Node12&#45;&gt;Node14 -->
<g id="edge13_Node000012_Node000014" class="edge">
<title>Node12&#45;&gt;Node14</title>
<g id="a_edge13_Node000012_Node000014"><a xlink:title=" ">
<path fill="none" stroke="#63b8ff" d="M583.6,-112.24C598.3,-114.94 615.82,-119.61 630,-127.62 649.7,-138.76 646,-153.04 666,-163.62 680.48,-171.28 697.58,-175.89 713.51,-178.64"/>
<polygon fill="#63b8ff" stroke="#63b8ff" points="713.36,-182.16 723.77,-180.2 714.41,-175.24 713.36,-182.16"/>
</a>
</g>
</g>
<!-- Node15 -->
<g id="Node000015" class="node">
<title>Node15</title>
<g id="a_Node000015"><a xlink:href="classCCSDS_1_1DataField.html#a586f18dcf878e68efd197994e95c6895" target="_top" xlink:title="Retrieves the secondary header data as a vector of bytes.">
<polygon fill="white" stroke="#666666" points="840.5,-68.62 693.5,-68.62 693.5,-38.62 840.5,-38.62 840.5,-68.62"/>
<text text-anchor="start" x="701.5" y="-56.62" font-family="Helvetica,sans-Serif" font-size="10.00">CCSDS::DataField::getData</text>
<text text-anchor="middle" x="767" y="-45.62" font-family="Helvetica,sans-Serif" font-size="10.00">FieldHeaderBytes</text>
</a>
</g>
</g>
<!-- Node12&#45;&gt;Node15 -->
<g id="edge14_Node000012_Node000015" class="edge">
<title>Node12&#45;&gt;Node15</title>
<g id="a_edge14_Node000012_Node000015"><a xlink:title=" ">
<path fill="none" stroke="#63b8ff" d="M583.8,-101.67C597.91,-98.29 614.89,-94.01 630,-89.62 646.2,-84.92 649.79,-82.26 666,-77.62 673.75,-75.4 681.88,-73.22 690,-71.13"/>
<polygon fill="#63b8ff" stroke="#63b8ff" points="691.06,-74.48 699.9,-68.63 689.34,-67.69 691.06,-74.48"/>
</a>
</g>
</g>
<!-- Node16 -->
<g id="Node000016" class="node">
<title>Node16</title>
<g id="a_Node000016"><a xlink:href="classCCSDS_1_1DataField.html#a78c2894fc2650e0dc9ec892d58dfde7a" target="_top" xlink:title="retrieves true if a known secondary header has been set">
<polygon fill="white" stroke="#666666" points="840.5,-154.62 693.5,-154.62 693.5,-124.62 840.5,-124.62 840.5,-154.62"/>
<text text-anchor="start" x="701.5" y="-142.62" font-family="Helvetica,sans-Serif" font-size="10.00">CCSDS::DataField::getData</text>
<text text-anchor="middle" x="767" y="-131.62" font-family="Helvetica,sans-Serif" font-size="10.00">FieldHeaderFlag</text>
</a>
</g>
</g>
<!-- Node12&#45;&gt;Node16 -->
<g id="edge15_Node000012_Node000016" class="edge">
<title>Node12&#45;&gt;Node16</title>
<g id="a_edge15_Node000012_Node000016"><a xlink:title=" ">
<path fill="none" stroke="#63b8ff" d="M583.95,-113.06C609.85,-116.84 648.3,-122.45 683.19,-127.54"/>
<polygon fill="#63b8ff" stroke="#63b8ff" points="683.01,-131.05 693.41,-129.03 684.02,-124.12 683.01,-131.05"/>
</a>
</g>
</g>
<!-- Node18 -->
<g id="Node000018" class="node">
<title>Node18</title>
<g id="a_Node000018"><a xlink:href="classCCSDS_1_1Header.html#a2f4d97beaaaac5b2005b470ed14f228d" target="_top" xlink:title="Sets the header data from a 64&#45;bit integer representation.">
<polygon fill="white" stroke="#666666" points="627.5,-205.12 477.5,-205.12 477.5,-186.12 627.5,-186.12 627.5,-205.12"/>
<text text-anchor="middle" x="552.5" y="-193.12" font-family="Helvetica,sans-Serif" font-size="10.00">CCSDS::Header::deserialize</text>
</a>
</g>
</g>
<!-- Node17&#45;&gt;Node18 -->
<g id="edge18_Node000017_Node000018" class="edge">
<title>Node17&#45;&gt;Node18</title>
<g id="a_edge18_Node000017_Node000018"><a xlink:title=" ">
<path fill="none" stroke="#63b8ff" d="M439.44,-190.29C448.34,-190.71 457.72,-191.16 467.11,-191.6"/>
<polygon fill="#63b8ff" stroke="#63b8ff" points="467.11,-195.11 477.27,-192.09 467.45,-188.12 467.11,-195.11"/>
</a>
</g>
</g>
<!-- Node20 -->
<g id="Node000020" class="node">
<title>Node20</title>
<g id="a_Node000020"><a xlink:href="CCSDSUtils_8cpp.html#a993788a78365e86ff065ba8bedff543a" target="_top" xlink:title="Prints the header fields and their binary or hexadecimal representations.">
<polygon fill="white" stroke="#666666" points="589.5,-406.12 515.5,-406.12 515.5,-387.12 589.5,-387.12 589.5,-406.12"/>
<text text-anchor="middle" x="552.5" y="-394.12" font-family="Helvetica,sans-Serif" font-size="10.00">printHeader</text>
</a>
</g>
</g>
<!-- Node17&#45;&gt;Node20 -->
<g id="edge20_Node000017_Node000020" class="edge">
<title>Node17&#45;&gt;Node20</title>
<g id="a_edge20_Node000017_Node000020"><a xlink:title=" ">
<path fill="none" stroke="#63b8ff" d="M391.16,-197.15C417.28,-229.65 503.21,-336.55 537.34,-379.01"/>
<polygon fill="#63b8ff" stroke="#63b8ff" points="534.81,-381.44 543.8,-387.04 540.26,-377.06 534.81,-381.44"/>
</a>
</g>
</g>
<!-- Node19 -->
<g id="Node000019" class="node">
<title>Node19</title>
<g id="a_Node000019"><a xlink:href="classCCSDS_1_1Header.html#aad717b39dda3dff19adb10e3c7e38100" target="_top" xlink:title="Sets the header data from a 64&#45;bit integer representation.">
<polygon fill="white" stroke="#666666" points="834.5,-229.12 699.5,-229.12 699.5,-210.12 834.5,-210.12 834.5,-229.12"/>
<text text-anchor="middle" x="767" y="-217.12" font-family="Helvetica,sans-Serif" font-size="10.00">CCSDS::Header::setData</text>
</a>
</g>
</g>
<!-- Node18&#45;&gt;Node19 -->
<g id="edge19_Node000018_Node000019" class="edge">
<title>Node18&#45;&gt;Node19</title>
<g id="a_edge19_Node000018_Node000019"><a xlink:title=" ">
<path fill="none" stroke="#63b8ff" d="M627.52,-203.98C647.51,-206.24 669.17,-208.69 689.29,-210.96"/>
<polygon fill="#63b8ff" stroke="#63b8ff" points="689.01,-214.45 699.34,-212.09 689.8,-207.49 689.01,-214.45"/>
</a>
</g>
</g>
<!-- Node20&#45;&gt;Node14 -->
<g id="edge23_Node000020_Node000014" class="edge">
<title>Node20&#45;&gt;Node14</title>
<g id="a_edge23_Node000020_Node000014"><a xlink:title=" ">
<path fill="none" stroke="#63b8ff" d="M555.96,-386.96C564.71,-354.75 597.49,-250.29 666,-201.62 679.84,-191.79 697.37,-186.66 713.88,-184.09"/>
<polygon fill="#63b8ff" stroke="#63b8ff" points="714.51,-187.54 723.98,-182.8 713.62,-180.6 714.51,-187.54"/>
</a>
</g>
</g>
<!-- Node21 -->
<g id="Node000021" class="node">
<title>Node21</title>
<g id="a_Node000021"><a xlink:href="classCCSDS_1_1Header.html#a3b171a18bfed281cfa837f349f7cc264" target="_top" xlink:title="11 bits">
<polygon fill="white" stroke="#666666" points="835,-609.12 699,-609.12 699,-590.12 835,-590.12 835,-609.12"/>
<text text-anchor="middle" x="767" y="-597.12" font-family="Helvetica,sans-Serif" font-size="10.00">CCSDS::Header::getAPID</text>
</a>
</g>
</g>
<!-- Node20&#45;&gt;Node21 -->
<g id="edge21_Node000020_Node000021" class="edge">
<title>Node20&#45;&gt;Node21</title>
<g id="a_edge21_Node000020_Node000021"><a xlink:title=" ">
<path fill="none" stroke="#63b8ff" d="M556.23,-406.25C565.62,-437.41 599.66,-536.12 666,-581.62 673.01,-586.43 680.91,-590.06 689.14,-592.8"/>
<polygon fill="#63b8ff" stroke="#63b8ff" points="688.32,-596.2 698.9,-595.61 690.26,-589.48 688.32,-596.2"/>
</a>
</g>
</g>
<!-- Node22 -->
<g id="Node000022" class="node">
<title>Node22</title>
<g id="a_Node000022"><a xlink:href="CCSDSUtils_8cpp.html#a1b76edce6a353d6dabf826e662d5f50c" target="_top" xlink:title="Converts a given value to its binary representation as a string, with spaces every 4 bits.">
<polygon fill="white" stroke="#666666" points="813,-572.12 721,-572.12 721,-553.12 813,-553.12 813,-572.12"/>
<text text-anchor="middle" x="767" y="-560.12" font-family="Helvetica,sans-Serif" font-size="10.00">getBinaryString</text>
</a>
</g>
</g>
<!-- Node20&#45;&gt;Node22 -->
<g id="edge22_Node000020_Node000022" class="edge">
<title>Node20&#45;&gt;Node22</title>
<g id="a_edge22_Node000020_Node000022"><a xlink:title=" ">
<path fill="none" stroke="#63b8ff" d="M557.88,-406.49C570.4,-433.42 609.11,-508.53 666,-543.62 679.39,-551.88 695.55,-556.69 710.95,-559.46"/>
<polygon fill="#63b8ff" stroke="#63b8ff" points="710.5,-562.93 720.92,-560.99 711.57,-556.01 710.5,-562.93"/>
</a>
</g>
</g>
<!-- Node23 -->
<g id="Node000023" class="node">
<title>Node23</title>
<g id="a_Node000023"><a xlink:href="classCCSDS_1_1Header.html#a836aab2a197579a57a7901071075f685" target="_top" xlink:title="1 bits">
<polygon fill="white" stroke="#666666" points="846.5,-534.62 687.5,-534.62 687.5,-504.62 846.5,-504.62 846.5,-534.62"/>
<text text-anchor="start" x="695.5" y="-522.62" font-family="Helvetica,sans-Serif" font-size="10.00">CCSDS::Header::getDataField</text>
<text text-anchor="middle" x="767" y="-511.62" font-family="Helvetica,sans-Serif" font-size="10.00">HeaderFlag</text>
</a>
</g>
</g>
<!-- Node20&#45;&gt;Node23 -->
<g id="edge24_Node000020_Node000023" class="edge">
<title>Node20&#45;&gt;Node23</title>
<g id="a_edge24_Node000020_Node000023"><a xlink:title=" ">
<path fill="none" stroke="#63b8ff" d="M561.42,-406.21C578.41,-426.12 620.51,-472.02 666,-495.62 669.79,-497.59 673.74,-499.4 677.8,-501.06"/>
<polygon fill="#63b8ff" stroke="#63b8ff" points="676.82,-504.43 687.41,-504.68 679.28,-497.88 676.82,-504.43"/>
</a>
</g>
</g>
<!-- Node24 -->
<g id="Node000024" class="node">
<title>Node24</title>
<g id="a_Node000024"><a xlink:href="classCCSDS_1_1Header.html#a9c2ac8f4b16874076de742cb19833bd7" target="_top" xlink:title="16 bits">
<polygon fill="white" stroke="#666666" points="851.5,-486.12 682.5,-486.12 682.5,-467.12 851.5,-467.12 851.5,-486.12"/>
<text text-anchor="middle" x="767" y="-474.12" font-family="Helvetica,sans-Serif" font-size="10.00">CCSDS::Header::getDataLength</text>
</a>
</g>
</g>
<!-- Node20&#45;&gt;Node24 -->
<g id="edge25_Node000020_Node000024" class="edge">
<title>Node20&#45;&gt;Node24</title>
<g id="a_edge25_Node000020_Node000024"><a xlink:title=" ">
<path fill="none" stroke="#63b8ff" d="M567.36,-406.22C587.92,-420 628.17,-445.2 666,-458.62 672.48,-460.92 679.3,-462.94 686.21,-464.7"/>
<polygon fill="#63b8ff" stroke="#63b8ff" points="685.84,-468.21 696.38,-467.11 687.46,-461.4 685.84,-468.21"/>
</a>
</g>
</g>
<!-- Node25 -->
<g id="Node000025" class="node">
<title>Node25</title>
<g id="a_Node000025"><a xlink:href="classCCSDS_1_1Header.html#af1ae6079606846982ff0552a2d684a1b" target="_top" xlink:title="Computes and retrieves the full header as a 64&#45;bit value.">
<polygon fill="white" stroke="#666666" points="849.5,-449.12 684.5,-449.12 684.5,-430.12 849.5,-430.12 849.5,-449.12"/>
<text text-anchor="middle" x="767" y="-437.12" font-family="Helvetica,sans-Serif" font-size="10.00">CCSDS::Header::getFullHeader</text>
</a>
</g>
</g>
<!-- Node20&#45;&gt;Node25 -->
<g id="edge26_Node000020_Node000025" class="edge">
<title>Node20&#45;&gt;Node25</title>
<g id="a_edge26_Node000020_Node000025"><a xlink:title=" ">
<path fill="none" stroke="#63b8ff" d="M589.68,-404.56C611.72,-409.33 640.45,-415.47 666,-420.62 678.44,-423.13 691.77,-425.73 704.51,-428.16"/>
<polygon fill="#63b8ff" stroke="#63b8ff" points="704.09,-431.65 714.57,-430.08 705.4,-424.77 704.09,-431.65"/>
</a>
</g>
</g>
<!-- Node26 -->
<g id="Node000026" class="node">
<title>Node26</title>
<g id="a_Node000026"><a xlink:href="classCCSDS_1_1Header.html#a8847364755456604a86e894a950f81c6" target="_top" xlink:title="14 bits">
<polygon fill="white" stroke="#666666" points="847,-411.62 687,-411.62 687,-381.62 847,-381.62 847,-411.62"/>
<text text-anchor="start" x="695" y="-399.62" font-family="Helvetica,sans-Serif" font-size="10.00">CCSDS::Header::getSequence</text>
<text text-anchor="middle" x="767" y="-388.62" font-family="Helvetica,sans-Serif" font-size="10.00">Count</text>
</a>
</g>
</g>
<!-- Node20&#45;&gt;Node26 -->
<g id="edge27_Node000020_Node000026" class="edge">
<title>Node20&#45;&gt;Node26</title>
<g id="a_edge27_Node000020_Node000026"><a xlink:title=" ">
<path fill="none" stroke="#63b8ff" d="M589.55,-396.62C613.48,-396.62 646.03,-396.62 676.65,-396.62"/>
<polygon fill="#63b8ff" stroke="#63b8ff" points="676.94,-400.12 686.94,-396.62 676.94,-393.12 676.94,-400.12"/>
</a>
</g>
</g>
<!-- Node27 -->
<g id="Node000027" class="node">
<title>Node27</title>
<g id="a_Node000027"><a xlink:href="classCCSDS_1_1Header.html#a7aec7b479769c8348584cab4b9d1197b" target="_top" xlink:title="2 bits">
<polygon fill="white" stroke="#666666" points="847,-363.62 687,-363.62 687,-333.62 847,-333.62 847,-363.62"/>
<text text-anchor="start" x="695" y="-351.62" font-family="Helvetica,sans-Serif" font-size="10.00">CCSDS::Header::getSequence</text>
<text text-anchor="middle" x="767" y="-340.62" font-family="Helvetica,sans-Serif" font-size="10.00">Flags</text>
</a>
</g>
</g>
<!-- Node20&#45;&gt;Node27 -->
<g id="edge28_Node000020_Node000027" class="edge">
<title>Node20&#45;&gt;Node27</title>
<g id="a_edge28_Node000020_Node000027"><a xlink:title=" ">
<path fill="none" stroke="#63b8ff" d="M589.55,-388.48C616.81,-382.32 655.25,-373.64 689.28,-365.95"/>
<polygon fill="#63b8ff" stroke="#63b8ff" points="690.24,-369.32 699.22,-363.71 688.7,-362.5 690.24,-369.32"/>
</a>
</g>
</g>
<!-- Node28 -->
<g id="Node000028" class="node">
<title>Node28</title>
<g id="a_Node000028"><a xlink:href="classCCSDS_1_1Header.html#a6ac965b4a0dd459bb41e78225a376b18" target="_top" xlink:title="1 bits">
<polygon fill="white" stroke="#666666" points="834.5,-315.12 699.5,-315.12 699.5,-296.12 834.5,-296.12 834.5,-315.12"/>
<text text-anchor="middle" x="767" y="-303.12" font-family="Helvetica,sans-Serif" font-size="10.00">CCSDS::Header::getType</text>
</a>
</g>
</g>
<!-- Node20&#45;&gt;Node28 -->
<g id="edge29_Node000020_Node000028" class="edge">
<title>Node20&#45;&gt;Node28</title>
<g id="a_edge29_Node000020_Node000028"><a xlink:title=" ">
<path fill="none" stroke="#63b8ff" d="M565.14,-386.99C584.69,-371.35 625.92,-340.56 666,-324.62 673.47,-321.65 681.45,-319.13 689.51,-317.01"/>
<polygon fill="#63b8ff" stroke="#63b8ff" points="690.48,-320.37 699.36,-314.6 688.81,-313.57 690.48,-320.37"/>
</a>
</g>
</g>
<!-- Node29 -->
<g id="Node000029" class="node">
<title>Node29</title>
<g id="a_Node000029"><a xlink:href="classCCSDS_1_1Header.html#a2e77e7032a48a692bb8dd0754ecccdc5" target="_top" xlink:title="3 bits">
<polygon fill="white" stroke="#666666" points="841.5,-277.62 692.5,-277.62 692.5,-247.62 841.5,-247.62 841.5,-277.62"/>
<text text-anchor="start" x="700.5" y="-265.62" font-family="Helvetica,sans-Serif" font-size="10.00">CCSDS::Header::getVersion</text>
<text text-anchor="middle" x="767" y="-254.62" font-family="Helvetica,sans-Serif" font-size="10.00">Number</text>
</a>
</g>
</g>
<!-- Node20&#45;&gt;Node29 -->
<g id="edge30_Node000020_Node000029" class="edge">
<title>Node20&#45;&gt;Node29</title>
<g id="a_edge30_Node000020_Node000029"><a xlink:title=" ">
<path fill="none" stroke="#63b8ff" d="M560.47,-387.05C576.54,-365.71 618.46,-314.04 666,-287.62 671.39,-284.63 677.14,-281.98 683.05,-279.66"/>
<polygon fill="#63b8ff" stroke="#63b8ff" points="684.25,-282.94 692.46,-276.25 681.87,-276.36 684.25,-282.94"/>
</a>
</g>
</g>
</g>
</svg>

<g id="navigator" transform="translate(0 0)" fill="#404254">
  <rect fill="#f2f5e9" fill-opacity="0.5" stroke="#606060" stroke-width=".5" x="0" y="0" width="60" height="60"/>
  <use id="zoomplus" xlink:href="#zoomPlus" x="17" y="9" onmousedown="handleZoom(evt,'in')"/>
  <use id="zoomminus" xlink:href="#zoomMin" x="42" y="9" onmousedown="handleZoom(evt,'out')"/>
  <use id="reset" xlink:href="#resetDef" x="30" y="36" onmousedown="handleReset()"/>
   <use id="arrowup" xlink:href="#arrowUp" x="0" y="0" onmousedown="handlePan(0,-1)"/>
  <use id="arrowright" xlink:href="#arrowRight" x="0" y="0" onmousedown="handlePan(1,0)"/>
  <use id="arrowdown" xlink:href="#arrowDown" x="0" y="0" onmousedown="handlePan(0,1)"/>
  <use id="arrowleft" xlink:href="#arrowLeft" x="0" y="0" onmousedown="handlePan(-1,0)"/>
</g>
<svg viewBox="0 0 15 15" width="100%" height="30px" preserveAspectRatio="xMaxYMin meet">
 <g id="arrow_out" transform="scale(0.3 0.3)">
  <a xlink:href="CCSDSUtils_8h_ad200055b4cb44dddba0ced16faee7d69_cgraph_org.svg" target="_base">
   <rect id="button" ry="5" rx="5" y="6" x="6" height="38" width="38"
        fill="#f2f5e9" fill-opacity="0.5" stroke="#606060" stroke-width="1.0"/>
   <path id="arrow"
     d="M 11.500037,31.436501 C 11.940474,20.09759 22.043105,11.32322 32.158766,21.979434 L 37.068811,17.246167 C 37.068811,17.246167 37.088388,32 37.088388,32 L 22.160133,31.978069 C 22.160133,31.978069 26.997745,27.140456 26.997745,27.140456 C 18.528582,18.264221 13.291696,25.230495 11.500037,31.436501 z"
     style="fill:#404040;"/>
  </a>
 </g>
</svg>

<style type='text/css'>
<![CDATA[
[data-mouse-over-selected='false'] { opacity: 0.7; }
[data-mouse-over-selected='true']  { opacity: 1.0; }
]]>
</style>
<script type="application/ecmascript"><![CDATA[
document.addEventListener('DOMContentLoaded', (event) => {
  highlightEdges();
  highlightAdjacentNodes();
});
]]></script>
</svg>
