<?xml version="1.0" encoding="UTF-8" standalone="no"?>
<!DOCTYPE svg PUBLIC "-//W3C//DTD SVG 1.1//EN"
 "http://www.w3.org/Graphics/SVG/1.1/DTD/svg11.dtd">
<!-- Generated by graphviz version 2.43.0 (0)
 -->
<!-- Title: inc/CCSDSSecondaryHeaderAbstract.h Pages: 1 -->
<svg width="445pt" height="203pt"
 viewBox="0.00 0.00 445.19 203.00" xmlns="http://www.w3.org/2000/svg" xmlns:xlink="http://www.w3.org/1999/xlink">
<g id="graph0" class="graph" transform="scale(1 1) rotate(0) translate(4 199)">
<title>inc/CCSDSSecondaryHeaderAbstract.h</title>
<!-- Node1 -->
<g id="Node000001" class="node">
<title>Node1</title>
<g id="a_Node000001"><a xlink:title=" ">
<polygon fill="#999999" stroke="#666666" points="390,-195 237,-195 237,-165 390,-165 390,-195"/>
<text text-anchor="start" x="245" y="-183" font-family="Helvetica,sans-Serif" font-size="10.00">inc/CCSDSSecondaryHeader</text>
<text text-anchor="middle" x="313.5" y="-172" font-family="Helvetica,sans-Serif" font-size="10.00">Abstract.h</text>
</a>
</g>
</g>
<!-- Node2 -->
<g id="Node000002" class="node">
<title>Node2</title>
<g id="a_Node000002"><a xlink:href="CCSDSResult_8h.html" target="_top" xlink:title=" ">
<polygon fill="white" stroke="#666666" points="249,-74 160,-74 160,-55 249,-55 249,-74"/>
<text text-anchor="middle" x="204.5" y="-62" font-family="Helvetica,sans-Serif" font-size="10.00">CCSDSResult.h</text>
</a>
</g>
</g>
<!-- Node1&#45;&gt;Node2 -->
<g id="edge1_Node000001_Node000002" class="edge">
<title>Node1&#45;&gt;Node2</title>
<g id="a_edge1_Node000001_Node000002"><a xlink:title=" ">
<path fill="none" stroke="#63b8ff" d="M298.92,-164.7C288.87,-154.77 275.26,-141.2 263.5,-129 248.25,-113.18 231.2,-94.75 219.37,-81.83"/>
<polygon fill="#63b8ff" stroke="#63b8ff" points="221.75,-79.24 212.42,-74.22 216.58,-83.97 221.75,-79.24"/>
</a>
</g>
</g>
<!-- Node5 -->
<g id="Node000005" class="node">
<title>Node5</title>
<g id="a_Node000005"><a xlink:title=" ">
<polygon fill="#e0e0e0" stroke="#999999" points="306,-19 259,-19 259,0 306,0 306,-19"/>
<text text-anchor="middle" x="282.5" y="-7" font-family="Helvetica,sans-Serif" font-size="10.00">vector</text>
</a>
</g>
</g>
<!-- Node1&#45;&gt;Node5 -->
<g id="edge12_Node000001_Node000005" class="edge">
<title>Node1&#45;&gt;Node5</title>
<g id="a_edge12_Node000001_Node000005"><a xlink:title=" ">
<path fill="none" stroke="#63b8ff" d="M307.78,-164.79C304.02,-154.91 299.29,-141.34 296.5,-129 288.64,-94.27 285.02,-52.76 283.49,-29.23"/>
<polygon fill="#63b8ff" stroke="#63b8ff" points="286.99,-29.01 282.9,-19.23 280,-29.42 286.99,-29.01"/>
</a>
</g>
</g>
<!-- Node6 -->
<g id="Node000006" class="node">
<title>Node6</title>
<g id="a_Node000006"><a xlink:title=" ">
<polygon fill="#e0e0e0" stroke="#999999" points="378.5,-19 328.5,-19 328.5,0 378.5,0 378.5,-19"/>
<text text-anchor="middle" x="353.5" y="-7" font-family="Helvetica,sans-Serif" font-size="10.00">cstdint</text>
</a>
</g>
</g>
<!-- Node1&#45;&gt;Node6 -->
<g id="edge13_Node000001_Node000006" class="edge">
<title>Node1&#45;&gt;Node6</title>
<g id="a_edge13_Node000001_Node000006"><a xlink:title=" ">
<path fill="none" stroke="#63b8ff" d="M348.95,-164.88C366.87,-156.45 388.03,-144.37 403.5,-129 423.4,-109.22 427.38,-101.14 434.5,-74 436.64,-65.83 438.8,-62.27 434.5,-55 424.46,-38.03 405.4,-27.1 388.28,-20.32"/>
<polygon fill="#63b8ff" stroke="#63b8ff" points="389.11,-16.9 378.52,-16.79 386.73,-23.48 389.11,-16.9"/>
</a>
</g>
</g>
<!-- Node8 -->
<g id="Node000008" class="node">
<title>Node8</title>
<g id="a_Node000008"><a xlink:href="CCSDSConfig_8h.html" target="_top" xlink:title=" ">
<polygon fill="white" stroke="#666666" points="395,-129 306,-129 306,-110 395,-110 395,-129"/>
<text text-anchor="middle" x="350.5" y="-117" font-family="Helvetica,sans-Serif" font-size="10.00">CCSDSConfig.h</text>
</a>
</g>
</g>
<!-- Node1&#45;&gt;Node8 -->
<g id="edge7_Node000001_Node000008" class="edge">
<title>Node1&#45;&gt;Node8</title>
<g id="a_edge7_Node000001_Node000008"><a xlink:title=" ">
<path fill="none" stroke="#63b8ff" d="M322.46,-164.84C327.61,-156.69 334.12,-146.4 339.57,-137.78"/>
<polygon fill="#63b8ff" stroke="#63b8ff" points="342.57,-139.59 344.96,-129.27 336.65,-135.85 342.57,-139.59"/>
</a>
</g>
</g>
<!-- Node3 -->
<g id="Node000003" class="node">
<title>Node3</title>
<g id="a_Node000003"><a xlink:title=" ">
<polygon fill="#e0e0e0" stroke="#999999" points="93,-19 0,-19 0,0 93,0 93,-19"/>
<text text-anchor="middle" x="46.5" y="-7" font-family="Helvetica,sans-Serif" font-size="10.00">unordered_map</text>
</a>
</g>
</g>
<!-- Node2&#45;&gt;Node3 -->
<g id="edge2_Node000002_Node000003" class="edge">
<title>Node2&#45;&gt;Node3</title>
<g id="a_edge2_Node000002_Node000003"><a xlink:title=" ">
<path fill="none" stroke="#63b8ff" d="M179.11,-54.98C152.7,-46.13 111.15,-32.19 81.61,-22.28"/>
<polygon fill="#63b8ff" stroke="#63b8ff" points="82.68,-18.94 72.08,-19.08 80.45,-25.58 82.68,-18.94"/>
</a>
</g>
</g>
<!-- Node4 -->
<g id="Node000004" class="node">
<title>Node4</title>
<g id="a_Node000004"><a xlink:title=" ">
<polygon fill="#e0e0e0" stroke="#999999" points="162,-19 111,-19 111,0 162,0 162,-19"/>
<text text-anchor="middle" x="136.5" y="-7" font-family="Helvetica,sans-Serif" font-size="10.00">variant</text>
</a>
</g>
</g>
<!-- Node2&#45;&gt;Node4 -->
<g id="edge3_Node000002_Node000004" class="edge">
<title>Node2&#45;&gt;Node4</title>
<g id="a_edge3_Node000002_Node000004"><a xlink:title=" ">
<path fill="none" stroke="#63b8ff" d="M193.57,-54.98C183.42,-47.07 168.08,-35.11 155.85,-25.58"/>
<polygon fill="#63b8ff" stroke="#63b8ff" points="157.66,-22.56 147.62,-19.17 153.36,-28.08 157.66,-22.56"/>
</a>
</g>
</g>
<!-- Node2&#45;&gt;Node5 -->
<g id="edge4_Node000002_Node000005" class="edge">
<title>Node2&#45;&gt;Node5</title>
<g id="a_edge4_Node000002_Node000005"><a xlink:title=" ">
<path fill="none" stroke="#63b8ff" d="M217.03,-54.98C228.9,-46.92 246.96,-34.65 261.11,-25.03"/>
<polygon fill="#63b8ff" stroke="#63b8ff" points="263.44,-27.69 269.74,-19.17 259.5,-21.9 263.44,-27.69"/>
</a>
</g>
</g>
<!-- Node2&#45;&gt;Node6 -->
<g id="edge5_Node000002_Node000006" class="edge">
<title>Node2&#45;&gt;Node6</title>
<g id="a_edge5_Node000002_Node000006"><a xlink:title=" ">
<path fill="none" stroke="#63b8ff" d="M228.44,-54.98C253.06,-46.23 291.62,-32.51 319.42,-22.62"/>
<polygon fill="#63b8ff" stroke="#63b8ff" points="320.88,-25.82 329.12,-19.17 318.53,-19.22 320.88,-25.82"/>
</a>
</g>
</g>
<!-- Node7 -->
<g id="Node000007" class="node">
<title>Node7</title>
<g id="a_Node000007"><a xlink:title=" ">
<polygon fill="#e0e0e0" stroke="#999999" points="240.5,-19 180.5,-19 180.5,0 240.5,0 240.5,-19"/>
<text text-anchor="middle" x="210.5" y="-7" font-family="Helvetica,sans-Serif" font-size="10.00">iostream</text>
</a>
</g>
</g>
<!-- Node2&#45;&gt;Node7 -->
<g id="edge6_Node000002_Node000007" class="edge">
<title>Node2&#45;&gt;Node7</title>
<g id="a_edge6_Node000002_Node000007"><a xlink:title=" ">
<path fill="none" stroke="#63b8ff" d="M205.49,-54.75C206.28,-47.8 207.4,-37.85 208.39,-29.13"/>
<polygon fill="#63b8ff" stroke="#63b8ff" points="211.88,-29.42 209.53,-19.09 204.92,-28.63 211.88,-29.42"/>
</a>
</g>
</g>
<!-- Node8&#45;&gt;Node2 -->
<g id="edge11_Node000008_Node000002" class="edge">
<title>Node8&#45;&gt;Node2</title>
<g id="a_edge11_Node000008_Node000002"><a xlink:title=" ">
<path fill="none" stroke="#63b8ff" d="M327.04,-109.98C302.92,-101.23 265.13,-87.51 237.9,-77.62"/>
<polygon fill="#63b8ff" stroke="#63b8ff" points="238.98,-74.29 228.38,-74.17 236.59,-80.87 238.98,-74.29"/>
</a>
</g>
</g>
<!-- Node8&#45;&gt;Node5 -->
<g id="edge10_Node000008_Node000005" class="edge">
<title>Node8&#45;&gt;Node5</title>
<g id="a_edge10_Node000008_Node000005"><a xlink:title=" ">
<path fill="none" stroke="#63b8ff" d="M344.94,-109.66C333.67,-91.77 308,-51 293.33,-27.69"/>
<polygon fill="#63b8ff" stroke="#63b8ff" points="296.24,-25.76 287.95,-19.16 290.32,-29.49 296.24,-25.76"/>
</a>
</g>
</g>
<!-- Node8&#45;&gt;Node6 -->
<g id="edge9_Node000008_Node000006" class="edge">
<title>Node8&#45;&gt;Node6</title>
<g id="a_edge9_Node000008_Node000006"><a xlink:title=" ">
<path fill="none" stroke="#63b8ff" d="M350.75,-109.66C351.23,-92.17 352.32,-52.8 352.98,-29.27"/>
<polygon fill="#63b8ff" stroke="#63b8ff" points="356.48,-29.25 353.26,-19.16 349.48,-29.06 356.48,-29.25"/>
</a>
</g>
</g>
<!-- Node9 -->
<g id="Node000009" class="node">
<title>Node9</title>
<g id="a_Node000009"><a xlink:title=" ">
<polygon fill="#e0e0e0" stroke="#999999" points="425.5,-74 381.5,-74 381.5,-55 425.5,-55 425.5,-74"/>
<text text-anchor="middle" x="403.5" y="-62" font-family="Helvetica,sans-Serif" font-size="10.00">string</text>
</a>
</g>
</g>
<!-- Node8&#45;&gt;Node9 -->
<g id="edge8_Node000008_Node000009" class="edge">
<title>Node8&#45;&gt;Node9</title>
<g id="a_edge8_Node000008_Node000009"><a xlink:title=" ">
<path fill="none" stroke="#63b8ff" d="M359.25,-109.75C366.97,-102.03 378.4,-90.6 387.72,-81.28"/>
<polygon fill="#63b8ff" stroke="#63b8ff" points="390.31,-83.64 394.91,-74.09 385.36,-78.69 390.31,-83.64"/>
</a>
</g>
</g>
</g>
</svg>
