<?xml version="1.0" encoding="UTF-8" standalone="no"?>
<!DOCTYPE svg PUBLIC "-//W3C//DTD SVG 1.1//EN"
 "http://www.w3.org/Graphics/SVG/1.1/DTD/svg11.dtd">
<!-- Generated by graphviz version 2.43.0 (0)
 -->
<!-- Title: inc/CCSDSUtils.h Pages: 1 -->
<!--zoomable 412 -->

<svg id="main" version="1.1" xmlns="http://www.w3.org/2000/svg" xmlns:xlink="http://www.w3.org/1999/xlink" xml:space="preserve" onload="init(evt)">
<style type="text/css"><![CDATA[
.node, .edge {opacity: 0.7;}
.node.selected, .edge.selected {opacity: 1;}
.edge:hover path { stroke: red; }
.edge:hover polygon { stroke: red; fill: red; }
]]></style>

<defs>
  <circle id="rim" cx="0" cy="0" r="7"/>
  <circle id="rim2" cx="0" cy="0" r="3.5"/>
  <g id="zoomPlus">
    <use xlink:href="#rim" fill="#404040"><set attributeName="fill" to="#808080" begin="zoomplus.mouseover" end="zoomplus.mouseout"/></use>
    <path d="M-4,0h8M0,-4v8" fill="none" stroke="white" stroke-width="1.5" pointer-events="none"/>
  </g>
  <g id="zoomMin">
    <use xlink:href="#rim" fill="#404040"><set attributeName="fill" to="#808080" begin="zoomminus.mouseover" end="zoomminus.mouseout"/></use>
    <path d="M-4,0h8" fill="none" stroke="white" stroke-width="1.5" pointer-events="none"/>
  </g>
  <g id="arrowUp" transform="translate(30 24)">
    <use xlink:href="#rim"/>
    <path pointer-events="none" fill="none" stroke="white" stroke-width="1.5" d="M0,-3.0v7 M-2.5,-0.5L0,-3.0L2.5,-0.5"/>
  </g>
  <g id="arrowRight" transform="rotate(90) translate(36 -43)">
    <use xlink:href="#rim"/>
    <path pointer-events="none" fill="none" stroke="white" stroke-width="1.5" d="M0,-3.0v7 M-2.5,-0.5L0,-3.0L2.5,-0.5"/>
  </g>
  <g id="arrowDown" transform="rotate(180) translate(-30 -48)">
    <use xlink:href="#rim"/>
    <path pointer-events="none" fill="none" stroke="white" stroke-width="1.5" d="M0,-3.0v7 M-2.5,-0.5L0,-3.0L2.5,-0.5"/>
  </g>
  <g id="arrowLeft" transform="rotate(270) translate(-36 17)">
    <use xlink:href="#rim"/>
    <path pointer-events="none" fill="none" stroke="white" stroke-width="1.5" d="M0,-3.0v7 M-2.5,-0.5L0,-3.0L2.5,-0.5"/>
  </g>
  <g id="resetDef">
    <use xlink:href="#rim2" fill="#404040"><set attributeName="fill" to="#808080" begin="reset.mouseover" end="reset.mouseout"/></use>
  </g>
</defs>
<script type="application/ecmascript">
var viewWidth = 886;
var viewHeight = 412;
var sectionId = 'dynsection-0';
</script>
<script type="application/ecmascript" xlink:href="svg.min.js"/>
<svg id="graph" class="graph">
<g id="viewport">
<title>inc/CCSDSUtils.h</title>
<!-- Node1 -->
<g id="Node000001" class="node">
<title>Node1</title>
<g id="a_Node000001"><a xlink:title=" ">
<polygon fill="#999999" stroke="#666666" points="614,-404 516,-404 516,-385 614,-385 614,-404"/>
<text text-anchor="middle" x="565" y="-392" font-family="Helvetica,sans-Serif" font-size="10.00">inc/CCSDSUtils.h</text>
</a>
</g>
</g>
<!-- Node2 -->
<g id="Node000002" class="node">
<title>Node2</title>
<g id="a_Node000002"><a xlink:href="CCSDSPacket_8h.html" target="_top" xlink:title=" ">
<polygon fill="white" stroke="#666666" points="290,-349 200,-349 200,-330 290,-330 290,-349"/>
<text text-anchor="middle" x="245" y="-337" font-family="Helvetica,sans-Serif" font-size="10.00">CCSDSPacket.h</text>
</a>
</g>
</g>
<!-- Node1&#45;&gt;Node2 -->
<g id="edge1_Node000001_Node000002" class="edge">
<title>Node1&#45;&gt;Node2</title>
<g id="a_edge1_Node000001_Node000002"><a xlink:title=" ">
<path fill="none" stroke="#63b8ff" d="M515.7,-385.33C457.53,-375.7 361.07,-359.72 300.37,-349.67"/>
<polygon fill="#63b8ff" stroke="#63b8ff" points="300.65,-346.17 290.21,-347.99 299.51,-353.08 300.65,-346.17"/>
</a>
</g>
</g>
<!-- Node6 -->
<g id="Node000006" class="node">
<title>Node6</title>
<g id="a_Node000006"><a xlink:title=" ">
<polygon fill="#e0e0e0" stroke="#999999" points="601.5,-19 554.5,-19 554.5,0 601.5,0 601.5,-19"/>
<text text-anchor="middle" x="578" y="-7" font-family="Helvetica,sans-Serif" font-size="10.00">vector</text>
</a>
</g>
</g>
<!-- Node1&#45;&gt;Node6 -->
<g id="edge35_Node000001_Node000006" class="edge">
<title>Node1&#45;&gt;Node6</title>
<g id="a_edge35_Node000001_Node000006"><a xlink:title=" ">
<path fill="none" stroke="#63b8ff" d="M614.07,-392.94C665.91,-390.51 748.75,-381.3 812,-349 848.25,-330.49 878,-326.21 878,-285.5 878,-285.5 878,-285.5 878,-118.5 878,-62.46 690.33,-27.51 611.86,-15.34"/>
<polygon fill="#63b8ff" stroke="#63b8ff" points="611.95,-11.81 601.54,-13.77 610.9,-18.73 611.95,-11.81"/>
</a>
</g>
</g>
<!-- Node7 -->
<g id="Node000007" class="node">
<title>Node7</title>
<g id="a_Node000007"><a xlink:title=" ">
<polygon fill="#e0e0e0" stroke="#999999" points="149,-19 99,-19 99,0 149,0 149,-19"/>
<text text-anchor="middle" x="124" y="-7" font-family="Helvetica,sans-Serif" font-size="10.00">cstdint</text>
</a>
</g>
</g>
<!-- Node1&#45;&gt;Node7 -->
<g id="edge34_Node000001_Node000007" class="edge">
<title>Node1&#45;&gt;Node7</title>
<g id="a_edge34_Node000001_Node000007"><a xlink:title=" ">
<path fill="none" stroke="#63b8ff" d="M515.85,-389.28C378.39,-376.83 0,-337.8 0,-285.5 0,-285.5 0,-285.5 0,-118.5 0,-70.54 53.39,-39.02 90.11,-23.01"/>
<polygon fill="#63b8ff" stroke="#63b8ff" points="91.62,-26.17 99.5,-19.09 88.92,-19.71 91.62,-26.17"/>
</a>
</g>
</g>
<!-- Node15 -->
<g id="Node000015" class="node">
<title>Node15</title>
<g id="a_Node000015"><a xlink:title=" ">
<polygon fill="#e0e0e0" stroke="#999999" points="850,-129 806,-129 806,-110 850,-110 850,-129"/>
<text text-anchor="middle" x="828" y="-117" font-family="Helvetica,sans-Serif" font-size="10.00">string</text>
</a>
</g>
</g>
<!-- Node1&#45;&gt;Node15 -->
<g id="edge33_Node000001_Node000015" class="edge">
<title>Node1&#45;&gt;Node15</title>
<g id="a_edge33_Node000001_Node000015"><a xlink:title=" ">
<path fill="none" stroke="#63b8ff" d="M614.25,-393.82C688.87,-391.43 822,-374.67 822,-285.5 822,-285.5 822,-285.5 822,-228.5 822,-197.14 824.55,-160.74 826.33,-139.22"/>
<polygon fill="#63b8ff" stroke="#63b8ff" points="829.82,-139.43 827.19,-129.17 822.85,-138.83 829.82,-139.43"/>
</a>
</g>
</g>
<!-- Node3 -->
<g id="Node000003" class="node">
<title>Node3</title>
<g id="a_Node000003"><a xlink:href="CCSDSResult_8h.html" target="_top" xlink:title=" ">
<polygon fill="white" stroke="#666666" points="317.5,-74 228.5,-74 228.5,-55 317.5,-55 317.5,-74"/>
<text text-anchor="middle" x="273" y="-62" font-family="Helvetica,sans-Serif" font-size="10.00">CCSDSResult.h</text>
</a>
</g>
</g>
<!-- Node2&#45;&gt;Node3 -->
<g id="edge2_Node000002_Node000003" class="edge">
<title>Node2&#45;&gt;Node3</title>
<g id="a_edge2_Node000002_Node000003"><a xlink:title=" ">
<path fill="none" stroke="#63b8ff" d="M245.9,-329.73C249.83,-291.38 265.56,-138.03 271.08,-84.25"/>
<polygon fill="#63b8ff" stroke="#63b8ff" points="274.58,-84.41 272.12,-74.11 267.62,-83.7 274.58,-84.41"/>
</a>
</g>
</g>
<!-- Node2&#45;&gt;Node6 -->
<g id="edge9_Node000002_Node000006" class="edge">
<title>Node2&#45;&gt;Node6</title>
<g id="a_edge9_Node000002_Node000006"><a xlink:title=" ">
<path fill="none" stroke="#63b8ff" d="M290.44,-338.89C419.34,-338.8 778,-329.64 778,-230.5 778,-230.5 778,-230.5 778,-118.5 778,-43.83 668.73,-20.54 611.73,-13.47"/>
<polygon fill="#63b8ff" stroke="#63b8ff" points="612.06,-9.99 601.73,-12.33 611.27,-16.94 612.06,-9.99"/>
</a>
</g>
</g>
<!-- Node2&#45;&gt;Node7 -->
<g id="edge8_Node000002_Node000007" class="edge">
<title>Node2&#45;&gt;Node7</title>
<g id="a_edge8_Node000002_Node000007"><a xlink:title=" ">
<path fill="none" stroke="#63b8ff" d="M199.83,-334.73C138.92,-326.88 38,-302.96 38,-230.5 38,-230.5 38,-230.5 38,-118.5 38,-77.76 75.91,-43.51 101.39,-25.09"/>
<polygon fill="#63b8ff" stroke="#63b8ff" points="103.58,-27.83 109.8,-19.25 99.59,-22.08 103.58,-27.83"/>
</a>
</g>
</g>
<!-- Node9 -->
<g id="Node000009" class="node">
<title>Node9</title>
<g id="a_Node000009"><a xlink:href="CCSDSHeader_8h.html" target="_top" xlink:title=" ">
<polygon fill="white" stroke="#666666" points="197.5,-129 104.5,-129 104.5,-110 197.5,-110 197.5,-129"/>
<text text-anchor="middle" x="151" y="-117" font-family="Helvetica,sans-Serif" font-size="10.00">CCSDSHeader.h</text>
</a>
</g>
</g>
<!-- Node2&#45;&gt;Node9 -->
<g id="edge10_Node000002_Node000009" class="edge">
<title>Node2&#45;&gt;Node9</title>
<g id="a_edge10_Node000002_Node000009"><a xlink:title=" ">
<path fill="none" stroke="#63b8ff" d="M221.26,-329.92C205.22,-322.83 185.01,-311.13 174,-294 142.84,-245.53 145.22,-173.66 148.55,-139.66"/>
<polygon fill="#63b8ff" stroke="#63b8ff" points="152.08,-139.64 149.72,-129.31 145.12,-138.86 152.08,-139.64"/>
</a>
</g>
</g>
<!-- Node10 -->
<g id="Node000010" class="node">
<title>Node10</title>
<g id="a_Node000010"><a xlink:href="CCSDSDataField_8h.html" target="_top" xlink:title=" ">
<polygon fill="white" stroke="#666666" points="390.5,-294 285.5,-294 285.5,-275 390.5,-275 390.5,-294"/>
<text text-anchor="middle" x="338" y="-282" font-family="Helvetica,sans-Serif" font-size="10.00">CCSDSDataField.h</text>
</a>
</g>
</g>
<!-- Node2&#45;&gt;Node10 -->
<g id="edge14_Node000002_Node000010" class="edge">
<title>Node2&#45;&gt;Node10</title>
<g id="a_edge14_Node000002_Node000010"><a xlink:title=" ">
<path fill="none" stroke="#63b8ff" d="M259.94,-329.98C274.5,-321.69 296.87,-308.94 313.93,-299.22"/>
<polygon fill="#63b8ff" stroke="#63b8ff" points="315.83,-302.16 322.79,-294.17 312.36,-296.08 315.83,-302.16"/>
</a>
</g>
</g>
<!-- Node4 -->
<g id="Node000004" class="node">
<title>Node4</title>
<g id="a_Node000004"><a xlink:title=" ">
<polygon fill="#e0e0e0" stroke="#999999" points="500.5,-19 407.5,-19 407.5,0 500.5,0 500.5,-19"/>
<text text-anchor="middle" x="454" y="-7" font-family="Helvetica,sans-Serif" font-size="10.00">unordered_map</text>
</a>
</g>
</g>
<!-- Node3&#45;&gt;Node4 -->
<g id="edge3_Node000003_Node000004" class="edge">
<title>Node3&#45;&gt;Node4</title>
<g id="a_edge3_Node000003_Node000004"><a xlink:title=" ">
<path fill="none" stroke="#63b8ff" d="M302.08,-54.98C332.6,-46.05 380.76,-31.94 414.66,-22.02"/>
<polygon fill="#63b8ff" stroke="#63b8ff" points="416.08,-25.25 424.69,-19.08 414.11,-18.53 416.08,-25.25"/>
</a>
</g>
</g>
<!-- Node5 -->
<g id="Node000005" class="node">
<title>Node5</title>
<g id="a_Node000005"><a xlink:title=" ">
<polygon fill="#e0e0e0" stroke="#999999" points="316.5,-19 265.5,-19 265.5,0 316.5,0 316.5,-19"/>
<text text-anchor="middle" x="291" y="-7" font-family="Helvetica,sans-Serif" font-size="10.00">variant</text>
</a>
</g>
</g>
<!-- Node3&#45;&gt;Node5 -->
<g id="edge4_Node000003_Node000005" class="edge">
<title>Node3&#45;&gt;Node5</title>
<g id="a_edge4_Node000003_Node000005"><a xlink:title=" ">
<path fill="none" stroke="#63b8ff" d="M275.97,-54.75C278.36,-47.72 281.79,-37.62 284.77,-28.84"/>
<polygon fill="#63b8ff" stroke="#63b8ff" points="288.18,-29.68 288.08,-19.09 281.55,-27.43 288.18,-29.68"/>
</a>
</g>
</g>
<!-- Node3&#45;&gt;Node6 -->
<g id="edge5_Node000003_Node000006" class="edge">
<title>Node3&#45;&gt;Node6</title>
<g id="a_edge5_Node000003_Node000006"><a xlink:title=" ">
<path fill="none" stroke="#63b8ff" d="M317.68,-55.74C379.39,-45.01 489.33,-25.91 544.49,-16.32"/>
<polygon fill="#63b8ff" stroke="#63b8ff" points="545.19,-19.75 554.44,-14.59 543.99,-12.86 545.19,-19.75"/>
</a>
</g>
</g>
<!-- Node3&#45;&gt;Node7 -->
<g id="edge6_Node000003_Node000007" class="edge">
<title>Node3&#45;&gt;Node7</title>
<g id="a_edge6_Node000003_Node000007"><a xlink:title=" ">
<path fill="none" stroke="#63b8ff" d="M249.06,-54.98C224.44,-46.23 185.88,-32.51 158.08,-22.62"/>
<polygon fill="#63b8ff" stroke="#63b8ff" points="158.97,-19.22 148.38,-19.17 156.62,-25.82 158.97,-19.22"/>
</a>
</g>
</g>
<!-- Node8 -->
<g id="Node000008" class="node">
<title>Node8</title>
<g id="a_Node000008"><a xlink:title=" ">
<polygon fill="#e0e0e0" stroke="#999999" points="247,-19 187,-19 187,0 247,0 247,-19"/>
<text text-anchor="middle" x="217" y="-7" font-family="Helvetica,sans-Serif" font-size="10.00">iostream</text>
</a>
</g>
</g>
<!-- Node3&#45;&gt;Node8 -->
<g id="edge7_Node000003_Node000008" class="edge">
<title>Node3&#45;&gt;Node8</title>
<g id="a_edge7_Node000003_Node000008"><a xlink:title=" ">
<path fill="none" stroke="#63b8ff" d="M264,-54.98C255.81,-47.23 243.49,-35.58 233.53,-26.14"/>
<polygon fill="#63b8ff" stroke="#63b8ff" points="235.83,-23.5 226.16,-19.17 231.02,-28.59 235.83,-23.5"/>
</a>
</g>
</g>
<!-- Node9&#45;&gt;Node3 -->
<g id="edge11_Node000009_Node000003" class="edge">
<title>Node9&#45;&gt;Node3</title>
<g id="a_edge11_Node000009_Node000003"><a xlink:title=" ">
<path fill="none" stroke="#63b8ff" d="M170.6,-109.98C190.32,-101.42 220.95,-88.11 243.58,-78.28"/>
<polygon fill="#63b8ff" stroke="#63b8ff" points="245.26,-81.37 253.04,-74.17 242.48,-74.94 245.26,-81.37"/>
</a>
</g>
</g>
<!-- Node9&#45;&gt;Node6 -->
<g id="edge13_Node000009_Node000006" class="edge">
<title>Node9&#45;&gt;Node6</title>
<g id="a_edge13_Node000009_Node000006"><a xlink:title=" ">
<path fill="none" stroke="#63b8ff" d="M184.86,-109.94C264.81,-89.71 464.54,-39.2 544.31,-19.02"/>
<polygon fill="#63b8ff" stroke="#63b8ff" points="545.47,-22.34 554.31,-16.49 543.76,-15.55 545.47,-22.34"/>
</a>
</g>
</g>
<!-- Node9&#45;&gt;Node7 -->
<g id="edge12_Node000009_Node000007" class="edge">
<title>Node9&#45;&gt;Node7</title>
<g id="a_edge12_Node000009_Node000007"><a xlink:title=" ">
<path fill="none" stroke="#63b8ff" d="M148.79,-109.66C144.4,-92.09 134.49,-52.45 128.61,-28.95"/>
<polygon fill="#63b8ff" stroke="#63b8ff" points="131.99,-28.01 126.16,-19.16 125.19,-29.71 131.99,-28.01"/>
</a>
</g>
</g>
<!-- Node10&#45;&gt;Node3 -->
<g id="edge15_Node000010_Node000003" class="edge">
<title>Node10&#45;&gt;Node3</title>
<g id="a_edge15_Node000010_Node000003"><a xlink:title=" ">
<path fill="none" stroke="#63b8ff" d="M333.57,-274.81C329.18,-265.97 322.49,-251.79 318,-239 298.7,-184.09 283.58,-116.81 276.84,-84.54"/>
<polygon fill="#63b8ff" stroke="#63b8ff" points="280.18,-83.41 274.74,-74.32 273.32,-84.82 280.18,-83.41"/>
</a>
</g>
</g>
<!-- Node10&#45;&gt;Node6 -->
<g id="edge17_Node000010_Node000006" class="edge">
<title>Node10&#45;&gt;Node6</title>
<g id="a_edge17_Node000010_Node000006"><a xlink:title=" ">
<path fill="none" stroke="#63b8ff" d="M390.55,-280.4C499.52,-272.52 740,-247.04 740,-175.5 740,-175.5 740,-175.5 740,-118.5 740,-57.25 658.83,-28.6 611.41,-17.08"/>
<polygon fill="#63b8ff" stroke="#63b8ff" points="612.09,-13.65 601.56,-14.82 610.52,-20.47 612.09,-13.65"/>
</a>
</g>
</g>
<!-- Node10&#45;&gt;Node7 -->
<g id="edge16_Node000010_Node000007" class="edge">
<title>Node10&#45;&gt;Node7</title>
<g id="a_edge16_Node000010_Node000007"><a xlink:title=" ">
<path fill="none" stroke="#63b8ff" d="M308.27,-275C254.2,-257.74 141.09,-212.91 95,-129 76.9,-96.04 97.85,-51.8 112.4,-27.78"/>
<polygon fill="#63b8ff" stroke="#63b8ff" points="115.51,-29.4 117.92,-19.09 109.61,-25.65 115.51,-29.4"/>
</a>
</g>
</g>
<!-- Node11 -->
<g id="Node000011" class="node">
<title>Node11</title>
<g id="a_Node000011"><a xlink:title=" ">
<polygon fill="#e0e0e0" stroke="#999999" points="712,-129 654,-129 654,-110 712,-110 712,-129"/>
<text text-anchor="middle" x="683" y="-117" font-family="Helvetica,sans-Serif" font-size="10.00">memory</text>
</a>
</g>
</g>
<!-- Node10&#45;&gt;Node11 -->
<g id="edge18_Node000010_Node000011" class="edge">
<title>Node10&#45;&gt;Node11</title>
<g id="a_edge18_Node000010_Node000011"><a xlink:title=" ">
<path fill="none" stroke="#63b8ff" d="M390.56,-281.94C461.87,-276.96 588.85,-257.56 663,-184 674.91,-172.18 679.75,-153.34 681.7,-139.25"/>
<polygon fill="#63b8ff" stroke="#63b8ff" points="685.19,-139.49 682.73,-129.19 678.23,-138.78 685.19,-139.49"/>
</a>
</g>
</g>
<!-- Node12 -->
<g id="Node000012" class="node">
<title>Node12</title>
<g id="a_Node000012"><a xlink:href="CCSDSSecondaryHeaderAbstract_8h.html" target="_top" xlink:title=" ">
<polygon fill="white" stroke="#666666" points="514.5,-129 329.5,-129 329.5,-110 514.5,-110 514.5,-129"/>
<text text-anchor="middle" x="422" y="-117" font-family="Helvetica,sans-Serif" font-size="10.00">CCSDSSecondaryHeaderAbstract.h</text>
</a>
</g>
</g>
<!-- Node10&#45;&gt;Node12 -->
<g id="edge19_Node000010_Node000012" class="edge">
<title>Node10&#45;&gt;Node12</title>
<g id="a_edge19_Node000010_Node000012"><a xlink:title=" ">
<path fill="none" stroke="#63b8ff" d="M332.77,-274.59C326.13,-262.03 316.38,-238.59 324,-220 339.24,-182.8 375.86,-152.04 399.76,-134.99"/>
<polygon fill="#63b8ff" stroke="#63b8ff" points="401.99,-137.71 408.23,-129.14 398.01,-131.95 401.99,-137.71"/>
</a>
</g>
</g>
<!-- Node13 -->
<g id="Node000013" class="node">
<title>Node13</title>
<g id="a_Node000013"><a xlink:href="CCSDSSecondaryHeaderFactory_8h.html" target="_top" xlink:title=" ">
<polygon fill="white" stroke="#666666" points="654.5,-184 475.5,-184 475.5,-165 654.5,-165 654.5,-184"/>
<text text-anchor="middle" x="565" y="-172" font-family="Helvetica,sans-Serif" font-size="10.00">CCSDSSecondaryHeaderFactory.h</text>
</a>
</g>
</g>
<!-- Node10&#45;&gt;Node13 -->
<g id="edge23_Node000010_Node000013" class="edge">
<title>Node10&#45;&gt;Node13</title>
<g id="a_edge23_Node000010_Node000013"><a xlink:title=" ">
<path fill="none" stroke="#63b8ff" d="M356.19,-274.84C395.97,-255.92 490.87,-210.77 537.79,-188.45"/>
<polygon fill="#63b8ff" stroke="#63b8ff" points="539.51,-191.5 547.04,-184.05 536.5,-185.18 539.51,-191.5"/>
</a>
</g>
</g>
<!-- Node16 -->
<g id="Node000016" class="node">
<title>Node16</title>
<g id="a_Node000016"><a xlink:href="PusServices_8h.html" target="_top" xlink:title=" ">
<polygon fill="white" stroke="#666666" points="417,-239 333,-239 333,-220 417,-220 417,-239"/>
<text text-anchor="middle" x="375" y="-227" font-family="Helvetica,sans-Serif" font-size="10.00">PusServices.h</text>
</a>
</g>
</g>
<!-- Node10&#45;&gt;Node16 -->
<g id="edge29_Node000010_Node000016" class="edge">
<title>Node10&#45;&gt;Node16</title>
<g id="a_edge29_Node000010_Node000016"><a xlink:title=" ">
<path fill="none" stroke="#63b8ff" d="M344.11,-274.75C349.28,-267.34 356.85,-256.5 363.19,-247.41"/>
<polygon fill="#63b8ff" stroke="#63b8ff" points="366.15,-249.29 369,-239.09 360.41,-245.29 366.15,-249.29"/>
</a>
</g>
</g>
<!-- Node12&#45;&gt;Node3 -->
<g id="edge20_Node000012_Node000003" class="edge">
<title>Node12&#45;&gt;Node3</title>
<g id="a_edge20_Node000012_Node000003"><a xlink:title=" ">
<path fill="none" stroke="#63b8ff" d="M398.06,-109.98C373.44,-101.23 334.88,-87.51 307.08,-77.62"/>
<polygon fill="#63b8ff" stroke="#63b8ff" points="307.97,-74.22 297.38,-74.17 305.62,-80.82 307.97,-74.22"/>
</a>
</g>
</g>
<!-- Node12&#45;&gt;Node6 -->
<g id="edge21_Node000012_Node000006" class="edge">
<title>Node12&#45;&gt;Node6</title>
<g id="a_edge21_Node000012_Node000006"><a xlink:title=" ">
<path fill="none" stroke="#63b8ff" d="M434.5,-109.84C461.2,-91.36 524.04,-47.86 556.99,-25.05"/>
<polygon fill="#63b8ff" stroke="#63b8ff" points="559.21,-27.77 565.44,-19.2 555.22,-22.01 559.21,-27.77"/>
</a>
</g>
</g>
<!-- Node12&#45;&gt;Node7 -->
<g id="edge22_Node000012_Node000007" class="edge">
<title>Node12&#45;&gt;Node7</title>
<g id="a_edge22_Node000012_Node000007"><a xlink:title=" ">
<path fill="none" stroke="#63b8ff" d="M411.8,-109.88C395.02,-96.16 360.04,-69.42 326,-55 296.29,-42.42 208.74,-25.57 159.2,-16.65"/>
<polygon fill="#63b8ff" stroke="#63b8ff" points="159.7,-13.18 149.25,-14.87 158.47,-20.07 159.7,-13.18"/>
</a>
</g>
</g>
<!-- Node13&#45;&gt;Node4 -->
<g id="edge25_Node000013_Node000004" class="edge">
<title>Node13&#45;&gt;Node4</title>
<g id="a_edge25_Node000013_Node000004"><a xlink:title=" ">
<path fill="none" stroke="#63b8ff" d="M577.46,-164.93C593.22,-152.97 617.05,-130.43 606,-110 581.63,-64.92 526.96,-36.98 490.28,-22.59"/>
<polygon fill="#63b8ff" stroke="#63b8ff" points="491.5,-19.31 480.91,-19.05 489.03,-25.85 491.5,-19.31"/>
</a>
</g>
</g>
<!-- Node13&#45;&gt;Node11 -->
<g id="edge24_Node000013_Node000011" class="edge">
<title>Node13&#45;&gt;Node11</title>
<g id="a_edge24_Node000013_Node000011"><a xlink:title=" ">
<path fill="none" stroke="#63b8ff" d="M583.96,-164.98C603.03,-156.42 632.66,-143.11 654.55,-133.28"/>
<polygon fill="#63b8ff" stroke="#63b8ff" points="656.01,-136.46 663.7,-129.17 653.14,-130.07 656.01,-136.46"/>
</a>
</g>
</g>
<!-- Node13&#45;&gt;Node12 -->
<g id="edge28_Node000013_Node000012" class="edge">
<title>Node13&#45;&gt;Node12</title>
<g id="a_edge28_Node000013_Node000012"><a xlink:title=" ">
<path fill="none" stroke="#63b8ff" d="M542.02,-164.98C518.5,-156.27 481.71,-142.63 455.06,-132.75"/>
<polygon fill="#63b8ff" stroke="#63b8ff" points="455.99,-129.36 445.39,-129.17 453.55,-135.93 455.99,-129.36"/>
</a>
</g>
</g>
<!-- Node14 -->
<g id="Node000014" class="node">
<title>Node14</title>
<g id="a_Node000014"><a xlink:title=" ">
<polygon fill="#e0e0e0" stroke="#999999" points="597.5,-129 532.5,-129 532.5,-110 597.5,-110 597.5,-129"/>
<text text-anchor="middle" x="565" y="-117" font-family="Helvetica,sans-Serif" font-size="10.00">functional</text>
</a>
</g>
</g>
<!-- Node13&#45;&gt;Node14 -->
<g id="edge26_Node000013_Node000014" class="edge">
<title>Node13&#45;&gt;Node14</title>
<g id="a_edge26_Node000013_Node000014"><a xlink:title=" ">
<path fill="none" stroke="#63b8ff" d="M565,-164.75C565,-157.8 565,-147.85 565,-139.13"/>
<polygon fill="#63b8ff" stroke="#63b8ff" points="568.5,-139.09 565,-129.09 561.5,-139.09 568.5,-139.09"/>
</a>
</g>
</g>
<!-- Node13&#45;&gt;Node15 -->
<g id="edge27_Node000013_Node000015" class="edge">
<title>Node13&#45;&gt;Node15</title>
<g id="a_edge27_Node000013_Node000015"><a xlink:title=" ">
<path fill="none" stroke="#63b8ff" d="M607.26,-164.98C659.77,-154.4 748.23,-136.58 795.66,-127.02"/>
<polygon fill="#63b8ff" stroke="#63b8ff" points="796.57,-130.4 805.68,-125 795.19,-123.54 796.57,-130.4"/>
</a>
</g>
</g>
<!-- Node16&#45;&gt;Node3 -->
<g id="edge32_Node000016_Node000003" class="edge">
<title>Node16&#45;&gt;Node3</title>
<g id="a_edge32_Node000016_Node000003"><a xlink:title=" ">
<path fill="none" stroke="#63b8ff" d="M369.52,-219.74C353.33,-193.87 305.53,-117.48 283.88,-82.88"/>
<polygon fill="#63b8ff" stroke="#63b8ff" points="286.78,-80.93 278.51,-74.31 280.85,-84.64 286.78,-80.93"/>
</a>
</g>
</g>
<!-- Node16&#45;&gt;Node12 -->
<g id="edge30_Node000016_Node000012" class="edge">
<title>Node16&#45;&gt;Node12</title>
<g id="a_edge30_Node000016_Node000012"><a xlink:title=" ">
<path fill="none" stroke="#63b8ff" d="M378.85,-219.66C386.53,-202.01 403.9,-162.09 414.11,-138.64"/>
<polygon fill="#63b8ff" stroke="#63b8ff" points="417.45,-139.72 418.23,-129.16 411.03,-136.93 417.45,-139.72"/>
</a>
</g>
</g>
<!-- Node16&#45;&gt;Node13 -->
<g id="edge31_Node000016_Node000013" class="edge">
<title>Node16&#45;&gt;Node13</title>
<g id="a_edge31_Node000016_Node000013"><a xlink:title=" ">
<path fill="none" stroke="#63b8ff" d="M405.53,-219.98C437.7,-211.01 488.56,-196.82 524.17,-186.89"/>
<polygon fill="#63b8ff" stroke="#63b8ff" points="525.54,-190.14 534.23,-184.08 523.66,-183.4 525.54,-190.14"/>
</a>
</g>
</g>
</g>
</svg>

<g id="navigator" transform="translate(0 0)" fill="#404254">
  <rect fill="#f2f5e9" fill-opacity="0.5" stroke="#606060" stroke-width=".5" x="0" y="0" width="60" height="60"/>
  <use id="zoomplus" xlink:href="#zoomPlus" x="17" y="9" onmousedown="handleZoom(evt,'in')"/>
  <use id="zoomminus" xlink:href="#zoomMin" x="42" y="9" onmousedown="handleZoom(evt,'out')"/>
  <use id="reset" xlink:href="#resetDef" x="30" y="36" onmousedown="handleReset()"/>
   <use id="arrowup" xlink:href="#arrowUp" x="0" y="0" onmousedown="handlePan(0,-1)"/>
  <use id="arrowright" xlink:href="#arrowRight" x="0" y="0" onmousedown="handlePan(1,0)"/>
  <use id="arrowdown" xlink:href="#arrowDown" x="0" y="0" onmousedown="handlePan(0,1)"/>
  <use id="arrowleft" xlink:href="#arrowLeft" x="0" y="0" onmousedown="handlePan(-1,0)"/>
</g>
<svg viewBox="0 0 15 15" width="100%" height="30px" preserveAspectRatio="xMaxYMin meet">
 <g id="arrow_out" transform="scale(0.3 0.3)">
  <a xlink:href="CCSDSUtils_8h__incl_org.svg" target="_base">
   <rect id="button" ry="5" rx="5" y="6" x="6" height="38" width="38"
        fill="#f2f5e9" fill-opacity="0.5" stroke="#606060" stroke-width="1.0"/>
   <path id="arrow"
     d="M 11.500037,31.436501 C 11.940474,20.09759 22.043105,11.32322 32.158766,21.979434 L 37.068811,17.246167 C 37.068811,17.246167 37.088388,32 37.088388,32 L 22.160133,31.978069 C 22.160133,31.978069 26.997745,27.140456 26.997745,27.140456 C 18.528582,18.264221 13.291696,25.230495 11.500037,31.436501 z"
     style="fill:#404040;"/>
  </a>
 </g>
</svg>

<style type='text/css'>
<![CDATA[
[data-mouse-over-selected='false'] { opacity: 0.7; }
[data-mouse-over-selected='true']  { opacity: 1.0; }
]]>
</style>
<script type="application/ecmascript"><![CDATA[
document.addEventListener('DOMContentLoaded', (event) => {
  highlightEdges();
  highlightAdjacentNodes();
});
]]></script>
</svg>
