<?xml version="1.0" encoding="UTF-8" standalone="no"?>
<!DOCTYPE svg PUBLIC "-//W3C//DTD SVG 1.1//EN"
 "http://www.w3.org/Graphics/SVG/1.1/DTD/svg11.dtd">
<!-- Generated by graphviz version 2.43.0 (0)
 -->
<!-- Title: src/CCSDSPacket.cpp Pages: 1 -->
<svg width="887pt" height="467pt"
 viewBox="0.00 0.00 887.00 467.00" xmlns="http://www.w3.org/2000/svg" xmlns:xlink="http://www.w3.org/1999/xlink">
<g id="graph0" class="graph" transform="scale(1 1) rotate(0) translate(4 463)">
<title>src/CCSDSPacket.cpp</title>
<!-- Node1 -->
<g id="Node000001" class="node">
<title>Node1</title>
<g id="a_Node000001"><a xlink:title=" ">
<polygon fill="#999999" stroke="#666666" points="613.5,-459 494.5,-459 494.5,-440 613.5,-440 613.5,-459"/>
<text text-anchor="middle" x="554" y="-447" font-family="Helvetica,sans-Serif" font-size="10.00">src/CCSDSPacket.cpp</text>
</a>
</g>
</g>
<!-- Node2 -->
<g id="Node000002" class="node">
<title>Node2</title>
<g id="a_Node000002"><a xlink:href="CCSDSPacket_8h.html" target="_top" xlink:title=" ">
<polygon fill="white" stroke="#666666" points="668,-349 578,-349 578,-330 668,-330 668,-349"/>
<text text-anchor="middle" x="623" y="-337" font-family="Helvetica,sans-Serif" font-size="10.00">CCSDSPacket.h</text>
</a>
</g>
</g>
<!-- Node1&#45;&gt;Node2 -->
<g id="edge1_Node000001_Node000002" class="edge">
<title>Node1&#45;&gt;Node2</title>
<g id="a_edge1_Node000001_Node000002"><a xlink:title=" ">
<path fill="none" stroke="#63b8ff" d="M567.03,-439.72C578.08,-431.64 593.58,-418.71 603,-404 611.76,-390.31 616.93,-372.5 619.81,-359.23"/>
<polygon fill="#63b8ff" stroke="#63b8ff" points="623.26,-359.82 621.72,-349.33 616.39,-358.49 623.26,-359.82"/>
</a>
</g>
</g>
<!-- Node10 -->
<g id="Node000010" class="node">
<title>Node10</title>
<g id="a_Node000010"><a xlink:href="CCSDSDataField_8h.html" target="_top" xlink:title=" ">
<polygon fill="white" stroke="#666666" points="537.5,-294 432.5,-294 432.5,-275 537.5,-275 537.5,-294"/>
<text text-anchor="middle" x="485" y="-282" font-family="Helvetica,sans-Serif" font-size="10.00">CCSDSDataField.h</text>
</a>
</g>
</g>
<!-- Node1&#45;&gt;Node10 -->
<g id="edge33_Node000001_Node000010" class="edge">
<title>Node1&#45;&gt;Node10</title>
<g id="a_edge33_Node000001_Node000010"><a xlink:title=" ">
<path fill="none" stroke="#63b8ff" d="M539.69,-439.79C528.1,-431.94 512.38,-419.29 504,-404 486.54,-372.14 484.05,-328.7 484.24,-304.24"/>
<polygon fill="#63b8ff" stroke="#63b8ff" points="487.74,-304.25 484.48,-294.17 480.74,-304.08 487.74,-304.25"/>
</a>
</g>
</g>
<!-- Node17 -->
<g id="Node000017" class="node">
<title>Node17</title>
<g id="a_Node000017"><a xlink:href="CCSDSUtils_8h.html" target="_top" xlink:title=" ">
<polygon fill="white" stroke="#666666" points="594.5,-404 513.5,-404 513.5,-385 594.5,-385 594.5,-404"/>
<text text-anchor="middle" x="554" y="-392" font-family="Helvetica,sans-Serif" font-size="10.00">CCSDSUtils.h</text>
</a>
</g>
</g>
<!-- Node1&#45;&gt;Node17 -->
<g id="edge34_Node000001_Node000017" class="edge">
<title>Node1&#45;&gt;Node17</title>
<g id="a_edge34_Node000001_Node000017"><a xlink:title=" ">
<path fill="none" stroke="#63b8ff" d="M554,-439.75C554,-432.8 554,-422.85 554,-414.13"/>
<polygon fill="#63b8ff" stroke="#63b8ff" points="557.5,-414.09 554,-404.09 550.5,-414.09 557.5,-414.09"/>
</a>
</g>
</g>
<!-- Node3 -->
<g id="Node000003" class="node">
<title>Node3</title>
<g id="a_Node000003"><a xlink:href="CCSDSResult_8h.html" target="_top" xlink:title=" ">
<polygon fill="white" stroke="#666666" points="636.5,-74 547.5,-74 547.5,-55 636.5,-55 636.5,-74"/>
<text text-anchor="middle" x="592" y="-62" font-family="Helvetica,sans-Serif" font-size="10.00">CCSDSResult.h</text>
</a>
</g>
</g>
<!-- Node2&#45;&gt;Node3 -->
<g id="edge2_Node000002_Node000003" class="edge">
<title>Node2&#45;&gt;Node3</title>
<g id="a_edge2_Node000002_Node000003"><a xlink:title=" ">
<path fill="none" stroke="#63b8ff" d="M623.74,-329.62C626.08,-298.74 632,-193.42 612,-110 609.78,-100.73 605.65,-91.02 601.71,-83.04"/>
<polygon fill="#63b8ff" stroke="#63b8ff" points="604.73,-81.26 597,-74.02 598.53,-84.5 604.73,-81.26"/>
</a>
</g>
</g>
<!-- Node6 -->
<g id="Node000006" class="node">
<title>Node6</title>
<g id="a_Node000006"><a xlink:title=" ">
<polygon fill="#e0e0e0" stroke="#999999" points="807.5,-19 760.5,-19 760.5,0 807.5,0 807.5,-19"/>
<text text-anchor="middle" x="784" y="-7" font-family="Helvetica,sans-Serif" font-size="10.00">vector</text>
</a>
</g>
</g>
<!-- Node2&#45;&gt;Node6 -->
<g id="edge9_Node000002_Node000006" class="edge">
<title>Node2&#45;&gt;Node6</title>
<g id="a_edge9_Node000002_Node000006"><a xlink:title=" ">
<path fill="none" stroke="#63b8ff" d="M668.17,-335.81C732.02,-329.28 841,-306.95 841,-230.5 841,-230.5 841,-230.5 841,-118.5 841,-82.51 815.94,-46.76 799.05,-26.76"/>
<polygon fill="#63b8ff" stroke="#63b8ff" points="801.64,-24.4 792.41,-19.2 796.38,-29.02 801.64,-24.4"/>
</a>
</g>
</g>
<!-- Node7 -->
<g id="Node000007" class="node">
<title>Node7</title>
<g id="a_Node000007"><a xlink:title=" ">
<polygon fill="#e0e0e0" stroke="#999999" points="262,-19 212,-19 212,0 262,0 262,-19"/>
<text text-anchor="middle" x="237" y="-7" font-family="Helvetica,sans-Serif" font-size="10.00">cstdint</text>
</a>
</g>
</g>
<!-- Node2&#45;&gt;Node7 -->
<g id="edge8_Node000002_Node000007" class="edge">
<title>Node2&#45;&gt;Node7</title>
<g id="a_edge8_Node000002_Node000007"><a xlink:title=" ">
<path fill="none" stroke="#63b8ff" d="M577.99,-337.94C468.66,-333.76 191.02,-305.51 95,-129 66.88,-77.3 151.81,-38.89 202.33,-21.24"/>
<polygon fill="#63b8ff" stroke="#63b8ff" points="203.58,-24.51 211.93,-17.99 201.34,-17.88 203.58,-24.51"/>
</a>
</g>
</g>
<!-- Node9 -->
<g id="Node000009" class="node">
<title>Node9</title>
<g id="a_Node000009"><a xlink:href="CCSDSHeader_8h.html" target="_top" xlink:title=" ">
<polygon fill="white" stroke="#666666" points="774.5,-129 681.5,-129 681.5,-110 774.5,-110 774.5,-129"/>
<text text-anchor="middle" x="728" y="-117" font-family="Helvetica,sans-Serif" font-size="10.00">CCSDSHeader.h</text>
</a>
</g>
</g>
<!-- Node2&#45;&gt;Node9 -->
<g id="edge10_Node000002_Node000009" class="edge">
<title>Node2&#45;&gt;Node9</title>
<g id="a_edge10_Node000002_Node000009"><a xlink:title=" ">
<path fill="none" stroke="#63b8ff" d="M638.84,-329.98C651.77,-322.25 669.54,-309.66 680,-294 712.92,-244.72 723.41,-173.24 726.63,-139.5"/>
<polygon fill="#63b8ff" stroke="#63b8ff" points="730.15,-139.49 727.5,-129.23 723.17,-138.9 730.15,-139.49"/>
</a>
</g>
</g>
<!-- Node2&#45;&gt;Node10 -->
<g id="edge14_Node000002_Node000010" class="edge">
<title>Node2&#45;&gt;Node10</title>
<g id="a_edge14_Node000002_Node000010"><a xlink:title=" ">
<path fill="none" stroke="#63b8ff" d="M600.83,-329.98C578.23,-321.3 542.94,-307.75 517.25,-297.88"/>
<polygon fill="#63b8ff" stroke="#63b8ff" points="518.17,-294.49 507.58,-294.17 515.66,-301.02 518.17,-294.49"/>
</a>
</g>
</g>
<!-- Node4 -->
<g id="Node000004" class="node">
<title>Node4</title>
<g id="a_Node000004"><a xlink:title=" ">
<polygon fill="#e0e0e0" stroke="#999999" points="378.5,-19 285.5,-19 285.5,0 378.5,0 378.5,-19"/>
<text text-anchor="middle" x="332" y="-7" font-family="Helvetica,sans-Serif" font-size="10.00">unordered_map</text>
</a>
</g>
</g>
<!-- Node3&#45;&gt;Node4 -->
<g id="edge3_Node000003_Node000004" class="edge">
<title>Node3&#45;&gt;Node4</title>
<g id="a_edge3_Node000003_Node000004"><a xlink:title=" ">
<path fill="none" stroke="#63b8ff" d="M550.23,-54.98C505.06,-45.78 433,-31.09 384.15,-21.13"/>
<polygon fill="#63b8ff" stroke="#63b8ff" points="384.6,-17.65 374.1,-19.08 383.2,-24.51 384.6,-17.65"/>
</a>
</g>
</g>
<!-- Node5 -->
<g id="Node000005" class="node">
<title>Node5</title>
<g id="a_Node000005"><a xlink:title=" ">
<polygon fill="#e0e0e0" stroke="#999999" points="580.5,-19 529.5,-19 529.5,0 580.5,0 580.5,-19"/>
<text text-anchor="middle" x="555" y="-7" font-family="Helvetica,sans-Serif" font-size="10.00">variant</text>
</a>
</g>
</g>
<!-- Node3&#45;&gt;Node5 -->
<g id="edge4_Node000003_Node000005" class="edge">
<title>Node3&#45;&gt;Node5</title>
<g id="a_edge4_Node000003_Node000005"><a xlink:title=" ">
<path fill="none" stroke="#63b8ff" d="M585.89,-54.75C580.72,-47.34 573.15,-36.5 566.81,-27.41"/>
<polygon fill="#63b8ff" stroke="#63b8ff" points="569.59,-25.29 561,-19.09 563.85,-29.29 569.59,-25.29"/>
</a>
</g>
</g>
<!-- Node3&#45;&gt;Node6 -->
<g id="edge5_Node000003_Node000006" class="edge">
<title>Node3&#45;&gt;Node6</title>
<g id="a_edge5_Node000003_Node000006"><a xlink:title=" ">
<path fill="none" stroke="#63b8ff" d="M622.85,-54.98C657.77,-45.34 714.48,-29.69 750.48,-19.75"/>
<polygon fill="#63b8ff" stroke="#63b8ff" points="751.78,-23.02 760.49,-16.99 749.92,-16.28 751.78,-23.02"/>
</a>
</g>
</g>
<!-- Node3&#45;&gt;Node7 -->
<g id="edge6_Node000003_Node000007" class="edge">
<title>Node3&#45;&gt;Node7</title>
<g id="a_edge6_Node000003_Node000007"><a xlink:title=" ">
<path fill="none" stroke="#63b8ff" d="M547.35,-58.28C485.99,-50.86 372.25,-36.24 276,-19 274.73,-18.77 273.45,-18.53 272.15,-18.29"/>
<polygon fill="#63b8ff" stroke="#63b8ff" points="272.62,-14.81 262.12,-16.26 271.23,-21.67 272.62,-14.81"/>
</a>
</g>
</g>
<!-- Node8 -->
<g id="Node000008" class="node">
<title>Node8</title>
<g id="a_Node000008"><a xlink:title=" ">
<polygon fill="#e0e0e0" stroke="#999999" points="659,-19 599,-19 599,0 659,0 659,-19"/>
<text text-anchor="middle" x="629" y="-7" font-family="Helvetica,sans-Serif" font-size="10.00">iostream</text>
</a>
</g>
</g>
<!-- Node3&#45;&gt;Node8 -->
<g id="edge7_Node000003_Node000008" class="edge">
<title>Node3&#45;&gt;Node8</title>
<g id="a_edge7_Node000003_Node000008"><a xlink:title=" ">
<path fill="none" stroke="#63b8ff" d="M598.11,-54.75C603.28,-47.34 610.85,-36.5 617.19,-27.41"/>
<polygon fill="#63b8ff" stroke="#63b8ff" points="620.15,-29.29 623,-19.09 614.41,-25.29 620.15,-29.29"/>
</a>
</g>
</g>
<!-- Node9&#45;&gt;Node3 -->
<g id="edge11_Node000009_Node000003" class="edge">
<title>Node9&#45;&gt;Node3</title>
<g id="a_edge11_Node000009_Node000003"><a xlink:title=" ">
<path fill="none" stroke="#63b8ff" d="M706.15,-109.98C683.88,-101.3 649.1,-87.75 623.78,-77.88"/>
<polygon fill="#63b8ff" stroke="#63b8ff" points="624.84,-74.54 614.25,-74.17 622.29,-81.06 624.84,-74.54"/>
</a>
</g>
</g>
<!-- Node9&#45;&gt;Node6 -->
<g id="edge13_Node000009_Node000006" class="edge">
<title>Node9&#45;&gt;Node6</title>
<g id="a_edge13_Node000009_Node000006"><a xlink:title=" ">
<path fill="none" stroke="#63b8ff" d="M732.58,-109.66C741.78,-91.93 762.62,-51.73 774.76,-28.32"/>
<polygon fill="#63b8ff" stroke="#63b8ff" points="778.01,-29.65 779.51,-19.16 771.8,-26.42 778.01,-29.65"/>
</a>
</g>
</g>
<!-- Node9&#45;&gt;Node7 -->
<g id="edge12_Node000009_Node000007" class="edge">
<title>Node9&#45;&gt;Node7</title>
<g id="a_edge12_Node000009_Node000007"><a xlink:title=" ">
<path fill="none" stroke="#63b8ff" d="M719.82,-109.63C705.99,-95.28 676.4,-67.37 645,-55 491.68,5.38 438.78,-44.59 276,-19 274.73,-18.8 273.44,-18.58 272.14,-18.36"/>
<polygon fill="#63b8ff" stroke="#63b8ff" points="272.58,-14.88 262.09,-16.42 271.25,-21.75 272.58,-14.88"/>
</a>
</g>
</g>
<!-- Node10&#45;&gt;Node3 -->
<g id="edge15_Node000010_Node000003" class="edge">
<title>Node10&#45;&gt;Node3</title>
<g id="a_edge15_Node000010_Node000003"><a xlink:title=" ">
<path fill="none" stroke="#63b8ff" d="M432.43,-279.54C372.65,-271.9 277.58,-249.53 233,-184 214.5,-156.81 211.22,-134.64 233,-110 252.79,-87.61 441.56,-73.92 537.13,-68.36"/>
<polygon fill="#63b8ff" stroke="#63b8ff" points="537.41,-71.85 547.2,-67.79 537.01,-64.86 537.41,-71.85"/>
</a>
</g>
</g>
<!-- Node10&#45;&gt;Node6 -->
<g id="edge17_Node000010_Node000006" class="edge">
<title>Node10&#45;&gt;Node6</title>
<g id="a_edge17_Node000010_Node000006"><a xlink:title=" ">
<path fill="none" stroke="#63b8ff" d="M533.19,-274.99C603.22,-259.71 730.56,-220.27 784,-129 802.3,-97.75 795.43,-53.44 789.36,-28.81"/>
<polygon fill="#63b8ff" stroke="#63b8ff" points="792.69,-27.75 786.71,-19 785.93,-29.57 792.69,-27.75"/>
</a>
</g>
</g>
<!-- Node10&#45;&gt;Node7 -->
<g id="edge16_Node000010_Node000007" class="edge">
<title>Node10&#45;&gt;Node7</title>
<g id="a_edge16_Node000010_Node000007"><a xlink:title=" ">
<path fill="none" stroke="#63b8ff" d="M432.36,-282.14C342,-276.5 160.78,-249.91 95,-129 66.88,-77.3 151.81,-38.89 202.33,-21.24"/>
<polygon fill="#63b8ff" stroke="#63b8ff" points="203.58,-24.51 211.93,-17.99 201.34,-17.88 203.58,-24.51"/>
</a>
</g>
</g>
<!-- Node11 -->
<g id="Node000011" class="node">
<title>Node11</title>
<g id="a_Node000011"><a xlink:title=" ">
<polygon fill="#e0e0e0" stroke="#999999" points="384,-129 326,-129 326,-110 384,-110 384,-129"/>
<text text-anchor="middle" x="355" y="-117" font-family="Helvetica,sans-Serif" font-size="10.00">memory</text>
</a>
</g>
</g>
<!-- Node10&#45;&gt;Node11 -->
<g id="edge18_Node000010_Node000011" class="edge">
<title>Node10&#45;&gt;Node11</title>
<g id="a_edge18_Node000010_Node000011"><a xlink:title=" ">
<path fill="none" stroke="#63b8ff" d="M481.73,-274.76C472.49,-250.44 445.89,-182.58 430,-165 417.84,-151.55 400.64,-140.94 385.78,-133.46"/>
<polygon fill="#63b8ff" stroke="#63b8ff" points="386.96,-130.15 376.43,-129 383.95,-136.47 386.96,-130.15"/>
</a>
</g>
</g>
<!-- Node12 -->
<g id="Node000012" class="node">
<title>Node12</title>
<g id="a_Node000012"><a xlink:href="CCSDSSecondaryHeaderAbstract_8h.html" target="_top" xlink:title=" ">
<polygon fill="white" stroke="#666666" points="587.5,-129 402.5,-129 402.5,-110 587.5,-110 587.5,-129"/>
<text text-anchor="middle" x="495" y="-117" font-family="Helvetica,sans-Serif" font-size="10.00">CCSDSSecondaryHeaderAbstract.h</text>
</a>
</g>
</g>
<!-- Node10&#45;&gt;Node12 -->
<g id="edge19_Node000010_Node000012" class="edge">
<title>Node10&#45;&gt;Node12</title>
<g id="a_edge19_Node000010_Node000012"><a xlink:title=" ">
<path fill="none" stroke="#63b8ff" d="M520.05,-274.88C538.65,-268.33 559.9,-257.24 571,-239 594.13,-200.99 545.94,-157.12 516.16,-134.94"/>
<polygon fill="#63b8ff" stroke="#63b8ff" points="518.13,-132.05 507.97,-129.04 514.03,-137.72 518.13,-132.05"/>
</a>
</g>
</g>
<!-- Node13 -->
<g id="Node000013" class="node">
<title>Node13</title>
<g id="a_Node000013"><a xlink:href="CCSDSSecondaryHeaderFactory_8h.html" target="_top" xlink:title=" ">
<polygon fill="white" stroke="#666666" points="421.5,-184 242.5,-184 242.5,-165 421.5,-165 421.5,-184"/>
<text text-anchor="middle" x="332" y="-172" font-family="Helvetica,sans-Serif" font-size="10.00">CCSDSSecondaryHeaderFactory.h</text>
</a>
</g>
</g>
<!-- Node10&#45;&gt;Node13 -->
<g id="edge23_Node000010_Node000013" class="edge">
<title>Node10&#45;&gt;Node13</title>
<g id="a_edge23_Node000010_Node000013"><a xlink:title=" ">
<path fill="none" stroke="#63b8ff" d="M472.74,-274.84C446.55,-256.36 384.93,-212.86 352.61,-190.05"/>
<polygon fill="#63b8ff" stroke="#63b8ff" points="354.51,-187.1 344.32,-184.2 350.47,-192.82 354.51,-187.1"/>
</a>
</g>
</g>
<!-- Node16 -->
<g id="Node000016" class="node">
<title>Node16</title>
<g id="a_Node000016"><a xlink:href="PusServices_8h.html" target="_top" xlink:title=" ">
<polygon fill="white" stroke="#666666" points="562,-239 478,-239 478,-220 562,-220 562,-239"/>
<text text-anchor="middle" x="520" y="-227" font-family="Helvetica,sans-Serif" font-size="10.00">PusServices.h</text>
</a>
</g>
</g>
<!-- Node10&#45;&gt;Node16 -->
<g id="edge29_Node000010_Node000016" class="edge">
<title>Node10&#45;&gt;Node16</title>
<g id="a_edge29_Node000010_Node000016"><a xlink:title=" ">
<path fill="none" stroke="#63b8ff" d="M490.78,-274.75C495.62,-267.42 502.68,-256.73 508.64,-247.7"/>
<polygon fill="#63b8ff" stroke="#63b8ff" points="511.74,-249.36 514.33,-239.09 505.9,-245.5 511.74,-249.36"/>
</a>
</g>
</g>
<!-- Node12&#45;&gt;Node3 -->
<g id="edge20_Node000012_Node000003" class="edge">
<title>Node12&#45;&gt;Node3</title>
<g id="a_edge20_Node000012_Node000003"><a xlink:title=" ">
<path fill="none" stroke="#63b8ff" d="M510.58,-109.98C525.77,-101.69 549.1,-88.94 566.9,-79.22"/>
<polygon fill="#63b8ff" stroke="#63b8ff" points="569.03,-82.04 576.13,-74.17 565.68,-75.89 569.03,-82.04"/>
</a>
</g>
</g>
<!-- Node12&#45;&gt;Node6 -->
<g id="edge21_Node000012_Node000006" class="edge">
<title>Node12&#45;&gt;Node6</title>
<g id="a_edge21_Node000012_Node000006"><a xlink:title=" ">
<path fill="none" stroke="#63b8ff" d="M528.81,-109.93C559.5,-101.8 605.83,-88.68 645,-74 685.45,-58.85 730.67,-37.28 758.23,-23.59"/>
<polygon fill="#63b8ff" stroke="#63b8ff" points="759.83,-26.71 767.21,-19.1 756.7,-20.45 759.83,-26.71"/>
</a>
</g>
</g>
<!-- Node12&#45;&gt;Node7 -->
<g id="edge22_Node000012_Node000007" class="edge">
<title>Node12&#45;&gt;Node7</title>
<g id="a_edge22_Node000012_Node000007"><a xlink:title=" ">
<path fill="none" stroke="#63b8ff" d="M474.32,-109.84C428.83,-90.8 319.89,-45.2 266.93,-23.03"/>
<polygon fill="#63b8ff" stroke="#63b8ff" points="267.99,-19.68 257.42,-19.05 265.29,-26.14 267.99,-19.68"/>
</a>
</g>
</g>
<!-- Node13&#45;&gt;Node4 -->
<g id="edge25_Node000013_Node000004" class="edge">
<title>Node13&#45;&gt;Node4</title>
<g id="a_edge25_Node000013_Node000004"><a xlink:title=" ">
<path fill="none" stroke="#63b8ff" d="M287.24,-164.92C267.05,-158.58 245.08,-147.67 233,-129 206.42,-87.91 268.08,-45.17 305.65,-24.03"/>
<polygon fill="#63b8ff" stroke="#63b8ff" points="307.52,-26.99 314.62,-19.13 304.16,-20.85 307.52,-26.99"/>
</a>
</g>
</g>
<!-- Node13&#45;&gt;Node11 -->
<g id="edge24_Node000013_Node000011" class="edge">
<title>Node13&#45;&gt;Node11</title>
<g id="a_edge24_Node000013_Node000011"><a xlink:title=" ">
<path fill="none" stroke="#63b8ff" d="M335.8,-164.75C338.91,-157.57 343.42,-147.18 347.29,-138.27"/>
<polygon fill="#63b8ff" stroke="#63b8ff" points="350.5,-139.66 351.27,-129.09 344.08,-136.87 350.5,-139.66"/>
</a>
</g>
</g>
<!-- Node13&#45;&gt;Node12 -->
<g id="edge28_Node000013_Node000012" class="edge">
<title>Node13&#45;&gt;Node12</title>
<g id="a_edge28_Node000013_Node000012"><a xlink:title=" ">
<path fill="none" stroke="#63b8ff" d="M358.19,-164.98C385.44,-156.13 428.3,-142.19 458.78,-132.28"/>
<polygon fill="#63b8ff" stroke="#63b8ff" points="460.18,-135.5 468.61,-129.08 458.01,-128.85 460.18,-135.5"/>
</a>
</g>
</g>
<!-- Node14 -->
<g id="Node000014" class="node">
<title>Node14</title>
<g id="a_Node000014"><a xlink:title=" ">
<polygon fill="#e0e0e0" stroke="#999999" points="307.5,-129 242.5,-129 242.5,-110 307.5,-110 307.5,-129"/>
<text text-anchor="middle" x="275" y="-117" font-family="Helvetica,sans-Serif" font-size="10.00">functional</text>
</a>
</g>
</g>
<!-- Node13&#45;&gt;Node14 -->
<g id="edge26_Node000013_Node000014" class="edge">
<title>Node13&#45;&gt;Node14</title>
<g id="a_edge26_Node000013_Node000014"><a xlink:title=" ">
<path fill="none" stroke="#63b8ff" d="M322.84,-164.98C314.5,-157.23 301.97,-145.58 291.82,-136.14"/>
<polygon fill="#63b8ff" stroke="#63b8ff" points="294.03,-133.42 284.32,-129.17 289.26,-138.54 294.03,-133.42"/>
</a>
</g>
</g>
<!-- Node15 -->
<g id="Node000015" class="node">
<title>Node15</title>
<g id="a_Node000015"><a xlink:title=" ">
<polygon fill="#e0e0e0" stroke="#999999" points="148,-129 104,-129 104,-110 148,-110 148,-129"/>
<text text-anchor="middle" x="126" y="-117" font-family="Helvetica,sans-Serif" font-size="10.00">string</text>
</a>
</g>
</g>
<!-- Node13&#45;&gt;Node15 -->
<g id="edge27_Node000013_Node000015" class="edge">
<title>Node13&#45;&gt;Node15</title>
<g id="a_edge27_Node000013_Node000015"><a xlink:title=" ">
<path fill="none" stroke="#63b8ff" d="M298.9,-164.98C260.23,-155.03 196.66,-138.68 158.33,-128.82"/>
<polygon fill="#63b8ff" stroke="#63b8ff" points="158.78,-125.32 148.22,-126.22 157.04,-132.1 158.78,-125.32"/>
</a>
</g>
</g>
<!-- Node16&#45;&gt;Node3 -->
<g id="edge32_Node000016_Node000003" class="edge">
<title>Node16&#45;&gt;Node3</title>
<g id="a_edge32_Node000016_Node000003"><a xlink:title=" ">
<path fill="none" stroke="#63b8ff" d="M529.91,-219.87C547.31,-203.98 582.77,-168.12 596,-129 600.87,-114.59 599.35,-97.32 596.9,-84.42"/>
<polygon fill="#63b8ff" stroke="#63b8ff" points="600.25,-83.39 594.64,-74.41 593.42,-84.93 600.25,-83.39"/>
</a>
</g>
</g>
<!-- Node16&#45;&gt;Node12 -->
<g id="edge30_Node000016_Node000012" class="edge">
<title>Node16&#45;&gt;Node12</title>
<g id="a_edge30_Node000016_Node000012"><a xlink:title=" ">
<path fill="none" stroke="#63b8ff" d="M517.95,-219.66C513.89,-202.09 504.71,-162.45 499.27,-138.95"/>
<polygon fill="#63b8ff" stroke="#63b8ff" points="502.67,-138.11 497,-129.16 495.85,-139.69 502.67,-138.11"/>
</a>
</g>
</g>
<!-- Node16&#45;&gt;Node13 -->
<g id="edge31_Node000016_Node000013" class="edge">
<title>Node16&#45;&gt;Node13</title>
<g id="a_edge31_Node000016_Node000013"><a xlink:title=" ">
<path fill="none" stroke="#63b8ff" d="M489.79,-219.98C457.96,-211.01 407.64,-196.82 372.4,-186.89"/>
<polygon fill="#63b8ff" stroke="#63b8ff" points="373.02,-183.43 362.44,-184.08 371.12,-190.16 373.02,-183.43"/>
</a>
</g>
</g>
<!-- Node17&#45;&gt;Node2 -->
<g id="edge35_Node000017_Node000002" class="edge">
<title>Node17&#45;&gt;Node2</title>
<g id="a_edge35_Node000017_Node000002"><a xlink:title=" ">
<path fill="none" stroke="#63b8ff" d="M565.09,-384.98C575.49,-377 591.26,-364.88 603.72,-355.31"/>
<polygon fill="#63b8ff" stroke="#63b8ff" points="605.91,-358.04 611.71,-349.17 601.65,-352.49 605.91,-358.04"/>
</a>
</g>
</g>
<!-- Node17&#45;&gt;Node6 -->
<g id="edge38_Node000017_Node000006" class="edge">
<title>Node17&#45;&gt;Node6</title>
<g id="a_edge38_Node000017_Node000006"><a xlink:title=" ">
<path fill="none" stroke="#63b8ff" d="M594.5,-388.71C681.63,-377.27 879,-344.81 879,-285.5 879,-285.5 879,-285.5 879,-118.5 879,-75.91 836.84,-42.14 808.69,-24.33"/>
<polygon fill="#63b8ff" stroke="#63b8ff" points="810.48,-21.32 800.12,-19.12 806.84,-27.31 810.48,-21.32"/>
</a>
</g>
</g>
<!-- Node17&#45;&gt;Node7 -->
<g id="edge37_Node000017_Node000007" class="edge">
<title>Node17&#45;&gt;Node7</title>
<g id="a_edge37_Node000017_Node000007"><a xlink:title=" ">
<path fill="none" stroke="#63b8ff" d="M513.26,-394.21C385.32,-395.35 0,-390.11 0,-285.5 0,-285.5 0,-285.5 0,-118.5 0,-31.12 135.04,-14.12 201.25,-11.04"/>
<polygon fill="#63b8ff" stroke="#63b8ff" points="201.78,-14.52 211.64,-10.64 201.51,-7.52 201.78,-14.52"/>
</a>
</g>
</g>
<!-- Node17&#45;&gt;Node15 -->
<g id="edge36_Node000017_Node000015" class="edge">
<title>Node17&#45;&gt;Node15</title>
<g id="a_edge36_Node000017_Node000015"><a xlink:title=" ">
<path fill="none" stroke="#63b8ff" d="M534.59,-384.9C486.85,-363.38 360.66,-304.22 265,-239 217.45,-206.58 167.46,-160.57 142.39,-136.53"/>
<polygon fill="#63b8ff" stroke="#63b8ff" points="144.5,-133.71 134.88,-129.28 139.64,-138.74 144.5,-133.71"/>
</a>
</g>
</g>
</g>
</svg>
