<?xml version="1.0" encoding="UTF-8" standalone="no"?>
<!DOCTYPE svg PUBLIC "-//W3C//DTD SVG 1.1//EN"
 "http://www.w3.org/Graphics/SVG/1.1/DTD/svg11.dtd">
<!-- Generated by graphviz version 2.43.0 (0)
 -->
<!-- Title: inc/CCSDSManager.h Pages: 1 -->
<svg width="1088pt" height="192pt"
 viewBox="0.00 0.00 1088.00 192.00" xmlns="http://www.w3.org/2000/svg" xmlns:xlink="http://www.w3.org/1999/xlink">
<g id="graph0" class="graph" transform="scale(1 1) rotate(0) translate(4 188)">
<title>inc/CCSDSManager.h</title>
<!-- Node1 -->
<g id="Node000001" class="node">
<title>Node1</title>
<g id="a_Node000001"><a xlink:title=" ">
<polygon fill="#999999" stroke="#666666" points="389,-184 271,-184 271,-165 389,-165 389,-184"/>
<text text-anchor="middle" x="330" y="-172" font-family="Helvetica,sans-Serif" font-size="10.00">inc/CCSDSManager.h</text>
</a>
</g>
</g>
<!-- Node2 -->
<g id="Node000002" class="node">
<title>Node2</title>
<g id="a_Node000002"><a xlink:href="CCSDSPack_8h.html" target="_top" xlink:title=" ">
<polygon fill="white" stroke="#666666" points="247,-74 149,-74 149,-55 247,-55 247,-74"/>
<text text-anchor="middle" x="198" y="-62" font-family="Helvetica,sans-Serif" font-size="10.00">inc/CCSDSPack.h</text>
</a>
</g>
</g>
<!-- Node1&#45;&gt;Node2 -->
<g id="edge1_Node000001_Node000002" class="edge">
<title>Node1&#45;&gt;Node2</title>
<g id="a_edge1_Node000001_Node000002"><a xlink:title=" ">
<path fill="none" stroke="#63b8ff" d="M311.31,-158.21C283.19,-135.2 230.93,-92.44 208.58,-74.16"/>
<polygon fill="#63b8ff" stroke="#63b8ff" points="309.24,-161.04 319.2,-164.66 313.67,-155.62 309.24,-161.04"/>
</a>
</g>
</g>
<!-- Node6 -->
<g id="Node000006" class="node">
<title>Node6</title>
<g id="a_Node000006"><a xlink:href="CCSDSUtils_8h.html" target="_top" xlink:title=" ">
<polygon fill="white" stroke="#666666" points="587,-129 489,-129 489,-110 587,-110 587,-129"/>
<text text-anchor="middle" x="538" y="-117" font-family="Helvetica,sans-Serif" font-size="10.00">inc/CCSDSUtils.h</text>
</a>
</g>
</g>
<!-- Node1&#45;&gt;Node6 -->
<g id="edge5_Node000001_Node000006" class="edge">
<title>Node1&#45;&gt;Node6</title>
<g id="a_edge5_Node000001_Node000006"><a xlink:title=" ">
<path fill="none" stroke="#63b8ff" d="M373.41,-162.44C412.35,-152.52 468.69,-138.16 504.32,-129.08"/>
<polygon fill="#63b8ff" stroke="#63b8ff" points="372.24,-159.12 363.42,-164.98 373.97,-165.91 372.24,-159.12"/>
</a>
</g>
</g>
<!-- Node8 -->
<g id="Node000008" class="node">
<title>Node8</title>
<g id="a_Node000008"><a xlink:href="CCSDSManager_8cpp.html" target="_top" xlink:title=" ">
<polygon fill="white" stroke="#666666" points="394.5,-74 265.5,-74 265.5,-55 394.5,-55 394.5,-74"/>
<text text-anchor="middle" x="330" y="-62" font-family="Helvetica,sans-Serif" font-size="10.00">src/CCSDSManager.cpp</text>
</a>
</g>
</g>
<!-- Node1&#45;&gt;Node8 -->
<g id="edge13_Node000001_Node000008" class="edge">
<title>Node1&#45;&gt;Node8</title>
<g id="a_edge13_Node000001_Node000008"><a xlink:title=" ">
<path fill="none" stroke="#63b8ff" d="M330,-154.48C330,-130.84 330,-91.5 330,-74.16"/>
<polygon fill="#63b8ff" stroke="#63b8ff" points="326.5,-154.66 330,-164.66 333.5,-154.66 326.5,-154.66"/>
</a>
</g>
</g>
<!-- Node3 -->
<g id="Node000003" class="node">
<title>Node3</title>
<g id="a_Node000003"><a xlink:href="exec__decoder_8cpp.html" target="_top" xlink:title=" ">
<polygon fill="white" stroke="#666666" points="120,-19 0,-19 0,0 120,0 120,-19"/>
<text text-anchor="middle" x="60" y="-7" font-family="Helvetica,sans-Serif" font-size="10.00">src/exec_decoder.cpp</text>
</a>
</g>
</g>
<!-- Node2&#45;&gt;Node3 -->
<g id="edge2_Node000002_Node000003" class="edge">
<title>Node2&#45;&gt;Node3</title>
<g id="a_edge2_Node000002_Node000003"><a xlink:title=" ">
<path fill="none" stroke="#63b8ff" d="M166.21,-51.29C140.63,-41.47 105.33,-27.91 82.58,-19.17"/>
<polygon fill="#63b8ff" stroke="#63b8ff" points="165.24,-54.67 175.83,-54.98 167.75,-48.13 165.24,-54.67"/>
</a>
</g>
</g>
<!-- Node4 -->
<g id="Node000004" class="node">
<title>Node4</title>
<g id="a_Node000004"><a xlink:href="exec__encoder_8cpp.html" target="_top" xlink:title=" ">
<polygon fill="white" stroke="#666666" points="258,-19 138,-19 138,0 258,0 258,-19"/>
<text text-anchor="middle" x="198" y="-7" font-family="Helvetica,sans-Serif" font-size="10.00">src/exec_encoder.cpp</text>
</a>
</g>
</g>
<!-- Node2&#45;&gt;Node4 -->
<g id="edge3_Node000002_Node000004" class="edge">
<title>Node2&#45;&gt;Node4</title>
<g id="a_edge3_Node000002_Node000004"><a xlink:title=" ">
<path fill="none" stroke="#63b8ff" d="M198,-44.66C198,-35.93 198,-25.99 198,-19.09"/>
<polygon fill="#63b8ff" stroke="#63b8ff" points="194.5,-44.75 198,-54.75 201.5,-44.75 194.5,-44.75"/>
</a>
</g>
</g>
<!-- Node5 -->
<g id="Node000005" class="node">
<title>Node5</title>
<g id="a_Node000005"><a xlink:href="exec__validator_8cpp.html" target="_top" xlink:title=" ">
<polygon fill="white" stroke="#666666" points="401.5,-19 276.5,-19 276.5,0 401.5,0 401.5,-19"/>
<text text-anchor="middle" x="339" y="-7" font-family="Helvetica,sans-Serif" font-size="10.00">src/exec_validator.cpp</text>
</a>
</g>
</g>
<!-- Node2&#45;&gt;Node5 -->
<g id="edge4_Node000002_Node000005" class="edge">
<title>Node2&#45;&gt;Node5</title>
<g id="a_edge4_Node000002_Node000005"><a xlink:title=" ">
<path fill="none" stroke="#63b8ff" d="M230.14,-51.42C256.29,-41.59 292.59,-27.95 315.93,-19.17"/>
<polygon fill="#63b8ff" stroke="#63b8ff" points="228.78,-48.19 220.65,-54.98 231.25,-54.74 228.78,-48.19"/>
</a>
</g>
</g>
<!-- Node6&#45;&gt;Node2 -->
<g id="edge6_Node000006_Node000002" class="edge">
<title>Node6&#45;&gt;Node2</title>
<g id="a_edge6_Node000006_Node000002"><a xlink:title=" ">
<path fill="none" stroke="#63b8ff" d="M478.73,-109.26C413.05,-99.02 308.32,-82.7 247.06,-73.15"/>
<polygon fill="#63b8ff" stroke="#63b8ff" points="478.5,-112.77 488.92,-110.85 479.58,-105.85 478.5,-112.77"/>
</a>
</g>
</g>
<!-- Node7 -->
<g id="Node000007" class="node">
<title>Node7</title>
<g id="a_Node000007"><a xlink:href="CCSDSHeader_8cpp.html" target="_top" xlink:title=" ">
<polygon fill="white" stroke="#666666" points="1080,-74 958,-74 958,-55 1080,-55 1080,-74"/>
<text text-anchor="middle" x="1019" y="-62" font-family="Helvetica,sans-Serif" font-size="10.00">src/CCSDSHeader.cpp</text>
</a>
</g>
</g>
<!-- Node6&#45;&gt;Node7 -->
<g id="edge7_Node000006_Node000007" class="edge">
<title>Node6&#45;&gt;Node7</title>
<g id="a_edge7_Node000006_Node000007"><a xlink:title=" ">
<path fill="none" stroke="#63b8ff" d="M597.41,-112.31C677.35,-103.93 823.95,-88.36 949,-74 951.92,-73.66 954.91,-73.32 957.92,-72.96"/>
<polygon fill="#63b8ff" stroke="#63b8ff" points="596.63,-108.87 587.05,-113.4 597.36,-115.84 596.63,-108.87"/>
</a>
</g>
</g>
<!-- Node6&#45;&gt;Node8 -->
<g id="edge8_Node000006_Node000008" class="edge">
<title>Node6&#45;&gt;Node8</title>
<g id="a_edge8_Node000006_Node000008"><a xlink:title=" ">
<path fill="none" stroke="#63b8ff" d="M494.59,-107.44C455.65,-97.52 399.31,-83.16 363.68,-74.08"/>
<polygon fill="#63b8ff" stroke="#63b8ff" points="494.03,-110.91 504.58,-109.98 495.76,-104.12 494.03,-110.91"/>
</a>
</g>
</g>
<!-- Node9 -->
<g id="Node000009" class="node">
<title>Node9</title>
<g id="a_Node000009"><a xlink:href="CCSDSPacket_8cpp.html" target="_top" xlink:title=" ">
<polygon fill="white" stroke="#666666" points="531.5,-74 412.5,-74 412.5,-55 531.5,-55 531.5,-74"/>
<text text-anchor="middle" x="472" y="-62" font-family="Helvetica,sans-Serif" font-size="10.00">src/CCSDSPacket.cpp</text>
</a>
</g>
</g>
<!-- Node6&#45;&gt;Node9 -->
<g id="edge9_Node000006_Node000009" class="edge">
<title>Node6&#45;&gt;Node9</title>
<g id="a_edge9_Node000006_Node000009"><a xlink:title=" ">
<path fill="none" stroke="#63b8ff" d="M519.45,-103.6C507.62,-94.11 492.71,-82.13 482.8,-74.17"/>
<polygon fill="#63b8ff" stroke="#63b8ff" points="517.41,-106.45 527.4,-109.98 521.79,-100.99 517.41,-106.45"/>
</a>
</g>
</g>
<!-- Node10 -->
<g id="Node000010" class="node">
<title>Node10</title>
<g id="a_Node000010"><a xlink:href="CCSDSUtils_8cpp.html" target="_top" xlink:title=" ">
<polygon fill="white" stroke="#666666" points="660,-74 550,-74 550,-55 660,-55 660,-74"/>
<text text-anchor="middle" x="605" y="-62" font-family="Helvetica,sans-Serif" font-size="10.00">src/CCSDSUtils.cpp</text>
</a>
</g>
</g>
<!-- Node6&#45;&gt;Node10 -->
<g id="edge10_Node000006_Node000010" class="edge">
<title>Node6&#45;&gt;Node10</title>
<g id="a_edge10_Node000006_Node000010"><a xlink:title=" ">
<path fill="none" stroke="#63b8ff" d="M556.83,-103.6C568.84,-94.11 583.97,-82.13 594.04,-74.17"/>
<polygon fill="#63b8ff" stroke="#63b8ff" points="554.44,-101.04 548.76,-109.98 558.78,-106.53 554.44,-101.04"/>
</a>
</g>
</g>
<!-- Node11 -->
<g id="Node000011" class="node">
<title>Node11</title>
<g id="a_Node000011"><a xlink:href="CCSDSValidator_8cpp.html" target="_top" xlink:title=" ">
<polygon fill="white" stroke="#666666" points="808,-74 678,-74 678,-55 808,-55 808,-74"/>
<text text-anchor="middle" x="743" y="-62" font-family="Helvetica,sans-Serif" font-size="10.00">src/CCSDSValidator.cpp</text>
</a>
</g>
</g>
<!-- Node6&#45;&gt;Node11 -->
<g id="edge11_Node000006_Node000011" class="edge">
<title>Node6&#45;&gt;Node11</title>
<g id="a_edge11_Node000006_Node000011"><a xlink:title=" ">
<path fill="none" stroke="#63b8ff" d="M580.79,-107.44C619.17,-97.52 674.69,-83.16 709.81,-74.08"/>
<polygon fill="#63b8ff" stroke="#63b8ff" points="579.74,-104.09 570.94,-109.98 581.49,-110.87 579.74,-104.09"/>
</a>
</g>
</g>
<!-- Node12 -->
<g id="Node000012" class="node">
<title>Node12</title>
<g id="a_Node000012"><a xlink:href="PusServices_8cpp.html" target="_top" xlink:title=" ">
<polygon fill="white" stroke="#666666" points="939.5,-74 826.5,-74 826.5,-55 939.5,-55 939.5,-74"/>
<text text-anchor="middle" x="883" y="-62" font-family="Helvetica,sans-Serif" font-size="10.00">src/PusServices.cpp</text>
</a>
</g>
</g>
<!-- Node6&#45;&gt;Node12 -->
<g id="edge12_Node000006_Node000012" class="edge">
<title>Node6&#45;&gt;Node12</title>
<g id="a_edge12_Node000006_Node000012"><a xlink:title=" ">
<path fill="none" stroke="#63b8ff" d="M597.09,-109.42C661.7,-99.5 764.41,-83.72 827.54,-74.02"/>
<polygon fill="#63b8ff" stroke="#63b8ff" points="596.42,-105.98 587.06,-110.96 597.48,-112.9 596.42,-105.98"/>
</a>
</g>
</g>
</g>
</svg>
