<?xml version="1.0" encoding="UTF-8" standalone="no"?>
<!DOCTYPE svg PUBLIC "-//W3C//DTD SVG 1.1//EN"
 "http://www.w3.org/Graphics/SVG/1.1/DTD/svg11.dtd">
<!-- Generated by graphviz version 2.43.0 (0)
 -->
<!-- Title: inc/CCSDSManager.h Pages: 1 -->
<svg width="982pt" height="137pt"
 viewBox="0.00 0.00 981.50 137.00" xmlns="http://www.w3.org/2000/svg" xmlns:xlink="http://www.w3.org/1999/xlink">
<g id="graph0" class="graph" transform="scale(1 1) rotate(0) translate(4 133)">
<title>inc/CCSDSManager.h</title>
<!-- Node1 -->
<g id="Node000001" class="node">
<title>Node1</title>
<g id="a_Node000001"><a xlink:title=" ">
<polygon fill="#999999" stroke="#666666" points="558.5,-129 440.5,-129 440.5,-110 558.5,-110 558.5,-129"/>
<text text-anchor="middle" x="499.5" y="-117" font-family="Helvetica,sans-Serif" font-size="10.00">inc/CCSDSManager.h</text>
</a>
</g>
</g>
<!-- Node2 -->
<g id="Node000002" class="node">
<title>Node2</title>
<g id="a_Node000002"><a xlink:href="CCSDSUtils_8h.html" target="_top" xlink:title=" ">
<polygon fill="white" stroke="#666666" points="548.5,-74 450.5,-74 450.5,-55 548.5,-55 548.5,-74"/>
<text text-anchor="middle" x="499.5" y="-62" font-family="Helvetica,sans-Serif" font-size="10.00">inc/CCSDSUtils.h</text>
</a>
</g>
</g>
<!-- Node1&#45;&gt;Node2 -->
<g id="edge1_Node000001_Node000002" class="edge">
<title>Node1&#45;&gt;Node2</title>
<g id="a_edge1_Node000001_Node000002"><a xlink:title=" ">
<path fill="none" stroke="#63b8ff" d="M499.5,-99.66C499.5,-90.93 499.5,-80.99 499.5,-74.09"/>
<polygon fill="#63b8ff" stroke="#63b8ff" points="496,-99.75 499.5,-109.75 503,-99.75 496,-99.75"/>
</a>
</g>
</g>
<!-- Node5 -->
<g id="Node000005" class="node">
<title>Node5</title>
<g id="a_Node000005"><a xlink:href="CCSDSManager_8cpp.html" target="_top" xlink:title=" ">
<polygon fill="white" stroke="#666666" points="129,-19 0,-19 0,0 129,0 129,-19"/>
<text text-anchor="middle" x="64.5" y="-7" font-family="Helvetica,sans-Serif" font-size="10.00">src/CCSDSManager.cpp</text>
</a>
</g>
</g>
<!-- Node1&#45;&gt;Node5 -->
<g id="edge9_Node000001_Node000005" class="edge">
<title>Node1&#45;&gt;Node5</title>
<g id="a_edge9_Node000001_Node000005"><a xlink:title=" ">
<path fill="none" stroke="#63b8ff" d="M455.19,-107.5C368.31,-85.93 177.29,-38.5 99,-19.07"/>
<polygon fill="#63b8ff" stroke="#63b8ff" points="454.45,-110.92 465,-109.94 456.14,-104.13 454.45,-110.92"/>
</a>
</g>
</g>
<!-- Node9 -->
<g id="Node000009" class="node">
<title>Node9</title>
<g id="a_Node000009"><a xlink:href="exec__encoder_8cpp.html" target="_top" xlink:title=" ">
<polygon fill="white" stroke="#666666" points="973.5,-19 853.5,-19 853.5,0 973.5,0 973.5,-19"/>
<text text-anchor="middle" x="913.5" y="-7" font-family="Helvetica,sans-Serif" font-size="10.00">src/exec_encoder.cpp</text>
</a>
</g>
</g>
<!-- Node1&#45;&gt;Node9 -->
<g id="edge10_Node000001_Node000009" class="edge">
<title>Node1&#45;&gt;Node9</title>
<g id="a_edge10_Node000001_Node000009"><a xlink:title=" ">
<path fill="none" stroke="#63b8ff" d="M542.18,-107.37C625.09,-85.74 806.31,-38.46 880.66,-19.07"/>
<polygon fill="#63b8ff" stroke="#63b8ff" points="541.12,-104.02 532.33,-109.94 542.89,-110.8 541.12,-104.02"/>
</a>
</g>
</g>
<!-- Node3 -->
<g id="Node000003" class="node">
<title>Node3</title>
<g id="a_Node000003"><a xlink:href="CCSDSDataField_8cpp.html" target="_top" xlink:title=" ">
<polygon fill="white" stroke="#666666" points="281.5,-19 147.5,-19 147.5,0 281.5,0 281.5,-19"/>
<text text-anchor="middle" x="214.5" y="-7" font-family="Helvetica,sans-Serif" font-size="10.00">src/CCSDSDataField.cpp</text>
</a>
</g>
</g>
<!-- Node2&#45;&gt;Node3 -->
<g id="edge2_Node000002_Node000003" class="edge">
<title>Node2&#45;&gt;Node3</title>
<g id="a_edge2_Node000002_Node000003"><a xlink:title=" ">
<path fill="none" stroke="#63b8ff" d="M443.72,-53.13C390.29,-43.19 310.61,-28.37 260.65,-19.08"/>
<polygon fill="#63b8ff" stroke="#63b8ff" points="443.24,-56.6 453.71,-54.98 444.52,-49.72 443.24,-56.6"/>
</a>
</g>
</g>
<!-- Node4 -->
<g id="Node000004" class="node">
<title>Node4</title>
<g id="a_Node000004"><a xlink:href="CCSDSHeader_8cpp.html" target="_top" xlink:title=" ">
<polygon fill="white" stroke="#666666" points="421.5,-19 299.5,-19 299.5,0 421.5,0 421.5,-19"/>
<text text-anchor="middle" x="360.5" y="-7" font-family="Helvetica,sans-Serif" font-size="10.00">src/CCSDSHeader.cpp</text>
</a>
</g>
</g>
<!-- Node2&#45;&gt;Node4 -->
<g id="edge3_Node000002_Node000004" class="edge">
<title>Node2&#45;&gt;Node4</title>
<g id="a_edge3_Node000002_Node000004"><a xlink:title=" ">
<path fill="none" stroke="#63b8ff" d="M467.82,-51.42C442.03,-41.59 406.26,-27.95 383.24,-19.17"/>
<polygon fill="#63b8ff" stroke="#63b8ff" points="466.58,-54.69 477.17,-54.98 469.07,-48.15 466.58,-54.69"/>
</a>
</g>
</g>
<!-- Node2&#45;&gt;Node5 -->
<g id="edge4_Node000002_Node000005" class="edge">
<title>Node2&#45;&gt;Node5</title>
<g id="a_edge4_Node000002_Node000005"><a xlink:title=" ">
<path fill="none" stroke="#63b8ff" d="M440.38,-56.3C359.1,-46.39 213.37,-28.64 129.23,-18.39"/>
<polygon fill="#63b8ff" stroke="#63b8ff" points="440.1,-59.79 450.45,-57.52 440.94,-52.84 440.1,-59.79"/>
</a>
</g>
</g>
<!-- Node6 -->
<g id="Node000006" class="node">
<title>Node6</title>
<g id="a_Node000006"><a xlink:href="CCSDSPacket_8cpp.html" target="_top" xlink:title=" ">
<polygon fill="white" stroke="#666666" points="559,-19 440,-19 440,0 559,0 559,-19"/>
<text text-anchor="middle" x="499.5" y="-7" font-family="Helvetica,sans-Serif" font-size="10.00">src/CCSDSPacket.cpp</text>
</a>
</g>
</g>
<!-- Node2&#45;&gt;Node6 -->
<g id="edge5_Node000002_Node000006" class="edge">
<title>Node2&#45;&gt;Node6</title>
<g id="a_edge5_Node000002_Node000006"><a xlink:title=" ">
<path fill="none" stroke="#63b8ff" d="M499.5,-44.66C499.5,-35.93 499.5,-25.99 499.5,-19.09"/>
<polygon fill="#63b8ff" stroke="#63b8ff" points="496,-44.75 499.5,-54.75 503,-44.75 496,-44.75"/>
</a>
</g>
</g>
<!-- Node7 -->
<g id="Node000007" class="node">
<title>Node7</title>
<g id="a_Node000007"><a xlink:href="CCSDSUtils_8cpp.html" target="_top" xlink:title=" ">
<polygon fill="white" stroke="#666666" points="687.5,-19 577.5,-19 577.5,0 687.5,0 687.5,-19"/>
<text text-anchor="middle" x="632.5" y="-7" font-family="Helvetica,sans-Serif" font-size="10.00">src/CCSDSUtils.cpp</text>
</a>
</g>
</g>
<!-- Node2&#45;&gt;Node7 -->
<g id="edge6_Node000002_Node000007" class="edge">
<title>Node2&#45;&gt;Node7</title>
<g id="a_edge6_Node000002_Node000007"><a xlink:title=" ">
<path fill="none" stroke="#63b8ff" d="M530.47,-51.16C555.09,-41.35 588.91,-27.87 610.74,-19.17"/>
<polygon fill="#63b8ff" stroke="#63b8ff" points="528.86,-48.03 520.87,-54.98 531.45,-54.53 528.86,-48.03"/>
</a>
</g>
</g>
<!-- Node8 -->
<g id="Node000008" class="node">
<title>Node8</title>
<g id="a_Node000008"><a xlink:href="CCSDSValidator_8cpp.html" target="_top" xlink:title=" ">
<polygon fill="white" stroke="#666666" points="835.5,-19 705.5,-19 705.5,0 835.5,0 835.5,-19"/>
<text text-anchor="middle" x="770.5" y="-7" font-family="Helvetica,sans-Serif" font-size="10.00">src/CCSDSValidator.cpp</text>
</a>
</g>
</g>
<!-- Node2&#45;&gt;Node8 -->
<g id="edge7_Node000002_Node000008" class="edge">
<title>Node2&#45;&gt;Node8</title>
<g id="a_edge7_Node000002_Node000008"><a xlink:title=" ">
<path fill="none" stroke="#63b8ff" d="M552.86,-53.07C603.66,-43.13 679.21,-28.35 726.62,-19.08"/>
<polygon fill="#63b8ff" stroke="#63b8ff" points="552.18,-49.63 543.04,-54.98 553.53,-56.5 552.18,-49.63"/>
</a>
</g>
</g>
<!-- Node2&#45;&gt;Node9 -->
<g id="edge8_Node000002_Node000009" class="edge">
<title>Node2&#45;&gt;Node9</title>
<g id="a_edge8_Node000002_Node000009"><a xlink:title=" ">
<path fill="none" stroke="#63b8ff" d="M558.81,-55.91C637.22,-45.87 774.61,-28.28 853.41,-18.19"/>
<polygon fill="#63b8ff" stroke="#63b8ff" points="558.09,-52.47 548.62,-57.21 558.98,-59.41 558.09,-52.47"/>
</a>
</g>
</g>
</g>
</svg>
