<?xml version="1.0" encoding="UTF-8" standalone="no"?>
<!DOCTYPE svg PUBLIC "-//W3C//DTD SVG 1.1//EN"
 "http://www.w3.org/Graphics/SVG/1.1/DTD/svg11.dtd">
<!-- Generated by graphviz version 2.43.0 (0)
 -->
<!-- Title: printDataField Pages: 1 -->
<svg width="523pt" height="198pt"
 viewBox="0.00 0.00 523.00 198.00" xmlns="http://www.w3.org/2000/svg" xmlns:xlink="http://www.w3.org/1999/xlink">
<g id="graph0" class="graph" transform="scale(1 1) rotate(0) translate(4 194)">
<title>printDataField</title>
<!-- Node1 -->
<g id="Node000001" class="node">
<title>Node1</title>
<g id="a_Node000001"><a xlink:title="Prints the data field and the CRC&#45;16 checksum of the packet.">
<polygon fill="#999999" stroke="#666666" points="86,-147 0,-147 0,-128 86,-128 86,-147"/>
<text text-anchor="middle" x="43" y="-135" font-family="Helvetica,sans-Serif" font-size="10.00">printDataField</text>
</a>
</g>
</g>
<!-- Node2 -->
<g id="Node000002" class="node">
<title>Node2</title>
<g id="a_Node000002"><a xlink:href="classCCSDS_1_1Packet.html#a6b0791e2a62a2db48b12a5ee6b762a7b" target="_top" xlink:title="Computes and retrieves the CRC&#45;16 checksum of the packet.">
<polygon fill="white" stroke="#666666" points="264,-184 135,-184 135,-165 264,-165 264,-184"/>
<text text-anchor="middle" x="199.5" y="-172" font-family="Helvetica,sans-Serif" font-size="10.00">CCSDS::Packet::getCRC</text>
</a>
</g>
</g>
<!-- Node1&#45;&gt;Node2 -->
<g id="edge1_Node000001_Node000002" class="edge">
<title>Node1&#45;&gt;Node2</title>
<g id="a_edge1_Node000001_Node000002"><a xlink:title=" ">
<path fill="none" stroke="#63b8ff" d="M82.87,-147.03C95.36,-150.08 109.26,-153.45 122,-156.5 130.3,-158.49 139.11,-160.58 147.68,-162.6"/>
<polygon fill="#63b8ff" stroke="#63b8ff" points="147.06,-166.05 157.59,-164.94 148.66,-159.24 147.06,-166.05"/>
</a>
</g>
</g>
<!-- Node3 -->
<g id="Node000003" class="node">
<title>Node3</title>
<g id="a_Node000003"><a xlink:href="classCCSDS_1_1Packet.html#ae788c8d3ae1fcec2c18787c9491cdca3" target="_top" xlink:title="returns the CCSDS packet&#39;s DataField.">
<polygon fill="white" stroke="#666666" points="277,-147 122,-147 122,-128 277,-128 277,-147"/>
<text text-anchor="middle" x="199.5" y="-135" font-family="Helvetica,sans-Serif" font-size="10.00">CCSDS::Packet::getDataField</text>
</a>
</g>
</g>
<!-- Node1&#45;&gt;Node3 -->
<g id="edge2_Node000001_Node000003" class="edge">
<title>Node1&#45;&gt;Node3</title>
<g id="a_edge2_Node000001_Node000003"><a xlink:title=" ">
<path fill="none" stroke="#63b8ff" d="M86.22,-137.5C94.27,-137.5 102.96,-137.5 111.82,-137.5"/>
<polygon fill="#63b8ff" stroke="#63b8ff" points="111.87,-141 121.87,-137.5 111.87,-134 111.87,-141"/>
</a>
</g>
</g>
<!-- Node4 -->
<g id="Node000004" class="node">
<title>Node4</title>
<g id="a_Node000004"><a xlink:href="CCSDSUtils_8cpp.html#a6e927daa91ea42db4bb94bfc51425b96" target="_top" xlink:title="Prints the data field details, including the secondary header and application data.">
<polygon fill="white" stroke="#666666" points="230.5,-110 168.5,-110 168.5,-91 230.5,-91 230.5,-110"/>
<text text-anchor="middle" x="199.5" y="-98" font-family="Helvetica,sans-Serif" font-size="10.00">printData</text>
</a>
</g>
</g>
<!-- Node1&#45;&gt;Node4 -->
<g id="edge3_Node000001_Node000004" class="edge">
<title>Node1&#45;&gt;Node4</title>
<g id="a_edge3_Node000001_Node000004"><a xlink:title=" ">
<path fill="none" stroke="#63b8ff" d="M83.79,-127.97C106.69,-122.49 135.38,-115.62 158.34,-110.12"/>
<polygon fill="#63b8ff" stroke="#63b8ff" points="159.21,-113.51 168.12,-107.78 157.58,-106.7 159.21,-113.51"/>
</a>
</g>
</g>
<!-- Node5 -->
<g id="Node000005" class="node">
<title>Node5</title>
<g id="a_Node000005"><a xlink:href="classCCSDS_1_1DataField.html#af446e62e6a263dbd5ef993101fa0b3c4" target="_top" xlink:title="Retrieves the application data from the data field.">
<polygon fill="white" stroke="#666666" points="515,-190 313,-190 313,-171 515,-171 515,-190"/>
<text text-anchor="middle" x="414" y="-178" font-family="Helvetica,sans-Serif" font-size="10.00">CCSDS::DataField::getApplicationData</text>
</a>
</g>
</g>
<!-- Node4&#45;&gt;Node5 -->
<g id="edge4_Node000004_Node000005" class="edge">
<title>Node4&#45;&gt;Node5</title>
<g id="a_edge4_Node000004_Node000005"><a xlink:title=" ">
<path fill="none" stroke="#63b8ff" d="M230.54,-103.52C245.4,-106.08 263.07,-110.8 277,-119.5 298.14,-132.71 291.44,-149.99 313,-162.5 316.03,-164.26 319.19,-165.85 322.44,-167.3"/>
<polygon fill="#63b8ff" stroke="#63b8ff" points="321.24,-170.58 331.82,-170.98 323.8,-164.07 321.24,-170.58"/>
</a>
</g>
</g>
<!-- Node6 -->
<g id="Node000006" class="node">
<title>Node6</title>
<g id="a_Node000006"><a xlink:href="CCSDSUtils_8cpp.html#a747efd8ca2488636101433b9a3e8f1b1" target="_top" xlink:title="Generates a string of spaces for formatting binary outputs.">
<polygon fill="white" stroke="#666666" points="457,-153 371,-153 371,-134 457,-134 457,-153"/>
<text text-anchor="middle" x="414" y="-141" font-family="Helvetica,sans-Serif" font-size="10.00">getBitsSpaces</text>
</a>
</g>
</g>
<!-- Node4&#45;&gt;Node6 -->
<g id="edge5_Node000004_Node000006" class="edge">
<title>Node4&#45;&gt;Node6</title>
<g id="a_edge5_Node000004_Node000006"><a xlink:title=" ">
<path fill="none" stroke="#63b8ff" d="M230.54,-107.1C253.18,-112.03 285.01,-118.86 313,-124.5 328.49,-127.62 345.36,-130.88 360.75,-133.8"/>
<polygon fill="#63b8ff" stroke="#63b8ff" points="360.15,-137.25 370.63,-135.67 361.45,-130.37 360.15,-137.25"/>
</a>
</g>
</g>
<!-- Node7 -->
<g id="Node000007" class="node">
<title>Node7</title>
<g id="a_Node000007"><a xlink:href="classCCSDS_1_1DataField.html#ac414a4c6ffe4d3cce1c225833e550a1f" target="_top" xlink:title="Retrieves the secondary header data as a vector of bytes.">
<polygon fill="white" stroke="#666666" points="487.5,-115.5 340.5,-115.5 340.5,-85.5 487.5,-85.5 487.5,-115.5"/>
<text text-anchor="start" x="348.5" y="-103.5" font-family="Helvetica,sans-Serif" font-size="10.00">CCSDS::DataField::getData</text>
<text text-anchor="middle" x="414" y="-92.5" font-family="Helvetica,sans-Serif" font-size="10.00">FieldHeaderBytes</text>
</a>
</g>
</g>
<!-- Node4&#45;&gt;Node7 -->
<g id="edge6_Node000004_Node000007" class="edge">
<title>Node4&#45;&gt;Node7</title>
<g id="a_edge6_Node000004_Node000007"><a xlink:title=" ">
<path fill="none" stroke="#63b8ff" d="M230.95,-100.5C256.85,-100.5 295.3,-100.5 330.19,-100.5"/>
<polygon fill="#63b8ff" stroke="#63b8ff" points="330.41,-104 340.41,-100.5 330.41,-97 330.41,-104"/>
</a>
</g>
</g>
<!-- Node8 -->
<g id="Node000008" class="node">
<title>Node8</title>
<g id="a_Node000008"><a xlink:href="classCCSDS_1_1DataField.html#a78c2894fc2650e0dc9ec892d58dfde7a" target="_top" xlink:title="retrieves true if a known secondary header has been set">
<polygon fill="white" stroke="#666666" points="487.5,-67.5 340.5,-67.5 340.5,-37.5 487.5,-37.5 487.5,-67.5"/>
<text text-anchor="start" x="348.5" y="-55.5" font-family="Helvetica,sans-Serif" font-size="10.00">CCSDS::DataField::getData</text>
<text text-anchor="middle" x="414" y="-44.5" font-family="Helvetica,sans-Serif" font-size="10.00">FieldHeaderFlag</text>
</a>
</g>
</g>
<!-- Node4&#45;&gt;Node8 -->
<g id="edge7_Node000004_Node000008" class="edge">
<title>Node4&#45;&gt;Node8</title>
<g id="a_edge7_Node000004_Node000008"><a xlink:title=" ">
<path fill="none" stroke="#63b8ff" d="M230.95,-93.62C258.32,-87.44 299.72,-78.09 336.12,-69.87"/>
<polygon fill="#63b8ff" stroke="#63b8ff" points="337.25,-73.2 346.24,-67.58 335.71,-66.37 337.25,-73.2"/>
</a>
</g>
</g>
<!-- Node9 -->
<g id="Node000009" class="node">
<title>Node9</title>
<g id="a_Node000009"><a xlink:href="CCSDSUtils_8cpp.html#aa9bf20021d73232b0769aa261e5b6e5f" target="_top" xlink:title="Prints to console the HEX data from the bytes vector.">
<polygon fill="white" stroke="#666666" points="460,-19 368,-19 368,0 460,0 460,-19"/>
<text text-anchor="middle" x="414" y="-7" font-family="Helvetica,sans-Serif" font-size="10.00">printBufferData</text>
</a>
</g>
</g>
<!-- Node4&#45;&gt;Node9 -->
<g id="edge8_Node000004_Node000009" class="edge">
<title>Node4&#45;&gt;Node9</title>
<g id="a_edge8_Node000004_Node000009"><a xlink:title=" ">
<path fill="none" stroke="#63b8ff" d="M212.14,-90.87C231.69,-75.23 272.92,-44.44 313,-28.5 327.01,-22.93 342.79,-18.96 357.6,-16.15"/>
<polygon fill="#63b8ff" stroke="#63b8ff" points="358.42,-19.55 367.66,-14.38 357.21,-12.66 358.42,-19.55"/>
</a>
</g>
</g>
</g>
</svg>
