<?xml version="1.0" encoding="UTF-8" standalone="no"?>
<!DOCTYPE svg PUBLIC "-//W3C//DTD SVG 1.1//EN"
 "http://www.w3.org/Graphics/SVG/1.1/DTD/svg11.dtd">
<!-- Generated by graphviz version 2.43.0 (0)
 -->
<!-- Title: inc/CCSDSSecondaryHeaderFactory.h Pages: 1 -->
<svg width="1093pt" height="478pt"
 viewBox="0.00 0.00 1093.00 478.00" xmlns="http://www.w3.org/2000/svg" xmlns:xlink="http://www.w3.org/1999/xlink">
<g id="graph0" class="graph" transform="scale(1 1) rotate(0) translate(4 474)">
<title>inc/CCSDSSecondaryHeaderFactory.h</title>
<!-- Node1 -->
<g id="Node000001" class="node">
<title>Node1</title>
<g id="a_Node000001"><a xlink:title=" ">
<polygon fill="#999999" stroke="#666666" points="838,-470 685,-470 685,-440 838,-440 838,-470"/>
<text text-anchor="start" x="693" y="-458" font-family="Helvetica,sans-Serif" font-size="10.00">inc/CCSDSSecondaryHeader</text>
<text text-anchor="middle" x="761.5" y="-447" font-family="Helvetica,sans-Serif" font-size="10.00">Factory.h</text>
</a>
</g>
</g>
<!-- Node2 -->
<g id="Node000002" class="node">
<title>Node2</title>
<g id="a_Node000002"><a xlink:href="CCSDSDataField_8h.html" target="_top" xlink:title=" ">
<polygon fill="white" stroke="#666666" points="724.5,-349 602.5,-349 602.5,-330 724.5,-330 724.5,-349"/>
<text text-anchor="middle" x="663.5" y="-337" font-family="Helvetica,sans-Serif" font-size="10.00">inc/CCSDSDataField.h</text>
</a>
</g>
</g>
<!-- Node1&#45;&gt;Node2 -->
<g id="edge1_Node000001_Node000002" class="edge">
<title>Node1&#45;&gt;Node2</title>
<g id="a_edge1_Node000001_Node000002"><a xlink:title=" ">
<path fill="none" stroke="#63b8ff" d="M751.41,-430.87C744.53,-416.7 734.51,-398.71 722.5,-385 709.65,-370.33 691.26,-357.39 678.44,-349.3"/>
<polygon fill="#63b8ff" stroke="#63b8ff" points="748.25,-432.39 755.65,-439.98 754.6,-429.43 748.25,-432.39"/>
</a>
</g>
</g>
<!-- Node3 -->
<g id="Node000003" class="node">
<title>Node3</title>
<g id="a_Node000003"><a xlink:href="CCSDSPack_8h.html" target="_top" xlink:title=" ">
<polygon fill="white" stroke="#666666" points="930.5,-74 832.5,-74 832.5,-55 930.5,-55 930.5,-74"/>
<text text-anchor="middle" x="881.5" y="-62" font-family="Helvetica,sans-Serif" font-size="10.00">inc/CCSDSPack.h</text>
</a>
</g>
</g>
<!-- Node1&#45;&gt;Node3 -->
<g id="edge28_Node000001_Node000003" class="edge">
<title>Node1&#45;&gt;Node3</title>
<g id="a_edge28_Node000001_Node000003"><a xlink:title=" ">
<path fill="none" stroke="#63b8ff" d="M820.39,-436.25C863.14,-419.3 913.5,-389.03 913.5,-340.5 913.5,-340.5 913.5,-340.5 913.5,-173.5 913.5,-135.17 894.74,-92.23 885.95,-74.2"/>
<polygon fill="#63b8ff" stroke="#63b8ff" points="818.96,-433.05 810.85,-439.87 821.44,-439.59 818.96,-433.05"/>
</a>
</g>
</g>
<!-- Node17 -->
<g id="Node000017" class="node">
<title>Node17</title>
<g id="a_Node000017"><a xlink:href="CCSDSDataField_8cpp.html" target="_top" xlink:title=" ">
<polygon fill="white" stroke="#666666" points="847.5,-294 713.5,-294 713.5,-275 847.5,-275 847.5,-294"/>
<text text-anchor="middle" x="780.5" y="-282" font-family="Helvetica,sans-Serif" font-size="10.00">src/CCSDSDataField.cpp</text>
</a>
</g>
</g>
<!-- Node1&#45;&gt;Node17 -->
<g id="edge33_Node000001_Node000017" class="edge">
<title>Node1&#45;&gt;Node17</title>
<g id="a_edge33_Node000001_Node000017"><a xlink:title=" ">
<path fill="none" stroke="#63b8ff" d="M764.24,-429.69C768.55,-391.5 776.7,-319.23 779.51,-294.25"/>
<polygon fill="#63b8ff" stroke="#63b8ff" points="760.73,-429.59 763.09,-439.92 767.69,-430.38 760.73,-429.59"/>
</a>
</g>
</g>
<!-- Node18 -->
<g id="Node000018" class="node">
<title>Node18</title>
<g id="a_Node000018"><a xlink:href="PusServices_8h.html" target="_top" xlink:title=" ">
<polygon fill="white" stroke="#666666" points="714,-404 613,-404 613,-385 714,-385 714,-404"/>
<text text-anchor="middle" x="663.5" y="-392" font-family="Helvetica,sans-Serif" font-size="10.00">inc/PusServices.h</text>
</a>
</g>
</g>
<!-- Node1&#45;&gt;Node18 -->
<g id="edge29_Node000001_Node000018" class="edge">
<title>Node1&#45;&gt;Node18</title>
<g id="a_edge29_Node000001_Node000018"><a xlink:title=" ">
<path fill="none" stroke="#63b8ff" d="M729.06,-434.64C711.74,-424.3 691.3,-412.09 677.9,-404.09"/>
<polygon fill="#63b8ff" stroke="#63b8ff" points="727.4,-437.72 737.78,-439.84 730.98,-431.71 727.4,-437.72"/>
</a>
</g>
</g>
<!-- Node2&#45;&gt;Node3 -->
<g id="edge2_Node000002_Node000003" class="edge">
<title>Node2&#45;&gt;Node3</title>
<g id="a_edge2_Node000002_Node000003"><a xlink:title=" ">
<path fill="none" stroke="#63b8ff" d="M672.17,-320.45C679.4,-306.77 690.73,-288.14 704.5,-275 727.56,-253.01 743.31,-260.85 766.5,-239 822.52,-186.21 864.93,-101.16 877.6,-74.07"/>
<polygon fill="#63b8ff" stroke="#63b8ff" points="668.84,-319.28 667.46,-329.78 675.09,-322.43 668.84,-319.28"/>
</a>
</g>
</g>
<!-- Node7 -->
<g id="Node000007" class="node">
<title>Node7</title>
<g id="a_Node000007"><a xlink:href="CCSDSPacket_8h.html" target="_top" xlink:title=" ">
<polygon fill="white" stroke="#666666" points="647,-294 540,-294 540,-275 647,-275 647,-294"/>
<text text-anchor="middle" x="593.5" y="-282" font-family="Helvetica,sans-Serif" font-size="10.00">inc/CCSDSPacket.h</text>
</a>
</g>
</g>
<!-- Node2&#45;&gt;Node7 -->
<g id="edge6_Node000002_Node000007" class="edge">
<title>Node2&#45;&gt;Node7</title>
<g id="a_edge6_Node000002_Node000007"><a xlink:title=" ">
<path fill="none" stroke="#63b8ff" d="M644.19,-323.88C631.59,-314.34 615.57,-302.21 604.95,-294.17"/>
<polygon fill="#63b8ff" stroke="#63b8ff" points="642.17,-326.74 652.25,-329.98 646.39,-321.16 642.17,-326.74"/>
</a>
</g>
</g>
<!-- Node12 -->
<g id="Node000012" class="node">
<title>Node12</title>
<g id="a_Node000012"><a xlink:href="CCSDSPacket_8cpp.html" target="_top" xlink:title=" ">
<polygon fill="white" stroke="#666666" points="250,-74 131,-74 131,-55 250,-55 250,-74"/>
<text text-anchor="middle" x="190.5" y="-62" font-family="Helvetica,sans-Serif" font-size="10.00">src/CCSDSPacket.cpp</text>
</a>
</g>
</g>
<!-- Node2&#45;&gt;Node12 -->
<g id="edge26_Node000002_Node000012" class="edge">
<title>Node2&#45;&gt;Node12</title>
<g id="a_edge26_Node000002_Node000012"><a xlink:title=" ">
<path fill="none" stroke="#63b8ff" d="M592.24,-334.8C472.4,-326.61 243.5,-301.64 243.5,-230.5 243.5,-230.5 243.5,-230.5 243.5,-173.5 243.5,-132.77 212.75,-91.43 198.09,-74.04"/>
<polygon fill="#63b8ff" stroke="#63b8ff" points="592.22,-338.3 602.43,-335.47 592.68,-331.32 592.22,-338.3"/>
</a>
</g>
</g>
<!-- Node15 -->
<g id="Node000015" class="node">
<title>Node15</title>
<g id="a_Node000015"><a xlink:href="PusServices_8cpp.html" target="_top" xlink:title=" ">
<polygon fill="white" stroke="#666666" points="113,-74 0,-74 0,-55 113,-55 113,-74"/>
<text text-anchor="middle" x="56.5" y="-62" font-family="Helvetica,sans-Serif" font-size="10.00">src/PusServices.cpp</text>
</a>
</g>
</g>
<!-- Node2&#45;&gt;Node15 -->
<g id="edge27_Node000002_Node000015" class="edge">
<title>Node2&#45;&gt;Node15</title>
<g id="a_edge27_Node000002_Node000015"><a xlink:title=" ">
<path fill="none" stroke="#63b8ff" d="M592.11,-338.18C451.12,-335.61 150.5,-319.68 150.5,-230.5 150.5,-230.5 150.5,-230.5 150.5,-173.5 150.5,-126.52 99.26,-90.04 72.45,-74.17"/>
<polygon fill="#63b8ff" stroke="#63b8ff" points="592.33,-341.68 602.38,-338.35 592.44,-334.69 592.33,-341.68"/>
</a>
</g>
</g>
<!-- Node2&#45;&gt;Node17 -->
<g id="edge25_Node000002_Node000017" class="edge">
<title>Node2&#45;&gt;Node17</title>
<g id="a_edge25_Node000002_Node000017"><a xlink:title=" ">
<path fill="none" stroke="#63b8ff" d="M691.61,-325.77C713.19,-315.99 742.41,-302.75 761.36,-294.17"/>
<polygon fill="#63b8ff" stroke="#63b8ff" points="689.96,-322.67 682.3,-329.98 692.85,-329.05 689.96,-322.67"/>
</a>
</g>
</g>
<!-- Node4 -->
<g id="Node000004" class="node">
<title>Node4</title>
<g id="a_Node000004"><a xlink:href="exec__decoder_8cpp.html" target="_top" xlink:title=" ">
<polygon fill="white" stroke="#666666" points="803.5,-19 683.5,-19 683.5,0 803.5,0 803.5,-19"/>
<text text-anchor="middle" x="743.5" y="-7" font-family="Helvetica,sans-Serif" font-size="10.00">src/exec_decoder.cpp</text>
</a>
</g>
</g>
<!-- Node3&#45;&gt;Node4 -->
<g id="edge3_Node000003_Node000004" class="edge">
<title>Node3&#45;&gt;Node4</title>
<g id="a_edge3_Node000003_Node000004"><a xlink:title=" ">
<path fill="none" stroke="#63b8ff" d="M849.71,-51.29C824.13,-41.47 788.83,-27.91 766.08,-19.17"/>
<polygon fill="#63b8ff" stroke="#63b8ff" points="848.74,-54.67 859.33,-54.98 851.25,-48.13 848.74,-54.67"/>
</a>
</g>
</g>
<!-- Node5 -->
<g id="Node000005" class="node">
<title>Node5</title>
<g id="a_Node000005"><a xlink:href="exec__encoder_8cpp.html" target="_top" xlink:title=" ">
<polygon fill="white" stroke="#666666" points="941.5,-19 821.5,-19 821.5,0 941.5,0 941.5,-19"/>
<text text-anchor="middle" x="881.5" y="-7" font-family="Helvetica,sans-Serif" font-size="10.00">src/exec_encoder.cpp</text>
</a>
</g>
</g>
<!-- Node3&#45;&gt;Node5 -->
<g id="edge4_Node000003_Node000005" class="edge">
<title>Node3&#45;&gt;Node5</title>
<g id="a_edge4_Node000003_Node000005"><a xlink:title=" ">
<path fill="none" stroke="#63b8ff" d="M881.5,-44.66C881.5,-35.93 881.5,-25.99 881.5,-19.09"/>
<polygon fill="#63b8ff" stroke="#63b8ff" points="878,-44.75 881.5,-54.75 885,-44.75 878,-44.75"/>
</a>
</g>
</g>
<!-- Node6 -->
<g id="Node000006" class="node">
<title>Node6</title>
<g id="a_Node000006"><a xlink:href="exec__validator_8cpp.html" target="_top" xlink:title=" ">
<polygon fill="white" stroke="#666666" points="1085,-19 960,-19 960,0 1085,0 1085,-19"/>
<text text-anchor="middle" x="1022.5" y="-7" font-family="Helvetica,sans-Serif" font-size="10.00">src/exec_validator.cpp</text>
</a>
</g>
</g>
<!-- Node3&#45;&gt;Node6 -->
<g id="edge5_Node000003_Node000006" class="edge">
<title>Node3&#45;&gt;Node6</title>
<g id="a_edge5_Node000003_Node000006"><a xlink:title=" ">
<path fill="none" stroke="#63b8ff" d="M913.64,-51.42C939.79,-41.59 976.09,-27.95 999.43,-19.17"/>
<polygon fill="#63b8ff" stroke="#63b8ff" points="912.28,-48.19 904.15,-54.98 914.75,-54.74 912.28,-48.19"/>
</a>
</g>
</g>
<!-- Node7&#45;&gt;Node3 -->
<g id="edge18_Node000007_Node000003" class="edge">
<title>Node7&#45;&gt;Node3</title>
<g id="a_edge18_Node000007_Node000003"><a xlink:title=" ">
<path fill="none" stroke="#63b8ff" d="M648.94,-272.74C686.06,-264.52 730.57,-252.36 744.5,-239 788.23,-197.08 748.26,-155.28 788.5,-110 804.31,-92.21 828.8,-80.89 848.68,-74.12"/>
<polygon fill="#63b8ff" stroke="#63b8ff" points="647.74,-269.42 638.7,-274.95 649.22,-276.26 647.74,-269.42"/>
</a>
</g>
</g>
<!-- Node8 -->
<g id="Node000008" class="node">
<title>Node8</title>
<g id="a_Node000008"><a xlink:href="CCSDSManager_8h.html" target="_top" xlink:title=" ">
<polygon fill="white" stroke="#666666" points="660.5,-184 542.5,-184 542.5,-165 660.5,-165 660.5,-184"/>
<text text-anchor="middle" x="601.5" y="-172" font-family="Helvetica,sans-Serif" font-size="10.00">inc/CCSDSManager.h</text>
</a>
</g>
</g>
<!-- Node7&#45;&gt;Node8 -->
<g id="edge7_Node000007_Node000008" class="edge">
<title>Node7&#45;&gt;Node8</title>
<g id="a_edge7_Node000007_Node000008"><a xlink:title=" ">
<path fill="none" stroke="#63b8ff" d="M594.91,-264.48C596.66,-240.84 599.57,-201.5 600.86,-184.16"/>
<polygon fill="#63b8ff" stroke="#63b8ff" points="591.4,-264.43 594.15,-274.66 598.38,-264.95 591.4,-264.43"/>
</a>
</g>
</g>
<!-- Node9 -->
<g id="Node000009" class="node">
<title>Node9</title>
<g id="a_Node000009"><a xlink:href="CCSDSUtils_8h.html" target="_top" xlink:title=" ">
<polygon fill="white" stroke="#666666" points="563.5,-129 465.5,-129 465.5,-110 563.5,-110 563.5,-129"/>
<text text-anchor="middle" x="514.5" y="-117" font-family="Helvetica,sans-Serif" font-size="10.00">inc/CCSDSUtils.h</text>
</a>
</g>
</g>
<!-- Node7&#45;&gt;Node9 -->
<g id="edge19_Node000007_Node000009" class="edge">
<title>Node7&#45;&gt;Node9</title>
<g id="a_edge19_Node000007_Node000009"><a xlink:title=" ">
<path fill="none" stroke="#63b8ff" d="M581.46,-266.56C568.22,-247.31 547.04,-214.59 533.5,-184 525.21,-165.27 519.26,-141.89 516.41,-129.38"/>
<polygon fill="#63b8ff" stroke="#63b8ff" points="578.66,-268.66 587.25,-274.86 584.4,-264.65 578.66,-268.66"/>
</a>
</g>
</g>
<!-- Node7&#45;&gt;Node12 -->
<g id="edge24_Node000007_Node000012" class="edge">
<title>Node7&#45;&gt;Node12</title>
<g id="a_edge24_Node000007_Node000012"><a xlink:title=" ">
<path fill="none" stroke="#63b8ff" d="M568.46,-269.95C492.92,-229.09 268.76,-107.83 206.63,-74.22"/>
<polygon fill="#63b8ff" stroke="#63b8ff" points="567.24,-273.27 577.7,-274.95 570.57,-267.12 567.24,-273.27"/>
</a>
</g>
</g>
<!-- Node16 -->
<g id="Node000016" class="node">
<title>Node16</title>
<g id="a_Node000016"><a xlink:href="CCSDSValidator_8h.html" target="_top" xlink:title="Defines the Validator class for CCSDS packet validation.">
<polygon fill="white" stroke="#666666" points="736,-239 617,-239 617,-220 736,-220 736,-239"/>
<text text-anchor="middle" x="676.5" y="-227" font-family="Helvetica,sans-Serif" font-size="10.00">inc/CCSDSValidator.h</text>
</a>
</g>
</g>
<!-- Node7&#45;&gt;Node16 -->
<g id="edge20_Node000007_Node000016" class="edge">
<title>Node7&#45;&gt;Node16</title>
<g id="a_edge20_Node000007_Node000016"><a xlink:title=" ">
<path fill="none" stroke="#63b8ff" d="M615.54,-269.42C630.61,-259.81 650.09,-247.37 662.92,-239.17"/>
<polygon fill="#63b8ff" stroke="#63b8ff" points="613.38,-266.65 606.84,-274.98 617.15,-272.55 613.38,-266.65"/>
</a>
</g>
</g>
<!-- Node8&#45;&gt;Node3 -->
<g id="edge8_Node000008_Node000003" class="edge">
<title>Node8&#45;&gt;Node3</title>
<g id="a_edge8_Node000008_Node000003"><a xlink:title=" ">
<path fill="none" stroke="#63b8ff" d="M622.35,-159.35C644.05,-145.17 679.42,-123.54 712.5,-110 753.07,-93.39 801.69,-81.35 836.34,-74.02"/>
<polygon fill="#63b8ff" stroke="#63b8ff" points="620.33,-156.49 613.93,-164.93 624.2,-162.32 620.33,-156.49"/>
</a>
</g>
</g>
<!-- Node8&#45;&gt;Node9 -->
<g id="edge9_Node000008_Node000009" class="edge">
<title>Node8&#45;&gt;Node9</title>
<g id="a_edge9_Node000008_Node000009"><a xlink:title=" ">
<path fill="none" stroke="#63b8ff" d="M578.84,-159.7C562.99,-150.04 542.31,-137.44 528.73,-129.17"/>
<polygon fill="#63b8ff" stroke="#63b8ff" points="577.16,-162.77 587.52,-164.98 580.8,-156.79 577.16,-162.77"/>
</a>
</g>
</g>
<!-- Node11 -->
<g id="Node000011" class="node">
<title>Node11</title>
<g id="a_Node000011"><a xlink:href="CCSDSManager_8cpp.html" target="_top" xlink:title=" ">
<polygon fill="white" stroke="#666666" points="666,-74 537,-74 537,-55 666,-55 666,-74"/>
<text text-anchor="middle" x="601.5" y="-62" font-family="Helvetica,sans-Serif" font-size="10.00">src/CCSDSManager.cpp</text>
</a>
</g>
</g>
<!-- Node8&#45;&gt;Node11 -->
<g id="edge17_Node000008_Node000011" class="edge">
<title>Node8&#45;&gt;Node11</title>
<g id="a_edge17_Node000008_Node000011"><a xlink:title=" ">
<path fill="none" stroke="#63b8ff" d="M601.5,-154.48C601.5,-130.84 601.5,-91.5 601.5,-74.16"/>
<polygon fill="#63b8ff" stroke="#63b8ff" points="598,-154.66 601.5,-164.66 605,-154.66 598,-154.66"/>
</a>
</g>
</g>
<!-- Node9&#45;&gt;Node3 -->
<g id="edge10_Node000009_Node000003" class="edge">
<title>Node9&#45;&gt;Node3</title>
<g id="a_edge10_Node000009_Node000003"><a xlink:title=" ">
<path fill="none" stroke="#63b8ff" d="M573.76,-110.01C635.97,-101.09 736.62,-86.62 823.5,-74 826.42,-73.58 829.42,-73.14 832.45,-72.7"/>
<polygon fill="#63b8ff" stroke="#63b8ff" points="573.14,-106.56 563.74,-111.45 574.14,-113.49 573.14,-106.56"/>
</a>
</g>
</g>
<!-- Node10 -->
<g id="Node000010" class="node">
<title>Node10</title>
<g id="a_Node000010"><a xlink:href="CCSDSHeader_8cpp.html" target="_top" xlink:title=" ">
<polygon fill="white" stroke="#666666" points="390.5,-74 268.5,-74 268.5,-55 390.5,-55 390.5,-74"/>
<text text-anchor="middle" x="329.5" y="-62" font-family="Helvetica,sans-Serif" font-size="10.00">src/CCSDSHeader.cpp</text>
</a>
</g>
</g>
<!-- Node9&#45;&gt;Node10 -->
<g id="edge11_Node000009_Node000010" class="edge">
<title>Node9&#45;&gt;Node10</title>
<g id="a_edge11_Node000009_Node000010"><a xlink:title=" ">
<path fill="none" stroke="#63b8ff" d="M475,-107.18C440.4,-97.27 390.87,-83.08 359.46,-74.08"/>
<polygon fill="#63b8ff" stroke="#63b8ff" points="474.2,-110.6 484.78,-109.98 476.13,-103.87 474.2,-110.6"/>
</a>
</g>
</g>
<!-- Node9&#45;&gt;Node11 -->
<g id="edge12_Node000009_Node000011" class="edge">
<title>Node9&#45;&gt;Node11</title>
<g id="a_edge12_Node000009_Node000011"><a xlink:title=" ">
<path fill="none" stroke="#63b8ff" d="M537.16,-104.7C553.01,-95.04 573.69,-82.44 587.27,-74.17"/>
<polygon fill="#63b8ff" stroke="#63b8ff" points="535.2,-101.79 528.48,-109.98 538.84,-107.77 535.2,-101.79"/>
</a>
</g>
</g>
<!-- Node9&#45;&gt;Node12 -->
<g id="edge13_Node000009_Node000012" class="edge">
<title>Node9&#45;&gt;Node12</title>
<g id="a_edge13_Node000009_Node000012"><a xlink:title=" ">
<path fill="none" stroke="#63b8ff" d="M455.08,-108.78C394.24,-98.83 300.62,-83.51 242.59,-74.02"/>
<polygon fill="#63b8ff" stroke="#63b8ff" points="454.86,-112.29 465.29,-110.45 455.99,-105.38 454.86,-112.29"/>
</a>
</g>
</g>
<!-- Node13 -->
<g id="Node000013" class="node">
<title>Node13</title>
<g id="a_Node000013"><a xlink:href="CCSDSUtils_8cpp.html" target="_top" xlink:title=" ">
<polygon fill="white" stroke="#666666" points="518.5,-74 408.5,-74 408.5,-55 518.5,-55 518.5,-74"/>
<text text-anchor="middle" x="463.5" y="-62" font-family="Helvetica,sans-Serif" font-size="10.00">src/CCSDSUtils.cpp</text>
</a>
</g>
</g>
<!-- Node9&#45;&gt;Node13 -->
<g id="edge14_Node000009_Node000013" class="edge">
<title>Node9&#45;&gt;Node13</title>
<g id="a_edge14_Node000009_Node000013"><a xlink:title=" ">
<path fill="none" stroke="#63b8ff" d="M499.12,-102.52C490.13,-93.18 479.14,-81.75 471.76,-74.09"/>
<polygon fill="#63b8ff" stroke="#63b8ff" points="496.62,-104.97 506.08,-109.75 501.67,-100.12 496.62,-104.97"/>
</a>
</g>
</g>
<!-- Node14 -->
<g id="Node000014" class="node">
<title>Node14</title>
<g id="a_Node000014"><a xlink:href="CCSDSValidator_8cpp.html" target="_top" xlink:title=" ">
<polygon fill="white" stroke="#666666" points="814.5,-74 684.5,-74 684.5,-55 814.5,-55 814.5,-74"/>
<text text-anchor="middle" x="749.5" y="-62" font-family="Helvetica,sans-Serif" font-size="10.00">src/CCSDSValidator.cpp</text>
</a>
</g>
</g>
<!-- Node9&#45;&gt;Node14 -->
<g id="edge15_Node000009_Node000014" class="edge">
<title>Node9&#45;&gt;Node14</title>
<g id="a_edge15_Node000009_Node000014"><a xlink:title=" ">
<path fill="none" stroke="#63b8ff" d="M562.15,-107.75C606.19,-97.82 670.77,-83.26 711.45,-74.08"/>
<polygon fill="#63b8ff" stroke="#63b8ff" points="561.24,-104.37 552.26,-109.98 562.78,-111.2 561.24,-104.37"/>
</a>
</g>
</g>
<!-- Node9&#45;&gt;Node15 -->
<g id="edge16_Node000009_Node000015" class="edge">
<title>Node9&#45;&gt;Node15</title>
<g id="a_edge16_Node000009_Node000015"><a xlink:title=" ">
<path fill="none" stroke="#63b8ff" d="M455.47,-112.14C378.56,-103.77 239.89,-88.44 121.5,-74 118.79,-73.67 116.01,-73.33 113.21,-72.97"/>
<polygon fill="#63b8ff" stroke="#63b8ff" points="455.13,-115.62 465.45,-113.22 455.89,-108.66 455.13,-115.62"/>
</a>
</g>
</g>
<!-- Node16&#45;&gt;Node3 -->
<g id="edge22_Node000016_Node000003" class="edge">
<title>Node16&#45;&gt;Node3</title>
<g id="a_edge22_Node000016_Node000003"><a xlink:title=" ">
<path fill="none" stroke="#63b8ff" d="M686.9,-211.18C706.17,-179.16 745.91,-113.63 750.5,-110 774.03,-91.35 805.82,-80.31 832.18,-73.89"/>
<polygon fill="#63b8ff" stroke="#63b8ff" points="683.79,-209.56 681.63,-219.93 689.79,-213.17 683.79,-209.56"/>
</a>
</g>
</g>
<!-- Node16&#45;&gt;Node8 -->
<g id="edge21_Node000016_Node000008" class="edge">
<title>Node16&#45;&gt;Node8</title>
<g id="a_edge21_Node000016_Node000008"><a xlink:title=" ">
<path fill="none" stroke="#63b8ff" d="M656.19,-214.15C642.64,-204.57 625.26,-192.29 613.77,-184.17"/>
<polygon fill="#63b8ff" stroke="#63b8ff" points="654.26,-217.07 664.45,-219.98 658.3,-211.36 654.26,-217.07"/>
</a>
</g>
</g>
<!-- Node16&#45;&gt;Node14 -->
<g id="edge23_Node000016_Node000014" class="edge">
<title>Node16&#45;&gt;Node14</title>
<g id="a_edge23_Node000016_Node000014"><a xlink:title=" ">
<path fill="none" stroke="#63b8ff" d="M679.79,-209.75C684.56,-185.61 694.8,-142.84 712.5,-110 719.94,-96.2 732.05,-82.7 740.38,-74.25"/>
<polygon fill="#63b8ff" stroke="#63b8ff" points="676.33,-209.24 677.93,-219.71 683.21,-210.52 676.33,-209.24"/>
</a>
</g>
</g>
<!-- Node18&#45;&gt;Node2 -->
<g id="edge30_Node000018_Node000002" class="edge">
<title>Node18&#45;&gt;Node2</title>
<g id="a_edge30_Node000018_Node000002"><a xlink:title=" ">
<path fill="none" stroke="#63b8ff" d="M663.5,-374.66C663.5,-365.93 663.5,-355.99 663.5,-349.09"/>
<polygon fill="#63b8ff" stroke="#63b8ff" points="660,-374.75 663.5,-384.75 667,-374.75 660,-374.75"/>
</a>
</g>
</g>
<!-- Node18&#45;&gt;Node3 -->
<g id="edge31_Node000018_Node000003" class="edge">
<title>Node18&#45;&gt;Node3</title>
<g id="a_edge31_Node000018_Node000003"><a xlink:title=" ">
<path fill="none" stroke="#63b8ff" d="M724.21,-388.19C786.86,-378.98 875.5,-353.88 875.5,-285.5 875.5,-285.5 875.5,-285.5 875.5,-173.5 875.5,-136.51 879.05,-92.49 880.69,-74.17"/>
<polygon fill="#63b8ff" stroke="#63b8ff" points="723.44,-384.76 714.01,-389.58 724.39,-391.7 723.44,-384.76"/>
</a>
</g>
</g>
<!-- Node18&#45;&gt;Node15 -->
<g id="edge32_Node000018_Node000015" class="edge">
<title>Node18&#45;&gt;Node15</title>
<g id="a_edge32_Node000018_Node000015"><a xlink:title=" ">
<path fill="none" stroke="#63b8ff" d="M602.56,-388.49C453.86,-375.44 84.5,-337.77 84.5,-285.5 84.5,-285.5 84.5,-285.5 84.5,-173.5 84.5,-135.54 68.09,-92.4 60.39,-74.26"/>
<polygon fill="#63b8ff" stroke="#63b8ff" points="602.61,-392 612.88,-389.38 603.22,-385.03 602.61,-392"/>
</a>
</g>
</g>
</g>
</svg>
