<?xml version="1.0" encoding="UTF-8" standalone="no"?>
<!DOCTYPE svg PUBLIC "-//W3C//DTD SVG 1.1//EN"
 "http://www.w3.org/Graphics/SVG/1.1/DTD/svg11.dtd">
<!-- Generated by graphviz version 2.43.0 (0)
 -->
<!-- Title: getBinaryString Pages: 1 -->
<svg width="655pt" height="46pt"
 viewBox="0.00 0.00 655.00 46.00" xmlns="http://www.w3.org/2000/svg" xmlns:xlink="http://www.w3.org/1999/xlink">
<g id="graph0" class="graph" transform="scale(1 1) rotate(0) translate(4 42)">
<title>getBinaryString</title>
<!-- Node1 -->
<g id="Node000001" class="node">
<title>Node1</title>
<g id="a_Node000001"><a xlink:title="Converts a given value to its binary representation as a string, with spaces every 4 bits.">
<polygon fill="#999999" stroke="#666666" points="647,-19 555,-19 555,0 647,0 647,-19"/>
<text text-anchor="middle" x="601" y="-7" font-family="Helvetica,sans-Serif" font-size="10.00">getBinaryString</text>
</a>
</g>
</g>
<!-- Node2 -->
<g id="Node000002" class="node">
<title>Node2</title>
<g id="a_Node000002"><a xlink:href="CCSDSUtils_8cpp.html#a993788a78365e86ff065ba8bedff543a" target="_top" xlink:title="Prints the header fields and their binary or hexadecimal representations.">
<polygon fill="white" stroke="#666666" points="519,-19 445,-19 445,0 519,0 519,-19"/>
<text text-anchor="middle" x="482" y="-7" font-family="Helvetica,sans-Serif" font-size="10.00">printHeader</text>
</a>
</g>
</g>
<!-- Node1&#45;&gt;Node2 -->
<g id="edge1_Node000001_Node000002" class="edge">
<title>Node1&#45;&gt;Node2</title>
<g id="a_edge1_Node000001_Node000002"><a xlink:title=" ">
<path fill="none" stroke="#63b8ff" d="M544.65,-9.5C535.95,-9.5 527.16,-9.5 519.05,-9.5"/>
<polygon fill="#63b8ff" stroke="#63b8ff" points="544.76,-13 554.76,-9.5 544.76,-6 544.76,-13"/>
</a>
</g>
</g>
<!-- Node3 -->
<g id="Node000003" class="node">
<title>Node3</title>
<g id="a_Node000003"><a xlink:href="CCSDSUtils_8cpp.html#a3c45ef84a35555519e34164e000dada5" target="_top" xlink:title="Prints to console the primary header of a provided CCSDS packet.">
<polygon fill="white" stroke="#666666" points="409,-19 296,-19 296,0 409,0 409,-19"/>
<text text-anchor="middle" x="352.5" y="-7" font-family="Helvetica,sans-Serif" font-size="10.00">printPrimaryHeader</text>
</a>
</g>
</g>
<!-- Node2&#45;&gt;Node3 -->
<g id="edge2_Node000002_Node000003" class="edge">
<title>Node2&#45;&gt;Node3</title>
<g id="a_edge2_Node000002_Node000003"><a xlink:title=" ">
<path fill="none" stroke="#63b8ff" d="M434.65,-9.5C426.43,-9.5 417.78,-9.5 409.32,-9.5"/>
<polygon fill="#63b8ff" stroke="#63b8ff" points="434.8,-13 444.8,-9.5 434.8,-6 434.8,-13"/>
</a>
</g>
</g>
<!-- Node4 -->
<g id="Node000004" class="node">
<title>Node4</title>
<g id="a_Node000004"><a xlink:href="CCSDSUtils_8cpp.html#a2e40e3867139b28c1b2fa0465c3afd7e" target="_top" xlink:title="Prints to console a CCSDS Packets, breaking it down to Primary header and Data field.">
<polygon fill="white" stroke="#666666" points="260,-38 189,-38 189,-19 260,-19 260,-38"/>
<text text-anchor="middle" x="224.5" y="-26" font-family="Helvetica,sans-Serif" font-size="10.00">printPacket</text>
</a>
</g>
</g>
<!-- Node3&#45;&gt;Node4 -->
<g id="edge3_Node000003_Node000004" class="edge">
<title>Node3&#45;&gt;Node4</title>
<g id="a_edge3_Node000003_Node000004"><a xlink:title=" ">
<path fill="none" stroke="#63b8ff" d="M285.87,-19.4C277.01,-20.73 268.22,-22.06 260.2,-23.27"/>
<polygon fill="#63b8ff" stroke="#63b8ff" points="286.5,-22.84 295.87,-17.89 285.46,-15.92 286.5,-22.84"/>
</a>
</g>
</g>
<!-- Node5 -->
<g id="Node000005" class="node">
<title>Node5</title>
<g id="a_Node000005"><a xlink:href="CCSDSUtils_8cpp.html#ad200055b4cb44dddba0ced16faee7d69" target="_top" xlink:title="Prints to console a series of CCSDS Packets contained in the manager.">
<polygon fill="white" stroke="#666666" points="153,-19 77,-19 77,0 153,0 153,-19"/>
<text text-anchor="middle" x="115" y="-7" font-family="Helvetica,sans-Serif" font-size="10.00">printPackets</text>
</a>
</g>
</g>
<!-- Node3&#45;&gt;Node5 -->
<g id="edge6_Node000003_Node000005" class="edge">
<title>Node3&#45;&gt;Node5</title>
<g id="a_edge6_Node000003_Node000005"><a xlink:title=" ">
<path fill="none" stroke="#63b8ff" d="M285.92,-9.5C243.09,-9.5 188.71,-9.5 153.16,-9.5"/>
<polygon fill="#63b8ff" stroke="#63b8ff" points="285.99,-13 295.99,-9.5 285.99,-6 285.99,-13"/>
</a>
</g>
</g>
<!-- Node4&#45;&gt;Node5 -->
<g id="edge4_Node000004_Node000005" class="edge">
<title>Node4&#45;&gt;Node5</title>
<g id="a_edge4_Node000004_Node000005"><a xlink:title=" ">
<path fill="none" stroke="#63b8ff" d="M179,-20.64C170.4,-19.12 161.47,-17.54 153.14,-16.06"/>
<polygon fill="#63b8ff" stroke="#63b8ff" points="178.44,-24.09 188.89,-22.38 179.66,-17.2 178.44,-24.09"/>
</a>
</g>
</g>
<!-- Node6 -->
<g id="Node000006" class="node">
<title>Node6</title>
<g id="a_Node000006"><a xlink:href="exec__decoder_8cpp.html#a638b85ceffac097c2aa79b76ba8c055e" target="_top" xlink:title=" ">
<polygon fill="white" stroke="#666666" points="41,-19 0,-19 0,0 41,0 41,-19"/>
<text text-anchor="middle" x="20.5" y="-7" font-family="Helvetica,sans-Serif" font-size="10.00">main</text>
</a>
</g>
</g>
<!-- Node5&#45;&gt;Node6 -->
<g id="edge5_Node000005_Node000006" class="edge">
<title>Node5&#45;&gt;Node6</title>
<g id="a_edge5_Node000005_Node000006"><a xlink:title=" ">
<path fill="none" stroke="#63b8ff" d="M66.72,-9.5C57.65,-9.5 48.64,-9.5 41.07,-9.5"/>
<polygon fill="#63b8ff" stroke="#63b8ff" points="66.91,-13 76.91,-9.5 66.91,-6 66.91,-13"/>
</a>
</g>
</g>
</g>
</svg>
