<?xml version="1.0" encoding="UTF-8" standalone="no"?>
<!DOCTYPE svg PUBLIC "-//W3C//DTD SVG 1.1//EN"
 "http://www.w3.org/Graphics/SVG/1.1/DTD/svg11.dtd">
<!-- Generated by graphviz version 2.43.0 (0)
 -->
<!-- Title: src/CCSDSUtils.cpp Pages: 1 -->
<!--zoomable 632 -->

<svg id="main" version="1.1" xmlns="http://www.w3.org/2000/svg" xmlns:xlink="http://www.w3.org/1999/xlink" xml:space="preserve" onload="init(evt)">
<style type="text/css"><![CDATA[
.node, .edge {opacity: 0.7;}
.node.selected, .edge.selected {opacity: 1;}
.edge:hover path { stroke: red; }
.edge:hover polygon { stroke: red; fill: red; }
]]></style>

<defs>
  <circle id="rim" cx="0" cy="0" r="7"/>
  <circle id="rim2" cx="0" cy="0" r="3.5"/>
  <g id="zoomPlus">
    <use xlink:href="#rim" fill="#404040"><set attributeName="fill" to="#808080" begin="zoomplus.mouseover" end="zoomplus.mouseout"/></use>
    <path d="M-4,0h8M0,-4v8" fill="none" stroke="white" stroke-width="1.5" pointer-events="none"/>
  </g>
  <g id="zoomMin">
    <use xlink:href="#rim" fill="#404040"><set attributeName="fill" to="#808080" begin="zoomminus.mouseover" end="zoomminus.mouseout"/></use>
    <path d="M-4,0h8" fill="none" stroke="white" stroke-width="1.5" pointer-events="none"/>
  </g>
  <g id="arrowUp" transform="translate(30 24)">
    <use xlink:href="#rim"/>
    <path pointer-events="none" fill="none" stroke="white" stroke-width="1.5" d="M0,-3.0v7 M-2.5,-0.5L0,-3.0L2.5,-0.5"/>
  </g>
  <g id="arrowRight" transform="rotate(90) translate(36 -43)">
    <use xlink:href="#rim"/>
    <path pointer-events="none" fill="none" stroke="white" stroke-width="1.5" d="M0,-3.0v7 M-2.5,-0.5L0,-3.0L2.5,-0.5"/>
  </g>
  <g id="arrowDown" transform="rotate(180) translate(-30 -48)">
    <use xlink:href="#rim"/>
    <path pointer-events="none" fill="none" stroke="white" stroke-width="1.5" d="M0,-3.0v7 M-2.5,-0.5L0,-3.0L2.5,-0.5"/>
  </g>
  <g id="arrowLeft" transform="rotate(270) translate(-36 17)">
    <use xlink:href="#rim"/>
    <path pointer-events="none" fill="none" stroke="white" stroke-width="1.5" d="M0,-3.0v7 M-2.5,-0.5L0,-3.0L2.5,-0.5"/>
  </g>
  <g id="resetDef">
    <use xlink:href="#rim2" fill="#404040"><set attributeName="fill" to="#808080" begin="reset.mouseover" end="reset.mouseout"/></use>
  </g>
</defs>
<script type="application/ecmascript">
var viewWidth = 1056;
var viewHeight = 632;
var sectionId = 'dynsection-0';
</script>
<script type="application/ecmascript" xlink:href="svg.min.js"/>
<svg id="graph" class="graph">
<g id="viewport">
<title>src/CCSDSUtils.cpp</title>
<!-- Node1 -->
<g id="Node000001" class="node">
<title>Node1</title>
<g id="a_Node000001"><a xlink:title=" ">
<polygon fill="#999999" stroke="#666666" points="928,-624 818,-624 818,-605 928,-605 928,-624"/>
<text text-anchor="middle" x="873" y="-612" font-family="Helvetica,sans-Serif" font-size="10.00">src/CCSDSUtils.cpp</text>
</a>
</g>
</g>
<!-- Node2 -->
<g id="Node000002" class="node">
<title>Node2</title>
<g id="a_Node000002"><a xlink:href="CCSDSUtils_8h.html" target="_top" xlink:title=" ">
<polygon fill="white" stroke="#666666" points="501.5,-569 420.5,-569 420.5,-550 501.5,-550 501.5,-569"/>
<text text-anchor="middle" x="461" y="-557" font-family="Helvetica,sans-Serif" font-size="10.00">CCSDSUtils.h</text>
</a>
</g>
</g>
<!-- Node1&#45;&gt;Node2 -->
<g id="edge1_Node000001_Node000002" class="edge">
<title>Node1&#45;&gt;Node2</title>
<g id="a_edge1_Node000001_Node000002"><a xlink:title=" ">
<path fill="none" stroke="#63b8ff" d="M817.86,-606.41C737.49,-596.07 589.3,-577 511.58,-567.01"/>
<polygon fill="#63b8ff" stroke="#63b8ff" points="511.92,-563.52 501.55,-565.72 511.02,-570.46 511.92,-563.52"/>
</a>
</g>
</g>
<!-- Node8 -->
<g id="Node000008" class="node">
<title>Node8</title>
<g id="a_Node000008"><a xlink:title=" ">
<polygon fill="#e0e0e0" stroke="#999999" points="790,-19 730,-19 730,0 790,0 790,-19"/>
<text text-anchor="middle" x="760" y="-7" font-family="Helvetica,sans-Serif" font-size="10.00">iostream</text>
</a>
</g>
</g>
<!-- Node1&#45;&gt;Node8 -->
<g id="edge49_Node000001_Node000008" class="edge">
<title>Node1&#45;&gt;Node8</title>
<g id="a_edge49_Node000001_Node000008"><a xlink:title=" ">
<path fill="none" stroke="#63b8ff" d="M864.73,-604.97C856.88,-596.47 845.25,-582.73 838,-569 824.18,-542.83 818,-535.09 818,-505.5 818,-505.5 818,-505.5 818,-118.5 818,-82.37 792.5,-46.67 775.31,-26.71"/>
<polygon fill="#63b8ff" stroke="#63b8ff" points="777.84,-24.28 768.56,-19.17 772.62,-28.95 777.84,-24.28"/>
</a>
</g>
</g>
<!-- Node22 -->
<g id="Node000022" class="node">
<title>Node22</title>
<g id="a_Node000022"><a xlink:title=" ">
<polygon fill="#e0e0e0" stroke="#999999" points="899.5,-569 846.5,-569 846.5,-550 899.5,-550 899.5,-569"/>
<text text-anchor="middle" x="873" y="-557" font-family="Helvetica,sans-Serif" font-size="10.00">cstddef</text>
</a>
</g>
</g>
<!-- Node1&#45;&gt;Node22 -->
<g id="edge46_Node000001_Node000022" class="edge">
<title>Node1&#45;&gt;Node22</title>
<g id="a_edge46_Node000001_Node000022"><a xlink:title=" ">
<path fill="none" stroke="#63b8ff" d="M873,-604.75C873,-597.8 873,-587.85 873,-579.13"/>
<polygon fill="#63b8ff" stroke="#63b8ff" points="876.5,-579.09 873,-569.09 869.5,-579.09 876.5,-579.09"/>
</a>
</g>
</g>
<!-- Node23 -->
<g id="Node000023" class="node">
<title>Node23</title>
<g id="a_Node000023"><a xlink:title=" ">
<polygon fill="#e0e0e0" stroke="#999999" points="974,-569 918,-569 918,-550 974,-550 974,-569"/>
<text text-anchor="middle" x="946" y="-557" font-family="Helvetica,sans-Serif" font-size="10.00">iomanip</text>
</a>
</g>
</g>
<!-- Node1&#45;&gt;Node23 -->
<g id="edge47_Node000001_Node000023" class="edge">
<title>Node1&#45;&gt;Node23</title>
<g id="a_edge47_Node000001_Node000023"><a xlink:title=" ">
<path fill="none" stroke="#63b8ff" d="M884.73,-604.98C895.73,-597 912.42,-584.88 925.6,-575.31"/>
<polygon fill="#63b8ff" stroke="#63b8ff" points="928.02,-577.88 934.06,-569.17 923.91,-572.21 928.02,-577.88"/>
</a>
</g>
</g>
<!-- Node24 -->
<g id="Node000024" class="node">
<title>Node24</title>
<g id="a_Node000024"><a xlink:title=" ">
<polygon fill="#e0e0e0" stroke="#999999" points="1047.5,-569 992.5,-569 992.5,-550 1047.5,-550 1047.5,-569"/>
<text text-anchor="middle" x="1020" y="-557" font-family="Helvetica,sans-Serif" font-size="10.00">fstream</text>
</a>
</g>
</g>
<!-- Node1&#45;&gt;Node24 -->
<g id="edge48_Node000001_Node000024" class="edge">
<title>Node1&#45;&gt;Node24</title>
<g id="a_edge48_Node000001_Node000024"><a xlink:title=" ">
<path fill="none" stroke="#63b8ff" d="M896.62,-604.98C920.9,-596.23 958.95,-582.51 986.37,-572.62"/>
<polygon fill="#63b8ff" stroke="#63b8ff" points="987.73,-575.85 995.95,-569.17 985.36,-569.27 987.73,-575.85"/>
</a>
</g>
</g>
<!-- Node3 -->
<g id="Node000003" class="node">
<title>Node3</title>
<g id="a_Node000003"><a xlink:href="CCSDSPacket_8h.html" target="_top" xlink:title=" ">
<polygon fill="white" stroke="#666666" points="544,-404 454,-404 454,-385 544,-385 544,-404"/>
<text text-anchor="middle" x="499" y="-392" font-family="Helvetica,sans-Serif" font-size="10.00">CCSDSPacket.h</text>
</a>
</g>
</g>
<!-- Node2&#45;&gt;Node3 -->
<g id="edge2_Node000002_Node000003" class="edge">
<title>Node2&#45;&gt;Node3</title>
<g id="a_edge2_Node000002_Node000003"><a xlink:title=" ">
<path fill="none" stroke="#63b8ff" d="M463.04,-549.74C469,-524.2 486.43,-449.43 494.63,-414.23"/>
<polygon fill="#63b8ff" stroke="#63b8ff" points="498.08,-414.84 496.95,-404.31 491.27,-413.25 498.08,-414.84"/>
</a>
</g>
</g>
<!-- Node6 -->
<g id="Node000006" class="node">
<title>Node6</title>
<g id="a_Node000006"><a xlink:title=" ">
<polygon fill="#e0e0e0" stroke="#999999" points="324.5,-19 277.5,-19 277.5,0 324.5,0 324.5,-19"/>
<text text-anchor="middle" x="301" y="-7" font-family="Helvetica,sans-Serif" font-size="10.00">vector</text>
</a>
</g>
</g>
<!-- Node2&#45;&gt;Node6 -->
<g id="edge45_Node000002_Node000006" class="edge">
<title>Node2&#45;&gt;Node6</title>
<g id="a_edge45_Node000002_Node000006"><a xlink:title=" ">
<path fill="none" stroke="#63b8ff" d="M420.49,-557.61C308,-554.07 0,-536.5 0,-450.5 0,-450.5 0,-450.5 0,-118.5 0,-82.85 18.5,-73.46 49,-55 85.22,-33.09 207.15,-19.14 267.12,-13.44"/>
<polygon fill="#63b8ff" stroke="#63b8ff" points="267.58,-16.91 277.22,-12.5 266.94,-9.94 267.58,-16.91"/>
</a>
</g>
</g>
<!-- Node14 -->
<g id="Node000014" class="node">
<title>Node14</title>
<g id="a_Node000014"><a xlink:title=" ">
<polygon fill="#e0e0e0" stroke="#999999" points="161,-74 117,-74 117,-55 161,-55 161,-74"/>
<text text-anchor="middle" x="139" y="-62" font-family="Helvetica,sans-Serif" font-size="10.00">string</text>
</a>
</g>
</g>
<!-- Node2&#45;&gt;Node14 -->
<g id="edge44_Node000002_Node000014" class="edge">
<title>Node2&#45;&gt;Node14</title>
<g id="a_edge44_Node000002_Node000014"><a xlink:title=" ">
<path fill="none" stroke="#63b8ff" d="M420.16,-555.74C321.08,-547.91 76,-521.4 76,-450.5 76,-450.5 76,-450.5 76,-228.5 76,-172.08 109.25,-111.61 127.44,-82.75"/>
<polygon fill="#63b8ff" stroke="#63b8ff" points="130.46,-84.52 132.96,-74.23 124.58,-80.72 130.46,-84.52"/>
</a>
</g>
</g>
<!-- Node19 -->
<g id="Node000019" class="node">
<title>Node19</title>
<g id="a_Node000019"><a xlink:href="CCSDSManager_8h.html" target="_top" xlink:title=" ">
<polygon fill="white" stroke="#666666" points="600.5,-514 499.5,-514 499.5,-495 600.5,-495 600.5,-514"/>
<text text-anchor="middle" x="550" y="-502" font-family="Helvetica,sans-Serif" font-size="10.00">CCSDSManager.h</text>
</a>
</g>
</g>
<!-- Node2&#45;&gt;Node19 -->
<g id="edge38_Node000002_Node000019" class="edge">
<title>Node2&#45;&gt;Node19</title>
<g id="a_edge38_Node000002_Node000019"><a xlink:title=" ">
<path fill="none" stroke="#63b8ff" d="M475.3,-549.98C489.1,-541.77 510.24,-529.18 526.51,-519.49"/>
<polygon fill="#63b8ff" stroke="#63b8ff" points="528.64,-522.29 535.44,-514.17 525.06,-516.28 528.64,-522.29"/>
</a>
</g>
</g>
<!-- Node4 -->
<g id="Node000004" class="node">
<title>Node4</title>
<g id="a_Node000004"><a xlink:href="CCSDSResult_8h.html" target="_top" xlink:title=" ">
<polygon fill="white" stroke="#666666" points="653.5,-74 564.5,-74 564.5,-55 653.5,-55 653.5,-74"/>
<text text-anchor="middle" x="609" y="-62" font-family="Helvetica,sans-Serif" font-size="10.00">CCSDSResult.h</text>
</a>
</g>
</g>
<!-- Node3&#45;&gt;Node4 -->
<g id="edge3_Node000003_Node000004" class="edge">
<title>Node3&#45;&gt;Node4</title>
<g id="a_edge3_Node000003_Node000004"><a xlink:title=" ">
<path fill="none" stroke="#63b8ff" d="M544.14,-392.92C614.41,-389.37 742,-371.14 742,-285.5 742,-285.5 742,-285.5 742,-173.5 742,-123.87 685.5,-93.05 646.15,-77.61"/>
<polygon fill="#63b8ff" stroke="#63b8ff" points="647.15,-74.25 636.56,-74.02 644.69,-80.8 647.15,-74.25"/>
</a>
</g>
</g>
<!-- Node3&#45;&gt;Node6 -->
<g id="edge8_Node000003_Node000006" class="edge">
<title>Node3&#45;&gt;Node6</title>
<g id="a_edge8_Node000003_Node000006"><a xlink:title=" ">
<path fill="none" stroke="#63b8ff" d="M453.96,-392.47C337.96,-388.59 38,-370.37 38,-285.5 38,-285.5 38,-285.5 38,-118.5 38,-20.61 195.84,-9.57 266.96,-9.57"/>
<polygon fill="#63b8ff" stroke="#63b8ff" points="267.17,-13.07 277.2,-9.65 267.22,-6.07 267.17,-13.07"/>
</a>
</g>
</g>
<!-- Node9 -->
<g id="Node000009" class="node">
<title>Node9</title>
<g id="a_Node000009"><a xlink:href="CCSDSHeader_8h.html" target="_top" xlink:title=" ">
<polygon fill="white" stroke="#666666" points="561.5,-129 468.5,-129 468.5,-110 561.5,-110 561.5,-129"/>
<text text-anchor="middle" x="515" y="-117" font-family="Helvetica,sans-Serif" font-size="10.00">CCSDSHeader.h</text>
</a>
</g>
</g>
<!-- Node3&#45;&gt;Node9 -->
<g id="edge9_Node000003_Node000009" class="edge">
<title>Node3&#45;&gt;Node9</title>
<g id="a_edge9_Node000003_Node000009"><a xlink:title=" ">
<path fill="none" stroke="#63b8ff" d="M544.24,-389.51C604.61,-381.42 704,-357.21 704,-285.5 704,-285.5 704,-285.5 704,-228.5 704,-166.95 627.51,-140 571.85,-128.54"/>
<polygon fill="#63b8ff" stroke="#63b8ff" points="572.2,-125.05 561.72,-126.58 570.87,-131.92 572.2,-125.05"/>
</a>
</g>
</g>
<!-- Node10 -->
<g id="Node000010" class="node">
<title>Node10</title>
<g id="a_Node000010"><a xlink:href="CCSDSDataField_8h.html" target="_top" xlink:title=" ">
<polygon fill="white" stroke="#666666" points="484.5,-349 379.5,-349 379.5,-330 484.5,-330 484.5,-349"/>
<text text-anchor="middle" x="432" y="-337" font-family="Helvetica,sans-Serif" font-size="10.00">CCSDSDataField.h</text>
</a>
</g>
</g>
<!-- Node3&#45;&gt;Node10 -->
<g id="edge13_Node000003_Node000010" class="edge">
<title>Node3&#45;&gt;Node10</title>
<g id="a_edge13_Node000003_Node000010"><a xlink:title=" ">
<path fill="none" stroke="#63b8ff" d="M488.24,-384.98C478.23,-377.07 463.11,-365.11 451.07,-355.58"/>
<polygon fill="#63b8ff" stroke="#63b8ff" points="452.97,-352.63 442.96,-349.17 448.63,-358.12 452.97,-352.63"/>
</a>
</g>
</g>
<!-- Node5 -->
<g id="Node000005" class="node">
<title>Node5</title>
<g id="a_Node000005"><a xlink:title=" ">
<polygon fill="#e0e0e0" stroke="#999999" points="634.5,-19 583.5,-19 583.5,0 634.5,0 634.5,-19"/>
<text text-anchor="middle" x="609" y="-7" font-family="Helvetica,sans-Serif" font-size="10.00">variant</text>
</a>
</g>
</g>
<!-- Node4&#45;&gt;Node5 -->
<g id="edge4_Node000004_Node000005" class="edge">
<title>Node4&#45;&gt;Node5</title>
<g id="a_edge4_Node000004_Node000005"><a xlink:title=" ">
<path fill="none" stroke="#63b8ff" d="M609,-54.75C609,-47.8 609,-37.85 609,-29.13"/>
<polygon fill="#63b8ff" stroke="#63b8ff" points="612.5,-29.09 609,-19.09 605.5,-29.09 612.5,-29.09"/>
</a>
</g>
</g>
<!-- Node4&#45;&gt;Node6 -->
<g id="edge5_Node000004_Node000006" class="edge">
<title>Node4&#45;&gt;Node6</title>
<g id="a_edge5_Node000004_Node000006"><a xlink:title=" ">
<path fill="none" stroke="#63b8ff" d="M564.21,-55.79C501.99,-45.09 390.75,-25.94 334.92,-16.34"/>
<polygon fill="#63b8ff" stroke="#63b8ff" points="335.3,-12.85 324.85,-14.6 334.11,-19.75 335.3,-12.85"/>
</a>
</g>
</g>
<!-- Node7 -->
<g id="Node000007" class="node">
<title>Node7</title>
<g id="a_Node000007"><a xlink:title=" ">
<polygon fill="#e0e0e0" stroke="#999999" points="503,-19 453,-19 453,0 503,0 503,-19"/>
<text text-anchor="middle" x="478" y="-7" font-family="Helvetica,sans-Serif" font-size="10.00">cstdint</text>
</a>
</g>
</g>
<!-- Node4&#45;&gt;Node7 -->
<g id="edge6_Node000004_Node000007" class="edge">
<title>Node4&#45;&gt;Node7</title>
<g id="a_edge6_Node000004_Node000007"><a xlink:title=" ">
<path fill="none" stroke="#63b8ff" d="M587.95,-54.98C566.59,-46.34 533.3,-32.87 508.94,-23.02"/>
<polygon fill="#63b8ff" stroke="#63b8ff" points="510.01,-19.68 499.43,-19.17 507.39,-26.17 510.01,-19.68"/>
</a>
</g>
</g>
<!-- Node4&#45;&gt;Node8 -->
<g id="edge7_Node000004_Node000008" class="edge">
<title>Node4&#45;&gt;Node8</title>
<g id="a_edge7_Node000004_Node000008"><a xlink:title=" ">
<path fill="none" stroke="#63b8ff" d="M633.26,-54.98C658.32,-46.19 697.63,-32.39 725.83,-22.49"/>
<polygon fill="#63b8ff" stroke="#63b8ff" points="727.02,-25.78 735.3,-19.17 724.7,-19.18 727.02,-25.78"/>
</a>
</g>
</g>
<!-- Node9&#45;&gt;Node4 -->
<g id="edge10_Node000009_Node000004" class="edge">
<title>Node9&#45;&gt;Node4</title>
<g id="a_edge10_Node000009_Node000004"><a xlink:title=" ">
<path fill="none" stroke="#63b8ff" d="M530.1,-109.98C544.82,-101.69 567.42,-88.94 584.67,-79.22"/>
<polygon fill="#63b8ff" stroke="#63b8ff" points="586.63,-82.13 593.62,-74.17 583.19,-76.03 586.63,-82.13"/>
</a>
</g>
</g>
<!-- Node9&#45;&gt;Node6 -->
<g id="edge12_Node000009_Node000006" class="edge">
<title>Node9&#45;&gt;Node6</title>
<g id="a_edge12_Node000009_Node000006"><a xlink:title=" ">
<path fill="none" stroke="#63b8ff" d="M498.19,-109.8C474.38,-97.49 429.46,-74.35 391,-55 369.85,-44.36 345.8,-32.48 327.89,-23.67"/>
<polygon fill="#63b8ff" stroke="#63b8ff" points="329.15,-20.39 318.63,-19.12 326.06,-26.67 329.15,-20.39"/>
</a>
</g>
</g>
<!-- Node9&#45;&gt;Node7 -->
<g id="edge11_Node000009_Node000007" class="edge">
<title>Node9&#45;&gt;Node7</title>
<g id="a_edge11_Node000009_Node000007"><a xlink:title=" ">
<path fill="none" stroke="#63b8ff" d="M511.97,-109.66C505.93,-92.01 492.25,-52.09 484.21,-28.64"/>
<polygon fill="#63b8ff" stroke="#63b8ff" points="487.52,-27.48 480.97,-19.16 480.9,-29.75 487.52,-27.48"/>
</a>
</g>
</g>
<!-- Node10&#45;&gt;Node4 -->
<g id="edge14_Node000010_Node000004" class="edge">
<title>Node10&#45;&gt;Node4</title>
<g id="a_edge14_Node000010_Node000004"><a xlink:title=" ">
<path fill="none" stroke="#63b8ff" d="M484.51,-336.67C553.51,-331.13 666,-309.92 666,-230.5 666,-230.5 666,-230.5 666,-173.5 666,-137.51 640.94,-101.76 624.05,-81.76"/>
<polygon fill="#63b8ff" stroke="#63b8ff" points="626.64,-79.4 617.41,-74.2 621.38,-84.02 626.64,-79.4"/>
</a>
</g>
</g>
<!-- Node10&#45;&gt;Node6 -->
<g id="edge15_Node000010_Node000006" class="edge">
<title>Node10&#45;&gt;Node6</title>
<g id="a_edge15_Node000010_Node000006"><a xlink:title=" ">
<path fill="none" stroke="#63b8ff" d="M379.21,-336.48C312.01,-330.9 197.3,-310.7 136,-239 82.25,-176.12 56.5,-119.73 108,-55 127.54,-30.44 217.32,-18.28 267.25,-13.32"/>
<polygon fill="#63b8ff" stroke="#63b8ff" points="267.64,-16.8 277.26,-12.37 266.98,-9.84 267.64,-16.8"/>
</a>
</g>
</g>
<!-- Node11 -->
<g id="Node000011" class="node">
<title>Node11</title>
<g id="a_Node000011"><a xlink:title=" ">
<polygon fill="#e0e0e0" stroke="#999999" points="360,-184 302,-184 302,-165 360,-165 360,-184"/>
<text text-anchor="middle" x="331" y="-172" font-family="Helvetica,sans-Serif" font-size="10.00">memory</text>
</a>
</g>
</g>
<!-- Node10&#45;&gt;Node11 -->
<g id="edge16_Node000010_Node000011" class="edge">
<title>Node10&#45;&gt;Node11</title>
<g id="a_edge16_Node000010_Node000011"><a xlink:title=" ">
<path fill="none" stroke="#63b8ff" d="M419.21,-329.92C407.91,-321.79 391.61,-308.66 381,-294 358.07,-262.31 343.11,-218.5 335.95,-194"/>
<polygon fill="#63b8ff" stroke="#63b8ff" points="339.27,-192.9 333.21,-184.22 332.53,-194.79 339.27,-192.9"/>
</a>
</g>
</g>
<!-- Node12 -->
<g id="Node000012" class="node">
<title>Node12</title>
<g id="a_Node000012"><a xlink:href="CCSDSSecondaryHeaderAbstract_8h.html" target="_top" xlink:title=" ">
<polygon fill="white" stroke="#666666" points="600.5,-184 415.5,-184 415.5,-165 600.5,-165 600.5,-184"/>
<text text-anchor="middle" x="508" y="-172" font-family="Helvetica,sans-Serif" font-size="10.00">CCSDSSecondaryHeaderAbstract.h</text>
</a>
</g>
</g>
<!-- Node10&#45;&gt;Node12 -->
<g id="edge17_Node000010_Node000012" class="edge">
<title>Node10&#45;&gt;Node12</title>
<g id="a_edge17_Node000010_Node000012"><a xlink:title=" ">
<path fill="none" stroke="#63b8ff" d="M446.4,-329.75C458.1,-321.87 474.08,-309.2 483,-294 501.56,-262.38 506.43,-218.85 507.66,-194.31"/>
<polygon fill="#63b8ff" stroke="#63b8ff" points="511.16,-194.32 508,-184.2 504.16,-194.08 511.16,-194.32"/>
</a>
</g>
</g>
<!-- Node16 -->
<g id="Node000016" class="node">
<title>Node16</title>
<g id="a_Node000016"><a xlink:href="CCSDSSecondaryHeaderFactory_8h.html" target="_top" xlink:title=" ">
<polygon fill="white" stroke="#666666" points="324.5,-239 145.5,-239 145.5,-220 324.5,-220 324.5,-239"/>
<text text-anchor="middle" x="235" y="-227" font-family="Helvetica,sans-Serif" font-size="10.00">CCSDSSecondaryHeaderFactory.h</text>
</a>
</g>
</g>
<!-- Node10&#45;&gt;Node16 -->
<g id="edge27_Node000010_Node000016" class="edge">
<title>Node10&#45;&gt;Node16</title>
<g id="a_edge27_Node000010_Node000016"><a xlink:title=" ">
<path fill="none" stroke="#63b8ff" d="M412.48,-329.86C393.46,-321.28 363.86,-307.49 339,-294 309.85,-278.18 277.39,-257.92 256.61,-244.59"/>
<polygon fill="#63b8ff" stroke="#63b8ff" points="258.51,-241.64 248.21,-239.16 254.71,-247.53 258.51,-241.64"/>
</a>
</g>
</g>
<!-- Node18 -->
<g id="Node000018" class="node">
<title>Node18</title>
<g id="a_Node000018"><a xlink:href="PusServices_8h.html" target="_top" xlink:title=" ">
<polygon fill="white" stroke="#666666" points="474,-294 390,-294 390,-275 474,-275 474,-294"/>
<text text-anchor="middle" x="432" y="-282" font-family="Helvetica,sans-Serif" font-size="10.00">PusServices.h</text>
</a>
</g>
</g>
<!-- Node10&#45;&gt;Node18 -->
<g id="edge33_Node000010_Node000018" class="edge">
<title>Node10&#45;&gt;Node18</title>
<g id="a_edge33_Node000010_Node000018"><a xlink:title=" ">
<path fill="none" stroke="#63b8ff" d="M432,-329.75C432,-322.8 432,-312.85 432,-304.13"/>
<polygon fill="#63b8ff" stroke="#63b8ff" points="435.5,-304.09 432,-294.09 428.5,-304.09 435.5,-304.09"/>
</a>
</g>
</g>
<!-- Node12&#45;&gt;Node4 -->
<g id="edge18_Node000012_Node000004" class="edge">
<title>Node12&#45;&gt;Node4</title>
<g id="a_edge18_Node000012_Node000004"><a xlink:title=" ">
<path fill="none" stroke="#63b8ff" d="M523.62,-164.98C537.29,-156.99 557.07,-144.03 571,-129 583.67,-115.34 594.18,-96.77 600.91,-83.25"/>
<polygon fill="#63b8ff" stroke="#63b8ff" points="604.15,-84.58 605.29,-74.05 597.83,-81.57 604.15,-84.58"/>
</a>
</g>
</g>
<!-- Node12&#45;&gt;Node6 -->
<g id="edge19_Node000012_Node000006" class="edge">
<title>Node12&#45;&gt;Node6</title>
<g id="a_edge19_Node000012_Node000006"><a xlink:title=" ">
<path fill="none" stroke="#63b8ff" d="M497.06,-164.99C485.57,-156.05 467,-141.56 451,-129 403.69,-91.85 348.18,-47.9 319.8,-25.41"/>
<polygon fill="#63b8ff" stroke="#63b8ff" points="321.91,-22.61 311.9,-19.15 317.56,-28.1 321.91,-22.61"/>
</a>
</g>
</g>
<!-- Node12&#45;&gt;Node7 -->
<g id="edge20_Node000012_Node000007" class="edge">
<title>Node12&#45;&gt;Node7</title>
<g id="a_edge20_Node000012_Node000007"><a xlink:title=" ">
<path fill="none" stroke="#63b8ff" d="M493.63,-164.96C482.13,-157.21 466.82,-144.62 460,-129 445.42,-95.61 459.21,-52.46 469.37,-28.52"/>
<polygon fill="#63b8ff" stroke="#63b8ff" points="472.63,-29.81 473.55,-19.25 466.25,-26.93 472.63,-29.81"/>
</a>
</g>
</g>
<!-- Node13 -->
<g id="Node000013" class="node">
<title>Node13</title>
<g id="a_Node000013"><a xlink:href="CCSDSConfig_8h.html" target="_top" xlink:title=" ">
<polygon fill="white" stroke="#666666" points="348.5,-129 259.5,-129 259.5,-110 348.5,-110 348.5,-129"/>
<text text-anchor="middle" x="304" y="-117" font-family="Helvetica,sans-Serif" font-size="10.00">CCSDSConfig.h</text>
</a>
</g>
</g>
<!-- Node12&#45;&gt;Node13 -->
<g id="edge21_Node000012_Node000013" class="edge">
<title>Node12&#45;&gt;Node13</title>
<g id="a_edge21_Node000012_Node000013"><a xlink:title=" ">
<path fill="none" stroke="#63b8ff" d="M475.22,-164.98C440.38,-155.93 385.13,-141.58 346.86,-131.64"/>
<polygon fill="#63b8ff" stroke="#63b8ff" points="347.59,-128.21 337.03,-129.08 345.83,-134.98 347.59,-128.21"/>
</a>
</g>
</g>
<!-- Node13&#45;&gt;Node4 -->
<g id="edge25_Node000013_Node000004" class="edge">
<title>Node13&#45;&gt;Node4</title>
<g id="a_edge25_Node000013_Node000004"><a xlink:title=" ">
<path fill="none" stroke="#63b8ff" d="M348.68,-110.74C403.15,-101.27 495.21,-85.27 553.99,-75.06"/>
<polygon fill="#63b8ff" stroke="#63b8ff" points="554.95,-78.44 564.2,-73.28 553.75,-71.55 554.95,-78.44"/>
</a>
</g>
</g>
<!-- Node13&#45;&gt;Node6 -->
<g id="edge24_Node000013_Node000006" class="edge">
<title>Node13&#45;&gt;Node6</title>
<g id="a_edge24_Node000013_Node000006"><a xlink:title=" ">
<path fill="none" stroke="#63b8ff" d="M303.75,-109.66C303.27,-92.17 302.18,-52.8 301.52,-29.27"/>
<polygon fill="#63b8ff" stroke="#63b8ff" points="305.02,-29.06 301.24,-19.16 298.02,-29.25 305.02,-29.06"/>
</a>
</g>
</g>
<!-- Node13&#45;&gt;Node7 -->
<g id="edge23_Node000013_Node000007" class="edge">
<title>Node13&#45;&gt;Node7</title>
<g id="a_edge23_Node000013_Node000007"><a xlink:title=" ">
<path fill="none" stroke="#63b8ff" d="M317.95,-109.84C347.85,-91.28 418.41,-47.49 455.04,-24.75"/>
<polygon fill="#63b8ff" stroke="#63b8ff" points="457.34,-27.44 463.99,-19.2 453.65,-21.5 457.34,-27.44"/>
</a>
</g>
</g>
<!-- Node13&#45;&gt;Node14 -->
<g id="edge22_Node000013_Node000014" class="edge">
<title>Node13&#45;&gt;Node14</title>
<g id="a_edge22_Node000013_Node000014"><a xlink:title=" ">
<path fill="none" stroke="#63b8ff" d="M277.49,-109.98C248.52,-100.68 202.1,-85.77 171.09,-75.81"/>
<polygon fill="#63b8ff" stroke="#63b8ff" points="171.8,-72.36 161.21,-72.63 169.66,-79.03 171.8,-72.36"/>
</a>
</g>
</g>
<!-- Node15 -->
<g id="Node000015" class="node">
<title>Node15</title>
<g id="a_Node000015"><a xlink:title=" ">
<polygon fill="#e0e0e0" stroke="#999999" points="272.5,-74 179.5,-74 179.5,-55 272.5,-55 272.5,-74"/>
<text text-anchor="middle" x="226" y="-62" font-family="Helvetica,sans-Serif" font-size="10.00">unordered_map</text>
</a>
</g>
</g>
<!-- Node13&#45;&gt;Node15 -->
<g id="edge26_Node000013_Node000015" class="edge">
<title>Node13&#45;&gt;Node15</title>
<g id="a_edge26_Node000013_Node000015"><a xlink:title=" ">
<path fill="none" stroke="#63b8ff" d="M291.47,-109.98C279.6,-101.92 261.54,-89.65 247.39,-80.03"/>
<polygon fill="#63b8ff" stroke="#63b8ff" points="249,-76.9 238.76,-74.17 245.06,-82.69 249,-76.9"/>
</a>
</g>
</g>
<!-- Node16&#45;&gt;Node11 -->
<g id="edge28_Node000016_Node000011" class="edge">
<title>Node16&#45;&gt;Node11</title>
<g id="a_edge28_Node000016_Node000011"><a xlink:title=" ">
<path fill="none" stroke="#63b8ff" d="M250.42,-219.98C265.45,-211.69 288.54,-198.94 306.16,-189.22"/>
<polygon fill="#63b8ff" stroke="#63b8ff" points="308.23,-192.07 315.3,-184.17 304.85,-185.94 308.23,-192.07"/>
</a>
</g>
</g>
<!-- Node16&#45;&gt;Node12 -->
<g id="edge32_Node000016_Node000012" class="edge">
<title>Node16&#45;&gt;Node12</title>
<g id="a_edge32_Node000016_Node000012"><a xlink:title=" ">
<path fill="none" stroke="#63b8ff" d="M278.86,-219.98C326.48,-210.74 402.58,-195.97 453.88,-186.01"/>
<polygon fill="#63b8ff" stroke="#63b8ff" points="454.64,-189.42 463.79,-184.08 453.31,-182.55 454.64,-189.42"/>
</a>
</g>
</g>
<!-- Node16&#45;&gt;Node14 -->
<g id="edge31_Node000016_Node000014" class="edge">
<title>Node16&#45;&gt;Node14</title>
<g id="a_edge31_Node000016_Node000014"><a xlink:title=" ">
<path fill="none" stroke="#63b8ff" d="M228.03,-219.91C221.05,-211.14 210.22,-197.01 202,-184 180.21,-149.51 158.76,-106.77 147.37,-83.19"/>
<polygon fill="#63b8ff" stroke="#63b8ff" points="150.48,-81.59 143.01,-74.08 144.17,-84.61 150.48,-81.59"/>
</a>
</g>
</g>
<!-- Node16&#45;&gt;Node15 -->
<g id="edge29_Node000016_Node000015" class="edge">
<title>Node16&#45;&gt;Node15</title>
<g id="a_edge29_Node000016_Node000015"><a xlink:title=" ">
<path fill="none" stroke="#63b8ff" d="M228.11,-219.93C221.73,-211.4 212.69,-197.65 209,-184 199.58,-149.21 210.73,-107.17 218.9,-83.67"/>
<polygon fill="#63b8ff" stroke="#63b8ff" points="222.19,-84.86 222.36,-74.27 215.62,-82.45 222.19,-84.86"/>
</a>
</g>
</g>
<!-- Node17 -->
<g id="Node000017" class="node">
<title>Node17</title>
<g id="a_Node000017"><a xlink:title=" ">
<polygon fill="#e0e0e0" stroke="#999999" points="283.5,-184 218.5,-184 218.5,-165 283.5,-165 283.5,-184"/>
<text text-anchor="middle" x="251" y="-172" font-family="Helvetica,sans-Serif" font-size="10.00">functional</text>
</a>
</g>
</g>
<!-- Node16&#45;&gt;Node17 -->
<g id="edge30_Node000016_Node000017" class="edge">
<title>Node16&#45;&gt;Node17</title>
<g id="a_edge30_Node000016_Node000017"><a xlink:title=" ">
<path fill="none" stroke="#63b8ff" d="M237.64,-219.75C239.76,-212.72 242.81,-202.62 245.46,-193.84"/>
<polygon fill="#63b8ff" stroke="#63b8ff" points="248.87,-194.67 248.41,-184.09 242.17,-192.65 248.87,-194.67"/>
</a>
</g>
</g>
<!-- Node18&#45;&gt;Node4 -->
<g id="edge36_Node000018_Node000004" class="edge">
<title>Node18&#45;&gt;Node4</title>
<g id="a_edge36_Node000018_Node000004"><a xlink:title=" ">
<path fill="none" stroke="#63b8ff" d="M467.89,-274.98C510.21,-262.79 578.65,-235.88 609,-184 627.2,-152.89 620.49,-108.87 614.44,-84.18"/>
<polygon fill="#63b8ff" stroke="#63b8ff" points="617.77,-83.06 611.8,-74.31 611,-84.87 617.77,-83.06"/>
</a>
</g>
</g>
<!-- Node18&#45;&gt;Node12 -->
<g id="edge34_Node000018_Node000012" class="edge">
<title>Node18&#45;&gt;Node12</title>
<g id="a_edge34_Node000018_Node000012"><a xlink:title=" ">
<path fill="none" stroke="#63b8ff" d="M438.22,-274.66C450.86,-256.69 479.75,-215.64 496.12,-192.38"/>
<polygon fill="#63b8ff" stroke="#63b8ff" points="499.01,-194.35 501.91,-184.16 493.29,-190.32 499.01,-194.35"/>
</a>
</g>
</g>
<!-- Node18&#45;&gt;Node13 -->
<g id="edge37_Node000018_Node000013" class="edge">
<title>Node18&#45;&gt;Node13</title>
<g id="a_edge37_Node000018_Node000013"><a xlink:title=" ">
<path fill="none" stroke="#63b8ff" d="M429.07,-274.9C421.67,-254.11 400.53,-200.26 369,-165 357.92,-152.61 342.72,-141.96 329.8,-134.18"/>
<polygon fill="#63b8ff" stroke="#63b8ff" points="331.3,-131.01 320.89,-129.05 327.8,-137.07 331.3,-131.01"/>
</a>
</g>
</g>
<!-- Node18&#45;&gt;Node16 -->
<g id="edge35_Node000018_Node000016" class="edge">
<title>Node18&#45;&gt;Node16</title>
<g id="a_edge35_Node000018_Node000016"><a xlink:title=" ">
<path fill="none" stroke="#63b8ff" d="M400.35,-274.98C366.84,-265.97 313.8,-251.7 276.86,-241.76"/>
<polygon fill="#63b8ff" stroke="#63b8ff" points="277.47,-238.3 266.9,-239.08 275.65,-245.06 277.47,-238.3"/>
</a>
</g>
</g>
<!-- Node19&#45;&gt;Node3 -->
<g id="edge40_Node000019_Node000003" class="edge">
<title>Node19&#45;&gt;Node3</title>
<g id="a_edge40_Node000019_Node000003"><a xlink:title=" ">
<path fill="none" stroke="#63b8ff" d="M542.73,-494.8C535.83,-486.17 525.56,-472.35 519,-459 511.9,-444.56 506.61,-427.04 503.26,-414.07"/>
<polygon fill="#63b8ff" stroke="#63b8ff" points="506.58,-412.92 500.82,-404.03 499.78,-414.57 506.58,-412.92"/>
</a>
</g>
</g>
<!-- Node19&#45;&gt;Node4 -->
<g id="edge41_Node000019_Node000004" class="edge">
<title>Node19&#45;&gt;Node4</title>
<g id="a_edge41_Node000019_Node000004"><a xlink:title=" ">
<path fill="none" stroke="#63b8ff" d="M600.76,-501.42C668.49,-495.62 780,-474.13 780,-395.5 780,-395.5 780,-395.5 780,-173.5 780,-117.54 713.72,-89.4 663.69,-76.13"/>
<polygon fill="#63b8ff" stroke="#63b8ff" points="664.48,-72.72 653.93,-73.67 662.77,-79.5 664.48,-72.72"/>
</a>
</g>
</g>
<!-- Node20 -->
<g id="Node000020" class="node">
<title>Node20</title>
<g id="a_Node000020"><a xlink:title=" ">
<polygon fill="#e0e0e0" stroke="#999999" points="572.5,-459 527.5,-459 527.5,-440 572.5,-440 572.5,-459"/>
<text text-anchor="middle" x="550" y="-447" font-family="Helvetica,sans-Serif" font-size="10.00">utility</text>
</a>
</g>
</g>
<!-- Node19&#45;&gt;Node20 -->
<g id="edge39_Node000019_Node000020" class="edge">
<title>Node19&#45;&gt;Node20</title>
<g id="a_edge39_Node000019_Node000020"><a xlink:title=" ">
<path fill="none" stroke="#63b8ff" d="M550,-494.75C550,-487.8 550,-477.85 550,-469.13"/>
<polygon fill="#63b8ff" stroke="#63b8ff" points="553.5,-469.09 550,-459.09 546.5,-469.09 553.5,-469.09"/>
</a>
</g>
</g>
<!-- Node21 -->
<g id="Node000021" class="node">
<title>Node21</title>
<g id="a_Node000021"><a xlink:href="CCSDSValidator_8h.html" target="_top" xlink:title="Defines the Validator class for CCSDS packet validation.">
<polygon fill="white" stroke="#666666" points="691.5,-459 590.5,-459 590.5,-440 691.5,-440 691.5,-459"/>
<text text-anchor="middle" x="641" y="-447" font-family="Helvetica,sans-Serif" font-size="10.00">CCSDSValidator.h</text>
</a>
</g>
</g>
<!-- Node19&#45;&gt;Node21 -->
<g id="edge42_Node000019_Node000021" class="edge">
<title>Node19&#45;&gt;Node21</title>
<g id="a_edge42_Node000019_Node000021"><a xlink:title=" ">
<path fill="none" stroke="#63b8ff" d="M564.62,-494.98C578.86,-486.69 600.75,-473.94 617.45,-464.22"/>
<polygon fill="#63b8ff" stroke="#63b8ff" points="619.23,-467.23 626.11,-459.17 615.71,-461.18 619.23,-467.23"/>
</a>
</g>
</g>
<!-- Node21&#45;&gt;Node3 -->
<g id="edge43_Node000021_Node000003" class="edge">
<title>Node21&#45;&gt;Node3</title>
<g id="a_edge43_Node000021_Node000003"><a xlink:title=" ">
<path fill="none" stroke="#63b8ff" d="M618.19,-439.98C594.83,-431.27 558.3,-417.63 531.83,-407.75"/>
<polygon fill="#63b8ff" stroke="#63b8ff" points="532.82,-404.39 522.23,-404.17 530.37,-410.95 532.82,-404.39"/>
</a>
</g>
</g>
</g>
</svg>

<g id="navigator" transform="translate(0 0)" fill="#404254">
  <rect fill="#f2f5e9" fill-opacity="0.5" stroke="#606060" stroke-width=".5" x="0" y="0" width="60" height="60"/>
  <use id="zoomplus" xlink:href="#zoomPlus" x="17" y="9" onmousedown="handleZoom(evt,'in')"/>
  <use id="zoomminus" xlink:href="#zoomMin" x="42" y="9" onmousedown="handleZoom(evt,'out')"/>
  <use id="reset" xlink:href="#resetDef" x="30" y="36" onmousedown="handleReset()"/>
   <use id="arrowup" xlink:href="#arrowUp" x="0" y="0" onmousedown="handlePan(0,-1)"/>
  <use id="arrowright" xlink:href="#arrowRight" x="0" y="0" onmousedown="handlePan(1,0)"/>
  <use id="arrowdown" xlink:href="#arrowDown" x="0" y="0" onmousedown="handlePan(0,1)"/>
  <use id="arrowleft" xlink:href="#arrowLeft" x="0" y="0" onmousedown="handlePan(-1,0)"/>
</g>
<svg viewBox="0 0 15 15" width="100%" height="30px" preserveAspectRatio="xMaxYMin meet">
 <g id="arrow_out" transform="scale(0.3 0.3)">
  <a xlink:href="CCSDSUtils_8cpp__incl_org.svg" target="_base">
   <rect id="button" ry="5" rx="5" y="6" x="6" height="38" width="38"
        fill="#f2f5e9" fill-opacity="0.5" stroke="#606060" stroke-width="1.0"/>
   <path id="arrow"
     d="M 11.500037,31.436501 C 11.940474,20.09759 22.043105,11.32322 32.158766,21.979434 L 37.068811,17.246167 C 37.068811,17.246167 37.088388,32 37.088388,32 L 22.160133,31.978069 C 22.160133,31.978069 26.997745,27.140456 26.997745,27.140456 C 18.528582,18.264221 13.291696,25.230495 11.500037,31.436501 z"
     style="fill:#404040;"/>
  </a>
 </g>
</svg>

<style type='text/css'>
<![CDATA[
[data-mouse-over-selected='false'] { opacity: 0.7; }
[data-mouse-over-selected='true']  { opacity: 1.0; }
]]>
</style>
<script type="application/ecmascript"><![CDATA[
document.addEventListener('DOMContentLoaded', (event) => {
  highlightEdges();
  highlightAdjacentNodes();
});
]]></script>
</svg>
