<?xml version="1.0" encoding="UTF-8" standalone="no"?>
<!DOCTYPE svg PUBLIC "-//W3C//DTD SVG 1.1//EN"
 "http://www.w3.org/Graphics/SVG/1.1/DTD/svg11.dtd">
<!-- Generated by graphviz version 2.43.0 (0)
 -->
<!-- Title: inc/CCSDSDataField.h Pages: 1 -->
<svg width="584pt" height="302pt"
 viewBox="0.00 0.00 584.00 302.00" xmlns="http://www.w3.org/2000/svg" xmlns:xlink="http://www.w3.org/1999/xlink">
<g id="graph0" class="graph" transform="scale(1 1) rotate(0) translate(4 298)">
<title>inc/CCSDSDataField.h</title>
<!-- Node1 -->
<g id="Node000001" class="node">
<title>Node1</title>
<g id="a_Node000001"><a xlink:title=" ">
<polygon fill="#999999" stroke="#666666" points="296,-294 174,-294 174,-275 296,-275 296,-294"/>
<text text-anchor="middle" x="235" y="-282" font-family="Helvetica,sans-Serif" font-size="10.00">inc/CCSDSDataField.h</text>
</a>
</g>
</g>
<!-- Node2 -->
<g id="Node000002" class="node">
<title>Node2</title>
<g id="a_Node000002"><a xlink:href="CCSDSResult_8h.html" target="_top" xlink:title=" ">
<polygon fill="white" stroke="#666666" points="206.5,-74 117.5,-74 117.5,-55 206.5,-55 206.5,-74"/>
<text text-anchor="middle" x="162" y="-62" font-family="Helvetica,sans-Serif" font-size="10.00">CCSDSResult.h</text>
</a>
</g>
</g>
<!-- Node1&#45;&gt;Node2 -->
<g id="edge1_Node000001_Node000002" class="edge">
<title>Node1&#45;&gt;Node2</title>
<g id="a_edge1_Node000001_Node000002"><a xlink:title=" ">
<path fill="none" stroke="#63b8ff" d="M178.92,-274.97C155.78,-268.7 130.55,-257.83 114,-239 75.45,-195.13 60.4,-160.92 89,-110 97.11,-95.56 112.01,-85.26 126.25,-78.22"/>
<polygon fill="#63b8ff" stroke="#63b8ff" points="127.77,-81.38 135.43,-74.06 124.88,-75 127.77,-81.38"/>
</a>
</g>
</g>
<!-- Node5 -->
<g id="Node000005" class="node">
<title>Node5</title>
<g id="a_Node000005"><a xlink:title=" ">
<polygon fill="#e0e0e0" stroke="#999999" points="61.5,-19 14.5,-19 14.5,0 61.5,0 61.5,-19"/>
<text text-anchor="middle" x="38" y="-7" font-family="Helvetica,sans-Serif" font-size="10.00">vector</text>
</a>
</g>
</g>
<!-- Node1&#45;&gt;Node5 -->
<g id="edge8_Node000001_Node000005" class="edge">
<title>Node1&#45;&gt;Node5</title>
<g id="a_edge8_Node000001_Node000005"><a xlink:title=" ">
<path fill="none" stroke="#63b8ff" d="M173.87,-281.02C104.24,-274.54 0,-252.06 0,-175.5 0,-175.5 0,-175.5 0,-118.5 0,-85.02 16.45,-48.84 27.7,-28.01"/>
<polygon fill="#63b8ff" stroke="#63b8ff" points="30.87,-29.53 32.72,-19.1 24.76,-26.1 30.87,-29.53"/>
</a>
</g>
</g>
<!-- Node6 -->
<g id="Node000006" class="node">
<title>Node6</title>
<g id="a_Node000006"><a xlink:title=" ">
<polygon fill="#e0e0e0" stroke="#999999" points="389,-19 339,-19 339,0 389,0 389,-19"/>
<text text-anchor="middle" x="364" y="-7" font-family="Helvetica,sans-Serif" font-size="10.00">cstdint</text>
</a>
</g>
</g>
<!-- Node1&#45;&gt;Node6 -->
<g id="edge7_Node000001_Node000006" class="edge">
<title>Node1&#45;&gt;Node6</title>
<g id="a_edge7_Node000001_Node000006"><a xlink:title=" ">
<path fill="none" stroke="#63b8ff" d="M296.36,-276.8C394.53,-264.34 576,-233.49 576,-175.5 576,-175.5 576,-175.5 576,-118.5 576,-40.18 459.69,-18.63 399.37,-12.72"/>
<polygon fill="#63b8ff" stroke="#63b8ff" points="399.42,-9.21 389.15,-11.82 398.8,-16.18 399.42,-9.21"/>
</a>
</g>
</g>
<!-- Node8 -->
<g id="Node000008" class="node">
<title>Node8</title>
<g id="a_Node000008"><a xlink:title=" ">
<polygon fill="#e0e0e0" stroke="#999999" points="548,-129 490,-129 490,-110 548,-110 548,-129"/>
<text text-anchor="middle" x="519" y="-117" font-family="Helvetica,sans-Serif" font-size="10.00">memory</text>
</a>
</g>
</g>
<!-- Node1&#45;&gt;Node8 -->
<g id="edge9_Node000001_Node000008" class="edge">
<title>Node1&#45;&gt;Node8</title>
<g id="a_edge9_Node000001_Node000008"><a xlink:title=" ">
<path fill="none" stroke="#63b8ff" d="M260.47,-274.93C302.52,-260.13 388.13,-227.16 452,-184 472.01,-170.48 491.68,-150.87 504.48,-137.02"/>
<polygon fill="#63b8ff" stroke="#63b8ff" points="507.39,-139.02 511.5,-129.26 502.2,-134.33 507.39,-139.02"/>
</a>
</g>
</g>
<!-- Node9 -->
<g id="Node000009" class="node">
<title>Node9</title>
<g id="a_Node000009"><a xlink:href="CCSDSSecondaryHeaderAbstract_8h.html" target="_top" xlink:title=" ">
<polygon fill="white" stroke="#666666" points="288.5,-129 103.5,-129 103.5,-110 288.5,-110 288.5,-129"/>
<text text-anchor="middle" x="196" y="-117" font-family="Helvetica,sans-Serif" font-size="10.00">CCSDSSecondaryHeaderAbstract.h</text>
</a>
</g>
</g>
<!-- Node1&#45;&gt;Node9 -->
<g id="edge10_Node000001_Node000009" class="edge">
<title>Node1&#45;&gt;Node9</title>
<g id="a_edge10_Node000001_Node000009"><a xlink:title=" ">
<path fill="none" stroke="#63b8ff" d="M232.9,-274.74C226.79,-249.2 208.9,-174.43 200.48,-139.23"/>
<polygon fill="#63b8ff" stroke="#63b8ff" points="203.84,-138.22 198.11,-129.31 197.03,-139.85 203.84,-138.22"/>
</a>
</g>
</g>
<!-- Node10 -->
<g id="Node000010" class="node">
<title>Node10</title>
<g id="a_Node000010"><a xlink:href="CCSDSSecondaryHeaderFactory_8h.html" target="_top" xlink:title=" ">
<polygon fill="white" stroke="#666666" points="442.5,-184 263.5,-184 263.5,-165 442.5,-165 442.5,-184"/>
<text text-anchor="middle" x="353" y="-172" font-family="Helvetica,sans-Serif" font-size="10.00">CCSDSSecondaryHeaderFactory.h</text>
</a>
</g>
</g>
<!-- Node1&#45;&gt;Node10 -->
<g id="edge14_Node000001_Node000010" class="edge">
<title>Node1&#45;&gt;Node10</title>
<g id="a_edge14_Node000001_Node000010"><a xlink:title=" ">
<path fill="none" stroke="#63b8ff" d="M244.66,-274.66C264.64,-256.38 310.74,-214.18 335.88,-191.17"/>
<polygon fill="#63b8ff" stroke="#63b8ff" points="338.53,-193.49 343.54,-184.16 333.8,-188.33 338.53,-193.49"/>
</a>
</g>
</g>
<!-- Node13 -->
<g id="Node000013" class="node">
<title>Node13</title>
<g id="a_Node000013"><a xlink:href="PusServices_8h.html" target="_top" xlink:title=" ">
<polygon fill="white" stroke="#666666" points="207,-239 123,-239 123,-220 207,-220 207,-239"/>
<text text-anchor="middle" x="165" y="-227" font-family="Helvetica,sans-Serif" font-size="10.00">PusServices.h</text>
</a>
</g>
</g>
<!-- Node1&#45;&gt;Node13 -->
<g id="edge20_Node000001_Node000013" class="edge">
<title>Node1&#45;&gt;Node13</title>
<g id="a_edge20_Node000001_Node000013"><a xlink:title=" ">
<path fill="none" stroke="#63b8ff" d="M223.75,-274.98C213.2,-267 197.2,-254.88 184.56,-245.31"/>
<polygon fill="#63b8ff" stroke="#63b8ff" points="186.54,-242.42 176.45,-239.17 182.31,-248 186.54,-242.42"/>
</a>
</g>
</g>
<!-- Node3 -->
<g id="Node000003" class="node">
<title>Node3</title>
<g id="a_Node000003"><a xlink:title=" ">
<polygon fill="#e0e0e0" stroke="#999999" points="320.5,-19 227.5,-19 227.5,0 320.5,0 320.5,-19"/>
<text text-anchor="middle" x="274" y="-7" font-family="Helvetica,sans-Serif" font-size="10.00">unordered_map</text>
</a>
</g>
</g>
<!-- Node2&#45;&gt;Node3 -->
<g id="edge2_Node000002_Node000003" class="edge">
<title>Node2&#45;&gt;Node3</title>
<g id="a_edge2_Node000002_Node000003"><a xlink:title=" ">
<path fill="none" stroke="#63b8ff" d="M179.99,-54.98C197.93,-46.5 225.72,-33.35 246.43,-23.54"/>
<polygon fill="#63b8ff" stroke="#63b8ff" points="248.14,-26.61 255.68,-19.17 245.14,-20.28 248.14,-26.61"/>
</a>
</g>
</g>
<!-- Node4 -->
<g id="Node000004" class="node">
<title>Node4</title>
<g id="a_Node000004"><a xlink:title=" ">
<polygon fill="#e0e0e0" stroke="#999999" points="130.5,-19 79.5,-19 79.5,0 130.5,0 130.5,-19"/>
<text text-anchor="middle" x="105" y="-7" font-family="Helvetica,sans-Serif" font-size="10.00">variant</text>
</a>
</g>
</g>
<!-- Node2&#45;&gt;Node4 -->
<g id="edge3_Node000002_Node000004" class="edge">
<title>Node2&#45;&gt;Node4</title>
<g id="a_edge3_Node000002_Node000004"><a xlink:title=" ">
<path fill="none" stroke="#63b8ff" d="M152.84,-54.98C144.5,-47.23 131.97,-35.58 121.82,-26.14"/>
<polygon fill="#63b8ff" stroke="#63b8ff" points="124.03,-23.42 114.32,-19.17 119.26,-28.54 124.03,-23.42"/>
</a>
</g>
</g>
<!-- Node2&#45;&gt;Node5 -->
<g id="edge4_Node000002_Node000005" class="edge">
<title>Node2&#45;&gt;Node5</title>
<g id="a_edge4_Node000002_Node000005"><a xlink:title=" ">
<path fill="none" stroke="#63b8ff" d="M142.08,-54.98C121.95,-46.38 90.62,-32.99 67.59,-23.15"/>
<polygon fill="#63b8ff" stroke="#63b8ff" points="68.86,-19.88 58.29,-19.17 66.1,-26.32 68.86,-19.88"/>
</a>
</g>
</g>
<!-- Node2&#45;&gt;Node6 -->
<g id="edge5_Node000002_Node000006" class="edge">
<title>Node2&#45;&gt;Node6</title>
<g id="a_edge5_Node000002_Node000006"><a xlink:title=" ">
<path fill="none" stroke="#63b8ff" d="M194.45,-54.98C231.26,-45.33 291.04,-29.64 328.9,-19.71"/>
<polygon fill="#63b8ff" stroke="#63b8ff" points="330.18,-22.99 338.96,-17.07 328.4,-16.22 330.18,-22.99"/>
</a>
</g>
</g>
<!-- Node7 -->
<g id="Node000007" class="node">
<title>Node7</title>
<g id="a_Node000007"><a xlink:title=" ">
<polygon fill="#e0e0e0" stroke="#999999" points="209,-19 149,-19 149,0 209,0 209,-19"/>
<text text-anchor="middle" x="179" y="-7" font-family="Helvetica,sans-Serif" font-size="10.00">iostream</text>
</a>
</g>
</g>
<!-- Node2&#45;&gt;Node7 -->
<g id="edge6_Node000002_Node000007" class="edge">
<title>Node2&#45;&gt;Node7</title>
<g id="a_edge6_Node000002_Node000007"><a xlink:title=" ">
<path fill="none" stroke="#63b8ff" d="M164.81,-54.75C167.06,-47.72 170.3,-37.62 173.12,-28.84"/>
<polygon fill="#63b8ff" stroke="#63b8ff" points="176.52,-29.68 176.25,-19.09 169.86,-27.54 176.52,-29.68"/>
</a>
</g>
</g>
<!-- Node9&#45;&gt;Node2 -->
<g id="edge11_Node000009_Node000002" class="edge">
<title>Node9&#45;&gt;Node2</title>
<g id="a_edge11_Node000009_Node000002"><a xlink:title=" ">
<path fill="none" stroke="#63b8ff" d="M190.39,-109.75C185.68,-102.42 178.83,-91.73 173.03,-82.7"/>
<polygon fill="#63b8ff" stroke="#63b8ff" points="175.86,-80.62 167.51,-74.09 169.96,-84.4 175.86,-80.62"/>
</a>
</g>
</g>
<!-- Node9&#45;&gt;Node5 -->
<g id="edge12_Node000009_Node000005" class="edge">
<title>Node9&#45;&gt;Node5</title>
<g id="a_edge12_Node000009_Node000005"><a xlink:title=" ">
<path fill="none" stroke="#63b8ff" d="M175.83,-109.97C157.65,-101.88 130.54,-88.78 109,-74 88.25,-59.77 67.09,-40.02 53.33,-26.35"/>
<polygon fill="#63b8ff" stroke="#63b8ff" points="55.67,-23.73 46.15,-19.08 50.69,-28.65 55.67,-23.73"/>
</a>
</g>
</g>
<!-- Node9&#45;&gt;Node6 -->
<g id="edge13_Node000009_Node000006" class="edge">
<title>Node9&#45;&gt;Node6</title>
<g id="a_edge13_Node000009_Node000006"><a xlink:title=" ">
<path fill="none" stroke="#63b8ff" d="M209.46,-109.84C238.34,-91.28 306.46,-47.49 341.83,-24.75"/>
<polygon fill="#63b8ff" stroke="#63b8ff" points="343.95,-27.55 350.47,-19.2 340.17,-21.66 343.95,-27.55"/>
</a>
</g>
</g>
<!-- Node10&#45;&gt;Node3 -->
<g id="edge16_Node000010_Node000003" class="edge">
<title>Node10&#45;&gt;Node3</title>
<g id="a_edge16_Node000010_Node000003"><a xlink:title=" ">
<path fill="none" stroke="#63b8ff" d="M386.71,-164.98C418.25,-155.18 458.38,-136.89 443,-110 416.07,-62.9 357.18,-35.88 316.55,-22.19"/>
<polygon fill="#63b8ff" stroke="#63b8ff" points="317.5,-18.82 306.91,-19.08 315.35,-25.48 317.5,-18.82"/>
</a>
</g>
</g>
<!-- Node10&#45;&gt;Node8 -->
<g id="edge15_Node000010_Node000008" class="edge">
<title>Node10&#45;&gt;Node8</title>
<g id="a_edge15_Node000010_Node000008"><a xlink:title=" ">
<path fill="none" stroke="#63b8ff" d="M379.67,-164.98C407.54,-156.09 451.45,-142.07 482.52,-132.15"/>
<polygon fill="#63b8ff" stroke="#63b8ff" points="483.66,-135.46 492.12,-129.08 481.53,-128.79 483.66,-135.46"/>
</a>
</g>
</g>
<!-- Node10&#45;&gt;Node9 -->
<g id="edge19_Node000010_Node000009" class="edge">
<title>Node10&#45;&gt;Node9</title>
<g id="a_edge19_Node000010_Node000009"><a xlink:title=" ">
<path fill="none" stroke="#63b8ff" d="M327.78,-164.98C301.64,-156.16 260.6,-142.31 231.27,-132.41"/>
<polygon fill="#63b8ff" stroke="#63b8ff" points="232.02,-128.96 221.42,-129.08 229.78,-135.6 232.02,-128.96"/>
</a>
</g>
</g>
<!-- Node11 -->
<g id="Node000011" class="node">
<title>Node11</title>
<g id="a_Node000011"><a xlink:title=" ">
<polygon fill="#e0e0e0" stroke="#999999" points="371.5,-129 306.5,-129 306.5,-110 371.5,-110 371.5,-129"/>
<text text-anchor="middle" x="339" y="-117" font-family="Helvetica,sans-Serif" font-size="10.00">functional</text>
</a>
</g>
</g>
<!-- Node10&#45;&gt;Node11 -->
<g id="edge17_Node000010_Node000011" class="edge">
<title>Node10&#45;&gt;Node11</title>
<g id="a_edge17_Node000010_Node000011"><a xlink:title=" ">
<path fill="none" stroke="#63b8ff" d="M350.69,-164.75C348.83,-157.72 346.16,-147.62 343.85,-138.84"/>
<polygon fill="#63b8ff" stroke="#63b8ff" points="347.21,-137.86 341.27,-129.09 340.44,-139.65 347.21,-137.86"/>
</a>
</g>
</g>
<!-- Node12 -->
<g id="Node000012" class="node">
<title>Node12</title>
<g id="a_Node000012"><a xlink:title=" ">
<polygon fill="#e0e0e0" stroke="#999999" points="434,-129 390,-129 390,-110 434,-110 434,-129"/>
<text text-anchor="middle" x="412" y="-117" font-family="Helvetica,sans-Serif" font-size="10.00">string</text>
</a>
</g>
</g>
<!-- Node10&#45;&gt;Node12 -->
<g id="edge18_Node000010_Node000012" class="edge">
<title>Node10&#45;&gt;Node12</title>
<g id="a_edge18_Node000010_Node000012"><a xlink:title=" ">
<path fill="none" stroke="#63b8ff" d="M362.48,-164.98C371.2,-157.15 384.34,-145.34 394.9,-135.86"/>
<polygon fill="#63b8ff" stroke="#63b8ff" points="397.25,-138.46 402.35,-129.17 392.57,-133.25 397.25,-138.46"/>
</a>
</g>
</g>
<!-- Node13&#45;&gt;Node2 -->
<g id="edge23_Node000013_Node000002" class="edge">
<title>Node13&#45;&gt;Node2</title>
<g id="a_edge23_Node000013_Node000002"><a xlink:title=" ">
<path fill="none" stroke="#63b8ff" d="M156.11,-219.95C140.15,-203.92 107.17,-167.46 95,-129 92.45,-120.95 91.01,-117.44 95,-110 102.51,-96 116.57,-85.66 129.88,-78.48"/>
<polygon fill="#63b8ff" stroke="#63b8ff" points="131.48,-81.6 138.89,-74.02 128.37,-75.33 131.48,-81.6"/>
</a>
</g>
</g>
<!-- Node13&#45;&gt;Node9 -->
<g id="edge21_Node000013_Node000009" class="edge">
<title>Node13&#45;&gt;Node9</title>
<g id="a_edge21_Node000013_Node000009"><a xlink:title=" ">
<path fill="none" stroke="#63b8ff" d="M167.54,-219.66C172.58,-202.09 183.96,-162.45 190.7,-138.95"/>
<polygon fill="#63b8ff" stroke="#63b8ff" points="194.12,-139.74 193.51,-129.16 187.39,-137.8 194.12,-139.74"/>
</a>
</g>
</g>
<!-- Node13&#45;&gt;Node10 -->
<g id="edge22_Node000013_Node000010" class="edge">
<title>Node13&#45;&gt;Node10</title>
<g id="a_edge22_Node000013_Node000010"><a xlink:title=" ">
<path fill="none" stroke="#63b8ff" d="M195.21,-219.98C227.04,-211.01 277.36,-196.82 312.6,-186.89"/>
<polygon fill="#63b8ff" stroke="#63b8ff" points="313.88,-190.16 322.56,-184.08 311.98,-183.43 313.88,-190.16"/>
</a>
</g>
</g>
</g>
</svg>
