<?xml version="1.0" encoding="UTF-8" standalone="no"?>
<!DOCTYPE svg PUBLIC "-//W3C//DTD SVG 1.1//EN"
 "http://www.w3.org/Graphics/SVG/1.1/DTD/svg11.dtd">
<!-- Generated by graphviz version 2.43.0 (0)
 -->
<!-- Title: inc/CCSDSSecondaryHeaderAbstract.h Pages: 1 -->
<svg width="1180pt" height="489pt"
 viewBox="0.00 0.00 1179.50 489.00" xmlns="http://www.w3.org/2000/svg" xmlns:xlink="http://www.w3.org/1999/xlink">
<g id="graph0" class="graph" transform="scale(1 1) rotate(0) translate(4 485)">
<title>inc/CCSDSSecondaryHeaderAbstract.h</title>
<!-- Node1 -->
<g id="Node000001" class="node">
<title>Node1</title>
<g id="a_Node000001"><a xlink:title=" ">
<polygon fill="#999999" stroke="#666666" points="1106.5,-481 953.5,-481 953.5,-451 1106.5,-451 1106.5,-481"/>
<text text-anchor="start" x="961.5" y="-469" font-family="Helvetica,sans-Serif" font-size="10.00">inc/CCSDSSecondaryHeader</text>
<text text-anchor="middle" x="1030" y="-458" font-family="Helvetica,sans-Serif" font-size="10.00">Abstract.h</text>
</a>
</g>
</g>
<!-- Node2 -->
<g id="Node000002" class="node">
<title>Node2</title>
<g id="a_Node000002"><a xlink:href="CCSDSDataField_8h.html" target="_top" xlink:title=" ">
<polygon fill="white" stroke="#666666" points="994,-294 872,-294 872,-275 994,-275 994,-294"/>
<text text-anchor="middle" x="933" y="-282" font-family="Helvetica,sans-Serif" font-size="10.00">inc/CCSDSDataField.h</text>
</a>
</g>
</g>
<!-- Node1&#45;&gt;Node2 -->
<g id="edge1_Node000001_Node000002" class="edge">
<title>Node1&#45;&gt;Node2</title>
<g id="a_edge1_Node000001_Node000002"><a xlink:title=" ">
<path fill="none" stroke="#63b8ff" d="M980.75,-446.27C967,-438.65 953.51,-428.4 945,-415 920.19,-375.92 927.42,-316.39 931.28,-294.22"/>
<polygon fill="#63b8ff" stroke="#63b8ff" points="979.28,-449.45 989.77,-450.91 982.48,-443.23 979.28,-449.45"/>
</a>
</g>
</g>
<!-- Node15 -->
<g id="Node000015" class="node">
<title>Node15</title>
<g id="a_Node000015"><a xlink:href="CCSDSSecondaryHeaderFactory_8h.html" target="_top" xlink:title=" ">
<polygon fill="white" stroke="#666666" points="1106.5,-415 953.5,-415 953.5,-385 1106.5,-385 1106.5,-415"/>
<text text-anchor="start" x="961.5" y="-403" font-family="Helvetica,sans-Serif" font-size="10.00">inc/CCSDSSecondaryHeader</text>
<text text-anchor="middle" x="1030" y="-392" font-family="Helvetica,sans-Serif" font-size="10.00">Factory.h</text>
</a>
</g>
</g>
<!-- Node1&#45;&gt;Node15 -->
<g id="edge23_Node000001_Node000015" class="edge">
<title>Node1&#45;&gt;Node15</title>
<g id="a_edge23_Node000001_Node000015"><a xlink:title=" ">
<path fill="none" stroke="#63b8ff" d="M1030,-440.54C1030,-431.96 1030,-422.61 1030,-415.16"/>
<polygon fill="#63b8ff" stroke="#63b8ff" points="1026.5,-440.8 1030,-450.8 1033.5,-440.8 1026.5,-440.8"/>
</a>
</g>
</g>
<!-- Node16 -->
<g id="Node000016" class="node">
<title>Node16</title>
<g id="a_Node000016"><a xlink:href="PusServices_8h.html" target="_top" xlink:title=" ">
<polygon fill="white" stroke="#666666" points="1162.5,-349 1061.5,-349 1061.5,-330 1162.5,-330 1162.5,-349"/>
<text text-anchor="middle" x="1112" y="-337" font-family="Helvetica,sans-Serif" font-size="10.00">inc/PusServices.h</text>
</a>
</g>
</g>
<!-- Node1&#45;&gt;Node16 -->
<g id="edge29_Node000001_Node000016" class="edge">
<title>Node1&#45;&gt;Node16</title>
<g id="a_edge29_Node000001_Node000016"><a xlink:title=" ">
<path fill="none" stroke="#63b8ff" d="M1081.7,-446.25C1095.25,-438.71 1108.23,-428.51 1116,-415 1128.14,-393.89 1120.29,-363.61 1115.27,-349.01"/>
<polygon fill="#63b8ff" stroke="#63b8ff" points="1080.07,-443.15 1072.77,-450.83 1083.26,-449.38 1080.07,-443.15"/>
</a>
</g>
</g>
<!-- Node3 -->
<g id="Node000003" class="node">
<title>Node3</title>
<g id="a_Node000003"><a xlink:href="CCSDSPacket_8h.html" target="_top" xlink:title=" ">
<polygon fill="white" stroke="#666666" points="672.5,-239 565.5,-239 565.5,-220 672.5,-220 672.5,-239"/>
<text text-anchor="middle" x="619" y="-227" font-family="Helvetica,sans-Serif" font-size="10.00">inc/CCSDSPacket.h</text>
</a>
</g>
</g>
<!-- Node2&#45;&gt;Node3 -->
<g id="edge2_Node000002_Node000003" class="edge">
<title>Node2&#45;&gt;Node3</title>
<g id="a_edge2_Node000002_Node000003"><a xlink:title=" ">
<path fill="none" stroke="#63b8ff" d="M872.63,-273.31C813.66,-263.36 724.95,-248.38 669.58,-239.04"/>
<polygon fill="#63b8ff" stroke="#63b8ff" points="872.11,-276.77 882.55,-274.98 873.27,-269.87 872.11,-276.77"/>
</a>
</g>
</g>
<!-- Node6 -->
<g id="Node000006" class="node">
<title>Node6</title>
<g id="a_Node000006"><a xlink:href="CCSDSDataField_8cpp.html" target="_top" xlink:title=" ">
<polygon fill="white" stroke="#666666" points="1112,-19 978,-19 978,0 1112,0 1112,-19"/>
<text text-anchor="middle" x="1045" y="-7" font-family="Helvetica,sans-Serif" font-size="10.00">src/CCSDSDataField.cpp</text>
</a>
</g>
</g>
<!-- Node2&#45;&gt;Node6 -->
<g id="edge21_Node000002_Node000006" class="edge">
<title>Node2&#45;&gt;Node6</title>
<g id="a_edge21_Node000002_Node000006"><a xlink:title=" ">
<path fill="none" stroke="#63b8ff" d="M943.57,-266.02C955.12,-245.22 972,-209.08 972,-175.5 972,-175.5 972,-175.5 972,-118.5 972,-75.05 1013.06,-36.02 1033.59,-19.23"/>
<polygon fill="#63b8ff" stroke="#63b8ff" points="940.4,-264.51 938.42,-274.92 946.46,-268.02 940.4,-264.51"/>
</a>
</g>
</g>
<!-- Node9 -->
<g id="Node000009" class="node">
<title>Node9</title>
<g id="a_Node000009"><a xlink:href="CCSDSPacket_8cpp.html" target="_top" xlink:title=" ">
<polygon fill="white" stroke="#666666" points="959.5,-19 840.5,-19 840.5,0 959.5,0 959.5,-19"/>
<text text-anchor="middle" x="900" y="-7" font-family="Helvetica,sans-Serif" font-size="10.00">src/CCSDSPacket.cpp</text>
</a>
</g>
</g>
<!-- Node2&#45;&gt;Node9 -->
<g id="edge22_Node000002_Node000009" class="edge">
<title>Node2&#45;&gt;Node9</title>
<g id="a_edge22_Node000002_Node000009"><a xlink:title=" ">
<path fill="none" stroke="#63b8ff" d="M927.78,-265.23C922.16,-243.9 914,-207.44 914,-175.5 914,-175.5 914,-175.5 914,-118.5 914,-81.25 905.71,-37.38 901.89,-19.13"/>
<polygon fill="#63b8ff" stroke="#63b8ff" points="924.42,-266.19 930.44,-274.91 931.17,-264.34 924.42,-266.19"/>
</a>
</g>
</g>
<!-- Node4 -->
<g id="Node000004" class="node">
<title>Node4</title>
<g id="a_Node000004"><a xlink:href="CCSDSManager_8h.html" target="_top" xlink:title=" ">
<polygon fill="white" stroke="#666666" points="465,-129 347,-129 347,-110 465,-110 465,-129"/>
<text text-anchor="middle" x="406" y="-117" font-family="Helvetica,sans-Serif" font-size="10.00">inc/CCSDSManager.h</text>
</a>
</g>
</g>
<!-- Node3&#45;&gt;Node4 -->
<g id="edge3_Node000003_Node000004" class="edge">
<title>Node3&#45;&gt;Node4</title>
<g id="a_edge3_Node000003_Node000004"><a xlink:title=" ">
<path fill="none" stroke="#63b8ff" d="M582.92,-216.49C560.09,-208.39 530.23,-196.86 505,-184 471.89,-167.13 435.82,-142.15 417.73,-129.12"/>
<polygon fill="#63b8ff" stroke="#63b8ff" points="581.96,-219.86 592.55,-219.85 584.27,-213.25 581.96,-219.86"/>
</a>
</g>
</g>
<!-- Node5 -->
<g id="Node000005" class="node">
<title>Node5</title>
<g id="a_Node000005"><a xlink:href="CCSDSUtils_8h.html" target="_top" xlink:title=" ">
<polygon fill="white" stroke="#666666" points="557,-74 459,-74 459,-55 557,-55 557,-74"/>
<text text-anchor="middle" x="508" y="-62" font-family="Helvetica,sans-Serif" font-size="10.00">inc/CCSDSUtils.h</text>
</a>
</g>
</g>
<!-- Node3&#45;&gt;Node5 -->
<g id="edge16_Node000003_Node000005" class="edge">
<title>Node3&#45;&gt;Node5</title>
<g id="a_edge16_Node000003_Node000005"><a xlink:title=" ">
<path fill="none" stroke="#63b8ff" d="M589.78,-215.27C576.08,-207.79 560.49,-197.26 550,-184 522.51,-149.25 512.21,-95.1 509.12,-74.17"/>
<polygon fill="#63b8ff" stroke="#63b8ff" points="588.39,-218.49 598.88,-219.95 591.59,-212.26 588.39,-218.49"/>
</a>
</g>
</g>
<!-- Node3&#45;&gt;Node9 -->
<g id="edge20_Node000003_Node000009" class="edge">
<title>Node3&#45;&gt;Node9</title>
<g id="a_edge20_Node000003_Node000009"><a xlink:title=" ">
<path fill="none" stroke="#63b8ff" d="M642.06,-214.54C655.68,-206.07 673.11,-194.84 688,-184 769.13,-124.93 860.54,-45.37 890.17,-19.22"/>
<polygon fill="#63b8ff" stroke="#63b8ff" points="640,-211.7 633.32,-219.92 643.67,-217.66 640,-211.7"/>
</a>
</g>
</g>
<!-- Node14 -->
<g id="Node000014" class="node">
<title>Node14</title>
<g id="a_Node000014"><a xlink:href="CCSDSValidator_8h.html" target="_top" xlink:title="Defines the Validator class for CCSDS packet validation.">
<polygon fill="white" stroke="#666666" points="678.5,-184 559.5,-184 559.5,-165 678.5,-165 678.5,-184"/>
<text text-anchor="middle" x="619" y="-172" font-family="Helvetica,sans-Serif" font-size="10.00">inc/CCSDSValidator.h</text>
</a>
</g>
</g>
<!-- Node3&#45;&gt;Node14 -->
<g id="edge17_Node000003_Node000014" class="edge">
<title>Node3&#45;&gt;Node14</title>
<g id="a_edge17_Node000003_Node000014"><a xlink:title=" ">
<path fill="none" stroke="#63b8ff" d="M619,-209.66C619,-200.93 619,-190.99 619,-184.09"/>
<polygon fill="#63b8ff" stroke="#63b8ff" points="615.5,-209.75 619,-219.75 622.5,-209.75 615.5,-209.75"/>
</a>
</g>
</g>
<!-- Node4&#45;&gt;Node5 -->
<g id="edge4_Node000004_Node000005" class="edge">
<title>Node4&#45;&gt;Node5</title>
<g id="a_edge4_Node000004_Node000005"><a xlink:title=" ">
<path fill="none" stroke="#63b8ff" d="M431.27,-105.37C450.01,-95.63 475.02,-82.64 491.31,-74.17"/>
<polygon fill="#63b8ff" stroke="#63b8ff" points="429.65,-102.27 422.39,-109.98 432.88,-108.48 429.65,-102.27"/>
</a>
</g>
</g>
<!-- Node8 -->
<g id="Node000008" class="node">
<title>Node8</title>
<g id="a_Node000008"><a xlink:href="CCSDSManager_8cpp.html" target="_top" xlink:title=" ">
<polygon fill="white" stroke="#666666" points="267.5,-19 138.5,-19 138.5,0 267.5,0 267.5,-19"/>
<text text-anchor="middle" x="203" y="-7" font-family="Helvetica,sans-Serif" font-size="10.00">src/CCSDSManager.cpp</text>
</a>
</g>
</g>
<!-- Node4&#45;&gt;Node8 -->
<g id="edge13_Node000004_Node000008" class="edge">
<title>Node4&#45;&gt;Node8</title>
<g id="a_edge13_Node000004_Node000008"><a xlink:title=" ">
<path fill="none" stroke="#63b8ff" d="M380.89,-105.14C338.6,-82.64 254.3,-37.79 219.06,-19.05"/>
<polygon fill="#63b8ff" stroke="#63b8ff" points="379.26,-108.24 389.73,-109.84 382.55,-102.06 379.26,-108.24"/>
</a>
</g>
</g>
<!-- Node12 -->
<g id="Node000012" class="node">
<title>Node12</title>
<g id="a_Node000012"><a xlink:href="exec__decoder_8cpp.html" target="_top" xlink:title=" ">
<polygon fill="white" stroke="#666666" points="406,-19 286,-19 286,0 406,0 406,-19"/>
<text text-anchor="middle" x="346" y="-7" font-family="Helvetica,sans-Serif" font-size="10.00">src/exec_decoder.cpp</text>
</a>
</g>
</g>
<!-- Node4&#45;&gt;Node12 -->
<g id="edge14_Node000004_Node000012" class="edge">
<title>Node4&#45;&gt;Node12</title>
<g id="a_edge14_Node000004_Node000012"><a xlink:title=" ">
<path fill="none" stroke="#63b8ff" d="M396.14,-100.76C383.1,-77.28 360.62,-36.81 350.81,-19.16"/>
<polygon fill="#63b8ff" stroke="#63b8ff" points="393.17,-102.62 401.09,-109.66 399.29,-99.22 393.17,-102.62"/>
</a>
</g>
</g>
<!-- Node13 -->
<g id="Node000013" class="node">
<title>Node13</title>
<g id="a_Node000013"><a xlink:href="exec__encoder_8cpp.html" target="_top" xlink:title=" ">
<polygon fill="white" stroke="#666666" points="120,-19 0,-19 0,0 120,0 120,-19"/>
<text text-anchor="middle" x="60" y="-7" font-family="Helvetica,sans-Serif" font-size="10.00">src/exec_encoder.cpp</text>
</a>
</g>
</g>
<!-- Node4&#45;&gt;Node13 -->
<g id="edge15_Node000004_Node000013" class="edge">
<title>Node4&#45;&gt;Node13</title>
<g id="a_edge15_Node000004_Node000013"><a xlink:title=" ">
<path fill="none" stroke="#63b8ff" d="M368.84,-106.9C298.89,-85.07 149.14,-38.33 87.44,-19.07"/>
<polygon fill="#63b8ff" stroke="#63b8ff" points="367.97,-110.3 378.56,-109.94 370.06,-103.61 367.97,-110.3"/>
</a>
</g>
</g>
<!-- Node5&#45;&gt;Node6 -->
<g id="edge5_Node000005_Node000006" class="edge">
<title>Node5&#45;&gt;Node6</title>
<g id="a_edge5_Node000005_Node000006"><a xlink:title=" ">
<path fill="none" stroke="#63b8ff" d="M567.18,-58.08C654.94,-49.97 824.76,-34.03 969,-19 971.91,-18.7 974.87,-18.38 977.87,-18.06"/>
<polygon fill="#63b8ff" stroke="#63b8ff" points="566.78,-54.6 557.15,-59 567.43,-61.57 566.78,-54.6"/>
</a>
</g>
</g>
<!-- Node7 -->
<g id="Node000007" class="node">
<title>Node7</title>
<g id="a_Node000007"><a xlink:href="CCSDSHeader_8cpp.html" target="_top" xlink:title=" ">
<polygon fill="white" stroke="#666666" points="546,-19 424,-19 424,0 546,0 546,-19"/>
<text text-anchor="middle" x="485" y="-7" font-family="Helvetica,sans-Serif" font-size="10.00">src/CCSDSHeader.cpp</text>
</a>
</g>
</g>
<!-- Node5&#45;&gt;Node7 -->
<g id="edge6_Node000005_Node000007" class="edge">
<title>Node5&#45;&gt;Node7</title>
<g id="a_edge6_Node000005_Node000007"><a xlink:title=" ">
<path fill="none" stroke="#63b8ff" d="M500.2,-45.53C496.32,-36.6 491.82,-26.22 488.73,-19.09"/>
<polygon fill="#63b8ff" stroke="#63b8ff" points="497.01,-46.97 504.2,-54.75 503.43,-44.18 497.01,-46.97"/>
</a>
</g>
</g>
<!-- Node5&#45;&gt;Node8 -->
<g id="edge7_Node000005_Node000008" class="edge">
<title>Node5&#45;&gt;Node8</title>
<g id="a_edge7_Node000005_Node000008"><a xlink:title=" ">
<path fill="none" stroke="#63b8ff" d="M449,-53.25C391.73,-43.3 305.8,-28.36 252.13,-19.04"/>
<polygon fill="#63b8ff" stroke="#63b8ff" points="448.54,-56.72 459,-54.98 449.74,-49.82 448.54,-56.72"/>
</a>
</g>
</g>
<!-- Node5&#45;&gt;Node9 -->
<g id="edge8_Node000005_Node000009" class="edge">
<title>Node5&#45;&gt;Node9</title>
<g id="a_edge8_Node000005_Node000009"><a xlink:title=" ">
<path fill="none" stroke="#63b8ff" d="M567.31,-55.48C641.12,-45.5 766.44,-28.56 840.39,-18.56"/>
<polygon fill="#63b8ff" stroke="#63b8ff" points="566.69,-52.03 557.25,-56.84 567.63,-58.97 566.69,-52.03"/>
</a>
</g>
</g>
<!-- Node10 -->
<g id="Node000010" class="node">
<title>Node10</title>
<g id="a_Node000010"><a xlink:href="CCSDSUtils_8cpp.html" target="_top" xlink:title=" ">
<polygon fill="white" stroke="#666666" points="674,-19 564,-19 564,0 674,0 674,-19"/>
<text text-anchor="middle" x="619" y="-7" font-family="Helvetica,sans-Serif" font-size="10.00">src/CCSDSUtils.cpp</text>
</a>
</g>
</g>
<!-- Node5&#45;&gt;Node10 -->
<g id="edge9_Node000005_Node000010" class="edge">
<title>Node5&#45;&gt;Node10</title>
<g id="a_edge9_Node000005_Node000010"><a xlink:title=" ">
<path fill="none" stroke="#63b8ff" d="M534.95,-50.63C555.39,-40.87 582.95,-27.71 600.84,-19.17"/>
<polygon fill="#63b8ff" stroke="#63b8ff" points="533.35,-47.52 525.83,-54.98 536.37,-53.83 533.35,-47.52"/>
</a>
</g>
</g>
<!-- Node11 -->
<g id="Node000011" class="node">
<title>Node11</title>
<g id="a_Node000011"><a xlink:href="CCSDSValidator_8cpp.html" target="_top" xlink:title=" ">
<polygon fill="white" stroke="#666666" points="822,-19 692,-19 692,0 822,0 822,-19"/>
<text text-anchor="middle" x="757" y="-7" font-family="Helvetica,sans-Serif" font-size="10.00">src/CCSDSValidator.cpp</text>
</a>
</g>
</g>
<!-- Node5&#45;&gt;Node11 -->
<g id="edge10_Node000005_Node000011" class="edge">
<title>Node5&#45;&gt;Node11</title>
<g id="a_edge10_Node000005_Node000011"><a xlink:title=" ">
<path fill="none" stroke="#63b8ff" d="M557.9,-52.88C604.57,-42.94 673.39,-28.3 716.68,-19.08"/>
<polygon fill="#63b8ff" stroke="#63b8ff" points="557.06,-49.48 548.01,-54.98 558.52,-56.33 557.06,-49.48"/>
</a>
</g>
</g>
<!-- Node5&#45;&gt;Node12 -->
<g id="edge11_Node000005_Node000012" class="edge">
<title>Node5&#45;&gt;Node12</title>
<g id="a_edge11_Node000005_Node000012"><a xlink:title=" ">
<path fill="none" stroke="#63b8ff" d="M472.23,-51.8C442,-41.91 399.39,-27.97 372.23,-19.08"/>
<polygon fill="#63b8ff" stroke="#63b8ff" points="471.38,-55.2 481.97,-54.98 473.56,-48.55 471.38,-55.2"/>
</a>
</g>
</g>
<!-- Node5&#45;&gt;Node13 -->
<g id="edge12_Node000005_Node000013" class="edge">
<title>Node5&#45;&gt;Node13</title>
<g id="a_edge12_Node000005_Node000013"><a xlink:title=" ">
<path fill="none" stroke="#63b8ff" d="M448.79,-56.65C374.2,-48 242.08,-32.6 129,-19 126.12,-18.65 123.18,-18.3 120.21,-17.94"/>
<polygon fill="#63b8ff" stroke="#63b8ff" points="448.59,-60.15 458.93,-57.83 449.4,-53.2 448.59,-60.15"/>
</a>
</g>
</g>
<!-- Node14&#45;&gt;Node4 -->
<g id="edge18_Node000014_Node000004" class="edge">
<title>Node14&#45;&gt;Node4</title>
<g id="a_edge18_Node000014_Node000004"><a xlink:title=" ">
<path fill="none" stroke="#63b8ff" d="M575.05,-162.56C535.16,-152.64 477.13,-138.2 440.49,-129.08"/>
<polygon fill="#63b8ff" stroke="#63b8ff" points="574.23,-165.97 584.78,-164.98 575.92,-159.17 574.23,-165.97"/>
</a>
</g>
</g>
<!-- Node14&#45;&gt;Node11 -->
<g id="edge19_Node000014_Node000011" class="edge">
<title>Node14&#45;&gt;Node11</title>
<g id="a_edge19_Node000014_Node000011"><a xlink:title=" ">
<path fill="none" stroke="#63b8ff" d="M632.92,-157.05C661.81,-122.93 727.41,-45.45 749.54,-19.31"/>
<polygon fill="#63b8ff" stroke="#63b8ff" points="630.21,-154.84 626.42,-164.74 635.55,-159.37 630.21,-154.84"/>
</a>
</g>
</g>
<!-- Node15&#45;&gt;Node2 -->
<g id="edge24_Node000015_Node000002" class="edge">
<title>Node15&#45;&gt;Node2</title>
<g id="a_edge24_Node000015_Node000002"><a xlink:title=" ">
<path fill="none" stroke="#63b8ff" d="M1011.21,-377.02C989.69,-351.83 955.46,-311.79 940.46,-294.23"/>
<polygon fill="#63b8ff" stroke="#63b8ff" points="1008.56,-379.3 1017.71,-384.63 1013.88,-374.75 1008.56,-379.3"/>
</a>
</g>
</g>
<!-- Node15&#45;&gt;Node6 -->
<g id="edge28_Node000015_Node000006" class="edge">
<title>Node15&#45;&gt;Node6</title>
<g id="a_edge28_Node000015_Node000006"><a xlink:title=" ">
<path fill="none" stroke="#63b8ff" d="M1030,-374.44C1030,-351.46 1030,-316.15 1030,-285.5 1030,-285.5 1030,-285.5 1030,-118.5 1030,-81.21 1038.88,-37.36 1042.98,-19.12"/>
<polygon fill="#63b8ff" stroke="#63b8ff" points="1026.5,-374.67 1030,-384.67 1033.5,-374.67 1026.5,-374.67"/>
</a>
</g>
</g>
<!-- Node15&#45;&gt;Node16 -->
<g id="edge25_Node000015_Node000016" class="edge">
<title>Node15&#45;&gt;Node16</title>
<g id="a_edge25_Node000015_Node000016"><a xlink:title=" ">
<path fill="none" stroke="#63b8ff" d="M1058.29,-378.82C1072.43,-368.73 1088.8,-357.05 1099.71,-349.27"/>
<polygon fill="#63b8ff" stroke="#63b8ff" points="1055.96,-376.18 1049.85,-384.84 1060.02,-381.88 1055.96,-376.18"/>
</a>
</g>
</g>
<!-- Node16&#45;&gt;Node2 -->
<g id="edge26_Node000016_Node000002" class="edge">
<title>Node16&#45;&gt;Node2</title>
<g id="a_edge26_Node000016_Node000002"><a xlink:title=" ">
<path fill="none" stroke="#63b8ff" d="M1073.35,-327.06C1039.89,-317.15 992.25,-303.04 961.98,-294.08"/>
<polygon fill="#63b8ff" stroke="#63b8ff" points="1072.66,-330.5 1083.24,-329.98 1074.65,-323.79 1072.66,-330.5"/>
</a>
</g>
</g>
<!-- Node17 -->
<g id="Node000017" class="node">
<title>Node17</title>
<g id="a_Node000017"><a xlink:href="PusServices_8cpp.html" target="_top" xlink:title=" ">
<polygon fill="white" stroke="#666666" points="1171.5,-294 1058.5,-294 1058.5,-275 1171.5,-275 1171.5,-294"/>
<text text-anchor="middle" x="1115" y="-282" font-family="Helvetica,sans-Serif" font-size="10.00">src/PusServices.cpp</text>
</a>
</g>
</g>
<!-- Node16&#45;&gt;Node17 -->
<g id="edge27_Node000016_Node000017" class="edge">
<title>Node16&#45;&gt;Node17</title>
<g id="a_edge27_Node000016_Node000017"><a xlink:title=" ">
<path fill="none" stroke="#63b8ff" d="M1113.07,-319.66C1113.56,-310.93 1114.12,-300.99 1114.51,-294.09"/>
<polygon fill="#63b8ff" stroke="#63b8ff" points="1109.57,-319.57 1112.5,-329.75 1116.56,-319.96 1109.57,-319.57"/>
</a>
</g>
</g>
</g>
</svg>
