<?xml version="1.0" encoding="UTF-8" standalone="no"?>
<!DOCTYPE svg PUBLIC "-//W3C//DTD SVG 1.1//EN"
 "http://www.w3.org/Graphics/SVG/1.1/DTD/svg11.dtd">
<!-- Generated by graphviz version 2.43.0 (0)
 -->
<!-- Title: inc/CCSDSSecondaryHeaderAbstract.h Pages: 1 -->
<svg width="1042pt" height="489pt"
 viewBox="0.00 0.00 1041.50 489.00" xmlns="http://www.w3.org/2000/svg" xmlns:xlink="http://www.w3.org/1999/xlink">
<g id="graph0" class="graph" transform="scale(1 1) rotate(0) translate(4 485)">
<title>inc/CCSDSSecondaryHeaderAbstract.h</title>
<!-- Node1 -->
<g id="Node000001" class="node">
<title>Node1</title>
<g id="a_Node000001"><a xlink:title=" ">
<polygon fill="#999999" stroke="#666666" points="968.5,-481 815.5,-481 815.5,-451 968.5,-451 968.5,-481"/>
<text text-anchor="start" x="823.5" y="-469" font-family="Helvetica,sans-Serif" font-size="10.00">inc/CCSDSSecondaryHeader</text>
<text text-anchor="middle" x="892" y="-458" font-family="Helvetica,sans-Serif" font-size="10.00">Abstract.h</text>
</a>
</g>
</g>
<!-- Node2 -->
<g id="Node000002" class="node">
<title>Node2</title>
<g id="a_Node000002"><a xlink:href="CCSDSDataField_8h.html" target="_top" xlink:title=" ">
<polygon fill="white" stroke="#666666" points="856,-294 734,-294 734,-275 856,-275 856,-294"/>
<text text-anchor="middle" x="795" y="-282" font-family="Helvetica,sans-Serif" font-size="10.00">inc/CCSDSDataField.h</text>
</a>
</g>
</g>
<!-- Node1&#45;&gt;Node2 -->
<g id="edge1_Node000001_Node000002" class="edge">
<title>Node1&#45;&gt;Node2</title>
<g id="a_edge1_Node000001_Node000002"><a xlink:title=" ">
<path fill="none" stroke="#63b8ff" d="M842.75,-446.27C829,-438.65 815.51,-428.4 807,-415 782.19,-375.92 789.42,-316.39 793.28,-294.22"/>
<polygon fill="#63b8ff" stroke="#63b8ff" points="841.28,-449.45 851.77,-450.91 844.48,-443.23 841.28,-449.45"/>
</a>
</g>
</g>
<!-- Node14 -->
<g id="Node000014" class="node">
<title>Node14</title>
<g id="a_Node000014"><a xlink:href="CCSDSSecondaryHeaderFactory_8h.html" target="_top" xlink:title=" ">
<polygon fill="white" stroke="#666666" points="968.5,-415 815.5,-415 815.5,-385 968.5,-385 968.5,-415"/>
<text text-anchor="start" x="823.5" y="-403" font-family="Helvetica,sans-Serif" font-size="10.00">inc/CCSDSSecondaryHeader</text>
<text text-anchor="middle" x="892" y="-392" font-family="Helvetica,sans-Serif" font-size="10.00">Factory.h</text>
</a>
</g>
</g>
<!-- Node1&#45;&gt;Node14 -->
<g id="edge21_Node000001_Node000014" class="edge">
<title>Node1&#45;&gt;Node14</title>
<g id="a_edge21_Node000001_Node000014"><a xlink:title=" ">
<path fill="none" stroke="#63b8ff" d="M892,-440.54C892,-431.96 892,-422.61 892,-415.16"/>
<polygon fill="#63b8ff" stroke="#63b8ff" points="888.5,-440.8 892,-450.8 895.5,-440.8 888.5,-440.8"/>
</a>
</g>
</g>
<!-- Node15 -->
<g id="Node000015" class="node">
<title>Node15</title>
<g id="a_Node000015"><a xlink:href="PusServices_8h.html" target="_top" xlink:title=" ">
<polygon fill="white" stroke="#666666" points="1024.5,-349 923.5,-349 923.5,-330 1024.5,-330 1024.5,-349"/>
<text text-anchor="middle" x="974" y="-337" font-family="Helvetica,sans-Serif" font-size="10.00">inc/PusServices.h</text>
</a>
</g>
</g>
<!-- Node1&#45;&gt;Node15 -->
<g id="edge27_Node000001_Node000015" class="edge">
<title>Node1&#45;&gt;Node15</title>
<g id="a_edge27_Node000001_Node000015"><a xlink:title=" ">
<path fill="none" stroke="#63b8ff" d="M943.7,-446.25C957.25,-438.71 970.23,-428.51 978,-415 990.14,-393.89 982.29,-363.61 977.27,-349.01"/>
<polygon fill="#63b8ff" stroke="#63b8ff" points="942.07,-443.15 934.77,-450.83 945.26,-449.38 942.07,-443.15"/>
</a>
</g>
</g>
<!-- Node3 -->
<g id="Node000003" class="node">
<title>Node3</title>
<g id="a_Node000003"><a xlink:href="CCSDSPacket_8h.html" target="_top" xlink:title=" ">
<polygon fill="white" stroke="#666666" points="539.5,-239 432.5,-239 432.5,-220 539.5,-220 539.5,-239"/>
<text text-anchor="middle" x="486" y="-227" font-family="Helvetica,sans-Serif" font-size="10.00">inc/CCSDSPacket.h</text>
</a>
</g>
</g>
<!-- Node2&#45;&gt;Node3 -->
<g id="edge2_Node000002_Node000003" class="edge">
<title>Node2&#45;&gt;Node3</title>
<g id="a_edge2_Node000002_Node000003"><a xlink:title=" ">
<path fill="none" stroke="#63b8ff" d="M735.23,-273.25C677.2,-263.3 590.15,-248.36 535.78,-239.04"/>
<polygon fill="#63b8ff" stroke="#63b8ff" points="734.91,-276.74 745.35,-274.98 736.09,-269.84 734.91,-276.74"/>
</a>
</g>
</g>
<!-- Node6 -->
<g id="Node000006" class="node">
<title>Node6</title>
<g id="a_Node000006"><a xlink:href="CCSDSDataField_8cpp.html" target="_top" xlink:title=" ">
<polygon fill="white" stroke="#666666" points="974,-19 840,-19 840,0 974,0 974,-19"/>
<text text-anchor="middle" x="907" y="-7" font-family="Helvetica,sans-Serif" font-size="10.00">src/CCSDSDataField.cpp</text>
</a>
</g>
</g>
<!-- Node2&#45;&gt;Node6 -->
<g id="edge19_Node000002_Node000006" class="edge">
<title>Node2&#45;&gt;Node6</title>
<g id="a_edge19_Node000002_Node000006"><a xlink:title=" ">
<path fill="none" stroke="#63b8ff" d="M805.57,-266.02C817.12,-245.22 834,-209.08 834,-175.5 834,-175.5 834,-175.5 834,-118.5 834,-75.05 875.06,-36.02 895.59,-19.23"/>
<polygon fill="#63b8ff" stroke="#63b8ff" points="802.4,-264.51 800.42,-274.92 808.46,-268.02 802.4,-264.51"/>
</a>
</g>
</g>
<!-- Node9 -->
<g id="Node000009" class="node">
<title>Node9</title>
<g id="a_Node000009"><a xlink:href="CCSDSPacket_8cpp.html" target="_top" xlink:title=" ">
<polygon fill="white" stroke="#666666" points="821.5,-19 702.5,-19 702.5,0 821.5,0 821.5,-19"/>
<text text-anchor="middle" x="762" y="-7" font-family="Helvetica,sans-Serif" font-size="10.00">src/CCSDSPacket.cpp</text>
</a>
</g>
</g>
<!-- Node2&#45;&gt;Node9 -->
<g id="edge20_Node000002_Node000009" class="edge">
<title>Node2&#45;&gt;Node9</title>
<g id="a_edge20_Node000002_Node000009"><a xlink:title=" ">
<path fill="none" stroke="#63b8ff" d="M789.78,-265.23C784.16,-243.9 776,-207.44 776,-175.5 776,-175.5 776,-175.5 776,-118.5 776,-81.25 767.71,-37.38 763.89,-19.13"/>
<polygon fill="#63b8ff" stroke="#63b8ff" points="786.42,-266.19 792.44,-274.91 793.17,-264.34 786.42,-266.19"/>
</a>
</g>
</g>
<!-- Node4 -->
<g id="Node000004" class="node">
<title>Node4</title>
<g id="a_Node000004"><a xlink:href="CCSDSManager_8h.html" target="_top" xlink:title=" ">
<polygon fill="white" stroke="#666666" points="413,-129 295,-129 295,-110 413,-110 413,-129"/>
<text text-anchor="middle" x="354" y="-117" font-family="Helvetica,sans-Serif" font-size="10.00">inc/CCSDSManager.h</text>
</a>
</g>
</g>
<!-- Node3&#45;&gt;Node4 -->
<g id="edge3_Node000003_Node000004" class="edge">
<title>Node3&#45;&gt;Node4</title>
<g id="a_edge3_Node000003_Node000004"><a xlink:title=" ">
<path fill="none" stroke="#63b8ff" d="M471.32,-212.2C458.85,-198.79 440.14,-179.68 422,-165 404.78,-151.06 383.11,-137.48 368.92,-129.07"/>
<polygon fill="#63b8ff" stroke="#63b8ff" points="468.88,-214.72 478.22,-219.72 474.04,-209.98 468.88,-214.72"/>
</a>
</g>
</g>
<!-- Node5 -->
<g id="Node000005" class="node">
<title>Node5</title>
<g id="a_Node000005"><a xlink:href="CCSDSUtils_8h.html" target="_top" xlink:title=" ">
<polygon fill="white" stroke="#666666" points="535,-74 437,-74 437,-55 535,-55 535,-74"/>
<text text-anchor="middle" x="486" y="-62" font-family="Helvetica,sans-Serif" font-size="10.00">inc/CCSDSUtils.h</text>
</a>
</g>
</g>
<!-- Node3&#45;&gt;Node5 -->
<g id="edge14_Node000003_Node000005" class="edge">
<title>Node3&#45;&gt;Node5</title>
<g id="a_edge14_Node000003_Node000005"><a xlink:title=" ">
<path fill="none" stroke="#63b8ff" d="M486,-209.37C486,-174.03 486,-99.79 486,-74.31"/>
<polygon fill="#63b8ff" stroke="#63b8ff" points="482.5,-209.74 486,-219.74 489.5,-209.74 482.5,-209.74"/>
</a>
</g>
</g>
<!-- Node3&#45;&gt;Node9 -->
<g id="edge18_Node000003_Node000009" class="edge">
<title>Node3&#45;&gt;Node9</title>
<g id="a_edge18_Node000003_Node000009"><a xlink:title=" ">
<path fill="none" stroke="#63b8ff" d="M504.77,-213.68C558,-171.63 708.84,-52.49 750.96,-19.22"/>
<polygon fill="#63b8ff" stroke="#63b8ff" points="502.5,-211.01 496.82,-219.95 506.84,-216.5 502.5,-211.01"/>
</a>
</g>
</g>
<!-- Node13 -->
<g id="Node000013" class="node">
<title>Node13</title>
<g id="a_Node000013"><a xlink:href="CCSDSValidator_8h.html" target="_top" xlink:title="Defines the Validator class for CCSDS packet validation.">
<polygon fill="white" stroke="#666666" points="413.5,-184 294.5,-184 294.5,-165 413.5,-165 413.5,-184"/>
<text text-anchor="middle" x="354" y="-172" font-family="Helvetica,sans-Serif" font-size="10.00">inc/CCSDSValidator.h</text>
</a>
</g>
</g>
<!-- Node3&#45;&gt;Node13 -->
<g id="edge15_Node000003_Node000013" class="edge">
<title>Node3&#45;&gt;Node13</title>
<g id="a_edge15_Node000003_Node000013"><a xlink:title=" ">
<path fill="none" stroke="#63b8ff" d="M455.27,-216.16C430.83,-206.35 397.26,-192.87 375.59,-184.17"/>
<polygon fill="#63b8ff" stroke="#63b8ff" points="454.21,-219.51 464.79,-219.98 456.82,-213.01 454.21,-219.51"/>
</a>
</g>
</g>
<!-- Node4&#45;&gt;Node5 -->
<g id="edge4_Node000004_Node000005" class="edge">
<title>Node4&#45;&gt;Node5</title>
<g id="a_edge4_Node000004_Node000005"><a xlink:title=" ">
<path fill="none" stroke="#63b8ff" d="M384.73,-106.16C409.17,-96.35 442.74,-82.87 464.41,-74.17"/>
<polygon fill="#63b8ff" stroke="#63b8ff" points="383.18,-103.01 375.21,-109.98 385.79,-109.51 383.18,-103.01"/>
</a>
</g>
</g>
<!-- Node8 -->
<g id="Node000008" class="node">
<title>Node8</title>
<g id="a_Node000008"><a xlink:href="CCSDSManager_8cpp.html" target="_top" xlink:title=" ">
<polygon fill="white" stroke="#666666" points="415.5,-19 286.5,-19 286.5,0 415.5,0 415.5,-19"/>
<text text-anchor="middle" x="351" y="-7" font-family="Helvetica,sans-Serif" font-size="10.00">src/CCSDSManager.cpp</text>
</a>
</g>
</g>
<!-- Node4&#45;&gt;Node8 -->
<g id="edge12_Node000004_Node000008" class="edge">
<title>Node4&#45;&gt;Node8</title>
<g id="a_edge12_Node000004_Node000008"><a xlink:title=" ">
<path fill="none" stroke="#63b8ff" d="M353.47,-99.48C352.82,-75.84 351.72,-36.5 351.24,-19.16"/>
<polygon fill="#63b8ff" stroke="#63b8ff" points="349.98,-99.76 353.75,-109.66 356.98,-99.57 349.98,-99.76"/>
</a>
</g>
</g>
<!-- Node12 -->
<g id="Node000012" class="node">
<title>Node12</title>
<g id="a_Node000012"><a xlink:href="exec__encoder_8cpp.html" target="_top" xlink:title=" ">
<polygon fill="white" stroke="#666666" points="268,-19 148,-19 148,0 268,0 268,-19"/>
<text text-anchor="middle" x="208" y="-7" font-family="Helvetica,sans-Serif" font-size="10.00">src/exec_encoder.cpp</text>
</a>
</g>
</g>
<!-- Node4&#45;&gt;Node12 -->
<g id="edge13_Node000004_Node000012" class="edge">
<title>Node4&#45;&gt;Node12</title>
<g id="a_edge13_Node000004_Node000012"><a xlink:title=" ">
<path fill="none" stroke="#63b8ff" d="M334.01,-103.71C303.1,-80.85 244.69,-37.64 219.76,-19.2"/>
<polygon fill="#63b8ff" stroke="#63b8ff" points="332.18,-106.71 342.3,-109.84 336.34,-101.08 332.18,-106.71"/>
</a>
</g>
</g>
<!-- Node5&#45;&gt;Node6 -->
<g id="edge5_Node000005_Node000006" class="edge">
<title>Node5&#45;&gt;Node6</title>
<g id="a_edge5_Node000005_Node000006"><a xlink:title=" ">
<path fill="none" stroke="#63b8ff" d="M545.21,-56.05C622.79,-46.28 758.51,-29.19 839.84,-18.95"/>
<polygon fill="#63b8ff" stroke="#63b8ff" points="544.6,-52.59 535.12,-57.32 545.48,-59.54 544.6,-52.59"/>
</a>
</g>
</g>
<!-- Node7 -->
<g id="Node000007" class="node">
<title>Node7</title>
<g id="a_Node000007"><a xlink:href="CCSDSHeader_8cpp.html" target="_top" xlink:title=" ">
<polygon fill="white" stroke="#666666" points="556,-19 434,-19 434,0 556,0 556,-19"/>
<text text-anchor="middle" x="495" y="-7" font-family="Helvetica,sans-Serif" font-size="10.00">src/CCSDSHeader.cpp</text>
</a>
</g>
</g>
<!-- Node5&#45;&gt;Node7 -->
<g id="edge6_Node000005_Node000007" class="edge">
<title>Node5&#45;&gt;Node7</title>
<g id="a_edge6_Node000005_Node000007"><a xlink:title=" ">
<path fill="none" stroke="#63b8ff" d="M489.2,-44.66C490.68,-35.93 492.37,-25.99 493.54,-19.09"/>
<polygon fill="#63b8ff" stroke="#63b8ff" points="485.71,-44.3 487.49,-54.75 492.61,-45.48 485.71,-44.3"/>
</a>
</g>
</g>
<!-- Node5&#45;&gt;Node8 -->
<g id="edge7_Node000005_Node000008" class="edge">
<title>Node5&#45;&gt;Node8</title>
<g id="a_edge7_Node000005_Node000008"><a xlink:title=" ">
<path fill="none" stroke="#63b8ff" d="M454.9,-51.29C429.88,-41.47 395.34,-27.91 373.08,-19.17"/>
<polygon fill="#63b8ff" stroke="#63b8ff" points="453.72,-54.59 464.31,-54.98 456.28,-48.07 453.72,-54.59"/>
</a>
</g>
</g>
<!-- Node5&#45;&gt;Node9 -->
<g id="edge8_Node000005_Node000009" class="edge">
<title>Node5&#45;&gt;Node9</title>
<g id="a_edge8_Node000005_Node000009"><a xlink:title=" ">
<path fill="none" stroke="#63b8ff" d="M540.34,-53.07C592.08,-43.13 669.03,-28.35 717.31,-19.08"/>
<polygon fill="#63b8ff" stroke="#63b8ff" points="539.5,-49.66 530.34,-54.98 540.82,-56.54 539.5,-49.66"/>
</a>
</g>
</g>
<!-- Node10 -->
<g id="Node000010" class="node">
<title>Node10</title>
<g id="a_Node000010"><a xlink:href="CCSDSUtils_8cpp.html" target="_top" xlink:title=" ">
<polygon fill="white" stroke="#666666" points="684,-19 574,-19 574,0 684,0 684,-19"/>
<text text-anchor="middle" x="629" y="-7" font-family="Helvetica,sans-Serif" font-size="10.00">src/CCSDSUtils.cpp</text>
</a>
</g>
</g>
<!-- Node5&#45;&gt;Node10 -->
<g id="edge9_Node000005_Node000010" class="edge">
<title>Node5&#45;&gt;Node10</title>
<g id="a_edge9_Node000005_Node000010"><a xlink:title=" ">
<path fill="none" stroke="#63b8ff" d="M518.59,-51.42C545.12,-41.59 581.93,-27.95 605.61,-19.17"/>
<polygon fill="#63b8ff" stroke="#63b8ff" points="517.14,-48.23 508.98,-54.98 519.57,-54.79 517.14,-48.23"/>
</a>
</g>
</g>
<!-- Node11 -->
<g id="Node000011" class="node">
<title>Node11</title>
<g id="a_Node000011"><a xlink:href="CCSDSValidator_8cpp.html" target="_top" xlink:title=" ">
<polygon fill="white" stroke="#666666" points="130,-19 0,-19 0,0 130,0 130,-19"/>
<text text-anchor="middle" x="65" y="-7" font-family="Helvetica,sans-Serif" font-size="10.00">src/CCSDSValidator.cpp</text>
</a>
</g>
</g>
<!-- Node5&#45;&gt;Node11 -->
<g id="edge10_Node000005_Node000011" class="edge">
<title>Node5&#45;&gt;Node11</title>
<g id="a_edge10_Node000005_Node000011"><a xlink:title=" ">
<path fill="none" stroke="#63b8ff" d="M426.72,-56.04C348.54,-46.2 211.42,-28.93 130.33,-18.72"/>
<polygon fill="#63b8ff" stroke="#63b8ff" points="426.52,-59.54 436.88,-57.32 427.4,-52.59 426.52,-59.54"/>
</a>
</g>
</g>
<!-- Node5&#45;&gt;Node12 -->
<g id="edge11_Node000005_Node000012" class="edge">
<title>Node5&#45;&gt;Node12</title>
<g id="a_edge11_Node000005_Node000012"><a xlink:title=" ">
<path fill="none" stroke="#63b8ff" d="M431.27,-53.07C379.15,-43.13 301.65,-28.35 253.02,-19.08"/>
<polygon fill="#63b8ff" stroke="#63b8ff" points="430.86,-56.55 441.33,-54.98 432.17,-49.67 430.86,-56.55"/>
</a>
</g>
</g>
<!-- Node13&#45;&gt;Node4 -->
<g id="edge16_Node000013_Node000004" class="edge">
<title>Node13&#45;&gt;Node4</title>
<g id="a_edge16_Node000013_Node000004"><a xlink:title=" ">
<path fill="none" stroke="#63b8ff" d="M354,-154.66C354,-145.93 354,-135.99 354,-129.09"/>
<polygon fill="#63b8ff" stroke="#63b8ff" points="350.5,-154.75 354,-164.75 357.5,-154.75 350.5,-154.75"/>
</a>
</g>
</g>
<!-- Node13&#45;&gt;Node11 -->
<g id="edge17_Node000013_Node000011" class="edge">
<title>Node13&#45;&gt;Node11</title>
<g id="a_edge17_Node000013_Node000011"><a xlink:title=" ">
<path fill="none" stroke="#63b8ff" d="M330.11,-160.03C272.62,-127.6 127.8,-45.92 80.33,-19.15"/>
<polygon fill="#63b8ff" stroke="#63b8ff" points="328.44,-163.1 338.87,-164.97 331.88,-157 328.44,-163.1"/>
</a>
</g>
</g>
<!-- Node14&#45;&gt;Node2 -->
<g id="edge22_Node000014_Node000002" class="edge">
<title>Node14&#45;&gt;Node2</title>
<g id="a_edge22_Node000014_Node000002"><a xlink:title=" ">
<path fill="none" stroke="#63b8ff" d="M873.21,-377.02C851.69,-351.83 817.46,-311.79 802.46,-294.23"/>
<polygon fill="#63b8ff" stroke="#63b8ff" points="870.56,-379.3 879.71,-384.63 875.88,-374.75 870.56,-379.3"/>
</a>
</g>
</g>
<!-- Node14&#45;&gt;Node6 -->
<g id="edge26_Node000014_Node000006" class="edge">
<title>Node14&#45;&gt;Node6</title>
<g id="a_edge26_Node000014_Node000006"><a xlink:title=" ">
<path fill="none" stroke="#63b8ff" d="M892,-374.44C892,-351.46 892,-316.15 892,-285.5 892,-285.5 892,-285.5 892,-118.5 892,-81.21 900.88,-37.36 904.98,-19.12"/>
<polygon fill="#63b8ff" stroke="#63b8ff" points="888.5,-374.67 892,-384.67 895.5,-374.67 888.5,-374.67"/>
</a>
</g>
</g>
<!-- Node14&#45;&gt;Node15 -->
<g id="edge23_Node000014_Node000015" class="edge">
<title>Node14&#45;&gt;Node15</title>
<g id="a_edge23_Node000014_Node000015"><a xlink:title=" ">
<path fill="none" stroke="#63b8ff" d="M920.29,-378.82C934.43,-368.73 950.8,-357.05 961.71,-349.27"/>
<polygon fill="#63b8ff" stroke="#63b8ff" points="917.96,-376.18 911.85,-384.84 922.02,-381.88 917.96,-376.18"/>
</a>
</g>
</g>
<!-- Node15&#45;&gt;Node2 -->
<g id="edge24_Node000015_Node000002" class="edge">
<title>Node15&#45;&gt;Node2</title>
<g id="a_edge24_Node000015_Node000002"><a xlink:title=" ">
<path fill="none" stroke="#63b8ff" d="M935.35,-327.06C901.89,-317.15 854.25,-303.04 823.98,-294.08"/>
<polygon fill="#63b8ff" stroke="#63b8ff" points="934.66,-330.5 945.24,-329.98 936.65,-323.79 934.66,-330.5"/>
</a>
</g>
</g>
<!-- Node16 -->
<g id="Node000016" class="node">
<title>Node16</title>
<g id="a_Node000016"><a xlink:href="PusServices_8cpp.html" target="_top" xlink:title=" ">
<polygon fill="white" stroke="#666666" points="1033.5,-294 920.5,-294 920.5,-275 1033.5,-275 1033.5,-294"/>
<text text-anchor="middle" x="977" y="-282" font-family="Helvetica,sans-Serif" font-size="10.00">src/PusServices.cpp</text>
</a>
</g>
</g>
<!-- Node15&#45;&gt;Node16 -->
<g id="edge25_Node000015_Node000016" class="edge">
<title>Node15&#45;&gt;Node16</title>
<g id="a_edge25_Node000015_Node000016"><a xlink:title=" ">
<path fill="none" stroke="#63b8ff" d="M975.07,-319.66C975.56,-310.93 976.12,-300.99 976.51,-294.09"/>
<polygon fill="#63b8ff" stroke="#63b8ff" points="971.57,-319.57 974.5,-329.75 978.56,-319.96 971.57,-319.57"/>
</a>
</g>
</g>
</g>
</svg>
