<?xml version="1.0" encoding="UTF-8" standalone="no"?>
<!DOCTYPE svg PUBLIC "-//W3C//DTD SVG 1.1//EN"
 "http://www.w3.org/Graphics/SVG/1.1/DTD/svg11.dtd">
<!-- Generated by graphviz version 2.43.0 (0)
 -->
<!-- Title: printData Pages: 1 -->
<svg width="308pt" height="198pt"
 viewBox="0.00 0.00 308.00 198.00" xmlns="http://www.w3.org/2000/svg" xmlns:xlink="http://www.w3.org/1999/xlink">
<g id="graph0" class="graph" transform="scale(1 1) rotate(0) translate(4 194)">
<title>printData</title>
<!-- Node1 -->
<g id="Node000001" class="node">
<title>Node1</title>
<g id="a_Node000001"><a xlink:title="Prints the data field details, including the secondary header and application data.">
<polygon fill="#999999" stroke="#666666" points="62,-110 0,-110 0,-91 62,-91 62,-110"/>
<text text-anchor="middle" x="31" y="-98" font-family="Helvetica,sans-Serif" font-size="10.00">printData</text>
</a>
</g>
</g>
<!-- Node2 -->
<g id="Node000002" class="node">
<title>Node2</title>
<g id="a_Node000002"><a xlink:href="classCCSDS_1_1DataField.html#af446e62e6a263dbd5ef993101fa0b3c4" target="_top" xlink:title="Retrieves the application data from the data field.">
<polygon fill="white" stroke="#666666" points="300,-190 98,-190 98,-171 300,-171 300,-190"/>
<text text-anchor="middle" x="199" y="-178" font-family="Helvetica,sans-Serif" font-size="10.00">CCSDS::DataField::getApplicationData</text>
</a>
</g>
</g>
<!-- Node1&#45;&gt;Node2 -->
<g id="edge1_Node000001_Node000002" class="edge">
<title>Node1&#45;&gt;Node2</title>
<g id="a_edge1_Node000001_Node000002"><a xlink:title=" ">
<path fill="none" stroke="#63b8ff" d="M39.31,-110.29C50.36,-124.3 72.72,-149.78 98,-162.5 101.81,-164.42 105.8,-166.13 109.89,-167.67"/>
<polygon fill="#63b8ff" stroke="#63b8ff" points="108.99,-171.06 119.59,-170.93 111.23,-164.43 108.99,-171.06"/>
</a>
</g>
</g>
<!-- Node3 -->
<g id="Node000003" class="node">
<title>Node3</title>
<g id="a_Node000003"><a xlink:href="CCSDSUtils_8cpp.html#a747efd8ca2488636101433b9a3e8f1b1" target="_top" xlink:title="Generates a string of spaces for formatting binary outputs.">
<polygon fill="white" stroke="#666666" points="242,-153 156,-153 156,-134 242,-134 242,-153"/>
<text text-anchor="middle" x="199" y="-141" font-family="Helvetica,sans-Serif" font-size="10.00">getBitsSpaces</text>
</a>
</g>
</g>
<!-- Node1&#45;&gt;Node3 -->
<g id="edge2_Node000001_Node000003" class="edge">
<title>Node1&#45;&gt;Node3</title>
<g id="a_edge2_Node000001_Node000003"><a xlink:title=" ">
<path fill="none" stroke="#63b8ff" d="M55.53,-110.1C68,-114.92 83.66,-120.56 98,-124.5 113.38,-128.73 130.34,-132.33 145.85,-135.23"/>
<polygon fill="#63b8ff" stroke="#63b8ff" points="145.35,-138.7 155.81,-137.04 146.6,-131.81 145.35,-138.7"/>
</a>
</g>
</g>
<!-- Node4 -->
<g id="Node000004" class="node">
<title>Node4</title>
<g id="a_Node000004"><a xlink:href="classCCSDS_1_1DataField.html#ac414a4c6ffe4d3cce1c225833e550a1f" target="_top" xlink:title="Retrieves the secondary header data as a vector of bytes.">
<polygon fill="white" stroke="#666666" points="272.5,-115.5 125.5,-115.5 125.5,-85.5 272.5,-85.5 272.5,-115.5"/>
<text text-anchor="start" x="133.5" y="-103.5" font-family="Helvetica,sans-Serif" font-size="10.00">CCSDS::DataField::getData</text>
<text text-anchor="middle" x="199" y="-92.5" font-family="Helvetica,sans-Serif" font-size="10.00">FieldHeaderBytes</text>
</a>
</g>
</g>
<!-- Node1&#45;&gt;Node4 -->
<g id="edge3_Node000001_Node000004" class="edge">
<title>Node1&#45;&gt;Node4</title>
<g id="a_edge3_Node000001_Node000004"><a xlink:title=" ">
<path fill="none" stroke="#63b8ff" d="M62.06,-100.5C77.11,-100.5 96.14,-100.5 115.16,-100.5"/>
<polygon fill="#63b8ff" stroke="#63b8ff" points="115.39,-104 125.39,-100.5 115.39,-97 115.39,-104"/>
</a>
</g>
</g>
<!-- Node5 -->
<g id="Node000005" class="node">
<title>Node5</title>
<g id="a_Node000005"><a xlink:href="classCCSDS_1_1DataField.html#a78c2894fc2650e0dc9ec892d58dfde7a" target="_top" xlink:title="retrieves true if a known secondary header has been set">
<polygon fill="white" stroke="#666666" points="272.5,-67.5 125.5,-67.5 125.5,-37.5 272.5,-37.5 272.5,-67.5"/>
<text text-anchor="start" x="133.5" y="-55.5" font-family="Helvetica,sans-Serif" font-size="10.00">CCSDS::DataField::getData</text>
<text text-anchor="middle" x="199" y="-44.5" font-family="Helvetica,sans-Serif" font-size="10.00">FieldHeaderFlag</text>
</a>
</g>
</g>
<!-- Node1&#45;&gt;Node5 -->
<g id="edge4_Node000001_Node000005" class="edge">
<title>Node1&#45;&gt;Node5</title>
<g id="a_edge4_Node000001_Node000005"><a xlink:title=" ">
<path fill="none" stroke="#63b8ff" d="M56.23,-90.94C68.61,-86.25 83.99,-80.71 98,-76.5 105.39,-74.28 113.14,-72.12 120.92,-70.07"/>
<polygon fill="#63b8ff" stroke="#63b8ff" points="121.94,-73.42 130.75,-67.53 120.19,-66.64 121.94,-73.42"/>
</a>
</g>
</g>
<!-- Node6 -->
<g id="Node000006" class="node">
<title>Node6</title>
<g id="a_Node000006"><a xlink:href="CCSDSUtils_8cpp.html#aa9bf20021d73232b0769aa261e5b6e5f" target="_top" xlink:title="Prints to console the HEX data from the bytes vector.">
<polygon fill="white" stroke="#666666" points="245,-19 153,-19 153,0 245,0 245,-19"/>
<text text-anchor="middle" x="199" y="-7" font-family="Helvetica,sans-Serif" font-size="10.00">printBufferData</text>
</a>
</g>
</g>
<!-- Node1&#45;&gt;Node6 -->
<g id="edge5_Node000001_Node000006" class="edge">
<title>Node1&#45;&gt;Node6</title>
<g id="a_edge5_Node000001_Node000006"><a xlink:title=" ">
<path fill="none" stroke="#63b8ff" d="M37.76,-90.99C47.85,-75.24 70.3,-43.93 98,-28.5 111.48,-20.99 127.41,-16.39 142.54,-13.59"/>
<polygon fill="#63b8ff" stroke="#63b8ff" points="143.53,-16.98 152.84,-11.93 142.41,-10.07 143.53,-16.98"/>
</a>
</g>
</g>
</g>
</svg>
