<?xml version="1.0" encoding="UTF-8" standalone="no"?>
<!DOCTYPE svg PUBLIC "-//W3C//DTD SVG 1.1//EN"
 "http://www.w3.org/Graphics/SVG/1.1/DTD/svg11.dtd">
<!-- Generated by graphviz version 2.43.0 (0)
 -->
<!-- Title: inc/CCSDSDataField.h Pages: 1 -->
<svg width="598pt" height="357pt"
 viewBox="0.00 0.00 598.00 357.00" xmlns="http://www.w3.org/2000/svg" xmlns:xlink="http://www.w3.org/1999/xlink">
<g id="graph0" class="graph" transform="scale(1 1) rotate(0) translate(4 353)">
<title>inc/CCSDSDataField.h</title>
<!-- Node1 -->
<g id="Node000001" class="node">
<title>Node1</title>
<g id="a_Node000001"><a xlink:title=" ">
<polygon fill="#999999" stroke="#666666" points="417,-349 295,-349 295,-330 417,-330 417,-349"/>
<text text-anchor="middle" x="356" y="-337" font-family="Helvetica,sans-Serif" font-size="10.00">inc/CCSDSDataField.h</text>
</a>
</g>
</g>
<!-- Node2 -->
<g id="Node000002" class="node">
<title>Node2</title>
<g id="a_Node000002"><a xlink:href="CCSDSResult_8h.html" target="_top" xlink:title=" ">
<polygon fill="white" stroke="#666666" points="148.5,-74 59.5,-74 59.5,-55 148.5,-55 148.5,-74"/>
<text text-anchor="middle" x="104" y="-62" font-family="Helvetica,sans-Serif" font-size="10.00">CCSDSResult.h</text>
</a>
</g>
</g>
<!-- Node1&#45;&gt;Node2 -->
<g id="edge1_Node000001_Node000002" class="edge">
<title>Node1&#45;&gt;Node2</title>
<g id="a_edge1_Node000001_Node000002"><a xlink:title=" ">
<path fill="none" stroke="#63b8ff" d="M294.69,-330.41C202.28,-316.47 38,-284.14 38,-230.5 38,-230.5 38,-230.5 38,-173.5 38,-136.23 66.98,-100.93 86.53,-81.36"/>
<polygon fill="#63b8ff" stroke="#63b8ff" points="89.19,-83.65 93.98,-74.2 84.34,-78.61 89.19,-83.65"/>
</a>
</g>
</g>
<!-- Node5 -->
<g id="Node000005" class="node">
<title>Node5</title>
<g id="a_Node000005"><a xlink:title=" ">
<polygon fill="#e0e0e0" stroke="#999999" points="374.5,-19 327.5,-19 327.5,0 374.5,0 374.5,-19"/>
<text text-anchor="middle" x="351" y="-7" font-family="Helvetica,sans-Serif" font-size="10.00">vector</text>
</a>
</g>
</g>
<!-- Node1&#45;&gt;Node5 -->
<g id="edge7_Node000001_Node000005" class="edge">
<title>Node1&#45;&gt;Node5</title>
<g id="a_edge7_Node000001_Node000005"><a xlink:title=" ">
<path fill="none" stroke="#63b8ff" d="M417.18,-335.91C486.51,-329.3 590,-306.68 590,-230.5 590,-230.5 590,-230.5 590,-118.5 590,-29.65 451.13,-13.5 385.1,-10.84"/>
<polygon fill="#63b8ff" stroke="#63b8ff" points="384.9,-7.34 374.79,-10.52 384.67,-14.33 384.9,-7.34"/>
</a>
</g>
</g>
<!-- Node8 -->
<g id="Node000008" class="node">
<title>Node8</title>
<g id="a_Node000008"><a xlink:title=" ">
<polygon fill="#e0e0e0" stroke="#999999" points="562,-184 504,-184 504,-165 562,-165 562,-184"/>
<text text-anchor="middle" x="533" y="-172" font-family="Helvetica,sans-Serif" font-size="10.00">memory</text>
</a>
</g>
</g>
<!-- Node1&#45;&gt;Node8 -->
<g id="edge8_Node000001_Node000008" class="edge">
<title>Node1&#45;&gt;Node8</title>
<g id="a_edge8_Node000001_Node000008"><a xlink:title=" ">
<path fill="none" stroke="#63b8ff" d="M379.6,-329.91C414.22,-316.11 478.5,-285.72 514,-239 523.9,-225.97 528.66,-207.83 530.94,-194.27"/>
<polygon fill="#63b8ff" stroke="#63b8ff" points="534.44,-194.55 532.33,-184.17 527.5,-193.6 534.44,-194.55"/>
</a>
</g>
</g>
<!-- Node9 -->
<g id="Node000009" class="node">
<title>Node9</title>
<g id="a_Node000009"><a xlink:href="CCSDSSecondaryHeaderAbstract_8h.html" target="_top" xlink:title=" ">
<polygon fill="white" stroke="#666666" points="288.5,-184 103.5,-184 103.5,-165 288.5,-165 288.5,-184"/>
<text text-anchor="middle" x="196" y="-172" font-family="Helvetica,sans-Serif" font-size="10.00">CCSDSSecondaryHeaderAbstract.h</text>
</a>
</g>
</g>
<!-- Node1&#45;&gt;Node9 -->
<g id="edge9_Node000001_Node000009" class="edge">
<title>Node1&#45;&gt;Node9</title>
<g id="a_edge9_Node000001_Node000009"><a xlink:title=" ">
<path fill="none" stroke="#63b8ff" d="M314.55,-329.98C291.85,-323.46 264.64,-312.36 246,-294 217.73,-266.15 204.62,-219.87 199.24,-194.16"/>
<polygon fill="#63b8ff" stroke="#63b8ff" points="202.65,-193.39 197.33,-184.22 195.78,-194.7 202.65,-193.39"/>
</a>
</g>
</g>
<!-- Node12 -->
<g id="Node000012" class="node">
<title>Node12</title>
<g id="a_Node000012"><a xlink:href="CCSDSSecondaryHeaderFactory_8h.html" target="_top" xlink:title=" ">
<polygon fill="white" stroke="#666666" points="504.5,-239 325.5,-239 325.5,-220 504.5,-220 504.5,-239"/>
<text text-anchor="middle" x="415" y="-227" font-family="Helvetica,sans-Serif" font-size="10.00">CCSDSSecondaryHeaderFactory.h</text>
</a>
</g>
</g>
<!-- Node1&#45;&gt;Node12 -->
<g id="edge18_Node000001_Node000012" class="edge">
<title>Node1&#45;&gt;Node12</title>
<g id="a_edge18_Node000001_Node000012"><a xlink:title=" ">
<path fill="none" stroke="#63b8ff" d="M360.83,-329.66C370.56,-311.85 392.68,-271.37 405.44,-248.01"/>
<polygon fill="#63b8ff" stroke="#63b8ff" points="408.55,-249.61 410.27,-239.16 402.4,-246.26 408.55,-249.61"/>
</a>
</g>
</g>
<!-- Node14 -->
<g id="Node000014" class="node">
<title>Node14</title>
<g id="a_Node000014"><a xlink:href="PusServices_8h.html" target="_top" xlink:title=" ">
<polygon fill="white" stroke="#666666" points="339,-294 255,-294 255,-275 339,-275 339,-294"/>
<text text-anchor="middle" x="297" y="-282" font-family="Helvetica,sans-Serif" font-size="10.00">PusServices.h</text>
</a>
</g>
</g>
<!-- Node1&#45;&gt;Node14 -->
<g id="edge24_Node000001_Node000014" class="edge">
<title>Node1&#45;&gt;Node14</title>
<g id="a_edge24_Node000001_Node000014"><a xlink:title=" ">
<path fill="none" stroke="#63b8ff" d="M346.52,-329.98C337.8,-322.15 324.66,-310.34 314.1,-300.86"/>
<polygon fill="#63b8ff" stroke="#63b8ff" points="316.43,-298.25 306.65,-294.17 311.75,-303.46 316.43,-298.25"/>
</a>
</g>
</g>
<!-- Node3 -->
<g id="Node000003" class="node">
<title>Node3</title>
<g id="a_Node000003"><a xlink:title=" ">
<polygon fill="#e0e0e0" stroke="#999999" points="309.5,-19 216.5,-19 216.5,0 309.5,0 309.5,-19"/>
<text text-anchor="middle" x="263" y="-7" font-family="Helvetica,sans-Serif" font-size="10.00">unordered_map</text>
</a>
</g>
</g>
<!-- Node2&#45;&gt;Node3 -->
<g id="edge2_Node000002_Node000003" class="edge">
<title>Node2&#45;&gt;Node3</title>
<g id="a_edge2_Node000002_Node000003"><a xlink:title=" ">
<path fill="none" stroke="#63b8ff" d="M129.55,-54.98C156.12,-46.13 197.94,-32.19 227.67,-22.28"/>
<polygon fill="#63b8ff" stroke="#63b8ff" points="228.87,-25.56 237.25,-19.08 226.66,-18.92 228.87,-25.56"/>
</a>
</g>
</g>
<!-- Node4 -->
<g id="Node000004" class="node">
<title>Node4</title>
<g id="a_Node000004"><a xlink:title=" ">
<polygon fill="#e0e0e0" stroke="#999999" points="129.5,-19 78.5,-19 78.5,0 129.5,0 129.5,-19"/>
<text text-anchor="middle" x="104" y="-7" font-family="Helvetica,sans-Serif" font-size="10.00">variant</text>
</a>
</g>
</g>
<!-- Node2&#45;&gt;Node4 -->
<g id="edge3_Node000002_Node000004" class="edge">
<title>Node2&#45;&gt;Node4</title>
<g id="a_edge3_Node000002_Node000004"><a xlink:title=" ">
<path fill="none" stroke="#63b8ff" d="M104,-54.75C104,-47.8 104,-37.85 104,-29.13"/>
<polygon fill="#63b8ff" stroke="#63b8ff" points="107.5,-29.09 104,-19.09 100.5,-29.09 107.5,-29.09"/>
</a>
</g>
</g>
<!-- Node2&#45;&gt;Node5 -->
<g id="edge4_Node000002_Node000005" class="edge">
<title>Node2&#45;&gt;Node5</title>
<g id="a_edge4_Node000002_Node000005"><a xlink:title=" ">
<path fill="none" stroke="#63b8ff" d="M148.63,-55.01C190.1,-46.96 253.79,-34.17 317.47,-19.27"/>
<polygon fill="#63b8ff" stroke="#63b8ff" points="318.34,-22.66 327.27,-16.96 316.74,-15.85 318.34,-22.66"/>
</a>
</g>
</g>
<!-- Node6 -->
<g id="Node000006" class="node">
<title>Node6</title>
<g id="a_Node000006"><a xlink:title=" ">
<polygon fill="#e0e0e0" stroke="#999999" points="198,-19 148,-19 148,0 198,0 198,-19"/>
<text text-anchor="middle" x="173" y="-7" font-family="Helvetica,sans-Serif" font-size="10.00">cstdint</text>
</a>
</g>
</g>
<!-- Node2&#45;&gt;Node6 -->
<g id="edge5_Node000002_Node000006" class="edge">
<title>Node2&#45;&gt;Node6</title>
<g id="a_edge5_Node000002_Node000006"><a xlink:title=" ">
<path fill="none" stroke="#63b8ff" d="M115.09,-54.98C125.49,-47 141.26,-34.88 153.72,-25.31"/>
<polygon fill="#63b8ff" stroke="#63b8ff" points="155.91,-28.04 161.71,-19.17 151.65,-22.49 155.91,-28.04"/>
</a>
</g>
</g>
<!-- Node7 -->
<g id="Node000007" class="node">
<title>Node7</title>
<g id="a_Node000007"><a xlink:title=" ">
<polygon fill="#e0e0e0" stroke="#999999" points="60,-19 0,-19 0,0 60,0 60,-19"/>
<text text-anchor="middle" x="30" y="-7" font-family="Helvetica,sans-Serif" font-size="10.00">iostream</text>
</a>
</g>
</g>
<!-- Node2&#45;&gt;Node7 -->
<g id="edge6_Node000002_Node000007" class="edge">
<title>Node2&#45;&gt;Node7</title>
<g id="a_edge6_Node000002_Node000007"><a xlink:title=" ">
<path fill="none" stroke="#63b8ff" d="M92.11,-54.98C80.85,-46.92 63.71,-34.65 50.29,-25.03"/>
<polygon fill="#63b8ff" stroke="#63b8ff" points="52.27,-22.15 42.11,-19.17 48.2,-27.84 52.27,-22.15"/>
</a>
</g>
</g>
<!-- Node9&#45;&gt;Node2 -->
<g id="edge10_Node000009_Node000002" class="edge">
<title>Node9&#45;&gt;Node2</title>
<g id="a_edge10_Node000009_Node000002"><a xlink:title=" ">
<path fill="none" stroke="#63b8ff" d="M188.47,-164.66C173.1,-146.61 137.88,-105.28 118.12,-82.08"/>
<polygon fill="#63b8ff" stroke="#63b8ff" points="120.52,-79.5 111.38,-74.16 115.2,-84.04 120.52,-79.5"/>
</a>
</g>
</g>
<!-- Node9&#45;&gt;Node5 -->
<g id="edge16_Node000009_Node000005" class="edge">
<title>Node9&#45;&gt;Node5</title>
<g id="a_edge16_Node000009_Node000005"><a xlink:title=" ">
<path fill="none" stroke="#63b8ff" d="M200.27,-164.72C206.75,-151.91 219.89,-127.72 235,-110 264.29,-75.66 305.88,-43.03 330.48,-24.99"/>
<polygon fill="#63b8ff" stroke="#63b8ff" points="332.67,-27.73 338.72,-19.03 328.57,-22.05 332.67,-27.73"/>
</a>
</g>
</g>
<!-- Node9&#45;&gt;Node6 -->
<g id="edge17_Node000009_Node000006" class="edge">
<title>Node9&#45;&gt;Node6</title>
<g id="a_edge17_Node000009_Node000006"><a xlink:title=" ">
<path fill="none" stroke="#63b8ff" d="M194.76,-164.74C191.16,-139.2 180.61,-64.43 175.64,-29.23"/>
<polygon fill="#63b8ff" stroke="#63b8ff" points="179.11,-28.72 174.24,-19.31 172.17,-29.7 179.11,-28.72"/>
</a>
</g>
</g>
<!-- Node10 -->
<g id="Node000010" class="node">
<title>Node10</title>
<g id="a_Node000010"><a xlink:href="CCSDSConfig_8h.html" target="_top" xlink:title=" ">
<polygon fill="white" stroke="#666666" points="332.5,-129 243.5,-129 243.5,-110 332.5,-110 332.5,-129"/>
<text text-anchor="middle" x="288" y="-117" font-family="Helvetica,sans-Serif" font-size="10.00">CCSDSConfig.h</text>
</a>
</g>
</g>
<!-- Node9&#45;&gt;Node10 -->
<g id="edge11_Node000009_Node000010" class="edge">
<title>Node9&#45;&gt;Node10</title>
<g id="a_edge11_Node000009_Node000010"><a xlink:title=" ">
<path fill="none" stroke="#63b8ff" d="M210.78,-164.98C225.18,-156.69 247.31,-143.94 264.19,-134.22"/>
<polygon fill="#63b8ff" stroke="#63b8ff" points="266.03,-137.19 272.95,-129.17 262.54,-131.13 266.03,-137.19"/>
</a>
</g>
</g>
<!-- Node10&#45;&gt;Node2 -->
<g id="edge15_Node000010_Node000002" class="edge">
<title>Node10&#45;&gt;Node2</title>
<g id="a_edge15_Node000010_Node000002"><a xlink:title=" ">
<path fill="none" stroke="#63b8ff" d="M258.44,-109.98C227.28,-101.01 178.03,-86.82 143.54,-76.89"/>
<polygon fill="#63b8ff" stroke="#63b8ff" points="144.37,-73.49 133.79,-74.08 142.43,-80.21 144.37,-73.49"/>
</a>
</g>
</g>
<!-- Node10&#45;&gt;Node5 -->
<g id="edge14_Node000010_Node000005" class="edge">
<title>Node10&#45;&gt;Node5</title>
<g id="a_edge14_Node000010_Node000005"><a xlink:title=" ">
<path fill="none" stroke="#63b8ff" d="M291.18,-109.98C296,-97.5 305.78,-73.71 317,-55 322.8,-45.33 330.33,-35.28 336.83,-27.19"/>
<polygon fill="#63b8ff" stroke="#63b8ff" points="339.68,-29.22 343.34,-19.28 334.28,-24.77 339.68,-29.22"/>
</a>
</g>
</g>
<!-- Node10&#45;&gt;Node6 -->
<g id="edge13_Node000010_Node000006" class="edge">
<title>Node10&#45;&gt;Node6</title>
<g id="a_edge13_Node000010_Node000006"><a xlink:title=" ">
<path fill="none" stroke="#63b8ff" d="M278.59,-109.66C259.12,-91.38 214.19,-49.18 189.68,-26.17"/>
<polygon fill="#63b8ff" stroke="#63b8ff" points="191.91,-23.45 182.22,-19.16 187.11,-28.56 191.91,-23.45"/>
</a>
</g>
</g>
<!-- Node11 -->
<g id="Node000011" class="node">
<title>Node11</title>
<g id="a_Node000011"><a xlink:title=" ">
<polygon fill="#e0e0e0" stroke="#999999" points="370,-74 326,-74 326,-55 370,-55 370,-74"/>
<text text-anchor="middle" x="348" y="-62" font-family="Helvetica,sans-Serif" font-size="10.00">string</text>
</a>
</g>
</g>
<!-- Node10&#45;&gt;Node11 -->
<g id="edge12_Node000010_Node000011" class="edge">
<title>Node10&#45;&gt;Node11</title>
<g id="a_edge12_Node000010_Node000011"><a xlink:title=" ">
<path fill="none" stroke="#63b8ff" d="M297.64,-109.98C306.51,-102.15 319.87,-90.34 330.61,-80.86"/>
<polygon fill="#63b8ff" stroke="#63b8ff" points="333.01,-83.41 338.18,-74.17 328.37,-78.17 333.01,-83.41"/>
</a>
</g>
</g>
<!-- Node12&#45;&gt;Node3 -->
<g id="edge20_Node000012_Node000003" class="edge">
<title>Node12&#45;&gt;Node3</title>
<g id="a_edge20_Node000012_Node000003"><a xlink:title=" ">
<path fill="none" stroke="#63b8ff" d="M403.07,-219.8C393.17,-211.77 379.81,-198.87 374,-184 353.13,-130.55 411.5,-102.28 379,-55 370.42,-42.52 336.34,-30.34 307.33,-21.89"/>
<polygon fill="#63b8ff" stroke="#63b8ff" points="307.9,-18.41 297.32,-19.06 305.99,-25.15 307.9,-18.41"/>
</a>
</g>
</g>
<!-- Node12&#45;&gt;Node8 -->
<g id="edge19_Node000012_Node000008" class="edge">
<title>Node12&#45;&gt;Node8</title>
<g id="a_edge19_Node000012_Node000008"><a xlink:title=" ">
<path fill="none" stroke="#63b8ff" d="M433.96,-219.98C453.03,-211.42 482.66,-198.11 504.55,-188.28"/>
<polygon fill="#63b8ff" stroke="#63b8ff" points="506.01,-191.46 513.7,-184.17 503.14,-185.07 506.01,-191.46"/>
</a>
</g>
</g>
<!-- Node12&#45;&gt;Node9 -->
<g id="edge23_Node000012_Node000009" class="edge">
<title>Node12&#45;&gt;Node9</title>
<g id="a_edge23_Node000012_Node000009"><a xlink:title=" ">
<path fill="none" stroke="#63b8ff" d="M379.81,-219.98C342.17,-210.87 282.34,-196.4 241.23,-186.45"/>
<polygon fill="#63b8ff" stroke="#63b8ff" points="242,-183.03 231.46,-184.08 240.36,-189.84 242,-183.03"/>
</a>
</g>
</g>
<!-- Node12&#45;&gt;Node11 -->
<g id="edge22_Node000012_Node000011" class="edge">
<title>Node12&#45;&gt;Node11</title>
<g id="a_edge22_Node000012_Node000011"><a xlink:title=" ">
<path fill="none" stroke="#63b8ff" d="M427.76,-219.81C443.28,-208.07 466.34,-186.16 457,-165 439.89,-126.21 399.35,-95.99 372.82,-79.47"/>
<polygon fill="#63b8ff" stroke="#63b8ff" points="374.46,-76.37 364.09,-74.21 370.85,-82.37 374.46,-76.37"/>
</a>
</g>
</g>
<!-- Node13 -->
<g id="Node000013" class="node">
<title>Node13</title>
<g id="a_Node000013"><a xlink:title=" ">
<polygon fill="#e0e0e0" stroke="#999999" points="447.5,-184 382.5,-184 382.5,-165 447.5,-165 447.5,-184"/>
<text text-anchor="middle" x="415" y="-172" font-family="Helvetica,sans-Serif" font-size="10.00">functional</text>
</a>
</g>
</g>
<!-- Node12&#45;&gt;Node13 -->
<g id="edge21_Node000012_Node000013" class="edge">
<title>Node12&#45;&gt;Node13</title>
<g id="a_edge21_Node000012_Node000013"><a xlink:title=" ">
<path fill="none" stroke="#63b8ff" d="M415,-219.75C415,-212.8 415,-202.85 415,-194.13"/>
<polygon fill="#63b8ff" stroke="#63b8ff" points="418.5,-194.09 415,-184.09 411.5,-194.09 418.5,-194.09"/>
</a>
</g>
</g>
<!-- Node14&#45;&gt;Node2 -->
<g id="edge27_Node000014_Node000002" class="edge">
<title>Node14&#45;&gt;Node2</title>
<g id="a_edge27_Node000014_Node000002"><a xlink:title=" ">
<path fill="none" stroke="#63b8ff" d="M254.76,-276.34C206.32,-265.62 129.1,-240.29 94,-184 74.68,-153.02 86.82,-108.3 96.18,-83.6"/>
<polygon fill="#63b8ff" stroke="#63b8ff" points="99.53,-84.64 100.04,-74.06 93.04,-82.02 99.53,-84.64"/>
</a>
</g>
</g>
<!-- Node14&#45;&gt;Node9 -->
<g id="edge25_Node000014_Node000009" class="edge">
<title>Node14&#45;&gt;Node9</title>
<g id="a_edge25_Node000014_Node000009"><a xlink:title=" ">
<path fill="none" stroke="#63b8ff" d="M288.73,-274.66C271.71,-256.46 232.52,-214.55 210.93,-191.47"/>
<polygon fill="#63b8ff" stroke="#63b8ff" points="213.48,-189.07 204.1,-184.16 208.37,-193.85 213.48,-189.07"/>
</a>
</g>
</g>
<!-- Node14&#45;&gt;Node10 -->
<g id="edge28_Node000014_Node000010" class="edge">
<title>Node14&#45;&gt;Node10</title>
<g id="a_edge28_Node000014_Node000010"><a xlink:title=" ">
<path fill="none" stroke="#63b8ff" d="M297.59,-274.85C298.79,-255.24 301.1,-205.94 297,-165 296.15,-156.47 294.39,-147.16 292.66,-139.27"/>
<polygon fill="#63b8ff" stroke="#63b8ff" points="296.01,-138.22 290.32,-129.29 289.2,-139.82 296.01,-138.22"/>
</a>
</g>
</g>
<!-- Node14&#45;&gt;Node12 -->
<g id="edge26_Node000014_Node000012" class="edge">
<title>Node14&#45;&gt;Node12</title>
<g id="a_edge26_Node000014_Node000012"><a xlink:title=" ">
<path fill="none" stroke="#63b8ff" d="M315.96,-274.98C335.03,-266.42 364.66,-253.11 386.55,-243.28"/>
<polygon fill="#63b8ff" stroke="#63b8ff" points="388.01,-246.46 395.7,-239.17 385.14,-240.07 388.01,-246.46"/>
</a>
</g>
</g>
</g>
</svg>
