<?xml version="1.0" encoding="UTF-8" standalone="no"?>
<!DOCTYPE svg PUBLIC "-//W3C//DTD SVG 1.1//EN"
 "http://www.w3.org/Graphics/SVG/1.1/DTD/svg11.dtd">
<!-- Generated by graphviz version 2.43.0 (0)
 -->
<!-- Title: inc/CCSDSPack.h Pages: 1 -->
<!--zoomable 632 -->

<svg id="main" version="1.1" xmlns="http://www.w3.org/2000/svg" xmlns:xlink="http://www.w3.org/1999/xlink" xml:space="preserve" onload="init(evt)">
<style type="text/css"><![CDATA[
.node, .edge {opacity: 0.7;}
.node.selected, .edge.selected {opacity: 1;}
.edge:hover path { stroke: red; }
.edge:hover polygon { stroke: red; fill: red; }
]]></style>

<defs>
  <circle id="rim" cx="0" cy="0" r="7"/>
  <circle id="rim2" cx="0" cy="0" r="3.5"/>
  <g id="zoomPlus">
    <use xlink:href="#rim" fill="#404040"><set attributeName="fill" to="#808080" begin="zoomplus.mouseover" end="zoomplus.mouseout"/></use>
    <path d="M-4,0h8M0,-4v8" fill="none" stroke="white" stroke-width="1.5" pointer-events="none"/>
  </g>
  <g id="zoomMin">
    <use xlink:href="#rim" fill="#404040"><set attributeName="fill" to="#808080" begin="zoomminus.mouseover" end="zoomminus.mouseout"/></use>
    <path d="M-4,0h8" fill="none" stroke="white" stroke-width="1.5" pointer-events="none"/>
  </g>
  <g id="arrowUp" transform="translate(30 24)">
    <use xlink:href="#rim"/>
    <path pointer-events="none" fill="none" stroke="white" stroke-width="1.5" d="M0,-3.0v7 M-2.5,-0.5L0,-3.0L2.5,-0.5"/>
  </g>
  <g id="arrowRight" transform="rotate(90) translate(36 -43)">
    <use xlink:href="#rim"/>
    <path pointer-events="none" fill="none" stroke="white" stroke-width="1.5" d="M0,-3.0v7 M-2.5,-0.5L0,-3.0L2.5,-0.5"/>
  </g>
  <g id="arrowDown" transform="rotate(180) translate(-30 -48)">
    <use xlink:href="#rim"/>
    <path pointer-events="none" fill="none" stroke="white" stroke-width="1.5" d="M0,-3.0v7 M-2.5,-0.5L0,-3.0L2.5,-0.5"/>
  </g>
  <g id="arrowLeft" transform="rotate(270) translate(-36 17)">
    <use xlink:href="#rim"/>
    <path pointer-events="none" fill="none" stroke="white" stroke-width="1.5" d="M0,-3.0v7 M-2.5,-0.5L0,-3.0L2.5,-0.5"/>
  </g>
  <g id="resetDef">
    <use xlink:href="#rim2" fill="#404040"><set attributeName="fill" to="#808080" begin="reset.mouseover" end="reset.mouseout"/></use>
  </g>
</defs>
<script type="application/ecmascript">
var viewWidth = 884;
var viewHeight = 632;
var sectionId = 'dynsection-0';
</script>
<script type="application/ecmascript" xlink:href="svg.min.js"/>
<svg id="graph" class="graph">
<g id="viewport">
<title>inc/CCSDSPack.h</title>
<!-- Node1 -->
<g id="Node000001" class="node">
<title>Node1</title>
<g id="a_Node000001"><a xlink:title=" ">
<polygon fill="#999999" stroke="#666666" points="514,-624 416,-624 416,-605 514,-605 514,-624"/>
<text text-anchor="middle" x="465" y="-612" font-family="Helvetica,sans-Serif" font-size="10.00">inc/CCSDSPack.h</text>
</a>
</g>
</g>
<!-- Node2 -->
<g id="Node000002" class="node">
<title>Node2</title>
<g id="a_Node000002"><a xlink:href="CCSDSDataField_8h.html" target="_top" xlink:title=" ">
<polygon fill="white" stroke="#666666" points="555.5,-349 450.5,-349 450.5,-330 555.5,-330 555.5,-349"/>
<text text-anchor="middle" x="503" y="-337" font-family="Helvetica,sans-Serif" font-size="10.00">CCSDSDataField.h</text>
</a>
</g>
</g>
<!-- Node1&#45;&gt;Node2 -->
<g id="edge1_Node000001_Node000002" class="edge">
<title>Node1&#45;&gt;Node2</title>
<g id="a_edge1_Node000001_Node000002"><a xlink:title=" ">
<path fill="none" stroke="#63b8ff" d="M459.72,-604.9C449.27,-587.07 427,-544.46 427,-505.5 427,-505.5 427,-505.5 427,-448.5 427,-409.47 460.61,-374.58 483.13,-355.6"/>
<polygon fill="#63b8ff" stroke="#63b8ff" points="485.56,-358.14 491.12,-349.12 481.15,-352.7 485.56,-358.14"/>
</a>
</g>
</g>
<!-- Node3 -->
<g id="Node000003" class="node">
<title>Node3</title>
<g id="a_Node000003"><a xlink:href="CCSDSResult_8h.html" target="_top" xlink:title=" ">
<polygon fill="white" stroke="#666666" points="730.5,-74 641.5,-74 641.5,-55 730.5,-55 730.5,-74"/>
<text text-anchor="middle" x="686" y="-62" font-family="Helvetica,sans-Serif" font-size="10.00">CCSDSResult.h</text>
</a>
</g>
</g>
<!-- Node1&#45;&gt;Node3 -->
<g id="edge45_Node000001_Node000003" class="edge">
<title>Node1&#45;&gt;Node3</title>
<g id="a_edge45_Node000001_Node000003"><a xlink:title=" ">
<path fill="none" stroke="#63b8ff" d="M514.14,-611.4C567.22,-607.69 653.39,-597.43 722,-569 786.46,-542.29 804.08,-522.03 834,-459 890.13,-340.73 881.9,-292.45 852,-165 845.78,-138.49 845.61,-127.79 825,-110 811.08,-97.98 768.25,-85.28 733.77,-76.54"/>
<polygon fill="#63b8ff" stroke="#63b8ff" points="734.39,-73.09 723.84,-74.07 732.7,-79.88 734.39,-73.09"/>
</a>
</g>
</g>
<!-- Node9 -->
<g id="Node000009" class="node">
<title>Node9</title>
<g id="a_Node000009"><a xlink:href="CCSDSSecondaryHeaderAbstract_8h.html" target="_top" xlink:title=" ">
<polygon fill="white" stroke="#666666" points="508.5,-184 323.5,-184 323.5,-165 508.5,-165 508.5,-184"/>
<text text-anchor="middle" x="416" y="-172" font-family="Helvetica,sans-Serif" font-size="10.00">CCSDSSecondaryHeaderAbstract.h</text>
</a>
</g>
</g>
<!-- Node1&#45;&gt;Node9 -->
<g id="edge46_Node000001_Node000009" class="edge">
<title>Node1&#45;&gt;Node9</title>
<g id="a_edge46_Node000001_Node000009"><a xlink:title=" ">
<path fill="none" stroke="#63b8ff" d="M451.99,-604.81C429.09,-588.35 384,-550.27 384,-505.5 384,-505.5 384,-505.5 384,-393.5 384,-344.4 421.06,-341.86 432,-294 439.99,-259.06 429.92,-217.35 422.52,-193.89"/>
<polygon fill="#63b8ff" stroke="#63b8ff" points="425.78,-192.59 419.29,-184.22 419.14,-194.81 425.78,-192.59"/>
</a>
</g>
</g>
<!-- Node10 -->
<g id="Node000010" class="node">
<title>Node10</title>
<g id="a_Node000010"><a xlink:href="CCSDSConfig_8h.html" target="_top" xlink:title=" ">
<polygon fill="white" stroke="#666666" points="340.5,-129 251.5,-129 251.5,-110 340.5,-110 340.5,-129"/>
<text text-anchor="middle" x="296" y="-117" font-family="Helvetica,sans-Serif" font-size="10.00">CCSDSConfig.h</text>
</a>
</g>
</g>
<!-- Node1&#45;&gt;Node10 -->
<g id="edge55_Node000001_Node000010" class="edge">
<title>Node1&#45;&gt;Node10</title>
<g id="a_edge55_Node000001_Node000010"><a xlink:title=" ">
<path fill="none" stroke="#63b8ff" d="M415.98,-611.53C303.01,-605.67 34,-583.51 34,-505.5 34,-505.5 34,-505.5 34,-283.5 34,-219.2 63.99,-201.4 117,-165 153.68,-139.82 203.27,-128.86 240.95,-124.11"/>
<polygon fill="#63b8ff" stroke="#63b8ff" points="241.71,-127.54 251.24,-122.92 240.91,-120.59 241.71,-127.54"/>
</a>
</g>
</g>
<!-- Node13 -->
<g id="Node000013" class="node">
<title>Node13</title>
<g id="a_Node000013"><a xlink:href="CCSDSSecondaryHeaderFactory_8h.html" target="_top" xlink:title=" ">
<polygon fill="white" stroke="#666666" points="279.5,-239 100.5,-239 100.5,-220 279.5,-220 279.5,-239"/>
<text text-anchor="middle" x="190" y="-227" font-family="Helvetica,sans-Serif" font-size="10.00">CCSDSSecondaryHeaderFactory.h</text>
</a>
</g>
</g>
<!-- Node1&#45;&gt;Node13 -->
<g id="edge47_Node000001_Node000013" class="edge">
<title>Node1&#45;&gt;Node13</title>
<g id="a_edge47_Node000001_Node000013"><a xlink:title=" ">
<path fill="none" stroke="#63b8ff" d="M415.96,-614.34C339.62,-612.8 201,-597.36 201,-505.5 201,-505.5 201,-505.5 201,-338.5 201,-307.03 196.32,-270.66 193.06,-249.18"/>
<polygon fill="#63b8ff" stroke="#63b8ff" points="196.5,-248.48 191.48,-239.15 189.58,-249.57 196.5,-248.48"/>
</a>
</g>
</g>
<!-- Node15 -->
<g id="Node000015" class="node">
<title>Node15</title>
<g id="a_Node000015"><a xlink:href="PusServices_8h.html" target="_top" xlink:title=" ">
<polygon fill="white" stroke="#666666" points="423,-294 339,-294 339,-275 423,-275 423,-294"/>
<text text-anchor="middle" x="381" y="-282" font-family="Helvetica,sans-Serif" font-size="10.00">PusServices.h</text>
</a>
</g>
</g>
<!-- Node1&#45;&gt;Node15 -->
<g id="edge54_Node000001_Node000015" class="edge">
<title>Node1&#45;&gt;Node15</title>
<g id="a_edge54_Node000001_Node000015"><a xlink:title=" ">
<path fill="none" stroke="#63b8ff" d="M431.68,-604.86C411.46,-598.09 386.46,-586.77 370,-569 349.5,-546.86 346,-535.67 346,-505.5 346,-505.5 346,-505.5 346,-393.5 346,-360.3 361.15,-324.03 371.52,-303.11"/>
<polygon fill="#63b8ff" stroke="#63b8ff" points="374.66,-304.64 376.13,-294.15 368.44,-301.44 374.66,-304.64"/>
</a>
</g>
</g>
<!-- Node16 -->
<g id="Node000016" class="node">
<title>Node16</title>
<g id="a_Node000016"><a xlink:href="CCSDSHeader_8h.html" target="_top" xlink:title=" ">
<polygon fill="white" stroke="#666666" points="733.5,-129 640.5,-129 640.5,-110 733.5,-110 733.5,-129"/>
<text text-anchor="middle" x="687" y="-117" font-family="Helvetica,sans-Serif" font-size="10.00">CCSDSHeader.h</text>
</a>
</g>
</g>
<!-- Node1&#45;&gt;Node16 -->
<g id="edge30_Node000001_Node000016" class="edge">
<title>Node1&#45;&gt;Node16</title>
<g id="a_edge30_Node000001_Node000016"><a xlink:title=" ">
<path fill="none" stroke="#63b8ff" d="M467.73,-604.69C475.8,-578.95 500.61,-501.77 527,-440 577.51,-321.76 651.11,-185.56 677.3,-137.98"/>
<polygon fill="#63b8ff" stroke="#63b8ff" points="680.37,-139.65 682.15,-129.21 674.25,-136.27 680.37,-139.65"/>
</a>
</g>
</g>
<!-- Node17 -->
<g id="Node000017" class="node">
<title>Node17</title>
<g id="a_Node000017"><a xlink:href="CCSDSManager_8h.html" target="_top" xlink:title=" ">
<polygon fill="white" stroke="#666666" points="713.5,-514 612.5,-514 612.5,-495 713.5,-495 713.5,-514"/>
<text text-anchor="middle" x="663" y="-502" font-family="Helvetica,sans-Serif" font-size="10.00">CCSDSManager.h</text>
</a>
</g>
</g>
<!-- Node1&#45;&gt;Node17 -->
<g id="edge34_Node000001_Node000017" class="edge">
<title>Node1&#45;&gt;Node17</title>
<g id="a_edge34_Node000001_Node000017"><a xlink:title=" ">
<path fill="none" stroke="#63b8ff" d="M499.67,-604.94C525.64,-597.64 561.46,-585.68 590,-569 612.31,-555.96 634.16,-535.67 648.05,-521.54"/>
<polygon fill="#63b8ff" stroke="#63b8ff" points="650.86,-523.68 655.26,-514.04 645.81,-518.83 650.86,-523.68"/>
</a>
</g>
</g>
<!-- Node19 -->
<g id="Node000019" class="node">
<title>Node19</title>
<g id="a_Node000019"><a xlink:href="CCSDSPacket_8h.html" target="_top" xlink:title=" ">
<polygon fill="white" stroke="#666666" points="768,-404 678,-404 678,-385 768,-385 768,-404"/>
<text text-anchor="middle" x="723" y="-392" font-family="Helvetica,sans-Serif" font-size="10.00">CCSDSPacket.h</text>
</a>
</g>
</g>
<!-- Node1&#45;&gt;Node19 -->
<g id="edge44_Node000001_Node000019" class="edge">
<title>Node1&#45;&gt;Node19</title>
<g id="a_edge44_Node000001_Node000019"><a xlink:title=" ">
<path fill="none" stroke="#63b8ff" d="M514.2,-610.41C597.18,-602.1 761.44,-571.52 818,-459 830.66,-433.81 799.99,-417.02 770.19,-407.06"/>
<polygon fill="#63b8ff" stroke="#63b8ff" points="771.19,-403.71 760.6,-404.07 769.1,-410.39 771.19,-403.71"/>
</a>
</g>
</g>
<!-- Node20 -->
<g id="Node000020" class="node">
<title>Node20</title>
<g id="a_Node000020"><a xlink:href="CCSDSValidator_8h.html" target="_top" xlink:title="Defines the Validator class for CCSDS packet validation.">
<polygon fill="white" stroke="#666666" points="809.5,-459 708.5,-459 708.5,-440 809.5,-440 809.5,-459"/>
<text text-anchor="middle" x="759" y="-447" font-family="Helvetica,sans-Serif" font-size="10.00">CCSDSValidator.h</text>
</a>
</g>
</g>
<!-- Node1&#45;&gt;Node20 -->
<g id="edge53_Node000001_Node000020" class="edge">
<title>Node1&#45;&gt;Node20</title>
<g id="a_edge53_Node000001_Node000020"><a xlink:title=" ">
<path fill="none" stroke="#63b8ff" d="M514.16,-606.14C570.9,-595.27 663.83,-569.82 722,-514 735.35,-501.19 745.45,-482.51 751.7,-468.73"/>
<polygon fill="#63b8ff" stroke="#63b8ff" points="755.01,-469.89 755.71,-459.32 748.57,-467.14 755.01,-469.89"/>
</a>
</g>
</g>
<!-- Node21 -->
<g id="Node000021" class="node">
<title>Node21</title>
<g id="a_Node000021"><a xlink:href="CCSDSUtils_8h.html" target="_top" xlink:title=" ">
<polygon fill="white" stroke="#666666" points="581.5,-569 500.5,-569 500.5,-550 581.5,-550 581.5,-569"/>
<text text-anchor="middle" x="541" y="-557" font-family="Helvetica,sans-Serif" font-size="10.00">CCSDSUtils.h</text>
</a>
</g>
</g>
<!-- Node1&#45;&gt;Node21 -->
<g id="edge48_Node000001_Node000021" class="edge">
<title>Node1&#45;&gt;Node21</title>
<g id="a_edge48_Node000001_Node000021"><a xlink:title=" ">
<path fill="none" stroke="#63b8ff" d="M477.21,-604.98C488.78,-596.92 506.38,-584.65 520.16,-575.03"/>
<polygon fill="#63b8ff" stroke="#63b8ff" points="522.37,-577.76 528.57,-569.17 518.36,-572.02 522.37,-577.76"/>
</a>
</g>
</g>
<!-- Node2&#45;&gt;Node3 -->
<g id="edge2_Node000002_Node000003" class="edge">
<title>Node2&#45;&gt;Node3</title>
<g id="a_edge2_Node000002_Node000003"><a xlink:title=" ">
<path fill="none" stroke="#63b8ff" d="M520.73,-329.85C567.69,-305.8 694.85,-233.03 742,-129 750.97,-109.21 730.91,-91.1 712.36,-79.33"/>
<polygon fill="#63b8ff" stroke="#63b8ff" points="713.89,-76.17 703.5,-74.09 710.32,-82.2 713.89,-76.17"/>
</a>
</g>
</g>
<!-- Node5 -->
<g id="Node000005" class="node">
<title>Node5</title>
<g id="a_Node000005"><a xlink:title=" ">
<polygon fill="#e0e0e0" stroke="#999999" points="597.5,-19 550.5,-19 550.5,0 597.5,0 597.5,-19"/>
<text text-anchor="middle" x="574" y="-7" font-family="Helvetica,sans-Serif" font-size="10.00">vector</text>
</a>
</g>
</g>
<!-- Node2&#45;&gt;Node5 -->
<g id="edge7_Node000002_Node000005" class="edge">
<title>Node2&#45;&gt;Node5</title>
<g id="a_edge7_Node000002_Node000005"><a xlink:title=" ">
<path fill="none" stroke="#63b8ff" d="M507.59,-329.82C516.66,-311.82 536,-268.93 536,-230.5 536,-230.5 536,-230.5 536,-118.5 536,-85.02 552.45,-48.84 563.7,-28.01"/>
<polygon fill="#63b8ff" stroke="#63b8ff" points="566.87,-29.53 568.72,-19.1 560.76,-26.1 566.87,-29.53"/>
</a>
</g>
</g>
<!-- Node8 -->
<g id="Node000008" class="node">
<title>Node8</title>
<g id="a_Node000008"><a xlink:title=" ">
<polygon fill="#e0e0e0" stroke="#999999" points="268,-184 210,-184 210,-165 268,-165 268,-184"/>
<text text-anchor="middle" x="239" y="-172" font-family="Helvetica,sans-Serif" font-size="10.00">memory</text>
</a>
</g>
</g>
<!-- Node2&#45;&gt;Node8 -->
<g id="edge8_Node000002_Node000008" class="edge">
<title>Node2&#45;&gt;Node8</title>
<g id="a_edge8_Node000002_Node000008"><a xlink:title=" ">
<path fill="none" stroke="#63b8ff" d="M451.95,-329.93C408.1,-321.75 349.03,-308.56 330,-294 299.97,-271.02 311.63,-249.53 288,-220 279.34,-209.17 267.96,-198.67 258.34,-190.58"/>
<polygon fill="#63b8ff" stroke="#63b8ff" points="260.42,-187.77 250.46,-184.16 256,-193.19 260.42,-187.77"/>
</a>
</g>
</g>
<!-- Node2&#45;&gt;Node9 -->
<g id="edge9_Node000002_Node000009" class="edge">
<title>Node2&#45;&gt;Node9</title>
<g id="a_edge9_Node000002_Node000009"><a xlink:title=" ">
<path fill="none" stroke="#63b8ff" d="M502.81,-330C501.96,-309.42 497.5,-256.01 474,-220 465.76,-207.38 452.69,-196.89 441.04,-189.28"/>
<polygon fill="#63b8ff" stroke="#63b8ff" points="442.86,-186.29 432.51,-184.02 439.19,-192.25 442.86,-186.29"/>
</a>
</g>
</g>
<!-- Node2&#45;&gt;Node13 -->
<g id="edge19_Node000002_Node000013" class="edge">
<title>Node2&#45;&gt;Node13</title>
<g id="a_edge19_Node000002_Node000013"><a xlink:title=" ">
<path fill="none" stroke="#63b8ff" d="M453.33,-329.92C401.04,-320.54 322.43,-305.32 294,-294 262.47,-281.44 229.61,-259.69 209.48,-245.19"/>
<polygon fill="#63b8ff" stroke="#63b8ff" points="211.31,-242.19 201.17,-239.1 207.17,-247.84 211.31,-242.19"/>
</a>
</g>
</g>
<!-- Node2&#45;&gt;Node15 -->
<g id="edge25_Node000002_Node000015" class="edge">
<title>Node2&#45;&gt;Node15</title>
<g id="a_edge25_Node000002_Node000015"><a xlink:title=" ">
<path fill="none" stroke="#63b8ff" d="M483.4,-329.98C463.68,-321.42 433.05,-308.11 410.42,-298.28"/>
<polygon fill="#63b8ff" stroke="#63b8ff" points="411.52,-294.94 400.96,-294.17 408.74,-301.37 411.52,-294.94"/>
</a>
</g>
</g>
<!-- Node4 -->
<g id="Node000004" class="node">
<title>Node4</title>
<g id="a_Node000004"><a xlink:title=" ">
<polygon fill="#e0e0e0" stroke="#999999" points="765.5,-19 714.5,-19 714.5,0 765.5,0 765.5,-19"/>
<text text-anchor="middle" x="740" y="-7" font-family="Helvetica,sans-Serif" font-size="10.00">variant</text>
</a>
</g>
</g>
<!-- Node3&#45;&gt;Node4 -->
<g id="edge3_Node000003_Node000004" class="edge">
<title>Node3&#45;&gt;Node4</title>
<g id="a_edge3_Node000003_Node000004"><a xlink:title=" ">
<path fill="none" stroke="#63b8ff" d="M694.92,-54.75C702.78,-47.03 714.43,-35.6 723.92,-26.28"/>
<polygon fill="#63b8ff" stroke="#63b8ff" points="726.56,-28.59 731.25,-19.09 721.66,-23.6 726.56,-28.59"/>
</a>
</g>
</g>
<!-- Node3&#45;&gt;Node5 -->
<g id="edge4_Node000003_Node000005" class="edge">
<title>Node3&#45;&gt;Node5</title>
<g id="a_edge4_Node000003_Node000005"><a xlink:title=" ">
<path fill="none" stroke="#63b8ff" d="M668.01,-54.98C650.07,-46.5 622.28,-33.35 601.57,-23.54"/>
<polygon fill="#63b8ff" stroke="#63b8ff" points="602.86,-20.28 592.32,-19.17 599.86,-26.61 602.86,-20.28"/>
</a>
</g>
</g>
<!-- Node6 -->
<g id="Node000006" class="node">
<title>Node6</title>
<g id="a_Node000006"><a xlink:title=" ">
<polygon fill="#e0e0e0" stroke="#999999" points="413,-19 363,-19 363,0 413,0 413,-19"/>
<text text-anchor="middle" x="388" y="-7" font-family="Helvetica,sans-Serif" font-size="10.00">cstdint</text>
</a>
</g>
</g>
<!-- Node3&#45;&gt;Node6 -->
<g id="edge5_Node000003_Node000006" class="edge">
<title>Node3&#45;&gt;Node6</title>
<g id="a_edge5_Node000003_Node000006"><a xlink:title=" ">
<path fill="none" stroke="#63b8ff" d="M641.39,-55.57C581.87,-44.98 477.69,-26.45 423.31,-16.78"/>
<polygon fill="#63b8ff" stroke="#63b8ff" points="423.59,-13.27 413.13,-14.97 422.36,-20.17 423.59,-13.27"/>
</a>
</g>
</g>
<!-- Node7 -->
<g id="Node000007" class="node">
<title>Node7</title>
<g id="a_Node000007"><a xlink:title=" ">
<polygon fill="#e0e0e0" stroke="#999999" points="696,-19 636,-19 636,0 696,0 696,-19"/>
<text text-anchor="middle" x="666" y="-7" font-family="Helvetica,sans-Serif" font-size="10.00">iostream</text>
</a>
</g>
</g>
<!-- Node3&#45;&gt;Node7 -->
<g id="edge6_Node000003_Node000007" class="edge">
<title>Node3&#45;&gt;Node7</title>
<g id="a_edge6_Node000003_Node000007"><a xlink:title=" ">
<path fill="none" stroke="#63b8ff" d="M682.7,-54.75C680.02,-47.65 676.15,-37.4 672.81,-28.56"/>
<polygon fill="#63b8ff" stroke="#63b8ff" points="676.05,-27.21 669.24,-19.09 669.5,-29.68 676.05,-27.21"/>
</a>
</g>
</g>
<!-- Node9&#45;&gt;Node3 -->
<g id="edge10_Node000009_Node000003" class="edge">
<title>Node9&#45;&gt;Node3</title>
<g id="a_edge10_Node000009_Node000003"><a xlink:title=" ">
<path fill="none" stroke="#63b8ff" d="M437.64,-164.84C485.35,-145.76 599.73,-100.01 655.02,-77.89"/>
<polygon fill="#63b8ff" stroke="#63b8ff" points="656.65,-81.01 664.63,-74.05 654.05,-74.51 656.65,-81.01"/>
</a>
</g>
</g>
<!-- Node9&#45;&gt;Node5 -->
<g id="edge11_Node000009_Node000005" class="edge">
<title>Node9&#45;&gt;Node5</title>
<g id="a_edge11_Node000009_Node000005"><a xlink:title=" ">
<path fill="none" stroke="#63b8ff" d="M423.08,-164.81C439.61,-144.72 482.34,-93.8 522,-55 532.48,-44.74 544.95,-34.03 555.04,-25.69"/>
<polygon fill="#63b8ff" stroke="#63b8ff" points="557.34,-28.33 562.87,-19.3 552.91,-22.91 557.34,-28.33"/>
</a>
</g>
</g>
<!-- Node9&#45;&gt;Node6 -->
<g id="edge12_Node000009_Node000006" class="edge">
<title>Node9&#45;&gt;Node6</title>
<g id="a_edge12_Node000009_Node000006"><a xlink:title=" ">
<path fill="none" stroke="#63b8ff" d="M414.49,-164.74C410.11,-139.2 397.26,-64.43 391.22,-29.23"/>
<polygon fill="#63b8ff" stroke="#63b8ff" points="394.66,-28.57 389.51,-19.31 387.76,-29.76 394.66,-28.57"/>
</a>
</g>
</g>
<!-- Node9&#45;&gt;Node10 -->
<g id="edge13_Node000009_Node000010" class="edge">
<title>Node9&#45;&gt;Node10</title>
<g id="a_edge13_Node000009_Node000010"><a xlink:title=" ">
<path fill="none" stroke="#63b8ff" d="M396.72,-164.98C377.33,-156.42 347.19,-143.11 324.93,-133.28"/>
<polygon fill="#63b8ff" stroke="#63b8ff" points="326.19,-130.01 315.63,-129.17 323.36,-136.41 326.19,-130.01"/>
</a>
</g>
</g>
<!-- Node10&#45;&gt;Node3 -->
<g id="edge17_Node000010_Node000003" class="edge">
<title>Node10&#45;&gt;Node3</title>
<g id="a_edge17_Node000010_Node000003"><a xlink:title=" ">
<path fill="none" stroke="#63b8ff" d="M340.74,-112.42C412.64,-102.65 553.7,-83.48 631.41,-72.92"/>
<polygon fill="#63b8ff" stroke="#63b8ff" points="632.05,-76.36 641.48,-71.55 631.1,-69.43 632.05,-76.36"/>
</a>
</g>
</g>
<!-- Node10&#45;&gt;Node5 -->
<g id="edge16_Node000010_Node000005" class="edge">
<title>Node10&#45;&gt;Node5</title>
<g id="a_edge16_Node000010_Node000005"><a xlink:title=" ">
<path fill="none" stroke="#63b8ff" d="M318.28,-109.84C367.51,-90.72 485.66,-44.82 542.46,-22.75"/>
<polygon fill="#63b8ff" stroke="#63b8ff" points="543.95,-25.93 552,-19.05 541.41,-19.41 543.95,-25.93"/>
</a>
</g>
</g>
<!-- Node10&#45;&gt;Node6 -->
<g id="edge15_Node000010_Node000006" class="edge">
<title>Node10&#45;&gt;Node6</title>
<g id="a_edge15_Node000010_Node000006"><a xlink:title=" ">
<path fill="none" stroke="#63b8ff" d="M303.53,-109.66C318.9,-91.61 354.12,-50.28 373.88,-27.08"/>
<polygon fill="#63b8ff" stroke="#63b8ff" points="376.8,-29.04 380.62,-19.16 371.48,-24.5 376.8,-29.04"/>
</a>
</g>
</g>
<!-- Node11 -->
<g id="Node000011" class="node">
<title>Node11</title>
<g id="a_Node000011"><a xlink:title=" ">
<polygon fill="#e0e0e0" stroke="#999999" points="44,-74 0,-74 0,-55 44,-55 44,-74"/>
<text text-anchor="middle" x="22" y="-62" font-family="Helvetica,sans-Serif" font-size="10.00">string</text>
</a>
</g>
</g>
<!-- Node10&#45;&gt;Node11 -->
<g id="edge14_Node000010_Node000011" class="edge">
<title>Node10&#45;&gt;Node11</title>
<g id="a_edge14_Node000010_Node000011"><a xlink:title=" ">
<path fill="none" stroke="#63b8ff" d="M251.98,-109.98C196.73,-99.3 103.29,-81.22 54.25,-71.74"/>
<polygon fill="#63b8ff" stroke="#63b8ff" points="54.69,-68.26 44.2,-69.8 53.36,-75.13 54.69,-68.26"/>
</a>
</g>
</g>
<!-- Node12 -->
<g id="Node000012" class="node">
<title>Node12</title>
<g id="a_Node000012"><a xlink:title=" ">
<polygon fill="#e0e0e0" stroke="#999999" points="212.5,-74 119.5,-74 119.5,-55 212.5,-55 212.5,-74"/>
<text text-anchor="middle" x="166" y="-62" font-family="Helvetica,sans-Serif" font-size="10.00">unordered_map</text>
</a>
</g>
</g>
<!-- Node10&#45;&gt;Node12 -->
<g id="edge18_Node000010_Node000012" class="edge">
<title>Node10&#45;&gt;Node12</title>
<g id="a_edge18_Node000010_Node000012"><a xlink:title=" ">
<path fill="none" stroke="#63b8ff" d="M275.11,-109.98C253.92,-101.34 220.87,-87.87 196.7,-78.02"/>
<polygon fill="#63b8ff" stroke="#63b8ff" points="197.85,-74.7 187.27,-74.17 195.21,-81.19 197.85,-74.7"/>
</a>
</g>
</g>
<!-- Node13&#45;&gt;Node8 -->
<g id="edge20_Node000013_Node000008" class="edge">
<title>Node13&#45;&gt;Node8</title>
<g id="a_edge20_Node000013_Node000008"><a xlink:title=" ">
<path fill="none" stroke="#63b8ff" d="M198.09,-219.75C205.16,-212.11 215.59,-200.82 224.15,-191.56"/>
<polygon fill="#63b8ff" stroke="#63b8ff" points="226.84,-193.81 231.06,-184.09 221.7,-189.06 226.84,-193.81"/>
</a>
</g>
</g>
<!-- Node13&#45;&gt;Node9 -->
<g id="edge24_Node000013_Node000009" class="edge">
<title>Node13&#45;&gt;Node9</title>
<g id="a_edge24_Node000013_Node000009"><a xlink:title=" ">
<path fill="none" stroke="#63b8ff" d="M226.31,-219.98C265.24,-210.86 327.16,-196.33 369.6,-186.38"/>
<polygon fill="#63b8ff" stroke="#63b8ff" points="370.47,-189.77 379.4,-184.08 368.87,-182.96 370.47,-189.77"/>
</a>
</g>
</g>
<!-- Node13&#45;&gt;Node11 -->
<g id="edge23_Node000013_Node000011" class="edge">
<title>Node13&#45;&gt;Node11</title>
<g id="a_edge23_Node000013_Node000011"><a xlink:title=" ">
<path fill="none" stroke="#63b8ff" d="M168.15,-219.86C150.61,-212.21 126.02,-199.81 108,-184 73.91,-154.09 45.56,-108.31 31.51,-83.31"/>
<polygon fill="#63b8ff" stroke="#63b8ff" points="34.42,-81.34 26.54,-74.26 28.29,-84.71 34.42,-81.34"/>
</a>
</g>
</g>
<!-- Node13&#45;&gt;Node12 -->
<g id="edge21_Node000013_Node000012" class="edge">
<title>Node13&#45;&gt;Node12</title>
<g id="a_edge21_Node000013_Node000012"><a xlink:title=" ">
<path fill="none" stroke="#63b8ff" d="M163.43,-219.94C146.87,-213.06 126.88,-201.6 117,-184 97.49,-149.25 129.22,-105.16 150.08,-81.78"/>
<polygon fill="#63b8ff" stroke="#63b8ff" points="152.91,-83.87 157.15,-74.16 147.78,-79.1 152.91,-83.87"/>
</a>
</g>
</g>
<!-- Node14 -->
<g id="Node000014" class="node">
<title>Node14</title>
<g id="a_Node000014"><a xlink:title=" ">
<polygon fill="#e0e0e0" stroke="#999999" points="191.5,-184 126.5,-184 126.5,-165 191.5,-165 191.5,-184"/>
<text text-anchor="middle" x="159" y="-172" font-family="Helvetica,sans-Serif" font-size="10.00">functional</text>
</a>
</g>
</g>
<!-- Node13&#45;&gt;Node14 -->
<g id="edge22_Node000013_Node000014" class="edge">
<title>Node13&#45;&gt;Node14</title>
<g id="a_edge22_Node000013_Node000014"><a xlink:title=" ">
<path fill="none" stroke="#63b8ff" d="M184.88,-219.75C180.64,-212.49 174.47,-201.95 169.22,-192.98"/>
<polygon fill="#63b8ff" stroke="#63b8ff" points="172.09,-190.95 164.02,-184.09 166.05,-194.49 172.09,-190.95"/>
</a>
</g>
</g>
<!-- Node15&#45;&gt;Node3 -->
<g id="edge28_Node000015_Node000003" class="edge">
<title>Node15&#45;&gt;Node3</title>
<g id="a_edge28_Node000015_Node000003"><a xlink:title=" ">
<path fill="none" stroke="#63b8ff" d="M392.96,-274.95C439.16,-241.93 606.42,-122.38 665.31,-80.29"/>
<polygon fill="#63b8ff" stroke="#63b8ff" points="667.69,-82.89 673.79,-74.22 663.62,-77.19 667.69,-82.89"/>
</a>
</g>
</g>
<!-- Node15&#45;&gt;Node9 -->
<g id="edge26_Node000015_Node000009" class="edge">
<title>Node15&#45;&gt;Node9</title>
<g id="a_edge26_Node000015_Node000009"><a xlink:title=" ">
<path fill="none" stroke="#63b8ff" d="M383.86,-274.66C389.56,-257.09 402.41,-217.45 410.02,-193.95"/>
<polygon fill="#63b8ff" stroke="#63b8ff" points="413.44,-194.75 413.19,-184.16 406.78,-192.59 413.44,-194.75"/>
</a>
</g>
</g>
<!-- Node15&#45;&gt;Node10 -->
<g id="edge29_Node000015_Node000010" class="edge">
<title>Node15&#45;&gt;Node10</title>
<g id="a_edge29_Node000015_Node000010"><a xlink:title=" ">
<path fill="none" stroke="#63b8ff" d="M373.69,-274.75C360.1,-258.1 330.83,-220.27 314,-184 307.29,-169.53 302.55,-152.02 299.63,-139.05"/>
<polygon fill="#63b8ff" stroke="#63b8ff" points="303,-138.09 297.52,-129.02 296.15,-139.53 303,-138.09"/>
</a>
</g>
</g>
<!-- Node15&#45;&gt;Node13 -->
<g id="edge27_Node000015_Node000013" class="edge">
<title>Node15&#45;&gt;Node13</title>
<g id="a_edge27_Node000015_Node000013"><a xlink:title=" ">
<path fill="none" stroke="#63b8ff" d="M350.31,-274.98C317.83,-265.97 266.4,-251.7 230.59,-241.76"/>
<polygon fill="#63b8ff" stroke="#63b8ff" points="231.5,-238.38 220.93,-239.08 229.63,-245.13 231.5,-238.38"/>
</a>
</g>
</g>
<!-- Node16&#45;&gt;Node3 -->
<g id="edge31_Node000016_Node000003" class="edge">
<title>Node16&#45;&gt;Node3</title>
<g id="a_edge31_Node000016_Node000003"><a xlink:title=" ">
<path fill="none" stroke="#63b8ff" d="M686.83,-109.75C686.7,-102.8 686.52,-92.85 686.35,-84.13"/>
<polygon fill="#63b8ff" stroke="#63b8ff" points="689.85,-84.02 686.16,-74.09 682.85,-84.15 689.85,-84.02"/>
</a>
</g>
</g>
<!-- Node16&#45;&gt;Node5 -->
<g id="edge33_Node000016_Node000005" class="edge">
<title>Node16&#45;&gt;Node5</title>
<g id="a_edge33_Node000016_Node000005"><a xlink:title=" ">
<path fill="none" stroke="#63b8ff" d="M675.2,-109.78C663.77,-101.14 646.13,-87.31 632,-74 615.95,-58.88 599.12,-40.08 587.75,-26.87"/>
<polygon fill="#63b8ff" stroke="#63b8ff" points="590.27,-24.44 581.13,-19.09 584.95,-28.98 590.27,-24.44"/>
</a>
</g>
</g>
<!-- Node16&#45;&gt;Node6 -->
<g id="edge32_Node000016_Node000006" class="edge">
<title>Node16&#45;&gt;Node6</title>
<g id="a_edge32_Node000016_Node000006"><a xlink:title=" ">
<path fill="none" stroke="#63b8ff" d="M663.29,-109.94C610.3,-90.79 482.16,-44.51 421.24,-22.51"/>
<polygon fill="#63b8ff" stroke="#63b8ff" points="422.31,-19.17 411.71,-19.07 419.93,-25.75 422.31,-19.17"/>
</a>
</g>
</g>
<!-- Node17&#45;&gt;Node3 -->
<g id="edge41_Node000017_Node000003" class="edge">
<title>Node17&#45;&gt;Node3</title>
<g id="a_edge41_Node000017_Node000003"><a xlink:title=" ">
<path fill="none" stroke="#63b8ff" d="M713.8,-501.04C747.45,-496.79 790.33,-485.97 818,-459 839.19,-438.35 838,-425.09 838,-395.5 838,-395.5 838,-395.5 838,-173.5 838,-120.83 776.61,-91.49 731.86,-77.09"/>
<polygon fill="#63b8ff" stroke="#63b8ff" points="732.61,-73.66 722.02,-74.08 730.56,-80.36 732.61,-73.66"/>
</a>
</g>
</g>
<!-- Node18 -->
<g id="Node000018" class="node">
<title>Node18</title>
<g id="a_Node000018"><a xlink:title=" ">
<polygon fill="#e0e0e0" stroke="#999999" points="690.5,-459 645.5,-459 645.5,-440 690.5,-440 690.5,-459"/>
<text text-anchor="middle" x="668" y="-447" font-family="Helvetica,sans-Serif" font-size="10.00">utility</text>
</a>
</g>
</g>
<!-- Node17&#45;&gt;Node18 -->
<g id="edge35_Node000017_Node000018" class="edge">
<title>Node17&#45;&gt;Node18</title>
<g id="a_edge35_Node000017_Node000018"><a xlink:title=" ">
<path fill="none" stroke="#63b8ff" d="M663.83,-494.75C664.48,-487.8 665.42,-477.85 666.24,-469.13"/>
<polygon fill="#63b8ff" stroke="#63b8ff" points="669.73,-469.37 667.19,-459.09 662.77,-468.72 669.73,-469.37"/>
</a>
</g>
</g>
<!-- Node17&#45;&gt;Node19 -->
<g id="edge36_Node000017_Node000019" class="edge">
<title>Node17&#45;&gt;Node19</title>
<g id="a_edge36_Node000017_Node000019"><a xlink:title=" ">
<path fill="none" stroke="#63b8ff" d="M654.3,-494.9C642.67,-482.32 624.75,-458.39 636,-440 645.4,-424.64 661.96,-414.36 678.14,-407.6"/>
<polygon fill="#63b8ff" stroke="#63b8ff" points="679.46,-410.84 687.56,-404.01 676.96,-404.3 679.46,-410.84"/>
</a>
</g>
</g>
<!-- Node17&#45;&gt;Node20 -->
<g id="edge42_Node000017_Node000020" class="edge">
<title>Node17&#45;&gt;Node20</title>
<g id="a_edge42_Node000017_Node000020"><a xlink:title=" ">
<path fill="none" stroke="#63b8ff" d="M678.42,-494.98C693.45,-486.69 716.54,-473.94 734.16,-464.22"/>
<polygon fill="#63b8ff" stroke="#63b8ff" points="736.23,-467.07 743.3,-459.17 732.85,-460.94 736.23,-467.07"/>
</a>
</g>
</g>
<!-- Node19&#45;&gt;Node2 -->
<g id="edge40_Node000019_Node000002" class="edge">
<title>Node19&#45;&gt;Node2</title>
<g id="a_edge40_Node000019_Node000002"><a xlink:title=" ">
<path fill="none" stroke="#63b8ff" d="M687.65,-384.98C649.84,-375.87 589.74,-361.4 548.43,-351.45"/>
<polygon fill="#63b8ff" stroke="#63b8ff" points="549.17,-348.02 538.62,-349.08 547.53,-354.83 549.17,-348.02"/>
</a>
</g>
</g>
<!-- Node19&#45;&gt;Node3 -->
<g id="edge37_Node000019_Node000003" class="edge">
<title>Node19&#45;&gt;Node3</title>
<g id="a_edge37_Node000019_Node000003"><a xlink:title=" ">
<path fill="none" stroke="#63b8ff" d="M727.53,-384.91C745.92,-348.74 811.61,-206.16 758,-110 749.96,-95.58 735.1,-85.24 720.96,-78.18"/>
<polygon fill="#63b8ff" stroke="#63b8ff" points="722.4,-74.99 711.85,-74.01 719.49,-81.36 722.4,-74.99"/>
</a>
</g>
</g>
<!-- Node19&#45;&gt;Node5 -->
<g id="edge38_Node000019_Node000005" class="edge">
<title>Node19&#45;&gt;Node5</title>
<g id="a_edge38_Node000019_Node000005"><a xlink:title=" ">
<path fill="none" stroke="#63b8ff" d="M732.88,-384.89C741.9,-376.54 755,-363.1 763,-349 815.5,-256.45 821.88,-206.48 777,-110 764.47,-83.06 763.27,-72.14 739,-55 717.94,-40.13 649.44,-24.94 607.62,-16.72"/>
<polygon fill="#63b8ff" stroke="#63b8ff" points="608.08,-13.25 597.6,-14.79 606.75,-20.12 608.08,-13.25"/>
</a>
</g>
</g>
<!-- Node19&#45;&gt;Node16 -->
<g id="edge39_Node000019_Node000016" class="edge">
<title>Node19&#45;&gt;Node16</title>
<g id="a_edge39_Node000019_Node000016"><a xlink:title=" ">
<path fill="none" stroke="#63b8ff" d="M720.98,-384.88C716.88,-366.64 708,-322.79 708,-285.5 708,-285.5 708,-285.5 708,-228.5 708,-196.46 698.98,-160.03 692.77,-138.73"/>
<polygon fill="#63b8ff" stroke="#63b8ff" points="696.09,-137.62 689.83,-129.07 689.39,-139.65 696.09,-137.62"/>
</a>
</g>
</g>
<!-- Node20&#45;&gt;Node19 -->
<g id="edge43_Node000020_Node000019" class="edge">
<title>Node20&#45;&gt;Node19</title>
<g id="a_edge43_Node000020_Node000019"><a xlink:title=" ">
<path fill="none" stroke="#63b8ff" d="M753.06,-439.75C748.02,-432.34 740.66,-421.5 734.49,-412.41"/>
<polygon fill="#63b8ff" stroke="#63b8ff" points="737.35,-410.39 728.83,-404.09 731.56,-414.33 737.35,-410.39"/>
</a>
</g>
</g>
<!-- Node21&#45;&gt;Node5 -->
<g id="edge52_Node000021_Node000005" class="edge">
<title>Node21&#45;&gt;Node5</title>
<g id="a_edge52_Node000021_Node000005"><a xlink:title=" ">
<path fill="none" stroke="#63b8ff" d="M543.61,-549.83C552.04,-521.39 578.4,-428.22 587,-349 600.15,-227.77 583.47,-80.86 576.66,-29.39"/>
<polygon fill="#63b8ff" stroke="#63b8ff" points="580.08,-28.6 575.26,-19.16 573.14,-29.54 580.08,-28.6"/>
</a>
</g>
</g>
<!-- Node21&#45;&gt;Node11 -->
<g id="edge51_Node000021_Node000011" class="edge">
<title>Node21&#45;&gt;Node11</title>
<g id="a_edge51_Node000021_Node000011"><a xlink:title=" ">
<path fill="none" stroke="#63b8ff" d="M531.25,-549.77C508.56,-529.59 450.14,-478.49 398,-440 266.78,-343.15 195.75,-364 91,-239 51.16,-191.45 32.32,-118.04 25.35,-84"/>
<polygon fill="#63b8ff" stroke="#63b8ff" points="28.77,-83.21 23.43,-74.06 21.9,-84.54 28.77,-83.21"/>
</a>
</g>
</g>
<!-- Node21&#45;&gt;Node17 -->
<g id="edge50_Node000021_Node000017" class="edge">
<title>Node21&#45;&gt;Node17</title>
<g id="a_edge50_Node000021_Node000017"><a xlink:title=" ">
<path fill="none" stroke="#63b8ff" d="M560.6,-549.98C580.32,-541.42 610.95,-528.11 633.58,-518.28"/>
<polygon fill="#63b8ff" stroke="#63b8ff" points="635.26,-521.37 643.04,-514.17 632.48,-514.94 635.26,-521.37"/>
</a>
</g>
</g>
<!-- Node21&#45;&gt;Node19 -->
<g id="edge49_Node000021_Node000019" class="edge">
<title>Node21&#45;&gt;Node19</title>
<g id="a_edge49_Node000021_Node000019"><a xlink:title=" ">
<path fill="none" stroke="#63b8ff" d="M545.42,-549.92C556.7,-528.72 588.59,-473.16 629,-440 646.04,-426.02 668.2,-415.26 686.72,-407.82"/>
<polygon fill="#63b8ff" stroke="#63b8ff" points="688.23,-410.99 696.31,-404.13 685.72,-404.45 688.23,-410.99"/>
</a>
</g>
</g>
</g>
</svg>

<g id="navigator" transform="translate(0 0)" fill="#404254">
  <rect fill="#f2f5e9" fill-opacity="0.5" stroke="#606060" stroke-width=".5" x="0" y="0" width="60" height="60"/>
  <use id="zoomplus" xlink:href="#zoomPlus" x="17" y="9" onmousedown="handleZoom(evt,'in')"/>
  <use id="zoomminus" xlink:href="#zoomMin" x="42" y="9" onmousedown="handleZoom(evt,'out')"/>
  <use id="reset" xlink:href="#resetDef" x="30" y="36" onmousedown="handleReset()"/>
   <use id="arrowup" xlink:href="#arrowUp" x="0" y="0" onmousedown="handlePan(0,-1)"/>
  <use id="arrowright" xlink:href="#arrowRight" x="0" y="0" onmousedown="handlePan(1,0)"/>
  <use id="arrowdown" xlink:href="#arrowDown" x="0" y="0" onmousedown="handlePan(0,1)"/>
  <use id="arrowleft" xlink:href="#arrowLeft" x="0" y="0" onmousedown="handlePan(-1,0)"/>
</g>
<svg viewBox="0 0 15 15" width="100%" height="30px" preserveAspectRatio="xMaxYMin meet">
 <g id="arrow_out" transform="scale(0.3 0.3)">
  <a xlink:href="CCSDSPack_8h__incl_org.svg" target="_base">
   <rect id="button" ry="5" rx="5" y="6" x="6" height="38" width="38"
        fill="#f2f5e9" fill-opacity="0.5" stroke="#606060" stroke-width="1.0"/>
   <path id="arrow"
     d="M 11.500037,31.436501 C 11.940474,20.09759 22.043105,11.32322 32.158766,21.979434 L 37.068811,17.246167 C 37.068811,17.246167 37.088388,32 37.088388,32 L 22.160133,31.978069 C 22.160133,31.978069 26.997745,27.140456 26.997745,27.140456 C 18.528582,18.264221 13.291696,25.230495 11.500037,31.436501 z"
     style="fill:#404040;"/>
  </a>
 </g>
</svg>

<style type='text/css'>
<![CDATA[
[data-mouse-over-selected='false'] { opacity: 0.7; }
[data-mouse-over-selected='true']  { opacity: 1.0; }
]]>
</style>
<script type="application/ecmascript"><![CDATA[
document.addEventListener('DOMContentLoaded', (event) => {
  highlightEdges();
  highlightAdjacentNodes();
});
]]></script>
</svg>
