<?xml version="1.0" encoding="UTF-8" standalone="no"?>
<!DOCTYPE svg PUBLIC "-//W3C//DTD SVG 1.1//EN"
 "http://www.w3.org/Graphics/SVG/1.1/DTD/svg11.dtd">
<!-- Generated by graphviz version 2.43.0 (0)
 -->
<!-- Title: printPrimaryHeader Pages: 1 -->
<!--zoomable 444 -->

<svg id="main" version="1.1" xmlns="http://www.w3.org/2000/svg" xmlns:xlink="http://www.w3.org/1999/xlink" xml:space="preserve" onload="init(evt)">
<style type="text/css"><![CDATA[
.node, .edge {opacity: 0.7;}
.node.selected, .edge.selected {opacity: 1;}
.edge:hover path { stroke: red; }
.edge:hover polygon { stroke: red; fill: red; }
]]></style>

<defs>
  <circle id="rim" cx="0" cy="0" r="7"/>
  <circle id="rim2" cx="0" cy="0" r="3.5"/>
  <g id="zoomPlus">
    <use xlink:href="#rim" fill="#404040"><set attributeName="fill" to="#808080" begin="zoomplus.mouseover" end="zoomplus.mouseout"/></use>
    <path d="M-4,0h8M0,-4v8" fill="none" stroke="white" stroke-width="1.5" pointer-events="none"/>
  </g>
  <g id="zoomMin">
    <use xlink:href="#rim" fill="#404040"><set attributeName="fill" to="#808080" begin="zoomminus.mouseover" end="zoomminus.mouseout"/></use>
    <path d="M-4,0h8" fill="none" stroke="white" stroke-width="1.5" pointer-events="none"/>
  </g>
  <g id="arrowUp" transform="translate(30 24)">
    <use xlink:href="#rim"/>
    <path pointer-events="none" fill="none" stroke="white" stroke-width="1.5" d="M0,-3.0v7 M-2.5,-0.5L0,-3.0L2.5,-0.5"/>
  </g>
  <g id="arrowRight" transform="rotate(90) translate(36 -43)">
    <use xlink:href="#rim"/>
    <path pointer-events="none" fill="none" stroke="white" stroke-width="1.5" d="M0,-3.0v7 M-2.5,-0.5L0,-3.0L2.5,-0.5"/>
  </g>
  <g id="arrowDown" transform="rotate(180) translate(-30 -48)">
    <use xlink:href="#rim"/>
    <path pointer-events="none" fill="none" stroke="white" stroke-width="1.5" d="M0,-3.0v7 M-2.5,-0.5L0,-3.0L2.5,-0.5"/>
  </g>
  <g id="arrowLeft" transform="rotate(270) translate(-36 17)">
    <use xlink:href="#rim"/>
    <path pointer-events="none" fill="none" stroke="white" stroke-width="1.5" d="M0,-3.0v7 M-2.5,-0.5L0,-3.0L2.5,-0.5"/>
  </g>
  <g id="resetDef">
    <use xlink:href="#rim2" fill="#404040"><set attributeName="fill" to="#808080" begin="reset.mouseover" end="reset.mouseout"/></use>
  </g>
</defs>
<script type="application/ecmascript">
var viewWidth = 512;
var viewHeight = 444;
var sectionId = 'dynsection-15';
</script>
<script type="application/ecmascript" xlink:href="svg.min.js"/>
<svg id="graph" class="graph">
<g id="viewport">
<title>printPrimaryHeader</title>
<!-- Node1 -->
<g id="Node000001" class="node">
<title>Node1</title>
<g id="a_Node000001"><a xlink:title="Prints to console the primary header of a provided CCSDS packet.">
<polygon fill="#999999" stroke="#666666" points="113,-256.5 0,-256.5 0,-237.5 113,-237.5 113,-256.5"/>
<text text-anchor="middle" x="56.5" y="-244.5" font-family="Helvetica,sans-Serif" font-size="10.00">printPrimaryHeader</text>
</a>
</g>
</g>
<!-- Node2 -->
<g id="Node000002" class="node">
<title>Node2</title>
<g id="a_Node000002"><a xlink:href="classCCSDS_1_1Header.html#a2f4d97beaaaac5b2005b470ed14f228d" target="_top" xlink:title="Sets the header data from a 64&#45;bit integer representation.">
<polygon fill="white" stroke="#666666" points="299,-355.5 149,-355.5 149,-336.5 299,-336.5 299,-355.5"/>
<text text-anchor="middle" x="224" y="-343.5" font-family="Helvetica,sans-Serif" font-size="10.00">CCSDS::Header::deserialize</text>
</a>
</g>
</g>
<!-- Node1&#45;&gt;Node2 -->
<g id="edge1_Node000001_Node000002" class="edge">
<title>Node1&#45;&gt;Node2</title>
<g id="a_edge1_Node000001_Node000002"><a xlink:title=" ">
<path fill="none" stroke="#63b8ff" d="M73.67,-256.67C102.67,-274.02 163.68,-310.51 198.06,-331.08"/>
<polygon fill="#63b8ff" stroke="#63b8ff" points="196.63,-334.3 207.01,-336.43 200.22,-328.3 196.63,-334.3"/>
</a>
</g>
</g>
<!-- Node4 -->
<g id="Node000004" class="node">
<title>Node4</title>
<g id="a_Node000004"><a xlink:href="CCSDSUtils_8cpp.html#a993788a78365e86ff065ba8bedff543a" target="_top" xlink:title="Prints the header fields and their binary or hexadecimal representations.">
<polygon fill="white" stroke="#666666" points="261,-238.5 187,-238.5 187,-219.5 261,-219.5 261,-238.5"/>
<text text-anchor="middle" x="224" y="-226.5" font-family="Helvetica,sans-Serif" font-size="10.00">printHeader</text>
</a>
</g>
</g>
<!-- Node1&#45;&gt;Node4 -->
<g id="edge3_Node000001_Node000004" class="edge">
<title>Node1&#45;&gt;Node4</title>
<g id="a_edge3_Node000001_Node000004"><a xlink:title=" ">
<path fill="none" stroke="#63b8ff" d="M113.07,-240.96C133.7,-238.71 156.87,-236.19 176.6,-234.05"/>
<polygon fill="#63b8ff" stroke="#63b8ff" points="177,-237.52 186.57,-232.96 176.25,-230.56 177,-237.52"/>
</a>
</g>
</g>
<!-- Node3 -->
<g id="Node000003" class="node">
<title>Node3</title>
<g id="a_Node000003"><a xlink:href="classCCSDS_1_1Header.html#aad717b39dda3dff19adb10e3c7e38100" target="_top" xlink:title="Sets the header data from a 64&#45;bit integer representation.">
<polygon fill="white" stroke="#666666" points="487,-435.5 352,-435.5 352,-416.5 487,-416.5 487,-435.5"/>
<text text-anchor="middle" x="419.5" y="-423.5" font-family="Helvetica,sans-Serif" font-size="10.00">CCSDS::Header::setData</text>
</a>
</g>
</g>
<!-- Node2&#45;&gt;Node3 -->
<g id="edge2_Node000002_Node000003" class="edge">
<title>Node2&#45;&gt;Node3</title>
<g id="a_edge2_Node000002_Node000003"><a xlink:title=" ">
<path fill="none" stroke="#63b8ff" d="M238.91,-355.67C259.15,-369.31 298.31,-394.07 335,-408 340.82,-410.21 346.98,-412.18 353.21,-413.93"/>
<polygon fill="#63b8ff" stroke="#63b8ff" points="352.46,-417.35 363.02,-416.5 354.23,-410.58 352.46,-417.35"/>
</a>
</g>
</g>
<!-- Node5 -->
<g id="Node000005" class="node">
<title>Node5</title>
<g id="a_Node000005"><a xlink:href="classCCSDS_1_1Header.html#a3b171a18bfed281cfa837f349f7cc264" target="_top" xlink:title="11 bits">
<polygon fill="white" stroke="#666666" points="487.5,-398.5 351.5,-398.5 351.5,-379.5 487.5,-379.5 487.5,-398.5"/>
<text text-anchor="middle" x="419.5" y="-386.5" font-family="Helvetica,sans-Serif" font-size="10.00">CCSDS::Header::getAPID</text>
</a>
</g>
</g>
<!-- Node4&#45;&gt;Node5 -->
<g id="edge4_Node000004_Node000005" class="edge">
<title>Node4&#45;&gt;Node5</title>
<g id="a_edge4_Node000004_Node000005"><a xlink:title=" ">
<path fill="none" stroke="#63b8ff" d="M232.34,-238.85C255.82,-270.31 327.94,-366.55 335,-371 337.61,-372.65 340.35,-374.14 343.19,-375.51"/>
<polygon fill="#63b8ff" stroke="#63b8ff" points="341.91,-378.76 352.48,-379.41 344.62,-372.31 341.91,-378.76"/>
</a>
</g>
</g>
<!-- Node6 -->
<g id="Node000006" class="node">
<title>Node6</title>
<g id="a_Node000006"><a xlink:href="CCSDSUtils_8cpp.html#a1b76edce6a353d6dabf826e662d5f50c" target="_top" xlink:title="Converts a given value to its binary representation as a string, with spaces every 4 bits.">
<polygon fill="white" stroke="#666666" points="465.5,-361.5 373.5,-361.5 373.5,-342.5 465.5,-342.5 465.5,-361.5"/>
<text text-anchor="middle" x="419.5" y="-349.5" font-family="Helvetica,sans-Serif" font-size="10.00">getBinaryString</text>
</a>
</g>
</g>
<!-- Node4&#45;&gt;Node6 -->
<g id="edge5_Node000004_Node000006" class="edge">
<title>Node4&#45;&gt;Node6</title>
<g id="a_edge5_Node000004_Node000006"><a xlink:title=" ">
<path fill="none" stroke="#63b8ff" d="M232.03,-238.64C247.86,-259.6 288.58,-309.4 335,-334 343.66,-338.59 353.4,-342 363.1,-344.55"/>
<polygon fill="#63b8ff" stroke="#63b8ff" points="362.61,-348.03 373.15,-346.9 364.21,-341.22 362.61,-348.03"/>
</a>
</g>
</g>
<!-- Node7 -->
<g id="Node000007" class="node">
<title>Node7</title>
<g id="a_Node000007"><a xlink:href="CCSDSUtils_8cpp.html#a6a4f98ed870a1cf55c943c9ace54a0cf" target="_top" xlink:title="Generates a string of spaces for formatting binary outputs.">
<polygon fill="white" stroke="#666666" points="462.5,-324.5 376.5,-324.5 376.5,-305.5 462.5,-305.5 462.5,-324.5"/>
<text text-anchor="middle" x="419.5" y="-312.5" font-family="Helvetica,sans-Serif" font-size="10.00">getBitsSpaces</text>
</a>
</g>
</g>
<!-- Node4&#45;&gt;Node7 -->
<g id="edge6_Node000004_Node000007" class="edge">
<title>Node4&#45;&gt;Node7</title>
<g id="a_edge6_Node000004_Node000007"><a xlink:title=" ">
<path fill="none" stroke="#63b8ff" d="M237.81,-238.72C257.6,-253.29 297.29,-280.7 335,-296 344.92,-300.02 355.86,-303.29 366.47,-305.9"/>
<polygon fill="#63b8ff" stroke="#63b8ff" points="365.96,-309.37 376.49,-308.21 367.53,-302.55 365.96,-309.37"/>
</a>
</g>
</g>
<!-- Node8 -->
<g id="Node000008" class="node">
<title>Node8</title>
<g id="a_Node000008"><a xlink:href="classCCSDS_1_1Header.html#a836aab2a197579a57a7901071075f685" target="_top" xlink:title="1 bits">
<polygon fill="white" stroke="#666666" points="499,-287 340,-287 340,-257 499,-257 499,-287"/>
<text text-anchor="start" x="348" y="-275" font-family="Helvetica,sans-Serif" font-size="10.00">CCSDS::Header::getDataField</text>
<text text-anchor="middle" x="419.5" y="-264" font-family="Helvetica,sans-Serif" font-size="10.00">HeaderFlag</text>
</a>
</g>
</g>
<!-- Node4&#45;&gt;Node8 -->
<g id="edge7_Node000004_Node000008" class="edge">
<title>Node4&#45;&gt;Node8</title>
<g id="a_edge7_Node000004_Node000008"><a xlink:title=" ">
<path fill="none" stroke="#63b8ff" d="M261.4,-237.09C283.82,-242.07 313.45,-248.66 340.93,-254.76"/>
<polygon fill="#63b8ff" stroke="#63b8ff" points="340.42,-258.23 350.94,-256.99 341.94,-251.4 340.42,-258.23"/>
</a>
</g>
</g>
<!-- Node9 -->
<g id="Node000009" class="node">
<title>Node9</title>
<g id="a_Node000009"><a xlink:href="classCCSDS_1_1Header.html#a9c2ac8f4b16874076de742cb19833bd7" target="_top" xlink:title="16 bits">
<polygon fill="white" stroke="#666666" points="504,-238.5 335,-238.5 335,-219.5 504,-219.5 504,-238.5"/>
<text text-anchor="middle" x="419.5" y="-226.5" font-family="Helvetica,sans-Serif" font-size="10.00">CCSDS::Header::getDataLength</text>
</a>
</g>
</g>
<!-- Node4&#45;&gt;Node9 -->
<g id="edge8_Node000004_Node000009" class="edge">
<title>Node4&#45;&gt;Node9</title>
<g id="a_edge8_Node000004_Node000009"><a xlink:title=" ">
<path fill="none" stroke="#63b8ff" d="M261.4,-229C279.43,-229 302.13,-229 324.62,-229"/>
<polygon fill="#63b8ff" stroke="#63b8ff" points="324.92,-232.5 334.92,-229 324.92,-225.5 324.92,-232.5"/>
</a>
</g>
</g>
<!-- Node10 -->
<g id="Node000010" class="node">
<title>Node10</title>
<g id="a_Node000010"><a xlink:href="classCCSDS_1_1Header.html#af1ae6079606846982ff0552a2d684a1b" target="_top" xlink:title="Computes and retrieves the full header as a 64&#45;bit value.">
<polygon fill="white" stroke="#666666" points="502,-201.5 337,-201.5 337,-182.5 502,-182.5 502,-201.5"/>
<text text-anchor="middle" x="419.5" y="-189.5" font-family="Helvetica,sans-Serif" font-size="10.00">CCSDS::Header::getFullHeader</text>
</a>
</g>
</g>
<!-- Node4&#45;&gt;Node10 -->
<g id="edge9_Node000004_Node000010" class="edge">
<title>Node4&#45;&gt;Node10</title>
<g id="a_edge9_Node000004_Node000010"><a xlink:title=" ">
<path fill="none" stroke="#63b8ff" d="M261.4,-222.04C288.76,-216.81 326.85,-209.53 358.67,-203.44"/>
<polygon fill="#63b8ff" stroke="#63b8ff" points="359.59,-206.83 368.76,-201.51 358.28,-199.95 359.59,-206.83"/>
</a>
</g>
</g>
<!-- Node11 -->
<g id="Node000011" class="node">
<title>Node11</title>
<g id="a_Node000011"><a xlink:href="classCCSDS_1_1Header.html#a8847364755456604a86e894a950f81c6" target="_top" xlink:title="14 bits">
<polygon fill="white" stroke="#666666" points="499.5,-164 339.5,-164 339.5,-134 499.5,-134 499.5,-164"/>
<text text-anchor="start" x="347.5" y="-152" font-family="Helvetica,sans-Serif" font-size="10.00">CCSDS::Header::getSequence</text>
<text text-anchor="middle" x="419.5" y="-141" font-family="Helvetica,sans-Serif" font-size="10.00">Count</text>
</a>
</g>
</g>
<!-- Node4&#45;&gt;Node11 -->
<g id="edge10_Node000004_Node000011" class="edge">
<title>Node4&#45;&gt;Node11</title>
<g id="a_edge10_Node000004_Node000011"><a xlink:title=" ">
<path fill="none" stroke="#63b8ff" d="M241.73,-219.49C262.94,-207.71 300.86,-187.53 335,-174 340.91,-171.66 347.13,-169.41 353.39,-167.29"/>
<polygon fill="#63b8ff" stroke="#63b8ff" points="354.82,-170.51 363.24,-164.07 352.65,-163.85 354.82,-170.51"/>
</a>
</g>
</g>
<!-- Node12 -->
<g id="Node000012" class="node">
<title>Node12</title>
<g id="a_Node000012"><a xlink:href="classCCSDS_1_1Header.html#a7aec7b479769c8348584cab4b9d1197b" target="_top" xlink:title="2 bits">
<polygon fill="white" stroke="#666666" points="499.5,-116 339.5,-116 339.5,-86 499.5,-86 499.5,-116"/>
<text text-anchor="start" x="347.5" y="-104" font-family="Helvetica,sans-Serif" font-size="10.00">CCSDS::Header::getSequence</text>
<text text-anchor="middle" x="419.5" y="-93" font-family="Helvetica,sans-Serif" font-size="10.00">Flags</text>
</a>
</g>
</g>
<!-- Node4&#45;&gt;Node12 -->
<g id="edge11_Node000004_Node000012" class="edge">
<title>Node4&#45;&gt;Node12</title>
<g id="a_edge11_Node000004_Node000012"><a xlink:title=" ">
<path fill="none" stroke="#63b8ff" d="M232.42,-219.38C248.72,-198.9 289.81,-150.79 335,-125 338.2,-123.17 341.55,-121.48 345,-119.9"/>
<polygon fill="#63b8ff" stroke="#63b8ff" points="346.41,-123.1 354.28,-116.01 343.71,-116.65 346.41,-123.1"/>
</a>
</g>
</g>
<!-- Node13 -->
<g id="Node000013" class="node">
<title>Node13</title>
<g id="a_Node000013"><a xlink:href="classCCSDS_1_1Header.html#a6ac965b4a0dd459bb41e78225a376b18" target="_top" xlink:title="1 bits">
<polygon fill="white" stroke="#666666" points="487,-67.5 352,-67.5 352,-48.5 487,-48.5 487,-67.5"/>
<text text-anchor="middle" x="419.5" y="-55.5" font-family="Helvetica,sans-Serif" font-size="10.00">CCSDS::Header::getType</text>
</a>
</g>
</g>
<!-- Node4&#45;&gt;Node13 -->
<g id="edge12_Node000004_Node000013" class="edge">
<title>Node4&#45;&gt;Node13</title>
<g id="a_edge12_Node000004_Node000013"><a xlink:title=" ">
<path fill="none" stroke="#63b8ff" d="M229.02,-219.31C240.83,-192.09 278.2,-114.54 335,-77 338.1,-74.95 341.38,-73.12 344.79,-71.49"/>
<polygon fill="#63b8ff" stroke="#63b8ff" points="346.19,-74.7 354.07,-67.61 343.49,-68.24 346.19,-74.7"/>
</a>
</g>
</g>
<!-- Node14 -->
<g id="Node000014" class="node">
<title>Node14</title>
<g id="a_Node000014"><a xlink:href="classCCSDS_1_1Header.html#a2e77e7032a48a692bb8dd0754ecccdc5" target="_top" xlink:title="3 bits">
<polygon fill="white" stroke="#666666" points="494,-30 345,-30 345,0 494,0 494,-30"/>
<text text-anchor="start" x="353" y="-18" font-family="Helvetica,sans-Serif" font-size="10.00">CCSDS::Header::getVersion</text>
<text text-anchor="middle" x="419.5" y="-7" font-family="Helvetica,sans-Serif" font-size="10.00">Number</text>
</a>
</g>
</g>
<!-- Node4&#45;&gt;Node14 -->
<g id="edge13_Node000004_Node000014" class="edge">
<title>Node4&#45;&gt;Node14</title>
<g id="a_edge13_Node000004_Node000014"><a xlink:title=" ">
<path fill="none" stroke="#63b8ff" d="M227.72,-219.39C237.04,-188.24 270.71,-89.2 335,-39 336.79,-37.6 338.65,-36.29 340.58,-35.05"/>
<polygon fill="#63b8ff" stroke="#63b8ff" points="342.39,-38.05 349.39,-30.1 338.95,-31.95 342.39,-38.05"/>
</a>
</g>
</g>
</g>
</svg>

<g id="navigator" transform="translate(0 0)" fill="#404254">
  <rect fill="#f2f5e9" fill-opacity="0.5" stroke="#606060" stroke-width=".5" x="0" y="0" width="60" height="60"/>
  <use id="zoomplus" xlink:href="#zoomPlus" x="17" y="9" onmousedown="handleZoom(evt,'in')"/>
  <use id="zoomminus" xlink:href="#zoomMin" x="42" y="9" onmousedown="handleZoom(evt,'out')"/>
  <use id="reset" xlink:href="#resetDef" x="30" y="36" onmousedown="handleReset()"/>
   <use id="arrowup" xlink:href="#arrowUp" x="0" y="0" onmousedown="handlePan(0,-1)"/>
  <use id="arrowright" xlink:href="#arrowRight" x="0" y="0" onmousedown="handlePan(1,0)"/>
  <use id="arrowdown" xlink:href="#arrowDown" x="0" y="0" onmousedown="handlePan(0,1)"/>
  <use id="arrowleft" xlink:href="#arrowLeft" x="0" y="0" onmousedown="handlePan(-1,0)"/>
</g>
<svg viewBox="0 0 15 15" width="100%" height="30px" preserveAspectRatio="xMaxYMin meet">
 <g id="arrow_out" transform="scale(0.3 0.3)">
  <a xlink:href="CCSDSUtils_8cpp_a3c45ef84a35555519e34164e000dada5_cgraph_org.svg" target="_base">
   <rect id="button" ry="5" rx="5" y="6" x="6" height="38" width="38"
        fill="#f2f5e9" fill-opacity="0.5" stroke="#606060" stroke-width="1.0"/>
   <path id="arrow"
     d="M 11.500037,31.436501 C 11.940474,20.09759 22.043105,11.32322 32.158766,21.979434 L 37.068811,17.246167 C 37.068811,17.246167 37.088388,32 37.088388,32 L 22.160133,31.978069 C 22.160133,31.978069 26.997745,27.140456 26.997745,27.140456 C 18.528582,18.264221 13.291696,25.230495 11.500037,31.436501 z"
     style="fill:#404040;"/>
  </a>
 </g>
</svg>

<style type='text/css'>
<![CDATA[
[data-mouse-over-selected='false'] { opacity: 0.7; }
[data-mouse-over-selected='true']  { opacity: 1.0; }
]]>
</style>
<script type="application/ecmascript"><![CDATA[
document.addEventListener('DOMContentLoaded', (event) => {
  highlightEdges();
  highlightAdjacentNodes();
});
]]></script>
</svg>
