<?xml version="1.0" encoding="UTF-8" standalone="no"?>
<!DOCTYPE svg PUBLIC "-//W3C//DTD SVG 1.1//EN"
 "http://www.w3.org/Graphics/SVG/1.1/DTD/svg11.dtd">
<!-- Generated by graphviz version 2.43.0 (0)
 -->
<!-- Title: printDataField Pages: 1 -->
<svg width="523pt" height="176pt"
 viewBox="0.00 0.00 523.00 175.50" xmlns="http://www.w3.org/2000/svg" xmlns:xlink="http://www.w3.org/1999/xlink">
<g id="graph0" class="graph" transform="scale(1 1) rotate(0) translate(4 171.5)">
<title>printDataField</title>
<!-- Node1 -->
<g id="Node000001" class="node">
<title>Node1</title>
<g id="a_Node000001"><a xlink:title="Prints the data field and the CRC&#45;16 checksum of the packet.">
<polygon fill="#999999" stroke="#666666" points="86,-130.5 0,-130.5 0,-111.5 86,-111.5 86,-130.5"/>
<text text-anchor="middle" x="43" y="-118.5" font-family="Helvetica,sans-Serif" font-size="10.00">printDataField</text>
</a>
</g>
</g>
<!-- Node2 -->
<g id="Node000002" class="node">
<title>Node2</title>
<g id="a_Node000002"><a xlink:href="classCCSDS_1_1Packet.html#a6b0791e2a62a2db48b12a5ee6b762a7b" target="_top" xlink:title="Computes and retrieves the CRC&#45;16 checksum of the packet.">
<polygon fill="white" stroke="#666666" points="264,-167.5 135,-167.5 135,-148.5 264,-148.5 264,-167.5"/>
<text text-anchor="middle" x="199.5" y="-155.5" font-family="Helvetica,sans-Serif" font-size="10.00">CCSDS::Packet::getCRC</text>
</a>
</g>
</g>
<!-- Node1&#45;&gt;Node2 -->
<g id="edge1_Node000001_Node000002" class="edge">
<title>Node1&#45;&gt;Node2</title>
<g id="a_edge1_Node000001_Node000002"><a xlink:title=" ">
<path fill="none" stroke="#63b8ff" d="M82.87,-130.53C95.36,-133.58 109.26,-136.95 122,-140 130.3,-141.99 139.11,-144.08 147.68,-146.1"/>
<polygon fill="#63b8ff" stroke="#63b8ff" points="147.06,-149.55 157.59,-148.44 148.66,-142.74 147.06,-149.55"/>
</a>
</g>
</g>
<!-- Node3 -->
<g id="Node000003" class="node">
<title>Node3</title>
<g id="a_Node000003"><a xlink:href="classCCSDS_1_1Packet.html#ae788c8d3ae1fcec2c18787c9491cdca3" target="_top" xlink:title="returns the CCSDS packet&#39;s DataField.">
<polygon fill="white" stroke="#666666" points="277,-130.5 122,-130.5 122,-111.5 277,-111.5 277,-130.5"/>
<text text-anchor="middle" x="199.5" y="-118.5" font-family="Helvetica,sans-Serif" font-size="10.00">CCSDS::Packet::getDataField</text>
</a>
</g>
</g>
<!-- Node1&#45;&gt;Node3 -->
<g id="edge2_Node000001_Node000003" class="edge">
<title>Node1&#45;&gt;Node3</title>
<g id="a_edge2_Node000001_Node000003"><a xlink:title=" ">
<path fill="none" stroke="#63b8ff" d="M86.22,-121C94.27,-121 102.96,-121 111.82,-121"/>
<polygon fill="#63b8ff" stroke="#63b8ff" points="111.87,-124.5 121.87,-121 111.87,-117.5 111.87,-124.5"/>
</a>
</g>
</g>
<!-- Node4 -->
<g id="Node000004" class="node">
<title>Node4</title>
<g id="a_Node000004"><a xlink:href="CCSDSUtils_8cpp.html#a6e927daa91ea42db4bb94bfc51425b96" target="_top" xlink:title="Prints the data field details, including the secondary header and application data.">
<polygon fill="white" stroke="#666666" points="230.5,-93.5 168.5,-93.5 168.5,-74.5 230.5,-74.5 230.5,-93.5"/>
<text text-anchor="middle" x="199.5" y="-81.5" font-family="Helvetica,sans-Serif" font-size="10.00">printData</text>
</a>
</g>
</g>
<!-- Node1&#45;&gt;Node4 -->
<g id="edge3_Node000001_Node000004" class="edge">
<title>Node1&#45;&gt;Node4</title>
<g id="a_edge3_Node000001_Node000004"><a xlink:title=" ">
<path fill="none" stroke="#63b8ff" d="M83.79,-111.47C106.69,-105.99 135.38,-99.12 158.34,-93.62"/>
<polygon fill="#63b8ff" stroke="#63b8ff" points="159.21,-97.01 168.12,-91.28 157.58,-90.2 159.21,-97.01"/>
</a>
</g>
</g>
<!-- Node5 -->
<g id="Node000005" class="node">
<title>Node5</title>
<g id="a_Node000005"><a xlink:href="classCCSDS_1_1DataField.html#a692e61aef588439155bdd3e289bfa103" target="_top" xlink:title="Retrieves the application data from the data field.">
<polygon fill="white" stroke="#666666" points="515,-152.5 313,-152.5 313,-133.5 515,-133.5 515,-152.5"/>
<text text-anchor="middle" x="414" y="-140.5" font-family="Helvetica,sans-Serif" font-size="10.00">CCSDS::DataField::getApplicationData</text>
</a>
</g>
</g>
<!-- Node4&#45;&gt;Node5 -->
<g id="edge4_Node000004_Node000005" class="edge">
<title>Node4&#45;&gt;Node5</title>
<g id="a_edge4_Node000004_Node000005"><a xlink:title=" ">
<path fill="none" stroke="#63b8ff" d="M230.6,-89.26C244.98,-92.32 262.23,-96.82 277,-103 294.3,-110.23 295.47,-118.34 313,-125 318.9,-127.24 325.1,-129.21 331.4,-130.93"/>
<polygon fill="#63b8ff" stroke="#63b8ff" points="330.82,-134.4 341.37,-133.45 332.53,-127.61 330.82,-134.4"/>
</a>
</g>
</g>
<!-- Node6 -->
<g id="Node000006" class="node">
<title>Node6</title>
<g id="a_Node000006"><a xlink:href="CCSDSUtils_8cpp.html#a6a4f98ed870a1cf55c943c9ace54a0cf" target="_top" xlink:title="Generates a string of spaces for formatting binary outputs.">
<polygon fill="white" stroke="#666666" points="457,-115.5 371,-115.5 371,-96.5 457,-96.5 457,-115.5"/>
<text text-anchor="middle" x="414" y="-103.5" font-family="Helvetica,sans-Serif" font-size="10.00">getBitsSpaces</text>
</a>
</g>
</g>
<!-- Node4&#45;&gt;Node6 -->
<g id="edge5_Node000004_Node000006" class="edge">
<title>Node4&#45;&gt;Node6</title>
<g id="a_edge5_Node000004_Node000006"><a xlink:title=" ">
<path fill="none" stroke="#63b8ff" d="M230.95,-87.15C264.8,-90.66 320.08,-96.38 360.86,-100.6"/>
<polygon fill="#63b8ff" stroke="#63b8ff" points="360.58,-104.09 370.89,-101.64 361.3,-97.13 360.58,-104.09"/>
</a>
</g>
</g>
<!-- Node7 -->
<g id="Node000007" class="node">
<title>Node7</title>
<g id="a_Node000007"><a xlink:href="classCCSDS_1_1DataField.html#a586f18dcf878e68efd197994e95c6895" target="_top" xlink:title="Retrieves the secondary header data as a vector of bytes.">
<polygon fill="white" stroke="#666666" points="487.5,-78 340.5,-78 340.5,-48 487.5,-48 487.5,-78"/>
<text text-anchor="start" x="348.5" y="-66" font-family="Helvetica,sans-Serif" font-size="10.00">CCSDS::DataField::getData</text>
<text text-anchor="middle" x="414" y="-55" font-family="Helvetica,sans-Serif" font-size="10.00">FieldHeaderBytes</text>
</a>
</g>
</g>
<!-- Node4&#45;&gt;Node7 -->
<g id="edge6_Node000004_Node000007" class="edge">
<title>Node4&#45;&gt;Node7</title>
<g id="a_edge6_Node000004_Node000007"><a xlink:title=" ">
<path fill="none" stroke="#63b8ff" d="M230.95,-80.99C256.85,-78.43 295.3,-74.63 330.19,-71.18"/>
<polygon fill="#63b8ff" stroke="#63b8ff" points="330.8,-74.64 340.41,-70.17 330.11,-67.67 330.8,-74.64"/>
</a>
</g>
</g>
<!-- Node8 -->
<g id="Node000008" class="node">
<title>Node8</title>
<g id="a_Node000008"><a xlink:href="classCCSDS_1_1DataField.html#a78c2894fc2650e0dc9ec892d58dfde7a" target="_top" xlink:title="retrieves true if a known secondary header has been set">
<polygon fill="white" stroke="#666666" points="487.5,-30 340.5,-30 340.5,0 487.5,0 487.5,-30"/>
<text text-anchor="start" x="348.5" y="-18" font-family="Helvetica,sans-Serif" font-size="10.00">CCSDS::DataField::getData</text>
<text text-anchor="middle" x="414" y="-7" font-family="Helvetica,sans-Serif" font-size="10.00">FieldHeaderFlag</text>
</a>
</g>
</g>
<!-- Node4&#45;&gt;Node8 -->
<g id="edge7_Node000004_Node000008" class="edge">
<title>Node4&#45;&gt;Node8</title>
<g id="a_edge7_Node000004_Node000008"><a xlink:title=" ">
<path fill="none" stroke="#63b8ff" d="M221.73,-74.43C244.1,-64.61 280.53,-49.33 313,-39 320.04,-36.76 327.41,-34.62 334.83,-32.6"/>
<polygon fill="#63b8ff" stroke="#63b8ff" points="335.82,-35.96 344.59,-30.02 334.03,-29.19 335.82,-35.96"/>
</a>
</g>
</g>
</g>
</svg>
