<?xml version="1.0" encoding="UTF-8" standalone="no"?>
<!DOCTYPE svg PUBLIC "-//W3C//DTD SVG 1.1//EN"
 "http://www.w3.org/Graphics/SVG/1.1/DTD/svg11.dtd">
<!-- Generated by graphviz version 2.43.0 (0)
 -->
<!-- Title: inc/CCSDSHeader.h Pages: 1 -->
<svg width="982pt" height="302pt"
 viewBox="0.00 0.00 981.50 302.00" xmlns="http://www.w3.org/2000/svg" xmlns:xlink="http://www.w3.org/1999/xlink">
<g id="graph0" class="graph" transform="scale(1 1) rotate(0) translate(4 298)">
<title>inc/CCSDSHeader.h</title>
<!-- Node1 -->
<g id="Node000001" class="node">
<title>Node1</title>
<g id="a_Node000001"><a xlink:title=" ">
<polygon fill="#999999" stroke="#666666" points="828.5,-294 718.5,-294 718.5,-275 828.5,-275 828.5,-294"/>
<text text-anchor="middle" x="773.5" y="-282" font-family="Helvetica,sans-Serif" font-size="10.00">inc/CCSDSHeader.h</text>
</a>
</g>
</g>
<!-- Node2 -->
<g id="Node000002" class="node">
<title>Node2</title>
<g id="a_Node000002"><a xlink:href="CCSDSPacket_8h.html" target="_top" xlink:title=" ">
<polygon fill="white" stroke="#666666" points="467,-239 360,-239 360,-220 467,-220 467,-239"/>
<text text-anchor="middle" x="413.5" y="-227" font-family="Helvetica,sans-Serif" font-size="10.00">inc/CCSDSPacket.h</text>
</a>
</g>
</g>
<!-- Node1&#45;&gt;Node2 -->
<g id="edge1_Node000001_Node000002" class="edge">
<title>Node1&#45;&gt;Node2</title>
<g id="a_edge1_Node000001_Node000002"><a xlink:title=" ">
<path fill="none" stroke="#63b8ff" d="M708.53,-273.94C639.46,-263.77 531.48,-247.87 467.09,-238.39"/>
<polygon fill="#63b8ff" stroke="#63b8ff" points="708.03,-277.4 718.43,-275.39 709.05,-270.47 708.03,-277.4"/>
</a>
</g>
</g>
<!-- Node6 -->
<g id="Node000006" class="node">
<title>Node6</title>
<g id="a_Node000006"><a xlink:href="CCSDSHeader_8cpp.html" target="_top" xlink:title=" ">
<polygon fill="white" stroke="#666666" points="973.5,-19 851.5,-19 851.5,0 973.5,0 973.5,-19"/>
<text text-anchor="middle" x="912.5" y="-7" font-family="Helvetica,sans-Serif" font-size="10.00">src/CCSDSHeader.cpp</text>
</a>
</g>
</g>
<!-- Node1&#45;&gt;Node6 -->
<g id="edge18_Node000001_Node000006" class="edge">
<title>Node1&#45;&gt;Node6</title>
<g id="a_edge18_Node000001_Node000006"><a xlink:title=" ">
<path fill="none" stroke="#63b8ff" d="M796.64,-269.03C822.71,-250.74 861.5,-216.61 861.5,-175.5 861.5,-175.5 861.5,-175.5 861.5,-118.5 861.5,-78.07 891.09,-36.57 905.19,-19.09"/>
<polygon fill="#63b8ff" stroke="#63b8ff" points="794.37,-266.34 788.03,-274.83 798.28,-272.15 794.37,-266.34"/>
</a>
</g>
</g>
<!-- Node11 -->
<g id="Node000011" class="node">
<title>Node11</title>
<g id="a_Node000011"><a xlink:href="exec__encoder_8cpp.html" target="_top" xlink:title=" ">
<polygon fill="white" stroke="#666666" points="833.5,-19 713.5,-19 713.5,0 833.5,0 833.5,-19"/>
<text text-anchor="middle" x="773.5" y="-7" font-family="Helvetica,sans-Serif" font-size="10.00">src/exec_encoder.cpp</text>
</a>
</g>
</g>
<!-- Node1&#45;&gt;Node11 -->
<g id="edge19_Node000001_Node000011" class="edge">
<title>Node1&#45;&gt;Node11</title>
<g id="a_edge19_Node000001_Node000011"><a xlink:title=" ">
<path fill="none" stroke="#63b8ff" d="M773.5,-264.77C773.5,-243.23 773.5,-206.81 773.5,-175.5 773.5,-175.5 773.5,-175.5 773.5,-118.5 773.5,-81.56 773.5,-37.52 773.5,-19.18"/>
<polygon fill="#63b8ff" stroke="#63b8ff" points="770,-264.82 773.5,-274.82 777,-264.82 770,-264.82"/>
</a>
</g>
</g>
<!-- Node3 -->
<g id="Node000003" class="node">
<title>Node3</title>
<g id="a_Node000003"><a xlink:href="CCSDSManager_8h.html" target="_top" xlink:title=" ">
<polygon fill="white" stroke="#666666" points="447.5,-129 329.5,-129 329.5,-110 447.5,-110 447.5,-129"/>
<text text-anchor="middle" x="388.5" y="-117" font-family="Helvetica,sans-Serif" font-size="10.00">inc/CCSDSManager.h</text>
</a>
</g>
</g>
<!-- Node2&#45;&gt;Node3 -->
<g id="edge2_Node000002_Node000003" class="edge">
<title>Node2&#45;&gt;Node3</title>
<g id="a_edge2_Node000002_Node000003"><a xlink:title=" ">
<path fill="none" stroke="#63b8ff" d="M409.17,-209.8C403.71,-186.2 394.54,-146.58 390.5,-129.16"/>
<polygon fill="#63b8ff" stroke="#63b8ff" points="405.79,-210.71 411.45,-219.66 412.61,-209.13 405.79,-210.71"/>
</a>
</g>
</g>
<!-- Node4 -->
<g id="Node000004" class="node">
<title>Node4</title>
<g id="a_Node000004"><a xlink:href="CCSDSUtils_8h.html" target="_top" xlink:title=" ">
<polygon fill="white" stroke="#666666" points="524.5,-74 426.5,-74 426.5,-55 524.5,-55 524.5,-74"/>
<text text-anchor="middle" x="475.5" y="-62" font-family="Helvetica,sans-Serif" font-size="10.00">inc/CCSDSUtils.h</text>
</a>
</g>
</g>
<!-- Node2&#45;&gt;Node4 -->
<g id="edge13_Node000002_Node000004" class="edge">
<title>Node2&#45;&gt;Node4</title>
<g id="a_edge13_Node000002_Node000004"><a xlink:title=" ">
<path fill="none" stroke="#63b8ff" d="M422,-210.58C431.18,-190.85 445.91,-158.08 456.5,-129 463.51,-109.75 469.96,-86.57 473.24,-74.23"/>
<polygon fill="#63b8ff" stroke="#63b8ff" points="418.73,-209.32 417.65,-219.85 425.07,-212.29 418.73,-209.32"/>
</a>
</g>
</g>
<!-- Node8 -->
<g id="Node000008" class="node">
<title>Node8</title>
<g id="a_Node000008"><a xlink:href="CCSDSPacket_8cpp.html" target="_top" xlink:title=" ">
<polygon fill="white" stroke="#666666" points="119,-19 0,-19 0,0 119,0 119,-19"/>
<text text-anchor="middle" x="59.5" y="-7" font-family="Helvetica,sans-Serif" font-size="10.00">src/CCSDSPacket.cpp</text>
</a>
</g>
</g>
<!-- Node2&#45;&gt;Node8 -->
<g id="edge17_Node000002_Node000008" class="edge">
<title>Node2&#45;&gt;Node8</title>
<g id="a_edge17_Node000002_Node000008"><a xlink:title=" ">
<path fill="none" stroke="#63b8ff" d="M352.2,-217.78C322.13,-210.9 286.11,-200.14 256.5,-184 170.87,-137.32 90.74,-47.44 66.75,-19.21"/>
<polygon fill="#63b8ff" stroke="#63b8ff" points="351.63,-221.24 362.15,-219.97 353.13,-214.4 351.63,-221.24"/>
</a>
</g>
</g>
<!-- Node12 -->
<g id="Node000012" class="node">
<title>Node12</title>
<g id="a_Node000012"><a xlink:href="CCSDSValidator_8h.html" target="_top" xlink:title="Defines the Validator class for CCSDS packet validation.">
<polygon fill="white" stroke="#666666" points="385,-184 266,-184 266,-165 385,-165 385,-184"/>
<text text-anchor="middle" x="325.5" y="-172" font-family="Helvetica,sans-Serif" font-size="10.00">inc/CCSDSValidator.h</text>
</a>
</g>
</g>
<!-- Node2&#45;&gt;Node12 -->
<g id="edge14_Node000002_Node000012" class="edge">
<title>Node2&#45;&gt;Node12</title>
<g id="a_edge14_Node000002_Node000012"><a xlink:title=" ">
<path fill="none" stroke="#63b8ff" d="M390.58,-214.7C374.55,-205.04 353.63,-192.44 339.9,-184.17"/>
<polygon fill="#63b8ff" stroke="#63b8ff" points="388.99,-217.82 399.36,-219.98 392.6,-211.83 388.99,-217.82"/>
</a>
</g>
</g>
<!-- Node3&#45;&gt;Node4 -->
<g id="edge3_Node000003_Node000004" class="edge">
<title>Node3&#45;&gt;Node4</title>
<g id="a_edge3_Node000003_Node000004"><a xlink:title=" ">
<path fill="none" stroke="#63b8ff" d="M411.16,-104.7C427.01,-95.04 447.69,-82.44 461.27,-74.17"/>
<polygon fill="#63b8ff" stroke="#63b8ff" points="409.2,-101.79 402.48,-109.98 412.84,-107.77 409.2,-101.79"/>
</a>
</g>
</g>
<!-- Node7 -->
<g id="Node000007" class="node">
<title>Node7</title>
<g id="a_Node000007"><a xlink:href="CCSDSManager_8cpp.html" target="_top" xlink:title=" ">
<polygon fill="white" stroke="#666666" points="415,-19 286,-19 286,0 415,0 415,-19"/>
<text text-anchor="middle" x="350.5" y="-7" font-family="Helvetica,sans-Serif" font-size="10.00">src/CCSDSManager.cpp</text>
</a>
</g>
</g>
<!-- Node3&#45;&gt;Node7 -->
<g id="edge11_Node000003_Node000007" class="edge">
<title>Node3&#45;&gt;Node7</title>
<g id="a_edge11_Node000003_Node000007"><a xlink:title=" ">
<path fill="none" stroke="#63b8ff" d="M382.03,-100.12C373.74,-76.56 359.7,-36.66 353.55,-19.16"/>
<polygon fill="#63b8ff" stroke="#63b8ff" points="378.77,-101.39 385.39,-109.66 385.37,-99.07 378.77,-101.39"/>
</a>
</g>
</g>
<!-- Node3&#45;&gt;Node11 -->
<g id="edge12_Node000003_Node000011" class="edge">
<title>Node3&#45;&gt;Node11</title>
<g id="a_edge12_Node000003_Node000011"><a xlink:title=" ">
<path fill="none" stroke="#63b8ff" d="M428.9,-107.17C506.32,-85.45 674.03,-38.4 742.96,-19.07"/>
<polygon fill="#63b8ff" stroke="#63b8ff" points="427.72,-103.86 419.03,-109.94 429.61,-110.6 427.72,-103.86"/>
</a>
</g>
</g>
<!-- Node5 -->
<g id="Node000005" class="node">
<title>Node5</title>
<g id="a_Node000005"><a xlink:href="CCSDSDataField_8cpp.html" target="_top" xlink:title=" ">
<polygon fill="white" stroke="#666666" points="695.5,-19 561.5,-19 561.5,0 695.5,0 695.5,-19"/>
<text text-anchor="middle" x="628.5" y="-7" font-family="Helvetica,sans-Serif" font-size="10.00">src/CCSDSDataField.cpp</text>
</a>
</g>
</g>
<!-- Node4&#45;&gt;Node5 -->
<g id="edge4_Node000004_Node000005" class="edge">
<title>Node4&#45;&gt;Node5</title>
<g id="a_edge4_Node000004_Node000005"><a xlink:title=" ">
<path fill="none" stroke="#63b8ff" d="M509.65,-51.67C538.18,-41.79 578.19,-27.93 603.73,-19.08"/>
<polygon fill="#63b8ff" stroke="#63b8ff" points="508.39,-48.4 500.08,-54.98 510.68,-55.02 508.39,-48.4"/>
</a>
</g>
</g>
<!-- Node4&#45;&gt;Node6 -->
<g id="edge5_Node000004_Node000006" class="edge">
<title>Node4&#45;&gt;Node6</title>
<g id="a_edge5_Node000004_Node000006"><a xlink:title=" ">
<path fill="none" stroke="#63b8ff" d="M535.08,-56.28C607.69,-47.48 734.1,-32.15 842.5,-19 845.42,-18.65 848.4,-18.28 851.42,-17.92"/>
<polygon fill="#63b8ff" stroke="#63b8ff" points="534.28,-52.85 524.77,-57.53 535.12,-59.8 534.28,-52.85"/>
</a>
</g>
</g>
<!-- Node4&#45;&gt;Node7 -->
<g id="edge6_Node000004_Node000007" class="edge">
<title>Node4&#45;&gt;Node7</title>
<g id="a_edge6_Node000004_Node000007"><a xlink:title=" ">
<path fill="none" stroke="#63b8ff" d="M446.09,-51.03C422.97,-41.23 391.37,-27.83 370.95,-19.17"/>
<polygon fill="#63b8ff" stroke="#63b8ff" points="444.84,-54.3 455.42,-54.98 447.58,-47.86 444.84,-54.3"/>
</a>
</g>
</g>
<!-- Node4&#45;&gt;Node8 -->
<g id="edge7_Node000004_Node000008" class="edge">
<title>Node4&#45;&gt;Node8</title>
<g id="a_edge7_Node000004_Node000008"><a xlink:title=" ">
<path fill="none" stroke="#63b8ff" d="M415.87,-55.9C336.85,-45.84 198.23,-28.18 119.18,-18.1"/>
<polygon fill="#63b8ff" stroke="#63b8ff" points="415.78,-59.42 426.15,-57.21 416.67,-52.48 415.78,-59.42"/>
</a>
</g>
</g>
<!-- Node9 -->
<g id="Node000009" class="node">
<title>Node9</title>
<g id="a_Node000009"><a xlink:href="CCSDSUtils_8cpp.html" target="_top" xlink:title=" ">
<polygon fill="white" stroke="#666666" points="543.5,-19 433.5,-19 433.5,0 543.5,0 543.5,-19"/>
<text text-anchor="middle" x="488.5" y="-7" font-family="Helvetica,sans-Serif" font-size="10.00">src/CCSDSUtils.cpp</text>
</a>
</g>
</g>
<!-- Node4&#45;&gt;Node9 -->
<g id="edge8_Node000004_Node000009" class="edge">
<title>Node4&#45;&gt;Node9</title>
<g id="a_edge8_Node000004_Node000009"><a xlink:title=" ">
<path fill="none" stroke="#63b8ff" d="M480.05,-44.95C482.21,-36.15 484.68,-26.06 486.39,-19.09"/>
<polygon fill="#63b8ff" stroke="#63b8ff" points="476.63,-44.2 477.65,-54.75 483.43,-45.87 476.63,-44.2"/>
</a>
</g>
</g>
<!-- Node10 -->
<g id="Node000010" class="node">
<title>Node10</title>
<g id="a_Node000010"><a xlink:href="CCSDSValidator_8cpp.html" target="_top" xlink:title=" ">
<polygon fill="white" stroke="#666666" points="267.5,-19 137.5,-19 137.5,0 267.5,0 267.5,-19"/>
<text text-anchor="middle" x="202.5" y="-7" font-family="Helvetica,sans-Serif" font-size="10.00">src/CCSDSValidator.cpp</text>
</a>
</g>
</g>
<!-- Node4&#45;&gt;Node10 -->
<g id="edge9_Node000004_Node000010" class="edge">
<title>Node4&#45;&gt;Node10</title>
<g id="a_edge9_Node000004_Node000010"><a xlink:title=" ">
<path fill="none" stroke="#63b8ff" d="M421.75,-53.07C370.57,-43.13 294.46,-28.35 246.71,-19.08"/>
<polygon fill="#63b8ff" stroke="#63b8ff" points="421.15,-56.51 431.64,-54.98 422.49,-49.64 421.15,-56.51"/>
</a>
</g>
</g>
<!-- Node4&#45;&gt;Node11 -->
<g id="edge10_Node000004_Node000011" class="edge">
<title>Node4&#45;&gt;Node11</title>
<g id="a_edge10_Node000004_Node000011"><a xlink:title=" ">
<path fill="none" stroke="#63b8ff" d="M533.48,-53.19C589.35,-43.25 672.9,-28.39 725.25,-19.08"/>
<polygon fill="#63b8ff" stroke="#63b8ff" points="532.61,-49.79 523.38,-54.98 533.84,-56.68 532.61,-49.79"/>
</a>
</g>
</g>
<!-- Node12&#45;&gt;Node3 -->
<g id="edge15_Node000012_Node000003" class="edge">
<title>Node12&#45;&gt;Node3</title>
<g id="a_edge15_Node000012_Node000003"><a xlink:title=" ">
<path fill="none" stroke="#63b8ff" d="M343.54,-158.32C354.77,-148.87 368.82,-137.06 378.19,-129.17"/>
<polygon fill="#63b8ff" stroke="#63b8ff" points="341.02,-155.87 335.62,-164.98 345.53,-161.23 341.02,-155.87"/>
</a>
</g>
</g>
<!-- Node12&#45;&gt;Node10 -->
<g id="edge16_Node000012_Node000010" class="edge">
<title>Node12&#45;&gt;Node10</title>
<g id="a_edge16_Node000012_Node000010"><a xlink:title=" ">
<path fill="none" stroke="#63b8ff" d="M312.76,-156.62C286.85,-122.28 228.79,-45.34 209.15,-19.31"/>
<polygon fill="#63b8ff" stroke="#63b8ff" points="310.07,-158.86 318.89,-164.74 315.66,-154.65 310.07,-158.86"/>
</a>
</g>
</g>
</g>
</svg>
