<?xml version="1.0" encoding="UTF-8" standalone="no"?>
<!DOCTYPE svg PUBLIC "-//W3C//DTD SVG 1.1//EN"
 "http://www.w3.org/Graphics/SVG/1.1/DTD/svg11.dtd">
<!-- Generated by graphviz version 2.43.0 (0)
 -->
<!-- Title: printPackets Pages: 1 -->
<svg width="662pt" height="578pt"
 viewBox="0.00 0.00 662.00 577.50" xmlns="http://www.w3.org/2000/svg" xmlns:xlink="http://www.w3.org/1999/xlink">
<g id="graph0" class="graph" transform="scale(1 1) rotate(0) translate(4 573.5)">
<title>printPackets</title>
<!-- Node1 -->
<g id="Node000001" class="node">
<title>Node1</title>
<g id="a_Node000001"><a xlink:title="Prints to console a series of CCSDS Packets, breaking it down to Primary header and Data field.">
<polygon fill="#999999" stroke="#666666" points="76,-454 0,-454 0,-435 76,-435 76,-454"/>
<text text-anchor="middle" x="38" y="-442" font-family="Helvetica,sans-Serif" font-size="10.00">printPackets</text>
</a>
</g>
</g>
<!-- Node2 -->
<g id="Node000002" class="node">
<title>Node2</title>
<g id="a_Node000002"><a xlink:href="CCSDSUtils_8cpp.html#a11a4c6e301823bbf5b8b12ba24ce0276" target="_top" xlink:title="Prints to console the HEX data from the bytes vector.">
<polygon fill="white" stroke="#666666" points="214.5,-491 122.5,-491 122.5,-472 214.5,-472 214.5,-491"/>
<text text-anchor="middle" x="168.5" y="-479" font-family="Helvetica,sans-Serif" font-size="10.00">printBufferData</text>
</a>
</g>
</g>
<!-- Node1&#45;&gt;Node2 -->
<g id="edge1_Node000001_Node000002" class="edge">
<title>Node1&#45;&gt;Node2</title>
<g id="a_edge1_Node000001_Node000002"><a xlink:title=" ">
<path fill="none" stroke="#63b8ff" d="M72.09,-454.03C88.01,-458.61 107.28,-464.16 124.33,-469.07"/>
<polygon fill="#63b8ff" stroke="#63b8ff" points="123.5,-472.47 134.07,-471.88 125.43,-465.74 123.5,-472.47"/>
</a>
</g>
</g>
<!-- Node3 -->
<g id="Node000003" class="node">
<title>Node3</title>
<g id="a_Node000003"><a xlink:href="CCSDSUtils_8cpp.html#aed99c8e7576ac25c49f6b913b46d1b76" target="_top" xlink:title="Prints the data field and the CRC&#45;16 checksum of the packet.">
<polygon fill="white" stroke="#666666" points="211.5,-454 125.5,-454 125.5,-435 211.5,-435 211.5,-454"/>
<text text-anchor="middle" x="168.5" y="-442" font-family="Helvetica,sans-Serif" font-size="10.00">printDataField</text>
</a>
</g>
</g>
<!-- Node1&#45;&gt;Node3 -->
<g id="edge2_Node000001_Node000003" class="edge">
<title>Node1&#45;&gt;Node3</title>
<g id="a_edge2_Node000001_Node000003"><a xlink:title=" ">
<path fill="none" stroke="#63b8ff" d="M76.17,-444.5C88.33,-444.5 102.08,-444.5 115.15,-444.5"/>
<polygon fill="#63b8ff" stroke="#63b8ff" points="115.45,-448 125.45,-444.5 115.45,-441 115.45,-448"/>
</a>
</g>
</g>
<!-- Node11 -->
<g id="Node000011" class="node">
<title>Node11</title>
<g id="a_Node000011"><a xlink:href="CCSDSUtils_8cpp.html#a3c45ef84a35555519e34164e000dada5" target="_top" xlink:title="Prints to console the primary header of a provided CCSDS packet.">
<polygon fill="white" stroke="#666666" points="225,-244 112,-244 112,-225 225,-225 225,-244"/>
<text text-anchor="middle" x="168.5" y="-232" font-family="Helvetica,sans-Serif" font-size="10.00">printPrimaryHeader</text>
</a>
</g>
</g>
<!-- Node1&#45;&gt;Node11 -->
<g id="edge10_Node000001_Node000011" class="edge">
<title>Node1&#45;&gt;Node11</title>
<g id="a_edge10_Node000001_Node000011"><a xlink:title=" ">
<path fill="none" stroke="#63b8ff" d="M44.86,-434.93C64.76,-402.41 130.02,-295.76 156.34,-252.73"/>
<polygon fill="#63b8ff" stroke="#63b8ff" points="159.38,-254.48 161.61,-244.13 153.41,-250.83 159.38,-254.48"/>
</a>
</g>
</g>
<!-- Node4 -->
<g id="Node000004" class="node">
<title>Node4</title>
<g id="a_Node000004"><a xlink:href="classCCSDS_1_1Packet.html#a6b0791e2a62a2db48b12a5ee6b762a7b" target="_top" xlink:title="Computes and retrieves the CRC&#45;16 checksum of the packet.">
<polygon fill="white" stroke="#666666" points="403,-436 274,-436 274,-417 403,-417 403,-436"/>
<text text-anchor="middle" x="338.5" y="-424" font-family="Helvetica,sans-Serif" font-size="10.00">CCSDS::Packet::getCRC</text>
</a>
</g>
</g>
<!-- Node3&#45;&gt;Node4 -->
<g id="edge3_Node000003_Node000004" class="edge">
<title>Node3&#45;&gt;Node4</title>
<g id="a_edge3_Node000003_Node000004"><a xlink:title=" ">
<path fill="none" stroke="#63b8ff" d="M211.89,-439.96C227.58,-438.28 245.85,-436.32 263.52,-434.43"/>
<polygon fill="#63b8ff" stroke="#63b8ff" points="264.26,-437.87 273.83,-433.32 263.51,-430.91 264.26,-437.87"/>
</a>
</g>
</g>
<!-- Node5 -->
<g id="Node000005" class="node">
<title>Node5</title>
<g id="a_Node000005"><a xlink:href="classCCSDS_1_1Packet.html#ae788c8d3ae1fcec2c18787c9491cdca3" target="_top" xlink:title="returns the CCSDS packet&#39;s DataField.">
<polygon fill="white" stroke="#666666" points="416,-510 261,-510 261,-491 416,-491 416,-510"/>
<text text-anchor="middle" x="338.5" y="-498" font-family="Helvetica,sans-Serif" font-size="10.00">CCSDS::Packet::getDataField</text>
</a>
</g>
</g>
<!-- Node3&#45;&gt;Node5 -->
<g id="edge4_Node000003_Node000005" class="edge">
<title>Node3&#45;&gt;Node5</title>
<g id="a_edge4_Node000003_Node000005"><a xlink:title=" ">
<path fill="none" stroke="#63b8ff" d="M200.07,-454.01C208.26,-456.82 217.05,-460.07 225,-463.5 241.61,-470.67 244.06,-476.15 261,-482.5 266.57,-484.58 272.45,-486.48 278.39,-488.19"/>
<polygon fill="#63b8ff" stroke="#63b8ff" points="277.82,-491.66 288.38,-490.9 279.65,-484.91 277.82,-491.66"/>
</a>
</g>
</g>
<!-- Node6 -->
<g id="Node000006" class="node">
<title>Node6</title>
<g id="a_Node000006"><a xlink:href="CCSDSUtils_8cpp.html#a6e927daa91ea42db4bb94bfc51425b96" target="_top" xlink:title="Prints the data field details, including the secondary header and application data.">
<polygon fill="white" stroke="#666666" points="369.5,-473 307.5,-473 307.5,-454 369.5,-454 369.5,-473"/>
<text text-anchor="middle" x="338.5" y="-461" font-family="Helvetica,sans-Serif" font-size="10.00">printData</text>
</a>
</g>
</g>
<!-- Node3&#45;&gt;Node6 -->
<g id="edge5_Node000003_Node000006" class="edge">
<title>Node3&#45;&gt;Node6</title>
<g id="a_edge5_Node000003_Node000006"><a xlink:title=" ">
<path fill="none" stroke="#63b8ff" d="M211.89,-449.29C238.04,-452.25 271.37,-456.02 297.13,-458.93"/>
<polygon fill="#63b8ff" stroke="#63b8ff" points="296.98,-462.44 307.31,-460.09 297.76,-455.48 296.98,-462.44"/>
</a>
</g>
</g>
<!-- Node7 -->
<g id="Node000007" class="node">
<title>Node7</title>
<g id="a_Node000007"><a xlink:href="classCCSDS_1_1DataField.html#a692e61aef588439155bdd3e289bfa103" target="_top" xlink:title="Retrieves the application data from the data field.">
<polygon fill="white" stroke="#666666" points="654,-473 452,-473 452,-454 654,-454 654,-473"/>
<text text-anchor="middle" x="553" y="-461" font-family="Helvetica,sans-Serif" font-size="10.00">CCSDS::DataField::getApplicationData</text>
</a>
</g>
</g>
<!-- Node6&#45;&gt;Node7 -->
<g id="edge6_Node000006_Node000007" class="edge">
<title>Node6&#45;&gt;Node7</title>
<g id="a_edge6_Node000006_Node000007"><a xlink:title=" ">
<path fill="none" stroke="#63b8ff" d="M369.95,-463.5C389.18,-463.5 415.33,-463.5 441.8,-463.5"/>
<polygon fill="#63b8ff" stroke="#63b8ff" points="441.95,-467 451.95,-463.5 441.95,-460 441.95,-467"/>
</a>
</g>
</g>
<!-- Node8 -->
<g id="Node000008" class="node">
<title>Node8</title>
<g id="a_Node000008"><a xlink:href="CCSDSUtils_8cpp.html#a6a4f98ed870a1cf55c943c9ace54a0cf" target="_top" xlink:title="Generates a string of spaces for formatting binary outputs.">
<polygon fill="white" stroke="#666666" points="596,-436 510,-436 510,-417 596,-417 596,-436"/>
<text text-anchor="middle" x="553" y="-424" font-family="Helvetica,sans-Serif" font-size="10.00">getBitsSpaces</text>
</a>
</g>
</g>
<!-- Node6&#45;&gt;Node8 -->
<g id="edge7_Node000006_Node000008" class="edge">
<title>Node6&#45;&gt;Node8</title>
<g id="a_edge7_Node000006_Node000008"><a xlink:title=" ">
<path fill="none" stroke="#63b8ff" d="M369.95,-458.2C403.8,-452.3 459.08,-442.68 499.86,-435.58"/>
<polygon fill="#63b8ff" stroke="#63b8ff" points="500.64,-439 509.89,-433.83 499.44,-432.1 500.64,-439"/>
</a>
</g>
</g>
<!-- Node9 -->
<g id="Node000009" class="node">
<title>Node9</title>
<g id="a_Node000009"><a xlink:href="classCCSDS_1_1DataField.html#a586f18dcf878e68efd197994e95c6895" target="_top" xlink:title="Retrieves the secondary header data as a vector of bytes.">
<polygon fill="white" stroke="#666666" points="626.5,-569.5 479.5,-569.5 479.5,-539.5 626.5,-539.5 626.5,-569.5"/>
<text text-anchor="start" x="487.5" y="-557.5" font-family="Helvetica,sans-Serif" font-size="10.00">CCSDS::DataField::getData</text>
<text text-anchor="middle" x="553" y="-546.5" font-family="Helvetica,sans-Serif" font-size="10.00">FieldHeaderBytes</text>
</a>
</g>
</g>
<!-- Node6&#45;&gt;Node9 -->
<g id="edge8_Node000006_Node000009" class="edge">
<title>Node6&#45;&gt;Node9</title>
<g id="a_edge8_Node000006_Node000009"><a xlink:title=" ">
<path fill="none" stroke="#63b8ff" d="M369.74,-466.21C384.65,-468.69 402.31,-473.43 416,-482.5 438.23,-497.23 429.72,-515.85 452,-530.5 457.56,-534.16 463.63,-537.26 469.93,-539.89"/>
<polygon fill="#63b8ff" stroke="#63b8ff" points="468.71,-543.17 479.3,-543.41 471.17,-536.61 468.71,-543.17"/>
</a>
</g>
</g>
<!-- Node10 -->
<g id="Node000010" class="node">
<title>Node10</title>
<g id="a_Node000010"><a xlink:href="classCCSDS_1_1DataField.html#a78c2894fc2650e0dc9ec892d58dfde7a" target="_top" xlink:title="retrieves true if a known secondary header has been set">
<polygon fill="white" stroke="#666666" points="626.5,-521.5 479.5,-521.5 479.5,-491.5 626.5,-491.5 626.5,-521.5"/>
<text text-anchor="start" x="487.5" y="-509.5" font-family="Helvetica,sans-Serif" font-size="10.00">CCSDS::DataField::getData</text>
<text text-anchor="middle" x="553" y="-498.5" font-family="Helvetica,sans-Serif" font-size="10.00">FieldHeaderFlag</text>
</a>
</g>
</g>
<!-- Node6&#45;&gt;Node10 -->
<g id="edge9_Node000006_Node000010" class="edge">
<title>Node6&#45;&gt;Node10</title>
<g id="a_edge9_Node000006_Node000010"><a xlink:title=" ">
<path fill="none" stroke="#63b8ff" d="M369.95,-469.66C395.85,-474.9 434.3,-482.68 469.19,-489.74"/>
<polygon fill="#63b8ff" stroke="#63b8ff" points="468.91,-493.26 479.41,-491.81 470.3,-486.4 468.91,-493.26"/>
</a>
</g>
</g>
<!-- Node12 -->
<g id="Node000012" class="node">
<title>Node12</title>
<g id="a_Node000012"><a xlink:href="classCCSDS_1_1Header.html#a2f4d97beaaaac5b2005b470ed14f228d" target="_top" xlink:title="Sets the header data from a 64&#45;bit integer representation.">
<polygon fill="white" stroke="#666666" points="413.5,-103 263.5,-103 263.5,-84 413.5,-84 413.5,-103"/>
<text text-anchor="middle" x="338.5" y="-91" font-family="Helvetica,sans-Serif" font-size="10.00">CCSDS::Header::deserialize</text>
</a>
</g>
</g>
<!-- Node11&#45;&gt;Node12 -->
<g id="edge11_Node000011_Node000012" class="edge">
<title>Node11&#45;&gt;Node12</title>
<g id="a_edge11_Node000011_Node000012"><a xlink:title=" ">
<path fill="none" stroke="#63b8ff" d="M181.05,-224.81C209.46,-200.96 283.01,-139.24 318.19,-109.7"/>
<polygon fill="#63b8ff" stroke="#63b8ff" points="320.46,-112.37 325.87,-103.26 315.96,-107.01 320.46,-112.37"/>
</a>
</g>
</g>
<!-- Node14 -->
<g id="Node000014" class="node">
<title>Node14</title>
<g id="a_Node000014"><a xlink:href="CCSDSUtils_8cpp.html#a993788a78365e86ff065ba8bedff543a" target="_top" xlink:title="Prints the header fields and their binary or hexadecimal representations.">
<polygon fill="white" stroke="#666666" points="375.5,-244 301.5,-244 301.5,-225 375.5,-225 375.5,-244"/>
<text text-anchor="middle" x="338.5" y="-232" font-family="Helvetica,sans-Serif" font-size="10.00">printHeader</text>
</a>
</g>
</g>
<!-- Node11&#45;&gt;Node14 -->
<g id="edge13_Node000011_Node000014" class="edge">
<title>Node11&#45;&gt;Node14</title>
<g id="a_edge13_Node000011_Node000014"><a xlink:title=" ">
<path fill="none" stroke="#63b8ff" d="M225.44,-234.5C246.74,-234.5 270.75,-234.5 291.07,-234.5"/>
<polygon fill="#63b8ff" stroke="#63b8ff" points="291.33,-238 301.33,-234.5 291.33,-231 291.33,-238"/>
</a>
</g>
</g>
<!-- Node13 -->
<g id="Node000013" class="node">
<title>Node13</title>
<g id="a_Node000013"><a xlink:href="classCCSDS_1_1Header.html#aad717b39dda3dff19adb10e3c7e38100" target="_top" xlink:title="Sets the header data from a 64&#45;bit integer representation.">
<polygon fill="white" stroke="#666666" points="620.5,-19 485.5,-19 485.5,0 620.5,0 620.5,-19"/>
<text text-anchor="middle" x="553" y="-7" font-family="Helvetica,sans-Serif" font-size="10.00">CCSDS::Header::setData</text>
</a>
</g>
</g>
<!-- Node12&#45;&gt;Node13 -->
<g id="edge12_Node000012_Node000013" class="edge">
<title>Node12&#45;&gt;Node13</title>
<g id="a_edge12_Node000012_Node000013"><a xlink:title=" ">
<path fill="none" stroke="#63b8ff" d="M352.25,-83.97C372.35,-69.43 413.14,-41.88 452,-27.5 459.53,-24.72 467.54,-22.35 475.62,-20.35"/>
<polygon fill="#63b8ff" stroke="#63b8ff" points="476.53,-23.73 485.49,-18.08 474.96,-16.91 476.53,-23.73"/>
</a>
</g>
</g>
<!-- Node14&#45;&gt;Node8 -->
<g id="edge16_Node000014_Node000008" class="edge">
<title>Node14&#45;&gt;Node8</title>
<g id="a_edge16_Node000014_Node000008"><a xlink:title=" ">
<path fill="none" stroke="#63b8ff" d="M342.7,-244.41C353.03,-274.64 388.52,-366.23 452,-408.5 465.98,-417.81 483.4,-422.69 499.76,-425.14"/>
<polygon fill="#63b8ff" stroke="#63b8ff" points="499.42,-428.62 509.78,-426.37 500.28,-421.67 499.42,-428.62"/>
</a>
</g>
</g>
<!-- Node15 -->
<g id="Node000015" class="node">
<title>Node15</title>
<g id="a_Node000015"><a xlink:href="classCCSDS_1_1Header.html#a3b171a18bfed281cfa837f349f7cc264" target="_top" xlink:title="11 bits">
<polygon fill="white" stroke="#666666" points="621,-179 485,-179 485,-160 621,-160 621,-179"/>
<text text-anchor="middle" x="553" y="-167" font-family="Helvetica,sans-Serif" font-size="10.00">CCSDS::Header::getAPID</text>
</a>
</g>
</g>
<!-- Node14&#45;&gt;Node15 -->
<g id="edge14_Node000014_Node000015" class="edge">
<title>Node14&#45;&gt;Node15</title>
<g id="a_edge14_Node000014_Node000015"><a xlink:title=" ">
<path fill="none" stroke="#63b8ff" d="M359.39,-224.94C381.53,-214.64 418.62,-198.39 452,-188.5 461.4,-185.71 471.43,-183.24 481.37,-181.08"/>
<polygon fill="#63b8ff" stroke="#63b8ff" points="482.17,-184.49 491.25,-179.02 480.75,-177.64 482.17,-184.49"/>
</a>
</g>
</g>
<!-- Node16 -->
<g id="Node000016" class="node">
<title>Node16</title>
<g id="a_Node000016"><a xlink:href="CCSDSUtils_8cpp.html#a1b76edce6a353d6dabf826e662d5f50c" target="_top" xlink:title="Converts a given value to its binary representation as a string, with spaces every 4 bits.">
<polygon fill="white" stroke="#666666" points="599,-142 507,-142 507,-123 599,-123 599,-142"/>
<text text-anchor="middle" x="553" y="-130" font-family="Helvetica,sans-Serif" font-size="10.00">getBinaryString</text>
</a>
</g>
</g>
<!-- Node14&#45;&gt;Node16 -->
<g id="edge15_Node000014_Node000016" class="edge">
<title>Node14&#45;&gt;Node16</title>
<g id="a_edge15_Node000014_Node000016"><a xlink:title=" ">
<path fill="none" stroke="#63b8ff" d="M349.36,-224.75C367.8,-207.12 409.51,-170.05 452,-151.5 465.95,-145.41 481.83,-141.27 496.76,-138.45"/>
<polygon fill="#63b8ff" stroke="#63b8ff" points="497.66,-141.85 506.92,-136.7 496.47,-134.95 497.66,-141.85"/>
</a>
</g>
</g>
<!-- Node17 -->
<g id="Node000017" class="node">
<title>Node17</title>
<g id="a_Node000017"><a xlink:href="classCCSDS_1_1Header.html#a836aab2a197579a57a7901071075f685" target="_top" xlink:title="1 bits">
<polygon fill="white" stroke="#666666" points="632.5,-104.5 473.5,-104.5 473.5,-74.5 632.5,-74.5 632.5,-104.5"/>
<text text-anchor="start" x="481.5" y="-92.5" font-family="Helvetica,sans-Serif" font-size="10.00">CCSDS::Header::getDataField</text>
<text text-anchor="middle" x="553" y="-81.5" font-family="Helvetica,sans-Serif" font-size="10.00">HeaderFlag</text>
</a>
</g>
</g>
<!-- Node14&#45;&gt;Node17 -->
<g id="edge17_Node000014_Node000017" class="edge">
<title>Node14&#45;&gt;Node17</title>
<g id="a_edge17_Node000014_Node000017"><a xlink:title=" ">
<path fill="none" stroke="#63b8ff" d="M345.54,-224.98C360.57,-202.12 402.02,-143.87 452,-114.5 455.84,-112.25 459.87,-110.19 464.03,-108.33"/>
<polygon fill="#63b8ff" stroke="#63b8ff" points="465.37,-111.56 473.29,-104.52 462.71,-105.08 465.37,-111.56"/>
</a>
</g>
</g>
<!-- Node18 -->
<g id="Node000018" class="node">
<title>Node18</title>
<g id="a_Node000018"><a xlink:href="classCCSDS_1_1Header.html#a9c2ac8f4b16874076de742cb19833bd7" target="_top" xlink:title="16 bits">
<polygon fill="white" stroke="#666666" points="637.5,-56 468.5,-56 468.5,-37 637.5,-37 637.5,-56"/>
<text text-anchor="middle" x="553" y="-44" font-family="Helvetica,sans-Serif" font-size="10.00">CCSDS::Header::getDataLength</text>
</a>
</g>
</g>
<!-- Node14&#45;&gt;Node18 -->
<g id="edge18_Node000014_Node000018" class="edge">
<title>Node14&#45;&gt;Node18</title>
<g id="a_edge18_Node000014_Node000018"><a xlink:title=" ">
<path fill="none" stroke="#63b8ff" d="M345.43,-224.66C366.31,-190.15 436.06,-76.07 452,-65.5 455,-63.51 458.15,-61.72 461.42,-60.1"/>
<polygon fill="#63b8ff" stroke="#63b8ff" points="463.1,-63.19 470.89,-56 460.32,-56.76 463.1,-63.19"/>
</a>
</g>
</g>
<!-- Node19 -->
<g id="Node000019" class="node">
<title>Node19</title>
<g id="a_Node000019"><a xlink:href="classCCSDS_1_1Header.html#af1ae6079606846982ff0552a2d684a1b" target="_top" xlink:title="Computes and retrieves the full header as a 64&#45;bit value.">
<polygon fill="white" stroke="#666666" points="635.5,-399 470.5,-399 470.5,-380 635.5,-380 635.5,-399"/>
<text text-anchor="middle" x="553" y="-387" font-family="Helvetica,sans-Serif" font-size="10.00">CCSDS::Header::getFullHeader</text>
</a>
</g>
</g>
<!-- Node14&#45;&gt;Node19 -->
<g id="edge19_Node000014_Node000019" class="edge">
<title>Node14&#45;&gt;Node19</title>
<g id="a_edge19_Node000014_Node000019"><a xlink:title=" ">
<path fill="none" stroke="#63b8ff" d="M344.48,-244.36C357.93,-269.89 397.66,-338.39 452,-370.5 455.68,-372.67 459.56,-374.61 463.56,-376.33"/>
<polygon fill="#63b8ff" stroke="#63b8ff" points="462.51,-379.67 473.1,-379.96 465,-373.13 462.51,-379.67"/>
</a>
</g>
</g>
<!-- Node20 -->
<g id="Node000020" class="node">
<title>Node20</title>
<g id="a_Node000020"><a xlink:href="classCCSDS_1_1Header.html#a8847364755456604a86e894a950f81c6" target="_top" xlink:title="14 bits">
<polygon fill="white" stroke="#666666" points="633,-361.5 473,-361.5 473,-331.5 633,-331.5 633,-361.5"/>
<text text-anchor="start" x="481" y="-349.5" font-family="Helvetica,sans-Serif" font-size="10.00">CCSDS::Header::getSequence</text>
<text text-anchor="middle" x="553" y="-338.5" font-family="Helvetica,sans-Serif" font-size="10.00">Count</text>
</a>
</g>
</g>
<!-- Node14&#45;&gt;Node20 -->
<g id="edge20_Node000014_Node000020" class="edge">
<title>Node14&#45;&gt;Node20</title>
<g id="a_edge20_Node000014_Node000020"><a xlink:title=" ">
<path fill="none" stroke="#63b8ff" d="M348.76,-244.09C366.84,-262.24 408.9,-301.7 452,-322.5 456.25,-324.55 460.69,-326.43 465.23,-328.16"/>
<polygon fill="#63b8ff" stroke="#63b8ff" points="464.07,-331.47 474.67,-331.5 466.4,-324.86 464.07,-331.47"/>
</a>
</g>
</g>
<!-- Node21 -->
<g id="Node000021" class="node">
<title>Node21</title>
<g id="a_Node000021"><a xlink:href="classCCSDS_1_1Header.html#a7aec7b479769c8348584cab4b9d1197b" target="_top" xlink:title="2 bits">
<polygon fill="white" stroke="#666666" points="633,-313.5 473,-313.5 473,-283.5 633,-283.5 633,-313.5"/>
<text text-anchor="start" x="481" y="-301.5" font-family="Helvetica,sans-Serif" font-size="10.00">CCSDS::Header::getSequence</text>
<text text-anchor="middle" x="553" y="-290.5" font-family="Helvetica,sans-Serif" font-size="10.00">Flags</text>
</a>
</g>
</g>
<!-- Node14&#45;&gt;Node21 -->
<g id="edge21_Node000014_Node000021" class="edge">
<title>Node14&#45;&gt;Node21</title>
<g id="a_edge21_Node000014_Node000021"><a xlink:title=" ">
<path fill="none" stroke="#63b8ff" d="M364.27,-244.16C386.9,-252.79 421.4,-265.42 452,-274.5 459.46,-276.72 467.28,-278.87 475.12,-280.93"/>
<polygon fill="#63b8ff" stroke="#63b8ff" points="474.48,-284.37 485.04,-283.47 476.22,-277.59 474.48,-284.37"/>
</a>
</g>
</g>
<!-- Node22 -->
<g id="Node000022" class="node">
<title>Node22</title>
<g id="a_Node000022"><a xlink:href="classCCSDS_1_1Header.html#a6ac965b4a0dd459bb41e78225a376b18" target="_top" xlink:title="1 bits">
<polygon fill="white" stroke="#666666" points="620.5,-265 485.5,-265 485.5,-246 620.5,-246 620.5,-265"/>
<text text-anchor="middle" x="553" y="-253" font-family="Helvetica,sans-Serif" font-size="10.00">CCSDS::Header::getType</text>
</a>
</g>
</g>
<!-- Node14&#45;&gt;Node22 -->
<g id="edge22_Node000014_Node000022" class="edge">
<title>Node14&#45;&gt;Node22</title>
<g id="a_edge22_Node000014_Node000022"><a xlink:title=" ">
<path fill="none" stroke="#63b8ff" d="M375.55,-238.06C402.7,-240.75 440.92,-244.52 474.85,-247.88"/>
<polygon fill="#63b8ff" stroke="#63b8ff" points="474.93,-251.4 485.22,-248.9 475.61,-244.43 474.93,-251.4"/>
</a>
</g>
</g>
<!-- Node23 -->
<g id="Node000023" class="node">
<title>Node23</title>
<g id="a_Node000023"><a xlink:href="classCCSDS_1_1Header.html#a2e77e7032a48a692bb8dd0754ecccdc5" target="_top" xlink:title="3 bits">
<polygon fill="white" stroke="#666666" points="627.5,-227.5 478.5,-227.5 478.5,-197.5 627.5,-197.5 627.5,-227.5"/>
<text text-anchor="start" x="486.5" y="-215.5" font-family="Helvetica,sans-Serif" font-size="10.00">CCSDS::Header::getVersion</text>
<text text-anchor="middle" x="553" y="-204.5" font-family="Helvetica,sans-Serif" font-size="10.00">Number</text>
</a>
</g>
</g>
<!-- Node14&#45;&gt;Node23 -->
<g id="edge23_Node000014_Node000023" class="edge">
<title>Node14&#45;&gt;Node23</title>
<g id="a_edge23_Node000014_Node000023"><a xlink:title=" ">
<path fill="none" stroke="#63b8ff" d="M375.55,-230.77C400.87,-228.15 435.82,-224.53 467.94,-221.2"/>
<polygon fill="#63b8ff" stroke="#63b8ff" points="468.67,-224.65 478.26,-220.13 467.95,-217.68 468.67,-224.65"/>
</a>
</g>
</g>
</g>
</svg>
