<?xml version="1.0" encoding="UTF-8" standalone="no"?>
<!DOCTYPE svg PUBLIC "-//W3C//DTD SVG 1.1//EN"
 "http://www.w3.org/Graphics/SVG/1.1/DTD/svg11.dtd">
<!-- Generated by graphviz version 2.43.0 (0)
 -->
<!-- Title: src/CCSDSValidator.cpp Pages: 1 -->
<svg width="881pt" height="632pt"
 viewBox="0.00 0.00 881.00 632.00" xmlns="http://www.w3.org/2000/svg" xmlns:xlink="http://www.w3.org/1999/xlink">
<g id="graph0" class="graph" transform="scale(1 1) rotate(0) translate(4 628)">
<title>src/CCSDSValidator.cpp</title>
<!-- Node1 -->
<g id="Node000001" class="node">
<title>Node1</title>
<g id="a_Node000001"><a xlink:title=" ">
<polygon fill="#999999" stroke="#666666" points="130,-624 0,-624 0,-605 130,-605 130,-624"/>
<text text-anchor="middle" x="65" y="-612" font-family="Helvetica,sans-Serif" font-size="10.00">src/CCSDSValidator.cpp</text>
</a>
</g>
</g>
<!-- Node2 -->
<g id="Node000002" class="node">
<title>Node2</title>
<g id="a_Node000002"><a xlink:href="CCSDSValidator_8h.html" target="_top" xlink:title="Defines the Validator class for CCSDS packet validation.">
<polygon fill="white" stroke="#666666" points="237.5,-459 136.5,-459 136.5,-440 237.5,-440 237.5,-459"/>
<text text-anchor="middle" x="187" y="-447" font-family="Helvetica,sans-Serif" font-size="10.00">CCSDSValidator.h</text>
</a>
</g>
</g>
<!-- Node1&#45;&gt;Node2 -->
<g id="edge1_Node000001_Node000002" class="edge">
<title>Node1&#45;&gt;Node2</title>
<g id="a_edge1_Node000001_Node000002"><a xlink:title=" ">
<path fill="none" stroke="#63b8ff" d="M60.06,-604.8C53.54,-592.11 43.93,-568.04 53,-550 74.36,-507.54 123.36,-478.64 155.81,-463.36"/>
<polygon fill="#63b8ff" stroke="#63b8ff" points="157.64,-466.37 165.3,-459.05 154.75,-460 157.64,-466.37"/>
</a>
</g>
</g>
<!-- Node19 -->
<g id="Node000019" class="node">
<title>Node19</title>
<g id="a_Node000019"><a xlink:href="CCSDSUtils_8h.html" target="_top" xlink:title=" ">
<polygon fill="white" stroke="#666666" points="143.5,-569 62.5,-569 62.5,-550 143.5,-550 143.5,-569"/>
<text text-anchor="middle" x="103" y="-557" font-family="Helvetica,sans-Serif" font-size="10.00">CCSDSUtils.h</text>
</a>
</g>
</g>
<!-- Node1&#45;&gt;Node19 -->
<g id="edge38_Node000001_Node000019" class="edge">
<title>Node1&#45;&gt;Node19</title>
<g id="a_edge38_Node000001_Node000019"><a xlink:title=" ">
<path fill="none" stroke="#63b8ff" d="M71.27,-604.75C76.59,-597.34 84.36,-586.5 90.88,-577.41"/>
<polygon fill="#63b8ff" stroke="#63b8ff" points="93.86,-579.26 96.84,-569.09 88.17,-575.18 93.86,-579.26"/>
</a>
</g>
</g>
<!-- Node3 -->
<g id="Node000003" class="node">
<title>Node3</title>
<g id="a_Node000003"><a xlink:href="CCSDSPacket_8h.html" target="_top" xlink:title=" ">
<polygon fill="white" stroke="#666666" points="413,-404 323,-404 323,-385 413,-385 413,-404"/>
<text text-anchor="middle" x="368" y="-392" font-family="Helvetica,sans-Serif" font-size="10.00">CCSDSPacket.h</text>
</a>
</g>
</g>
<!-- Node2&#45;&gt;Node3 -->
<g id="edge2_Node000002_Node000003" class="edge">
<title>Node2&#45;&gt;Node3</title>
<g id="a_edge2_Node000002_Node000003"><a xlink:title=" ">
<path fill="none" stroke="#63b8ff" d="M216.08,-439.98C246.6,-431.05 294.76,-416.94 328.66,-407.02"/>
<polygon fill="#63b8ff" stroke="#63b8ff" points="330.08,-410.25 338.69,-404.08 328.11,-403.53 330.08,-410.25"/>
</a>
</g>
</g>
<!-- Node4 -->
<g id="Node000004" class="node">
<title>Node4</title>
<g id="a_Node000004"><a xlink:href="CCSDSResult_8h.html" target="_top" xlink:title=" ">
<polygon fill="white" stroke="#666666" points="740.5,-74 651.5,-74 651.5,-55 740.5,-55 740.5,-74"/>
<text text-anchor="middle" x="696" y="-62" font-family="Helvetica,sans-Serif" font-size="10.00">CCSDSResult.h</text>
</a>
</g>
</g>
<!-- Node3&#45;&gt;Node4 -->
<g id="edge3_Node000003_Node000004" class="edge">
<title>Node3&#45;&gt;Node4</title>
<g id="a_edge3_Node000003_Node000004"><a xlink:title=" ">
<path fill="none" stroke="#63b8ff" d="M413.2,-392.6C530.4,-389.04 835,-371.52 835,-285.5 835,-285.5 835,-285.5 835,-173.5 835,-122.86 776.76,-92.52 735.67,-77.43"/>
<polygon fill="#63b8ff" stroke="#63b8ff" points="736.76,-74.1 726.16,-74.09 734.44,-80.7 736.76,-74.1"/>
</a>
</g>
</g>
<!-- Node7 -->
<g id="Node000007" class="node">
<title>Node7</title>
<g id="a_Node000007"><a xlink:title=" ">
<polygon fill="#e0e0e0" stroke="#999999" points="354.5,-19 307.5,-19 307.5,0 354.5,0 354.5,-19"/>
<text text-anchor="middle" x="331" y="-7" font-family="Helvetica,sans-Serif" font-size="10.00">vector</text>
</a>
</g>
</g>
<!-- Node3&#45;&gt;Node7 -->
<g id="edge9_Node000003_Node000007" class="edge">
<title>Node3&#45;&gt;Node7</title>
<g id="a_edge9_Node000003_Node000007"><a xlink:title=" ">
<path fill="none" stroke="#63b8ff" d="M322.73,-387.68C266.82,-377.67 179,-351.45 179,-285.5 179,-285.5 179,-285.5 179,-118.5 179,-60.84 252.59,-31.13 297.36,-18.39"/>
<polygon fill="#63b8ff" stroke="#63b8ff" points="298.51,-21.71 307.25,-15.72 296.68,-14.95 298.51,-21.71"/>
</a>
</g>
</g>
<!-- Node10 -->
<g id="Node000010" class="node">
<title>Node10</title>
<g id="a_Node000010"><a xlink:href="CCSDSHeader_8h.html" target="_top" xlink:title=" ">
<polygon fill="white" stroke="#666666" points="673.5,-129 580.5,-129 580.5,-110 673.5,-110 673.5,-129"/>
<text text-anchor="middle" x="627" y="-117" font-family="Helvetica,sans-Serif" font-size="10.00">CCSDSHeader.h</text>
</a>
</g>
</g>
<!-- Node3&#45;&gt;Node10 -->
<g id="edge10_Node000003_Node000010" class="edge">
<title>Node3&#45;&gt;Node10</title>
<g id="a_edge10_Node000003_Node000010"><a xlink:title=" ">
<path fill="none" stroke="#63b8ff" d="M413.1,-391.68C523.24,-386.01 797,-364.03 797,-285.5 797,-285.5 797,-285.5 797,-228.5 797,-173.26 732.27,-145.07 682.69,-131.58"/>
<polygon fill="#63b8ff" stroke="#63b8ff" points="683.56,-128.19 673,-129.08 681.81,-134.97 683.56,-128.19"/>
</a>
</g>
</g>
<!-- Node11 -->
<g id="Node000011" class="node">
<title>Node11</title>
<g id="a_Node000011"><a xlink:href="CCSDSDataField_8h.html" target="_top" xlink:title=" ">
<polygon fill="white" stroke="#666666" points="425.5,-349 320.5,-349 320.5,-330 425.5,-330 425.5,-349"/>
<text text-anchor="middle" x="373" y="-337" font-family="Helvetica,sans-Serif" font-size="10.00">CCSDSDataField.h</text>
</a>
</g>
</g>
<!-- Node3&#45;&gt;Node11 -->
<g id="edge14_Node000003_Node000011" class="edge">
<title>Node3&#45;&gt;Node11</title>
<g id="a_edge14_Node000003_Node000011"><a xlink:title=" ">
<path fill="none" stroke="#63b8ff" d="M368.83,-384.75C369.48,-377.8 370.42,-367.85 371.24,-359.13"/>
<polygon fill="#63b8ff" stroke="#63b8ff" points="374.73,-359.37 372.19,-349.09 367.77,-358.72 374.73,-359.37"/>
</a>
</g>
</g>
<!-- Node5 -->
<g id="Node000005" class="node">
<title>Node5</title>
<g id="a_Node000005"><a xlink:title=" ">
<polygon fill="#e0e0e0" stroke="#999999" points="511.5,-19 418.5,-19 418.5,0 511.5,0 511.5,-19"/>
<text text-anchor="middle" x="465" y="-7" font-family="Helvetica,sans-Serif" font-size="10.00">unordered_map</text>
</a>
</g>
</g>
<!-- Node4&#45;&gt;Node5 -->
<g id="edge4_Node000004_Node000005" class="edge">
<title>Node4&#45;&gt;Node5</title>
<g id="a_edge4_Node000004_Node000005"><a xlink:title=" ">
<path fill="none" stroke="#63b8ff" d="M658.89,-54.98C619.01,-45.84 555.54,-31.27 512.16,-21.32"/>
<polygon fill="#63b8ff" stroke="#63b8ff" points="512.93,-17.91 502.41,-19.08 511.37,-24.73 512.93,-17.91"/>
</a>
</g>
</g>
<!-- Node6 -->
<g id="Node000006" class="node">
<title>Node6</title>
<g id="a_Node000006"><a xlink:title=" ">
<polygon fill="#e0e0e0" stroke="#999999" points="707.5,-19 656.5,-19 656.5,0 707.5,0 707.5,-19"/>
<text text-anchor="middle" x="682" y="-7" font-family="Helvetica,sans-Serif" font-size="10.00">variant</text>
</a>
</g>
</g>
<!-- Node4&#45;&gt;Node6 -->
<g id="edge5_Node000004_Node000006" class="edge">
<title>Node4&#45;&gt;Node6</title>
<g id="a_edge5_Node000004_Node000006"><a xlink:title=" ">
<path fill="none" stroke="#63b8ff" d="M693.69,-54.75C691.83,-47.72 689.16,-37.62 686.85,-28.84"/>
<polygon fill="#63b8ff" stroke="#63b8ff" points="690.21,-27.86 684.27,-19.09 683.44,-29.65 690.21,-27.86"/>
</a>
</g>
</g>
<!-- Node4&#45;&gt;Node7 -->
<g id="edge6_Node000004_Node000007" class="edge">
<title>Node4&#45;&gt;Node7</title>
<g id="a_edge6_Node000004_Node000007"><a xlink:title=" ">
<path fill="none" stroke="#63b8ff" d="M651.24,-57C577.31,-46.27 431.27,-25.06 365.06,-15.45"/>
<polygon fill="#63b8ff" stroke="#63b8ff" points="365.17,-11.93 354.77,-13.95 364.17,-18.85 365.17,-11.93"/>
</a>
</g>
</g>
<!-- Node8 -->
<g id="Node000008" class="node">
<title>Node8</title>
<g id="a_Node000008"><a xlink:title=" ">
<polygon fill="#e0e0e0" stroke="#999999" points="611,-19 561,-19 561,0 611,0 611,-19"/>
<text text-anchor="middle" x="586" y="-7" font-family="Helvetica,sans-Serif" font-size="10.00">cstdint</text>
</a>
</g>
</g>
<!-- Node4&#45;&gt;Node8 -->
<g id="edge7_Node000004_Node000008" class="edge">
<title>Node4&#45;&gt;Node8</title>
<g id="a_edge7_Node000004_Node000008"><a xlink:title=" ">
<path fill="none" stroke="#63b8ff" d="M678.33,-54.98C660.71,-46.5 633.42,-33.35 613.07,-23.54"/>
<polygon fill="#63b8ff" stroke="#63b8ff" points="614.52,-20.36 603.99,-19.17 611.48,-26.66 614.52,-20.36"/>
</a>
</g>
</g>
<!-- Node9 -->
<g id="Node000009" class="node">
<title>Node9</title>
<g id="a_Node000009"><a xlink:title=" ">
<polygon fill="#e0e0e0" stroke="#999999" points="786,-19 726,-19 726,0 786,0 786,-19"/>
<text text-anchor="middle" x="756" y="-7" font-family="Helvetica,sans-Serif" font-size="10.00">iostream</text>
</a>
</g>
</g>
<!-- Node4&#45;&gt;Node9 -->
<g id="edge8_Node000004_Node000009" class="edge">
<title>Node4&#45;&gt;Node9</title>
<g id="a_edge8_Node000004_Node000009"><a xlink:title=" ">
<path fill="none" stroke="#63b8ff" d="M705.64,-54.98C714.51,-47.15 727.87,-35.34 738.61,-25.86"/>
<polygon fill="#63b8ff" stroke="#63b8ff" points="741.01,-28.41 746.18,-19.17 736.37,-23.17 741.01,-28.41"/>
</a>
</g>
</g>
<!-- Node10&#45;&gt;Node4 -->
<g id="edge11_Node000010_Node000004" class="edge">
<title>Node10&#45;&gt;Node4</title>
<g id="a_edge11_Node000010_Node000004"><a xlink:title=" ">
<path fill="none" stroke="#63b8ff" d="M638.09,-109.98C648.49,-102 664.26,-89.88 676.72,-80.31"/>
<polygon fill="#63b8ff" stroke="#63b8ff" points="678.91,-83.04 684.71,-74.17 674.65,-77.49 678.91,-83.04"/>
</a>
</g>
</g>
<!-- Node10&#45;&gt;Node7 -->
<g id="edge13_Node000010_Node000007" class="edge">
<title>Node10&#45;&gt;Node7</title>
<g id="a_edge13_Node000010_Node000007"><a xlink:title=" ">
<path fill="none" stroke="#63b8ff" d="M603.53,-109.94C551.07,-90.79 424.21,-44.51 363.91,-22.51"/>
<polygon fill="#63b8ff" stroke="#63b8ff" points="365.07,-19.21 354.48,-19.07 362.67,-25.78 365.07,-19.21"/>
</a>
</g>
</g>
<!-- Node10&#45;&gt;Node8 -->
<g id="edge12_Node000010_Node000008" class="edge">
<title>Node10&#45;&gt;Node8</title>
<g id="a_edge12_Node000010_Node000008"><a xlink:title=" ">
<path fill="none" stroke="#63b8ff" d="M623.64,-109.66C616.94,-92.01 601.79,-52.09 592.88,-28.64"/>
<polygon fill="#63b8ff" stroke="#63b8ff" points="596.11,-27.27 589.29,-19.16 589.56,-29.75 596.11,-27.27"/>
</a>
</g>
</g>
<!-- Node11&#45;&gt;Node4 -->
<g id="edge15_Node000011_Node000004" class="edge">
<title>Node11&#45;&gt;Node4</title>
<g id="a_edge15_Node000011_Node000004"><a xlink:title=" ">
<path fill="none" stroke="#63b8ff" d="M425.72,-338.33C476.49,-336.03 553.92,-326.76 612,-294 687.5,-251.41 703.77,-214.82 716,-129 717.19,-120.64 717.77,-118.26 716,-110 714.03,-100.8 710,-91.2 706.07,-83.29"/>
<polygon fill="#63b8ff" stroke="#63b8ff" points="709.09,-81.51 701.32,-74.32 702.91,-84.79 709.09,-81.51"/>
</a>
</g>
</g>
<!-- Node11&#45;&gt;Node7 -->
<g id="edge16_Node000011_Node000007" class="edge">
<title>Node11&#45;&gt;Node7</title>
<g id="a_edge16_Node000011_Node000007"><a xlink:title=" ">
<path fill="none" stroke="#63b8ff" d="M333.64,-329.97C267.45,-313.04 141,-268.54 141,-175.5 141,-175.5 141,-175.5 141,-118.5 141,-88.33 142.63,-75.25 165,-55 201.64,-21.83 260.37,-12.96 297.26,-10.82"/>
<polygon fill="#63b8ff" stroke="#63b8ff" points="297.66,-14.31 307.5,-10.37 297.35,-7.31 297.66,-14.31"/>
</a>
</g>
</g>
<!-- Node12 -->
<g id="Node000012" class="node">
<title>Node12</title>
<g id="a_Node000012"><a xlink:title=" ">
<polygon fill="#e0e0e0" stroke="#999999" points="265,-184 207,-184 207,-165 265,-165 265,-184"/>
<text text-anchor="middle" x="236" y="-172" font-family="Helvetica,sans-Serif" font-size="10.00">memory</text>
</a>
</g>
</g>
<!-- Node11&#45;&gt;Node12 -->
<g id="edge17_Node000011_Node000012" class="edge">
<title>Node11&#45;&gt;Node12</title>
<g id="a_edge17_Node000011_Node000012"><a xlink:title=" ">
<path fill="none" stroke="#63b8ff" d="M362.92,-329.88C344.05,-313.43 302.73,-275.93 274,-239 262.69,-224.45 252.12,-206.27 245.02,-193.1"/>
<polygon fill="#63b8ff" stroke="#63b8ff" points="248.06,-191.36 240.3,-184.14 241.86,-194.62 248.06,-191.36"/>
</a>
</g>
</g>
<!-- Node13 -->
<g id="Node000013" class="node">
<title>Node13</title>
<g id="a_Node000013"><a xlink:href="CCSDSSecondaryHeaderAbstract_8h.html" target="_top" xlink:title=" ">
<polygon fill="white" stroke="#666666" points="627.5,-184 442.5,-184 442.5,-165 627.5,-165 627.5,-184"/>
<text text-anchor="middle" x="535" y="-172" font-family="Helvetica,sans-Serif" font-size="10.00">CCSDSSecondaryHeaderAbstract.h</text>
</a>
</g>
</g>
<!-- Node11&#45;&gt;Node13 -->
<g id="edge18_Node000011_Node000013" class="edge">
<title>Node11&#45;&gt;Node13</title>
<g id="a_edge18_Node000011_Node000013"><a xlink:title=" ">
<path fill="none" stroke="#63b8ff" d="M381.48,-329.99C398.6,-312.8 438.51,-272.71 472,-239 488.13,-222.76 506.58,-204.17 519.32,-191.32"/>
<polygon fill="#63b8ff" stroke="#63b8ff" points="521.89,-193.7 526.44,-184.13 516.92,-188.77 521.89,-193.7"/>
</a>
</g>
</g>
<!-- Node16 -->
<g id="Node000016" class="node">
<title>Node16</title>
<g id="a_Node000016"><a xlink:href="CCSDSSecondaryHeaderFactory_8h.html" target="_top" xlink:title=" ">
<polygon fill="white" stroke="#666666" points="462.5,-239 283.5,-239 283.5,-220 462.5,-220 462.5,-239"/>
<text text-anchor="middle" x="373" y="-227" font-family="Helvetica,sans-Serif" font-size="10.00">CCSDSSecondaryHeaderFactory.h</text>
</a>
</g>
</g>
<!-- Node11&#45;&gt;Node16 -->
<g id="edge27_Node000011_Node000016" class="edge">
<title>Node11&#45;&gt;Node16</title>
<g id="a_edge27_Node000011_Node000016"><a xlink:title=" ">
<path fill="none" stroke="#63b8ff" d="M373,-329.66C373,-312.17 373,-272.8 373,-249.27"/>
<polygon fill="#63b8ff" stroke="#63b8ff" points="376.5,-249.16 373,-239.16 369.5,-249.16 376.5,-249.16"/>
</a>
</g>
</g>
<!-- Node18 -->
<g id="Node000018" class="node">
<title>Node18</title>
<g id="a_Node000018"><a xlink:href="PusServices_8h.html" target="_top" xlink:title=" ">
<polygon fill="white" stroke="#666666" points="603,-294 519,-294 519,-275 603,-275 603,-294"/>
<text text-anchor="middle" x="561" y="-282" font-family="Helvetica,sans-Serif" font-size="10.00">PusServices.h</text>
</a>
</g>
</g>
<!-- Node11&#45;&gt;Node18 -->
<g id="edge33_Node000011_Node000018" class="edge">
<title>Node11&#45;&gt;Node18</title>
<g id="a_edge33_Node000011_Node000018"><a xlink:title=" ">
<path fill="none" stroke="#63b8ff" d="M403.21,-329.98C435.04,-321.01 485.36,-306.82 520.6,-296.89"/>
<polygon fill="#63b8ff" stroke="#63b8ff" points="521.88,-300.16 530.56,-294.08 519.98,-293.43 521.88,-300.16"/>
</a>
</g>
</g>
<!-- Node13&#45;&gt;Node4 -->
<g id="edge19_Node000013_Node000004" class="edge">
<title>Node13&#45;&gt;Node4</title>
<g id="a_edge19_Node000013_Node000004"><a xlink:title=" ">
<path fill="none" stroke="#63b8ff" d="M617.35,-164.96C641.51,-158.56 665.99,-147.62 683,-129 693.91,-117.06 696.67,-98.51 696.99,-84.53"/>
<polygon fill="#63b8ff" stroke="#63b8ff" points="700.48,-84.05 696.81,-74.12 693.48,-84.17 700.48,-84.05"/>
</a>
</g>
</g>
<!-- Node13&#45;&gt;Node7 -->
<g id="edge25_Node000013_Node000007" class="edge">
<title>Node13&#45;&gt;Node7</title>
<g id="a_edge25_Node000013_Node000007"><a xlink:title=" ">
<path fill="none" stroke="#63b8ff" d="M517.79,-165C501.72,-156.72 477.36,-143.33 458,-129 414.21,-96.57 368.96,-50.88 346.13,-26.81"/>
<polygon fill="#63b8ff" stroke="#63b8ff" points="348.43,-24.14 339.03,-19.25 343.33,-28.94 348.43,-24.14"/>
</a>
</g>
</g>
<!-- Node13&#45;&gt;Node8 -->
<g id="edge26_Node000013_Node000008" class="edge">
<title>Node13&#45;&gt;Node8</title>
<g id="a_edge26_Node000013_Node000008"><a xlink:title=" ">
<path fill="none" stroke="#63b8ff" d="M511.7,-164.98C487.05,-154.48 453.23,-134.92 465,-110 484.18,-69.39 528.96,-39.77 558.34,-23.86"/>
<polygon fill="#63b8ff" stroke="#63b8ff" points="560.04,-26.92 567.28,-19.18 556.8,-20.72 560.04,-26.92"/>
</a>
</g>
</g>
<!-- Node14 -->
<g id="Node000014" class="node">
<title>Node14</title>
<g id="a_Node000014"><a xlink:href="CCSDSConfig_8h.html" target="_top" xlink:title=" ">
<polygon fill="white" stroke="#666666" points="562.5,-129 473.5,-129 473.5,-110 562.5,-110 562.5,-129"/>
<text text-anchor="middle" x="518" y="-117" font-family="Helvetica,sans-Serif" font-size="10.00">CCSDSConfig.h</text>
</a>
</g>
</g>
<!-- Node13&#45;&gt;Node14 -->
<g id="edge20_Node000013_Node000014" class="edge">
<title>Node13&#45;&gt;Node14</title>
<g id="a_edge20_Node000013_Node000014"><a xlink:title=" ">
<path fill="none" stroke="#63b8ff" d="M532.19,-164.75C529.94,-157.72 526.7,-147.62 523.88,-138.84"/>
<polygon fill="#63b8ff" stroke="#63b8ff" points="527.14,-137.54 520.75,-129.09 520.48,-139.68 527.14,-137.54"/>
</a>
</g>
</g>
<!-- Node14&#45;&gt;Node4 -->
<g id="edge24_Node000014_Node000004" class="edge">
<title>Node14&#45;&gt;Node4</title>
<g id="a_edge24_Node000014_Node000004"><a xlink:title=" ">
<path fill="none" stroke="#63b8ff" d="M546.6,-109.98C576.61,-101.05 623.98,-86.94 657.32,-77.02"/>
<polygon fill="#63b8ff" stroke="#63b8ff" points="658.59,-80.29 667.18,-74.08 656.59,-73.58 658.59,-80.29"/>
</a>
</g>
</g>
<!-- Node14&#45;&gt;Node7 -->
<g id="edge23_Node000014_Node000007" class="edge">
<title>Node14&#45;&gt;Node7</title>
<g id="a_edge23_Node000014_Node000007"><a xlink:title=" ">
<path fill="none" stroke="#63b8ff" d="M503.01,-109.84C470.65,-91.16 394.02,-46.9 354.89,-24.3"/>
<polygon fill="#63b8ff" stroke="#63b8ff" points="356.21,-21.02 345.8,-19.05 352.71,-27.08 356.21,-21.02"/>
</a>
</g>
</g>
<!-- Node14&#45;&gt;Node8 -->
<g id="edge22_Node000014_Node000008" class="edge">
<title>Node14&#45;&gt;Node8</title>
<g id="a_edge22_Node000014_Node000008"><a xlink:title=" ">
<path fill="none" stroke="#63b8ff" d="M523.56,-109.66C534.83,-91.77 560.5,-51 575.17,-27.69"/>
<polygon fill="#63b8ff" stroke="#63b8ff" points="578.18,-29.49 580.55,-19.16 572.26,-25.76 578.18,-29.49"/>
</a>
</g>
</g>
<!-- Node15 -->
<g id="Node000015" class="node">
<title>Node15</title>
<g id="a_Node000015"><a xlink:title=" ">
<polygon fill="#e0e0e0" stroke="#999999" points="303,-74 259,-74 259,-55 303,-55 303,-74"/>
<text text-anchor="middle" x="281" y="-62" font-family="Helvetica,sans-Serif" font-size="10.00">string</text>
</a>
</g>
</g>
<!-- Node14&#45;&gt;Node15 -->
<g id="edge21_Node000014_Node000015" class="edge">
<title>Node14&#45;&gt;Node15</title>
<g id="a_edge21_Node000014_Node000015"><a xlink:title=" ">
<path fill="none" stroke="#63b8ff" d="M479.92,-109.98C433.75,-99.66 356.72,-82.43 313.31,-72.73"/>
<polygon fill="#63b8ff" stroke="#63b8ff" points="313.82,-69.25 303.29,-70.49 312.29,-76.08 313.82,-69.25"/>
</a>
</g>
</g>
<!-- Node16&#45;&gt;Node5 -->
<g id="edge29_Node000016_Node000005" class="edge">
<title>Node16&#45;&gt;Node5</title>
<g id="a_edge29_Node000016_Node000005"><a xlink:title=" ">
<path fill="none" stroke="#63b8ff" d="M377.58,-219.73C382.18,-210.82 389.36,-196.58 395,-184 419.95,-128.32 445.98,-60.93 458.06,-29"/>
<polygon fill="#63b8ff" stroke="#63b8ff" points="461.48,-29.86 461.73,-19.26 454.93,-27.39 461.48,-29.86"/>
</a>
</g>
</g>
<!-- Node16&#45;&gt;Node12 -->
<g id="edge28_Node000016_Node000012" class="edge">
<title>Node16&#45;&gt;Node12</title>
<g id="a_edge28_Node000016_Node000012"><a xlink:title=" ">
<path fill="none" stroke="#63b8ff" d="M350.99,-219.98C328.55,-211.3 293.52,-197.75 268.01,-187.88"/>
<polygon fill="#63b8ff" stroke="#63b8ff" points="269,-184.51 258.41,-184.17 266.48,-191.04 269,-184.51"/>
</a>
</g>
</g>
<!-- Node16&#45;&gt;Node13 -->
<g id="edge32_Node000016_Node000013" class="edge">
<title>Node16&#45;&gt;Node13</title>
<g id="a_edge32_Node000016_Node000013"><a xlink:title=" ">
<path fill="none" stroke="#63b8ff" d="M399.03,-219.98C426.11,-211.13 468.71,-197.19 499.01,-187.28"/>
<polygon fill="#63b8ff" stroke="#63b8ff" points="500.35,-190.52 508.77,-184.08 498.18,-183.87 500.35,-190.52"/>
</a>
</g>
</g>
<!-- Node16&#45;&gt;Node15 -->
<g id="edge31_Node000016_Node000015" class="edge">
<title>Node16&#45;&gt;Node15</title>
<g id="a_edge31_Node000016_Node000015"><a xlink:title=" ">
<path fill="none" stroke="#63b8ff" d="M355.42,-219.98C341.61,-212.4 322.93,-200.03 312,-184 291.01,-153.2 284.23,-109.04 282.04,-84.24"/>
<polygon fill="#63b8ff" stroke="#63b8ff" points="285.52,-83.77 281.31,-74.05 278.54,-84.27 285.52,-83.77"/>
</a>
</g>
</g>
<!-- Node17 -->
<g id="Node000017" class="node">
<title>Node17</title>
<g id="a_Node000017"><a xlink:title=" ">
<polygon fill="#e0e0e0" stroke="#999999" points="386.5,-184 321.5,-184 321.5,-165 386.5,-165 386.5,-184"/>
<text text-anchor="middle" x="354" y="-172" font-family="Helvetica,sans-Serif" font-size="10.00">functional</text>
</a>
</g>
</g>
<!-- Node16&#45;&gt;Node17 -->
<g id="edge30_Node000016_Node000017" class="edge">
<title>Node16&#45;&gt;Node17</title>
<g id="a_edge30_Node000016_Node000017"><a xlink:title=" ">
<path fill="none" stroke="#63b8ff" d="M369.86,-219.75C367.32,-212.65 363.64,-202.4 360.47,-193.56"/>
<polygon fill="#63b8ff" stroke="#63b8ff" points="363.75,-192.32 357.08,-184.09 357.16,-194.68 363.75,-192.32"/>
</a>
</g>
</g>
<!-- Node18&#45;&gt;Node4 -->
<g id="edge36_Node000018_Node000004" class="edge">
<title>Node18&#45;&gt;Node4</title>
<g id="a_edge36_Node000018_Node000004"><a xlink:title=" ">
<path fill="none" stroke="#63b8ff" d="M582.94,-274.85C599.83,-267.34 622.95,-255.14 639,-239 678.58,-199.21 686.76,-183.28 701,-129 704.86,-114.27 703.13,-97.02 700.69,-84.22"/>
<polygon fill="#63b8ff" stroke="#63b8ff" points="704.08,-83.3 698.5,-74.29 697.24,-84.81 704.08,-83.3"/>
</a>
</g>
</g>
<!-- Node18&#45;&gt;Node13 -->
<g id="edge34_Node000018_Node000013" class="edge">
<title>Node18&#45;&gt;Node13</title>
<g id="a_edge34_Node000018_Node000013"><a xlink:title=" ">
<path fill="none" stroke="#63b8ff" d="M558.87,-274.66C554.64,-257.09 545.1,-217.45 539.44,-193.95"/>
<polygon fill="#63b8ff" stroke="#63b8ff" points="542.83,-193.06 537.08,-184.16 536.02,-194.7 542.83,-193.06"/>
</a>
</g>
</g>
<!-- Node18&#45;&gt;Node14 -->
<g id="edge37_Node000018_Node000014" class="edge">
<title>Node18&#45;&gt;Node14</title>
<g id="a_edge37_Node000018_Node000014"><a xlink:title=" ">
<path fill="none" stroke="#63b8ff" d="M574.32,-274.74C602.8,-254.9 664.86,-205.16 637,-165 628.16,-152.26 593.13,-140.09 563.35,-131.71"/>
<polygon fill="#63b8ff" stroke="#63b8ff" points="564.07,-128.27 553.5,-129.01 562.22,-135.03 564.07,-128.27"/>
</a>
</g>
</g>
<!-- Node18&#45;&gt;Node16 -->
<g id="edge35_Node000018_Node000016" class="edge">
<title>Node18&#45;&gt;Node16</title>
<g id="a_edge35_Node000018_Node000016"><a xlink:title=" ">
<path fill="none" stroke="#63b8ff" d="M530.79,-274.98C498.96,-266.01 448.64,-251.82 413.4,-241.89"/>
<polygon fill="#63b8ff" stroke="#63b8ff" points="414.02,-238.43 403.44,-239.08 412.12,-245.16 414.02,-238.43"/>
</a>
</g>
</g>
<!-- Node19&#45;&gt;Node3 -->
<g id="edge39_Node000019_Node000003" class="edge">
<title>Node19&#45;&gt;Node3</title>
<g id="a_edge39_Node000019_Node000003"><a xlink:title=" ">
<path fill="none" stroke="#63b8ff" d="M143.78,-554.89C200.09,-549.17 297.78,-536.29 325,-514 355.38,-489.11 364.3,-440.89 366.91,-414.28"/>
<polygon fill="#63b8ff" stroke="#63b8ff" points="370.43,-414.27 367.71,-404.03 363.45,-413.72 370.43,-414.27"/>
</a>
</g>
</g>
<!-- Node19&#45;&gt;Node7 -->
<g id="edge46_Node000019_Node000007" class="edge">
<title>Node19&#45;&gt;Node7</title>
<g id="a_edge46_Node000019_Node000007"><a xlink:title=" ">
<path fill="none" stroke="#63b8ff" d="M97.72,-549.9C87.27,-532.07 65,-489.46 65,-450.5 65,-450.5 65,-450.5 65,-118.5 65,-72.76 104.82,-74.92 146,-55 195.61,-31.01 259.12,-19.39 297.35,-14.2"/>
<polygon fill="#63b8ff" stroke="#63b8ff" points="297.96,-17.65 307.43,-12.91 297.06,-10.71 297.96,-17.65"/>
</a>
</g>
</g>
<!-- Node19&#45;&gt;Node15 -->
<g id="edge45_Node000019_Node000015" class="edge">
<title>Node19&#45;&gt;Node15</title>
<g id="a_edge45_Node000019_Node000015"><a xlink:title=" ">
<path fill="none" stroke="#63b8ff" d="M103,-549.82C103,-531.48 103,-487.44 103,-450.5 103,-450.5 103,-450.5 103,-173.5 103,-106.04 197.61,-79.54 248.88,-70.13"/>
<polygon fill="#63b8ff" stroke="#63b8ff" points="249.55,-73.57 258.82,-68.42 248.37,-66.67 249.55,-73.57"/>
</a>
</g>
</g>
<!-- Node20 -->
<g id="Node000020" class="node">
<title>Node20</title>
<g id="a_Node000020"><a xlink:href="CCSDSManager_8h.html" target="_top" xlink:title=" ">
<polygon fill="white" stroke="#666666" points="316.5,-514 215.5,-514 215.5,-495 316.5,-495 316.5,-514"/>
<text text-anchor="middle" x="266" y="-502" font-family="Helvetica,sans-Serif" font-size="10.00">CCSDSManager.h</text>
</a>
</g>
</g>
<!-- Node19&#45;&gt;Node20 -->
<g id="edge40_Node000019_Node000020" class="edge">
<title>Node19&#45;&gt;Node20</title>
<g id="a_edge40_Node000019_Node000020"><a xlink:title=" ">
<path fill="none" stroke="#63b8ff" d="M129.19,-549.98C156.44,-541.13 199.3,-527.19 229.78,-517.28"/>
<polygon fill="#63b8ff" stroke="#63b8ff" points="231.18,-520.5 239.61,-514.08 229.01,-513.85 231.18,-520.5"/>
</a>
</g>
</g>
<!-- Node20&#45;&gt;Node2 -->
<g id="edge44_Node000020_Node000002" class="edge">
<title>Node20&#45;&gt;Node2</title>
<g id="a_edge44_Node000020_Node000002"><a xlink:title=" ">
<path fill="none" stroke="#63b8ff" d="M253.31,-494.98C241.17,-486.84 222.64,-474.41 208.25,-464.76"/>
<polygon fill="#63b8ff" stroke="#63b8ff" points="210.18,-461.84 199.92,-459.17 206.28,-467.65 210.18,-461.84"/>
</a>
</g>
</g>
<!-- Node20&#45;&gt;Node3 -->
<g id="edge42_Node000020_Node000003" class="edge">
<title>Node20&#45;&gt;Node3</title>
<g id="a_edge42_Node000020_Node000003"><a xlink:title=" ">
<path fill="none" stroke="#63b8ff" d="M266.52,-494.72C267.74,-481.47 271.75,-456.22 285,-440 296.93,-425.39 314.96,-414.91 331.17,-407.81"/>
<polygon fill="#63b8ff" stroke="#63b8ff" points="332.52,-411.04 340.45,-404.01 329.87,-404.56 332.52,-411.04"/>
</a>
</g>
</g>
<!-- Node20&#45;&gt;Node4 -->
<g id="edge43_Node000020_Node000004" class="edge">
<title>Node20&#45;&gt;Node4</title>
<g id="a_edge43_Node000020_Node000004"><a xlink:title=" ">
<path fill="none" stroke="#63b8ff" d="M316.71,-499.82C462.59,-488.54 873,-451.83 873,-395.5 873,-395.5 873,-395.5 873,-173.5 873,-115.33 802.48,-87.57 750.47,-75"/>
<polygon fill="#63b8ff" stroke="#63b8ff" points="751.19,-71.57 740.66,-72.75 749.63,-78.4 751.19,-71.57"/>
</a>
</g>
</g>
<!-- Node21 -->
<g id="Node000021" class="node">
<title>Node21</title>
<g id="a_Node000021"><a xlink:title=" ">
<polygon fill="#e0e0e0" stroke="#999999" points="339.5,-459 294.5,-459 294.5,-440 339.5,-440 339.5,-459"/>
<text text-anchor="middle" x="317" y="-447" font-family="Helvetica,sans-Serif" font-size="10.00">utility</text>
</a>
</g>
</g>
<!-- Node20&#45;&gt;Node21 -->
<g id="edge41_Node000020_Node000021" class="edge">
<title>Node20&#45;&gt;Node21</title>
<g id="a_edge41_Node000020_Node000021"><a xlink:title=" ">
<path fill="none" stroke="#63b8ff" d="M274.42,-494.75C281.77,-487.11 292.63,-475.82 301.54,-466.56"/>
<polygon fill="#63b8ff" stroke="#63b8ff" points="304.32,-468.72 308.74,-459.09 299.28,-463.87 304.32,-468.72"/>
</a>
</g>
</g>
</g>
</svg>
