<?xml version="1.0" encoding="UTF-8" standalone="no"?>
<!DOCTYPE svg PUBLIC "-//W3C//DTD SVG 1.1//EN"
 "http://www.w3.org/Graphics/SVG/1.1/DTD/svg11.dtd">
<!-- Generated by graphviz version 2.43.0 (0)
 -->
<!-- Title: src/CCSDSManager.cpp Pages: 1 -->
<!--zoomable 522 -->

<svg id="main" version="1.1" xmlns="http://www.w3.org/2000/svg" xmlns:xlink="http://www.w3.org/1999/xlink" xml:space="preserve" onload="init(evt)">
<style type="text/css"><![CDATA[
.node, .edge {opacity: 0.7;}
.node.selected, .edge.selected {opacity: 1;}
.edge:hover path { stroke: red; }
.edge:hover polygon { stroke: red; fill: red; }
]]></style>

<defs>
  <circle id="rim" cx="0" cy="0" r="7"/>
  <circle id="rim2" cx="0" cy="0" r="3.5"/>
  <g id="zoomPlus">
    <use xlink:href="#rim" fill="#404040"><set attributeName="fill" to="#808080" begin="zoomplus.mouseover" end="zoomplus.mouseout"/></use>
    <path d="M-4,0h8M0,-4v8" fill="none" stroke="white" stroke-width="1.5" pointer-events="none"/>
  </g>
  <g id="zoomMin">
    <use xlink:href="#rim" fill="#404040"><set attributeName="fill" to="#808080" begin="zoomminus.mouseover" end="zoomminus.mouseout"/></use>
    <path d="M-4,0h8" fill="none" stroke="white" stroke-width="1.5" pointer-events="none"/>
  </g>
  <g id="arrowUp" transform="translate(30 24)">
    <use xlink:href="#rim"/>
    <path pointer-events="none" fill="none" stroke="white" stroke-width="1.5" d="M0,-3.0v7 M-2.5,-0.5L0,-3.0L2.5,-0.5"/>
  </g>
  <g id="arrowRight" transform="rotate(90) translate(36 -43)">
    <use xlink:href="#rim"/>
    <path pointer-events="none" fill="none" stroke="white" stroke-width="1.5" d="M0,-3.0v7 M-2.5,-0.5L0,-3.0L2.5,-0.5"/>
  </g>
  <g id="arrowDown" transform="rotate(180) translate(-30 -48)">
    <use xlink:href="#rim"/>
    <path pointer-events="none" fill="none" stroke="white" stroke-width="1.5" d="M0,-3.0v7 M-2.5,-0.5L0,-3.0L2.5,-0.5"/>
  </g>
  <g id="arrowLeft" transform="rotate(270) translate(-36 17)">
    <use xlink:href="#rim"/>
    <path pointer-events="none" fill="none" stroke="white" stroke-width="1.5" d="M0,-3.0v7 M-2.5,-0.5L0,-3.0L2.5,-0.5"/>
  </g>
  <g id="resetDef">
    <use xlink:href="#rim2" fill="#404040"><set attributeName="fill" to="#808080" begin="reset.mouseover" end="reset.mouseout"/></use>
  </g>
</defs>
<script type="application/ecmascript">
var viewWidth = 849;
var viewHeight = 522;
var sectionId = 'dynsection-0';
</script>
<script type="application/ecmascript" xlink:href="svg.min.js"/>
<svg id="graph" class="graph">
<g id="viewport">
<title>src/CCSDSManager.cpp</title>
<!-- Node1 -->
<g id="Node000001" class="node">
<title>Node1</title>
<g id="a_Node000001"><a xlink:title=" ">
<polygon fill="#999999" stroke="#666666" points="684.39,-514 555.39,-514 555.39,-495 684.39,-495 684.39,-514"/>
<text text-anchor="middle" x="619.89" y="-502" font-family="Helvetica,sans-Serif" font-size="10.00">src/CCSDSManager.cpp</text>
</a>
</g>
</g>
<!-- Node2 -->
<g id="Node000002" class="node">
<title>Node2</title>
<g id="a_Node000002"><a xlink:href="CCSDSManager_8h.html" target="_top" xlink:title=" ">
<polygon fill="white" stroke="#666666" points="794.39,-459 693.39,-459 693.39,-440 794.39,-440 794.39,-459"/>
<text text-anchor="middle" x="743.89" y="-447" font-family="Helvetica,sans-Serif" font-size="10.00">CCSDSManager.h</text>
</a>
</g>
</g>
<!-- Node1&#45;&gt;Node2 -->
<g id="edge1_Node000001_Node000002" class="edge">
<title>Node1&#45;&gt;Node2</title>
<g id="a_edge1_Node000001_Node000002"><a xlink:title=" ">
<path fill="none" stroke="#63b8ff" d="M639.81,-494.98C659.94,-486.38 691.27,-472.99 714.3,-463.15"/>
<polygon fill="#63b8ff" stroke="#63b8ff" points="715.79,-466.32 723.61,-459.17 713.04,-459.88 715.79,-466.32"/>
</a>
</g>
</g>
<!-- Node3 -->
<g id="Node000003" class="node">
<title>Node3</title>
<g id="a_Node000003"><a xlink:title=" ">
<polygon fill="#e0e0e0" stroke="#999999" points="642.39,-404 597.39,-404 597.39,-385 642.39,-385 642.39,-404"/>
<text text-anchor="middle" x="619.89" y="-392" font-family="Helvetica,sans-Serif" font-size="10.00">utility</text>
</a>
</g>
</g>
<!-- Node1&#45;&gt;Node3 -->
<g id="edge39_Node000001_Node000003" class="edge">
<title>Node1&#45;&gt;Node3</title>
<g id="a_edge39_Node000001_Node000003"><a xlink:title=" ">
<path fill="none" stroke="#63b8ff" d="M617.63,-494.89C614.69,-482.7 610.13,-459.7 611.89,-440 612.65,-431.5 614.21,-422.19 615.75,-414.29"/>
<polygon fill="#63b8ff" stroke="#63b8ff" points="619.22,-414.81 617.83,-404.3 612.36,-413.38 619.22,-414.81"/>
</a>
</g>
</g>
<!-- Node20 -->
<g id="Node000020" class="node">
<title>Node20</title>
<g id="a_Node000020"><a xlink:title=" ">
<polygon fill="#e0e0e0" stroke="#999999" points="674.89,-459 620.89,-459 620.89,-440 674.89,-440 674.89,-459"/>
<text text-anchor="middle" x="647.89" y="-447" font-family="Helvetica,sans-Serif" font-size="10.00">random</text>
</a>
</g>
</g>
<!-- Node1&#45;&gt;Node20 -->
<g id="edge38_Node000001_Node000020" class="edge">
<title>Node1&#45;&gt;Node20</title>
<g id="a_edge38_Node000001_Node000020"><a xlink:title=" ">
<path fill="none" stroke="#63b8ff" d="M624.52,-494.75C628.35,-487.49 633.92,-476.95 638.66,-467.98"/>
<polygon fill="#63b8ff" stroke="#63b8ff" points="641.78,-469.57 643.35,-459.09 635.59,-466.3 641.78,-469.57"/>
</a>
</g>
</g>
<!-- Node21 -->
<g id="Node000021" class="node">
<title>Node21</title>
<g id="a_Node000021"><a xlink:href="CCSDSUtils_8h.html" target="_top" xlink:title=" ">
<polygon fill="white" stroke="#666666" points="579.39,-404 498.39,-404 498.39,-385 579.39,-385 579.39,-404"/>
<text text-anchor="middle" x="538.89" y="-392" font-family="Helvetica,sans-Serif" font-size="10.00">CCSDSUtils.h</text>
</a>
</g>
</g>
<!-- Node1&#45;&gt;Node21 -->
<g id="edge40_Node000001_Node000021" class="edge">
<title>Node1&#45;&gt;Node21</title>
<g id="a_edge40_Node000001_Node000021"><a xlink:title=" ">
<path fill="none" stroke="#63b8ff" d="M613.26,-494.66C599.79,-476.69 569,-435.64 551.55,-412.38"/>
<polygon fill="#63b8ff" stroke="#63b8ff" points="554.19,-410.06 545.39,-404.16 548.59,-414.26 554.19,-410.06"/>
</a>
</g>
</g>
<!-- Node2&#45;&gt;Node3 -->
<g id="edge2_Node000002_Node000003" class="edge">
<title>Node2&#45;&gt;Node3</title>
<g id="a_edge2_Node000002_Node000003"><a xlink:title=" ">
<path fill="none" stroke="#63b8ff" d="M723.97,-439.98C703.84,-431.38 672.51,-417.99 649.48,-408.15"/>
<polygon fill="#63b8ff" stroke="#63b8ff" points="650.75,-404.88 640.18,-404.17 648,-411.32 650.75,-404.88"/>
</a>
</g>
</g>
<!-- Node4 -->
<g id="Node000004" class="node">
<title>Node4</title>
<g id="a_Node000004"><a xlink:href="CCSDSPacket_8h.html" target="_top" xlink:title=" ">
<polygon fill="white" stroke="#666666" points="666.89,-349 576.89,-349 576.89,-330 666.89,-330 666.89,-349"/>
<text text-anchor="middle" x="621.89" y="-337" font-family="Helvetica,sans-Serif" font-size="10.00">CCSDSPacket.h</text>
</a>
</g>
</g>
<!-- Node2&#45;&gt;Node4 -->
<g id="edge3_Node000002_Node000004" class="edge">
<title>Node2&#45;&gt;Node4</title>
<g id="a_edge3_Node000002_Node000004"><a xlink:title=" ">
<path fill="none" stroke="#63b8ff" d="M732.97,-439.83C721.94,-431 704.5,-416.82 689.89,-404 671.99,-388.3 652.16,-369.62 638.56,-356.61"/>
<polygon fill="#63b8ff" stroke="#63b8ff" points="640.6,-353.72 630.96,-349.31 635.75,-358.76 640.6,-353.72"/>
</a>
</g>
</g>
<!-- Node5 -->
<g id="Node000005" class="node">
<title>Node5</title>
<g id="a_Node000005"><a xlink:href="CCSDSResult_8h.html" target="_top" xlink:title=" ">
<polygon fill="white" stroke="#666666" points="439.39,-74 350.39,-74 350.39,-55 439.39,-55 439.39,-74"/>
<text text-anchor="middle" x="394.89" y="-62" font-family="Helvetica,sans-Serif" font-size="10.00">CCSDSResult.h</text>
</a>
</g>
</g>
<!-- Node2&#45;&gt;Node5 -->
<g id="edge35_Node000002_Node000005" class="edge">
<title>Node2&#45;&gt;Node5</title>
<g id="a_edge35_Node000002_Node000005"><a xlink:title=" ">
<path fill="none" stroke="#63b8ff" d="M766.67,-439.89C781.92,-432.79 800.81,-421.08 809.89,-404 813.86,-396.54 811.4,-393.31 809.89,-385 786.63,-256.58 808.62,-191.77 706.89,-110 668.32,-79 528.5,-69.59 449.76,-66.74"/>
<polygon fill="#63b8ff" stroke="#63b8ff" points="449.65,-63.23 439.54,-66.39 449.41,-70.23 449.65,-63.23"/>
</a>
</g>
</g>
<!-- Node19 -->
<g id="Node000019" class="node">
<title>Node19</title>
<g id="a_Node000019"><a xlink:href="CCSDSValidator_8h.html" target="_top" xlink:title="Defines the Validator class for CCSDS packet validation.">
<polygon fill="white" stroke="#666666" points="800.39,-404 699.39,-404 699.39,-385 800.39,-385 800.39,-404"/>
<text text-anchor="middle" x="749.89" y="-392" font-family="Helvetica,sans-Serif" font-size="10.00">CCSDSValidator.h</text>
</a>
</g>
</g>
<!-- Node2&#45;&gt;Node19 -->
<g id="edge36_Node000002_Node000019" class="edge">
<title>Node2&#45;&gt;Node19</title>
<g id="a_edge36_Node000002_Node000019"><a xlink:title=" ">
<path fill="none" stroke="#63b8ff" d="M744.88,-439.75C745.67,-432.8 746.8,-422.85 747.78,-414.13"/>
<polygon fill="#63b8ff" stroke="#63b8ff" points="751.27,-414.42 748.92,-404.09 744.32,-413.63 751.27,-414.42"/>
</a>
</g>
</g>
<!-- Node4&#45;&gt;Node5 -->
<g id="edge4_Node000004_Node000005" class="edge">
<title>Node4&#45;&gt;Node5</title>
<g id="a_edge4_Node000004_Node000005"><a xlink:title=" ">
<path fill="none" stroke="#63b8ff" d="M615.44,-329.77C603,-312.04 576.89,-270.11 576.89,-230.5 576.89,-230.5 576.89,-230.5 576.89,-173.5 576.89,-144.04 578.97,-130.58 557.89,-110 529.33,-82.12 485.08,-71.31 449.89,-67.29"/>
<polygon fill="#63b8ff" stroke="#63b8ff" points="450.05,-63.79 439.76,-66.29 449.36,-70.76 450.05,-63.79"/>
</a>
</g>
</g>
<!-- Node8 -->
<g id="Node000008" class="node">
<title>Node8</title>
<g id="a_Node000008"><a xlink:title=" ">
<polygon fill="#e0e0e0" stroke="#999999" points="759.39,-19 712.39,-19 712.39,0 759.39,0 759.39,-19"/>
<text text-anchor="middle" x="735.89" y="-7" font-family="Helvetica,sans-Serif" font-size="10.00">vector</text>
</a>
</g>
</g>
<!-- Node4&#45;&gt;Node8 -->
<g id="edge11_Node000004_Node000008" class="edge">
<title>Node4&#45;&gt;Node8</title>
<g id="a_edge11_Node000004_Node000008"><a xlink:title=" ">
<path fill="none" stroke="#63b8ff" d="M628.12,-329.96C650.81,-298.22 728.56,-183.19 746.89,-74 749.44,-58.81 746.07,-41.59 742.4,-28.92"/>
<polygon fill="#63b8ff" stroke="#63b8ff" points="745.65,-27.57 739.25,-19.12 738.98,-29.71 745.65,-27.57"/>
</a>
</g>
</g>
<!-- Node9 -->
<g id="Node000009" class="node">
<title>Node9</title>
<g id="a_Node000009"><a xlink:title=" ">
<polygon fill="#e0e0e0" stroke="#999999" points="50.89,-19 0.89,-19 0.89,0 50.89,0 50.89,-19"/>
<text text-anchor="middle" x="25.89" y="-7" font-family="Helvetica,sans-Serif" font-size="10.00">cstdint</text>
</a>
</g>
</g>
<!-- Node4&#45;&gt;Node9 -->
<g id="edge10_Node000004_Node000009" class="edge">
<title>Node4&#45;&gt;Node9</title>
<g id="a_edge10_Node000004_Node000009"><a xlink:title=" ">
<path fill="none" stroke="#63b8ff" d="M576.78,-336.5C455.52,-330.25 126.25,-307.23 45.89,-239 -17.44,-185.23 0.38,-137.13 12.89,-55 14.23,-46.25 16.81,-36.8 19.33,-28.87"/>
<polygon fill="#63b8ff" stroke="#63b8ff" points="22.71,-29.8 22.6,-19.21 16.08,-27.56 22.71,-29.8"/>
</a>
</g>
</g>
<!-- Node11 -->
<g id="Node000011" class="node">
<title>Node11</title>
<g id="a_Node000011"><a xlink:href="CCSDSHeader_8h.html" target="_top" xlink:title=" ">
<polygon fill="white" stroke="#666666" points="698.39,-129 605.39,-129 605.39,-110 698.39,-110 698.39,-129"/>
<text text-anchor="middle" x="651.89" y="-117" font-family="Helvetica,sans-Serif" font-size="10.00">CCSDSHeader.h</text>
</a>
</g>
</g>
<!-- Node4&#45;&gt;Node11 -->
<g id="edge12_Node000004_Node000011" class="edge">
<title>Node4&#45;&gt;Node11</title>
<g id="a_edge12_Node000004_Node000011"><a xlink:title=" ">
<path fill="none" stroke="#63b8ff" d="M623.07,-329.95C627.47,-297.95 643.06,-184.68 649.29,-139.4"/>
<polygon fill="#63b8ff" stroke="#63b8ff" points="652.79,-139.61 650.69,-129.22 645.86,-138.65 652.79,-139.61"/>
</a>
</g>
</g>
<!-- Node12 -->
<g id="Node000012" class="node">
<title>Node12</title>
<g id="a_Node000012"><a xlink:href="CCSDSDataField_8h.html" target="_top" xlink:title=" ">
<polygon fill="white" stroke="#666666" points="342.39,-294 237.39,-294 237.39,-275 342.39,-275 342.39,-294"/>
<text text-anchor="middle" x="289.89" y="-282" font-family="Helvetica,sans-Serif" font-size="10.00">CCSDSDataField.h</text>
</a>
</g>
</g>
<!-- Node4&#45;&gt;Node12 -->
<g id="edge16_Node000004_Node000012" class="edge">
<title>Node4&#45;&gt;Node12</title>
<g id="a_edge16_Node000004_Node000012"><a xlink:title=" ">
<path fill="none" stroke="#63b8ff" d="M576.77,-331.3C518.88,-322.06 418.15,-305.97 352.76,-295.54"/>
<polygon fill="#63b8ff" stroke="#63b8ff" points="353.01,-292.03 342.58,-293.91 351.91,-298.94 353.01,-292.03"/>
</a>
</g>
</g>
<!-- Node6 -->
<g id="Node000006" class="node">
<title>Node6</title>
<g id="a_Node000006"><a xlink:title=" ">
<polygon fill="#e0e0e0" stroke="#999999" points="174.39,-19 81.39,-19 81.39,0 174.39,0 174.39,-19"/>
<text text-anchor="middle" x="127.89" y="-7" font-family="Helvetica,sans-Serif" font-size="10.00">unordered_map</text>
</a>
</g>
</g>
<!-- Node5&#45;&gt;Node6 -->
<g id="edge5_Node000005_Node000006" class="edge">
<title>Node5&#45;&gt;Node6</title>
<g id="a_edge5_Node000005_Node000006"><a xlink:title=" ">
<path fill="none" stroke="#63b8ff" d="M351.99,-54.98C305.52,-45.76 231.3,-31.03 181.14,-21.07"/>
<polygon fill="#63b8ff" stroke="#63b8ff" points="181.62,-17.6 171.13,-19.08 180.25,-24.46 181.62,-17.6"/>
</a>
</g>
</g>
<!-- Node7 -->
<g id="Node000007" class="node">
<title>Node7</title>
<g id="a_Node000007"><a xlink:title=" ">
<polygon fill="#e0e0e0" stroke="#999999" points="457.39,-19 406.39,-19 406.39,0 457.39,0 457.39,-19"/>
<text text-anchor="middle" x="431.89" y="-7" font-family="Helvetica,sans-Serif" font-size="10.00">variant</text>
</a>
</g>
</g>
<!-- Node5&#45;&gt;Node7 -->
<g id="edge6_Node000005_Node000007" class="edge">
<title>Node5&#45;&gt;Node7</title>
<g id="a_edge6_Node000005_Node000007"><a xlink:title=" ">
<path fill="none" stroke="#63b8ff" d="M401,-54.75C406.17,-47.34 413.74,-36.5 420.09,-27.41"/>
<polygon fill="#63b8ff" stroke="#63b8ff" points="423.04,-29.29 425.9,-19.09 417.3,-25.29 423.04,-29.29"/>
</a>
</g>
</g>
<!-- Node5&#45;&gt;Node8 -->
<g id="edge7_Node000005_Node000008" class="edge">
<title>Node5&#45;&gt;Node8</title>
<g id="a_edge7_Node000005_Node000008"><a xlink:title=" ">
<path fill="none" stroke="#63b8ff" d="M439.47,-56.57C508.59,-45.83 640.08,-25.39 702.02,-15.76"/>
<polygon fill="#63b8ff" stroke="#63b8ff" points="702.7,-19.2 712.04,-14.21 701.63,-12.28 702.7,-19.2"/>
</a>
</g>
</g>
<!-- Node5&#45;&gt;Node9 -->
<g id="edge8_Node000005_Node000009" class="edge">
<title>Node5&#45;&gt;Node9</title>
<g id="a_edge8_Node000005_Node000009"><a xlink:title=" ">
<path fill="none" stroke="#63b8ff" d="M350.39,-58.02C288.01,-50.2 171.09,-34.99 71.89,-19 68.42,-18.44 64.8,-17.83 61.2,-17.19"/>
<polygon fill="#63b8ff" stroke="#63b8ff" points="61.63,-13.71 51.16,-15.38 60.38,-20.6 61.63,-13.71"/>
</a>
</g>
</g>
<!-- Node10 -->
<g id="Node000010" class="node">
<title>Node10</title>
<g id="a_Node000010"><a xlink:title=" ">
<polygon fill="#e0e0e0" stroke="#999999" points="387.89,-19 327.89,-19 327.89,0 387.89,0 387.89,-19"/>
<text text-anchor="middle" x="357.89" y="-7" font-family="Helvetica,sans-Serif" font-size="10.00">iostream</text>
</a>
</g>
</g>
<!-- Node5&#45;&gt;Node10 -->
<g id="edge9_Node000005_Node000010" class="edge">
<title>Node5&#45;&gt;Node10</title>
<g id="a_edge9_Node000005_Node000010"><a xlink:title=" ">
<path fill="none" stroke="#63b8ff" d="M388.78,-54.75C383.61,-47.34 376.05,-36.5 369.7,-27.41"/>
<polygon fill="#63b8ff" stroke="#63b8ff" points="372.48,-25.29 363.89,-19.09 366.74,-29.29 372.48,-25.29"/>
</a>
</g>
</g>
<!-- Node11&#45;&gt;Node5 -->
<g id="edge13_Node000011_Node000005" class="edge">
<title>Node11&#45;&gt;Node5</title>
<g id="a_edge13_Node000011_Node000005"><a xlink:title=" ">
<path fill="none" stroke="#63b8ff" d="M610.6,-109.98C565.96,-100.78 494.73,-86.09 446.44,-76.13"/>
<polygon fill="#63b8ff" stroke="#63b8ff" points="447.01,-72.67 436.51,-74.08 445.59,-79.53 447.01,-72.67"/>
</a>
</g>
</g>
<!-- Node11&#45;&gt;Node8 -->
<g id="edge15_Node000011_Node000008" class="edge">
<title>Node11&#45;&gt;Node8</title>
<g id="a_edge15_Node000011_Node000008"><a xlink:title=" ">
<path fill="none" stroke="#63b8ff" d="M658.77,-109.66C672.8,-91.61 704.95,-50.28 723,-27.08"/>
<polygon fill="#63b8ff" stroke="#63b8ff" points="725.78,-29.2 729.16,-19.16 720.26,-24.9 725.78,-29.2"/>
</a>
</g>
</g>
<!-- Node11&#45;&gt;Node9 -->
<g id="edge14_Node000011_Node000009" class="edge">
<title>Node11&#45;&gt;Node9</title>
<g id="a_edge14_Node000011_Node000009"><a xlink:title=" ">
<path fill="none" stroke="#63b8ff" d="M605.13,-112.65C544.17,-104.83 434.29,-90.08 340.89,-74 238.93,-56.44 119.38,-31 61.24,-18.31"/>
<polygon fill="#63b8ff" stroke="#63b8ff" points="61.63,-14.81 51.12,-16.09 60.14,-21.65 61.63,-14.81"/>
</a>
</g>
</g>
<!-- Node12&#45;&gt;Node5 -->
<g id="edge17_Node000012_Node000005" class="edge">
<title>Node12&#45;&gt;Node5</title>
<g id="a_edge17_Node000012_Node000005"><a xlink:title=" ">
<path fill="none" stroke="#63b8ff" d="M286.07,-274.84C274.65,-247.49 243.84,-161.74 281.89,-110 295.76,-91.15 318.84,-80.28 340.55,-74.01"/>
<polygon fill="#63b8ff" stroke="#63b8ff" points="341.59,-77.36 350.38,-71.44 339.82,-70.58 341.59,-77.36"/>
</a>
</g>
</g>
<!-- Node12&#45;&gt;Node8 -->
<g id="edge19_Node000012_Node000008" class="edge">
<title>Node12&#45;&gt;Node8</title>
<g id="a_edge19_Node000012_Node000008"><a xlink:title=" ">
<path fill="none" stroke="#63b8ff" d="M342.44,-279.48C431.17,-269.8 610.44,-237.21 706.89,-129 731.82,-101.03 736.15,-55.13 736.44,-29.44"/>
<polygon fill="#63b8ff" stroke="#63b8ff" points="739.93,-29.16 736.35,-19.19 732.93,-29.22 739.93,-29.16"/>
</a>
</g>
</g>
<!-- Node12&#45;&gt;Node9 -->
<g id="edge18_Node000012_Node000009" class="edge">
<title>Node12&#45;&gt;Node9</title>
<g id="a_edge18_Node000012_Node000009"><a xlink:title=" ">
<path fill="none" stroke="#63b8ff" d="M237,-283.38C189.74,-280.94 120.39,-271.42 69.89,-239 0.49,-194.44 13.8,-75.62 22.04,-29.33"/>
<polygon fill="#63b8ff" stroke="#63b8ff" points="25.49,-29.92 23.92,-19.44 18.61,-28.61 25.49,-29.92"/>
</a>
</g>
</g>
<!-- Node13 -->
<g id="Node000013" class="node">
<title>Node13</title>
<g id="a_Node000013"><a xlink:title=" ">
<polygon fill="#e0e0e0" stroke="#999999" points="86.89,-129 28.89,-129 28.89,-110 86.89,-110 86.89,-129"/>
<text text-anchor="middle" x="57.89" y="-117" font-family="Helvetica,sans-Serif" font-size="10.00">memory</text>
</a>
</g>
</g>
<!-- Node12&#45;&gt;Node13 -->
<g id="edge20_Node000012_Node000013" class="edge">
<title>Node12&#45;&gt;Node13</title>
<g id="a_edge20_Node000012_Node000013"><a xlink:title=" ">
<path fill="none" stroke="#63b8ff" d="M237.32,-279.54C177.54,-271.9 82.47,-249.53 37.89,-184 28.38,-170.02 36.27,-151.29 44.77,-137.8"/>
<polygon fill="#63b8ff" stroke="#63b8ff" points="47.76,-139.64 50.56,-129.42 42,-135.66 47.76,-139.64"/>
</a>
</g>
</g>
<!-- Node14 -->
<g id="Node000014" class="node">
<title>Node14</title>
<g id="a_Node000014"><a xlink:href="CCSDSSecondaryHeaderAbstract_8h.html" target="_top" xlink:title=" ">
<polygon fill="white" stroke="#666666" points="487.39,-129 302.39,-129 302.39,-110 487.39,-110 487.39,-129"/>
<text text-anchor="middle" x="394.89" y="-117" font-family="Helvetica,sans-Serif" font-size="10.00">CCSDSSecondaryHeaderAbstract.h</text>
</a>
</g>
</g>
<!-- Node12&#45;&gt;Node14 -->
<g id="edge21_Node000012_Node000014" class="edge">
<title>Node12&#45;&gt;Node14</title>
<g id="a_edge21_Node000012_Node000014"><a xlink:title=" ">
<path fill="none" stroke="#63b8ff" d="M321.72,-274.95C340.43,-268.25 362.89,-256.98 375.89,-239 397.39,-209.28 398.3,-164.4 396.78,-139.26"/>
<polygon fill="#63b8ff" stroke="#63b8ff" points="400.26,-138.91 395.97,-129.23 393.29,-139.48 400.26,-138.91"/>
</a>
</g>
</g>
<!-- Node15 -->
<g id="Node000015" class="node">
<title>Node15</title>
<g id="a_Node000015"><a xlink:href="CCSDSSecondaryHeaderFactory_8h.html" target="_top" xlink:title=" ">
<polygon fill="white" stroke="#666666" points="226.39,-184 47.39,-184 47.39,-165 226.39,-165 226.39,-184"/>
<text text-anchor="middle" x="136.89" y="-172" font-family="Helvetica,sans-Serif" font-size="10.00">CCSDSSecondaryHeaderFactory.h</text>
</a>
</g>
</g>
<!-- Node12&#45;&gt;Node15 -->
<g id="edge25_Node000012_Node000015" class="edge">
<title>Node12&#45;&gt;Node15</title>
<g id="a_edge25_Node000012_Node000015"><a xlink:title=" ">
<path fill="none" stroke="#63b8ff" d="M277.63,-274.84C251.44,-256.36 189.82,-212.86 157.5,-190.05"/>
<polygon fill="#63b8ff" stroke="#63b8ff" points="159.4,-187.1 149.21,-184.2 155.36,-192.82 159.4,-187.1"/>
</a>
</g>
</g>
<!-- Node18 -->
<g id="Node000018" class="node">
<title>Node18</title>
<g id="a_Node000018"><a xlink:href="PusServices_8h.html" target="_top" xlink:title=" ">
<polygon fill="white" stroke="#666666" points="366.89,-239 282.89,-239 282.89,-220 366.89,-220 366.89,-239"/>
<text text-anchor="middle" x="324.89" y="-227" font-family="Helvetica,sans-Serif" font-size="10.00">PusServices.h</text>
</a>
</g>
</g>
<!-- Node12&#45;&gt;Node18 -->
<g id="edge31_Node000012_Node000018" class="edge">
<title>Node12&#45;&gt;Node18</title>
<g id="a_edge31_Node000012_Node000018"><a xlink:title=" ">
<path fill="none" stroke="#63b8ff" d="M295.67,-274.75C300.51,-267.42 307.57,-256.73 313.54,-247.7"/>
<polygon fill="#63b8ff" stroke="#63b8ff" points="316.63,-249.36 319.22,-239.09 310.79,-245.5 316.63,-249.36"/>
</a>
</g>
</g>
<!-- Node14&#45;&gt;Node5 -->
<g id="edge22_Node000014_Node000005" class="edge">
<title>Node14&#45;&gt;Node5</title>
<g id="a_edge22_Node000014_Node000005"><a xlink:title=" ">
<path fill="none" stroke="#63b8ff" d="M394.89,-109.75C394.89,-102.8 394.89,-92.85 394.89,-84.13"/>
<polygon fill="#63b8ff" stroke="#63b8ff" points="398.39,-84.09 394.89,-74.09 391.39,-84.09 398.39,-84.09"/>
</a>
</g>
</g>
<!-- Node14&#45;&gt;Node8 -->
<g id="edge23_Node000014_Node000008" class="edge">
<title>Node14&#45;&gt;Node8</title>
<g id="a_edge23_Node000014_Node000008"><a xlink:title=" ">
<path fill="none" stroke="#63b8ff" d="M421.93,-109.94C483.67,-90.38 634.83,-42.51 702.35,-21.12"/>
<polygon fill="#63b8ff" stroke="#63b8ff" points="703.59,-24.4 712.07,-18.05 701.48,-17.73 703.59,-24.4"/>
</a>
</g>
</g>
<!-- Node14&#45;&gt;Node9 -->
<g id="edge24_Node000014_Node000009" class="edge">
<title>Node14&#45;&gt;Node9</title>
<g id="a_edge24_Node000014_Node000009"><a xlink:title=" ">
<path fill="none" stroke="#63b8ff" d="M302.18,-115.09C217.88,-110.4 100.99,-99.41 62.89,-74 47,-63.4 37.05,-43.49 31.52,-28.78"/>
<polygon fill="#63b8ff" stroke="#63b8ff" points="34.79,-27.53 28.25,-19.19 28.16,-29.79 34.79,-27.53"/>
</a>
</g>
</g>
<!-- Node15&#45;&gt;Node6 -->
<g id="edge27_Node000015_Node000006" class="edge">
<title>Node15&#45;&gt;Node6</title>
<g id="a_edge27_Node000015_Node000006"><a xlink:title=" ">
<path fill="none" stroke="#63b8ff" d="M136.27,-164.97C135.64,-156.02 134.63,-141.52 133.89,-129 131.82,-93.82 129.83,-52.73 128.75,-29.35"/>
<polygon fill="#63b8ff" stroke="#63b8ff" points="132.23,-28.96 128.28,-19.13 125.24,-29.28 132.23,-28.96"/>
</a>
</g>
</g>
<!-- Node15&#45;&gt;Node13 -->
<g id="edge26_Node000015_Node000013" class="edge">
<title>Node15&#45;&gt;Node13</title>
<g id="a_edge26_Node000015_Node000013"><a xlink:title=" ">
<path fill="none" stroke="#63b8ff" d="M124.2,-164.98C112.06,-156.84 93.53,-144.41 79.15,-134.76"/>
<polygon fill="#63b8ff" stroke="#63b8ff" points="81.07,-131.84 70.82,-129.17 77.17,-137.65 81.07,-131.84"/>
</a>
</g>
</g>
<!-- Node15&#45;&gt;Node14 -->
<g id="edge30_Node000015_Node000014" class="edge">
<title>Node15&#45;&gt;Node14</title>
<g id="a_edge30_Node000015_Node000014"><a xlink:title=" ">
<path fill="none" stroke="#63b8ff" d="M178.34,-164.98C223.16,-155.78 294.67,-141.09 343.14,-131.13"/>
<polygon fill="#63b8ff" stroke="#63b8ff" points="344.02,-134.52 353.11,-129.08 342.61,-127.67 344.02,-134.52"/>
</a>
</g>
</g>
<!-- Node16 -->
<g id="Node000016" class="node">
<title>Node16</title>
<g id="a_Node000016"><a xlink:title=" ">
<polygon fill="#e0e0e0" stroke="#999999" points="208.39,-129 143.39,-129 143.39,-110 208.39,-110 208.39,-129"/>
<text text-anchor="middle" x="175.89" y="-117" font-family="Helvetica,sans-Serif" font-size="10.00">functional</text>
</a>
</g>
</g>
<!-- Node15&#45;&gt;Node16 -->
<g id="edge28_Node000015_Node000016" class="edge">
<title>Node15&#45;&gt;Node16</title>
<g id="a_edge28_Node000015_Node000016"><a xlink:title=" ">
<path fill="none" stroke="#63b8ff" d="M143.33,-164.75C148.78,-157.34 156.76,-146.5 163.45,-137.41"/>
<polygon fill="#63b8ff" stroke="#63b8ff" points="166.46,-139.22 169.57,-129.09 160.83,-135.07 166.46,-139.22"/>
</a>
</g>
</g>
<!-- Node17 -->
<g id="Node000017" class="node">
<title>Node17</title>
<g id="a_Node000017"><a xlink:title=" ">
<polygon fill="#e0e0e0" stroke="#999999" points="548.89,-129 504.89,-129 504.89,-110 548.89,-110 548.89,-129"/>
<text text-anchor="middle" x="526.89" y="-117" font-family="Helvetica,sans-Serif" font-size="10.00">string</text>
</a>
</g>
</g>
<!-- Node15&#45;&gt;Node17 -->
<g id="edge29_Node000015_Node000017" class="edge">
<title>Node15&#45;&gt;Node17</title>
<g id="a_edge29_Node000015_Node000017"><a xlink:title=" ">
<path fill="none" stroke="#63b8ff" d="M226.72,-165.99C297.26,-159.26 398.06,-147.79 494.69,-128.98"/>
<polygon fill="#63b8ff" stroke="#63b8ff" points="495.5,-132.39 504.63,-127.02 494.14,-125.52 495.5,-132.39"/>
</a>
</g>
</g>
<!-- Node18&#45;&gt;Node5 -->
<g id="edge34_Node000018_Node000005" class="edge">
<title>Node18&#45;&gt;Node5</title>
<g id="a_edge34_Node000018_Node000005"><a xlink:title=" ">
<path fill="none" stroke="#63b8ff" d="M318.07,-219.71C302.87,-198.97 269.31,-146.01 292.89,-110 303.75,-93.41 322.29,-82.97 340.61,-76.42"/>
<polygon fill="#63b8ff" stroke="#63b8ff" points="341.7,-79.75 350.13,-73.33 339.54,-73.09 341.7,-79.75"/>
</a>
</g>
</g>
<!-- Node18&#45;&gt;Node14 -->
<g id="edge32_Node000018_Node000014" class="edge">
<title>Node18&#45;&gt;Node14</title>
<g id="a_edge32_Node000018_Node000014"><a xlink:title=" ">
<path fill="none" stroke="#63b8ff" d="M330.62,-219.66C342.21,-201.77 368.64,-161 383.75,-137.69"/>
<polygon fill="#63b8ff" stroke="#63b8ff" points="386.78,-139.45 389.28,-129.16 380.9,-135.65 386.78,-139.45"/>
</a>
</g>
</g>
<!-- Node18&#45;&gt;Node15 -->
<g id="edge33_Node000018_Node000015" class="edge">
<title>Node18&#45;&gt;Node15</title>
<g id="a_edge33_Node000018_Node000015"><a xlink:title=" ">
<path fill="none" stroke="#63b8ff" d="M294.69,-219.98C262.85,-211.01 212.53,-196.82 177.29,-186.89"/>
<polygon fill="#63b8ff" stroke="#63b8ff" points="177.91,-183.43 167.33,-184.08 176.01,-190.16 177.91,-183.43"/>
</a>
</g>
</g>
<!-- Node19&#45;&gt;Node4 -->
<g id="edge37_Node000019_Node000004" class="edge">
<title>Node19&#45;&gt;Node4</title>
<g id="a_edge37_Node000019_Node000004"><a xlink:title=" ">
<path fill="none" stroke="#63b8ff" d="M729.33,-384.98C708.46,-376.34 675.92,-362.87 652.12,-353.02"/>
<polygon fill="#63b8ff" stroke="#63b8ff" points="653.41,-349.76 642.83,-349.17 650.73,-356.23 653.41,-349.76"/>
</a>
</g>
</g>
<!-- Node21&#45;&gt;Node4 -->
<g id="edge41_Node000021_Node000004" class="edge">
<title>Node21&#45;&gt;Node4</title>
<g id="a_edge41_Node000021_Node000004"><a xlink:title=" ">
<path fill="none" stroke="#63b8ff" d="M552.23,-384.98C564.98,-376.84 584.44,-364.41 599.56,-354.76"/>
<polygon fill="#63b8ff" stroke="#63b8ff" points="601.77,-357.5 608.31,-349.17 598,-351.6 601.77,-357.5"/>
</a>
</g>
</g>
<!-- Node21&#45;&gt;Node8 -->
<g id="edge44_Node000021_Node000008" class="edge">
<title>Node21&#45;&gt;Node8</title>
<g id="a_edge44_Node000021_Node000008"><a xlink:title=" ">
<path fill="none" stroke="#63b8ff" d="M577.45,-384.95C658.86,-364.38 840.89,-304.02 840.89,-175.5 840.89,-175.5 840.89,-175.5 840.89,-118.5 840.89,-74.18 794.88,-41.21 763.77,-23.99"/>
<polygon fill="#63b8ff" stroke="#63b8ff" points="765.14,-20.75 754.66,-19.15 761.85,-26.93 765.14,-20.75"/>
</a>
</g>
</g>
<!-- Node21&#45;&gt;Node9 -->
<g id="edge43_Node000021_Node000009" class="edge">
<title>Node21&#45;&gt;Node9</title>
<g id="a_edge43_Node000021_Node000009"><a xlink:title=" ">
<path fill="none" stroke="#63b8ff" d="M498.24,-388.84C411.69,-377.17 206.02,-340.04 69.89,-239 20.52,-202.35 18.04,-171.46 19.89,-110 20.74,-81.8 22.94,-49.17 24.43,-29.19"/>
<polygon fill="#63b8ff" stroke="#63b8ff" points="27.93,-29.25 25.2,-19.01 20.95,-28.71 27.93,-29.25"/>
</a>
</g>
</g>
<!-- Node21&#45;&gt;Node17 -->
<g id="edge42_Node000021_Node000017" class="edge">
<title>Node21&#45;&gt;Node17</title>
<g id="a_edge42_Node000021_Node000017"><a xlink:title=" ">
<path fill="none" stroke="#63b8ff" d="M538.89,-384.82C538.89,-366.48 538.89,-322.44 538.89,-285.5 538.89,-285.5 538.89,-285.5 538.89,-228.5 538.89,-197 533.79,-160.64 530.23,-139.16"/>
<polygon fill="#63b8ff" stroke="#63b8ff" points="533.66,-138.4 528.51,-129.14 526.76,-139.59 533.66,-138.4"/>
</a>
</g>
</g>
</g>
</svg>

<g id="navigator" transform="translate(0 0)" fill="#404254">
  <rect fill="#f2f5e9" fill-opacity="0.5" stroke="#606060" stroke-width=".5" x="0" y="0" width="60" height="60"/>
  <use id="zoomplus" xlink:href="#zoomPlus" x="17" y="9" onmousedown="handleZoom(evt,'in')"/>
  <use id="zoomminus" xlink:href="#zoomMin" x="42" y="9" onmousedown="handleZoom(evt,'out')"/>
  <use id="reset" xlink:href="#resetDef" x="30" y="36" onmousedown="handleReset()"/>
   <use id="arrowup" xlink:href="#arrowUp" x="0" y="0" onmousedown="handlePan(0,-1)"/>
  <use id="arrowright" xlink:href="#arrowRight" x="0" y="0" onmousedown="handlePan(1,0)"/>
  <use id="arrowdown" xlink:href="#arrowDown" x="0" y="0" onmousedown="handlePan(0,1)"/>
  <use id="arrowleft" xlink:href="#arrowLeft" x="0" y="0" onmousedown="handlePan(-1,0)"/>
</g>
<svg viewBox="0 0 15 15" width="100%" height="30px" preserveAspectRatio="xMaxYMin meet">
 <g id="arrow_out" transform="scale(0.3 0.3)">
  <a xlink:href="CCSDSManager_8cpp__incl_org.svg" target="_base">
   <rect id="button" ry="5" rx="5" y="6" x="6" height="38" width="38"
        fill="#f2f5e9" fill-opacity="0.5" stroke="#606060" stroke-width="1.0"/>
   <path id="arrow"
     d="M 11.500037,31.436501 C 11.940474,20.09759 22.043105,11.32322 32.158766,21.979434 L 37.068811,17.246167 C 37.068811,17.246167 37.088388,32 37.088388,32 L 22.160133,31.978069 C 22.160133,31.978069 26.997745,27.140456 26.997745,27.140456 C 18.528582,18.264221 13.291696,25.230495 11.500037,31.436501 z"
     style="fill:#404040;"/>
  </a>
 </g>
</svg>

<style type='text/css'>
<![CDATA[
[data-mouse-over-selected='false'] { opacity: 0.7; }
[data-mouse-over-selected='true']  { opacity: 1.0; }
]]>
</style>
<script type="application/ecmascript"><![CDATA[
document.addEventListener('DOMContentLoaded', (event) => {
  highlightEdges();
  highlightAdjacentNodes();
});
]]></script>
</svg>
