<?xml version="1.0" encoding="UTF-8" standalone="no"?>
<!DOCTYPE svg PUBLIC "-//W3C//DTD SVG 1.1//EN"
 "http://www.w3.org/Graphics/SVG/1.1/DTD/svg11.dtd">
<!-- Generated by graphviz version 2.43.0 (0)
 -->
<!-- Title: inc/CCSDSUtils.h Pages: 1 -->
<!--zoomable 577 -->

<svg id="main" version="1.1" xmlns="http://www.w3.org/2000/svg" xmlns:xlink="http://www.w3.org/1999/xlink" xml:space="preserve" onload="init(evt)">
<style type="text/css"><![CDATA[
.node, .edge {opacity: 0.7;}
.node.selected, .edge.selected {opacity: 1;}
.edge:hover path { stroke: red; }
.edge:hover polygon { stroke: red; fill: red; }
]]></style>

<defs>
  <circle id="rim" cx="0" cy="0" r="7"/>
  <circle id="rim2" cx="0" cy="0" r="3.5"/>
  <g id="zoomPlus">
    <use xlink:href="#rim" fill="#404040"><set attributeName="fill" to="#808080" begin="zoomplus.mouseover" end="zoomplus.mouseout"/></use>
    <path d="M-4,0h8M0,-4v8" fill="none" stroke="white" stroke-width="1.5" pointer-events="none"/>
  </g>
  <g id="zoomMin">
    <use xlink:href="#rim" fill="#404040"><set attributeName="fill" to="#808080" begin="zoomminus.mouseover" end="zoomminus.mouseout"/></use>
    <path d="M-4,0h8" fill="none" stroke="white" stroke-width="1.5" pointer-events="none"/>
  </g>
  <g id="arrowUp" transform="translate(30 24)">
    <use xlink:href="#rim"/>
    <path pointer-events="none" fill="none" stroke="white" stroke-width="1.5" d="M0,-3.0v7 M-2.5,-0.5L0,-3.0L2.5,-0.5"/>
  </g>
  <g id="arrowRight" transform="rotate(90) translate(36 -43)">
    <use xlink:href="#rim"/>
    <path pointer-events="none" fill="none" stroke="white" stroke-width="1.5" d="M0,-3.0v7 M-2.5,-0.5L0,-3.0L2.5,-0.5"/>
  </g>
  <g id="arrowDown" transform="rotate(180) translate(-30 -48)">
    <use xlink:href="#rim"/>
    <path pointer-events="none" fill="none" stroke="white" stroke-width="1.5" d="M0,-3.0v7 M-2.5,-0.5L0,-3.0L2.5,-0.5"/>
  </g>
  <g id="arrowLeft" transform="rotate(270) translate(-36 17)">
    <use xlink:href="#rim"/>
    <path pointer-events="none" fill="none" stroke="white" stroke-width="1.5" d="M0,-3.0v7 M-2.5,-0.5L0,-3.0L2.5,-0.5"/>
  </g>
  <g id="resetDef">
    <use xlink:href="#rim2" fill="#404040"><set attributeName="fill" to="#808080" begin="reset.mouseover" end="reset.mouseout"/></use>
  </g>
</defs>
<script type="application/ecmascript">
var viewWidth = 835;
var viewHeight = 577;
var sectionId = 'dynsection-0';
</script>
<script type="application/ecmascript" xlink:href="svg.min.js"/>
<svg id="graph" class="graph">
<g id="viewport">
<title>inc/CCSDSUtils.h</title>
<!-- Node1 -->
<g id="Node000001" class="node">
<title>Node1</title>
<g id="a_Node000001"><a xlink:title=" ">
<polygon fill="#999999" stroke="#666666" points="268,-569 170,-569 170,-550 268,-550 268,-569"/>
<text text-anchor="middle" x="219" y="-557" font-family="Helvetica,sans-Serif" font-size="10.00">inc/CCSDSUtils.h</text>
</a>
</g>
</g>
<!-- Node2 -->
<g id="Node000002" class="node">
<title>Node2</title>
<g id="a_Node000002"><a xlink:href="CCSDSPacket_8h.html" target="_top" xlink:title=" ">
<polygon fill="white" stroke="#666666" points="264,-404 174,-404 174,-385 264,-385 264,-404"/>
<text text-anchor="middle" x="219" y="-392" font-family="Helvetica,sans-Serif" font-size="10.00">CCSDSPacket.h</text>
</a>
</g>
</g>
<!-- Node1&#45;&gt;Node2 -->
<g id="edge1_Node000001_Node000002" class="edge">
<title>Node1&#45;&gt;Node2</title>
<g id="a_edge1_Node000001_Node000002"><a xlink:title=" ">
<path fill="none" stroke="#63b8ff" d="M226.43,-549.95C240.06,-533.63 268.62,-496.31 279,-459 281.26,-450.86 282.8,-447.54 279,-440 272.31,-426.71 259.56,-416.39 247.53,-409.05"/>
<polygon fill="#63b8ff" stroke="#63b8ff" points="249.01,-405.87 238.58,-404.02 245.58,-411.97 249.01,-405.87"/>
</a>
</g>
</g>
<!-- Node5 -->
<g id="Node000005" class="node">
<title>Node5</title>
<g id="a_Node000005"><a xlink:title=" ">
<polygon fill="#e0e0e0" stroke="#999999" points="183.5,-19 136.5,-19 136.5,0 183.5,0 183.5,-19"/>
<text text-anchor="middle" x="160" y="-7" font-family="Helvetica,sans-Serif" font-size="10.00">vector</text>
</a>
</g>
</g>
<!-- Node1&#45;&gt;Node5 -->
<g id="edge44_Node000001_Node000005" class="edge">
<title>Node1&#45;&gt;Node5</title>
<g id="a_edge44_Node000001_Node000005"><a xlink:title=" ">
<path fill="none" stroke="#63b8ff" d="M169.85,-555.49C105.28,-548.57 0,-525.75 0,-450.5 0,-450.5 0,-450.5 0,-118.5 0,-57.93 79.75,-29.05 126.64,-17.31"/>
<polygon fill="#63b8ff" stroke="#63b8ff" points="127.47,-20.71 136.39,-15 125.85,-13.9 127.47,-20.71"/>
</a>
</g>
</g>
<!-- Node13 -->
<g id="Node000013" class="node">
<title>Node13</title>
<g id="a_Node000013"><a xlink:title=" ">
<polygon fill="#e0e0e0" stroke="#999999" points="811,-74 767,-74 767,-55 811,-55 811,-74"/>
<text text-anchor="middle" x="789" y="-62" font-family="Helvetica,sans-Serif" font-size="10.00">string</text>
</a>
</g>
</g>
<!-- Node1&#45;&gt;Node13 -->
<g id="edge43_Node000001_Node000013" class="edge">
<title>Node1&#45;&gt;Node13</title>
<g id="a_edge43_Node000001_Node000013"><a xlink:title=" ">
<path fill="none" stroke="#63b8ff" d="M268.24,-554.94C412.98,-543.84 827,-507.12 827,-450.5 827,-450.5 827,-450.5 827,-173.5 827,-140.02 810.55,-103.84 799.3,-83.01"/>
<polygon fill="#63b8ff" stroke="#63b8ff" points="802.24,-81.1 794.28,-74.1 796.13,-84.53 802.24,-81.1"/>
</a>
</g>
</g>
<!-- Node18 -->
<g id="Node000018" class="node">
<title>Node18</title>
<g id="a_Node000018"><a xlink:href="CCSDSManager_8h.html" target="_top" xlink:title=" ">
<polygon fill="white" stroke="#666666" points="190.5,-514 89.5,-514 89.5,-495 190.5,-495 190.5,-514"/>
<text text-anchor="middle" x="140" y="-502" font-family="Helvetica,sans-Serif" font-size="10.00">CCSDSManager.h</text>
</a>
</g>
</g>
<!-- Node1&#45;&gt;Node18 -->
<g id="edge37_Node000001_Node000018" class="edge">
<title>Node1&#45;&gt;Node18</title>
<g id="a_edge37_Node000001_Node000018"><a xlink:title=" ">
<path fill="none" stroke="#63b8ff" d="M206.31,-549.98C194.17,-541.84 175.64,-529.41 161.25,-519.76"/>
<polygon fill="#63b8ff" stroke="#63b8ff" points="163.18,-516.84 152.92,-514.17 159.28,-522.65 163.18,-516.84"/>
</a>
</g>
</g>
<!-- Node3 -->
<g id="Node000003" class="node">
<title>Node3</title>
<g id="a_Node000003"><a xlink:href="CCSDSResult_8h.html" target="_top" xlink:title=" ">
<polygon fill="white" stroke="#666666" points="430.5,-74 341.5,-74 341.5,-55 430.5,-55 430.5,-74"/>
<text text-anchor="middle" x="386" y="-62" font-family="Helvetica,sans-Serif" font-size="10.00">CCSDSResult.h</text>
</a>
</g>
</g>
<!-- Node2&#45;&gt;Node3 -->
<g id="edge2_Node000002_Node000003" class="edge">
<title>Node2&#45;&gt;Node3</title>
<g id="a_edge2_Node000002_Node000003"><a xlink:title=" ">
<path fill="none" stroke="#63b8ff" d="M221.29,-384.89C225.93,-366.69 236,-322.89 236,-285.5 236,-285.5 236,-285.5 236,-228.5 236,-169.46 280.69,-169.12 324,-129 340.66,-113.57 358.69,-94.85 370.99,-81.75"/>
<polygon fill="#63b8ff" stroke="#63b8ff" points="373.58,-84.1 377.84,-74.4 368.46,-79.33 373.58,-84.1"/>
</a>
</g>
</g>
<!-- Node2&#45;&gt;Node5 -->
<g id="edge7_Node000002_Node000005" class="edge">
<title>Node2&#45;&gt;Node5</title>
<g id="a_edge7_Node000002_Node000005"><a xlink:title=" ">
<path fill="none" stroke="#63b8ff" d="M203.78,-384.87C168.47,-363.59 84,-304.91 84,-230.5 84,-230.5 84,-230.5 84,-118.5 84,-79.47 117.61,-44.58 140.13,-25.6"/>
<polygon fill="#63b8ff" stroke="#63b8ff" points="142.56,-28.14 148.12,-19.12 138.15,-22.7 142.56,-28.14"/>
</a>
</g>
</g>
<!-- Node8 -->
<g id="Node000008" class="node">
<title>Node8</title>
<g id="a_Node000008"><a xlink:href="CCSDSHeader_8h.html" target="_top" xlink:title=" ">
<polygon fill="white" stroke="#666666" points="281.5,-129 188.5,-129 188.5,-110 281.5,-110 281.5,-129"/>
<text text-anchor="middle" x="235" y="-117" font-family="Helvetica,sans-Serif" font-size="10.00">CCSDSHeader.h</text>
</a>
</g>
</g>
<!-- Node2&#45;&gt;Node8 -->
<g id="edge8_Node000002_Node000008" class="edge">
<title>Node2&#45;&gt;Node8</title>
<g id="a_edge8_Node000002_Node000008"><a xlink:title=" ">
<path fill="none" stroke="#63b8ff" d="M214.89,-384.98C207,-368.1 189.98,-329.02 184,-294 174.03,-235.64 206.43,-169.1 224.18,-138.11"/>
<polygon fill="#63b8ff" stroke="#63b8ff" points="227.28,-139.75 229.36,-129.36 221.26,-136.18 227.28,-139.75"/>
</a>
</g>
</g>
<!-- Node9 -->
<g id="Node000009" class="node">
<title>Node9</title>
<g id="a_Node000009"><a xlink:href="CCSDSDataField_8h.html" target="_top" xlink:title=" ">
<polygon fill="white" stroke="#666666" points="383.5,-349 278.5,-349 278.5,-330 383.5,-330 383.5,-349"/>
<text text-anchor="middle" x="331" y="-337" font-family="Helvetica,sans-Serif" font-size="10.00">CCSDSDataField.h</text>
</a>
</g>
</g>
<!-- Node2&#45;&gt;Node9 -->
<g id="edge12_Node000002_Node000009" class="edge">
<title>Node2&#45;&gt;Node9</title>
<g id="a_edge12_Node000002_Node000009"><a xlink:title=" ">
<path fill="none" stroke="#63b8ff" d="M236.99,-384.98C254.93,-376.5 282.72,-363.35 303.43,-353.54"/>
<polygon fill="#63b8ff" stroke="#63b8ff" points="305.14,-356.61 312.68,-349.17 302.14,-350.28 305.14,-356.61"/>
</a>
</g>
</g>
<!-- Node4 -->
<g id="Node000004" class="node">
<title>Node4</title>
<g id="a_Node000004"><a xlink:title=" ">
<polygon fill="#e0e0e0" stroke="#999999" points="339.5,-19 288.5,-19 288.5,0 339.5,0 339.5,-19"/>
<text text-anchor="middle" x="314" y="-7" font-family="Helvetica,sans-Serif" font-size="10.00">variant</text>
</a>
</g>
</g>
<!-- Node3&#45;&gt;Node4 -->
<g id="edge3_Node000003_Node000004" class="edge">
<title>Node3&#45;&gt;Node4</title>
<g id="a_edge3_Node000003_Node000004"><a xlink:title=" ">
<path fill="none" stroke="#63b8ff" d="M374.43,-54.98C363.58,-47 347.12,-34.88 334.12,-25.31"/>
<polygon fill="#63b8ff" stroke="#63b8ff" points="335.91,-22.28 325.78,-19.17 331.76,-27.92 335.91,-22.28"/>
</a>
</g>
</g>
<!-- Node3&#45;&gt;Node5 -->
<g id="edge4_Node000003_Node000005" class="edge">
<title>Node3&#45;&gt;Node5</title>
<g id="a_edge4_Node000003_Node000005"><a xlink:title=" ">
<path fill="none" stroke="#63b8ff" d="M349.69,-54.98C306.67,-44.9 235.57,-28.22 193.72,-18.41"/>
<polygon fill="#63b8ff" stroke="#63b8ff" points="194.28,-14.94 183.74,-16.07 192.68,-21.76 194.28,-14.94"/>
</a>
</g>
</g>
<!-- Node6 -->
<g id="Node000006" class="node">
<title>Node6</title>
<g id="a_Node000006"><a xlink:title=" ">
<polygon fill="#e0e0e0" stroke="#999999" points="490,-19 440,-19 440,0 490,0 490,-19"/>
<text text-anchor="middle" x="465" y="-7" font-family="Helvetica,sans-Serif" font-size="10.00">cstdint</text>
</a>
</g>
</g>
<!-- Node3&#45;&gt;Node6 -->
<g id="edge5_Node000003_Node000006" class="edge">
<title>Node3&#45;&gt;Node6</title>
<g id="a_edge5_Node000003_Node000006"><a xlink:title=" ">
<path fill="none" stroke="#63b8ff" d="M398.69,-54.98C410.83,-46.84 429.36,-34.41 443.75,-24.76"/>
<polygon fill="#63b8ff" stroke="#63b8ff" points="445.72,-27.65 452.08,-19.17 441.82,-21.84 445.72,-27.65"/>
</a>
</g>
</g>
<!-- Node7 -->
<g id="Node000007" class="node">
<title>Node7</title>
<g id="a_Node000007"><a xlink:title=" ">
<polygon fill="#e0e0e0" stroke="#999999" points="418,-19 358,-19 358,0 418,0 418,-19"/>
<text text-anchor="middle" x="388" y="-7" font-family="Helvetica,sans-Serif" font-size="10.00">iostream</text>
</a>
</g>
</g>
<!-- Node3&#45;&gt;Node7 -->
<g id="edge6_Node000003_Node000007" class="edge">
<title>Node3&#45;&gt;Node7</title>
<g id="a_edge6_Node000003_Node000007"><a xlink:title=" ">
<path fill="none" stroke="#63b8ff" d="M386.33,-54.75C386.59,-47.8 386.97,-37.85 387.3,-29.13"/>
<polygon fill="#63b8ff" stroke="#63b8ff" points="390.8,-29.21 387.68,-19.09 383.8,-28.95 390.8,-29.21"/>
</a>
</g>
</g>
<!-- Node8&#45;&gt;Node3 -->
<g id="edge9_Node000008_Node000003" class="edge">
<title>Node8&#45;&gt;Node3</title>
<g id="a_edge9_Node000008_Node000003"><a xlink:title=" ">
<path fill="none" stroke="#63b8ff" d="M259.26,-109.98C284.32,-101.19 323.63,-87.39 351.83,-77.49"/>
<polygon fill="#63b8ff" stroke="#63b8ff" points="353.02,-80.78 361.3,-74.17 350.7,-74.18 353.02,-80.78"/>
</a>
</g>
</g>
<!-- Node8&#45;&gt;Node5 -->
<g id="edge11_Node000008_Node000005" class="edge">
<title>Node8&#45;&gt;Node5</title>
<g id="a_edge11_Node000008_Node000005"><a xlink:title=" ">
<path fill="none" stroke="#63b8ff" d="M228.86,-109.66C216.38,-91.69 187.88,-50.64 171.72,-27.38"/>
<polygon fill="#63b8ff" stroke="#63b8ff" points="174.59,-25.38 166.01,-19.16 168.84,-29.37 174.59,-25.38"/>
</a>
</g>
</g>
<!-- Node8&#45;&gt;Node6 -->
<g id="edge10_Node000008_Node000006" class="edge">
<title>Node8&#45;&gt;Node6</title>
<g id="a_edge10_Node000008_Node000006"><a xlink:title=" ">
<path fill="none" stroke="#63b8ff" d="M246.21,-109.89C263.87,-96.65 299.59,-71.14 333,-55 364.67,-39.7 402.95,-27.42 430.12,-19.67"/>
<polygon fill="#63b8ff" stroke="#63b8ff" points="431.26,-22.99 439.95,-16.93 429.37,-16.25 431.26,-22.99"/>
</a>
</g>
</g>
<!-- Node9&#45;&gt;Node3 -->
<g id="edge13_Node000009_Node000003" class="edge">
<title>Node9&#45;&gt;Node3</title>
<g id="a_edge13_Node000009_Node000003"><a xlink:title=" ">
<path fill="none" stroke="#63b8ff" d="M325.02,-329.84C307.41,-303.2 259.11,-220.9 293,-165 310.93,-135.42 339.05,-154.88 362,-129 373.23,-116.34 379.41,-97.9 382.68,-84.15"/>
<polygon fill="#63b8ff" stroke="#63b8ff" points="386.11,-84.83 384.71,-74.33 379.26,-83.41 386.11,-84.83"/>
</a>
</g>
</g>
<!-- Node9&#45;&gt;Node5 -->
<g id="edge14_Node000009_Node000005" class="edge">
<title>Node9&#45;&gt;Node5</title>
<g id="a_edge14_Node000009_Node000005"><a xlink:title=" ">
<path fill="none" stroke="#63b8ff" d="M321.04,-329.65C291.5,-302.78 203.88,-218.47 163,-129 149.18,-98.76 149.05,-88.12 152,-55 152.76,-46.5 154.32,-37.19 155.86,-29.29"/>
<polygon fill="#63b8ff" stroke="#63b8ff" points="159.32,-29.81 157.94,-19.3 152.47,-28.38 159.32,-29.81"/>
</a>
</g>
</g>
<!-- Node10 -->
<g id="Node000010" class="node">
<title>Node10</title>
<g id="a_Node000010"><a xlink:title=" ">
<polygon fill="#e0e0e0" stroke="#999999" points="360,-184 302,-184 302,-165 360,-165 360,-184"/>
<text text-anchor="middle" x="331" y="-172" font-family="Helvetica,sans-Serif" font-size="10.00">memory</text>
</a>
</g>
</g>
<!-- Node9&#45;&gt;Node10 -->
<g id="edge15_Node000009_Node000010" class="edge">
<title>Node9&#45;&gt;Node10</title>
<g id="a_edge15_Node000009_Node000010"><a xlink:title=" ">
<path fill="none" stroke="#63b8ff" d="M331,-329.74C331,-304.31 331,-230.08 331,-194.69"/>
<polygon fill="#63b8ff" stroke="#63b8ff" points="334.5,-194.31 331,-184.31 327.5,-194.31 334.5,-194.31"/>
</a>
</g>
</g>
<!-- Node11 -->
<g id="Node000011" class="node">
<title>Node11</title>
<g id="a_Node000011"><a xlink:href="CCSDSSecondaryHeaderAbstract_8h.html" target="_top" xlink:title=" ">
<polygon fill="white" stroke="#666666" points="563.5,-184 378.5,-184 378.5,-165 563.5,-165 563.5,-184"/>
<text text-anchor="middle" x="471" y="-172" font-family="Helvetica,sans-Serif" font-size="10.00">CCSDSSecondaryHeaderAbstract.h</text>
</a>
</g>
</g>
<!-- Node9&#45;&gt;Node11 -->
<g id="edge16_Node000009_Node000011" class="edge">
<title>Node9&#45;&gt;Node11</title>
<g id="a_edge16_Node000009_Node000011"><a xlink:title=" ">
<path fill="none" stroke="#63b8ff" d="M338.53,-329.74C360.94,-303.65 427.48,-226.17 456.83,-192"/>
<polygon fill="#63b8ff" stroke="#63b8ff" points="459.58,-194.17 463.44,-184.31 454.27,-189.61 459.58,-194.17"/>
</a>
</g>
</g>
<!-- Node15 -->
<g id="Node000015" class="node">
<title>Node15</title>
<g id="a_Node000015"><a xlink:href="CCSDSSecondaryHeaderFactory_8h.html" target="_top" xlink:title=" ">
<polygon fill="white" stroke="#666666" points="696.5,-239 517.5,-239 517.5,-220 696.5,-220 696.5,-239"/>
<text text-anchor="middle" x="607" y="-227" font-family="Helvetica,sans-Serif" font-size="10.00">CCSDSSecondaryHeaderFactory.h</text>
</a>
</g>
</g>
<!-- Node9&#45;&gt;Node15 -->
<g id="edge26_Node000009_Node000015" class="edge">
<title>Node9&#45;&gt;Node15</title>
<g id="a_edge26_Node000009_Node000015"><a xlink:title=" ">
<path fill="none" stroke="#63b8ff" d="M353.12,-329.84C401.99,-310.72 519.29,-264.82 575.69,-242.75"/>
<polygon fill="#63b8ff" stroke="#63b8ff" points="577.12,-245.95 585.16,-239.05 574.57,-239.43 577.12,-245.95"/>
</a>
</g>
</g>
<!-- Node17 -->
<g id="Node000017" class="node">
<title>Node17</title>
<g id="a_Node000017"><a xlink:href="PusServices_8h.html" target="_top" xlink:title=" ">
<polygon fill="white" stroke="#666666" points="649,-294 565,-294 565,-275 649,-275 649,-294"/>
<text text-anchor="middle" x="607" y="-282" font-family="Helvetica,sans-Serif" font-size="10.00">PusServices.h</text>
</a>
</g>
</g>
<!-- Node9&#45;&gt;Node17 -->
<g id="edge32_Node000009_Node000017" class="edge">
<title>Node9&#45;&gt;Node17</title>
<g id="a_edge32_Node000009_Node000017"><a xlink:title=" ">
<path fill="none" stroke="#63b8ff" d="M375.34,-329.98C424.2,-320.6 502.71,-305.53 554.58,-295.57"/>
<polygon fill="#63b8ff" stroke="#63b8ff" points="555.42,-298.97 564.58,-293.65 554.1,-292.09 555.42,-298.97"/>
</a>
</g>
</g>
<!-- Node11&#45;&gt;Node3 -->
<g id="edge17_Node000011_Node000003" class="edge">
<title>Node11&#45;&gt;Node3</title>
<g id="a_edge17_Node000011_Node000003"><a xlink:title=" ">
<path fill="none" stroke="#63b8ff" d="M464.04,-164.66C449.84,-146.61 417.31,-105.28 399.05,-82.08"/>
<polygon fill="#63b8ff" stroke="#63b8ff" points="401.75,-79.85 392.81,-74.16 396.25,-84.18 401.75,-79.85"/>
</a>
</g>
</g>
<!-- Node11&#45;&gt;Node5 -->
<g id="edge18_Node000011_Node000005" class="edge">
<title>Node11&#45;&gt;Node5</title>
<g id="a_edge18_Node000011_Node000005"><a xlink:title=" ">
<path fill="none" stroke="#63b8ff" d="M380.51,-165C300.5,-156.62 194.29,-143.07 180,-129 153.45,-102.86 154.21,-55.53 157.1,-29.29"/>
<polygon fill="#63b8ff" stroke="#63b8ff" points="160.59,-29.53 158.44,-19.16 153.65,-28.62 160.59,-29.53"/>
</a>
</g>
</g>
<!-- Node11&#45;&gt;Node6 -->
<g id="edge19_Node000011_Node000006" class="edge">
<title>Node11&#45;&gt;Node6</title>
<g id="a_edge19_Node000011_Node000006"><a xlink:title=" ">
<path fill="none" stroke="#63b8ff" d="M470.68,-164.74C469.74,-139.31 467.01,-65.08 465.71,-29.69"/>
<polygon fill="#63b8ff" stroke="#63b8ff" points="469.19,-29.17 465.32,-19.31 462.19,-29.43 469.19,-29.17"/>
</a>
</g>
</g>
<!-- Node12 -->
<g id="Node000012" class="node">
<title>Node12</title>
<g id="a_Node000012"><a xlink:href="CCSDSConfig_8h.html" target="_top" xlink:title=" ">
<polygon fill="white" stroke="#666666" points="760.5,-129 671.5,-129 671.5,-110 760.5,-110 760.5,-129"/>
<text text-anchor="middle" x="716" y="-117" font-family="Helvetica,sans-Serif" font-size="10.00">CCSDSConfig.h</text>
</a>
</g>
</g>
<!-- Node11&#45;&gt;Node12 -->
<g id="edge20_Node000011_Node000012" class="edge">
<title>Node11&#45;&gt;Node12</title>
<g id="a_edge20_Node000011_Node000012"><a xlink:title=" ">
<path fill="none" stroke="#63b8ff" d="M510.36,-164.98C552.74,-155.82 620.26,-141.21 666.28,-131.26"/>
<polygon fill="#63b8ff" stroke="#63b8ff" points="667.29,-134.62 676.33,-129.08 665.81,-127.78 667.29,-134.62"/>
</a>
</g>
</g>
<!-- Node12&#45;&gt;Node3 -->
<g id="edge24_Node000012_Node000003" class="edge">
<title>Node12&#45;&gt;Node3</title>
<g id="a_edge24_Node000012_Node000003"><a xlink:title=" ">
<path fill="none" stroke="#63b8ff" d="M671.49,-111.35C611.63,-101.74 505.22,-84.65 440.59,-74.27"/>
<polygon fill="#63b8ff" stroke="#63b8ff" points="441.02,-70.79 430.59,-72.66 439.91,-77.7 441.02,-70.79"/>
</a>
</g>
</g>
<!-- Node12&#45;&gt;Node5 -->
<g id="edge23_Node000012_Node000005" class="edge">
<title>Node12&#45;&gt;Node5</title>
<g id="a_edge23_Node000012_Node000005"><a xlink:title=" ">
<path fill="none" stroke="#63b8ff" d="M711.2,-109.62C702.9,-95.27 684.39,-67.34 660,-55 649.56,-49.72 304.48,-21.96 193.8,-13.17"/>
<polygon fill="#63b8ff" stroke="#63b8ff" points="193.79,-9.66 183.55,-12.36 193.24,-16.64 193.79,-9.66"/>
</a>
</g>
</g>
<!-- Node12&#45;&gt;Node6 -->
<g id="edge22_Node000012_Node000006" class="edge">
<title>Node12&#45;&gt;Node6</title>
<g id="a_edge22_Node000012_Node000006"><a xlink:title=" ">
<path fill="none" stroke="#63b8ff" d="M715.45,-109.59C714.1,-95.7 709.39,-69.03 693,-55 664.51,-30.61 557.05,-18.17 500.42,-13.19"/>
<polygon fill="#63b8ff" stroke="#63b8ff" points="500.4,-9.68 490.14,-12.32 499.81,-16.65 500.4,-9.68"/>
</a>
</g>
</g>
<!-- Node12&#45;&gt;Node13 -->
<g id="edge21_Node000012_Node000013" class="edge">
<title>Node12&#45;&gt;Node13</title>
<g id="a_edge21_Node000012_Node000013"><a xlink:title=" ">
<path fill="none" stroke="#63b8ff" d="M727.73,-109.98C738.73,-102 755.42,-89.88 768.6,-80.31"/>
<polygon fill="#63b8ff" stroke="#63b8ff" points="771.02,-82.88 777.06,-74.17 766.91,-77.21 771.02,-82.88"/>
</a>
</g>
</g>
<!-- Node14 -->
<g id="Node000014" class="node">
<title>Node14</title>
<g id="a_Node000014"><a xlink:title=" ">
<polygon fill="#e0e0e0" stroke="#999999" points="650.5,-74 557.5,-74 557.5,-55 650.5,-55 650.5,-74"/>
<text text-anchor="middle" x="604" y="-62" font-family="Helvetica,sans-Serif" font-size="10.00">unordered_map</text>
</a>
</g>
</g>
<!-- Node12&#45;&gt;Node14 -->
<g id="edge25_Node000012_Node000014" class="edge">
<title>Node12&#45;&gt;Node14</title>
<g id="a_edge25_Node000012_Node000014"><a xlink:title=" ">
<path fill="none" stroke="#63b8ff" d="M698.01,-109.98C680.07,-101.5 652.28,-88.35 631.57,-78.54"/>
<polygon fill="#63b8ff" stroke="#63b8ff" points="632.86,-75.28 622.32,-74.17 629.86,-81.61 632.86,-75.28"/>
</a>
</g>
</g>
<!-- Node15&#45;&gt;Node10 -->
<g id="edge27_Node000015_Node000010" class="edge">
<title>Node15&#45;&gt;Node10</title>
<g id="a_edge27_Node000015_Node000010"><a xlink:title=" ">
<path fill="none" stroke="#63b8ff" d="M559.26,-219.96C513.49,-211.67 442.2,-198.52 370.49,-184.05"/>
<polygon fill="#63b8ff" stroke="#63b8ff" points="370.86,-180.55 360.37,-182 369.47,-187.41 370.86,-180.55"/>
</a>
</g>
</g>
<!-- Node15&#45;&gt;Node11 -->
<g id="edge31_Node000015_Node000011" class="edge">
<title>Node15&#45;&gt;Node11</title>
<g id="a_edge31_Node000015_Node000011"><a xlink:title=" ">
<path fill="none" stroke="#63b8ff" d="M585.15,-219.98C562.88,-211.3 528.1,-197.75 502.78,-187.88"/>
<polygon fill="#63b8ff" stroke="#63b8ff" points="503.84,-184.54 493.25,-184.17 501.29,-191.06 503.84,-184.54"/>
</a>
</g>
</g>
<!-- Node15&#45;&gt;Node13 -->
<g id="edge30_Node000015_Node000013" class="edge">
<title>Node15&#45;&gt;Node13</title>
<g id="a_edge30_Node000015_Node000013"><a xlink:title=" ">
<path fill="none" stroke="#63b8ff" d="M631.93,-219.9C667.78,-206.25 733.56,-176.26 770,-129 779.99,-116.04 784.74,-97.89 787,-84.31"/>
<polygon fill="#63b8ff" stroke="#63b8ff" points="790.49,-84.57 788.36,-74.19 783.56,-83.64 790.49,-84.57"/>
</a>
</g>
</g>
<!-- Node15&#45;&gt;Node14 -->
<g id="edge28_Node000015_Node000014" class="edge">
<title>Node15&#45;&gt;Node14</title>
<g id="a_edge28_Node000015_Node000014"><a xlink:title=" ">
<path fill="none" stroke="#63b8ff" d="M622.13,-219.73C633.81,-211.99 649.12,-199.55 656,-184 659.42,-176.28 658.01,-173.2 656,-165 648.37,-133.91 629.12,-101.75 616.31,-82.7"/>
<polygon fill="#63b8ff" stroke="#63b8ff" points="619.02,-80.47 610.45,-74.23 613.26,-84.45 619.02,-80.47"/>
</a>
</g>
</g>
<!-- Node16 -->
<g id="Node000016" class="node">
<title>Node16</title>
<g id="a_Node000016"><a xlink:title=" ">
<polygon fill="#e0e0e0" stroke="#999999" points="646.5,-184 581.5,-184 581.5,-165 646.5,-165 646.5,-184"/>
<text text-anchor="middle" x="614" y="-172" font-family="Helvetica,sans-Serif" font-size="10.00">functional</text>
</a>
</g>
</g>
<!-- Node15&#45;&gt;Node16 -->
<g id="edge29_Node000015_Node000016" class="edge">
<title>Node15&#45;&gt;Node16</title>
<g id="a_edge29_Node000015_Node000016"><a xlink:title=" ">
<path fill="none" stroke="#63b8ff" d="M608.16,-219.75C609.07,-212.8 610.39,-202.85 611.54,-194.13"/>
<polygon fill="#63b8ff" stroke="#63b8ff" points="615.03,-194.46 612.87,-184.09 608.09,-193.54 615.03,-194.46"/>
</a>
</g>
</g>
<!-- Node17&#45;&gt;Node3 -->
<g id="edge35_Node000017_Node000003" class="edge">
<title>Node17&#45;&gt;Node3</title>
<g id="a_edge35_Node000017_Node000003"><a xlink:title=" ">
<path fill="none" stroke="#63b8ff" d="M647.97,-275C679.95,-266.02 717.23,-249.04 706,-220 665.52,-115.29 520.91,-81.38 440.65,-70.52"/>
<polygon fill="#63b8ff" stroke="#63b8ff" points="441.08,-67.05 430.72,-69.25 440.19,-73.99 441.08,-67.05"/>
</a>
</g>
</g>
<!-- Node17&#45;&gt;Node11 -->
<g id="edge33_Node000017_Node000011" class="edge">
<title>Node17&#45;&gt;Node11</title>
<g id="a_edge33_Node000017_Node000011"><a xlink:title=" ">
<path fill="none" stroke="#63b8ff" d="M576.44,-274.95C555.6,-267.93 528.37,-256.3 509,-239 494.95,-226.45 484.53,-207.45 478.19,-193.5"/>
<polygon fill="#63b8ff" stroke="#63b8ff" points="481.28,-191.83 474.14,-184.01 474.84,-194.58 481.28,-191.83"/>
</a>
</g>
</g>
<!-- Node17&#45;&gt;Node12 -->
<g id="edge36_Node000017_Node000012" class="edge">
<title>Node17&#45;&gt;Node12</title>
<g id="a_edge36_Node000017_Node000012"><a xlink:title=" ">
<path fill="none" stroke="#63b8ff" d="M649.24,-277.41C691.13,-270.41 751.02,-257.46 765,-239 784.85,-212.78 778.31,-195.07 765,-165 759.68,-152.97 749.32,-142.8 739.49,-135.24"/>
<polygon fill="#63b8ff" stroke="#63b8ff" points="741.3,-132.23 731.13,-129.27 737.24,-137.93 741.3,-132.23"/>
</a>
</g>
</g>
<!-- Node17&#45;&gt;Node15 -->
<g id="edge34_Node000017_Node000015" class="edge">
<title>Node17&#45;&gt;Node15</title>
<g id="a_edge34_Node000017_Node000015"><a xlink:title=" ">
<path fill="none" stroke="#63b8ff" d="M607,-274.75C607,-267.8 607,-257.85 607,-249.13"/>
<polygon fill="#63b8ff" stroke="#63b8ff" points="610.5,-249.09 607,-239.09 603.5,-249.09 610.5,-249.09"/>
</a>
</g>
</g>
<!-- Node18&#45;&gt;Node2 -->
<g id="edge39_Node000018_Node000002" class="edge">
<title>Node18&#45;&gt;Node2</title>
<g id="a_edge39_Node000018_Node000002"><a xlink:title=" ">
<path fill="none" stroke="#63b8ff" d="M140.83,-494.95C142.44,-482.01 146.97,-457.15 159,-440 167.84,-427.39 181.39,-416.91 193.38,-409.29"/>
<polygon fill="#63b8ff" stroke="#63b8ff" points="195.36,-412.18 202.13,-404.03 191.76,-406.18 195.36,-412.18"/>
</a>
</g>
</g>
<!-- Node18&#45;&gt;Node3 -->
<g id="edge40_Node000018_Node000003" class="edge">
<title>Node18&#45;&gt;Node3</title>
<g id="a_edge40_Node000018_Node000003"><a xlink:title=" ">
<path fill="none" stroke="#63b8ff" d="M140.44,-494.8C142.95,-453.23 158.74,-272.36 247,-165 255.95,-154.12 328.11,-104.63 364.78,-79.8"/>
<polygon fill="#63b8ff" stroke="#63b8ff" points="366.95,-82.55 373.27,-74.05 363.03,-76.75 366.95,-82.55"/>
</a>
</g>
</g>
<!-- Node19 -->
<g id="Node000019" class="node">
<title>Node19</title>
<g id="a_Node000019"><a xlink:title=" ">
<polygon fill="#e0e0e0" stroke="#999999" points="73.5,-459 28.5,-459 28.5,-440 73.5,-440 73.5,-459"/>
<text text-anchor="middle" x="51" y="-447" font-family="Helvetica,sans-Serif" font-size="10.00">utility</text>
</a>
</g>
</g>
<!-- Node18&#45;&gt;Node19 -->
<g id="edge38_Node000018_Node000019" class="edge">
<title>Node18&#45;&gt;Node19</title>
<g id="a_edge38_Node000018_Node000019"><a xlink:title=" ">
<path fill="none" stroke="#63b8ff" d="M125.7,-494.98C111.9,-486.77 90.76,-474.18 74.49,-464.49"/>
<polygon fill="#63b8ff" stroke="#63b8ff" points="75.94,-461.28 65.56,-459.17 72.36,-467.29 75.94,-461.28"/>
</a>
</g>
</g>
<!-- Node20 -->
<g id="Node000020" class="node">
<title>Node20</title>
<g id="a_Node000020"><a xlink:href="CCSDSValidator_8h.html" target="_top" xlink:title="Defines the Validator class for CCSDS packet validation.">
<polygon fill="white" stroke="#666666" points="269.5,-459 168.5,-459 168.5,-440 269.5,-440 269.5,-459"/>
<text text-anchor="middle" x="219" y="-447" font-family="Helvetica,sans-Serif" font-size="10.00">CCSDSValidator.h</text>
</a>
</g>
</g>
<!-- Node18&#45;&gt;Node20 -->
<g id="edge41_Node000018_Node000020" class="edge">
<title>Node18&#45;&gt;Node20</title>
<g id="a_edge41_Node000018_Node000020"><a xlink:title=" ">
<path fill="none" stroke="#63b8ff" d="M152.69,-494.98C164.83,-486.84 183.36,-474.41 197.75,-464.76"/>
<polygon fill="#63b8ff" stroke="#63b8ff" points="199.72,-467.65 206.08,-459.17 195.82,-461.84 199.72,-467.65"/>
</a>
</g>
</g>
<!-- Node20&#45;&gt;Node2 -->
<g id="edge42_Node000020_Node000002" class="edge">
<title>Node20&#45;&gt;Node2</title>
<g id="a_edge42_Node000020_Node000002"><a xlink:title=" ">
<path fill="none" stroke="#63b8ff" d="M219,-439.75C219,-432.8 219,-422.85 219,-414.13"/>
<polygon fill="#63b8ff" stroke="#63b8ff" points="222.5,-414.09 219,-404.09 215.5,-414.09 222.5,-414.09"/>
</a>
</g>
</g>
</g>
</svg>

<g id="navigator" transform="translate(0 0)" fill="#404254">
  <rect fill="#f2f5e9" fill-opacity="0.5" stroke="#606060" stroke-width=".5" x="0" y="0" width="60" height="60"/>
  <use id="zoomplus" xlink:href="#zoomPlus" x="17" y="9" onmousedown="handleZoom(evt,'in')"/>
  <use id="zoomminus" xlink:href="#zoomMin" x="42" y="9" onmousedown="handleZoom(evt,'out')"/>
  <use id="reset" xlink:href="#resetDef" x="30" y="36" onmousedown="handleReset()"/>
   <use id="arrowup" xlink:href="#arrowUp" x="0" y="0" onmousedown="handlePan(0,-1)"/>
  <use id="arrowright" xlink:href="#arrowRight" x="0" y="0" onmousedown="handlePan(1,0)"/>
  <use id="arrowdown" xlink:href="#arrowDown" x="0" y="0" onmousedown="handlePan(0,1)"/>
  <use id="arrowleft" xlink:href="#arrowLeft" x="0" y="0" onmousedown="handlePan(-1,0)"/>
</g>
<svg viewBox="0 0 15 15" width="100%" height="30px" preserveAspectRatio="xMaxYMin meet">
 <g id="arrow_out" transform="scale(0.3 0.3)">
  <a xlink:href="CCSDSUtils_8h__incl_org.svg" target="_base">
   <rect id="button" ry="5" rx="5" y="6" x="6" height="38" width="38"
        fill="#f2f5e9" fill-opacity="0.5" stroke="#606060" stroke-width="1.0"/>
   <path id="arrow"
     d="M 11.500037,31.436501 C 11.940474,20.09759 22.043105,11.32322 32.158766,21.979434 L 37.068811,17.246167 C 37.068811,17.246167 37.088388,32 37.088388,32 L 22.160133,31.978069 C 22.160133,31.978069 26.997745,27.140456 26.997745,27.140456 C 18.528582,18.264221 13.291696,25.230495 11.500037,31.436501 z"
     style="fill:#404040;"/>
  </a>
 </g>
</svg>

<style type='text/css'>
<![CDATA[
[data-mouse-over-selected='false'] { opacity: 0.7; }
[data-mouse-over-selected='true']  { opacity: 1.0; }
]]>
</style>
<script type="application/ecmascript"><![CDATA[
document.addEventListener('DOMContentLoaded', (event) => {
  highlightEdges();
  highlightAdjacentNodes();
});
]]></script>
</svg>
