<?xml version="1.0" encoding="UTF-8" standalone="no"?>
<!DOCTYPE svg PUBLIC "-//W3C//DTD SVG 1.1//EN"
 "http://www.w3.org/Graphics/SVG/1.1/DTD/svg11.dtd">
<!-- Generated by graphviz version 2.43.0 (0)
 -->
<!-- Title: src/CCSDSPacket.cpp Pages: 1 -->
<!--zoomable 632 -->

<svg id="main" version="1.1" xmlns="http://www.w3.org/2000/svg" xmlns:xlink="http://www.w3.org/1999/xlink" xml:space="preserve" onload="init(evt)">
<style type="text/css"><![CDATA[
.node, .edge {opacity: 0.7;}
.node.selected, .edge.selected {opacity: 1;}
.edge:hover path { stroke: red; }
.edge:hover polygon { stroke: red; fill: red; }
]]></style>

<defs>
  <circle id="rim" cx="0" cy="0" r="7"/>
  <circle id="rim2" cx="0" cy="0" r="3.5"/>
  <g id="zoomPlus">
    <use xlink:href="#rim" fill="#404040"><set attributeName="fill" to="#808080" begin="zoomplus.mouseover" end="zoomplus.mouseout"/></use>
    <path d="M-4,0h8M0,-4v8" fill="none" stroke="white" stroke-width="1.5" pointer-events="none"/>
  </g>
  <g id="zoomMin">
    <use xlink:href="#rim" fill="#404040"><set attributeName="fill" to="#808080" begin="zoomminus.mouseover" end="zoomminus.mouseout"/></use>
    <path d="M-4,0h8" fill="none" stroke="white" stroke-width="1.5" pointer-events="none"/>
  </g>
  <g id="arrowUp" transform="translate(30 24)">
    <use xlink:href="#rim"/>
    <path pointer-events="none" fill="none" stroke="white" stroke-width="1.5" d="M0,-3.0v7 M-2.5,-0.5L0,-3.0L2.5,-0.5"/>
  </g>
  <g id="arrowRight" transform="rotate(90) translate(36 -43)">
    <use xlink:href="#rim"/>
    <path pointer-events="none" fill="none" stroke="white" stroke-width="1.5" d="M0,-3.0v7 M-2.5,-0.5L0,-3.0L2.5,-0.5"/>
  </g>
  <g id="arrowDown" transform="rotate(180) translate(-30 -48)">
    <use xlink:href="#rim"/>
    <path pointer-events="none" fill="none" stroke="white" stroke-width="1.5" d="M0,-3.0v7 M-2.5,-0.5L0,-3.0L2.5,-0.5"/>
  </g>
  <g id="arrowLeft" transform="rotate(270) translate(-36 17)">
    <use xlink:href="#rim"/>
    <path pointer-events="none" fill="none" stroke="white" stroke-width="1.5" d="M0,-3.0v7 M-2.5,-0.5L0,-3.0L2.5,-0.5"/>
  </g>
  <g id="resetDef">
    <use xlink:href="#rim2" fill="#404040"><set attributeName="fill" to="#808080" begin="reset.mouseover" end="reset.mouseout"/></use>
  </g>
</defs>
<script type="application/ecmascript">
var viewWidth = 992;
var viewHeight = 632;
var sectionId = 'dynsection-0';
</script>
<script type="application/ecmascript" xlink:href="svg.min.js"/>
<svg id="graph" class="graph">
<g id="viewport">
<title>src/CCSDSPacket.cpp</title>
<!-- Node1 -->
<g id="Node000001" class="node">
<title>Node1</title>
<g id="a_Node000001"><a xlink:title=" ">
<polygon fill="#999999" stroke="#666666" points="875.5,-624 756.5,-624 756.5,-605 875.5,-605 875.5,-624"/>
<text text-anchor="middle" x="816" y="-612" font-family="Helvetica,sans-Serif" font-size="10.00">src/CCSDSPacket.cpp</text>
</a>
</g>
</g>
<!-- Node2 -->
<g id="Node000002" class="node">
<title>Node2</title>
<g id="a_Node000002"><a xlink:href="CCSDSPacket_8h.html" target="_top" xlink:title=" ">
<polygon fill="white" stroke="#666666" points="271,-404 181,-404 181,-385 271,-385 271,-404"/>
<text text-anchor="middle" x="226" y="-392" font-family="Helvetica,sans-Serif" font-size="10.00">CCSDSPacket.h</text>
</a>
</g>
</g>
<!-- Node1&#45;&gt;Node2 -->
<g id="edge1_Node000001_Node000002" class="edge">
<title>Node1&#45;&gt;Node2</title>
<g id="a_edge1_Node000001_Node000002"><a xlink:title=" ">
<path fill="none" stroke="#63b8ff" d="M792.87,-604.95C701.54,-571.21 365.77,-447.15 258.9,-407.66"/>
<polygon fill="#63b8ff" stroke="#63b8ff" points="259.88,-404.29 249.29,-404.1 257.46,-410.85 259.88,-404.29"/>
</a>
</g>
</g>
<!-- Node10 -->
<g id="Node000010" class="node">
<title>Node10</title>
<g id="a_Node000010"><a xlink:href="CCSDSDataField_8h.html" target="_top" xlink:title=" ">
<polygon fill="white" stroke="#666666" points="585.5,-349 480.5,-349 480.5,-330 585.5,-330 585.5,-349"/>
<text text-anchor="middle" x="533" y="-337" font-family="Helvetica,sans-Serif" font-size="10.00">CCSDSDataField.h</text>
</a>
</g>
</g>
<!-- Node1&#45;&gt;Node10 -->
<g id="edge37_Node000001_Node000010" class="edge">
<title>Node1&#45;&gt;Node10</title>
<g id="a_edge37_Node000001_Node000010"><a xlink:title=" ">
<path fill="none" stroke="#63b8ff" d="M816,-604.82C816,-586.48 816,-542.44 816,-505.5 816,-505.5 816,-505.5 816,-448.5 816,-401.19 676.19,-367.03 593.11,-350.91"/>
<polygon fill="#63b8ff" stroke="#63b8ff" points="593.75,-347.47 583.27,-349.03 592.44,-354.34 593.75,-347.47"/>
</a>
</g>
</g>
<!-- Node13 -->
<g id="Node000013" class="node">
<title>Node13</title>
<g id="a_Node000013"><a xlink:href="CCSDSConfig_8h.html" target="_top" xlink:title=" ">
<polygon fill="white" stroke="#666666" points="571.5,-129 482.5,-129 482.5,-110 571.5,-110 571.5,-129"/>
<text text-anchor="middle" x="527" y="-117" font-family="Helvetica,sans-Serif" font-size="10.00">CCSDSConfig.h</text>
</a>
</g>
</g>
<!-- Node1&#45;&gt;Node13 -->
<g id="edge48_Node000001_Node000013" class="edge">
<title>Node1&#45;&gt;Node13</title>
<g id="a_edge48_Node000001_Node000013"><a xlink:title=" ">
<path fill="none" stroke="#63b8ff" d="M827.88,-604.88C849.25,-588.26 892,-549.52 892,-505.5 892,-505.5 892,-505.5 892,-228.5 892,-199.04 895.46,-184.07 873,-165 830.25,-128.7 668.23,-121.63 581.92,-120.5"/>
<polygon fill="#63b8ff" stroke="#63b8ff" points="581.82,-117 571.78,-120.39 581.74,-124 581.82,-117"/>
</a>
</g>
</g>
<!-- Node18 -->
<g id="Node000018" class="node">
<title>Node18</title>
<g id="a_Node000018"><a xlink:href="CCSDSUtils_8h.html" target="_top" xlink:title=" ">
<polygon fill="white" stroke="#666666" points="304.5,-569 223.5,-569 223.5,-550 304.5,-550 304.5,-569"/>
<text text-anchor="middle" x="264" y="-557" font-family="Helvetica,sans-Serif" font-size="10.00">CCSDSUtils.h</text>
</a>
</g>
</g>
<!-- Node1&#45;&gt;Node18 -->
<g id="edge38_Node000001_Node000018" class="edge">
<title>Node1&#45;&gt;Node18</title>
<g id="a_edge38_Node000001_Node000018"><a xlink:title=" ">
<path fill="none" stroke="#63b8ff" d="M756.4,-607.78C647.25,-597.3 417.07,-575.2 314.81,-565.38"/>
<polygon fill="#63b8ff" stroke="#63b8ff" points="315.02,-561.88 304.73,-564.41 314.35,-568.85 315.02,-561.88"/>
</a>
</g>
</g>
<!-- Node22 -->
<g id="Node000022" class="node">
<title>Node22</title>
<g id="a_Node000022"><a xlink:title=" ">
<polygon fill="#e0e0e0" stroke="#999999" points="984,-569 920,-569 920,-550 984,-550 984,-569"/>
<text text-anchor="middle" x="952" y="-557" font-family="Helvetica,sans-Serif" font-size="10.00">algorithm</text>
</a>
</g>
</g>
<!-- Node1&#45;&gt;Node22 -->
<g id="edge49_Node000001_Node000022" class="edge">
<title>Node1&#45;&gt;Node22</title>
<g id="a_edge49_Node000001_Node000022"><a xlink:title=" ">
<path fill="none" stroke="#63b8ff" d="M837.85,-604.98C860.12,-596.3 894.9,-582.75 920.22,-572.88"/>
<polygon fill="#63b8ff" stroke="#63b8ff" points="921.71,-576.06 929.75,-569.17 919.16,-569.54 921.71,-576.06"/>
</a>
</g>
</g>
<!-- Node3 -->
<g id="Node000003" class="node">
<title>Node3</title>
<g id="a_Node000003"><a xlink:href="CCSDSResult_8h.html" target="_top" xlink:title=" ">
<polygon fill="white" stroke="#666666" points="385.5,-74 296.5,-74 296.5,-55 385.5,-55 385.5,-74"/>
<text text-anchor="middle" x="341" y="-62" font-family="Helvetica,sans-Serif" font-size="10.00">CCSDSResult.h</text>
</a>
</g>
</g>
<!-- Node2&#45;&gt;Node3 -->
<g id="edge2_Node000002_Node000003" class="edge">
<title>Node2&#45;&gt;Node3</title>
<g id="a_edge2_Node000002_Node000003"><a xlink:title=" ">
<path fill="none" stroke="#63b8ff" d="M225.93,-384.89C226,-348.62 230.13,-205.71 288,-110 295.29,-97.95 307.01,-87.61 317.58,-79.94"/>
<polygon fill="#63b8ff" stroke="#63b8ff" points="319.78,-82.67 326.06,-74.14 315.83,-76.89 319.78,-82.67"/>
</a>
</g>
</g>
<!-- Node6 -->
<g id="Node000006" class="node">
<title>Node6</title>
<g id="a_Node000006"><a xlink:title=" ">
<polygon fill="#e0e0e0" stroke="#999999" points="174.5,-19 127.5,-19 127.5,0 174.5,0 174.5,-19"/>
<text text-anchor="middle" x="151" y="-7" font-family="Helvetica,sans-Serif" font-size="10.00">vector</text>
</a>
</g>
</g>
<!-- Node2&#45;&gt;Node6 -->
<g id="edge8_Node000002_Node000006" class="edge">
<title>Node2&#45;&gt;Node6</title>
<g id="a_edge8_Node000002_Node000006"><a xlink:title=" ">
<path fill="none" stroke="#63b8ff" d="M180.97,-387.6C125.35,-377.5 38,-351.18 38,-285.5 38,-285.5 38,-285.5 38,-118.5 38,-72.68 87.15,-40.32 120.62,-23.6"/>
<polygon fill="#63b8ff" stroke="#63b8ff" points="122.5,-26.58 130.01,-19.11 119.48,-20.27 122.5,-26.58"/>
</a>
</g>
</g>
<!-- Node9 -->
<g id="Node000009" class="node">
<title>Node9</title>
<g id="a_Node000009"><a xlink:href="CCSDSHeader_8h.html" target="_top" xlink:title=" ">
<polygon fill="white" stroke="#666666" points="197.5,-129 104.5,-129 104.5,-110 197.5,-110 197.5,-129"/>
<text text-anchor="middle" x="151" y="-117" font-family="Helvetica,sans-Serif" font-size="10.00">CCSDSHeader.h</text>
</a>
</g>
</g>
<!-- Node2&#45;&gt;Node9 -->
<g id="edge9_Node000002_Node000009" class="edge">
<title>Node2&#45;&gt;Node9</title>
<g id="a_edge9_Node000002_Node000009"><a xlink:title=" ">
<path fill="none" stroke="#63b8ff" d="M214.59,-384.77C194.06,-367.98 153,-328.95 153,-285.5 153,-285.5 153,-285.5 153,-228.5 153,-197.18 152.15,-160.77 151.56,-139.23"/>
<polygon fill="#63b8ff" stroke="#63b8ff" points="155.05,-139.07 151.27,-129.18 148.06,-139.27 155.05,-139.07"/>
</a>
</g>
</g>
<!-- Node2&#45;&gt;Node10 -->
<g id="edge13_Node000002_Node000010" class="edge">
<title>Node2&#45;&gt;Node10</title>
<g id="a_edge13_Node000002_Node000010"><a xlink:title=" ">
<path fill="none" stroke="#63b8ff" d="M271.3,-385.68C324.99,-376.41 414.6,-360.94 473.75,-350.73"/>
<polygon fill="#63b8ff" stroke="#63b8ff" points="474.44,-354.16 483.7,-349.01 473.25,-347.26 474.44,-354.16"/>
</a>
</g>
</g>
<!-- Node4 -->
<g id="Node000004" class="node">
<title>Node4</title>
<g id="a_Node000004"><a xlink:title=" ">
<polygon fill="#e0e0e0" stroke="#999999" points="706.5,-19 613.5,-19 613.5,0 706.5,0 706.5,-19"/>
<text text-anchor="middle" x="660" y="-7" font-family="Helvetica,sans-Serif" font-size="10.00">unordered_map</text>
</a>
</g>
</g>
<!-- Node3&#45;&gt;Node4 -->
<g id="edge3_Node000003_Node000004" class="edge">
<title>Node3&#45;&gt;Node4</title>
<g id="a_edge3_Node000003_Node000004"><a xlink:title=" ">
<path fill="none" stroke="#63b8ff" d="M385.69,-56.07C442.62,-46.62 541.07,-30.26 603.25,-19.93"/>
<polygon fill="#63b8ff" stroke="#63b8ff" points="603.99,-23.35 613.28,-18.26 602.84,-16.45 603.99,-23.35"/>
</a>
</g>
</g>
<!-- Node5 -->
<g id="Node000005" class="node">
<title>Node5</title>
<g id="a_Node000005"><a xlink:title=" ">
<polygon fill="#e0e0e0" stroke="#999999" points="302.5,-19 251.5,-19 251.5,0 302.5,0 302.5,-19"/>
<text text-anchor="middle" x="277" y="-7" font-family="Helvetica,sans-Serif" font-size="10.00">variant</text>
</a>
</g>
</g>
<!-- Node3&#45;&gt;Node5 -->
<g id="edge4_Node000003_Node000005" class="edge">
<title>Node3&#45;&gt;Node5</title>
<g id="a_edge4_Node000003_Node000005"><a xlink:title=" ">
<path fill="none" stroke="#63b8ff" d="M330.72,-54.98C321.16,-47.07 306.72,-35.11 295.22,-25.58"/>
<polygon fill="#63b8ff" stroke="#63b8ff" points="297.4,-22.85 287.47,-19.17 292.94,-28.24 297.4,-22.85"/>
</a>
</g>
</g>
<!-- Node3&#45;&gt;Node6 -->
<g id="edge5_Node000003_Node000006" class="edge">
<title>Node3&#45;&gt;Node6</title>
<g id="a_edge5_Node000003_Node000006"><a xlink:title=" ">
<path fill="none" stroke="#63b8ff" d="M310.47,-54.98C276.01,-45.37 220.1,-29.78 184.47,-19.84"/>
<polygon fill="#63b8ff" stroke="#63b8ff" points="185.12,-16.38 174.55,-17.07 183.24,-23.13 185.12,-16.38"/>
</a>
</g>
</g>
<!-- Node7 -->
<g id="Node000007" class="node">
<title>Node7</title>
<g id="a_Node000007"><a xlink:title=" ">
<polygon fill="#e0e0e0" stroke="#999999" points="468,-19 418,-19 418,0 468,0 468,-19"/>
<text text-anchor="middle" x="443" y="-7" font-family="Helvetica,sans-Serif" font-size="10.00">cstdint</text>
</a>
</g>
</g>
<!-- Node3&#45;&gt;Node7 -->
<g id="edge6_Node000003_Node000007" class="edge">
<title>Node3&#45;&gt;Node7</title>
<g id="a_edge6_Node000003_Node000007"><a xlink:title=" ">
<path fill="none" stroke="#63b8ff" d="M357.39,-54.98C373.57,-46.57 398.57,-33.59 417.38,-23.81"/>
<polygon fill="#63b8ff" stroke="#63b8ff" points="419.05,-26.89 426.31,-19.17 415.83,-20.68 419.05,-26.89"/>
</a>
</g>
</g>
<!-- Node8 -->
<g id="Node000008" class="node">
<title>Node8</title>
<g id="a_Node000008"><a xlink:title=" ">
<polygon fill="#e0e0e0" stroke="#999999" points="381,-19 321,-19 321,0 381,0 381,-19"/>
<text text-anchor="middle" x="351" y="-7" font-family="Helvetica,sans-Serif" font-size="10.00">iostream</text>
</a>
</g>
</g>
<!-- Node3&#45;&gt;Node8 -->
<g id="edge7_Node000003_Node000008" class="edge">
<title>Node3&#45;&gt;Node8</title>
<g id="a_edge7_Node000003_Node000008"><a xlink:title=" ">
<path fill="none" stroke="#63b8ff" d="M342.65,-54.75C343.96,-47.8 345.84,-37.85 347.48,-29.13"/>
<polygon fill="#63b8ff" stroke="#63b8ff" points="350.96,-29.56 349.38,-19.09 344.09,-28.27 350.96,-29.56"/>
</a>
</g>
</g>
<!-- Node9&#45;&gt;Node3 -->
<g id="edge10_Node000009_Node000003" class="edge">
<title>Node9&#45;&gt;Node3</title>
<g id="a_edge10_Node000009_Node000003"><a xlink:title=" ">
<path fill="none" stroke="#63b8ff" d="M181.53,-109.98C213.7,-101.01 264.56,-86.82 300.17,-76.89"/>
<polygon fill="#63b8ff" stroke="#63b8ff" points="301.54,-80.14 310.23,-74.08 299.66,-73.4 301.54,-80.14"/>
</a>
</g>
</g>
<!-- Node9&#45;&gt;Node6 -->
<g id="edge12_Node000009_Node000006" class="edge">
<title>Node9&#45;&gt;Node6</title>
<g id="a_edge12_Node000009_Node000006"><a xlink:title=" ">
<path fill="none" stroke="#63b8ff" d="M151,-109.66C151,-92.17 151,-52.8 151,-29.27"/>
<polygon fill="#63b8ff" stroke="#63b8ff" points="154.5,-29.16 151,-19.16 147.5,-29.16 154.5,-29.16"/>
</a>
</g>
</g>
<!-- Node9&#45;&gt;Node7 -->
<g id="edge11_Node000009_Node000007" class="edge">
<title>Node9&#45;&gt;Node7</title>
<g id="a_edge11_Node000009_Node000007"><a xlink:title=" ">
<path fill="none" stroke="#63b8ff" d="M167.38,-109.81C192.58,-96.69 242.57,-71.59 287,-55 327.71,-39.8 376.02,-26.76 407.98,-18.79"/>
<polygon fill="#63b8ff" stroke="#63b8ff" points="408.87,-22.18 417.75,-16.39 407.2,-15.38 408.87,-22.18"/>
</a>
</g>
</g>
<!-- Node10&#45;&gt;Node3 -->
<g id="edge14_Node000010_Node000003" class="edge">
<title>Node10&#45;&gt;Node3</title>
<g id="a_edge14_Node000010_Node000003"><a xlink:title=" ">
<path fill="none" stroke="#63b8ff" d="M480.26,-331.86C423.12,-321.36 340,-295.01 340,-230.5 340,-230.5 340,-230.5 340,-173.5 340,-142.19 340.43,-105.77 340.72,-84.23"/>
<polygon fill="#63b8ff" stroke="#63b8ff" points="344.22,-84.23 340.87,-74.18 337.22,-84.13 344.22,-84.23"/>
</a>
</g>
</g>
<!-- Node10&#45;&gt;Node6 -->
<g id="edge15_Node000010_Node000006" class="edge">
<title>Node10&#45;&gt;Node6</title>
<g id="a_edge15_Node000010_Node000006"><a xlink:title=" ">
<path fill="none" stroke="#63b8ff" d="M480.29,-332.55C381.86,-318.19 173.02,-271.51 95,-129 75.35,-93.11 110.93,-49.18 133.85,-26.21"/>
<polygon fill="#63b8ff" stroke="#63b8ff" points="136.55,-28.47 141.31,-19 131.69,-23.43 136.55,-28.47"/>
</a>
</g>
</g>
<!-- Node11 -->
<g id="Node000011" class="node">
<title>Node11</title>
<g id="a_Node000011"><a xlink:title=" ">
<polygon fill="#e0e0e0" stroke="#999999" points="864,-184 806,-184 806,-165 864,-165 864,-184"/>
<text text-anchor="middle" x="835" y="-172" font-family="Helvetica,sans-Serif" font-size="10.00">memory</text>
</a>
</g>
</g>
<!-- Node10&#45;&gt;Node11 -->
<g id="edge16_Node000010_Node000011" class="edge">
<title>Node10&#45;&gt;Node11</title>
<g id="a_edge16_Node000010_Node000011"><a xlink:title=" ">
<path fill="none" stroke="#63b8ff" d="M585.74,-336.09C651.9,-330.06 763.95,-309.37 824,-239 834.44,-226.77 836.62,-208.25 836.53,-194.36"/>
<polygon fill="#63b8ff" stroke="#63b8ff" points="840.01,-193.85 836.05,-184.03 833.02,-194.18 840.01,-193.85"/>
</a>
</g>
</g>
<!-- Node12 -->
<g id="Node000012" class="node">
<title>Node12</title>
<g id="a_Node000012"><a xlink:href="CCSDSSecondaryHeaderAbstract_8h.html" target="_top" xlink:title=" ">
<polygon fill="white" stroke="#666666" points="590.5,-184 405.5,-184 405.5,-165 590.5,-165 590.5,-184"/>
<text text-anchor="middle" x="498" y="-172" font-family="Helvetica,sans-Serif" font-size="10.00">CCSDSSecondaryHeaderAbstract.h</text>
</a>
</g>
</g>
<!-- Node10&#45;&gt;Node12 -->
<g id="edge17_Node000010_Node000012" class="edge">
<title>Node10&#45;&gt;Node12</title>
<g id="a_edge17_Node000010_Node000012"><a xlink:title=" ">
<path fill="none" stroke="#63b8ff" d="M529.32,-329.79C525.71,-320.92 520.28,-306.72 517,-294 508.07,-259.32 502.57,-217.79 499.91,-194.24"/>
<polygon fill="#63b8ff" stroke="#63b8ff" points="503.39,-193.81 498.84,-184.24 496.43,-194.55 503.39,-193.81"/>
</a>
</g>
</g>
<!-- Node15 -->
<g id="Node000015" class="node">
<title>Node15</title>
<g id="a_Node000015"><a xlink:href="CCSDSSecondaryHeaderFactory_8h.html" target="_top" xlink:title=" ">
<polygon fill="white" stroke="#666666" points="815.5,-239 636.5,-239 636.5,-220 815.5,-220 815.5,-239"/>
<text text-anchor="middle" x="726" y="-227" font-family="Helvetica,sans-Serif" font-size="10.00">CCSDSSecondaryHeaderFactory.h</text>
</a>
</g>
</g>
<!-- Node10&#45;&gt;Node15 -->
<g id="edge26_Node000010_Node000015" class="edge">
<title>Node10&#45;&gt;Node15</title>
<g id="a_edge26_Node000010_Node000015"><a xlink:title=" ">
<path fill="none" stroke="#63b8ff" d="M550.29,-329.93C567.77,-321.17 595.48,-307.05 619,-294 648.45,-277.66 681.72,-257.67 703.23,-244.53"/>
<polygon fill="#63b8ff" stroke="#63b8ff" points="705.26,-247.4 711.96,-239.19 701.6,-241.43 705.26,-247.4"/>
</a>
</g>
</g>
<!-- Node17 -->
<g id="Node000017" class="node">
<title>Node17</title>
<g id="a_Node000017"><a xlink:href="PusServices_8h.html" target="_top" xlink:title=" ">
<polygon fill="white" stroke="#666666" points="610,-294 526,-294 526,-275 610,-275 610,-294"/>
<text text-anchor="middle" x="568" y="-282" font-family="Helvetica,sans-Serif" font-size="10.00">PusServices.h</text>
</a>
</g>
</g>
<!-- Node10&#45;&gt;Node17 -->
<g id="edge32_Node000010_Node000017" class="edge">
<title>Node10&#45;&gt;Node17</title>
<g id="a_edge32_Node000010_Node000017"><a xlink:title=" ">
<path fill="none" stroke="#63b8ff" d="M538.78,-329.75C543.62,-322.42 550.68,-311.73 556.64,-302.7"/>
<polygon fill="#63b8ff" stroke="#63b8ff" points="559.74,-304.36 562.33,-294.09 553.9,-300.5 559.74,-304.36"/>
</a>
</g>
</g>
<!-- Node12&#45;&gt;Node3 -->
<g id="edge18_Node000012_Node000003" class="edge">
<title>Node12&#45;&gt;Node3</title>
<g id="a_edge18_Node000012_Node000003"><a xlink:title=" ">
<path fill="none" stroke="#63b8ff" d="M485.42,-164.84C458.55,-146.36 395.31,-102.86 362.14,-80.05"/>
<polygon fill="#63b8ff" stroke="#63b8ff" points="363.87,-76.98 353.64,-74.2 359.9,-82.75 363.87,-76.98"/>
</a>
</g>
</g>
<!-- Node12&#45;&gt;Node6 -->
<g id="edge24_Node000012_Node000006" class="edge">
<title>Node12&#45;&gt;Node6</title>
<g id="a_edge24_Node000012_Node000006"><a xlink:title=" ">
<path fill="none" stroke="#63b8ff" d="M479.83,-164.97C422.81,-138.18 247.14,-55.66 178.7,-23.51"/>
<polygon fill="#63b8ff" stroke="#63b8ff" points="179.95,-20.23 169.41,-19.15 176.97,-26.57 179.95,-20.23"/>
</a>
</g>
</g>
<!-- Node12&#45;&gt;Node7 -->
<g id="edge25_Node000012_Node000007" class="edge">
<title>Node12&#45;&gt;Node7</title>
<g id="a_edge25_Node000012_Node000007"><a xlink:title=" ">
<path fill="none" stroke="#63b8ff" d="M492.31,-164.97C486.71,-156.26 478.26,-142.17 473,-129 459.41,-94.96 450.5,-52.9 446.14,-29.15"/>
<polygon fill="#63b8ff" stroke="#63b8ff" points="449.55,-28.32 444.37,-19.07 442.66,-29.53 449.55,-28.32"/>
</a>
</g>
</g>
<!-- Node12&#45;&gt;Node13 -->
<g id="edge19_Node000012_Node000013" class="edge">
<title>Node12&#45;&gt;Node13</title>
<g id="a_edge19_Node000012_Node000013"><a xlink:title=" ">
<path fill="none" stroke="#63b8ff" d="M502.79,-164.75C506.76,-157.49 512.53,-146.95 517.43,-137.98"/>
<polygon fill="#63b8ff" stroke="#63b8ff" points="520.57,-139.54 522.3,-129.09 514.43,-136.18 520.57,-139.54"/>
</a>
</g>
</g>
<!-- Node13&#45;&gt;Node3 -->
<g id="edge23_Node000013_Node000003" class="edge">
<title>Node13&#45;&gt;Node3</title>
<g id="a_edge23_Node000013_Node000003"><a xlink:title=" ">
<path fill="none" stroke="#63b8ff" d="M497.12,-109.98C465.62,-101.01 415.83,-86.82 380.97,-76.89"/>
<polygon fill="#63b8ff" stroke="#63b8ff" points="381.69,-73.46 371.12,-74.08 379.78,-80.19 381.69,-73.46"/>
</a>
</g>
</g>
<!-- Node13&#45;&gt;Node6 -->
<g id="edge22_Node000013_Node000006" class="edge">
<title>Node13&#45;&gt;Node6</title>
<g id="a_edge22_Node000013_Node000006"><a xlink:title=" ">
<path fill="none" stroke="#63b8ff" d="M512.38,-109.92C488.44,-96.25 439.03,-69.59 394,-55 321.36,-31.47 232.23,-19.14 184.67,-13.82"/>
<polygon fill="#63b8ff" stroke="#63b8ff" points="184.94,-10.33 174.62,-12.73 184.19,-17.29 184.94,-10.33"/>
</a>
</g>
</g>
<!-- Node13&#45;&gt;Node7 -->
<g id="edge21_Node000013_Node000007" class="edge">
<title>Node13&#45;&gt;Node7</title>
<g id="a_edge21_Node000013_Node000007"><a xlink:title=" ">
<path fill="none" stroke="#63b8ff" d="M520.13,-109.66C506.09,-91.61 473.94,-50.28 455.89,-27.08"/>
<polygon fill="#63b8ff" stroke="#63b8ff" points="458.64,-24.9 449.73,-19.16 453.11,-29.2 458.64,-24.9"/>
</a>
</g>
</g>
<!-- Node14 -->
<g id="Node000014" class="node">
<title>Node14</title>
<g id="a_Node000014"><a xlink:title=" ">
<polygon fill="#e0e0e0" stroke="#999999" points="750,-74 706,-74 706,-55 750,-55 750,-74"/>
<text text-anchor="middle" x="728" y="-62" font-family="Helvetica,sans-Serif" font-size="10.00">string</text>
</a>
</g>
</g>
<!-- Node13&#45;&gt;Node14 -->
<g id="edge20_Node000013_Node000014" class="edge">
<title>Node13&#45;&gt;Node14</title>
<g id="a_edge20_Node000013_Node000014"><a xlink:title=" ">
<path fill="none" stroke="#63b8ff" d="M559.29,-109.98C596.83,-100.09 658.39,-83.86 695.85,-73.98"/>
<polygon fill="#63b8ff" stroke="#63b8ff" points="696.97,-77.3 705.74,-71.37 695.18,-70.53 696.97,-77.3"/>
</a>
</g>
</g>
<!-- Node15&#45;&gt;Node4 -->
<g id="edge28_Node000015_Node000004" class="edge">
<title>Node15&#45;&gt;Node4</title>
<g id="a_edge28_Node000015_Node000004"><a xlink:title=" ">
<path fill="none" stroke="#63b8ff" d="M731.72,-219.72C748.51,-192.75 794.31,-109.58 759,-55 748.81,-39.25 731.57,-29.02 714.31,-22.4"/>
<polygon fill="#63b8ff" stroke="#63b8ff" points="715.36,-19.05 704.76,-19.08 713.06,-25.67 715.36,-19.05"/>
</a>
</g>
</g>
<!-- Node15&#45;&gt;Node11 -->
<g id="edge27_Node000015_Node000011" class="edge">
<title>Node15&#45;&gt;Node11</title>
<g id="a_edge27_Node000015_Node000011"><a xlink:title=" ">
<path fill="none" stroke="#63b8ff" d="M743.51,-219.98C760.97,-211.5 788.01,-198.35 808.17,-188.54"/>
<polygon fill="#63b8ff" stroke="#63b8ff" points="809.71,-191.69 817.17,-184.17 806.64,-185.4 809.71,-191.69"/>
</a>
</g>
</g>
<!-- Node15&#45;&gt;Node12 -->
<g id="edge31_Node000015_Node000012" class="edge">
<title>Node15&#45;&gt;Node12</title>
<g id="a_edge31_Node000015_Node000012"><a xlink:title=" ">
<path fill="none" stroke="#63b8ff" d="M689.37,-219.98C650.09,-210.86 587.63,-196.33 544.81,-186.38"/>
<polygon fill="#63b8ff" stroke="#63b8ff" points="545.45,-182.94 534.92,-184.08 543.87,-189.76 545.45,-182.94"/>
</a>
</g>
</g>
<!-- Node15&#45;&gt;Node14 -->
<g id="edge30_Node000015_Node000014" class="edge">
<title>Node15&#45;&gt;Node14</title>
<g id="a_edge30_Node000015_Node000014"><a xlink:title=" ">
<path fill="none" stroke="#63b8ff" d="M726.11,-219.74C726.42,-194.31 727.33,-120.08 727.76,-84.69"/>
<polygon fill="#63b8ff" stroke="#63b8ff" points="731.27,-84.35 727.89,-74.31 724.27,-84.26 731.27,-84.35"/>
</a>
</g>
</g>
<!-- Node16 -->
<g id="Node000016" class="node">
<title>Node16</title>
<g id="a_Node000016"><a xlink:title=" ">
<polygon fill="#e0e0e0" stroke="#999999" points="711.5,-184 646.5,-184 646.5,-165 711.5,-165 711.5,-184"/>
<text text-anchor="middle" x="679" y="-172" font-family="Helvetica,sans-Serif" font-size="10.00">functional</text>
</a>
</g>
</g>
<!-- Node15&#45;&gt;Node16 -->
<g id="edge29_Node000015_Node000016" class="edge">
<title>Node15&#45;&gt;Node16</title>
<g id="a_edge29_Node000015_Node000016"><a xlink:title=" ">
<path fill="none" stroke="#63b8ff" d="M718.24,-219.75C711.53,-212.18 701.66,-201.05 693.49,-191.84"/>
<polygon fill="#63b8ff" stroke="#63b8ff" points="695.87,-189.25 686.62,-184.09 690.63,-193.89 695.87,-189.25"/>
</a>
</g>
</g>
<!-- Node17&#45;&gt;Node3 -->
<g id="edge35_Node000017_Node000003" class="edge">
<title>Node17&#45;&gt;Node3</title>
<g id="a_edge35_Node000017_Node000003"><a xlink:title=" ">
<path fill="none" stroke="#63b8ff" d="M543.81,-274.98C507.42,-261.08 438.36,-230.35 396,-184 368.94,-154.39 353.02,-109.15 345.76,-84"/>
<polygon fill="#63b8ff" stroke="#63b8ff" points="349.12,-82.99 343.1,-74.26 342.36,-84.83 349.12,-82.99"/>
</a>
</g>
</g>
<!-- Node17&#45;&gt;Node12 -->
<g id="edge33_Node000017_Node000012" class="edge">
<title>Node17&#45;&gt;Node12</title>
<g id="a_edge33_Node000017_Node000012"><a xlink:title=" ">
<path fill="none" stroke="#63b8ff" d="M562.27,-274.66C550.68,-256.77 524.25,-216 509.14,-192.69"/>
<polygon fill="#63b8ff" stroke="#63b8ff" points="511.99,-190.65 503.61,-184.16 506.11,-194.45 511.99,-190.65"/>
</a>
</g>
</g>
<!-- Node17&#45;&gt;Node13 -->
<g id="edge36_Node000017_Node000013" class="edge">
<title>Node17&#45;&gt;Node13</title>
<g id="a_edge36_Node000017_Node000013"><a xlink:title=" ">
<path fill="none" stroke="#63b8ff" d="M574.35,-274.91C588.52,-254.61 619.92,-202.52 599,-165 590.96,-150.58 576.1,-140.24 561.96,-133.18"/>
<polygon fill="#63b8ff" stroke="#63b8ff" points="563.4,-129.99 552.85,-129.01 560.49,-136.36 563.4,-129.99"/>
</a>
</g>
</g>
<!-- Node17&#45;&gt;Node15 -->
<g id="edge34_Node000017_Node000015" class="edge">
<title>Node17&#45;&gt;Node15</title>
<g id="a_edge34_Node000017_Node000015"><a xlink:title=" ">
<path fill="none" stroke="#63b8ff" d="M593.39,-274.98C619.8,-266.13 661.35,-252.19 690.89,-242.28"/>
<polygon fill="#63b8ff" stroke="#63b8ff" points="692.05,-245.58 700.42,-239.08 689.82,-238.94 692.05,-245.58"/>
</a>
</g>
</g>
<!-- Node18&#45;&gt;Node2 -->
<g id="edge39_Node000018_Node000002" class="edge">
<title>Node18&#45;&gt;Node2</title>
<g id="a_edge39_Node000018_Node000002"><a xlink:title=" ">
<path fill="none" stroke="#63b8ff" d="M261.96,-549.74C256,-524.2 238.57,-449.43 230.37,-414.23"/>
<polygon fill="#63b8ff" stroke="#63b8ff" points="233.73,-413.25 228.05,-404.31 226.92,-414.84 233.73,-413.25"/>
</a>
</g>
</g>
<!-- Node18&#45;&gt;Node6 -->
<g id="edge47_Node000018_Node000006" class="edge">
<title>Node18&#45;&gt;Node6</title>
<g id="a_edge47_Node000018_Node000006"><a xlink:title=" ">
<path fill="none" stroke="#63b8ff" d="M223.33,-559.46C149.27,-558.86 0,-545.83 0,-450.5 0,-450.5 0,-450.5 0,-118.5 0,-61.09 73.1,-31.28 117.58,-18.46"/>
<polygon fill="#63b8ff" stroke="#63b8ff" points="118.69,-21.79 127.41,-15.77 116.84,-15.04 118.69,-21.79"/>
</a>
</g>
</g>
<!-- Node18&#45;&gt;Node14 -->
<g id="edge46_Node000018_Node000014" class="edge">
<title>Node18&#45;&gt;Node14</title>
<g id="a_edge46_Node000018_Node000014"><a xlink:title=" ">
<path fill="none" stroke="#63b8ff" d="M304.66,-557.5C449.26,-551.58 930,-510.83 930,-230.5 930,-230.5 930,-230.5 930,-173.5 930,-97.47 817.34,-74.77 760.29,-68.14"/>
<polygon fill="#63b8ff" stroke="#63b8ff" points="760.32,-64.63 750,-67.05 759.58,-71.59 760.32,-64.63"/>
</a>
</g>
</g>
<!-- Node19 -->
<g id="Node000019" class="node">
<title>Node19</title>
<g id="a_Node000019"><a xlink:href="CCSDSManager_8h.html" target="_top" xlink:title=" ">
<polygon fill="white" stroke="#666666" points="235.5,-514 134.5,-514 134.5,-495 235.5,-495 235.5,-514"/>
<text text-anchor="middle" x="185" y="-502" font-family="Helvetica,sans-Serif" font-size="10.00">CCSDSManager.h</text>
</a>
</g>
</g>
<!-- Node18&#45;&gt;Node19 -->
<g id="edge40_Node000018_Node000019" class="edge">
<title>Node18&#45;&gt;Node19</title>
<g id="a_edge40_Node000018_Node000019"><a xlink:title=" ">
<path fill="none" stroke="#63b8ff" d="M251.31,-549.98C239.17,-541.84 220.64,-529.41 206.25,-519.76"/>
<polygon fill="#63b8ff" stroke="#63b8ff" points="208.18,-516.84 197.92,-514.17 204.28,-522.65 208.18,-516.84"/>
</a>
</g>
</g>
<!-- Node19&#45;&gt;Node2 -->
<g id="edge42_Node000019_Node000002" class="edge">
<title>Node19&#45;&gt;Node2</title>
<g id="a_edge42_Node000019_Node000002"><a xlink:title=" ">
<path fill="none" stroke="#63b8ff" d="M189.54,-494.79C194.06,-485.93 201.02,-471.73 206,-459 211.8,-444.18 217.14,-426.94 220.85,-414.16"/>
<polygon fill="#63b8ff" stroke="#63b8ff" points="224.3,-414.83 223.65,-404.26 217.56,-412.93 224.3,-414.83"/>
</a>
</g>
</g>
<!-- Node19&#45;&gt;Node3 -->
<g id="edge43_Node000019_Node000003" class="edge">
<title>Node19&#45;&gt;Node3</title>
<g id="a_edge43_Node000019_Node000003"><a xlink:title=" ">
<path fill="none" stroke="#63b8ff" d="M207.01,-494.99C240.9,-480.27 302,-446.64 302,-395.5 302,-395.5 302,-395.5 302,-173.5 302,-139.92 318.88,-103.78 330.43,-82.98"/>
<polygon fill="#63b8ff" stroke="#63b8ff" points="333.6,-84.49 335.58,-74.08 327.54,-80.98 333.6,-84.49"/>
</a>
</g>
</g>
<!-- Node20 -->
<g id="Node000020" class="node">
<title>Node20</title>
<g id="a_Node000020"><a xlink:title=" ">
<polygon fill="#e0e0e0" stroke="#999999" points="78.5,-459 33.5,-459 33.5,-440 78.5,-440 78.5,-459"/>
<text text-anchor="middle" x="56" y="-447" font-family="Helvetica,sans-Serif" font-size="10.00">utility</text>
</a>
</g>
</g>
<!-- Node19&#45;&gt;Node20 -->
<g id="edge41_Node000019_Node000020" class="edge">
<title>Node19&#45;&gt;Node20</title>
<g id="a_edge41_Node000019_Node000020"><a xlink:title=" ">
<path fill="none" stroke="#63b8ff" d="M164.27,-494.98C143.24,-486.34 110.45,-472.87 86.46,-463.02"/>
<polygon fill="#63b8ff" stroke="#63b8ff" points="87.68,-459.73 77.1,-459.17 85.02,-466.21 87.68,-459.73"/>
</a>
</g>
</g>
<!-- Node21 -->
<g id="Node000021" class="node">
<title>Node21</title>
<g id="a_Node000021"><a xlink:href="CCSDSValidator_8h.html" target="_top" xlink:title="Defines the Validator class for CCSDS packet validation.">
<polygon fill="white" stroke="#666666" points="197.5,-459 96.5,-459 96.5,-440 197.5,-440 197.5,-459"/>
<text text-anchor="middle" x="147" y="-447" font-family="Helvetica,sans-Serif" font-size="10.00">CCSDSValidator.h</text>
</a>
</g>
</g>
<!-- Node19&#45;&gt;Node21 -->
<g id="edge44_Node000019_Node000021" class="edge">
<title>Node19&#45;&gt;Node21</title>
<g id="a_edge44_Node000019_Node000021"><a xlink:title=" ">
<path fill="none" stroke="#63b8ff" d="M178.73,-494.75C173.41,-487.34 165.64,-476.5 159.12,-467.41"/>
<polygon fill="#63b8ff" stroke="#63b8ff" points="161.83,-465.18 153.16,-459.09 156.14,-469.26 161.83,-465.18"/>
</a>
</g>
</g>
<!-- Node21&#45;&gt;Node2 -->
<g id="edge45_Node000021_Node000002" class="edge">
<title>Node21&#45;&gt;Node2</title>
<g id="a_edge45_Node000021_Node000002"><a xlink:title=" ">
<path fill="none" stroke="#63b8ff" d="M159.69,-439.98C171.83,-431.84 190.36,-419.41 204.75,-409.76"/>
<polygon fill="#63b8ff" stroke="#63b8ff" points="206.72,-412.65 213.08,-404.17 202.82,-406.84 206.72,-412.65"/>
</a>
</g>
</g>
</g>
</svg>

<g id="navigator" transform="translate(0 0)" fill="#404254">
  <rect fill="#f2f5e9" fill-opacity="0.5" stroke="#606060" stroke-width=".5" x="0" y="0" width="60" height="60"/>
  <use id="zoomplus" xlink:href="#zoomPlus" x="17" y="9" onmousedown="handleZoom(evt,'in')"/>
  <use id="zoomminus" xlink:href="#zoomMin" x="42" y="9" onmousedown="handleZoom(evt,'out')"/>
  <use id="reset" xlink:href="#resetDef" x="30" y="36" onmousedown="handleReset()"/>
   <use id="arrowup" xlink:href="#arrowUp" x="0" y="0" onmousedown="handlePan(0,-1)"/>
  <use id="arrowright" xlink:href="#arrowRight" x="0" y="0" onmousedown="handlePan(1,0)"/>
  <use id="arrowdown" xlink:href="#arrowDown" x="0" y="0" onmousedown="handlePan(0,1)"/>
  <use id="arrowleft" xlink:href="#arrowLeft" x="0" y="0" onmousedown="handlePan(-1,0)"/>
</g>
<svg viewBox="0 0 15 15" width="100%" height="30px" preserveAspectRatio="xMaxYMin meet">
 <g id="arrow_out" transform="scale(0.3 0.3)">
  <a xlink:href="CCSDSPacket_8cpp__incl_org.svg" target="_base">
   <rect id="button" ry="5" rx="5" y="6" x="6" height="38" width="38"
        fill="#f2f5e9" fill-opacity="0.5" stroke="#606060" stroke-width="1.0"/>
   <path id="arrow"
     d="M 11.500037,31.436501 C 11.940474,20.09759 22.043105,11.32322 32.158766,21.979434 L 37.068811,17.246167 C 37.068811,17.246167 37.088388,32 37.088388,32 L 22.160133,31.978069 C 22.160133,31.978069 26.997745,27.140456 26.997745,27.140456 C 18.528582,18.264221 13.291696,25.230495 11.500037,31.436501 z"
     style="fill:#404040;"/>
  </a>
 </g>
</svg>

<style type='text/css'>
<![CDATA[
[data-mouse-over-selected='false'] { opacity: 0.7; }
[data-mouse-over-selected='true']  { opacity: 1.0; }
]]>
</style>
<script type="application/ecmascript"><![CDATA[
document.addEventListener('DOMContentLoaded', (event) => {
  highlightEdges();
  highlightAdjacentNodes();
});
]]></script>
</svg>
