<?xml version="1.0" encoding="UTF-8" standalone="no"?>
<!DOCTYPE svg PUBLIC "-//W3C//DTD SVG 1.1//EN"
 "http://www.w3.org/Graphics/SVG/1.1/DTD/svg11.dtd">
<!-- Generated by graphviz version 2.43.0 (0)
 -->
<!-- Title: inc/CCSDSResult.h Pages: 1 -->
<svg width="1332pt" height="654pt"
 viewBox="0.00 0.00 1332.00 654.00" xmlns="http://www.w3.org/2000/svg" xmlns:xlink="http://www.w3.org/1999/xlink">
<g id="graph0" class="graph" transform="scale(1 1) rotate(0) translate(4 650)">
<title>inc/CCSDSResult.h</title>
<!-- Node1 -->
<g id="Node000001" class="node">
<title>Node1</title>
<g id="a_Node000001"><a xlink:title=" ">
<polygon fill="#999999" stroke="#666666" points="698,-646 591,-646 591,-627 698,-627 698,-646"/>
<text text-anchor="middle" x="644.5" y="-634" font-family="Helvetica,sans-Serif" font-size="10.00">inc/CCSDSResult.h</text>
</a>
</g>
</g>
<!-- Node2 -->
<g id="Node000002" class="node">
<title>Node2</title>
<g id="a_Node000002"><a xlink:href="CCSDSConfig_8h.html" target="_top" xlink:title=" ">
<polygon fill="white" stroke="#666666" points="552,-591 445,-591 445,-572 552,-572 552,-591"/>
<text text-anchor="middle" x="498.5" y="-579" font-family="Helvetica,sans-Serif" font-size="10.00">inc/CCSDSConfig.h</text>
</a>
</g>
</g>
<!-- Node1&#45;&gt;Node2 -->
<g id="edge1_Node000001_Node000002" class="edge">
<title>Node1&#45;&gt;Node2</title>
<g id="a_edge1_Node000001_Node000002"><a xlink:title=" ">
<path fill="none" stroke="#63b8ff" d="M611.58,-623.55C584.47,-613.71 546.67,-599.98 522.38,-591.17"/>
<polygon fill="#63b8ff" stroke="#63b8ff" points="610.45,-626.86 621.04,-626.98 612.84,-620.28 610.45,-626.86"/>
</a>
</g>
</g>
<!-- Node3 -->
<g id="Node000003" class="node">
<title>Node3</title>
<g id="a_Node000003"><a xlink:href="CCSDSPack_8h.html" target="_top" xlink:title=" ">
<polygon fill="white" stroke="#666666" points="506.5,-74 408.5,-74 408.5,-55 506.5,-55 506.5,-74"/>
<text text-anchor="middle" x="457.5" y="-62" font-family="Helvetica,sans-Serif" font-size="10.00">inc/CCSDSPack.h</text>
</a>
</g>
</g>
<!-- Node1&#45;&gt;Node3 -->
<g id="edge50_Node000001_Node000003" class="edge">
<title>Node1&#45;&gt;Node3</title>
<g id="a_edge50_Node000001_Node000003"><a xlink:title=" ">
<path fill="none" stroke="#63b8ff" d="M644.5,-616.81C644.5,-594.31 644.5,-555.39 644.5,-522 644.5,-522 644.5,-522 644.5,-454 644.5,-373.5 518.04,-202.18 484.5,-129 475.62,-109.62 466.03,-86.49 461.02,-74.19"/>
<polygon fill="#63b8ff" stroke="#63b8ff" points="641,-616.96 644.5,-626.96 648,-616.96 641,-616.96"/>
</a>
</g>
</g>
<!-- Node7 -->
<g id="Node000007" class="node">
<title>Node7</title>
<g id="a_Node000007"><a xlink:href="CCSDSSecondaryHeaderAbstract_8h.html" target="_top" xlink:title=" ">
<polygon fill="white" stroke="#666666" points="366,-536 213,-536 213,-506 366,-506 366,-536"/>
<text text-anchor="start" x="221" y="-524" font-family="Helvetica,sans-Serif" font-size="10.00">inc/CCSDSSecondaryHeader</text>
<text text-anchor="middle" x="289.5" y="-513" font-family="Helvetica,sans-Serif" font-size="10.00">Abstract.h</text>
</a>
</g>
</g>
<!-- Node1&#45;&gt;Node7 -->
<g id="edge52_Node000001_Node000007" class="edge">
<title>Node1&#45;&gt;Node7</title>
<g id="a_edge52_Node000001_Node000007"><a xlink:title=" ">
<path fill="none" stroke="#63b8ff" d="M580.49,-633.25C525.47,-629.35 445.03,-618.89 380.5,-591 349.92,-577.79 320.29,-552.2 303.53,-536.17"/>
<polygon fill="#63b8ff" stroke="#63b8ff" points="580.59,-636.77 590.8,-633.93 581.05,-629.78 580.59,-636.77"/>
</a>
</g>
</g>
<!-- Node8 -->
<g id="Node000008" class="node">
<title>Node8</title>
<g id="a_Node000008"><a xlink:href="CCSDSDataField_8h.html" target="_top" xlink:title=" ">
<polygon fill="white" stroke="#666666" points="404.5,-349 282.5,-349 282.5,-330 404.5,-330 404.5,-349"/>
<text text-anchor="middle" x="343.5" y="-337" font-family="Helvetica,sans-Serif" font-size="10.00">inc/CCSDSDataField.h</text>
</a>
</g>
</g>
<!-- Node1&#45;&gt;Node8 -->
<g id="edge44_Node000001_Node000008" class="edge">
<title>Node1&#45;&gt;Node8</title>
<g id="a_edge44_Node000001_Node000008"><a xlink:title=" ">
<path fill="none" stroke="#63b8ff" d="M580.69,-633.28C506.62,-626.89 394.5,-603.72 394.5,-522 394.5,-522 394.5,-522 394.5,-454 394.5,-411.44 364.3,-367.17 350.38,-349.03"/>
<polygon fill="#63b8ff" stroke="#63b8ff" points="580.63,-636.78 590.87,-634.07 581.17,-629.81 580.63,-636.78"/>
</a>
</g>
</g>
<!-- Node9 -->
<g id="Node000009" class="node">
<title>Node9</title>
<g id="a_Node000009"><a xlink:href="CCSDSPacket_8h.html" target="_top" xlink:title=" ">
<polygon fill="white" stroke="#666666" points="750,-294 643,-294 643,-275 750,-275 750,-294"/>
<text text-anchor="middle" x="696.5" y="-282" font-family="Helvetica,sans-Serif" font-size="10.00">inc/CCSDSPacket.h</text>
</a>
</g>
</g>
<!-- Node1&#45;&gt;Node9 -->
<g id="edge51_Node000001_Node000009" class="edge">
<title>Node1&#45;&gt;Node9</title>
<g id="a_edge51_Node000001_Node000009"><a xlink:title=" ">
<path fill="none" stroke="#63b8ff" d="M677.94,-622.86C715.87,-606.09 772.5,-572.57 772.5,-522 772.5,-522 772.5,-522 772.5,-393.5 772.5,-364.04 770.12,-354.32 753.5,-330 742.88,-314.45 725.13,-301.85 712.26,-294.07"/>
<polygon fill="#63b8ff" stroke="#63b8ff" points="676.12,-619.83 668.28,-626.95 678.85,-626.27 676.12,-619.83"/>
</a>
</g>
</g>
<!-- Node10 -->
<g id="Node000010" class="node">
<title>Node10</title>
<g id="a_Node000010"><a xlink:href="CCSDSManager_8h.html" target="_top" xlink:title=" ">
<polygon fill="white" stroke="#666666" points="1002.5,-184 884.5,-184 884.5,-165 1002.5,-165 1002.5,-184"/>
<text text-anchor="middle" x="943.5" y="-172" font-family="Helvetica,sans-Serif" font-size="10.00">inc/CCSDSManager.h</text>
</a>
</g>
</g>
<!-- Node1&#45;&gt;Node10 -->
<g id="edge49_Node000001_Node000010" class="edge">
<title>Node1&#45;&gt;Node10</title>
<g id="a_edge49_Node000001_Node000010"><a xlink:title=" ">
<path fill="none" stroke="#63b8ff" d="M708.15,-627.96C808.58,-614.28 992.5,-581.13 992.5,-522 992.5,-522 992.5,-522 992.5,-283.5 992.5,-243.35 964.07,-201.7 950.52,-184.13"/>
<polygon fill="#63b8ff" stroke="#63b8ff" points="707.56,-624.51 698.11,-629.3 708.49,-631.45 707.56,-624.51"/>
</a>
</g>
</g>
<!-- Node21 -->
<g id="Node000021" class="node">
<title>Node21</title>
<g id="a_Node000021"><a xlink:href="PusServices_8h.html" target="_top" xlink:title=" ">
<polygon fill="white" stroke="#666666" points="101,-404 0,-404 0,-385 101,-385 101,-404"/>
<text text-anchor="middle" x="50.5" y="-392" font-family="Helvetica,sans-Serif" font-size="10.00">inc/PusServices.h</text>
</a>
</g>
</g>
<!-- Node1&#45;&gt;Node21 -->
<g id="edge53_Node000001_Node000021" class="edge">
<title>Node1&#45;&gt;Node21</title>
<g id="a_edge53_Node000001_Node000021"><a xlink:title=" ">
<path fill="none" stroke="#63b8ff" d="M580.45,-629.33C456.41,-616.46 188.72,-583.9 110.5,-536 77.69,-515.91 68.72,-505.74 54.5,-470 45.59,-447.61 47.52,-418.43 49.24,-404.14"/>
<polygon fill="#63b8ff" stroke="#63b8ff" points="580.26,-632.83 590.57,-630.37 580.98,-625.87 580.26,-632.83"/>
</a>
</g>
</g>
<!-- Node23 -->
<g id="Node000023" class="node">
<title>Node23</title>
<g id="a_Node000023"><a xlink:href="CCSDSHeader_8h.html" target="_top" xlink:title=" ">
<polygon fill="white" stroke="#666666" points="744.5,-349 634.5,-349 634.5,-330 744.5,-330 744.5,-349"/>
<text text-anchor="middle" x="689.5" y="-337" font-family="Helvetica,sans-Serif" font-size="10.00">inc/CCSDSHeader.h</text>
</a>
</g>
</g>
<!-- Node1&#45;&gt;Node23 -->
<g id="edge45_Node000001_Node000023" class="edge">
<title>Node1&#45;&gt;Node23</title>
<g id="a_edge45_Node000001_Node000023"><a xlink:title=" ">
<path fill="none" stroke="#63b8ff" d="M655.35,-618.09C667.8,-596.43 686.5,-557.89 686.5,-522 686.5,-522 686.5,-522 686.5,-454 686.5,-414.77 688.31,-367.95 689.12,-349.04"/>
<polygon fill="#63b8ff" stroke="#63b8ff" points="652.28,-616.41 650.16,-626.79 658.29,-619.99 652.28,-616.41"/>
</a>
</g>
</g>
<!-- Node24 -->
<g id="Node000024" class="node">
<title>Node24</title>
<g id="a_Node000024"><a xlink:href="exec__utils_8h.html" target="_top" xlink:title=" ">
<polygon fill="white" stroke="#666666" points="1318.5,-74 1226.5,-74 1226.5,-55 1318.5,-55 1318.5,-74"/>
<text text-anchor="middle" x="1272.5" y="-62" font-family="Helvetica,sans-Serif" font-size="10.00">inc/exec_utils.h</text>
</a>
</g>
</g>
<!-- Node1&#45;&gt;Node24 -->
<g id="edge54_Node000001_Node000024" class="edge">
<title>Node1&#45;&gt;Node24</title>
<g id="a_edge54_Node000001_Node000024"><a xlink:title=" ">
<path fill="none" stroke="#63b8ff" d="M708.5,-635C848.69,-632.19 1170.5,-615.53 1170.5,-522 1170.5,-522 1170.5,-522 1170.5,-173.5 1170.5,-125.01 1225.51,-89.5 1254.73,-74.05"/>
<polygon fill="#63b8ff" stroke="#63b8ff" points="708.25,-631.51 698.32,-635.19 708.38,-638.51 708.25,-631.51"/>
</a>
</g>
</g>
<!-- Node2&#45;&gt;Node3 -->
<g id="edge2_Node000002_Node000003" class="edge">
<title>Node2&#45;&gt;Node3</title>
<g id="a_edge2_Node000002_Node000003"><a xlink:title=" ">
<path fill="none" stroke="#63b8ff" d="M477.64,-565.34C468.34,-557.55 458.03,-547.33 451.5,-536 433.25,-504.34 432.5,-492.54 432.5,-456 432.5,-456 432.5,-456 432.5,-173.5 432.5,-135.59 447.3,-92.07 454.13,-74.02"/>
<polygon fill="#63b8ff" stroke="#63b8ff" points="475.74,-568.3 485.76,-571.76 480.08,-562.81 475.74,-568.3"/>
</a>
</g>
</g>
<!-- Node2&#45;&gt;Node7 -->
<g id="edge6_Node000002_Node000007" class="edge">
<title>Node2&#45;&gt;Node7</title>
<g id="a_edge6_Node000002_Node000007"><a xlink:title=" ">
<path fill="none" stroke="#63b8ff" d="M458.13,-569.2C424.36,-559.75 376.02,-546.22 339.75,-536.06"/>
<polygon fill="#63b8ff" stroke="#63b8ff" points="457.54,-572.67 468.11,-571.99 459.42,-565.93 457.54,-572.67"/>
</a>
</g>
</g>
<!-- Node14 -->
<g id="Node000014" class="node">
<title>Node14</title>
<g id="a_Node000014"><a xlink:href="CCSDSPacket_8cpp.html" target="_top" xlink:title=" ">
<polygon fill="white" stroke="#666666" points="644,-74 525,-74 525,-55 644,-55 644,-74"/>
<text text-anchor="middle" x="584.5" y="-62" font-family="Helvetica,sans-Serif" font-size="10.00">src/CCSDSPacket.cpp</text>
</a>
</g>
</g>
<!-- Node2&#45;&gt;Node14 -->
<g id="edge43_Node000002_Node000014" class="edge">
<title>Node2&#45;&gt;Node14</title>
<g id="a_edge43_Node000002_Node000014"><a xlink:title=" ">
<path fill="none" stroke="#63b8ff" d="M540.65,-568.18C557.49,-561.27 575.66,-550.94 587.5,-536 610.2,-507.36 606.5,-492.54 606.5,-456 606.5,-456 606.5,-456 606.5,-393.5 606.5,-266.23 589.81,-111.8 585.5,-74.1"/>
<polygon fill="#63b8ff" stroke="#63b8ff" points="539.05,-565.05 530.95,-571.87 541.54,-571.59 539.05,-565.05"/>
</a>
</g>
</g>
<!-- Node2&#45;&gt;Node21 -->
<g id="edge41_Node000002_Node000021" class="edge">
<title>Node2&#45;&gt;Node21</title>
<g id="a_edge41_Node000002_Node000021"><a xlink:title=" ">
<path fill="none" stroke="#63b8ff" d="M434.67,-576.72C374.01,-571.77 280.83,-560.62 203.5,-536 141.38,-516.22 114.28,-520.05 72.5,-470 56.25,-450.54 52,-419.48 50.89,-404.36"/>
<polygon fill="#63b8ff" stroke="#63b8ff" points="434.62,-580.23 444.86,-577.52 435.16,-573.25 434.62,-580.23"/>
</a>
</g>
</g>
<!-- Node22 -->
<g id="Node000022" class="node">
<title>Node22</title>
<g id="a_Node000022"><a xlink:href="CCSDSConfig_8cpp.html" target="_top" xlink:title=" ">
<polygon fill="white" stroke="#666666" points="578.5,-530.5 460.5,-530.5 460.5,-511.5 578.5,-511.5 578.5,-530.5"/>
<text text-anchor="middle" x="519.5" y="-518.5" font-family="Helvetica,sans-Serif" font-size="10.00">src/CCSDSConfig.cpp</text>
</a>
</g>
</g>
<!-- Node2&#45;&gt;Node22 -->
<g id="edge42_Node000002_Node000022" class="edge">
<title>Node2&#45;&gt;Node22</title>
<g id="a_edge42_Node000002_Node000022"><a xlink:title=" ">
<path fill="none" stroke="#63b8ff" d="M505.03,-562.32C508.81,-551.78 513.41,-538.98 516.39,-530.67"/>
<polygon fill="#63b8ff" stroke="#63b8ff" points="501.68,-561.27 501.6,-571.87 508.27,-563.64 501.68,-561.27"/>
</a>
</g>
</g>
<!-- Node4 -->
<g id="Node000004" class="node">
<title>Node4</title>
<g id="a_Node000004"><a xlink:href="exec__decoder_8cpp.html" target="_top" xlink:title=" ">
<polygon fill="white" stroke="#666666" points="912.5,-19 792.5,-19 792.5,0 912.5,0 912.5,-19"/>
<text text-anchor="middle" x="852.5" y="-7" font-family="Helvetica,sans-Serif" font-size="10.00">src/exec_decoder.cpp</text>
</a>
</g>
</g>
<!-- Node3&#45;&gt;Node4 -->
<g id="edge3_Node000003_Node000004" class="edge">
<title>Node3&#45;&gt;Node4</title>
<g id="a_edge3_Node000003_Node000004"><a xlink:title=" ">
<path fill="none" stroke="#63b8ff" d="M516.72,-54.98C619.93,-40.75 727.24,-26.7 792.38,-18.25"/>
<polygon fill="#63b8ff" stroke="#63b8ff" points="516.18,-51.53 506.75,-56.36 517.13,-58.46 516.18,-51.53"/>
</a>
</g>
</g>
<!-- Node5 -->
<g id="Node000005" class="node">
<title>Node5</title>
<g id="a_Node000005"><a xlink:href="exec__encoder_8cpp.html" target="_top" xlink:title=" ">
<polygon fill="white" stroke="#666666" points="1151.5,-19 1031.5,-19 1031.5,0 1151.5,0 1151.5,-19"/>
<text text-anchor="middle" x="1091.5" y="-7" font-family="Helvetica,sans-Serif" font-size="10.00">src/exec_encoder.cpp</text>
</a>
</g>
</g>
<!-- Node3&#45;&gt;Node5 -->
<g id="edge4_Node000003_Node000005" class="edge">
<title>Node3&#45;&gt;Node5</title>
<g id="a_edge4_Node000003_Node000005"><a xlink:title=" ">
<path fill="none" stroke="#63b8ff" d="M516.85,-55.05C711.42,-33.79 928.38,-19.86 1031.36,-13.85"/>
<polygon fill="#63b8ff" stroke="#63b8ff" points="516.28,-51.59 506.72,-56.16 517.05,-58.55 516.28,-51.59"/>
</a>
</g>
</g>
<!-- Node6 -->
<g id="Node000006" class="node">
<title>Node6</title>
<g id="a_Node000006"><a xlink:href="exec__validator_8cpp.html" target="_top" xlink:title=" ">
<polygon fill="white" stroke="#666666" points="571,-19 446,-19 446,0 571,0 571,-19"/>
<text text-anchor="middle" x="508.5" y="-7" font-family="Helvetica,sans-Serif" font-size="10.00">src/exec_validator.cpp</text>
</a>
</g>
</g>
<!-- Node3&#45;&gt;Node6 -->
<g id="edge5_Node000003_Node000006" class="edge">
<title>Node3&#45;&gt;Node6</title>
<g id="a_edge5_Node000003_Node000006"><a xlink:title=" ">
<path fill="none" stroke="#63b8ff" d="M472.88,-47.52C481.87,-38.18 492.86,-26.75 500.24,-19.09"/>
<polygon fill="#63b8ff" stroke="#63b8ff" points="470.33,-45.12 465.92,-54.75 475.38,-49.97 470.33,-45.12"/>
</a>
</g>
</g>
<!-- Node7&#45;&gt;Node3 -->
<g id="edge31_Node000007_Node000003" class="edge">
<title>Node7&#45;&gt;Node3</title>
<g id="a_edge31_Node000007_Node000003"><a xlink:title=" ">
<path fill="none" stroke="#63b8ff" d="M287.26,-495.75C285.22,-479.56 281.41,-458.01 274.5,-440 244.65,-362.21 148.72,-349.76 185.5,-275 239.44,-165.36 381.41,-96.97 435.84,-74.08"/>
<polygon fill="#63b8ff" stroke="#63b8ff" points="283.82,-496.45 288.42,-506 290.78,-495.67 283.82,-496.45"/>
</a>
</g>
</g>
<!-- Node7&#45;&gt;Node8 -->
<g id="edge7_Node000007_Node000008" class="edge">
<title>Node7&#45;&gt;Node8</title>
<g id="a_edge7_Node000007_Node000008"><a xlink:title=" ">
<path fill="none" stroke="#63b8ff" d="M299.06,-496.29C302.24,-488.03 305.69,-478.67 308.5,-470 323.08,-425.03 336.55,-369.95 341.5,-349.07"/>
<polygon fill="#63b8ff" stroke="#63b8ff" points="295.77,-495.11 295.37,-505.69 302.28,-497.66 295.77,-495.11"/>
</a>
</g>
</g>
<!-- Node20 -->
<g id="Node000020" class="node">
<title>Node20</title>
<g id="a_Node000020"><a xlink:href="CCSDSSecondaryHeaderFactory_8h.html" target="_top" xlink:title=" ">
<polygon fill="white" stroke="#666666" points="266,-470 113,-470 113,-440 266,-440 266,-470"/>
<text text-anchor="start" x="121" y="-458" font-family="Helvetica,sans-Serif" font-size="10.00">inc/CCSDSSecondaryHeader</text>
<text text-anchor="middle" x="189.5" y="-447" font-family="Helvetica,sans-Serif" font-size="10.00">Factory.h</text>
</a>
</g>
</g>
<!-- Node7&#45;&gt;Node20 -->
<g id="edge32_Node000007_Node000020" class="edge">
<title>Node7&#45;&gt;Node20</title>
<g id="a_edge32_Node000007_Node000020"><a xlink:title=" ">
<path fill="none" stroke="#63b8ff" d="M258.72,-500.3C243.5,-490.56 225.47,-479.02 211.63,-470.16"/>
<polygon fill="#63b8ff" stroke="#63b8ff" points="257,-503.35 267.31,-505.8 260.77,-497.46 257,-503.35"/>
</a>
</g>
</g>
<!-- Node7&#45;&gt;Node21 -->
<g id="edge40_Node000007_Node000021" class="edge">
<title>Node7&#45;&gt;Node21</title>
<g id="a_edge40_Node000007_Node000021"><a xlink:title=" ">
<path fill="none" stroke="#63b8ff" d="M202.76,-509.46C169.51,-502.29 132.61,-490.24 103.5,-470 78.61,-452.69 61.36,-419.74 54.2,-404.12"/>
<polygon fill="#63b8ff" stroke="#63b8ff" points="202.45,-512.97 212.95,-511.54 203.85,-506.11 202.45,-512.97"/>
</a>
</g>
</g>
<!-- Node8&#45;&gt;Node3 -->
<g id="edge8_Node000008_Node000003" class="edge">
<title>Node8&#45;&gt;Node3</title>
<g id="a_edge8_Node000008_Node000003"><a xlink:title=" ">
<path fill="none" stroke="#63b8ff" d="M356.94,-322.01C372.05,-301.75 394.5,-265.72 394.5,-230.5 394.5,-230.5 394.5,-230.5 394.5,-173.5 394.5,-131.39 430.68,-91.08 448.2,-74.03"/>
<polygon fill="#63b8ff" stroke="#63b8ff" points="354.17,-319.87 350.81,-329.91 359.7,-324.16 354.17,-319.87"/>
</a>
</g>
</g>
<!-- Node8&#45;&gt;Node9 -->
<g id="edge9_Node000008_Node000009" class="edge">
<title>Node8&#45;&gt;Node9</title>
<g id="a_edge9_Node000008_Node000009"><a xlink:title=" ">
<path fill="none" stroke="#63b8ff" d="M410.31,-328.47C477.72,-318.35 580.52,-302.91 642.82,-293.56"/>
<polygon fill="#63b8ff" stroke="#63b8ff" points="409.59,-325.04 400.22,-329.98 410.62,-331.96 409.59,-325.04"/>
</a>
</g>
</g>
<!-- Node8&#45;&gt;Node14 -->
<g id="edge29_Node000008_Node000014" class="edge">
<title>Node8&#45;&gt;Node14</title>
<g id="a_edge29_Node000008_Node000014"><a xlink:title=" ">
<path fill="none" stroke="#63b8ff" d="M362.1,-323.09C371.77,-314.8 383.62,-304.2 393.5,-294 471.6,-213.44 554.53,-105.27 577.99,-74.18"/>
<polygon fill="#63b8ff" stroke="#63b8ff" points="359.63,-320.6 354.25,-329.72 364.15,-325.94 359.63,-320.6"/>
</a>
</g>
</g>
<!-- Node17 -->
<g id="Node000017" class="node">
<title>Node17</title>
<g id="a_Node000017"><a xlink:href="PusServices_8cpp.html" target="_top" xlink:title=" ">
<polygon fill="white" stroke="#666666" points="375,-74 262,-74 262,-55 375,-55 375,-74"/>
<text text-anchor="middle" x="318.5" y="-62" font-family="Helvetica,sans-Serif" font-size="10.00">src/PusServices.cpp</text>
</a>
</g>
</g>
<!-- Node8&#45;&gt;Node17 -->
<g id="edge30_Node000008_Node000017" class="edge">
<title>Node8&#45;&gt;Node17</title>
<g id="a_edge30_Node000008_Node000017"><a xlink:title=" ">
<path fill="none" stroke="#63b8ff" d="M341.76,-319.51C336.81,-265.44 322.77,-112.11 319.29,-74.11"/>
<polygon fill="#63b8ff" stroke="#63b8ff" points="338.3,-320.09 342.7,-329.73 345.27,-319.45 338.3,-320.09"/>
</a>
</g>
</g>
<!-- Node19 -->
<g id="Node000019" class="node">
<title>Node19</title>
<g id="a_Node000019"><a xlink:href="CCSDSDataField_8cpp.html" target="_top" xlink:title=" ">
<polygon fill="white" stroke="#666666" points="328.5,-294 194.5,-294 194.5,-275 328.5,-275 328.5,-294"/>
<text text-anchor="middle" x="261.5" y="-282" font-family="Helvetica,sans-Serif" font-size="10.00">src/CCSDSDataField.cpp</text>
</a>
</g>
</g>
<!-- Node8&#45;&gt;Node19 -->
<g id="edge28_Node000008_Node000019" class="edge">
<title>Node8&#45;&gt;Node19</title>
<g id="a_edge28_Node000008_Node000019"><a xlink:title=" ">
<path fill="none" stroke="#63b8ff" d="M321.72,-324.42C306.84,-314.81 287.59,-302.37 274.91,-294.17"/>
<polygon fill="#63b8ff" stroke="#63b8ff" points="320.03,-327.5 330.33,-329.98 323.83,-321.62 320.03,-327.5"/>
</a>
</g>
</g>
<!-- Node9&#45;&gt;Node3 -->
<g id="edge21_Node000009_Node000003" class="edge">
<title>Node9&#45;&gt;Node3</title>
<g id="a_edge21_Node000009_Node000003"><a xlink:title=" ">
<path fill="none" stroke="#63b8ff" d="M681.9,-267.04C653.07,-234.99 586.11,-162.73 522.5,-110 505.86,-96.21 485,-82.49 471.47,-74.01"/>
<polygon fill="#63b8ff" stroke="#63b8ff" points="679.41,-269.51 688.68,-274.63 684.63,-264.84 679.41,-269.51"/>
</a>
</g>
</g>
<!-- Node9&#45;&gt;Node10 -->
<g id="edge10_Node000009_Node000010" class="edge">
<title>Node9&#45;&gt;Node10</title>
<g id="a_edge10_Node000009_Node000010"><a xlink:title=" ">
<path fill="none" stroke="#63b8ff" d="M760.18,-275.25C795.15,-268.85 838.41,-257.78 873.5,-239 900.12,-224.75 924.63,-198.18 936.32,-184.36"/>
<polygon fill="#63b8ff" stroke="#63b8ff" points="759.33,-271.84 750.08,-277.01 760.53,-278.74 759.33,-271.84"/>
</a>
</g>
</g>
<!-- Node11 -->
<g id="Node000011" class="node">
<title>Node11</title>
<g id="a_Node000011"><a xlink:href="CCSDSUtils_8h.html" target="_top" xlink:title=" ">
<polygon fill="white" stroke="#666666" points="905.5,-129 807.5,-129 807.5,-110 905.5,-110 905.5,-129"/>
<text text-anchor="middle" x="856.5" y="-117" font-family="Helvetica,sans-Serif" font-size="10.00">inc/CCSDSUtils.h</text>
</a>
</g>
</g>
<!-- Node9&#45;&gt;Node11 -->
<g id="edge22_Node000009_Node000011" class="edge">
<title>Node9&#45;&gt;Node11</title>
<g id="a_edge22_Node000009_Node000011"><a xlink:title=" ">
<path fill="none" stroke="#63b8ff" d="M760.13,-279.08C788.84,-273.7 820.68,-262.4 840.5,-239 867.87,-206.68 861.78,-150.62 858.18,-129.18"/>
<polygon fill="#63b8ff" stroke="#63b8ff" points="759.41,-275.65 750.13,-280.74 760.56,-282.55 759.41,-275.65"/>
</a>
</g>
</g>
<!-- Node9&#45;&gt;Node14 -->
<g id="edge27_Node000009_Node000014" class="edge">
<title>Node9&#45;&gt;Node14</title>
<g id="a_edge27_Node000009_Node000014"><a xlink:title=" ">
<path fill="none" stroke="#63b8ff" d="M693.35,-264.64C687.07,-231.11 670.53,-159.95 636.5,-110 626.33,-95.07 609.91,-82.18 598.24,-74.17"/>
<polygon fill="#63b8ff" stroke="#63b8ff" points="689.97,-265.6 695.16,-274.83 696.86,-264.38 689.97,-265.6"/>
</a>
</g>
</g>
<!-- Node18 -->
<g id="Node000018" class="node">
<title>Node18</title>
<g id="a_Node000018"><a xlink:href="CCSDSValidator_8h.html" target="_top" xlink:title="Defines the Validator class for CCSDS packet validation.">
<polygon fill="white" stroke="#666666" points="831,-239 712,-239 712,-220 831,-220 831,-239"/>
<text text-anchor="middle" x="771.5" y="-227" font-family="Helvetica,sans-Serif" font-size="10.00">inc/CCSDSValidator.h</text>
</a>
</g>
</g>
<!-- Node9&#45;&gt;Node18 -->
<g id="edge23_Node000009_Node000018" class="edge">
<title>Node9&#45;&gt;Node18</title>
<g id="a_edge23_Node000009_Node000018"><a xlink:title=" ">
<path fill="none" stroke="#63b8ff" d="M716.81,-269.15C730.36,-259.57 747.74,-247.29 759.23,-239.17"/>
<polygon fill="#63b8ff" stroke="#63b8ff" points="714.7,-266.36 708.55,-274.98 718.74,-272.07 714.7,-266.36"/>
</a>
</g>
</g>
<!-- Node10&#45;&gt;Node3 -->
<g id="edge11_Node000010_Node000003" class="edge">
<title>Node10&#45;&gt;Node3</title>
<g id="a_edge11_Node000010_Node000003"><a xlink:title=" ">
<path fill="none" stroke="#63b8ff" d="M898.95,-162.56C845.67,-149.57 753.74,-127.47 674.5,-110 614.6,-96.79 545.1,-82.77 501.22,-74.07"/>
<polygon fill="#63b8ff" stroke="#63b8ff" points="898.21,-165.98 908.75,-164.95 899.87,-159.18 898.21,-165.98"/>
</a>
</g>
</g>
<!-- Node10&#45;&gt;Node11 -->
<g id="edge12_Node000010_Node000011" class="edge">
<title>Node10&#45;&gt;Node11</title>
<g id="a_edge12_Node000010_Node000011"><a xlink:title=" ">
<path fill="none" stroke="#63b8ff" d="M920.84,-159.7C904.99,-150.04 884.31,-137.44 870.73,-129.17"/>
<polygon fill="#63b8ff" stroke="#63b8ff" points="919.16,-162.77 929.52,-164.98 922.8,-156.79 919.16,-162.77"/>
</a>
</g>
</g>
<!-- Node13 -->
<g id="Node000013" class="node">
<title>Node13</title>
<g id="a_Node000013"><a xlink:href="CCSDSManager_8cpp.html" target="_top" xlink:title=" ">
<polygon fill="white" stroke="#666666" points="1068,-74 939,-74 939,-55 1068,-55 1068,-74"/>
<text text-anchor="middle" x="1003.5" y="-62" font-family="Helvetica,sans-Serif" font-size="10.00">src/CCSDSManager.cpp</text>
</a>
</g>
</g>
<!-- Node10&#45;&gt;Node13 -->
<g id="edge20_Node000010_Node000013" class="edge">
<title>Node10&#45;&gt;Node13</title>
<g id="a_edge20_Node000010_Node000013"><a xlink:title=" ">
<path fill="none" stroke="#63b8ff" d="M953.36,-155.76C966.4,-132.28 988.88,-91.81 998.69,-74.16"/>
<polygon fill="#63b8ff" stroke="#63b8ff" points="950.21,-154.22 948.41,-164.66 956.33,-157.62 950.21,-154.22"/>
</a>
</g>
</g>
<!-- Node11&#45;&gt;Node3 -->
<g id="edge13_Node000011_Node000003" class="edge">
<title>Node11&#45;&gt;Node3</title>
<g id="a_edge13_Node000011_Node000003"><a xlink:title=" ">
<path fill="none" stroke="#63b8ff" d="M797.42,-111C729.57,-102.34 614.95,-87.53 516.5,-74 513.32,-73.56 510.05,-73.11 506.75,-72.64"/>
<polygon fill="#63b8ff" stroke="#63b8ff" points="797.13,-114.49 807.49,-112.29 798.01,-107.55 797.13,-114.49"/>
</a>
</g>
</g>
<!-- Node12 -->
<g id="Node000012" class="node">
<title>Node12</title>
<g id="a_Node000012"><a xlink:href="CCSDSHeader_8cpp.html" target="_top" xlink:title=" ">
<polygon fill="white" stroke="#666666" points="1208.5,-74 1086.5,-74 1086.5,-55 1208.5,-55 1208.5,-74"/>
<text text-anchor="middle" x="1147.5" y="-62" font-family="Helvetica,sans-Serif" font-size="10.00">src/CCSDSHeader.cpp</text>
</a>
</g>
</g>
<!-- Node11&#45;&gt;Node12 -->
<g id="edge14_Node000011_Node000012" class="edge">
<title>Node11&#45;&gt;Node12</title>
<g id="a_edge14_Node000011_Node000012"><a xlink:title=" ">
<path fill="none" stroke="#63b8ff" d="M913.11,-108.19C967.67,-98.25 1049.26,-83.39 1100.38,-74.08"/>
<polygon fill="#63b8ff" stroke="#63b8ff" points="912.47,-104.75 903.25,-109.98 913.72,-111.64 912.47,-104.75"/>
</a>
</g>
</g>
<!-- Node11&#45;&gt;Node13 -->
<g id="edge15_Node000011_Node000013" class="edge">
<title>Node11&#45;&gt;Node13</title>
<g id="a_edge15_Node000011_Node000013"><a xlink:title=" ">
<path fill="none" stroke="#63b8ff" d="M889.64,-106.55C916.94,-96.71 955,-82.98 979.45,-74.17"/>
<polygon fill="#63b8ff" stroke="#63b8ff" points="888.34,-103.3 880.12,-109.98 890.71,-109.89 888.34,-103.3"/>
</a>
</g>
</g>
<!-- Node11&#45;&gt;Node14 -->
<g id="edge16_Node000011_Node000014" class="edge">
<title>Node11&#45;&gt;Node14</title>
<g id="a_edge16_Node000011_Node000014"><a xlink:title=" ">
<path fill="none" stroke="#63b8ff" d="M802.95,-108.07C751.95,-98.13 676.13,-83.35 628.54,-74.08"/>
<polygon fill="#63b8ff" stroke="#63b8ff" points="802.31,-111.51 812.8,-109.98 803.65,-104.64 802.31,-111.51"/>
</a>
</g>
</g>
<!-- Node15 -->
<g id="Node000015" class="node">
<title>Node15</title>
<g id="a_Node000015"><a xlink:href="CCSDSUtils_8cpp.html" target="_top" xlink:title=" ">
<polygon fill="white" stroke="#666666" points="920.5,-74 810.5,-74 810.5,-55 920.5,-55 920.5,-74"/>
<text text-anchor="middle" x="865.5" y="-62" font-family="Helvetica,sans-Serif" font-size="10.00">src/CCSDSUtils.cpp</text>
</a>
</g>
</g>
<!-- Node11&#45;&gt;Node15 -->
<g id="edge17_Node000011_Node000015" class="edge">
<title>Node11&#45;&gt;Node15</title>
<g id="a_edge17_Node000011_Node000015"><a xlink:title=" ">
<path fill="none" stroke="#63b8ff" d="M859.7,-99.66C861.18,-90.93 862.87,-80.99 864.04,-74.09"/>
<polygon fill="#63b8ff" stroke="#63b8ff" points="856.21,-99.3 857.99,-109.75 863.11,-100.48 856.21,-99.3"/>
</a>
</g>
</g>
<!-- Node16 -->
<g id="Node000016" class="node">
<title>Node16</title>
<g id="a_Node000016"><a xlink:href="CCSDSValidator_8cpp.html" target="_top" xlink:title=" ">
<polygon fill="white" stroke="#666666" points="792.5,-74 662.5,-74 662.5,-55 792.5,-55 792.5,-74"/>
<text text-anchor="middle" x="727.5" y="-62" font-family="Helvetica,sans-Serif" font-size="10.00">src/CCSDSValidator.cpp</text>
</a>
</g>
</g>
<!-- Node11&#45;&gt;Node16 -->
<g id="edge18_Node000011_Node000016" class="edge">
<title>Node11&#45;&gt;Node16</title>
<g id="a_edge18_Node000011_Node000016"><a xlink:title=" ">
<path fill="none" stroke="#63b8ff" d="M826.46,-106.16C802.58,-96.35 769.78,-82.87 748.6,-74.17"/>
<polygon fill="#63b8ff" stroke="#63b8ff" points="825.19,-109.42 835.77,-109.98 827.85,-102.95 825.19,-109.42"/>
</a>
</g>
</g>
<!-- Node11&#45;&gt;Node17 -->
<g id="edge19_Node000011_Node000017" class="edge">
<title>Node11&#45;&gt;Node17</title>
<g id="a_edge19_Node000011_Node000017"><a xlink:title=" ">
<path fill="none" stroke="#63b8ff" d="M797.5,-112.9C710.42,-104.6 542.35,-88.45 399.5,-74 391.62,-73.2 383.31,-72.35 375.14,-71.5"/>
<polygon fill="#63b8ff" stroke="#63b8ff" points="797.17,-116.38 807.46,-113.85 797.83,-109.41 797.17,-116.38"/>
</a>
</g>
</g>
<!-- Node18&#45;&gt;Node3 -->
<g id="edge25_Node000018_Node000003" class="edge">
<title>Node18&#45;&gt;Node3</title>
<g id="a_edge25_Node000018_Node000003"><a xlink:title=" ">
<path fill="none" stroke="#63b8ff" d="M748.64,-214.62C710.37,-191.63 630.61,-144.72 560.5,-110 532.92,-96.34 500.15,-82.59 479.1,-74.07"/>
<polygon fill="#63b8ff" stroke="#63b8ff" points="747.08,-217.77 757.45,-219.93 750.69,-211.77 747.08,-217.77"/>
</a>
</g>
</g>
<!-- Node18&#45;&gt;Node10 -->
<g id="edge24_Node000018_Node000010" class="edge">
<title>Node18&#45;&gt;Node10</title>
<g id="a_edge24_Node000018_Node000010"><a xlink:title=" ">
<path fill="none" stroke="#63b8ff" d="M809.06,-216.93C841.18,-207.03 886.69,-193.01 915.65,-184.08"/>
<polygon fill="#63b8ff" stroke="#63b8ff" points="807.66,-213.69 799.13,-219.98 809.72,-220.38 807.66,-213.69"/>
</a>
</g>
</g>
<!-- Node18&#45;&gt;Node16 -->
<g id="edge26_Node000018_Node000016" class="edge">
<title>Node18&#45;&gt;Node16</title>
<g id="a_edge26_Node000018_Node000016"><a xlink:title=" ">
<path fill="none" stroke="#63b8ff" d="M766.46,-209.83C756.97,-174.67 736.79,-99.9 729.88,-74.31"/>
<polygon fill="#63b8ff" stroke="#63b8ff" points="763.15,-210.99 769.13,-219.74 769.91,-209.17 763.15,-210.99"/>
</a>
</g>
</g>
<!-- Node20&#45;&gt;Node3 -->
<g id="edge34_Node000020_Node000003" class="edge">
<title>Node20&#45;&gt;Node3</title>
<g id="a_edge34_Node000020_Node000003"><a xlink:title=" ">
<path fill="none" stroke="#63b8ff" d="M178.76,-430.82C161.26,-390.85 128.5,-305.96 128.5,-230.5 128.5,-230.5 128.5,-230.5 128.5,-173.5 128.5,-115.34 316.47,-83.4 408.25,-71.27"/>
<polygon fill="#63b8ff" stroke="#63b8ff" points="175.58,-432.28 182.86,-439.98 181.97,-429.43 175.58,-432.28"/>
</a>
</g>
</g>
<!-- Node20&#45;&gt;Node8 -->
<g id="edge33_Node000020_Node000008" class="edge">
<title>Node20&#45;&gt;Node8</title>
<g id="a_edge33_Node000020_Node000008"><a xlink:title=" ">
<path fill="none" stroke="#63b8ff" d="M216.8,-433.88C250.74,-408.87 307.15,-367.29 331.6,-349.27"/>
<polygon fill="#63b8ff" stroke="#63b8ff" points="214.67,-431.1 208.69,-439.85 218.82,-436.74 214.67,-431.1"/>
</a>
</g>
</g>
<!-- Node20&#45;&gt;Node19 -->
<g id="edge39_Node000020_Node000019" class="edge">
<title>Node20&#45;&gt;Node19</title>
<g id="a_edge39_Node000020_Node000019"><a xlink:title=" ">
<path fill="none" stroke="#63b8ff" d="M199.47,-430.66C215.67,-392.74 246.99,-319.45 257.76,-294.25"/>
<polygon fill="#63b8ff" stroke="#63b8ff" points="196.23,-429.35 195.51,-439.92 202.66,-432.1 196.23,-429.35"/>
</a>
</g>
</g>
<!-- Node20&#45;&gt;Node21 -->
<g id="edge35_Node000020_Node000021" class="edge">
<title>Node20&#45;&gt;Node21</title>
<g id="a_edge35_Node000020_Node000021"><a xlink:title=" ">
<path fill="none" stroke="#63b8ff" d="M146.86,-436.05C121.67,-425.45 90.91,-412.51 71.03,-404.14"/>
<polygon fill="#63b8ff" stroke="#63b8ff" points="145.63,-439.33 156.21,-439.99 148.35,-432.88 145.63,-439.33"/>
</a>
</g>
</g>
<!-- Node21&#45;&gt;Node3 -->
<g id="edge37_Node000021_Node000003" class="edge">
<title>Node21&#45;&gt;Node3</title>
<g id="a_edge37_Node000021_Node000003"><a xlink:title=" ">
<path fill="none" stroke="#63b8ff" d="M61.18,-376.34C73.03,-355.62 90.5,-319.33 90.5,-285.5 90.5,-285.5 90.5,-285.5 90.5,-173.5 90.5,-143.33 90.84,-128.72 114.5,-110 120.22,-105.48 314.74,-82.2 408.26,-71.23"/>
<polygon fill="#63b8ff" stroke="#63b8ff" points="58.16,-374.56 56.06,-384.94 64.18,-378.14 58.16,-374.56"/>
</a>
</g>
</g>
<!-- Node21&#45;&gt;Node8 -->
<g id="edge36_Node000021_Node000008" class="edge">
<title>Node21&#45;&gt;Node8</title>
<g id="a_edge36_Node000021_Node000008"><a xlink:title=" ">
<path fill="none" stroke="#63b8ff" d="M107.5,-383.19C162.44,-373.25 244.59,-358.39 296.06,-349.08"/>
<polygon fill="#63b8ff" stroke="#63b8ff" points="106.79,-379.76 97.58,-384.98 108.04,-386.65 106.79,-379.76"/>
</a>
</g>
</g>
<!-- Node21&#45;&gt;Node17 -->
<g id="edge38_Node000021_Node000017" class="edge">
<title>Node21&#45;&gt;Node17</title>
<g id="a_edge38_Node000021_Node000017"><a xlink:title=" ">
<path fill="none" stroke="#63b8ff" d="M50.78,-374.77C51.07,-353.23 51.5,-316.81 51.5,-285.5 51.5,-285.5 51.5,-285.5 51.5,-173.5 51.5,-143.17 53.08,-129.28 76.5,-110 104.16,-87.23 199.48,-75.19 261.91,-69.6"/>
<polygon fill="#63b8ff" stroke="#63b8ff" points="47.28,-374.77 50.63,-384.82 54.28,-374.87 47.28,-374.77"/>
</a>
</g>
</g>
<!-- Node23&#45;&gt;Node3 -->
<g id="edge46_Node000023_Node000003" class="edge">
<title>Node23&#45;&gt;Node3</title>
<g id="a_edge46_Node000023_Node000003"><a xlink:title=" ">
<path fill="none" stroke="#63b8ff" d="M668.97,-323.71C658.2,-315.51 645.08,-304.8 634.5,-294 558.32,-216.19 484.11,-106.11 463.27,-74.38"/>
<polygon fill="#63b8ff" stroke="#63b8ff" points="666.91,-326.53 677.02,-329.7 671.09,-320.92 666.91,-326.53"/>
</a>
</g>
</g>
<!-- Node23&#45;&gt;Node9 -->
<g id="edge47_Node000023_Node000009" class="edge">
<title>Node23&#45;&gt;Node9</title>
<g id="a_edge47_Node000023_Node000009"><a xlink:title=" ">
<path fill="none" stroke="#63b8ff" d="M691.99,-319.66C693.14,-310.93 694.45,-300.99 695.37,-294.09"/>
<polygon fill="#63b8ff" stroke="#63b8ff" points="688.5,-319.38 690.66,-329.75 695.44,-320.29 688.5,-319.38"/>
</a>
</g>
</g>
<!-- Node23&#45;&gt;Node12 -->
<g id="edge48_Node000023_Node000012" class="edge">
<title>Node23&#45;&gt;Node12</title>
<g id="a_edge48_Node000023_Node000012"><a xlink:title=" ">
<path fill="none" stroke="#63b8ff" d="M722.28,-326.31C782.34,-303.22 912.93,-249.51 1011.5,-184 1064.44,-148.81 1118.94,-94.92 1139.23,-74.11"/>
<polygon fill="#63b8ff" stroke="#63b8ff" points="721.02,-323.04 712.92,-329.88 723.51,-329.59 721.02,-323.04"/>
</a>
</g>
</g>
<!-- Node24&#45;&gt;Node4 -->
<g id="edge55_Node000024_Node000004" class="edge">
<title>Node24&#45;&gt;Node4</title>
<g id="a_edge55_Node000024_Node000004"><a xlink:title=" ">
<path fill="none" stroke="#63b8ff" d="M1216.09,-54.84C1103.02,-39.33 982.93,-25.24 912.64,-17.23"/>
<polygon fill="#63b8ff" stroke="#63b8ff" points="1215.92,-58.35 1226.3,-56.25 1216.87,-51.42 1215.92,-58.35"/>
</a>
</g>
</g>
<!-- Node24&#45;&gt;Node5 -->
<g id="edge56_Node000024_Node000005" class="edge">
<title>Node24&#45;&gt;Node5</title>
<g id="a_edge56_Node000024_Node000005"><a xlink:title=" ">
<path fill="none" stroke="#63b8ff" d="M1233.42,-52.06C1199.59,-42.15 1151.42,-28.04 1120.81,-19.08"/>
<polygon fill="#63b8ff" stroke="#63b8ff" points="1232.84,-55.53 1243.42,-54.98 1234.81,-48.82 1232.84,-55.53"/>
</a>
</g>
</g>
<!-- Node24&#45;&gt;Node6 -->
<g id="edge58_Node000024_Node000006" class="edge">
<title>Node24&#45;&gt;Node6</title>
<g id="a_edge58_Node000024_Node000006"><a xlink:title=" ">
<path fill="none" stroke="#63b8ff" d="M1216.19,-54.96C971.88,-28.87 693.42,-16.89 571.26,-12.53"/>
<polygon fill="#63b8ff" stroke="#63b8ff" points="1216.01,-58.46 1226.33,-56.05 1216.76,-51.5 1216.01,-58.46"/>
</a>
</g>
</g>
<!-- Node25 -->
<g id="Node000025" class="node">
<title>Node25</title>
<g id="a_Node000025"><a xlink:href="exec__utils_8cpp.html" target="_top" xlink:title=" ">
<polygon fill="white" stroke="#666666" points="1324,-19 1221,-19 1221,0 1324,0 1324,-19"/>
<text text-anchor="middle" x="1272.5" y="-7" font-family="Helvetica,sans-Serif" font-size="10.00">src/exec_utils.cpp</text>
</a>
</g>
</g>
<!-- Node24&#45;&gt;Node25 -->
<g id="edge57_Node000024_Node000025" class="edge">
<title>Node24&#45;&gt;Node25</title>
<g id="a_edge57_Node000024_Node000025"><a xlink:title=" ">
<path fill="none" stroke="#63b8ff" d="M1272.5,-44.66C1272.5,-35.93 1272.5,-25.99 1272.5,-19.09"/>
<polygon fill="#63b8ff" stroke="#63b8ff" points="1269,-44.75 1272.5,-54.75 1276,-44.75 1269,-44.75"/>
</a>
</g>
</g>
</g>
</svg>
