<?xml version="1.0" encoding="UTF-8" standalone="no"?>
<!DOCTYPE svg PUBLIC "-//W3C//DTD SVG 1.1//EN"
 "http://www.w3.org/Graphics/SVG/1.1/DTD/svg11.dtd">
<!-- Generated by graphviz version 2.43.0 (0)
 -->
<!-- Title: inc/CCSDSDataField.h Pages: 1 -->
<svg width="1088pt" height="357pt"
 viewBox="0.00 0.00 1087.50 357.00" xmlns="http://www.w3.org/2000/svg" xmlns:xlink="http://www.w3.org/1999/xlink">
<g id="graph0" class="graph" transform="scale(1 1) rotate(0) translate(4 353)">
<title>inc/CCSDSDataField.h</title>
<!-- Node1 -->
<g id="Node000001" class="node">
<title>Node1</title>
<g id="a_Node000001"><a xlink:title=" ">
<polygon fill="#999999" stroke="#666666" points="903,-349 781,-349 781,-330 903,-330 903,-349"/>
<text text-anchor="middle" x="842" y="-337" font-family="Helvetica,sans-Serif" font-size="10.00">inc/CCSDSDataField.h</text>
</a>
</g>
</g>
<!-- Node2 -->
<g id="Node000002" class="node">
<title>Node2</title>
<g id="a_Node000002"><a xlink:href="CCSDSPack_8h.html" target="_top" xlink:title=" ">
<polygon fill="white" stroke="#666666" points="247,-74 149,-74 149,-55 247,-55 247,-74"/>
<text text-anchor="middle" x="198" y="-62" font-family="Helvetica,sans-Serif" font-size="10.00">inc/CCSDSPack.h</text>
</a>
</g>
</g>
<!-- Node1&#45;&gt;Node2 -->
<g id="edge1_Node000001_Node000002" class="edge">
<title>Node1&#45;&gt;Node2</title>
<g id="a_edge1_Node000001_Node000002"><a xlink:title=" ">
<path fill="none" stroke="#63b8ff" d="M770.91,-333.64C606.51,-321.45 214,-286.47 214,-230.5 214,-230.5 214,-230.5 214,-173.5 214,-136.16 204.53,-92.33 200.16,-74.12"/>
<polygon fill="#63b8ff" stroke="#63b8ff" points="770.7,-337.13 780.93,-334.37 771.21,-330.15 770.7,-337.13"/>
</a>
</g>
</g>
<!-- Node6 -->
<g id="Node000006" class="node">
<title>Node6</title>
<g id="a_Node000006"><a xlink:href="CCSDSPacket_8h.html" target="_top" xlink:title=" ">
<polygon fill="white" stroke="#666666" points="576.5,-294 469.5,-294 469.5,-275 576.5,-275 576.5,-294"/>
<text text-anchor="middle" x="523" y="-282" font-family="Helvetica,sans-Serif" font-size="10.00">inc/CCSDSPacket.h</text>
</a>
</g>
</g>
<!-- Node1&#45;&gt;Node6 -->
<g id="edge5_Node000001_Node000006" class="edge">
<title>Node1&#45;&gt;Node6</title>
<g id="a_edge5_Node000001_Node000006"><a xlink:title=" ">
<path fill="none" stroke="#63b8ff" d="M780.67,-328.31C720.76,-318.36 630.64,-303.38 574.39,-294.04"/>
<polygon fill="#63b8ff" stroke="#63b8ff" points="780.31,-331.8 790.75,-329.98 781.46,-324.89 780.31,-331.8"/>
</a>
</g>
</g>
<!-- Node11 -->
<g id="Node000011" class="node">
<title>Node11</title>
<g id="a_Node000011"><a xlink:href="CCSDSPacket_8cpp.html" target="_top" xlink:title=" ">
<polygon fill="white" stroke="#666666" points="948.5,-74 829.5,-74 829.5,-55 948.5,-55 948.5,-74"/>
<text text-anchor="middle" x="889" y="-62" font-family="Helvetica,sans-Serif" font-size="10.00">src/CCSDSPacket.cpp</text>
</a>
</g>
</g>
<!-- Node1&#45;&gt;Node11 -->
<g id="edge25_Node000001_Node000011" class="edge">
<title>Node1&#45;&gt;Node11</title>
<g id="a_edge25_Node000001_Node000011"><a xlink:title=" ">
<path fill="none" stroke="#63b8ff" d="M842,-319.77C842,-298.23 842,-261.81 842,-230.5 842,-230.5 842,-230.5 842,-173.5 842,-133.63 869.27,-91.83 882.27,-74.18"/>
<polygon fill="#63b8ff" stroke="#63b8ff" points="838.5,-319.82 842,-329.82 845.5,-319.82 838.5,-319.82"/>
</a>
</g>
</g>
<!-- Node14 -->
<g id="Node000014" class="node">
<title>Node14</title>
<g id="a_Node000014"><a xlink:href="PusServices_8cpp.html" target="_top" xlink:title=" ">
<polygon fill="white" stroke="#666666" points="1079.5,-74 966.5,-74 966.5,-55 1079.5,-55 1079.5,-74"/>
<text text-anchor="middle" x="1023" y="-62" font-family="Helvetica,sans-Serif" font-size="10.00">src/PusServices.cpp</text>
</a>
</g>
</g>
<!-- Node1&#45;&gt;Node14 -->
<g id="edge26_Node000001_Node000014" class="edge">
<title>Node1&#45;&gt;Node14</title>
<g id="a_edge26_Node000001_Node000014"><a xlink:title=" ">
<path fill="none" stroke="#63b8ff" d="M852.3,-320.99C863.55,-300.16 880,-263.98 880,-230.5 880,-230.5 880,-230.5 880,-173.5 880,-118.12 949.13,-87.54 991.26,-74.05"/>
<polygon fill="#63b8ff" stroke="#63b8ff" points="849.13,-319.47 847.28,-329.9 855.24,-322.9 849.13,-319.47"/>
</a>
</g>
</g>
<!-- Node16 -->
<g id="Node000016" class="node">
<title>Node16</title>
<g id="a_Node000016"><a xlink:href="CCSDSDataField_8cpp.html" target="_top" xlink:title=" ">
<polygon fill="white" stroke="#666666" points="1042,-294 908,-294 908,-275 1042,-275 1042,-294"/>
<text text-anchor="middle" x="975" y="-282" font-family="Helvetica,sans-Serif" font-size="10.00">src/CCSDSDataField.cpp</text>
</a>
</g>
</g>
<!-- Node1&#45;&gt;Node16 -->
<g id="edge24_Node000001_Node000016" class="edge">
<title>Node1&#45;&gt;Node16</title>
<g id="a_edge24_Node000001_Node000016"><a xlink:title=" ">
<path fill="none" stroke="#63b8ff" d="M872.97,-326.16C897.59,-316.35 931.41,-302.87 953.24,-294.17"/>
<polygon fill="#63b8ff" stroke="#63b8ff" points="871.36,-323.03 863.37,-329.98 873.95,-329.53 871.36,-323.03"/>
</a>
</g>
</g>
<!-- Node3 -->
<g id="Node000003" class="node">
<title>Node3</title>
<g id="a_Node000003"><a xlink:href="exec__decoder_8cpp.html" target="_top" xlink:title=" ">
<polygon fill="white" stroke="#666666" points="120,-19 0,-19 0,0 120,0 120,-19"/>
<text text-anchor="middle" x="60" y="-7" font-family="Helvetica,sans-Serif" font-size="10.00">src/exec_decoder.cpp</text>
</a>
</g>
</g>
<!-- Node2&#45;&gt;Node3 -->
<g id="edge2_Node000002_Node000003" class="edge">
<title>Node2&#45;&gt;Node3</title>
<g id="a_edge2_Node000002_Node000003"><a xlink:title=" ">
<path fill="none" stroke="#63b8ff" d="M166.21,-51.29C140.63,-41.47 105.33,-27.91 82.58,-19.17"/>
<polygon fill="#63b8ff" stroke="#63b8ff" points="165.24,-54.67 175.83,-54.98 167.75,-48.13 165.24,-54.67"/>
</a>
</g>
</g>
<!-- Node4 -->
<g id="Node000004" class="node">
<title>Node4</title>
<g id="a_Node000004"><a xlink:href="exec__encoder_8cpp.html" target="_top" xlink:title=" ">
<polygon fill="white" stroke="#666666" points="258,-19 138,-19 138,0 258,0 258,-19"/>
<text text-anchor="middle" x="198" y="-7" font-family="Helvetica,sans-Serif" font-size="10.00">src/exec_encoder.cpp</text>
</a>
</g>
</g>
<!-- Node2&#45;&gt;Node4 -->
<g id="edge3_Node000002_Node000004" class="edge">
<title>Node2&#45;&gt;Node4</title>
<g id="a_edge3_Node000002_Node000004"><a xlink:title=" ">
<path fill="none" stroke="#63b8ff" d="M198,-44.66C198,-35.93 198,-25.99 198,-19.09"/>
<polygon fill="#63b8ff" stroke="#63b8ff" points="194.5,-44.75 198,-54.75 201.5,-44.75 194.5,-44.75"/>
</a>
</g>
</g>
<!-- Node5 -->
<g id="Node000005" class="node">
<title>Node5</title>
<g id="a_Node000005"><a xlink:href="exec__validator_8cpp.html" target="_top" xlink:title=" ">
<polygon fill="white" stroke="#666666" points="401.5,-19 276.5,-19 276.5,0 401.5,0 401.5,-19"/>
<text text-anchor="middle" x="339" y="-7" font-family="Helvetica,sans-Serif" font-size="10.00">src/exec_validator.cpp</text>
</a>
</g>
</g>
<!-- Node2&#45;&gt;Node5 -->
<g id="edge4_Node000002_Node000005" class="edge">
<title>Node2&#45;&gt;Node5</title>
<g id="a_edge4_Node000002_Node000005"><a xlink:title=" ">
<path fill="none" stroke="#63b8ff" d="M230.14,-51.42C256.29,-41.59 292.59,-27.95 315.93,-19.17"/>
<polygon fill="#63b8ff" stroke="#63b8ff" points="228.78,-48.19 220.65,-54.98 231.25,-54.74 228.78,-48.19"/>
</a>
</g>
</g>
<!-- Node6&#45;&gt;Node2 -->
<g id="edge17_Node000006_Node000002" class="edge">
<title>Node6&#45;&gt;Node2</title>
<g id="a_edge17_Node000006_Node000002"><a xlink:title=" ">
<path fill="none" stroke="#63b8ff" d="M459.25,-280.59C418.08,-276.1 364.94,-265.17 325,-239 307.83,-227.75 226.38,-107.7 203.81,-74.16"/>
<polygon fill="#63b8ff" stroke="#63b8ff" points="459.15,-284.1 469.44,-281.6 459.84,-277.14 459.15,-284.1"/>
</a>
</g>
</g>
<!-- Node7 -->
<g id="Node000007" class="node">
<title>Node7</title>
<g id="a_Node000007"><a xlink:href="CCSDSManager_8h.html" target="_top" xlink:title=" ">
<polygon fill="white" stroke="#666666" points="519,-184 401,-184 401,-165 519,-165 519,-184"/>
<text text-anchor="middle" x="460" y="-172" font-family="Helvetica,sans-Serif" font-size="10.00">inc/CCSDSManager.h</text>
</a>
</g>
</g>
<!-- Node6&#45;&gt;Node7 -->
<g id="edge6_Node000006_Node000007" class="edge">
<title>Node6&#45;&gt;Node7</title>
<g id="a_edge6_Node000006_Node000007"><a xlink:title=" ">
<path fill="none" stroke="#63b8ff" d="M512.65,-265.76C498.96,-242.28 475.35,-201.81 465.05,-184.16"/>
<polygon fill="#63b8ff" stroke="#63b8ff" points="509.78,-267.79 517.84,-274.66 515.83,-264.26 509.78,-267.79"/>
</a>
</g>
</g>
<!-- Node8 -->
<g id="Node000008" class="node">
<title>Node8</title>
<g id="a_Node000008"><a xlink:href="CCSDSUtils_8h.html" target="_top" xlink:title=" ">
<polygon fill="white" stroke="#666666" points="596,-129 498,-129 498,-110 596,-110 596,-129"/>
<text text-anchor="middle" x="547" y="-117" font-family="Helvetica,sans-Serif" font-size="10.00">inc/CCSDSUtils.h</text>
</a>
</g>
</g>
<!-- Node6&#45;&gt;Node8 -->
<g id="edge18_Node000006_Node000008" class="edge">
<title>Node6&#45;&gt;Node8</title>
<g id="a_edge18_Node000006_Node000008"><a xlink:title=" ">
<path fill="none" stroke="#63b8ff" d="M525.75,-264.83C530.93,-229.67 541.93,-154.9 545.7,-129.31"/>
<polygon fill="#63b8ff" stroke="#63b8ff" points="522.28,-264.33 524.29,-274.74 529.21,-265.35 522.28,-264.33"/>
</a>
</g>
</g>
<!-- Node6&#45;&gt;Node11 -->
<g id="edge23_Node000006_Node000011" class="edge">
<title>Node6&#45;&gt;Node11</title>
<g id="a_edge23_Node000006_Node000011"><a xlink:title=" ">
<path fill="none" stroke="#63b8ff" d="M546.17,-269.7C615.17,-228.6 818.04,-107.77 874.35,-74.22"/>
<polygon fill="#63b8ff" stroke="#63b8ff" points="544.15,-266.83 537.35,-274.95 547.73,-272.84 544.15,-266.83"/>
</a>
</g>
</g>
<!-- Node15 -->
<g id="Node000015" class="node">
<title>Node15</title>
<g id="a_Node000015"><a xlink:href="CCSDSValidator_8h.html" target="_top" xlink:title="Defines the Validator class for CCSDS packet validation.">
<polygon fill="white" stroke="#666666" points="453.5,-239 334.5,-239 334.5,-220 453.5,-220 453.5,-239"/>
<text text-anchor="middle" x="394" y="-227" font-family="Helvetica,sans-Serif" font-size="10.00">inc/CCSDSValidator.h</text>
</a>
</g>
</g>
<!-- Node6&#45;&gt;Node15 -->
<g id="edge19_Node000006_Node000015" class="edge">
<title>Node6&#45;&gt;Node15</title>
<g id="a_edge19_Node000006_Node000015"><a xlink:title=" ">
<path fill="none" stroke="#63b8ff" d="M492.96,-271.16C469.08,-261.35 436.28,-247.87 415.1,-239.17"/>
<polygon fill="#63b8ff" stroke="#63b8ff" points="491.69,-274.42 502.27,-274.98 494.35,-267.95 491.69,-274.42"/>
</a>
</g>
</g>
<!-- Node7&#45;&gt;Node2 -->
<g id="edge7_Node000007_Node000002" class="edge">
<title>Node7&#45;&gt;Node2</title>
<g id="a_edge7_Node000007_Node000002"><a xlink:title=" ">
<path fill="none" stroke="#63b8ff" d="M432.27,-160.59C403.62,-147.4 357.49,-126.54 317,-110 284.53,-96.74 246.49,-82.78 222.32,-74.11"/>
<polygon fill="#63b8ff" stroke="#63b8ff" points="431.1,-163.91 441.64,-164.92 434.03,-157.55 431.1,-163.91"/>
</a>
</g>
</g>
<!-- Node7&#45;&gt;Node8 -->
<g id="edge8_Node000007_Node000008" class="edge">
<title>Node7&#45;&gt;Node8</title>
<g id="a_edge8_Node000007_Node000008"><a xlink:title=" ">
<path fill="none" stroke="#63b8ff" d="M482.66,-159.7C498.51,-150.04 519.19,-137.44 532.77,-129.17"/>
<polygon fill="#63b8ff" stroke="#63b8ff" points="480.7,-156.79 473.98,-164.98 484.34,-162.77 480.7,-156.79"/>
</a>
</g>
</g>
<!-- Node10 -->
<g id="Node000010" class="node">
<title>Node10</title>
<g id="a_Node000010"><a xlink:href="CCSDSManager_8cpp.html" target="_top" xlink:title=" ">
<polygon fill="white" stroke="#666666" points="542.5,-74 413.5,-74 413.5,-55 542.5,-55 542.5,-74"/>
<text text-anchor="middle" x="478" y="-62" font-family="Helvetica,sans-Serif" font-size="10.00">src/CCSDSManager.cpp</text>
</a>
</g>
</g>
<!-- Node7&#45;&gt;Node10 -->
<g id="edge16_Node000007_Node000010" class="edge">
<title>Node7&#45;&gt;Node10</title>
<g id="a_edge16_Node000007_Node000010"><a xlink:title=" ">
<path fill="none" stroke="#63b8ff" d="M463.17,-154.48C467.11,-130.84 473.67,-91.5 476.56,-74.16"/>
<polygon fill="#63b8ff" stroke="#63b8ff" points="459.66,-154.22 461.47,-164.66 466.57,-155.37 459.66,-154.22"/>
</a>
</g>
</g>
<!-- Node8&#45;&gt;Node2 -->
<g id="edge9_Node000008_Node000002" class="edge">
<title>Node8&#45;&gt;Node2</title>
<g id="a_edge9_Node000008_Node000002"><a xlink:title=" ">
<path fill="none" stroke="#63b8ff" d="M487.64,-109.49C419.84,-99.19 310.16,-82.53 247.01,-72.94"/>
<polygon fill="#63b8ff" stroke="#63b8ff" points="487.32,-112.98 497.74,-111.02 488.38,-106.06 487.32,-112.98"/>
</a>
</g>
</g>
<!-- Node9 -->
<g id="Node000009" class="node">
<title>Node9</title>
<g id="a_Node000009"><a xlink:href="CCSDSHeader_8cpp.html" target="_top" xlink:title=" ">
<polygon fill="white" stroke="#666666" points="811,-74 689,-74 689,-55 811,-55 811,-74"/>
<text text-anchor="middle" x="750" y="-62" font-family="Helvetica,sans-Serif" font-size="10.00">src/CCSDSHeader.cpp</text>
</a>
</g>
</g>
<!-- Node8&#45;&gt;Node9 -->
<g id="edge10_Node000008_Node000009" class="edge">
<title>Node8&#45;&gt;Node9</title>
<g id="a_edge10_Node000008_Node000009"><a xlink:title=" ">
<path fill="none" stroke="#63b8ff" d="M589.37,-107.44C627.37,-97.52 682.36,-83.16 717.13,-74.08"/>
<polygon fill="#63b8ff" stroke="#63b8ff" points="588.41,-104.07 579.62,-109.98 590.18,-110.84 588.41,-104.07"/>
</a>
</g>
</g>
<!-- Node8&#45;&gt;Node10 -->
<g id="edge11_Node000008_Node000010" class="edge">
<title>Node8&#45;&gt;Node10</title>
<g id="a_edge11_Node000008_Node000010"><a xlink:title=" ">
<path fill="none" stroke="#63b8ff" d="M527.96,-103.88C515.54,-94.34 499.76,-82.21 489.29,-74.17"/>
<polygon fill="#63b8ff" stroke="#63b8ff" points="525.85,-106.67 535.91,-109.98 530.12,-101.12 525.85,-106.67"/>
</a>
</g>
</g>
<!-- Node8&#45;&gt;Node11 -->
<g id="edge12_Node000008_Node000011" class="edge">
<title>Node8&#45;&gt;Node11</title>
<g id="a_edge12_Node000008_Node000011"><a xlink:title=" ">
<path fill="none" stroke="#63b8ff" d="M605.96,-109.36C670.06,-99.43 771.7,-83.68 834.15,-74"/>
<polygon fill="#63b8ff" stroke="#63b8ff" points="605.35,-105.92 596,-110.91 606.42,-112.83 605.35,-105.92"/>
</a>
</g>
</g>
<!-- Node12 -->
<g id="Node000012" class="node">
<title>Node12</title>
<g id="a_Node000012"><a xlink:href="CCSDSUtils_8cpp.html" target="_top" xlink:title=" ">
<polygon fill="white" stroke="#666666" points="671,-74 561,-74 561,-55 671,-55 671,-74"/>
<text text-anchor="middle" x="616" y="-62" font-family="Helvetica,sans-Serif" font-size="10.00">src/CCSDSUtils.cpp</text>
</a>
</g>
</g>
<!-- Node8&#45;&gt;Node12 -->
<g id="edge13_Node000008_Node000012" class="edge">
<title>Node8&#45;&gt;Node12</title>
<g id="a_edge13_Node000008_Node000012"><a xlink:title=" ">
<path fill="none" stroke="#63b8ff" d="M566.04,-103.88C578.46,-94.34 594.24,-82.21 604.71,-74.17"/>
<polygon fill="#63b8ff" stroke="#63b8ff" points="563.88,-101.12 558.09,-109.98 568.15,-106.67 563.88,-101.12"/>
</a>
</g>
</g>
<!-- Node13 -->
<g id="Node000013" class="node">
<title>Node13</title>
<g id="a_Node000013"><a xlink:href="CCSDSValidator_8cpp.html" target="_top" xlink:title=" ">
<polygon fill="white" stroke="#666666" points="395,-74 265,-74 265,-55 395,-55 395,-74"/>
<text text-anchor="middle" x="330" y="-62" font-family="Helvetica,sans-Serif" font-size="10.00">src/CCSDSValidator.cpp</text>
</a>
</g>
</g>
<!-- Node8&#45;&gt;Node13 -->
<g id="edge14_Node000008_Node000013" class="edge">
<title>Node8&#45;&gt;Node13</title>
<g id="a_edge14_Node000008_Node000013"><a xlink:title=" ">
<path fill="none" stroke="#63b8ff" d="M502.23,-107.56C461.58,-97.64 402.47,-83.2 365.14,-74.08"/>
<polygon fill="#63b8ff" stroke="#63b8ff" points="501.59,-111.01 512.14,-109.98 503.25,-104.21 501.59,-111.01"/>
</a>
</g>
</g>
<!-- Node8&#45;&gt;Node14 -->
<g id="edge15_Node000008_Node000014" class="edge">
<title>Node8&#45;&gt;Node14</title>
<g id="a_edge15_Node000008_Node000014"><a xlink:title=" ">
<path fill="none" stroke="#63b8ff" d="M606.43,-112.48C686.39,-104.29 833.02,-88.94 958,-74 960.71,-73.68 963.49,-73.34 966.29,-72.99"/>
<polygon fill="#63b8ff" stroke="#63b8ff" points="605.66,-109.04 596.07,-113.54 606.38,-116.01 605.66,-109.04"/>
</a>
</g>
</g>
<!-- Node15&#45;&gt;Node2 -->
<g id="edge21_Node000015_Node000002" class="edge">
<title>Node15&#45;&gt;Node2</title>
<g id="a_edge21_Node000015_Node000002"><a xlink:title=" ">
<path fill="none" stroke="#63b8ff" d="M380.06,-212.13C358.94,-187.94 316.85,-142.05 275,-110 256,-95.45 231.78,-82.2 215.63,-74.02"/>
<polygon fill="#63b8ff" stroke="#63b8ff" points="377.67,-214.71 386.85,-219.99 382.96,-210.14 377.67,-214.71"/>
</a>
</g>
</g>
<!-- Node15&#45;&gt;Node7 -->
<g id="edge20_Node000015_Node000007" class="edge">
<title>Node15&#45;&gt;Node7</title>
<g id="a_edge20_Node000015_Node000007"><a xlink:title=" ">
<path fill="none" stroke="#63b8ff" d="M412.55,-213.6C424.38,-204.11 439.29,-192.13 449.2,-184.17"/>
<polygon fill="#63b8ff" stroke="#63b8ff" points="410.21,-210.99 404.6,-219.98 414.59,-216.45 410.21,-210.99"/>
</a>
</g>
</g>
<!-- Node15&#45;&gt;Node13 -->
<g id="edge22_Node000015_Node000013" class="edge">
<title>Node15&#45;&gt;Node13</title>
<g id="a_edge22_Node000015_Node000013"><a xlink:title=" ">
<path fill="none" stroke="#63b8ff" d="M386.85,-210.28C373.12,-175.32 343.55,-100.01 333.46,-74.31"/>
<polygon fill="#63b8ff" stroke="#63b8ff" points="383.65,-211.71 390.56,-219.74 390.16,-209.15 383.65,-211.71"/>
</a>
</g>
</g>
</g>
</svg>
