<?xml version="1.0" encoding="UTF-8" standalone="no"?>
<!DOCTYPE svg PUBLIC "-//W3C//DTD SVG 1.1//EN"
 "http://www.w3.org/Graphics/SVG/1.1/DTD/svg11.dtd">
<!-- Generated by graphviz version 2.43.0 (0)
 -->
<!-- Title: inc/CCSDSValidator.h Pages: 1 -->
<svg width="730pt" height="467pt"
 viewBox="0.00 0.00 730.45 467.00" xmlns="http://www.w3.org/2000/svg" xmlns:xlink="http://www.w3.org/1999/xlink">
<g id="graph0" class="graph" transform="scale(1 1) rotate(0) translate(4 463)">
<title>inc/CCSDSValidator.h</title>
<!-- Node1 -->
<g id="Node000001" class="node">
<title>Node1</title>
<g id="a_Node000001"><a xlink:title="Defines the Validator class for CCSDS packet validation.">
<polygon fill="#999999" stroke="#666666" points="529.95,-459 410.95,-459 410.95,-440 529.95,-440 529.95,-459"/>
<text text-anchor="middle" x="470.45" y="-447" font-family="Helvetica,sans-Serif" font-size="10.00">inc/CCSDSValidator.h</text>
</a>
</g>
</g>
<!-- Node2 -->
<g id="Node000002" class="node">
<title>Node2</title>
<g id="a_Node000002"><a xlink:href="CCSDSPacket_8h.html" target="_top" xlink:title=" ">
<polygon fill="white" stroke="#666666" points="515.45,-404 425.45,-404 425.45,-385 515.45,-385 515.45,-404"/>
<text text-anchor="middle" x="470.45" y="-392" font-family="Helvetica,sans-Serif" font-size="10.00">CCSDSPacket.h</text>
</a>
</g>
</g>
<!-- Node1&#45;&gt;Node2 -->
<g id="edge1_Node000001_Node000002" class="edge">
<title>Node1&#45;&gt;Node2</title>
<g id="a_edge1_Node000001_Node000002"><a xlink:title=" ">
<path fill="none" stroke="#63b8ff" d="M470.45,-439.75C470.45,-432.8 470.45,-422.85 470.45,-414.13"/>
<polygon fill="#63b8ff" stroke="#63b8ff" points="473.95,-414.09 470.45,-404.09 466.95,-414.09 473.95,-414.09"/>
</a>
</g>
</g>
<!-- Node3 -->
<g id="Node000003" class="node">
<title>Node3</title>
<g id="a_Node000003"><a xlink:href="CCSDSResult_8h.html" target="_top" xlink:title=" ">
<polygon fill="white" stroke="#666666" points="394.95,-74 305.95,-74 305.95,-55 394.95,-55 394.95,-74"/>
<text text-anchor="middle" x="350.45" y="-62" font-family="Helvetica,sans-Serif" font-size="10.00">CCSDSResult.h</text>
</a>
</g>
</g>
<!-- Node2&#45;&gt;Node3 -->
<g id="edge2_Node000002_Node000003" class="edge">
<title>Node2&#45;&gt;Node3</title>
<g id="a_edge2_Node000002_Node000003"><a xlink:title=" ">
<path fill="none" stroke="#63b8ff" d="M425.39,-392.67C307.75,-389.29 0.45,-372.15 0.45,-285.5 0.45,-285.5 0.45,-285.5 0.45,-228.5 0.45,-199.04 -1.36,-185.84 19.45,-165 58.43,-125.97 212.11,-91.69 295.66,-75.46"/>
<polygon fill="#63b8ff" stroke="#63b8ff" points="296.58,-78.85 305.74,-73.52 295.26,-71.97 296.58,-78.85"/>
</a>
</g>
</g>
<!-- Node6 -->
<g id="Node000006" class="node">
<title>Node6</title>
<g id="a_Node000006"><a xlink:title=" ">
<polygon fill="#e0e0e0" stroke="#999999" points="650.95,-19 603.95,-19 603.95,0 650.95,0 650.95,-19"/>
<text text-anchor="middle" x="627.45" y="-7" font-family="Helvetica,sans-Serif" font-size="10.00">vector</text>
</a>
</g>
</g>
<!-- Node2&#45;&gt;Node6 -->
<g id="edge8_Node000002_Node000006" class="edge">
<title>Node2&#45;&gt;Node6</title>
<g id="a_edge8_Node000002_Node000006"><a xlink:title=" ">
<path fill="none" stroke="#63b8ff" d="M515.51,-393.59C587.99,-391.11 722.45,-374.51 722.45,-285.5 722.45,-285.5 722.45,-285.5 722.45,-118.5 722.45,-75.91 680.29,-42.14 652.15,-24.33"/>
<polygon fill="#63b8ff" stroke="#63b8ff" points="653.93,-21.32 643.57,-19.12 650.3,-27.31 653.93,-21.32"/>
</a>
</g>
</g>
<!-- Node9 -->
<g id="Node000009" class="node">
<title>Node9</title>
<g id="a_Node000009"><a xlink:href="CCSDSHeader_8h.html" target="_top" xlink:title=" ">
<polygon fill="white" stroke="#666666" points="617.95,-129 524.95,-129 524.95,-110 617.95,-110 617.95,-129"/>
<text text-anchor="middle" x="571.45" y="-117" font-family="Helvetica,sans-Serif" font-size="10.00">CCSDSHeader.h</text>
</a>
</g>
</g>
<!-- Node2&#45;&gt;Node9 -->
<g id="edge9_Node000002_Node000009" class="edge">
<title>Node2&#45;&gt;Node9</title>
<g id="a_edge9_Node000002_Node000009"><a xlink:title=" ">
<path fill="none" stroke="#63b8ff" d="M493.59,-384.91C528.46,-370.3 590.45,-337.07 590.45,-285.5 590.45,-285.5 590.45,-285.5 590.45,-228.5 590.45,-196.56 582.3,-160.1 576.67,-138.77"/>
<polygon fill="#63b8ff" stroke="#63b8ff" points="580.04,-137.81 574.02,-129.09 573.29,-139.66 580.04,-137.81"/>
</a>
</g>
</g>
<!-- Node10 -->
<g id="Node000010" class="node">
<title>Node10</title>
<g id="a_Node000010"><a xlink:href="CCSDSDataField_8h.html" target="_top" xlink:title=" ">
<polygon fill="white" stroke="#666666" points="399.95,-349 294.95,-349 294.95,-330 399.95,-330 399.95,-349"/>
<text text-anchor="middle" x="347.45" y="-337" font-family="Helvetica,sans-Serif" font-size="10.00">CCSDSDataField.h</text>
</a>
</g>
</g>
<!-- Node2&#45;&gt;Node10 -->
<g id="edge13_Node000002_Node000010" class="edge">
<title>Node2&#45;&gt;Node10</title>
<g id="a_edge13_Node000002_Node000010"><a xlink:title=" ">
<path fill="none" stroke="#63b8ff" d="M450.69,-384.98C430.73,-376.38 399.65,-362.99 376.81,-353.15"/>
<polygon fill="#63b8ff" stroke="#63b8ff" points="378.14,-349.91 367.58,-349.17 375.37,-356.34 378.14,-349.91"/>
</a>
</g>
</g>
<!-- Node4 -->
<g id="Node000004" class="node">
<title>Node4</title>
<g id="a_Node000004"><a xlink:title=" ">
<polygon fill="#e0e0e0" stroke="#999999" points="196.95,-19 103.95,-19 103.95,0 196.95,0 196.95,-19"/>
<text text-anchor="middle" x="150.45" y="-7" font-family="Helvetica,sans-Serif" font-size="10.00">unordered_map</text>
</a>
</g>
</g>
<!-- Node3&#45;&gt;Node4 -->
<g id="edge3_Node000003_Node000004" class="edge">
<title>Node3&#45;&gt;Node4</title>
<g id="a_edge3_Node000003_Node000004"><a xlink:title=" ">
<path fill="none" stroke="#63b8ff" d="M318.32,-54.98C284.31,-45.97 230.46,-31.7 192.95,-21.76"/>
<polygon fill="#63b8ff" stroke="#63b8ff" points="193.4,-18.26 182.84,-19.08 191.61,-25.03 193.4,-18.26"/>
</a>
</g>
</g>
<!-- Node5 -->
<g id="Node000005" class="node">
<title>Node5</title>
<g id="a_Node000005"><a xlink:title=" ">
<polygon fill="#e0e0e0" stroke="#999999" points="414.95,-19 363.95,-19 363.95,0 414.95,0 414.95,-19"/>
<text text-anchor="middle" x="389.45" y="-7" font-family="Helvetica,sans-Serif" font-size="10.00">variant</text>
</a>
</g>
</g>
<!-- Node3&#45;&gt;Node5 -->
<g id="edge4_Node000003_Node000005" class="edge">
<title>Node3&#45;&gt;Node5</title>
<g id="a_edge4_Node000003_Node000005"><a xlink:title=" ">
<path fill="none" stroke="#63b8ff" d="M356.89,-54.75C362.35,-47.34 370.32,-36.5 377.01,-27.41"/>
<polygon fill="#63b8ff" stroke="#63b8ff" points="380.03,-29.22 383.13,-19.09 374.39,-25.07 380.03,-29.22"/>
</a>
</g>
</g>
<!-- Node3&#45;&gt;Node6 -->
<g id="edge5_Node000003_Node000006" class="edge">
<title>Node3&#45;&gt;Node6</title>
<g id="a_edge5_Node000003_Node000006"><a xlink:title=" ">
<path fill="none" stroke="#63b8ff" d="M394.96,-54.98C450.5,-44.36 544.22,-26.43 594.02,-16.9"/>
<polygon fill="#63b8ff" stroke="#63b8ff" points="594.78,-20.31 603.95,-15 593.47,-13.44 594.78,-20.31"/>
</a>
</g>
</g>
<!-- Node7 -->
<g id="Node000007" class="node">
<title>Node7</title>
<g id="a_Node000007"><a xlink:title=" ">
<polygon fill="#e0e0e0" stroke="#999999" points="519.45,-19 469.45,-19 469.45,0 519.45,0 519.45,-19"/>
<text text-anchor="middle" x="494.45" y="-7" font-family="Helvetica,sans-Serif" font-size="10.00">cstdint</text>
</a>
</g>
</g>
<!-- Node3&#45;&gt;Node7 -->
<g id="edge6_Node000003_Node000007" class="edge">
<title>Node3&#45;&gt;Node7</title>
<g id="a_edge6_Node000003_Node000007"><a xlink:title=" ">
<path fill="none" stroke="#63b8ff" d="M373.59,-54.98C397.28,-46.27 434.32,-32.63 461.16,-22.75"/>
<polygon fill="#63b8ff" stroke="#63b8ff" points="462.72,-25.91 470.9,-19.17 460.3,-19.34 462.72,-25.91"/>
</a>
</g>
</g>
<!-- Node8 -->
<g id="Node000008" class="node">
<title>Node8</title>
<g id="a_Node000008"><a xlink:title=" ">
<polygon fill="#e0e0e0" stroke="#999999" points="345.45,-19 285.45,-19 285.45,0 345.45,0 345.45,-19"/>
<text text-anchor="middle" x="315.45" y="-7" font-family="Helvetica,sans-Serif" font-size="10.00">iostream</text>
</a>
</g>
</g>
<!-- Node3&#45;&gt;Node8 -->
<g id="edge7_Node000003_Node000008" class="edge">
<title>Node3&#45;&gt;Node8</title>
<g id="a_edge7_Node000003_Node000008"><a xlink:title=" ">
<path fill="none" stroke="#63b8ff" d="M344.67,-54.75C339.83,-47.42 332.78,-36.73 326.81,-27.7"/>
<polygon fill="#63b8ff" stroke="#63b8ff" points="329.56,-25.5 321.13,-19.09 323.72,-29.36 329.56,-25.5"/>
</a>
</g>
</g>
<!-- Node9&#45;&gt;Node3 -->
<g id="edge10_Node000009_Node000003" class="edge">
<title>Node9&#45;&gt;Node3</title>
<g id="a_edge10_Node000009_Node000003"><a xlink:title=" ">
<path fill="none" stroke="#63b8ff" d="M535.95,-109.98C497.96,-100.87 437.59,-86.4 396.09,-76.45"/>
<polygon fill="#63b8ff" stroke="#63b8ff" points="396.78,-73.01 386.24,-74.08 395.15,-79.82 396.78,-73.01"/>
</a>
</g>
</g>
<!-- Node9&#45;&gt;Node6 -->
<g id="edge12_Node000009_Node000006" class="edge">
<title>Node9&#45;&gt;Node6</title>
<g id="a_edge12_Node000009_Node000006"><a xlink:title=" ">
<path fill="none" stroke="#63b8ff" d="M576.04,-109.66C585.23,-91.93 606.08,-51.73 618.21,-28.32"/>
<polygon fill="#63b8ff" stroke="#63b8ff" points="621.47,-29.65 622.96,-19.16 615.25,-26.42 621.47,-29.65"/>
</a>
</g>
</g>
<!-- Node9&#45;&gt;Node7 -->
<g id="edge11_Node000009_Node000007" class="edge">
<title>Node9&#45;&gt;Node7</title>
<g id="a_edge11_Node000009_Node000007"><a xlink:title=" ">
<path fill="none" stroke="#63b8ff" d="M565.15,-109.66C552.34,-91.69 523.07,-50.64 506.49,-27.38"/>
<polygon fill="#63b8ff" stroke="#63b8ff" points="509.28,-25.27 500.63,-19.16 503.58,-29.33 509.28,-25.27"/>
</a>
</g>
</g>
<!-- Node10&#45;&gt;Node3 -->
<g id="edge14_Node000010_Node000003" class="edge">
<title>Node10&#45;&gt;Node3</title>
<g id="a_edge14_Node000010_Node000003"><a xlink:title=" ">
<path fill="none" stroke="#63b8ff" d="M333.99,-329.77C322.55,-321.72 306.44,-308.81 296.45,-294 279.75,-269.24 274.45,-260.37 274.45,-230.5 274.45,-230.5 274.45,-230.5 274.45,-173.5 274.45,-134.47 308.07,-99.58 330.59,-80.6"/>
<polygon fill="#63b8ff" stroke="#63b8ff" points="333.01,-83.14 338.58,-74.12 328.61,-77.7 333.01,-83.14"/>
</a>
</g>
</g>
<!-- Node10&#45;&gt;Node6 -->
<g id="edge15_Node000010_Node000006" class="edge">
<title>Node10&#45;&gt;Node6</title>
<g id="a_edge15_Node000010_Node000006"><a xlink:title=" ">
<path fill="none" stroke="#63b8ff" d="M400.11,-332.68C494.89,-320.74 684.45,-289.48 684.45,-230.5 684.45,-230.5 684.45,-230.5 684.45,-118.5 684.45,-82.51 659.39,-46.76 642.5,-26.76"/>
<polygon fill="#63b8ff" stroke="#63b8ff" points="645.09,-24.4 635.86,-19.2 639.83,-29.02 645.09,-24.4"/>
</a>
</g>
</g>
<!-- Node11 -->
<g id="Node000011" class="node">
<title>Node11</title>
<g id="a_Node000011"><a xlink:title=" ">
<polygon fill="#e0e0e0" stroke="#999999" points="86.45,-184 28.45,-184 28.45,-165 86.45,-165 86.45,-184"/>
<text text-anchor="middle" x="57.45" y="-172" font-family="Helvetica,sans-Serif" font-size="10.00">memory</text>
</a>
</g>
</g>
<!-- Node10&#45;&gt;Node11 -->
<g id="edge16_Node000010_Node000011" class="edge">
<title>Node10&#45;&gt;Node11</title>
<g id="a_edge16_Node000010_Node000011"><a xlink:title=" ">
<path fill="none" stroke="#63b8ff" d="M294.7,-337.67C226.9,-333.41 111.51,-314.7 57.45,-239 48.25,-226.12 49.38,-207.7 52.13,-194.02"/>
<polygon fill="#63b8ff" stroke="#63b8ff" points="55.55,-194.8 54.53,-184.26 48.75,-193.13 55.55,-194.8"/>
</a>
</g>
</g>
<!-- Node12 -->
<g id="Node000012" class="node">
<title>Node12</title>
<g id="a_Node000012"><a xlink:href="CCSDSSecondaryHeaderAbstract_8h.html" target="_top" xlink:title=" ">
<polygon fill="white" stroke="#666666" points="562.95,-184 377.95,-184 377.95,-165 562.95,-165 562.95,-184"/>
<text text-anchor="middle" x="470.45" y="-172" font-family="Helvetica,sans-Serif" font-size="10.00">CCSDSSecondaryHeaderAbstract.h</text>
</a>
</g>
</g>
<!-- Node10&#45;&gt;Node12 -->
<g id="edge17_Node000010_Node000012" class="edge">
<title>Node10&#45;&gt;Node12</title>
<g id="a_edge17_Node000010_Node000012"><a xlink:title=" ">
<path fill="none" stroke="#63b8ff" d="M359.32,-329.85C370.29,-321.48 386.65,-308.02 398.45,-294 425.85,-261.45 449.74,-217.36 461.9,-193.18"/>
<polygon fill="#63b8ff" stroke="#63b8ff" points="465.08,-194.64 466.37,-184.13 458.81,-191.54 465.08,-194.64"/>
</a>
</g>
</g>
<!-- Node15 -->
<g id="Node000015" class="node">
<title>Node15</title>
<g id="a_Node000015"><a xlink:href="CCSDSSecondaryHeaderFactory_8h.html" target="_top" xlink:title=" ">
<polygon fill="white" stroke="#666666" points="245.95,-239 66.95,-239 66.95,-220 245.95,-220 245.95,-239"/>
<text text-anchor="middle" x="156.45" y="-227" font-family="Helvetica,sans-Serif" font-size="10.00">CCSDSSecondaryHeaderFactory.h</text>
</a>
</g>
</g>
<!-- Node10&#45;&gt;Node15 -->
<g id="edge26_Node000010_Node000015" class="edge">
<title>Node10&#45;&gt;Node15</title>
<g id="a_edge26_Node000010_Node000015"><a xlink:title=" ">
<path fill="none" stroke="#63b8ff" d="M329.59,-329.85C311.85,-321.15 283.99,-307.18 260.45,-294 231.51,-277.79 199.01,-257.62 178.16,-244.42"/>
<polygon fill="#63b8ff" stroke="#63b8ff" points="180.04,-241.46 169.73,-239.05 176.28,-247.37 180.04,-241.46"/>
</a>
</g>
</g>
<!-- Node17 -->
<g id="Node000017" class="node">
<title>Node17</title>
<g id="a_Node000017"><a xlink:href="PusServices_8h.html" target="_top" xlink:title=" ">
<polygon fill="white" stroke="#666666" points="389.45,-294 305.45,-294 305.45,-275 389.45,-275 389.45,-294"/>
<text text-anchor="middle" x="347.45" y="-282" font-family="Helvetica,sans-Serif" font-size="10.00">PusServices.h</text>
</a>
</g>
</g>
<!-- Node10&#45;&gt;Node17 -->
<g id="edge32_Node000010_Node000017" class="edge">
<title>Node10&#45;&gt;Node17</title>
<g id="a_edge32_Node000010_Node000017"><a xlink:title=" ">
<path fill="none" stroke="#63b8ff" d="M347.45,-329.75C347.45,-322.8 347.45,-312.85 347.45,-304.13"/>
<polygon fill="#63b8ff" stroke="#63b8ff" points="350.95,-304.09 347.45,-294.09 343.95,-304.09 350.95,-304.09"/>
</a>
</g>
</g>
<!-- Node12&#45;&gt;Node3 -->
<g id="edge18_Node000012_Node000003" class="edge">
<title>Node12&#45;&gt;Node3</title>
<g id="a_edge18_Node000012_Node000003"><a xlink:title=" ">
<path fill="none" stroke="#63b8ff" d="M432.6,-164.86C411.65,-158.27 386.65,-147.15 370.45,-129 359.51,-116.74 354.55,-98.51 352.31,-84.72"/>
<polygon fill="#63b8ff" stroke="#63b8ff" points="355.73,-83.89 350.99,-74.42 348.79,-84.78 355.73,-83.89"/>
</a>
</g>
</g>
<!-- Node12&#45;&gt;Node6 -->
<g id="edge24_Node000012_Node000006" class="edge">
<title>Node12&#45;&gt;Node6</title>
<g id="a_edge24_Node000012_Node000006"><a xlink:title=" ">
<path fill="none" stroke="#63b8ff" d="M526.01,-164.97C566.01,-157.57 615.03,-145.44 627.45,-129 649.5,-99.84 640.94,-54.06 633.64,-28.79"/>
<polygon fill="#63b8ff" stroke="#63b8ff" points="636.92,-27.53 630.59,-19.04 630.24,-29.63 636.92,-27.53"/>
</a>
</g>
</g>
<!-- Node12&#45;&gt;Node7 -->
<g id="edge25_Node000012_Node000007" class="edge">
<title>Node12&#45;&gt;Node7</title>
<g id="a_edge25_Node000012_Node000007"><a xlink:title=" ">
<path fill="none" stroke="#63b8ff" d="M471.83,-164.97C473.27,-156.02 475.57,-141.53 477.45,-129 482.77,-93.68 488.61,-52.37 491.87,-29.04"/>
<polygon fill="#63b8ff" stroke="#63b8ff" points="495.34,-29.52 493.26,-19.13 488.41,-28.55 495.34,-29.52"/>
</a>
</g>
</g>
<!-- Node13 -->
<g id="Node000013" class="node">
<title>Node13</title>
<g id="a_Node000013"><a xlink:href="CCSDSConfig_8h.html" target="_top" xlink:title=" ">
<polygon fill="white" stroke="#666666" points="467.95,-129 378.95,-129 378.95,-110 467.95,-110 467.95,-129"/>
<text text-anchor="middle" x="423.45" y="-117" font-family="Helvetica,sans-Serif" font-size="10.00">CCSDSConfig.h</text>
</a>
</g>
</g>
<!-- Node12&#45;&gt;Node13 -->
<g id="edge19_Node000012_Node000013" class="edge">
<title>Node12&#45;&gt;Node13</title>
<g id="a_edge19_Node000012_Node000013"><a xlink:title=" ">
<path fill="none" stroke="#63b8ff" d="M462.69,-164.75C455.99,-157.18 446.11,-146.05 437.95,-136.84"/>
<polygon fill="#63b8ff" stroke="#63b8ff" points="440.32,-134.25 431.07,-129.09 435.09,-138.89 440.32,-134.25"/>
</a>
</g>
</g>
<!-- Node13&#45;&gt;Node3 -->
<g id="edge23_Node000013_Node000003" class="edge">
<title>Node13&#45;&gt;Node3</title>
<g id="a_edge23_Node000013_Node000003"><a xlink:title=" ">
<path fill="none" stroke="#63b8ff" d="M411.73,-109.98C400.72,-102 384.03,-89.88 370.85,-80.31"/>
<polygon fill="#63b8ff" stroke="#63b8ff" points="372.54,-77.21 362.4,-74.17 368.43,-82.88 372.54,-77.21"/>
</a>
</g>
</g>
<!-- Node13&#45;&gt;Node6 -->
<g id="edge22_Node000013_Node000006" class="edge">
<title>Node13&#45;&gt;Node6</title>
<g id="a_edge22_Node000013_Node000006"><a xlink:title=" ">
<path fill="none" stroke="#63b8ff" d="M439.8,-109.84C475.4,-91 560.13,-46.14 602.47,-23.73"/>
<polygon fill="#63b8ff" stroke="#63b8ff" points="604.11,-26.82 611.31,-19.05 600.83,-20.63 604.11,-26.82"/>
</a>
</g>
</g>
<!-- Node13&#45;&gt;Node7 -->
<g id="edge21_Node000013_Node000007" class="edge">
<title>Node13&#45;&gt;Node7</title>
<g id="a_edge21_Node000013_Node000007"><a xlink:title=" ">
<path fill="none" stroke="#63b8ff" d="M429.26,-109.66C441.02,-91.77 467.83,-51 483.15,-27.69"/>
<polygon fill="#63b8ff" stroke="#63b8ff" points="486.19,-29.44 488.76,-19.16 480.34,-25.59 486.19,-29.44"/>
</a>
</g>
</g>
<!-- Node14 -->
<g id="Node000014" class="node">
<title>Node14</title>
<g id="a_Node000014"><a xlink:title=" ">
<polygon fill="#e0e0e0" stroke="#999999" points="237.45,-74 193.45,-74 193.45,-55 237.45,-55 237.45,-74"/>
<text text-anchor="middle" x="215.45" y="-62" font-family="Helvetica,sans-Serif" font-size="10.00">string</text>
</a>
</g>
</g>
<!-- Node13&#45;&gt;Node14 -->
<g id="edge20_Node000013_Node000014" class="edge">
<title>Node13&#45;&gt;Node14</title>
<g id="a_edge20_Node000013_Node000014"><a xlink:title=" ">
<path fill="none" stroke="#63b8ff" d="M390.04,-109.98C350.88,-100.01 286.46,-83.59 247.78,-73.74"/>
<polygon fill="#63b8ff" stroke="#63b8ff" points="248.15,-70.22 237.6,-71.14 246.42,-77 248.15,-70.22"/>
</a>
</g>
</g>
<!-- Node15&#45;&gt;Node4 -->
<g id="edge28_Node000015_Node000004" class="edge">
<title>Node15&#45;&gt;Node4</title>
<g id="a_edge28_Node000015_Node000004"><a xlink:title=" ">
<path fill="none" stroke="#63b8ff" d="M156.22,-219.95C155.34,-187.95 152.22,-74.68 150.97,-29.4"/>
<polygon fill="#63b8ff" stroke="#63b8ff" points="154.47,-29.12 150.69,-19.22 147.47,-29.32 154.47,-29.12"/>
</a>
</g>
</g>
<!-- Node15&#45;&gt;Node11 -->
<g id="edge27_Node000015_Node000011" class="edge">
<title>Node15&#45;&gt;Node11</title>
<g id="a_edge27_Node000015_Node000011"><a xlink:title=" ">
<path fill="none" stroke="#63b8ff" d="M140.55,-219.98C124.91,-211.61 100.8,-198.7 82.57,-188.95"/>
<polygon fill="#63b8ff" stroke="#63b8ff" points="84.12,-185.8 73.65,-184.17 80.81,-191.98 84.12,-185.8"/>
</a>
</g>
</g>
<!-- Node15&#45;&gt;Node12 -->
<g id="edge31_Node000015_Node000012" class="edge">
<title>Node15&#45;&gt;Node12</title>
<g id="a_edge31_Node000015_Node000012"><a xlink:title=" ">
<path fill="none" stroke="#63b8ff" d="M206.9,-219.98C262.21,-210.65 350.93,-195.67 409.94,-185.71"/>
<polygon fill="#63b8ff" stroke="#63b8ff" points="410.59,-189.15 419.87,-184.04 409.43,-182.25 410.59,-189.15"/>
</a>
</g>
</g>
<!-- Node15&#45;&gt;Node14 -->
<g id="edge30_Node000015_Node000014" class="edge">
<title>Node15&#45;&gt;Node14</title>
<g id="a_edge30_Node000015_Node000014"><a xlink:title=" ">
<path fill="none" stroke="#63b8ff" d="M157.99,-219.73C160.29,-207.35 165.03,-184.11 171.45,-165 181.39,-135.42 196.83,-102.58 206.53,-83.01"/>
<polygon fill="#63b8ff" stroke="#63b8ff" points="209.66,-84.58 211.02,-74.07 203.4,-81.44 209.66,-84.58"/>
</a>
</g>
</g>
<!-- Node16 -->
<g id="Node000016" class="node">
<title>Node16</title>
<g id="a_Node000016"><a xlink:title=" ">
<polygon fill="#e0e0e0" stroke="#999999" points="245.95,-184 180.95,-184 180.95,-165 245.95,-165 245.95,-184"/>
<text text-anchor="middle" x="213.45" y="-172" font-family="Helvetica,sans-Serif" font-size="10.00">functional</text>
</a>
</g>
</g>
<!-- Node15&#45;&gt;Node16 -->
<g id="edge29_Node000015_Node000016" class="edge">
<title>Node15&#45;&gt;Node16</title>
<g id="a_edge29_Node000015_Node000016"><a xlink:title=" ">
<path fill="none" stroke="#63b8ff" d="M165.61,-219.98C173.96,-212.23 186.49,-200.58 196.63,-191.14"/>
<polygon fill="#63b8ff" stroke="#63b8ff" points="199.19,-193.54 204.13,-184.17 194.42,-188.42 199.19,-193.54"/>
</a>
</g>
</g>
<!-- Node17&#45;&gt;Node3 -->
<g id="edge35_Node000017_Node000003" class="edge">
<title>Node17&#45;&gt;Node3</title>
<g id="a_edge35_Node000017_Node000003"><a xlink:title=" ">
<path fill="none" stroke="#63b8ff" d="M346.71,-274.98C345.97,-266.03 344.88,-251.54 344.45,-239 342.56,-182.66 346.63,-116.04 348.97,-84.23"/>
<polygon fill="#63b8ff" stroke="#63b8ff" points="352.47,-84.4 349.74,-74.17 345.49,-83.87 352.47,-84.4"/>
</a>
</g>
</g>
<!-- Node17&#45;&gt;Node12 -->
<g id="edge33_Node000017_Node000012" class="edge">
<title>Node17&#45;&gt;Node12</title>
<g id="a_edge33_Node000017_Node000012"><a xlink:title=" ">
<path fill="none" stroke="#63b8ff" d="M357.52,-274.66C378.44,-256.3 426.82,-213.81 452.95,-190.87"/>
<polygon fill="#63b8ff" stroke="#63b8ff" points="455.39,-193.39 460.59,-184.16 450.77,-188.13 455.39,-193.39"/>
</a>
</g>
</g>
<!-- Node17&#45;&gt;Node13 -->
<g id="edge36_Node000017_Node000013" class="edge">
<title>Node17&#45;&gt;Node13</title>
<g id="a_edge36_Node000017_Node000013"><a xlink:title=" ">
<path fill="none" stroke="#63b8ff" d="M347.11,-274.77C346.7,-254.14 347.99,-201.41 369.45,-165 376.63,-152.82 388.45,-142.51 399.2,-134.9"/>
<polygon fill="#63b8ff" stroke="#63b8ff" points="401.46,-137.6 407.86,-129.15 397.59,-131.77 401.46,-137.6"/>
</a>
</g>
</g>
<!-- Node17&#45;&gt;Node15 -->
<g id="edge34_Node000017_Node000015" class="edge">
<title>Node17&#45;&gt;Node15</title>
<g id="a_edge34_Node000017_Node000015"><a xlink:title=" ">
<path fill="none" stroke="#63b8ff" d="M316.77,-274.98C284.28,-265.97 232.86,-251.7 197.04,-241.76"/>
<polygon fill="#63b8ff" stroke="#63b8ff" points="197.95,-238.38 187.38,-239.08 196.08,-245.13 197.95,-238.38"/>
</a>
</g>
</g>
</g>
</svg>
