<?xml version="1.0" encoding="UTF-8" standalone="no"?>
<!DOCTYPE svg PUBLIC "-//W3C//DTD SVG 1.1//EN"
 "http://www.w3.org/Graphics/SVG/1.1/DTD/svg11.dtd">
<!-- Generated by graphviz version 2.43.0 (0)
 -->
<!-- Title: readBinaryFile Pages: 1 -->
<svg width="302pt" height="64pt"
 viewBox="0.00 0.00 302.00 64.00" xmlns="http://www.w3.org/2000/svg" xmlns:xlink="http://www.w3.org/1999/xlink">
<g id="graph0" class="graph" transform="scale(1 1) rotate(0) translate(4 60)">
<title>readBinaryFile</title>
<!-- Node1 -->
<g id="Node000001" class="node">
<title>Node1</title>
<g id="a_Node000001"><a xlink:title="Read a specified binary file and return its contents as a buffer.">
<polygon fill="#999999" stroke="#666666" points="294,-37 207,-37 207,-18 294,-18 294,-37"/>
<text text-anchor="middle" x="250.5" y="-25" font-family="Helvetica,sans-Serif" font-size="10.00">readBinaryFile</text>
</a>
</g>
</g>
<!-- Node2 -->
<g id="Node000002" class="node">
<title>Node2</title>
<g id="a_Node000002"><a xlink:href="classCCSDS_1_1Manager.html#a8be98b4fb7b61439308dfadfea9496f9" target="_top" xlink:title="Load a packet or a series of packets from a binary file.">
<polygon fill="white" stroke="#666666" points="148.5,-56 22.5,-56 22.5,-37 148.5,-37 148.5,-56"/>
<text text-anchor="middle" x="85.5" y="-44" font-family="Helvetica,sans-Serif" font-size="10.00">CCSDS::Manager::read</text>
</a>
</g>
</g>
<!-- Node1&#45;&gt;Node2 -->
<g id="edge1_Node000001_Node000002" class="edge">
<title>Node1&#45;&gt;Node2</title>
<g id="a_edge1_Node000001_Node000002"><a xlink:title=" ">
<path fill="none" stroke="#63b8ff" d="M196.39,-33.69C181.15,-35.47 164.4,-37.42 148.66,-39.25"/>
<polygon fill="#63b8ff" stroke="#63b8ff" points="197.15,-37.13 206.67,-32.49 196.34,-30.17 197.15,-37.13"/>
</a>
</g>
</g>
<!-- Node3 -->
<g id="Node000003" class="node">
<title>Node3</title>
<g id="a_Node000003"><a xlink:href="classCCSDS_1_1Manager.html#a44c3bccc78ccf59d9432935e43283342" target="_top" xlink:title="Load a template packet from a binary or configuration file.">
<polygon fill="white" stroke="#666666" points="171,-19 0,-19 0,0 171,0 171,-19"/>
<text text-anchor="middle" x="85.5" y="-7" font-family="Helvetica,sans-Serif" font-size="10.00">CCSDS::Manager::readTemplate</text>
</a>
</g>
</g>
<!-- Node1&#45;&gt;Node3 -->
<g id="edge2_Node000001_Node000003" class="edge">
<title>Node1&#45;&gt;Node3</title>
<g id="a_edge2_Node000001_Node000003"><a xlink:title=" ">
<path fill="none" stroke="#63b8ff" d="M196.55,-21.65C188.35,-20.75 179.7,-19.79 171.01,-18.83"/>
<polygon fill="#63b8ff" stroke="#63b8ff" points="196.35,-25.15 206.67,-22.77 197.12,-18.19 196.35,-25.15"/>
</a>
</g>
</g>
</g>
</svg>
