<?xml version="1.0" encoding="UTF-8" standalone="no"?>
<!DOCTYPE svg PUBLIC "-//W3C//DTD SVG 1.1//EN"
 "http://www.w3.org/Graphics/SVG/1.1/DTD/svg11.dtd">
<!-- Generated by graphviz version 2.43.0 (0)
 -->
<!-- Title: printPrimaryHeader Pages: 1 -->
<svg width="417pt" height="64pt"
 viewBox="0.00 0.00 417.00 64.00" xmlns="http://www.w3.org/2000/svg" xmlns:xlink="http://www.w3.org/1999/xlink">

<svg id="main" version="1.1" xmlns="http://www.w3.org/2000/svg" xmlns:xlink="http://www.w3.org/1999/xlink" xml:space="preserve" onload="init(evt)">
<style type="text/css"><![CDATA[
.node, .edge {opacity: 0.7;}
.node.selected, .edge.selected {opacity: 1;}
.edge:hover path { stroke: red; }
.edge:hover polygon { stroke: red; fill: red; }
]]></style>
<script type="application/ecmascript" xlink:href="svg.min.js"/>
<svg id="graph" class="graph">
<g id="graph0" class="graph" transform="scale(1 1) rotate(0) translate(4 60)">
<title>printPrimaryHeader</title>
<!-- Node1 -->
<g id="Node000001" class="node">
<title>Node1</title>
<g id="a_Node000001"><a xlink:title="Prints to console the primary header of a provided CCSDS packet.">
<polygon fill="#999999" stroke="#666666" points="409,-37 296,-37 296,-18 409,-18 409,-37"/>
<text text-anchor="middle" x="352.5" y="-25" font-family="Helvetica,sans-Serif" font-size="10.00">printPrimaryHeader</text>
</a>
</g>
</g>
<!-- Node2 -->
<g id="Node000002" class="node">
<title>Node2</title>
<g id="a_Node000002"><a xlink:href="CCSDSUtils_8cpp.html#a2e40e3867139b28c1b2fa0465c3afd7e" target="_top" xlink:title="Prints to console a CCSDS Packets, breaking it down to Primary header and Data field.">
<polygon fill="white" stroke="#666666" points="260,-56 189,-56 189,-37 260,-37 260,-56"/>
<text text-anchor="middle" x="224.5" y="-44" font-family="Helvetica,sans-Serif" font-size="10.00">printPacket</text>
</a>
</g>
</g>
<!-- Node1&#45;&gt;Node2 -->
<g id="edge1_Node000001_Node000002" class="edge">
<title>Node1&#45;&gt;Node2</title>
<g id="a_edge1_Node000001_Node000002"><a xlink:title=" ">
<path fill="none" stroke="#63b8ff" d="M285.87,-37.4C277.01,-38.73 268.22,-40.06 260.2,-41.27"/>
<polygon fill="#63b8ff" stroke="#63b8ff" points="286.5,-40.84 295.87,-35.89 285.46,-33.92 286.5,-40.84"/>
</a>
</g>
</g>
<!-- Node4 -->
<g id="Node000004" class="node">
<title>Node4</title>
<g id="a_Node000004"><a xlink:href="CCSDSUtils_8cpp.html#ad200055b4cb44dddba0ced16faee7d69" target="_top" xlink:title="Prints to console a series of CCSDS Packets contained in the manager.">
<polygon fill="white" stroke="#666666" points="153,-19 77,-19 77,0 153,0 153,-19"/>
<text text-anchor="middle" x="115" y="-7" font-family="Helvetica,sans-Serif" font-size="10.00">printPackets</text>
</a>
</g>
</g>
<!-- Node1&#45;&gt;Node4 -->
<g id="edge5_Node000001_Node000004" class="edge">
<title>Node1&#45;&gt;Node4</title>
<g id="a_edge5_Node000001_Node000004"><a xlink:title=" ">
<path fill="none" stroke="#63b8ff" d="M285.92,-22.49C243.09,-19.21 188.71,-15.06 153.16,-12.34"/>
<polygon fill="#63b8ff" stroke="#63b8ff" points="285.75,-25.98 295.99,-23.26 286.28,-19.01 285.75,-25.98"/>
</a>
</g>
</g>
<!-- Node3 -->
<g id="Node000003" class="node">
<title>Node3</title>
<g id="a_Node000003"><a xlink:href="exec__validator_8cpp.html#a638b85ceffac097c2aa79b76ba8c055e" target="_top" xlink:title=" ">
<polygon fill="white" stroke="#666666" points="135.5,-56 94.5,-56 94.5,-37 135.5,-37 135.5,-56"/>
<text text-anchor="middle" x="115" y="-44" font-family="Helvetica,sans-Serif" font-size="10.00">main</text>
</a>
</g>
</g>
<!-- Node2&#45;&gt;Node3 -->
<g id="edge2_Node000002_Node000003" class="edge">
<title>Node2&#45;&gt;Node3</title>
<g id="a_edge2_Node000002_Node000003"><a xlink:title=" ">
<path fill="none" stroke="#63b8ff" d="M178.75,-46.5C163.79,-46.5 147.87,-46.5 135.81,-46.5"/>
<polygon fill="#63b8ff" stroke="#63b8ff" points="178.89,-50 188.89,-46.5 178.89,-43 178.89,-50"/>
</a>
</g>
</g>
<!-- Node2&#45;&gt;Node4 -->
<g id="edge3_Node000002_Node000004" class="edge">
<title>Node2&#45;&gt;Node4</title>
<g id="a_edge3_Node000002_Node000004"><a xlink:title=" ">
<path fill="none" stroke="#63b8ff" d="M186.08,-33.62C172.25,-28.86 156.82,-23.55 143.96,-19.12"/>
<polygon fill="#63b8ff" stroke="#63b8ff" points="185.22,-37.03 195.82,-36.97 187.5,-30.41 185.22,-37.03"/>
</a>
</g>
</g>
<!-- Node5 -->
<g id="Node000005" class="node">
<title>Node5</title>
<g id="a_Node000005"><a xlink:href="exec__decoder_8cpp.html#a638b85ceffac097c2aa79b76ba8c055e" target="_top" xlink:title=" ">
<polygon fill="white" stroke="#666666" points="41,-19 0,-19 0,0 41,0 41,-19"/>
<text text-anchor="middle" x="20.5" y="-7" font-family="Helvetica,sans-Serif" font-size="10.00">main</text>
</a>
</g>
</g>
<!-- Node4&#45;&gt;Node5 -->
<g id="edge4_Node000004_Node000005" class="edge">
<title>Node4&#45;&gt;Node5</title>
<g id="a_edge4_Node000004_Node000005"><a xlink:title=" ">
<path fill="none" stroke="#63b8ff" d="M66.72,-9.5C57.65,-9.5 48.64,-9.5 41.07,-9.5"/>
<polygon fill="#63b8ff" stroke="#63b8ff" points="66.91,-13 76.91,-9.5 66.91,-6 66.91,-13"/>
</a>
</g>
</g>
</g>
</svg>
</svg>

<style type='text/css'>
<![CDATA[
[data-mouse-over-selected='false'] { opacity: 0.7; }
[data-mouse-over-selected='true']  { opacity: 1.0; }
]]>
</style>
<script type="application/ecmascript"><![CDATA[
document.addEventListener('DOMContentLoaded', (event) => {
  highlightEdges();
  highlightAdjacentNodes();
});
]]></script>
</svg>
