<?xml version="1.0" encoding="UTF-8" standalone="no"?>
<!DOCTYPE svg PUBLIC "-//W3C//DTD SVG 1.1//EN"
 "http://www.w3.org/Graphics/SVG/1.1/DTD/svg11.dtd">
<!-- Generated by graphviz version 2.43.0 (0)
 -->
<!-- Title: getBitsSpaces Pages: 1 -->
<svg width="465pt" height="64pt"
 viewBox="0.00 0.00 465.00 64.00" xmlns="http://www.w3.org/2000/svg" xmlns:xlink="http://www.w3.org/1999/xlink">
<g id="graph0" class="graph" transform="scale(1 1) rotate(0) translate(4 60)">
<title>getBitsSpaces</title>
<!-- Node1 -->
<g id="Node000001" class="node">
<title>Node1</title>
<g id="a_Node000001"><a xlink:title="Generates a string of spaces for formatting binary outputs.">
<polygon fill="#999999" stroke="#666666" points="457,-37 371,-37 371,-18 457,-18 457,-37"/>
<text text-anchor="middle" x="414" y="-25" font-family="Helvetica,sans-Serif" font-size="10.00">getBitsSpaces</text>
</a>
</g>
</g>
<!-- Node2 -->
<g id="Node000002" class="node">
<title>Node2</title>
<g id="a_Node000002"><a xlink:href="CCSDSUtils_8cpp.html#a6e927daa91ea42db4bb94bfc51425b96" target="_top" xlink:title="Prints the data field details, including the secondary header and application data.">
<polygon fill="white" stroke="#666666" points="329,-56 267,-56 267,-37 329,-37 329,-56"/>
<text text-anchor="middle" x="298" y="-44" font-family="Helvetica,sans-Serif" font-size="10.00">printData</text>
</a>
</g>
</g>
<!-- Node1&#45;&gt;Node2 -->
<g id="edge1_Node000001_Node000002" class="edge">
<title>Node1&#45;&gt;Node2</title>
<g id="a_edge1_Node000001_Node000002"><a xlink:title=" ">
<path fill="none" stroke="#63b8ff" d="M360.99,-36.17C350.11,-37.98 338.97,-39.84 329.2,-41.47"/>
<polygon fill="#63b8ff" stroke="#63b8ff" points="361.59,-39.62 370.87,-34.52 360.44,-32.71 361.59,-39.62"/>
</a>
</g>
</g>
<!-- Node5 -->
<g id="Node000005" class="node">
<title>Node5</title>
<g id="a_Node000005"><a xlink:href="CCSDSUtils_8cpp.html#a993788a78365e86ff065ba8bedff543a" target="_top" xlink:title="Prints the header fields and their binary or hexadecimal representations.">
<polygon fill="white" stroke="#666666" points="335,-19 261,-19 261,0 335,0 335,-19"/>
<text text-anchor="middle" x="298" y="-7" font-family="Helvetica,sans-Serif" font-size="10.00">printHeader</text>
</a>
</g>
</g>
<!-- Node1&#45;&gt;Node5 -->
<g id="edge4_Node000001_Node000005" class="edge">
<title>Node1&#45;&gt;Node5</title>
<g id="a_edge4_Node000001_Node000005"><a xlink:title=" ">
<path fill="none" stroke="#63b8ff" d="M360.86,-19.27C352.24,-17.91 343.46,-16.52 335.33,-15.24"/>
<polygon fill="#63b8ff" stroke="#63b8ff" points="360.45,-22.75 370.87,-20.85 361.54,-15.83 360.45,-22.75"/>
</a>
</g>
</g>
<!-- Node3 -->
<g id="Node000003" class="node">
<title>Node3</title>
<g id="a_Node000003"><a xlink:href="CCSDSUtils_8cpp.html#aed99c8e7576ac25c49f6b913b46d1b76" target="_top" xlink:title="Prints the data field and the CRC&#45;16 checksum of the packet.">
<polygon fill="white" stroke="#666666" points="211.5,-56 125.5,-56 125.5,-37 211.5,-37 211.5,-56"/>
<text text-anchor="middle" x="168.5" y="-44" font-family="Helvetica,sans-Serif" font-size="10.00">printDataField</text>
</a>
</g>
</g>
<!-- Node2&#45;&gt;Node3 -->
<g id="edge2_Node000002_Node000003" class="edge">
<title>Node2&#45;&gt;Node3</title>
<g id="a_edge2_Node000002_Node000003"><a xlink:title=" ">
<path fill="none" stroke="#63b8ff" d="M256.69,-46.5C242.31,-46.5 226.08,-46.5 211.56,-46.5"/>
<polygon fill="#63b8ff" stroke="#63b8ff" points="256.78,-50 266.78,-46.5 256.78,-43 256.78,-50"/>
</a>
</g>
</g>
<!-- Node4 -->
<g id="Node000004" class="node">
<title>Node4</title>
<g id="a_Node000004"><a xlink:href="CCSDSUtils_8cpp.html#a5f93cc97b1a3bb506c38638251b15339" target="_top" xlink:title="Prints to console a series of CCSDS Packets, breaking it down to Primary header and Data field.">
<polygon fill="white" stroke="#666666" points="76,-37 0,-37 0,-18 76,-18 76,-37"/>
<text text-anchor="middle" x="38" y="-25" font-family="Helvetica,sans-Serif" font-size="10.00">printPackets</text>
</a>
</g>
</g>
<!-- Node3&#45;&gt;Node4 -->
<g id="edge3_Node000003_Node000004" class="edge">
<title>Node3&#45;&gt;Node4</title>
<g id="a_edge3_Node000003_Node000004"><a xlink:title=" ">
<path fill="none" stroke="#63b8ff" d="M115.19,-38.77C102.19,-36.84 88.52,-34.82 76.4,-33.03"/>
<polygon fill="#63b8ff" stroke="#63b8ff" points="115.02,-42.28 125.42,-40.28 116.04,-35.35 115.02,-42.28"/>
</a>
</g>
</g>
<!-- Node6 -->
<g id="Node000006" class="node">
<title>Node6</title>
<g id="a_Node000006"><a xlink:href="CCSDSUtils_8cpp.html#a3c45ef84a35555519e34164e000dada5" target="_top" xlink:title="Prints to console the primary header of a provided CCSDS packet.">
<polygon fill="white" stroke="#666666" points="225,-19 112,-19 112,0 225,0 225,-19"/>
<text text-anchor="middle" x="168.5" y="-7" font-family="Helvetica,sans-Serif" font-size="10.00">printPrimaryHeader</text>
</a>
</g>
</g>
<!-- Node5&#45;&gt;Node6 -->
<g id="edge5_Node000005_Node000006" class="edge">
<title>Node5&#45;&gt;Node6</title>
<g id="a_edge5_Node000005_Node000006"><a xlink:title=" ">
<path fill="none" stroke="#63b8ff" d="M250.65,-9.5C242.43,-9.5 233.78,-9.5 225.32,-9.5"/>
<polygon fill="#63b8ff" stroke="#63b8ff" points="250.8,-13 260.8,-9.5 250.8,-6 250.8,-13"/>
</a>
</g>
</g>
<!-- Node6&#45;&gt;Node4 -->
<g id="edge6_Node000006_Node000004" class="edge">
<title>Node6&#45;&gt;Node4</title>
<g id="a_edge6_Node000006_Node000004"><a xlink:title=" ">
<path fill="none" stroke="#63b8ff" d="M101.92,-18.69C93.08,-19.92 84.27,-21.16 76.17,-22.29"/>
<polygon fill="#63b8ff" stroke="#63b8ff" points="102.47,-22.14 111.89,-17.29 101.5,-15.21 102.47,-22.14"/>
</a>
</g>
</g>
</g>
</svg>
