<?xml version="1.0" encoding="UTF-8" standalone="no"?>
<!DOCTYPE svg PUBLIC "-//W3C//DTD SVG 1.1//EN"
 "http://www.w3.org/Graphics/SVG/1.1/DTD/svg11.dtd">
<!-- Generated by graphviz version 2.43.0 (0)
 -->
<!-- Title: src/CCSDSHeader.cpp Pages: 1 -->
<svg width="888pt" height="577pt"
 viewBox="0.00 0.00 888.00 577.00" xmlns="http://www.w3.org/2000/svg" xmlns:xlink="http://www.w3.org/1999/xlink">
<g id="graph0" class="graph" transform="scale(1 1) rotate(0) translate(4 573)">
<title>src/CCSDSHeader.cpp</title>
<!-- Node1 -->
<g id="Node000001" class="node">
<title>Node1</title>
<g id="a_Node000001"><a xlink:title=" ">
<polygon fill="#999999" stroke="#666666" points="756,-569 634,-569 634,-550 756,-550 756,-569"/>
<text text-anchor="middle" x="695" y="-557" font-family="Helvetica,sans-Serif" font-size="10.00">src/CCSDSHeader.cpp</text>
</a>
</g>
</g>
<!-- Node2 -->
<g id="Node000002" class="node">
<title>Node2</title>
<g id="a_Node000002"><a xlink:href="CCSDSHeader_8h.html" target="_top" xlink:title=" ">
<polygon fill="white" stroke="#666666" points="811.5,-129 718.5,-129 718.5,-110 811.5,-110 811.5,-129"/>
<text text-anchor="middle" x="765" y="-117" font-family="Helvetica,sans-Serif" font-size="10.00">CCSDSHeader.h</text>
</a>
</g>
</g>
<!-- Node1&#45;&gt;Node2 -->
<g id="edge1_Node000001_Node000002" class="edge">
<title>Node1&#45;&gt;Node2</title>
<g id="a_edge1_Node000001_Node000002"><a xlink:title=" ">
<path fill="none" stroke="#63b8ff" d="M751.01,-549.99C805.46,-538.16 880,-510.93 880,-450.5 880,-450.5 880,-450.5 880,-338.5 880,-254.48 812.34,-171.09 780.82,-136.8"/>
<polygon fill="#63b8ff" stroke="#63b8ff" points="783.04,-134.06 773.64,-129.17 777.94,-138.85 783.04,-134.06"/>
</a>
</g>
</g>
<!-- Node9 -->
<g id="Node000009" class="node">
<title>Node9</title>
<g id="a_Node000009"><a xlink:href="CCSDSUtils_8h.html" target="_top" xlink:title=" ">
<polygon fill="white" stroke="#666666" points="639.5,-514 558.5,-514 558.5,-495 639.5,-495 639.5,-514"/>
<text text-anchor="middle" x="599" y="-502" font-family="Helvetica,sans-Serif" font-size="10.00">CCSDSUtils.h</text>
</a>
</g>
</g>
<!-- Node1&#45;&gt;Node9 -->
<g id="edge10_Node000001_Node000009" class="edge">
<title>Node1&#45;&gt;Node9</title>
<g id="a_edge10_Node000001_Node000009"><a xlink:title=" ">
<path fill="none" stroke="#63b8ff" d="M679.58,-549.98C664.55,-541.69 641.46,-528.94 623.84,-519.22"/>
<polygon fill="#63b8ff" stroke="#63b8ff" points="625.15,-515.94 614.7,-514.17 621.77,-522.07 625.15,-515.94"/>
</a>
</g>
</g>
<!-- Node3 -->
<g id="Node000003" class="node">
<title>Node3</title>
<g id="a_Node000003"><a xlink:href="CCSDSResult_8h.html" target="_top" xlink:title=" ">
<polygon fill="white" stroke="#666666" points="658.5,-74 569.5,-74 569.5,-55 658.5,-55 658.5,-74"/>
<text text-anchor="middle" x="614" y="-62" font-family="Helvetica,sans-Serif" font-size="10.00">CCSDSResult.h</text>
</a>
</g>
</g>
<!-- Node2&#45;&gt;Node3 -->
<g id="edge2_Node000002_Node000003" class="edge">
<title>Node2&#45;&gt;Node3</title>
<g id="a_edge2_Node000002_Node000003"><a xlink:title=" ">
<path fill="none" stroke="#63b8ff" d="M740.74,-109.98C715.68,-101.19 676.37,-87.39 648.17,-77.49"/>
<polygon fill="#63b8ff" stroke="#63b8ff" points="649.3,-74.18 638.7,-74.17 646.98,-80.78 649.3,-74.18"/>
</a>
</g>
</g>
<!-- Node6 -->
<g id="Node000006" class="node">
<title>Node6</title>
<g id="a_Node000006"><a xlink:title=" ">
<polygon fill="#e0e0e0" stroke="#999999" points="834.5,-19 787.5,-19 787.5,0 834.5,0 834.5,-19"/>
<text text-anchor="middle" x="811" y="-7" font-family="Helvetica,sans-Serif" font-size="10.00">vector</text>
</a>
</g>
</g>
<!-- Node2&#45;&gt;Node6 -->
<g id="edge9_Node000002_Node000006" class="edge">
<title>Node2&#45;&gt;Node6</title>
<g id="a_edge9_Node000002_Node000006"><a xlink:title=" ">
<path fill="none" stroke="#63b8ff" d="M768.76,-109.66C776.28,-92.01 793.29,-52.09 803.28,-28.64"/>
<polygon fill="#63b8ff" stroke="#63b8ff" points="806.61,-29.73 807.31,-19.16 800.17,-26.99 806.61,-29.73"/>
</a>
</g>
</g>
<!-- Node7 -->
<g id="Node000007" class="node">
<title>Node7</title>
<g id="a_Node000007"><a xlink:title=" ">
<polygon fill="#e0e0e0" stroke="#999999" points="197,-19 147,-19 147,0 197,0 197,-19"/>
<text text-anchor="middle" x="172" y="-7" font-family="Helvetica,sans-Serif" font-size="10.00">cstdint</text>
</a>
</g>
</g>
<!-- Node2&#45;&gt;Node7 -->
<g id="edge8_Node000002_Node000007" class="edge">
<title>Node2&#45;&gt;Node7</title>
<g id="a_edge8_Node000002_Node000007"><a xlink:title=" ">
<path fill="none" stroke="#63b8ff" d="M755.42,-109.8C738.95,-95.45 703.61,-67.19 668,-55 478.59,9.84 417.52,-44.85 219,-19 215.24,-18.51 211.33,-17.93 207.44,-17.29"/>
<polygon fill="#63b8ff" stroke="#63b8ff" points="207.74,-13.8 197.3,-15.55 206.56,-20.69 207.74,-13.8"/>
</a>
</g>
</g>
<!-- Node4 -->
<g id="Node000004" class="node">
<title>Node4</title>
<g id="a_Node000004"><a xlink:title=" ">
<polygon fill="#e0e0e0" stroke="#999999" points="320.5,-19 227.5,-19 227.5,0 320.5,0 320.5,-19"/>
<text text-anchor="middle" x="274" y="-7" font-family="Helvetica,sans-Serif" font-size="10.00">unordered_map</text>
</a>
</g>
</g>
<!-- Node3&#45;&gt;Node4 -->
<g id="edge3_Node000003_Node000004" class="edge">
<title>Node3&#45;&gt;Node4</title>
<g id="a_edge3_Node000003_Node000004"><a xlink:title=" ">
<path fill="none" stroke="#63b8ff" d="M569.2,-56.52C507.8,-46.95 397.5,-29.75 330.5,-19.31"/>
<polygon fill="#63b8ff" stroke="#63b8ff" points="330.95,-15.84 320.53,-17.75 329.88,-22.75 330.95,-15.84"/>
</a>
</g>
</g>
<!-- Node5 -->
<g id="Node000005" class="node">
<title>Node5</title>
<g id="a_Node000005"><a xlink:title=" ">
<polygon fill="#e0e0e0" stroke="#999999" points="602.5,-19 551.5,-19 551.5,0 602.5,0 602.5,-19"/>
<text text-anchor="middle" x="577" y="-7" font-family="Helvetica,sans-Serif" font-size="10.00">variant</text>
</a>
</g>
</g>
<!-- Node3&#45;&gt;Node5 -->
<g id="edge4_Node000003_Node000005" class="edge">
<title>Node3&#45;&gt;Node5</title>
<g id="a_edge4_Node000003_Node000005"><a xlink:title=" ">
<path fill="none" stroke="#63b8ff" d="M607.89,-54.75C602.72,-47.34 595.15,-36.5 588.81,-27.41"/>
<polygon fill="#63b8ff" stroke="#63b8ff" points="591.59,-25.29 583,-19.09 585.85,-29.29 591.59,-25.29"/>
</a>
</g>
</g>
<!-- Node3&#45;&gt;Node6 -->
<g id="edge5_Node000003_Node000006" class="edge">
<title>Node3&#45;&gt;Node6</title>
<g id="a_edge5_Node000003_Node000006"><a xlink:title=" ">
<path fill="none" stroke="#63b8ff" d="M645.65,-54.98C681.84,-45.25 740.82,-29.38 777.69,-19.46"/>
<polygon fill="#63b8ff" stroke="#63b8ff" points="778.72,-22.81 787.46,-16.83 776.9,-16.05 778.72,-22.81"/>
</a>
</g>
</g>
<!-- Node3&#45;&gt;Node7 -->
<g id="edge6_Node000003_Node000007" class="edge">
<title>Node3&#45;&gt;Node7</title>
<g id="a_edge6_Node000003_Node000007"><a xlink:title=" ">
<path fill="none" stroke="#63b8ff" d="M569.45,-59.46C496.16,-52.59 345.66,-37.57 219,-19 215.25,-18.45 211.34,-17.83 207.45,-17.17"/>
<polygon fill="#63b8ff" stroke="#63b8ff" points="207.77,-13.67 197.32,-15.4 206.56,-20.57 207.77,-13.67"/>
</a>
</g>
</g>
<!-- Node8 -->
<g id="Node000008" class="node">
<title>Node8</title>
<g id="a_Node000008"><a xlink:title=" ">
<polygon fill="#e0e0e0" stroke="#999999" points="681,-19 621,-19 621,0 681,0 681,-19"/>
<text text-anchor="middle" x="651" y="-7" font-family="Helvetica,sans-Serif" font-size="10.00">iostream</text>
</a>
</g>
</g>
<!-- Node3&#45;&gt;Node8 -->
<g id="edge7_Node000003_Node000008" class="edge">
<title>Node3&#45;&gt;Node8</title>
<g id="a_edge7_Node000003_Node000008"><a xlink:title=" ">
<path fill="none" stroke="#63b8ff" d="M620.11,-54.75C625.28,-47.34 632.85,-36.5 639.19,-27.41"/>
<polygon fill="#63b8ff" stroke="#63b8ff" points="642.15,-29.29 645,-19.09 636.41,-25.29 642.15,-29.29"/>
</a>
</g>
</g>
<!-- Node9&#45;&gt;Node6 -->
<g id="edge43_Node000009_Node000006" class="edge">
<title>Node9&#45;&gt;Node6</title>
<g id="a_edge43_Node000009_Node000006"><a xlink:title=" ">
<path fill="none" stroke="#63b8ff" d="M639.67,-503.13C708.85,-500.13 842,-482.99 842,-395.5 842,-395.5 842,-395.5 842,-338.5 842,-212.3 907.88,-170.92 858,-55 852.85,-43.03 842.71,-32.76 833.17,-25.12"/>
<polygon fill="#63b8ff" stroke="#63b8ff" points="835.19,-22.26 825.07,-19.11 831.01,-27.88 835.19,-22.26"/>
</a>
</g>
</g>
<!-- Node9&#45;&gt;Node7 -->
<g id="edge42_Node000009_Node000007" class="edge">
<title>Node9&#45;&gt;Node7</title>
<g id="a_edge42_Node000009_Node000007"><a xlink:title=" ">
<path fill="none" stroke="#63b8ff" d="M558.3,-501.54C459.52,-496.47 209.34,-481.75 129,-459 67.51,-441.59 0,-459.4 0,-395.5 0,-395.5 0,-395.5 0,-118.5 0,-54.34 86.9,-26.82 137.16,-16.28"/>
<polygon fill="#63b8ff" stroke="#63b8ff" points="137.86,-19.71 146.99,-14.33 136.5,-12.84 137.86,-19.71"/>
</a>
</g>
</g>
<!-- Node10 -->
<g id="Node000010" class="node">
<title>Node10</title>
<g id="a_Node000010"><a xlink:href="CCSDSPacket_8h.html" target="_top" xlink:title=" ">
<polygon fill="white" stroke="#666666" points="706,-349 616,-349 616,-330 706,-330 706,-349"/>
<text text-anchor="middle" x="661" y="-337" font-family="Helvetica,sans-Serif" font-size="10.00">CCSDSPacket.h</text>
</a>
</g>
</g>
<!-- Node9&#45;&gt;Node10 -->
<g id="edge11_Node000009_Node000010" class="edge">
<title>Node9&#45;&gt;Node10</title>
<g id="a_edge11_Node000009_Node000010"><a xlink:title=" ">
<path fill="none" stroke="#63b8ff" d="M589.75,-494.9C569.01,-474.56 522.54,-422.4 548,-385 561.17,-365.66 584.17,-354.72 605.99,-348.54"/>
<polygon fill="#63b8ff" stroke="#63b8ff" points="607.06,-351.88 615.89,-346.02 605.34,-345.09 607.06,-351.88"/>
</a>
</g>
</g>
<!-- Node16 -->
<g id="Node000016" class="node">
<title>Node16</title>
<g id="a_Node000016"><a xlink:title=" ">
<polygon fill="#e0e0e0" stroke="#999999" points="110,-129 66,-129 66,-110 110,-110 110,-129"/>
<text text-anchor="middle" x="88" y="-117" font-family="Helvetica,sans-Serif" font-size="10.00">string</text>
</a>
</g>
</g>
<!-- Node9&#45;&gt;Node16 -->
<g id="edge41_Node000009_Node000016" class="edge">
<title>Node9&#45;&gt;Node16</title>
<g id="a_edge41_Node000009_Node000016"><a xlink:title=" ">
<path fill="none" stroke="#63b8ff" d="M558.2,-499.98C429.11,-488.29 38,-448.5 38,-395.5 38,-395.5 38,-395.5 38,-228.5 38,-193.56 59.82,-157.66 74.63,-137.31"/>
<polygon fill="#63b8ff" stroke="#63b8ff" points="77.59,-139.2 80.84,-129.11 72.01,-134.97 77.59,-139.2"/>
</a>
</g>
</g>
<!-- Node18 -->
<g id="Node000018" class="node">
<title>Node18</title>
<g id="a_Node000018"><a xlink:href="CCSDSManager_8h.html" target="_top" xlink:title=" ">
<polygon fill="white" stroke="#666666" points="720.5,-459 619.5,-459 619.5,-440 720.5,-440 720.5,-459"/>
<text text-anchor="middle" x="670" y="-447" font-family="Helvetica,sans-Serif" font-size="10.00">CCSDSManager.h</text>
</a>
</g>
</g>
<!-- Node9&#45;&gt;Node18 -->
<g id="edge35_Node000009_Node000018" class="edge">
<title>Node9&#45;&gt;Node18</title>
<g id="a_edge35_Node000009_Node000018"><a xlink:title=" ">
<path fill="none" stroke="#63b8ff" d="M610.41,-494.98C621.11,-487 637.34,-474.88 650.16,-465.31"/>
<polygon fill="#63b8ff" stroke="#63b8ff" points="652.47,-467.96 658.39,-459.17 648.28,-462.35 652.47,-467.96"/>
</a>
</g>
</g>
<!-- Node10&#45;&gt;Node2 -->
<g id="edge15_Node000010_Node000002" class="edge">
<title>Node10&#45;&gt;Node2</title>
<g id="a_edge15_Node000010_Node000002"><a xlink:title=" ">
<path fill="none" stroke="#63b8ff" d="M665.08,-329.95C680.48,-297.67 735.3,-182.75 756.53,-138.26"/>
<polygon fill="#63b8ff" stroke="#63b8ff" points="759.69,-139.76 760.84,-129.22 753.37,-136.74 759.69,-139.76"/>
</a>
</g>
</g>
<!-- Node10&#45;&gt;Node3 -->
<g id="edge12_Node000010_Node000003" class="edge">
<title>Node10&#45;&gt;Node3</title>
<g id="a_edge12_Node000010_Node000003"><a xlink:title=" ">
<path fill="none" stroke="#63b8ff" d="M659.79,-329.84C657.33,-311.54 652,-267.57 652,-230.5 652,-230.5 652,-230.5 652,-173.5 652,-140.02 635.55,-103.84 624.3,-83.01"/>
<polygon fill="#63b8ff" stroke="#63b8ff" points="627.24,-81.1 619.28,-74.1 621.13,-84.53 627.24,-81.1"/>
</a>
</g>
</g>
<!-- Node10&#45;&gt;Node6 -->
<g id="edge14_Node000010_Node000006" class="edge">
<title>Node10&#45;&gt;Node6</title>
<g id="a_edge14_Node000010_Node000006"><a xlink:title=" ">
<path fill="none" stroke="#63b8ff" d="M672.01,-329.99C704.57,-304.09 800.48,-222.2 838,-129 850.3,-98.45 851.87,-86.42 842,-55 838.77,-44.71 832.22,-34.72 825.97,-26.82"/>
<polygon fill="#63b8ff" stroke="#63b8ff" points="828.61,-24.52 819.48,-19.15 823.27,-29.04 828.61,-24.52"/>
</a>
</g>
</g>
<!-- Node10&#45;&gt;Node7 -->
<g id="edge13_Node000010_Node000007" class="edge">
<title>Node10&#45;&gt;Node7</title>
<g id="a_edge13_Node000010_Node000007"><a xlink:title=" ">
<path fill="none" stroke="#63b8ff" d="M615.74,-337.52C526.49,-333.86 323.69,-316.88 176,-239 107,-202.62 24.57,-180.94 57,-110 75.15,-70.31 117.81,-40.39 145.76,-24.17"/>
<polygon fill="#63b8ff" stroke="#63b8ff" points="147.61,-27.15 154.62,-19.2 144.19,-21.04 147.61,-27.15"/>
</a>
</g>
</g>
<!-- Node11 -->
<g id="Node000011" class="node">
<title>Node11</title>
<g id="a_Node000011"><a xlink:href="CCSDSDataField_8h.html" target="_top" xlink:title=" ">
<polygon fill="white" stroke="#666666" points="530.5,-294 425.5,-294 425.5,-275 530.5,-275 530.5,-294"/>
<text text-anchor="middle" x="478" y="-282" font-family="Helvetica,sans-Serif" font-size="10.00">CCSDSDataField.h</text>
</a>
</g>
</g>
<!-- Node10&#45;&gt;Node11 -->
<g id="edge16_Node000010_Node000011" class="edge">
<title>Node10&#45;&gt;Node11</title>
<g id="a_edge16_Node000010_Node000011"><a xlink:title=" ">
<path fill="none" stroke="#63b8ff" d="M631.6,-329.98C600.61,-321.01 551.62,-306.82 517.33,-296.89"/>
<polygon fill="#63b8ff" stroke="#63b8ff" points="518.21,-293.5 507.63,-294.08 516.26,-300.23 518.21,-293.5"/>
</a>
</g>
</g>
<!-- Node11&#45;&gt;Node3 -->
<g id="edge17_Node000011_Node000003" class="edge">
<title>Node11&#45;&gt;Node3</title>
<g id="a_edge17_Node000011_Node000003"><a xlink:title=" ">
<path fill="none" stroke="#63b8ff" d="M507.42,-274.99C526.14,-268.13 549.5,-256.68 564,-239 602.04,-192.62 611.15,-118.63 613.32,-84.22"/>
<polygon fill="#63b8ff" stroke="#63b8ff" points="616.82,-84.33 613.83,-74.17 609.83,-83.98 616.82,-84.33"/>
</a>
</g>
</g>
<!-- Node11&#45;&gt;Node6 -->
<g id="edge19_Node000011_Node000006" class="edge">
<title>Node11&#45;&gt;Node6</title>
<g id="a_edge19_Node000011_Node000006"><a xlink:title=" ">
<path fill="none" stroke="#63b8ff" d="M530.73,-277.45C609.86,-265.21 756.87,-229.47 821,-129 840.64,-98.23 828.38,-53.43 818.91,-28.66"/>
<polygon fill="#63b8ff" stroke="#63b8ff" points="822.03,-27.03 815.01,-19.09 815.55,-29.67 822.03,-27.03"/>
</a>
</g>
</g>
<!-- Node11&#45;&gt;Node7 -->
<g id="edge18_Node000011_Node000007" class="edge">
<title>Node11&#45;&gt;Node7</title>
<g id="a_edge18_Node000011_Node000007"><a xlink:title=" ">
<path fill="none" stroke="#63b8ff" d="M425.25,-277.82C329.75,-266.06 138,-235.03 138,-175.5 138,-175.5 138,-175.5 138,-118.5 138,-85.39 152.72,-49.1 162.79,-28.14"/>
<polygon fill="#63b8ff" stroke="#63b8ff" points="165.93,-29.68 167.27,-19.17 159.67,-26.55 165.93,-29.68"/>
</a>
</g>
</g>
<!-- Node12 -->
<g id="Node000012" class="node">
<title>Node12</title>
<g id="a_Node000012"><a xlink:title=" ">
<polygon fill="#e0e0e0" stroke="#999999" points="224,-129 166,-129 166,-110 224,-110 224,-129"/>
<text text-anchor="middle" x="195" y="-117" font-family="Helvetica,sans-Serif" font-size="10.00">memory</text>
</a>
</g>
</g>
<!-- Node11&#45;&gt;Node12 -->
<g id="edge20_Node000011_Node000012" class="edge">
<title>Node11&#45;&gt;Node12</title>
<g id="a_edge20_Node000011_Node000012"><a xlink:title=" ">
<path fill="none" stroke="#63b8ff" d="M425.31,-277.31C366.14,-267.62 271.08,-243.34 215,-184 203.47,-171.8 198.59,-153.02 196.52,-139.04"/>
<polygon fill="#63b8ff" stroke="#63b8ff" points="199.99,-138.62 195.39,-129.08 193.04,-139.41 199.99,-138.62"/>
</a>
</g>
</g>
<!-- Node13 -->
<g id="Node000013" class="node">
<title>Node13</title>
<g id="a_Node000013"><a xlink:href="CCSDSSecondaryHeaderAbstract_8h.html" target="_top" xlink:title=" ">
<polygon fill="white" stroke="#666666" points="548.5,-129 363.5,-129 363.5,-110 548.5,-110 548.5,-129"/>
<text text-anchor="middle" x="456" y="-117" font-family="Helvetica,sans-Serif" font-size="10.00">CCSDSSecondaryHeaderAbstract.h</text>
</a>
</g>
</g>
<!-- Node11&#45;&gt;Node13 -->
<g id="edge21_Node000011_Node000013" class="edge">
<title>Node11&#45;&gt;Node13</title>
<g id="a_edge21_Node000011_Node000013"><a xlink:title=" ">
<path fill="none" stroke="#63b8ff" d="M474.03,-274.85C470.19,-266.04 464.58,-251.88 462,-239 455.04,-204.29 454.72,-162.77 455.26,-139.23"/>
<polygon fill="#63b8ff" stroke="#63b8ff" points="458.76,-139.34 455.57,-129.23 451.76,-139.12 458.76,-139.34"/>
</a>
</g>
</g>
<!-- Node14 -->
<g id="Node000014" class="node">
<title>Node14</title>
<g id="a_Node000014"><a xlink:href="CCSDSSecondaryHeaderFactory_8h.html" target="_top" xlink:title=" ">
<polygon fill="white" stroke="#666666" points="402.5,-184 223.5,-184 223.5,-165 402.5,-165 402.5,-184"/>
<text text-anchor="middle" x="313" y="-172" font-family="Helvetica,sans-Serif" font-size="10.00">CCSDSSecondaryHeaderFactory.h</text>
</a>
</g>
</g>
<!-- Node11&#45;&gt;Node14 -->
<g id="edge25_Node000011_Node000014" class="edge">
<title>Node11&#45;&gt;Node14</title>
<g id="a_edge25_Node000011_Node000014"><a xlink:title=" ">
<path fill="none" stroke="#63b8ff" d="M464.78,-274.84C436.42,-256.28 369.51,-212.49 334.78,-189.75"/>
<polygon fill="#63b8ff" stroke="#63b8ff" points="336.57,-186.74 326.29,-184.2 332.74,-192.6 336.57,-186.74"/>
</a>
</g>
</g>
<!-- Node17 -->
<g id="Node000017" class="node">
<title>Node17</title>
<g id="a_Node000017"><a xlink:href="PusServices_8h.html" target="_top" xlink:title=" ">
<polygon fill="white" stroke="#666666" points="555,-239 471,-239 471,-220 555,-220 555,-239"/>
<text text-anchor="middle" x="513" y="-227" font-family="Helvetica,sans-Serif" font-size="10.00">PusServices.h</text>
</a>
</g>
</g>
<!-- Node11&#45;&gt;Node17 -->
<g id="edge31_Node000011_Node000017" class="edge">
<title>Node11&#45;&gt;Node17</title>
<g id="a_edge31_Node000011_Node000017"><a xlink:title=" ">
<path fill="none" stroke="#63b8ff" d="M483.78,-274.75C488.62,-267.42 495.68,-256.73 501.64,-247.7"/>
<polygon fill="#63b8ff" stroke="#63b8ff" points="504.74,-249.36 507.33,-239.09 498.9,-245.5 504.74,-249.36"/>
</a>
</g>
</g>
<!-- Node13&#45;&gt;Node3 -->
<g id="edge22_Node000013_Node000003" class="edge">
<title>Node13&#45;&gt;Node3</title>
<g id="a_edge22_Node000013_Node000003"><a xlink:title=" ">
<path fill="none" stroke="#63b8ff" d="M481.39,-109.98C507.8,-101.13 549.35,-87.19 578.89,-77.28"/>
<polygon fill="#63b8ff" stroke="#63b8ff" points="580.05,-80.58 588.42,-74.08 577.82,-73.94 580.05,-80.58"/>
</a>
</g>
</g>
<!-- Node13&#45;&gt;Node6 -->
<g id="edge23_Node000013_Node000006" class="edge">
<title>Node13&#45;&gt;Node6</title>
<g id="a_edge23_Node000013_Node000006"><a xlink:title=" ">
<path fill="none" stroke="#63b8ff" d="M466.94,-109.98C485.29,-96.16 523.92,-68.96 561,-55 635.19,-27.07 728.49,-16.42 777.46,-12.56"/>
<polygon fill="#63b8ff" stroke="#63b8ff" points="777.78,-16.04 787.5,-11.81 777.27,-9.06 777.78,-16.04"/>
</a>
</g>
</g>
<!-- Node13&#45;&gt;Node7 -->
<g id="edge24_Node000013_Node000007" class="edge">
<title>Node13&#45;&gt;Node7</title>
<g id="a_edge24_Node000013_Node000007"><a xlink:title=" ">
<path fill="none" stroke="#63b8ff" d="M433.24,-109.84C382.85,-90.68 261.75,-44.63 203.86,-22.62"/>
<polygon fill="#63b8ff" stroke="#63b8ff" points="205.07,-19.33 194.48,-19.05 202.58,-25.87 205.07,-19.33"/>
</a>
</g>
</g>
<!-- Node14&#45;&gt;Node4 -->
<g id="edge27_Node000014_Node000004" class="edge">
<title>Node14&#45;&gt;Node4</title>
<g id="a_edge27_Node000014_Node000004"><a xlink:title=" ">
<path fill="none" stroke="#63b8ff" d="M301.07,-164.8C291.17,-156.77 277.81,-143.87 272,-129 259.01,-95.74 264.55,-53.13 269.47,-29.12"/>
<polygon fill="#63b8ff" stroke="#63b8ff" points="272.91,-29.75 271.68,-19.22 266.08,-28.22 272.91,-29.75"/>
</a>
</g>
</g>
<!-- Node14&#45;&gt;Node12 -->
<g id="edge26_Node000014_Node000012" class="edge">
<title>Node14&#45;&gt;Node12</title>
<g id="a_edge26_Node000014_Node000012"><a xlink:title=" ">
<path fill="none" stroke="#63b8ff" d="M294.04,-164.98C274.97,-156.42 245.34,-143.11 223.45,-133.28"/>
<polygon fill="#63b8ff" stroke="#63b8ff" points="224.86,-130.07 214.3,-129.17 221.99,-136.46 224.86,-130.07"/>
</a>
</g>
</g>
<!-- Node14&#45;&gt;Node13 -->
<g id="edge30_Node000014_Node000013" class="edge">
<title>Node14&#45;&gt;Node13</title>
<g id="a_edge30_Node000014_Node000013"><a xlink:title=" ">
<path fill="none" stroke="#63b8ff" d="M335.98,-164.98C359.5,-156.27 396.29,-142.63 422.94,-132.75"/>
<polygon fill="#63b8ff" stroke="#63b8ff" points="424.45,-135.93 432.61,-129.17 422.01,-129.36 424.45,-135.93"/>
</a>
</g>
</g>
<!-- Node15 -->
<g id="Node000015" class="node">
<title>Node15</title>
<g id="a_Node000015"><a xlink:title=" ">
<polygon fill="#e0e0e0" stroke="#999999" points="345.5,-129 280.5,-129 280.5,-110 345.5,-110 345.5,-129"/>
<text text-anchor="middle" x="313" y="-117" font-family="Helvetica,sans-Serif" font-size="10.00">functional</text>
</a>
</g>
</g>
<!-- Node14&#45;&gt;Node15 -->
<g id="edge28_Node000014_Node000015" class="edge">
<title>Node14&#45;&gt;Node15</title>
<g id="a_edge28_Node000014_Node000015"><a xlink:title=" ">
<path fill="none" stroke="#63b8ff" d="M313,-164.75C313,-157.8 313,-147.85 313,-139.13"/>
<polygon fill="#63b8ff" stroke="#63b8ff" points="316.5,-139.09 313,-129.09 309.5,-139.09 316.5,-139.09"/>
</a>
</g>
</g>
<!-- Node14&#45;&gt;Node16 -->
<g id="edge29_Node000014_Node000016" class="edge">
<title>Node14&#45;&gt;Node16</title>
<g id="a_edge29_Node000014_Node000016"><a xlink:title=" ">
<path fill="none" stroke="#63b8ff" d="M276.85,-164.98C233.45,-154.76 161.34,-137.78 119.91,-128.02"/>
<polygon fill="#63b8ff" stroke="#63b8ff" points="120.61,-124.59 110.08,-125.7 119.01,-131.4 120.61,-124.59"/>
</a>
</g>
</g>
<!-- Node17&#45;&gt;Node3 -->
<g id="edge34_Node000017_Node000003" class="edge">
<title>Node17&#45;&gt;Node3</title>
<g id="a_edge34_Node000017_Node000003"><a xlink:title=" ">
<path fill="none" stroke="#63b8ff" d="M518.43,-219.74C534.46,-193.87 581.79,-117.48 603.23,-82.88"/>
<polygon fill="#63b8ff" stroke="#63b8ff" points="606.25,-84.65 608.54,-74.31 600.3,-80.96 606.25,-84.65"/>
</a>
</g>
</g>
<!-- Node17&#45;&gt;Node13 -->
<g id="edge32_Node000017_Node000013" class="edge">
<title>Node17&#45;&gt;Node13</title>
<g id="a_edge32_Node000017_Node000013"><a xlink:title=" ">
<path fill="none" stroke="#63b8ff" d="M508.34,-219.66C498.94,-201.85 477.57,-161.37 465.24,-138.01"/>
<polygon fill="#63b8ff" stroke="#63b8ff" points="468.33,-136.37 460.57,-129.16 462.14,-139.64 468.33,-136.37"/>
</a>
</g>
</g>
<!-- Node17&#45;&gt;Node14 -->
<g id="edge33_Node000017_Node000014" class="edge">
<title>Node17&#45;&gt;Node14</title>
<g id="a_edge33_Node000017_Node000014"><a xlink:title=" ">
<path fill="none" stroke="#63b8ff" d="M480.87,-219.98C446.85,-210.97 393,-196.7 355.5,-186.76"/>
<polygon fill="#63b8ff" stroke="#63b8ff" points="355.95,-183.26 345.39,-184.08 354.16,-190.03 355.95,-183.26"/>
</a>
</g>
</g>
<!-- Node18&#45;&gt;Node3 -->
<g id="edge38_Node000018_Node000003" class="edge">
<title>Node18&#45;&gt;Node3</title>
<g id="a_edge38_Node000018_Node000003"><a xlink:title=" ">
<path fill="none" stroke="#63b8ff" d="M698.09,-439.93C737.38,-426 804,-394.43 804,-340.5 804,-340.5 804,-340.5 804,-283.5 804,-231.52 679.69,-121 632.17,-80.65"/>
<polygon fill="#63b8ff" stroke="#63b8ff" points="634.39,-77.94 624.49,-74.17 629.87,-83.29 634.39,-77.94"/>
</a>
</g>
</g>
<!-- Node18&#45;&gt;Node10 -->
<g id="edge37_Node000018_Node000010" class="edge">
<title>Node18&#45;&gt;Node10</title>
<g id="a_edge37_Node000018_Node000010"><a xlink:title=" ">
<path fill="none" stroke="#63b8ff" d="M689.17,-439.88C711.11,-428.7 742.48,-407.91 730,-385 722.35,-370.97 708.17,-360.69 694.64,-353.57"/>
<polygon fill="#63b8ff" stroke="#63b8ff" points="695.99,-350.34 685.47,-349.14 692.95,-356.64 695.99,-350.34"/>
</a>
</g>
</g>
<!-- Node19 -->
<g id="Node000019" class="node">
<title>Node19</title>
<g id="a_Node000019"><a xlink:title=" ">
<polygon fill="#e0e0e0" stroke="#999999" points="601.5,-404 556.5,-404 556.5,-385 601.5,-385 601.5,-404"/>
<text text-anchor="middle" x="579" y="-392" font-family="Helvetica,sans-Serif" font-size="10.00">utility</text>
</a>
</g>
</g>
<!-- Node18&#45;&gt;Node19 -->
<g id="edge36_Node000018_Node000019" class="edge">
<title>Node18&#45;&gt;Node19</title>
<g id="a_edge36_Node000018_Node000019"><a xlink:title=" ">
<path fill="none" stroke="#63b8ff" d="M655.38,-439.98C641.14,-431.69 619.25,-418.94 602.55,-409.22"/>
<polygon fill="#63b8ff" stroke="#63b8ff" points="604.29,-406.18 593.89,-404.17 600.77,-412.23 604.29,-406.18"/>
</a>
</g>
</g>
<!-- Node20 -->
<g id="Node000020" class="node">
<title>Node20</title>
<g id="a_Node000020"><a xlink:href="CCSDSValidator_8h.html" target="_top" xlink:title="Defines the Validator class for CCSDS packet validation.">
<polygon fill="white" stroke="#666666" points="720.5,-404 619.5,-404 619.5,-385 720.5,-385 720.5,-404"/>
<text text-anchor="middle" x="670" y="-392" font-family="Helvetica,sans-Serif" font-size="10.00">CCSDSValidator.h</text>
</a>
</g>
</g>
<!-- Node18&#45;&gt;Node20 -->
<g id="edge39_Node000018_Node000020" class="edge">
<title>Node18&#45;&gt;Node20</title>
<g id="a_edge39_Node000018_Node000020"><a xlink:title=" ">
<path fill="none" stroke="#63b8ff" d="M670,-439.75C670,-432.8 670,-422.85 670,-414.13"/>
<polygon fill="#63b8ff" stroke="#63b8ff" points="673.5,-414.09 670,-404.09 666.5,-414.09 673.5,-414.09"/>
</a>
</g>
</g>
<!-- Node20&#45;&gt;Node10 -->
<g id="edge40_Node000020_Node000010" class="edge">
<title>Node20&#45;&gt;Node10</title>
<g id="a_edge40_Node000020_Node000010"><a xlink:title=" ">
<path fill="none" stroke="#63b8ff" d="M668.51,-384.75C667.33,-377.8 665.64,-367.85 664.16,-359.13"/>
<polygon fill="#63b8ff" stroke="#63b8ff" points="667.58,-358.36 662.46,-349.09 660.68,-359.53 667.58,-358.36"/>
</a>
</g>
</g>
</g>
</svg>
