<?xml version="1.0" encoding="UTF-8" standalone="no"?>
<!DOCTYPE svg PUBLIC "-//W3C//DTD SVG 1.1//EN"
 "http://www.w3.org/Graphics/SVG/1.1/DTD/svg11.dtd">
<!-- Generated by graphviz version 2.43.0 (0)
 -->
<!-- Title: inc/CCSDSPacket.h Pages: 1 -->
<!--zoomable 412 -->

<svg id="main" version="1.1" xmlns="http://www.w3.org/2000/svg" xmlns:xlink="http://www.w3.org/1999/xlink" xml:space="preserve" onload="init(evt)">
<style type="text/css"><![CDATA[
.node, .edge {opacity: 0.7;}
.node.selected, .edge.selected {opacity: 1;}
.edge:hover path { stroke: red; }
.edge:hover polygon { stroke: red; fill: red; }
]]></style>

<defs>
  <circle id="rim" cx="0" cy="0" r="7"/>
  <circle id="rim2" cx="0" cy="0" r="3.5"/>
  <g id="zoomPlus">
    <use xlink:href="#rim" fill="#404040"><set attributeName="fill" to="#808080" begin="zoomplus.mouseover" end="zoomplus.mouseout"/></use>
    <path d="M-4,0h8M0,-4v8" fill="none" stroke="white" stroke-width="1.5" pointer-events="none"/>
  </g>
  <g id="zoomMin">
    <use xlink:href="#rim" fill="#404040"><set attributeName="fill" to="#808080" begin="zoomminus.mouseover" end="zoomminus.mouseout"/></use>
    <path d="M-4,0h8" fill="none" stroke="white" stroke-width="1.5" pointer-events="none"/>
  </g>
  <g id="arrowUp" transform="translate(30 24)">
    <use xlink:href="#rim"/>
    <path pointer-events="none" fill="none" stroke="white" stroke-width="1.5" d="M0,-3.0v7 M-2.5,-0.5L0,-3.0L2.5,-0.5"/>
  </g>
  <g id="arrowRight" transform="rotate(90) translate(36 -43)">
    <use xlink:href="#rim"/>
    <path pointer-events="none" fill="none" stroke="white" stroke-width="1.5" d="M0,-3.0v7 M-2.5,-0.5L0,-3.0L2.5,-0.5"/>
  </g>
  <g id="arrowDown" transform="rotate(180) translate(-30 -48)">
    <use xlink:href="#rim"/>
    <path pointer-events="none" fill="none" stroke="white" stroke-width="1.5" d="M0,-3.0v7 M-2.5,-0.5L0,-3.0L2.5,-0.5"/>
  </g>
  <g id="arrowLeft" transform="rotate(270) translate(-36 17)">
    <use xlink:href="#rim"/>
    <path pointer-events="none" fill="none" stroke="white" stroke-width="1.5" d="M0,-3.0v7 M-2.5,-0.5L0,-3.0L2.5,-0.5"/>
  </g>
  <g id="resetDef">
    <use xlink:href="#rim2" fill="#404040"><set attributeName="fill" to="#808080" begin="reset.mouseover" end="reset.mouseout"/></use>
  </g>
</defs>
<script type="application/ecmascript">
var viewWidth = 758;
var viewHeight = 412;
var sectionId = 'dynsection-0';
</script>
<script type="application/ecmascript" xlink:href="svg.min.js"/>
<svg id="graph" class="graph">
<g id="viewport">
<title>inc/CCSDSPacket.h</title>
<!-- Node1 -->
<g id="Node000001" class="node">
<title>Node1</title>
<g id="a_Node000001"><a xlink:title=" ">
<polygon fill="#999999" stroke="#666666" points="328,-404 221,-404 221,-385 328,-385 328,-404"/>
<text text-anchor="middle" x="274.5" y="-392" font-family="Helvetica,sans-Serif" font-size="10.00">inc/CCSDSPacket.h</text>
</a>
</g>
</g>
<!-- Node2 -->
<g id="Node000002" class="node">
<title>Node2</title>
<g id="a_Node000002"><a xlink:href="CCSDSResult_8h.html" target="_top" xlink:title=" ">
<polygon fill="white" stroke="#666666" points="246,-74 157,-74 157,-55 246,-55 246,-74"/>
<text text-anchor="middle" x="201.5" y="-62" font-family="Helvetica,sans-Serif" font-size="10.00">CCSDSResult.h</text>
</a>
</g>
</g>
<!-- Node1&#45;&gt;Node2 -->
<g id="edge1_Node000001_Node000002" class="edge">
<title>Node1&#45;&gt;Node2</title>
<g id="a_edge1_Node000001_Node000002"><a xlink:title=" ">
<path fill="none" stroke="#63b8ff" d="M254.3,-384.97C238.19,-377.39 215.86,-365.02 200.5,-349 163.94,-310.87 167.18,-290.51 155.5,-239 142.79,-182.95 136.29,-160.07 164.5,-110 170.21,-99.87 178.32,-89.8 185.5,-81.8"/>
<polygon fill="#63b8ff" stroke="#63b8ff" points="188.23,-84.01 192.5,-74.31 183.11,-79.23 188.23,-84.01"/>
</a>
</g>
</g>
<!-- Node4 -->
<g id="Node000004" class="node">
<title>Node4</title>
<g id="a_Node000004"><a xlink:title=" ">
<polygon fill="#e0e0e0" stroke="#999999" points="393,-19 346,-19 346,0 393,0 393,-19"/>
<text text-anchor="middle" x="369.5" y="-7" font-family="Helvetica,sans-Serif" font-size="10.00">vector</text>
</a>
</g>
</g>
<!-- Node1&#45;&gt;Node4 -->
<g id="edge6_Node000001_Node000004" class="edge">
<title>Node1&#45;&gt;Node4</title>
<g id="a_edge6_Node000001_Node000004"><a xlink:title=" ">
<path fill="none" stroke="#63b8ff" d="M328.07,-392.54C452.29,-388.87 749.5,-371.13 749.5,-285.5 749.5,-285.5 749.5,-285.5 749.5,-118.5 749.5,-74.14 713.04,-72.99 672.5,-55 581.23,-14.49 460.8,-9.47 403.11,-9.67"/>
<polygon fill="#63b8ff" stroke="#63b8ff" points="403.06,-6.17 393.1,-9.76 403.13,-13.17 403.06,-6.17"/>
</a>
</g>
</g>
<!-- Node7 -->
<g id="Node000007" class="node">
<title>Node7</title>
<g id="a_Node000007"><a xlink:href="CCSDSHeader_8h.html" target="_top" xlink:title=" ">
<polygon fill="white" stroke="#666666" points="93,-129 0,-129 0,-110 93,-110 93,-129"/>
<text text-anchor="middle" x="46.5" y="-117" font-family="Helvetica,sans-Serif" font-size="10.00">CCSDSHeader.h</text>
</a>
</g>
</g>
<!-- Node1&#45;&gt;Node7 -->
<g id="edge7_Node000001_Node000007" class="edge">
<title>Node1&#45;&gt;Node7</title>
<g id="a_edge7_Node000001_Node000007"><a xlink:title=" ">
<path fill="none" stroke="#63b8ff" d="M264.14,-384.75C244.71,-368.1 201.92,-330.26 170.5,-294 124.14,-240.5 77.85,-170.12 57.4,-137.93"/>
<polygon fill="#63b8ff" stroke="#63b8ff" points="60.2,-135.82 51.91,-129.23 54.28,-139.55 60.2,-135.82"/>
</a>
</g>
</g>
<!-- Node8 -->
<g id="Node000008" class="node">
<title>Node8</title>
<g id="a_Node000008"><a xlink:href="CCSDSDataField_8h.html" target="_top" xlink:title=" ">
<polygon fill="white" stroke="#666666" points="444,-349 339,-349 339,-330 444,-330 444,-349"/>
<text text-anchor="middle" x="391.5" y="-337" font-family="Helvetica,sans-Serif" font-size="10.00">CCSDSDataField.h</text>
</a>
</g>
</g>
<!-- Node1&#45;&gt;Node8 -->
<g id="edge11_Node000001_Node000008" class="edge">
<title>Node1&#45;&gt;Node8</title>
<g id="a_edge11_Node000001_Node000008"><a xlink:title=" ">
<path fill="none" stroke="#63b8ff" d="M293.3,-384.98C312.12,-376.46 341.32,-363.23 363,-353.41"/>
<polygon fill="#63b8ff" stroke="#63b8ff" points="364.7,-356.48 372.36,-349.17 361.81,-350.11 364.7,-356.48"/>
</a>
</g>
</g>
<!-- Node3 -->
<g id="Node000003" class="node">
<title>Node3</title>
<g id="a_Node000003"><a xlink:title=" ">
<polygon fill="#e0e0e0" stroke="#999999" points="154,-19 103,-19 103,0 154,0 154,-19"/>
<text text-anchor="middle" x="128.5" y="-7" font-family="Helvetica,sans-Serif" font-size="10.00">variant</text>
</a>
</g>
</g>
<!-- Node2&#45;&gt;Node3 -->
<g id="edge2_Node000002_Node000003" class="edge">
<title>Node2&#45;&gt;Node3</title>
<g id="a_edge2_Node000002_Node000003"><a xlink:title=" ">
<path fill="none" stroke="#63b8ff" d="M189.77,-54.98C178.77,-47 162.08,-34.88 148.9,-25.31"/>
<polygon fill="#63b8ff" stroke="#63b8ff" points="150.59,-22.21 140.44,-19.17 146.48,-27.88 150.59,-22.21"/>
</a>
</g>
</g>
<!-- Node2&#45;&gt;Node4 -->
<g id="edge3_Node000002_Node000004" class="edge">
<title>Node2&#45;&gt;Node4</title>
<g id="a_edge3_Node000002_Node000004"><a xlink:title=" ">
<path fill="none" stroke="#63b8ff" d="M228.49,-54.98C257.79,-45.74 304.59,-30.98 336.16,-21.02"/>
<polygon fill="#63b8ff" stroke="#63b8ff" points="337.35,-24.31 345.83,-17.97 335.24,-17.64 337.35,-24.31"/>
</a>
</g>
</g>
<!-- Node5 -->
<g id="Node000005" class="node">
<title>Node5</title>
<g id="a_Node000005"><a xlink:title=" ">
<polygon fill="#e0e0e0" stroke="#999999" points="302.5,-19 252.5,-19 252.5,0 302.5,0 302.5,-19"/>
<text text-anchor="middle" x="277.5" y="-7" font-family="Helvetica,sans-Serif" font-size="10.00">cstdint</text>
</a>
</g>
</g>
<!-- Node2&#45;&gt;Node5 -->
<g id="edge4_Node000002_Node000005" class="edge">
<title>Node2&#45;&gt;Node5</title>
<g id="a_edge4_Node000002_Node000005"><a xlink:title=" ">
<path fill="none" stroke="#63b8ff" d="M213.71,-54.98C225.28,-46.92 242.88,-34.65 256.66,-25.03"/>
<polygon fill="#63b8ff" stroke="#63b8ff" points="258.87,-27.76 265.07,-19.17 254.86,-22.02 258.87,-27.76"/>
</a>
</g>
</g>
<!-- Node6 -->
<g id="Node000006" class="node">
<title>Node6</title>
<g id="a_Node000006"><a xlink:title=" ">
<polygon fill="#e0e0e0" stroke="#999999" points="232.5,-19 172.5,-19 172.5,0 232.5,0 232.5,-19"/>
<text text-anchor="middle" x="202.5" y="-7" font-family="Helvetica,sans-Serif" font-size="10.00">iostream</text>
</a>
</g>
</g>
<!-- Node2&#45;&gt;Node6 -->
<g id="edge5_Node000002_Node000006" class="edge">
<title>Node2&#45;&gt;Node6</title>
<g id="a_edge5_Node000002_Node000006"><a xlink:title=" ">
<path fill="none" stroke="#63b8ff" d="M201.67,-54.75C201.8,-47.8 201.98,-37.85 202.15,-29.13"/>
<polygon fill="#63b8ff" stroke="#63b8ff" points="205.65,-29.15 202.34,-19.09 198.65,-29.02 205.65,-29.15"/>
</a>
</g>
</g>
<!-- Node7&#45;&gt;Node2 -->
<g id="edge8_Node000007_Node000002" class="edge">
<title>Node7&#45;&gt;Node2</title>
<g id="a_edge8_Node000007_Node000002"><a xlink:title=" ">
<path fill="none" stroke="#63b8ff" d="M71.4,-109.98C97.2,-101.16 137.72,-87.31 166.68,-77.41"/>
<polygon fill="#63b8ff" stroke="#63b8ff" points="168.07,-80.63 176.4,-74.08 165.81,-74.01 168.07,-80.63"/>
</a>
</g>
</g>
<!-- Node7&#45;&gt;Node4 -->
<g id="edge10_Node000007_Node000004" class="edge">
<title>Node7&#45;&gt;Node4</title>
<g id="a_edge10_Node000007_Node000004"><a xlink:title=" ">
<path fill="none" stroke="#63b8ff" d="M57.41,-109.84C75.34,-96.06 112.63,-69.23 148.5,-55 182.18,-41.64 282.75,-24.32 335.83,-15.77"/>
<polygon fill="#63b8ff" stroke="#63b8ff" points="336.46,-19.21 345.78,-14.18 335.35,-12.3 336.46,-19.21"/>
</a>
</g>
</g>
<!-- Node7&#45;&gt;Node5 -->
<g id="edge9_Node000007_Node000005" class="edge">
<title>Node7&#45;&gt;Node5</title>
<g id="a_edge9_Node000007_Node000005"><a xlink:title=" ">
<path fill="none" stroke="#63b8ff" d="M51.82,-109.6C60.59,-95.74 79.42,-69.1 102.5,-55 108.54,-51.31 193.2,-30.67 242.51,-18.84"/>
<polygon fill="#63b8ff" stroke="#63b8ff" points="243.55,-22.19 252.46,-16.46 241.92,-15.38 243.55,-22.19"/>
</a>
</g>
</g>
<!-- Node8&#45;&gt;Node2 -->
<g id="edge12_Node000008_Node000002" class="edge">
<title>Node8&#45;&gt;Node2</title>
<g id="a_edge12_Node000008_Node000002"><a xlink:title=" ">
<path fill="none" stroke="#63b8ff" d="M338.86,-336.46C270.41,-330.66 159.5,-309.14 159.5,-230.5 159.5,-230.5 159.5,-230.5 159.5,-173.5 159.5,-139.46 177.85,-103.24 190.29,-82.59"/>
<polygon fill="#63b8ff" stroke="#63b8ff" points="193.31,-84.35 195.66,-74.02 187.38,-80.63 193.31,-84.35"/>
</a>
</g>
</g>
<!-- Node8&#45;&gt;Node4 -->
<g id="edge13_Node000008_Node000004" class="edge">
<title>Node8&#45;&gt;Node4</title>
<g id="a_edge13_Node000008_Node000004"><a xlink:title=" ">
<path fill="none" stroke="#63b8ff" d="M444.34,-331.77C535.23,-318.71 711.5,-286.2 711.5,-230.5 711.5,-230.5 711.5,-230.5 711.5,-118.5 711.5,-74.82 676.13,-73.36 636.5,-55 558.51,-18.87 455.67,-11.65 403.3,-10.47"/>
<polygon fill="#63b8ff" stroke="#63b8ff" points="403.28,-6.97 393.22,-10.31 403.16,-13.97 403.28,-6.97"/>
</a>
</g>
</g>
<!-- Node9 -->
<g id="Node000009" class="node">
<title>Node9</title>
<g id="a_Node000009"><a xlink:title=" ">
<polygon fill="#e0e0e0" stroke="#999999" points="683.5,-184 625.5,-184 625.5,-165 683.5,-165 683.5,-184"/>
<text text-anchor="middle" x="654.5" y="-172" font-family="Helvetica,sans-Serif" font-size="10.00">memory</text>
</a>
</g>
</g>
<!-- Node8&#45;&gt;Node9 -->
<g id="edge14_Node000008_Node000009" class="edge">
<title>Node8&#45;&gt;Node9</title>
<g id="a_edge14_Node000008_Node000009"><a xlink:title=" ">
<path fill="none" stroke="#63b8ff" d="M444.2,-333.32C503.02,-324.55 596.37,-301.13 645.5,-239 655.32,-226.58 657.01,-208.37 656.57,-194.63"/>
<polygon fill="#63b8ff" stroke="#63b8ff" points="660.04,-194.09 655.83,-184.37 653.06,-194.59 660.04,-194.09"/>
</a>
</g>
</g>
<!-- Node10 -->
<g id="Node000010" class="node">
<title>Node10</title>
<g id="a_Node000010"><a xlink:href="CCSDSSecondaryHeaderAbstract_8h.html" target="_top" xlink:title=" ">
<polygon fill="white" stroke="#666666" points="410,-184 225,-184 225,-165 410,-165 410,-184"/>
<text text-anchor="middle" x="317.5" y="-172" font-family="Helvetica,sans-Serif" font-size="10.00">CCSDSSecondaryHeaderAbstract.h</text>
</a>
</g>
</g>
<!-- Node8&#45;&gt;Node10 -->
<g id="edge15_Node000008_Node000010" class="edge">
<title>Node8&#45;&gt;Node10</title>
<g id="a_edge15_Node000008_Node000010"><a xlink:title=" ">
<path fill="none" stroke="#63b8ff" d="M377.03,-329.79C365.29,-321.93 349.3,-309.27 340.5,-294 322.26,-262.33 318.2,-218.82 317.46,-194.3"/>
<polygon fill="#63b8ff" stroke="#63b8ff" points="320.96,-194.15 317.32,-184.2 313.96,-194.25 320.96,-194.15"/>
</a>
</g>
</g>
<!-- Node14 -->
<g id="Node000014" class="node">
<title>Node14</title>
<g id="a_Node000014"><a xlink:href="CCSDSSecondaryHeaderFactory_8h.html" target="_top" xlink:title=" ">
<polygon fill="white" stroke="#666666" points="636,-239 457,-239 457,-220 636,-220 636,-239"/>
<text text-anchor="middle" x="546.5" y="-227" font-family="Helvetica,sans-Serif" font-size="10.00">CCSDSSecondaryHeaderFactory.h</text>
</a>
</g>
</g>
<!-- Node8&#45;&gt;Node14 -->
<g id="edge25_Node000008_Node000014" class="edge">
<title>Node8&#45;&gt;Node14</title>
<g id="a_edge25_Node000008_Node000014"><a xlink:title=" ">
<path fill="none" stroke="#63b8ff" d="M403.92,-329.84C430.45,-311.36 492.88,-267.86 525.62,-245.05"/>
<polygon fill="#63b8ff" stroke="#63b8ff" points="527.81,-247.79 534.02,-239.2 523.81,-242.04 527.81,-247.79"/>
</a>
</g>
</g>
<!-- Node16 -->
<g id="Node000016" class="node">
<title>Node16</title>
<g id="a_Node000016"><a xlink:href="PusServices_8h.html" target="_top" xlink:title=" ">
<polygon fill="white" stroke="#666666" points="433.5,-294 349.5,-294 349.5,-275 433.5,-275 433.5,-294"/>
<text text-anchor="middle" x="391.5" y="-282" font-family="Helvetica,sans-Serif" font-size="10.00">PusServices.h</text>
</a>
</g>
</g>
<!-- Node8&#45;&gt;Node16 -->
<g id="edge31_Node000008_Node000016" class="edge">
<title>Node8&#45;&gt;Node16</title>
<g id="a_edge31_Node000008_Node000016"><a xlink:title=" ">
<path fill="none" stroke="#63b8ff" d="M391.5,-329.75C391.5,-322.8 391.5,-312.85 391.5,-304.13"/>
<polygon fill="#63b8ff" stroke="#63b8ff" points="395,-304.09 391.5,-294.09 388,-304.09 395,-304.09"/>
</a>
</g>
</g>
<!-- Node10&#45;&gt;Node2 -->
<g id="edge16_Node000010_Node000002" class="edge">
<title>Node10&#45;&gt;Node2</title>
<g id="a_edge16_Node000010_Node000002"><a xlink:title=" ">
<path fill="none" stroke="#63b8ff" d="M306.7,-164.91C295.81,-156.15 278.65,-142.02 264.5,-129 247.66,-113.5 229.32,-94.8 216.8,-81.72"/>
<polygon fill="#63b8ff" stroke="#63b8ff" points="219.25,-79.21 209.82,-74.38 214.17,-84.04 219.25,-79.21"/>
</a>
</g>
</g>
<!-- Node10&#45;&gt;Node4 -->
<g id="edge17_Node000010_Node000004" class="edge">
<title>Node10&#45;&gt;Node4</title>
<g id="a_edge17_Node000010_Node000004"><a xlink:title=" ">
<path fill="none" stroke="#63b8ff" d="M320.3,-164.74C328.44,-139.2 352.3,-64.43 363.52,-29.23"/>
<polygon fill="#63b8ff" stroke="#63b8ff" points="366.99,-29.9 366.69,-19.31 360.32,-27.77 366.99,-29.9"/>
</a>
</g>
</g>
<!-- Node10&#45;&gt;Node5 -->
<g id="edge18_Node000010_Node000005" class="edge">
<title>Node10&#45;&gt;Node5</title>
<g id="a_edge18_Node000010_Node000005"><a xlink:title=" ">
<path fill="none" stroke="#63b8ff" d="M314.48,-164.7C311.47,-155.77 306.84,-141.52 303.5,-129 294.18,-94.02 285.65,-52.59 281.06,-29.15"/>
<polygon fill="#63b8ff" stroke="#63b8ff" points="284.47,-28.34 279.13,-19.19 277.59,-29.67 284.47,-28.34"/>
</a>
</g>
</g>
<!-- Node11 -->
<g id="Node000011" class="node">
<title>Node11</title>
<g id="a_Node000011"><a xlink:href="CCSDSConfig_8h.html" target="_top" xlink:title=" ">
<polygon fill="white" stroke="#666666" points="438,-129 349,-129 349,-110 438,-110 438,-129"/>
<text text-anchor="middle" x="393.5" y="-117" font-family="Helvetica,sans-Serif" font-size="10.00">CCSDSConfig.h</text>
</a>
</g>
</g>
<!-- Node10&#45;&gt;Node11 -->
<g id="edge19_Node000010_Node000011" class="edge">
<title>Node10&#45;&gt;Node11</title>
<g id="a_edge19_Node000010_Node000011"><a xlink:title=" ">
<path fill="none" stroke="#63b8ff" d="M329.71,-164.98C341.28,-156.92 358.88,-144.65 372.66,-135.03"/>
<polygon fill="#63b8ff" stroke="#63b8ff" points="374.87,-137.76 381.07,-129.17 370.86,-132.02 374.87,-137.76"/>
</a>
</g>
</g>
<!-- Node11&#45;&gt;Node2 -->
<g id="edge23_Node000011_Node000002" class="edge">
<title>Node11&#45;&gt;Node2</title>
<g id="a_edge23_Node000011_Node000002"><a xlink:title=" ">
<path fill="none" stroke="#63b8ff" d="M362.65,-109.98C330,-100.97 278.3,-86.7 242.3,-76.76"/>
<polygon fill="#63b8ff" stroke="#63b8ff" points="243.16,-73.37 232.59,-74.08 241.3,-80.12 243.16,-73.37"/>
</a>
</g>
</g>
<!-- Node11&#45;&gt;Node4 -->
<g id="edge22_Node000011_Node000004" class="edge">
<title>Node11&#45;&gt;Node4</title>
<g id="a_edge22_Node000011_Node000004"><a xlink:title=" ">
<path fill="none" stroke="#63b8ff" d="M391.54,-109.66C387.63,-92.09 378.82,-52.45 373.6,-28.95"/>
<polygon fill="#63b8ff" stroke="#63b8ff" points="377.01,-28.16 371.42,-19.16 370.18,-29.68 377.01,-28.16"/>
</a>
</g>
</g>
<!-- Node11&#45;&gt;Node5 -->
<g id="edge21_Node000011_Node000005" class="edge">
<title>Node11&#45;&gt;Node5</title>
<g id="a_edge21_Node000011_Node000005"><a xlink:title=" ">
<path fill="none" stroke="#63b8ff" d="M384.01,-109.66C364.37,-91.38 319.05,-49.18 294.33,-26.17"/>
<polygon fill="#63b8ff" stroke="#63b8ff" points="296.5,-23.41 286.8,-19.16 291.73,-28.53 296.5,-23.41"/>
</a>
</g>
</g>
<!-- Node12 -->
<g id="Node000012" class="node">
<title>Node12</title>
<g id="a_Node000012"><a xlink:title=" ">
<polygon fill="#e0e0e0" stroke="#999999" points="482.5,-74 438.5,-74 438.5,-55 482.5,-55 482.5,-74"/>
<text text-anchor="middle" x="460.5" y="-62" font-family="Helvetica,sans-Serif" font-size="10.00">string</text>
</a>
</g>
</g>
<!-- Node11&#45;&gt;Node12 -->
<g id="edge20_Node000011_Node000012" class="edge">
<title>Node11&#45;&gt;Node12</title>
<g id="a_edge20_Node000011_Node000012"><a xlink:title=" ">
<path fill="none" stroke="#63b8ff" d="M404.26,-109.98C414.27,-102.07 429.39,-90.11 441.43,-80.58"/>
<polygon fill="#63b8ff" stroke="#63b8ff" points="443.87,-83.12 449.54,-74.17 439.53,-77.63 443.87,-83.12"/>
</a>
</g>
</g>
<!-- Node13 -->
<g id="Node000013" class="node">
<title>Node13</title>
<g id="a_Node000013"><a xlink:title=" ">
<polygon fill="#e0e0e0" stroke="#999999" points="627,-74 534,-74 534,-55 627,-55 627,-74"/>
<text text-anchor="middle" x="580.5" y="-62" font-family="Helvetica,sans-Serif" font-size="10.00">unordered_map</text>
</a>
</g>
</g>
<!-- Node11&#45;&gt;Node13 -->
<g id="edge24_Node000011_Node000013" class="edge">
<title>Node11&#45;&gt;Node13</title>
<g id="a_edge24_Node000011_Node000013"><a xlink:title=" ">
<path fill="none" stroke="#63b8ff" d="M423.54,-109.98C455.21,-101.01 505.27,-86.82 540.31,-76.89"/>
<polygon fill="#63b8ff" stroke="#63b8ff" points="541.55,-80.18 550.22,-74.08 539.64,-73.44 541.55,-80.18"/>
</a>
</g>
</g>
<!-- Node14&#45;&gt;Node9 -->
<g id="edge26_Node000014_Node000009" class="edge">
<title>Node14&#45;&gt;Node9</title>
<g id="a_edge26_Node000014_Node000009"><a xlink:title=" ">
<path fill="none" stroke="#63b8ff" d="M563.85,-219.98C581.07,-211.54 607.7,-198.47 627.65,-188.68"/>
<polygon fill="#63b8ff" stroke="#63b8ff" points="629.4,-191.72 636.83,-184.17 626.31,-185.43 629.4,-191.72"/>
</a>
</g>
</g>
<!-- Node14&#45;&gt;Node10 -->
<g id="edge30_Node000014_Node000010" class="edge">
<title>Node14&#45;&gt;Node10</title>
<g id="a_edge30_Node000014_Node000010"><a xlink:title=" ">
<path fill="none" stroke="#63b8ff" d="M509.71,-219.98C470.26,-210.86 407.52,-196.33 364.52,-186.38"/>
<polygon fill="#63b8ff" stroke="#63b8ff" points="365.11,-182.93 354.58,-184.08 363.53,-189.75 365.11,-182.93"/>
</a>
</g>
</g>
<!-- Node14&#45;&gt;Node12 -->
<g id="edge29_Node000014_Node000012" class="edge">
<title>Node14&#45;&gt;Node12</title>
<g id="a_edge29_Node000014_Node000012"><a xlink:title=" ">
<path fill="none" stroke="#63b8ff" d="M547.21,-219.92C547.92,-207.36 548,-183.47 540.5,-165 526.64,-130.86 497.04,-99.1 477.99,-81.02"/>
<polygon fill="#63b8ff" stroke="#63b8ff" points="480.27,-78.36 470.55,-74.15 475.52,-83.51 480.27,-78.36"/>
</a>
</g>
</g>
<!-- Node14&#45;&gt;Node13 -->
<g id="edge27_Node000014_Node000013" class="edge">
<title>Node14&#45;&gt;Node13</title>
<g id="a_edge27_Node000014_Node000013"><a xlink:title=" ">
<path fill="none" stroke="#63b8ff" d="M553.47,-219.92C559.96,-211.39 569.25,-197.63 573.5,-184 584.09,-150.01 583.58,-107.94 582.12,-84.17"/>
<polygon fill="#63b8ff" stroke="#63b8ff" points="585.6,-83.8 581.38,-74.08 578.62,-84.31 585.6,-83.8"/>
</a>
</g>
</g>
<!-- Node15 -->
<g id="Node000015" class="node">
<title>Node15</title>
<g id="a_Node000015"><a xlink:title=" ">
<polygon fill="#e0e0e0" stroke="#999999" points="531,-184 466,-184 466,-165 531,-165 531,-184"/>
<text text-anchor="middle" x="498.5" y="-172" font-family="Helvetica,sans-Serif" font-size="10.00">functional</text>
</a>
</g>
</g>
<!-- Node14&#45;&gt;Node15 -->
<g id="edge28_Node000014_Node000015" class="edge">
<title>Node14&#45;&gt;Node15</title>
<g id="a_edge28_Node000014_Node000015"><a xlink:title=" ">
<path fill="none" stroke="#63b8ff" d="M538.57,-219.75C531.65,-212.11 521.43,-200.82 513.05,-191.56"/>
<polygon fill="#63b8ff" stroke="#63b8ff" points="515.59,-189.15 506.28,-184.09 510.4,-193.85 515.59,-189.15"/>
</a>
</g>
</g>
<!-- Node16&#45;&gt;Node2 -->
<g id="edge34_Node000016_Node000002" class="edge">
<title>Node16&#45;&gt;Node2</title>
<g id="a_edge34_Node000016_Node000002"><a xlink:title=" ">
<path fill="none" stroke="#63b8ff" d="M359.55,-274.97C319.02,-262.34 250.33,-234.54 216.5,-184 196.19,-153.66 196.72,-109.01 199.03,-84.08"/>
<polygon fill="#63b8ff" stroke="#63b8ff" points="202.51,-84.46 200.15,-74.14 195.56,-83.68 202.51,-84.46"/>
</a>
</g>
</g>
<!-- Node16&#45;&gt;Node10 -->
<g id="edge32_Node000016_Node000010" class="edge">
<title>Node16&#45;&gt;Node10</title>
<g id="a_edge32_Node000016_Node000010"><a xlink:title=" ">
<path fill="none" stroke="#63b8ff" d="M385.44,-274.66C373.19,-256.77 345.25,-216 329.28,-192.69"/>
<polygon fill="#63b8ff" stroke="#63b8ff" points="331.97,-190.43 323.43,-184.16 326.2,-194.39 331.97,-190.43"/>
</a>
</g>
</g>
<!-- Node16&#45;&gt;Node11 -->
<g id="edge35_Node000016_Node000011" class="edge">
<title>Node16&#45;&gt;Node11</title>
<g id="a_edge35_Node000016_Node000011"><a xlink:title=" ">
<path fill="none" stroke="#63b8ff" d="M396.52,-274.83C407.24,-255.18 430.55,-205.81 419.5,-165 416.84,-155.19 411.43,-145.33 406.22,-137.39"/>
<polygon fill="#63b8ff" stroke="#63b8ff" points="409,-135.25 400.39,-129.07 403.27,-139.27 409,-135.25"/>
</a>
</g>
</g>
<!-- Node16&#45;&gt;Node14 -->
<g id="edge33_Node000016_Node000014" class="edge">
<title>Node16&#45;&gt;Node14</title>
<g id="a_edge33_Node000016_Node000014"><a xlink:title=" ">
<path fill="none" stroke="#63b8ff" d="M416.4,-274.98C442.2,-266.16 482.72,-252.31 511.68,-242.41"/>
<polygon fill="#63b8ff" stroke="#63b8ff" points="513.07,-245.63 521.4,-239.08 510.81,-239.01 513.07,-245.63"/>
</a>
</g>
</g>
</g>
</svg>

<g id="navigator" transform="translate(0 0)" fill="#404254">
  <rect fill="#f2f5e9" fill-opacity="0.5" stroke="#606060" stroke-width=".5" x="0" y="0" width="60" height="60"/>
  <use id="zoomplus" xlink:href="#zoomPlus" x="17" y="9" onmousedown="handleZoom(evt,'in')"/>
  <use id="zoomminus" xlink:href="#zoomMin" x="42" y="9" onmousedown="handleZoom(evt,'out')"/>
  <use id="reset" xlink:href="#resetDef" x="30" y="36" onmousedown="handleReset()"/>
   <use id="arrowup" xlink:href="#arrowUp" x="0" y="0" onmousedown="handlePan(0,-1)"/>
  <use id="arrowright" xlink:href="#arrowRight" x="0" y="0" onmousedown="handlePan(1,0)"/>
  <use id="arrowdown" xlink:href="#arrowDown" x="0" y="0" onmousedown="handlePan(0,1)"/>
  <use id="arrowleft" xlink:href="#arrowLeft" x="0" y="0" onmousedown="handlePan(-1,0)"/>
</g>
<svg viewBox="0 0 15 15" width="100%" height="30px" preserveAspectRatio="xMaxYMin meet">
 <g id="arrow_out" transform="scale(0.3 0.3)">
  <a xlink:href="CCSDSPacket_8h__incl_org.svg" target="_base">
   <rect id="button" ry="5" rx="5" y="6" x="6" height="38" width="38"
        fill="#f2f5e9" fill-opacity="0.5" stroke="#606060" stroke-width="1.0"/>
   <path id="arrow"
     d="M 11.500037,31.436501 C 11.940474,20.09759 22.043105,11.32322 32.158766,21.979434 L 37.068811,17.246167 C 37.068811,17.246167 37.088388,32 37.088388,32 L 22.160133,31.978069 C 22.160133,31.978069 26.997745,27.140456 26.997745,27.140456 C 18.528582,18.264221 13.291696,25.230495 11.500037,31.436501 z"
     style="fill:#404040;"/>
  </a>
 </g>
</svg>

<style type='text/css'>
<![CDATA[
[data-mouse-over-selected='false'] { opacity: 0.7; }
[data-mouse-over-selected='true']  { opacity: 1.0; }
]]>
</style>
<script type="application/ecmascript"><![CDATA[
document.addEventListener('DOMContentLoaded', (event) => {
  highlightEdges();
  highlightAdjacentNodes();
});
]]></script>
</svg>
