<?xml version="1.0" encoding="UTF-8" standalone="no"?>
<!DOCTYPE svg PUBLIC "-//W3C//DTD SVG 1.1//EN"
 "http://www.w3.org/Graphics/SVG/1.1/DTD/svg11.dtd">
<!-- Generated by graphviz version 2.43.0 (0)
 -->
<!-- Title: printBufferData Pages: 1 -->
<svg width="616pt" height="46pt"
 viewBox="0.00 0.00 616.00 46.00" xmlns="http://www.w3.org/2000/svg" xmlns:xlink="http://www.w3.org/1999/xlink">
<g id="graph0" class="graph" transform="scale(1 1) rotate(0) translate(4 42)">
<title>printBufferData</title>
<!-- Node1 -->
<g id="Node000001" class="node">
<title>Node1</title>
<g id="a_Node000001"><a xlink:title="Prints to console the HEX data from the bytes vector.">
<polygon fill="#999999" stroke="#666666" points="608,-19 516,-19 516,0 608,0 608,-19"/>
<text text-anchor="middle" x="562" y="-7" font-family="Helvetica,sans-Serif" font-size="10.00">printBufferData</text>
</a>
</g>
</g>
<!-- Node2 -->
<g id="Node000002" class="node">
<title>Node2</title>
<g id="a_Node000002"><a xlink:href="CCSDSUtils_8cpp.html#a6e927daa91ea42db4bb94bfc51425b96" target="_top" xlink:title="Prints the data field details, including the secondary header and application data.">
<polygon fill="white" stroke="#666666" points="480,-38 418,-38 418,-19 480,-19 480,-38"/>
<text text-anchor="middle" x="449" y="-26" font-family="Helvetica,sans-Serif" font-size="10.00">printData</text>
</a>
</g>
</g>
<!-- Node1&#45;&gt;Node2 -->
<g id="edge1_Node000001_Node000002" class="edge">
<title>Node1&#45;&gt;Node2</title>
<g id="a_edge1_Node000001_Node000002"><a xlink:title=" ">
<path fill="none" stroke="#63b8ff" d="M505.9,-18.93C497.04,-20.45 488.17,-21.97 480.18,-23.33"/>
<polygon fill="#63b8ff" stroke="#63b8ff" points="506.59,-22.37 515.85,-17.23 505.4,-15.47 506.59,-22.37"/>
</a>
</g>
</g>
<!-- Node5 -->
<g id="Node000005" class="node">
<title>Node5</title>
<g id="a_Node000005"><a xlink:href="CCSDSUtils_8cpp.html#ad200055b4cb44dddba0ced16faee7d69" target="_top" xlink:title="Prints to console a series of CCSDS Packets contained in the manager.">
<polygon fill="white" stroke="#666666" points="153,-19 77,-19 77,0 153,0 153,-19"/>
<text text-anchor="middle" x="115" y="-7" font-family="Helvetica,sans-Serif" font-size="10.00">printPackets</text>
</a>
</g>
</g>
<!-- Node1&#45;&gt;Node5 -->
<g id="edge6_Node000001_Node000005" class="edge">
<title>Node1&#45;&gt;Node5</title>
<g id="a_edge6_Node000001_Node000005"><a xlink:title=" ">
<path fill="none" stroke="#63b8ff" d="M505.66,-9.5C413.64,-9.5 231.58,-9.5 153.26,-9.5"/>
<polygon fill="#63b8ff" stroke="#63b8ff" points="505.88,-13 515.88,-9.5 505.88,-6 505.88,-13"/>
</a>
</g>
</g>
<!-- Node3 -->
<g id="Node000003" class="node">
<title>Node3</title>
<g id="a_Node000003"><a xlink:href="CCSDSUtils_8cpp.html#aed99c8e7576ac25c49f6b913b46d1b76" target="_top" xlink:title="Prints the data field and the CRC&#45;16 checksum of the packet.">
<polygon fill="white" stroke="#666666" points="382,-38 296,-38 296,-19 382,-19 382,-38"/>
<text text-anchor="middle" x="339" y="-26" font-family="Helvetica,sans-Serif" font-size="10.00">printDataField</text>
</a>
</g>
</g>
<!-- Node2&#45;&gt;Node3 -->
<g id="edge2_Node000002_Node000003" class="edge">
<title>Node2&#45;&gt;Node3</title>
<g id="a_edge2_Node000002_Node000003"><a xlink:title=" ">
<path fill="none" stroke="#63b8ff" d="M407.64,-28.5C399.28,-28.5 390.45,-28.5 382.03,-28.5"/>
<polygon fill="#63b8ff" stroke="#63b8ff" points="407.92,-32 417.92,-28.5 407.92,-25 407.92,-32"/>
</a>
</g>
</g>
<!-- Node4 -->
<g id="Node000004" class="node">
<title>Node4</title>
<g id="a_Node000004"><a xlink:href="CCSDSUtils_8cpp.html#a2e40e3867139b28c1b2fa0465c3afd7e" target="_top" xlink:title="Prints to console a CCSDS Packets, breaking it down to Primary header and Data field.">
<polygon fill="white" stroke="#666666" points="260,-38 189,-38 189,-19 260,-19 260,-38"/>
<text text-anchor="middle" x="224.5" y="-26" font-family="Helvetica,sans-Serif" font-size="10.00">printPacket</text>
</a>
</g>
</g>
<!-- Node3&#45;&gt;Node4 -->
<g id="edge3_Node000003_Node000004" class="edge">
<title>Node3&#45;&gt;Node4</title>
<g id="a_edge3_Node000003_Node000004"><a xlink:title=" ">
<path fill="none" stroke="#63b8ff" d="M285.74,-28.5C277.09,-28.5 268.32,-28.5 260.24,-28.5"/>
<polygon fill="#63b8ff" stroke="#63b8ff" points="285.79,-32 295.79,-28.5 285.79,-25 285.79,-32"/>
</a>
</g>
</g>
<!-- Node4&#45;&gt;Node5 -->
<g id="edge4_Node000004_Node000005" class="edge">
<title>Node4&#45;&gt;Node5</title>
<g id="a_edge4_Node000004_Node000005"><a xlink:title=" ">
<path fill="none" stroke="#63b8ff" d="M179,-20.64C170.4,-19.12 161.47,-17.54 153.14,-16.06"/>
<polygon fill="#63b8ff" stroke="#63b8ff" points="178.44,-24.09 188.89,-22.38 179.66,-17.2 178.44,-24.09"/>
</a>
</g>
</g>
<!-- Node6 -->
<g id="Node000006" class="node">
<title>Node6</title>
<g id="a_Node000006"><a xlink:href="exec__encoder_8cpp.html#a638b85ceffac097c2aa79b76ba8c055e" target="_top" xlink:title=" ">
<polygon fill="white" stroke="#666666" points="41,-19 0,-19 0,0 41,0 41,-19"/>
<text text-anchor="middle" x="20.5" y="-7" font-family="Helvetica,sans-Serif" font-size="10.00">main</text>
</a>
</g>
</g>
<!-- Node5&#45;&gt;Node6 -->
<g id="edge5_Node000005_Node000006" class="edge">
<title>Node5&#45;&gt;Node6</title>
<g id="a_edge5_Node000005_Node000006"><a xlink:title=" ">
<path fill="none" stroke="#63b8ff" d="M66.72,-9.5C57.65,-9.5 48.64,-9.5 41.07,-9.5"/>
<polygon fill="#63b8ff" stroke="#63b8ff" points="66.91,-13 76.91,-9.5 66.91,-6 66.91,-13"/>
</a>
</g>
</g>
</g>
</svg>
