<?xml version="1.0" encoding="UTF-8" standalone="no"?>
<!DOCTYPE svg PUBLIC "-//W3C//DTD SVG 1.1//EN"
 "http://www.w3.org/Graphics/SVG/1.1/DTD/svg11.dtd">
<!-- Generated by graphviz version 2.43.0 (0)
 -->
<!-- Title: src/CCSDSManager.cpp Pages: 1 -->
<svg width="998pt" height="577pt"
 viewBox="0.00 0.00 997.50 577.00" xmlns="http://www.w3.org/2000/svg" xmlns:xlink="http://www.w3.org/1999/xlink">
<g id="graph0" class="graph" transform="scale(1 1) rotate(0) translate(4 573)">
<title>src/CCSDSManager.cpp</title>
<!-- Node1 -->
<g id="Node000001" class="node">
<title>Node1</title>
<g id="a_Node000001"><a xlink:title=" ">
<polygon fill="#999999" stroke="#666666" points="483,-569 354,-569 354,-550 483,-550 483,-569"/>
<text text-anchor="middle" x="418.5" y="-557" font-family="Helvetica,sans-Serif" font-size="10.00">src/CCSDSManager.cpp</text>
</a>
</g>
</g>
<!-- Node2 -->
<g id="Node000002" class="node">
<title>Node2</title>
<g id="a_Node000002"><a xlink:href="CCSDSManager_8h.html" target="_top" xlink:title=" ">
<polygon fill="white" stroke="#666666" points="442,-459 341,-459 341,-440 442,-440 442,-459"/>
<text text-anchor="middle" x="391.5" y="-447" font-family="Helvetica,sans-Serif" font-size="10.00">CCSDSManager.h</text>
</a>
</g>
</g>
<!-- Node1&#45;&gt;Node2 -->
<g id="edge1_Node000001_Node000002" class="edge">
<title>Node1&#45;&gt;Node2</title>
<g id="a_edge1_Node000001_Node000002"><a xlink:title=" ">
<path fill="none" stroke="#63b8ff" d="M416.29,-549.66C411.9,-532.09 401.99,-492.45 396.11,-468.95"/>
<polygon fill="#63b8ff" stroke="#63b8ff" points="399.49,-468.01 393.66,-459.16 392.69,-469.71 399.49,-468.01"/>
</a>
</g>
</g>
<!-- Node3 -->
<g id="Node000003" class="node">
<title>Node3</title>
<g id="a_Node000003"><a xlink:title=" ">
<polygon fill="#e0e0e0" stroke="#999999" points="45,-404 0,-404 0,-385 45,-385 45,-404"/>
<text text-anchor="middle" x="22.5" y="-392" font-family="Helvetica,sans-Serif" font-size="10.00">utility</text>
</a>
</g>
</g>
<!-- Node1&#45;&gt;Node3 -->
<g id="edge39_Node000001_Node000003" class="edge">
<title>Node1&#45;&gt;Node3</title>
<g id="a_edge39_Node000001_Node000003"><a xlink:title=" ">
<path fill="none" stroke="#63b8ff" d="M397.77,-549.97C332.43,-523.07 130.57,-439.98 53.16,-408.12"/>
<polygon fill="#63b8ff" stroke="#63b8ff" points="54.09,-404.72 43.51,-404.15 51.42,-411.19 54.09,-404.72"/>
</a>
</g>
</g>
<!-- Node20 -->
<g id="Node000020" class="node">
<title>Node20</title>
<g id="a_Node000020"><a xlink:title=" ">
<polygon fill="#e0e0e0" stroke="#999999" points="473.5,-514 419.5,-514 419.5,-495 473.5,-495 473.5,-514"/>
<text text-anchor="middle" x="446.5" y="-502" font-family="Helvetica,sans-Serif" font-size="10.00">random</text>
</a>
</g>
</g>
<!-- Node1&#45;&gt;Node20 -->
<g id="edge38_Node000001_Node000020" class="edge">
<title>Node1&#45;&gt;Node20</title>
<g id="a_edge38_Node000001_Node000020"><a xlink:title=" ">
<path fill="none" stroke="#63b8ff" d="M423.12,-549.75C426.96,-542.49 432.52,-531.95 437.26,-522.98"/>
<polygon fill="#63b8ff" stroke="#63b8ff" points="440.39,-524.57 441.96,-514.09 434.2,-521.3 440.39,-524.57"/>
</a>
</g>
</g>
<!-- Node21 -->
<g id="Node000021" class="node">
<title>Node21</title>
<g id="a_Node000021"><a xlink:href="CCSDSUtils_8h.html" target="_top" xlink:title=" ">
<polygon fill="white" stroke="#666666" points="826,-514 745,-514 745,-495 826,-495 826,-514"/>
<text text-anchor="middle" x="785.5" y="-502" font-family="Helvetica,sans-Serif" font-size="10.00">CCSDSUtils.h</text>
</a>
</g>
</g>
<!-- Node1&#45;&gt;Node21 -->
<g id="edge40_Node000001_Node000021" class="edge">
<title>Node1&#45;&gt;Node21</title>
<g id="a_edge40_Node000001_Node000021"><a xlink:title=" ">
<path fill="none" stroke="#63b8ff" d="M477.46,-549.98C548.77,-539.69 667.59,-522.53 734.91,-512.81"/>
<polygon fill="#63b8ff" stroke="#63b8ff" points="735.46,-516.26 744.86,-511.37 734.46,-509.33 735.46,-516.26"/>
</a>
</g>
</g>
<!-- Node2&#45;&gt;Node3 -->
<g id="edge2_Node000002_Node000003" class="edge">
<title>Node2&#45;&gt;Node3</title>
<g id="a_edge2_Node000002_Node000003"><a xlink:title=" ">
<path fill="none" stroke="#63b8ff" d="M340.93,-443.2C275.64,-436.01 158.63,-421.99 59.5,-404 58.04,-403.74 56.55,-403.45 55.05,-403.15"/>
<polygon fill="#63b8ff" stroke="#63b8ff" points="55.64,-399.7 45.13,-401.05 54.19,-406.55 55.64,-399.7"/>
</a>
</g>
</g>
<!-- Node4 -->
<g id="Node000004" class="node">
<title>Node4</title>
<g id="a_Node000004"><a xlink:href="CCSDSPacket_8h.html" target="_top" xlink:title=" ">
<polygon fill="white" stroke="#666666" points="515.5,-349 425.5,-349 425.5,-330 515.5,-330 515.5,-349"/>
<text text-anchor="middle" x="470.5" y="-337" font-family="Helvetica,sans-Serif" font-size="10.00">CCSDSPacket.h</text>
</a>
</g>
</g>
<!-- Node2&#45;&gt;Node4 -->
<g id="edge3_Node000002_Node000004" class="edge">
<title>Node2&#45;&gt;Node4</title>
<g id="a_edge3_Node000002_Node000004"><a xlink:title=" ">
<path fill="none" stroke="#63b8ff" d="M392.51,-439.96C394.38,-427.03 399.37,-402.18 411.5,-385 420.29,-372.56 433.62,-362.08 445.38,-354.43"/>
<polygon fill="#63b8ff" stroke="#63b8ff" points="447.29,-357.36 453.97,-349.14 443.62,-351.4 447.29,-357.36"/>
</a>
</g>
</g>
<!-- Node5 -->
<g id="Node000005" class="node">
<title>Node5</title>
<g id="a_Node000005"><a xlink:href="CCSDSResult_8h.html" target="_top" xlink:title=" ">
<polygon fill="white" stroke="#666666" points="212,-74 123,-74 123,-55 212,-55 212,-74"/>
<text text-anchor="middle" x="167.5" y="-62" font-family="Helvetica,sans-Serif" font-size="10.00">CCSDSResult.h</text>
</a>
</g>
</g>
<!-- Node2&#45;&gt;Node5 -->
<g id="edge35_Node000002_Node000005" class="edge">
<title>Node2&#45;&gt;Node5</title>
<g id="a_edge35_Node000002_Node000005"><a xlink:title=" ">
<path fill="none" stroke="#63b8ff" d="M340.76,-441.97C250.98,-428.98 73.5,-396.25 73.5,-340.5 73.5,-340.5 73.5,-340.5 73.5,-173.5 73.5,-131.29 114.86,-97.56 142.71,-79.63"/>
<polygon fill="#63b8ff" stroke="#63b8ff" points="144.88,-82.4 151.55,-74.17 141.21,-76.44 144.88,-82.4"/>
</a>
</g>
</g>
<!-- Node19 -->
<g id="Node000019" class="node">
<title>Node19</title>
<g id="a_Node000019"><a xlink:href="CCSDSValidator_8h.html" target="_top" xlink:title="Defines the Validator class for CCSDS packet validation.">
<polygon fill="white" stroke="#666666" points="521,-404 420,-404 420,-385 521,-385 521,-404"/>
<text text-anchor="middle" x="470.5" y="-392" font-family="Helvetica,sans-Serif" font-size="10.00">CCSDSValidator.h</text>
</a>
</g>
</g>
<!-- Node2&#45;&gt;Node19 -->
<g id="edge36_Node000002_Node000019" class="edge">
<title>Node2&#45;&gt;Node19</title>
<g id="a_edge36_Node000002_Node000019"><a xlink:title=" ">
<path fill="none" stroke="#63b8ff" d="M404.19,-439.98C416.33,-431.84 434.86,-419.41 449.25,-409.76"/>
<polygon fill="#63b8ff" stroke="#63b8ff" points="451.22,-412.65 457.58,-404.17 447.32,-406.84 451.22,-412.65"/>
</a>
</g>
</g>
<!-- Node4&#45;&gt;Node5 -->
<g id="edge4_Node000004_Node000005" class="edge">
<title>Node4&#45;&gt;Node5</title>
<g id="a_edge4_Node000004_Node000005"><a xlink:title=" ">
<path fill="none" stroke="#63b8ff" d="M425.4,-334.49C328.98,-324.67 111.5,-295.34 111.5,-230.5 111.5,-230.5 111.5,-230.5 111.5,-173.5 111.5,-137.65 136.12,-101.86 152.71,-81.81"/>
<polygon fill="#63b8ff" stroke="#63b8ff" points="155.37,-84.09 159.24,-74.23 150.06,-79.52 155.37,-84.09"/>
</a>
</g>
</g>
<!-- Node8 -->
<g id="Node000008" class="node">
<title>Node8</title>
<g id="a_Node000008"><a xlink:title=" ">
<polygon fill="#e0e0e0" stroke="#999999" points="863,-19 816,-19 816,0 863,0 863,-19"/>
<text text-anchor="middle" x="839.5" y="-7" font-family="Helvetica,sans-Serif" font-size="10.00">vector</text>
</a>
</g>
</g>
<!-- Node4&#45;&gt;Node8 -->
<g id="edge11_Node000004_Node000008" class="edge">
<title>Node4&#45;&gt;Node8</title>
<g id="a_edge11_Node000004_Node000008"><a xlink:title=" ">
<path fill="none" stroke="#63b8ff" d="M515.72,-334.25C559.56,-328.92 627.2,-317.47 681.5,-294 720.77,-277.02 727.51,-266.23 760.5,-239 814.55,-194.38 845.07,-193.07 873.5,-129 886.84,-98.93 886.48,-86.02 875.5,-55 871.75,-44.41 864.29,-34.49 857.13,-26.71"/>
<polygon fill="#63b8ff" stroke="#63b8ff" points="859.19,-23.82 849.66,-19.19 854.22,-28.76 859.19,-23.82"/>
</a>
</g>
</g>
<!-- Node9 -->
<g id="Node000009" class="node">
<title>Node9</title>
<g id="a_Node000009"><a xlink:title=" ">
<polygon fill="#e0e0e0" stroke="#999999" points="673.5,-19 623.5,-19 623.5,0 673.5,0 673.5,-19"/>
<text text-anchor="middle" x="648.5" y="-7" font-family="Helvetica,sans-Serif" font-size="10.00">cstdint</text>
</a>
</g>
</g>
<!-- Node4&#45;&gt;Node9 -->
<g id="edge10_Node000004_Node000009" class="edge">
<title>Node4&#45;&gt;Node9</title>
<g id="a_edge10_Node000004_Node000009"><a xlink:title=" ">
<path fill="none" stroke="#63b8ff" d="M425.28,-338.07C354.49,-334.75 225.5,-316.84 225.5,-230.5 225.5,-230.5 225.5,-230.5 225.5,-173.5 225.5,-144.04 223.16,-130.31 244.5,-110 298.17,-58.91 525.29,-25.8 613.38,-14.67"/>
<polygon fill="#63b8ff" stroke="#63b8ff" points="613.92,-18.13 623.41,-13.42 613.06,-11.18 613.92,-18.13"/>
</a>
</g>
</g>
<!-- Node11 -->
<g id="Node000011" class="node">
<title>Node11</title>
<g id="a_Node000011"><a xlink:href="CCSDSHeader_8h.html" target="_top" xlink:title=" ">
<polygon fill="white" stroke="#666666" points="847,-129 754,-129 754,-110 847,-110 847,-129"/>
<text text-anchor="middle" x="800.5" y="-117" font-family="Helvetica,sans-Serif" font-size="10.00">CCSDSHeader.h</text>
</a>
</g>
</g>
<!-- Node4&#45;&gt;Node11 -->
<g id="edge12_Node000004_Node000011" class="edge">
<title>Node4&#45;&gt;Node11</title>
<g id="a_edge12_Node000004_Node000011"><a xlink:title=" ">
<path fill="none" stroke="#63b8ff" d="M515.68,-331.94C573.46,-321.46 673.79,-296 738.5,-239 769.6,-211.61 787.47,-164.8 795.44,-138.97"/>
<polygon fill="#63b8ff" stroke="#63b8ff" points="798.82,-139.89 798.26,-129.31 792.1,-137.93 798.82,-139.89"/>
</a>
</g>
</g>
<!-- Node12 -->
<g id="Node000012" class="node">
<title>Node12</title>
<g id="a_Node000012"><a xlink:href="CCSDSDataField_8h.html" target="_top" xlink:title=" ">
<polygon fill="white" stroke="#666666" points="523,-294 418,-294 418,-275 523,-275 523,-294"/>
<text text-anchor="middle" x="470.5" y="-282" font-family="Helvetica,sans-Serif" font-size="10.00">CCSDSDataField.h</text>
</a>
</g>
</g>
<!-- Node4&#45;&gt;Node12 -->
<g id="edge16_Node000004_Node000012" class="edge">
<title>Node4&#45;&gt;Node12</title>
<g id="a_edge16_Node000004_Node000012"><a xlink:title=" ">
<path fill="none" stroke="#63b8ff" d="M470.5,-329.75C470.5,-322.8 470.5,-312.85 470.5,-304.13"/>
<polygon fill="#63b8ff" stroke="#63b8ff" points="474,-304.09 470.5,-294.09 467,-304.09 474,-304.09"/>
</a>
</g>
</g>
<!-- Node6 -->
<g id="Node000006" class="node">
<title>Node6</title>
<g id="a_Node000006"><a xlink:title=" ">
<polygon fill="#e0e0e0" stroke="#999999" points="356,-19 263,-19 263,0 356,0 356,-19"/>
<text text-anchor="middle" x="309.5" y="-7" font-family="Helvetica,sans-Serif" font-size="10.00">unordered_map</text>
</a>
</g>
</g>
<!-- Node5&#45;&gt;Node6 -->
<g id="edge5_Node000005_Node000006" class="edge">
<title>Node5&#45;&gt;Node6</title>
<g id="a_edge5_Node000005_Node000006"><a xlink:title=" ">
<path fill="none" stroke="#63b8ff" d="M190.31,-54.98C213.67,-46.27 250.2,-32.63 276.67,-22.75"/>
<polygon fill="#63b8ff" stroke="#63b8ff" points="278.13,-25.95 286.27,-19.17 275.68,-19.39 278.13,-25.95"/>
</a>
</g>
</g>
<!-- Node7 -->
<g id="Node000007" class="node">
<title>Node7</title>
<g id="a_Node000007"><a xlink:title=" ">
<polygon fill="#e0e0e0" stroke="#999999" points="230,-19 179,-19 179,0 230,0 230,-19"/>
<text text-anchor="middle" x="204.5" y="-7" font-family="Helvetica,sans-Serif" font-size="10.00">variant</text>
</a>
</g>
</g>
<!-- Node5&#45;&gt;Node7 -->
<g id="edge6_Node000005_Node000007" class="edge">
<title>Node5&#45;&gt;Node7</title>
<g id="a_edge6_Node000005_Node000007"><a xlink:title=" ">
<path fill="none" stroke="#63b8ff" d="M173.61,-54.75C178.78,-47.34 186.35,-36.5 192.69,-27.41"/>
<polygon fill="#63b8ff" stroke="#63b8ff" points="195.65,-29.29 198.5,-19.09 189.91,-25.29 195.65,-29.29"/>
</a>
</g>
</g>
<!-- Node5&#45;&gt;Node8 -->
<g id="edge7_Node000005_Node000008" class="edge">
<title>Node5&#45;&gt;Node8</title>
<g id="a_edge7_Node000005_Node000008"><a xlink:title=" ">
<path fill="none" stroke="#63b8ff" d="M212.11,-59.98C338.06,-50.05 694.41,-21.94 805.8,-13.16"/>
<polygon fill="#63b8ff" stroke="#63b8ff" points="806.1,-16.64 815.8,-12.37 805.55,-9.67 806.1,-16.64"/>
</a>
</g>
</g>
<!-- Node5&#45;&gt;Node9 -->
<g id="edge8_Node000005_Node000009" class="edge">
<title>Node5&#45;&gt;Node9</title>
<g id="a_edge8_Node000005_Node000009"><a xlink:title=" ">
<path fill="none" stroke="#63b8ff" d="M212.25,-56.87C217.06,-56.21 221.88,-55.58 226.5,-55 369.69,-37.14 540.8,-20.56 613.29,-13.76"/>
<polygon fill="#63b8ff" stroke="#63b8ff" points="613.62,-17.24 623.25,-12.82 612.97,-10.27 613.62,-17.24"/>
</a>
</g>
</g>
<!-- Node10 -->
<g id="Node000010" class="node">
<title>Node10</title>
<g id="a_Node000010"><a xlink:title=" ">
<polygon fill="#e0e0e0" stroke="#999999" points="160.5,-19 100.5,-19 100.5,0 160.5,0 160.5,-19"/>
<text text-anchor="middle" x="130.5" y="-7" font-family="Helvetica,sans-Serif" font-size="10.00">iostream</text>
</a>
</g>
</g>
<!-- Node5&#45;&gt;Node10 -->
<g id="edge9_Node000005_Node000010" class="edge">
<title>Node5&#45;&gt;Node10</title>
<g id="a_edge9_Node000005_Node000010"><a xlink:title=" ">
<path fill="none" stroke="#63b8ff" d="M161.39,-54.75C156.22,-47.34 148.65,-36.5 142.31,-27.41"/>
<polygon fill="#63b8ff" stroke="#63b8ff" points="145.09,-25.29 136.5,-19.09 139.35,-29.29 145.09,-25.29"/>
</a>
</g>
</g>
<!-- Node11&#45;&gt;Node5 -->
<g id="edge13_Node000011_Node000005" class="edge">
<title>Node11&#45;&gt;Node5</title>
<g id="a_edge13_Node000011_Node000005"><a xlink:title=" ">
<path fill="none" stroke="#63b8ff" d="M753.65,-114.19C738.6,-112.83 721.85,-111.33 706.5,-110 529.6,-94.7 319.93,-77.72 222.43,-69.89"/>
<polygon fill="#63b8ff" stroke="#63b8ff" points="222.48,-66.39 212.23,-69.07 221.92,-73.36 222.48,-66.39"/>
</a>
</g>
</g>
<!-- Node11&#45;&gt;Node8 -->
<g id="edge15_Node000011_Node000008" class="edge">
<title>Node11&#45;&gt;Node8</title>
<g id="a_edge15_Node000011_Node000008"><a xlink:title=" ">
<path fill="none" stroke="#63b8ff" d="M803.69,-109.66C810.07,-92.01 824.48,-52.09 832.95,-28.64"/>
<polygon fill="#63b8ff" stroke="#63b8ff" points="836.27,-29.75 836.37,-19.16 829.68,-27.38 836.27,-29.75"/>
</a>
</g>
</g>
<!-- Node11&#45;&gt;Node9 -->
<g id="edge14_Node000011_Node000009" class="edge">
<title>Node11&#45;&gt;Node9</title>
<g id="a_edge14_Node000011_Node000009"><a xlink:title=" ">
<path fill="none" stroke="#63b8ff" d="M793.79,-109.76C783.33,-96.57 761.98,-71.39 739.5,-55 721.52,-41.88 699.07,-30.86 680.97,-23.07"/>
<polygon fill="#63b8ff" stroke="#63b8ff" points="682,-19.7 671.42,-19.07 679.3,-26.16 682,-19.7"/>
</a>
</g>
</g>
<!-- Node12&#45;&gt;Node5 -->
<g id="edge17_Node000012_Node000005" class="edge">
<title>Node12&#45;&gt;Node5</title>
<g id="a_edge17_Node000012_Node000005"><a xlink:title=" ">
<path fill="none" stroke="#63b8ff" d="M433.2,-274.97C405.46,-267.73 367.26,-255.82 336.5,-239 269.5,-202.36 253.36,-187.69 204.5,-129 192.79,-114.93 182.59,-96.7 175.88,-83.38"/>
<polygon fill="#63b8ff" stroke="#63b8ff" points="178.98,-81.76 171.46,-74.3 172.69,-84.82 178.98,-81.76"/>
</a>
</g>
</g>
<!-- Node12&#45;&gt;Node8 -->
<g id="edge19_Node000012_Node000008" class="edge">
<title>Node12&#45;&gt;Node8</title>
<g id="a_edge19_Node000012_Node000008"><a xlink:title=" ">
<path fill="none" stroke="#63b8ff" d="M523.19,-280.62C610.59,-272.64 783.15,-242.53 856.5,-129 876.53,-97.99 860.58,-52.97 848.94,-28.3"/>
<polygon fill="#63b8ff" stroke="#63b8ff" points="851.93,-26.46 844.33,-19.08 845.67,-29.59 851.93,-26.46"/>
</a>
</g>
</g>
<!-- Node12&#45;&gt;Node9 -->
<g id="edge18_Node000012_Node000009" class="edge">
<title>Node12&#45;&gt;Node9</title>
<g id="a_edge18_Node000012_Node000009"><a xlink:title=" ">
<path fill="none" stroke="#63b8ff" d="M498.99,-274.87C551.4,-257.26 661.79,-211.71 706.5,-129 726.07,-92.79 689.59,-49.03 666.11,-26.16"/>
<polygon fill="#63b8ff" stroke="#63b8ff" points="668.43,-23.54 658.74,-19.25 663.64,-28.64 668.43,-23.54"/>
</a>
</g>
</g>
<!-- Node13 -->
<g id="Node000013" class="node">
<title>Node13</title>
<g id="a_Node000013"><a xlink:title=" ">
<polygon fill="#e0e0e0" stroke="#999999" points="311.5,-129 253.5,-129 253.5,-110 311.5,-110 311.5,-129"/>
<text text-anchor="middle" x="282.5" y="-117" font-family="Helvetica,sans-Serif" font-size="10.00">memory</text>
</a>
</g>
</g>
<!-- Node12&#45;&gt;Node13 -->
<g id="edge20_Node000012_Node000013" class="edge">
<title>Node12&#45;&gt;Node13</title>
<g id="a_edge20_Node000012_Node000013"><a xlink:title=" ">
<path fill="none" stroke="#63b8ff" d="M444.03,-274.93C406.74,-261.5 339.09,-231.97 301.5,-184 291.41,-171.12 286.66,-152.96 284.44,-139.36"/>
<polygon fill="#63b8ff" stroke="#63b8ff" points="287.88,-138.68 283.11,-129.22 280.94,-139.59 287.88,-138.68"/>
</a>
</g>
</g>
<!-- Node14 -->
<g id="Node000014" class="node">
<title>Node14</title>
<g id="a_Node000014"><a xlink:href="CCSDSSecondaryHeaderAbstract_8h.html" target="_top" xlink:title=" ">
<polygon fill="white" stroke="#666666" points="636,-129 451,-129 451,-110 636,-110 636,-129"/>
<text text-anchor="middle" x="543.5" y="-117" font-family="Helvetica,sans-Serif" font-size="10.00">CCSDSSecondaryHeaderAbstract.h</text>
</a>
</g>
</g>
<!-- Node12&#45;&gt;Node14 -->
<g id="edge21_Node000012_Node000014" class="edge">
<title>Node12&#45;&gt;Node14</title>
<g id="a_edge21_Node000012_Node000014"><a xlink:title=" ">
<path fill="none" stroke="#63b8ff" d="M485,-274.8C496.76,-266.96 512.77,-254.31 521.5,-239 539.58,-207.31 543.24,-163.81 543.73,-139.29"/>
<polygon fill="#63b8ff" stroke="#63b8ff" points="547.23,-139.21 543.77,-129.19 540.23,-139.18 547.23,-139.21"/>
</a>
</g>
</g>
<!-- Node15 -->
<g id="Node000015" class="node">
<title>Node15</title>
<g id="a_Node000015"><a xlink:href="CCSDSSecondaryHeaderFactory_8h.html" target="_top" xlink:title=" ">
<polygon fill="white" stroke="#666666" points="490,-184 311,-184 311,-165 490,-165 490,-184"/>
<text text-anchor="middle" x="400.5" y="-172" font-family="Helvetica,sans-Serif" font-size="10.00">CCSDSSecondaryHeaderFactory.h</text>
</a>
</g>
</g>
<!-- Node12&#45;&gt;Node15 -->
<g id="edge25_Node000012_Node000015" class="edge">
<title>Node12&#45;&gt;Node15</title>
<g id="a_edge25_Node000012_Node000015"><a xlink:title=" ">
<path fill="none" stroke="#63b8ff" d="M456.88,-274.87C445.34,-266.89 429.17,-254.02 419.5,-239 410.74,-225.39 405.87,-207.58 403.26,-194.28"/>
<polygon fill="#63b8ff" stroke="#63b8ff" points="406.7,-193.63 401.56,-184.36 399.8,-194.81 406.7,-193.63"/>
</a>
</g>
</g>
<!-- Node18 -->
<g id="Node000018" class="node">
<title>Node18</title>
<g id="a_Node000018"><a xlink:href="PusServices_8h.html" target="_top" xlink:title=" ">
<polygon fill="white" stroke="#666666" points="512.5,-239 428.5,-239 428.5,-220 512.5,-220 512.5,-239"/>
<text text-anchor="middle" x="470.5" y="-227" font-family="Helvetica,sans-Serif" font-size="10.00">PusServices.h</text>
</a>
</g>
</g>
<!-- Node12&#45;&gt;Node18 -->
<g id="edge31_Node000012_Node000018" class="edge">
<title>Node12&#45;&gt;Node18</title>
<g id="a_edge31_Node000012_Node000018"><a xlink:title=" ">
<path fill="none" stroke="#63b8ff" d="M470.5,-274.75C470.5,-267.8 470.5,-257.85 470.5,-249.13"/>
<polygon fill="#63b8ff" stroke="#63b8ff" points="474,-249.09 470.5,-239.09 467,-249.09 474,-249.09"/>
</a>
</g>
</g>
<!-- Node14&#45;&gt;Node5 -->
<g id="edge22_Node000014_Node000005" class="edge">
<title>Node14&#45;&gt;Node5</title>
<g id="a_edge22_Node000014_Node000005"><a xlink:title=" ">
<path fill="none" stroke="#63b8ff" d="M483.09,-109.98C411.12,-99.84 291.91,-83.04 222.44,-73.24"/>
<polygon fill="#63b8ff" stroke="#63b8ff" points="222.54,-69.72 212.14,-71.79 221.56,-76.65 222.54,-69.72"/>
</a>
</g>
</g>
<!-- Node14&#45;&gt;Node8 -->
<g id="edge23_Node000014_Node000008" class="edge">
<title>Node14&#45;&gt;Node8</title>
<g id="a_edge23_Node000014_Node000008"><a xlink:title=" ">
<path fill="none" stroke="#63b8ff" d="M566.97,-109.94C619.43,-90.79 746.29,-44.51 806.59,-22.51"/>
<polygon fill="#63b8ff" stroke="#63b8ff" points="807.83,-25.78 816.02,-19.07 805.43,-19.21 807.83,-25.78"/>
</a>
</g>
</g>
<!-- Node14&#45;&gt;Node9 -->
<g id="edge24_Node000014_Node000009" class="edge">
<title>Node14&#45;&gt;Node9</title>
<g id="a_edge24_Node000014_Node000009"><a xlink:title=" ">
<path fill="none" stroke="#63b8ff" d="M552.09,-109.66C569.79,-91.46 610.54,-49.55 632.98,-26.47"/>
<polygon fill="#63b8ff" stroke="#63b8ff" points="635.62,-28.77 640.08,-19.16 630.6,-23.89 635.62,-28.77"/>
</a>
</g>
</g>
<!-- Node15&#45;&gt;Node6 -->
<g id="edge27_Node000015_Node000006" class="edge">
<title>Node15&#45;&gt;Node6</title>
<g id="a_edge27_Node000015_Node000006"><a xlink:title=" ">
<path fill="none" stroke="#63b8ff" d="M390.4,-164.8C381.13,-156.39 367.5,-142.91 358.5,-129 337.31,-96.26 322.18,-52.84 314.73,-28.69"/>
<polygon fill="#63b8ff" stroke="#63b8ff" points="318.07,-27.64 311.86,-19.05 311.36,-29.64 318.07,-27.64"/>
</a>
</g>
</g>
<!-- Node15&#45;&gt;Node13 -->
<g id="edge26_Node000015_Node000013" class="edge">
<title>Node15&#45;&gt;Node13</title>
<g id="a_edge26_Node000015_Node000013"><a xlink:title=" ">
<path fill="none" stroke="#63b8ff" d="M381.54,-164.98C362.47,-156.42 332.84,-143.11 310.95,-133.28"/>
<polygon fill="#63b8ff" stroke="#63b8ff" points="312.36,-130.07 301.8,-129.17 309.49,-136.46 312.36,-130.07"/>
</a>
</g>
</g>
<!-- Node15&#45;&gt;Node14 -->
<g id="edge30_Node000015_Node000014" class="edge">
<title>Node15&#45;&gt;Node14</title>
<g id="a_edge30_Node000015_Node000014"><a xlink:title=" ">
<path fill="none" stroke="#63b8ff" d="M423.48,-164.98C447,-156.27 483.79,-142.63 510.44,-132.75"/>
<polygon fill="#63b8ff" stroke="#63b8ff" points="511.95,-135.93 520.11,-129.17 509.51,-129.36 511.95,-135.93"/>
</a>
</g>
</g>
<!-- Node16 -->
<g id="Node000016" class="node">
<title>Node16</title>
<g id="a_Node000016"><a xlink:title=" ">
<polygon fill="#e0e0e0" stroke="#999999" points="433,-129 368,-129 368,-110 433,-110 433,-129"/>
<text text-anchor="middle" x="400.5" y="-117" font-family="Helvetica,sans-Serif" font-size="10.00">functional</text>
</a>
</g>
</g>
<!-- Node15&#45;&gt;Node16 -->
<g id="edge28_Node000015_Node000016" class="edge">
<title>Node15&#45;&gt;Node16</title>
<g id="a_edge28_Node000015_Node000016"><a xlink:title=" ">
<path fill="none" stroke="#63b8ff" d="M400.5,-164.75C400.5,-157.8 400.5,-147.85 400.5,-139.13"/>
<polygon fill="#63b8ff" stroke="#63b8ff" points="404,-139.09 400.5,-129.09 397,-139.09 404,-139.09"/>
</a>
</g>
</g>
<!-- Node17 -->
<g id="Node000017" class="node">
<title>Node17</title>
<g id="a_Node000017"><a xlink:title=" ">
<polygon fill="#e0e0e0" stroke="#999999" points="697.5,-129 653.5,-129 653.5,-110 697.5,-110 697.5,-129"/>
<text text-anchor="middle" x="675.5" y="-117" font-family="Helvetica,sans-Serif" font-size="10.00">string</text>
</a>
</g>
</g>
<!-- Node15&#45;&gt;Node17 -->
<g id="edge29_Node000015_Node000017" class="edge">
<title>Node15&#45;&gt;Node17</title>
<g id="a_edge29_Node000015_Node000017"><a xlink:title=" ">
<path fill="none" stroke="#63b8ff" d="M456.28,-164.94C503.9,-157.28 574.39,-145.1 643.54,-129.31"/>
<polygon fill="#63b8ff" stroke="#63b8ff" points="644.33,-132.71 653.28,-127.05 642.75,-125.89 644.33,-132.71"/>
</a>
</g>
</g>
<!-- Node18&#45;&gt;Node5 -->
<g id="edge34_Node000018_Node000005" class="edge">
<title>Node18&#45;&gt;Node5</title>
<g id="a_edge34_Node000018_Node000005"><a xlink:title=" ">
<path fill="none" stroke="#63b8ff" d="M428.22,-222.96C392.76,-217.04 341.64,-205.45 301.5,-184 251.05,-157.04 203.83,-107.54 181.31,-81.88"/>
<polygon fill="#63b8ff" stroke="#63b8ff" points="183.83,-79.45 174.65,-74.16 178.53,-84.02 183.83,-79.45"/>
</a>
</g>
</g>
<!-- Node18&#45;&gt;Node14 -->
<g id="edge32_Node000018_Node000014" class="edge">
<title>Node18&#45;&gt;Node14</title>
<g id="a_edge32_Node000018_Node000014"><a xlink:title=" ">
<path fill="none" stroke="#63b8ff" d="M476.47,-219.66C488.56,-201.77 516.12,-161 531.88,-137.69"/>
<polygon fill="#63b8ff" stroke="#63b8ff" points="534.95,-139.4 537.65,-129.16 529.15,-135.48 534.95,-139.4"/>
</a>
</g>
</g>
<!-- Node18&#45;&gt;Node15 -->
<g id="edge33_Node000018_Node000015" class="edge">
<title>Node18&#45;&gt;Node15</title>
<g id="a_edge33_Node000018_Node000015"><a xlink:title=" ">
<path fill="none" stroke="#63b8ff" d="M459.25,-219.98C448.7,-212 432.7,-199.88 420.06,-190.31"/>
<polygon fill="#63b8ff" stroke="#63b8ff" points="422.04,-187.42 411.95,-184.17 417.81,-193 422.04,-187.42"/>
</a>
</g>
</g>
<!-- Node19&#45;&gt;Node4 -->
<g id="edge37_Node000019_Node000004" class="edge">
<title>Node19&#45;&gt;Node4</title>
<g id="a_edge37_Node000019_Node000004"><a xlink:title=" ">
<path fill="none" stroke="#63b8ff" d="M470.5,-384.75C470.5,-377.8 470.5,-367.85 470.5,-359.13"/>
<polygon fill="#63b8ff" stroke="#63b8ff" points="474,-359.09 470.5,-349.09 467,-359.09 474,-359.09"/>
</a>
</g>
</g>
<!-- Node21&#45;&gt;Node2 -->
<g id="edge42_Node000021_Node000002" class="edge">
<title>Node21&#45;&gt;Node2</title>
<g id="a_edge42_Node000021_Node000002"><a xlink:title=" ">
<path fill="none" stroke="#63b8ff" d="M744.82,-498.03C675.34,-488.68 533.45,-469.6 452.21,-458.67"/>
<polygon fill="#63b8ff" stroke="#63b8ff" points="452.51,-455.18 442.13,-457.31 451.58,-462.11 452.51,-455.18"/>
</a>
</g>
</g>
<!-- Node21&#45;&gt;Node4 -->
<g id="edge41_Node000021_Node000004" class="edge">
<title>Node21&#45;&gt;Node4</title>
<g id="a_edge41_Node000021_Node000004"><a xlink:title=" ">
<path fill="none" stroke="#63b8ff" d="M769.01,-494.97C717.46,-468.29 559.08,-386.34 496.41,-353.91"/>
<polygon fill="#63b8ff" stroke="#63b8ff" points="497.7,-350.63 487.21,-349.15 494.48,-356.85 497.7,-350.63"/>
</a>
</g>
</g>
<!-- Node21&#45;&gt;Node8 -->
<g id="edge45_Node000021_Node000008" class="edge">
<title>Node21&#45;&gt;Node8</title>
<g id="a_edge45_Node000021_Node000008"><a xlink:title=" ">
<path fill="none" stroke="#63b8ff" d="M826.29,-499.99C885.82,-492.38 989.5,-468.63 989.5,-395.5 989.5,-395.5 989.5,-395.5 989.5,-118.5 989.5,-61.49 917.26,-31.59 873.04,-18.63"/>
<polygon fill="#63b8ff" stroke="#63b8ff" points="873.84,-15.22 863.27,-15.91 871.96,-21.97 873.84,-15.22"/>
</a>
</g>
</g>
<!-- Node21&#45;&gt;Node9 -->
<g id="edge44_Node000021_Node000009" class="edge">
<title>Node21&#45;&gt;Node9</title>
<g id="a_edge44_Node000021_Node000009"><a xlink:title=" ">
<path fill="none" stroke="#63b8ff" d="M811.61,-494.97C849.3,-480.82 914.5,-448.66 914.5,-395.5 914.5,-395.5 914.5,-395.5 914.5,-228.5 914.5,-126.57 856.17,-99.57 764.5,-55 738.02,-42.13 706.8,-30.33 683.42,-22.12"/>
<polygon fill="#63b8ff" stroke="#63b8ff" points="684.51,-18.8 673.92,-18.83 682.22,-25.41 684.51,-18.8"/>
</a>
</g>
</g>
<!-- Node21&#45;&gt;Node17 -->
<g id="edge43_Node000021_Node000017" class="edge">
<title>Node21&#45;&gt;Node17</title>
<g id="a_edge43_Node000021_Node000017"><a xlink:title=" ">
<path fill="none" stroke="#63b8ff" d="M800.53,-494.96C826.37,-479.01 876.5,-442.09 876.5,-395.5 876.5,-395.5 876.5,-395.5 876.5,-338.5 876.5,-237.24 757.85,-162.89 702.87,-133.88"/>
<polygon fill="#63b8ff" stroke="#63b8ff" points="704.18,-130.62 693.69,-129.14 700.97,-136.84 704.18,-130.62"/>
</a>
</g>
</g>
</g>
</svg>
