<?xml version="1.0" encoding="UTF-8" standalone="no"?>
<!DOCTYPE svg PUBLIC "-//W3C//DTD SVG 1.1//EN"
 "http://www.w3.org/Graphics/SVG/1.1/DTD/svg11.dtd">
<!-- Generated by graphviz version 2.43.0 (0)
 -->
<!-- Title: inc/CCSDSPacket.h Pages: 1 -->
<svg width="870pt" height="192pt"
 viewBox="0.00 0.00 869.50 192.00" xmlns="http://www.w3.org/2000/svg" xmlns:xlink="http://www.w3.org/1999/xlink">
<g id="graph0" class="graph" transform="scale(1 1) rotate(0) translate(4 188)">
<title>inc/CCSDSPacket.h</title>
<!-- Node1 -->
<g id="Node000001" class="node">
<title>Node1</title>
<g id="a_Node000001"><a xlink:title=" ">
<polygon fill="#999999" stroke="#666666" points="393.5,-184 286.5,-184 286.5,-165 393.5,-165 393.5,-184"/>
<text text-anchor="middle" x="340" y="-172" font-family="Helvetica,sans-Serif" font-size="10.00">inc/CCSDSPacket.h</text>
</a>
</g>
</g>
<!-- Node2 -->
<g id="Node000002" class="node">
<title>Node2</title>
<g id="a_Node000002"><a xlink:href="CCSDSManager_8h.html" target="_top" xlink:title=" ">
<polygon fill="white" stroke="#666666" points="118,-74 0,-74 0,-55 118,-55 118,-74"/>
<text text-anchor="middle" x="59" y="-62" font-family="Helvetica,sans-Serif" font-size="10.00">inc/CCSDSManager.h</text>
</a>
</g>
</g>
<!-- Node1&#45;&gt;Node2 -->
<g id="edge1_Node000001_Node000002" class="edge">
<title>Node1&#45;&gt;Node2</title>
<g id="a_edge1_Node000001_Node000002"><a xlink:title=" ">
<path fill="none" stroke="#63b8ff" d="M275.96,-168.01C233.62,-162.43 177.87,-151.26 133,-129 104.79,-115.01 78.51,-87.83 66.25,-74.01"/>
<polygon fill="#63b8ff" stroke="#63b8ff" points="275.79,-171.51 286.14,-169.28 276.65,-164.57 275.79,-171.51"/>
</a>
</g>
</g>
<!-- Node4 -->
<g id="Node000004" class="node">
<title>Node4</title>
<g id="a_Node000004"><a xlink:href="CCSDSUtils_8h.html" target="_top" xlink:title=" ">
<polygon fill="white" stroke="#666666" points="528,-129 430,-129 430,-110 528,-110 528,-129"/>
<text text-anchor="middle" x="479" y="-117" font-family="Helvetica,sans-Serif" font-size="10.00">inc/CCSDSUtils.h</text>
</a>
</g>
</g>
<!-- Node1&#45;&gt;Node4 -->
<g id="edge3_Node000001_Node000004" class="edge">
<title>Node1&#45;&gt;Node4</title>
<g id="a_edge3_Node000001_Node000004"><a xlink:title=" ">
<path fill="none" stroke="#63b8ff" d="M371.68,-161.42C397.47,-151.59 433.24,-137.95 456.26,-129.17"/>
<polygon fill="#63b8ff" stroke="#63b8ff" points="370.43,-158.15 362.33,-164.98 372.92,-164.69 370.43,-158.15"/>
</a>
</g>
</g>
<!-- Node7 -->
<g id="Node000007" class="node">
<title>Node7</title>
<g id="a_Node000007"><a xlink:href="CCSDSPacket_8cpp.html" target="_top" xlink:title=" ">
<polygon fill="white" stroke="#666666" points="861.5,-74 742.5,-74 742.5,-55 861.5,-55 861.5,-74"/>
<text text-anchor="middle" x="802" y="-62" font-family="Helvetica,sans-Serif" font-size="10.00">src/CCSDSPacket.cpp</text>
</a>
</g>
</g>
<!-- Node1&#45;&gt;Node7 -->
<g id="edge13_Node000001_Node000007" class="edge">
<title>Node1&#45;&gt;Node7</title>
<g id="a_edge13_Node000001_Node000007"><a xlink:title=" ">
<path fill="none" stroke="#63b8ff" d="M388.53,-162.72C428.43,-153.82 486.42,-140.77 537,-129 619.48,-109.8 716.18,-86.41 766.88,-74.07"/>
<polygon fill="#63b8ff" stroke="#63b8ff" points="387.54,-159.36 378.54,-164.95 389.06,-166.19 387.54,-159.36"/>
</a>
</g>
</g>
<!-- Node10 -->
<g id="Node000010" class="node">
<title>Node10</title>
<g id="a_Node000010"><a xlink:href="CCSDSValidator_8h.html" target="_top" xlink:title="Defines the Validator class for CCSDS packet validation.">
<polygon fill="white" stroke="#666666" points="260.5,-129 141.5,-129 141.5,-110 260.5,-110 260.5,-129"/>
<text text-anchor="middle" x="201" y="-117" font-family="Helvetica,sans-Serif" font-size="10.00">inc/CCSDSValidator.h</text>
</a>
</g>
</g>
<!-- Node1&#45;&gt;Node10 -->
<g id="edge10_Node000001_Node000010" class="edge">
<title>Node1&#45;&gt;Node10</title>
<g id="a_edge10_Node000001_Node000010"><a xlink:title=" ">
<path fill="none" stroke="#63b8ff" d="M308.32,-161.42C282.53,-151.59 246.76,-137.95 223.74,-129.17"/>
<polygon fill="#63b8ff" stroke="#63b8ff" points="307.08,-164.69 317.67,-164.98 309.57,-158.15 307.08,-164.69"/>
</a>
</g>
</g>
<!-- Node3 -->
<g id="Node000003" class="node">
<title>Node3</title>
<g id="a_Node000003"><a xlink:href="CCSDSManager_8cpp.html" target="_top" xlink:title=" ">
<polygon fill="white" stroke="#666666" points="450.5,-19 321.5,-19 321.5,0 450.5,0 450.5,-19"/>
<text text-anchor="middle" x="386" y="-7" font-family="Helvetica,sans-Serif" font-size="10.00">src/CCSDSManager.cpp</text>
</a>
</g>
</g>
<!-- Node2&#45;&gt;Node3 -->
<g id="edge2_Node000002_Node000003" class="edge">
<title>Node2&#45;&gt;Node3</title>
<g id="a_edge2_Node000002_Node000003"><a xlink:title=" ">
<path fill="none" stroke="#63b8ff" d="M121.49,-53.37C182.89,-43.42 275.55,-28.4 333.32,-19.04"/>
<polygon fill="#63b8ff" stroke="#63b8ff" points="120.85,-49.93 111.54,-54.98 121.97,-56.84 120.85,-49.93"/>
</a>
</g>
</g>
<!-- Node4&#45;&gt;Node3 -->
<g id="edge6_Node000004_Node000003" class="edge">
<title>Node4&#45;&gt;Node3</title>
<g id="a_edge6_Node000004_Node000003"><a xlink:title=" ">
<path fill="none" stroke="#63b8ff" d="M538.35,-119.07C617,-117.85 740.8,-107.87 695,-55 664.04,-19.26 531.71,-11.57 450.6,-10.29"/>
<polygon fill="#63b8ff" stroke="#63b8ff" points="538.01,-115.58 528.05,-119.19 538.09,-122.58 538.01,-115.58"/>
</a>
</g>
</g>
<!-- Node5 -->
<g id="Node000005" class="node">
<title>Node5</title>
<g id="a_Node000005"><a xlink:href="CCSDSDataField_8cpp.html" target="_top" xlink:title=" ">
<polygon fill="white" stroke="#666666" points="686,-74 552,-74 552,-55 686,-55 686,-74"/>
<text text-anchor="middle" x="619" y="-62" font-family="Helvetica,sans-Serif" font-size="10.00">src/CCSDSDataField.cpp</text>
</a>
</g>
</g>
<!-- Node4&#45;&gt;Node5 -->
<g id="edge4_Node000004_Node000005" class="edge">
<title>Node4&#45;&gt;Node5</title>
<g id="a_edge4_Node000004_Node000005"><a xlink:title=" ">
<path fill="none" stroke="#63b8ff" d="M510.91,-106.42C536.88,-96.59 572.92,-82.95 596.1,-74.17"/>
<polygon fill="#63b8ff" stroke="#63b8ff" points="509.61,-103.17 501.49,-109.98 512.08,-109.72 509.61,-103.17"/>
</a>
</g>
</g>
<!-- Node6 -->
<g id="Node000006" class="node">
<title>Node6</title>
<g id="a_Node000006"><a xlink:href="CCSDSHeader_8cpp.html" target="_top" xlink:title=" ">
<polygon fill="white" stroke="#666666" points="406,-74 284,-74 284,-55 406,-55 406,-74"/>
<text text-anchor="middle" x="345" y="-62" font-family="Helvetica,sans-Serif" font-size="10.00">src/CCSDSHeader.cpp</text>
</a>
</g>
</g>
<!-- Node4&#45;&gt;Node6 -->
<g id="edge5_Node000004_Node000006" class="edge">
<title>Node4&#45;&gt;Node6</title>
<g id="a_edge5_Node000004_Node000006"><a xlink:title=" ">
<path fill="none" stroke="#63b8ff" d="M448.13,-106.29C423.3,-96.47 389.01,-82.91 366.92,-74.17"/>
<polygon fill="#63b8ff" stroke="#63b8ff" points="446.88,-109.56 457.47,-109.98 449.46,-103.05 446.88,-109.56"/>
</a>
</g>
</g>
<!-- Node4&#45;&gt;Node7 -->
<g id="edge7_Node000004_Node000007" class="edge">
<title>Node4&#45;&gt;Node7</title>
<g id="a_edge7_Node000004_Node000007"><a xlink:title=" ">
<path fill="none" stroke="#63b8ff" d="M538.24,-108.78C598.89,-98.83 692.22,-83.51 750.07,-74.02"/>
<polygon fill="#63b8ff" stroke="#63b8ff" points="537.36,-105.38 528.06,-110.45 538.49,-112.28 537.36,-105.38"/>
</a>
</g>
</g>
<!-- Node8 -->
<g id="Node000008" class="node">
<title>Node8</title>
<g id="a_Node000008"><a xlink:href="CCSDSUtils_8cpp.html" target="_top" xlink:title=" ">
<polygon fill="white" stroke="#666666" points="534,-74 424,-74 424,-55 534,-55 534,-74"/>
<text text-anchor="middle" x="479" y="-62" font-family="Helvetica,sans-Serif" font-size="10.00">src/CCSDSUtils.cpp</text>
</a>
</g>
</g>
<!-- Node4&#45;&gt;Node8 -->
<g id="edge8_Node000004_Node000008" class="edge">
<title>Node4&#45;&gt;Node8</title>
<g id="a_edge8_Node000004_Node000008"><a xlink:title=" ">
<path fill="none" stroke="#63b8ff" d="M479,-99.66C479,-90.93 479,-80.99 479,-74.09"/>
<polygon fill="#63b8ff" stroke="#63b8ff" points="475.5,-99.75 479,-109.75 482.5,-99.75 475.5,-99.75"/>
</a>
</g>
</g>
<!-- Node9 -->
<g id="Node000009" class="node">
<title>Node9</title>
<g id="a_Node000009"><a xlink:href="CCSDSValidator_8cpp.html" target="_top" xlink:title=" ">
<polygon fill="white" stroke="#666666" points="266,-74 136,-74 136,-55 266,-55 266,-74"/>
<text text-anchor="middle" x="201" y="-62" font-family="Helvetica,sans-Serif" font-size="10.00">src/CCSDSValidator.cpp</text>
</a>
</g>
</g>
<!-- Node4&#45;&gt;Node9 -->
<g id="edge9_Node000004_Node000009" class="edge">
<title>Node4&#45;&gt;Node9</title>
<g id="a_edge9_Node000004_Node000009"><a xlink:title=" ">
<path fill="none" stroke="#63b8ff" d="M424.27,-108.07C372.15,-98.13 294.65,-83.35 246.02,-74.08"/>
<polygon fill="#63b8ff" stroke="#63b8ff" points="423.86,-111.55 434.33,-109.98 425.17,-104.67 423.86,-111.55"/>
</a>
</g>
</g>
<!-- Node10&#45;&gt;Node2 -->
<g id="edge11_Node000010_Node000002" class="edge">
<title>Node10&#45;&gt;Node2</title>
<g id="a_edge11_Node000010_Node000002"><a xlink:title=" ">
<path fill="none" stroke="#63b8ff" d="M168.64,-106.42C142.29,-96.59 105.74,-82.95 82.23,-74.17"/>
<polygon fill="#63b8ff" stroke="#63b8ff" points="167.59,-109.77 178.19,-109.98 170.04,-103.21 167.59,-109.77"/>
</a>
</g>
</g>
<!-- Node10&#45;&gt;Node9 -->
<g id="edge12_Node000010_Node000009" class="edge">
<title>Node10&#45;&gt;Node9</title>
<g id="a_edge12_Node000010_Node000009"><a xlink:title=" ">
<path fill="none" stroke="#63b8ff" d="M201,-99.66C201,-90.93 201,-80.99 201,-74.09"/>
<polygon fill="#63b8ff" stroke="#63b8ff" points="197.5,-99.75 201,-109.75 204.5,-99.75 197.5,-99.75"/>
</a>
</g>
</g>
</g>
</svg>
