<?xml version="1.0" encoding="UTF-8" standalone="no"?>
<!DOCTYPE svg PUBLIC "-//W3C//DTD SVG 1.1//EN"
 "http://www.w3.org/Graphics/SVG/1.1/DTD/svg11.dtd">
<!-- Generated by graphviz version 2.43.0 (0)
 -->
<!-- Title: printDataField Pages: 1 -->
<!--zoomable 198 -->

<svg id="main" version="1.1" xmlns="http://www.w3.org/2000/svg" xmlns:xlink="http://www.w3.org/1999/xlink" xml:space="preserve" onload="init(evt)">
<style type="text/css"><![CDATA[
.node, .edge {opacity: 0.7;}
.node.selected, .edge.selected {opacity: 1;}
.edge:hover path { stroke: red; }
.edge:hover polygon { stroke: red; fill: red; }
]]></style>

<defs>
  <circle id="rim" cx="0" cy="0" r="7"/>
  <circle id="rim2" cx="0" cy="0" r="3.5"/>
  <g id="zoomPlus">
    <use xlink:href="#rim" fill="#404040"><set attributeName="fill" to="#808080" begin="zoomplus.mouseover" end="zoomplus.mouseout"/></use>
    <path d="M-4,0h8M0,-4v8" fill="none" stroke="white" stroke-width="1.5" pointer-events="none"/>
  </g>
  <g id="zoomMin">
    <use xlink:href="#rim" fill="#404040"><set attributeName="fill" to="#808080" begin="zoomminus.mouseover" end="zoomminus.mouseout"/></use>
    <path d="M-4,0h8" fill="none" stroke="white" stroke-width="1.5" pointer-events="none"/>
  </g>
  <g id="arrowUp" transform="translate(30 24)">
    <use xlink:href="#rim"/>
    <path pointer-events="none" fill="none" stroke="white" stroke-width="1.5" d="M0,-3.0v7 M-2.5,-0.5L0,-3.0L2.5,-0.5"/>
  </g>
  <g id="arrowRight" transform="rotate(90) translate(36 -43)">
    <use xlink:href="#rim"/>
    <path pointer-events="none" fill="none" stroke="white" stroke-width="1.5" d="M0,-3.0v7 M-2.5,-0.5L0,-3.0L2.5,-0.5"/>
  </g>
  <g id="arrowDown" transform="rotate(180) translate(-30 -48)">
    <use xlink:href="#rim"/>
    <path pointer-events="none" fill="none" stroke="white" stroke-width="1.5" d="M0,-3.0v7 M-2.5,-0.5L0,-3.0L2.5,-0.5"/>
  </g>
  <g id="arrowLeft" transform="rotate(270) translate(-36 17)">
    <use xlink:href="#rim"/>
    <path pointer-events="none" fill="none" stroke="white" stroke-width="1.5" d="M0,-3.0v7 M-2.5,-0.5L0,-3.0L2.5,-0.5"/>
  </g>
  <g id="resetDef">
    <use xlink:href="#rim2" fill="#404040"><set attributeName="fill" to="#808080" begin="reset.mouseover" end="reset.mouseout"/></use>
  </g>
</defs>
<script type="application/ecmascript">
var viewWidth = 523;
var viewHeight = 198;
var sectionId = 'dynsection-10';
</script>
<script type="application/ecmascript" xlink:href="svg.min.js"/>
<svg id="graph" class="graph">
<g id="viewport">
<title>printDataField</title>
<!-- Node1 -->
<g id="Node000001" class="node">
<title>Node1</title>
<g id="a_Node000001"><a xlink:title="Prints the data field and the CRC&#45;16 checksum of the packet.">
<polygon fill="#999999" stroke="#666666" points="86,-147 0,-147 0,-128 86,-128 86,-147"/>
<text text-anchor="middle" x="43" y="-135" font-family="Helvetica,sans-Serif" font-size="10.00">printDataField</text>
</a>
</g>
</g>
<!-- Node2 -->
<g id="Node000002" class="node">
<title>Node2</title>
<g id="a_Node000002"><a xlink:href="classCCSDS_1_1Packet.html#a6b0791e2a62a2db48b12a5ee6b762a7b" target="_top" xlink:title="Computes and retrieves the CRC&#45;16 checksum of the packet.">
<polygon fill="white" stroke="#666666" points="264,-184 135,-184 135,-165 264,-165 264,-184"/>
<text text-anchor="middle" x="199.5" y="-172" font-family="Helvetica,sans-Serif" font-size="10.00">CCSDS::Packet::getCRC</text>
</a>
</g>
</g>
<!-- Node1&#45;&gt;Node2 -->
<g id="edge1_Node000001_Node000002" class="edge">
<title>Node1&#45;&gt;Node2</title>
<g id="a_edge1_Node000001_Node000002"><a xlink:title=" ">
<path fill="none" stroke="#63b8ff" d="M82.87,-147.03C95.36,-150.08 109.26,-153.45 122,-156.5 130.3,-158.49 139.11,-160.58 147.68,-162.6"/>
<polygon fill="#63b8ff" stroke="#63b8ff" points="147.06,-166.05 157.59,-164.94 148.66,-159.24 147.06,-166.05"/>
</a>
</g>
</g>
<!-- Node3 -->
<g id="Node000003" class="node">
<title>Node3</title>
<g id="a_Node000003"><a xlink:href="classCCSDS_1_1Packet.html#ae788c8d3ae1fcec2c18787c9491cdca3" target="_top" xlink:title="returns the CCSDS packet&#39;s DataField.">
<polygon fill="white" stroke="#666666" points="277,-147 122,-147 122,-128 277,-128 277,-147"/>
<text text-anchor="middle" x="199.5" y="-135" font-family="Helvetica,sans-Serif" font-size="10.00">CCSDS::Packet::getDataField</text>
</a>
</g>
</g>
<!-- Node1&#45;&gt;Node3 -->
<g id="edge2_Node000001_Node000003" class="edge">
<title>Node1&#45;&gt;Node3</title>
<g id="a_edge2_Node000001_Node000003"><a xlink:title=" ">
<path fill="none" stroke="#63b8ff" d="M86.22,-137.5C94.27,-137.5 102.96,-137.5 111.82,-137.5"/>
<polygon fill="#63b8ff" stroke="#63b8ff" points="111.87,-141 121.87,-137.5 111.87,-134 111.87,-141"/>
</a>
</g>
</g>
<!-- Node4 -->
<g id="Node000004" class="node">
<title>Node4</title>
<g id="a_Node000004"><a xlink:href="CCSDSUtils_8cpp.html#a6e927daa91ea42db4bb94bfc51425b96" target="_top" xlink:title="Prints the data field details, including the secondary header and application data.">
<polygon fill="white" stroke="#666666" points="230.5,-110 168.5,-110 168.5,-91 230.5,-91 230.5,-110"/>
<text text-anchor="middle" x="199.5" y="-98" font-family="Helvetica,sans-Serif" font-size="10.00">printData</text>
</a>
</g>
</g>
<!-- Node1&#45;&gt;Node4 -->
<g id="edge3_Node000001_Node000004" class="edge">
<title>Node1&#45;&gt;Node4</title>
<g id="a_edge3_Node000001_Node000004"><a xlink:title=" ">
<path fill="none" stroke="#63b8ff" d="M83.79,-127.97C106.69,-122.49 135.38,-115.62 158.34,-110.12"/>
<polygon fill="#63b8ff" stroke="#63b8ff" points="159.21,-113.51 168.12,-107.78 157.58,-106.7 159.21,-113.51"/>
</a>
</g>
</g>
<!-- Node5 -->
<g id="Node000005" class="node">
<title>Node5</title>
<g id="a_Node000005"><a xlink:href="classCCSDS_1_1DataField.html#a692e61aef588439155bdd3e289bfa103" target="_top" xlink:title="Retrieves the application data from the data field.">
<polygon fill="white" stroke="#666666" points="515,-190 313,-190 313,-171 515,-171 515,-190"/>
<text text-anchor="middle" x="414" y="-178" font-family="Helvetica,sans-Serif" font-size="10.00">CCSDS::DataField::getApplicationData</text>
</a>
</g>
</g>
<!-- Node4&#45;&gt;Node5 -->
<g id="edge4_Node000004_Node000005" class="edge">
<title>Node4&#45;&gt;Node5</title>
<g id="a_edge4_Node000004_Node000005"><a xlink:title=" ">
<path fill="none" stroke="#63b8ff" d="M230.54,-103.52C245.4,-106.08 263.07,-110.8 277,-119.5 298.14,-132.71 291.44,-149.99 313,-162.5 316.03,-164.26 319.19,-165.85 322.44,-167.3"/>
<polygon fill="#63b8ff" stroke="#63b8ff" points="321.24,-170.58 331.82,-170.98 323.8,-164.07 321.24,-170.58"/>
</a>
</g>
</g>
<!-- Node6 -->
<g id="Node000006" class="node">
<title>Node6</title>
<g id="a_Node000006"><a xlink:href="CCSDSUtils_8cpp.html#a6a4f98ed870a1cf55c943c9ace54a0cf" target="_top" xlink:title="Generates a string of spaces for formatting binary outputs.">
<polygon fill="white" stroke="#666666" points="457,-153 371,-153 371,-134 457,-134 457,-153"/>
<text text-anchor="middle" x="414" y="-141" font-family="Helvetica,sans-Serif" font-size="10.00">getBitsSpaces</text>
</a>
</g>
</g>
<!-- Node4&#45;&gt;Node6 -->
<g id="edge5_Node000004_Node000006" class="edge">
<title>Node4&#45;&gt;Node6</title>
<g id="a_edge5_Node000004_Node000006"><a xlink:title=" ">
<path fill="none" stroke="#63b8ff" d="M230.54,-107.1C253.18,-112.03 285.01,-118.86 313,-124.5 328.49,-127.62 345.36,-130.88 360.75,-133.8"/>
<polygon fill="#63b8ff" stroke="#63b8ff" points="360.15,-137.25 370.63,-135.67 361.45,-130.37 360.15,-137.25"/>
</a>
</g>
</g>
<!-- Node7 -->
<g id="Node000007" class="node">
<title>Node7</title>
<g id="a_Node000007"><a xlink:href="classCCSDS_1_1DataField.html#a586f18dcf878e68efd197994e95c6895" target="_top" xlink:title="Retrieves the secondary header data as a vector of bytes.">
<polygon fill="white" stroke="#666666" points="487.5,-115.5 340.5,-115.5 340.5,-85.5 487.5,-85.5 487.5,-115.5"/>
<text text-anchor="start" x="348.5" y="-103.5" font-family="Helvetica,sans-Serif" font-size="10.00">CCSDS::DataField::getData</text>
<text text-anchor="middle" x="414" y="-92.5" font-family="Helvetica,sans-Serif" font-size="10.00">FieldHeaderBytes</text>
</a>
</g>
</g>
<!-- Node4&#45;&gt;Node7 -->
<g id="edge6_Node000004_Node000007" class="edge">
<title>Node4&#45;&gt;Node7</title>
<g id="a_edge6_Node000004_Node000007"><a xlink:title=" ">
<path fill="none" stroke="#63b8ff" d="M230.95,-100.5C256.85,-100.5 295.3,-100.5 330.19,-100.5"/>
<polygon fill="#63b8ff" stroke="#63b8ff" points="330.41,-104 340.41,-100.5 330.41,-97 330.41,-104"/>
</a>
</g>
</g>
<!-- Node8 -->
<g id="Node000008" class="node">
<title>Node8</title>
<g id="a_Node000008"><a xlink:href="classCCSDS_1_1DataField.html#a78c2894fc2650e0dc9ec892d58dfde7a" target="_top" xlink:title="retrieves true if a known secondary header has been set">
<polygon fill="white" stroke="#666666" points="487.5,-67.5 340.5,-67.5 340.5,-37.5 487.5,-37.5 487.5,-67.5"/>
<text text-anchor="start" x="348.5" y="-55.5" font-family="Helvetica,sans-Serif" font-size="10.00">CCSDS::DataField::getData</text>
<text text-anchor="middle" x="414" y="-44.5" font-family="Helvetica,sans-Serif" font-size="10.00">FieldHeaderFlag</text>
</a>
</g>
</g>
<!-- Node4&#45;&gt;Node8 -->
<g id="edge7_Node000004_Node000008" class="edge">
<title>Node4&#45;&gt;Node8</title>
<g id="a_edge7_Node000004_Node000008"><a xlink:title=" ">
<path fill="none" stroke="#63b8ff" d="M230.95,-93.62C258.32,-87.44 299.72,-78.09 336.12,-69.87"/>
<polygon fill="#63b8ff" stroke="#63b8ff" points="337.25,-73.2 346.24,-67.58 335.71,-66.37 337.25,-73.2"/>
</a>
</g>
</g>
<!-- Node9 -->
<g id="Node000009" class="node">
<title>Node9</title>
<g id="a_Node000009"><a xlink:href="CCSDSUtils_8cpp.html#ac77b078f446e1e3842c118709505e87b" target="_top" xlink:title="Prints to console the HEX data from the bytes vector.">
<polygon fill="white" stroke="#666666" points="460,-19 368,-19 368,0 460,0 460,-19"/>
<text text-anchor="middle" x="414" y="-7" font-family="Helvetica,sans-Serif" font-size="10.00">printBufferData</text>
</a>
</g>
</g>
<!-- Node4&#45;&gt;Node9 -->
<g id="edge8_Node000004_Node000009" class="edge">
<title>Node4&#45;&gt;Node9</title>
<g id="a_edge8_Node000004_Node000009"><a xlink:title=" ">
<path fill="none" stroke="#63b8ff" d="M212.14,-90.87C231.69,-75.23 272.92,-44.44 313,-28.5 327.01,-22.93 342.79,-18.96 357.6,-16.15"/>
<polygon fill="#63b8ff" stroke="#63b8ff" points="358.42,-19.55 367.66,-14.38 357.21,-12.66 358.42,-19.55"/>
</a>
</g>
</g>
</g>
</svg>

<g id="navigator" transform="translate(0 0)" fill="#404254">
  <rect fill="#f2f5e9" fill-opacity="0.5" stroke="#606060" stroke-width=".5" x="0" y="0" width="60" height="60"/>
  <use id="zoomplus" xlink:href="#zoomPlus" x="17" y="9" onmousedown="handleZoom(evt,'in')"/>
  <use id="zoomminus" xlink:href="#zoomMin" x="42" y="9" onmousedown="handleZoom(evt,'out')"/>
  <use id="reset" xlink:href="#resetDef" x="30" y="36" onmousedown="handleReset()"/>
   <use id="arrowup" xlink:href="#arrowUp" x="0" y="0" onmousedown="handlePan(0,-1)"/>
  <use id="arrowright" xlink:href="#arrowRight" x="0" y="0" onmousedown="handlePan(1,0)"/>
  <use id="arrowdown" xlink:href="#arrowDown" x="0" y="0" onmousedown="handlePan(0,1)"/>
  <use id="arrowleft" xlink:href="#arrowLeft" x="0" y="0" onmousedown="handlePan(-1,0)"/>
</g>
<svg viewBox="0 0 15 15" width="100%" height="30px" preserveAspectRatio="xMaxYMin meet">
 <g id="arrow_out" transform="scale(0.3 0.3)">
  <a xlink:href="CCSDSUtils_8h_aed99c8e7576ac25c49f6b913b46d1b76_cgraph_org.svg" target="_base">
   <rect id="button" ry="5" rx="5" y="6" x="6" height="38" width="38"
        fill="#f2f5e9" fill-opacity="0.5" stroke="#606060" stroke-width="1.0"/>
   <path id="arrow"
     d="M 11.500037,31.436501 C 11.940474,20.09759 22.043105,11.32322 32.158766,21.979434 L 37.068811,17.246167 C 37.068811,17.246167 37.088388,32 37.088388,32 L 22.160133,31.978069 C 22.160133,31.978069 26.997745,27.140456 26.997745,27.140456 C 18.528582,18.264221 13.291696,25.230495 11.500037,31.436501 z"
     style="fill:#404040;"/>
  </a>
 </g>
</svg>

<style type='text/css'>
<![CDATA[
[data-mouse-over-selected='false'] { opacity: 0.7; }
[data-mouse-over-selected='true']  { opacity: 1.0; }
]]>
</style>
<script type="application/ecmascript"><![CDATA[
document.addEventListener('DOMContentLoaded', (event) => {
  highlightEdges();
  highlightAdjacentNodes();
});
]]></script>
</svg>
