<?xml version="1.0" encoding="UTF-8" standalone="no"?>
<!DOCTYPE svg PUBLIC "-//W3C//DTD SVG 1.1//EN"
 "http://www.w3.org/Graphics/SVG/1.1/DTD/svg11.dtd">
<!-- Generated by graphviz version 2.43.0 (0)
 -->
<!-- Title: src/CCSDSValidator.cpp Pages: 1 -->
<svg width="962pt" height="577pt"
 viewBox="0.00 0.00 962.00 577.00" xmlns="http://www.w3.org/2000/svg" xmlns:xlink="http://www.w3.org/1999/xlink">
<g id="graph0" class="graph" transform="scale(1 1) rotate(0) translate(4 573)">
<title>src/CCSDSValidator.cpp</title>
<!-- Node1 -->
<g id="Node000001" class="node">
<title>Node1</title>
<g id="a_Node000001"><a xlink:title=" ">
<polygon fill="#999999" stroke="#666666" points="796,-569 666,-569 666,-550 796,-550 796,-569"/>
<text text-anchor="middle" x="731" y="-557" font-family="Helvetica,sans-Serif" font-size="10.00">src/CCSDSValidator.cpp</text>
</a>
</g>
</g>
<!-- Node2 -->
<g id="Node000002" class="node">
<title>Node2</title>
<g id="a_Node000002"><a xlink:href="CCSDSValidator_8h.html" target="_top" xlink:title="Defines the Validator class for CCSDS packet validation.">
<polygon fill="white" stroke="#666666" points="747.5,-404 646.5,-404 646.5,-385 747.5,-385 747.5,-404"/>
<text text-anchor="middle" x="697" y="-392" font-family="Helvetica,sans-Serif" font-size="10.00">CCSDSValidator.h</text>
</a>
</g>
</g>
<!-- Node1&#45;&gt;Node2 -->
<g id="edge1_Node000001_Node000002" class="edge">
<title>Node1&#45;&gt;Node2</title>
<g id="a_edge1_Node000001_Node000002"><a xlink:title=" ">
<path fill="none" stroke="#63b8ff" d="M729.17,-549.74C723.85,-524.2 708.25,-449.43 700.91,-414.23"/>
<polygon fill="#63b8ff" stroke="#63b8ff" points="704.31,-413.38 698.84,-404.31 697.45,-414.81 704.31,-413.38"/>
</a>
</g>
</g>
<!-- Node18 -->
<g id="Node000018" class="node">
<title>Node18</title>
<g id="a_Node000018"><a xlink:href="CCSDSUtils_8h.html" target="_top" xlink:title=" ">
<polygon fill="white" stroke="#666666" points="811.5,-514 730.5,-514 730.5,-495 811.5,-495 811.5,-514"/>
<text text-anchor="middle" x="771" y="-502" font-family="Helvetica,sans-Serif" font-size="10.00">CCSDSUtils.h</text>
</a>
</g>
</g>
<!-- Node1&#45;&gt;Node18 -->
<g id="edge34_Node000001_Node000018" class="edge">
<title>Node1&#45;&gt;Node18</title>
<g id="a_edge34_Node000001_Node000018"><a xlink:title=" ">
<path fill="none" stroke="#63b8ff" d="M737.61,-549.75C743.26,-542.26 751.54,-531.28 758.45,-522.13"/>
<polygon fill="#63b8ff" stroke="#63b8ff" points="761.29,-524.18 764.52,-514.09 755.7,-519.96 761.29,-524.18"/>
</a>
</g>
</g>
<!-- Node3 -->
<g id="Node000003" class="node">
<title>Node3</title>
<g id="a_Node000003"><a xlink:href="CCSDSPacket_8h.html" target="_top" xlink:title=" ">
<polygon fill="white" stroke="#666666" points="719,-349 629,-349 629,-330 719,-330 719,-349"/>
<text text-anchor="middle" x="674" y="-337" font-family="Helvetica,sans-Serif" font-size="10.00">CCSDSPacket.h</text>
</a>
</g>
</g>
<!-- Node2&#45;&gt;Node3 -->
<g id="edge2_Node000002_Node000003" class="edge">
<title>Node2&#45;&gt;Node3</title>
<g id="a_edge2_Node000002_Node000003"><a xlink:title=" ">
<path fill="none" stroke="#63b8ff" d="M693.2,-384.75C690.09,-377.57 685.58,-367.18 681.71,-358.27"/>
<polygon fill="#63b8ff" stroke="#63b8ff" points="684.92,-356.87 677.73,-349.09 678.5,-359.66 684.92,-356.87"/>
</a>
</g>
</g>
<!-- Node4 -->
<g id="Node000004" class="node">
<title>Node4</title>
<g id="a_Node000004"><a xlink:href="CCSDSResult_8h.html" target="_top" xlink:title=" ">
<polygon fill="white" stroke="#666666" points="658.5,-74 569.5,-74 569.5,-55 658.5,-55 658.5,-74"/>
<text text-anchor="middle" x="614" y="-62" font-family="Helvetica,sans-Serif" font-size="10.00">CCSDSResult.h</text>
</a>
</g>
</g>
<!-- Node3&#45;&gt;Node4 -->
<g id="edge3_Node000003_Node000004" class="edge">
<title>Node3&#45;&gt;Node4</title>
<g id="a_edge3_Node000003_Node000004"><a xlink:title=" ">
<path fill="none" stroke="#63b8ff" d="M671.03,-329.94C665.03,-311.83 652,-268.2 652,-230.5 652,-230.5 652,-230.5 652,-173.5 652,-140.02 635.55,-103.84 624.3,-83.01"/>
<polygon fill="#63b8ff" stroke="#63b8ff" points="627.24,-81.1 619.28,-74.1 621.13,-84.53 627.24,-81.1"/>
</a>
</g>
</g>
<!-- Node7 -->
<g id="Node000007" class="node">
<title>Node7</title>
<g id="a_Node000007"><a xlink:title=" ">
<polygon fill="#e0e0e0" stroke="#999999" points="772.5,-19 725.5,-19 725.5,0 772.5,0 772.5,-19"/>
<text text-anchor="middle" x="749" y="-7" font-family="Helvetica,sans-Serif" font-size="10.00">vector</text>
</a>
</g>
</g>
<!-- Node3&#45;&gt;Node7 -->
<g id="edge10_Node000003_Node000007" class="edge">
<title>Node3&#45;&gt;Node7</title>
<g id="a_edge10_Node000003_Node000007"><a xlink:title=" ">
<path fill="none" stroke="#63b8ff" d="M717.61,-329.91C766.8,-317.4 840,-288.95 840,-230.5 840,-230.5 840,-230.5 840,-118.5 840,-76.65 799.54,-42.59 772.58,-24.54"/>
<polygon fill="#63b8ff" stroke="#63b8ff" points="774.33,-21.51 764.03,-19.04 770.55,-27.4 774.33,-21.51"/>
</a>
</g>
</g>
<!-- Node8 -->
<g id="Node000008" class="node">
<title>Node8</title>
<g id="a_Node000008"><a xlink:title=" ">
<polygon fill="#e0e0e0" stroke="#999999" points="181,-19 131,-19 131,0 181,0 181,-19"/>
<text text-anchor="middle" x="156" y="-7" font-family="Helvetica,sans-Serif" font-size="10.00">cstdint</text>
</a>
</g>
</g>
<!-- Node3&#45;&gt;Node8 -->
<g id="edge9_Node000003_Node000008" class="edge">
<title>Node3&#45;&gt;Node8</title>
<g id="a_edge9_Node000003_Node000008"><a xlink:title=" ">
<path fill="none" stroke="#63b8ff" d="M628.77,-335.61C483.47,-325.71 38,-290.49 38,-230.5 38,-230.5 38,-230.5 38,-118.5 38,-71.67 89.21,-39.67 124.16,-23.28"/>
<polygon fill="#63b8ff" stroke="#63b8ff" points="125.84,-26.37 133.53,-19.08 122.97,-19.98 125.84,-26.37"/>
</a>
</g>
</g>
<!-- Node10 -->
<g id="Node000010" class="node">
<title>Node10</title>
<g id="a_Node000010"><a xlink:href="CCSDSHeader_8h.html" target="_top" xlink:title=" ">
<polygon fill="white" stroke="#666666" points="773.5,-129 680.5,-129 680.5,-110 773.5,-110 773.5,-129"/>
<text text-anchor="middle" x="727" y="-117" font-family="Helvetica,sans-Serif" font-size="10.00">CCSDSHeader.h</text>
</a>
</g>
</g>
<!-- Node3&#45;&gt;Node10 -->
<g id="edge11_Node000003_Node000010" class="edge">
<title>Node3&#45;&gt;Node10</title>
<g id="a_edge11_Node000003_Node000010"><a xlink:title=" ">
<path fill="none" stroke="#63b8ff" d="M676.08,-329.95C683.88,-297.88 711.51,-184.2 722.47,-139.12"/>
<polygon fill="#63b8ff" stroke="#63b8ff" points="725.92,-139.77 724.88,-129.22 719.12,-138.11 725.92,-139.77"/>
</a>
</g>
</g>
<!-- Node11 -->
<g id="Node000011" class="node">
<title>Node11</title>
<g id="a_Node000011"><a xlink:href="CCSDSDataField_8h.html" target="_top" xlink:title=" ">
<polygon fill="white" stroke="#666666" points="481.5,-294 376.5,-294 376.5,-275 481.5,-275 481.5,-294"/>
<text text-anchor="middle" x="429" y="-282" font-family="Helvetica,sans-Serif" font-size="10.00">CCSDSDataField.h</text>
</a>
</g>
</g>
<!-- Node3&#45;&gt;Node11 -->
<g id="edge15_Node000003_Node000011" class="edge">
<title>Node3&#45;&gt;Node11</title>
<g id="a_edge15_Node000003_Node000011"><a xlink:title=" ">
<path fill="none" stroke="#63b8ff" d="M634.64,-329.98C592.26,-320.82 524.74,-306.21 478.72,-296.26"/>
<polygon fill="#63b8ff" stroke="#63b8ff" points="479.19,-292.78 468.67,-294.08 477.71,-299.62 479.19,-292.78"/>
</a>
</g>
</g>
<!-- Node5 -->
<g id="Node000005" class="node">
<title>Node5</title>
<g id="a_Node000005"><a xlink:title=" ">
<polygon fill="#e0e0e0" stroke="#999999" points="554.5,-19 461.5,-19 461.5,0 554.5,0 554.5,-19"/>
<text text-anchor="middle" x="508" y="-7" font-family="Helvetica,sans-Serif" font-size="10.00">unordered_map</text>
</a>
</g>
</g>
<!-- Node4&#45;&gt;Node5 -->
<g id="edge4_Node000004_Node000005" class="edge">
<title>Node4&#45;&gt;Node5</title>
<g id="a_edge4_Node000004_Node000005"><a xlink:title=" ">
<path fill="none" stroke="#63b8ff" d="M596.97,-54.98C580.07,-46.54 553.94,-33.47 534.36,-23.68"/>
<polygon fill="#63b8ff" stroke="#63b8ff" points="535.85,-20.51 525.34,-19.17 532.72,-26.77 535.85,-20.51"/>
</a>
</g>
</g>
<!-- Node6 -->
<g id="Node000006" class="node">
<title>Node6</title>
<g id="a_Node000006"><a xlink:title=" ">
<polygon fill="#e0e0e0" stroke="#999999" points="705.5,-19 654.5,-19 654.5,0 705.5,0 705.5,-19"/>
<text text-anchor="middle" x="680" y="-7" font-family="Helvetica,sans-Serif" font-size="10.00">variant</text>
</a>
</g>
</g>
<!-- Node4&#45;&gt;Node6 -->
<g id="edge5_Node000004_Node000006" class="edge">
<title>Node4&#45;&gt;Node6</title>
<g id="a_edge5_Node000004_Node000006"><a xlink:title=" ">
<path fill="none" stroke="#63b8ff" d="M624.6,-54.98C634.46,-47.07 649.35,-35.11 661.22,-25.58"/>
<polygon fill="#63b8ff" stroke="#63b8ff" points="663.6,-28.16 669.2,-19.17 659.21,-22.7 663.6,-28.16"/>
</a>
</g>
</g>
<!-- Node4&#45;&gt;Node7 -->
<g id="edge6_Node000004_Node000007" class="edge">
<title>Node4&#45;&gt;Node7</title>
<g id="a_edge6_Node000004_Node000007"><a xlink:title=" ">
<path fill="none" stroke="#63b8ff" d="M635.69,-54.98C657.8,-46.3 692.32,-32.75 717.45,-22.88"/>
<polygon fill="#63b8ff" stroke="#63b8ff" points="718.89,-26.08 726.92,-19.17 716.33,-19.57 718.89,-26.08"/>
</a>
</g>
</g>
<!-- Node4&#45;&gt;Node8 -->
<g id="edge7_Node000004_Node000008" class="edge">
<title>Node4&#45;&gt;Node8</title>
<g id="a_edge7_Node000004_Node000008"><a xlink:title=" ">
<path fill="none" stroke="#63b8ff" d="M569.25,-58.32C478.25,-47.79 273.31,-24.07 191.1,-14.56"/>
<polygon fill="#63b8ff" stroke="#63b8ff" points="191.35,-11.07 181.01,-13.39 190.54,-18.02 191.35,-11.07"/>
</a>
</g>
</g>
<!-- Node9 -->
<g id="Node000009" class="node">
<title>Node9</title>
<g id="a_Node000009"><a xlink:title=" ">
<polygon fill="#e0e0e0" stroke="#999999" points="636,-19 576,-19 576,0 636,0 636,-19"/>
<text text-anchor="middle" x="606" y="-7" font-family="Helvetica,sans-Serif" font-size="10.00">iostream</text>
</a>
</g>
</g>
<!-- Node4&#45;&gt;Node9 -->
<g id="edge8_Node000004_Node000009" class="edge">
<title>Node4&#45;&gt;Node9</title>
<g id="a_edge8_Node000004_Node000009"><a xlink:title=" ">
<path fill="none" stroke="#63b8ff" d="M612.68,-54.75C611.63,-47.8 610.13,-37.85 608.81,-29.13"/>
<polygon fill="#63b8ff" stroke="#63b8ff" points="612.25,-28.45 607.3,-19.09 605.33,-29.5 612.25,-28.45"/>
</a>
</g>
</g>
<!-- Node10&#45;&gt;Node4 -->
<g id="edge12_Node000010_Node000004" class="edge">
<title>Node10&#45;&gt;Node4</title>
<g id="a_edge12_Node000010_Node000004"><a xlink:title=" ">
<path fill="none" stroke="#63b8ff" d="M708.84,-109.98C690.75,-101.5 662.72,-88.35 641.81,-78.54"/>
<polygon fill="#63b8ff" stroke="#63b8ff" points="643.03,-75.25 632.49,-74.17 640.05,-81.59 643.03,-75.25"/>
</a>
</g>
</g>
<!-- Node10&#45;&gt;Node7 -->
<g id="edge14_Node000010_Node000007" class="edge">
<title>Node10&#45;&gt;Node7</title>
<g id="a_edge14_Node000010_Node000007"><a xlink:title=" ">
<path fill="none" stroke="#63b8ff" d="M728.8,-109.66C732.36,-92.17 740.38,-52.8 745.18,-29.27"/>
<polygon fill="#63b8ff" stroke="#63b8ff" points="748.67,-29.66 747.24,-19.16 741.81,-28.26 748.67,-29.66"/>
</a>
</g>
</g>
<!-- Node10&#45;&gt;Node8 -->
<g id="edge13_Node000010_Node000008" class="edge">
<title>Node10&#45;&gt;Node8</title>
<g id="a_edge13_Node000010_Node000008"><a xlink:title=" ">
<path fill="none" stroke="#63b8ff" d="M681.72,-109.94C571.39,-89.07 290.48,-35.94 191.32,-17.18"/>
<polygon fill="#63b8ff" stroke="#63b8ff" points="191.7,-13.69 181.22,-15.27 190.4,-20.57 191.7,-13.69"/>
</a>
</g>
</g>
<!-- Node11&#45;&gt;Node4 -->
<g id="edge16_Node000011_Node000004" class="edge">
<title>Node11&#45;&gt;Node4</title>
<g id="a_edge16_Node000011_Node000004"><a xlink:title=" ">
<path fill="none" stroke="#63b8ff" d="M452.3,-274.93C470.68,-267.39 496.26,-255.1 515,-239 560.85,-199.61 568.18,-183.17 595,-129 602.11,-114.64 607.1,-97.12 610.18,-84.12"/>
<polygon fill="#63b8ff" stroke="#63b8ff" points="613.67,-84.58 612.4,-74.06 606.83,-83.07 613.67,-84.58"/>
</a>
</g>
</g>
<!-- Node11&#45;&gt;Node7 -->
<g id="edge18_Node000011_Node000007" class="edge">
<title>Node11&#45;&gt;Node7</title>
<g id="a_edge18_Node000011_Node000007"><a xlink:title=" ">
<path fill="none" stroke="#63b8ff" d="M481.65,-279.3C584.47,-269.63 802,-241.4 802,-175.5 802,-175.5 802,-175.5 802,-118.5 802,-83.02 778.67,-47.08 762.96,-26.9"/>
<polygon fill="#63b8ff" stroke="#63b8ff" points="765.61,-24.61 756.59,-19.04 760.17,-29.01 765.61,-24.61"/>
</a>
</g>
</g>
<!-- Node11&#45;&gt;Node8 -->
<g id="edge17_Node000011_Node000008" class="edge">
<title>Node11&#45;&gt;Node8</title>
<g id="a_edge17_Node000011_Node000008"><a xlink:title=" ">
<path fill="none" stroke="#63b8ff" d="M376.15,-278.42C277.68,-267.48 76,-237.51 76,-175.5 76,-175.5 76,-175.5 76,-118.5 76,-78.81 111.32,-44.18 135.03,-25.41"/>
<polygon fill="#63b8ff" stroke="#63b8ff" points="137.31,-28.07 143.15,-19.23 133.07,-22.5 137.31,-28.07"/>
</a>
</g>
</g>
<!-- Node12 -->
<g id="Node000012" class="node">
<title>Node12</title>
<g id="a_Node000012"><a xlink:title=" ">
<polygon fill="#e0e0e0" stroke="#999999" points="162,-129 104,-129 104,-110 162,-110 162,-129"/>
<text text-anchor="middle" x="133" y="-117" font-family="Helvetica,sans-Serif" font-size="10.00">memory</text>
</a>
</g>
</g>
<!-- Node11&#45;&gt;Node12 -->
<g id="edge19_Node000011_Node000012" class="edge">
<title>Node11&#45;&gt;Node12</title>
<g id="a_edge19_Node000011_Node000012"><a xlink:title=" ">
<path fill="none" stroke="#63b8ff" d="M387.28,-274.96C333.96,-262.38 240.94,-234.71 177,-184 161.44,-171.66 149.16,-152.35 141.57,-138.27"/>
<polygon fill="#63b8ff" stroke="#63b8ff" points="144.56,-136.42 136.89,-129.1 138.32,-139.6 144.56,-136.42"/>
</a>
</g>
</g>
<!-- Node13 -->
<g id="Node000013" class="node">
<title>Node13</title>
<g id="a_Node000013"><a xlink:href="CCSDSSecondaryHeaderAbstract_8h.html" target="_top" xlink:title=" ">
<polygon fill="white" stroke="#666666" points="486.5,-129 301.5,-129 301.5,-110 486.5,-110 486.5,-129"/>
<text text-anchor="middle" x="394" y="-117" font-family="Helvetica,sans-Serif" font-size="10.00">CCSDSSecondaryHeaderAbstract.h</text>
</a>
</g>
</g>
<!-- Node11&#45;&gt;Node13 -->
<g id="edge20_Node000011_Node000013" class="edge">
<title>Node11&#45;&gt;Node13</title>
<g id="a_edge20_Node000011_Node000013"><a xlink:title=" ">
<path fill="none" stroke="#63b8ff" d="M425.32,-274.79C421.71,-265.92 416.28,-251.72 413,-239 404.07,-204.32 398.57,-162.79 395.91,-139.24"/>
<polygon fill="#63b8ff" stroke="#63b8ff" points="399.39,-138.81 394.84,-129.24 392.43,-139.55 399.39,-138.81"/>
</a>
</g>
</g>
<!-- Node14 -->
<g id="Node000014" class="node">
<title>Node14</title>
<g id="a_Node000014"><a xlink:href="CCSDSSecondaryHeaderFactory_8h.html" target="_top" xlink:title=" ">
<polygon fill="white" stroke="#666666" points="365.5,-184 186.5,-184 186.5,-165 365.5,-165 365.5,-184"/>
<text text-anchor="middle" x="276" y="-172" font-family="Helvetica,sans-Serif" font-size="10.00">CCSDSSecondaryHeaderFactory.h</text>
</a>
</g>
</g>
<!-- Node11&#45;&gt;Node14 -->
<g id="edge24_Node000011_Node000014" class="edge">
<title>Node11&#45;&gt;Node14</title>
<g id="a_edge24_Node000011_Node000014"><a xlink:title=" ">
<path fill="none" stroke="#63b8ff" d="M416.74,-274.84C390.55,-256.36 328.93,-212.86 296.61,-190.05"/>
<polygon fill="#63b8ff" stroke="#63b8ff" points="298.51,-187.1 288.32,-184.2 294.47,-192.82 298.51,-187.1"/>
</a>
</g>
</g>
<!-- Node17 -->
<g id="Node000017" class="node">
<title>Node17</title>
<g id="a_Node000017"><a xlink:href="PusServices_8h.html" target="_top" xlink:title=" ">
<polygon fill="white" stroke="#666666" points="506,-239 422,-239 422,-220 506,-220 506,-239"/>
<text text-anchor="middle" x="464" y="-227" font-family="Helvetica,sans-Serif" font-size="10.00">PusServices.h</text>
</a>
</g>
</g>
<!-- Node11&#45;&gt;Node17 -->
<g id="edge30_Node000011_Node000017" class="edge">
<title>Node11&#45;&gt;Node17</title>
<g id="a_edge30_Node000011_Node000017"><a xlink:title=" ">
<path fill="none" stroke="#63b8ff" d="M434.78,-274.75C439.62,-267.42 446.68,-256.73 452.64,-247.7"/>
<polygon fill="#63b8ff" stroke="#63b8ff" points="455.74,-249.36 458.33,-239.09 449.9,-245.5 455.74,-249.36"/>
</a>
</g>
</g>
<!-- Node13&#45;&gt;Node4 -->
<g id="edge21_Node000013_Node000004" class="edge">
<title>Node13&#45;&gt;Node4</title>
<g id="a_edge21_Node000013_Node000004"><a xlink:title=" ">
<path fill="none" stroke="#63b8ff" d="M429.35,-109.98C467.16,-100.87 527.26,-86.4 568.57,-76.45"/>
<polygon fill="#63b8ff" stroke="#63b8ff" points="569.47,-79.83 578.38,-74.08 567.83,-73.02 569.47,-79.83"/>
</a>
</g>
</g>
<!-- Node13&#45;&gt;Node7 -->
<g id="edge22_Node000013_Node000007" class="edge">
<title>Node13&#45;&gt;Node7</title>
<g id="a_edge22_Node000013_Node000007"><a xlink:title=" ">
<path fill="none" stroke="#63b8ff" d="M414.01,-109.89C445.04,-96.77 506.86,-71.54 561,-55 628.22,-34.46 646.68,-35.52 715,-19 715.1,-18.97 715.21,-18.95 715.31,-18.92"/>
<polygon fill="#63b8ff" stroke="#63b8ff" points="716.35,-22.27 725.23,-16.49 714.69,-15.47 716.35,-22.27"/>
</a>
</g>
</g>
<!-- Node13&#45;&gt;Node8 -->
<g id="edge23_Node000013_Node000008" class="edge">
<title>Node13&#45;&gt;Node8</title>
<g id="a_edge23_Node000013_Node000008"><a xlink:title=" ">
<path fill="none" stroke="#63b8ff" d="M374.93,-109.84C333.13,-90.88 233.3,-45.58 184.22,-23.31"/>
<polygon fill="#63b8ff" stroke="#63b8ff" points="185.39,-19.99 174.83,-19.05 182.49,-26.37 185.39,-19.99"/>
</a>
</g>
</g>
<!-- Node14&#45;&gt;Node5 -->
<g id="edge26_Node000014_Node000005" class="edge">
<title>Node14&#45;&gt;Node5</title>
<g id="a_edge26_Node000014_Node000005"><a xlink:title=" ">
<path fill="none" stroke="#63b8ff" d="M254.32,-164.89C229.08,-153.58 192.78,-132.49 209,-110 264.28,-33.34 381.11,-14.83 451.25,-10.9"/>
<polygon fill="#63b8ff" stroke="#63b8ff" points="451.42,-14.4 461.24,-10.42 451.09,-7.41 451.42,-14.4"/>
</a>
</g>
</g>
<!-- Node14&#45;&gt;Node12 -->
<g id="edge25_Node000014_Node000012" class="edge">
<title>Node14&#45;&gt;Node12</title>
<g id="a_edge25_Node000014_Node000012"><a xlink:title=" ">
<path fill="none" stroke="#63b8ff" d="M253.02,-164.98C229.5,-156.27 192.71,-142.63 166.06,-132.75"/>
<polygon fill="#63b8ff" stroke="#63b8ff" points="166.99,-129.36 156.39,-129.17 164.55,-135.93 166.99,-129.36"/>
</a>
</g>
</g>
<!-- Node14&#45;&gt;Node13 -->
<g id="edge29_Node000014_Node000013" class="edge">
<title>Node14&#45;&gt;Node13</title>
<g id="a_edge29_Node000014_Node000013"><a xlink:title=" ">
<path fill="none" stroke="#63b8ff" d="M294.96,-164.98C314.03,-156.42 343.66,-143.11 365.55,-133.28"/>
<polygon fill="#63b8ff" stroke="#63b8ff" points="367.01,-136.46 374.7,-129.17 364.14,-130.07 367.01,-136.46"/>
</a>
</g>
</g>
<!-- Node15 -->
<g id="Node000015" class="node">
<title>Node15</title>
<g id="a_Node000015"><a xlink:title=" ">
<polygon fill="#e0e0e0" stroke="#999999" points="283.5,-129 218.5,-129 218.5,-110 283.5,-110 283.5,-129"/>
<text text-anchor="middle" x="251" y="-117" font-family="Helvetica,sans-Serif" font-size="10.00">functional</text>
</a>
</g>
</g>
<!-- Node14&#45;&gt;Node15 -->
<g id="edge27_Node000014_Node000015" class="edge">
<title>Node14&#45;&gt;Node15</title>
<g id="a_edge27_Node000014_Node000015"><a xlink:title=" ">
<path fill="none" stroke="#63b8ff" d="M271.87,-164.75C268.49,-157.57 263.58,-147.18 259.38,-138.27"/>
<polygon fill="#63b8ff" stroke="#63b8ff" points="262.48,-136.64 255.05,-129.09 256.15,-139.63 262.48,-136.64"/>
</a>
</g>
</g>
<!-- Node16 -->
<g id="Node000016" class="node">
<title>Node16</title>
<g id="a_Node000016"><a xlink:title=" ">
<polygon fill="#e0e0e0" stroke="#999999" points="586,-129 542,-129 542,-110 586,-110 586,-129"/>
<text text-anchor="middle" x="564" y="-117" font-family="Helvetica,sans-Serif" font-size="10.00">string</text>
</a>
</g>
</g>
<!-- Node14&#45;&gt;Node16 -->
<g id="edge28_Node000014_Node000016" class="edge">
<title>Node14&#45;&gt;Node16</title>
<g id="a_edge28_Node000014_Node000016"><a xlink:title=" ">
<path fill="none" stroke="#63b8ff" d="M322.27,-164.98C380.91,-154.19 480.48,-135.87 531.6,-126.46"/>
<polygon fill="#63b8ff" stroke="#63b8ff" points="532.54,-129.85 541.74,-124.6 531.27,-122.96 532.54,-129.85"/>
</a>
</g>
</g>
<!-- Node17&#45;&gt;Node4 -->
<g id="edge33_Node000017_Node000004" class="edge">
<title>Node17&#45;&gt;Node4</title>
<g id="a_edge33_Node000017_Node000004"><a xlink:title=" ">
<path fill="none" stroke="#63b8ff" d="M467.2,-219.7C475.29,-198.48 498.4,-143.74 533,-110 546.89,-96.45 565.72,-85.78 581.74,-78.28"/>
<polygon fill="#63b8ff" stroke="#63b8ff" points="583.57,-81.3 591.28,-74.03 580.72,-74.9 583.57,-81.3"/>
</a>
</g>
</g>
<!-- Node17&#45;&gt;Node13 -->
<g id="edge31_Node000017_Node000013" class="edge">
<title>Node17&#45;&gt;Node13</title>
<g id="a_edge31_Node000017_Node000013"><a xlink:title=" ">
<path fill="none" stroke="#63b8ff" d="M458.27,-219.66C446.68,-201.77 420.25,-161 405.14,-137.69"/>
<polygon fill="#63b8ff" stroke="#63b8ff" points="407.99,-135.65 399.61,-129.16 402.11,-139.45 407.99,-135.65"/>
</a>
</g>
</g>
<!-- Node17&#45;&gt;Node14 -->
<g id="edge32_Node000017_Node000014" class="edge">
<title>Node17&#45;&gt;Node14</title>
<g id="a_edge32_Node000017_Node000014"><a xlink:title=" ">
<path fill="none" stroke="#63b8ff" d="M433.79,-219.98C401.96,-211.01 351.64,-196.82 316.4,-186.89"/>
<polygon fill="#63b8ff" stroke="#63b8ff" points="317.02,-183.43 306.44,-184.08 315.12,-190.16 317.02,-183.43"/>
</a>
</g>
</g>
<!-- Node18&#45;&gt;Node3 -->
<g id="edge35_Node000018_Node000003" class="edge">
<title>Node18&#45;&gt;Node3</title>
<g id="a_edge35_Node000018_Node000003"><a xlink:title=" ">
<path fill="none" stroke="#63b8ff" d="M749.46,-494.9C718.18,-481.09 661.37,-450.67 638,-404 629.73,-387.48 642.55,-369.19 655.12,-356.5"/>
<polygon fill="#63b8ff" stroke="#63b8ff" points="657.81,-358.77 662.72,-349.39 653.03,-353.66 657.81,-358.77"/>
</a>
</g>
</g>
<!-- Node18&#45;&gt;Node7 -->
<g id="edge43_Node000018_Node000007" class="edge">
<title>Node18&#45;&gt;Node7</title>
<g id="a_edge43_Node000018_Node000007"><a xlink:title=" ">
<path fill="none" stroke="#63b8ff" d="M811.61,-497.82C865.53,-487.73 954,-461.17 954,-395.5 954,-395.5 954,-395.5 954,-118.5 954,-42 840.88,-19.56 782.7,-13.08"/>
<polygon fill="#63b8ff" stroke="#63b8ff" points="782.82,-9.57 772.52,-12.04 782.11,-16.53 782.82,-9.57"/>
</a>
</g>
</g>
<!-- Node18&#45;&gt;Node8 -->
<g id="edge42_Node000018_Node000008" class="edge">
<title>Node18&#45;&gt;Node8</title>
<g id="a_edge42_Node000018_Node000008"><a xlink:title=" ">
<path fill="none" stroke="#63b8ff" d="M730.36,-502.13C571.35,-496.26 0,-469.97 0,-395.5 0,-395.5 0,-395.5 0,-118.5 0,-60.01 75.06,-30.7 121.05,-18.23"/>
<polygon fill="#63b8ff" stroke="#63b8ff" points="122.12,-21.57 130.94,-15.68 120.38,-14.79 122.12,-21.57"/>
</a>
</g>
</g>
<!-- Node18&#45;&gt;Node16 -->
<g id="edge41_Node000018_Node000016" class="edge">
<title>Node18&#45;&gt;Node16</title>
<g id="a_edge41_Node000018_Node000016"><a xlink:title=" ">
<path fill="none" stroke="#63b8ff" d="M803.54,-494.98C846.29,-481.59 916,-451.22 916,-395.5 916,-395.5 916,-395.5 916,-283.5 916,-213.28 682.45,-149.31 595.83,-127.99"/>
<polygon fill="#63b8ff" stroke="#63b8ff" points="596.56,-124.57 586.02,-125.61 594.91,-131.37 596.56,-124.57"/>
</a>
</g>
</g>
<!-- Node19 -->
<g id="Node000019" class="node">
<title>Node19</title>
<g id="a_Node000019"><a xlink:href="CCSDSManager_8h.html" target="_top" xlink:title=" ">
<polygon fill="white" stroke="#666666" points="826.5,-459 725.5,-459 725.5,-440 826.5,-440 826.5,-459"/>
<text text-anchor="middle" x="776" y="-447" font-family="Helvetica,sans-Serif" font-size="10.00">CCSDSManager.h</text>
</a>
</g>
</g>
<!-- Node18&#45;&gt;Node19 -->
<g id="edge36_Node000018_Node000019" class="edge">
<title>Node18&#45;&gt;Node19</title>
<g id="a_edge36_Node000018_Node000019"><a xlink:title=" ">
<path fill="none" stroke="#63b8ff" d="M771.83,-494.75C772.48,-487.8 773.42,-477.85 774.24,-469.13"/>
<polygon fill="#63b8ff" stroke="#63b8ff" points="777.73,-469.37 775.19,-459.09 770.77,-468.72 777.73,-469.37"/>
</a>
</g>
</g>
<!-- Node19&#45;&gt;Node2 -->
<g id="edge40_Node000019_Node000002" class="edge">
<title>Node19&#45;&gt;Node2</title>
<g id="a_edge40_Node000019_Node000002"><a xlink:title=" ">
<path fill="none" stroke="#63b8ff" d="M763.31,-439.98C751.17,-431.84 732.64,-419.41 718.25,-409.76"/>
<polygon fill="#63b8ff" stroke="#63b8ff" points="720.18,-406.84 709.92,-404.17 716.28,-412.65 720.18,-406.84"/>
</a>
</g>
</g>
<!-- Node19&#45;&gt;Node3 -->
<g id="edge38_Node000019_Node000003" class="edge">
<title>Node19&#45;&gt;Node3</title>
<g id="a_edge38_Node000019_Node000003"><a xlink:title=" ">
<path fill="none" stroke="#63b8ff" d="M775.48,-439.72C774.26,-426.47 770.25,-401.22 757,-385 745.07,-370.39 727.04,-359.91 710.83,-352.81"/>
<polygon fill="#63b8ff" stroke="#63b8ff" points="712.13,-349.56 701.55,-349.01 709.48,-356.04 712.13,-349.56"/>
</a>
</g>
</g>
<!-- Node19&#45;&gt;Node4 -->
<g id="edge39_Node000019_Node000004" class="edge">
<title>Node19&#45;&gt;Node4</title>
<g id="a_edge39_Node000019_Node000004"><a xlink:title=" ">
<path fill="none" stroke="#63b8ff" d="M803.55,-439.99C821.73,-433.04 844.73,-421.48 859,-404 877.63,-381.18 878,-369.96 878,-340.5 878,-340.5 878,-340.5 878,-283.5 878,-195.59 854,-161.85 783,-110 749.77,-85.73 704.32,-74.69 668.93,-69.67"/>
<polygon fill="#63b8ff" stroke="#63b8ff" points="669.12,-66.16 658.76,-68.35 668.23,-73.11 669.12,-66.16"/>
</a>
</g>
</g>
<!-- Node20 -->
<g id="Node000020" class="node">
<title>Node20</title>
<g id="a_Node000020"><a xlink:title=" ">
<polygon fill="#e0e0e0" stroke="#999999" points="849.5,-404 804.5,-404 804.5,-385 849.5,-385 849.5,-404"/>
<text text-anchor="middle" x="827" y="-392" font-family="Helvetica,sans-Serif" font-size="10.00">utility</text>
</a>
</g>
</g>
<!-- Node19&#45;&gt;Node20 -->
<g id="edge37_Node000019_Node000020" class="edge">
<title>Node19&#45;&gt;Node20</title>
<g id="a_edge37_Node000019_Node000020"><a xlink:title=" ">
<path fill="none" stroke="#63b8ff" d="M784.42,-439.75C791.77,-432.11 802.63,-420.82 811.54,-411.56"/>
<polygon fill="#63b8ff" stroke="#63b8ff" points="814.32,-413.72 818.74,-404.09 809.28,-408.87 814.32,-413.72"/>
</a>
</g>
</g>
</g>
</svg>
