<?xml version="1.0" encoding="UTF-8" standalone="no"?>
<!DOCTYPE svg PUBLIC "-//W3C//DTD SVG 1.1//EN"
 "http://www.w3.org/Graphics/SVG/1.1/DTD/svg11.dtd">
<!-- Generated by graphviz version 2.43.0 (0)
 -->
<!-- Title: inc/CCSDSResult.h Pages: 1 -->
<!--zoomable 544 -->

<svg id="main" version="1.1" xmlns="http://www.w3.org/2000/svg" xmlns:xlink="http://www.w3.org/1999/xlink" xml:space="preserve" onload="init(evt)">
<style type="text/css"><![CDATA[
.node, .edge {opacity: 0.7;}
.node.selected, .edge.selected {opacity: 1;}
.edge:hover path { stroke: red; }
.edge:hover polygon { stroke: red; fill: red; }
]]></style>

<defs>
  <circle id="rim" cx="0" cy="0" r="7"/>
  <circle id="rim2" cx="0" cy="0" r="3.5"/>
  <g id="zoomPlus">
    <use xlink:href="#rim" fill="#404040"><set attributeName="fill" to="#808080" begin="zoomplus.mouseover" end="zoomplus.mouseout"/></use>
    <path d="M-4,0h8M0,-4v8" fill="none" stroke="white" stroke-width="1.5" pointer-events="none"/>
  </g>
  <g id="zoomMin">
    <use xlink:href="#rim" fill="#404040"><set attributeName="fill" to="#808080" begin="zoomminus.mouseover" end="zoomminus.mouseout"/></use>
    <path d="M-4,0h8" fill="none" stroke="white" stroke-width="1.5" pointer-events="none"/>
  </g>
  <g id="arrowUp" transform="translate(30 24)">
    <use xlink:href="#rim"/>
    <path pointer-events="none" fill="none" stroke="white" stroke-width="1.5" d="M0,-3.0v7 M-2.5,-0.5L0,-3.0L2.5,-0.5"/>
  </g>
  <g id="arrowRight" transform="rotate(90) translate(36 -43)">
    <use xlink:href="#rim"/>
    <path pointer-events="none" fill="none" stroke="white" stroke-width="1.5" d="M0,-3.0v7 M-2.5,-0.5L0,-3.0L2.5,-0.5"/>
  </g>
  <g id="arrowDown" transform="rotate(180) translate(-30 -48)">
    <use xlink:href="#rim"/>
    <path pointer-events="none" fill="none" stroke="white" stroke-width="1.5" d="M0,-3.0v7 M-2.5,-0.5L0,-3.0L2.5,-0.5"/>
  </g>
  <g id="arrowLeft" transform="rotate(270) translate(-36 17)">
    <use xlink:href="#rim"/>
    <path pointer-events="none" fill="none" stroke="white" stroke-width="1.5" d="M0,-3.0v7 M-2.5,-0.5L0,-3.0L2.5,-0.5"/>
  </g>
  <g id="resetDef">
    <use xlink:href="#rim2" fill="#404040"><set attributeName="fill" to="#808080" begin="reset.mouseover" end="reset.mouseout"/></use>
  </g>
</defs>
<script type="application/ecmascript">
var viewWidth = 982;
var viewHeight = 544;
var sectionId = 'dynsection-1';
</script>
<script type="application/ecmascript" xlink:href="svg.min.js"/>
<svg id="graph" class="graph">
<g id="viewport">
<title>inc/CCSDSResult.h</title>
<!-- Node1 -->
<g id="Node000001" class="node">
<title>Node1</title>
<g id="a_Node000001"><a xlink:title=" ">
<polygon fill="#999999" stroke="#666666" points="546.5,-536 439.5,-536 439.5,-517 546.5,-517 546.5,-536"/>
<text text-anchor="middle" x="493" y="-524" font-family="Helvetica,sans-Serif" font-size="10.00">inc/CCSDSResult.h</text>
</a>
</g>
</g>
<!-- Node2 -->
<g id="Node000002" class="node">
<title>Node2</title>
<g id="a_Node000002"><a xlink:href="CCSDSDataField_8h.html" target="_top" xlink:title=" ">
<polygon fill="white" stroke="#666666" points="333,-294 211,-294 211,-275 333,-275 333,-294"/>
<text text-anchor="middle" x="272" y="-282" font-family="Helvetica,sans-Serif" font-size="10.00">inc/CCSDSDataField.h</text>
</a>
</g>
</g>
<!-- Node1&#45;&gt;Node2 -->
<g id="edge1_Node000001_Node000002" class="edge">
<title>Node1&#45;&gt;Node2</title>
<g id="a_edge1_Node000001_Node000002"><a xlink:title=" ">
<path fill="none" stroke="#63b8ff" d="M429.03,-520.87C362.71,-514.97 264.52,-502.82 234,-481 178.78,-441.51 173.44,-386.55 211,-330 221.66,-313.95 240.19,-301.66 254.04,-294.1"/>
<polygon fill="#63b8ff" stroke="#63b8ff" points="429.12,-524.39 439.39,-521.76 429.72,-517.42 429.12,-524.39"/>
</a>
</g>
</g>
<!-- Node3 -->
<g id="Node000003" class="node">
<title>Node3</title>
<g id="a_Node000003"><a xlink:href="CCSDSPacket_8h.html" target="_top" xlink:title=" ">
<polygon fill="white" stroke="#666666" points="544.5,-239 437.5,-239 437.5,-220 544.5,-220 544.5,-239"/>
<text text-anchor="middle" x="491" y="-227" font-family="Helvetica,sans-Serif" font-size="10.00">inc/CCSDSPacket.h</text>
</a>
</g>
</g>
<!-- Node1&#45;&gt;Node3 -->
<g id="edge26_Node000001_Node000003" class="edge">
<title>Node1&#45;&gt;Node3</title>
<g id="a_edge26_Node000001_Node000003"><a xlink:title=" ">
<path fill="none" stroke="#63b8ff" d="M493,-506.74C493,-482.37 493,-438.51 493,-401 493,-401 493,-401 493,-338.5 493,-301.56 491.82,-257.52 491.27,-239.18"/>
<polygon fill="#63b8ff" stroke="#63b8ff" points="489.5,-506.75 493,-516.75 496.5,-506.75 489.5,-506.75"/>
</a>
</g>
</g>
<!-- Node4 -->
<g id="Node000004" class="node">
<title>Node4</title>
<g id="a_Node000004"><a xlink:href="CCSDSManager_8h.html" target="_top" xlink:title=" ">
<polygon fill="white" stroke="#666666" points="637,-129 519,-129 519,-110 637,-110 637,-129"/>
<text text-anchor="middle" x="578" y="-117" font-family="Helvetica,sans-Serif" font-size="10.00">inc/CCSDSManager.h</text>
</a>
</g>
</g>
<!-- Node1&#45;&gt;Node4 -->
<g id="edge25_Node000001_Node000004" class="edge">
<title>Node1&#45;&gt;Node4</title>
<g id="a_edge25_Node000001_Node000004"><a xlink:title=" ">
<path fill="none" stroke="#63b8ff" d="M511.7,-510C535.62,-488.32 574,-446.44 574,-401 574,-401 574,-401 574,-228.5 574,-191.54 576.37,-147.51 577.46,-129.18"/>
<polygon fill="#63b8ff" stroke="#63b8ff" points="509.14,-507.58 503.92,-516.8 513.75,-512.85 509.14,-507.58"/>
</a>
</g>
</g>
<!-- Node12 -->
<g id="Node000012" class="node">
<title>Node12</title>
<g id="a_Node000012"><a xlink:href="exec__encoder_8cpp.html" target="_top" xlink:title=" ">
<polygon fill="white" stroke="#666666" points="974,-19 854,-19 854,0 974,0 974,-19"/>
<text text-anchor="middle" x="914" y="-7" font-family="Helvetica,sans-Serif" font-size="10.00">src/exec_encoder.cpp</text>
</a>
</g>
</g>
<!-- Node1&#45;&gt;Node12 -->
<g id="edge37_Node000001_Node000012" class="edge">
<title>Node1&#45;&gt;Node12</title>
<g id="a_edge37_Node000001_Node000012"><a xlink:title=" ">
<path fill="none" stroke="#63b8ff" d="M556.81,-520.93C630.88,-511.75 743,-484.12 743,-401 743,-401 743,-401 743,-118.5 743,-59.51 816.64,-31.43 867.27,-19.1"/>
<polygon fill="#63b8ff" stroke="#63b8ff" points="556.16,-517.48 546.63,-522.11 556.97,-524.44 556.16,-517.48"/>
</a>
</g>
</g>
<!-- Node14 -->
<g id="Node000014" class="node">
<title>Node14</title>
<g id="a_Node000014"><a xlink:href="CCSDSHeader_8h.html" target="_top" xlink:title=" ">
<polygon fill="white" stroke="#666666" points="714,-294 604,-294 604,-275 714,-275 714,-294"/>
<text text-anchor="middle" x="659" y="-282" font-family="Helvetica,sans-Serif" font-size="10.00">inc/CCSDSHeader.h</text>
</a>
</g>
</g>
<!-- Node1&#45;&gt;Node14 -->
<g id="edge21_Node000001_Node000014" class="edge">
<title>Node1&#45;&gt;Node14</title>
<g id="a_edge21_Node000001_Node000014"><a xlink:title=" ">
<path fill="none" stroke="#63b8ff" d="M535.94,-513.53C554.07,-506.59 574.15,-496.16 588,-481 640.62,-423.43 654.99,-323.83 658.2,-294.11"/>
<polygon fill="#63b8ff" stroke="#63b8ff" points="534.64,-510.28 526.4,-516.94 536.99,-516.87 534.64,-510.28"/>
</a>
</g>
</g>
<!-- Node15 -->
<g id="Node000015" class="node">
<title>Node15</title>
<g id="a_Node000015"><a xlink:href="CCSDSSecondaryHeaderAbstract_8h.html" target="_top" xlink:title=" ">
<polygon fill="white" stroke="#666666" points="396.5,-481 243.5,-481 243.5,-451 396.5,-451 396.5,-481"/>
<text text-anchor="start" x="251.5" y="-469" font-family="Helvetica,sans-Serif" font-size="10.00">inc/CCSDSSecondaryHeader</text>
<text text-anchor="middle" x="320" y="-458" font-family="Helvetica,sans-Serif" font-size="10.00">Abstract.h</text>
</a>
</g>
</g>
<!-- Node1&#45;&gt;Node15 -->
<g id="edge27_Node000001_Node000015" class="edge">
<title>Node1&#45;&gt;Node15</title>
<g id="a_edge27_Node000001_Node000015"><a xlink:title=" ">
<path fill="none" stroke="#63b8ff" d="M458.12,-513.71C430.25,-504.28 391.1,-491.04 361.59,-481.06"/>
<polygon fill="#63b8ff" stroke="#63b8ff" points="457.25,-517.11 467.84,-516.99 459.49,-510.47 457.25,-517.11"/>
</a>
</g>
</g>
<!-- Node17 -->
<g id="Node000017" class="node">
<title>Node17</title>
<g id="a_Node000017"><a xlink:href="PusServices_8h.html" target="_top" xlink:title=" ">
<polygon fill="white" stroke="#666666" points="450.5,-349 349.5,-349 349.5,-330 450.5,-330 450.5,-349"/>
<text text-anchor="middle" x="400" y="-337" font-family="Helvetica,sans-Serif" font-size="10.00">inc/PusServices.h</text>
</a>
</g>
</g>
<!-- Node1&#45;&gt;Node17 -->
<g id="edge36_Node000001_Node000017" class="edge">
<title>Node1&#45;&gt;Node17</title>
<g id="a_edge36_Node000001_Node000017"><a xlink:title=" ">
<path fill="none" stroke="#63b8ff" d="M483.93,-507.47C464.38,-468.56 418.83,-377.96 404.44,-349.33"/>
<polygon fill="#63b8ff" stroke="#63b8ff" points="480.9,-509.21 488.51,-516.58 487.15,-506.07 480.9,-509.21"/>
</a>
</g>
</g>
<!-- Node2&#45;&gt;Node3 -->
<g id="edge2_Node000002_Node000003" class="edge">
<title>Node2&#45;&gt;Node3</title>
<g id="a_edge2_Node000002_Node000003"><a xlink:title=" ">
<path fill="none" stroke="#63b8ff" d="M316.93,-272.63C357.95,-262.7 417.79,-248.22 455.54,-239.08"/>
<polygon fill="#63b8ff" stroke="#63b8ff" points="316.08,-269.23 307.19,-274.98 317.73,-276.03 316.08,-269.23"/>
</a>
</g>
</g>
<!-- Node6 -->
<g id="Node000006" class="node">
<title>Node6</title>
<g id="a_Node000006"><a xlink:href="CCSDSDataField_8cpp.html" target="_top" xlink:title=" ">
<polygon fill="white" stroke="#666666" points="134,-19 0,-19 0,0 134,0 134,-19"/>
<text text-anchor="middle" x="67" y="-7" font-family="Helvetica,sans-Serif" font-size="10.00">src/CCSDSDataField.cpp</text>
</a>
</g>
</g>
<!-- Node2&#45;&gt;Node6 -->
<g id="edge19_Node000002_Node000006" class="edge">
<title>Node2&#45;&gt;Node6</title>
<g id="a_edge19_Node000002_Node000006"><a xlink:title=" ">
<path fill="none" stroke="#63b8ff" d="M259.78,-266.21C246.46,-245.62 227,-209.69 227,-175.5 227,-175.5 227,-175.5 227,-118.5 227,-87.29 220.27,-75.81 197,-55 176.11,-36.32 147.01,-25.41 121.63,-19.08"/>
<polygon fill="#63b8ff" stroke="#63b8ff" points="257.06,-268.43 265.55,-274.77 262.87,-264.52 257.06,-268.43"/>
</a>
</g>
</g>
<!-- Node9 -->
<g id="Node000009" class="node">
<title>Node9</title>
<g id="a_Node000009"><a xlink:href="CCSDSPacket_8cpp.html" target="_top" xlink:title=" ">
<polygon fill="white" stroke="#666666" points="271.5,-19 152.5,-19 152.5,0 271.5,0 271.5,-19"/>
<text text-anchor="middle" x="212" y="-7" font-family="Helvetica,sans-Serif" font-size="10.00">src/CCSDSPacket.cpp</text>
</a>
</g>
</g>
<!-- Node2&#45;&gt;Node9 -->
<g id="edge20_Node000002_Node000009" class="edge">
<title>Node2&#45;&gt;Node9</title>
<g id="a_edge20_Node000002_Node000009"><a xlink:title=" ">
<path fill="none" stroke="#63b8ff" d="M270.61,-264.78C269.13,-243.25 267,-206.84 267,-175.5 267,-175.5 267,-175.5 267,-118.5 267,-77.68 235.41,-36.71 220.12,-19.25"/>
<polygon fill="#63b8ff" stroke="#63b8ff" points="267.12,-265.1 271.33,-274.83 274.1,-264.6 267.12,-265.1"/>
</a>
</g>
</g>
<!-- Node3&#45;&gt;Node4 -->
<g id="edge3_Node000003_Node000004" class="edge">
<title>Node3&#45;&gt;Node4</title>
<g id="a_edge3_Node000003_Node000004"><a xlink:title=" ">
<path fill="none" stroke="#63b8ff" d="M504.54,-211.69C523.33,-188.37 556.61,-147.05 571.03,-129.16"/>
<polygon fill="#63b8ff" stroke="#63b8ff" points="501.67,-209.68 498.12,-219.66 507.12,-214.07 501.67,-209.68"/>
</a>
</g>
</g>
<!-- Node5 -->
<g id="Node000005" class="node">
<title>Node5</title>
<g id="a_Node000005"><a xlink:href="CCSDSUtils_8h.html" target="_top" xlink:title=" ">
<polygon fill="white" stroke="#666666" points="542,-74 444,-74 444,-55 542,-55 542,-74"/>
<text text-anchor="middle" x="493" y="-62" font-family="Helvetica,sans-Serif" font-size="10.00">inc/CCSDSUtils.h</text>
</a>
</g>
</g>
<!-- Node3&#45;&gt;Node5 -->
<g id="edge14_Node000003_Node000005" class="edge">
<title>Node3&#45;&gt;Node5</title>
<g id="a_edge14_Node000003_Node000005"><a xlink:title=" ">
<path fill="none" stroke="#63b8ff" d="M491.23,-209.37C491.67,-174.03 492.58,-99.79 492.89,-74.31"/>
<polygon fill="#63b8ff" stroke="#63b8ff" points="487.73,-209.69 491.11,-219.74 494.73,-209.78 487.73,-209.69"/>
</a>
</g>
</g>
<!-- Node3&#45;&gt;Node9 -->
<g id="edge18_Node000003_Node000009" class="edge">
<title>Node3&#45;&gt;Node9</title>
<g id="a_edge18_Node000003_Node000009"><a xlink:title=" ">
<path fill="none" stroke="#63b8ff" d="M427.34,-223.46C396,-218 359.56,-206.81 334,-184 287.75,-142.73 320.64,-102.65 281,-55 267.6,-38.89 246.84,-26.61 231.59,-19.07"/>
<polygon fill="#63b8ff" stroke="#63b8ff" points="426.89,-226.93 437.31,-225.03 427.98,-220.02 426.89,-226.93"/>
</a>
</g>
</g>
<!-- Node13 -->
<g id="Node000013" class="node">
<title>Node13</title>
<g id="a_Node000013"><a xlink:href="CCSDSValidator_8h.html" target="_top" xlink:title="Defines the Validator class for CCSDS packet validation.">
<polygon fill="white" stroke="#666666" points="462.5,-184 343.5,-184 343.5,-165 462.5,-165 462.5,-184"/>
<text text-anchor="middle" x="403" y="-172" font-family="Helvetica,sans-Serif" font-size="10.00">inc/CCSDSValidator.h</text>
</a>
</g>
</g>
<!-- Node3&#45;&gt;Node13 -->
<g id="edge15_Node000003_Node000013" class="edge">
<title>Node3&#45;&gt;Node13</title>
<g id="a_edge15_Node000003_Node000013"><a xlink:title=" ">
<path fill="none" stroke="#63b8ff" d="M468.08,-214.7C452.05,-205.04 431.13,-192.44 417.4,-184.17"/>
<polygon fill="#63b8ff" stroke="#63b8ff" points="466.49,-217.82 476.86,-219.98 470.1,-211.83 466.49,-217.82"/>
</a>
</g>
</g>
<!-- Node4&#45;&gt;Node5 -->
<g id="edge4_Node000004_Node000005" class="edge">
<title>Node4&#45;&gt;Node5</title>
<g id="a_edge4_Node000004_Node000005"><a xlink:title=" ">
<path fill="none" stroke="#63b8ff" d="M555.43,-104.42C540,-94.81 520.05,-82.37 506.91,-74.17"/>
<polygon fill="#63b8ff" stroke="#63b8ff" points="554.01,-107.66 564.34,-109.98 557.71,-101.72 554.01,-107.66"/>
</a>
</g>
</g>
<!-- Node8 -->
<g id="Node000008" class="node">
<title>Node8</title>
<g id="a_Node000008"><a xlink:href="CCSDSManager_8cpp.html" target="_top" xlink:title=" ">
<polygon fill="white" stroke="#666666" points="695.5,-19 566.5,-19 566.5,0 695.5,0 695.5,-19"/>
<text text-anchor="middle" x="631" y="-7" font-family="Helvetica,sans-Serif" font-size="10.00">src/CCSDSManager.cpp</text>
</a>
</g>
</g>
<!-- Node4&#45;&gt;Node8 -->
<g id="edge12_Node000004_Node000008" class="edge">
<title>Node4&#45;&gt;Node8</title>
<g id="a_edge12_Node000004_Node000008"><a xlink:title=" ">
<path fill="none" stroke="#63b8ff" d="M586.86,-100.44C598.4,-76.92 618.13,-36.73 626.75,-19.16"/>
<polygon fill="#63b8ff" stroke="#63b8ff" points="583.6,-99.14 582.34,-109.66 589.88,-102.23 583.6,-99.14"/>
</a>
</g>
</g>
<!-- Node4&#45;&gt;Node12 -->
<g id="edge13_Node000004_Node000012" class="edge">
<title>Node4&#45;&gt;Node12</title>
<g id="a_edge13_Node000004_Node000012"><a xlink:title=" ">
<path fill="none" stroke="#63b8ff" d="M598.74,-104.19C620.7,-89.69 656.84,-67.64 691,-55 721.64,-43.66 805.86,-28.38 861.58,-19"/>
<polygon fill="#63b8ff" stroke="#63b8ff" points="596.6,-101.41 590.24,-109.89 600.5,-107.22 596.6,-101.41"/>
</a>
</g>
</g>
<!-- Node5&#45;&gt;Node6 -->
<g id="edge5_Node000005_Node000006" class="edge">
<title>Node5&#45;&gt;Node6</title>
<g id="a_edge5_Node000005_Node000006"><a xlink:title=" ">
<path fill="none" stroke="#63b8ff" d="M433.5,-56.1C354.87,-46.32 216.74,-29.13 134.36,-18.88"/>
<polygon fill="#63b8ff" stroke="#63b8ff" points="433.36,-59.61 443.72,-57.37 434.22,-52.66 433.36,-59.61"/>
</a>
</g>
</g>
<!-- Node7 -->
<g id="Node000007" class="node">
<title>Node7</title>
<g id="a_Node000007"><a xlink:href="CCSDSHeader_8cpp.html" target="_top" xlink:title=" ">
<polygon fill="white" stroke="#666666" points="836,-19 714,-19 714,0 836,0 836,-19"/>
<text text-anchor="middle" x="775" y="-7" font-family="Helvetica,sans-Serif" font-size="10.00">src/CCSDSHeader.cpp</text>
</a>
</g>
</g>
<!-- Node5&#45;&gt;Node7 -->
<g id="edge6_Node000005_Node000007" class="edge">
<title>Node5&#45;&gt;Node7</title>
<g id="a_edge6_Node000005_Node000007"><a xlink:title=" ">
<path fill="none" stroke="#63b8ff" d="M548.19,-53.13C601.06,-43.19 679.9,-28.37 729.34,-19.08"/>
<polygon fill="#63b8ff" stroke="#63b8ff" points="547.49,-49.7 538.31,-54.98 548.78,-56.58 547.49,-49.7"/>
</a>
</g>
</g>
<!-- Node5&#45;&gt;Node8 -->
<g id="edge7_Node000005_Node000008" class="edge">
<title>Node5&#45;&gt;Node8</title>
<g id="a_edge7_Node000005_Node000008"><a xlink:title=" ">
<path fill="none" stroke="#63b8ff" d="M524.79,-51.29C550.37,-41.47 585.67,-27.91 608.42,-19.17"/>
<polygon fill="#63b8ff" stroke="#63b8ff" points="523.25,-48.13 515.17,-54.98 525.76,-54.67 523.25,-48.13"/>
</a>
</g>
</g>
<!-- Node5&#45;&gt;Node9 -->
<g id="edge8_Node000005_Node000009" class="edge">
<title>Node5&#45;&gt;Node9</title>
<g id="a_edge8_Node000005_Node000009"><a xlink:title=" ">
<path fill="none" stroke="#63b8ff" d="M438,-53.13C385.32,-43.19 306.76,-28.37 257.5,-19.08"/>
<polygon fill="#63b8ff" stroke="#63b8ff" points="437.38,-56.57 447.85,-54.98 438.67,-49.69 437.38,-56.57"/>
</a>
</g>
</g>
<!-- Node10 -->
<g id="Node000010" class="node">
<title>Node10</title>
<g id="a_Node000010"><a xlink:href="CCSDSUtils_8cpp.html" target="_top" xlink:title=" ">
<polygon fill="white" stroke="#666666" points="548,-19 438,-19 438,0 548,0 548,-19"/>
<text text-anchor="middle" x="493" y="-7" font-family="Helvetica,sans-Serif" font-size="10.00">src/CCSDSUtils.cpp</text>
</a>
</g>
</g>
<!-- Node5&#45;&gt;Node10 -->
<g id="edge9_Node000005_Node000010" class="edge">
<title>Node5&#45;&gt;Node10</title>
<g id="a_edge9_Node000005_Node000010"><a xlink:title=" ">
<path fill="none" stroke="#63b8ff" d="M493,-44.66C493,-35.93 493,-25.99 493,-19.09"/>
<polygon fill="#63b8ff" stroke="#63b8ff" points="489.5,-44.75 493,-54.75 496.5,-44.75 489.5,-44.75"/>
</a>
</g>
</g>
<!-- Node11 -->
<g id="Node000011" class="node">
<title>Node11</title>
<g id="a_Node000011"><a xlink:href="CCSDSValidator_8cpp.html" target="_top" xlink:title=" ">
<polygon fill="white" stroke="#666666" points="420,-19 290,-19 290,0 420,0 420,-19"/>
<text text-anchor="middle" x="355" y="-7" font-family="Helvetica,sans-Serif" font-size="10.00">src/CCSDSValidator.cpp</text>
</a>
</g>
</g>
<!-- Node5&#45;&gt;Node11 -->
<g id="edge10_Node000005_Node000011" class="edge">
<title>Node5&#45;&gt;Node11</title>
<g id="a_edge10_Node000005_Node000011"><a xlink:title=" ">
<path fill="none" stroke="#63b8ff" d="M461.21,-51.29C435.63,-41.47 400.33,-27.91 377.58,-19.17"/>
<polygon fill="#63b8ff" stroke="#63b8ff" points="460.24,-54.67 470.83,-54.98 462.75,-48.13 460.24,-54.67"/>
</a>
</g>
</g>
<!-- Node5&#45;&gt;Node12 -->
<g id="edge11_Node000005_Node000012" class="edge">
<title>Node5&#45;&gt;Node12</title>
<g id="a_edge11_Node000005_Node000012"><a xlink:title=" ">
<path fill="none" stroke="#63b8ff" d="M552.49,-56.01C632.34,-45.96 773.41,-28.2 853.68,-18.09"/>
<polygon fill="#63b8ff" stroke="#63b8ff" points="551.6,-52.59 542.12,-57.32 552.48,-59.54 551.6,-52.59"/>
</a>
</g>
</g>
<!-- Node13&#45;&gt;Node4 -->
<g id="edge16_Node000013_Node000004" class="edge">
<title>Node13&#45;&gt;Node4</title>
<g id="a_edge16_Node000013_Node000004"><a xlink:title=" ">
<path fill="none" stroke="#63b8ff" d="M440.79,-162.06C473.5,-152.15 520.07,-138.04 549.66,-129.08"/>
<polygon fill="#63b8ff" stroke="#63b8ff" points="439.67,-158.74 431.12,-164.98 441.7,-165.44 439.67,-158.74"/>
</a>
</g>
</g>
<!-- Node13&#45;&gt;Node11 -->
<g id="edge17_Node000013_Node000011" class="edge">
<title>Node13&#45;&gt;Node11</title>
<g id="a_edge17_Node000013_Node000011"><a xlink:title=" ">
<path fill="none" stroke="#63b8ff" d="M397.5,-154.83C387.15,-119.67 365.13,-44.9 357.59,-19.31"/>
<polygon fill="#63b8ff" stroke="#63b8ff" points="394.24,-156.13 400.42,-164.74 400.95,-154.15 394.24,-156.13"/>
</a>
</g>
</g>
<!-- Node14&#45;&gt;Node3 -->
<g id="edge22_Node000014_Node000003" class="edge">
<title>Node14&#45;&gt;Node3</title>
<g id="a_edge22_Node000014_Node000003"><a xlink:title=" ">
<path fill="none" stroke="#63b8ff" d="M622.32,-271.93C590.94,-262.03 546.49,-248.01 518.2,-239.08"/>
<polygon fill="#63b8ff" stroke="#63b8ff" points="621.42,-275.31 632.01,-274.98 623.52,-268.64 621.42,-275.31"/>
</a>
</g>
</g>
<!-- Node14&#45;&gt;Node7 -->
<g id="edge23_Node000014_Node000007" class="edge">
<title>Node14&#45;&gt;Node7</title>
<g id="a_edge23_Node000014_Node000007"><a xlink:title=" ">
<path fill="none" stroke="#63b8ff" d="M660.95,-264.79C663.02,-243.27 666,-206.88 666,-175.5 666,-175.5 666,-175.5 666,-118.5 666,-88.17 670.79,-77.61 691,-55 706.4,-37.77 730.08,-26.08 748.37,-19.02"/>
<polygon fill="#63b8ff" stroke="#63b8ff" points="657.46,-264.53 659.94,-274.83 664.42,-265.23 657.46,-264.53"/>
</a>
</g>
</g>
<!-- Node14&#45;&gt;Node12 -->
<g id="edge24_Node000014_Node000012" class="edge">
<title>Node14&#45;&gt;Node12</title>
<g id="a_edge24_Node000014_Node000012"><a xlink:title=" ">
<path fill="none" stroke="#63b8ff" d="M671.3,-266.53C684.93,-246.02 705,-209.96 705,-175.5 705,-175.5 705,-175.5 705,-118.5 705,-88.33 706.37,-74.96 729,-55 747.46,-38.72 807.1,-26.32 853.73,-18.79"/>
<polygon fill="#63b8ff" stroke="#63b8ff" points="668.4,-264.58 665.59,-274.8 674.15,-268.56 668.4,-264.58"/>
</a>
</g>
</g>
<!-- Node15&#45;&gt;Node2 -->
<g id="edge28_Node000015_Node000002" class="edge">
<title>Node15&#45;&gt;Node2</title>
<g id="a_edge28_Node000015_Node000002"><a xlink:title=" ">
<path fill="none" stroke="#63b8ff" d="M248.14,-446.92C232.7,-439.58 218.25,-429.32 209,-415 181.31,-372.16 237.76,-315.36 261.83,-294.06"/>
<polygon fill="#63b8ff" stroke="#63b8ff" points="246.75,-450.13 257.32,-450.91 249.54,-443.71 246.75,-450.13"/>
</a>
</g>
</g>
<!-- Node16 -->
<g id="Node000016" class="node">
<title>Node16</title>
<g id="a_Node000016"><a xlink:href="CCSDSSecondaryHeaderFactory_8h.html" target="_top" xlink:title=" ">
<polygon fill="white" stroke="#666666" points="371.5,-415 218.5,-415 218.5,-385 371.5,-385 371.5,-415"/>
<text text-anchor="start" x="226.5" y="-403" font-family="Helvetica,sans-Serif" font-size="10.00">inc/CCSDSSecondaryHeader</text>
<text text-anchor="middle" x="295" y="-392" font-family="Helvetica,sans-Serif" font-size="10.00">Factory.h</text>
</a>
</g>
</g>
<!-- Node15&#45;&gt;Node16 -->
<g id="edge29_Node000015_Node000016" class="edge">
<title>Node15&#45;&gt;Node16</title>
<g id="a_edge29_Node000015_Node000016"><a xlink:title=" ">
<path fill="none" stroke="#63b8ff" d="M310.78,-441.39C307.34,-432.59 303.54,-422.86 300.53,-415.16"/>
<polygon fill="#63b8ff" stroke="#63b8ff" points="307.55,-442.76 314.45,-450.8 314.07,-440.21 307.55,-442.76"/>
</a>
</g>
</g>
<!-- Node15&#45;&gt;Node17 -->
<g id="edge35_Node000015_Node000017" class="edge">
<title>Node15&#45;&gt;Node17</title>
<g id="a_edge35_Node000015_Node000017"><a xlink:title=" ">
<path fill="none" stroke="#63b8ff" d="M351.23,-444.89C361.72,-436.75 372.62,-426.54 380,-415 393.42,-394.02 397.9,-364.2 399.34,-349.46"/>
<polygon fill="#63b8ff" stroke="#63b8ff" points="348.96,-442.22 342.98,-450.96 353.11,-447.86 348.96,-442.22"/>
</a>
</g>
</g>
<!-- Node16&#45;&gt;Node2 -->
<g id="edge30_Node000016_Node000002" class="edge">
<title>Node16&#45;&gt;Node2</title>
<g id="a_edge30_Node000016_Node000002"><a xlink:title=" ">
<path fill="none" stroke="#63b8ff" d="M290.07,-374.69C284.95,-349.43 277.22,-311.25 273.77,-294.23"/>
<polygon fill="#63b8ff" stroke="#63b8ff" points="286.67,-375.52 292.09,-384.63 293.53,-374.13 286.67,-375.52"/>
</a>
</g>
</g>
<!-- Node16&#45;&gt;Node6 -->
<g id="edge34_Node000016_Node000006" class="edge">
<title>Node16&#45;&gt;Node6</title>
<g id="a_edge34_Node000016_Node000006"><a xlink:title=" ">
<path fill="none" stroke="#63b8ff" d="M269.07,-378.07C235.98,-348.83 183,-292.35 183,-230.5 183,-230.5 183,-230.5 183,-118.5 183,-67.6 122.42,-33.86 88.82,-19.07"/>
<polygon fill="#63b8ff" stroke="#63b8ff" points="267.14,-381.03 277.01,-384.9 271.71,-375.73 267.14,-381.03"/>
</a>
</g>
</g>
<!-- Node16&#45;&gt;Node17 -->
<g id="edge31_Node000016_Node000017" class="edge">
<title>Node16&#45;&gt;Node17</title>
<g id="a_edge31_Node000016_Node000017"><a xlink:title=" ">
<path fill="none" stroke="#63b8ff" d="M328.98,-380.07C347.67,-369.66 369.94,-357.25 384.49,-349.14"/>
<polygon fill="#63b8ff" stroke="#63b8ff" points="327.18,-377.06 320.15,-384.99 330.59,-383.18 327.18,-377.06"/>
</a>
</g>
</g>
<!-- Node17&#45;&gt;Node2 -->
<g id="edge32_Node000017_Node000002" class="edge">
<title>Node17&#45;&gt;Node2</title>
<g id="a_edge32_Node000017_Node000002"><a xlink:title=" ">
<path fill="none" stroke="#63b8ff" d="M369.88,-326.03C346.21,-316.23 313.85,-302.83 292.94,-294.17"/>
<polygon fill="#63b8ff" stroke="#63b8ff" points="368.86,-329.39 379.43,-329.98 371.53,-322.93 368.86,-329.39"/>
</a>
</g>
</g>
<!-- Node18 -->
<g id="Node000018" class="node">
<title>Node18</title>
<g id="a_Node000018"><a xlink:href="PusServices_8cpp.html" target="_top" xlink:title=" ">
<polygon fill="white" stroke="#666666" points="464.5,-294 351.5,-294 351.5,-275 464.5,-275 464.5,-294"/>
<text text-anchor="middle" x="408" y="-282" font-family="Helvetica,sans-Serif" font-size="10.00">src/PusServices.cpp</text>
</a>
</g>
</g>
<!-- Node17&#45;&gt;Node18 -->
<g id="edge33_Node000017_Node000018" class="edge">
<title>Node17&#45;&gt;Node18</title>
<g id="a_edge33_Node000017_Node000018"><a xlink:title=" ">
<path fill="none" stroke="#63b8ff" d="M402.84,-319.66C404.16,-310.93 405.66,-300.99 406.7,-294.09"/>
<polygon fill="#63b8ff" stroke="#63b8ff" points="399.35,-319.34 401.32,-329.75 406.27,-320.38 399.35,-319.34"/>
</a>
</g>
</g>
</g>
</svg>

<g id="navigator" transform="translate(0 0)" fill="#404254">
  <rect fill="#f2f5e9" fill-opacity="0.5" stroke="#606060" stroke-width=".5" x="0" y="0" width="60" height="60"/>
  <use id="zoomplus" xlink:href="#zoomPlus" x="17" y="9" onmousedown="handleZoom(evt,'in')"/>
  <use id="zoomminus" xlink:href="#zoomMin" x="42" y="9" onmousedown="handleZoom(evt,'out')"/>
  <use id="reset" xlink:href="#resetDef" x="30" y="36" onmousedown="handleReset()"/>
   <use id="arrowup" xlink:href="#arrowUp" x="0" y="0" onmousedown="handlePan(0,-1)"/>
  <use id="arrowright" xlink:href="#arrowRight" x="0" y="0" onmousedown="handlePan(1,0)"/>
  <use id="arrowdown" xlink:href="#arrowDown" x="0" y="0" onmousedown="handlePan(0,1)"/>
  <use id="arrowleft" xlink:href="#arrowLeft" x="0" y="0" onmousedown="handlePan(-1,0)"/>
</g>
<svg viewBox="0 0 15 15" width="100%" height="30px" preserveAspectRatio="xMaxYMin meet">
 <g id="arrow_out" transform="scale(0.3 0.3)">
  <a xlink:href="CCSDSResult_8h__dep__incl_org.svg" target="_base">
   <rect id="button" ry="5" rx="5" y="6" x="6" height="38" width="38"
        fill="#f2f5e9" fill-opacity="0.5" stroke="#606060" stroke-width="1.0"/>
   <path id="arrow"
     d="M 11.500037,31.436501 C 11.940474,20.09759 22.043105,11.32322 32.158766,21.979434 L 37.068811,17.246167 C 37.068811,17.246167 37.088388,32 37.088388,32 L 22.160133,31.978069 C 22.160133,31.978069 26.997745,27.140456 26.997745,27.140456 C 18.528582,18.264221 13.291696,25.230495 11.500037,31.436501 z"
     style="fill:#404040;"/>
  </a>
 </g>
</svg>

<style type='text/css'>
<![CDATA[
[data-mouse-over-selected='false'] { opacity: 0.7; }
[data-mouse-over-selected='true']  { opacity: 1.0; }
]]>
</style>
<script type="application/ecmascript"><![CDATA[
document.addEventListener('DOMContentLoaded', (event) => {
  highlightEdges();
  highlightAdjacentNodes();
});
]]></script>
</svg>
