<?xml version="1.0" encoding="UTF-8" standalone="no"?>
<!DOCTYPE svg PUBLIC "-//W3C//DTD SVG 1.1//EN"
 "http://www.w3.org/Graphics/SVG/1.1/DTD/svg11.dtd">
<!-- Generated by graphviz version 2.43.0 (0)
 -->
<!-- Title: inc/CCSDSResult.h Pages: 1 -->
<!--zoomable 544 -->

<svg id="main" version="1.1" xmlns="http://www.w3.org/2000/svg" xmlns:xlink="http://www.w3.org/1999/xlink" xml:space="preserve" onload="init(evt)">
<style type="text/css"><![CDATA[
.node, .edge {opacity: 0.7;}
.node.selected, .edge.selected {opacity: 1;}
.edge:hover path { stroke: red; }
.edge:hover polygon { stroke: red; fill: red; }
]]></style>

<defs>
  <circle id="rim" cx="0" cy="0" r="7"/>
  <circle id="rim2" cx="0" cy="0" r="3.5"/>
  <g id="zoomPlus">
    <use xlink:href="#rim" fill="#404040"><set attributeName="fill" to="#808080" begin="zoomplus.mouseover" end="zoomplus.mouseout"/></use>
    <path d="M-4,0h8M0,-4v8" fill="none" stroke="white" stroke-width="1.5" pointer-events="none"/>
  </g>
  <g id="zoomMin">
    <use xlink:href="#rim" fill="#404040"><set attributeName="fill" to="#808080" begin="zoomminus.mouseover" end="zoomminus.mouseout"/></use>
    <path d="M-4,0h8" fill="none" stroke="white" stroke-width="1.5" pointer-events="none"/>
  </g>
  <g id="arrowUp" transform="translate(30 24)">
    <use xlink:href="#rim"/>
    <path pointer-events="none" fill="none" stroke="white" stroke-width="1.5" d="M0,-3.0v7 M-2.5,-0.5L0,-3.0L2.5,-0.5"/>
  </g>
  <g id="arrowRight" transform="rotate(90) translate(36 -43)">
    <use xlink:href="#rim"/>
    <path pointer-events="none" fill="none" stroke="white" stroke-width="1.5" d="M0,-3.0v7 M-2.5,-0.5L0,-3.0L2.5,-0.5"/>
  </g>
  <g id="arrowDown" transform="rotate(180) translate(-30 -48)">
    <use xlink:href="#rim"/>
    <path pointer-events="none" fill="none" stroke="white" stroke-width="1.5" d="M0,-3.0v7 M-2.5,-0.5L0,-3.0L2.5,-0.5"/>
  </g>
  <g id="arrowLeft" transform="rotate(270) translate(-36 17)">
    <use xlink:href="#rim"/>
    <path pointer-events="none" fill="none" stroke="white" stroke-width="1.5" d="M0,-3.0v7 M-2.5,-0.5L0,-3.0L2.5,-0.5"/>
  </g>
  <g id="resetDef">
    <use xlink:href="#rim2" fill="#404040"><set attributeName="fill" to="#808080" begin="reset.mouseover" end="reset.mouseout"/></use>
  </g>
</defs>
<script type="application/ecmascript">
var viewWidth = 1242;
var viewHeight = 544;
var sectionId = 'dynsection-1';
</script>
<script type="application/ecmascript" xlink:href="svg.min.js"/>
<svg id="graph" class="graph">
<g id="viewport">
<title>inc/CCSDSResult.h</title>
<!-- Node1 -->
<g id="Node000001" class="node">
<title>Node1</title>
<g id="a_Node000001"><a xlink:title=" ">
<polygon fill="#999999" stroke="#666666" points="731.5,-536 624.5,-536 624.5,-517 731.5,-517 731.5,-536"/>
<text text-anchor="middle" x="678" y="-524" font-family="Helvetica,sans-Serif" font-size="10.00">inc/CCSDSResult.h</text>
</a>
</g>
</g>
<!-- Node2 -->
<g id="Node000002" class="node">
<title>Node2</title>
<g id="a_Node000002"><a xlink:href="CCSDSDataField_8h.html" target="_top" xlink:title=" ">
<polygon fill="white" stroke="#666666" points="424,-294 302,-294 302,-275 424,-275 424,-294"/>
<text text-anchor="middle" x="363" y="-282" font-family="Helvetica,sans-Serif" font-size="10.00">inc/CCSDSDataField.h</text>
</a>
</g>
</g>
<!-- Node1&#45;&gt;Node2 -->
<g id="edge1_Node000001_Node000002" class="edge">
<title>Node1&#45;&gt;Node2</title>
<g id="a_edge1_Node000001_Node000002"><a xlink:title=" ">
<path fill="none" stroke="#63b8ff" d="M654.32,-511.87C640.04,-503.41 621.65,-492.07 606,-481 511.39,-414.1 405.15,-322.43 372.84,-294.16"/>
<polygon fill="#63b8ff" stroke="#63b8ff" points="652.64,-514.94 663.04,-516.99 656.18,-508.91 652.64,-514.94"/>
</a>
</g>
</g>
<!-- Node3 -->
<g id="Node000003" class="node">
<title>Node3</title>
<g id="a_Node000003"><a xlink:href="CCSDSPacket_8h.html" target="_top" xlink:title=" ">
<polygon fill="white" stroke="#666666" points="605.5,-239 498.5,-239 498.5,-220 605.5,-220 605.5,-239"/>
<text text-anchor="middle" x="552" y="-227" font-family="Helvetica,sans-Serif" font-size="10.00">inc/CCSDSPacket.h</text>
</a>
</g>
</g>
<!-- Node1&#45;&gt;Node3 -->
<g id="edge29_Node000001_Node000003" class="edge">
<title>Node1&#45;&gt;Node3</title>
<g id="a_edge29_Node000001_Node000003"><a xlink:title=" ">
<path fill="none" stroke="#63b8ff" d="M664.45,-508.79C647.31,-485.92 620,-442.89 620,-401 620,-401 620,-401 620,-338.5 620,-295.74 581.35,-256.07 562.33,-239.13"/>
<polygon fill="#63b8ff" stroke="#63b8ff" points="661.76,-511.03 670.65,-516.79 667.29,-506.74 661.76,-511.03"/>
</a>
</g>
</g>
<!-- Node4 -->
<g id="Node000004" class="node">
<title>Node4</title>
<g id="a_Node000004"><a xlink:href="CCSDSManager_8h.html" target="_top" xlink:title=" ">
<polygon fill="white" stroke="#666666" points="699,-129 581,-129 581,-110 699,-110 699,-129"/>
<text text-anchor="middle" x="640" y="-117" font-family="Helvetica,sans-Serif" font-size="10.00">inc/CCSDSManager.h</text>
</a>
</g>
</g>
<!-- Node1&#45;&gt;Node4 -->
<g id="edge28_Node000001_Node000004" class="edge">
<title>Node1&#45;&gt;Node4</title>
<g id="a_edge28_Node000001_Node000004"><a xlink:title=" ">
<path fill="none" stroke="#63b8ff" d="M678,-506.74C678,-482.37 678,-438.51 678,-401 678,-401 678,-401 678,-228.5 678,-189.54 655.73,-146.93 645.28,-129.1"/>
<polygon fill="#63b8ff" stroke="#63b8ff" points="674.5,-506.75 678,-516.75 681.5,-506.75 674.5,-506.75"/>
</a>
</g>
</g>
<!-- Node12 -->
<g id="Node000012" class="node">
<title>Node12</title>
<g id="a_Node000012"><a xlink:href="exec__decoder_8cpp.html" target="_top" xlink:title=" ">
<polygon fill="white" stroke="#666666" points="974,-19 854,-19 854,0 974,0 974,-19"/>
<text text-anchor="middle" x="914" y="-7" font-family="Helvetica,sans-Serif" font-size="10.00">src/exec_decoder.cpp</text>
</a>
</g>
</g>
<!-- Node1&#45;&gt;Node12 -->
<g id="edge44_Node000001_Node000012" class="edge">
<title>Node1&#45;&gt;Node12</title>
<g id="a_edge44_Node000001_Node000012"><a xlink:title=" ">
<path fill="none" stroke="#63b8ff" d="M741.76,-521.06C816.12,-512 929,-484.51 929,-401 929,-401 929,-401 929,-173.5 929,-114.39 919.1,-43.73 915.38,-19.31"/>
<polygon fill="#63b8ff" stroke="#63b8ff" points="741.08,-517.61 731.54,-522.21 741.87,-524.57 741.08,-517.61"/>
</a>
</g>
</g>
<!-- Node13 -->
<g id="Node000013" class="node">
<title>Node13</title>
<g id="a_Node000013"><a xlink:href="exec__encoder_8cpp.html" target="_top" xlink:title=" ">
<polygon fill="white" stroke="#666666" points="1112,-19 992,-19 992,0 1112,0 1112,-19"/>
<text text-anchor="middle" x="1052" y="-7" font-family="Helvetica,sans-Serif" font-size="10.00">src/exec_encoder.cpp</text>
</a>
</g>
</g>
<!-- Node1&#45;&gt;Node13 -->
<g id="edge45_Node000001_Node000013" class="edge">
<title>Node1&#45;&gt;Node13</title>
<g id="a_edge45_Node000001_Node000013"><a xlink:title=" ">
<path fill="none" stroke="#63b8ff" d="M741.87,-523.88C803.43,-520.5 898.27,-510.45 975,-481 1035.19,-457.9 1096,-465.47 1096,-401 1096,-401 1096,-401 1096,-118.5 1096,-79.02 1070.47,-37.02 1058.3,-19.25"/>
<polygon fill="#63b8ff" stroke="#63b8ff" points="741.34,-520.4 731.53,-524.4 741.69,-527.4 741.34,-520.4"/>
</a>
</g>
</g>
<!-- Node15 -->
<g id="Node000015" class="node">
<title>Node15</title>
<g id="a_Node000015"><a xlink:href="CCSDSHeader_8h.html" target="_top" xlink:title=" ">
<polygon fill="white" stroke="#666666" points="816,-294 706,-294 706,-275 816,-275 816,-294"/>
<text text-anchor="middle" x="761" y="-282" font-family="Helvetica,sans-Serif" font-size="10.00">inc/CCSDSHeader.h</text>
</a>
</g>
</g>
<!-- Node1&#45;&gt;Node15 -->
<g id="edge23_Node000001_Node000015" class="edge">
<title>Node1&#45;&gt;Node15</title>
<g id="a_edge23_Node000001_Node000015"><a xlink:title=" ">
<path fill="none" stroke="#63b8ff" d="M684.32,-507.23C701.03,-458.9 745.95,-329.01 757.99,-294.19"/>
<polygon fill="#63b8ff" stroke="#63b8ff" points="680.91,-506.36 680.95,-516.96 687.53,-508.65 680.91,-506.36"/>
</a>
</g>
</g>
<!-- Node16 -->
<g id="Node000016" class="node">
<title>Node16</title>
<g id="a_Node000016"><a xlink:href="CCSDSSecondaryHeaderAbstract_8h.html" target="_top" xlink:title=" ">
<polygon fill="white" stroke="#666666" points="440.5,-481 287.5,-481 287.5,-451 440.5,-451 440.5,-481"/>
<text text-anchor="start" x="295.5" y="-469" font-family="Helvetica,sans-Serif" font-size="10.00">inc/CCSDSSecondaryHeader</text>
<text text-anchor="middle" x="364" y="-458" font-family="Helvetica,sans-Serif" font-size="10.00">Abstract.h</text>
</a>
</g>
</g>
<!-- Node1&#45;&gt;Node16 -->
<g id="edge30_Node000001_Node000016" class="edge">
<title>Node1&#45;&gt;Node16</title>
<g id="a_edge30_Node000001_Node000016"><a xlink:title=" ">
<path fill="none" stroke="#63b8ff" d="M622.49,-515.16C571.53,-505.66 495.58,-491.51 439.19,-481.01"/>
<polygon fill="#63b8ff" stroke="#63b8ff" points="621.87,-518.6 632.34,-516.99 623.15,-511.72 621.87,-518.6"/>
</a>
</g>
</g>
<!-- Node18 -->
<g id="Node000018" class="node">
<title>Node18</title>
<g id="a_Node000018"><a xlink:href="PusServices_8h.html" target="_top" xlink:title=" ">
<polygon fill="white" stroke="#666666" points="245.5,-349 144.5,-349 144.5,-330 245.5,-330 245.5,-349"/>
<text text-anchor="middle" x="195" y="-337" font-family="Helvetica,sans-Serif" font-size="10.00">inc/PusServices.h</text>
</a>
</g>
</g>
<!-- Node1&#45;&gt;Node18 -->
<g id="edge39_Node000001_Node000018" class="edge">
<title>Node1&#45;&gt;Node18</title>
<g id="a_edge39_Node000001_Node000018"><a xlink:title=" ">
<path fill="none" stroke="#63b8ff" d="M614.43,-523.07C517.22,-518.58 336.71,-506.95 278,-481 237.39,-463.05 223.43,-454.42 203,-415 191.87,-393.52 192.69,-363.92 193.97,-349.35"/>
<polygon fill="#63b8ff" stroke="#63b8ff" points="614.28,-526.57 624.43,-523.52 614.59,-519.57 614.28,-526.57"/>
</a>
</g>
</g>
<!-- Node20 -->
<g id="Node000020" class="node">
<title>Node20</title>
<g id="a_Node000020"><a xlink:href="exec__utils_8h.html" target="_top" xlink:title=" ">
<polygon fill="white" stroke="#666666" points="1068,-74 976,-74 976,-55 1068,-55 1068,-74"/>
<text text-anchor="middle" x="1022" y="-62" font-family="Helvetica,sans-Serif" font-size="10.00">inc/exec_utils.h</text>
</a>
</g>
</g>
<!-- Node1&#45;&gt;Node20 -->
<g id="edge40_Node000001_Node000020" class="edge">
<title>Node1&#45;&gt;Node20</title>
<g id="a_edge40_Node000001_Node000020"><a xlink:title=" ">
<path fill="none" stroke="#63b8ff" d="M741.83,-520.69C809.42,-514.57 910.72,-502.17 943,-481 978.46,-457.75 995,-443.41 995,-401 995,-401 995,-401 995,-173.5 995,-135.62 1010.83,-92.44 1018.25,-74.27"/>
<polygon fill="#63b8ff" stroke="#63b8ff" points="741.36,-517.21 731.7,-521.58 741.97,-524.19 741.36,-517.21"/>
</a>
</g>
</g>
<!-- Node2&#45;&gt;Node3 -->
<g id="edge2_Node000002_Node000003" class="edge">
<title>Node2&#45;&gt;Node3</title>
<g id="a_edge2_Node000002_Node000003"><a xlink:title=" ">
<path fill="none" stroke="#63b8ff" d="M403.35,-272.18C438.7,-262.27 489.3,-248.08 521.4,-239.08"/>
<polygon fill="#63b8ff" stroke="#63b8ff" points="402.05,-268.91 393.37,-274.98 403.94,-275.65 402.05,-268.91"/>
</a>
</g>
</g>
<!-- Node6 -->
<g id="Node000006" class="node">
<title>Node6</title>
<g id="a_Node000006"><a xlink:href="CCSDSDataField_8cpp.html" target="_top" xlink:title=" ">
<polygon fill="white" stroke="#666666" points="134,-19 0,-19 0,0 134,0 134,-19"/>
<text text-anchor="middle" x="67" y="-7" font-family="Helvetica,sans-Serif" font-size="10.00">src/CCSDSDataField.cpp</text>
</a>
</g>
</g>
<!-- Node2&#45;&gt;Node6 -->
<g id="edge21_Node000002_Node000006" class="edge">
<title>Node2&#45;&gt;Node6</title>
<g id="a_edge21_Node000002_Node000006"><a xlink:title=" ">
<path fill="none" stroke="#63b8ff" d="M349.56,-267.01C334.45,-246.75 312,-210.72 312,-175.5 312,-175.5 312,-175.5 312,-118.5 312,-88.33 311,-74.53 288,-55 275.53,-44.41 185.02,-28.66 123.77,-19.02"/>
<polygon fill="#63b8ff" stroke="#63b8ff" points="346.8,-269.16 355.69,-274.91 352.33,-264.87 346.8,-269.16"/>
</a>
</g>
</g>
<!-- Node9 -->
<g id="Node000009" class="node">
<title>Node9</title>
<g id="a_Node000009"><a xlink:href="CCSDSPacket_8cpp.html" target="_top" xlink:title=" ">
<polygon fill="white" stroke="#666666" points="271.5,-19 152.5,-19 152.5,0 271.5,0 271.5,-19"/>
<text text-anchor="middle" x="212" y="-7" font-family="Helvetica,sans-Serif" font-size="10.00">src/CCSDSPacket.cpp</text>
</a>
</g>
</g>
<!-- Node2&#45;&gt;Node9 -->
<g id="edge22_Node000002_Node000009" class="edge">
<title>Node2&#45;&gt;Node9</title>
<g id="a_edge22_Node000002_Node000009"><a xlink:title=" ">
<path fill="none" stroke="#63b8ff" d="M359.38,-264.85C355.53,-243.38 350,-207.04 350,-175.5 350,-175.5 350,-175.5 350,-118.5 350,-88.33 347.22,-76.45 326,-55 307.62,-36.42 280.59,-25.42 257.46,-19.01"/>
<polygon fill="#63b8ff" stroke="#63b8ff" points="355.97,-265.67 361.25,-274.86 362.85,-264.39 355.97,-265.67"/>
</a>
</g>
</g>
<!-- Node3&#45;&gt;Node4 -->
<g id="edge3_Node000003_Node000004" class="edge">
<title>Node3&#45;&gt;Node4</title>
<g id="a_edge3_Node000003_Node000004"><a xlink:title=" ">
<path fill="none" stroke="#63b8ff" d="M581.79,-215.34C595.5,-207.92 610.91,-197.43 621,-184 633.58,-167.26 637.88,-142.23 639.31,-129.15"/>
<polygon fill="#63b8ff" stroke="#63b8ff" points="579.99,-212.32 572.66,-219.98 583.17,-218.56 579.99,-212.32"/>
</a>
</g>
</g>
<!-- Node5 -->
<g id="Node000005" class="node">
<title>Node5</title>
<g id="a_Node000005"><a xlink:href="CCSDSUtils_8h.html" target="_top" xlink:title=" ">
<polygon fill="white" stroke="#666666" points="576,-74 478,-74 478,-55 576,-55 576,-74"/>
<text text-anchor="middle" x="527" y="-62" font-family="Helvetica,sans-Serif" font-size="10.00">inc/CCSDSUtils.h</text>
</a>
</g>
</g>
<!-- Node3&#45;&gt;Node5 -->
<g id="edge16_Node000003_Node000005" class="edge">
<title>Node3&#45;&gt;Node5</title>
<g id="a_edge16_Node000003_Node000005"><a xlink:title=" ">
<path fill="none" stroke="#63b8ff" d="M518.36,-215.43C504.83,-208.31 490.65,-198.03 483,-184 461.89,-145.27 501.05,-94.31 518.86,-74.2"/>
<polygon fill="#63b8ff" stroke="#63b8ff" points="517.01,-218.66 527.53,-219.86 520.05,-212.36 517.01,-218.66"/>
</a>
</g>
</g>
<!-- Node3&#45;&gt;Node9 -->
<g id="edge20_Node000003_Node000009" class="edge">
<title>Node3&#45;&gt;Node9</title>
<g id="a_edge20_Node000003_Node000009"><a xlink:title=" ">
<path fill="none" stroke="#63b8ff" d="M523.74,-215.4C508.22,-207.48 489.12,-196.52 474,-184 415.97,-135.95 427.24,-95.96 364,-55 335.38,-36.46 298.83,-25.44 268.74,-19.01"/>
<polygon fill="#63b8ff" stroke="#63b8ff" points="522.36,-218.62 532.88,-219.92 525.47,-212.34 522.36,-218.62"/>
</a>
</g>
</g>
<!-- Node14 -->
<g id="Node000014" class="node">
<title>Node14</title>
<g id="a_Node000014"><a xlink:href="CCSDSValidator_8h.html" target="_top" xlink:title="Defines the Validator class for CCSDS packet validation.">
<polygon fill="white" stroke="#666666" points="611.5,-184 492.5,-184 492.5,-165 611.5,-165 611.5,-184"/>
<text text-anchor="middle" x="552" y="-172" font-family="Helvetica,sans-Serif" font-size="10.00">inc/CCSDSValidator.h</text>
</a>
</g>
</g>
<!-- Node3&#45;&gt;Node14 -->
<g id="edge17_Node000003_Node000014" class="edge">
<title>Node3&#45;&gt;Node14</title>
<g id="a_edge17_Node000003_Node000014"><a xlink:title=" ">
<path fill="none" stroke="#63b8ff" d="M552,-209.66C552,-200.93 552,-190.99 552,-184.09"/>
<polygon fill="#63b8ff" stroke="#63b8ff" points="548.5,-209.75 552,-219.75 555.5,-209.75 548.5,-209.75"/>
</a>
</g>
</g>
<!-- Node4&#45;&gt;Node5 -->
<g id="edge4_Node000004_Node000005" class="edge">
<title>Node4&#45;&gt;Node5</title>
<g id="a_edge4_Node000004_Node000005"><a xlink:title=" ">
<path fill="none" stroke="#63b8ff" d="M612.57,-105.63C591.75,-95.87 563.7,-82.71 545.49,-74.17"/>
<polygon fill="#63b8ff" stroke="#63b8ff" points="611.3,-108.91 621.84,-109.98 614.28,-102.57 611.3,-108.91"/>
</a>
</g>
</g>
<!-- Node8 -->
<g id="Node000008" class="node">
<title>Node8</title>
<g id="a_Node000008"><a xlink:href="CCSDSManager_8cpp.html" target="_top" xlink:title=" ">
<polygon fill="white" stroke="#666666" points="695.5,-19 566.5,-19 566.5,0 695.5,0 695.5,-19"/>
<text text-anchor="middle" x="631" y="-7" font-family="Helvetica,sans-Serif" font-size="10.00">src/CCSDSManager.cpp</text>
</a>
</g>
</g>
<!-- Node4&#45;&gt;Node8 -->
<g id="edge13_Node000004_Node000008" class="edge">
<title>Node4&#45;&gt;Node8</title>
<g id="a_edge13_Node000004_Node000008"><a xlink:title=" ">
<path fill="none" stroke="#63b8ff" d="M638.42,-99.48C636.45,-75.84 633.17,-36.5 631.72,-19.16"/>
<polygon fill="#63b8ff" stroke="#63b8ff" points="634.95,-99.99 639.26,-109.66 641.92,-99.41 634.95,-99.99"/>
</a>
</g>
</g>
<!-- Node4&#45;&gt;Node12 -->
<g id="edge14_Node000004_Node000012" class="edge">
<title>Node4&#45;&gt;Node12</title>
<g id="a_edge14_Node000004_Node000012"><a xlink:title=" ">
<path fill="none" stroke="#63b8ff" d="M671,-106.27C703.42,-93.48 755.78,-72.82 801,-55 832.78,-42.48 869.59,-27.98 892.34,-19.03"/>
<polygon fill="#63b8ff" stroke="#63b8ff" points="669.63,-103.05 661.61,-109.97 672.2,-109.56 669.63,-103.05"/>
</a>
</g>
</g>
<!-- Node4&#45;&gt;Node13 -->
<g id="edge15_Node000004_Node000013" class="edge">
<title>Node4&#45;&gt;Node13</title>
<g id="a_edge15_Node000004_Node000013"><a xlink:title=" ">
<path fill="none" stroke="#63b8ff" d="M682.47,-107.37C764.98,-85.74 945.32,-38.46 1019.32,-19.07"/>
<polygon fill="#63b8ff" stroke="#63b8ff" points="681.46,-104.01 672.67,-109.94 683.23,-110.78 681.46,-104.01"/>
</a>
</g>
</g>
<!-- Node5&#45;&gt;Node6 -->
<g id="edge5_Node000005_Node000006" class="edge">
<title>Node5&#45;&gt;Node6</title>
<g id="a_edge5_Node000005_Node000006"><a xlink:title=" ">
<path fill="none" stroke="#63b8ff" d="M467.68,-56.67C381.95,-46.79 223.84,-28.57 134,-18.22"/>
<polygon fill="#63b8ff" stroke="#63b8ff" points="467.44,-60.16 477.77,-57.83 468.24,-53.21 467.44,-60.16"/>
</a>
</g>
</g>
<!-- Node7 -->
<g id="Node000007" class="node">
<title>Node7</title>
<g id="a_Node000007"><a xlink:href="CCSDSHeader_8cpp.html" target="_top" xlink:title=" ">
<polygon fill="white" stroke="#666666" points="836,-19 714,-19 714,0 836,0 836,-19"/>
<text text-anchor="middle" x="775" y="-7" font-family="Helvetica,sans-Serif" font-size="10.00">src/CCSDSHeader.cpp</text>
</a>
</g>
</g>
<!-- Node5&#45;&gt;Node7 -->
<g id="edge6_Node000005_Node000007" class="edge">
<title>Node5&#45;&gt;Node7</title>
<g id="a_edge6_Node000005_Node000007"><a xlink:title=" ">
<path fill="none" stroke="#63b8ff" d="M576.7,-52.88C623.18,-42.94 691.73,-28.3 734.84,-19.08"/>
<polygon fill="#63b8ff" stroke="#63b8ff" points="575.89,-49.47 566.85,-54.98 577.36,-56.32 575.89,-49.47"/>
</a>
</g>
</g>
<!-- Node5&#45;&gt;Node8 -->
<g id="edge7_Node000005_Node000008" class="edge">
<title>Node5&#45;&gt;Node8</title>
<g id="a_edge7_Node000005_Node000008"><a xlink:title=" ">
<path fill="none" stroke="#63b8ff" d="M552.77,-50.37C571.87,-40.63 597.37,-27.64 613.99,-19.17"/>
<polygon fill="#63b8ff" stroke="#63b8ff" points="551.03,-47.33 543.71,-54.98 554.21,-53.56 551.03,-47.33"/>
</a>
</g>
</g>
<!-- Node5&#45;&gt;Node9 -->
<g id="edge8_Node000005_Node000009" class="edge">
<title>Node5&#45;&gt;Node9</title>
<g id="a_edge8_Node000005_Node000009"><a xlink:title=" ">
<path fill="none" stroke="#63b8ff" d="M467.84,-53.55C408.68,-43.59 318.67,-28.45 262.7,-19.03"/>
<polygon fill="#63b8ff" stroke="#63b8ff" points="467.34,-57.01 477.78,-55.22 468.5,-50.11 467.34,-57.01"/>
</a>
</g>
</g>
<!-- Node10 -->
<g id="Node000010" class="node">
<title>Node10</title>
<g id="a_Node000010"><a xlink:href="CCSDSUtils_8cpp.html" target="_top" xlink:title=" ">
<polygon fill="white" stroke="#666666" points="548,-19 438,-19 438,0 548,0 548,-19"/>
<text text-anchor="middle" x="493" y="-7" font-family="Helvetica,sans-Serif" font-size="10.00">src/CCSDSUtils.cpp</text>
</a>
</g>
</g>
<!-- Node5&#45;&gt;Node10 -->
<g id="edge9_Node000005_Node000010" class="edge">
<title>Node5&#45;&gt;Node10</title>
<g id="a_edge9_Node000005_Node000010"><a xlink:title=" ">
<path fill="none" stroke="#63b8ff" d="M515.84,-46.1C510.03,-37.04 503.18,-26.37 498.51,-19.09"/>
<polygon fill="#63b8ff" stroke="#63b8ff" points="513.04,-48.22 521.39,-54.75 518.93,-44.44 513.04,-48.22"/>
</a>
</g>
</g>
<!-- Node11 -->
<g id="Node000011" class="node">
<title>Node11</title>
<g id="a_Node000011"><a xlink:href="CCSDSValidator_8cpp.html" target="_top" xlink:title=" ">
<polygon fill="white" stroke="#666666" points="420,-19 290,-19 290,0 420,0 420,-19"/>
<text text-anchor="middle" x="355" y="-7" font-family="Helvetica,sans-Serif" font-size="10.00">src/CCSDSValidator.cpp</text>
</a>
</g>
</g>
<!-- Node5&#45;&gt;Node11 -->
<g id="edge10_Node000005_Node000011" class="edge">
<title>Node5&#45;&gt;Node11</title>
<g id="a_edge10_Node000005_Node000011"><a xlink:title=" ">
<path fill="none" stroke="#63b8ff" d="M489.44,-51.93C457.32,-42.03 411.81,-28.01 382.85,-19.08"/>
<polygon fill="#63b8ff" stroke="#63b8ff" points="488.78,-55.38 499.37,-54.98 490.84,-48.69 488.78,-55.38"/>
</a>
</g>
</g>
<!-- Node5&#45;&gt;Node12 -->
<g id="edge11_Node000005_Node000012" class="edge">
<title>Node5&#45;&gt;Node12</title>
<g id="a_edge11_Node000005_Node000012"><a xlink:title=" ">
<path fill="none" stroke="#63b8ff" d="M586.35,-55.37C658.93,-45.43 781.08,-28.7 853.97,-18.72"/>
<polygon fill="#63b8ff" stroke="#63b8ff" points="585.45,-51.96 576.01,-56.79 586.4,-58.9 585.45,-51.96"/>
</a>
</g>
</g>
<!-- Node5&#45;&gt;Node13 -->
<g id="edge12_Node000005_Node000013" class="edge">
<title>Node5&#45;&gt;Node13</title>
<g id="a_edge12_Node000005_Node000013"><a xlink:title=" ">
<path fill="none" stroke="#63b8ff" d="M586.52,-58.18C673.63,-50.27 840.93,-34.68 983,-19 985.88,-18.68 988.83,-18.35 991.8,-18.01"/>
<polygon fill="#63b8ff" stroke="#63b8ff" points="585.95,-54.71 576.3,-59.1 586.58,-61.68 585.95,-54.71"/>
</a>
</g>
</g>
<!-- Node14&#45;&gt;Node4 -->
<g id="edge18_Node000014_Node000004" class="edge">
<title>Node14&#45;&gt;Node4</title>
<g id="a_edge18_Node000014_Node000004"><a xlink:title=" ">
<path fill="none" stroke="#63b8ff" d="M574.92,-159.7C590.95,-150.04 611.87,-137.44 625.6,-129.17"/>
<polygon fill="#63b8ff" stroke="#63b8ff" points="572.9,-156.83 566.14,-164.98 576.51,-162.82 572.9,-156.83"/>
</a>
</g>
</g>
<!-- Node14&#45;&gt;Node11 -->
<g id="edge19_Node000014_Node000011" class="edge">
<title>Node14&#45;&gt;Node11</title>
<g id="a_edge19_Node000014_Node000011"><a xlink:title=" ">
<path fill="none" stroke="#63b8ff" d="M533.75,-158.4C493.42,-125.03 397.76,-45.88 365.69,-19.34"/>
<polygon fill="#63b8ff" stroke="#63b8ff" points="531.75,-161.29 541.69,-164.97 536.21,-155.89 531.75,-161.29"/>
</a>
</g>
</g>
<!-- Node15&#45;&gt;Node3 -->
<g id="edge24_Node000015_Node000003" class="edge">
<title>Node15&#45;&gt;Node3</title>
<g id="a_edge24_Node000015_Node000003"><a xlink:title=" ">
<path fill="none" stroke="#63b8ff" d="M717.63,-272.5C678.49,-262.58 621.72,-248.18 585.84,-239.08"/>
<polygon fill="#63b8ff" stroke="#63b8ff" points="716.87,-275.92 727.42,-274.98 718.59,-269.13 716.87,-275.92"/>
</a>
</g>
</g>
<!-- Node15&#45;&gt;Node7 -->
<g id="edge25_Node000015_Node000007" class="edge">
<title>Node15&#45;&gt;Node7</title>
<g id="a_edge25_Node000015_Node000007"><a xlink:title=" ">
<path fill="none" stroke="#63b8ff" d="M754.96,-265.29C748.45,-244.01 739,-207.6 739,-175.5 739,-175.5 739,-175.5 739,-118.5 739,-79.76 760.1,-37.03 769.99,-19.13"/>
<polygon fill="#63b8ff" stroke="#63b8ff" points="751.66,-266.47 758.03,-274.94 758.33,-264.35 751.66,-266.47"/>
</a>
</g>
</g>
<!-- Node15&#45;&gt;Node12 -->
<g id="edge26_Node000015_Node000012" class="edge">
<title>Node15&#45;&gt;Node12</title>
<g id="a_edge26_Node000015_Node000012"><a xlink:title=" ">
<path fill="none" stroke="#63b8ff" d="M784.83,-269.52C812.09,-251.54 853,-217.55 853,-175.5 853,-175.5 853,-175.5 853,-118.5 853,-76.72 888.03,-36.24 905,-19.08"/>
<polygon fill="#63b8ff" stroke="#63b8ff" points="782.77,-266.69 776.19,-275 786.51,-272.6 782.77,-266.69"/>
</a>
</g>
</g>
<!-- Node15&#45;&gt;Node13 -->
<g id="edge27_Node000015_Node000013" class="edge">
<title>Node15&#45;&gt;Node13</title>
<g id="a_edge27_Node000015_Node000013"><a xlink:title=" ">
<path fill="none" stroke="#63b8ff" d="M792.92,-270.87C809.4,-263.29 829.12,-252.5 844,-239 916.85,-172.9 893.83,-120.74 967,-55 985.09,-38.75 1010.19,-26.56 1028.43,-19.09"/>
<polygon fill="#63b8ff" stroke="#63b8ff" points="791.39,-267.72 783.65,-274.95 794.21,-274.12 791.39,-267.72"/>
</a>
</g>
</g>
<!-- Node16&#45;&gt;Node2 -->
<g id="edge31_Node000016_Node000002" class="edge">
<title>Node16&#45;&gt;Node2</title>
<g id="a_edge31_Node000016_Node000002"><a xlink:title=" ">
<path fill="none" stroke="#63b8ff" d="M382.21,-442.55C387.76,-434.37 393.15,-424.73 396,-415 409.23,-369.8 380.73,-314.85 368.36,-294.04"/>
<polygon fill="#63b8ff" stroke="#63b8ff" points="379.28,-440.64 376.23,-450.79 384.94,-444.75 379.28,-440.64"/>
</a>
</g>
</g>
<!-- Node17 -->
<g id="Node000017" class="node">
<title>Node17</title>
<g id="a_Node000017"><a xlink:href="CCSDSSecondaryHeaderFactory_8h.html" target="_top" xlink:title=" ">
<polygon fill="white" stroke="#666666" points="387.5,-415 234.5,-415 234.5,-385 387.5,-385 387.5,-415"/>
<text text-anchor="start" x="242.5" y="-403" font-family="Helvetica,sans-Serif" font-size="10.00">inc/CCSDSSecondaryHeader</text>
<text text-anchor="middle" x="311" y="-392" font-family="Helvetica,sans-Serif" font-size="10.00">Factory.h</text>
</a>
</g>
</g>
<!-- Node16&#45;&gt;Node17 -->
<g id="edge32_Node000016_Node000017" class="edge">
<title>Node16&#45;&gt;Node17</title>
<g id="a_edge32_Node000016_Node000017"><a xlink:title=" ">
<path fill="none" stroke="#63b8ff" d="M345.85,-443.09C338.2,-433.85 329.52,-423.36 322.73,-415.16"/>
<polygon fill="#63b8ff" stroke="#63b8ff" points="343.16,-445.33 352.24,-450.8 348.56,-440.86 343.16,-445.33"/>
</a>
</g>
</g>
<!-- Node16&#45;&gt;Node18 -->
<g id="edge38_Node000016_Node000018" class="edge">
<title>Node16&#45;&gt;Node18</title>
<g id="a_edge38_Node000016_Node000018"><a xlink:title=" ">
<path fill="none" stroke="#63b8ff" d="M280.59,-447.67C260.48,-440.29 240.39,-429.82 225,-415 205.92,-396.62 198.64,-364.49 196.15,-349.14"/>
<polygon fill="#63b8ff" stroke="#63b8ff" points="279.53,-451.01 290.12,-450.95 281.8,-444.39 279.53,-451.01"/>
</a>
</g>
</g>
<!-- Node17&#45;&gt;Node2 -->
<g id="edge33_Node000017_Node000002" class="edge">
<title>Node17&#45;&gt;Node2</title>
<g id="a_edge33_Node000017_Node000002"><a xlink:title=" ">
<path fill="none" stroke="#63b8ff" d="M321.83,-375.36C333.4,-350.11 351.13,-311.41 359,-294.23"/>
<polygon fill="#63b8ff" stroke="#63b8ff" points="318.57,-374.08 317.59,-384.63 324.93,-376.99 318.57,-374.08"/>
</a>
</g>
</g>
<!-- Node17&#45;&gt;Node6 -->
<g id="edge37_Node000017_Node000006" class="edge">
<title>Node17&#45;&gt;Node6</title>
<g id="a_edge37_Node000017_Node000006"><a xlink:title=" ">
<path fill="none" stroke="#63b8ff" d="M298.64,-375.72C287.88,-353.26 274,-318 274,-285.5 274,-285.5 274,-285.5 274,-118.5 274,-54.25 194.65,-28.16 134.21,-17.61"/>
<polygon fill="#63b8ff" stroke="#63b8ff" points="295.57,-377.4 303.15,-384.79 301.83,-374.28 295.57,-377.4"/>
</a>
</g>
</g>
<!-- Node17&#45;&gt;Node18 -->
<g id="edge34_Node000017_Node000018" class="edge">
<title>Node17&#45;&gt;Node18</title>
<g id="a_edge34_Node000017_Node000018"><a xlink:title=" ">
<path fill="none" stroke="#63b8ff" d="M274.02,-380.35C253.26,-369.88 228.36,-357.32 212.13,-349.14"/>
<polygon fill="#63b8ff" stroke="#63b8ff" points="272.71,-383.61 283.22,-384.99 275.86,-377.36 272.71,-383.61"/>
</a>
</g>
</g>
<!-- Node18&#45;&gt;Node2 -->
<g id="edge35_Node000018_Node000002" class="edge">
<title>Node18&#45;&gt;Node2</title>
<g id="a_edge35_Node000018_Node000002"><a xlink:title=" ">
<path fill="none" stroke="#63b8ff" d="M231.68,-326.93C263.06,-317.03 307.51,-303.01 335.8,-294.08"/>
<polygon fill="#63b8ff" stroke="#63b8ff" points="230.48,-323.64 221.99,-329.98 232.58,-330.31 230.48,-323.64"/>
</a>
</g>
</g>
<!-- Node19 -->
<g id="Node000019" class="node">
<title>Node19</title>
<g id="a_Node000019"><a xlink:href="PusServices_8cpp.html" target="_top" xlink:title=" ">
<polygon fill="white" stroke="#666666" points="245.5,-294 132.5,-294 132.5,-275 245.5,-275 245.5,-294"/>
<text text-anchor="middle" x="189" y="-282" font-family="Helvetica,sans-Serif" font-size="10.00">src/PusServices.cpp</text>
</a>
</g>
</g>
<!-- Node18&#45;&gt;Node19 -->
<g id="edge36_Node000018_Node000019" class="edge">
<title>Node18&#45;&gt;Node19</title>
<g id="a_edge36_Node000018_Node000019"><a xlink:title=" ">
<path fill="none" stroke="#63b8ff" d="M192.87,-319.66C191.88,-310.93 190.75,-300.99 189.97,-294.09"/>
<polygon fill="#63b8ff" stroke="#63b8ff" points="189.41,-320.21 194.01,-329.75 196.36,-319.42 189.41,-320.21"/>
</a>
</g>
</g>
<!-- Node20&#45;&gt;Node12 -->
<g id="edge41_Node000020_Node000012" class="edge">
<title>Node20&#45;&gt;Node12</title>
<g id="a_edge41_Node000020_Node000012"><a xlink:title=" ">
<path fill="none" stroke="#63b8ff" d="M995.51,-50.5C975.64,-40.75 949,-27.68 931.67,-19.17"/>
<polygon fill="#63b8ff" stroke="#63b8ff" points="994.13,-53.72 1004.65,-54.98 997.21,-47.44 994.13,-53.72"/>
</a>
</g>
</g>
<!-- Node20&#45;&gt;Node13 -->
<g id="edge42_Node000020_Node000013" class="edge">
<title>Node20&#45;&gt;Node13</title>
<g id="a_edge42_Node000020_Node000013"><a xlink:title=" ">
<path fill="none" stroke="#63b8ff" d="M1032.01,-45.82C1037.1,-36.82 1043.06,-26.29 1047.14,-19.09"/>
<polygon fill="#63b8ff" stroke="#63b8ff" points="1028.83,-44.32 1026.95,-54.75 1034.93,-47.77 1028.83,-44.32"/>
</a>
</g>
</g>
<!-- Node21 -->
<g id="Node000021" class="node">
<title>Node21</title>
<g id="a_Node000021"><a xlink:href="exec__utils_8cpp.html" target="_top" xlink:title=" ">
<polygon fill="white" stroke="#666666" points="1233.5,-19 1130.5,-19 1130.5,0 1233.5,0 1233.5,-19"/>
<text text-anchor="middle" x="1182" y="-7" font-family="Helvetica,sans-Serif" font-size="10.00">src/exec_utils.cpp</text>
</a>
</g>
</g>
<!-- Node20&#45;&gt;Node21 -->
<g id="edge43_Node000020_Node000021" class="edge">
<title>Node20&#45;&gt;Node21</title>
<g id="a_edge43_Node000020_Node000021"><a xlink:title=" ">
<path fill="none" stroke="#63b8ff" d="M1057.33,-51.8C1087.19,-41.91 1129.27,-27.97 1156.09,-19.08"/>
<polygon fill="#63b8ff" stroke="#63b8ff" points="1056.1,-48.52 1047.71,-54.98 1058.3,-55.16 1056.1,-48.52"/>
</a>
</g>
</g>
</g>
</svg>

<g id="navigator" transform="translate(0 0)" fill="#404254">
  <rect fill="#f2f5e9" fill-opacity="0.5" stroke="#606060" stroke-width=".5" x="0" y="0" width="60" height="60"/>
  <use id="zoomplus" xlink:href="#zoomPlus" x="17" y="9" onmousedown="handleZoom(evt,'in')"/>
  <use id="zoomminus" xlink:href="#zoomMin" x="42" y="9" onmousedown="handleZoom(evt,'out')"/>
  <use id="reset" xlink:href="#resetDef" x="30" y="36" onmousedown="handleReset()"/>
   <use id="arrowup" xlink:href="#arrowUp" x="0" y="0" onmousedown="handlePan(0,-1)"/>
  <use id="arrowright" xlink:href="#arrowRight" x="0" y="0" onmousedown="handlePan(1,0)"/>
  <use id="arrowdown" xlink:href="#arrowDown" x="0" y="0" onmousedown="handlePan(0,1)"/>
  <use id="arrowleft" xlink:href="#arrowLeft" x="0" y="0" onmousedown="handlePan(-1,0)"/>
</g>
<svg viewBox="0 0 15 15" width="100%" height="30px" preserveAspectRatio="xMaxYMin meet">
 <g id="arrow_out" transform="scale(0.3 0.3)">
  <a xlink:href="CCSDSResult_8h__dep__incl_org.svg" target="_base">
   <rect id="button" ry="5" rx="5" y="6" x="6" height="38" width="38"
        fill="#f2f5e9" fill-opacity="0.5" stroke="#606060" stroke-width="1.0"/>
   <path id="arrow"
     d="M 11.500037,31.436501 C 11.940474,20.09759 22.043105,11.32322 32.158766,21.979434 L 37.068811,17.246167 C 37.068811,17.246167 37.088388,32 37.088388,32 L 22.160133,31.978069 C 22.160133,31.978069 26.997745,27.140456 26.997745,27.140456 C 18.528582,18.264221 13.291696,25.230495 11.500037,31.436501 z"
     style="fill:#404040;"/>
  </a>
 </g>
</svg>

<style type='text/css'>
<![CDATA[
[data-mouse-over-selected='false'] { opacity: 0.7; }
[data-mouse-over-selected='true']  { opacity: 1.0; }
]]>
</style>
<script type="application/ecmascript"><![CDATA[
document.addEventListener('DOMContentLoaded', (event) => {
  highlightEdges();
  highlightAdjacentNodes();
});
]]></script>
</svg>
