<?xml version="1.0" encoding="UTF-8" standalone="no"?>
<!DOCTYPE svg PUBLIC "-//W3C//DTD SVG 1.1//EN"
 "http://www.w3.org/Graphics/SVG/1.1/DTD/svg11.dtd">
<!-- Generated by graphviz version 2.43.0 (0)
 -->
<!-- Title: src/CCSDSHeader.cpp Pages: 1 -->
<svg width="919pt" height="632pt"
 viewBox="0.00 0.00 919.00 632.00" xmlns="http://www.w3.org/2000/svg" xmlns:xlink="http://www.w3.org/1999/xlink">
<g id="graph0" class="graph" transform="scale(1 1) rotate(0) translate(4 628)">
<title>src/CCSDSHeader.cpp</title>
<!-- Node1 -->
<g id="Node000001" class="node">
<title>Node1</title>
<g id="a_Node000001"><a xlink:title=" ">
<polygon fill="#999999" stroke="#666666" points="157,-624 35,-624 35,-605 157,-605 157,-624"/>
<text text-anchor="middle" x="96" y="-612" font-family="Helvetica,sans-Serif" font-size="10.00">src/CCSDSHeader.cpp</text>
</a>
</g>
</g>
<!-- Node2 -->
<g id="Node000002" class="node">
<title>Node2</title>
<g id="a_Node000002"><a xlink:href="CCSDSHeader_8h.html" target="_top" xlink:title=" ">
<polygon fill="white" stroke="#666666" points="225.5,-129 132.5,-129 132.5,-110 225.5,-110 225.5,-129"/>
<text text-anchor="middle" x="179" y="-117" font-family="Helvetica,sans-Serif" font-size="10.00">CCSDSHeader.h</text>
</a>
</g>
</g>
<!-- Node1&#45;&gt;Node2 -->
<g id="edge1_Node000001_Node000002" class="edge">
<title>Node1&#45;&gt;Node2</title>
<g id="a_edge1_Node000001_Node000002"><a xlink:title=" ">
<path fill="none" stroke="#63b8ff" d="M87.44,-604.83C71.31,-587.52 38,-546.79 38,-505.5 38,-505.5 38,-505.5 38,-228.5 38,-177.54 96.75,-147.37 138.41,-132.38"/>
<polygon fill="#63b8ff" stroke="#63b8ff" points="139.74,-135.63 148.06,-129.07 137.46,-129.01 139.74,-135.63"/>
</a>
</g>
</g>
<!-- Node9 -->
<g id="Node000009" class="node">
<title>Node9</title>
<g id="a_Node000009"><a xlink:href="CCSDSUtils_8h.html" target="_top" xlink:title=" ">
<polygon fill="white" stroke="#666666" points="206.5,-569 125.5,-569 125.5,-550 206.5,-550 206.5,-569"/>
<text text-anchor="middle" x="166" y="-557" font-family="Helvetica,sans-Serif" font-size="10.00">CCSDSUtils.h</text>
</a>
</g>
</g>
<!-- Node1&#45;&gt;Node9 -->
<g id="edge10_Node000001_Node000009" class="edge">
<title>Node1&#45;&gt;Node9</title>
<g id="a_edge10_Node000001_Node000009"><a xlink:title=" ">
<path fill="none" stroke="#63b8ff" d="M107.25,-604.98C117.8,-597 133.8,-584.88 146.44,-575.31"/>
<polygon fill="#63b8ff" stroke="#63b8ff" points="148.69,-578 154.55,-569.17 144.46,-572.42 148.69,-578"/>
</a>
</g>
</g>
<!-- Node3 -->
<g id="Node000003" class="node">
<title>Node3</title>
<g id="a_Node000003"><a xlink:href="CCSDSResult_8h.html" target="_top" xlink:title=" ">
<polygon fill="white" stroke="#666666" points="448.5,-74 359.5,-74 359.5,-55 448.5,-55 448.5,-74"/>
<text text-anchor="middle" x="404" y="-62" font-family="Helvetica,sans-Serif" font-size="10.00">CCSDSResult.h</text>
</a>
</g>
</g>
<!-- Node2&#45;&gt;Node3 -->
<g id="edge2_Node000002_Node000003" class="edge">
<title>Node2&#45;&gt;Node3</title>
<g id="a_edge2_Node000002_Node000003"><a xlink:title=" ">
<path fill="none" stroke="#63b8ff" d="M215.15,-109.98C253.91,-100.86 315.55,-86.33 357.8,-76.38"/>
<polygon fill="#63b8ff" stroke="#63b8ff" points="358.64,-79.78 367.57,-74.08 357.03,-72.97 358.64,-79.78"/>
</a>
</g>
</g>
<!-- Node6 -->
<g id="Node000006" class="node">
<title>Node6</title>
<g id="a_Node000006"><a xlink:title=" ">
<polygon fill="#e0e0e0" stroke="#999999" points="202.5,-19 155.5,-19 155.5,0 202.5,0 202.5,-19"/>
<text text-anchor="middle" x="179" y="-7" font-family="Helvetica,sans-Serif" font-size="10.00">vector</text>
</a>
</g>
</g>
<!-- Node2&#45;&gt;Node6 -->
<g id="edge9_Node000002_Node000006" class="edge">
<title>Node2&#45;&gt;Node6</title>
<g id="a_edge9_Node000002_Node000006"><a xlink:title=" ">
<path fill="none" stroke="#63b8ff" d="M179,-109.66C179,-92.17 179,-52.8 179,-29.27"/>
<polygon fill="#63b8ff" stroke="#63b8ff" points="182.5,-29.16 179,-19.16 175.5,-29.16 182.5,-29.16"/>
</a>
</g>
</g>
<!-- Node7 -->
<g id="Node000007" class="node">
<title>Node7</title>
<g id="a_Node000007"><a xlink:title=" ">
<polygon fill="#e0e0e0" stroke="#999999" points="505,-19 455,-19 455,0 505,0 505,-19"/>
<text text-anchor="middle" x="480" y="-7" font-family="Helvetica,sans-Serif" font-size="10.00">cstdint</text>
</a>
</g>
</g>
<!-- Node2&#45;&gt;Node7 -->
<g id="edge8_Node000002_Node000007" class="edge">
<title>Node2&#45;&gt;Node7</title>
<g id="a_edge8_Node000002_Node000007"><a xlink:title=" ">
<path fill="none" stroke="#63b8ff" d="M201.34,-109.99C233.93,-97.63 296.46,-74.1 350,-55 382.08,-43.56 418.81,-31.04 445.02,-22.2"/>
<polygon fill="#63b8ff" stroke="#63b8ff" points="446.16,-25.51 454.52,-19 443.93,-18.88 446.16,-25.51"/>
</a>
</g>
</g>
<!-- Node4 -->
<g id="Node000004" class="node">
<title>Node4</title>
<g id="a_Node000004"><a xlink:title=" ">
<polygon fill="#e0e0e0" stroke="#999999" points="730.5,-19 637.5,-19 637.5,0 730.5,0 730.5,-19"/>
<text text-anchor="middle" x="684" y="-7" font-family="Helvetica,sans-Serif" font-size="10.00">unordered_map</text>
</a>
</g>
</g>
<!-- Node3&#45;&gt;Node4 -->
<g id="edge3_Node000003_Node000004" class="edge">
<title>Node3&#45;&gt;Node4</title>
<g id="a_edge3_Node000003_Node000004"><a xlink:title=" ">
<path fill="none" stroke="#63b8ff" d="M448.68,-55.04C497.7,-45.76 576.43,-30.86 629.16,-20.88"/>
<polygon fill="#63b8ff" stroke="#63b8ff" points="629.84,-24.31 639.02,-19.01 628.54,-17.44 629.84,-24.31"/>
</a>
</g>
</g>
<!-- Node5 -->
<g id="Node000005" class="node">
<title>Node5</title>
<g id="a_Node000005"><a xlink:title=" ">
<polygon fill="#e0e0e0" stroke="#999999" points="356.5,-19 305.5,-19 305.5,0 356.5,0 356.5,-19"/>
<text text-anchor="middle" x="331" y="-7" font-family="Helvetica,sans-Serif" font-size="10.00">variant</text>
</a>
</g>
</g>
<!-- Node3&#45;&gt;Node5 -->
<g id="edge4_Node000003_Node000005" class="edge">
<title>Node3&#45;&gt;Node5</title>
<g id="a_edge4_Node000003_Node000005"><a xlink:title=" ">
<path fill="none" stroke="#63b8ff" d="M392.27,-54.98C381.27,-47 364.58,-34.88 351.4,-25.31"/>
<polygon fill="#63b8ff" stroke="#63b8ff" points="353.09,-22.21 342.94,-19.17 348.98,-27.88 353.09,-22.21"/>
</a>
</g>
</g>
<!-- Node3&#45;&gt;Node6 -->
<g id="edge5_Node000003_Node000006" class="edge">
<title>Node3&#45;&gt;Node6</title>
<g id="a_edge5_Node000003_Node000006"><a xlink:title=" ">
<path fill="none" stroke="#63b8ff" d="M367.85,-54.98C325.02,-44.9 254.24,-28.22 212.57,-18.41"/>
<polygon fill="#63b8ff" stroke="#63b8ff" points="213.17,-14.95 202.64,-16.07 211.57,-21.77 213.17,-14.95"/>
</a>
</g>
</g>
<!-- Node3&#45;&gt;Node7 -->
<g id="edge6_Node000003_Node000007" class="edge">
<title>Node3&#45;&gt;Node7</title>
<g id="a_edge6_Node000003_Node000007"><a xlink:title=" ">
<path fill="none" stroke="#63b8ff" d="M416.21,-54.98C427.78,-46.92 445.38,-34.65 459.16,-25.03"/>
<polygon fill="#63b8ff" stroke="#63b8ff" points="461.37,-27.76 467.57,-19.17 457.36,-22.02 461.37,-27.76"/>
</a>
</g>
</g>
<!-- Node8 -->
<g id="Node000008" class="node">
<title>Node8</title>
<g id="a_Node000008"><a xlink:title=" ">
<polygon fill="#e0e0e0" stroke="#999999" points="435,-19 375,-19 375,0 435,0 435,-19"/>
<text text-anchor="middle" x="405" y="-7" font-family="Helvetica,sans-Serif" font-size="10.00">iostream</text>
</a>
</g>
</g>
<!-- Node3&#45;&gt;Node8 -->
<g id="edge7_Node000003_Node000008" class="edge">
<title>Node3&#45;&gt;Node8</title>
<g id="a_edge7_Node000003_Node000008"><a xlink:title=" ">
<path fill="none" stroke="#63b8ff" d="M404.17,-54.75C404.3,-47.8 404.48,-37.85 404.65,-29.13"/>
<polygon fill="#63b8ff" stroke="#63b8ff" points="408.15,-29.15 404.84,-19.09 401.15,-29.02 408.15,-29.15"/>
</a>
</g>
</g>
<!-- Node9&#45;&gt;Node6 -->
<g id="edge46_Node000009_Node000006" class="edge">
<title>Node9&#45;&gt;Node6</title>
<g id="a_edge46_Node000009_Node000006"><a xlink:title=" ">
<path fill="none" stroke="#63b8ff" d="M145.31,-549.96C100.81,-530.06 0,-476.08 0,-395.5 0,-395.5 0,-395.5 0,-118.5 0,-51.44 93.25,-24.92 145.14,-15.36"/>
<polygon fill="#63b8ff" stroke="#63b8ff" points="145.97,-18.76 155.23,-13.61 144.78,-11.87 145.97,-18.76"/>
</a>
</g>
</g>
<!-- Node10 -->
<g id="Node000010" class="node">
<title>Node10</title>
<g id="a_Node000010"><a xlink:href="CCSDSPacket_8h.html" target="_top" xlink:title=" ">
<polygon fill="white" stroke="#666666" points="302,-404 212,-404 212,-385 302,-385 302,-404"/>
<text text-anchor="middle" x="257" y="-392" font-family="Helvetica,sans-Serif" font-size="10.00">CCSDSPacket.h</text>
</a>
</g>
</g>
<!-- Node9&#45;&gt;Node10 -->
<g id="edge11_Node000009_Node000010" class="edge">
<title>Node9&#45;&gt;Node10</title>
<g id="a_edge11_Node000009_Node000010"><a xlink:title=" ">
<path fill="none" stroke="#63b8ff" d="M192.26,-549.96C227.8,-536.81 289.77,-507.88 316,-459 326.61,-439.22 304.83,-420.93 284.8,-409.12"/>
<polygon fill="#63b8ff" stroke="#63b8ff" points="286.29,-405.94 275.84,-404.16 282.9,-412.06 286.29,-405.94"/>
</a>
</g>
</g>
<!-- Node15 -->
<g id="Node000015" class="node">
<title>Node15</title>
<g id="a_Node000015"><a xlink:title=" ">
<polygon fill="#e0e0e0" stroke="#999999" points="769,-74 725,-74 725,-55 769,-55 769,-74"/>
<text text-anchor="middle" x="747" y="-62" font-family="Helvetica,sans-Serif" font-size="10.00">string</text>
</a>
</g>
</g>
<!-- Node9&#45;&gt;Node15 -->
<g id="edge45_Node000009_Node000015" class="edge">
<title>Node9&#45;&gt;Node15</title>
<g id="a_edge45_Node000009_Node000015"><a xlink:title=" ">
<path fill="none" stroke="#63b8ff" d="M206.58,-556.94C362.05,-550.41 911,-522.3 911,-450.5 911,-450.5 911,-450.5 911,-173.5 911,-110.93 826.71,-82.57 778.98,-71.52"/>
<polygon fill="#63b8ff" stroke="#63b8ff" points="779.63,-68.08 769.12,-69.36 778.14,-74.92 779.63,-68.08"/>
</a>
</g>
</g>
<!-- Node19 -->
<g id="Node000019" class="node">
<title>Node19</title>
<g id="a_Node000019"><a xlink:href="CCSDSManager_8h.html" target="_top" xlink:title=" ">
<polygon fill="white" stroke="#666666" points="216.5,-514 115.5,-514 115.5,-495 216.5,-495 216.5,-514"/>
<text text-anchor="middle" x="166" y="-502" font-family="Helvetica,sans-Serif" font-size="10.00">CCSDSManager.h</text>
</a>
</g>
</g>
<!-- Node9&#45;&gt;Node19 -->
<g id="edge39_Node000009_Node000019" class="edge">
<title>Node9&#45;&gt;Node19</title>
<g id="a_edge39_Node000009_Node000019"><a xlink:title=" ">
<path fill="none" stroke="#63b8ff" d="M166,-549.75C166,-542.8 166,-532.85 166,-524.13"/>
<polygon fill="#63b8ff" stroke="#63b8ff" points="169.5,-524.09 166,-514.09 162.5,-524.09 169.5,-524.09"/>
</a>
</g>
</g>
<!-- Node10&#45;&gt;Node2 -->
<g id="edge14_Node000010_Node000002" class="edge">
<title>Node10&#45;&gt;Node2</title>
<g id="a_edge14_Node000010_Node000002"><a xlink:title=" ">
<path fill="none" stroke="#63b8ff" d="M251.3,-384.96C240.03,-367.23 216,-324.81 216,-285.5 216,-285.5 216,-285.5 216,-228.5 216,-195.12 199.98,-158.91 189.02,-138.04"/>
<polygon fill="#63b8ff" stroke="#63b8ff" points="192.01,-136.21 184.14,-129.12 185.87,-139.57 192.01,-136.21"/>
</a>
</g>
</g>
<!-- Node10&#45;&gt;Node3 -->
<g id="edge12_Node000010_Node000003" class="edge">
<title>Node10&#45;&gt;Node3</title>
<g id="a_edge12_Node000010_Node000003"><a xlink:title=" ">
<path fill="none" stroke="#63b8ff" d="M260.93,-384.73C280.62,-340.81 368.59,-144.52 395.89,-83.6"/>
<polygon fill="#63b8ff" stroke="#63b8ff" points="399.23,-84.7 400.12,-74.15 392.84,-81.84 399.23,-84.7"/>
</a>
</g>
</g>
<!-- Node10&#45;&gt;Node6 -->
<g id="edge13_Node000010_Node000006" class="edge">
<title>Node10&#45;&gt;Node6</title>
<g id="a_edge13_Node000010_Node000006"><a xlink:title=" ">
<path fill="none" stroke="#63b8ff" d="M211.79,-386.67C158.18,-375.71 76,-348.62 76,-285.5 76,-285.5 76,-285.5 76,-228.5 76,-148.49 80.14,-121.91 124,-55 131.97,-42.84 144.33,-32.41 155.31,-24.71"/>
<polygon fill="#63b8ff" stroke="#63b8ff" points="157.31,-27.59 163.71,-19.14 153.45,-21.75 157.31,-27.59"/>
</a>
</g>
</g>
<!-- Node11 -->
<g id="Node000011" class="node">
<title>Node11</title>
<g id="a_Node000011"><a xlink:href="CCSDSDataField_8h.html" target="_top" xlink:title=" ">
<polygon fill="white" stroke="#666666" points="449.5,-349 344.5,-349 344.5,-330 449.5,-330 449.5,-349"/>
<text text-anchor="middle" x="397" y="-337" font-family="Helvetica,sans-Serif" font-size="10.00">CCSDSDataField.h</text>
</a>
</g>
</g>
<!-- Node10&#45;&gt;Node11 -->
<g id="edge15_Node000010_Node000011" class="edge">
<title>Node10&#45;&gt;Node11</title>
<g id="a_edge15_Node000010_Node000011"><a xlink:title=" ">
<path fill="none" stroke="#63b8ff" d="M279.49,-384.98C302.52,-376.27 338.54,-362.63 364.63,-352.75"/>
<polygon fill="#63b8ff" stroke="#63b8ff" points="365.98,-355.98 374.1,-349.17 363.51,-349.44 365.98,-355.98"/>
</a>
</g>
</g>
<!-- Node11&#45;&gt;Node3 -->
<g id="edge16_Node000011_Node000003" class="edge">
<title>Node11&#45;&gt;Node3</title>
<g id="a_edge16_Node000011_Node000003"><a xlink:title=" ">
<path fill="none" stroke="#63b8ff" d="M396.51,-329.76C394.91,-299.37 390.32,-195.43 397,-110 397.66,-101.52 399.03,-92.22 400.37,-84.32"/>
<polygon fill="#63b8ff" stroke="#63b8ff" points="403.85,-84.78 402.2,-74.32 396.96,-83.53 403.85,-84.78"/>
</a>
</g>
</g>
<!-- Node11&#45;&gt;Node6 -->
<g id="edge17_Node000011_Node000006" class="edge">
<title>Node11&#45;&gt;Node6</title>
<g id="a_edge17_Node000011_Node000006"><a xlink:title=" ">
<path fill="none" stroke="#63b8ff" d="M375.18,-329.97C320.37,-307.19 177.39,-239.05 123,-129 104.96,-92.5 139.49,-49.14 161.92,-26.34"/>
<polygon fill="#63b8ff" stroke="#63b8ff" points="164.54,-28.67 169.24,-19.17 159.64,-23.67 164.54,-28.67"/>
</a>
</g>
</g>
<!-- Node12 -->
<g id="Node000012" class="node">
<title>Node12</title>
<g id="a_Node000012"><a xlink:title=" ">
<polygon fill="#e0e0e0" stroke="#999999" points="883,-184 825,-184 825,-165 883,-165 883,-184"/>
<text text-anchor="middle" x="854" y="-172" font-family="Helvetica,sans-Serif" font-size="10.00">memory</text>
</a>
</g>
</g>
<!-- Node11&#45;&gt;Node12 -->
<g id="edge18_Node000011_Node000012" class="edge">
<title>Node11&#45;&gt;Node12</title>
<g id="a_edge18_Node000011_Node000012"><a xlink:title=" ">
<path fill="none" stroke="#63b8ff" d="M449.6,-334.15C555.93,-324.23 790.84,-296.23 844,-239 855.03,-227.13 856.76,-208.3 856.2,-194.22"/>
<polygon fill="#63b8ff" stroke="#63b8ff" points="859.68,-193.86 855.39,-184.17 852.7,-194.42 859.68,-193.86"/>
</a>
</g>
</g>
<!-- Node13 -->
<g id="Node000013" class="node">
<title>Node13</title>
<g id="a_Node000013"><a xlink:href="CCSDSSecondaryHeaderAbstract_8h.html" target="_top" xlink:title=" ">
<polygon fill="white" stroke="#666666" points="609.5,-184 424.5,-184 424.5,-165 609.5,-165 609.5,-184"/>
<text text-anchor="middle" x="517" y="-172" font-family="Helvetica,sans-Serif" font-size="10.00">CCSDSSecondaryHeaderAbstract.h</text>
</a>
</g>
</g>
<!-- Node11&#45;&gt;Node13 -->
<g id="edge19_Node000011_Node000013" class="edge">
<title>Node11&#45;&gt;Node13</title>
<g id="a_edge19_Node000011_Node000013"><a xlink:title=" ">
<path fill="none" stroke="#63b8ff" d="M403.45,-329.74C422.58,-303.76 479.21,-226.83 504.53,-192.44"/>
<polygon fill="#63b8ff" stroke="#63b8ff" points="507.41,-194.44 510.52,-184.31 501.77,-190.28 507.41,-194.44"/>
</a>
</g>
</g>
<!-- Node16 -->
<g id="Node000016" class="node">
<title>Node16</title>
<g id="a_Node000016"><a xlink:href="CCSDSSecondaryHeaderFactory_8h.html" target="_top" xlink:title=" ">
<polygon fill="white" stroke="#666666" points="834.5,-239 655.5,-239 655.5,-220 834.5,-220 834.5,-239"/>
<text text-anchor="middle" x="745" y="-227" font-family="Helvetica,sans-Serif" font-size="10.00">CCSDSSecondaryHeaderFactory.h</text>
</a>
</g>
</g>
<!-- Node11&#45;&gt;Node16 -->
<g id="edge28_Node000011_Node000016" class="edge">
<title>Node11&#45;&gt;Node16</title>
<g id="a_edge28_Node000011_Node000016"><a xlink:title=" ">
<path fill="none" stroke="#63b8ff" d="M433.63,-329.98C468.44,-321.64 522.13,-308.17 568,-294 619.53,-278.09 678.26,-256.27 713.44,-242.79"/>
<polygon fill="#63b8ff" stroke="#63b8ff" points="715.06,-245.92 723.14,-239.06 712.55,-239.39 715.06,-245.92"/>
</a>
</g>
</g>
<!-- Node18 -->
<g id="Node000018" class="node">
<title>Node18</title>
<g id="a_Node000018"><a xlink:href="PusServices_8h.html" target="_top" xlink:title=" ">
<polygon fill="white" stroke="#666666" points="559,-294 475,-294 475,-275 559,-275 559,-294"/>
<text text-anchor="middle" x="517" y="-282" font-family="Helvetica,sans-Serif" font-size="10.00">PusServices.h</text>
</a>
</g>
</g>
<!-- Node11&#45;&gt;Node18 -->
<g id="edge34_Node000011_Node000018" class="edge">
<title>Node11&#45;&gt;Node18</title>
<g id="a_edge34_Node000011_Node000018"><a xlink:title=" ">
<path fill="none" stroke="#63b8ff" d="M416.28,-329.98C435.67,-321.42 465.81,-308.11 488.07,-298.28"/>
<polygon fill="#63b8ff" stroke="#63b8ff" points="489.64,-301.41 497.37,-294.17 486.81,-295.01 489.64,-301.41"/>
</a>
</g>
</g>
<!-- Node13&#45;&gt;Node3 -->
<g id="edge20_Node000013_Node000003" class="edge">
<title>Node13&#45;&gt;Node3</title>
<g id="a_edge20_Node000013_Node000003"><a xlink:title=" ">
<path fill="none" stroke="#63b8ff" d="M507.12,-164.76C497.14,-155.88 481.33,-141.66 468,-129 451.27,-113.12 432.58,-94.47 419.75,-81.51"/>
<polygon fill="#63b8ff" stroke="#63b8ff" points="422.09,-78.91 412.58,-74.25 417.11,-83.83 422.09,-78.91"/>
</a>
</g>
</g>
<!-- Node13&#45;&gt;Node6 -->
<g id="edge26_Node000013_Node000006" class="edge">
<title>Node13&#45;&gt;Node6</title>
<g id="a_edge26_Node000013_Node000006"><a xlink:title=" ">
<path fill="none" stroke="#63b8ff" d="M499.3,-164.97C443.76,-138.18 272.65,-55.66 205.98,-23.51"/>
<polygon fill="#63b8ff" stroke="#63b8ff" points="207.46,-20.34 196.93,-19.15 204.42,-26.64 207.46,-20.34"/>
</a>
</g>
</g>
<!-- Node13&#45;&gt;Node7 -->
<g id="edge27_Node000013_Node000007" class="edge">
<title>Node13&#45;&gt;Node7</title>
<g id="a_edge27_Node000013_Node000007"><a xlink:title=" ">
<path fill="none" stroke="#63b8ff" d="M513.91,-164.72C510.86,-155.8 506.18,-141.56 503,-129 494.15,-94.08 486.82,-52.64 482.95,-29.17"/>
<polygon fill="#63b8ff" stroke="#63b8ff" points="486.39,-28.51 481.34,-19.2 479.48,-29.63 486.39,-28.51"/>
</a>
</g>
</g>
<!-- Node14 -->
<g id="Node000014" class="node">
<title>Node14</title>
<g id="a_Node000014"><a xlink:href="CCSDSConfig_8h.html" target="_top" xlink:title=" ">
<polygon fill="white" stroke="#666666" points="601.5,-129 512.5,-129 512.5,-110 601.5,-110 601.5,-129"/>
<text text-anchor="middle" x="557" y="-117" font-family="Helvetica,sans-Serif" font-size="10.00">CCSDSConfig.h</text>
</a>
</g>
</g>
<!-- Node13&#45;&gt;Node14 -->
<g id="edge21_Node000013_Node000014" class="edge">
<title>Node13&#45;&gt;Node14</title>
<g id="a_edge21_Node000013_Node000014"><a xlink:title=" ">
<path fill="none" stroke="#63b8ff" d="M523.61,-164.75C529.26,-157.26 537.54,-146.28 544.45,-137.13"/>
<polygon fill="#63b8ff" stroke="#63b8ff" points="547.29,-139.18 550.52,-129.09 541.7,-134.96 547.29,-139.18"/>
</a>
</g>
</g>
<!-- Node14&#45;&gt;Node3 -->
<g id="edge25_Node000014_Node000003" class="edge">
<title>Node14&#45;&gt;Node3</title>
<g id="a_edge25_Node000014_Node000003"><a xlink:title=" ">
<path fill="none" stroke="#63b8ff" d="M532.42,-109.98C506.95,-101.16 466.96,-87.31 438.37,-77.41"/>
<polygon fill="#63b8ff" stroke="#63b8ff" points="439.37,-74.05 428.77,-74.08 437.08,-80.66 439.37,-74.05"/>
</a>
</g>
</g>
<!-- Node14&#45;&gt;Node6 -->
<g id="edge24_Node000014_Node000006" class="edge">
<title>Node14&#45;&gt;Node6</title>
<g id="a_edge24_Node000014_Node000006"><a xlink:title=" ">
<path fill="none" stroke="#63b8ff" d="M546.68,-109.89C529.35,-95.93 492.77,-68.56 457,-55 412.73,-38.22 276.28,-21.36 212.5,-14.14"/>
<polygon fill="#63b8ff" stroke="#63b8ff" points="212.88,-10.66 202.55,-13.03 212.1,-17.62 212.88,-10.66"/>
</a>
</g>
</g>
<!-- Node14&#45;&gt;Node7 -->
<g id="edge23_Node000014_Node000007" class="edge">
<title>Node14&#45;&gt;Node7</title>
<g id="a_edge23_Node000014_Node000007"><a xlink:title=" ">
<path fill="none" stroke="#63b8ff" d="M555.34,-109.59C552.6,-96.63 546.17,-72.24 534,-55 525.68,-43.21 513.46,-32.79 502.75,-24.99"/>
<polygon fill="#63b8ff" stroke="#63b8ff" points="504.44,-21.91 494.22,-19.1 500.46,-27.66 504.44,-21.91"/>
</a>
</g>
</g>
<!-- Node14&#45;&gt;Node15 -->
<g id="edge22_Node000014_Node000015" class="edge">
<title>Node14&#45;&gt;Node15</title>
<g id="a_edge22_Node000014_Node000015"><a xlink:title=" ">
<path fill="none" stroke="#63b8ff" d="M587.53,-109.98C622.47,-100.24 679.45,-84.34 715,-74.43"/>
<polygon fill="#63b8ff" stroke="#63b8ff" points="716.17,-77.73 724.86,-71.68 714.29,-70.99 716.17,-77.73"/>
</a>
</g>
</g>
<!-- Node16&#45;&gt;Node4 -->
<g id="edge30_Node000016_Node000004" class="edge">
<title>Node16&#45;&gt;Node4</title>
<g id="a_edge30_Node000016_Node000004"><a xlink:title=" ">
<path fill="none" stroke="#63b8ff" d="M750.67,-219.75C767.32,-192.86 812.77,-109.92 778,-55 768.15,-39.44 751.23,-29.22 734.44,-22.55"/>
<polygon fill="#63b8ff" stroke="#63b8ff" points="735.21,-19.1 724.62,-19.01 732.84,-25.69 735.21,-19.1"/>
</a>
</g>
</g>
<!-- Node16&#45;&gt;Node12 -->
<g id="edge29_Node000016_Node000012" class="edge">
<title>Node16&#45;&gt;Node12</title>
<g id="a_edge29_Node000016_Node000012"><a xlink:title=" ">
<path fill="none" stroke="#63b8ff" d="M762.51,-219.98C779.97,-211.5 807.01,-198.35 827.17,-188.54"/>
<polygon fill="#63b8ff" stroke="#63b8ff" points="828.71,-191.69 836.17,-184.17 825.64,-185.4 828.71,-191.69"/>
</a>
</g>
</g>
<!-- Node16&#45;&gt;Node13 -->
<g id="edge33_Node000016_Node000013" class="edge">
<title>Node16&#45;&gt;Node13</title>
<g id="a_edge33_Node000016_Node000013"><a xlink:title=" ">
<path fill="none" stroke="#63b8ff" d="M708.37,-219.98C669.09,-210.86 606.63,-196.33 563.81,-186.38"/>
<polygon fill="#63b8ff" stroke="#63b8ff" points="564.45,-182.94 553.92,-184.08 562.87,-189.76 564.45,-182.94"/>
</a>
</g>
</g>
<!-- Node16&#45;&gt;Node15 -->
<g id="edge32_Node000016_Node000015" class="edge">
<title>Node16&#45;&gt;Node15</title>
<g id="a_edge32_Node000016_Node000015"><a xlink:title=" ">
<path fill="none" stroke="#63b8ff" d="M745.11,-219.74C745.42,-194.31 746.33,-120.08 746.76,-84.69"/>
<polygon fill="#63b8ff" stroke="#63b8ff" points="750.27,-84.35 746.89,-74.31 743.27,-84.26 750.27,-84.35"/>
</a>
</g>
</g>
<!-- Node17 -->
<g id="Node000017" class="node">
<title>Node17</title>
<g id="a_Node000017"><a xlink:title=" ">
<polygon fill="#e0e0e0" stroke="#999999" points="730.5,-184 665.5,-184 665.5,-165 730.5,-165 730.5,-184"/>
<text text-anchor="middle" x="698" y="-172" font-family="Helvetica,sans-Serif" font-size="10.00">functional</text>
</a>
</g>
</g>
<!-- Node16&#45;&gt;Node17 -->
<g id="edge31_Node000016_Node000017" class="edge">
<title>Node16&#45;&gt;Node17</title>
<g id="a_edge31_Node000016_Node000017"><a xlink:title=" ">
<path fill="none" stroke="#63b8ff" d="M737.24,-219.75C730.53,-212.18 720.66,-201.05 712.49,-191.84"/>
<polygon fill="#63b8ff" stroke="#63b8ff" points="714.87,-189.25 705.62,-184.09 709.63,-193.89 714.87,-189.25"/>
</a>
</g>
</g>
<!-- Node18&#45;&gt;Node3 -->
<g id="edge37_Node000018_Node000003" class="edge">
<title>Node18&#45;&gt;Node3</title>
<g id="a_edge37_Node000018_Node000003"><a xlink:title=" ">
<path fill="none" stroke="#63b8ff" d="M503.11,-274.81C480.16,-259.6 434.92,-225.75 415,-184 399.48,-151.48 400,-108.28 401.91,-84.04"/>
<polygon fill="#63b8ff" stroke="#63b8ff" points="405.4,-84.35 402.86,-74.07 398.43,-83.69 405.4,-84.35"/>
</a>
</g>
</g>
<!-- Node18&#45;&gt;Node13 -->
<g id="edge35_Node000018_Node000013" class="edge">
<title>Node18&#45;&gt;Node13</title>
<g id="a_edge35_Node000018_Node000013"><a xlink:title=" ">
<path fill="none" stroke="#63b8ff" d="M517,-274.66C517,-257.17 517,-217.8 517,-194.27"/>
<polygon fill="#63b8ff" stroke="#63b8ff" points="520.5,-194.16 517,-184.16 513.5,-194.16 520.5,-194.16"/>
</a>
</g>
</g>
<!-- Node18&#45;&gt;Node14 -->
<g id="edge38_Node000018_Node000014" class="edge">
<title>Node18&#45;&gt;Node14</title>
<g id="a_edge38_Node000018_Node000014"><a xlink:title=" ">
<path fill="none" stroke="#63b8ff" d="M531.18,-274.96C554.53,-259.98 600.23,-226.46 618,-184 626.7,-163.21 605.15,-145.31 585.31,-133.86"/>
<polygon fill="#63b8ff" stroke="#63b8ff" points="586.89,-130.74 576.42,-129.07 583.56,-136.9 586.89,-130.74"/>
</a>
</g>
</g>
<!-- Node18&#45;&gt;Node16 -->
<g id="edge36_Node000018_Node000016" class="edge">
<title>Node18&#45;&gt;Node16</title>
<g id="a_edge36_Node000018_Node000016"><a xlink:title=" ">
<path fill="none" stroke="#63b8ff" d="M553.63,-274.98C592.91,-265.86 655.37,-251.33 698.19,-241.38"/>
<polygon fill="#63b8ff" stroke="#63b8ff" points="699.13,-244.76 708.08,-239.08 697.55,-237.94 699.13,-244.76"/>
</a>
</g>
</g>
<!-- Node19&#45;&gt;Node3 -->
<g id="edge42_Node000019_Node000003" class="edge">
<title>Node19&#45;&gt;Node3</title>
<g id="a_edge42_Node000019_Node000003"><a xlink:title=" ">
<path fill="none" stroke="#63b8ff" d="M162.49,-494.99C155.4,-476.97 140,-433.49 140,-395.5 140,-395.5 140,-395.5 140,-228.5 140,-174.72 300.62,-105.67 371.29,-77.89"/>
<polygon fill="#63b8ff" stroke="#63b8ff" points="372.98,-80.98 381.03,-74.1 370.45,-74.46 372.98,-80.98"/>
</a>
</g>
</g>
<!-- Node19&#45;&gt;Node10 -->
<g id="edge41_Node000019_Node000010" class="edge">
<title>Node19&#45;&gt;Node10</title>
<g id="a_edge41_Node000019_Node000010"><a xlink:title=" ">
<path fill="none" stroke="#63b8ff" d="M168.7,-494.95C173.08,-482.02 182.73,-457.17 197,-440 207.04,-427.92 221.01,-417.31 232.95,-409.48"/>
<polygon fill="#63b8ff" stroke="#63b8ff" points="234.97,-412.34 241.58,-404.06 231.25,-406.41 234.97,-412.34"/>
</a>
</g>
</g>
<!-- Node20 -->
<g id="Node000020" class="node">
<title>Node20</title>
<g id="a_Node000020"><a xlink:title=" ">
<polygon fill="#e0e0e0" stroke="#999999" points="111.5,-459 66.5,-459 66.5,-440 111.5,-440 111.5,-459"/>
<text text-anchor="middle" x="89" y="-447" font-family="Helvetica,sans-Serif" font-size="10.00">utility</text>
</a>
</g>
</g>
<!-- Node19&#45;&gt;Node20 -->
<g id="edge40_Node000019_Node000020" class="edge">
<title>Node19&#45;&gt;Node20</title>
<g id="a_edge40_Node000019_Node000020"><a xlink:title=" ">
<path fill="none" stroke="#63b8ff" d="M153.63,-494.98C141.91,-486.92 124.08,-474.65 110.11,-465.03"/>
<polygon fill="#63b8ff" stroke="#63b8ff" points="111.82,-461.96 101.6,-459.17 107.85,-467.72 111.82,-461.96"/>
</a>
</g>
</g>
<!-- Node21 -->
<g id="Node000021" class="node">
<title>Node21</title>
<g id="a_Node000021"><a xlink:href="CCSDSValidator_8h.html" target="_top" xlink:title="Defines the Validator class for CCSDS packet validation.">
<polygon fill="white" stroke="#666666" points="307.5,-459 206.5,-459 206.5,-440 307.5,-440 307.5,-459"/>
<text text-anchor="middle" x="257" y="-447" font-family="Helvetica,sans-Serif" font-size="10.00">CCSDSValidator.h</text>
</a>
</g>
</g>
<!-- Node19&#45;&gt;Node21 -->
<g id="edge43_Node000019_Node000021" class="edge">
<title>Node19&#45;&gt;Node21</title>
<g id="a_edge43_Node000019_Node000021"><a xlink:title=" ">
<path fill="none" stroke="#63b8ff" d="M180.62,-494.98C194.86,-486.69 216.75,-473.94 233.45,-464.22"/>
<polygon fill="#63b8ff" stroke="#63b8ff" points="235.23,-467.23 242.11,-459.17 231.71,-461.18 235.23,-467.23"/>
</a>
</g>
</g>
<!-- Node21&#45;&gt;Node10 -->
<g id="edge44_Node000021_Node000010" class="edge">
<title>Node21&#45;&gt;Node10</title>
<g id="a_edge44_Node000021_Node000010"><a xlink:title=" ">
<path fill="none" stroke="#63b8ff" d="M257,-439.75C257,-432.8 257,-422.85 257,-414.13"/>
<polygon fill="#63b8ff" stroke="#63b8ff" points="260.5,-414.09 257,-404.09 253.5,-414.09 260.5,-414.09"/>
</a>
</g>
</g>
</g>
</svg>
