<?xml version="1.0" encoding="UTF-8" standalone="no"?>
<!DOCTYPE svg PUBLIC "-//W3C//DTD SVG 1.1//EN"
 "http://www.w3.org/Graphics/SVG/1.1/DTD/svg11.dtd">
<!-- Generated by graphviz version 2.43.0 (0)
 -->
<!-- Title: inc/CCSDSConfig.h Pages: 1 -->
<!--zoomable 599 -->

<svg id="main" version="1.1" xmlns="http://www.w3.org/2000/svg" xmlns:xlink="http://www.w3.org/1999/xlink" xml:space="preserve" onload="init(evt)">
<style type="text/css"><![CDATA[
.node, .edge {opacity: 0.7;}
.node.selected, .edge.selected {opacity: 1;}
.edge:hover path { stroke: red; }
.edge:hover polygon { stroke: red; fill: red; }
]]></style>

<defs>
  <circle id="rim" cx="0" cy="0" r="7"/>
  <circle id="rim2" cx="0" cy="0" r="3.5"/>
  <g id="zoomPlus">
    <use xlink:href="#rim" fill="#404040"><set attributeName="fill" to="#808080" begin="zoomplus.mouseover" end="zoomplus.mouseout"/></use>
    <path d="M-4,0h8M0,-4v8" fill="none" stroke="white" stroke-width="1.5" pointer-events="none"/>
  </g>
  <g id="zoomMin">
    <use xlink:href="#rim" fill="#404040"><set attributeName="fill" to="#808080" begin="zoomminus.mouseover" end="zoomminus.mouseout"/></use>
    <path d="M-4,0h8" fill="none" stroke="white" stroke-width="1.5" pointer-events="none"/>
  </g>
  <g id="arrowUp" transform="translate(30 24)">
    <use xlink:href="#rim"/>
    <path pointer-events="none" fill="none" stroke="white" stroke-width="1.5" d="M0,-3.0v7 M-2.5,-0.5L0,-3.0L2.5,-0.5"/>
  </g>
  <g id="arrowRight" transform="rotate(90) translate(36 -43)">
    <use xlink:href="#rim"/>
    <path pointer-events="none" fill="none" stroke="white" stroke-width="1.5" d="M0,-3.0v7 M-2.5,-0.5L0,-3.0L2.5,-0.5"/>
  </g>
  <g id="arrowDown" transform="rotate(180) translate(-30 -48)">
    <use xlink:href="#rim"/>
    <path pointer-events="none" fill="none" stroke="white" stroke-width="1.5" d="M0,-3.0v7 M-2.5,-0.5L0,-3.0L2.5,-0.5"/>
  </g>
  <g id="arrowLeft" transform="rotate(270) translate(-36 17)">
    <use xlink:href="#rim"/>
    <path pointer-events="none" fill="none" stroke="white" stroke-width="1.5" d="M0,-3.0v7 M-2.5,-0.5L0,-3.0L2.5,-0.5"/>
  </g>
  <g id="resetDef">
    <use xlink:href="#rim2" fill="#404040"><set attributeName="fill" to="#808080" begin="reset.mouseover" end="reset.mouseout"/></use>
  </g>
</defs>
<script type="application/ecmascript">
var viewWidth = 951;
var viewHeight = 599;
var sectionId = 'dynsection-1';
</script>
<script type="application/ecmascript" xlink:href="svg.min.js"/>
<svg id="graph" class="graph">
<g id="viewport">
<title>inc/CCSDSConfig.h</title>
<!-- Node1 -->
<g id="Node000001" class="node">
<title>Node1</title>
<g id="a_Node000001"><a xlink:title=" ">
<polygon fill="#999999" stroke="#666666" points="191,-591 84,-591 84,-572 191,-572 191,-591"/>
<text text-anchor="middle" x="137.5" y="-579" font-family="Helvetica,sans-Serif" font-size="10.00">inc/CCSDSConfig.h</text>
</a>
</g>
</g>
<!-- Node2 -->
<g id="Node000002" class="node">
<title>Node2</title>
<g id="a_Node000002"><a xlink:href="CCSDSSecondaryHeaderAbstract_8h.html" target="_top" xlink:title=" ">
<polygon fill="white" stroke="#666666" points="267,-536 114,-536 114,-506 267,-506 267,-536"/>
<text text-anchor="start" x="122" y="-524" font-family="Helvetica,sans-Serif" font-size="10.00">inc/CCSDSSecondaryHeader</text>
<text text-anchor="middle" x="190.5" y="-513" font-family="Helvetica,sans-Serif" font-size="10.00">Abstract.h</text>
</a>
</g>
</g>
<!-- Node1&#45;&gt;Node2 -->
<g id="edge1_Node000001_Node000002" class="edge">
<title>Node1&#45;&gt;Node2</title>
<g id="a_edge1_Node000001_Node000002"><a xlink:title=" ">
<path fill="none" stroke="#63b8ff" d="M152.06,-564.43C160.1,-555.56 169.98,-544.65 177.71,-536.11"/>
<polygon fill="#63b8ff" stroke="#63b8ff" points="149.44,-562.11 145.32,-571.87 154.63,-566.81 149.44,-562.11"/>
</a>
</g>
</g>
<!-- Node13 -->
<g id="Node000013" class="node">
<title>Node13</title>
<g id="a_Node000013"><a xlink:href="CCSDSPacket_8cpp.html" target="_top" xlink:title=" ">
<polygon fill="white" stroke="#666666" points="119,-74 0,-74 0,-55 119,-55 119,-74"/>
<text text-anchor="middle" x="59.5" y="-62" font-family="Helvetica,sans-Serif" font-size="10.00">src/CCSDSPacket.cpp</text>
</a>
</g>
</g>
<!-- Node1&#45;&gt;Node13 -->
<g id="edge41_Node000001_Node000013" class="edge">
<title>Node1&#45;&gt;Node13</title>
<g id="a_edge41_Node000001_Node000013"><a xlink:title=" ">
<path fill="none" stroke="#63b8ff" d="M107.63,-567.7C69.53,-549.12 8.5,-510.8 8.5,-456 8.5,-456 8.5,-456 8.5,-173.5 8.5,-133.07 38.09,-91.57 52.19,-74.09"/>
<polygon fill="#63b8ff" stroke="#63b8ff" points="106.23,-570.91 116.77,-571.99 109.21,-564.57 106.23,-570.91"/>
</a>
</g>
</g>
<!-- Node20 -->
<g id="Node000020" class="node">
<title>Node20</title>
<g id="a_Node000020"><a xlink:href="PusServices_8h.html" target="_top" xlink:title=" ">
<polygon fill="white" stroke="#666666" points="176,-404 75,-404 75,-385 176,-385 176,-404"/>
<text text-anchor="middle" x="125.5" y="-392" font-family="Helvetica,sans-Serif" font-size="10.00">inc/PusServices.h</text>
</a>
</g>
</g>
<!-- Node1&#45;&gt;Node20 -->
<g id="edge39_Node000001_Node000020" class="edge">
<title>Node1&#45;&gt;Node20</title>
<g id="a_edge39_Node000001_Node000020"><a xlink:title=" ">
<path fill="none" stroke="#63b8ff" d="M121.58,-564.34C114.93,-556.47 107.96,-546.46 104.5,-536 88.64,-487.99 111.65,-426.78 121.44,-404.29"/>
<polygon fill="#63b8ff" stroke="#63b8ff" points="119.17,-566.9 128.48,-571.96 124.36,-562.2 119.17,-566.9"/>
</a>
</g>
</g>
<!-- Node21 -->
<g id="Node000021" class="node">
<title>Node21</title>
<g id="a_Node000021"><a xlink:href="CCSDSConfig_8cpp.html" target="_top" xlink:title=" ">
<polygon fill="white" stroke="#666666" points="403.5,-530.5 285.5,-530.5 285.5,-511.5 403.5,-511.5 403.5,-530.5"/>
<text text-anchor="middle" x="344.5" y="-518.5" font-family="Helvetica,sans-Serif" font-size="10.00">src/CCSDSConfig.cpp</text>
</a>
</g>
</g>
<!-- Node1&#45;&gt;Node21 -->
<g id="edge40_Node000001_Node000021" class="edge">
<title>Node1&#45;&gt;Node21</title>
<g id="a_edge40_Node000001_Node000021"><a xlink:title=" ">
<path fill="none" stroke="#63b8ff" d="M177.3,-569.25C217.33,-557.94 278.17,-540.75 314.36,-530.52"/>
<polygon fill="#63b8ff" stroke="#63b8ff" points="176.27,-565.91 167.6,-571.99 178.17,-572.64 176.27,-565.91"/>
</a>
</g>
</g>
<!-- Node3 -->
<g id="Node000003" class="node">
<title>Node3</title>
<g id="a_Node000003"><a xlink:href="CCSDSDataField_8h.html" target="_top" xlink:title=" ">
<polygon fill="white" stroke="#666666" points="423.5,-349 301.5,-349 301.5,-330 423.5,-330 423.5,-349"/>
<text text-anchor="middle" x="362.5" y="-337" font-family="Helvetica,sans-Serif" font-size="10.00">inc/CCSDSDataField.h</text>
</a>
</g>
</g>
<!-- Node2&#45;&gt;Node3 -->
<g id="edge2_Node000002_Node000003" class="edge">
<title>Node2&#45;&gt;Node3</title>
<g id="a_edge2_Node000002_Node000003"><a xlink:title=" ">
<path fill="none" stroke="#63b8ff" d="M263.62,-502.46C282.46,-495.02 301.38,-484.58 315.5,-470 349.94,-434.43 359.41,-371.71 361.78,-349.01"/>
<polygon fill="#63b8ff" stroke="#63b8ff" points="262.27,-499.22 254.1,-505.97 264.69,-505.79 262.27,-499.22"/>
</a>
</g>
</g>
<!-- Node4 -->
<g id="Node000004" class="node">
<title>Node4</title>
<g id="a_Node000004"><a xlink:href="CCSDSPack_8h.html" target="_top" xlink:title=" ">
<polygon fill="white" stroke="#666666" points="247.5,-74 149.5,-74 149.5,-55 247.5,-55 247.5,-74"/>
<text text-anchor="middle" x="198.5" y="-62" font-family="Helvetica,sans-Serif" font-size="10.00">inc/CCSDSPack.h</text>
</a>
</g>
</g>
<!-- Node2&#45;&gt;Node4 -->
<g id="edge29_Node000002_Node000004" class="edge">
<title>Node2&#45;&gt;Node4</title>
<g id="a_edge29_Node000002_Node000004"><a xlink:title=" ">
<path fill="none" stroke="#63b8ff" d="M142.64,-501.87C100.74,-482.51 46.5,-447.42 46.5,-395.5 46.5,-395.5 46.5,-395.5 46.5,-283.5 46.5,-185.92 150.25,-100.78 186.32,-74.13"/>
<polygon fill="#63b8ff" stroke="#63b8ff" points="141.35,-505.12 151.91,-505.99 144.2,-498.73 141.35,-505.12"/>
</a>
</g>
</g>
<!-- Node19 -->
<g id="Node000019" class="node">
<title>Node19</title>
<g id="a_Node000019"><a xlink:href="CCSDSSecondaryHeaderFactory_8h.html" target="_top" xlink:title=" ">
<polygon fill="white" stroke="#666666" points="307,-470 154,-470 154,-440 307,-440 307,-470"/>
<text text-anchor="start" x="162" y="-458" font-family="Helvetica,sans-Serif" font-size="10.00">inc/CCSDSSecondaryHeader</text>
<text text-anchor="middle" x="230.5" y="-447" font-family="Helvetica,sans-Serif" font-size="10.00">Factory.h</text>
</a>
</g>
</g>
<!-- Node2&#45;&gt;Node19 -->
<g id="edge30_Node000002_Node000019" class="edge">
<title>Node2&#45;&gt;Node19</title>
<g id="a_edge30_Node000002_Node000019"><a xlink:title=" ">
<path fill="none" stroke="#63b8ff" d="M204.72,-497.24C210.37,-488.21 216.68,-478.11 221.65,-470.16"/>
<polygon fill="#63b8ff" stroke="#63b8ff" points="201.71,-495.46 199.38,-505.8 207.65,-499.17 201.71,-495.46"/>
</a>
</g>
</g>
<!-- Node2&#45;&gt;Node20 -->
<g id="edge38_Node000002_Node000020" class="edge">
<title>Node2&#45;&gt;Node20</title>
<g id="a_edge38_Node000002_Node000020"><a xlink:title=" ">
<path fill="none" stroke="#63b8ff" d="M166.59,-498.74C158.55,-490.48 150.18,-480.48 144.5,-470 132.67,-448.17 128,-418.74 126.33,-404.27"/>
<polygon fill="#63b8ff" stroke="#63b8ff" points="164.21,-501.31 173.8,-505.81 169.11,-496.31 164.21,-501.31"/>
</a>
</g>
</g>
<!-- Node3&#45;&gt;Node4 -->
<g id="edge3_Node000003_Node000004" class="edge">
<title>Node3&#45;&gt;Node4</title>
<g id="a_edge3_Node000003_Node000004"><a xlink:title=" ">
<path fill="none" stroke="#63b8ff" d="M327.76,-326.01C290.46,-310.11 236.5,-278.77 236.5,-230.5 236.5,-230.5 236.5,-230.5 236.5,-173.5 236.5,-134.54 214.23,-91.93 203.78,-74.1"/>
<polygon fill="#63b8ff" stroke="#63b8ff" points="326.72,-329.37 337.3,-329.91 329.37,-322.89 326.72,-329.37"/>
</a>
</g>
</g>
<!-- Node8 -->
<g id="Node000008" class="node">
<title>Node8</title>
<g id="a_Node000008"><a xlink:href="CCSDSPacket_8h.html" target="_top" xlink:title=" ">
<polygon fill="white" stroke="#666666" points="416,-294 309,-294 309,-275 416,-275 416,-294"/>
<text text-anchor="middle" x="362.5" y="-282" font-family="Helvetica,sans-Serif" font-size="10.00">inc/CCSDSPacket.h</text>
</a>
</g>
</g>
<!-- Node3&#45;&gt;Node8 -->
<g id="edge7_Node000003_Node000008" class="edge">
<title>Node3&#45;&gt;Node8</title>
<g id="a_edge7_Node000003_Node000008"><a xlink:title=" ">
<path fill="none" stroke="#63b8ff" d="M362.5,-319.66C362.5,-310.93 362.5,-300.99 362.5,-294.09"/>
<polygon fill="#63b8ff" stroke="#63b8ff" points="359,-319.75 362.5,-329.75 366,-319.75 359,-319.75"/>
</a>
</g>
</g>
<!-- Node3&#45;&gt;Node13 -->
<g id="edge27_Node000003_Node000013" class="edge">
<title>Node3&#45;&gt;Node13</title>
<g id="a_edge27_Node000003_Node000013"><a xlink:title=" ">
<path fill="none" stroke="#63b8ff" d="M320.2,-326.82C298.42,-319.54 272.18,-308.73 251.5,-294 159.08,-228.16 84.27,-107.75 64.58,-74.31"/>
<polygon fill="#63b8ff" stroke="#63b8ff" points="319.27,-330.19 329.86,-329.91 321.41,-323.53 319.27,-330.19"/>
</a>
</g>
</g>
<!-- Node16 -->
<g id="Node000016" class="node">
<title>Node16</title>
<g id="a_Node000016"><a xlink:href="PusServices_8cpp.html" target="_top" xlink:title=" ">
<polygon fill="white" stroke="#666666" points="943,-74 830,-74 830,-55 943,-55 943,-74"/>
<text text-anchor="middle" x="886.5" y="-62" font-family="Helvetica,sans-Serif" font-size="10.00">src/PusServices.cpp</text>
</a>
</g>
</g>
<!-- Node3&#45;&gt;Node16 -->
<g id="edge28_Node000003_Node000016" class="edge">
<title>Node3&#45;&gt;Node16</title>
<g id="a_edge28_Node000003_Node000016"><a xlink:title=" ">
<path fill="none" stroke="#63b8ff" d="M433.81,-337.63C509.56,-332.47 618.5,-311.06 618.5,-230.5 618.5,-230.5 618.5,-230.5 618.5,-173.5 618.5,-126.03 764.96,-89.72 841.34,-74.02"/>
<polygon fill="#63b8ff" stroke="#63b8ff" points="433.59,-334.13 423.82,-338.23 434.01,-341.12 433.59,-334.13"/>
</a>
</g>
</g>
<!-- Node18 -->
<g id="Node000018" class="node">
<title>Node18</title>
<g id="a_Node000018"><a xlink:href="CCSDSDataField_8cpp.html" target="_top" xlink:title=" ">
<polygon fill="white" stroke="#666666" points="780.5,-294 646.5,-294 646.5,-275 780.5,-275 780.5,-294"/>
<text text-anchor="middle" x="713.5" y="-282" font-family="Helvetica,sans-Serif" font-size="10.00">src/CCSDSDataField.cpp</text>
</a>
</g>
</g>
<!-- Node3&#45;&gt;Node18 -->
<g id="edge26_Node000003_Node000018" class="edge">
<title>Node3&#45;&gt;Node18</title>
<g id="a_edge26_Node000003_Node000018"><a xlink:title=" ">
<path fill="none" stroke="#63b8ff" d="M429.17,-328.43C495.08,-318.48 594.81,-303.42 656.96,-294.04"/>
<polygon fill="#63b8ff" stroke="#63b8ff" points="428.26,-325.03 418.89,-329.98 429.3,-331.95 428.26,-325.03"/>
</a>
</g>
</g>
<!-- Node5 -->
<g id="Node000005" class="node">
<title>Node5</title>
<g id="a_Node000005"><a xlink:href="exec__decoder_8cpp.html" target="_top" xlink:title=" ">
<polygon fill="white" stroke="#666666" points="120.5,-19 0.5,-19 0.5,0 120.5,0 120.5,-19"/>
<text text-anchor="middle" x="60.5" y="-7" font-family="Helvetica,sans-Serif" font-size="10.00">src/exec_decoder.cpp</text>
</a>
</g>
</g>
<!-- Node4&#45;&gt;Node5 -->
<g id="edge4_Node000004_Node000005" class="edge">
<title>Node4&#45;&gt;Node5</title>
<g id="a_edge4_Node000004_Node000005"><a xlink:title=" ">
<path fill="none" stroke="#63b8ff" d="M166.71,-51.29C141.13,-41.47 105.83,-27.91 83.08,-19.17"/>
<polygon fill="#63b8ff" stroke="#63b8ff" points="165.74,-54.67 176.33,-54.98 168.25,-48.13 165.74,-54.67"/>
</a>
</g>
</g>
<!-- Node6 -->
<g id="Node000006" class="node">
<title>Node6</title>
<g id="a_Node000006"><a xlink:href="exec__encoder_8cpp.html" target="_top" xlink:title=" ">
<polygon fill="white" stroke="#666666" points="258.5,-19 138.5,-19 138.5,0 258.5,0 258.5,-19"/>
<text text-anchor="middle" x="198.5" y="-7" font-family="Helvetica,sans-Serif" font-size="10.00">src/exec_encoder.cpp</text>
</a>
</g>
</g>
<!-- Node4&#45;&gt;Node6 -->
<g id="edge5_Node000004_Node000006" class="edge">
<title>Node4&#45;&gt;Node6</title>
<g id="a_edge5_Node000004_Node000006"><a xlink:title=" ">
<path fill="none" stroke="#63b8ff" d="M198.5,-44.66C198.5,-35.93 198.5,-25.99 198.5,-19.09"/>
<polygon fill="#63b8ff" stroke="#63b8ff" points="195,-44.75 198.5,-54.75 202,-44.75 195,-44.75"/>
</a>
</g>
</g>
<!-- Node7 -->
<g id="Node000007" class="node">
<title>Node7</title>
<g id="a_Node000007"><a xlink:href="exec__validator_8cpp.html" target="_top" xlink:title=" ">
<polygon fill="white" stroke="#666666" points="402,-19 277,-19 277,0 402,0 402,-19"/>
<text text-anchor="middle" x="339.5" y="-7" font-family="Helvetica,sans-Serif" font-size="10.00">src/exec_validator.cpp</text>
</a>
</g>
</g>
<!-- Node4&#45;&gt;Node7 -->
<g id="edge6_Node000004_Node000007" class="edge">
<title>Node4&#45;&gt;Node7</title>
<g id="a_edge6_Node000004_Node000007"><a xlink:title=" ">
<path fill="none" stroke="#63b8ff" d="M230.64,-51.42C256.79,-41.59 293.09,-27.95 316.43,-19.17"/>
<polygon fill="#63b8ff" stroke="#63b8ff" points="229.28,-48.19 221.15,-54.98 231.75,-54.74 229.28,-48.19"/>
</a>
</g>
</g>
<!-- Node8&#45;&gt;Node4 -->
<g id="edge19_Node000008_Node000004" class="edge">
<title>Node8&#45;&gt;Node4</title>
<g id="a_edge19_Node000008_Node000004"><a xlink:title=" ">
<path fill="none" stroke="#63b8ff" d="M332.89,-270.2C319.23,-262.75 303.79,-252.27 293.5,-239 256.45,-191.25 284.24,-160.14 250.5,-110 240.42,-95.02 223.97,-82.14 212.28,-74.15"/>
<polygon fill="#63b8ff" stroke="#63b8ff" points="331.48,-273.41 341.98,-274.87 334.68,-267.18 331.48,-273.41"/>
</a>
</g>
</g>
<!-- Node9 -->
<g id="Node000009" class="node">
<title>Node9</title>
<g id="a_Node000009"><a xlink:href="CCSDSManager_8h.html" target="_top" xlink:title=" ">
<polygon fill="white" stroke="#666666" points="496.5,-184 378.5,-184 378.5,-165 496.5,-165 496.5,-184"/>
<text text-anchor="middle" x="437.5" y="-172" font-family="Helvetica,sans-Serif" font-size="10.00">inc/CCSDSManager.h</text>
</a>
</g>
</g>
<!-- Node8&#45;&gt;Node9 -->
<g id="edge8_Node000008_Node000009" class="edge">
<title>Node8&#45;&gt;Node9</title>
<g id="a_edge8_Node000008_Node000009"><a xlink:title=" ">
<path fill="none" stroke="#63b8ff" d="M394.09,-270.37C407.54,-263.13 422.04,-252.77 430.5,-239 441.06,-221.8 440.14,-196.96 438.73,-184.04"/>
<polygon fill="#63b8ff" stroke="#63b8ff" points="392.42,-267.29 385.04,-274.89 395.55,-273.56 392.42,-267.29"/>
</a>
</g>
</g>
<!-- Node10 -->
<g id="Node000010" class="node">
<title>Node10</title>
<g id="a_Node000010"><a xlink:href="CCSDSUtils_8h.html" target="_top" xlink:title=" ">
<polygon fill="white" stroke="#666666" points="552.5,-129 454.5,-129 454.5,-110 552.5,-110 552.5,-129"/>
<text text-anchor="middle" x="503.5" y="-117" font-family="Helvetica,sans-Serif" font-size="10.00">inc/CCSDSUtils.h</text>
</a>
</g>
</g>
<!-- Node8&#45;&gt;Node10 -->
<g id="edge20_Node000008_Node000010" class="edge">
<title>Node8&#45;&gt;Node10</title>
<g id="a_edge20_Node000008_Node000010"><a xlink:title=" ">
<path fill="none" stroke="#63b8ff" d="M398.57,-271.29C434.31,-256.89 486.37,-229.04 505.5,-184 513.26,-165.73 509.12,-141.76 505.98,-129.14"/>
<polygon fill="#63b8ff" stroke="#63b8ff" points="397.04,-268.13 388.97,-275 399.56,-274.66 397.04,-268.13"/>
</a>
</g>
</g>
<!-- Node8&#45;&gt;Node13 -->
<g id="edge25_Node000008_Node000013" class="edge">
<title>Node8&#45;&gt;Node13</title>
<g id="a_edge25_Node000008_Node000013"><a xlink:title=" ">
<path fill="none" stroke="#63b8ff" d="M334.69,-270.38C317.98,-262.09 296.52,-250.77 278.5,-239 192.4,-182.77 98.72,-100.69 69.05,-74.13"/>
<polygon fill="#63b8ff" stroke="#63b8ff" points="333.41,-273.64 343.93,-274.88 336.48,-267.35 333.41,-273.64"/>
</a>
</g>
</g>
<!-- Node17 -->
<g id="Node000017" class="node">
<title>Node17</title>
<g id="a_Node000017"><a xlink:href="CCSDSValidator_8h.html" target="_top" xlink:title="Defines the Validator class for CCSDS packet validation.">
<polygon fill="white" stroke="#666666" points="422,-239 303,-239 303,-220 422,-220 422,-239"/>
<text text-anchor="middle" x="362.5" y="-227" font-family="Helvetica,sans-Serif" font-size="10.00">inc/CCSDSValidator.h</text>
</a>
</g>
</g>
<!-- Node8&#45;&gt;Node17 -->
<g id="edge21_Node000008_Node000017" class="edge">
<title>Node8&#45;&gt;Node17</title>
<g id="a_edge21_Node000008_Node000017"><a xlink:title=" ">
<path fill="none" stroke="#63b8ff" d="M362.5,-264.66C362.5,-255.93 362.5,-245.99 362.5,-239.09"/>
<polygon fill="#63b8ff" stroke="#63b8ff" points="359,-264.75 362.5,-274.75 366,-264.75 359,-264.75"/>
</a>
</g>
</g>
<!-- Node9&#45;&gt;Node4 -->
<g id="edge9_Node000009_Node000004" class="edge">
<title>Node9&#45;&gt;Node4</title>
<g id="a_edge9_Node000009_Node000004"><a xlink:title=" ">
<path fill="none" stroke="#63b8ff" d="M415.71,-159.42C393.78,-145.64 358.68,-124.65 326.5,-110 293.74,-95.09 254.42,-82.11 228.08,-74.07"/>
<polygon fill="#63b8ff" stroke="#63b8ff" points="413.94,-162.44 424.26,-164.85 417.69,-156.53 413.94,-162.44"/>
</a>
</g>
</g>
<!-- Node9&#45;&gt;Node10 -->
<g id="edge10_Node000009_Node000010" class="edge">
<title>Node9&#45;&gt;Node10</title>
<g id="a_edge10_Node000009_Node000010"><a xlink:title=" ">
<path fill="none" stroke="#63b8ff" d="M456.05,-158.6C467.88,-149.11 482.79,-137.13 492.7,-129.17"/>
<polygon fill="#63b8ff" stroke="#63b8ff" points="453.71,-155.99 448.1,-164.98 458.09,-161.45 453.71,-155.99"/>
</a>
</g>
</g>
<!-- Node12 -->
<g id="Node000012" class="node">
<title>Node12</title>
<g id="a_Node000012"><a xlink:href="CCSDSManager_8cpp.html" target="_top" xlink:title=" ">
<polygon fill="white" stroke="#666666" points="543,-74 414,-74 414,-55 543,-55 543,-74"/>
<text text-anchor="middle" x="478.5" y="-62" font-family="Helvetica,sans-Serif" font-size="10.00">src/CCSDSManager.cpp</text>
</a>
</g>
</g>
<!-- Node9&#45;&gt;Node12 -->
<g id="edge18_Node000009_Node000012" class="edge">
<title>Node9&#45;&gt;Node12</title>
<g id="a_edge18_Node000009_Node000012"><a xlink:title=" ">
<path fill="none" stroke="#63b8ff" d="M437.38,-154.88C437.88,-141.88 439.74,-124.36 445.5,-110 451.09,-96.08 462.12,-82.6 469.89,-74.19"/>
<polygon fill="#63b8ff" stroke="#63b8ff" points="433.88,-154.89 437.23,-164.94 440.88,-154.99 433.88,-154.89"/>
</a>
</g>
</g>
<!-- Node10&#45;&gt;Node4 -->
<g id="edge11_Node000010_Node000004" class="edge">
<title>Node10&#45;&gt;Node4</title>
<g id="a_edge11_Node000010_Node000004"><a xlink:title=" ">
<path fill="none" stroke="#63b8ff" d="M444.5,-108.25C387.23,-98.3 301.3,-83.36 247.63,-74.04"/>
<polygon fill="#63b8ff" stroke="#63b8ff" points="444.04,-111.72 454.5,-109.98 445.24,-104.82 444.04,-111.72"/>
</a>
</g>
</g>
<!-- Node11 -->
<g id="Node000011" class="node">
<title>Node11</title>
<g id="a_Node000011"><a xlink:href="CCSDSHeader_8cpp.html" target="_top" xlink:title=" ">
<polygon fill="white" stroke="#666666" points="811.5,-74 689.5,-74 689.5,-55 811.5,-55 811.5,-74"/>
<text text-anchor="middle" x="750.5" y="-62" font-family="Helvetica,sans-Serif" font-size="10.00">src/CCSDSHeader.cpp</text>
</a>
</g>
</g>
<!-- Node10&#45;&gt;Node11 -->
<g id="edge12_Node000010_Node000011" class="edge">
<title>Node10&#45;&gt;Node11</title>
<g id="a_edge12_Node000010_Node000011"><a xlink:title=" ">
<path fill="none" stroke="#63b8ff" d="M553,-107.88C599.3,-97.94 667.57,-83.3 710.5,-74.08"/>
<polygon fill="#63b8ff" stroke="#63b8ff" points="552.23,-104.46 543.18,-109.98 553.7,-111.31 552.23,-104.46"/>
</a>
</g>
</g>
<!-- Node10&#45;&gt;Node12 -->
<g id="edge13_Node000010_Node000012" class="edge">
<title>Node10&#45;&gt;Node12</title>
<g id="a_edge13_Node000010_Node000012"><a xlink:title=" ">
<path fill="none" stroke="#63b8ff" d="M495.02,-100.53C490.81,-91.6 485.91,-81.22 482.55,-74.09"/>
<polygon fill="#63b8ff" stroke="#63b8ff" points="491.94,-102.2 499.37,-109.75 498.27,-99.21 491.94,-102.2"/>
</a>
</g>
</g>
<!-- Node10&#45;&gt;Node13 -->
<g id="edge14_Node000010_Node000013" class="edge">
<title>Node10&#45;&gt;Node13</title>
<g id="a_edge14_Node000010_Node000013"><a xlink:title=" ">
<path fill="none" stroke="#63b8ff" d="M444.3,-111.43C359.48,-101.31 204.23,-82.78 119.15,-72.62"/>
<polygon fill="#63b8ff" stroke="#63b8ff" points="443.94,-114.92 454.29,-112.63 444.77,-107.96 443.94,-114.92"/>
</a>
</g>
</g>
<!-- Node14 -->
<g id="Node000014" class="node">
<title>Node14</title>
<g id="a_Node000014"><a xlink:href="CCSDSUtils_8cpp.html" target="_top" xlink:title=" ">
<polygon fill="white" stroke="#666666" points="671.5,-74 561.5,-74 561.5,-55 671.5,-55 671.5,-74"/>
<text text-anchor="middle" x="616.5" y="-62" font-family="Helvetica,sans-Serif" font-size="10.00">src/CCSDSUtils.cpp</text>
</a>
</g>
</g>
<!-- Node10&#45;&gt;Node14 -->
<g id="edge15_Node000010_Node000014" class="edge">
<title>Node10&#45;&gt;Node14</title>
<g id="a_edge15_Node000010_Node000014"><a xlink:title=" ">
<path fill="none" stroke="#63b8ff" d="M530.93,-105.63C551.75,-95.87 579.8,-82.71 598.01,-74.17"/>
<polygon fill="#63b8ff" stroke="#63b8ff" points="529.22,-102.57 521.66,-109.98 532.2,-108.91 529.22,-102.57"/>
</a>
</g>
</g>
<!-- Node15 -->
<g id="Node000015" class="node">
<title>Node15</title>
<g id="a_Node000015"><a xlink:href="CCSDSValidator_8cpp.html" target="_top" xlink:title=" ">
<polygon fill="white" stroke="#666666" points="395.5,-74 265.5,-74 265.5,-55 395.5,-55 395.5,-74"/>
<text text-anchor="middle" x="330.5" y="-62" font-family="Helvetica,sans-Serif" font-size="10.00">src/CCSDSValidator.cpp</text>
</a>
</g>
</g>
<!-- Node10&#45;&gt;Node15 -->
<g id="edge16_Node000010_Node000015" class="edge">
<title>Node10&#45;&gt;Node15</title>
<g id="a_edge16_Node000010_Node000015"><a xlink:title=" ">
<path fill="none" stroke="#63b8ff" d="M465.73,-106.93C433.41,-97.03 387.64,-83.01 358.51,-74.08"/>
<polygon fill="#63b8ff" stroke="#63b8ff" points="465.12,-110.4 475.7,-109.98 467.17,-103.71 465.12,-110.4"/>
</a>
</g>
</g>
<!-- Node10&#45;&gt;Node16 -->
<g id="edge17_Node000010_Node000016" class="edge">
<title>Node10&#45;&gt;Node16</title>
<g id="a_edge17_Node000010_Node000016"><a xlink:title=" ">
<path fill="none" stroke="#63b8ff" d="M562.72,-110.3C635.56,-100.22 758.33,-83.24 829.94,-73.33"/>
<polygon fill="#63b8ff" stroke="#63b8ff" points="562.21,-106.84 552.79,-111.68 563.17,-113.78 562.21,-106.84"/>
</a>
</g>
</g>
<!-- Node17&#45;&gt;Node4 -->
<g id="edge23_Node000017_Node000004" class="edge">
<title>Node17&#45;&gt;Node4</title>
<g id="a_edge23_Node000017_Node000004"><a xlink:title=" ">
<path fill="none" stroke="#63b8ff" d="M355.08,-210.48C343.91,-185.21 320.59,-139.06 288.5,-110 270.02,-93.27 244.11,-81.34 224.83,-74.08"/>
<polygon fill="#63b8ff" stroke="#63b8ff" points="351.97,-212.11 359.12,-219.93 358.41,-209.36 351.97,-212.11"/>
</a>
</g>
</g>
<!-- Node17&#45;&gt;Node9 -->
<g id="edge22_Node000017_Node000009" class="edge">
<title>Node17&#45;&gt;Node9</title>
<g id="a_edge22_Node000017_Node000009"><a xlink:title=" ">
<path fill="none" stroke="#63b8ff" d="M382.81,-214.15C396.36,-204.57 413.74,-192.29 425.23,-184.17"/>
<polygon fill="#63b8ff" stroke="#63b8ff" points="380.7,-211.36 374.55,-219.98 384.74,-217.07 380.7,-211.36"/>
</a>
</g>
</g>
<!-- Node17&#45;&gt;Node15 -->
<g id="edge24_Node000017_Node000015" class="edge">
<title>Node17&#45;&gt;Node15</title>
<g id="a_edge24_Node000017_Node000015"><a xlink:title=" ">
<path fill="none" stroke="#63b8ff" d="M358.83,-209.83C351.93,-174.67 337.25,-99.9 332.23,-74.31"/>
<polygon fill="#63b8ff" stroke="#63b8ff" points="355.42,-210.6 360.78,-219.74 362.29,-209.25 355.42,-210.6"/>
</a>
</g>
</g>
<!-- Node19&#45;&gt;Node3 -->
<g id="edge31_Node000019_Node000003" class="edge">
<title>Node19&#45;&gt;Node3</title>
<g id="a_edge31_Node000019_Node000003"><a xlink:title=" ">
<path fill="none" stroke="#63b8ff" d="M254.65,-433.24C283.81,-408.16 331.52,-367.13 352.3,-349.27"/>
<polygon fill="#63b8ff" stroke="#63b8ff" points="252.25,-430.68 246.95,-439.85 256.82,-435.99 252.25,-430.68"/>
</a>
</g>
</g>
<!-- Node19&#45;&gt;Node4 -->
<g id="edge32_Node000019_Node000004" class="edge">
<title>Node19&#45;&gt;Node4</title>
<g id="a_edge32_Node000019_Node000004"><a xlink:title=" ">
<path fill="none" stroke="#63b8ff" d="M224.82,-430.19C215.62,-389.51 198.5,-303.9 198.5,-230.5 198.5,-230.5 198.5,-230.5 198.5,-173.5 198.5,-136.56 198.5,-92.52 198.5,-74.18"/>
<polygon fill="#63b8ff" stroke="#63b8ff" points="221.42,-431.02 227.08,-439.98 228.24,-429.45 221.42,-431.02"/>
</a>
</g>
</g>
<!-- Node19&#45;&gt;Node18 -->
<g id="edge37_Node000019_Node000018" class="edge">
<title>Node19&#45;&gt;Node18</title>
<g id="a_edge37_Node000019_Node000018"><a xlink:title=" ">
<path fill="none" stroke="#63b8ff" d="M280.35,-436.61C382.7,-400.9 613.31,-320.45 688.96,-294.06"/>
<polygon fill="#63b8ff" stroke="#63b8ff" points="279.14,-433.32 270.85,-439.92 281.44,-439.93 279.14,-433.32"/>
</a>
</g>
</g>
<!-- Node19&#45;&gt;Node20 -->
<g id="edge33_Node000019_Node000020" class="edge">
<title>Node19&#45;&gt;Node20</title>
<g id="a_edge33_Node000019_Node000020"><a xlink:title=" ">
<path fill="none" stroke="#63b8ff" d="M196.52,-435.07C177.83,-424.66 155.56,-412.25 141.01,-404.14"/>
<polygon fill="#63b8ff" stroke="#63b8ff" points="194.91,-438.18 205.35,-439.99 198.32,-432.06 194.91,-438.18"/>
</a>
</g>
</g>
<!-- Node20&#45;&gt;Node3 -->
<g id="edge34_Node000020_Node000003" class="edge">
<title>Node20&#45;&gt;Node3</title>
<g id="a_edge34_Node000020_Node000003"><a xlink:title=" ">
<path fill="none" stroke="#63b8ff" d="M173.56,-382.75C217.97,-372.82 283.1,-358.26 324.12,-349.08"/>
<polygon fill="#63b8ff" stroke="#63b8ff" points="172.57,-379.39 163.58,-384.98 174.1,-386.22 172.57,-379.39"/>
</a>
</g>
</g>
<!-- Node20&#45;&gt;Node4 -->
<g id="edge35_Node000020_Node000004" class="edge">
<title>Node20&#45;&gt;Node4</title>
<g id="a_edge35_Node000020_Node000004"><a xlink:title=" ">
<path fill="none" stroke="#63b8ff" d="M128.75,-374.65C136.78,-328.93 158.78,-208.66 184.5,-110 187.77,-97.46 192.42,-83.21 195.45,-74.29"/>
<polygon fill="#63b8ff" stroke="#63b8ff" points="125.29,-374.15 127.02,-384.61 132.18,-375.36 125.29,-374.15"/>
</a>
</g>
</g>
<!-- Node20&#45;&gt;Node16 -->
<g id="edge36_Node000020_Node000016" class="edge">
<title>Node20&#45;&gt;Node16</title>
<g id="a_edge36_Node000020_Node000016"><a xlink:title=" ">
<path fill="none" stroke="#63b8ff" d="M155.67,-381.01C188.87,-367.51 243.99,-345.8 292.5,-330 350.32,-311.17 370.18,-321.34 424.5,-294 542.68,-234.52 538.22,-165.1 658.5,-110 688.38,-96.31 772.65,-82.01 829.92,-73.43"/>
<polygon fill="#63b8ff" stroke="#63b8ff" points="154.03,-377.9 146.1,-384.93 156.68,-384.38 154.03,-377.9"/>
</a>
</g>
</g>
</g>
</svg>

<g id="navigator" transform="translate(0 0)" fill="#404254">
  <rect fill="#f2f5e9" fill-opacity="0.5" stroke="#606060" stroke-width=".5" x="0" y="0" width="60" height="60"/>
  <use id="zoomplus" xlink:href="#zoomPlus" x="17" y="9" onmousedown="handleZoom(evt,'in')"/>
  <use id="zoomminus" xlink:href="#zoomMin" x="42" y="9" onmousedown="handleZoom(evt,'out')"/>
  <use id="reset" xlink:href="#resetDef" x="30" y="36" onmousedown="handleReset()"/>
   <use id="arrowup" xlink:href="#arrowUp" x="0" y="0" onmousedown="handlePan(0,-1)"/>
  <use id="arrowright" xlink:href="#arrowRight" x="0" y="0" onmousedown="handlePan(1,0)"/>
  <use id="arrowdown" xlink:href="#arrowDown" x="0" y="0" onmousedown="handlePan(0,1)"/>
  <use id="arrowleft" xlink:href="#arrowLeft" x="0" y="0" onmousedown="handlePan(-1,0)"/>
</g>
<svg viewBox="0 0 15 15" width="100%" height="30px" preserveAspectRatio="xMaxYMin meet">
 <g id="arrow_out" transform="scale(0.3 0.3)">
  <a xlink:href="CCSDSConfig_8h__dep__incl_org.svg" target="_base">
   <rect id="button" ry="5" rx="5" y="6" x="6" height="38" width="38"
        fill="#f2f5e9" fill-opacity="0.5" stroke="#606060" stroke-width="1.0"/>
   <path id="arrow"
     d="M 11.500037,31.436501 C 11.940474,20.09759 22.043105,11.32322 32.158766,21.979434 L 37.068811,17.246167 C 37.068811,17.246167 37.088388,32 37.088388,32 L 22.160133,31.978069 C 22.160133,31.978069 26.997745,27.140456 26.997745,27.140456 C 18.528582,18.264221 13.291696,25.230495 11.500037,31.436501 z"
     style="fill:#404040;"/>
  </a>
 </g>
</svg>

<style type='text/css'>
<![CDATA[
[data-mouse-over-selected='false'] { opacity: 0.7; }
[data-mouse-over-selected='true']  { opacity: 1.0; }
]]>
</style>
<script type="application/ecmascript"><![CDATA[
document.addEventListener('DOMContentLoaded', (event) => {
  highlightEdges();
  highlightAdjacentNodes();
});
]]></script>
</svg>
