<?xml version="1.0" encoding="UTF-8" standalone="no"?>
<!DOCTYPE svg PUBLIC "-//W3C//DTD SVG 1.1//EN"
 "http://www.w3.org/Graphics/SVG/1.1/DTD/svg11.dtd">
<!-- Generated by graphviz version 2.43.0 (0)
 -->
<!-- Title: inc/CCSDSUtils.h Pages: 1 -->
<svg width="907pt" height="577pt"
 viewBox="0.00 0.00 907.00 577.00" xmlns="http://www.w3.org/2000/svg" xmlns:xlink="http://www.w3.org/1999/xlink">
<g id="graph0" class="graph" transform="scale(1 1) rotate(0) translate(4 573)">
<title>inc/CCSDSUtils.h</title>
<!-- Node1 -->
<g id="Node000001" class="node">
<title>Node1</title>
<g id="a_Node000001"><a xlink:title=" ">
<polygon fill="#999999" stroke="#666666" points="268,-569 170,-569 170,-550 268,-550 268,-569"/>
<text text-anchor="middle" x="219" y="-557" font-family="Helvetica,sans-Serif" font-size="10.00">inc/CCSDSUtils.h</text>
</a>
</g>
</g>
<!-- Node2 -->
<g id="Node000002" class="node">
<title>Node2</title>
<g id="a_Node000002"><a xlink:href="CCSDSPacket_8h.html" target="_top" xlink:title=" ">
<polygon fill="white" stroke="#666666" points="264,-404 174,-404 174,-385 264,-385 264,-404"/>
<text text-anchor="middle" x="219" y="-392" font-family="Helvetica,sans-Serif" font-size="10.00">CCSDSPacket.h</text>
</a>
</g>
</g>
<!-- Node1&#45;&gt;Node2 -->
<g id="edge1_Node000001_Node000002" class="edge">
<title>Node1&#45;&gt;Node2</title>
<g id="a_edge1_Node000001_Node000002"><a xlink:title=" ">
<path fill="none" stroke="#63b8ff" d="M226.43,-549.95C240.06,-533.63 268.62,-496.31 279,-459 281.26,-450.86 282.8,-447.54 279,-440 272.31,-426.71 259.56,-416.39 247.53,-409.05"/>
<polygon fill="#63b8ff" stroke="#63b8ff" points="249.01,-405.87 238.58,-404.02 245.58,-411.97 249.01,-405.87"/>
</a>
</g>
</g>
<!-- Node6 -->
<g id="Node000006" class="node">
<title>Node6</title>
<g id="a_Node000006"><a xlink:title=" ">
<polygon fill="#e0e0e0" stroke="#999999" points="238.5,-19 191.5,-19 191.5,0 238.5,0 238.5,-19"/>
<text text-anchor="middle" x="215" y="-7" font-family="Helvetica,sans-Serif" font-size="10.00">vector</text>
</a>
</g>
</g>
<!-- Node1&#45;&gt;Node6 -->
<g id="edge44_Node000001_Node000006" class="edge">
<title>Node1&#45;&gt;Node6</title>
<g id="a_edge44_Node000001_Node000006"><a xlink:title=" ">
<path fill="none" stroke="#63b8ff" d="M169.85,-555.49C105.28,-548.57 0,-525.75 0,-450.5 0,-450.5 0,-450.5 0,-118.5 0,-38.51 120.31,-17.76 180.93,-12.38"/>
<polygon fill="#63b8ff" stroke="#63b8ff" points="181.48,-15.85 191.17,-11.57 180.92,-8.87 181.48,-15.85"/>
</a>
</g>
</g>
<!-- Node14 -->
<g id="Node000014" class="node">
<title>Node14</title>
<g id="a_Node000014"><a xlink:title=" ">
<polygon fill="#e0e0e0" stroke="#999999" points="757,-74 713,-74 713,-55 757,-55 757,-74"/>
<text text-anchor="middle" x="735" y="-62" font-family="Helvetica,sans-Serif" font-size="10.00">string</text>
</a>
</g>
</g>
<!-- Node1&#45;&gt;Node14 -->
<g id="edge43_Node000001_Node000014" class="edge">
<title>Node1&#45;&gt;Node14</title>
<g id="a_edge43_Node000001_Node000014"><a xlink:title=" ">
<path fill="none" stroke="#63b8ff" d="M268.18,-555.88C424.38,-546.92 899,-514.41 899,-450.5 899,-450.5 899,-450.5 899,-173.5 899,-110.93 814.71,-82.57 766.98,-71.52"/>
<polygon fill="#63b8ff" stroke="#63b8ff" points="767.63,-68.08 757.12,-69.36 766.14,-74.92 767.63,-68.08"/>
</a>
</g>
</g>
<!-- Node18 -->
<g id="Node000018" class="node">
<title>Node18</title>
<g id="a_Node000018"><a xlink:href="CCSDSManager_8h.html" target="_top" xlink:title=" ">
<polygon fill="white" stroke="#666666" points="190.5,-514 89.5,-514 89.5,-495 190.5,-495 190.5,-514"/>
<text text-anchor="middle" x="140" y="-502" font-family="Helvetica,sans-Serif" font-size="10.00">CCSDSManager.h</text>
</a>
</g>
</g>
<!-- Node1&#45;&gt;Node18 -->
<g id="edge37_Node000001_Node000018" class="edge">
<title>Node1&#45;&gt;Node18</title>
<g id="a_edge37_Node000001_Node000018"><a xlink:title=" ">
<path fill="none" stroke="#63b8ff" d="M206.31,-549.98C194.17,-541.84 175.64,-529.41 161.25,-519.76"/>
<polygon fill="#63b8ff" stroke="#63b8ff" points="163.18,-516.84 152.92,-514.17 159.28,-522.65 163.18,-516.84"/>
</a>
</g>
</g>
<!-- Node3 -->
<g id="Node000003" class="node">
<title>Node3</title>
<g id="a_Node000003"><a xlink:href="CCSDSResult_8h.html" target="_top" xlink:title=" ">
<polygon fill="white" stroke="#666666" points="446.5,-74 357.5,-74 357.5,-55 446.5,-55 446.5,-74"/>
<text text-anchor="middle" x="402" y="-62" font-family="Helvetica,sans-Serif" font-size="10.00">CCSDSResult.h</text>
</a>
</g>
</g>
<!-- Node2&#45;&gt;Node3 -->
<g id="edge2_Node000002_Node000003" class="edge">
<title>Node2&#45;&gt;Node3</title>
<g id="a_edge2_Node000002_Node000003"><a xlink:title=" ">
<path fill="none" stroke="#63b8ff" d="M223.89,-384.73C248.45,-340.71 358.37,-143.7 392.11,-83.22"/>
<polygon fill="#63b8ff" stroke="#63b8ff" points="395.36,-84.59 397.18,-74.15 389.25,-81.18 395.36,-84.59"/>
</a>
</g>
</g>
<!-- Node2&#45;&gt;Node6 -->
<g id="edge8_Node000002_Node000006" class="edge">
<title>Node2&#45;&gt;Node6</title>
<g id="a_edge8_Node000002_Node000006"><a xlink:title=" ">
<path fill="none" stroke="#63b8ff" d="M181.48,-384.92C135.61,-371.95 64,-342.57 64,-285.5 64,-285.5 64,-285.5 64,-118.5 64,-61.09 137.1,-31.28 181.58,-18.46"/>
<polygon fill="#63b8ff" stroke="#63b8ff" points="182.69,-21.79 191.41,-15.77 180.84,-15.04 182.69,-21.79"/>
</a>
</g>
</g>
<!-- Node9 -->
<g id="Node000009" class="node">
<title>Node9</title>
<g id="a_Node000009"><a xlink:href="CCSDSHeader_8h.html" target="_top" xlink:title=" ">
<polygon fill="white" stroke="#666666" points="261.5,-129 168.5,-129 168.5,-110 261.5,-110 261.5,-129"/>
<text text-anchor="middle" x="215" y="-117" font-family="Helvetica,sans-Serif" font-size="10.00">CCSDSHeader.h</text>
</a>
</g>
</g>
<!-- Node2&#45;&gt;Node9 -->
<g id="edge9_Node000002_Node000009" class="edge">
<title>Node2&#45;&gt;Node9</title>
<g id="a_edge9_Node000002_Node000009"><a xlink:title=" ">
<path fill="none" stroke="#63b8ff" d="M218.33,-384.83C216.96,-366.5 214,-322.48 214,-285.5 214,-285.5 214,-285.5 214,-228.5 214,-197.19 214.43,-160.77 214.72,-139.23"/>
<polygon fill="#63b8ff" stroke="#63b8ff" points="218.22,-139.23 214.87,-129.18 211.22,-139.13 218.22,-139.23"/>
</a>
</g>
</g>
<!-- Node10 -->
<g id="Node000010" class="node">
<title>Node10</title>
<g id="a_Node000010"><a xlink:href="CCSDSDataField_8h.html" target="_top" xlink:title=" ">
<polygon fill="white" stroke="#666666" points="437.5,-349 332.5,-349 332.5,-330 437.5,-330 437.5,-349"/>
<text text-anchor="middle" x="385" y="-337" font-family="Helvetica,sans-Serif" font-size="10.00">CCSDSDataField.h</text>
</a>
</g>
</g>
<!-- Node2&#45;&gt;Node10 -->
<g id="edge13_Node000002_Node000010" class="edge">
<title>Node2&#45;&gt;Node10</title>
<g id="a_edge13_Node000002_Node000010"><a xlink:title=" ">
<path fill="none" stroke="#63b8ff" d="M245.67,-384.98C273.54,-376.09 317.45,-362.07 348.52,-352.15"/>
<polygon fill="#63b8ff" stroke="#63b8ff" points="349.66,-355.46 358.12,-349.08 347.53,-348.79 349.66,-355.46"/>
</a>
</g>
</g>
<!-- Node4 -->
<g id="Node000004" class="node">
<title>Node4</title>
<g id="a_Node000004"><a xlink:title=" ">
<polygon fill="#e0e0e0" stroke="#999999" points="723.5,-19 630.5,-19 630.5,0 723.5,0 723.5,-19"/>
<text text-anchor="middle" x="677" y="-7" font-family="Helvetica,sans-Serif" font-size="10.00">unordered_map</text>
</a>
</g>
</g>
<!-- Node3&#45;&gt;Node4 -->
<g id="edge3_Node000003_Node000004" class="edge">
<title>Node3&#45;&gt;Node4</title>
<g id="a_edge3_Node000003_Node000004"><a xlink:title=" ">
<path fill="none" stroke="#63b8ff" d="M446.18,-54.98C494.15,-45.74 570.81,-30.97 622.48,-21.01"/>
<polygon fill="#63b8ff" stroke="#63b8ff" points="623.31,-24.41 632.47,-19.08 621.99,-17.54 623.31,-24.41"/>
</a>
</g>
</g>
<!-- Node5 -->
<g id="Node000005" class="node">
<title>Node5</title>
<g id="a_Node000005"><a xlink:title=" ">
<polygon fill="#e0e0e0" stroke="#999999" points="354.5,-19 303.5,-19 303.5,0 354.5,0 354.5,-19"/>
<text text-anchor="middle" x="329" y="-7" font-family="Helvetica,sans-Serif" font-size="10.00">variant</text>
</a>
</g>
</g>
<!-- Node3&#45;&gt;Node5 -->
<g id="edge4_Node000003_Node000005" class="edge">
<title>Node3&#45;&gt;Node5</title>
<g id="a_edge4_Node000003_Node000005"><a xlink:title=" ">
<path fill="none" stroke="#63b8ff" d="M390.27,-54.98C379.27,-47 362.58,-34.88 349.4,-25.31"/>
<polygon fill="#63b8ff" stroke="#63b8ff" points="351.09,-22.21 340.94,-19.17 346.98,-27.88 351.09,-22.21"/>
</a>
</g>
</g>
<!-- Node3&#45;&gt;Node6 -->
<g id="edge5_Node000003_Node000006" class="edge">
<title>Node3&#45;&gt;Node6</title>
<g id="a_edge5_Node000003_Node000006"><a xlink:title=" ">
<path fill="none" stroke="#63b8ff" d="M371.96,-54.98C338.22,-45.42 283.62,-29.95 248.53,-20"/>
<polygon fill="#63b8ff" stroke="#63b8ff" points="249.32,-16.59 238.74,-17.23 247.41,-23.32 249.32,-16.59"/>
</a>
</g>
</g>
<!-- Node7 -->
<g id="Node000007" class="node">
<title>Node7</title>
<g id="a_Node000007"><a xlink:title=" ">
<polygon fill="#e0e0e0" stroke="#999999" points="503,-19 453,-19 453,0 503,0 503,-19"/>
<text text-anchor="middle" x="478" y="-7" font-family="Helvetica,sans-Serif" font-size="10.00">cstdint</text>
</a>
</g>
</g>
<!-- Node3&#45;&gt;Node7 -->
<g id="edge6_Node000003_Node000007" class="edge">
<title>Node3&#45;&gt;Node7</title>
<g id="a_edge6_Node000003_Node000007"><a xlink:title=" ">
<path fill="none" stroke="#63b8ff" d="M414.21,-54.98C425.78,-46.92 443.38,-34.65 457.16,-25.03"/>
<polygon fill="#63b8ff" stroke="#63b8ff" points="459.37,-27.76 465.57,-19.17 455.36,-22.02 459.37,-27.76"/>
</a>
</g>
</g>
<!-- Node8 -->
<g id="Node000008" class="node">
<title>Node8</title>
<g id="a_Node000008"><a xlink:title=" ">
<polygon fill="#e0e0e0" stroke="#999999" points="433,-19 373,-19 373,0 433,0 433,-19"/>
<text text-anchor="middle" x="403" y="-7" font-family="Helvetica,sans-Serif" font-size="10.00">iostream</text>
</a>
</g>
</g>
<!-- Node3&#45;&gt;Node8 -->
<g id="edge7_Node000003_Node000008" class="edge">
<title>Node3&#45;&gt;Node8</title>
<g id="a_edge7_Node000003_Node000008"><a xlink:title=" ">
<path fill="none" stroke="#63b8ff" d="M402.17,-54.75C402.3,-47.8 402.48,-37.85 402.65,-29.13"/>
<polygon fill="#63b8ff" stroke="#63b8ff" points="406.15,-29.15 402.84,-19.09 399.15,-29.02 406.15,-29.15"/>
</a>
</g>
</g>
<!-- Node9&#45;&gt;Node3 -->
<g id="edge10_Node000009_Node000003" class="edge">
<title>Node9&#45;&gt;Node3</title>
<g id="a_edge10_Node000009_Node000003"><a xlink:title=" ">
<path fill="none" stroke="#63b8ff" d="M245.04,-109.98C276.71,-101.01 326.77,-86.82 361.81,-76.89"/>
<polygon fill="#63b8ff" stroke="#63b8ff" points="363.05,-80.18 371.72,-74.08 361.14,-73.44 363.05,-80.18"/>
</a>
</g>
</g>
<!-- Node9&#45;&gt;Node6 -->
<g id="edge12_Node000009_Node000006" class="edge">
<title>Node9&#45;&gt;Node6</title>
<g id="a_edge12_Node000009_Node000006"><a xlink:title=" ">
<path fill="none" stroke="#63b8ff" d="M215,-109.66C215,-92.17 215,-52.8 215,-29.27"/>
<polygon fill="#63b8ff" stroke="#63b8ff" points="218.5,-29.16 215,-19.16 211.5,-29.16 218.5,-29.16"/>
</a>
</g>
</g>
<!-- Node9&#45;&gt;Node7 -->
<g id="edge11_Node000009_Node000007" class="edge">
<title>Node9&#45;&gt;Node7</title>
<g id="a_edge11_Node000009_Node000007"><a xlink:title=" ">
<path fill="none" stroke="#63b8ff" d="M231.66,-109.87C256.73,-97.06 305.86,-72.6 349,-55 380.37,-42.2 416.95,-29.81 443.13,-21.37"/>
<polygon fill="#63b8ff" stroke="#63b8ff" points="444.51,-24.61 452.97,-18.23 442.38,-17.94 444.51,-24.61"/>
</a>
</g>
</g>
<!-- Node10&#45;&gt;Node3 -->
<g id="edge14_Node000010_Node000003" class="edge">
<title>Node10&#45;&gt;Node3</title>
<g id="a_edge14_Node000010_Node000003"><a xlink:title=" ">
<path fill="none" stroke="#63b8ff" d="M384.44,-329.72C382.63,-299.18 377.82,-194.84 390,-110 391.25,-101.29 393.64,-91.85 395.96,-83.91"/>
<polygon fill="#63b8ff" stroke="#63b8ff" points="399.35,-84.82 398.97,-74.23 392.66,-82.74 399.35,-84.82"/>
</a>
</g>
</g>
<!-- Node10&#45;&gt;Node6 -->
<g id="edge15_Node000010_Node000006" class="edge">
<title>Node10&#45;&gt;Node6</title>
<g id="a_edge15_Node000010_Node000006"><a xlink:title=" ">
<path fill="none" stroke="#63b8ff" d="M368.91,-329.9C325.15,-305.48 204.31,-230.79 160,-129 143.88,-91.96 176.82,-49.09 198.35,-26.44"/>
<polygon fill="#63b8ff" stroke="#63b8ff" points="201.11,-28.63 205.66,-19.06 196.14,-23.71 201.11,-28.63"/>
</a>
</g>
</g>
<!-- Node11 -->
<g id="Node000011" class="node">
<title>Node11</title>
<g id="a_Node000011"><a xlink:title=" ">
<polygon fill="#e0e0e0" stroke="#999999" points="871,-184 813,-184 813,-165 871,-165 871,-184"/>
<text text-anchor="middle" x="842" y="-172" font-family="Helvetica,sans-Serif" font-size="10.00">memory</text>
</a>
</g>
</g>
<!-- Node10&#45;&gt;Node11 -->
<g id="edge16_Node000010_Node000011" class="edge">
<title>Node10&#45;&gt;Node11</title>
<g id="a_edge16_Node000010_Node000011"><a xlink:title=" ">
<path fill="none" stroke="#63b8ff" d="M437.6,-334.14C543.91,-324.21 778.81,-296.21 832,-239 843.03,-227.13 844.77,-208.3 844.2,-194.22"/>
<polygon fill="#63b8ff" stroke="#63b8ff" points="847.68,-193.86 843.39,-184.17 840.71,-194.42 847.68,-193.86"/>
</a>
</g>
</g>
<!-- Node12 -->
<g id="Node000012" class="node">
<title>Node12</title>
<g id="a_Node000012"><a xlink:href="CCSDSSecondaryHeaderAbstract_8h.html" target="_top" xlink:title=" ">
<polygon fill="white" stroke="#666666" points="597.5,-184 412.5,-184 412.5,-165 597.5,-165 597.5,-184"/>
<text text-anchor="middle" x="505" y="-172" font-family="Helvetica,sans-Serif" font-size="10.00">CCSDSSecondaryHeaderAbstract.h</text>
</a>
</g>
</g>
<!-- Node10&#45;&gt;Node12 -->
<g id="edge17_Node000010_Node000012" class="edge">
<title>Node10&#45;&gt;Node12</title>
<g id="a_edge17_Node000010_Node000012"><a xlink:title=" ">
<path fill="none" stroke="#63b8ff" d="M391.45,-329.74C410.58,-303.76 467.21,-226.83 492.53,-192.44"/>
<polygon fill="#63b8ff" stroke="#63b8ff" points="495.41,-194.44 498.52,-184.31 489.77,-190.28 495.41,-194.44"/>
</a>
</g>
</g>
<!-- Node15 -->
<g id="Node000015" class="node">
<title>Node15</title>
<g id="a_Node000015"><a xlink:href="CCSDSSecondaryHeaderFactory_8h.html" target="_top" xlink:title=" ">
<polygon fill="white" stroke="#666666" points="822.5,-239 643.5,-239 643.5,-220 822.5,-220 822.5,-239"/>
<text text-anchor="middle" x="733" y="-227" font-family="Helvetica,sans-Serif" font-size="10.00">CCSDSSecondaryHeaderFactory.h</text>
</a>
</g>
</g>
<!-- Node10&#45;&gt;Node15 -->
<g id="edge26_Node000010_Node000015" class="edge">
<title>Node10&#45;&gt;Node15</title>
<g id="a_edge26_Node000010_Node000015"><a xlink:title=" ">
<path fill="none" stroke="#63b8ff" d="M421.63,-329.98C456.44,-321.64 510.13,-308.17 556,-294 607.53,-278.09 666.26,-256.27 701.44,-242.79"/>
<polygon fill="#63b8ff" stroke="#63b8ff" points="703.06,-245.92 711.14,-239.06 700.55,-239.39 703.06,-245.92"/>
</a>
</g>
</g>
<!-- Node17 -->
<g id="Node000017" class="node">
<title>Node17</title>
<g id="a_Node000017"><a xlink:href="PusServices_8h.html" target="_top" xlink:title=" ">
<polygon fill="white" stroke="#666666" points="547,-294 463,-294 463,-275 547,-275 547,-294"/>
<text text-anchor="middle" x="505" y="-282" font-family="Helvetica,sans-Serif" font-size="10.00">PusServices.h</text>
</a>
</g>
</g>
<!-- Node10&#45;&gt;Node17 -->
<g id="edge32_Node000010_Node000017" class="edge">
<title>Node10&#45;&gt;Node17</title>
<g id="a_edge32_Node000010_Node000017"><a xlink:title=" ">
<path fill="none" stroke="#63b8ff" d="M404.28,-329.98C423.67,-321.42 453.81,-308.11 476.07,-298.28"/>
<polygon fill="#63b8ff" stroke="#63b8ff" points="477.64,-301.41 485.37,-294.17 474.81,-295.01 477.64,-301.41"/>
</a>
</g>
</g>
<!-- Node12&#45;&gt;Node3 -->
<g id="edge18_Node000012_Node000003" class="edge">
<title>Node12&#45;&gt;Node3</title>
<g id="a_edge18_Node000012_Node000003"><a xlink:title=" ">
<path fill="none" stroke="#63b8ff" d="M496.57,-164.66C479.21,-146.46 439.24,-104.55 417.23,-81.47"/>
<polygon fill="#63b8ff" stroke="#63b8ff" points="419.69,-78.98 410.26,-74.16 414.63,-83.81 419.69,-78.98"/>
</a>
</g>
</g>
<!-- Node12&#45;&gt;Node6 -->
<g id="edge24_Node000012_Node000006" class="edge">
<title>Node12&#45;&gt;Node6</title>
<g id="a_edge24_Node000012_Node000006"><a xlink:title=" ">
<path fill="none" stroke="#63b8ff" d="M489.82,-164.97C442.46,-138.35 297.15,-56.67 239.21,-24.11"/>
<polygon fill="#63b8ff" stroke="#63b8ff" points="240.82,-20.99 230.38,-19.15 237.39,-27.1 240.82,-20.99"/>
</a>
</g>
</g>
<!-- Node12&#45;&gt;Node7 -->
<g id="edge25_Node000012_Node000007" class="edge">
<title>Node12&#45;&gt;Node7</title>
<g id="a_edge25_Node000012_Node000007"><a xlink:title=" ">
<path fill="none" stroke="#63b8ff" d="M503.55,-164.74C499.32,-139.2 486.93,-64.43 481.1,-29.23"/>
<polygon fill="#63b8ff" stroke="#63b8ff" points="484.55,-28.6 479.46,-19.31 477.64,-29.74 484.55,-28.6"/>
</a>
</g>
</g>
<!-- Node13 -->
<g id="Node000013" class="node">
<title>Node13</title>
<g id="a_Node000013"><a xlink:href="CCSDSConfig_8h.html" target="_top" xlink:title=" ">
<polygon fill="white" stroke="#666666" points="599.5,-129 510.5,-129 510.5,-110 599.5,-110 599.5,-129"/>
<text text-anchor="middle" x="555" y="-117" font-family="Helvetica,sans-Serif" font-size="10.00">CCSDSConfig.h</text>
</a>
</g>
</g>
<!-- Node12&#45;&gt;Node13 -->
<g id="edge19_Node000012_Node000013" class="edge">
<title>Node12&#45;&gt;Node13</title>
<g id="a_edge19_Node000012_Node000013"><a xlink:title=" ">
<path fill="none" stroke="#63b8ff" d="M513.26,-164.75C520.46,-157.11 531.11,-145.82 539.85,-136.56"/>
<polygon fill="#63b8ff" stroke="#63b8ff" points="542.58,-138.76 546.9,-129.09 537.49,-133.96 542.58,-138.76"/>
</a>
</g>
</g>
<!-- Node13&#45;&gt;Node3 -->
<g id="edge23_Node000013_Node000003" class="edge">
<title>Node13&#45;&gt;Node3</title>
<g id="a_edge23_Node000013_Node000003"><a xlink:title=" ">
<path fill="none" stroke="#63b8ff" d="M530.42,-109.98C504.95,-101.16 464.96,-87.31 436.37,-77.41"/>
<polygon fill="#63b8ff" stroke="#63b8ff" points="437.37,-74.05 426.77,-74.08 435.08,-80.66 437.37,-74.05"/>
</a>
</g>
</g>
<!-- Node13&#45;&gt;Node6 -->
<g id="edge22_Node000013_Node000006" class="edge">
<title>Node13&#45;&gt;Node6</title>
<g id="a_edge22_Node000013_Node000006"><a xlink:title=" ">
<path fill="none" stroke="#63b8ff" d="M544.76,-109.98C527.58,-96.16 491.32,-68.96 456,-55 418.75,-40.27 305.93,-23.14 248.85,-15.1"/>
<polygon fill="#63b8ff" stroke="#63b8ff" points="249.26,-11.63 238.87,-13.71 248.29,-18.56 249.26,-11.63"/>
</a>
</g>
</g>
<!-- Node13&#45;&gt;Node7 -->
<g id="edge21_Node000013_Node000007" class="edge">
<title>Node13&#45;&gt;Node7</title>
<g id="a_edge21_Node000013_Node000007"><a xlink:title=" ">
<path fill="none" stroke="#63b8ff" d="M553.34,-109.59C550.6,-96.63 544.17,-72.24 532,-55 523.68,-43.21 511.46,-32.79 500.75,-24.99"/>
<polygon fill="#63b8ff" stroke="#63b8ff" points="502.44,-21.91 492.22,-19.1 498.46,-27.66 502.44,-21.91"/>
</a>
</g>
</g>
<!-- Node13&#45;&gt;Node14 -->
<g id="edge20_Node000013_Node000014" class="edge">
<title>Node13&#45;&gt;Node14</title>
<g id="a_edge20_Node000013_Node000014"><a xlink:title=" ">
<path fill="none" stroke="#63b8ff" d="M583.92,-109.98C616.52,-100.39 669.37,-84.82 703.14,-74.88"/>
<polygon fill="#63b8ff" stroke="#63b8ff" points="704.36,-78.17 712.96,-71.99 702.38,-71.46 704.36,-78.17"/>
</a>
</g>
</g>
<!-- Node15&#45;&gt;Node4 -->
<g id="edge28_Node000015_Node000004" class="edge">
<title>Node15&#45;&gt;Node4</title>
<g id="a_edge28_Node000015_Node000004"><a xlink:title=" ">
<path fill="none" stroke="#63b8ff" d="M738.62,-219.79C755.12,-192.99 800.17,-110.29 766,-55 756.51,-39.64 739.94,-29.41 723.65,-22.68"/>
<polygon fill="#63b8ff" stroke="#63b8ff" points="724.74,-19.35 714.15,-19.1 722.27,-25.9 724.74,-19.35"/>
</a>
</g>
</g>
<!-- Node15&#45;&gt;Node11 -->
<g id="edge27_Node000015_Node000011" class="edge">
<title>Node15&#45;&gt;Node11</title>
<g id="a_edge27_Node000015_Node000011"><a xlink:title=" ">
<path fill="none" stroke="#63b8ff" d="M750.51,-219.98C767.97,-211.5 795.01,-198.35 815.17,-188.54"/>
<polygon fill="#63b8ff" stroke="#63b8ff" points="816.71,-191.69 824.17,-184.17 813.64,-185.4 816.71,-191.69"/>
</a>
</g>
</g>
<!-- Node15&#45;&gt;Node12 -->
<g id="edge31_Node000015_Node000012" class="edge">
<title>Node15&#45;&gt;Node12</title>
<g id="a_edge31_Node000015_Node000012"><a xlink:title=" ">
<path fill="none" stroke="#63b8ff" d="M696.37,-219.98C657.09,-210.86 594.63,-196.33 551.81,-186.38"/>
<polygon fill="#63b8ff" stroke="#63b8ff" points="552.45,-182.94 541.92,-184.08 550.87,-189.76 552.45,-182.94"/>
</a>
</g>
</g>
<!-- Node15&#45;&gt;Node14 -->
<g id="edge30_Node000015_Node000014" class="edge">
<title>Node15&#45;&gt;Node14</title>
<g id="a_edge30_Node000015_Node000014"><a xlink:title=" ">
<path fill="none" stroke="#63b8ff" d="M733.11,-219.74C733.42,-194.31 734.33,-120.08 734.76,-84.69"/>
<polygon fill="#63b8ff" stroke="#63b8ff" points="738.27,-84.35 734.89,-74.31 731.27,-84.26 738.27,-84.35"/>
</a>
</g>
</g>
<!-- Node16 -->
<g id="Node000016" class="node">
<title>Node16</title>
<g id="a_Node000016"><a xlink:title=" ">
<polygon fill="#e0e0e0" stroke="#999999" points="718.5,-184 653.5,-184 653.5,-165 718.5,-165 718.5,-184"/>
<text text-anchor="middle" x="686" y="-172" font-family="Helvetica,sans-Serif" font-size="10.00">functional</text>
</a>
</g>
</g>
<!-- Node15&#45;&gt;Node16 -->
<g id="edge29_Node000015_Node000016" class="edge">
<title>Node15&#45;&gt;Node16</title>
<g id="a_edge29_Node000015_Node000016"><a xlink:title=" ">
<path fill="none" stroke="#63b8ff" d="M725.24,-219.75C718.53,-212.18 708.66,-201.05 700.49,-191.84"/>
<polygon fill="#63b8ff" stroke="#63b8ff" points="702.87,-189.25 693.62,-184.09 697.63,-193.89 702.87,-189.25"/>
</a>
</g>
</g>
<!-- Node17&#45;&gt;Node3 -->
<g id="edge35_Node000017_Node000003" class="edge">
<title>Node17&#45;&gt;Node3</title>
<g id="a_edge35_Node000017_Node000003"><a xlink:title=" ">
<path fill="none" stroke="#63b8ff" d="M490.89,-274.93C467.67,-259.9 422.13,-226.31 404,-184 389.94,-151.18 394.02,-108.41 398.11,-84.26"/>
<polygon fill="#63b8ff" stroke="#63b8ff" points="401.57,-84.77 399.98,-74.29 394.69,-83.48 401.57,-84.77"/>
</a>
</g>
</g>
<!-- Node17&#45;&gt;Node12 -->
<g id="edge33_Node000017_Node000012" class="edge">
<title>Node17&#45;&gt;Node12</title>
<g id="a_edge33_Node000017_Node000012"><a xlink:title=" ">
<path fill="none" stroke="#63b8ff" d="M505,-274.66C505,-257.17 505,-217.8 505,-194.27"/>
<polygon fill="#63b8ff" stroke="#63b8ff" points="508.5,-194.16 505,-184.16 501.5,-194.16 508.5,-194.16"/>
</a>
</g>
</g>
<!-- Node17&#45;&gt;Node13 -->
<g id="edge36_Node000017_Node000013" class="edge">
<title>Node17&#45;&gt;Node13</title>
<g id="a_edge36_Node000017_Node000013"><a xlink:title=" ">
<path fill="none" stroke="#63b8ff" d="M519.7,-274.76C543.38,-259.71 589.13,-226.4 607,-184 615.15,-164.66 596.7,-146.55 579.57,-134.66"/>
<polygon fill="#63b8ff" stroke="#63b8ff" points="581.17,-131.53 570.87,-129.03 577.37,-137.4 581.17,-131.53"/>
</a>
</g>
</g>
<!-- Node17&#45;&gt;Node15 -->
<g id="edge34_Node000017_Node000015" class="edge">
<title>Node17&#45;&gt;Node15</title>
<g id="a_edge34_Node000017_Node000015"><a xlink:title=" ">
<path fill="none" stroke="#63b8ff" d="M541.63,-274.98C580.91,-265.86 643.37,-251.33 686.19,-241.38"/>
<polygon fill="#63b8ff" stroke="#63b8ff" points="687.13,-244.76 696.08,-239.08 685.55,-237.94 687.13,-244.76"/>
</a>
</g>
</g>
<!-- Node18&#45;&gt;Node2 -->
<g id="edge39_Node000018_Node000002" class="edge">
<title>Node18&#45;&gt;Node2</title>
<g id="a_edge39_Node000018_Node000002"><a xlink:title=" ">
<path fill="none" stroke="#63b8ff" d="M140.83,-494.95C142.44,-482.01 146.97,-457.15 159,-440 167.84,-427.39 181.39,-416.91 193.38,-409.29"/>
<polygon fill="#63b8ff" stroke="#63b8ff" points="195.36,-412.18 202.13,-404.03 191.76,-406.18 195.36,-412.18"/>
</a>
</g>
</g>
<!-- Node18&#45;&gt;Node3 -->
<g id="edge40_Node000018_Node000003" class="edge">
<title>Node18&#45;&gt;Node3</title>
<g id="a_edge40_Node000018_Node000003"><a xlink:title=" ">
<path fill="none" stroke="#63b8ff" d="M134.72,-494.9C124.27,-477.07 102,-434.46 102,-395.5 102,-395.5 102,-395.5 102,-173.5 102,-135.28 126.57,-128.53 160,-110 218.37,-77.64 295.63,-68.2 346.98,-65.76"/>
<polygon fill="#63b8ff" stroke="#63b8ff" points="347.36,-69.25 357.21,-65.35 347.08,-62.26 347.36,-69.25"/>
</a>
</g>
</g>
<!-- Node19 -->
<g id="Node000019" class="node">
<title>Node19</title>
<g id="a_Node000019"><a xlink:title=" ">
<polygon fill="#e0e0e0" stroke="#999999" points="73.5,-459 28.5,-459 28.5,-440 73.5,-440 73.5,-459"/>
<text text-anchor="middle" x="51" y="-447" font-family="Helvetica,sans-Serif" font-size="10.00">utility</text>
</a>
</g>
</g>
<!-- Node18&#45;&gt;Node19 -->
<g id="edge38_Node000018_Node000019" class="edge">
<title>Node18&#45;&gt;Node19</title>
<g id="a_edge38_Node000018_Node000019"><a xlink:title=" ">
<path fill="none" stroke="#63b8ff" d="M125.7,-494.98C111.9,-486.77 90.76,-474.18 74.49,-464.49"/>
<polygon fill="#63b8ff" stroke="#63b8ff" points="75.94,-461.28 65.56,-459.17 72.36,-467.29 75.94,-461.28"/>
</a>
</g>
</g>
<!-- Node20 -->
<g id="Node000020" class="node">
<title>Node20</title>
<g id="a_Node000020"><a xlink:href="CCSDSValidator_8h.html" target="_top" xlink:title="Defines the Validator class for CCSDS packet validation.">
<polygon fill="white" stroke="#666666" points="269.5,-459 168.5,-459 168.5,-440 269.5,-440 269.5,-459"/>
<text text-anchor="middle" x="219" y="-447" font-family="Helvetica,sans-Serif" font-size="10.00">CCSDSValidator.h</text>
</a>
</g>
</g>
<!-- Node18&#45;&gt;Node20 -->
<g id="edge41_Node000018_Node000020" class="edge">
<title>Node18&#45;&gt;Node20</title>
<g id="a_edge41_Node000018_Node000020"><a xlink:title=" ">
<path fill="none" stroke="#63b8ff" d="M152.69,-494.98C164.83,-486.84 183.36,-474.41 197.75,-464.76"/>
<polygon fill="#63b8ff" stroke="#63b8ff" points="199.72,-467.65 206.08,-459.17 195.82,-461.84 199.72,-467.65"/>
</a>
</g>
</g>
<!-- Node20&#45;&gt;Node2 -->
<g id="edge42_Node000020_Node000002" class="edge">
<title>Node20&#45;&gt;Node2</title>
<g id="a_edge42_Node000020_Node000002"><a xlink:title=" ">
<path fill="none" stroke="#63b8ff" d="M219,-439.75C219,-432.8 219,-422.85 219,-414.13"/>
<polygon fill="#63b8ff" stroke="#63b8ff" points="222.5,-414.09 219,-404.09 215.5,-414.09 222.5,-414.09"/>
</a>
</g>
</g>
</g>
</svg>
