<?xml version="1.0" encoding="UTF-8" standalone="no"?>
<!DOCTYPE svg PUBLIC "-//W3C//DTD SVG 1.1//EN"
 "http://www.w3.org/Graphics/SVG/1.1/DTD/svg11.dtd">
<!-- Generated by graphviz version 2.43.0 (0)
 -->
<!-- Title: inc/CCSDSSecondaryHeaderAbstract.h Pages: 1 -->
<svg width="373pt" height="203pt"
 viewBox="0.00 0.00 373.32 203.00" xmlns="http://www.w3.org/2000/svg" xmlns:xlink="http://www.w3.org/1999/xlink">

<svg id="main" version="1.1" xmlns="http://www.w3.org/2000/svg" xmlns:xlink="http://www.w3.org/1999/xlink" xml:space="preserve" onload="init(evt)">
<style type="text/css"><![CDATA[
.node, .edge {opacity: 0.7;}
.node.selected, .edge.selected {opacity: 1;}
.edge:hover path { stroke: red; }
.edge:hover polygon { stroke: red; fill: red; }
]]></style>
<script type="application/ecmascript" xlink:href="svg.min.js"/>
<svg id="graph" class="graph">
<g id="graph0" class="graph" transform="scale(1 1) rotate(0) translate(4 199)">
<title>inc/CCSDSSecondaryHeaderAbstract.h</title>
<!-- Node1 -->
<g id="Node000001" class="node">
<title>Node1</title>
<g id="a_Node000001"><a xlink:title=" ">
<polygon fill="#999999" stroke="#666666" points="218,-195 65,-195 65,-165 218,-165 218,-195"/>
<text text-anchor="start" x="73" y="-183" font-family="Helvetica,sans-Serif" font-size="10.00">inc/CCSDSSecondaryHeader</text>
<text text-anchor="middle" x="141.5" y="-172" font-family="Helvetica,sans-Serif" font-size="10.00">Abstract.h</text>
</a>
</g>
</g>
<!-- Node2 -->
<g id="Node000002" class="node">
<title>Node2</title>
<g id="a_Node000002"><a xlink:href="CCSDSResult_8h.html" target="_top" xlink:title=" ">
<polygon fill="white" stroke="#666666" points="141,-74 52,-74 52,-55 141,-55 141,-74"/>
<text text-anchor="middle" x="96.5" y="-62" font-family="Helvetica,sans-Serif" font-size="10.00">CCSDSResult.h</text>
</a>
</g>
</g>
<!-- Node1&#45;&gt;Node2 -->
<g id="edge1_Node000001_Node000002" class="edge">
<title>Node1&#45;&gt;Node2</title>
<g id="a_edge1_Node000001_Node000002"><a xlink:title=" ">
<path fill="none" stroke="#63b8ff" d="M135.8,-164.63C127.63,-144.03 112.61,-106.12 103.69,-83.63"/>
<polygon fill="#63b8ff" stroke="#63b8ff" points="106.9,-82.24 99.96,-74.23 100.39,-84.82 106.9,-82.24"/>
</a>
</g>
</g>
<!-- Node4 -->
<g id="Node000004" class="node">
<title>Node4</title>
<g id="a_Node000004"><a xlink:title=" ">
<polygon fill="#e0e0e0" stroke="#999999" points="47,-19 0,-19 0,0 47,0 47,-19"/>
<text text-anchor="middle" x="23.5" y="-7" font-family="Helvetica,sans-Serif" font-size="10.00">vector</text>
</a>
</g>
</g>
<!-- Node1&#45;&gt;Node4 -->
<g id="edge6_Node000001_Node000004" class="edge">
<title>Node1&#45;&gt;Node4</title>
<g id="a_edge6_Node000001_Node000004"><a xlink:title=" ">
<path fill="none" stroke="#63b8ff" d="M117.24,-164.77C89.96,-147.28 46.95,-114.81 27.5,-74 20.88,-60.12 20.28,-42.55 21.11,-29.42"/>
<polygon fill="#63b8ff" stroke="#63b8ff" points="24.62,-29.51 22.09,-19.22 17.65,-28.84 24.62,-29.51"/>
</a>
</g>
</g>
<!-- Node5 -->
<g id="Node000005" class="node">
<title>Node5</title>
<g id="a_Node000005"><a xlink:title=" ">
<polygon fill="#e0e0e0" stroke="#999999" points="305.5,-19 255.5,-19 255.5,0 305.5,0 305.5,-19"/>
<text text-anchor="middle" x="280.5" y="-7" font-family="Helvetica,sans-Serif" font-size="10.00">cstdint</text>
</a>
</g>
</g>
<!-- Node1&#45;&gt;Node5 -->
<g id="edge7_Node000001_Node000005" class="edge">
<title>Node1&#45;&gt;Node5</title>
<g id="a_edge7_Node000001_Node000005"><a xlink:title=" ">
<path fill="none" stroke="#63b8ff" d="M216.24,-164.99C266.86,-151.17 330.06,-124.47 361.5,-74 376.12,-50.53 343.47,-32.23 315.35,-21.43"/>
<polygon fill="#63b8ff" stroke="#63b8ff" points="316.27,-18.04 305.68,-17.92 313.89,-24.62 316.27,-18.04"/>
</a>
</g>
</g>
<!-- Node7 -->
<g id="Node000007" class="node">
<title>Node7</title>
<g id="a_Node000007"><a xlink:href="CCSDSConfig_8h.html" target="_top" xlink:title=" ">
<polygon fill="white" stroke="#666666" points="241,-129 152,-129 152,-110 241,-110 241,-129"/>
<text text-anchor="middle" x="196.5" y="-117" font-family="Helvetica,sans-Serif" font-size="10.00">CCSDSConfig.h</text>
</a>
</g>
</g>
<!-- Node1&#45;&gt;Node7 -->
<g id="edge8_Node000001_Node000007" class="edge">
<title>Node1&#45;&gt;Node7</title>
<g id="a_edge8_Node000001_Node000007"><a xlink:title=" ">
<path fill="none" stroke="#63b8ff" d="M154.81,-164.84C162.8,-156.35 172.98,-145.52 181.28,-136.69"/>
<polygon fill="#63b8ff" stroke="#63b8ff" points="183.96,-138.95 188.26,-129.27 178.86,-134.15 183.96,-138.95"/>
</a>
</g>
</g>
<!-- Node3 -->
<g id="Node000003" class="node">
<title>Node3</title>
<g id="a_Node000003"><a xlink:title=" ">
<polygon fill="#e0e0e0" stroke="#999999" points="196,-19 145,-19 145,0 196,0 196,-19"/>
<text text-anchor="middle" x="170.5" y="-7" font-family="Helvetica,sans-Serif" font-size="10.00">variant</text>
</a>
</g>
</g>
<!-- Node2&#45;&gt;Node3 -->
<g id="edge2_Node000002_Node000003" class="edge">
<title>Node2&#45;&gt;Node3</title>
<g id="a_edge2_Node000002_Node000003"><a xlink:title=" ">
<path fill="none" stroke="#63b8ff" d="M108.39,-54.98C119.65,-46.92 136.79,-34.65 150.21,-25.03"/>
<polygon fill="#63b8ff" stroke="#63b8ff" points="152.3,-27.84 158.39,-19.17 148.23,-22.15 152.3,-27.84"/>
</a>
</g>
</g>
<!-- Node2&#45;&gt;Node4 -->
<g id="edge3_Node000002_Node000004" class="edge">
<title>Node2&#45;&gt;Node4</title>
<g id="a_edge3_Node000002_Node000004"><a xlink:title=" ">
<path fill="none" stroke="#63b8ff" d="M84.77,-54.98C73.77,-47 57.08,-34.88 43.9,-25.31"/>
<polygon fill="#63b8ff" stroke="#63b8ff" points="45.59,-22.21 35.44,-19.17 41.48,-27.88 45.59,-22.21"/>
</a>
</g>
</g>
<!-- Node2&#45;&gt;Node5 -->
<g id="edge4_Node000002_Node000005" class="edge">
<title>Node2&#45;&gt;Node5</title>
<g id="a_edge4_Node000002_Node000005"><a xlink:title=" ">
<path fill="none" stroke="#63b8ff" d="M126.06,-54.98C158.7,-45.58 211.19,-30.46 245.77,-20.51"/>
<polygon fill="#63b8ff" stroke="#63b8ff" points="246.8,-23.85 255.44,-17.72 244.87,-17.12 246.8,-23.85"/>
</a>
</g>
</g>
<!-- Node6 -->
<g id="Node000006" class="node">
<title>Node6</title>
<g id="a_Node000006"><a xlink:title=" ">
<polygon fill="#e0e0e0" stroke="#999999" points="126.5,-19 66.5,-19 66.5,0 126.5,0 126.5,-19"/>
<text text-anchor="middle" x="96.5" y="-7" font-family="Helvetica,sans-Serif" font-size="10.00">iostream</text>
</a>
</g>
</g>
<!-- Node2&#45;&gt;Node6 -->
<g id="edge5_Node000002_Node000006" class="edge">
<title>Node2&#45;&gt;Node6</title>
<g id="a_edge5_Node000002_Node000006"><a xlink:title=" ">
<path fill="none" stroke="#63b8ff" d="M96.5,-54.75C96.5,-47.8 96.5,-37.85 96.5,-29.13"/>
<polygon fill="#63b8ff" stroke="#63b8ff" points="100,-29.09 96.5,-19.09 93,-29.09 100,-29.09"/>
</a>
</g>
</g>
<!-- Node7&#45;&gt;Node2 -->
<g id="edge12_Node000007_Node000002" class="edge">
<title>Node7&#45;&gt;Node2</title>
<g id="a_edge12_Node000007_Node000002"><a xlink:title=" ">
<path fill="none" stroke="#63b8ff" d="M180.43,-109.98C164.64,-101.61 140.28,-88.7 121.87,-78.95"/>
<polygon fill="#63b8ff" stroke="#63b8ff" points="123.33,-75.76 112.86,-74.17 120.06,-81.95 123.33,-75.76"/>
</a>
</g>
</g>
<!-- Node7&#45;&gt;Node4 -->
<g id="edge11_Node000007_Node000004" class="edge">
<title>Node7&#45;&gt;Node4</title>
<g id="a_edge11_Node000007_Node000004"><a xlink:title=" ">
<path fill="none" stroke="#63b8ff" d="M151.98,-116.79C117.71,-113.12 71.47,-102.69 42.5,-74 30.63,-62.24 26.11,-43.4 24.43,-29.28"/>
<polygon fill="#63b8ff" stroke="#63b8ff" points="27.91,-28.89 23.59,-19.21 20.93,-29.46 27.91,-28.89"/>
</a>
</g>
</g>
<!-- Node7&#45;&gt;Node5 -->
<g id="edge10_Node000007_Node000005" class="edge">
<title>Node7&#45;&gt;Node5</title>
<g id="a_edge10_Node000007_Node000005"><a xlink:title=" ">
<path fill="none" stroke="#63b8ff" d="M215.02,-109.88C229.36,-102.32 248.71,-90.03 260.5,-74 270.24,-60.76 275.33,-42.64 277.93,-29.14"/>
<polygon fill="#63b8ff" stroke="#63b8ff" points="281.41,-29.54 279.58,-19.1 274.5,-28.4 281.41,-29.54"/>
</a>
</g>
</g>
<!-- Node8 -->
<g id="Node000008" class="node">
<title>Node8</title>
<g id="a_Node000008"><a xlink:title=" ">
<polygon fill="#e0e0e0" stroke="#999999" points="352.5,-74 308.5,-74 308.5,-55 352.5,-55 352.5,-74"/>
<text text-anchor="middle" x="330.5" y="-62" font-family="Helvetica,sans-Serif" font-size="10.00">string</text>
</a>
</g>
</g>
<!-- Node7&#45;&gt;Node8 -->
<g id="edge9_Node000007_Node000008" class="edge">
<title>Node7&#45;&gt;Node8</title>
<g id="a_edge9_Node000007_Node000008"><a xlink:title=" ">
<path fill="none" stroke="#63b8ff" d="M218.03,-109.98C239.97,-101.3 274.24,-87.75 299.19,-77.88"/>
<polygon fill="#63b8ff" stroke="#63b8ff" points="300.57,-81.1 308.58,-74.17 297.99,-74.59 300.57,-81.1"/>
</a>
</g>
</g>
<!-- Node9 -->
<g id="Node000009" class="node">
<title>Node9</title>
<g id="a_Node000009"><a xlink:title=" ">
<polygon fill="#e0e0e0" stroke="#999999" points="252,-74 159,-74 159,-55 252,-55 252,-74"/>
<text text-anchor="middle" x="205.5" y="-62" font-family="Helvetica,sans-Serif" font-size="10.00">unordered_map</text>
</a>
</g>
</g>
<!-- Node7&#45;&gt;Node9 -->
<g id="edge13_Node000007_Node000009" class="edge">
<title>Node7&#45;&gt;Node9</title>
<g id="a_edge13_Node000007_Node000009"><a xlink:title=" ">
<path fill="none" stroke="#63b8ff" d="M197.99,-109.75C199.17,-102.8 200.86,-92.85 202.34,-84.13"/>
<polygon fill="#63b8ff" stroke="#63b8ff" points="205.82,-84.53 204.04,-74.09 198.92,-83.36 205.82,-84.53"/>
</a>
</g>
</g>
</g>
</svg>
</svg>

<style type='text/css'>
<![CDATA[
[data-mouse-over-selected='false'] { opacity: 0.7; }
[data-mouse-over-selected='true']  { opacity: 1.0; }
]]>
</style>
<script type="application/ecmascript"><![CDATA[
document.addEventListener('DOMContentLoaded', (event) => {
  highlightEdges();
  highlightAdjacentNodes();
});
]]></script>
</svg>
