<?xml version="1.0" encoding="UTF-8" standalone="no"?>
<!DOCTYPE svg PUBLIC "-//W3C//DTD SVG 1.1//EN"
 "http://www.w3.org/Graphics/SVG/1.1/DTD/svg11.dtd">
<!-- Generated by graphviz version 2.43.0 (0)
 -->
<!-- Title: src/CCSDSHeader.cpp Pages: 1 -->
<!--zoomable 632 -->

<svg id="main" version="1.1" xmlns="http://www.w3.org/2000/svg" xmlns:xlink="http://www.w3.org/1999/xlink" xml:space="preserve" onload="init(evt)">
<style type="text/css"><![CDATA[
.node, .edge {opacity: 0.7;}
.node.selected, .edge.selected {opacity: 1;}
.edge:hover path { stroke: red; }
.edge:hover polygon { stroke: red; fill: red; }
]]></style>

<defs>
  <circle id="rim" cx="0" cy="0" r="7"/>
  <circle id="rim2" cx="0" cy="0" r="3.5"/>
  <g id="zoomPlus">
    <use xlink:href="#rim" fill="#404040"><set attributeName="fill" to="#808080" begin="zoomplus.mouseover" end="zoomplus.mouseout"/></use>
    <path d="M-4,0h8M0,-4v8" fill="none" stroke="white" stroke-width="1.5" pointer-events="none"/>
  </g>
  <g id="zoomMin">
    <use xlink:href="#rim" fill="#404040"><set attributeName="fill" to="#808080" begin="zoomminus.mouseover" end="zoomminus.mouseout"/></use>
    <path d="M-4,0h8" fill="none" stroke="white" stroke-width="1.5" pointer-events="none"/>
  </g>
  <g id="arrowUp" transform="translate(30 24)">
    <use xlink:href="#rim"/>
    <path pointer-events="none" fill="none" stroke="white" stroke-width="1.5" d="M0,-3.0v7 M-2.5,-0.5L0,-3.0L2.5,-0.5"/>
  </g>
  <g id="arrowRight" transform="rotate(90) translate(36 -43)">
    <use xlink:href="#rim"/>
    <path pointer-events="none" fill="none" stroke="white" stroke-width="1.5" d="M0,-3.0v7 M-2.5,-0.5L0,-3.0L2.5,-0.5"/>
  </g>
  <g id="arrowDown" transform="rotate(180) translate(-30 -48)">
    <use xlink:href="#rim"/>
    <path pointer-events="none" fill="none" stroke="white" stroke-width="1.5" d="M0,-3.0v7 M-2.5,-0.5L0,-3.0L2.5,-0.5"/>
  </g>
  <g id="arrowLeft" transform="rotate(270) translate(-36 17)">
    <use xlink:href="#rim"/>
    <path pointer-events="none" fill="none" stroke="white" stroke-width="1.5" d="M0,-3.0v7 M-2.5,-0.5L0,-3.0L2.5,-0.5"/>
  </g>
  <g id="resetDef">
    <use xlink:href="#rim2" fill="#404040"><set attributeName="fill" to="#808080" begin="reset.mouseover" end="reset.mouseout"/></use>
  </g>
</defs>
<script type="application/ecmascript">
var viewWidth = 826;
var viewHeight = 632;
var sectionId = 'dynsection-0';
</script>
<script type="application/ecmascript" xlink:href="svg.min.js"/>
<svg id="graph" class="graph">
<g id="viewport">
<title>src/CCSDSHeader.cpp</title>
<!-- Node1 -->
<g id="Node000001" class="node">
<title>Node1</title>
<g id="a_Node000001"><a xlink:title=" ">
<polygon fill="#999999" stroke="#666666" points="162,-624 40,-624 40,-605 162,-605 162,-624"/>
<text text-anchor="middle" x="101" y="-612" font-family="Helvetica,sans-Serif" font-size="10.00">src/CCSDSHeader.cpp</text>
</a>
</g>
</g>
<!-- Node2 -->
<g id="Node000002" class="node">
<title>Node2</title>
<g id="a_Node000002"><a xlink:href="CCSDSHeader_8h.html" target="_top" xlink:title=" ">
<polygon fill="white" stroke="#666666" points="273.5,-129 180.5,-129 180.5,-110 273.5,-110 273.5,-129"/>
<text text-anchor="middle" x="227" y="-117" font-family="Helvetica,sans-Serif" font-size="10.00">CCSDSHeader.h</text>
</a>
</g>
</g>
<!-- Node1&#45;&gt;Node2 -->
<g id="edge1_Node000001_Node000002" class="edge">
<title>Node1&#45;&gt;Node2</title>
<g id="a_edge1_Node000001_Node000002"><a xlink:title=" ">
<path fill="none" stroke="#63b8ff" d="M91.7,-604.97C74.18,-587.92 38,-547.61 38,-505.5 38,-505.5 38,-505.5 38,-228.5 38,-166.95 114.49,-140 170.15,-128.54"/>
<polygon fill="#63b8ff" stroke="#63b8ff" points="171.13,-131.92 180.28,-126.58 169.8,-125.05 171.13,-131.92"/>
</a>
</g>
</g>
<!-- Node8 -->
<g id="Node000008" class="node">
<title>Node8</title>
<g id="a_Node000008"><a xlink:href="CCSDSUtils_8h.html" target="_top" xlink:title=" ">
<polygon fill="white" stroke="#666666" points="250.5,-569 169.5,-569 169.5,-550 250.5,-550 250.5,-569"/>
<text text-anchor="middle" x="210" y="-557" font-family="Helvetica,sans-Serif" font-size="10.00">CCSDSUtils.h</text>
</a>
</g>
</g>
<!-- Node1&#45;&gt;Node8 -->
<g id="edge9_Node000001_Node000008" class="edge">
<title>Node1&#45;&gt;Node8</title>
<g id="a_edge9_Node000001_Node000008"><a xlink:title=" ">
<path fill="none" stroke="#63b8ff" d="M118.51,-604.98C135.97,-596.5 163.01,-583.35 183.17,-573.54"/>
<polygon fill="#63b8ff" stroke="#63b8ff" points="184.71,-576.69 192.17,-569.17 181.64,-570.4 184.71,-576.69"/>
</a>
</g>
</g>
<!-- Node3 -->
<g id="Node000003" class="node">
<title>Node3</title>
<g id="a_Node000003"><a xlink:href="CCSDSResult_8h.html" target="_top" xlink:title=" ">
<polygon fill="white" stroke="#666666" points="258.5,-74 169.5,-74 169.5,-55 258.5,-55 258.5,-74"/>
<text text-anchor="middle" x="214" y="-62" font-family="Helvetica,sans-Serif" font-size="10.00">CCSDSResult.h</text>
</a>
</g>
</g>
<!-- Node2&#45;&gt;Node3 -->
<g id="edge2_Node000002_Node000003" class="edge">
<title>Node2&#45;&gt;Node3</title>
<g id="a_edge2_Node000002_Node000003"><a xlink:title=" ">
<path fill="none" stroke="#63b8ff" d="M224.85,-109.75C223.13,-102.72 220.65,-92.62 218.5,-83.84"/>
<polygon fill="#63b8ff" stroke="#63b8ff" points="221.89,-82.97 216.11,-74.09 215.09,-84.63 221.89,-82.97"/>
</a>
</g>
</g>
<!-- Node5 -->
<g id="Node000005" class="node">
<title>Node5</title>
<g id="a_Node000005"><a xlink:title=" ">
<polygon fill="#e0e0e0" stroke="#999999" points="500.5,-19 453.5,-19 453.5,0 500.5,0 500.5,-19"/>
<text text-anchor="middle" x="477" y="-7" font-family="Helvetica,sans-Serif" font-size="10.00">vector</text>
</a>
</g>
</g>
<!-- Node2&#45;&gt;Node5 -->
<g id="edge8_Node000002_Node000005" class="edge">
<title>Node2&#45;&gt;Node5</title>
<g id="a_edge8_Node000002_Node000005"><a xlink:title=" ">
<path fill="none" stroke="#63b8ff" d="M247.04,-109.84C291.12,-90.8 396.68,-45.2 448,-23.03"/>
<polygon fill="#63b8ff" stroke="#63b8ff" points="449.42,-26.23 457.22,-19.05 446.65,-19.8 449.42,-26.23"/>
</a>
</g>
</g>
<!-- Node6 -->
<g id="Node000006" class="node">
<title>Node6</title>
<g id="a_Node000006"><a xlink:title=" ">
<polygon fill="#e0e0e0" stroke="#999999" points="341,-19 291,-19 291,0 341,0 341,-19"/>
<text text-anchor="middle" x="316" y="-7" font-family="Helvetica,sans-Serif" font-size="10.00">cstdint</text>
</a>
</g>
</g>
<!-- Node2&#45;&gt;Node6 -->
<g id="edge7_Node000002_Node000006" class="edge">
<title>Node2&#45;&gt;Node6</title>
<g id="a_edge7_Node000002_Node000006"><a xlink:title=" ">
<path fill="none" stroke="#63b8ff" d="M235.43,-109.86C243.9,-101.06 257.23,-86.9 268,-74 280.69,-58.81 294.21,-40.74 303.65,-27.77"/>
<polygon fill="#63b8ff" stroke="#63b8ff" points="306.72,-29.49 309.74,-19.33 301.05,-25.39 306.72,-29.49"/>
</a>
</g>
</g>
<!-- Node4 -->
<g id="Node000004" class="node">
<title>Node4</title>
<g id="a_Node000004"><a xlink:title=" ">
<polygon fill="#e0e0e0" stroke="#999999" points="175.5,-19 124.5,-19 124.5,0 175.5,0 175.5,-19"/>
<text text-anchor="middle" x="150" y="-7" font-family="Helvetica,sans-Serif" font-size="10.00">variant</text>
</a>
</g>
</g>
<!-- Node3&#45;&gt;Node4 -->
<g id="edge3_Node000003_Node000004" class="edge">
<title>Node3&#45;&gt;Node4</title>
<g id="a_edge3_Node000003_Node000004"><a xlink:title=" ">
<path fill="none" stroke="#63b8ff" d="M203.72,-54.98C194.16,-47.07 179.72,-35.11 168.22,-25.58"/>
<polygon fill="#63b8ff" stroke="#63b8ff" points="170.4,-22.85 160.47,-19.17 165.94,-28.24 170.4,-22.85"/>
</a>
</g>
</g>
<!-- Node3&#45;&gt;Node5 -->
<g id="edge4_Node000003_Node000005" class="edge">
<title>Node3&#45;&gt;Node5</title>
<g id="a_edge4_Node000003_Node000005"><a xlink:title=" ">
<path fill="none" stroke="#63b8ff" d="M256.26,-54.98C308.34,-44.49 395.78,-26.87 443.48,-17.25"/>
<polygon fill="#63b8ff" stroke="#63b8ff" points="444.2,-20.68 453.31,-15.27 442.82,-13.82 444.2,-20.68"/>
</a>
</g>
</g>
<!-- Node3&#45;&gt;Node6 -->
<g id="edge5_Node000003_Node000006" class="edge">
<title>Node3&#45;&gt;Node6</title>
<g id="a_edge5_Node000003_Node000006"><a xlink:title=" ">
<path fill="none" stroke="#63b8ff" d="M230.39,-54.98C246.57,-46.57 271.57,-33.59 290.38,-23.81"/>
<polygon fill="#63b8ff" stroke="#63b8ff" points="292.05,-26.89 299.31,-19.17 288.83,-20.68 292.05,-26.89"/>
</a>
</g>
</g>
<!-- Node7 -->
<g id="Node000007" class="node">
<title>Node7</title>
<g id="a_Node000007"><a xlink:title=" ">
<polygon fill="#e0e0e0" stroke="#999999" points="254,-19 194,-19 194,0 254,0 254,-19"/>
<text text-anchor="middle" x="224" y="-7" font-family="Helvetica,sans-Serif" font-size="10.00">iostream</text>
</a>
</g>
</g>
<!-- Node3&#45;&gt;Node7 -->
<g id="edge6_Node000003_Node000007" class="edge">
<title>Node3&#45;&gt;Node7</title>
<g id="a_edge6_Node000003_Node000007"><a xlink:title=" ">
<path fill="none" stroke="#63b8ff" d="M215.65,-54.75C216.96,-47.8 218.84,-37.85 220.48,-29.13"/>
<polygon fill="#63b8ff" stroke="#63b8ff" points="223.96,-29.56 222.38,-19.09 217.09,-28.27 223.96,-29.56"/>
</a>
</g>
</g>
<!-- Node8&#45;&gt;Node5 -->
<g id="edge46_Node000008_Node000005" class="edge">
<title>Node8&#45;&gt;Node5</title>
<g id="a_edge46_Node000008_Node000005"><a xlink:title=" ">
<path fill="none" stroke="#63b8ff" d="M250.71,-558.06C329.61,-556.42 508.39,-548.81 654,-514 730.02,-495.83 818,-528.66 818,-450.5 818,-450.5 818,-450.5 818,-118.5 818,-54.49 596.87,-23.54 510.75,-13.91"/>
<polygon fill="#63b8ff" stroke="#63b8ff" points="511.03,-10.42 500.71,-12.81 510.27,-17.38 511.03,-10.42"/>
</a>
</g>
</g>
<!-- Node9 -->
<g id="Node000009" class="node">
<title>Node9</title>
<g id="a_Node000009"><a xlink:href="CCSDSPacket_8h.html" target="_top" xlink:title=" ">
<polygon fill="white" stroke="#666666" points="301,-404 211,-404 211,-385 301,-385 301,-404"/>
<text text-anchor="middle" x="256" y="-392" font-family="Helvetica,sans-Serif" font-size="10.00">CCSDSPacket.h</text>
</a>
</g>
</g>
<!-- Node8&#45;&gt;Node9 -->
<g id="edge10_Node000008_Node000009" class="edge">
<title>Node8&#45;&gt;Node9</title>
<g id="a_edge10_Node000008_Node000009"><a xlink:title=" ">
<path fill="none" stroke="#63b8ff" d="M193.79,-549.98C180.52,-542.24 162.19,-529.66 151,-514 131.32,-486.46 113.56,-467.71 133,-440 148.43,-418.01 175.86,-406.84 200.91,-401.19"/>
<polygon fill="#63b8ff" stroke="#63b8ff" points="201.61,-404.62 210.73,-399.21 200.24,-397.75 201.61,-404.62"/>
</a>
</g>
</g>
<!-- Node14 -->
<g id="Node000014" class="node">
<title>Node14</title>
<g id="a_Node000014"><a xlink:title=" ">
<polygon fill="#e0e0e0" stroke="#999999" points="661,-74 617,-74 617,-55 661,-55 661,-74"/>
<text text-anchor="middle" x="639" y="-62" font-family="Helvetica,sans-Serif" font-size="10.00">string</text>
</a>
</g>
</g>
<!-- Node8&#45;&gt;Node14 -->
<g id="edge45_Node000008_Node000014" class="edge">
<title>Node8&#45;&gt;Node14</title>
<g id="a_edge45_Node000008_Node000014"><a xlink:title=" ">
<path fill="none" stroke="#63b8ff" d="M250.54,-555.12C380.76,-543.74 780,-504.45 780,-450.5 780,-450.5 780,-450.5 780,-173.5 780,-118.81 712.31,-88.06 670.73,-74.33"/>
<polygon fill="#63b8ff" stroke="#63b8ff" points="671.62,-70.94 661.03,-71.27 669.52,-77.62 671.62,-70.94"/>
</a>
</g>
</g>
<!-- Node19 -->
<g id="Node000019" class="node">
<title>Node19</title>
<g id="a_Node000019"><a xlink:href="CCSDSManager_8h.html" target="_top" xlink:title=" ">
<polygon fill="white" stroke="#666666" points="260.5,-514 159.5,-514 159.5,-495 260.5,-495 260.5,-514"/>
<text text-anchor="middle" x="210" y="-502" font-family="Helvetica,sans-Serif" font-size="10.00">CCSDSManager.h</text>
</a>
</g>
</g>
<!-- Node8&#45;&gt;Node19 -->
<g id="edge39_Node000008_Node000019" class="edge">
<title>Node8&#45;&gt;Node19</title>
<g id="a_edge39_Node000008_Node000019"><a xlink:title=" ">
<path fill="none" stroke="#63b8ff" d="M210,-549.75C210,-542.8 210,-532.85 210,-524.13"/>
<polygon fill="#63b8ff" stroke="#63b8ff" points="213.5,-524.09 210,-514.09 206.5,-524.09 213.5,-524.09"/>
</a>
</g>
</g>
<!-- Node9&#45;&gt;Node2 -->
<g id="edge13_Node000009_Node000002" class="edge">
<title>Node9&#45;&gt;Node2</title>
<g id="a_edge13_Node000009_Node000002"><a xlink:title=" ">
<path fill="none" stroke="#63b8ff" d="M245.98,-384.8C227.51,-367.76 190,-327.91 190,-285.5 190,-285.5 190,-285.5 190,-228.5 190,-195.12 206.02,-158.91 216.98,-138.04"/>
<polygon fill="#63b8ff" stroke="#63b8ff" points="220.13,-139.57 221.86,-129.12 213.99,-136.21 220.13,-139.57"/>
</a>
</g>
</g>
<!-- Node9&#45;&gt;Node3 -->
<g id="edge11_Node000009_Node000003" class="edge">
<title>Node9&#45;&gt;Node3</title>
<g id="a_edge11_Node000009_Node000003"><a xlink:title=" ">
<path fill="none" stroke="#63b8ff" d="M210.58,-386.49C157.25,-375.39 76,-348.18 76,-285.5 76,-285.5 76,-285.5 76,-173.5 76,-122.94 134.15,-92.51 174.95,-77.39"/>
<polygon fill="#63b8ff" stroke="#63b8ff" points="176.14,-80.68 184.4,-74.04 173.8,-74.08 176.14,-80.68"/>
</a>
</g>
</g>
<!-- Node9&#45;&gt;Node5 -->
<g id="edge12_Node000009_Node000005" class="edge">
<title>Node9&#45;&gt;Node5</title>
<g id="a_edge12_Node000009_Node000005"><a xlink:title=" ">
<path fill="none" stroke="#63b8ff" d="M301.29,-393C421.93,-390.47 742,-375.28 742,-285.5 742,-285.5 742,-285.5 742,-118.5 742,-83.12 723.92,-73.88 694,-55 636.79,-18.9 555.75,-11.4 510.64,-10.24"/>
<polygon fill="#63b8ff" stroke="#63b8ff" points="510.57,-6.74 500.51,-10.07 510.45,-13.74 510.57,-6.74"/>
</a>
</g>
</g>
<!-- Node10 -->
<g id="Node000010" class="node">
<title>Node10</title>
<g id="a_Node000010"><a xlink:href="CCSDSDataField_8h.html" target="_top" xlink:title=" ">
<polygon fill="white" stroke="#666666" points="469.5,-349 364.5,-349 364.5,-330 469.5,-330 469.5,-349"/>
<text text-anchor="middle" x="417" y="-337" font-family="Helvetica,sans-Serif" font-size="10.00">CCSDSDataField.h</text>
</a>
</g>
</g>
<!-- Node9&#45;&gt;Node10 -->
<g id="edge14_Node000009_Node000010" class="edge">
<title>Node9&#45;&gt;Node10</title>
<g id="a_edge14_Node000009_Node000010"><a xlink:title=" ">
<path fill="none" stroke="#63b8ff" d="M281.87,-384.98C308.78,-376.13 351.12,-362.19 381.23,-352.28"/>
<polygon fill="#63b8ff" stroke="#63b8ff" points="382.53,-355.53 390.93,-349.08 380.34,-348.88 382.53,-355.53"/>
</a>
</g>
</g>
<!-- Node10&#45;&gt;Node3 -->
<g id="edge15_Node000010_Node000003" class="edge">
<title>Node10&#45;&gt;Node3</title>
<g id="a_edge15_Node000010_Node000003"><a xlink:title=" ">
<path fill="none" stroke="#63b8ff" d="M394.53,-329.95C347.86,-311.03 240.04,-261.1 183,-184 162.74,-156.61 148.9,-141.01 163,-110 168.62,-97.63 179.57,-87.36 189.89,-79.81"/>
<polygon fill="#63b8ff" stroke="#63b8ff" points="191.96,-82.63 198.27,-74.12 188.03,-76.84 191.96,-82.63"/>
</a>
</g>
</g>
<!-- Node10&#45;&gt;Node5 -->
<g id="edge16_Node000010_Node000005" class="edge">
<title>Node10&#45;&gt;Node5</title>
<g id="a_edge16_Node000010_Node000005"><a xlink:title=" ">
<path fill="none" stroke="#63b8ff" d="M468.64,-329.98C551.27,-314.87 704,-280.21 704,-230.5 704,-230.5 704,-230.5 704,-118.5 704,-86.49 695.43,-74.45 670,-55 623.14,-19.16 552.41,-11.37 510.84,-10.13"/>
<polygon fill="#63b8ff" stroke="#63b8ff" points="510.75,-6.63 500.69,-9.94 510.62,-13.63 510.75,-6.63"/>
</a>
</g>
</g>
<!-- Node11 -->
<g id="Node000011" class="node">
<title>Node11</title>
<g id="a_Node000011"><a xlink:title=" ">
<polygon fill="#e0e0e0" stroke="#999999" points="676,-184 618,-184 618,-165 676,-165 676,-184"/>
<text text-anchor="middle" x="647" y="-172" font-family="Helvetica,sans-Serif" font-size="10.00">memory</text>
</a>
</g>
</g>
<!-- Node10&#45;&gt;Node11 -->
<g id="edge17_Node000010_Node000011" class="edge">
<title>Node10&#45;&gt;Node11</title>
<g id="a_edge17_Node000010_Node000011"><a xlink:title=" ">
<path fill="none" stroke="#63b8ff" d="M467.55,-329.95C518.67,-318.51 595.84,-293.02 637,-239 646.62,-226.38 648.64,-208.19 648.53,-194.51"/>
<polygon fill="#63b8ff" stroke="#63b8ff" points="652.02,-194.13 648.06,-184.3 645.02,-194.45 652.02,-194.13"/>
</a>
</g>
</g>
<!-- Node12 -->
<g id="Node000012" class="node">
<title>Node12</title>
<g id="a_Node000012"><a xlink:href="CCSDSSecondaryHeaderAbstract_8h.html" target="_top" xlink:title=" ">
<polygon fill="white" stroke="#666666" points="402.5,-184 217.5,-184 217.5,-165 402.5,-165 402.5,-184"/>
<text text-anchor="middle" x="310" y="-172" font-family="Helvetica,sans-Serif" font-size="10.00">CCSDSSecondaryHeaderAbstract.h</text>
</a>
</g>
</g>
<!-- Node10&#45;&gt;Node12 -->
<g id="edge18_Node000010_Node000012" class="edge">
<title>Node10&#45;&gt;Node12</title>
<g id="a_edge18_Node000010_Node000012"><a xlink:title=" ">
<path fill="none" stroke="#63b8ff" d="M404.36,-329.81C393.15,-321.61 376.91,-308.43 366,-294 341.96,-262.21 324.6,-218.44 316.03,-193.97"/>
<polygon fill="#63b8ff" stroke="#63b8ff" points="319.25,-192.55 312.72,-184.2 312.62,-194.79 319.25,-192.55"/>
</a>
</g>
</g>
<!-- Node16 -->
<g id="Node000016" class="node">
<title>Node16</title>
<g id="a_Node000016"><a xlink:href="CCSDSSecondaryHeaderFactory_8h.html" target="_top" xlink:title=" ">
<polygon fill="white" stroke="#666666" points="627.5,-239 448.5,-239 448.5,-220 627.5,-220 627.5,-239"/>
<text text-anchor="middle" x="538" y="-227" font-family="Helvetica,sans-Serif" font-size="10.00">CCSDSSecondaryHeaderFactory.h</text>
</a>
</g>
</g>
<!-- Node10&#45;&gt;Node16 -->
<g id="edge28_Node000010_Node000016" class="edge">
<title>Node10&#45;&gt;Node16</title>
<g id="a_edge28_Node000010_Node000016"><a xlink:title=" ">
<path fill="none" stroke="#63b8ff" d="M427.21,-329.69C437.54,-320.76 453.95,-306.5 468,-294 486.24,-277.77 506.93,-258.96 521.05,-246.04"/>
<polygon fill="#63b8ff" stroke="#63b8ff" points="523.53,-248.52 528.54,-239.19 518.8,-243.36 523.53,-248.52"/>
</a>
</g>
</g>
<!-- Node18 -->
<g id="Node000018" class="node">
<title>Node18</title>
<g id="a_Node000018"><a xlink:href="PusServices_8h.html" target="_top" xlink:title=" ">
<polygon fill="white" stroke="#666666" points="459,-294 375,-294 375,-275 459,-275 459,-294"/>
<text text-anchor="middle" x="417" y="-282" font-family="Helvetica,sans-Serif" font-size="10.00">PusServices.h</text>
</a>
</g>
</g>
<!-- Node10&#45;&gt;Node18 -->
<g id="edge34_Node000010_Node000018" class="edge">
<title>Node10&#45;&gt;Node18</title>
<g id="a_edge34_Node000010_Node000018"><a xlink:title=" ">
<path fill="none" stroke="#63b8ff" d="M417,-329.75C417,-322.8 417,-312.85 417,-304.13"/>
<polygon fill="#63b8ff" stroke="#63b8ff" points="420.5,-304.09 417,-294.09 413.5,-304.09 420.5,-304.09"/>
</a>
</g>
</g>
<!-- Node12&#45;&gt;Node3 -->
<g id="edge19_Node000012_Node000003" class="edge">
<title>Node12&#45;&gt;Node3</title>
<g id="a_edge19_Node000012_Node000003"><a xlink:title=" ">
<path fill="none" stroke="#63b8ff" d="M308.06,-164.83C304.77,-151.74 297.05,-126.68 283,-110 272.03,-96.98 256.28,-86.42 242.59,-78.86"/>
<polygon fill="#63b8ff" stroke="#63b8ff" points="244.02,-75.66 233.53,-74.12 240.77,-81.86 244.02,-75.66"/>
</a>
</g>
</g>
<!-- Node12&#45;&gt;Node5 -->
<g id="edge20_Node000012_Node000005" class="edge">
<title>Node12&#45;&gt;Node5</title>
<g id="a_edge20_Node000012_Node000005"><a xlink:title=" ">
<path fill="none" stroke="#63b8ff" d="M318.98,-164.74C345.82,-138.53 425.76,-60.51 460.53,-26.57"/>
<polygon fill="#63b8ff" stroke="#63b8ff" points="463.27,-28.8 467.98,-19.31 458.38,-23.79 463.27,-28.8"/>
</a>
</g>
</g>
<!-- Node12&#45;&gt;Node6 -->
<g id="edge21_Node000012_Node000006" class="edge">
<title>Node12&#45;&gt;Node6</title>
<g id="a_edge21_Node000012_Node000006"><a xlink:title=" ">
<path fill="none" stroke="#63b8ff" d="M310.32,-164.74C311.26,-139.31 313.99,-65.08 315.29,-29.69"/>
<polygon fill="#63b8ff" stroke="#63b8ff" points="318.81,-29.43 315.68,-19.31 311.81,-29.17 318.81,-29.43"/>
</a>
</g>
</g>
<!-- Node13 -->
<g id="Node000013" class="node">
<title>Node13</title>
<g id="a_Node000013"><a xlink:href="CCSDSConfig_8h.html" target="_top" xlink:title=" ">
<polygon fill="white" stroke="#666666" points="518.5,-129 429.5,-129 429.5,-110 518.5,-110 518.5,-129"/>
<text text-anchor="middle" x="474" y="-117" font-family="Helvetica,sans-Serif" font-size="10.00">CCSDSConfig.h</text>
</a>
</g>
</g>
<!-- Node12&#45;&gt;Node13 -->
<g id="edge22_Node000012_Node000013" class="edge">
<title>Node12&#45;&gt;Node13</title>
<g id="a_edge22_Node000012_Node000013"><a xlink:title=" ">
<path fill="none" stroke="#63b8ff" d="M336.35,-164.98C363.76,-156.13 406.89,-142.19 437.56,-132.28"/>
<polygon fill="#63b8ff" stroke="#63b8ff" points="439,-135.49 447.44,-129.08 436.85,-128.83 439,-135.49"/>
</a>
</g>
</g>
<!-- Node13&#45;&gt;Node3 -->
<g id="edge26_Node000013_Node000003" class="edge">
<title>Node13&#45;&gt;Node3</title>
<g id="a_edge26_Node000013_Node000003"><a xlink:title=" ">
<path fill="none" stroke="#63b8ff" d="M432.23,-109.98C387.06,-100.78 315,-86.09 266.15,-76.13"/>
<polygon fill="#63b8ff" stroke="#63b8ff" points="266.6,-72.65 256.1,-74.08 265.2,-79.51 266.6,-72.65"/>
</a>
</g>
</g>
<!-- Node13&#45;&gt;Node5 -->
<g id="edge25_Node000013_Node000005" class="edge">
<title>Node13&#45;&gt;Node5</title>
<g id="a_edge25_Node000013_Node000005"><a xlink:title=" ">
<path fill="none" stroke="#63b8ff" d="M474.25,-109.66C474.73,-92.17 475.82,-52.8 476.48,-29.27"/>
<polygon fill="#63b8ff" stroke="#63b8ff" points="479.98,-29.25 476.76,-19.16 472.98,-29.06 479.98,-29.25"/>
</a>
</g>
</g>
<!-- Node13&#45;&gt;Node6 -->
<g id="edge24_Node000013_Node000006" class="edge">
<title>Node13&#45;&gt;Node6</title>
<g id="a_edge24_Node000013_Node000006"><a xlink:title=" ">
<path fill="none" stroke="#63b8ff" d="M461.34,-109.84C434.3,-91.36 370.66,-47.86 337.28,-25.05"/>
<polygon fill="#63b8ff" stroke="#63b8ff" points="338.95,-21.95 328.72,-19.2 335,-27.73 338.95,-21.95"/>
</a>
</g>
</g>
<!-- Node13&#45;&gt;Node14 -->
<g id="edge23_Node000013_Node000014" class="edge">
<title>Node13&#45;&gt;Node14</title>
<g id="a_edge23_Node000013_Node000014"><a xlink:title=" ">
<path fill="none" stroke="#63b8ff" d="M500.51,-109.98C529.48,-100.68 575.9,-85.77 606.91,-75.81"/>
<polygon fill="#63b8ff" stroke="#63b8ff" points="608.34,-79.03 616.79,-72.63 606.2,-72.36 608.34,-79.03"/>
</a>
</g>
</g>
<!-- Node15 -->
<g id="Node000015" class="node">
<title>Node15</title>
<g id="a_Node000015"><a xlink:title=" ">
<polygon fill="#e0e0e0" stroke="#999999" points="598.5,-74 505.5,-74 505.5,-55 598.5,-55 598.5,-74"/>
<text text-anchor="middle" x="552" y="-62" font-family="Helvetica,sans-Serif" font-size="10.00">unordered_map</text>
</a>
</g>
</g>
<!-- Node13&#45;&gt;Node15 -->
<g id="edge27_Node000013_Node000015" class="edge">
<title>Node13&#45;&gt;Node15</title>
<g id="a_edge27_Node000013_Node000015"><a xlink:title=" ">
<path fill="none" stroke="#63b8ff" d="M486.53,-109.98C498.4,-101.92 516.46,-89.65 530.61,-80.03"/>
<polygon fill="#63b8ff" stroke="#63b8ff" points="532.94,-82.69 539.24,-74.17 529,-76.9 532.94,-82.69"/>
</a>
</g>
</g>
<!-- Node16&#45;&gt;Node11 -->
<g id="edge29_Node000016_Node000011" class="edge">
<title>Node16&#45;&gt;Node11</title>
<g id="a_edge29_Node000016_Node000011"><a xlink:title=" ">
<path fill="none" stroke="#63b8ff" d="M555.51,-219.98C572.97,-211.5 600.01,-198.35 620.17,-188.54"/>
<polygon fill="#63b8ff" stroke="#63b8ff" points="621.71,-191.69 629.17,-184.17 618.64,-185.4 621.71,-191.69"/>
</a>
</g>
</g>
<!-- Node16&#45;&gt;Node12 -->
<g id="edge33_Node000016_Node000012" class="edge">
<title>Node16&#45;&gt;Node12</title>
<g id="a_edge33_Node000016_Node000012"><a xlink:title=" ">
<path fill="none" stroke="#63b8ff" d="M501.37,-219.98C462.09,-210.86 399.63,-196.33 356.81,-186.38"/>
<polygon fill="#63b8ff" stroke="#63b8ff" points="357.45,-182.94 346.92,-184.08 355.87,-189.76 357.45,-182.94"/>
</a>
</g>
</g>
<!-- Node16&#45;&gt;Node14 -->
<g id="edge32_Node000016_Node000014" class="edge">
<title>Node16&#45;&gt;Node14</title>
<g id="a_edge32_Node000016_Node000014"><a xlink:title=" ">
<path fill="none" stroke="#63b8ff" d="M543.43,-219.74C559.46,-193.87 606.79,-117.48 628.23,-82.88"/>
<polygon fill="#63b8ff" stroke="#63b8ff" points="631.25,-84.65 633.54,-74.31 625.3,-80.96 631.25,-84.65"/>
</a>
</g>
</g>
<!-- Node16&#45;&gt;Node15 -->
<g id="edge30_Node000016_Node000015" class="edge">
<title>Node16&#45;&gt;Node15</title>
<g id="a_edge30_Node000016_Node000015"><a xlink:title=" ">
<path fill="none" stroke="#63b8ff" d="M538.75,-219.74C540.94,-194.31 547.31,-120.08 550.35,-84.69"/>
<polygon fill="#63b8ff" stroke="#63b8ff" points="553.87,-84.57 551.24,-74.31 546.9,-83.97 553.87,-84.57"/>
</a>
</g>
</g>
<!-- Node17 -->
<g id="Node000017" class="node">
<title>Node17</title>
<g id="a_Node000017"><a xlink:title=" ">
<polygon fill="#e0e0e0" stroke="#999999" points="523.5,-184 458.5,-184 458.5,-165 523.5,-165 523.5,-184"/>
<text text-anchor="middle" x="491" y="-172" font-family="Helvetica,sans-Serif" font-size="10.00">functional</text>
</a>
</g>
</g>
<!-- Node16&#45;&gt;Node17 -->
<g id="edge31_Node000016_Node000017" class="edge">
<title>Node16&#45;&gt;Node17</title>
<g id="a_edge31_Node000016_Node000017"><a xlink:title=" ">
<path fill="none" stroke="#63b8ff" d="M530.24,-219.75C523.53,-212.18 513.66,-201.05 505.49,-191.84"/>
<polygon fill="#63b8ff" stroke="#63b8ff" points="507.87,-189.25 498.62,-184.09 502.63,-193.89 507.87,-189.25"/>
</a>
</g>
</g>
<!-- Node18&#45;&gt;Node3 -->
<g id="edge37_Node000018_Node000003" class="edge">
<title>Node18&#45;&gt;Node3</title>
<g id="a_edge37_Node000018_Node000003"><a xlink:title=" ">
<path fill="none" stroke="#63b8ff" d="M387.66,-274.97C344.66,-261.32 263.68,-231.23 209,-184 181.17,-159.96 158.42,-144.17 172,-110 176.52,-98.63 185.47,-88.48 193.96,-80.76"/>
<polygon fill="#63b8ff" stroke="#63b8ff" points="196.41,-83.27 201.79,-74.14 191.89,-77.92 196.41,-83.27"/>
</a>
</g>
</g>
<!-- Node18&#45;&gt;Node12 -->
<g id="edge35_Node000018_Node000012" class="edge">
<title>Node18&#45;&gt;Node12</title>
<g id="a_edge35_Node000018_Node000012"><a xlink:title=" ">
<path fill="none" stroke="#63b8ff" d="M408.24,-274.66C390.21,-256.46 348.69,-214.55 325.82,-191.47"/>
<polygon fill="#63b8ff" stroke="#63b8ff" points="328.1,-188.8 318.58,-184.16 323.13,-193.73 328.1,-188.8"/>
</a>
</g>
</g>
<!-- Node18&#45;&gt;Node13 -->
<g id="edge38_Node000018_Node000013" class="edge">
<title>Node18&#45;&gt;Node13</title>
<g id="a_edge38_Node000018_Node000013"><a xlink:title=" ">
<path fill="none" stroke="#63b8ff" d="M418.69,-274.95C422.76,-255.16 433.95,-204.81 450,-165 453.73,-155.74 458.89,-145.92 463.46,-137.87"/>
<polygon fill="#63b8ff" stroke="#63b8ff" points="466.58,-139.48 468.62,-129.08 460.54,-135.94 466.58,-139.48"/>
</a>
</g>
</g>
<!-- Node18&#45;&gt;Node16 -->
<g id="edge36_Node000018_Node000016" class="edge">
<title>Node18&#45;&gt;Node16</title>
<g id="a_edge36_Node000018_Node000016"><a xlink:title=" ">
<path fill="none" stroke="#63b8ff" d="M436.44,-274.98C455.99,-266.42 486.38,-253.11 508.82,-243.28"/>
<polygon fill="#63b8ff" stroke="#63b8ff" points="510.45,-246.39 518.21,-239.17 507.64,-239.98 510.45,-246.39"/>
</a>
</g>
</g>
<!-- Node19&#45;&gt;Node3 -->
<g id="edge42_Node000019_Node000003" class="edge">
<title>Node19&#45;&gt;Node3</title>
<g id="a_edge42_Node000019_Node000003"><a xlink:title=" ">
<path fill="none" stroke="#63b8ff" d="M190.62,-494.91C138.63,-470.4 0,-394.81 0,-285.5 0,-285.5 0,-285.5 0,-173.5 0,-102.25 95.73,-77.99 159.13,-69.74"/>
<polygon fill="#63b8ff" stroke="#63b8ff" points="159.89,-73.18 169.4,-68.51 159.05,-66.23 159.89,-73.18"/>
</a>
</g>
</g>
<!-- Node19&#45;&gt;Node9 -->
<g id="edge41_Node000019_Node000009" class="edge">
<title>Node19&#45;&gt;Node9</title>
<g id="a_edge41_Node000019_Node000009"><a xlink:title=" ">
<path fill="none" stroke="#63b8ff" d="M260.59,-494.94C281.4,-488.65 303.51,-477.78 316,-459 328.78,-439.77 305.14,-420.95 283.88,-408.86"/>
<polygon fill="#63b8ff" stroke="#63b8ff" points="285.49,-405.75 275.02,-404.11 282.18,-411.92 285.49,-405.75"/>
</a>
</g>
</g>
<!-- Node20 -->
<g id="Node000020" class="node">
<title>Node20</title>
<g id="a_Node000020"><a xlink:title=" ">
<polygon fill="#e0e0e0" stroke="#999999" points="187.5,-459 142.5,-459 142.5,-440 187.5,-440 187.5,-459"/>
<text text-anchor="middle" x="165" y="-447" font-family="Helvetica,sans-Serif" font-size="10.00">utility</text>
</a>
</g>
</g>
<!-- Node19&#45;&gt;Node20 -->
<g id="edge40_Node000019_Node000020" class="edge">
<title>Node19&#45;&gt;Node20</title>
<g id="a_edge40_Node000019_Node000020"><a xlink:title=" ">
<path fill="none" stroke="#63b8ff" d="M202.57,-494.75C196.15,-487.18 186.69,-476.05 178.88,-466.84"/>
<polygon fill="#63b8ff" stroke="#63b8ff" points="181.43,-464.45 172.29,-459.09 176.1,-468.98 181.43,-464.45"/>
</a>
</g>
</g>
<!-- Node21 -->
<g id="Node000021" class="node">
<title>Node21</title>
<g id="a_Node000021"><a xlink:href="CCSDSValidator_8h.html" target="_top" xlink:title="Defines the Validator class for CCSDS packet validation.">
<polygon fill="white" stroke="#666666" points="306.5,-459 205.5,-459 205.5,-440 306.5,-440 306.5,-459"/>
<text text-anchor="middle" x="256" y="-447" font-family="Helvetica,sans-Serif" font-size="10.00">CCSDSValidator.h</text>
</a>
</g>
</g>
<!-- Node19&#45;&gt;Node21 -->
<g id="edge43_Node000019_Node000021" class="edge">
<title>Node19&#45;&gt;Node21</title>
<g id="a_edge43_Node000019_Node000021"><a xlink:title=" ">
<path fill="none" stroke="#63b8ff" d="M217.6,-494.75C224.16,-487.18 233.82,-476.05 241.81,-466.84"/>
<polygon fill="#63b8ff" stroke="#63b8ff" points="244.63,-468.94 248.55,-459.09 239.35,-464.35 244.63,-468.94"/>
</a>
</g>
</g>
<!-- Node21&#45;&gt;Node9 -->
<g id="edge44_Node000021_Node000009" class="edge">
<title>Node21&#45;&gt;Node9</title>
<g id="a_edge44_Node000021_Node000009"><a xlink:title=" ">
<path fill="none" stroke="#63b8ff" d="M256,-439.75C256,-432.8 256,-422.85 256,-414.13"/>
<polygon fill="#63b8ff" stroke="#63b8ff" points="259.5,-414.09 256,-404.09 252.5,-414.09 259.5,-414.09"/>
</a>
</g>
</g>
</g>
</svg>

<g id="navigator" transform="translate(0 0)" fill="#404254">
  <rect fill="#f2f5e9" fill-opacity="0.5" stroke="#606060" stroke-width=".5" x="0" y="0" width="60" height="60"/>
  <use id="zoomplus" xlink:href="#zoomPlus" x="17" y="9" onmousedown="handleZoom(evt,'in')"/>
  <use id="zoomminus" xlink:href="#zoomMin" x="42" y="9" onmousedown="handleZoom(evt,'out')"/>
  <use id="reset" xlink:href="#resetDef" x="30" y="36" onmousedown="handleReset()"/>
   <use id="arrowup" xlink:href="#arrowUp" x="0" y="0" onmousedown="handlePan(0,-1)"/>
  <use id="arrowright" xlink:href="#arrowRight" x="0" y="0" onmousedown="handlePan(1,0)"/>
  <use id="arrowdown" xlink:href="#arrowDown" x="0" y="0" onmousedown="handlePan(0,1)"/>
  <use id="arrowleft" xlink:href="#arrowLeft" x="0" y="0" onmousedown="handlePan(-1,0)"/>
</g>
<svg viewBox="0 0 15 15" width="100%" height="30px" preserveAspectRatio="xMaxYMin meet">
 <g id="arrow_out" transform="scale(0.3 0.3)">
  <a xlink:href="CCSDSHeader_8cpp__incl_org.svg" target="_base">
   <rect id="button" ry="5" rx="5" y="6" x="6" height="38" width="38"
        fill="#f2f5e9" fill-opacity="0.5" stroke="#606060" stroke-width="1.0"/>
   <path id="arrow"
     d="M 11.500037,31.436501 C 11.940474,20.09759 22.043105,11.32322 32.158766,21.979434 L 37.068811,17.246167 C 37.068811,17.246167 37.088388,32 37.088388,32 L 22.160133,31.978069 C 22.160133,31.978069 26.997745,27.140456 26.997745,27.140456 C 18.528582,18.264221 13.291696,25.230495 11.500037,31.436501 z"
     style="fill:#404040;"/>
  </a>
 </g>
</svg>

<style type='text/css'>
<![CDATA[
[data-mouse-over-selected='false'] { opacity: 0.7; }
[data-mouse-over-selected='true']  { opacity: 1.0; }
]]>
</style>
<script type="application/ecmascript"><![CDATA[
document.addEventListener('DOMContentLoaded', (event) => {
  highlightEdges();
  highlightAdjacentNodes();
});
]]></script>
</svg>
