<?xml version="1.0" encoding="UTF-8" standalone="no"?>
<!DOCTYPE svg PUBLIC "-//W3C//DTD SVG 1.1//EN"
 "http://www.w3.org/Graphics/SVG/1.1/DTD/svg11.dtd">
<!-- Generated by graphviz version 2.43.0 (0)
 -->
<!-- Title: src/CCSDSUtils.cpp Pages: 1 -->
<!--zoomable 632 -->

<svg id="main" version="1.1" xmlns="http://www.w3.org/2000/svg" xmlns:xlink="http://www.w3.org/1999/xlink" xml:space="preserve" onload="init(evt)">
<style type="text/css"><![CDATA[
.node, .edge {opacity: 0.7;}
.node.selected, .edge.selected {opacity: 1;}
.edge:hover path { stroke: red; }
.edge:hover polygon { stroke: red; fill: red; }
]]></style>

<defs>
  <circle id="rim" cx="0" cy="0" r="7"/>
  <circle id="rim2" cx="0" cy="0" r="3.5"/>
  <g id="zoomPlus">
    <use xlink:href="#rim" fill="#404040"><set attributeName="fill" to="#808080" begin="zoomplus.mouseover" end="zoomplus.mouseout"/></use>
    <path d="M-4,0h8M0,-4v8" fill="none" stroke="white" stroke-width="1.5" pointer-events="none"/>
  </g>
  <g id="zoomMin">
    <use xlink:href="#rim" fill="#404040"><set attributeName="fill" to="#808080" begin="zoomminus.mouseover" end="zoomminus.mouseout"/></use>
    <path d="M-4,0h8" fill="none" stroke="white" stroke-width="1.5" pointer-events="none"/>
  </g>
  <g id="arrowUp" transform="translate(30 24)">
    <use xlink:href="#rim"/>
    <path pointer-events="none" fill="none" stroke="white" stroke-width="1.5" d="M0,-3.0v7 M-2.5,-0.5L0,-3.0L2.5,-0.5"/>
  </g>
  <g id="arrowRight" transform="rotate(90) translate(36 -43)">
    <use xlink:href="#rim"/>
    <path pointer-events="none" fill="none" stroke="white" stroke-width="1.5" d="M0,-3.0v7 M-2.5,-0.5L0,-3.0L2.5,-0.5"/>
  </g>
  <g id="arrowDown" transform="rotate(180) translate(-30 -48)">
    <use xlink:href="#rim"/>
    <path pointer-events="none" fill="none" stroke="white" stroke-width="1.5" d="M0,-3.0v7 M-2.5,-0.5L0,-3.0L2.5,-0.5"/>
  </g>
  <g id="arrowLeft" transform="rotate(270) translate(-36 17)">
    <use xlink:href="#rim"/>
    <path pointer-events="none" fill="none" stroke="white" stroke-width="1.5" d="M0,-3.0v7 M-2.5,-0.5L0,-3.0L2.5,-0.5"/>
  </g>
  <g id="resetDef">
    <use xlink:href="#rim2" fill="#404040"><set attributeName="fill" to="#808080" begin="reset.mouseover" end="reset.mouseout"/></use>
  </g>
</defs>
<script type="application/ecmascript">
var viewWidth = 1081;
var viewHeight = 632;
var sectionId = 'dynsection-0';
</script>
<script type="application/ecmascript" xlink:href="svg.min.js"/>
<svg id="graph" class="graph">
<g id="viewport">
<title>src/CCSDSUtils.cpp</title>
<!-- Node1 -->
<g id="Node000001" class="node">
<title>Node1</title>
<g id="a_Node000001"><a xlink:title=" ">
<polygon fill="#999999" stroke="#666666" points="953,-624 843,-624 843,-605 953,-605 953,-624"/>
<text text-anchor="middle" x="898" y="-612" font-family="Helvetica,sans-Serif" font-size="10.00">src/CCSDSUtils.cpp</text>
</a>
</g>
</g>
<!-- Node2 -->
<g id="Node000002" class="node">
<title>Node2</title>
<g id="a_Node000002"><a xlink:href="CCSDSUtils_8h.html" target="_top" xlink:title=" ">
<polygon fill="white" stroke="#666666" points="807.5,-569 726.5,-569 726.5,-550 807.5,-550 807.5,-569"/>
<text text-anchor="middle" x="767" y="-557" font-family="Helvetica,sans-Serif" font-size="10.00">CCSDSUtils.h</text>
</a>
</g>
</g>
<!-- Node1&#45;&gt;Node2 -->
<g id="edge1_Node000001_Node000002" class="edge">
<title>Node1&#45;&gt;Node2</title>
<g id="a_edge1_Node000001_Node000002"><a xlink:title=" ">
<path fill="none" stroke="#63b8ff" d="M876.95,-604.98C855.59,-596.34 822.3,-582.87 797.94,-573.02"/>
<polygon fill="#63b8ff" stroke="#63b8ff" points="799.01,-569.68 788.43,-569.17 796.39,-576.17 799.01,-569.68"/>
</a>
</g>
</g>
<!-- Node9 -->
<g id="Node000009" class="node">
<title>Node9</title>
<g id="a_Node000009"><a xlink:title=" ">
<polygon fill="#e0e0e0" stroke="#999999" points="816,-19 756,-19 756,0 816,0 816,-19"/>
<text text-anchor="middle" x="786" y="-7" font-family="Helvetica,sans-Serif" font-size="10.00">iostream</text>
</a>
</g>
</g>
<!-- Node1&#45;&gt;Node9 -->
<g id="edge47_Node000001_Node000009" class="edge">
<title>Node1&#45;&gt;Node9</title>
<g id="a_edge47_Node000001_Node000009"><a xlink:title=" ">
<path fill="none" stroke="#63b8ff" d="M889.73,-604.97C881.88,-596.47 870.25,-582.73 863,-569 849.18,-542.83 843,-535.09 843,-505.5 843,-505.5 843,-505.5 843,-118.5 843,-82.51 817.94,-46.76 801.05,-26.76"/>
<polygon fill="#63b8ff" stroke="#63b8ff" points="803.64,-24.4 794.41,-19.2 798.38,-29.02 803.64,-24.4"/>
</a>
</g>
</g>
<!-- Node22 -->
<g id="Node000022" class="node">
<title>Node22</title>
<g id="a_Node000022"><a xlink:title=" ">
<polygon fill="#e0e0e0" stroke="#999999" points="924.5,-569 871.5,-569 871.5,-550 924.5,-550 924.5,-569"/>
<text text-anchor="middle" x="898" y="-557" font-family="Helvetica,sans-Serif" font-size="10.00">cstddef</text>
</a>
</g>
</g>
<!-- Node1&#45;&gt;Node22 -->
<g id="edge46_Node000001_Node000022" class="edge">
<title>Node1&#45;&gt;Node22</title>
<g id="a_edge46_Node000001_Node000022"><a xlink:title=" ">
<path fill="none" stroke="#63b8ff" d="M898,-604.75C898,-597.8 898,-587.85 898,-579.13"/>
<polygon fill="#63b8ff" stroke="#63b8ff" points="901.5,-579.09 898,-569.09 894.5,-579.09 901.5,-579.09"/>
</a>
</g>
</g>
<!-- Node23 -->
<g id="Node000023" class="node">
<title>Node23</title>
<g id="a_Node000023"><a xlink:title=" ">
<polygon fill="#e0e0e0" stroke="#999999" points="999,-569 943,-569 943,-550 999,-550 999,-569"/>
<text text-anchor="middle" x="971" y="-557" font-family="Helvetica,sans-Serif" font-size="10.00">iomanip</text>
</a>
</g>
</g>
<!-- Node1&#45;&gt;Node23 -->
<g id="edge48_Node000001_Node000023" class="edge">
<title>Node1&#45;&gt;Node23</title>
<g id="a_edge48_Node000001_Node000023"><a xlink:title=" ">
<path fill="none" stroke="#63b8ff" d="M909.73,-604.98C920.73,-597 937.42,-584.88 950.6,-575.31"/>
<polygon fill="#63b8ff" stroke="#63b8ff" points="953.02,-577.88 959.06,-569.17 948.91,-572.21 953.02,-577.88"/>
</a>
</g>
</g>
<!-- Node24 -->
<g id="Node000024" class="node">
<title>Node24</title>
<g id="a_Node000024"><a xlink:title=" ">
<polygon fill="#e0e0e0" stroke="#999999" points="1072.5,-569 1017.5,-569 1017.5,-550 1072.5,-550 1072.5,-569"/>
<text text-anchor="middle" x="1045" y="-557" font-family="Helvetica,sans-Serif" font-size="10.00">fstream</text>
</a>
</g>
</g>
<!-- Node1&#45;&gt;Node24 -->
<g id="edge49_Node000001_Node000024" class="edge">
<title>Node1&#45;&gt;Node24</title>
<g id="a_edge49_Node000001_Node000024"><a xlink:title=" ">
<path fill="none" stroke="#63b8ff" d="M921.62,-604.98C945.9,-596.23 983.95,-582.51 1011.37,-572.62"/>
<polygon fill="#63b8ff" stroke="#63b8ff" points="1012.73,-575.85 1020.95,-569.17 1010.36,-569.27 1012.73,-575.85"/>
</a>
</g>
</g>
<!-- Node3 -->
<g id="Node000003" class="node">
<title>Node3</title>
<g id="a_Node000003"><a xlink:href="CCSDSPacket_8h.html" target="_top" xlink:title=" ">
<polygon fill="white" stroke="#666666" points="616,-404 526,-404 526,-385 616,-385 616,-404"/>
<text text-anchor="middle" x="571" y="-392" font-family="Helvetica,sans-Serif" font-size="10.00">CCSDSPacket.h</text>
</a>
</g>
</g>
<!-- Node2&#45;&gt;Node3 -->
<g id="edge2_Node000002_Node000003" class="edge">
<title>Node2&#45;&gt;Node3</title>
<g id="a_edge2_Node000002_Node000003"><a xlink:title=" ">
<path fill="none" stroke="#63b8ff" d="M765.32,-549.92C760.62,-528.23 745.3,-470.72 710,-440 686.68,-419.7 654.01,-408.65 626.21,-402.63"/>
<polygon fill="#63b8ff" stroke="#63b8ff" points="626.7,-399.16 616.21,-400.63 625.33,-406.02 626.7,-399.16"/>
</a>
</g>
</g>
<!-- Node7 -->
<g id="Node000007" class="node">
<title>Node7</title>
<g id="a_Node000007"><a xlink:title=" ">
<polygon fill="#e0e0e0" stroke="#999999" points="137.5,-19 90.5,-19 90.5,0 137.5,0 137.5,-19"/>
<text text-anchor="middle" x="114" y="-7" font-family="Helvetica,sans-Serif" font-size="10.00">vector</text>
</a>
</g>
</g>
<!-- Node2&#45;&gt;Node7 -->
<g id="edge45_Node000002_Node000007" class="edge">
<title>Node2&#45;&gt;Node7</title>
<g id="a_edge45_Node000002_Node000007"><a xlink:title=" ">
<path fill="none" stroke="#63b8ff" d="M726.3,-557.1C567.74,-551.12 0,-524.54 0,-450.5 0,-450.5 0,-450.5 0,-118.5 0,-72.47 49.58,-40.18 83.35,-23.53"/>
<polygon fill="#63b8ff" stroke="#63b8ff" points="85.28,-26.49 92.82,-19.05 82.29,-20.16 85.28,-26.49"/>
</a>
</g>
</g>
<!-- Node15 -->
<g id="Node000015" class="node">
<title>Node15</title>
<g id="a_Node000015"><a xlink:title=" ">
<polygon fill="#e0e0e0" stroke="#999999" points="689,-74 645,-74 645,-55 689,-55 689,-74"/>
<text text-anchor="middle" x="667" y="-62" font-family="Helvetica,sans-Serif" font-size="10.00">string</text>
</a>
</g>
</g>
<!-- Node2&#45;&gt;Node15 -->
<g id="edge44_Node000002_Node000015" class="edge">
<title>Node2&#45;&gt;Node15</title>
<g id="a_edge44_Node000002_Node000015"><a xlink:title=" ">
<path fill="none" stroke="#63b8ff" d="M772.28,-549.9C782.73,-532.07 805,-489.46 805,-450.5 805,-450.5 805,-450.5 805,-228.5 805,-158.99 730.99,-103.87 691.37,-79.34"/>
<polygon fill="#63b8ff" stroke="#63b8ff" points="692.94,-76.2 682.56,-74.04 689.33,-82.2 692.94,-76.2"/>
</a>
</g>
</g>
<!-- Node19 -->
<g id="Node000019" class="node">
<title>Node19</title>
<g id="a_Node000019"><a xlink:href="CCSDSManager_8h.html" target="_top" xlink:title=" ">
<polygon fill="white" stroke="#666666" points="700.5,-514 599.5,-514 599.5,-495 700.5,-495 700.5,-514"/>
<text text-anchor="middle" x="650" y="-502" font-family="Helvetica,sans-Serif" font-size="10.00">CCSDSManager.h</text>
</a>
</g>
</g>
<!-- Node2&#45;&gt;Node19 -->
<g id="edge38_Node000002_Node000019" class="edge">
<title>Node2&#45;&gt;Node19</title>
<g id="a_edge38_Node000002_Node000019"><a xlink:title=" ">
<path fill="none" stroke="#63b8ff" d="M748.2,-549.98C729.38,-541.46 700.18,-528.23 678.5,-518.41"/>
<polygon fill="#63b8ff" stroke="#63b8ff" points="679.69,-515.11 669.14,-514.17 676.8,-521.48 679.69,-515.11"/>
</a>
</g>
</g>
<!-- Node4 -->
<g id="Node000004" class="node">
<title>Node4</title>
<g id="a_Node000004"><a xlink:href="CCSDSResult_8h.html" target="_top" xlink:title=" ">
<polygon fill="white" stroke="#666666" points="492.5,-74 403.5,-74 403.5,-55 492.5,-55 492.5,-74"/>
<text text-anchor="middle" x="448" y="-62" font-family="Helvetica,sans-Serif" font-size="10.00">CCSDSResult.h</text>
</a>
</g>
</g>
<!-- Node3&#45;&gt;Node4 -->
<g id="edge3_Node000003_Node000004" class="edge">
<title>Node3&#45;&gt;Node4</title>
<g id="a_edge3_Node000003_Node000004"><a xlink:title=" ">
<path fill="none" stroke="#63b8ff" d="M610.06,-384.93C656.84,-372.09 729,-342.98 729,-285.5 729,-285.5 729,-285.5 729,-228.5 729,-199.04 730.07,-186.56 710,-165 679.23,-131.95 657.21,-145.02 615,-129 568.09,-111.19 513.78,-90.54 480.16,-77.74"/>
<polygon fill="#63b8ff" stroke="#63b8ff" points="481.01,-74.32 470.42,-74.03 478.52,-80.86 481.01,-74.32"/>
</a>
</g>
</g>
<!-- Node3&#45;&gt;Node7 -->
<g id="edge9_Node000003_Node000007" class="edge">
<title>Node3&#45;&gt;Node7</title>
<g id="a_edge9_Node000003_Node000007"><a xlink:title=" ">
<path fill="none" stroke="#63b8ff" d="M525.74,-392.85C423.98,-390.8 180.22,-382.44 106,-349 68.3,-332.01 38,-326.85 38,-285.5 38,-285.5 38,-285.5 38,-118.5 38,-79.47 71.61,-44.58 94.13,-25.6"/>
<polygon fill="#63b8ff" stroke="#63b8ff" points="96.56,-28.14 102.12,-19.12 92.15,-22.7 96.56,-28.14"/>
</a>
</g>
</g>
<!-- Node10 -->
<g id="Node000010" class="node">
<title>Node10</title>
<g id="a_Node000010"><a xlink:href="CCSDSHeader_8h.html" target="_top" xlink:title=" ">
<polygon fill="white" stroke="#666666" points="235.5,-129 142.5,-129 142.5,-110 235.5,-110 235.5,-129"/>
<text text-anchor="middle" x="189" y="-117" font-family="Helvetica,sans-Serif" font-size="10.00">CCSDSHeader.h</text>
</a>
</g>
</g>
<!-- Node3&#45;&gt;Node10 -->
<g id="edge10_Node000003_Node000010" class="edge">
<title>Node3&#45;&gt;Node10</title>
<g id="a_edge10_Node000003_Node000010"><a xlink:title=" ">
<path fill="none" stroke="#63b8ff" d="M525.76,-393.19C403.56,-391.13 76,-377.09 76,-285.5 76,-285.5 76,-285.5 76,-228.5 76,-182.68 125.15,-150.32 158.62,-133.6"/>
<polygon fill="#63b8ff" stroke="#63b8ff" points="160.5,-136.58 168.01,-129.11 157.48,-130.27 160.5,-136.58"/>
</a>
</g>
</g>
<!-- Node11 -->
<g id="Node000011" class="node">
<title>Node11</title>
<g id="a_Node000011"><a xlink:href="CCSDSDataField_8h.html" target="_top" xlink:title=" ">
<polygon fill="white" stroke="#666666" points="507.5,-349 402.5,-349 402.5,-330 507.5,-330 507.5,-349"/>
<text text-anchor="middle" x="455" y="-337" font-family="Helvetica,sans-Serif" font-size="10.00">CCSDSDataField.h</text>
</a>
</g>
</g>
<!-- Node3&#45;&gt;Node11 -->
<g id="edge14_Node000003_Node000011" class="edge">
<title>Node3&#45;&gt;Node11</title>
<g id="a_edge14_Node000003_Node000011"><a xlink:title=" ">
<path fill="none" stroke="#63b8ff" d="M552.36,-384.98C533.7,-376.46 504.75,-363.23 483.26,-353.41"/>
<polygon fill="#63b8ff" stroke="#63b8ff" points="484.53,-350.14 473.98,-349.17 481.62,-356.51 484.53,-350.14"/>
</a>
</g>
</g>
<!-- Node5 -->
<g id="Node000005" class="node">
<title>Node5</title>
<g id="a_Node000005"><a xlink:title=" ">
<polygon fill="#e0e0e0" stroke="#999999" points="684.5,-19 591.5,-19 591.5,0 684.5,0 684.5,-19"/>
<text text-anchor="middle" x="638" y="-7" font-family="Helvetica,sans-Serif" font-size="10.00">unordered_map</text>
</a>
</g>
</g>
<!-- Node4&#45;&gt;Node5 -->
<g id="edge4_Node000004_Node000005" class="edge">
<title>Node4&#45;&gt;Node5</title>
<g id="a_edge4_Node000004_Node000005"><a xlink:title=" ">
<path fill="none" stroke="#63b8ff" d="M478.53,-54.98C510.7,-46.01 561.56,-31.82 597.17,-21.89"/>
<polygon fill="#63b8ff" stroke="#63b8ff" points="598.54,-25.14 607.23,-19.08 596.66,-18.4 598.54,-25.14"/>
</a>
</g>
</g>
<!-- Node6 -->
<g id="Node000006" class="node">
<title>Node6</title>
<g id="a_Node000006"><a xlink:title=" ">
<polygon fill="#e0e0e0" stroke="#999999" points="473.5,-19 422.5,-19 422.5,0 473.5,0 473.5,-19"/>
<text text-anchor="middle" x="448" y="-7" font-family="Helvetica,sans-Serif" font-size="10.00">variant</text>
</a>
</g>
</g>
<!-- Node4&#45;&gt;Node6 -->
<g id="edge5_Node000004_Node000006" class="edge">
<title>Node4&#45;&gt;Node6</title>
<g id="a_edge5_Node000004_Node000006"><a xlink:title=" ">
<path fill="none" stroke="#63b8ff" d="M448,-54.75C448,-47.8 448,-37.85 448,-29.13"/>
<polygon fill="#63b8ff" stroke="#63b8ff" points="451.5,-29.09 448,-19.09 444.5,-29.09 451.5,-29.09"/>
</a>
</g>
</g>
<!-- Node4&#45;&gt;Node7 -->
<g id="edge6_Node000004_Node000007" class="edge">
<title>Node4&#45;&gt;Node7</title>
<g id="a_edge6_Node000004_Node000007"><a xlink:title=" ">
<path fill="none" stroke="#63b8ff" d="M403.3,-56.41C335.56,-45.66 208.37,-25.47 147.77,-15.86"/>
<polygon fill="#63b8ff" stroke="#63b8ff" points="148.03,-12.36 137.6,-14.25 146.93,-19.27 148.03,-12.36"/>
</a>
</g>
</g>
<!-- Node8 -->
<g id="Node000008" class="node">
<title>Node8</title>
<g id="a_Node000008"><a xlink:title=" ">
<polygon fill="#e0e0e0" stroke="#999999" points="345,-19 295,-19 295,0 345,0 345,-19"/>
<text text-anchor="middle" x="320" y="-7" font-family="Helvetica,sans-Serif" font-size="10.00">cstdint</text>
</a>
</g>
</g>
<!-- Node4&#45;&gt;Node8 -->
<g id="edge7_Node000004_Node000008" class="edge">
<title>Node4&#45;&gt;Node8</title>
<g id="a_edge7_Node000004_Node000008"><a xlink:title=" ">
<path fill="none" stroke="#63b8ff" d="M427.43,-54.98C406.57,-46.34 374.03,-32.87 350.23,-23.02"/>
<polygon fill="#63b8ff" stroke="#63b8ff" points="351.52,-19.76 340.94,-19.17 348.84,-26.23 351.52,-19.76"/>
</a>
</g>
</g>
<!-- Node4&#45;&gt;Node9 -->
<g id="edge8_Node000004_Node000009" class="edge">
<title>Node4&#45;&gt;Node9</title>
<g id="a_edge8_Node000004_Node000009"><a xlink:title=" ">
<path fill="none" stroke="#63b8ff" d="M492.54,-56.52C558.76,-46.13 682.2,-26.78 745.81,-16.8"/>
<polygon fill="#63b8ff" stroke="#63b8ff" points="746.52,-20.23 755.86,-15.23 745.44,-13.32 746.52,-20.23"/>
</a>
</g>
</g>
<!-- Node10&#45;&gt;Node4 -->
<g id="edge11_Node000010_Node000004" class="edge">
<title>Node10&#45;&gt;Node4</title>
<g id="a_edge11_Node000010_Node000004"><a xlink:title=" ">
<path fill="none" stroke="#63b8ff" d="M230.61,-109.98C275.6,-100.78 347.39,-86.09 396.05,-76.13"/>
<polygon fill="#63b8ff" stroke="#63b8ff" points="396.97,-79.52 406.06,-74.08 395.56,-72.66 396.97,-79.52"/>
</a>
</g>
</g>
<!-- Node10&#45;&gt;Node7 -->
<g id="edge13_Node000010_Node000007" class="edge">
<title>Node10&#45;&gt;Node7</title>
<g id="a_edge13_Node000010_Node000007"><a xlink:title=" ">
<path fill="none" stroke="#63b8ff" d="M182.86,-109.66C170.38,-91.69 141.88,-50.64 125.72,-27.38"/>
<polygon fill="#63b8ff" stroke="#63b8ff" points="128.59,-25.38 120.01,-19.16 122.84,-29.37 128.59,-25.38"/>
</a>
</g>
</g>
<!-- Node10&#45;&gt;Node8 -->
<g id="edge12_Node000010_Node000008" class="edge">
<title>Node10&#45;&gt;Node8</title>
<g id="a_edge12_Node000010_Node000008"><a xlink:title=" ">
<path fill="none" stroke="#63b8ff" d="M196.63,-109.71C207.99,-96.89 230.34,-72.67 252,-55 265.94,-43.62 282.88,-32.53 296.36,-24.27"/>
<polygon fill="#63b8ff" stroke="#63b8ff" points="298.29,-27.19 305.06,-19.03 294.68,-21.19 298.29,-27.19"/>
</a>
</g>
</g>
<!-- Node11&#45;&gt;Node4 -->
<g id="edge15_Node000011_Node000004" class="edge">
<title>Node11&#45;&gt;Node4</title>
<g id="a_edge15_Node000011_Node000004"><a xlink:title=" ">
<path fill="none" stroke="#63b8ff" d="M454.78,-329.73C453.79,-291.38 449.86,-138.03 448.48,-84.25"/>
<polygon fill="#63b8ff" stroke="#63b8ff" points="451.98,-84.01 448.22,-74.11 444.98,-84.19 451.98,-84.01"/>
</a>
</g>
</g>
<!-- Node11&#45;&gt;Node7 -->
<g id="edge16_Node000011_Node000007" class="edge">
<title>Node11&#45;&gt;Node7</title>
<g id="a_edge16_Node000011_Node000007"><a xlink:title=" ">
<path fill="none" stroke="#63b8ff" d="M415.51,-329.93C385.82,-322.63 344.65,-310.67 311,-294 235.63,-256.66 216.01,-243.94 157,-184 119.32,-145.73 112.76,-127.39 107,-74 105.36,-58.82 107.51,-41.6 109.85,-28.93"/>
<polygon fill="#63b8ff" stroke="#63b8ff" points="113.28,-29.63 111.86,-19.13 106.42,-28.22 113.28,-29.63"/>
</a>
</g>
</g>
<!-- Node12 -->
<g id="Node000012" class="node">
<title>Node12</title>
<g id="a_Node000012"><a xlink:title=" ">
<polygon fill="#e0e0e0" stroke="#999999" points="701,-184 643,-184 643,-165 701,-165 701,-184"/>
<text text-anchor="middle" x="672" y="-172" font-family="Helvetica,sans-Serif" font-size="10.00">memory</text>
</a>
</g>
</g>
<!-- Node11&#45;&gt;Node12 -->
<g id="edge17_Node000011_Node000012" class="edge">
<title>Node11&#45;&gt;Node12</title>
<g id="a_edge17_Node000011_Node000012"><a xlink:title=" ">
<path fill="none" stroke="#63b8ff" d="M507.58,-330.77C559.43,-320.04 635.97,-295.16 672,-239 680.46,-225.81 679.53,-207.68 677.02,-194.17"/>
<polygon fill="#63b8ff" stroke="#63b8ff" points="680.36,-193.08 674.72,-184.12 673.54,-194.65 680.36,-193.08"/>
</a>
</g>
</g>
<!-- Node13 -->
<g id="Node000013" class="node">
<title>Node13</title>
<g id="a_Node000013"><a xlink:href="CCSDSSecondaryHeaderAbstract_8h.html" target="_top" xlink:title=" ">
<polygon fill="white" stroke="#666666" points="351.5,-184 166.5,-184 166.5,-165 351.5,-165 351.5,-184"/>
<text text-anchor="middle" x="259" y="-172" font-family="Helvetica,sans-Serif" font-size="10.00">CCSDSSecondaryHeaderAbstract.h</text>
</a>
</g>
</g>
<!-- Node11&#45;&gt;Node13 -->
<g id="edge18_Node000011_Node000013" class="edge">
<title>Node11&#45;&gt;Node13</title>
<g id="a_edge18_Node000011_Node000013"><a xlink:title=" ">
<path fill="none" stroke="#63b8ff" d="M412.08,-329.98C387.25,-323.39 356.55,-312.21 334,-294 300.03,-266.56 276.84,-219.39 266,-193.62"/>
<polygon fill="#63b8ff" stroke="#63b8ff" points="269.11,-191.96 262.12,-184 262.62,-194.58 269.11,-191.96"/>
</a>
</g>
</g>
<!-- Node16 -->
<g id="Node000016" class="node">
<title>Node16</title>
<g id="a_Node000016"><a xlink:href="CCSDSSecondaryHeaderFactory_8h.html" target="_top" xlink:title=" ">
<polygon fill="white" stroke="#666666" points="662.5,-239 483.5,-239 483.5,-220 662.5,-220 662.5,-239"/>
<text text-anchor="middle" x="573" y="-227" font-family="Helvetica,sans-Serif" font-size="10.00">CCSDSSecondaryHeaderFactory.h</text>
</a>
</g>
</g>
<!-- Node11&#45;&gt;Node16 -->
<g id="edge27_Node000011_Node000016" class="edge">
<title>Node11&#45;&gt;Node16</title>
<g id="a_edge27_Node000011_Node000016"><a xlink:title=" ">
<path fill="none" stroke="#63b8ff" d="M464.66,-329.66C484.64,-311.38 530.74,-269.18 555.88,-246.17"/>
<polygon fill="#63b8ff" stroke="#63b8ff" points="558.53,-248.49 563.54,-239.16 553.8,-243.33 558.53,-248.49"/>
</a>
</g>
</g>
<!-- Node18 -->
<g id="Node000018" class="node">
<title>Node18</title>
<g id="a_Node000018"><a xlink:href="PusServices_8h.html" target="_top" xlink:title=" ">
<polygon fill="white" stroke="#666666" points="427,-294 343,-294 343,-275 427,-275 427,-294"/>
<text text-anchor="middle" x="385" y="-282" font-family="Helvetica,sans-Serif" font-size="10.00">PusServices.h</text>
</a>
</g>
</g>
<!-- Node11&#45;&gt;Node18 -->
<g id="edge33_Node000011_Node000018" class="edge">
<title>Node11&#45;&gt;Node18</title>
<g id="a_edge33_Node000011_Node000018"><a xlink:title=" ">
<path fill="none" stroke="#63b8ff" d="M443.75,-329.98C433.2,-322 417.2,-309.88 404.56,-300.31"/>
<polygon fill="#63b8ff" stroke="#63b8ff" points="406.54,-297.42 396.45,-294.17 402.31,-303 406.54,-297.42"/>
</a>
</g>
</g>
<!-- Node13&#45;&gt;Node4 -->
<g id="edge19_Node000013_Node000004" class="edge">
<title>Node13&#45;&gt;Node4</title>
<g id="a_edge19_Node000013_Node000004"><a xlink:title=" ">
<path fill="none" stroke="#63b8ff" d="M265.28,-164.87C275.52,-151.37 297.09,-125.23 321,-110 344.99,-94.72 374.88,-83.91 399.63,-76.77"/>
<polygon fill="#63b8ff" stroke="#63b8ff" points="400.84,-80.07 409.54,-74.03 398.97,-73.33 400.84,-80.07"/>
</a>
</g>
</g>
<!-- Node13&#45;&gt;Node7 -->
<g id="edge25_Node000013_Node000007" class="edge">
<title>Node13&#45;&gt;Node7</title>
<g id="a_edge25_Node000013_Node000007"><a xlink:title=" ">
<path fill="none" stroke="#63b8ff" d="M195.81,-164.93C172.83,-158.66 148.68,-147.8 133,-129 109.39,-100.69 109.34,-54.92 111.56,-29.34"/>
<polygon fill="#63b8ff" stroke="#63b8ff" points="115.07,-29.46 112.66,-19.14 108.11,-28.71 115.07,-29.46"/>
</a>
</g>
</g>
<!-- Node13&#45;&gt;Node8 -->
<g id="edge26_Node000013_Node000008" class="edge">
<title>Node13&#45;&gt;Node8</title>
<g id="a_edge26_Node000013_Node000008"><a xlink:title=" ">
<path fill="none" stroke="#63b8ff" d="M262.28,-164.74C271.88,-139.09 300.06,-63.78 313.16,-28.78"/>
<polygon fill="#63b8ff" stroke="#63b8ff" points="316.48,-29.9 316.7,-19.31 309.92,-27.45 316.48,-29.9"/>
</a>
</g>
</g>
<!-- Node14 -->
<g id="Node000014" class="node">
<title>Node14</title>
<g id="a_Node000014"><a xlink:href="CCSDSConfig_8h.html" target="_top" xlink:title=" ">
<polygon fill="white" stroke="#666666" points="419.5,-129 330.5,-129 330.5,-110 419.5,-110 419.5,-129"/>
<text text-anchor="middle" x="375" y="-117" font-family="Helvetica,sans-Serif" font-size="10.00">CCSDSConfig.h</text>
</a>
</g>
</g>
<!-- Node13&#45;&gt;Node14 -->
<g id="edge20_Node000013_Node000014" class="edge">
<title>Node13&#45;&gt;Node14</title>
<g id="a_edge20_Node000013_Node000014"><a xlink:title=" ">
<path fill="none" stroke="#63b8ff" d="M277.64,-164.98C296.3,-156.46 325.25,-143.23 346.74,-133.41"/>
<polygon fill="#63b8ff" stroke="#63b8ff" points="348.38,-136.51 356.02,-129.17 345.47,-130.14 348.38,-136.51"/>
</a>
</g>
</g>
<!-- Node14&#45;&gt;Node4 -->
<g id="edge24_Node000014_Node000004" class="edge">
<title>Node14&#45;&gt;Node4</title>
<g id="a_edge24_Node000014_Node000004"><a xlink:title=" ">
<path fill="none" stroke="#63b8ff" d="M386.73,-109.98C397.73,-102 414.42,-89.88 427.6,-80.31"/>
<polygon fill="#63b8ff" stroke="#63b8ff" points="430.02,-82.88 436.06,-74.17 425.91,-77.21 430.02,-82.88"/>
</a>
</g>
</g>
<!-- Node14&#45;&gt;Node7 -->
<g id="edge23_Node000014_Node000007" class="edge">
<title>Node14&#45;&gt;Node7</title>
<g id="a_edge23_Node000014_Node000007"><a xlink:title=" ">
<path fill="none" stroke="#63b8ff" d="M354.08,-109.84C307.96,-90.76 197.4,-45.01 143.94,-22.89"/>
<polygon fill="#63b8ff" stroke="#63b8ff" points="145.23,-19.64 134.65,-19.05 142.56,-26.1 145.23,-19.64"/>
</a>
</g>
</g>
<!-- Node14&#45;&gt;Node8 -->
<g id="edge22_Node000014_Node000008" class="edge">
<title>Node14&#45;&gt;Node8</title>
<g id="a_edge22_Node000014_Node000008"><a xlink:title=" ">
<path fill="none" stroke="#63b8ff" d="M370.5,-109.66C361.47,-91.93 341,-51.73 329.07,-28.32"/>
<polygon fill="#63b8ff" stroke="#63b8ff" points="332.07,-26.48 324.41,-19.16 325.83,-29.66 332.07,-26.48"/>
</a>
</g>
</g>
<!-- Node14&#45;&gt;Node15 -->
<g id="edge21_Node000014_Node000015" class="edge">
<title>Node14&#45;&gt;Node15</title>
<g id="a_edge21_Node000014_Node000015"><a xlink:title=" ">
<path fill="none" stroke="#63b8ff" d="M419.67,-110.39C479,-99.62 582.41,-80.85 634.72,-71.36"/>
<polygon fill="#63b8ff" stroke="#63b8ff" points="635.56,-74.76 644.77,-69.53 634.31,-67.88 635.56,-74.76"/>
</a>
</g>
</g>
<!-- Node16&#45;&gt;Node5 -->
<g id="edge29_Node000016_Node000005" class="edge">
<title>Node16&#45;&gt;Node5</title>
<g id="a_edge29_Node000016_Node000005"><a xlink:title=" ">
<path fill="none" stroke="#63b8ff" d="M581.36,-219.82C607.35,-192.59 685.74,-108.64 698,-74 700.82,-66.04 701.8,-62.54 698,-55 691.31,-41.71 678.56,-31.39 666.53,-24.05"/>
<polygon fill="#63b8ff" stroke="#63b8ff" points="668.01,-20.87 657.58,-19.02 664.58,-26.97 668.01,-20.87"/>
</a>
</g>
</g>
<!-- Node16&#45;&gt;Node12 -->
<g id="edge28_Node000016_Node000012" class="edge">
<title>Node16&#45;&gt;Node12</title>
<g id="a_edge28_Node000016_Node000012"><a xlink:title=" ">
<path fill="none" stroke="#63b8ff" d="M588.91,-219.98C604.55,-211.61 628.66,-198.7 646.88,-188.95"/>
<polygon fill="#63b8ff" stroke="#63b8ff" points="648.64,-191.98 655.8,-184.17 645.34,-185.8 648.64,-191.98"/>
</a>
</g>
</g>
<!-- Node16&#45;&gt;Node13 -->
<g id="edge32_Node000016_Node000013" class="edge">
<title>Node16&#45;&gt;Node13</title>
<g id="a_edge32_Node000016_Node000013"><a xlink:title=" ">
<path fill="none" stroke="#63b8ff" d="M522.55,-219.98C467.24,-210.65 378.53,-195.67 319.52,-185.71"/>
<polygon fill="#63b8ff" stroke="#63b8ff" points="320.03,-182.25 309.58,-184.04 318.86,-189.15 320.03,-182.25"/>
</a>
</g>
</g>
<!-- Node16&#45;&gt;Node15 -->
<g id="edge31_Node000016_Node000015" class="edge">
<title>Node16&#45;&gt;Node15</title>
<g id="a_edge31_Node000016_Node000015"><a xlink:title=" ">
<path fill="none" stroke="#63b8ff" d="M576.35,-219.65C581.19,-207.17 590.71,-183.82 601,-165 617.57,-134.7 640.53,-101.69 654.54,-82.34"/>
<polygon fill="#63b8ff" stroke="#63b8ff" points="657.39,-84.37 660.46,-74.23 651.74,-80.24 657.39,-84.37"/>
</a>
</g>
</g>
<!-- Node17 -->
<g id="Node000017" class="node">
<title>Node17</title>
<g id="a_Node000017"><a xlink:title=" ">
<polygon fill="#e0e0e0" stroke="#999999" points="548.5,-184 483.5,-184 483.5,-165 548.5,-165 548.5,-184"/>
<text text-anchor="middle" x="516" y="-172" font-family="Helvetica,sans-Serif" font-size="10.00">functional</text>
</a>
</g>
</g>
<!-- Node16&#45;&gt;Node17 -->
<g id="edge30_Node000016_Node000017" class="edge">
<title>Node16&#45;&gt;Node17</title>
<g id="a_edge30_Node000016_Node000017"><a xlink:title=" ">
<path fill="none" stroke="#63b8ff" d="M563.84,-219.98C555.5,-212.23 542.97,-200.58 532.82,-191.14"/>
<polygon fill="#63b8ff" stroke="#63b8ff" points="535.03,-188.42 525.32,-184.17 530.26,-193.54 535.03,-188.42"/>
</a>
</g>
</g>
<!-- Node18&#45;&gt;Node4 -->
<g id="edge36_Node000018_Node000004" class="edge">
<title>Node18&#45;&gt;Node4</title>
<g id="a_edge36_Node000018_Node000004"><a xlink:title=" ">
<path fill="none" stroke="#63b8ff" d="M387.47,-274.95C396.74,-242.88 429.59,-129.2 442.62,-84.12"/>
<polygon fill="#63b8ff" stroke="#63b8ff" points="446.06,-84.8 445.48,-74.22 439.34,-82.86 446.06,-84.8"/>
</a>
</g>
</g>
<!-- Node18&#45;&gt;Node13 -->
<g id="edge34_Node000018_Node000013" class="edge">
<title>Node18&#45;&gt;Node13</title>
<g id="a_edge34_Node000018_Node000013"><a xlink:title=" ">
<path fill="none" stroke="#63b8ff" d="M374.69,-274.66C353.26,-256.3 303.7,-213.81 276.93,-190.87"/>
<polygon fill="#63b8ff" stroke="#63b8ff" points="278.97,-188.01 269.1,-184.16 274.42,-193.32 278.97,-188.01"/>
</a>
</g>
</g>
<!-- Node18&#45;&gt;Node14 -->
<g id="edge37_Node000018_Node000014" class="edge">
<title>Node18&#45;&gt;Node14</title>
<g id="a_edge37_Node000018_Node000014"><a xlink:title=" ">
<path fill="none" stroke="#63b8ff" d="M384.46,-274.74C382.9,-249.31 378.35,-175.08 376.18,-139.69"/>
<polygon fill="#63b8ff" stroke="#63b8ff" points="379.65,-139.07 375.54,-129.31 372.66,-139.5 379.65,-139.07"/>
</a>
</g>
</g>
<!-- Node18&#45;&gt;Node16 -->
<g id="edge35_Node000018_Node000016" class="edge">
<title>Node18&#45;&gt;Node16</title>
<g id="a_edge35_Node000018_Node000016"><a xlink:title=" ">
<path fill="none" stroke="#63b8ff" d="M415.21,-274.98C447.04,-266.01 497.36,-251.82 532.6,-241.89"/>
<polygon fill="#63b8ff" stroke="#63b8ff" points="533.88,-245.16 542.56,-239.08 531.98,-238.43 533.88,-245.16"/>
</a>
</g>
</g>
<!-- Node19&#45;&gt;Node3 -->
<g id="edge40_Node000019_Node000003" class="edge">
<title>Node19&#45;&gt;Node3</title>
<g id="a_edge40_Node000019_Node000003"><a xlink:title=" ">
<path fill="none" stroke="#63b8ff" d="M633.47,-494.86C620.2,-487.13 602.03,-474.62 591,-459 581.52,-445.58 576.4,-427.47 573.72,-414.03"/>
<polygon fill="#63b8ff" stroke="#63b8ff" points="577.15,-413.31 572.01,-404.04 570.25,-414.49 577.15,-413.31"/>
</a>
</g>
</g>
<!-- Node19&#45;&gt;Node4 -->
<g id="edge41_Node000019_Node000004" class="edge">
<title>Node19&#45;&gt;Node4</title>
<g id="a_edge41_Node000019_Node000004"><a xlink:title=" ">
<path fill="none" stroke="#63b8ff" d="M666.76,-494.89C680.22,-487.17 698.69,-474.67 710,-459 757.49,-393.18 767,-366.67 767,-285.5 767,-285.5 767,-285.5 767,-228.5 767,-195.84 754.4,-186.72 730,-165 665.08,-107.2 564.45,-82.45 502.6,-72.23"/>
<polygon fill="#63b8ff" stroke="#63b8ff" points="503.06,-68.76 492.64,-70.66 501.97,-75.68 503.06,-68.76"/>
</a>
</g>
</g>
<!-- Node20 -->
<g id="Node000020" class="node">
<title>Node20</title>
<g id="a_Node000020"><a xlink:title=" ">
<polygon fill="#e0e0e0" stroke="#999999" points="542.5,-459 497.5,-459 497.5,-440 542.5,-440 542.5,-459"/>
<text text-anchor="middle" x="520" y="-447" font-family="Helvetica,sans-Serif" font-size="10.00">utility</text>
</a>
</g>
</g>
<!-- Node19&#45;&gt;Node20 -->
<g id="edge39_Node000019_Node000020" class="edge">
<title>Node19&#45;&gt;Node20</title>
<g id="a_edge39_Node000019_Node000020"><a xlink:title=" ">
<path fill="none" stroke="#63b8ff" d="M629.11,-494.98C607.92,-486.34 574.87,-472.87 550.7,-463.02"/>
<polygon fill="#63b8ff" stroke="#63b8ff" points="551.85,-459.7 541.27,-459.17 549.21,-466.19 551.85,-459.7"/>
</a>
</g>
</g>
<!-- Node21 -->
<g id="Node000021" class="node">
<title>Node21</title>
<g id="a_Node000021"><a xlink:href="CCSDSValidator_8h.html" target="_top" xlink:title="Defines the Validator class for CCSDS packet validation.">
<polygon fill="white" stroke="#666666" points="700.5,-459 599.5,-459 599.5,-440 700.5,-440 700.5,-459"/>
<text text-anchor="middle" x="650" y="-447" font-family="Helvetica,sans-Serif" font-size="10.00">CCSDSValidator.h</text>
</a>
</g>
</g>
<!-- Node19&#45;&gt;Node21 -->
<g id="edge42_Node000019_Node000021" class="edge">
<title>Node19&#45;&gt;Node21</title>
<g id="a_edge42_Node000019_Node000021"><a xlink:title=" ">
<path fill="none" stroke="#63b8ff" d="M650,-494.75C650,-487.8 650,-477.85 650,-469.13"/>
<polygon fill="#63b8ff" stroke="#63b8ff" points="653.5,-469.09 650,-459.09 646.5,-469.09 653.5,-469.09"/>
</a>
</g>
</g>
<!-- Node21&#45;&gt;Node3 -->
<g id="edge43_Node000021_Node000003" class="edge">
<title>Node21&#45;&gt;Node3</title>
<g id="a_edge43_Node000021_Node000003"><a xlink:title=" ">
<path fill="none" stroke="#63b8ff" d="M637.31,-439.98C625.17,-431.84 606.64,-419.41 592.25,-409.76"/>
<polygon fill="#63b8ff" stroke="#63b8ff" points="594.18,-406.84 583.92,-404.17 590.28,-412.65 594.18,-406.84"/>
</a>
</g>
</g>
</g>
</svg>

<g id="navigator" transform="translate(0 0)" fill="#404254">
  <rect fill="#f2f5e9" fill-opacity="0.5" stroke="#606060" stroke-width=".5" x="0" y="0" width="60" height="60"/>
  <use id="zoomplus" xlink:href="#zoomPlus" x="17" y="9" onmousedown="handleZoom(evt,'in')"/>
  <use id="zoomminus" xlink:href="#zoomMin" x="42" y="9" onmousedown="handleZoom(evt,'out')"/>
  <use id="reset" xlink:href="#resetDef" x="30" y="36" onmousedown="handleReset()"/>
   <use id="arrowup" xlink:href="#arrowUp" x="0" y="0" onmousedown="handlePan(0,-1)"/>
  <use id="arrowright" xlink:href="#arrowRight" x="0" y="0" onmousedown="handlePan(1,0)"/>
  <use id="arrowdown" xlink:href="#arrowDown" x="0" y="0" onmousedown="handlePan(0,1)"/>
  <use id="arrowleft" xlink:href="#arrowLeft" x="0" y="0" onmousedown="handlePan(-1,0)"/>
</g>
<svg viewBox="0 0 15 15" width="100%" height="30px" preserveAspectRatio="xMaxYMin meet">
 <g id="arrow_out" transform="scale(0.3 0.3)">
  <a xlink:href="CCSDSUtils_8cpp__incl_org.svg" target="_base">
   <rect id="button" ry="5" rx="5" y="6" x="6" height="38" width="38"
        fill="#f2f5e9" fill-opacity="0.5" stroke="#606060" stroke-width="1.0"/>
   <path id="arrow"
     d="M 11.500037,31.436501 C 11.940474,20.09759 22.043105,11.32322 32.158766,21.979434 L 37.068811,17.246167 C 37.068811,17.246167 37.088388,32 37.088388,32 L 22.160133,31.978069 C 22.160133,31.978069 26.997745,27.140456 26.997745,27.140456 C 18.528582,18.264221 13.291696,25.230495 11.500037,31.436501 z"
     style="fill:#404040;"/>
  </a>
 </g>
</svg>

<style type='text/css'>
<![CDATA[
[data-mouse-over-selected='false'] { opacity: 0.7; }
[data-mouse-over-selected='true']  { opacity: 1.0; }
]]>
</style>
<script type="application/ecmascript"><![CDATA[
document.addEventListener('DOMContentLoaded', (event) => {
  highlightEdges();
  highlightAdjacentNodes();
});
]]></script>
</svg>
