<?xml version="1.0" encoding="UTF-8" standalone="no"?>
<!DOCTYPE svg PUBLIC "-//W3C//DTD SVG 1.1//EN"
 "http://www.w3.org/Graphics/SVG/1.1/DTD/svg11.dtd">
<!-- Generated by graphviz version 2.43.0 (0)
 -->
<!-- Title: printHeader Pages: 1 -->
<svg width="287pt" height="407pt"
 viewBox="0.00 0.00 287.00 406.50" xmlns="http://www.w3.org/2000/svg" xmlns:xlink="http://www.w3.org/1999/xlink">
<g id="graph0" class="graph" transform="scale(1 1) rotate(0) translate(4 402.5)">
<title>printHeader</title>
<!-- Node1 -->
<g id="Node000001" class="node">
<title>Node1</title>
<g id="a_Node000001"><a xlink:title="Prints the header fields and their binary or hexadecimal representations.">
<polygon fill="#999999" stroke="#666666" points="74,-219.5 0,-219.5 0,-200.5 74,-200.5 74,-219.5"/>
<text text-anchor="middle" x="37" y="-207.5" font-family="Helvetica,sans-Serif" font-size="10.00">printHeader</text>
</a>
</g>
</g>
<!-- Node2 -->
<g id="Node000002" class="node">
<title>Node2</title>
<g id="a_Node000002"><a xlink:href="classCCSDS_1_1Header.html#a3b171a18bfed281cfa837f349f7cc264" target="_top" xlink:title="11 bits">
<polygon fill="white" stroke="#666666" points="262.5,-398.5 126.5,-398.5 126.5,-379.5 262.5,-379.5 262.5,-398.5"/>
<text text-anchor="middle" x="194.5" y="-386.5" font-family="Helvetica,sans-Serif" font-size="10.00">CCSDS::Header::getAPID</text>
</a>
</g>
</g>
<!-- Node1&#45;&gt;Node2 -->
<g id="edge1_Node000001_Node000002" class="edge">
<title>Node1&#45;&gt;Node2</title>
<g id="a_edge1_Node000001_Node000002"><a xlink:title=" ">
<path fill="none" stroke="#63b8ff" d="M39.3,-219.8C43.6,-248.11 60.05,-330.5 110,-371 112.27,-372.84 114.68,-374.5 117.2,-376"/>
<polygon fill="#63b8ff" stroke="#63b8ff" points="115.64,-379.14 126.15,-380.52 118.8,-372.89 115.64,-379.14"/>
</a>
</g>
</g>
<!-- Node3 -->
<g id="Node000003" class="node">
<title>Node3</title>
<g id="a_Node000003"><a xlink:href="CCSDSUtils_8cpp.html#a1b76edce6a353d6dabf826e662d5f50c" target="_top" xlink:title="Converts a given value to its binary representation as a string, with spaces every 4 bits.">
<polygon fill="white" stroke="#666666" points="240.5,-361.5 148.5,-361.5 148.5,-342.5 240.5,-342.5 240.5,-361.5"/>
<text text-anchor="middle" x="194.5" y="-349.5" font-family="Helvetica,sans-Serif" font-size="10.00">getBinaryString</text>
</a>
</g>
</g>
<!-- Node1&#45;&gt;Node3 -->
<g id="edge2_Node000001_Node000003" class="edge">
<title>Node1&#45;&gt;Node3</title>
<g id="a_edge2_Node000001_Node000003"><a xlink:title=" ">
<path fill="none" stroke="#63b8ff" d="M40.62,-219.57C47.59,-243.13 68.92,-304.14 110,-334 118.28,-340.02 128.16,-344.1 138.18,-346.85"/>
<polygon fill="#63b8ff" stroke="#63b8ff" points="137.66,-350.32 148.19,-349.18 139.24,-343.5 137.66,-350.32"/>
</a>
</g>
</g>
<!-- Node4 -->
<g id="Node000004" class="node">
<title>Node4</title>
<g id="a_Node000004"><a xlink:href="CCSDSUtils_8cpp.html#a6a4f98ed870a1cf55c943c9ace54a0cf" target="_top" xlink:title="Generates a string of spaces for formatting binary outputs.">
<polygon fill="white" stroke="#666666" points="237.5,-324.5 151.5,-324.5 151.5,-305.5 237.5,-305.5 237.5,-324.5"/>
<text text-anchor="middle" x="194.5" y="-312.5" font-family="Helvetica,sans-Serif" font-size="10.00">getBitsSpaces</text>
</a>
</g>
</g>
<!-- Node1&#45;&gt;Node4 -->
<g id="edge3_Node000001_Node000004" class="edge">
<title>Node1&#45;&gt;Node4</title>
<g id="a_edge3_Node000001_Node000004"><a xlink:title=" ">
<path fill="none" stroke="#63b8ff" d="M43.27,-219.78C53.55,-237.87 78.1,-276.5 110,-296 119.42,-301.76 130.4,-305.78 141.25,-308.58"/>
<polygon fill="#63b8ff" stroke="#63b8ff" points="140.59,-312.02 151.12,-310.82 142.14,-305.19 140.59,-312.02"/>
</a>
</g>
</g>
<!-- Node5 -->
<g id="Node000005" class="node">
<title>Node5</title>
<g id="a_Node000005"><a xlink:href="classCCSDS_1_1Header.html#a836aab2a197579a57a7901071075f685" target="_top" xlink:title="1 bits">
<polygon fill="white" stroke="#666666" points="274,-287 115,-287 115,-257 274,-257 274,-287"/>
<text text-anchor="start" x="123" y="-275" font-family="Helvetica,sans-Serif" font-size="10.00">CCSDS::Header::getDataField</text>
<text text-anchor="middle" x="194.5" y="-264" font-family="Helvetica,sans-Serif" font-size="10.00">HeaderFlag</text>
</a>
</g>
</g>
<!-- Node1&#45;&gt;Node5 -->
<g id="edge4_Node000001_Node000005" class="edge">
<title>Node1&#45;&gt;Node5</title>
<g id="a_edge4_Node000001_Node000005"><a xlink:title=" ">
<path fill="none" stroke="#63b8ff" d="M53.85,-219.58C68.14,-227.93 89.94,-239.92 110,-248 114.98,-250.01 120.2,-251.92 125.48,-253.73"/>
<polygon fill="#63b8ff" stroke="#63b8ff" points="124.44,-257.07 135.03,-256.86 126.62,-250.42 124.44,-257.07"/>
</a>
</g>
</g>
<!-- Node6 -->
<g id="Node000006" class="node">
<title>Node6</title>
<g id="a_Node000006"><a xlink:href="classCCSDS_1_1Header.html#a9c2ac8f4b16874076de742cb19833bd7" target="_top" xlink:title="16 bits">
<polygon fill="white" stroke="#666666" points="279,-238.5 110,-238.5 110,-219.5 279,-219.5 279,-238.5"/>
<text text-anchor="middle" x="194.5" y="-226.5" font-family="Helvetica,sans-Serif" font-size="10.00">CCSDS::Header::getDataLength</text>
</a>
</g>
</g>
<!-- Node1&#45;&gt;Node6 -->
<g id="edge5_Node000001_Node000006" class="edge">
<title>Node1&#45;&gt;Node6</title>
<g id="a_edge5_Node000001_Node000006"><a xlink:title=" ">
<path fill="none" stroke="#63b8ff" d="M74.07,-214.41C83.61,-215.57 94.35,-216.89 105.37,-218.23"/>
<polygon fill="#63b8ff" stroke="#63b8ff" points="105.2,-221.74 115.55,-219.48 106.05,-214.79 105.2,-221.74"/>
</a>
</g>
</g>
<!-- Node7 -->
<g id="Node000007" class="node">
<title>Node7</title>
<g id="a_Node000007"><a xlink:href="classCCSDS_1_1Header.html#af1ae6079606846982ff0552a2d684a1b" target="_top" xlink:title="Computes and retrieves the full header as a 64&#45;bit value.">
<polygon fill="white" stroke="#666666" points="277,-201.5 112,-201.5 112,-182.5 277,-182.5 277,-201.5"/>
<text text-anchor="middle" x="194.5" y="-189.5" font-family="Helvetica,sans-Serif" font-size="10.00">CCSDS::Header::getFullHeader</text>
</a>
</g>
</g>
<!-- Node1&#45;&gt;Node7 -->
<g id="edge6_Node000001_Node000007" class="edge">
<title>Node1&#45;&gt;Node7</title>
<g id="a_edge6_Node000001_Node000007"><a xlink:title=" ">
<path fill="none" stroke="#63b8ff" d="M74.07,-205.83C82.52,-204.85 91.91,-203.76 101.61,-202.64"/>
<polygon fill="#63b8ff" stroke="#63b8ff" points="102.26,-206.08 111.79,-201.46 101.46,-199.13 102.26,-206.08"/>
</a>
</g>
</g>
<!-- Node8 -->
<g id="Node000008" class="node">
<title>Node8</title>
<g id="a_Node000008"><a xlink:href="classCCSDS_1_1Header.html#a8847364755456604a86e894a950f81c6" target="_top" xlink:title="14 bits">
<polygon fill="white" stroke="#666666" points="274.5,-164 114.5,-164 114.5,-134 274.5,-134 274.5,-164"/>
<text text-anchor="start" x="122.5" y="-152" font-family="Helvetica,sans-Serif" font-size="10.00">CCSDS::Header::getSequence</text>
<text text-anchor="middle" x="194.5" y="-141" font-family="Helvetica,sans-Serif" font-size="10.00">Count</text>
</a>
</g>
</g>
<!-- Node1&#45;&gt;Node8 -->
<g id="edge7_Node000001_Node000008" class="edge">
<title>Node1&#45;&gt;Node8</title>
<g id="a_edge7_Node000001_Node000008"><a xlink:title=" ">
<path fill="none" stroke="#63b8ff" d="M55.07,-200.41C69.43,-192.61 90.64,-181.67 110,-174 115.91,-171.66 122.13,-169.41 128.39,-167.29"/>
<polygon fill="#63b8ff" stroke="#63b8ff" points="129.82,-170.51 138.24,-164.07 127.65,-163.85 129.82,-170.51"/>
</a>
</g>
</g>
<!-- Node9 -->
<g id="Node000009" class="node">
<title>Node9</title>
<g id="a_Node000009"><a xlink:href="classCCSDS_1_1Header.html#a7aec7b479769c8348584cab4b9d1197b" target="_top" xlink:title="2 bits">
<polygon fill="white" stroke="#666666" points="274.5,-116 114.5,-116 114.5,-86 274.5,-86 274.5,-116"/>
<text text-anchor="start" x="122.5" y="-104" font-family="Helvetica,sans-Serif" font-size="10.00">CCSDS::Header::getSequence</text>
<text text-anchor="middle" x="194.5" y="-93" font-family="Helvetica,sans-Serif" font-size="10.00">Flags</text>
</a>
</g>
</g>
<!-- Node1&#45;&gt;Node9 -->
<g id="edge8_Node000001_Node000009" class="edge">
<title>Node1&#45;&gt;Node9</title>
<g id="a_edge8_Node000001_Node000009"><a xlink:title=" ">
<path fill="none" stroke="#63b8ff" d="M43.4,-200.5C53.91,-182.89 78.82,-145.16 110,-125 112.58,-123.33 115.27,-121.78 118.05,-120.33"/>
<polygon fill="#63b8ff" stroke="#63b8ff" points="119.59,-123.48 127.16,-116.06 116.62,-117.14 119.59,-123.48"/>
</a>
</g>
</g>
<!-- Node10 -->
<g id="Node000010" class="node">
<title>Node10</title>
<g id="a_Node000010"><a xlink:href="classCCSDS_1_1Header.html#a6ac965b4a0dd459bb41e78225a376b18" target="_top" xlink:title="1 bits">
<polygon fill="white" stroke="#666666" points="262,-67.5 127,-67.5 127,-48.5 262,-48.5 262,-67.5"/>
<text text-anchor="middle" x="194.5" y="-55.5" font-family="Helvetica,sans-Serif" font-size="10.00">CCSDS::Header::getType</text>
</a>
</g>
</g>
<!-- Node1&#45;&gt;Node10 -->
<g id="edge9_Node000001_Node000010" class="edge">
<title>Node1&#45;&gt;Node10</title>
<g id="a_edge9_Node000001_Node000010"><a xlink:title=" ">
<path fill="none" stroke="#63b8ff" d="M40.33,-200.14C46.75,-175.25 67.12,-109.54 110,-77 112.47,-75.13 115.08,-73.43 117.81,-71.9"/>
<polygon fill="#63b8ff" stroke="#63b8ff" points="119.36,-75.04 126.85,-67.55 116.32,-68.74 119.36,-75.04"/>
</a>
</g>
</g>
<!-- Node11 -->
<g id="Node000011" class="node">
<title>Node11</title>
<g id="a_Node000011"><a xlink:href="classCCSDS_1_1Header.html#a2e77e7032a48a692bb8dd0754ecccdc5" target="_top" xlink:title="3 bits">
<polygon fill="white" stroke="#666666" points="269,-30 120,-30 120,0 269,0 269,-30"/>
<text text-anchor="start" x="128" y="-18" font-family="Helvetica,sans-Serif" font-size="10.00">CCSDS::Header::getVersion</text>
<text text-anchor="middle" x="194.5" y="-7" font-family="Helvetica,sans-Serif" font-size="10.00">Number</text>
</a>
</g>
</g>
<!-- Node1&#45;&gt;Node11 -->
<g id="edge10_Node000001_Node000011" class="edge">
<title>Node1&#45;&gt;Node11</title>
<g id="a_edge10_Node000001_Node000011"><a xlink:title=" ">
<path fill="none" stroke="#63b8ff" d="M39.22,-200.27C43.38,-171.35 59.63,-85.13 110,-40 111.74,-38.44 113.57,-36.98 115.48,-35.61"/>
<polygon fill="#63b8ff" stroke="#63b8ff" points="117.63,-38.4 124.29,-30.16 113.94,-32.45 117.63,-38.4"/>
</a>
</g>
</g>
</g>
</svg>
