<?xml version="1.0" encoding="UTF-8" standalone="no"?>
<!DOCTYPE svg PUBLIC "-//W3C//DTD SVG 1.1//EN"
 "http://www.w3.org/Graphics/SVG/1.1/DTD/svg11.dtd">
<!-- Generated by graphviz version 2.43.0 (0)
 -->
<!-- Title: printPrimaryHeader Pages: 1 -->
<svg width="512pt" height="444pt"
 viewBox="0.00 0.00 512.00 443.50" xmlns="http://www.w3.org/2000/svg" xmlns:xlink="http://www.w3.org/1999/xlink">
<g id="graph0" class="graph" transform="scale(1 1) rotate(0) translate(4 439.5)">
<title>printPrimaryHeader</title>
<!-- Node1 -->
<g id="Node000001" class="node">
<title>Node1</title>
<g id="a_Node000001"><a xlink:title="Prints to console the primary header of a provided CCSDS packet.">
<polygon fill="#999999" stroke="#666666" points="113,-256.5 0,-256.5 0,-237.5 113,-237.5 113,-256.5"/>
<text text-anchor="middle" x="56.5" y="-244.5" font-family="Helvetica,sans-Serif" font-size="10.00">printPrimaryHeader</text>
</a>
</g>
</g>
<!-- Node2 -->
<g id="Node000002" class="node">
<title>Node2</title>
<g id="a_Node000002"><a xlink:href="classCCSDS_1_1Header.html#ab9bf408f60a412980700518122b5e3de" target="_top" xlink:title="Sets the header data from a 64&#45;bit integer representation.">
<polygon fill="white" stroke="#666666" points="299,-355.5 149,-355.5 149,-336.5 299,-336.5 299,-355.5"/>
<text text-anchor="middle" x="224" y="-343.5" font-family="Helvetica,sans-Serif" font-size="10.00">CCSDS::Header::deserialize</text>
</a>
</g>
</g>
<!-- Node1&#45;&gt;Node2 -->
<g id="edge1_Node000001_Node000002" class="edge">
<title>Node1&#45;&gt;Node2</title>
<g id="a_edge1_Node000001_Node000002"><a xlink:title=" ">
<path fill="none" stroke="#63b8ff" d="M73.67,-256.67C102.67,-274.02 163.68,-310.51 198.06,-331.08"/>
<polygon fill="#63b8ff" stroke="#63b8ff" points="196.63,-334.3 207.01,-336.43 200.22,-328.3 196.63,-334.3"/>
</a>
</g>
</g>
<!-- Node4 -->
<g id="Node000004" class="node">
<title>Node4</title>
<g id="a_Node000004"><a xlink:href="CCSDSUtils_8cpp.html#a993788a78365e86ff065ba8bedff543a" target="_top" xlink:title="Prints the header fields and their binary or hexadecimal representations.">
<polygon fill="white" stroke="#666666" points="261,-238.5 187,-238.5 187,-219.5 261,-219.5 261,-238.5"/>
<text text-anchor="middle" x="224" y="-226.5" font-family="Helvetica,sans-Serif" font-size="10.00">printHeader</text>
</a>
</g>
</g>
<!-- Node1&#45;&gt;Node4 -->
<g id="edge3_Node000001_Node000004" class="edge">
<title>Node1&#45;&gt;Node4</title>
<g id="a_edge3_Node000001_Node000004"><a xlink:title=" ">
<path fill="none" stroke="#63b8ff" d="M113.07,-240.96C133.7,-238.71 156.87,-236.19 176.6,-234.05"/>
<polygon fill="#63b8ff" stroke="#63b8ff" points="177,-237.52 186.57,-232.96 176.25,-230.56 177,-237.52"/>
</a>
</g>
</g>
<!-- Node3 -->
<g id="Node000003" class="node">
<title>Node3</title>
<g id="a_Node000003"><a xlink:href="classCCSDS_1_1Header.html#ac4a56ea430e71c2cf43dfa9a0c3df534" target="_top" xlink:title="Sets the header data from a 64&#45;bit integer representation.">
<polygon fill="white" stroke="#666666" points="487,-435.5 352,-435.5 352,-416.5 487,-416.5 487,-435.5"/>
<text text-anchor="middle" x="419.5" y="-423.5" font-family="Helvetica,sans-Serif" font-size="10.00">CCSDS::Header::setData</text>
</a>
</g>
</g>
<!-- Node2&#45;&gt;Node3 -->
<g id="edge2_Node000002_Node000003" class="edge">
<title>Node2&#45;&gt;Node3</title>
<g id="a_edge2_Node000002_Node000003"><a xlink:title=" ">
<path fill="none" stroke="#63b8ff" d="M238.91,-355.67C259.15,-369.31 298.31,-394.07 335,-408 340.82,-410.21 346.98,-412.18 353.21,-413.93"/>
<polygon fill="#63b8ff" stroke="#63b8ff" points="352.46,-417.35 363.02,-416.5 354.23,-410.58 352.46,-417.35"/>
</a>
</g>
</g>
<!-- Node5 -->
<g id="Node000005" class="node">
<title>Node5</title>
<g id="a_Node000005"><a xlink:href="classCCSDS_1_1Header.html#a5cc2c58961e2088dee19d65effccfba5" target="_top" xlink:title="11 bits">
<polygon fill="white" stroke="#666666" points="487.5,-398.5 351.5,-398.5 351.5,-379.5 487.5,-379.5 487.5,-398.5"/>
<text text-anchor="middle" x="419.5" y="-386.5" font-family="Helvetica,sans-Serif" font-size="10.00">CCSDS::Header::getAPID</text>
</a>
</g>
</g>
<!-- Node4&#45;&gt;Node5 -->
<g id="edge4_Node000004_Node000005" class="edge">
<title>Node4&#45;&gt;Node5</title>
<g id="a_edge4_Node000004_Node000005"><a xlink:title=" ">
<path fill="none" stroke="#63b8ff" d="M232.34,-238.85C255.82,-270.31 327.94,-366.55 335,-371 337.61,-372.65 340.35,-374.14 343.19,-375.51"/>
<polygon fill="#63b8ff" stroke="#63b8ff" points="341.91,-378.76 352.48,-379.41 344.62,-372.31 341.91,-378.76"/>
</a>
</g>
</g>
<!-- Node6 -->
<g id="Node000006" class="node">
<title>Node6</title>
<g id="a_Node000006"><a xlink:href="CCSDSUtils_8cpp.html#a5b5f08449f95e60ce977dbe45b21c321" target="_top" xlink:title="Converts a given value to its binary representation as a string, with spaces every 4 bits.">
<polygon fill="white" stroke="#666666" points="465.5,-361.5 373.5,-361.5 373.5,-342.5 465.5,-342.5 465.5,-361.5"/>
<text text-anchor="middle" x="419.5" y="-349.5" font-family="Helvetica,sans-Serif" font-size="10.00">getBinaryString</text>
</a>
</g>
</g>
<!-- Node4&#45;&gt;Node6 -->
<g id="edge5_Node000004_Node000006" class="edge">
<title>Node4&#45;&gt;Node6</title>
<g id="a_edge5_Node000004_Node000006"><a xlink:title=" ">
<path fill="none" stroke="#63b8ff" d="M232.03,-238.64C247.86,-259.6 288.58,-309.4 335,-334 343.66,-338.59 353.4,-342 363.1,-344.55"/>
<polygon fill="#63b8ff" stroke="#63b8ff" points="362.61,-348.03 373.15,-346.9 364.21,-341.22 362.61,-348.03"/>
</a>
</g>
</g>
<!-- Node7 -->
<g id="Node000007" class="node">
<title>Node7</title>
<g id="a_Node000007"><a xlink:href="CCSDSUtils_8cpp.html#a747efd8ca2488636101433b9a3e8f1b1" target="_top" xlink:title="Generates a string of spaces for formatting binary outputs.">
<polygon fill="white" stroke="#666666" points="462.5,-324.5 376.5,-324.5 376.5,-305.5 462.5,-305.5 462.5,-324.5"/>
<text text-anchor="middle" x="419.5" y="-312.5" font-family="Helvetica,sans-Serif" font-size="10.00">getBitsSpaces</text>
</a>
</g>
</g>
<!-- Node4&#45;&gt;Node7 -->
<g id="edge6_Node000004_Node000007" class="edge">
<title>Node4&#45;&gt;Node7</title>
<g id="a_edge6_Node000004_Node000007"><a xlink:title=" ">
<path fill="none" stroke="#63b8ff" d="M237.81,-238.72C257.6,-253.29 297.29,-280.7 335,-296 344.92,-300.02 355.86,-303.29 366.47,-305.9"/>
<polygon fill="#63b8ff" stroke="#63b8ff" points="365.96,-309.37 376.49,-308.21 367.53,-302.55 365.96,-309.37"/>
</a>
</g>
</g>
<!-- Node8 -->
<g id="Node000008" class="node">
<title>Node8</title>
<g id="a_Node000008"><a xlink:href="classCCSDS_1_1Header.html#acf533901cf3bf0e1d5bc3e4fe2ff876b" target="_top" xlink:title="1 bits">
<polygon fill="white" stroke="#666666" points="499,-287 340,-287 340,-257 499,-257 499,-287"/>
<text text-anchor="start" x="348" y="-275" font-family="Helvetica,sans-Serif" font-size="10.00">CCSDS::Header::getDataField</text>
<text text-anchor="middle" x="419.5" y="-264" font-family="Helvetica,sans-Serif" font-size="10.00">HeaderFlag</text>
</a>
</g>
</g>
<!-- Node4&#45;&gt;Node8 -->
<g id="edge7_Node000004_Node000008" class="edge">
<title>Node4&#45;&gt;Node8</title>
<g id="a_edge7_Node000004_Node000008"><a xlink:title=" ">
<path fill="none" stroke="#63b8ff" d="M261.4,-237.09C283.82,-242.07 313.45,-248.66 340.93,-254.76"/>
<polygon fill="#63b8ff" stroke="#63b8ff" points="340.42,-258.23 350.94,-256.99 341.94,-251.4 340.42,-258.23"/>
</a>
</g>
</g>
<!-- Node9 -->
<g id="Node000009" class="node">
<title>Node9</title>
<g id="a_Node000009"><a xlink:href="classCCSDS_1_1Header.html#af2033219620664beb7212c054874da73" target="_top" xlink:title="16 bits">
<polygon fill="white" stroke="#666666" points="504,-238.5 335,-238.5 335,-219.5 504,-219.5 504,-238.5"/>
<text text-anchor="middle" x="419.5" y="-226.5" font-family="Helvetica,sans-Serif" font-size="10.00">CCSDS::Header::getDataLength</text>
</a>
</g>
</g>
<!-- Node4&#45;&gt;Node9 -->
<g id="edge8_Node000004_Node000009" class="edge">
<title>Node4&#45;&gt;Node9</title>
<g id="a_edge8_Node000004_Node000009"><a xlink:title=" ">
<path fill="none" stroke="#63b8ff" d="M261.4,-229C279.43,-229 302.13,-229 324.62,-229"/>
<polygon fill="#63b8ff" stroke="#63b8ff" points="324.92,-232.5 334.92,-229 324.92,-225.5 324.92,-232.5"/>
</a>
</g>
</g>
<!-- Node10 -->
<g id="Node000010" class="node">
<title>Node10</title>
<g id="a_Node000010"><a xlink:href="classCCSDS_1_1Header.html#a7a3302acb3fccf699f6917feeed9a1b1" target="_top" xlink:title="Computes and retrieves the full header as a 64&#45;bit value.">
<polygon fill="white" stroke="#666666" points="502,-201.5 337,-201.5 337,-182.5 502,-182.5 502,-201.5"/>
<text text-anchor="middle" x="419.5" y="-189.5" font-family="Helvetica,sans-Serif" font-size="10.00">CCSDS::Header::getFullHeader</text>
</a>
</g>
</g>
<!-- Node4&#45;&gt;Node10 -->
<g id="edge9_Node000004_Node000010" class="edge">
<title>Node4&#45;&gt;Node10</title>
<g id="a_edge9_Node000004_Node000010"><a xlink:title=" ">
<path fill="none" stroke="#63b8ff" d="M261.4,-222.04C288.76,-216.81 326.85,-209.53 358.67,-203.44"/>
<polygon fill="#63b8ff" stroke="#63b8ff" points="359.59,-206.83 368.76,-201.51 358.28,-199.95 359.59,-206.83"/>
</a>
</g>
</g>
<!-- Node11 -->
<g id="Node000011" class="node">
<title>Node11</title>
<g id="a_Node000011"><a xlink:href="classCCSDS_1_1Header.html#a9cf2da06f3bdb16fd02bcade045a2e68" target="_top" xlink:title="14 bits">
<polygon fill="white" stroke="#666666" points="499.5,-164 339.5,-164 339.5,-134 499.5,-134 499.5,-164"/>
<text text-anchor="start" x="347.5" y="-152" font-family="Helvetica,sans-Serif" font-size="10.00">CCSDS::Header::getSequence</text>
<text text-anchor="middle" x="419.5" y="-141" font-family="Helvetica,sans-Serif" font-size="10.00">Count</text>
</a>
</g>
</g>
<!-- Node4&#45;&gt;Node11 -->
<g id="edge10_Node000004_Node000011" class="edge">
<title>Node4&#45;&gt;Node11</title>
<g id="a_edge10_Node000004_Node000011"><a xlink:title=" ">
<path fill="none" stroke="#63b8ff" d="M241.73,-219.49C262.94,-207.71 300.86,-187.53 335,-174 340.91,-171.66 347.13,-169.41 353.39,-167.29"/>
<polygon fill="#63b8ff" stroke="#63b8ff" points="354.82,-170.51 363.24,-164.07 352.65,-163.85 354.82,-170.51"/>
</a>
</g>
</g>
<!-- Node12 -->
<g id="Node000012" class="node">
<title>Node12</title>
<g id="a_Node000012"><a xlink:href="classCCSDS_1_1Header.html#a8f92d94e9ebdac82669058c75188e770" target="_top" xlink:title="2 bits">
<polygon fill="white" stroke="#666666" points="499.5,-116 339.5,-116 339.5,-86 499.5,-86 499.5,-116"/>
<text text-anchor="start" x="347.5" y="-104" font-family="Helvetica,sans-Serif" font-size="10.00">CCSDS::Header::getSequence</text>
<text text-anchor="middle" x="419.5" y="-93" font-family="Helvetica,sans-Serif" font-size="10.00">Flags</text>
</a>
</g>
</g>
<!-- Node4&#45;&gt;Node12 -->
<g id="edge11_Node000004_Node000012" class="edge">
<title>Node4&#45;&gt;Node12</title>
<g id="a_edge11_Node000004_Node000012"><a xlink:title=" ">
<path fill="none" stroke="#63b8ff" d="M232.42,-219.38C248.72,-198.9 289.81,-150.79 335,-125 338.2,-123.17 341.55,-121.48 345,-119.9"/>
<polygon fill="#63b8ff" stroke="#63b8ff" points="346.41,-123.1 354.28,-116.01 343.71,-116.65 346.41,-123.1"/>
</a>
</g>
</g>
<!-- Node13 -->
<g id="Node000013" class="node">
<title>Node13</title>
<g id="a_Node000013"><a xlink:href="classCCSDS_1_1Header.html#a86aa79246f47cd0e724b1a5427a87895" target="_top" xlink:title="1 bits">
<polygon fill="white" stroke="#666666" points="487,-67.5 352,-67.5 352,-48.5 487,-48.5 487,-67.5"/>
<text text-anchor="middle" x="419.5" y="-55.5" font-family="Helvetica,sans-Serif" font-size="10.00">CCSDS::Header::getType</text>
</a>
</g>
</g>
<!-- Node4&#45;&gt;Node13 -->
<g id="edge12_Node000004_Node000013" class="edge">
<title>Node4&#45;&gt;Node13</title>
<g id="a_edge12_Node000004_Node000013"><a xlink:title=" ">
<path fill="none" stroke="#63b8ff" d="M229.02,-219.31C240.83,-192.09 278.2,-114.54 335,-77 338.1,-74.95 341.38,-73.12 344.79,-71.49"/>
<polygon fill="#63b8ff" stroke="#63b8ff" points="346.19,-74.7 354.07,-67.61 343.49,-68.24 346.19,-74.7"/>
</a>
</g>
</g>
<!-- Node14 -->
<g id="Node000014" class="node">
<title>Node14</title>
<g id="a_Node000014"><a xlink:href="classCCSDS_1_1Header.html#a9e4cb3397871c6d3ea4e18d26592750a" target="_top" xlink:title="3 bits">
<polygon fill="white" stroke="#666666" points="494,-30 345,-30 345,0 494,0 494,-30"/>
<text text-anchor="start" x="353" y="-18" font-family="Helvetica,sans-Serif" font-size="10.00">CCSDS::Header::getVersion</text>
<text text-anchor="middle" x="419.5" y="-7" font-family="Helvetica,sans-Serif" font-size="10.00">Number</text>
</a>
</g>
</g>
<!-- Node4&#45;&gt;Node14 -->
<g id="edge13_Node000004_Node000014" class="edge">
<title>Node4&#45;&gt;Node14</title>
<g id="a_edge13_Node000004_Node000014"><a xlink:title=" ">
<path fill="none" stroke="#63b8ff" d="M227.72,-219.39C237.04,-188.24 270.71,-89.2 335,-39 336.79,-37.6 338.65,-36.29 340.58,-35.05"/>
<polygon fill="#63b8ff" stroke="#63b8ff" points="342.39,-38.05 349.39,-30.1 338.95,-31.95 342.39,-38.05"/>
</a>
</g>
</g>
</g>
</svg>
