<?xml version="1.0" encoding="UTF-8" standalone="no"?>
<!DOCTYPE svg PUBLIC "-//W3C//DTD SVG 1.1//EN"
 "http://www.w3.org/Graphics/SVG/1.1/DTD/svg11.dtd">
<!-- Generated by graphviz version 2.43.0 (0)
 -->
<!-- Title: inc/CCSDSSecondaryHeaderAbstract.h Pages: 1 -->
<svg width="1088pt" height="544pt"
 viewBox="0.00 0.00 1087.50 544.00" xmlns="http://www.w3.org/2000/svg" xmlns:xlink="http://www.w3.org/1999/xlink">
<g id="graph0" class="graph" transform="scale(1 1) rotate(0) translate(4 540)">
<title>inc/CCSDSSecondaryHeaderAbstract.h</title>
<!-- Node1 -->
<g id="Node000001" class="node">
<title>Node1</title>
<g id="a_Node000001"><a xlink:title=" ">
<polygon fill="#999999" stroke="#666666" points="781.5,-536 628.5,-536 628.5,-506 781.5,-506 781.5,-536"/>
<text text-anchor="start" x="636.5" y="-524" font-family="Helvetica,sans-Serif" font-size="10.00">inc/CCSDSSecondaryHeader</text>
<text text-anchor="middle" x="705" y="-513" font-family="Helvetica,sans-Serif" font-size="10.00">Abstract.h</text>
</a>
</g>
</g>
<!-- Node2 -->
<g id="Node000002" class="node">
<title>Node2</title>
<g id="a_Node000002"><a xlink:href="CCSDSDataField_8h.html" target="_top" xlink:title=" ">
<polygon fill="white" stroke="#666666" points="819,-349 697,-349 697,-330 819,-330 819,-349"/>
<text text-anchor="middle" x="758" y="-337" font-family="Helvetica,sans-Serif" font-size="10.00">inc/CCSDSDataField.h</text>
</a>
</g>
</g>
<!-- Node1&#45;&gt;Node2 -->
<g id="edge1_Node000001_Node000002" class="edge">
<title>Node1&#45;&gt;Node2</title>
<g id="a_edge1_Node000001_Node000002"><a xlink:title=" ">
<path fill="none" stroke="#63b8ff" d="M791.12,-506.86C811.74,-499.45 831.4,-487.92 844,-470 875.51,-425.18 802.97,-370.01 771.58,-349.09"/>
<polygon fill="#63b8ff" stroke="#63b8ff" points="790.02,-503.53 781.6,-509.98 792.2,-510.19 790.02,-503.53"/>
</a>
</g>
</g>
<!-- Node3 -->
<g id="Node000003" class="node">
<title>Node3</title>
<g id="a_Node000003"><a xlink:href="CCSDSPack_8h.html" target="_top" xlink:title=" ">
<polygon fill="white" stroke="#666666" points="247,-74 149,-74 149,-55 247,-55 247,-74"/>
<text text-anchor="middle" x="198" y="-62" font-family="Helvetica,sans-Serif" font-size="10.00">inc/CCSDSPack.h</text>
</a>
</g>
</g>
<!-- Node1&#45;&gt;Node3 -->
<g id="edge28_Node000001_Node000003" class="edge">
<title>Node1&#45;&gt;Node3</title>
<g id="a_edge28_Node000001_Node000003"><a xlink:title=" ">
<path fill="none" stroke="#63b8ff" d="M618.02,-517.87C464.61,-511.73 162,-487.92 162,-395.5 162,-395.5 162,-395.5 162,-173.5 162,-134.76 183.1,-92.03 192.99,-74.13"/>
<polygon fill="#63b8ff" stroke="#63b8ff" points="618.23,-521.38 628.35,-518.27 618.49,-514.39 618.23,-521.38"/>
</a>
</g>
</g>
<!-- Node18 -->
<g id="Node000018" class="node">
<title>Node18</title>
<g id="a_Node000018"><a xlink:href="CCSDSSecondaryHeaderFactory_8h.html" target="_top" xlink:title=" ">
<polygon fill="white" stroke="#666666" points="834.5,-470 681.5,-470 681.5,-440 834.5,-440 834.5,-470"/>
<text text-anchor="start" x="689.5" y="-458" font-family="Helvetica,sans-Serif" font-size="10.00">inc/CCSDSSecondaryHeader</text>
<text text-anchor="middle" x="758" y="-447" font-family="Helvetica,sans-Serif" font-size="10.00">Factory.h</text>
</a>
</g>
</g>
<!-- Node1&#45;&gt;Node18 -->
<g id="edge29_Node000001_Node000018" class="edge">
<title>Node1&#45;&gt;Node18</title>
<g id="a_edge29_Node000001_Node000018"><a xlink:title=" ">
<path fill="none" stroke="#63b8ff" d="M723.15,-498.09C730.8,-488.85 739.48,-478.36 746.27,-470.16"/>
<polygon fill="#63b8ff" stroke="#63b8ff" points="720.44,-495.86 716.76,-505.8 725.84,-500.33 720.44,-495.86"/>
</a>
</g>
</g>
<!-- Node19 -->
<g id="Node000019" class="node">
<title>Node19</title>
<g id="a_Node000019"><a xlink:href="PusServices_8h.html" target="_top" xlink:title=" ">
<polygon fill="white" stroke="#666666" points="719.5,-404 618.5,-404 618.5,-385 719.5,-385 719.5,-404"/>
<text text-anchor="middle" x="669" y="-392" font-family="Helvetica,sans-Serif" font-size="10.00">inc/PusServices.h</text>
</a>
</g>
</g>
<!-- Node1&#45;&gt;Node19 -->
<g id="edge37_Node000001_Node000019" class="edge">
<title>Node1&#45;&gt;Node19</title>
<g id="a_edge37_Node000001_Node000019"><a xlink:title=" ">
<path fill="none" stroke="#63b8ff" d="M687.08,-497.46C681.56,-489.27 676.11,-479.65 673,-470 665.62,-447.07 666.85,-418.13 668.08,-404.02"/>
<polygon fill="#63b8ff" stroke="#63b8ff" points="684.33,-499.63 693.01,-505.71 690.02,-495.55 684.33,-499.63"/>
</a>
</g>
</g>
<!-- Node2&#45;&gt;Node3 -->
<g id="edge2_Node000002_Node000003" class="edge">
<title>Node2&#45;&gt;Node3</title>
<g id="a_edge2_Node000002_Node000003"><a xlink:title=" ">
<path fill="none" stroke="#63b8ff" d="M686.89,-329.77C577.28,-315.14 373.67,-282.88 316,-239 253.96,-191.8 213.19,-102.27 201.48,-74.17"/>
<polygon fill="#63b8ff" stroke="#63b8ff" points="686.5,-333.25 696.87,-331.09 687.42,-326.31 686.5,-333.25"/>
</a>
</g>
</g>
<!-- Node7 -->
<g id="Node000007" class="node">
<title>Node7</title>
<g id="a_Node000007"><a xlink:href="CCSDSPacket_8h.html" target="_top" xlink:title=" ">
<polygon fill="white" stroke="#666666" points="594.5,-294 487.5,-294 487.5,-275 594.5,-275 594.5,-294"/>
<text text-anchor="middle" x="541" y="-282" font-family="Helvetica,sans-Serif" font-size="10.00">inc/CCSDSPacket.h</text>
</a>
</g>
</g>
<!-- Node2&#45;&gt;Node7 -->
<g id="edge6_Node000002_Node000007" class="edge">
<title>Node2&#45;&gt;Node7</title>
<g id="a_edge6_Node000002_Node000007"><a xlink:title=" ">
<path fill="none" stroke="#63b8ff" d="M713.23,-327.56C672.58,-317.64 613.47,-303.2 576.14,-294.08"/>
<polygon fill="#63b8ff" stroke="#63b8ff" points="712.59,-331.01 723.14,-329.98 714.25,-324.21 712.59,-331.01"/>
</a>
</g>
</g>
<!-- Node12 -->
<g id="Node000012" class="node">
<title>Node12</title>
<g id="a_Node000012"><a xlink:href="CCSDSPacket_8cpp.html" target="_top" xlink:title=" ">
<polygon fill="white" stroke="#666666" points="948.5,-74 829.5,-74 829.5,-55 948.5,-55 948.5,-74"/>
<text text-anchor="middle" x="889" y="-62" font-family="Helvetica,sans-Serif" font-size="10.00">src/CCSDSPacket.cpp</text>
</a>
</g>
</g>
<!-- Node2&#45;&gt;Node12 -->
<g id="edge26_Node000002_Node000012" class="edge">
<title>Node2&#45;&gt;Node12</title>
<g id="a_edge26_Node000002_Node000012"><a xlink:title=" ">
<path fill="none" stroke="#63b8ff" d="M751.32,-320.37C737.22,-278.71 709.4,-174.73 756,-110 766.85,-94.93 811.97,-82.03 846.68,-74.05"/>
<polygon fill="#63b8ff" stroke="#63b8ff" points="748.08,-321.71 754.71,-329.98 754.68,-319.38 748.08,-321.71"/>
</a>
</g>
</g>
<!-- Node15 -->
<g id="Node000015" class="node">
<title>Node15</title>
<g id="a_Node000015"><a xlink:href="PusServices_8cpp.html" target="_top" xlink:title=" ">
<polygon fill="white" stroke="#666666" points="1079.5,-74 966.5,-74 966.5,-55 1079.5,-55 1079.5,-74"/>
<text text-anchor="middle" x="1023" y="-62" font-family="Helvetica,sans-Serif" font-size="10.00">src/PusServices.cpp</text>
</a>
</g>
</g>
<!-- Node2&#45;&gt;Node15 -->
<g id="edge27_Node000002_Node000015" class="edge">
<title>Node2&#45;&gt;Node15</title>
<g id="a_edge27_Node000002_Node000015"><a xlink:title=" ">
<path fill="none" stroke="#63b8ff" d="M761.34,-319.84C764.89,-298.36 770,-262 770,-230.5 770,-230.5 770,-230.5 770,-173.5 770,-127.89 910.83,-90.22 982.35,-74.03"/>
<polygon fill="#63b8ff" stroke="#63b8ff" points="757.87,-319.41 759.62,-329.86 764.76,-320.6 757.87,-319.41"/>
</a>
</g>
</g>
<!-- Node17 -->
<g id="Node000017" class="node">
<title>Node17</title>
<g id="a_Node000017"><a xlink:href="CCSDSDataField_8cpp.html" target="_top" xlink:title=" ">
<polygon fill="white" stroke="#666666" points="932,-294 798,-294 798,-275 932,-275 932,-294"/>
<text text-anchor="middle" x="865" y="-282" font-family="Helvetica,sans-Serif" font-size="10.00">src/CCSDSDataField.cpp</text>
</a>
</g>
</g>
<!-- Node2&#45;&gt;Node17 -->
<g id="edge25_Node000002_Node000017" class="edge">
<title>Node2&#45;&gt;Node17</title>
<g id="a_edge25_Node000002_Node000017"><a xlink:title=" ">
<path fill="none" stroke="#63b8ff" d="M784.24,-325.5C803.93,-315.75 830.32,-302.68 847.5,-294.17"/>
<polygon fill="#63b8ff" stroke="#63b8ff" points="782.6,-322.41 775.19,-329.98 785.71,-328.68 782.6,-322.41"/>
</a>
</g>
</g>
<!-- Node4 -->
<g id="Node000004" class="node">
<title>Node4</title>
<g id="a_Node000004"><a xlink:href="exec__decoder_8cpp.html" target="_top" xlink:title=" ">
<polygon fill="white" stroke="#666666" points="120,-19 0,-19 0,0 120,0 120,-19"/>
<text text-anchor="middle" x="60" y="-7" font-family="Helvetica,sans-Serif" font-size="10.00">src/exec_decoder.cpp</text>
</a>
</g>
</g>
<!-- Node3&#45;&gt;Node4 -->
<g id="edge3_Node000003_Node000004" class="edge">
<title>Node3&#45;&gt;Node4</title>
<g id="a_edge3_Node000003_Node000004"><a xlink:title=" ">
<path fill="none" stroke="#63b8ff" d="M166.21,-51.29C140.63,-41.47 105.33,-27.91 82.58,-19.17"/>
<polygon fill="#63b8ff" stroke="#63b8ff" points="165.24,-54.67 175.83,-54.98 167.75,-48.13 165.24,-54.67"/>
</a>
</g>
</g>
<!-- Node5 -->
<g id="Node000005" class="node">
<title>Node5</title>
<g id="a_Node000005"><a xlink:href="exec__encoder_8cpp.html" target="_top" xlink:title=" ">
<polygon fill="white" stroke="#666666" points="258,-19 138,-19 138,0 258,0 258,-19"/>
<text text-anchor="middle" x="198" y="-7" font-family="Helvetica,sans-Serif" font-size="10.00">src/exec_encoder.cpp</text>
</a>
</g>
</g>
<!-- Node3&#45;&gt;Node5 -->
<g id="edge4_Node000003_Node000005" class="edge">
<title>Node3&#45;&gt;Node5</title>
<g id="a_edge4_Node000003_Node000005"><a xlink:title=" ">
<path fill="none" stroke="#63b8ff" d="M198,-44.66C198,-35.93 198,-25.99 198,-19.09"/>
<polygon fill="#63b8ff" stroke="#63b8ff" points="194.5,-44.75 198,-54.75 201.5,-44.75 194.5,-44.75"/>
</a>
</g>
</g>
<!-- Node6 -->
<g id="Node000006" class="node">
<title>Node6</title>
<g id="a_Node000006"><a xlink:href="exec__validator_8cpp.html" target="_top" xlink:title=" ">
<polygon fill="white" stroke="#666666" points="401.5,-19 276.5,-19 276.5,0 401.5,0 401.5,-19"/>
<text text-anchor="middle" x="339" y="-7" font-family="Helvetica,sans-Serif" font-size="10.00">src/exec_validator.cpp</text>
</a>
</g>
</g>
<!-- Node3&#45;&gt;Node6 -->
<g id="edge5_Node000003_Node000006" class="edge">
<title>Node3&#45;&gt;Node6</title>
<g id="a_edge5_Node000003_Node000006"><a xlink:title=" ">
<path fill="none" stroke="#63b8ff" d="M230.14,-51.42C256.29,-41.59 292.59,-27.95 315.93,-19.17"/>
<polygon fill="#63b8ff" stroke="#63b8ff" points="228.78,-48.19 220.65,-54.98 231.25,-54.74 228.78,-48.19"/>
</a>
</g>
</g>
<!-- Node7&#45;&gt;Node3 -->
<g id="edge18_Node000007_Node000003" class="edge">
<title>Node7&#45;&gt;Node3</title>
<g id="a_edge18_Node000007_Node000003"><a xlink:title=" ">
<path fill="none" stroke="#63b8ff" d="M477.42,-281.04C435.86,-276.74 382.06,-265.87 342,-239 283.94,-200.06 299.41,-161.37 252,-110 239.15,-96.07 221.91,-82.6 210.4,-74.19"/>
<polygon fill="#63b8ff" stroke="#63b8ff" points="477.15,-284.53 487.43,-281.97 477.8,-277.56 477.15,-284.53"/>
</a>
</g>
</g>
<!-- Node8 -->
<g id="Node000008" class="node">
<title>Node8</title>
<g id="a_Node000008"><a xlink:href="CCSDSManager_8h.html" target="_top" xlink:title=" ">
<polygon fill="white" stroke="#666666" points="536,-184 418,-184 418,-165 536,-165 536,-184"/>
<text text-anchor="middle" x="477" y="-172" font-family="Helvetica,sans-Serif" font-size="10.00">inc/CCSDSManager.h</text>
</a>
</g>
</g>
<!-- Node7&#45;&gt;Node8 -->
<g id="edge7_Node000007_Node000008" class="edge">
<title>Node7&#45;&gt;Node8</title>
<g id="a_edge7_Node000007_Node000008"><a xlink:title=" ">
<path fill="none" stroke="#63b8ff" d="M530.49,-265.76C516.57,-242.28 492.59,-201.81 482.13,-184.16"/>
<polygon fill="#63b8ff" stroke="#63b8ff" points="527.65,-267.84 535.76,-274.66 533.68,-264.27 527.65,-267.84"/>
</a>
</g>
</g>
<!-- Node9 -->
<g id="Node000009" class="node">
<title>Node9</title>
<g id="a_Node000009"><a xlink:href="CCSDSUtils_8h.html" target="_top" xlink:title=" ">
<polygon fill="white" stroke="#666666" points="603,-129 505,-129 505,-110 603,-110 603,-129"/>
<text text-anchor="middle" x="554" y="-117" font-family="Helvetica,sans-Serif" font-size="10.00">inc/CCSDSUtils.h</text>
</a>
</g>
</g>
<!-- Node7&#45;&gt;Node9 -->
<g id="edge19_Node000007_Node000009" class="edge">
<title>Node7&#45;&gt;Node9</title>
<g id="a_edge19_Node000007_Node000009"><a xlink:title=" ">
<path fill="none" stroke="#63b8ff" d="M542.53,-264.37C545.34,-229.03 551.27,-154.79 553.3,-129.31"/>
<polygon fill="#63b8ff" stroke="#63b8ff" points="539.01,-264.49 541.7,-274.74 545.98,-265.05 539.01,-264.49"/>
</a>
</g>
</g>
<!-- Node7&#45;&gt;Node12 -->
<g id="edge24_Node000007_Node000012" class="edge">
<title>Node7&#45;&gt;Node12</title>
<g id="a_edge24_Node000007_Node000012"><a xlink:title=" ">
<path fill="none" stroke="#63b8ff" d="M549.81,-265.75C568.49,-230.05 615.71,-149.64 680,-110 704.59,-94.84 776.62,-81.65 829.26,-73.65"/>
<polygon fill="#63b8ff" stroke="#63b8ff" points="546.55,-264.43 545.12,-274.93 552.78,-267.61 546.55,-264.43"/>
</a>
</g>
</g>
<!-- Node16 -->
<g id="Node000016" class="node">
<title>Node16</title>
<g id="a_Node000016"><a xlink:href="CCSDSValidator_8h.html" target="_top" xlink:title="Defines the Validator class for CCSDS packet validation.">
<polygon fill="white" stroke="#666666" points="470.5,-239 351.5,-239 351.5,-220 470.5,-220 470.5,-239"/>
<text text-anchor="middle" x="411" y="-227" font-family="Helvetica,sans-Serif" font-size="10.00">inc/CCSDSValidator.h</text>
</a>
</g>
</g>
<!-- Node7&#45;&gt;Node16 -->
<g id="edge20_Node000007_Node000016" class="edge">
<title>Node7&#45;&gt;Node16</title>
<g id="a_edge20_Node000007_Node000016"><a xlink:title=" ">
<path fill="none" stroke="#63b8ff" d="M510.73,-271.16C486.66,-261.35 453.6,-247.87 432.27,-239.17"/>
<polygon fill="#63b8ff" stroke="#63b8ff" points="509.53,-274.45 520.11,-274.98 512.17,-267.97 509.53,-274.45"/>
</a>
</g>
</g>
<!-- Node8&#45;&gt;Node3 -->
<g id="edge8_Node000008_Node000003" class="edge">
<title>Node8&#45;&gt;Node3</title>
<g id="a_edge8_Node000008_Node000003"><a xlink:title=" ">
<path fill="none" stroke="#63b8ff" d="M456.15,-159.36C434.45,-145.18 399.07,-123.57 366,-110 325.66,-93.45 277.34,-81.41 242.89,-74.05"/>
<polygon fill="#63b8ff" stroke="#63b8ff" points="454.3,-162.33 464.57,-164.94 458.16,-156.5 454.3,-162.33"/>
</a>
</g>
</g>
<!-- Node8&#45;&gt;Node9 -->
<g id="edge9_Node000008_Node000009" class="edge">
<title>Node8&#45;&gt;Node9</title>
<g id="a_edge9_Node000008_Node000009"><a xlink:title=" ">
<path fill="none" stroke="#63b8ff" d="M497.85,-159.15C511.76,-149.57 529.61,-137.29 541.4,-129.17"/>
<polygon fill="#63b8ff" stroke="#63b8ff" points="495.62,-156.43 489.37,-164.98 499.59,-162.2 495.62,-156.43"/>
</a>
</g>
</g>
<!-- Node11 -->
<g id="Node000011" class="node">
<title>Node11</title>
<g id="a_Node000011"><a xlink:href="CCSDSManager_8cpp.html" target="_top" xlink:title=" ">
<polygon fill="white" stroke="#666666" points="542.5,-74 413.5,-74 413.5,-55 542.5,-55 542.5,-74"/>
<text text-anchor="middle" x="478" y="-62" font-family="Helvetica,sans-Serif" font-size="10.00">src/CCSDSManager.cpp</text>
</a>
</g>
</g>
<!-- Node8&#45;&gt;Node11 -->
<g id="edge17_Node000008_Node000011" class="edge">
<title>Node8&#45;&gt;Node11</title>
<g id="a_edge17_Node000008_Node000011"><a xlink:title=" ">
<path fill="none" stroke="#63b8ff" d="M477.18,-154.48C477.39,-130.84 477.76,-91.5 477.92,-74.16"/>
<polygon fill="#63b8ff" stroke="#63b8ff" points="473.67,-154.63 477.08,-164.66 480.67,-154.69 473.67,-154.63"/>
</a>
</g>
</g>
<!-- Node9&#45;&gt;Node3 -->
<g id="edge10_Node000009_Node000003" class="edge">
<title>Node9&#45;&gt;Node3</title>
<g id="a_edge10_Node000009_Node000003"><a xlink:title=" ">
<path fill="none" stroke="#63b8ff" d="M494.98,-109.71C425.67,-99.39 311.95,-82.46 247.19,-72.82"/>
<polygon fill="#63b8ff" stroke="#63b8ff" points="494.47,-113.18 504.87,-111.19 495.5,-106.25 494.47,-113.18"/>
</a>
</g>
</g>
<!-- Node10 -->
<g id="Node000010" class="node">
<title>Node10</title>
<g id="a_Node000010"><a xlink:href="CCSDSHeader_8cpp.html" target="_top" xlink:title=" ">
<polygon fill="white" stroke="#666666" points="811,-74 689,-74 689,-55 811,-55 811,-74"/>
<text text-anchor="middle" x="750" y="-62" font-family="Helvetica,sans-Serif" font-size="10.00">src/CCSDSHeader.cpp</text>
</a>
</g>
</g>
<!-- Node9&#45;&gt;Node10 -->
<g id="edge11_Node000009_Node000010" class="edge">
<title>Node9&#45;&gt;Node10</title>
<g id="a_edge11_Node000009_Node000010"><a xlink:title=" ">
<path fill="none" stroke="#63b8ff" d="M595.38,-107.31C632.05,-97.39 684.83,-83.12 718.26,-74.08"/>
<polygon fill="#63b8ff" stroke="#63b8ff" points="594.23,-104 585.49,-109.98 596.06,-110.75 594.23,-104"/>
</a>
</g>
</g>
<!-- Node9&#45;&gt;Node11 -->
<g id="edge12_Node000009_Node000011" class="edge">
<title>Node9&#45;&gt;Node11</title>
<g id="a_edge12_Node000009_Node000011"><a xlink:title=" ">
<path fill="none" stroke="#63b8ff" d="M533.42,-104.15C519.69,-94.57 502.07,-82.29 490.43,-74.17"/>
<polygon fill="#63b8ff" stroke="#63b8ff" points="531.58,-107.14 541.79,-109.98 535.59,-101.39 531.58,-107.14"/>
</a>
</g>
</g>
<!-- Node9&#45;&gt;Node12 -->
<g id="edge13_Node000009_Node000012" class="edge">
<title>Node9&#45;&gt;Node12</title>
<g id="a_edge13_Node000009_Node000012"><a xlink:title=" ">
<path fill="none" stroke="#63b8ff" d="M613.22,-109.13C676.02,-99.2 774.37,-83.64 835.08,-74.03"/>
<polygon fill="#63b8ff" stroke="#63b8ff" points="612.4,-105.72 603.07,-110.74 613.49,-112.63 612.4,-105.72"/>
</a>
</g>
</g>
<!-- Node13 -->
<g id="Node000013" class="node">
<title>Node13</title>
<g id="a_Node000013"><a xlink:href="CCSDSUtils_8cpp.html" target="_top" xlink:title=" ">
<polygon fill="white" stroke="#666666" points="671,-74 561,-74 561,-55 671,-55 671,-74"/>
<text text-anchor="middle" x="616" y="-62" font-family="Helvetica,sans-Serif" font-size="10.00">src/CCSDSUtils.cpp</text>
</a>
</g>
</g>
<!-- Node9&#45;&gt;Node13 -->
<g id="edge14_Node000009_Node000013" class="edge">
<title>Node9&#45;&gt;Node13</title>
<g id="a_edge14_Node000009_Node000013"><a xlink:title=" ">
<path fill="none" stroke="#63b8ff" d="M571.75,-103.32C582.81,-93.87 596.63,-82.06 605.86,-74.17"/>
<polygon fill="#63b8ff" stroke="#63b8ff" points="569.29,-100.83 563.96,-109.98 573.84,-106.15 569.29,-100.83"/>
</a>
</g>
</g>
<!-- Node14 -->
<g id="Node000014" class="node">
<title>Node14</title>
<g id="a_Node000014"><a xlink:href="CCSDSValidator_8cpp.html" target="_top" xlink:title=" ">
<polygon fill="white" stroke="#666666" points="395,-74 265,-74 265,-55 395,-55 395,-74"/>
<text text-anchor="middle" x="330" y="-62" font-family="Helvetica,sans-Serif" font-size="10.00">src/CCSDSValidator.cpp</text>
</a>
</g>
</g>
<!-- Node9&#45;&gt;Node14 -->
<g id="edge15_Node000009_Node000014" class="edge">
<title>Node9&#45;&gt;Node14</title>
<g id="a_edge15_Node000009_Node000014"><a xlink:title=" ">
<path fill="none" stroke="#63b8ff" d="M508.05,-107.63C466.09,-97.7 404.88,-83.22 366.27,-74.08"/>
<polygon fill="#63b8ff" stroke="#63b8ff" points="507.47,-111.09 518.01,-109.98 509.09,-104.28 507.47,-111.09"/>
</a>
</g>
</g>
<!-- Node9&#45;&gt;Node15 -->
<g id="edge16_Node000009_Node000015" class="edge">
<title>Node9&#45;&gt;Node15</title>
<g id="a_edge16_Node000009_Node000015"><a xlink:title=" ">
<path fill="none" stroke="#63b8ff" d="M613.38,-112.34C692.19,-104.08 835.64,-88.74 958,-74 960.71,-73.67 963.49,-73.33 966.29,-72.99"/>
<polygon fill="#63b8ff" stroke="#63b8ff" points="612.75,-108.89 603.17,-113.41 613.48,-115.85 612.75,-108.89"/>
</a>
</g>
</g>
<!-- Node16&#45;&gt;Node3 -->
<g id="edge22_Node000016_Node000003" class="edge">
<title>Node16&#45;&gt;Node3</title>
<g id="a_edge22_Node000016_Node000003"><a xlink:title=" ">
<path fill="none" stroke="#63b8ff" d="M400.73,-211.18C383.04,-181.86 346.94,-124.24 328,-110 303.69,-91.72 271.35,-80.61 245.01,-74.06"/>
<polygon fill="#63b8ff" stroke="#63b8ff" points="397.83,-213.15 405.97,-219.93 403.83,-209.55 397.83,-213.15"/>
</a>
</g>
</g>
<!-- Node16&#45;&gt;Node8 -->
<g id="edge21_Node000016_Node000008" class="edge">
<title>Node16&#45;&gt;Node8</title>
<g id="a_edge21_Node000016_Node000008"><a xlink:title=" ">
<path fill="none" stroke="#63b8ff" d="M429.55,-213.6C441.38,-204.11 456.29,-192.13 466.2,-184.17"/>
<polygon fill="#63b8ff" stroke="#63b8ff" points="427.21,-210.99 421.6,-219.98 431.59,-216.45 427.21,-210.99"/>
</a>
</g>
</g>
<!-- Node16&#45;&gt;Node14 -->
<g id="edge23_Node000016_Node000014" class="edge">
<title>Node16&#45;&gt;Node14</title>
<g id="a_edge23_Node000016_Node000014"><a xlink:title=" ">
<path fill="none" stroke="#63b8ff" d="M405.92,-209.83C398.93,-185.78 385.03,-143.11 366,-110 358.18,-96.39 346.3,-82.63 338.35,-74.09"/>
<polygon fill="#63b8ff" stroke="#63b8ff" points="402.63,-211.07 408.71,-219.75 409.37,-209.18 402.63,-211.07"/>
</a>
</g>
</g>
<!-- Node18&#45;&gt;Node2 -->
<g id="edge30_Node000018_Node000002" class="edge">
<title>Node18&#45;&gt;Node2</title>
<g id="a_edge30_Node000018_Node000002"><a xlink:title=" ">
<path fill="none" stroke="#63b8ff" d="M758,-429.35C758,-404.09 758,-366.18 758,-349.23"/>
<polygon fill="#63b8ff" stroke="#63b8ff" points="754.5,-429.63 758,-439.63 761.5,-429.63 754.5,-429.63"/>
</a>
</g>
</g>
<!-- Node18&#45;&gt;Node3 -->
<g id="edge31_Node000018_Node000003" class="edge">
<title>Node18&#45;&gt;Node3</title>
<g id="a_edge31_Node000018_Node000003"><a xlink:title=" ">
<path fill="none" stroke="#63b8ff" d="M697.42,-436.94C670.15,-428.4 637.88,-417.09 610,-404 483.38,-344.57 447.18,-331.2 342,-239 286.41,-190.27 284.7,-166.47 237,-110 226.39,-97.44 213.81,-83.2 205.87,-74.28"/>
<polygon fill="#63b8ff" stroke="#63b8ff" points="696.64,-440.36 707.23,-439.96 698.7,-433.67 696.64,-440.36"/>
</a>
</g>
</g>
<!-- Node18&#45;&gt;Node17 -->
<g id="edge36_Node000018_Node000017" class="edge">
<title>Node18&#45;&gt;Node17</title>
<g id="a_edge36_Node000018_Node000017"><a xlink:title=" ">
<path fill="none" stroke="#63b8ff" d="M773.49,-431.62C787.94,-410.54 809.94,-377.95 828,-349 840.02,-329.73 853.21,-306.56 860.14,-294.23"/>
<polygon fill="#63b8ff" stroke="#63b8ff" points="770.57,-429.69 767.79,-439.91 776.34,-433.66 770.57,-429.69"/>
</a>
</g>
</g>
<!-- Node18&#45;&gt;Node19 -->
<g id="edge32_Node000018_Node000019" class="edge">
<title>Node18&#45;&gt;Node19</title>
<g id="a_edge32_Node000018_Node000019"><a xlink:title=" ">
<path fill="none" stroke="#63b8ff" d="M727.67,-434.06C712.13,-423.85 694.02,-411.95 682.08,-404.09"/>
<polygon fill="#63b8ff" stroke="#63b8ff" points="726.18,-437.27 736.46,-439.84 730.02,-431.42 726.18,-437.27"/>
</a>
</g>
</g>
<!-- Node19&#45;&gt;Node2 -->
<g id="edge33_Node000019_Node000002" class="edge">
<title>Node19&#45;&gt;Node2</title>
<g id="a_edge33_Node000019_Node000002"><a xlink:title=" ">
<path fill="none" stroke="#63b8ff" d="M692.18,-379.7C708.39,-370.04 729.55,-357.44 743.44,-349.17"/>
<polygon fill="#63b8ff" stroke="#63b8ff" points="690.1,-376.86 683.3,-384.98 693.68,-382.88 690.1,-376.86"/>
</a>
</g>
</g>
<!-- Node19&#45;&gt;Node3 -->
<g id="edge34_Node000019_Node000003" class="edge">
<title>Node19&#45;&gt;Node3</title>
<g id="a_edge34_Node000019_Node000003"><a xlink:title=" ">
<path fill="none" stroke="#63b8ff" d="M608.41,-385.44C481.63,-366.87 200,-316 200,-230.5 200,-230.5 200,-230.5 200,-173.5 200,-136.56 198.82,-92.52 198.27,-74.18"/>
<polygon fill="#63b8ff" stroke="#63b8ff" points="607.97,-388.91 618.36,-386.88 608.97,-381.98 607.97,-388.91"/>
</a>
</g>
</g>
<!-- Node19&#45;&gt;Node15 -->
<g id="edge35_Node000019_Node000015" class="edge">
<title>Node19&#45;&gt;Node15</title>
<g id="a_edge35_Node000019_Node000015"><a xlink:title=" ">
<path fill="none" stroke="#63b8ff" d="M671.4,-374.63C679.48,-320.32 711.22,-164.08 814,-110 840.02,-96.31 913.94,-82.51 966.47,-73.99"/>
<polygon fill="#63b8ff" stroke="#63b8ff" points="667.89,-374.47 669.99,-384.86 674.82,-375.43 667.89,-374.47"/>
</a>
</g>
</g>
</g>
</svg>
