<?xml version="1.0" encoding="UTF-8" standalone="no"?>
<!DOCTYPE svg PUBLIC "-//W3C//DTD SVG 1.1//EN"
 "http://www.w3.org/Graphics/SVG/1.1/DTD/svg11.dtd">
<!-- Generated by graphviz version 2.43.0 (0)
 -->
<!-- Title: readBinaryFile Pages: 1 -->
<svg width="379pt" height="140pt"
 viewBox="0.00 0.00 379.00 140.00" xmlns="http://www.w3.org/2000/svg" xmlns:xlink="http://www.w3.org/1999/xlink">
<g id="graph0" class="graph" transform="scale(1 1) rotate(0) translate(4 136)">
<title>readBinaryFile</title>
<!-- Node1 -->
<g id="Node000001" class="node">
<title>Node1</title>
<g id="a_Node000001"><a xlink:title="Read a specified binary file and return its contents as a buffer.">
<polygon fill="#999999" stroke="#666666" points="371,-75 284,-75 284,-56 371,-56 371,-75"/>
<text text-anchor="middle" x="327.5" y="-63" font-family="Helvetica,sans-Serif" font-size="10.00">readBinaryFile</text>
</a>
</g>
</g>
<!-- Node2 -->
<g id="Node000002" class="node">
<title>Node2</title>
<g id="a_Node000002"><a xlink:href="exec__encoder_8cpp.html#a132eda413acdf67b79532c3b7f340e5c" target="_top" xlink:title="filesystem check fore file existence prepared for both windows and linux.">
<polygon fill="white" stroke="#666666" points="193,-132 132,-132 132,-113 193,-113 193,-132"/>
<text text-anchor="middle" x="162.5" y="-120" font-family="Helvetica,sans-Serif" font-size="10.00">fileExists</text>
</a>
</g>
</g>
<!-- Node1&#45;&gt;Node2 -->
<g id="edge1_Node000001_Node000002" class="edge">
<title>Node1&#45;&gt;Node2</title>
<g id="a_edge1_Node000001_Node000002"><a xlink:title=" ">
<path fill="none" stroke="#63b8ff" d="M296.34,-79.19C281.87,-85.49 264.21,-92.81 248,-98.5 230.01,-104.81 209.44,-110.68 193.1,-115.03"/>
<polygon fill="#63b8ff" stroke="#63b8ff" points="298.04,-82.26 305.78,-75.02 295.22,-75.86 298.04,-82.26"/>
</a>
</g>
</g>
<!-- Node3 -->
<g id="Node000003" class="node">
<title>Node3</title>
<g id="a_Node000003"><a xlink:href="exec__encoder_8cpp.html#a638b85ceffac097c2aa79b76ba8c055e" target="_top" xlink:title=" ">
<polygon fill="white" stroke="#666666" points="41,-113 0,-113 0,-94 41,-94 41,-113"/>
<text text-anchor="middle" x="20.5" y="-101" font-family="Helvetica,sans-Serif" font-size="10.00">main</text>
</a>
</g>
</g>
<!-- Node1&#45;&gt;Node3 -->
<g id="edge3_Node000001_Node000003" class="edge">
<title>Node1&#45;&gt;Node3</title>
<g id="a_edge3_Node000001_Node000003"><a xlink:title=" ">
<path fill="none" stroke="#63b8ff" d="M273.56,-72.1C204.68,-80.68 87.67,-95.26 41.29,-101.03"/>
<polygon fill="#63b8ff" stroke="#63b8ff" points="274.28,-75.53 283.77,-70.82 273.41,-68.59 274.28,-75.53"/>
</a>
</g>
</g>
<!-- Node4 -->
<g id="Node000004" class="node">
<title>Node4</title>
<g id="a_Node000004"><a xlink:href="classCCSDS_1_1Manager.html#a8be98b4fb7b61439308dfadfea9496f9" target="_top" xlink:title="Load a packet or a series of packets from a binary file.">
<polygon fill="white" stroke="#666666" points="225.5,-56 99.5,-56 99.5,-37 225.5,-37 225.5,-56"/>
<text text-anchor="middle" x="162.5" y="-44" font-family="Helvetica,sans-Serif" font-size="10.00">CCSDS::Manager::read</text>
</a>
</g>
</g>
<!-- Node1&#45;&gt;Node4 -->
<g id="edge4_Node000001_Node000004" class="edge">
<title>Node1&#45;&gt;Node4</title>
<g id="a_edge4_Node000001_Node000004"><a xlink:title=" ">
<path fill="none" stroke="#63b8ff" d="M273.39,-59.31C258.15,-57.53 241.4,-55.58 225.66,-53.75"/>
<polygon fill="#63b8ff" stroke="#63b8ff" points="273.34,-62.83 283.67,-60.51 274.15,-55.87 273.34,-62.83"/>
</a>
</g>
</g>
<!-- Node5 -->
<g id="Node000005" class="node">
<title>Node5</title>
<g id="a_Node000005"><a xlink:href="classCCSDS_1_1Manager.html#a44c3bccc78ccf59d9432935e43283342" target="_top" xlink:title="Load a template packet from a binary or configuration file.">
<polygon fill="white" stroke="#666666" points="248,-19 77,-19 77,0 248,0 248,-19"/>
<text text-anchor="middle" x="162.5" y="-7" font-family="Helvetica,sans-Serif" font-size="10.00">CCSDS::Manager::readTemplate</text>
</a>
</g>
</g>
<!-- Node1&#45;&gt;Node5 -->
<g id="edge5_Node000001_Node000005" class="edge">
<title>Node1&#45;&gt;Node5</title>
<g id="a_edge5_Node000001_Node000005"><a xlink:title=" ">
<path fill="none" stroke="#63b8ff" d="M300.04,-51.25C285.1,-43.65 265.88,-34.64 248,-28.5 237.33,-24.84 225.67,-21.69 214.5,-19.07"/>
<polygon fill="#63b8ff" stroke="#63b8ff" points="298.7,-54.49 309.19,-55.99 301.92,-48.28 298.7,-54.49"/>
</a>
</g>
</g>
<!-- Node2&#45;&gt;Node3 -->
<g id="edge2_Node000002_Node000003" class="edge">
<title>Node2&#45;&gt;Node3</title>
<g id="a_edge2_Node000002_Node000003"><a xlink:title=" ">
<path fill="none" stroke="#63b8ff" d="M121.75,-117.11C95.44,-113.53 62.07,-109.01 41.24,-106.18"/>
<polygon fill="#63b8ff" stroke="#63b8ff" points="121.43,-120.59 131.81,-118.47 122.37,-113.66 121.43,-120.59"/>
</a>
</g>
</g>
</g>
</svg>
