<?xml version="1.0" encoding="UTF-8" standalone="no"?>
<!DOCTYPE svg PUBLIC "-//W3C//DTD SVG 1.1//EN"
 "http://www.w3.org/Graphics/SVG/1.1/DTD/svg11.dtd">
<!-- Generated by graphviz version 2.43.0 (0)
 -->
<!-- Title: src/CCSDSValidator.cpp Pages: 1 -->
<!--zoomable 467 -->

<svg id="main" version="1.1" xmlns="http://www.w3.org/2000/svg" xmlns:xlink="http://www.w3.org/1999/xlink" xml:space="preserve" onload="init(evt)">
<style type="text/css"><![CDATA[
.node, .edge {opacity: 0.7;}
.node.selected, .edge.selected {opacity: 1;}
.edge:hover path { stroke: red; }
.edge:hover polygon { stroke: red; fill: red; }
]]></style>

<defs>
  <circle id="rim" cx="0" cy="0" r="7"/>
  <circle id="rim2" cx="0" cy="0" r="3.5"/>
  <g id="zoomPlus">
    <use xlink:href="#rim" fill="#404040"><set attributeName="fill" to="#808080" begin="zoomplus.mouseover" end="zoomplus.mouseout"/></use>
    <path d="M-4,0h8M0,-4v8" fill="none" stroke="white" stroke-width="1.5" pointer-events="none"/>
  </g>
  <g id="zoomMin">
    <use xlink:href="#rim" fill="#404040"><set attributeName="fill" to="#808080" begin="zoomminus.mouseover" end="zoomminus.mouseout"/></use>
    <path d="M-4,0h8" fill="none" stroke="white" stroke-width="1.5" pointer-events="none"/>
  </g>
  <g id="arrowUp" transform="translate(30 24)">
    <use xlink:href="#rim"/>
    <path pointer-events="none" fill="none" stroke="white" stroke-width="1.5" d="M0,-3.0v7 M-2.5,-0.5L0,-3.0L2.5,-0.5"/>
  </g>
  <g id="arrowRight" transform="rotate(90) translate(36 -43)">
    <use xlink:href="#rim"/>
    <path pointer-events="none" fill="none" stroke="white" stroke-width="1.5" d="M0,-3.0v7 M-2.5,-0.5L0,-3.0L2.5,-0.5"/>
  </g>
  <g id="arrowDown" transform="rotate(180) translate(-30 -48)">
    <use xlink:href="#rim"/>
    <path pointer-events="none" fill="none" stroke="white" stroke-width="1.5" d="M0,-3.0v7 M-2.5,-0.5L0,-3.0L2.5,-0.5"/>
  </g>
  <g id="arrowLeft" transform="rotate(270) translate(-36 17)">
    <use xlink:href="#rim"/>
    <path pointer-events="none" fill="none" stroke="white" stroke-width="1.5" d="M0,-3.0v7 M-2.5,-0.5L0,-3.0L2.5,-0.5"/>
  </g>
  <g id="resetDef">
    <use xlink:href="#rim2" fill="#404040"><set attributeName="fill" to="#808080" begin="reset.mouseover" end="reset.mouseout"/></use>
  </g>
</defs>
<script type="application/ecmascript">
var viewWidth = 873;
var viewHeight = 467;
var sectionId = 'dynsection-0';
</script>
<script type="application/ecmascript" xlink:href="svg.min.js"/>
<svg id="graph" class="graph">
<g id="viewport">
<title>src/CCSDSValidator.cpp</title>
<!-- Node1 -->
<g id="Node000001" class="node">
<title>Node1</title>
<g id="a_Node000001"><a xlink:title=" ">
<polygon fill="#999999" stroke="#666666" points="444.21,-459 314.21,-459 314.21,-440 444.21,-440 444.21,-459"/>
<text text-anchor="middle" x="379.21" y="-447" font-family="Helvetica,sans-Serif" font-size="10.00">src/CCSDSValidator.cpp</text>
</a>
</g>
</g>
<!-- Node2 -->
<g id="Node000002" class="node">
<title>Node2</title>
<g id="a_Node000002"><a xlink:href="CCSDSValidator_8h.html" target="_top" xlink:title="Defines the Validator class for CCSDS packet validation.">
<polygon fill="white" stroke="#666666" points="375.71,-404 274.71,-404 274.71,-385 375.71,-385 375.71,-404"/>
<text text-anchor="middle" x="325.21" y="-392" font-family="Helvetica,sans-Serif" font-size="10.00">CCSDSValidator.h</text>
</a>
</g>
</g>
<!-- Node1&#45;&gt;Node2 -->
<g id="edge1_Node000001_Node000002" class="edge">
<title>Node1&#45;&gt;Node2</title>
<g id="a_edge1_Node000001_Node000002"><a xlink:title=" ">
<path fill="none" stroke="#63b8ff" d="M370.29,-439.75C362.43,-432.03 350.78,-420.6 341.29,-411.28"/>
<polygon fill="#63b8ff" stroke="#63b8ff" points="343.55,-408.6 333.96,-404.09 338.64,-413.59 343.55,-408.6"/>
</a>
</g>
</g>
<!-- Node18 -->
<g id="Node000018" class="node">
<title>Node18</title>
<g id="a_Node000018"><a xlink:href="CCSDSUtils_8h.html" target="_top" xlink:title=" ">
<polygon fill="white" stroke="#666666" points="474.71,-404 393.71,-404 393.71,-385 474.71,-385 474.71,-404"/>
<text text-anchor="middle" x="434.21" y="-392" font-family="Helvetica,sans-Serif" font-size="10.00">CCSDSUtils.h</text>
</a>
</g>
</g>
<!-- Node1&#45;&gt;Node18 -->
<g id="edge34_Node000001_Node000018" class="edge">
<title>Node1&#45;&gt;Node18</title>
<g id="a_edge34_Node000001_Node000018"><a xlink:title=" ">
<path fill="none" stroke="#63b8ff" d="M388.29,-439.75C396.3,-432.03 408.17,-420.6 417.83,-411.28"/>
<polygon fill="#63b8ff" stroke="#63b8ff" points="420.52,-413.55 425.29,-404.09 415.67,-408.51 420.52,-413.55"/>
</a>
</g>
</g>
<!-- Node3 -->
<g id="Node000003" class="node">
<title>Node3</title>
<g id="a_Node000003"><a xlink:href="CCSDSPacket_8h.html" target="_top" xlink:title=" ">
<polygon fill="white" stroke="#666666" points="370.21,-349 280.21,-349 280.21,-330 370.21,-330 370.21,-349"/>
<text text-anchor="middle" x="325.21" y="-337" font-family="Helvetica,sans-Serif" font-size="10.00">CCSDSPacket.h</text>
</a>
</g>
</g>
<!-- Node2&#45;&gt;Node3 -->
<g id="edge2_Node000002_Node000003" class="edge">
<title>Node2&#45;&gt;Node3</title>
<g id="a_edge2_Node000002_Node000003"><a xlink:title=" ">
<path fill="none" stroke="#63b8ff" d="M325.21,-384.75C325.21,-377.8 325.21,-367.85 325.21,-359.13"/>
<polygon fill="#63b8ff" stroke="#63b8ff" points="328.71,-359.09 325.21,-349.09 321.71,-359.09 328.71,-359.09"/>
</a>
</g>
</g>
<!-- Node4 -->
<g id="Node000004" class="node">
<title>Node4</title>
<g id="a_Node000004"><a xlink:href="CCSDSResult_8h.html" target="_top" xlink:title=" ">
<polygon fill="white" stroke="#666666" points="304.71,-74 215.71,-74 215.71,-55 304.71,-55 304.71,-74"/>
<text text-anchor="middle" x="260.21" y="-62" font-family="Helvetica,sans-Serif" font-size="10.00">CCSDSResult.h</text>
</a>
</g>
</g>
<!-- Node3&#45;&gt;Node4 -->
<g id="edge3_Node000003_Node000004" class="edge">
<title>Node3&#45;&gt;Node4</title>
<g id="a_edge3_Node000003_Node000004"><a xlink:title=" ">
<path fill="none" stroke="#63b8ff" d="M304.67,-329.96C272.33,-314.99 213.21,-280.74 213.21,-230.5 213.21,-230.5 213.21,-230.5 213.21,-173.5 213.21,-138.92 233.72,-102.9 247.64,-82.43"/>
<polygon fill="#63b8ff" stroke="#63b8ff" points="250.56,-84.37 253.47,-74.18 244.84,-80.32 250.56,-84.37"/>
</a>
</g>
</g>
<!-- Node7 -->
<g id="Node000007" class="node">
<title>Node7</title>
<g id="a_Node000007"><a xlink:title=" ">
<polygon fill="#e0e0e0" stroke="#999999" points="755.71,-19 708.71,-19 708.71,0 755.71,0 755.71,-19"/>
<text text-anchor="middle" x="732.21" y="-7" font-family="Helvetica,sans-Serif" font-size="10.00">vector</text>
</a>
</g>
</g>
<!-- Node3&#45;&gt;Node7 -->
<g id="edge10_Node000003_Node000007" class="edge">
<title>Node3&#45;&gt;Node7</title>
<g id="a_edge10_Node000003_Node000007"><a xlink:title=" ">
<path fill="none" stroke="#63b8ff" d="M370.64,-333.61C494.21,-319.07 827.21,-271.03 827.21,-175.5 827.21,-175.5 827.21,-175.5 827.21,-118.5 827.21,-75.91 785.05,-42.14 756.9,-24.33"/>
<polygon fill="#63b8ff" stroke="#63b8ff" points="758.69,-21.32 748.32,-19.12 755.05,-27.31 758.69,-21.32"/>
</a>
</g>
</g>
<!-- Node8 -->
<g id="Node000008" class="node">
<title>Node8</title>
<g id="a_Node000008"><a xlink:title=" ">
<polygon fill="#e0e0e0" stroke="#999999" points="136.21,-19 86.21,-19 86.21,0 136.21,0 136.21,-19"/>
<text text-anchor="middle" x="111.21" y="-7" font-family="Helvetica,sans-Serif" font-size="10.00">cstdint</text>
</a>
</g>
</g>
<!-- Node3&#45;&gt;Node8 -->
<g id="edge9_Node000003_Node000008" class="edge">
<title>Node3&#45;&gt;Node8</title>
<g id="a_edge9_Node000003_Node000008"><a xlink:title=" ">
<path fill="none" stroke="#63b8ff" d="M285.78,-329.99C255.88,-322.69 214.25,-310.7 180.21,-294 114.95,-262 96.42,-246.43 59.21,-184 27.89,-131.45 -22.11,-106.3 11.21,-55 25.48,-33.03 53.39,-21.81 76.1,-16.15"/>
<polygon fill="#63b8ff" stroke="#63b8ff" points="77.11,-19.51 86.11,-13.91 75.58,-12.67 77.11,-19.51"/>
</a>
</g>
</g>
<!-- Node10 -->
<g id="Node000010" class="node">
<title>Node10</title>
<g id="a_Node000010"><a xlink:href="CCSDSHeader_8h.html" target="_top" xlink:title=" ">
<polygon fill="white" stroke="#666666" points="184.71,-129 91.71,-129 91.71,-110 184.71,-110 184.71,-129"/>
<text text-anchor="middle" x="138.21" y="-117" font-family="Helvetica,sans-Serif" font-size="10.00">CCSDSHeader.h</text>
</a>
</g>
</g>
<!-- Node3&#45;&gt;Node10 -->
<g id="edge11_Node000003_Node000010" class="edge">
<title>Node3&#45;&gt;Node10</title>
<g id="a_edge11_Node000003_Node000010"><a xlink:title=" ">
<path fill="none" stroke="#63b8ff" d="M280.09,-332.48C253.42,-326.74 220.76,-315.59 199.21,-294 155.83,-250.56 143.2,-174.51 139.6,-139.33"/>
<polygon fill="#63b8ff" stroke="#63b8ff" points="143.06,-138.73 138.7,-129.07 136.09,-139.34 143.06,-138.73"/>
</a>
</g>
</g>
<!-- Node11 -->
<g id="Node000011" class="node">
<title>Node11</title>
<g id="a_Node000011"><a xlink:href="CCSDSDataField_8h.html" target="_top" xlink:title=" ">
<polygon fill="white" stroke="#666666" points="455.71,-294 350.71,-294 350.71,-275 455.71,-275 455.71,-294"/>
<text text-anchor="middle" x="403.21" y="-282" font-family="Helvetica,sans-Serif" font-size="10.00">CCSDSDataField.h</text>
</a>
</g>
</g>
<!-- Node3&#45;&gt;Node11 -->
<g id="edge15_Node000003_Node000011" class="edge">
<title>Node3&#45;&gt;Node11</title>
<g id="a_edge15_Node000003_Node000011"><a xlink:title=" ">
<path fill="none" stroke="#63b8ff" d="M337.74,-329.98C349.61,-321.92 367.67,-309.65 381.82,-300.03"/>
<polygon fill="#63b8ff" stroke="#63b8ff" points="384.14,-302.69 390.45,-294.17 380.21,-296.9 384.14,-302.69"/>
</a>
</g>
</g>
<!-- Node5 -->
<g id="Node000005" class="node">
<title>Node5</title>
<g id="a_Node000005"><a xlink:title=" ">
<polygon fill="#e0e0e0" stroke="#999999" points="567.71,-19 474.71,-19 474.71,0 567.71,0 567.71,-19"/>
<text text-anchor="middle" x="521.21" y="-7" font-family="Helvetica,sans-Serif" font-size="10.00">unordered_map</text>
</a>
</g>
</g>
<!-- Node4&#45;&gt;Node5 -->
<g id="edge4_Node000004_Node000005" class="edge">
<title>Node4&#45;&gt;Node5</title>
<g id="a_edge4_Node000004_Node000005"><a xlink:title=" ">
<path fill="none" stroke="#63b8ff" d="M302.14,-54.98C347.48,-45.78 419.82,-31.09 468.85,-21.13"/>
<polygon fill="#63b8ff" stroke="#63b8ff" points="469.84,-24.5 478.95,-19.08 468.45,-17.64 469.84,-24.5"/>
</a>
</g>
</g>
<!-- Node6 -->
<g id="Node000006" class="node">
<title>Node6</title>
<g id="a_Node000006"><a xlink:title=" ">
<polygon fill="#e0e0e0" stroke="#999999" points="303.71,-19 252.71,-19 252.71,0 303.71,0 303.71,-19"/>
<text text-anchor="middle" x="278.21" y="-7" font-family="Helvetica,sans-Serif" font-size="10.00">variant</text>
</a>
</g>
</g>
<!-- Node4&#45;&gt;Node6 -->
<g id="edge5_Node000004_Node000006" class="edge">
<title>Node4&#45;&gt;Node6</title>
<g id="a_edge5_Node000004_Node000006"><a xlink:title=" ">
<path fill="none" stroke="#63b8ff" d="M263.18,-54.75C265.57,-47.72 269,-37.62 271.98,-28.84"/>
<polygon fill="#63b8ff" stroke="#63b8ff" points="275.39,-29.68 275.29,-19.09 268.76,-27.43 275.39,-29.68"/>
</a>
</g>
</g>
<!-- Node4&#45;&gt;Node7 -->
<g id="edge6_Node000004_Node000007" class="edge">
<title>Node4&#45;&gt;Node7</title>
<g id="a_edge6_Node000004_Node000007"><a xlink:title=" ">
<path fill="none" stroke="#63b8ff" d="M305.04,-58.47C399.06,-47.91 615.06,-23.65 698.48,-14.29"/>
<polygon fill="#63b8ff" stroke="#63b8ff" points="699.11,-17.74 708.66,-13.14 698.33,-10.78 699.11,-17.74"/>
</a>
</g>
</g>
<!-- Node4&#45;&gt;Node8 -->
<g id="edge7_Node000004_Node000008" class="edge">
<title>Node4&#45;&gt;Node8</title>
<g id="a_edge7_Node000004_Node000008"><a xlink:title=" ">
<path fill="none" stroke="#63b8ff" d="M236.27,-54.98C211.65,-46.23 173.09,-32.51 145.29,-22.62"/>
<polygon fill="#63b8ff" stroke="#63b8ff" points="146.18,-19.22 135.58,-19.17 143.83,-25.82 146.18,-19.22"/>
</a>
</g>
</g>
<!-- Node9 -->
<g id="Node000009" class="node">
<title>Node9</title>
<g id="a_Node000009"><a xlink:title=" ">
<polygon fill="#e0e0e0" stroke="#999999" points="234.21,-19 174.21,-19 174.21,0 234.21,0 234.21,-19"/>
<text text-anchor="middle" x="204.21" y="-7" font-family="Helvetica,sans-Serif" font-size="10.00">iostream</text>
</a>
</g>
</g>
<!-- Node4&#45;&gt;Node9 -->
<g id="edge8_Node000004_Node000009" class="edge">
<title>Node4&#45;&gt;Node9</title>
<g id="a_edge8_Node000004_Node000009"><a xlink:title=" ">
<path fill="none" stroke="#63b8ff" d="M251.21,-54.98C243.01,-47.23 230.7,-35.58 220.74,-26.14"/>
<polygon fill="#63b8ff" stroke="#63b8ff" points="223.04,-23.5 213.37,-19.17 218.23,-28.59 223.04,-23.5"/>
</a>
</g>
</g>
<!-- Node10&#45;&gt;Node4 -->
<g id="edge12_Node000010_Node000004" class="edge">
<title>Node10&#45;&gt;Node4</title>
<g id="a_edge12_Node000010_Node000004"><a xlink:title=" ">
<path fill="none" stroke="#63b8ff" d="M157.81,-109.98C177.52,-101.42 208.16,-88.11 230.79,-78.28"/>
<polygon fill="#63b8ff" stroke="#63b8ff" points="232.47,-81.37 240.25,-74.17 229.68,-74.94 232.47,-81.37"/>
</a>
</g>
</g>
<!-- Node10&#45;&gt;Node7 -->
<g id="edge14_Node000010_Node000007" class="edge">
<title>Node10&#45;&gt;Node7</title>
<g id="a_edge14_Node000010_Node000007"><a xlink:title=" ">
<path fill="none" stroke="#63b8ff" d="M184.82,-110.03C300.38,-89.01 598.03,-34.9 698.5,-16.63"/>
<polygon fill="#63b8ff" stroke="#63b8ff" points="699.2,-20.06 708.41,-14.83 697.95,-13.17 699.2,-20.06"/>
</a>
</g>
</g>
<!-- Node10&#45;&gt;Node8 -->
<g id="edge13_Node000010_Node000008" class="edge">
<title>Node10&#45;&gt;Node8</title>
<g id="a_edge13_Node000010_Node000008"><a xlink:title=" ">
<path fill="none" stroke="#63b8ff" d="M136,-109.66C131.61,-92.09 121.69,-52.45 115.82,-28.95"/>
<polygon fill="#63b8ff" stroke="#63b8ff" points="119.19,-28.01 113.37,-19.16 112.4,-29.71 119.19,-28.01"/>
</a>
</g>
</g>
<!-- Node11&#45;&gt;Node4 -->
<g id="edge16_Node000011_Node000004" class="edge">
<title>Node11&#45;&gt;Node4</title>
<g id="a_edge16_Node000011_Node000004"><a xlink:title=" ">
<path fill="none" stroke="#63b8ff" d="M395.61,-274.97C375.8,-252.42 321.72,-188.86 287.21,-129 278.79,-114.41 271.48,-96.68 266.59,-83.68"/>
<polygon fill="#63b8ff" stroke="#63b8ff" points="269.79,-82.23 263.09,-74.03 263.21,-84.62 269.79,-82.23"/>
</a>
</g>
</g>
<!-- Node11&#45;&gt;Node7 -->
<g id="edge18_Node000011_Node000007" class="edge">
<title>Node11&#45;&gt;Node7</title>
<g id="a_edge18_Node000011_Node000007"><a xlink:title=" ">
<path fill="none" stroke="#63b8ff" d="M455.8,-280.65C541.78,-272.71 708.97,-242.66 770.21,-129 788.47,-95.1 762.89,-50.97 745.65,-27.28"/>
<polygon fill="#63b8ff" stroke="#63b8ff" points="748.4,-25.11 739.57,-19.26 742.83,-29.35 748.4,-25.11"/>
</a>
</g>
</g>
<!-- Node11&#45;&gt;Node8 -->
<g id="edge17_Node000011_Node000008" class="edge">
<title>Node11&#45;&gt;Node8</title>
<g id="a_edge17_Node000011_Node000008"><a xlink:title=" ">
<path fill="none" stroke="#63b8ff" d="M350.46,-277.82C254.96,-266.06 63.21,-235.03 63.21,-175.5 63.21,-175.5 63.21,-175.5 63.21,-118.5 63.21,-83.8 84.15,-47.82 98.37,-27.39"/>
<polygon fill="#63b8ff" stroke="#63b8ff" points="101.3,-29.31 104.33,-19.16 95.63,-25.21 101.3,-29.31"/>
</a>
</g>
</g>
<!-- Node12 -->
<g id="Node000012" class="node">
<title>Node12</title>
<g id="a_Node000012"><a xlink:title=" ">
<polygon fill="#e0e0e0" stroke="#999999" points="699.21,-129 641.21,-129 641.21,-110 699.21,-110 699.21,-129"/>
<text text-anchor="middle" x="670.21" y="-117" font-family="Helvetica,sans-Serif" font-size="10.00">memory</text>
</a>
</g>
</g>
<!-- Node11&#45;&gt;Node12 -->
<g id="edge19_Node000011_Node000012" class="edge">
<title>Node11&#45;&gt;Node12</title>
<g id="a_edge19_Node000011_Node000012"><a xlink:title=" ">
<path fill="none" stroke="#63b8ff" d="M455.89,-276.05C512.02,-265.37 599.75,-240.36 651.21,-184 662.36,-171.78 666.98,-153.27 668.89,-139.37"/>
<polygon fill="#63b8ff" stroke="#63b8ff" points="672.41,-139.33 669.93,-129.03 665.44,-138.63 672.41,-139.33"/>
</a>
</g>
</g>
<!-- Node13 -->
<g id="Node000013" class="node">
<title>Node13</title>
<g id="a_Node000013"><a xlink:href="CCSDSSecondaryHeaderAbstract_8h.html" target="_top" xlink:title=" ">
<polygon fill="white" stroke="#666666" points="501.71,-129 316.71,-129 316.71,-110 501.71,-110 501.71,-129"/>
<text text-anchor="middle" x="409.21" y="-117" font-family="Helvetica,sans-Serif" font-size="10.00">CCSDSSecondaryHeaderAbstract.h</text>
</a>
</g>
</g>
<!-- Node11&#45;&gt;Node13 -->
<g id="edge20_Node000011_Node000013" class="edge">
<title>Node11&#45;&gt;Node13</title>
<g id="a_edge20_Node000011_Node000013"><a xlink:title=" ">
<path fill="none" stroke="#63b8ff" d="M399.1,-274.88C395.15,-266.09 389.46,-251.94 387.21,-239 381,-203.41 393.18,-161.92 401.76,-138.68"/>
<polygon fill="#63b8ff" stroke="#63b8ff" points="405.12,-139.7 405.48,-129.11 398.59,-137.16 405.12,-139.7"/>
</a>
</g>
</g>
<!-- Node14 -->
<g id="Node000014" class="node">
<title>Node14</title>
<g id="a_Node000014"><a xlink:href="CCSDSSecondaryHeaderFactory_8h.html" target="_top" xlink:title=" ">
<polygon fill="white" stroke="#666666" points="641.71,-184 462.71,-184 462.71,-165 641.71,-165 641.71,-184"/>
<text text-anchor="middle" x="552.21" y="-172" font-family="Helvetica,sans-Serif" font-size="10.00">CCSDSSecondaryHeaderFactory.h</text>
</a>
</g>
</g>
<!-- Node11&#45;&gt;Node14 -->
<g id="edge24_Node000011_Node000014" class="edge">
<title>Node11&#45;&gt;Node14</title>
<g id="a_edge24_Node000011_Node000014"><a xlink:title=" ">
<path fill="none" stroke="#63b8ff" d="M424.06,-274.92C442.16,-266.98 468.61,-254.12 489.21,-239 508.07,-225.15 526.56,-205.59 538.58,-191.86"/>
<polygon fill="#63b8ff" stroke="#63b8ff" points="541.33,-194.03 545.17,-184.16 536.01,-189.48 541.33,-194.03"/>
</a>
</g>
</g>
<!-- Node17 -->
<g id="Node000017" class="node">
<title>Node17</title>
<g id="a_Node000017"><a xlink:href="PusServices_8h.html" target="_top" xlink:title=" ">
<polygon fill="white" stroke="#666666" points="480.21,-239 396.21,-239 396.21,-220 480.21,-220 480.21,-239"/>
<text text-anchor="middle" x="438.21" y="-227" font-family="Helvetica,sans-Serif" font-size="10.00">PusServices.h</text>
</a>
</g>
</g>
<!-- Node11&#45;&gt;Node17 -->
<g id="edge30_Node000011_Node000017" class="edge">
<title>Node11&#45;&gt;Node17</title>
<g id="a_edge30_Node000011_Node000017"><a xlink:title=" ">
<path fill="none" stroke="#63b8ff" d="M408.99,-274.75C413.83,-267.42 420.89,-256.73 426.85,-247.7"/>
<polygon fill="#63b8ff" stroke="#63b8ff" points="429.95,-249.36 432.54,-239.09 424.1,-245.5 429.95,-249.36"/>
</a>
</g>
</g>
<!-- Node13&#45;&gt;Node4 -->
<g id="edge21_Node000013_Node000004" class="edge">
<title>Node13&#45;&gt;Node4</title>
<g id="a_edge21_Node000013_Node000004"><a xlink:title=" ">
<path fill="none" stroke="#63b8ff" d="M385.27,-109.98C360.65,-101.23 322.09,-87.51 294.29,-77.62"/>
<polygon fill="#63b8ff" stroke="#63b8ff" points="295.18,-74.22 284.58,-74.17 292.83,-80.82 295.18,-74.22"/>
</a>
</g>
</g>
<!-- Node13&#45;&gt;Node7 -->
<g id="edge22_Node000013_Node000007" class="edge">
<title>Node13&#45;&gt;Node7</title>
<g id="a_edge22_Node000013_Node000007"><a xlink:title=" ">
<path fill="none" stroke="#63b8ff" d="M434.82,-109.94C492.75,-90.57 633.82,-43.4 698.63,-21.73"/>
<polygon fill="#63b8ff" stroke="#63b8ff" points="699.98,-24.97 708.35,-18.48 697.76,-18.33 699.98,-24.97"/>
</a>
</g>
</g>
<!-- Node13&#45;&gt;Node8 -->
<g id="edge23_Node000013_Node000008" class="edge">
<title>Node13&#45;&gt;Node8</title>
<g id="a_edge23_Node000013_Node000008"><a xlink:title=" ">
<path fill="none" stroke="#63b8ff" d="M399.13,-109.87C382.55,-96.14 347.98,-69.38 314.21,-55 284.3,-42.27 195.93,-25.41 146.21,-16.55"/>
<polygon fill="#63b8ff" stroke="#63b8ff" points="146.68,-13.08 136.22,-14.78 145.46,-19.97 146.68,-13.08"/>
</a>
</g>
</g>
<!-- Node14&#45;&gt;Node5 -->
<g id="edge26_Node000014_Node000005" class="edge">
<title>Node14&#45;&gt;Node5</title>
<g id="a_edge26_Node000014_Node000005"><a xlink:title=" ">
<path fill="none" stroke="#63b8ff" d="M564.42,-164.86C574.56,-156.88 588.24,-144.01 594.21,-129 597.33,-121.15 596.84,-118.03 594.21,-110 583.22,-76.45 556.14,-44.87 538.23,-26.62"/>
<polygon fill="#63b8ff" stroke="#63b8ff" points="540.31,-23.76 530.74,-19.22 535.39,-28.74 540.31,-23.76"/>
</a>
</g>
</g>
<!-- Node14&#45;&gt;Node12 -->
<g id="edge25_Node000014_Node000012" class="edge">
<title>Node14&#45;&gt;Node12</title>
<g id="a_edge25_Node000014_Node000012"><a xlink:title=" ">
<path fill="none" stroke="#63b8ff" d="M571.17,-164.98C590.23,-156.42 619.87,-143.11 641.76,-133.28"/>
<polygon fill="#63b8ff" stroke="#63b8ff" points="643.22,-136.46 650.9,-129.17 640.35,-130.07 643.22,-136.46"/>
</a>
</g>
</g>
<!-- Node14&#45;&gt;Node13 -->
<g id="edge29_Node000014_Node000013" class="edge">
<title>Node14&#45;&gt;Node13</title>
<g id="a_edge29_Node000014_Node000013"><a xlink:title=" ">
<path fill="none" stroke="#63b8ff" d="M529.23,-164.98C505.71,-156.27 468.92,-142.63 442.27,-132.75"/>
<polygon fill="#63b8ff" stroke="#63b8ff" points="443.19,-129.36 432.6,-129.17 440.76,-135.93 443.19,-129.36"/>
</a>
</g>
</g>
<!-- Node15 -->
<g id="Node000015" class="node">
<title>Node15</title>
<g id="a_Node000015"><a xlink:title=" ">
<polygon fill="#e0e0e0" stroke="#999999" points="584.71,-129 519.71,-129 519.71,-110 584.71,-110 584.71,-129"/>
<text text-anchor="middle" x="552.21" y="-117" font-family="Helvetica,sans-Serif" font-size="10.00">functional</text>
</a>
</g>
</g>
<!-- Node14&#45;&gt;Node15 -->
<g id="edge27_Node000014_Node000015" class="edge">
<title>Node14&#45;&gt;Node15</title>
<g id="a_edge27_Node000014_Node000015"><a xlink:title=" ">
<path fill="none" stroke="#63b8ff" d="M552.21,-164.75C552.21,-157.8 552.21,-147.85 552.21,-139.13"/>
<polygon fill="#63b8ff" stroke="#63b8ff" points="555.71,-139.09 552.21,-129.09 548.71,-139.09 555.71,-139.09"/>
</a>
</g>
</g>
<!-- Node16 -->
<g id="Node000016" class="node">
<title>Node16</title>
<g id="a_Node000016"><a xlink:title=" ">
<polygon fill="#e0e0e0" stroke="#999999" points="761.21,-129 717.21,-129 717.21,-110 761.21,-110 761.21,-129"/>
<text text-anchor="middle" x="739.21" y="-117" font-family="Helvetica,sans-Serif" font-size="10.00">string</text>
</a>
</g>
</g>
<!-- Node14&#45;&gt;Node16 -->
<g id="edge28_Node000014_Node000016" class="edge">
<title>Node14&#45;&gt;Node16</title>
<g id="a_edge28_Node000014_Node000016"><a xlink:title=" ">
<path fill="none" stroke="#63b8ff" d="M582.25,-164.98C616.55,-155.26 672.42,-139.43 707.43,-129.51"/>
<polygon fill="#63b8ff" stroke="#63b8ff" points="708.48,-132.85 717.14,-126.75 706.57,-126.11 708.48,-132.85"/>
</a>
</g>
</g>
<!-- Node17&#45;&gt;Node4 -->
<g id="edge33_Node000017_Node000004" class="edge">
<title>Node17&#45;&gt;Node4</title>
<g id="a_edge33_Node000017_Node000004"><a xlink:title=" ">
<path fill="none" stroke="#63b8ff" d="M424.72,-219.96C400.01,-203.94 346.48,-167.5 308.21,-129 294.1,-114.8 280.59,-96.34 271.52,-82.99"/>
<polygon fill="#63b8ff" stroke="#63b8ff" points="274.2,-80.7 265.75,-74.3 268.36,-84.57 274.2,-80.7"/>
</a>
</g>
</g>
<!-- Node17&#45;&gt;Node13 -->
<g id="edge31_Node000017_Node000013" class="edge">
<title>Node17&#45;&gt;Node13</title>
<g id="a_edge31_Node000017_Node000013"><a xlink:title=" ">
<path fill="none" stroke="#63b8ff" d="M435.83,-219.66C431.12,-202.09 420.47,-162.45 414.16,-138.95"/>
<polygon fill="#63b8ff" stroke="#63b8ff" points="417.51,-137.91 411.53,-129.16 410.75,-139.72 417.51,-137.91"/>
</a>
</g>
</g>
<!-- Node17&#45;&gt;Node14 -->
<g id="edge32_Node000017_Node000014" class="edge">
<title>Node17&#45;&gt;Node14</title>
<g id="a_edge32_Node000017_Node000014"><a xlink:title=" ">
<path fill="none" stroke="#63b8ff" d="M456.52,-219.98C474.86,-211.46 503.32,-198.23 524.44,-188.41"/>
<polygon fill="#63b8ff" stroke="#63b8ff" points="525.97,-191.56 533.56,-184.17 523.02,-185.21 525.97,-191.56"/>
</a>
</g>
</g>
<!-- Node18&#45;&gt;Node3 -->
<g id="edge35_Node000018_Node000003" class="edge">
<title>Node18&#45;&gt;Node3</title>
<g id="a_edge35_Node000018_Node000003"><a xlink:title=" ">
<path fill="none" stroke="#63b8ff" d="M416.7,-384.98C399.24,-376.5 372.2,-363.35 352.04,-353.54"/>
<polygon fill="#63b8ff" stroke="#63b8ff" points="353.56,-350.4 343.04,-349.17 350.5,-356.69 353.56,-350.4"/>
</a>
</g>
</g>
<!-- Node18&#45;&gt;Node7 -->
<g id="edge38_Node000018_Node000007" class="edge">
<title>Node18&#45;&gt;Node7</title>
<g id="a_edge38_Node000018_Node000007"><a xlink:title=" ">
<path fill="none" stroke="#63b8ff" d="M474.76,-391.96C582.05,-386.78 865.21,-365.53 865.21,-285.5 865.21,-285.5 865.21,-285.5 865.21,-118.5 865.21,-67.22 804.9,-36.03 765.5,-21.13"/>
<polygon fill="#63b8ff" stroke="#63b8ff" points="766.58,-17.8 755.99,-17.69 764.2,-24.38 766.58,-17.8"/>
</a>
</g>
</g>
<!-- Node18&#45;&gt;Node8 -->
<g id="edge37_Node000018_Node000008" class="edge">
<title>Node18&#45;&gt;Node8</title>
<g id="a_edge37_Node000018_Node000008"><a xlink:title=" ">
<path fill="none" stroke="#63b8ff" d="M393.64,-385.7C360.01,-378.47 311.38,-366.22 271.21,-349 188.84,-313.68 167.12,-300.79 102.21,-239 57.31,-196.27 37.97,-170.96 49.21,-110 53.95,-84.27 56.43,-77.24 70.21,-55 76.68,-44.55 85.8,-34.36 93.8,-26.37"/>
<polygon fill="#63b8ff" stroke="#63b8ff" points="96.49,-28.64 101.28,-19.19 91.64,-23.59 96.49,-28.64"/>
</a>
</g>
</g>
<!-- Node18&#45;&gt;Node16 -->
<g id="edge36_Node000018_Node000016" class="edge">
<title>Node18&#45;&gt;Node16</title>
<g id="a_edge36_Node000018_Node000016"><a xlink:title=" ">
<path fill="none" stroke="#63b8ff" d="M444.16,-384.78C476.75,-356.19 583.23,-262.62 670.21,-184 688.18,-167.76 708.57,-148.94 722.5,-136.03"/>
<polygon fill="#63b8ff" stroke="#63b8ff" points="724.93,-138.55 729.88,-129.18 720.17,-133.42 724.93,-138.55"/>
</a>
</g>
</g>
</g>
</svg>

<g id="navigator" transform="translate(0 0)" fill="#404254">
  <rect fill="#f2f5e9" fill-opacity="0.5" stroke="#606060" stroke-width=".5" x="0" y="0" width="60" height="60"/>
  <use id="zoomplus" xlink:href="#zoomPlus" x="17" y="9" onmousedown="handleZoom(evt,'in')"/>
  <use id="zoomminus" xlink:href="#zoomMin" x="42" y="9" onmousedown="handleZoom(evt,'out')"/>
  <use id="reset" xlink:href="#resetDef" x="30" y="36" onmousedown="handleReset()"/>
   <use id="arrowup" xlink:href="#arrowUp" x="0" y="0" onmousedown="handlePan(0,-1)"/>
  <use id="arrowright" xlink:href="#arrowRight" x="0" y="0" onmousedown="handlePan(1,0)"/>
  <use id="arrowdown" xlink:href="#arrowDown" x="0" y="0" onmousedown="handlePan(0,1)"/>
  <use id="arrowleft" xlink:href="#arrowLeft" x="0" y="0" onmousedown="handlePan(-1,0)"/>
</g>
<svg viewBox="0 0 15 15" width="100%" height="30px" preserveAspectRatio="xMaxYMin meet">
 <g id="arrow_out" transform="scale(0.3 0.3)">
  <a xlink:href="CCSDSValidator_8cpp__incl_org.svg" target="_base">
   <rect id="button" ry="5" rx="5" y="6" x="6" height="38" width="38"
        fill="#f2f5e9" fill-opacity="0.5" stroke="#606060" stroke-width="1.0"/>
   <path id="arrow"
     d="M 11.500037,31.436501 C 11.940474,20.09759 22.043105,11.32322 32.158766,21.979434 L 37.068811,17.246167 C 37.068811,17.246167 37.088388,32 37.088388,32 L 22.160133,31.978069 C 22.160133,31.978069 26.997745,27.140456 26.997745,27.140456 C 18.528582,18.264221 13.291696,25.230495 11.500037,31.436501 z"
     style="fill:#404040;"/>
  </a>
 </g>
</svg>

<style type='text/css'>
<![CDATA[
[data-mouse-over-selected='false'] { opacity: 0.7; }
[data-mouse-over-selected='true']  { opacity: 1.0; }
]]>
</style>
<script type="application/ecmascript"><![CDATA[
document.addEventListener('DOMContentLoaded', (event) => {
  highlightEdges();
  highlightAdjacentNodes();
});
]]></script>
</svg>
