<?xml version="1.0" encoding="UTF-8" standalone="no"?>
<!DOCTYPE svg PUBLIC "-//W3C//DTD SVG 1.1//EN"
 "http://www.w3.org/Graphics/SVG/1.1/DTD/svg11.dtd">
<!-- Generated by graphviz version 2.43.0 (0)
 -->
<!-- Title: src/CCSDSPacket.cpp Pages: 1 -->
<!--zoomable 632 -->

<svg id="main" version="1.1" xmlns="http://www.w3.org/2000/svg" xmlns:xlink="http://www.w3.org/1999/xlink" xml:space="preserve" onload="init(evt)">
<style type="text/css"><![CDATA[
.node, .edge {opacity: 0.7;}
.node.selected, .edge.selected {opacity: 1;}
.edge:hover path { stroke: red; }
.edge:hover polygon { stroke: red; fill: red; }
]]></style>

<defs>
  <circle id="rim" cx="0" cy="0" r="7"/>
  <circle id="rim2" cx="0" cy="0" r="3.5"/>
  <g id="zoomPlus">
    <use xlink:href="#rim" fill="#404040"><set attributeName="fill" to="#808080" begin="zoomplus.mouseover" end="zoomplus.mouseout"/></use>
    <path d="M-4,0h8M0,-4v8" fill="none" stroke="white" stroke-width="1.5" pointer-events="none"/>
  </g>
  <g id="zoomMin">
    <use xlink:href="#rim" fill="#404040"><set attributeName="fill" to="#808080" begin="zoomminus.mouseover" end="zoomminus.mouseout"/></use>
    <path d="M-4,0h8" fill="none" stroke="white" stroke-width="1.5" pointer-events="none"/>
  </g>
  <g id="arrowUp" transform="translate(30 24)">
    <use xlink:href="#rim"/>
    <path pointer-events="none" fill="none" stroke="white" stroke-width="1.5" d="M0,-3.0v7 M-2.5,-0.5L0,-3.0L2.5,-0.5"/>
  </g>
  <g id="arrowRight" transform="rotate(90) translate(36 -43)">
    <use xlink:href="#rim"/>
    <path pointer-events="none" fill="none" stroke="white" stroke-width="1.5" d="M0,-3.0v7 M-2.5,-0.5L0,-3.0L2.5,-0.5"/>
  </g>
  <g id="arrowDown" transform="rotate(180) translate(-30 -48)">
    <use xlink:href="#rim"/>
    <path pointer-events="none" fill="none" stroke="white" stroke-width="1.5" d="M0,-3.0v7 M-2.5,-0.5L0,-3.0L2.5,-0.5"/>
  </g>
  <g id="arrowLeft" transform="rotate(270) translate(-36 17)">
    <use xlink:href="#rim"/>
    <path pointer-events="none" fill="none" stroke="white" stroke-width="1.5" d="M0,-3.0v7 M-2.5,-0.5L0,-3.0L2.5,-0.5"/>
  </g>
  <g id="resetDef">
    <use xlink:href="#rim2" fill="#404040"><set attributeName="fill" to="#808080" begin="reset.mouseover" end="reset.mouseout"/></use>
  </g>
</defs>
<script type="application/ecmascript">
var viewWidth = 917;
var viewHeight = 632;
var sectionId = 'dynsection-0';
</script>
<script type="application/ecmascript" xlink:href="svg.min.js"/>
<svg id="graph" class="graph">
<g id="viewport">
<title>src/CCSDSPacket.cpp</title>
<!-- Node1 -->
<g id="Node000001" class="node">
<title>Node1</title>
<g id="a_Node000001"><a xlink:title=" ">
<polygon fill="#999999" stroke="#666666" points="630.5,-624 511.5,-624 511.5,-605 630.5,-605 630.5,-624"/>
<text text-anchor="middle" x="571" y="-612" font-family="Helvetica,sans-Serif" font-size="10.00">src/CCSDSPacket.cpp</text>
</a>
</g>
</g>
<!-- Node2 -->
<g id="Node000002" class="node">
<title>Node2</title>
<g id="a_Node000002"><a xlink:href="CCSDSPacket_8h.html" target="_top" xlink:title=" ">
<polygon fill="white" stroke="#666666" points="695,-404 605,-404 605,-385 695,-385 695,-404"/>
<text text-anchor="middle" x="650" y="-392" font-family="Helvetica,sans-Serif" font-size="10.00">CCSDSPacket.h</text>
</a>
</g>
</g>
<!-- Node1&#45;&gt;Node2 -->
<g id="edge1_Node000001_Node000002" class="edge">
<title>Node1&#45;&gt;Node2</title>
<g id="a_edge1_Node000001_Node000002"><a xlink:title=" ">
<path fill="none" stroke="#63b8ff" d="M588.65,-604.9C617.47,-590.05 674.84,-557.02 709,-514 725.48,-493.25 726.79,-484.98 732,-459 733.66,-450.72 736.32,-447.26 732,-440 723.08,-425.02 707.16,-414.76 691.71,-407.91"/>
<polygon fill="#63b8ff" stroke="#63b8ff" points="692.8,-404.58 682.21,-404.08 690.17,-411.07 692.8,-404.58"/>
</a>
</g>
</g>
<!-- Node9 -->
<g id="Node000009" class="node">
<title>Node9</title>
<g id="a_Node000009"><a xlink:href="CCSDSDataField_8h.html" target="_top" xlink:title=" ">
<polygon fill="white" stroke="#666666" points="528.5,-349 423.5,-349 423.5,-330 528.5,-330 528.5,-349"/>
<text text-anchor="middle" x="476" y="-337" font-family="Helvetica,sans-Serif" font-size="10.00">CCSDSDataField.h</text>
</a>
</g>
</g>
<!-- Node1&#45;&gt;Node9 -->
<g id="edge37_Node000001_Node000009" class="edge">
<title>Node1&#45;&gt;Node9</title>
<g id="a_edge37_Node000001_Node000009"><a xlink:title=" ">
<path fill="none" stroke="#63b8ff" d="M511.14,-609.65C400.23,-600.88 174,-574.52 174,-505.5 174,-505.5 174,-505.5 174,-448.5 174,-398.1 325.01,-364.98 413.46,-349.9"/>
<polygon fill="#63b8ff" stroke="#63b8ff" points="414.11,-353.34 423.4,-348.23 412.95,-346.43 414.11,-353.34"/>
</a>
</g>
</g>
<!-- Node12 -->
<g id="Node000012" class="node">
<title>Node12</title>
<g id="a_Node000012"><a xlink:href="CCSDSConfig_8h.html" target="_top" xlink:title=" ">
<polygon fill="white" stroke="#666666" points="384.5,-129 295.5,-129 295.5,-110 384.5,-110 384.5,-129"/>
<text text-anchor="middle" x="340" y="-117" font-family="Helvetica,sans-Serif" font-size="10.00">CCSDSConfig.h</text>
</a>
</g>
</g>
<!-- Node1&#45;&gt;Node12 -->
<g id="edge49_Node000001_Node000012" class="edge">
<title>Node1&#45;&gt;Node12</title>
<g id="a_edge49_Node000001_Node000012"><a xlink:title=" ">
<path fill="none" stroke="#63b8ff" d="M511.09,-612.29C383.82,-608.08 98,-589.31 98,-505.5 98,-505.5 98,-505.5 98,-228.5 98,-199.04 95.22,-184.83 117,-165 141.17,-143 227.34,-130.84 285.22,-125"/>
<polygon fill="#63b8ff" stroke="#63b8ff" points="285.7,-128.47 295.32,-124.02 285.02,-121.5 285.7,-128.47"/>
</a>
</g>
</g>
<!-- Node18 -->
<g id="Node000018" class="node">
<title>Node18</title>
<g id="a_Node000018"><a xlink:href="CCSDSUtils_8h.html" target="_top" xlink:title=" ">
<polygon fill="white" stroke="#666666" points="611.5,-569 530.5,-569 530.5,-550 611.5,-550 611.5,-569"/>
<text text-anchor="middle" x="571" y="-557" font-family="Helvetica,sans-Serif" font-size="10.00">CCSDSUtils.h</text>
</a>
</g>
</g>
<!-- Node1&#45;&gt;Node18 -->
<g id="edge38_Node000001_Node000018" class="edge">
<title>Node1&#45;&gt;Node18</title>
<g id="a_edge38_Node000001_Node000018"><a xlink:title=" ">
<path fill="none" stroke="#63b8ff" d="M571,-604.75C571,-597.8 571,-587.85 571,-579.13"/>
<polygon fill="#63b8ff" stroke="#63b8ff" points="574.5,-579.09 571,-569.09 567.5,-579.09 574.5,-579.09"/>
</a>
</g>
</g>
<!-- Node22 -->
<g id="Node000022" class="node">
<title>Node22</title>
<g id="a_Node000022"><a xlink:title=" ">
<polygon fill="#e0e0e0" stroke="#999999" points="844,-569 780,-569 780,-550 844,-550 844,-569"/>
<text text-anchor="middle" x="812" y="-557" font-family="Helvetica,sans-Serif" font-size="10.00">algorithm</text>
</a>
</g>
</g>
<!-- Node1&#45;&gt;Node22 -->
<g id="edge48_Node000001_Node000022" class="edge">
<title>Node1&#45;&gt;Node22</title>
<g id="a_edge48_Node000001_Node000022"><a xlink:title=" ">
<path fill="none" stroke="#63b8ff" d="M609.72,-604.98C653.63,-595.33 724.99,-579.64 770.15,-569.7"/>
<polygon fill="#63b8ff" stroke="#63b8ff" points="770.91,-573.12 779.93,-567.55 769.41,-566.28 770.91,-573.12"/>
</a>
</g>
</g>
<!-- Node3 -->
<g id="Node000003" class="node">
<title>Node3</title>
<g id="a_Node000003"><a xlink:href="CCSDSResult_8h.html" target="_top" xlink:title=" ">
<polygon fill="white" stroke="#666666" points="613.5,-74 524.5,-74 524.5,-55 613.5,-55 613.5,-74"/>
<text text-anchor="middle" x="569" y="-62" font-family="Helvetica,sans-Serif" font-size="10.00">CCSDSResult.h</text>
</a>
</g>
</g>
<!-- Node2&#45;&gt;Node3 -->
<g id="edge2_Node000002_Node000003" class="edge">
<title>Node2&#45;&gt;Node3</title>
<g id="a_edge2_Node000002_Node000003"><a xlink:title=" ">
<path fill="none" stroke="#63b8ff" d="M650,-384.82C650,-366.48 650,-322.44 650,-285.5 650,-285.5 650,-285.5 650,-228.5 650,-169.51 606.92,-109.87 583.6,-81.9"/>
<polygon fill="#63b8ff" stroke="#63b8ff" points="586.23,-79.59 577.06,-74.28 580.91,-84.15 586.23,-79.59"/>
</a>
</g>
</g>
<!-- Node5 -->
<g id="Node000005" class="node">
<title>Node5</title>
<g id="a_Node000005"><a xlink:title=" ">
<polygon fill="#e0e0e0" stroke="#999999" points="780.5,-19 733.5,-19 733.5,0 780.5,0 780.5,-19"/>
<text text-anchor="middle" x="757" y="-7" font-family="Helvetica,sans-Serif" font-size="10.00">vector</text>
</a>
</g>
</g>
<!-- Node2&#45;&gt;Node5 -->
<g id="edge7_Node000002_Node000005" class="edge">
<title>Node2&#45;&gt;Node5</title>
<g id="a_edge7_Node000002_Node000005"><a xlink:title=" ">
<path fill="none" stroke="#63b8ff" d="M659.89,-384.79C668.97,-376.37 682.29,-362.88 691,-349 746.9,-259.94 746.49,-229.31 778,-129 788.01,-97.14 801.7,-86.63 791,-55 787.44,-44.47 780.28,-34.48 773.45,-26.63"/>
<polygon fill="#63b8ff" stroke="#63b8ff" points="775.99,-24.23 766.61,-19.31 770.87,-29.01 775.99,-24.23"/>
</a>
</g>
</g>
<!-- Node8 -->
<g id="Node000008" class="node">
<title>Node8</title>
<g id="a_Node000008"><a xlink:href="CCSDSHeader_8h.html" target="_top" xlink:title=" ">
<polygon fill="white" stroke="#666666" points="728.5,-129 635.5,-129 635.5,-110 728.5,-110 728.5,-129"/>
<text text-anchor="middle" x="682" y="-117" font-family="Helvetica,sans-Serif" font-size="10.00">CCSDSHeader.h</text>
</a>
</g>
</g>
<!-- Node2&#45;&gt;Node8 -->
<g id="edge8_Node000002_Node000008" class="edge">
<title>Node2&#45;&gt;Node8</title>
<g id="a_edge8_Node000002_Node000008"><a xlink:title=" ">
<path fill="none" stroke="#63b8ff" d="M655.28,-384.9C665.73,-367.07 688,-324.46 688,-285.5 688,-285.5 688,-285.5 688,-228.5 688,-197.14 685.45,-160.74 683.67,-139.22"/>
<polygon fill="#63b8ff" stroke="#63b8ff" points="687.15,-138.83 682.81,-129.17 680.18,-139.43 687.15,-138.83"/>
</a>
</g>
</g>
<!-- Node2&#45;&gt;Node9 -->
<g id="edge12_Node000002_Node000009" class="edge">
<title>Node2&#45;&gt;Node9</title>
<g id="a_edge12_Node000002_Node000009"><a xlink:title=" ">
<path fill="none" stroke="#63b8ff" d="M622.04,-384.98C592.7,-376.05 546.4,-361.94 513.81,-352.02"/>
<polygon fill="#63b8ff" stroke="#63b8ff" points="514.76,-348.65 504.18,-349.08 512.72,-355.34 514.76,-348.65"/>
</a>
</g>
</g>
<!-- Node4 -->
<g id="Node000004" class="node">
<title>Node4</title>
<g id="a_Node000004"><a xlink:title=" ">
<polygon fill="#e0e0e0" stroke="#999999" points="583.5,-19 532.5,-19 532.5,0 583.5,0 583.5,-19"/>
<text text-anchor="middle" x="558" y="-7" font-family="Helvetica,sans-Serif" font-size="10.00">variant</text>
</a>
</g>
</g>
<!-- Node3&#45;&gt;Node4 -->
<g id="edge3_Node000003_Node000004" class="edge">
<title>Node3&#45;&gt;Node4</title>
<g id="a_edge3_Node000003_Node000004"><a xlink:title=" ">
<path fill="none" stroke="#63b8ff" d="M567.18,-54.75C565.74,-47.8 563.68,-37.85 561.87,-29.13"/>
<polygon fill="#63b8ff" stroke="#63b8ff" points="565.24,-28.17 559.78,-19.09 558.39,-29.59 565.24,-28.17"/>
</a>
</g>
</g>
<!-- Node3&#45;&gt;Node5 -->
<g id="edge4_Node000003_Node000005" class="edge">
<title>Node3&#45;&gt;Node5</title>
<g id="a_edge4_Node000003_Node000005"><a xlink:title=" ">
<path fill="none" stroke="#63b8ff" d="M599.21,-54.98C633.21,-45.4 688.32,-29.86 723.59,-19.92"/>
<polygon fill="#63b8ff" stroke="#63b8ff" points="724.74,-23.23 733.42,-17.15 722.84,-16.49 724.74,-23.23"/>
</a>
</g>
</g>
<!-- Node6 -->
<g id="Node000006" class="node">
<title>Node6</title>
<g id="a_Node000006"><a xlink:title=" ">
<polygon fill="#e0e0e0" stroke="#999999" points="492,-19 442,-19 442,0 492,0 492,-19"/>
<text text-anchor="middle" x="467" y="-7" font-family="Helvetica,sans-Serif" font-size="10.00">cstdint</text>
</a>
</g>
</g>
<!-- Node3&#45;&gt;Node6 -->
<g id="edge5_Node000003_Node000006" class="edge">
<title>Node3&#45;&gt;Node6</title>
<g id="a_edge5_Node000003_Node000006"><a xlink:title=" ">
<path fill="none" stroke="#63b8ff" d="M552.61,-54.98C536.43,-46.57 511.43,-33.59 492.62,-23.81"/>
<polygon fill="#63b8ff" stroke="#63b8ff" points="494.17,-20.68 483.69,-19.17 490.95,-26.89 494.17,-20.68"/>
</a>
</g>
</g>
<!-- Node7 -->
<g id="Node000007" class="node">
<title>Node7</title>
<g id="a_Node000007"><a xlink:title=" ">
<polygon fill="#e0e0e0" stroke="#999999" points="662,-19 602,-19 602,0 662,0 662,-19"/>
<text text-anchor="middle" x="632" y="-7" font-family="Helvetica,sans-Serif" font-size="10.00">iostream</text>
</a>
</g>
</g>
<!-- Node3&#45;&gt;Node7 -->
<g id="edge6_Node000003_Node000007" class="edge">
<title>Node3&#45;&gt;Node7</title>
<g id="a_edge6_Node000003_Node000007"><a xlink:title=" ">
<path fill="none" stroke="#63b8ff" d="M579.12,-54.98C588.44,-47.15 602.47,-35.34 613.74,-25.86"/>
<polygon fill="#63b8ff" stroke="#63b8ff" points="616.29,-28.29 621.69,-19.17 611.79,-22.93 616.29,-28.29"/>
</a>
</g>
</g>
<!-- Node8&#45;&gt;Node3 -->
<g id="edge9_Node000008_Node000003" class="edge">
<title>Node8&#45;&gt;Node3</title>
<g id="a_edge9_Node000008_Node000003"><a xlink:title=" ">
<path fill="none" stroke="#63b8ff" d="M663.84,-109.98C645.75,-101.5 617.72,-88.35 596.81,-78.54"/>
<polygon fill="#63b8ff" stroke="#63b8ff" points="598.03,-75.25 587.49,-74.17 595.05,-81.59 598.03,-75.25"/>
</a>
</g>
</g>
<!-- Node8&#45;&gt;Node5 -->
<g id="edge11_Node000008_Node000005" class="edge">
<title>Node8&#45;&gt;Node5</title>
<g id="a_edge11_Node000008_Node000005"><a xlink:title=" ">
<path fill="none" stroke="#63b8ff" d="M688.14,-109.66C700.62,-91.69 729.12,-50.64 745.28,-27.38"/>
<polygon fill="#63b8ff" stroke="#63b8ff" points="748.16,-29.37 750.99,-19.16 742.41,-25.38 748.16,-29.37"/>
</a>
</g>
</g>
<!-- Node8&#45;&gt;Node6 -->
<g id="edge10_Node000008_Node000006" class="edge">
<title>Node8&#45;&gt;Node6</title>
<g id="a_edge10_Node000008_Node000006"><a xlink:title=" ">
<path fill="none" stroke="#63b8ff" d="M676.09,-109.7C666.41,-95.96 645.84,-69.51 622,-55 584.66,-32.28 535.23,-20.72 502.33,-15.16"/>
<polygon fill="#63b8ff" stroke="#63b8ff" points="502.69,-11.68 492.27,-13.56 501.59,-18.59 502.69,-11.68"/>
</a>
</g>
</g>
<!-- Node9&#45;&gt;Node3 -->
<g id="edge13_Node000009_Node000003" class="edge">
<title>Node9&#45;&gt;Node3</title>
<g id="a_edge13_Node000009_Node000003"><a xlink:title=" ">
<path fill="none" stroke="#63b8ff" d="M479.91,-329.91C492.6,-301.73 533.08,-209.25 555,-129 559.1,-114.01 562.83,-96.78 565.42,-84.05"/>
<polygon fill="#63b8ff" stroke="#63b8ff" points="568.86,-84.68 567.37,-74.19 561.99,-83.32 568.86,-84.68"/>
</a>
</g>
</g>
<!-- Node9&#45;&gt;Node5 -->
<g id="edge14_Node000009_Node000005" class="edge">
<title>Node9&#45;&gt;Node5</title>
<g id="a_edge14_Node000009_Node000005"><a xlink:title=" ">
<path fill="none" stroke="#63b8ff" d="M494.66,-329.91C545.03,-305.78 684.9,-232.31 758,-129 777.49,-101.45 781.45,-88.12 775,-55 773.21,-45.8 769.52,-36.09 765.94,-28.1"/>
<polygon fill="#63b8ff" stroke="#63b8ff" points="769.09,-26.57 761.62,-19.06 762.77,-29.59 769.09,-26.57"/>
</a>
</g>
</g>
<!-- Node10 -->
<g id="Node000010" class="node">
<title>Node10</title>
<g id="a_Node000010"><a xlink:title=" ">
<polygon fill="#e0e0e0" stroke="#999999" points="268,-184 210,-184 210,-165 268,-165 268,-184"/>
<text text-anchor="middle" x="239" y="-172" font-family="Helvetica,sans-Serif" font-size="10.00">memory</text>
</a>
</g>
</g>
<!-- Node9&#45;&gt;Node10 -->
<g id="edge15_Node000009_Node000010" class="edge">
<title>Node9&#45;&gt;Node10</title>
<g id="a_edge15_Node000009_Node000010"><a xlink:title=" ">
<path fill="none" stroke="#63b8ff" d="M440.24,-329.95C417,-323.09 387.06,-311.63 365,-294 333.8,-269.06 343.19,-247.27 314,-220 300.39,-207.28 282.53,-196.51 267.66,-188.75"/>
<polygon fill="#63b8ff" stroke="#63b8ff" points="268.9,-185.46 258.39,-184.1 265.76,-191.71 268.9,-185.46"/>
</a>
</g>
</g>
<!-- Node11 -->
<g id="Node000011" class="node">
<title>Node11</title>
<g id="a_Node000011"><a xlink:href="CCSDSSecondaryHeaderAbstract_8h.html" target="_top" xlink:title=" ">
<polygon fill="white" stroke="#666666" points="508.5,-184 323.5,-184 323.5,-165 508.5,-165 508.5,-184"/>
<text text-anchor="middle" x="416" y="-172" font-family="Helvetica,sans-Serif" font-size="10.00">CCSDSSecondaryHeaderAbstract.h</text>
</a>
</g>
</g>
<!-- Node9&#45;&gt;Node11 -->
<g id="edge16_Node000009_Node000011" class="edge">
<title>Node9&#45;&gt;Node11</title>
<g id="a_edge16_Node000009_Node000011"><a xlink:title=" ">
<path fill="none" stroke="#63b8ff" d="M475.67,-329.67C475,-317.21 472.99,-293.89 467,-275 457.31,-244.45 438.9,-211.92 427.06,-192.67"/>
<polygon fill="#63b8ff" stroke="#63b8ff" points="429.97,-190.73 421.69,-184.12 424.04,-194.45 429.97,-190.73"/>
</a>
</g>
</g>
<!-- Node15 -->
<g id="Node000015" class="node">
<title>Node15</title>
<g id="a_Node000015"><a xlink:href="CCSDSSecondaryHeaderFactory_8h.html" target="_top" xlink:title=" ">
<polygon fill="white" stroke="#666666" points="305.5,-239 126.5,-239 126.5,-220 305.5,-220 305.5,-239"/>
<text text-anchor="middle" x="216" y="-227" font-family="Helvetica,sans-Serif" font-size="10.00">CCSDSSecondaryHeaderFactory.h</text>
</a>
</g>
</g>
<!-- Node9&#45;&gt;Node15 -->
<g id="edge26_Node000009_Node000015" class="edge">
<title>Node9&#45;&gt;Node15</title>
<g id="a_edge26_Node000009_Node000015"><a xlink:title=" ">
<path fill="none" stroke="#63b8ff" d="M434.87,-329.98C402.79,-322.57 357.53,-310.45 320,-294 289.08,-280.45 256.3,-259.12 235.99,-244.98"/>
<polygon fill="#63b8ff" stroke="#63b8ff" points="237.78,-241.95 227.59,-239.04 233.74,-247.67 237.78,-241.95"/>
</a>
</g>
</g>
<!-- Node17 -->
<g id="Node000017" class="node">
<title>Node17</title>
<g id="a_Node000017"><a xlink:href="PusServices_8h.html" target="_top" xlink:title=" ">
<polygon fill="white" stroke="#666666" points="458,-294 374,-294 374,-275 458,-275 458,-294"/>
<text text-anchor="middle" x="416" y="-282" font-family="Helvetica,sans-Serif" font-size="10.00">PusServices.h</text>
</a>
</g>
</g>
<!-- Node9&#45;&gt;Node17 -->
<g id="edge32_Node000009_Node000017" class="edge">
<title>Node9&#45;&gt;Node17</title>
<g id="a_edge32_Node000009_Node000017"><a xlink:title=" ">
<path fill="none" stroke="#63b8ff" d="M466.36,-329.98C457.49,-322.15 444.13,-310.34 433.39,-300.86"/>
<polygon fill="#63b8ff" stroke="#63b8ff" points="435.63,-298.17 425.82,-294.17 430.99,-303.41 435.63,-298.17"/>
</a>
</g>
</g>
<!-- Node11&#45;&gt;Node3 -->
<g id="edge17_Node000011_Node000003" class="edge">
<title>Node11&#45;&gt;Node3</title>
<g id="a_edge17_Node000011_Node000003"><a xlink:title=" ">
<path fill="none" stroke="#63b8ff" d="M428.26,-164.84C454.45,-146.36 516.07,-102.86 548.39,-80.05"/>
<polygon fill="#63b8ff" stroke="#63b8ff" points="550.53,-82.82 556.68,-74.2 546.49,-77.1 550.53,-82.82"/>
</a>
</g>
</g>
<!-- Node11&#45;&gt;Node5 -->
<g id="edge18_Node000011_Node000005" class="edge">
<title>Node11&#45;&gt;Node5</title>
<g id="a_edge18_Node000011_Node000005"><a xlink:title=" ">
<path fill="none" stroke="#63b8ff" d="M508.68,-166.22C597.6,-158.35 720.73,-144.8 737,-129 763.73,-103.05 762.9,-55.64 759.95,-29.34"/>
<polygon fill="#63b8ff" stroke="#63b8ff" points="763.39,-28.63 758.59,-19.19 756.45,-29.56 763.39,-28.63"/>
</a>
</g>
</g>
<!-- Node11&#45;&gt;Node6 -->
<g id="edge19_Node000011_Node000006" class="edge">
<title>Node11&#45;&gt;Node6</title>
<g id="a_edge19_Node000011_Node000006"><a xlink:title=" ">
<path fill="none" stroke="#63b8ff" d="M418.74,-164.74C426.73,-139.2 450.13,-64.43 461.14,-29.23"/>
<polygon fill="#63b8ff" stroke="#63b8ff" points="464.6,-29.9 464.24,-19.31 457.92,-27.81 464.6,-29.9"/>
</a>
</g>
</g>
<!-- Node11&#45;&gt;Node12 -->
<g id="edge20_Node000011_Node000012" class="edge">
<title>Node11&#45;&gt;Node12</title>
<g id="a_edge20_Node000011_Node000012"><a xlink:title=" ">
<path fill="none" stroke="#63b8ff" d="M403.79,-164.98C392.22,-156.92 374.62,-144.65 360.84,-135.03"/>
<polygon fill="#63b8ff" stroke="#63b8ff" points="362.64,-132.02 352.43,-129.17 358.63,-137.76 362.64,-132.02"/>
</a>
</g>
</g>
<!-- Node12&#45;&gt;Node3 -->
<g id="edge24_Node000012_Node000003" class="edge">
<title>Node12&#45;&gt;Node3</title>
<g id="a_edge24_Node000012_Node000003"><a xlink:title=" ">
<path fill="none" stroke="#63b8ff" d="M376.79,-109.98C416.24,-100.86 478.98,-86.33 521.98,-76.38"/>
<polygon fill="#63b8ff" stroke="#63b8ff" points="522.97,-79.75 531.92,-74.08 521.39,-72.93 522.97,-79.75"/>
</a>
</g>
</g>
<!-- Node12&#45;&gt;Node5 -->
<g id="edge23_Node000012_Node000005" class="edge">
<title>Node12&#45;&gt;Node5</title>
<g id="a_edge23_Node000012_Node000005"><a xlink:title=" ">
<path fill="none" stroke="#63b8ff" d="M360.12,-109.95C392.31,-96.56 457.61,-70.57 515,-55 588.21,-35.14 676.29,-21.42 723.39,-14.88"/>
<polygon fill="#63b8ff" stroke="#63b8ff" points="723.91,-18.34 733.35,-13.52 722.97,-11.4 723.91,-18.34"/>
</a>
</g>
</g>
<!-- Node12&#45;&gt;Node6 -->
<g id="edge22_Node000012_Node000006" class="edge">
<title>Node12&#45;&gt;Node6</title>
<g id="a_edge22_Node000012_Node000006"><a xlink:title=" ">
<path fill="none" stroke="#63b8ff" d="M347.53,-109.75C358.74,-96.99 380.77,-72.84 402,-55 415.23,-43.88 431.23,-32.9 444.05,-24.63"/>
<polygon fill="#63b8ff" stroke="#63b8ff" points="446.16,-27.43 452.73,-19.12 442.41,-21.52 446.16,-27.43"/>
</a>
</g>
</g>
<!-- Node13 -->
<g id="Node000013" class="node">
<title>Node13</title>
<g id="a_Node000013"><a xlink:title=" ">
<polygon fill="#e0e0e0" stroke="#999999" points="44,-74 0,-74 0,-55 44,-55 44,-74"/>
<text text-anchor="middle" x="22" y="-62" font-family="Helvetica,sans-Serif" font-size="10.00">string</text>
</a>
</g>
</g>
<!-- Node12&#45;&gt;Node13 -->
<g id="edge21_Node000012_Node000013" class="edge">
<title>Node12&#45;&gt;Node13</title>
<g id="a_edge21_Node000012_Node000013"><a xlink:title=" ">
<path fill="none" stroke="#63b8ff" d="M295.45,-111.07C230.44,-100.24 111.12,-80.35 54.05,-70.84"/>
<polygon fill="#63b8ff" stroke="#63b8ff" points="54.59,-67.38 44.15,-69.19 53.44,-74.29 54.59,-67.38"/>
</a>
</g>
</g>
<!-- Node14 -->
<g id="Node000014" class="node">
<title>Node14</title>
<g id="a_Node000014"><a xlink:title=" ">
<polygon fill="#e0e0e0" stroke="#999999" points="348.5,-74 255.5,-74 255.5,-55 348.5,-55 348.5,-74"/>
<text text-anchor="middle" x="302" y="-62" font-family="Helvetica,sans-Serif" font-size="10.00">unordered_map</text>
</a>
</g>
</g>
<!-- Node12&#45;&gt;Node14 -->
<g id="edge25_Node000012_Node000014" class="edge">
<title>Node12&#45;&gt;Node14</title>
<g id="a_edge25_Node000012_Node000014"><a xlink:title=" ">
<path fill="none" stroke="#63b8ff" d="M333.73,-109.75C328.41,-102.34 320.64,-91.5 314.12,-82.41"/>
<polygon fill="#63b8ff" stroke="#63b8ff" points="316.83,-80.18 308.16,-74.09 311.14,-84.26 316.83,-80.18"/>
</a>
</g>
</g>
<!-- Node15&#45;&gt;Node10 -->
<g id="edge27_Node000015_Node000010" class="edge">
<title>Node15&#45;&gt;Node10</title>
<g id="a_edge27_Node000015_Node000010"><a xlink:title=" ">
<path fill="none" stroke="#63b8ff" d="M219.8,-219.75C222.91,-212.57 227.42,-202.18 231.29,-193.27"/>
<polygon fill="#63b8ff" stroke="#63b8ff" points="234.5,-194.66 235.27,-184.09 228.08,-191.87 234.5,-194.66"/>
</a>
</g>
</g>
<!-- Node15&#45;&gt;Node11 -->
<g id="edge31_Node000015_Node000011" class="edge">
<title>Node15&#45;&gt;Node11</title>
<g id="a_edge31_Node000015_Node000011"><a xlink:title=" ">
<path fill="none" stroke="#63b8ff" d="M248.13,-219.98C282.15,-210.97 336,-196.7 373.5,-186.76"/>
<polygon fill="#63b8ff" stroke="#63b8ff" points="374.84,-190.03 383.61,-184.08 373.05,-183.26 374.84,-190.03"/>
</a>
</g>
</g>
<!-- Node15&#45;&gt;Node13 -->
<g id="edge30_Node000015_Node000013" class="edge">
<title>Node15&#45;&gt;Node13</title>
<g id="a_edge30_Node000015_Node000013"><a xlink:title=" ">
<path fill="none" stroke="#63b8ff" d="M183.98,-219.99C161.63,-212.93 131.99,-201.24 110,-184 73.68,-155.53 44.91,-108.47 31.04,-83.07"/>
<polygon fill="#63b8ff" stroke="#63b8ff" points="34.11,-81.38 26.32,-74.19 27.93,-84.66 34.11,-81.38"/>
</a>
</g>
</g>
<!-- Node15&#45;&gt;Node14 -->
<g id="edge28_Node000015_Node000014" class="edge">
<title>Node15&#45;&gt;Node14</title>
<g id="a_edge28_Node000015_Node000014"><a xlink:title=" ">
<path fill="none" stroke="#63b8ff" d="M176.63,-219.97C142.3,-210.5 100.4,-192.78 117,-165 146.22,-116.11 208.65,-89.84 252.89,-76.78"/>
<polygon fill="#63b8ff" stroke="#63b8ff" points="253.92,-80.13 262.59,-74.05 252.01,-73.39 253.92,-80.13"/>
</a>
</g>
</g>
<!-- Node16 -->
<g id="Node000016" class="node">
<title>Node16</title>
<g id="a_Node000016"><a xlink:title=" ">
<polygon fill="#e0e0e0" stroke="#999999" points="191.5,-184 126.5,-184 126.5,-165 191.5,-165 191.5,-184"/>
<text text-anchor="middle" x="159" y="-172" font-family="Helvetica,sans-Serif" font-size="10.00">functional</text>
</a>
</g>
</g>
<!-- Node15&#45;&gt;Node16 -->
<g id="edge29_Node000015_Node000016" class="edge">
<title>Node15&#45;&gt;Node16</title>
<g id="a_edge29_Node000015_Node000016"><a xlink:title=" ">
<path fill="none" stroke="#63b8ff" d="M206.84,-219.98C198.5,-212.23 185.97,-200.58 175.82,-191.14"/>
<polygon fill="#63b8ff" stroke="#63b8ff" points="178.03,-188.42 168.32,-184.17 173.26,-193.54 178.03,-188.42"/>
</a>
</g>
</g>
<!-- Node17&#45;&gt;Node3 -->
<g id="edge35_Node000017_Node000003" class="edge">
<title>Node17&#45;&gt;Node3</title>
<g id="a_edge35_Node000017_Node000003"><a xlink:title=" ">
<path fill="none" stroke="#63b8ff" d="M427.39,-274.75C447.69,-258.67 490.47,-222.51 517,-184 539.33,-151.59 555.45,-108.05 563.4,-83.79"/>
<polygon fill="#63b8ff" stroke="#63b8ff" points="566.78,-84.69 566.47,-74.1 560.11,-82.58 566.78,-84.69"/>
</a>
</g>
</g>
<!-- Node17&#45;&gt;Node11 -->
<g id="edge33_Node000017_Node000011" class="edge">
<title>Node17&#45;&gt;Node11</title>
<g id="a_edge33_Node000017_Node000011"><a xlink:title=" ">
<path fill="none" stroke="#63b8ff" d="M416,-274.66C416,-257.17 416,-217.8 416,-194.27"/>
<polygon fill="#63b8ff" stroke="#63b8ff" points="419.5,-194.16 416,-184.16 412.5,-194.16 419.5,-194.16"/>
</a>
</g>
</g>
<!-- Node17&#45;&gt;Node12 -->
<g id="edge36_Node000017_Node000012" class="edge">
<title>Node17&#45;&gt;Node12</title>
<g id="a_edge36_Node000017_Node000012"><a xlink:title=" ">
<path fill="none" stroke="#63b8ff" d="M406.85,-274.94C382.27,-251.91 316.5,-189.93 314,-184 307.31,-168.12 316.48,-149.92 325.72,-137.08"/>
<polygon fill="#63b8ff" stroke="#63b8ff" points="328.52,-139.18 331.94,-129.15 323.01,-134.86 328.52,-139.18"/>
</a>
</g>
</g>
<!-- Node17&#45;&gt;Node15 -->
<g id="edge34_Node000017_Node000015" class="edge">
<title>Node17&#45;&gt;Node15</title>
<g id="a_edge34_Node000017_Node000015"><a xlink:title=" ">
<path fill="none" stroke="#63b8ff" d="M383.87,-274.98C349.85,-265.97 296,-251.7 258.5,-241.76"/>
<polygon fill="#63b8ff" stroke="#63b8ff" points="258.95,-238.26 248.39,-239.08 257.16,-245.03 258.95,-238.26"/>
</a>
</g>
</g>
<!-- Node18&#45;&gt;Node2 -->
<g id="edge39_Node000018_Node000002" class="edge">
<title>Node18&#45;&gt;Node2</title>
<g id="a_edge39_Node000018_Node000002"><a xlink:title=" ">
<path fill="none" stroke="#63b8ff" d="M560.45,-549.93C536.77,-529.65 483.54,-477.63 511,-440 530.12,-413.8 564.89,-402.67 594.86,-398.1"/>
<polygon fill="#63b8ff" stroke="#63b8ff" points="595.36,-401.56 604.81,-396.79 594.44,-394.62 595.36,-401.56"/>
</a>
</g>
</g>
<!-- Node18&#45;&gt;Node5 -->
<g id="edge47_Node000018_Node000005" class="edge">
<title>Node18&#45;&gt;Node5</title>
<g id="a_edge47_Node000018_Node000005"><a xlink:title=" ">
<path fill="none" stroke="#63b8ff" d="M611.77,-554.18C701.67,-543.53 909,-512.26 909,-450.5 909,-450.5 909,-450.5 909,-118.5 909,-60.84 835.41,-31.13 790.64,-18.39"/>
<polygon fill="#63b8ff" stroke="#63b8ff" points="791.32,-14.95 780.75,-15.72 789.49,-21.71 791.32,-14.95"/>
</a>
</g>
</g>
<!-- Node18&#45;&gt;Node13 -->
<g id="edge46_Node000018_Node000013" class="edge">
<title>Node18&#45;&gt;Node13</title>
<g id="a_edge46_Node000018_Node000013"><a xlink:title=" ">
<path fill="none" stroke="#63b8ff" d="M554.51,-549.89C491.8,-516.55 264.2,-390.28 117,-239 76.08,-196.95 70.03,-181.58 44,-129 36.8,-114.46 30.93,-96.98 27.07,-84.04"/>
<polygon fill="#63b8ff" stroke="#63b8ff" points="30.43,-83.06 24.32,-74.41 23.7,-84.99 30.43,-83.06"/>
</a>
</g>
</g>
<!-- Node19 -->
<g id="Node000019" class="node">
<title>Node19</title>
<g id="a_Node000019"><a xlink:href="CCSDSManager_8h.html" target="_top" xlink:title=" ">
<polygon fill="white" stroke="#666666" points="700.5,-514 599.5,-514 599.5,-495 700.5,-495 700.5,-514"/>
<text text-anchor="middle" x="650" y="-502" font-family="Helvetica,sans-Serif" font-size="10.00">CCSDSManager.h</text>
</a>
</g>
</g>
<!-- Node18&#45;&gt;Node19 -->
<g id="edge40_Node000018_Node000019" class="edge">
<title>Node18&#45;&gt;Node19</title>
<g id="a_edge40_Node000018_Node000019"><a xlink:title=" ">
<path fill="none" stroke="#63b8ff" d="M583.69,-549.98C595.83,-541.84 614.36,-529.41 628.75,-519.76"/>
<polygon fill="#63b8ff" stroke="#63b8ff" points="630.72,-522.65 637.08,-514.17 626.82,-516.84 630.72,-522.65"/>
</a>
</g>
</g>
<!-- Node19&#45;&gt;Node2 -->
<g id="edge42_Node000019_Node000002" class="edge">
<title>Node19&#45;&gt;Node2</title>
<g id="a_edge42_Node000019_Node000002"><a xlink:title=" ">
<path fill="none" stroke="#63b8ff" d="M650,-494.66C650,-477.17 650,-437.8 650,-414.27"/>
<polygon fill="#63b8ff" stroke="#63b8ff" points="653.5,-414.16 650,-404.16 646.5,-414.16 653.5,-414.16"/>
</a>
</g>
</g>
<!-- Node19&#45;&gt;Node3 -->
<g id="edge43_Node000019_Node000003" class="edge">
<title>Node19&#45;&gt;Node3</title>
<g id="a_edge43_Node000019_Node000003"><a xlink:title=" ">
<path fill="none" stroke="#63b8ff" d="M682.54,-494.98C725.29,-481.59 795,-451.22 795,-395.5 795,-395.5 795,-395.5 795,-173.5 795,-97.81 690.52,-75.12 623.63,-68.35"/>
<polygon fill="#63b8ff" stroke="#63b8ff" points="623.93,-64.86 613.65,-67.42 623.29,-71.83 623.93,-64.86"/>
</a>
</g>
</g>
<!-- Node20 -->
<g id="Node000020" class="node">
<title>Node20</title>
<g id="a_Node000020"><a xlink:title=" ">
<polygon fill="#e0e0e0" stroke="#999999" points="723.5,-459 678.5,-459 678.5,-440 723.5,-440 723.5,-459"/>
<text text-anchor="middle" x="701" y="-447" font-family="Helvetica,sans-Serif" font-size="10.00">utility</text>
</a>
</g>
</g>
<!-- Node19&#45;&gt;Node20 -->
<g id="edge41_Node000019_Node000020" class="edge">
<title>Node19&#45;&gt;Node20</title>
<g id="a_edge41_Node000019_Node000020"><a xlink:title=" ">
<path fill="none" stroke="#63b8ff" d="M658.42,-494.75C665.77,-487.11 676.63,-475.82 685.54,-466.56"/>
<polygon fill="#63b8ff" stroke="#63b8ff" points="688.32,-468.72 692.74,-459.09 683.28,-463.87 688.32,-468.72"/>
</a>
</g>
</g>
<!-- Node21 -->
<g id="Node000021" class="node">
<title>Node21</title>
<g id="a_Node000021"><a xlink:href="CCSDSValidator_8h.html" target="_top" xlink:title="Defines the Validator class for CCSDS packet validation.">
<polygon fill="white" stroke="#666666" points="621.5,-459 520.5,-459 520.5,-440 621.5,-440 621.5,-459"/>
<text text-anchor="middle" x="571" y="-447" font-family="Helvetica,sans-Serif" font-size="10.00">CCSDSValidator.h</text>
</a>
</g>
</g>
<!-- Node19&#45;&gt;Node21 -->
<g id="edge44_Node000019_Node000021" class="edge">
<title>Node19&#45;&gt;Node21</title>
<g id="a_edge44_Node000019_Node000021"><a xlink:title=" ">
<path fill="none" stroke="#63b8ff" d="M637.31,-494.98C625.17,-486.84 606.64,-474.41 592.25,-464.76"/>
<polygon fill="#63b8ff" stroke="#63b8ff" points="594.18,-461.84 583.92,-459.17 590.28,-467.65 594.18,-461.84"/>
</a>
</g>
</g>
<!-- Node21&#45;&gt;Node2 -->
<g id="edge45_Node000021_Node000002" class="edge">
<title>Node21&#45;&gt;Node2</title>
<g id="a_edge45_Node000021_Node000002"><a xlink:title=" ">
<path fill="none" stroke="#63b8ff" d="M583.69,-439.98C595.83,-431.84 614.36,-419.41 628.75,-409.76"/>
<polygon fill="#63b8ff" stroke="#63b8ff" points="630.72,-412.65 637.08,-404.17 626.82,-406.84 630.72,-412.65"/>
</a>
</g>
</g>
</g>
</svg>

<g id="navigator" transform="translate(0 0)" fill="#404254">
  <rect fill="#f2f5e9" fill-opacity="0.5" stroke="#606060" stroke-width=".5" x="0" y="0" width="60" height="60"/>
  <use id="zoomplus" xlink:href="#zoomPlus" x="17" y="9" onmousedown="handleZoom(evt,'in')"/>
  <use id="zoomminus" xlink:href="#zoomMin" x="42" y="9" onmousedown="handleZoom(evt,'out')"/>
  <use id="reset" xlink:href="#resetDef" x="30" y="36" onmousedown="handleReset()"/>
   <use id="arrowup" xlink:href="#arrowUp" x="0" y="0" onmousedown="handlePan(0,-1)"/>
  <use id="arrowright" xlink:href="#arrowRight" x="0" y="0" onmousedown="handlePan(1,0)"/>
  <use id="arrowdown" xlink:href="#arrowDown" x="0" y="0" onmousedown="handlePan(0,1)"/>
  <use id="arrowleft" xlink:href="#arrowLeft" x="0" y="0" onmousedown="handlePan(-1,0)"/>
</g>
<svg viewBox="0 0 15 15" width="100%" height="30px" preserveAspectRatio="xMaxYMin meet">
 <g id="arrow_out" transform="scale(0.3 0.3)">
  <a xlink:href="CCSDSPacket_8cpp__incl_org.svg" target="_base">
   <rect id="button" ry="5" rx="5" y="6" x="6" height="38" width="38"
        fill="#f2f5e9" fill-opacity="0.5" stroke="#606060" stroke-width="1.0"/>
   <path id="arrow"
     d="M 11.500037,31.436501 C 11.940474,20.09759 22.043105,11.32322 32.158766,21.979434 L 37.068811,17.246167 C 37.068811,17.246167 37.088388,32 37.088388,32 L 22.160133,31.978069 C 22.160133,31.978069 26.997745,27.140456 26.997745,27.140456 C 18.528582,18.264221 13.291696,25.230495 11.500037,31.436501 z"
     style="fill:#404040;"/>
  </a>
 </g>
</svg>

<style type='text/css'>
<![CDATA[
[data-mouse-over-selected='false'] { opacity: 0.7; }
[data-mouse-over-selected='true']  { opacity: 1.0; }
]]>
</style>
<script type="application/ecmascript"><![CDATA[
document.addEventListener('DOMContentLoaded', (event) => {
  highlightEdges();
  highlightAdjacentNodes();
});
]]></script>
</svg>
