<?xml version="1.0" encoding="UTF-8" standalone="no"?>
<!DOCTYPE svg PUBLIC "-//W3C//DTD SVG 1.1//EN"
 "http://www.w3.org/Graphics/SVG/1.1/DTD/svg11.dtd">
<!-- Generated by graphviz version 2.43.0 (0)
 -->
<!-- Title: inc/CCSDSPack.h Pages: 1 -->
<svg width="934pt" height="632pt"
 viewBox="0.00 0.00 933.50 632.00" xmlns="http://www.w3.org/2000/svg" xmlns:xlink="http://www.w3.org/1999/xlink">
<g id="graph0" class="graph" transform="scale(1 1) rotate(0) translate(4 628)">
<title>inc/CCSDSPack.h</title>
<!-- Node1 -->
<g id="Node000001" class="node">
<title>Node1</title>
<g id="a_Node000001"><a xlink:title=" ">
<polygon fill="#999999" stroke="#666666" points="442,-624 344,-624 344,-605 442,-605 442,-624"/>
<text text-anchor="middle" x="393" y="-612" font-family="Helvetica,sans-Serif" font-size="10.00">inc/CCSDSPack.h</text>
</a>
</g>
</g>
<!-- Node2 -->
<g id="Node000002" class="node">
<title>Node2</title>
<g id="a_Node000002"><a xlink:href="CCSDSDataField_8h.html" target="_top" xlink:title=" ">
<polygon fill="white" stroke="#666666" points="498.5,-349 393.5,-349 393.5,-330 498.5,-330 498.5,-349"/>
<text text-anchor="middle" x="446" y="-337" font-family="Helvetica,sans-Serif" font-size="10.00">CCSDSDataField.h</text>
</a>
</g>
</g>
<!-- Node1&#45;&gt;Node2 -->
<g id="edge1_Node000001_Node000002" class="edge">
<title>Node1&#45;&gt;Node2</title>
<g id="a_edge1_Node000001_Node000002"><a xlink:title=" ">
<path fill="none" stroke="#63b8ff" d="M409.29,-604.92C436.67,-589.18 489,-552.91 489,-505.5 489,-505.5 489,-505.5 489,-448.5 489,-414.53 470.41,-378.53 457.67,-357.87"/>
<polygon fill="#63b8ff" stroke="#63b8ff" points="460.5,-355.8 452.16,-349.27 454.61,-359.58 460.5,-355.8"/>
</a>
</g>
</g>
<!-- Node3 -->
<g id="Node000003" class="node">
<title>Node3</title>
<g id="a_Node000003"><a xlink:href="CCSDSResult_8h.html" target="_top" xlink:title=" ">
<polygon fill="white" stroke="#666666" points="463.5,-74 374.5,-74 374.5,-55 463.5,-55 463.5,-74"/>
<text text-anchor="middle" x="419" y="-62" font-family="Helvetica,sans-Serif" font-size="10.00">CCSDSResult.h</text>
</a>
</g>
</g>
<!-- Node1&#45;&gt;Node3 -->
<g id="edge45_Node000001_Node000003" class="edge">
<title>Node1&#45;&gt;Node3</title>
<g id="a_edge45_Node000001_Node000003"><a xlink:title=" ">
<path fill="none" stroke="#63b8ff" d="M393.36,-604.87C393.81,-592.66 394.49,-569.62 394,-550 391.78,-460.58 386.22,-438.42 384,-349 381.35,-242.32 387.5,-214.92 407,-110 408.61,-101.35 411.05,-91.91 413.31,-83.97"/>
<polygon fill="#63b8ff" stroke="#63b8ff" points="416.7,-84.85 416.19,-74.27 409.99,-82.86 416.7,-84.85"/>
</a>
</g>
</g>
<!-- Node10 -->
<g id="Node000010" class="node">
<title>Node10</title>
<g id="a_Node000010"><a xlink:href="CCSDSSecondaryHeaderAbstract_8h.html" target="_top" xlink:title=" ">
<polygon fill="white" stroke="#666666" points="614.5,-184 429.5,-184 429.5,-165 614.5,-165 614.5,-184"/>
<text text-anchor="middle" x="522" y="-172" font-family="Helvetica,sans-Serif" font-size="10.00">CCSDSSecondaryHeaderAbstract.h</text>
</a>
</g>
</g>
<!-- Node1&#45;&gt;Node10 -->
<g id="edge46_Node000001_Node000010" class="edge">
<title>Node1&#45;&gt;Node10</title>
<g id="a_edge46_Node000001_Node000010"><a xlink:title=" ">
<path fill="none" stroke="#63b8ff" d="M439.45,-604.98C517.14,-589.4 665,-553.45 665,-505.5 665,-505.5 665,-505.5 665,-338.5 665,-267.95 588.37,-213.34 547.3,-189.14"/>
<polygon fill="#63b8ff" stroke="#63b8ff" points="548.82,-185.98 538.4,-184.05 545.34,-192.05 548.82,-185.98"/>
</a>
</g>
</g>
<!-- Node13 -->
<g id="Node000013" class="node">
<title>Node13</title>
<g id="a_Node000013"><a xlink:href="CCSDSSecondaryHeaderFactory_8h.html" target="_top" xlink:title=" ">
<polygon fill="white" stroke="#666666" points="883.5,-239 704.5,-239 704.5,-220 883.5,-220 883.5,-239"/>
<text text-anchor="middle" x="794" y="-227" font-family="Helvetica,sans-Serif" font-size="10.00">CCSDSSecondaryHeaderFactory.h</text>
</a>
</g>
</g>
<!-- Node1&#45;&gt;Node13 -->
<g id="edge47_Node000001_Node000013" class="edge">
<title>Node1&#45;&gt;Node13</title>
<g id="a_edge47_Node000001_Node000013"><a xlink:title=" ">
<path fill="none" stroke="#63b8ff" d="M442.01,-610.14C546.15,-601.67 780,-574.91 780,-505.5 780,-505.5 780,-505.5 780,-338.5 780,-306.93 785.96,-270.59 790.1,-249.14"/>
<polygon fill="#63b8ff" stroke="#63b8ff" points="793.57,-249.62 792.11,-239.13 786.71,-248.24 793.57,-249.62"/>
</a>
</g>
</g>
<!-- Node15 -->
<g id="Node000015" class="node">
<title>Node15</title>
<g id="a_Node000015"><a xlink:href="PusServices_8h.html" target="_top" xlink:title=" ">
<polygon fill="white" stroke="#666666" points="561,-294 477,-294 477,-275 561,-275 561,-294"/>
<text text-anchor="middle" x="519" y="-282" font-family="Helvetica,sans-Serif" font-size="10.00">PusServices.h</text>
</a>
</g>
</g>
<!-- Node1&#45;&gt;Node15 -->
<g id="edge54_Node000001_Node000015" class="edge">
<title>Node1&#45;&gt;Node15</title>
<g id="a_edge54_Node000001_Node000015"><a xlink:title=" ">
<path fill="none" stroke="#63b8ff" d="M421.09,-604.93C460.38,-591 527,-559.43 527,-505.5 527,-505.5 527,-505.5 527,-393.5 527,-362.1 523.6,-325.71 521.23,-304.2"/>
<polygon fill="#63b8ff" stroke="#63b8ff" points="524.69,-303.7 520.08,-294.16 517.74,-304.5 524.69,-303.7"/>
</a>
</g>
</g>
<!-- Node16 -->
<g id="Node000016" class="node">
<title>Node16</title>
<g id="a_Node000016"><a xlink:href="CCSDSHeader_8h.html" target="_top" xlink:title=" ">
<polygon fill="white" stroke="#666666" points="203.5,-129 110.5,-129 110.5,-110 203.5,-110 203.5,-129"/>
<text text-anchor="middle" x="157" y="-117" font-family="Helvetica,sans-Serif" font-size="10.00">CCSDSHeader.h</text>
</a>
</g>
</g>
<!-- Node1&#45;&gt;Node16 -->
<g id="edge30_Node000001_Node000016" class="edge">
<title>Node1&#45;&gt;Node16</title>
<g id="a_edge30_Node000001_Node000016"><a xlink:title=" ">
<path fill="none" stroke="#63b8ff" d="M391.12,-604.81C385.29,-578.76 365.96,-499.43 335,-440 283.62,-341.38 233.26,-339.66 186,-239 170.45,-205.88 162.68,-163.51 159.27,-139.44"/>
<polygon fill="#63b8ff" stroke="#63b8ff" points="162.7,-138.68 157.94,-129.22 155.76,-139.59 162.7,-138.68"/>
</a>
</g>
</g>
<!-- Node17 -->
<g id="Node000017" class="node">
<title>Node17</title>
<g id="a_Node000017"><a xlink:href="CCSDSManager_8h.html" target="_top" xlink:title=" ">
<polygon fill="white" stroke="#666666" points="233.5,-514 132.5,-514 132.5,-495 233.5,-495 233.5,-514"/>
<text text-anchor="middle" x="183" y="-502" font-family="Helvetica,sans-Serif" font-size="10.00">CCSDSManager.h</text>
</a>
</g>
</g>
<!-- Node1&#45;&gt;Node17 -->
<g id="edge34_Node000001_Node000017" class="edge">
<title>Node1&#45;&gt;Node17</title>
<g id="a_edge34_Node000001_Node000017"><a xlink:title=" ">
<path fill="none" stroke="#63b8ff" d="M343.91,-611.65C305.76,-607.9 253.38,-597.43 217,-569 202.55,-557.71 193.5,-538.52 188.4,-524.19"/>
<polygon fill="#63b8ff" stroke="#63b8ff" points="191.65,-522.83 185.25,-514.38 184.98,-524.97 191.65,-522.83"/>
</a>
</g>
</g>
<!-- Node19 -->
<g id="Node000019" class="node">
<title>Node19</title>
<g id="a_Node000019"><a xlink:href="CCSDSPacket_8h.html" target="_top" xlink:title=" ">
<polygon fill="white" stroke="#666666" points="184,-404 94,-404 94,-385 184,-385 184,-404"/>
<text text-anchor="middle" x="139" y="-392" font-family="Helvetica,sans-Serif" font-size="10.00">CCSDSPacket.h</text>
</a>
</g>
</g>
<!-- Node1&#45;&gt;Node19 -->
<g id="edge44_Node000001_Node000019" class="edge">
<title>Node1&#45;&gt;Node19</title>
<g id="a_edge44_Node000001_Node000019"><a xlink:title=" ">
<path fill="none" stroke="#63b8ff" d="M343.71,-609.54C263.32,-599.96 107.86,-567.58 57,-459 45.91,-435.33 73.77,-418.08 99.97,-407.59"/>
<polygon fill="#63b8ff" stroke="#63b8ff" points="101.33,-410.82 109.47,-404.03 98.88,-404.26 101.33,-410.82"/>
</a>
</g>
</g>
<!-- Node20 -->
<g id="Node000020" class="node">
<title>Node20</title>
<g id="a_Node000020"><a xlink:href="CCSDSValidator_8h.html" target="_top" xlink:title="Defines the Validator class for CCSDS packet validation.">
<polygon fill="white" stroke="#666666" points="307.5,-459 206.5,-459 206.5,-440 307.5,-440 307.5,-459"/>
<text text-anchor="middle" x="257" y="-447" font-family="Helvetica,sans-Serif" font-size="10.00">CCSDSValidator.h</text>
</a>
</g>
</g>
<!-- Node1&#45;&gt;Node20 -->
<g id="edge53_Node000001_Node000020" class="edge">
<title>Node1&#45;&gt;Node20</title>
<g id="a_edge53_Node000001_Node000020"><a xlink:title=" ">
<path fill="none" stroke="#63b8ff" d="M385.69,-604.74C363.92,-578.65 299.28,-501.17 270.77,-467"/>
<polygon fill="#63b8ff" stroke="#63b8ff" points="273.44,-464.74 264.35,-459.31 268.07,-469.23 273.44,-464.74"/>
</a>
</g>
</g>
<!-- Node21 -->
<g id="Node000021" class="node">
<title>Node21</title>
<g id="a_Node000021"><a xlink:href="CCSDSUtils_8h.html" target="_top" xlink:title=" ">
<polygon fill="white" stroke="#666666" points="307.5,-569 226.5,-569 226.5,-550 307.5,-550 307.5,-569"/>
<text text-anchor="middle" x="267" y="-557" font-family="Helvetica,sans-Serif" font-size="10.00">CCSDSUtils.h</text>
</a>
</g>
</g>
<!-- Node1&#45;&gt;Node21 -->
<g id="edge48_Node000001_Node000021" class="edge">
<title>Node1&#45;&gt;Node21</title>
<g id="a_edge48_Node000001_Node000021"><a xlink:title=" ">
<path fill="none" stroke="#63b8ff" d="M372.76,-604.98C352.3,-596.38 320.47,-582.99 297.07,-573.15"/>
<polygon fill="#63b8ff" stroke="#63b8ff" points="298.19,-569.82 287.61,-569.17 295.47,-576.27 298.19,-569.82"/>
</a>
</g>
</g>
<!-- Node2&#45;&gt;Node3 -->
<g id="edge2_Node000002_Node000003" class="edge">
<title>Node2&#45;&gt;Node3</title>
<g id="a_edge2_Node000002_Node000003"><a xlink:title=" ">
<path fill="none" stroke="#63b8ff" d="M441.5,-329.62C427.41,-301.3 384.27,-210.17 370,-129 368.54,-120.68 366.58,-117.72 370,-110 375.32,-97.97 385.68,-87.8 395.51,-80.24"/>
<polygon fill="#63b8ff" stroke="#63b8ff" points="397.76,-82.93 403.87,-74.27 393.7,-77.23 397.76,-82.93"/>
</a>
</g>
</g>
<!-- Node6 -->
<g id="Node000006" class="node">
<title>Node6</title>
<g id="a_Node000006"><a xlink:title=" ">
<polygon fill="#e0e0e0" stroke="#999999" points="180.5,-19 133.5,-19 133.5,0 180.5,0 180.5,-19"/>
<text text-anchor="middle" x="157" y="-7" font-family="Helvetica,sans-Serif" font-size="10.00">vector</text>
</a>
</g>
</g>
<!-- Node2&#45;&gt;Node6 -->
<g id="edge8_Node000002_Node000006" class="edge">
<title>Node2&#45;&gt;Node6</title>
<g id="a_edge8_Node000002_Node000006"><a xlink:title=" ">
<path fill="none" stroke="#63b8ff" d="M412.2,-329.96C339.49,-309.56 169.3,-250.38 101,-129 80.85,-93.19 116.99,-48.93 140.04,-25.97"/>
<polygon fill="#63b8ff" stroke="#63b8ff" points="142.46,-28.49 147.25,-19.04 137.61,-23.44 142.46,-28.49"/>
</a>
</g>
</g>
<!-- Node9 -->
<g id="Node000009" class="node">
<title>Node9</title>
<g id="a_Node000009"><a xlink:title=" ">
<polygon fill="#e0e0e0" stroke="#999999" points="728,-184 670,-184 670,-165 728,-165 728,-184"/>
<text text-anchor="middle" x="699" y="-172" font-family="Helvetica,sans-Serif" font-size="10.00">memory</text>
</a>
</g>
</g>
<!-- Node2&#45;&gt;Node9 -->
<g id="edge9_Node000002_Node000009" class="edge">
<title>Node2&#45;&gt;Node9</title>
<g id="a_edge9_Node000002_Node000009"><a xlink:title=" ">
<path fill="none" stroke="#63b8ff" d="M481.06,-329.96C506.85,-322.74 542.11,-310.86 570,-294 617.49,-265.29 662.82,-217.3 684.94,-192.1"/>
<polygon fill="#63b8ff" stroke="#63b8ff" points="687.87,-194.06 691.77,-184.21 682.58,-189.49 687.87,-194.06"/>
</a>
</g>
</g>
<!-- Node2&#45;&gt;Node10 -->
<g id="edge10_Node000002_Node000010" class="edge">
<title>Node2&#45;&gt;Node10</title>
<g id="a_edge10_Node000002_Node000010"><a xlink:title=" ">
<path fill="none" stroke="#63b8ff" d="M448.55,-329.7C452.26,-317.28 459.62,-294 468,-275 481.16,-245.16 499.95,-212.19 511.54,-192.69"/>
<polygon fill="#63b8ff" stroke="#63b8ff" points="514.59,-194.42 516.74,-184.04 508.59,-190.81 514.59,-194.42"/>
</a>
</g>
</g>
<!-- Node2&#45;&gt;Node13 -->
<g id="edge19_Node000002_Node000013" class="edge">
<title>Node2&#45;&gt;Node13</title>
<g id="a_edge19_Node000002_Node000013"><a xlink:title=" ">
<path fill="none" stroke="#63b8ff" d="M477.7,-329.96C509.49,-321.3 559.81,-307.29 603,-294 658.19,-277.02 721.7,-255.5 759.81,-242.38"/>
<polygon fill="#63b8ff" stroke="#63b8ff" points="761.08,-245.65 769.39,-239.07 758.79,-239.03 761.08,-245.65"/>
</a>
</g>
</g>
<!-- Node2&#45;&gt;Node15 -->
<g id="edge25_Node000002_Node000015" class="edge">
<title>Node2&#45;&gt;Node15</title>
<g id="a_edge25_Node000002_Node000015"><a xlink:title=" ">
<path fill="none" stroke="#63b8ff" d="M457.73,-329.98C468.73,-322 485.42,-309.88 498.6,-300.31"/>
<polygon fill="#63b8ff" stroke="#63b8ff" points="501.02,-302.88 507.06,-294.17 496.91,-297.21 501.02,-302.88"/>
</a>
</g>
</g>
<!-- Node4 -->
<g id="Node000004" class="node">
<title>Node4</title>
<g id="a_Node000004"><a xlink:title=" ">
<polygon fill="#e0e0e0" stroke="#999999" points="773.5,-19 680.5,-19 680.5,0 773.5,0 773.5,-19"/>
<text text-anchor="middle" x="727" y="-7" font-family="Helvetica,sans-Serif" font-size="10.00">unordered_map</text>
</a>
</g>
</g>
<!-- Node3&#45;&gt;Node4 -->
<g id="edge3_Node000003_Node000004" class="edge">
<title>Node3&#45;&gt;Node4</title>
<g id="a_edge3_Node000003_Node000004"><a xlink:title=" ">
<path fill="none" stroke="#63b8ff" d="M463.79,-55.79C518.44,-46.39 610.89,-30.48 670.41,-20.24"/>
<polygon fill="#63b8ff" stroke="#63b8ff" points="671.13,-23.67 680.39,-18.52 669.95,-16.77 671.13,-23.67"/>
</a>
</g>
</g>
<!-- Node5 -->
<g id="Node000005" class="node">
<title>Node5</title>
<g id="a_Node000005"><a xlink:title=" ">
<polygon fill="#e0e0e0" stroke="#999999" points="380.5,-19 329.5,-19 329.5,0 380.5,0 380.5,-19"/>
<text text-anchor="middle" x="355" y="-7" font-family="Helvetica,sans-Serif" font-size="10.00">variant</text>
</a>
</g>
</g>
<!-- Node3&#45;&gt;Node5 -->
<g id="edge4_Node000003_Node000005" class="edge">
<title>Node3&#45;&gt;Node5</title>
<g id="a_edge4_Node000003_Node000005"><a xlink:title=" ">
<path fill="none" stroke="#63b8ff" d="M408.72,-54.98C399.16,-47.07 384.72,-35.11 373.22,-25.58"/>
<polygon fill="#63b8ff" stroke="#63b8ff" points="375.4,-22.85 365.47,-19.17 370.94,-28.24 375.4,-22.85"/>
</a>
</g>
</g>
<!-- Node3&#45;&gt;Node6 -->
<g id="edge5_Node000003_Node000006" class="edge">
<title>Node3&#45;&gt;Node6</title>
<g id="a_edge5_Node000003_Node000006"><a xlink:title=" ">
<path fill="none" stroke="#63b8ff" d="M376.91,-54.98C325.13,-44.51 238.27,-26.94 190.69,-17.32"/>
<polygon fill="#63b8ff" stroke="#63b8ff" points="191.09,-13.83 180.6,-15.27 189.71,-20.69 191.09,-13.83"/>
</a>
</g>
</g>
<!-- Node7 -->
<g id="Node000007" class="node">
<title>Node7</title>
<g id="a_Node000007"><a xlink:title=" ">
<polygon fill="#e0e0e0" stroke="#999999" points="547,-19 497,-19 497,0 547,0 547,-19"/>
<text text-anchor="middle" x="522" y="-7" font-family="Helvetica,sans-Serif" font-size="10.00">cstdint</text>
</a>
</g>
</g>
<!-- Node3&#45;&gt;Node7 -->
<g id="edge6_Node000003_Node000007" class="edge">
<title>Node3&#45;&gt;Node7</title>
<g id="a_edge6_Node000003_Node000007"><a xlink:title=" ">
<path fill="none" stroke="#63b8ff" d="M435.55,-54.98C451.89,-46.57 477.13,-33.59 496.13,-23.81"/>
<polygon fill="#63b8ff" stroke="#63b8ff" points="497.86,-26.86 505.15,-19.17 494.66,-20.63 497.86,-26.86"/>
</a>
</g>
</g>
<!-- Node8 -->
<g id="Node000008" class="node">
<title>Node8</title>
<g id="a_Node000008"><a xlink:title=" ">
<polygon fill="#e0e0e0" stroke="#999999" points="459,-19 399,-19 399,0 459,0 459,-19"/>
<text text-anchor="middle" x="429" y="-7" font-family="Helvetica,sans-Serif" font-size="10.00">iostream</text>
</a>
</g>
</g>
<!-- Node3&#45;&gt;Node8 -->
<g id="edge7_Node000003_Node000008" class="edge">
<title>Node3&#45;&gt;Node8</title>
<g id="a_edge7_Node000003_Node000008"><a xlink:title=" ">
<path fill="none" stroke="#63b8ff" d="M420.65,-54.75C421.96,-47.8 423.84,-37.85 425.48,-29.13"/>
<polygon fill="#63b8ff" stroke="#63b8ff" points="428.96,-29.56 427.38,-19.09 422.09,-28.27 428.96,-29.56"/>
</a>
</g>
</g>
<!-- Node10&#45;&gt;Node3 -->
<g id="edge11_Node000010_Node000003" class="edge">
<title>Node10&#45;&gt;Node3</title>
<g id="a_edge11_Node000010_Node000003"><a xlink:title=" ">
<path fill="none" stroke="#63b8ff" d="M513.73,-165C505.05,-156.06 491.02,-141.58 479,-129 463.7,-112.99 446.33,-94.58 434.24,-81.72"/>
<polygon fill="#63b8ff" stroke="#63b8ff" points="436.52,-79.05 427.12,-74.16 431.42,-83.84 436.52,-79.05"/>
</a>
</g>
</g>
<!-- Node10&#45;&gt;Node6 -->
<g id="edge17_Node000010_Node000006" class="edge">
<title>Node10&#45;&gt;Node6</title>
<g id="a_edge17_Node000010_Node000006"><a xlink:title=" ">
<path fill="none" stroke="#63b8ff" d="M502.89,-164.97C442.79,-138.13 257.37,-55.32 185.7,-23.31"/>
<polygon fill="#63b8ff" stroke="#63b8ff" points="186.92,-20.03 176.36,-19.15 184.06,-26.42 186.92,-20.03"/>
</a>
</g>
</g>
<!-- Node10&#45;&gt;Node7 -->
<g id="edge18_Node000010_Node000007" class="edge">
<title>Node10&#45;&gt;Node7</title>
<g id="a_edge18_Node000010_Node000007"><a xlink:title=" ">
<path fill="none" stroke="#63b8ff" d="M543.79,-164.87C558.64,-157.69 577.16,-145.91 586,-129 589.91,-121.52 588.38,-118.1 586,-110 576.45,-77.51 552.65,-45.59 536.92,-26.99"/>
<polygon fill="#63b8ff" stroke="#63b8ff" points="539.35,-24.45 530.14,-19.21 534.07,-29.05 539.35,-24.45"/>
</a>
</g>
</g>
<!-- Node11 -->
<g id="Node000011" class="node">
<title>Node11</title>
<g id="a_Node000011"><a xlink:href="CCSDSConfig_8h.html" target="_top" xlink:title=" ">
<polygon fill="white" stroke="#666666" points="577.5,-129 488.5,-129 488.5,-110 577.5,-110 577.5,-129"/>
<text text-anchor="middle" x="533" y="-117" font-family="Helvetica,sans-Serif" font-size="10.00">CCSDSConfig.h</text>
</a>
</g>
</g>
<!-- Node10&#45;&gt;Node11 -->
<g id="edge12_Node000010_Node000011" class="edge">
<title>Node10&#45;&gt;Node11</title>
<g id="a_edge12_Node000010_Node000011"><a xlink:title=" ">
<path fill="none" stroke="#63b8ff" d="M523.82,-164.75C525.26,-157.8 527.32,-147.85 529.13,-139.13"/>
<polygon fill="#63b8ff" stroke="#63b8ff" points="532.61,-139.59 531.22,-129.09 525.76,-138.17 532.61,-139.59"/>
</a>
</g>
</g>
<!-- Node11&#45;&gt;Node3 -->
<g id="edge16_Node000011_Node000003" class="edge">
<title>Node11&#45;&gt;Node3</title>
<g id="a_edge16_Node000011_Node000003"><a xlink:title=" ">
<path fill="none" stroke="#63b8ff" d="M514.68,-109.98C496.34,-101.46 467.89,-88.23 446.77,-78.41"/>
<polygon fill="#63b8ff" stroke="#63b8ff" points="448.19,-75.21 437.65,-74.17 445.24,-81.56 448.19,-75.21"/>
</a>
</g>
</g>
<!-- Node11&#45;&gt;Node6 -->
<g id="edge15_Node000011_Node000006" class="edge">
<title>Node11&#45;&gt;Node6</title>
<g id="a_edge15_Node000011_Node000006"><a xlink:title=" ">
<path fill="none" stroke="#63b8ff" d="M527.49,-109.76C518.04,-95.6 497.31,-67.95 472,-55 423.36,-30.11 261.76,-17.12 190.85,-12.49"/>
<polygon fill="#63b8ff" stroke="#63b8ff" points="190.88,-8.99 180.68,-11.85 190.43,-15.97 190.88,-8.99"/>
</a>
</g>
</g>
<!-- Node11&#45;&gt;Node7 -->
<g id="edge14_Node000011_Node000007" class="edge">
<title>Node11&#45;&gt;Node7</title>
<g id="a_edge14_Node000011_Node000007"><a xlink:title=" ">
<path fill="none" stroke="#63b8ff" d="M532.1,-109.66C530.32,-92.17 526.31,-52.8 523.91,-29.27"/>
<polygon fill="#63b8ff" stroke="#63b8ff" points="527.38,-28.75 522.88,-19.16 520.41,-29.46 527.38,-28.75"/>
</a>
</g>
</g>
<!-- Node12 -->
<g id="Node000012" class="node">
<title>Node12</title>
<g id="a_Node000012"><a xlink:title=" ">
<polygon fill="#e0e0e0" stroke="#999999" points="778,-74 734,-74 734,-55 778,-55 778,-74"/>
<text text-anchor="middle" x="756" y="-62" font-family="Helvetica,sans-Serif" font-size="10.00">string</text>
</a>
</g>
</g>
<!-- Node11&#45;&gt;Node12 -->
<g id="edge13_Node000011_Node000012" class="edge">
<title>Node11&#45;&gt;Node12</title>
<g id="a_edge13_Node000011_Node000012"><a xlink:title=" ">
<path fill="none" stroke="#63b8ff" d="M568.83,-109.98C611.73,-99.79 682.94,-82.86 724.04,-73.09"/>
<polygon fill="#63b8ff" stroke="#63b8ff" points="724.89,-76.49 733.81,-70.77 723.27,-69.68 724.89,-76.49"/>
</a>
</g>
</g>
<!-- Node13&#45;&gt;Node4 -->
<g id="edge21_Node000013_Node000004" class="edge">
<title>Node13&#45;&gt;Node4</title>
<g id="a_edge21_Node000013_Node000004"><a xlink:title=" ">
<path fill="none" stroke="#63b8ff" d="M796.25,-219.81C802.64,-193.09 818.54,-110.58 787,-55 779.6,-41.97 766.66,-31.63 754.69,-24.22"/>
<polygon fill="#63b8ff" stroke="#63b8ff" points="756.24,-21.07 745.82,-19.12 752.75,-27.14 756.24,-21.07"/>
</a>
</g>
</g>
<!-- Node13&#45;&gt;Node9 -->
<g id="edge20_Node000013_Node000009" class="edge">
<title>Node13&#45;&gt;Node9</title>
<g id="a_edge20_Node000013_Node000009"><a xlink:title=" ">
<path fill="none" stroke="#63b8ff" d="M778.74,-219.98C763.87,-211.69 741.02,-198.94 723.58,-189.22"/>
<polygon fill="#63b8ff" stroke="#63b8ff" points="724.98,-185.99 714.54,-184.17 721.57,-192.1 724.98,-185.99"/>
</a>
</g>
</g>
<!-- Node13&#45;&gt;Node10 -->
<g id="edge24_Node000013_Node000010" class="edge">
<title>Node13&#45;&gt;Node10</title>
<g id="a_edge24_Node000013_Node000010"><a xlink:title=" ">
<path fill="none" stroke="#63b8ff" d="M750.3,-219.98C702.85,-210.74 627.03,-195.97 575.92,-186.01"/>
<polygon fill="#63b8ff" stroke="#63b8ff" points="576.53,-182.56 566.04,-184.08 575.19,-189.43 576.53,-182.56"/>
</a>
</g>
</g>
<!-- Node13&#45;&gt;Node12 -->
<g id="edge23_Node000013_Node000012" class="edge">
<title>Node13&#45;&gt;Node12</title>
<g id="a_edge23_Node000013_Node000012"><a xlink:title=" ">
<path fill="none" stroke="#63b8ff" d="M792.56,-219.81C789.23,-200.11 780.48,-150.65 770,-110 767.78,-101.37 764.88,-91.94 762.3,-83.99"/>
<polygon fill="#63b8ff" stroke="#63b8ff" points="765.54,-82.67 759.06,-74.29 758.9,-84.88 765.54,-82.67"/>
</a>
</g>
</g>
<!-- Node14 -->
<g id="Node000014" class="node">
<title>Node14</title>
<g id="a_Node000014"><a xlink:title=" ">
<polygon fill="#e0e0e0" stroke="#999999" points="925.5,-184 860.5,-184 860.5,-165 925.5,-165 925.5,-184"/>
<text text-anchor="middle" x="893" y="-172" font-family="Helvetica,sans-Serif" font-size="10.00">functional</text>
</a>
</g>
</g>
<!-- Node13&#45;&gt;Node14 -->
<g id="edge22_Node000013_Node000014" class="edge">
<title>Node13&#45;&gt;Node14</title>
<g id="a_edge22_Node000013_Node000014"><a xlink:title=" ">
<path fill="none" stroke="#63b8ff" d="M809.91,-219.98C825.55,-211.61 849.66,-198.7 867.88,-188.95"/>
<polygon fill="#63b8ff" stroke="#63b8ff" points="869.64,-191.98 876.8,-184.17 866.34,-185.8 869.64,-191.98"/>
</a>
</g>
</g>
<!-- Node15&#45;&gt;Node3 -->
<g id="edge28_Node000015_Node000003" class="edge">
<title>Node15&#45;&gt;Node3</title>
<g id="a_edge28_Node000015_Node000003"><a xlink:title=" ">
<path fill="none" stroke="#63b8ff" d="M505.13,-274.88C482.29,-259.76 437.56,-226.05 420,-184 406.24,-151.06 410.67,-108.33 414.96,-84.22"/>
<polygon fill="#63b8ff" stroke="#63b8ff" points="418.42,-84.76 416.91,-74.27 411.55,-83.41 418.42,-84.76"/>
</a>
</g>
</g>
<!-- Node15&#45;&gt;Node10 -->
<g id="edge26_Node000015_Node000010" class="edge">
<title>Node15&#45;&gt;Node10</title>
<g id="a_edge26_Node000015_Node000010"><a xlink:title=" ">
<path fill="none" stroke="#63b8ff" d="M519.25,-274.66C519.73,-257.17 520.82,-217.8 521.48,-194.27"/>
<polygon fill="#63b8ff" stroke="#63b8ff" points="524.98,-194.25 521.76,-184.16 517.98,-194.06 524.98,-194.25"/>
</a>
</g>
</g>
<!-- Node15&#45;&gt;Node11 -->
<g id="edge29_Node000015_Node000011" class="edge">
<title>Node15&#45;&gt;Node11</title>
<g id="a_edge29_Node000015_Node000011"><a xlink:title=" ">
<path fill="none" stroke="#63b8ff" d="M533.98,-274.84C558.11,-259.9 604.74,-226.74 623,-184 633.62,-159.15 605.08,-142.38 577.38,-132.35"/>
<polygon fill="#63b8ff" stroke="#63b8ff" points="578.28,-128.96 567.69,-129.08 576.04,-135.59 578.28,-128.96"/>
</a>
</g>
</g>
<!-- Node15&#45;&gt;Node13 -->
<g id="edge27_Node000015_Node000013" class="edge">
<title>Node15&#45;&gt;Node13</title>
<g id="a_edge27_Node000015_Node000013"><a xlink:title=" ">
<path fill="none" stroke="#63b8ff" d="M561.07,-275.39C608.88,-266.18 687.09,-251.1 739.53,-241"/>
<polygon fill="#63b8ff" stroke="#63b8ff" points="740.5,-244.37 749.66,-239.05 739.18,-237.5 740.5,-244.37"/>
</a>
</g>
</g>
<!-- Node16&#45;&gt;Node3 -->
<g id="edge31_Node000016_Node000003" class="edge">
<title>Node16&#45;&gt;Node3</title>
<g id="a_edge31_Node000016_Node000003"><a xlink:title=" ">
<path fill="none" stroke="#63b8ff" d="M199.09,-109.98C244.7,-100.76 317.52,-86.03 366.75,-76.07"/>
<polygon fill="#63b8ff" stroke="#63b8ff" points="367.47,-79.5 376.58,-74.08 366.08,-72.63 367.47,-79.5"/>
</a>
</g>
</g>
<!-- Node16&#45;&gt;Node6 -->
<g id="edge33_Node000016_Node000006" class="edge">
<title>Node16&#45;&gt;Node6</title>
<g id="a_edge33_Node000016_Node000006"><a xlink:title=" ">
<path fill="none" stroke="#63b8ff" d="M157,-109.66C157,-92.17 157,-52.8 157,-29.27"/>
<polygon fill="#63b8ff" stroke="#63b8ff" points="160.5,-29.16 157,-19.16 153.5,-29.16 160.5,-29.16"/>
</a>
</g>
</g>
<!-- Node16&#45;&gt;Node7 -->
<g id="edge32_Node000016_Node000007" class="edge">
<title>Node16&#45;&gt;Node7</title>
<g id="a_edge32_Node000016_Node000007"><a xlink:title=" ">
<path fill="none" stroke="#63b8ff" d="M184.54,-109.9C224.31,-97.53 300.17,-74.08 365,-55 406.94,-42.66 455.36,-29.03 487.21,-20.14"/>
<polygon fill="#63b8ff" stroke="#63b8ff" points="488.24,-23.49 496.94,-17.44 486.37,-16.75 488.24,-23.49"/>
</a>
</g>
</g>
<!-- Node17&#45;&gt;Node3 -->
<g id="edge41_Node000017_Node000003" class="edge">
<title>Node17&#45;&gt;Node3</title>
<g id="a_edge41_Node000017_Node000003"><a xlink:title=" ">
<path fill="none" stroke="#63b8ff" d="M184.17,-494.66C186,-482.19 190.05,-458.85 197,-440 214.33,-392.99 250,-390.6 250,-340.5 250,-340.5 250,-340.5 250,-283.5 250,-189 350.43,-110.65 396.45,-79.71"/>
<polygon fill="#63b8ff" stroke="#63b8ff" points="398.45,-82.58 404.88,-74.16 394.6,-76.73 398.45,-82.58"/>
</a>
</g>
</g>
<!-- Node18 -->
<g id="Node000018" class="node">
<title>Node18</title>
<g id="a_Node000018"><a xlink:title=" ">
<polygon fill="#e0e0e0" stroke="#999999" points="111.5,-459 66.5,-459 66.5,-440 111.5,-440 111.5,-459"/>
<text text-anchor="middle" x="89" y="-447" font-family="Helvetica,sans-Serif" font-size="10.00">utility</text>
</a>
</g>
</g>
<!-- Node17&#45;&gt;Node18 -->
<g id="edge35_Node000017_Node000018" class="edge">
<title>Node17&#45;&gt;Node18</title>
<g id="a_edge35_Node000017_Node000018"><a xlink:title=" ">
<path fill="none" stroke="#63b8ff" d="M167.9,-494.98C153.18,-486.69 130.58,-473.94 113.33,-464.22"/>
<polygon fill="#63b8ff" stroke="#63b8ff" points="114.81,-461.03 104.38,-459.17 111.37,-467.13 114.81,-461.03"/>
</a>
</g>
</g>
<!-- Node17&#45;&gt;Node19 -->
<g id="edge36_Node000017_Node000019" class="edge">
<title>Node17&#45;&gt;Node19</title>
<g id="a_edge36_Node000017_Node000019"><a xlink:title=" ">
<path fill="none" stroke="#63b8ff" d="M179.29,-495C175.4,-486.07 169.17,-471.59 164,-459 157.75,-443.76 150.91,-426.34 145.97,-413.6"/>
<polygon fill="#63b8ff" stroke="#63b8ff" points="149.19,-412.22 142.32,-404.16 142.66,-414.75 149.19,-412.22"/>
</a>
</g>
</g>
<!-- Node17&#45;&gt;Node20 -->
<g id="edge42_Node000017_Node000020" class="edge">
<title>Node17&#45;&gt;Node20</title>
<g id="a_edge42_Node000017_Node000020"><a xlink:title=" ">
<path fill="none" stroke="#63b8ff" d="M194.89,-494.98C206.15,-486.92 223.29,-474.65 236.71,-465.03"/>
<polygon fill="#63b8ff" stroke="#63b8ff" points="238.8,-467.84 244.89,-459.17 234.73,-462.15 238.8,-467.84"/>
</a>
</g>
</g>
<!-- Node19&#45;&gt;Node2 -->
<g id="edge40_Node000019_Node000002" class="edge">
<title>Node19&#45;&gt;Node2</title>
<g id="a_edge40_Node000019_Node000002"><a xlink:title=" ">
<path fill="none" stroke="#63b8ff" d="M184.3,-385.68C237.99,-376.41 327.6,-360.94 386.75,-350.73"/>
<polygon fill="#63b8ff" stroke="#63b8ff" points="387.44,-354.16 396.7,-349.01 386.25,-347.26 387.44,-354.16"/>
</a>
</g>
</g>
<!-- Node19&#45;&gt;Node3 -->
<g id="edge37_Node000019_Node000003" class="edge">
<title>Node19&#45;&gt;Node3</title>
<g id="a_edge37_Node000019_Node000003"><a xlink:title=" ">
<path fill="none" stroke="#63b8ff" d="M141.42,-384.95C153.74,-341.97 210.68,-149.98 256,-110 272.21,-95.7 323.76,-83.12 364.6,-75.02"/>
<polygon fill="#63b8ff" stroke="#63b8ff" points="365.3,-78.44 374.46,-73.1 363.97,-71.57 365.3,-78.44"/>
</a>
</g>
</g>
<!-- Node19&#45;&gt;Node6 -->
<g id="edge38_Node000019_Node000006" class="edge">
<title>Node19&#45;&gt;Node6</title>
<g id="a_edge38_Node000019_Node000006"><a xlink:title=" ">
<path fill="none" stroke="#63b8ff" d="M122.88,-384.88C95.78,-369.07 44,-332.7 44,-285.5 44,-285.5 44,-285.5 44,-118.5 44,-72.68 93.15,-40.32 126.62,-23.6"/>
<polygon fill="#63b8ff" stroke="#63b8ff" points="128.5,-26.58 136.01,-19.11 125.48,-20.27 128.5,-26.58"/>
</a>
</g>
</g>
<!-- Node19&#45;&gt;Node16 -->
<g id="edge39_Node000019_Node000016" class="edge">
<title>Node19&#45;&gt;Node16</title>
<g id="a_edge39_Node000019_Node000016"><a xlink:title=" ">
<path fill="none" stroke="#63b8ff" d="M136.17,-384.93C130.44,-366.8 118,-323.13 118,-285.5 118,-285.5 118,-285.5 118,-228.5 118,-194.92 134.88,-158.78 146.43,-137.98"/>
<polygon fill="#63b8ff" stroke="#63b8ff" points="149.6,-139.49 151.58,-129.08 143.54,-135.98 149.6,-139.49"/>
</a>
</g>
</g>
<!-- Node20&#45;&gt;Node19 -->
<g id="edge43_Node000020_Node000019" class="edge">
<title>Node20&#45;&gt;Node19</title>
<g id="a_edge43_Node000020_Node000019"><a xlink:title=" ">
<path fill="none" stroke="#63b8ff" d="M238.04,-439.98C218.97,-431.42 189.34,-418.11 167.45,-408.28"/>
<polygon fill="#63b8ff" stroke="#63b8ff" points="168.86,-405.07 158.3,-404.17 165.99,-411.46 168.86,-405.07"/>
</a>
</g>
</g>
<!-- Node21&#45;&gt;Node6 -->
<g id="edge52_Node000021_Node000006" class="edge">
<title>Node21&#45;&gt;Node6</title>
<g id="a_edge52_Node000021_Node000006"><a xlink:title=" ">
<path fill="none" stroke="#63b8ff" d="M226.45,-550.86C151.76,-535.63 0,-498.75 0,-450.5 0,-450.5 0,-450.5 0,-118.5 0,-58.98 77.53,-29.78 123.62,-17.68"/>
<polygon fill="#63b8ff" stroke="#63b8ff" points="124.64,-21.03 133.5,-15.22 122.95,-14.24 124.64,-21.03"/>
</a>
</g>
</g>
<!-- Node21&#45;&gt;Node12 -->
<g id="edge51_Node000021_Node000012" class="edge">
<title>Node21&#45;&gt;Node12</title>
<g id="a_edge51_Node000021_Node000012"><a xlink:title=" ">
<path fill="none" stroke="#63b8ff" d="M278.83,-549.74C290.8,-540.84 309.8,-526.61 326,-514 337.55,-505.01 729.64,-196.66 737,-184 755.26,-152.59 757.46,-108.99 757.01,-84.38"/>
<polygon fill="#63b8ff" stroke="#63b8ff" points="760.5,-84.11 756.64,-74.24 753.5,-84.36 760.5,-84.11"/>
</a>
</g>
</g>
<!-- Node21&#45;&gt;Node17 -->
<g id="edge50_Node000021_Node000017" class="edge">
<title>Node21&#45;&gt;Node17</title>
<g id="a_edge50_Node000021_Node000017"><a xlink:title=" ">
<path fill="none" stroke="#63b8ff" d="M253.5,-549.98C240.6,-541.84 220.9,-529.41 205.6,-519.76"/>
<polygon fill="#63b8ff" stroke="#63b8ff" points="207.07,-516.55 196.74,-514.17 203.33,-522.47 207.07,-516.55"/>
</a>
</g>
</g>
<!-- Node21&#45;&gt;Node19 -->
<g id="edge49_Node000021_Node000019" class="edge">
<title>Node21&#45;&gt;Node19</title>
<g id="a_edge49_Node000021_Node000019"><a xlink:title=" ">
<path fill="none" stroke="#63b8ff" d="M276,-549.95C296.69,-529.27 343.79,-475.64 316,-440 308.32,-430.15 242.98,-415.56 193.91,-405.8"/>
<polygon fill="#63b8ff" stroke="#63b8ff" points="194.51,-402.35 184.02,-403.85 193.16,-409.22 194.51,-402.35"/>
</a>
</g>
</g>
</g>
</svg>
