<?xml version="1.0" encoding="UTF-8" standalone="no"?>
<!DOCTYPE svg PUBLIC "-//W3C//DTD SVG 1.1//EN"
 "http://www.w3.org/Graphics/SVG/1.1/DTD/svg11.dtd">
<!-- Generated by graphviz version 2.43.0 (0)
 -->
<!-- Title: inc/CCSDSManager.h Pages: 1 -->
<!--zoomable 522 -->

<svg id="main" version="1.1" xmlns="http://www.w3.org/2000/svg" xmlns:xlink="http://www.w3.org/1999/xlink" xml:space="preserve" onload="init(evt)">
<style type="text/css"><![CDATA[
.node, .edge {opacity: 0.7;}
.node.selected, .edge.selected {opacity: 1;}
.edge:hover path { stroke: red; }
.edge:hover polygon { stroke: red; fill: red; }
]]></style>

<defs>
  <circle id="rim" cx="0" cy="0" r="7"/>
  <circle id="rim2" cx="0" cy="0" r="3.5"/>
  <g id="zoomPlus">
    <use xlink:href="#rim" fill="#404040"><set attributeName="fill" to="#808080" begin="zoomplus.mouseover" end="zoomplus.mouseout"/></use>
    <path d="M-4,0h8M0,-4v8" fill="none" stroke="white" stroke-width="1.5" pointer-events="none"/>
  </g>
  <g id="zoomMin">
    <use xlink:href="#rim" fill="#404040"><set attributeName="fill" to="#808080" begin="zoomminus.mouseover" end="zoomminus.mouseout"/></use>
    <path d="M-4,0h8" fill="none" stroke="white" stroke-width="1.5" pointer-events="none"/>
  </g>
  <g id="arrowUp" transform="translate(30 24)">
    <use xlink:href="#rim"/>
    <path pointer-events="none" fill="none" stroke="white" stroke-width="1.5" d="M0,-3.0v7 M-2.5,-0.5L0,-3.0L2.5,-0.5"/>
  </g>
  <g id="arrowRight" transform="rotate(90) translate(36 -43)">
    <use xlink:href="#rim"/>
    <path pointer-events="none" fill="none" stroke="white" stroke-width="1.5" d="M0,-3.0v7 M-2.5,-0.5L0,-3.0L2.5,-0.5"/>
  </g>
  <g id="arrowDown" transform="rotate(180) translate(-30 -48)">
    <use xlink:href="#rim"/>
    <path pointer-events="none" fill="none" stroke="white" stroke-width="1.5" d="M0,-3.0v7 M-2.5,-0.5L0,-3.0L2.5,-0.5"/>
  </g>
  <g id="arrowLeft" transform="rotate(270) translate(-36 17)">
    <use xlink:href="#rim"/>
    <path pointer-events="none" fill="none" stroke="white" stroke-width="1.5" d="M0,-3.0v7 M-2.5,-0.5L0,-3.0L2.5,-0.5"/>
  </g>
  <g id="resetDef">
    <use xlink:href="#rim2" fill="#404040"><set attributeName="fill" to="#808080" begin="reset.mouseover" end="reset.mouseout"/></use>
  </g>
</defs>
<script type="application/ecmascript">
var viewWidth = 796;
var viewHeight = 522;
var sectionId = 'dynsection-0';
</script>
<script type="application/ecmascript" xlink:href="svg.min.js"/>
<svg id="graph" class="graph">
<g id="viewport">
<title>inc/CCSDSManager.h</title>
<!-- Node1 -->
<g id="Node000001" class="node">
<title>Node1</title>
<g id="a_Node000001"><a xlink:title=" ">
<polygon fill="#999999" stroke="#666666" points="161.5,-514 43.5,-514 43.5,-495 161.5,-495 161.5,-514"/>
<text text-anchor="middle" x="102.5" y="-502" font-family="Helvetica,sans-Serif" font-size="10.00">inc/CCSDSManager.h</text>
</a>
</g>
</g>
<!-- Node2 -->
<g id="Node000002" class="node">
<title>Node2</title>
<g id="a_Node000002"><a xlink:title=" ">
<polygon fill="#e0e0e0" stroke="#999999" points="55,-459 10,-459 10,-440 55,-440 55,-459"/>
<text text-anchor="middle" x="32.5" y="-447" font-family="Helvetica,sans-Serif" font-size="10.00">utility</text>
</a>
</g>
</g>
<!-- Node1&#45;&gt;Node2 -->
<g id="edge1_Node000001_Node000002" class="edge">
<title>Node1&#45;&gt;Node2</title>
<g id="a_edge1_Node000001_Node000002"><a xlink:title=" ">
<path fill="none" stroke="#63b8ff" d="M91.25,-494.98C80.7,-487 64.7,-474.88 52.06,-465.31"/>
<polygon fill="#63b8ff" stroke="#63b8ff" points="54.04,-462.42 43.95,-459.17 49.81,-468 54.04,-462.42"/>
</a>
</g>
</g>
<!-- Node3 -->
<g id="Node000003" class="node">
<title>Node3</title>
<g id="a_Node000003"><a xlink:href="CCSDSPacket_8h.html" target="_top" xlink:title=" ">
<polygon fill="white" stroke="#666666" points="224.5,-404 134.5,-404 134.5,-385 224.5,-385 224.5,-404"/>
<text text-anchor="middle" x="179.5" y="-392" font-family="Helvetica,sans-Serif" font-size="10.00">CCSDSPacket.h</text>
</a>
</g>
</g>
<!-- Node1&#45;&gt;Node3 -->
<g id="edge2_Node000001_Node000003" class="edge">
<title>Node1&#45;&gt;Node3</title>
<g id="a_edge2_Node000001_Node000003"><a xlink:title=" ">
<path fill="none" stroke="#63b8ff" d="M107.38,-494.59C114.39,-482.05 127.96,-458.62 141.5,-440 148.67,-430.14 157.47,-419.75 164.79,-411.49"/>
<polygon fill="#63b8ff" stroke="#63b8ff" points="167.41,-413.8 171.51,-404.03 162.21,-409.12 167.41,-413.8"/>
</a>
</g>
</g>
<!-- Node4 -->
<g id="Node000004" class="node">
<title>Node4</title>
<g id="a_Node000004"><a xlink:href="CCSDSResult_8h.html" target="_top" xlink:title=" ">
<polygon fill="white" stroke="#666666" points="270,-74 181,-74 181,-55 270,-55 270,-74"/>
<text text-anchor="middle" x="225.5" y="-62" font-family="Helvetica,sans-Serif" font-size="10.00">CCSDSResult.h</text>
</a>
</g>
</g>
<!-- Node1&#45;&gt;Node4 -->
<g id="edge38_Node000001_Node000004" class="edge">
<title>Node1&#45;&gt;Node4</title>
<g id="a_edge38_Node000001_Node000004"><a xlink:title=" ">
<path fill="none" stroke="#63b8ff" d="M99.94,-494.91C94.75,-476.74 83.5,-433 83.5,-395.5 83.5,-395.5 83.5,-395.5 83.5,-283.5 83.5,-197.83 113.39,-176.42 167.5,-110 177.11,-98.2 190.45,-87.69 201.91,-79.85"/>
<polygon fill="#63b8ff" stroke="#63b8ff" points="204.15,-82.57 210.59,-74.16 200.31,-76.71 204.15,-82.57"/>
</a>
</g>
</g>
<!-- Node19 -->
<g id="Node000019" class="node">
<title>Node19</title>
<g id="a_Node000019"><a xlink:href="CCSDSValidator_8h.html" target="_top" xlink:title="Defines the Validator class for CCSDS packet validation.">
<polygon fill="white" stroke="#666666" points="251,-459 150,-459 150,-440 251,-440 251,-459"/>
<text text-anchor="middle" x="200.5" y="-447" font-family="Helvetica,sans-Serif" font-size="10.00">CCSDSValidator.h</text>
</a>
</g>
</g>
<!-- Node1&#45;&gt;Node19 -->
<g id="edge39_Node000001_Node000019" class="edge">
<title>Node1&#45;&gt;Node19</title>
<g id="a_edge39_Node000001_Node000019"><a xlink:title=" ">
<path fill="none" stroke="#63b8ff" d="M118.25,-494.98C133.73,-486.61 157.59,-473.7 175.64,-463.95"/>
<polygon fill="#63b8ff" stroke="#63b8ff" points="177.34,-467.01 184.47,-459.17 174.01,-460.85 177.34,-467.01"/>
</a>
</g>
</g>
<!-- Node3&#45;&gt;Node4 -->
<g id="edge3_Node000003_Node000004" class="edge">
<title>Node3&#45;&gt;Node4</title>
<g id="a_edge3_Node000003_Node000004"><a xlink:title=" ">
<path fill="none" stroke="#63b8ff" d="M176.8,-384.92C171.34,-366.77 159.5,-323.07 159.5,-285.5 159.5,-285.5 159.5,-285.5 159.5,-173.5 159.5,-136.23 188.48,-100.93 208.03,-81.36"/>
<polygon fill="#63b8ff" stroke="#63b8ff" points="210.69,-83.65 215.48,-74.2 205.84,-78.61 210.69,-83.65"/>
</a>
</g>
</g>
<!-- Node7 -->
<g id="Node000007" class="node">
<title>Node7</title>
<g id="a_Node000007"><a xlink:title=" ">
<polygon fill="#e0e0e0" stroke="#999999" points="495,-19 448,-19 448,0 495,0 495,-19"/>
<text text-anchor="middle" x="471.5" y="-7" font-family="Helvetica,sans-Serif" font-size="10.00">vector</text>
</a>
</g>
</g>
<!-- Node3&#45;&gt;Node7 -->
<g id="edge9_Node000003_Node000007" class="edge">
<title>Node3&#45;&gt;Node7</title>
<g id="a_edge9_Node000003_Node000007"><a xlink:title=" ">
<path fill="none" stroke="#63b8ff" d="M224.7,-390.25C365.61,-379.53 787.5,-342.66 787.5,-285.5 787.5,-285.5 787.5,-285.5 787.5,-118.5 787.5,-69.91 743.13,-74.22 698.5,-55 633.62,-27.06 550.73,-16.51 505.21,-12.64"/>
<polygon fill="#63b8ff" stroke="#63b8ff" points="505.26,-9.13 495.01,-11.83 504.7,-16.11 505.26,-9.13"/>
</a>
</g>
</g>
<!-- Node10 -->
<g id="Node000010" class="node">
<title>Node10</title>
<g id="a_Node000010"><a xlink:href="CCSDSHeader_8h.html" target="_top" xlink:title=" ">
<polygon fill="white" stroke="#666666" points="93,-129 0,-129 0,-110 93,-110 93,-129"/>
<text text-anchor="middle" x="46.5" y="-117" font-family="Helvetica,sans-Serif" font-size="10.00">CCSDSHeader.h</text>
</a>
</g>
</g>
<!-- Node3&#45;&gt;Node10 -->
<g id="edge10_Node000003_Node000010" class="edge">
<title>Node3&#45;&gt;Node10</title>
<g id="a_edge10_Node000003_Node000010"><a xlink:title=" ">
<path fill="none" stroke="#63b8ff" d="M171.78,-384.75C164.4,-376.09 153.27,-362.25 145.5,-349 102.1,-275.04 66.52,-178.51 52.7,-138.79"/>
<polygon fill="#63b8ff" stroke="#63b8ff" points="55.95,-137.48 49.39,-129.16 49.33,-139.75 55.95,-137.48"/>
</a>
</g>
</g>
<!-- Node11 -->
<g id="Node000011" class="node">
<title>Node11</title>
<g id="a_Node000011"><a xlink:href="CCSDSDataField_8h.html" target="_top" xlink:title=" ">
<polygon fill="white" stroke="#666666" points="472,-349 367,-349 367,-330 472,-330 472,-349"/>
<text text-anchor="middle" x="419.5" y="-337" font-family="Helvetica,sans-Serif" font-size="10.00">CCSDSDataField.h</text>
</a>
</g>
</g>
<!-- Node3&#45;&gt;Node11 -->
<g id="edge14_Node000003_Node000011" class="edge">
<title>Node3&#45;&gt;Node11</title>
<g id="a_edge14_Node000003_Node000011"><a xlink:title=" ">
<path fill="none" stroke="#63b8ff" d="M218.06,-384.98C259.57,-375.82 325.71,-361.21 370.79,-351.26"/>
<polygon fill="#63b8ff" stroke="#63b8ff" points="371.63,-354.66 380.64,-349.08 370.12,-347.82 371.63,-354.66"/>
</a>
</g>
</g>
<!-- Node5 -->
<g id="Node000005" class="node">
<title>Node5</title>
<g id="a_Node000005"><a xlink:title=" ">
<polygon fill="#e0e0e0" stroke="#999999" points="430,-19 337,-19 337,0 430,0 430,-19"/>
<text text-anchor="middle" x="383.5" y="-7" font-family="Helvetica,sans-Serif" font-size="10.00">unordered_map</text>
</a>
</g>
</g>
<!-- Node4&#45;&gt;Node5 -->
<g id="edge4_Node000004_Node000005" class="edge">
<title>Node4&#45;&gt;Node5</title>
<g id="a_edge4_Node000004_Node000005"><a xlink:title=" ">
<path fill="none" stroke="#63b8ff" d="M250.89,-54.98C277.3,-46.13 318.85,-32.19 348.39,-22.28"/>
<polygon fill="#63b8ff" stroke="#63b8ff" points="349.55,-25.58 357.92,-19.08 347.32,-18.94 349.55,-25.58"/>
</a>
</g>
</g>
<!-- Node6 -->
<g id="Node000006" class="node">
<title>Node6</title>
<g id="a_Node000006"><a xlink:title=" ">
<polygon fill="#e0e0e0" stroke="#999999" points="172,-19 121,-19 121,0 172,0 172,-19"/>
<text text-anchor="middle" x="146.5" y="-7" font-family="Helvetica,sans-Serif" font-size="10.00">variant</text>
</a>
</g>
</g>
<!-- Node4&#45;&gt;Node6 -->
<g id="edge5_Node000004_Node000006" class="edge">
<title>Node4&#45;&gt;Node6</title>
<g id="a_edge5_Node000004_Node000006"><a xlink:title=" ">
<path fill="none" stroke="#63b8ff" d="M212.81,-54.98C200.67,-46.84 182.14,-34.41 167.75,-24.76"/>
<polygon fill="#63b8ff" stroke="#63b8ff" points="169.68,-21.84 159.42,-19.17 165.78,-27.65 169.68,-21.84"/>
</a>
</g>
</g>
<!-- Node4&#45;&gt;Node7 -->
<g id="edge6_Node000004_Node000007" class="edge">
<title>Node4&#45;&gt;Node7</title>
<g id="a_edge6_Node000004_Node000007"><a xlink:title=" ">
<path fill="none" stroke="#63b8ff" d="M269.92,-55C311.19,-46.93 374.59,-34.13 438.01,-19.26"/>
<polygon fill="#63b8ff" stroke="#63b8ff" points="438.84,-22.66 447.77,-16.96 437.23,-15.85 438.84,-22.66"/>
</a>
</g>
</g>
<!-- Node8 -->
<g id="Node000008" class="node">
<title>Node8</title>
<g id="a_Node000008"><a xlink:title=" ">
<polygon fill="#e0e0e0" stroke="#999999" points="318.5,-19 268.5,-19 268.5,0 318.5,0 318.5,-19"/>
<text text-anchor="middle" x="293.5" y="-7" font-family="Helvetica,sans-Serif" font-size="10.00">cstdint</text>
</a>
</g>
</g>
<!-- Node4&#45;&gt;Node8 -->
<g id="edge7_Node000004_Node000008" class="edge">
<title>Node4&#45;&gt;Node8</title>
<g id="a_edge7_Node000004_Node000008"><a xlink:title=" ">
<path fill="none" stroke="#63b8ff" d="M236.43,-54.98C246.58,-47.07 261.92,-35.11 274.15,-25.58"/>
<polygon fill="#63b8ff" stroke="#63b8ff" points="276.64,-28.08 282.38,-19.17 272.34,-22.56 276.64,-28.08"/>
</a>
</g>
</g>
<!-- Node9 -->
<g id="Node000009" class="node">
<title>Node9</title>
<g id="a_Node000009"><a xlink:title=" ">
<polygon fill="#e0e0e0" stroke="#999999" points="250.5,-19 190.5,-19 190.5,0 250.5,0 250.5,-19"/>
<text text-anchor="middle" x="220.5" y="-7" font-family="Helvetica,sans-Serif" font-size="10.00">iostream</text>
</a>
</g>
</g>
<!-- Node4&#45;&gt;Node9 -->
<g id="edge8_Node000004_Node000009" class="edge">
<title>Node4&#45;&gt;Node9</title>
<g id="a_edge8_Node000004_Node000009"><a xlink:title=" ">
<path fill="none" stroke="#63b8ff" d="M224.67,-54.75C224.02,-47.8 223.08,-37.85 222.26,-29.13"/>
<polygon fill="#63b8ff" stroke="#63b8ff" points="225.73,-28.72 221.31,-19.09 218.77,-29.37 225.73,-28.72"/>
</a>
</g>
</g>
<!-- Node10&#45;&gt;Node4 -->
<g id="edge11_Node000010_Node000004" class="edge">
<title>Node10&#45;&gt;Node4</title>
<g id="a_edge11_Node000010_Node000004"><a xlink:title=" ">
<path fill="none" stroke="#63b8ff" d="M75.26,-109.98C105.44,-101.05 153.07,-86.94 186.6,-77.02"/>
<polygon fill="#63b8ff" stroke="#63b8ff" points="187.92,-80.28 196.52,-74.08 185.93,-73.57 187.92,-80.28"/>
</a>
</g>
</g>
<!-- Node10&#45;&gt;Node7 -->
<g id="edge13_Node000010_Node000007" class="edge">
<title>Node10&#45;&gt;Node7</title>
<g id="a_edge13_Node000010_Node000007"><a xlink:title=" ">
<path fill="none" stroke="#63b8ff" d="M59.85,-109.88C82.18,-95.89 128.98,-68.48 172.5,-55 283.75,-20.54 320.09,-41.21 437.7,-19.11"/>
<polygon fill="#63b8ff" stroke="#63b8ff" points="438.66,-22.49 447.81,-17.15 437.33,-15.62 438.66,-22.49"/>
</a>
</g>
</g>
<!-- Node10&#45;&gt;Node8 -->
<g id="edge12_Node000010_Node000008" class="edge">
<title>Node10&#45;&gt;Node8</title>
<g id="a_edge12_Node000010_Node000008"><a xlink:title=" ">
<path fill="none" stroke="#63b8ff" d="M54.08,-109.66C66.39,-95.88 92.13,-69.36 119.5,-55 121.07,-54.18 208.32,-32.04 258.65,-19.31"/>
<polygon fill="#63b8ff" stroke="#63b8ff" points="259.65,-22.66 268.49,-16.82 257.94,-15.88 259.65,-22.66"/>
</a>
</g>
</g>
<!-- Node11&#45;&gt;Node4 -->
<g id="edge15_Node000011_Node000004" class="edge">
<title>Node11&#45;&gt;Node4</title>
<g id="a_edge15_Node000011_Node000004"><a xlink:title=" ">
<path fill="none" stroke="#63b8ff" d="M366.89,-335.43C301.24,-328.43 197.5,-305.51 197.5,-230.5 197.5,-230.5 197.5,-230.5 197.5,-173.5 197.5,-141.02 209.51,-104.76 217.8,-83.6"/>
<polygon fill="#63b8ff" stroke="#63b8ff" points="221.07,-84.84 221.61,-74.26 214.59,-82.2 221.07,-84.84"/>
</a>
</g>
</g>
<!-- Node11&#45;&gt;Node7 -->
<g id="edge16_Node000011_Node000007" class="edge">
<title>Node11&#45;&gt;Node7</title>
<g id="a_edge16_Node000011_Node000007"><a xlink:title=" ">
<path fill="none" stroke="#63b8ff" d="M472.15,-332.33C565.32,-319.94 749.5,-288.14 749.5,-230.5 749.5,-230.5 749.5,-230.5 749.5,-118.5 749.5,-66.68 579.56,-29.87 505.41,-16.28"/>
<polygon fill="#63b8ff" stroke="#63b8ff" points="505.66,-12.77 495.2,-14.44 504.42,-19.66 505.66,-12.77"/>
</a>
</g>
</g>
<!-- Node12 -->
<g id="Node000012" class="node">
<title>Node12</title>
<g id="a_Node000012"><a xlink:title=" ">
<polygon fill="#e0e0e0" stroke="#999999" points="721.5,-184 663.5,-184 663.5,-165 721.5,-165 721.5,-184"/>
<text text-anchor="middle" x="692.5" y="-172" font-family="Helvetica,sans-Serif" font-size="10.00">memory</text>
</a>
</g>
</g>
<!-- Node11&#45;&gt;Node12 -->
<g id="edge17_Node000011_Node000012" class="edge">
<title>Node11&#45;&gt;Node12</title>
<g id="a_edge17_Node000011_Node000012"><a xlink:title=" ">
<path fill="none" stroke="#63b8ff" d="M472.04,-334.25C532.97,-326.33 631.66,-303.69 683.5,-239 693.4,-226.65 695.08,-208.43 694.62,-194.67"/>
<polygon fill="#63b8ff" stroke="#63b8ff" points="698.08,-194.1 693.86,-184.39 691.1,-194.62 698.08,-194.1"/>
</a>
</g>
</g>
<!-- Node13 -->
<g id="Node000013" class="node">
<title>Node13</title>
<g id="a_Node000013"><a xlink:href="CCSDSSecondaryHeaderAbstract_8h.html" target="_top" xlink:title=" ">
<polygon fill="white" stroke="#666666" points="448,-184 263,-184 263,-165 448,-165 448,-184"/>
<text text-anchor="middle" x="355.5" y="-172" font-family="Helvetica,sans-Serif" font-size="10.00">CCSDSSecondaryHeaderAbstract.h</text>
</a>
</g>
</g>
<!-- Node11&#45;&gt;Node13 -->
<g id="edge18_Node000011_Node000013" class="edge">
<title>Node11&#45;&gt;Node13</title>
<g id="a_edge18_Node000011_Node000013"><a xlink:title=" ">
<path fill="none" stroke="#63b8ff" d="M404.71,-329.97C392.77,-322.22 376.66,-309.62 368.5,-294 351.79,-262.01 351.81,-218.62 353.53,-194.2"/>
<polygon fill="#63b8ff" stroke="#63b8ff" points="357.02,-194.41 354.41,-184.15 350.05,-193.8 357.02,-194.41"/>
</a>
</g>
</g>
<!-- Node16 -->
<g id="Node000016" class="node">
<title>Node16</title>
<g id="a_Node000016"><a xlink:href="CCSDSSecondaryHeaderFactory_8h.html" target="_top" xlink:title=" ">
<polygon fill="white" stroke="#666666" points="674,-239 495,-239 495,-220 674,-220 674,-239"/>
<text text-anchor="middle" x="584.5" y="-227" font-family="Helvetica,sans-Serif" font-size="10.00">CCSDSSecondaryHeaderFactory.h</text>
</a>
</g>
</g>
<!-- Node11&#45;&gt;Node16 -->
<g id="edge27_Node000011_Node000016" class="edge">
<title>Node11&#45;&gt;Node16</title>
<g id="a_edge27_Node000011_Node000016"><a xlink:title=" ">
<path fill="none" stroke="#63b8ff" d="M432.72,-329.84C461.08,-311.28 527.99,-267.49 562.72,-244.75"/>
<polygon fill="#63b8ff" stroke="#63b8ff" points="564.76,-247.6 571.21,-239.2 560.93,-241.74 564.76,-247.6"/>
</a>
</g>
</g>
<!-- Node18 -->
<g id="Node000018" class="node">
<title>Node18</title>
<g id="a_Node000018"><a xlink:href="PusServices_8h.html" target="_top" xlink:title=" ">
<polygon fill="white" stroke="#666666" points="461.5,-294 377.5,-294 377.5,-275 461.5,-275 461.5,-294"/>
<text text-anchor="middle" x="419.5" y="-282" font-family="Helvetica,sans-Serif" font-size="10.00">PusServices.h</text>
</a>
</g>
</g>
<!-- Node11&#45;&gt;Node18 -->
<g id="edge33_Node000011_Node000018" class="edge">
<title>Node11&#45;&gt;Node18</title>
<g id="a_edge33_Node000011_Node000018"><a xlink:title=" ">
<path fill="none" stroke="#63b8ff" d="M419.5,-329.75C419.5,-322.8 419.5,-312.85 419.5,-304.13"/>
<polygon fill="#63b8ff" stroke="#63b8ff" points="423,-304.09 419.5,-294.09 416,-304.09 423,-304.09"/>
</a>
</g>
</g>
<!-- Node13&#45;&gt;Node4 -->
<g id="edge19_Node000013_Node000004" class="edge">
<title>Node13&#45;&gt;Node4</title>
<g id="a_edge19_Node000013_Node000004"><a xlink:title=" ">
<path fill="none" stroke="#63b8ff" d="M344.86,-164.66C322.66,-146.22 271.17,-103.45 243.64,-80.57"/>
<polygon fill="#63b8ff" stroke="#63b8ff" points="245.85,-77.86 235.92,-74.16 241.38,-83.24 245.85,-77.86"/>
</a>
</g>
</g>
<!-- Node13&#45;&gt;Node7 -->
<g id="edge25_Node000013_Node000007" class="edge">
<title>Node13&#45;&gt;Node7</title>
<g id="a_edge25_Node000013_Node000007"><a xlink:title=" ">
<path fill="none" stroke="#63b8ff" d="M361.74,-164.74C380.15,-138.87 434.51,-62.48 459.13,-27.88"/>
<polygon fill="#63b8ff" stroke="#63b8ff" points="462.29,-29.48 465.23,-19.31 456.58,-25.43 462.29,-29.48"/>
</a>
</g>
</g>
<!-- Node13&#45;&gt;Node8 -->
<g id="edge26_Node000013_Node000008" class="edge">
<title>Node13&#45;&gt;Node8</title>
<g id="a_edge26_Node000013_Node000008"><a xlink:title=" ">
<path fill="none" stroke="#63b8ff" d="M352.17,-164.74C342.41,-139.09 313.77,-63.78 300.45,-28.78"/>
<polygon fill="#63b8ff" stroke="#63b8ff" points="303.68,-27.41 296.85,-19.31 297.13,-29.9 303.68,-27.41"/>
</a>
</g>
</g>
<!-- Node14 -->
<g id="Node000014" class="node">
<title>Node14</title>
<g id="a_Node000014"><a xlink:href="CCSDSConfig_8h.html" target="_top" xlink:title=" ">
<polygon fill="white" stroke="#666666" points="508,-129 419,-129 419,-110 508,-110 508,-129"/>
<text text-anchor="middle" x="463.5" y="-117" font-family="Helvetica,sans-Serif" font-size="10.00">CCSDSConfig.h</text>
</a>
</g>
</g>
<!-- Node13&#45;&gt;Node14 -->
<g id="edge20_Node000013_Node000014" class="edge">
<title>Node13&#45;&gt;Node14</title>
<g id="a_edge20_Node000013_Node000014"><a xlink:title=" ">
<path fill="none" stroke="#63b8ff" d="M372.85,-164.98C390.07,-156.54 416.7,-143.47 436.65,-133.68"/>
<polygon fill="#63b8ff" stroke="#63b8ff" points="438.4,-136.72 445.83,-129.17 435.31,-130.43 438.4,-136.72"/>
</a>
</g>
</g>
<!-- Node14&#45;&gt;Node4 -->
<g id="edge24_Node000014_Node000004" class="edge">
<title>Node14&#45;&gt;Node4</title>
<g id="a_edge24_Node000014_Node000004"><a xlink:title=" ">
<path fill="none" stroke="#63b8ff" d="M425.26,-109.98C384.09,-100.82 318.51,-86.21 273.8,-76.26"/>
<polygon fill="#63b8ff" stroke="#63b8ff" points="274.56,-72.84 264.04,-74.08 273.04,-79.67 274.56,-72.84"/>
</a>
</g>
</g>
<!-- Node14&#45;&gt;Node7 -->
<g id="edge23_Node000014_Node000007" class="edge">
<title>Node14&#45;&gt;Node7</title>
<g id="a_edge23_Node000014_Node000007"><a xlink:title=" ">
<path fill="none" stroke="#63b8ff" d="M464.15,-109.66C465.45,-92.17 468.37,-52.8 470.11,-29.27"/>
<polygon fill="#63b8ff" stroke="#63b8ff" points="473.61,-29.39 470.86,-19.16 466.63,-28.87 473.61,-29.39"/>
</a>
</g>
</g>
<!-- Node14&#45;&gt;Node8 -->
<g id="edge22_Node000014_Node000008" class="edge">
<title>Node14&#45;&gt;Node8</title>
<g id="a_edge22_Node000014_Node000008"><a xlink:title=" ">
<path fill="none" stroke="#63b8ff" d="M449.88,-109.84C420.66,-91.28 351.72,-47.49 315.94,-24.75"/>
<polygon fill="#63b8ff" stroke="#63b8ff" points="317.51,-21.6 307.19,-19.2 313.75,-27.51 317.51,-21.6"/>
</a>
</g>
</g>
<!-- Node15 -->
<g id="Node000015" class="node">
<title>Node15</title>
<g id="a_Node000015"><a xlink:title=" ">
<polygon fill="#e0e0e0" stroke="#999999" points="577.5,-74 533.5,-74 533.5,-55 577.5,-55 577.5,-74"/>
<text text-anchor="middle" x="555.5" y="-62" font-family="Helvetica,sans-Serif" font-size="10.00">string</text>
</a>
</g>
</g>
<!-- Node14&#45;&gt;Node15 -->
<g id="edge21_Node000014_Node000015" class="edge">
<title>Node14&#45;&gt;Node15</title>
<g id="a_edge21_Node000014_Node000015"><a xlink:title=" ">
<path fill="none" stroke="#63b8ff" d="M478.28,-109.98C492.68,-101.69 514.81,-88.94 531.69,-79.22"/>
<polygon fill="#63b8ff" stroke="#63b8ff" points="533.53,-82.19 540.45,-74.17 530.04,-76.13 533.53,-82.19"/>
</a>
</g>
</g>
<!-- Node16&#45;&gt;Node5 -->
<g id="edge29_Node000016_Node000005" class="edge">
<title>Node16&#45;&gt;Node5</title>
<g id="a_edge29_Node000016_Node000005"><a xlink:title=" ">
<path fill="none" stroke="#63b8ff" d="M588.03,-219.97C598.88,-192.29 628.48,-103.92 586.5,-55 576.91,-43.83 497.05,-28.82 440.41,-19.4"/>
<polygon fill="#63b8ff" stroke="#63b8ff" points="440.91,-15.94 430.47,-17.77 439.77,-22.84 440.91,-15.94"/>
</a>
</g>
</g>
<!-- Node16&#45;&gt;Node12 -->
<g id="edge28_Node000016_Node000012" class="edge">
<title>Node16&#45;&gt;Node12</title>
<g id="a_edge28_Node000016_Node000012"><a xlink:title=" ">
<path fill="none" stroke="#63b8ff" d="M601.85,-219.98C619.07,-211.54 645.7,-198.47 665.65,-188.68"/>
<polygon fill="#63b8ff" stroke="#63b8ff" points="667.4,-191.72 674.83,-184.17 664.31,-185.43 667.4,-191.72"/>
</a>
</g>
</g>
<!-- Node16&#45;&gt;Node13 -->
<g id="edge32_Node000016_Node000013" class="edge">
<title>Node16&#45;&gt;Node13</title>
<g id="a_edge32_Node000016_Node000013"><a xlink:title=" ">
<path fill="none" stroke="#63b8ff" d="M547.71,-219.98C508.26,-210.86 445.52,-196.33 402.52,-186.38"/>
<polygon fill="#63b8ff" stroke="#63b8ff" points="403.11,-182.93 392.58,-184.08 401.53,-189.75 403.11,-182.93"/>
</a>
</g>
</g>
<!-- Node16&#45;&gt;Node15 -->
<g id="edge31_Node000016_Node000015" class="edge">
<title>Node16&#45;&gt;Node15</title>
<g id="a_edge31_Node000016_Node000015"><a xlink:title=" ">
<path fill="none" stroke="#63b8ff" d="M584.05,-219.83C583.32,-207.56 581.65,-184.46 578.5,-165 573.88,-136.49 565.82,-103.96 560.58,-84.08"/>
<polygon fill="#63b8ff" stroke="#63b8ff" points="563.9,-82.96 557.93,-74.21 557.14,-84.77 563.9,-82.96"/>
</a>
</g>
</g>
<!-- Node17 -->
<g id="Node000017" class="node">
<title>Node17</title>
<g id="a_Node000017"><a xlink:title=" ">
<polygon fill="#e0e0e0" stroke="#999999" points="569,-184 504,-184 504,-165 569,-165 569,-184"/>
<text text-anchor="middle" x="536.5" y="-172" font-family="Helvetica,sans-Serif" font-size="10.00">functional</text>
</a>
</g>
</g>
<!-- Node16&#45;&gt;Node17 -->
<g id="edge30_Node000016_Node000017" class="edge">
<title>Node16&#45;&gt;Node17</title>
<g id="a_edge30_Node000016_Node000017"><a xlink:title=" ">
<path fill="none" stroke="#63b8ff" d="M576.57,-219.75C569.65,-212.11 559.43,-200.82 551.05,-191.56"/>
<polygon fill="#63b8ff" stroke="#63b8ff" points="553.59,-189.15 544.28,-184.09 548.4,-193.85 553.59,-189.15"/>
</a>
</g>
</g>
<!-- Node18&#45;&gt;Node4 -->
<g id="edge36_Node000018_Node000004" class="edge">
<title>Node18&#45;&gt;Node4</title>
<g id="a_edge36_Node000018_Node000004"><a xlink:title=" ">
<path fill="none" stroke="#63b8ff" d="M393.02,-274.89C356.14,-261.5 289.87,-232.1 254.5,-184 232.51,-154.1 227.04,-109.6 225.77,-84.51"/>
<polygon fill="#63b8ff" stroke="#63b8ff" points="229.26,-84.06 225.44,-74.18 222.26,-84.29 229.26,-84.06"/>
</a>
</g>
</g>
<!-- Node18&#45;&gt;Node13 -->
<g id="edge34_Node000018_Node000013" class="edge">
<title>Node18&#45;&gt;Node13</title>
<g id="a_edge34_Node000018_Node000013"><a xlink:title=" ">
<path fill="none" stroke="#63b8ff" d="M414.26,-274.66C403.71,-256.85 379.72,-216.37 365.87,-193.01"/>
<polygon fill="#63b8ff" stroke="#63b8ff" points="368.74,-190.98 360.63,-184.16 362.72,-194.55 368.74,-190.98"/>
</a>
</g>
</g>
<!-- Node18&#45;&gt;Node14 -->
<g id="edge37_Node000018_Node000014" class="edge">
<title>Node18&#45;&gt;Node14</title>
<g id="a_edge37_Node000018_Node000014"><a xlink:title=" ">
<path fill="none" stroke="#63b8ff" d="M423.67,-274.97C431.72,-258.06 449.34,-218.93 457.5,-184 460.93,-169.3 462.41,-152.26 463.04,-139.53"/>
<polygon fill="#63b8ff" stroke="#63b8ff" points="466.55,-139.37 463.42,-129.25 459.56,-139.11 466.55,-139.37"/>
</a>
</g>
</g>
<!-- Node18&#45;&gt;Node16 -->
<g id="edge35_Node000018_Node000016" class="edge">
<title>Node18&#45;&gt;Node16</title>
<g id="a_edge35_Node000018_Node000016"><a xlink:title=" ">
<path fill="none" stroke="#63b8ff" d="M446.01,-274.98C473.71,-266.09 517.36,-252.07 548.24,-242.15"/>
<polygon fill="#63b8ff" stroke="#63b8ff" points="549.33,-245.47 557.78,-239.08 547.19,-238.81 549.33,-245.47"/>
</a>
</g>
</g>
<!-- Node19&#45;&gt;Node3 -->
<g id="edge40_Node000019_Node000003" class="edge">
<title>Node19&#45;&gt;Node3</title>
<g id="a_edge40_Node000019_Node000003"><a xlink:title=" ">
<path fill="none" stroke="#63b8ff" d="M197.03,-439.75C194.22,-432.65 190.16,-422.4 186.65,-413.56"/>
<polygon fill="#63b8ff" stroke="#63b8ff" points="189.84,-412.1 182.9,-404.09 183.33,-414.68 189.84,-412.1"/>
</a>
</g>
</g>
</g>
</svg>

<g id="navigator" transform="translate(0 0)" fill="#404254">
  <rect fill="#f2f5e9" fill-opacity="0.5" stroke="#606060" stroke-width=".5" x="0" y="0" width="60" height="60"/>
  <use id="zoomplus" xlink:href="#zoomPlus" x="17" y="9" onmousedown="handleZoom(evt,'in')"/>
  <use id="zoomminus" xlink:href="#zoomMin" x="42" y="9" onmousedown="handleZoom(evt,'out')"/>
  <use id="reset" xlink:href="#resetDef" x="30" y="36" onmousedown="handleReset()"/>
   <use id="arrowup" xlink:href="#arrowUp" x="0" y="0" onmousedown="handlePan(0,-1)"/>
  <use id="arrowright" xlink:href="#arrowRight" x="0" y="0" onmousedown="handlePan(1,0)"/>
  <use id="arrowdown" xlink:href="#arrowDown" x="0" y="0" onmousedown="handlePan(0,1)"/>
  <use id="arrowleft" xlink:href="#arrowLeft" x="0" y="0" onmousedown="handlePan(-1,0)"/>
</g>
<svg viewBox="0 0 15 15" width="100%" height="30px" preserveAspectRatio="xMaxYMin meet">
 <g id="arrow_out" transform="scale(0.3 0.3)">
  <a xlink:href="CCSDSManager_8h__incl_org.svg" target="_base">
   <rect id="button" ry="5" rx="5" y="6" x="6" height="38" width="38"
        fill="#f2f5e9" fill-opacity="0.5" stroke="#606060" stroke-width="1.0"/>
   <path id="arrow"
     d="M 11.500037,31.436501 C 11.940474,20.09759 22.043105,11.32322 32.158766,21.979434 L 37.068811,17.246167 C 37.068811,17.246167 37.088388,32 37.088388,32 L 22.160133,31.978069 C 22.160133,31.978069 26.997745,27.140456 26.997745,27.140456 C 18.528582,18.264221 13.291696,25.230495 11.500037,31.436501 z"
     style="fill:#404040;"/>
  </a>
 </g>
</svg>

<style type='text/css'>
<![CDATA[
[data-mouse-over-selected='false'] { opacity: 0.7; }
[data-mouse-over-selected='true']  { opacity: 1.0; }
]]>
</style>
<script type="application/ecmascript"><![CDATA[
document.addEventListener('DOMContentLoaded', (event) => {
  highlightEdges();
  highlightAdjacentNodes();
});
]]></script>
</svg>
