<?xml version="1.0" encoding="UTF-8" standalone="no"?>
<!DOCTYPE svg PUBLIC "-//W3C//DTD SVG 1.1//EN"
 "http://www.w3.org/Graphics/SVG/1.1/DTD/svg11.dtd">
<!-- Generated by graphviz version 2.43.0 (0)
 -->
<!-- Title: src/CCSDSManager.cpp Pages: 1 -->
<svg width="871pt" height="632pt"
 viewBox="0.00 0.00 871.00 632.00" xmlns="http://www.w3.org/2000/svg" xmlns:xlink="http://www.w3.org/1999/xlink">
<g id="graph0" class="graph" transform="scale(1 1) rotate(0) translate(4 628)">
<title>src/CCSDSManager.cpp</title>
<!-- Node1 -->
<g id="Node000001" class="node">
<title>Node1</title>
<g id="a_Node000001"><a xlink:title=" ">
<polygon fill="#999999" stroke="#666666" points="225.5,-624 96.5,-624 96.5,-605 225.5,-605 225.5,-624"/>
<text text-anchor="middle" x="161" y="-612" font-family="Helvetica,sans-Serif" font-size="10.00">src/CCSDSManager.cpp</text>
</a>
</g>
</g>
<!-- Node2 -->
<g id="Node000002" class="node">
<title>Node2</title>
<g id="a_Node000002"><a xlink:title=" ">
<polygon fill="#e0e0e0" stroke="#999999" points="54,-569 0,-569 0,-550 54,-550 54,-569"/>
<text text-anchor="middle" x="27" y="-557" font-family="Helvetica,sans-Serif" font-size="10.00">random</text>
</a>
</g>
</g>
<!-- Node1&#45;&gt;Node2 -->
<g id="edge1_Node000001_Node000002" class="edge">
<title>Node1&#45;&gt;Node2</title>
<g id="a_edge1_Node000001_Node000002"><a xlink:title=" ">
<path fill="none" stroke="#63b8ff" d="M139.47,-604.98C117.53,-596.3 83.26,-582.75 58.31,-572.88"/>
<polygon fill="#63b8ff" stroke="#63b8ff" points="59.51,-569.59 48.92,-569.17 56.93,-576.1 59.51,-569.59"/>
</a>
</g>
</g>
<!-- Node3 -->
<g id="Node000003" class="node">
<title>Node3</title>
<g id="a_Node000003"><a xlink:title=" ">
<polygon fill="#e0e0e0" stroke="#999999" points="54.5,-459 9.5,-459 9.5,-440 54.5,-440 54.5,-459"/>
<text text-anchor="middle" x="32" y="-447" font-family="Helvetica,sans-Serif" font-size="10.00">utility</text>
</a>
</g>
</g>
<!-- Node1&#45;&gt;Node3 -->
<g id="edge2_Node000001_Node000003" class="edge">
<title>Node1&#45;&gt;Node3</title>
<g id="a_edge2_Node000001_Node000003"><a xlink:title=" ">
<path fill="none" stroke="#63b8ff" d="M154.06,-604.74C133.5,-578.76 72.62,-501.83 45.41,-467.44"/>
<polygon fill="#63b8ff" stroke="#63b8ff" points="47.92,-464.98 38.97,-459.31 42.43,-469.32 47.92,-464.98"/>
</a>
</g>
</g>
<!-- Node4 -->
<g id="Node000004" class="node">
<title>Node4</title>
<g id="a_Node000004"><a xlink:title=" ">
<polygon fill="#e0e0e0" stroke="#999999" points="358,-569 294,-569 294,-550 358,-550 358,-569"/>
<text text-anchor="middle" x="326" y="-557" font-family="Helvetica,sans-Serif" font-size="10.00">algorithm</text>
</a>
</g>
</g>
<!-- Node1&#45;&gt;Node4 -->
<g id="edge3_Node000001_Node000004" class="edge">
<title>Node1&#45;&gt;Node4</title>
<g id="a_edge3_Node000001_Node000004"><a xlink:title=" ">
<path fill="none" stroke="#63b8ff" d="M187.51,-604.98C215.21,-596.09 258.86,-582.07 289.74,-572.15"/>
<polygon fill="#63b8ff" stroke="#63b8ff" points="290.83,-575.47 299.28,-569.08 288.69,-568.81 290.83,-575.47"/>
</a>
</g>
</g>
<!-- Node5 -->
<g id="Node000005" class="node">
<title>Node5</title>
<g id="a_Node000005"><a xlink:href="CCSDSManager_8h.html" target="_top" xlink:title=" ">
<polygon fill="white" stroke="#666666" points="211.5,-514 110.5,-514 110.5,-495 211.5,-495 211.5,-514"/>
<text text-anchor="middle" x="161" y="-502" font-family="Helvetica,sans-Serif" font-size="10.00">CCSDSManager.h</text>
</a>
</g>
</g>
<!-- Node1&#45;&gt;Node5 -->
<g id="edge4_Node000001_Node000005" class="edge">
<title>Node1&#45;&gt;Node5</title>
<g id="a_edge4_Node000001_Node000005"><a xlink:title=" ">
<path fill="none" stroke="#63b8ff" d="M161,-604.66C161,-587.17 161,-547.8 161,-524.27"/>
<polygon fill="#63b8ff" stroke="#63b8ff" points="164.5,-524.16 161,-514.16 157.5,-524.16 164.5,-524.16"/>
</a>
</g>
</g>
<!-- Node23 -->
<g id="Node000023" class="node">
<title>Node23</title>
<g id="a_Node000023"><a xlink:href="CCSDSUtils_8h.html" target="_top" xlink:title=" ">
<polygon fill="white" stroke="#666666" points="275.5,-569 194.5,-569 194.5,-550 275.5,-550 275.5,-569"/>
<text text-anchor="middle" x="235" y="-557" font-family="Helvetica,sans-Serif" font-size="10.00">CCSDSUtils.h</text>
</a>
</g>
</g>
<!-- Node1&#45;&gt;Node23 -->
<g id="edge45_Node000001_Node000023" class="edge">
<title>Node1&#45;&gt;Node23</title>
<g id="a_edge45_Node000001_Node000023"><a xlink:title=" ">
<path fill="none" stroke="#63b8ff" d="M172.89,-604.98C184.15,-596.92 201.29,-584.65 214.71,-575.03"/>
<polygon fill="#63b8ff" stroke="#63b8ff" points="216.8,-577.84 222.89,-569.17 212.73,-572.15 216.8,-577.84"/>
</a>
</g>
</g>
<!-- Node5&#45;&gt;Node3 -->
<g id="edge5_Node000005_Node000003" class="edge">
<title>Node5&#45;&gt;Node3</title>
<g id="a_edge5_Node000005_Node000003"><a xlink:title=" ">
<path fill="none" stroke="#63b8ff" d="M140.27,-494.98C119.24,-486.34 86.45,-472.87 62.46,-463.02"/>
<polygon fill="#63b8ff" stroke="#63b8ff" points="63.68,-459.73 53.1,-459.17 61.02,-466.21 63.68,-459.73"/>
</a>
</g>
</g>
<!-- Node6 -->
<g id="Node000006" class="node">
<title>Node6</title>
<g id="a_Node000006"><a xlink:href="CCSDSPacket_8h.html" target="_top" xlink:title=" ">
<polygon fill="white" stroke="#666666" points="245,-404 155,-404 155,-385 245,-385 245,-404"/>
<text text-anchor="middle" x="200" y="-392" font-family="Helvetica,sans-Serif" font-size="10.00">CCSDSPacket.h</text>
</a>
</g>
</g>
<!-- Node5&#45;&gt;Node6 -->
<g id="edge6_Node000005_Node000006" class="edge">
<title>Node5&#45;&gt;Node6</title>
<g id="a_edge6_Node000005_Node000006"><a xlink:title=" ">
<path fill="none" stroke="#63b8ff" d="M154.06,-494.97C144.8,-482.48 130.6,-458.67 140,-440 146.69,-426.71 159.44,-416.39 171.47,-409.05"/>
<polygon fill="#63b8ff" stroke="#63b8ff" points="173.42,-411.97 180.42,-404.02 169.99,-405.87 173.42,-411.97"/>
</a>
</g>
</g>
<!-- Node7 -->
<g id="Node000007" class="node">
<title>Node7</title>
<g id="a_Node000007"><a xlink:href="CCSDSResult_8h.html" target="_top" xlink:title=" ">
<polygon fill="white" stroke="#666666" points="279.5,-74 190.5,-74 190.5,-55 279.5,-55 279.5,-74"/>
<text text-anchor="middle" x="235" y="-62" font-family="Helvetica,sans-Serif" font-size="10.00">CCSDSResult.h</text>
</a>
</g>
</g>
<!-- Node5&#45;&gt;Node7 -->
<g id="edge42_Node000005_Node000007" class="edge">
<title>Node5&#45;&gt;Node7</title>
<g id="a_edge42_Node000005_Node000007"><a xlink:title=" ">
<path fill="none" stroke="#63b8ff" d="M148.81,-494.95C126.88,-478.45 83,-439.91 83,-395.5 83,-395.5 83,-395.5 83,-173.5 83,-120.83 144.39,-91.49 189.14,-77.09"/>
<polygon fill="#63b8ff" stroke="#63b8ff" points="190.44,-80.36 198.98,-74.08 188.39,-73.66 190.44,-80.36"/>
</a>
</g>
</g>
<!-- Node22 -->
<g id="Node000022" class="node">
<title>Node22</title>
<g id="a_Node000022"><a xlink:href="CCSDSValidator_8h.html" target="_top" xlink:title="Defines the Validator class for CCSDS packet validation.">
<polygon fill="white" stroke="#666666" points="250.5,-459 149.5,-459 149.5,-440 250.5,-440 250.5,-459"/>
<text text-anchor="middle" x="200" y="-447" font-family="Helvetica,sans-Serif" font-size="10.00">CCSDSValidator.h</text>
</a>
</g>
</g>
<!-- Node5&#45;&gt;Node22 -->
<g id="edge43_Node000005_Node000022" class="edge">
<title>Node5&#45;&gt;Node22</title>
<g id="a_edge43_Node000005_Node000022"><a xlink:title=" ">
<path fill="none" stroke="#63b8ff" d="M167.44,-494.75C172.89,-487.34 180.86,-476.5 187.56,-467.41"/>
<polygon fill="#63b8ff" stroke="#63b8ff" points="190.57,-469.22 193.68,-459.09 184.93,-465.07 190.57,-469.22"/>
</a>
</g>
</g>
<!-- Node6&#45;&gt;Node7 -->
<g id="edge7_Node000006_Node000007" class="edge">
<title>Node6&#45;&gt;Node7</title>
<g id="a_edge7_Node000006_Node000007"><a xlink:title=" ">
<path fill="none" stroke="#63b8ff" d="M187.66,-384.99C165.44,-368.55 121,-330.1 121,-285.5 121,-285.5 121,-285.5 121,-173.5 121,-127.47 170.58,-95.18 204.35,-78.53"/>
<polygon fill="#63b8ff" stroke="#63b8ff" points="206.28,-81.49 213.82,-74.05 203.29,-75.16 206.28,-81.49"/>
</a>
</g>
</g>
<!-- Node9 -->
<g id="Node000009" class="node">
<title>Node9</title>
<g id="a_Node000009"><a xlink:title=" ">
<polygon fill="#e0e0e0" stroke="#999999" points="522.5,-19 475.5,-19 475.5,0 522.5,0 522.5,-19"/>
<text text-anchor="middle" x="499" y="-7" font-family="Helvetica,sans-Serif" font-size="10.00">vector</text>
</a>
</g>
</g>
<!-- Node6&#45;&gt;Node9 -->
<g id="edge12_Node000006_Node000009" class="edge">
<title>Node6&#45;&gt;Node9</title>
<g id="a_edge12_Node000006_Node000009"><a xlink:title=" ">
<path fill="none" stroke="#63b8ff" d="M245.09,-389.97C382.54,-378.62 787,-340.55 787,-285.5 787,-285.5 787,-285.5 787,-118.5 787,-82.85 768.41,-73.6 738,-55 704.02,-34.22 590.22,-19.89 532.78,-13.8"/>
<polygon fill="#63b8ff" stroke="#63b8ff" points="533.05,-10.31 522.74,-12.76 532.32,-17.27 533.05,-10.31"/>
</a>
</g>
</g>
<!-- Node12 -->
<g id="Node000012" class="node">
<title>Node12</title>
<g id="a_Node000012"><a xlink:href="CCSDSHeader_8h.html" target="_top" xlink:title=" ">
<polygon fill="white" stroke="#666666" points="356.5,-129 263.5,-129 263.5,-110 356.5,-110 356.5,-129"/>
<text text-anchor="middle" x="310" y="-117" font-family="Helvetica,sans-Serif" font-size="10.00">CCSDSHeader.h</text>
</a>
</g>
</g>
<!-- Node6&#45;&gt;Node12 -->
<g id="edge13_Node000006_Node000012" class="edge">
<title>Node6&#45;&gt;Node12</title>
<g id="a_edge13_Node000006_Node000012"><a xlink:title=" ">
<path fill="none" stroke="#63b8ff" d="M199.6,-384.82C198.78,-366.49 197,-322.45 197,-285.5 197,-285.5 197,-285.5 197,-228.5 197,-182.68 246.15,-150.32 279.62,-133.6"/>
<polygon fill="#63b8ff" stroke="#63b8ff" points="281.5,-136.58 289.01,-129.11 278.48,-130.27 281.5,-136.58"/>
</a>
</g>
</g>
<!-- Node13 -->
<g id="Node000013" class="node">
<title>Node13</title>
<g id="a_Node000013"><a xlink:href="CCSDSDataField_8h.html" target="_top" xlink:title=" ">
<polygon fill="white" stroke="#666666" points="463.5,-349 358.5,-349 358.5,-330 463.5,-330 463.5,-349"/>
<text text-anchor="middle" x="411" y="-337" font-family="Helvetica,sans-Serif" font-size="10.00">CCSDSDataField.h</text>
</a>
</g>
</g>
<!-- Node6&#45;&gt;Node13 -->
<g id="edge17_Node000006_Node000013" class="edge">
<title>Node6&#45;&gt;Node13</title>
<g id="a_edge17_Node000006_Node000013"><a xlink:title=" ">
<path fill="none" stroke="#63b8ff" d="M233.9,-384.98C270.02,-375.91 327.32,-361.52 366.92,-351.57"/>
<polygon fill="#63b8ff" stroke="#63b8ff" points="367.99,-354.91 376.83,-349.08 366.28,-348.12 367.99,-354.91"/>
</a>
</g>
</g>
<!-- Node8 -->
<g id="Node000008" class="node">
<title>Node8</title>
<g id="a_Node000008"><a xlink:title=" ">
<polygon fill="#e0e0e0" stroke="#999999" points="271.5,-19 220.5,-19 220.5,0 271.5,0 271.5,-19"/>
<text text-anchor="middle" x="246" y="-7" font-family="Helvetica,sans-Serif" font-size="10.00">variant</text>
</a>
</g>
</g>
<!-- Node7&#45;&gt;Node8 -->
<g id="edge8_Node000007_Node000008" class="edge">
<title>Node7&#45;&gt;Node8</title>
<g id="a_edge8_Node000007_Node000008"><a xlink:title=" ">
<path fill="none" stroke="#63b8ff" d="M236.82,-54.75C238.26,-47.8 240.32,-37.85 242.13,-29.13"/>
<polygon fill="#63b8ff" stroke="#63b8ff" points="245.61,-29.59 244.22,-19.09 238.76,-28.17 245.61,-29.59"/>
</a>
</g>
</g>
<!-- Node7&#45;&gt;Node9 -->
<g id="edge9_Node000007_Node000009" class="edge">
<title>Node7&#45;&gt;Node9</title>
<g id="a_edge9_Node000007_Node000009"><a xlink:title=" ">
<path fill="none" stroke="#63b8ff" d="M277.42,-54.98C329.7,-44.49 417.47,-26.87 465.36,-17.25"/>
<polygon fill="#63b8ff" stroke="#63b8ff" points="466.11,-20.67 475.22,-15.27 464.73,-13.81 466.11,-20.67"/>
</a>
</g>
</g>
<!-- Node10 -->
<g id="Node000010" class="node">
<title>Node10</title>
<g id="a_Node000010"><a xlink:title=" ">
<polygon fill="#e0e0e0" stroke="#999999" points="361,-19 311,-19 311,0 361,0 361,-19"/>
<text text-anchor="middle" x="336" y="-7" font-family="Helvetica,sans-Serif" font-size="10.00">cstdint</text>
</a>
</g>
</g>
<!-- Node7&#45;&gt;Node10 -->
<g id="edge10_Node000007_Node000010" class="edge">
<title>Node7&#45;&gt;Node10</title>
<g id="a_edge10_Node000007_Node000010"><a xlink:title=" ">
<path fill="none" stroke="#63b8ff" d="M251.23,-54.98C267.18,-46.61 291.78,-33.7 310.38,-23.95"/>
<polygon fill="#63b8ff" stroke="#63b8ff" points="312.25,-26.92 319.48,-19.17 309,-20.72 312.25,-26.92"/>
</a>
</g>
</g>
<!-- Node11 -->
<g id="Node000011" class="node">
<title>Node11</title>
<g id="a_Node000011"><a xlink:title=" ">
<polygon fill="#e0e0e0" stroke="#999999" points="202,-19 142,-19 142,0 202,0 202,-19"/>
<text text-anchor="middle" x="172" y="-7" font-family="Helvetica,sans-Serif" font-size="10.00">iostream</text>
</a>
</g>
</g>
<!-- Node7&#45;&gt;Node11 -->
<g id="edge11_Node000007_Node000011" class="edge">
<title>Node7&#45;&gt;Node11</title>
<g id="a_edge11_Node000007_Node000011"><a xlink:title=" ">
<path fill="none" stroke="#63b8ff" d="M224.88,-54.98C215.56,-47.15 201.53,-35.34 190.26,-25.86"/>
<polygon fill="#63b8ff" stroke="#63b8ff" points="192.21,-22.93 182.31,-19.17 187.71,-28.29 192.21,-22.93"/>
</a>
</g>
</g>
<!-- Node12&#45;&gt;Node7 -->
<g id="edge14_Node000012_Node000007" class="edge">
<title>Node12&#45;&gt;Node7</title>
<g id="a_edge14_Node000012_Node000007"><a xlink:title=" ">
<path fill="none" stroke="#63b8ff" d="M297.95,-109.98C286.54,-101.92 269.17,-89.65 255.57,-80.03"/>
<polygon fill="#63b8ff" stroke="#63b8ff" points="257.46,-77.08 247.27,-74.17 253.42,-82.8 257.46,-77.08"/>
</a>
</g>
</g>
<!-- Node12&#45;&gt;Node9 -->
<g id="edge16_Node000012_Node000009" class="edge">
<title>Node12&#45;&gt;Node9</title>
<g id="a_edge16_Node000012_Node000009"><a xlink:title=" ">
<path fill="none" stroke="#63b8ff" d="M322.54,-109.82C341.06,-97.14 377.01,-73.1 409,-55 429.23,-43.56 452.79,-31.97 470.74,-23.48"/>
<polygon fill="#63b8ff" stroke="#63b8ff" points="472.5,-26.52 480.07,-19.11 469.53,-20.18 472.5,-26.52"/>
</a>
</g>
</g>
<!-- Node12&#45;&gt;Node10 -->
<g id="edge15_Node000012_Node000010" class="edge">
<title>Node12&#45;&gt;Node10</title>
<g id="a_edge15_Node000012_Node000010"><a xlink:title=" ">
<path fill="none" stroke="#63b8ff" d="M312.13,-109.66C316.36,-92.09 325.9,-52.45 331.56,-28.95"/>
<polygon fill="#63b8ff" stroke="#63b8ff" points="334.98,-29.7 333.92,-19.16 328.17,-28.06 334.98,-29.7"/>
</a>
</g>
</g>
<!-- Node13&#45;&gt;Node7 -->
<g id="edge18_Node000013_Node000007" class="edge">
<title>Node13&#45;&gt;Node7</title>
<g id="a_edge18_Node000013_Node000007"><a xlink:title=" ">
<path fill="none" stroke="#63b8ff" d="M395.61,-329.87C360.97,-309.54 276.97,-254.96 239,-184 222.06,-152.35 226.34,-108.83 230.8,-84.3"/>
<polygon fill="#63b8ff" stroke="#63b8ff" points="234.29,-84.7 232.84,-74.2 227.43,-83.31 234.29,-84.7"/>
</a>
</g>
</g>
<!-- Node13&#45;&gt;Node9 -->
<g id="edge19_Node000013_Node000009" class="edge">
<title>Node13&#45;&gt;Node9</title>
<g id="a_edge19_Node000013_Node000009"><a xlink:title=" ">
<path fill="none" stroke="#63b8ff" d="M463.81,-332.71C558.88,-320.82 749,-289.64 749,-230.5 749,-230.5 749,-230.5 749,-118.5 749,-25.38 601.01,-11.62 532.75,-10.22"/>
<polygon fill="#63b8ff" stroke="#63b8ff" points="532.56,-6.72 522.52,-10.1 532.47,-13.72 532.56,-6.72"/>
</a>
</g>
</g>
<!-- Node14 -->
<g id="Node000014" class="node">
<title>Node14</title>
<g id="a_Node000014"><a xlink:title=" ">
<polygon fill="#e0e0e0" stroke="#999999" points="721,-184 663,-184 663,-165 721,-165 721,-184"/>
<text text-anchor="middle" x="692" y="-172" font-family="Helvetica,sans-Serif" font-size="10.00">memory</text>
</a>
</g>
</g>
<!-- Node13&#45;&gt;Node14 -->
<g id="edge20_Node000013_Node000014" class="edge">
<title>Node13&#45;&gt;Node14</title>
<g id="a_edge20_Node000013_Node000014"><a xlink:title=" ">
<path fill="none" stroke="#63b8ff" d="M463.65,-332.4C522.74,-322.78 617.57,-298.58 673,-239 684.27,-226.89 688.87,-208.36 690.74,-194.43"/>
<polygon fill="#63b8ff" stroke="#63b8ff" points="694.27,-194.36 691.76,-184.06 687.3,-193.68 694.27,-194.36"/>
</a>
</g>
</g>
<!-- Node15 -->
<g id="Node000015" class="node">
<title>Node15</title>
<g id="a_Node000015"><a xlink:href="CCSDSSecondaryHeaderAbstract_8h.html" target="_top" xlink:title=" ">
<polygon fill="white" stroke="#666666" points="447.5,-184 262.5,-184 262.5,-165 447.5,-165 447.5,-184"/>
<text text-anchor="middle" x="355" y="-172" font-family="Helvetica,sans-Serif" font-size="10.00">CCSDSSecondaryHeaderAbstract.h</text>
</a>
</g>
</g>
<!-- Node13&#45;&gt;Node15 -->
<g id="edge21_Node000013_Node000015" class="edge">
<title>Node13&#45;&gt;Node15</title>
<g id="a_edge21_Node000013_Node000015"><a xlink:title=" ">
<path fill="none" stroke="#63b8ff" d="M395.45,-329.79C383.4,-322.1 367.53,-309.68 360,-294 344.45,-261.63 347.77,-218.38 351.46,-194.08"/>
<polygon fill="#63b8ff" stroke="#63b8ff" points="354.93,-194.54 353.17,-184.09 348.03,-193.36 354.93,-194.54"/>
</a>
</g>
</g>
<!-- Node19 -->
<g id="Node000019" class="node">
<title>Node19</title>
<g id="a_Node000019"><a xlink:href="CCSDSSecondaryHeaderFactory_8h.html" target="_top" xlink:title=" ">
<polygon fill="white" stroke="#666666" points="663.5,-239 484.5,-239 484.5,-220 663.5,-220 663.5,-239"/>
<text text-anchor="middle" x="574" y="-227" font-family="Helvetica,sans-Serif" font-size="10.00">CCSDSSecondaryHeaderFactory.h</text>
</a>
</g>
</g>
<!-- Node13&#45;&gt;Node19 -->
<g id="edge31_Node000013_Node000019" class="edge">
<title>Node13&#45;&gt;Node19</title>
<g id="a_edge31_Node000013_Node000019"><a xlink:title=" ">
<path fill="none" stroke="#63b8ff" d="M424.06,-329.84C452.08,-311.28 518.18,-267.49 552.49,-244.75"/>
<polygon fill="#63b8ff" stroke="#63b8ff" points="554.47,-247.64 560.87,-239.2 550.6,-241.8 554.47,-247.64"/>
</a>
</g>
</g>
<!-- Node21 -->
<g id="Node000021" class="node">
<title>Node21</title>
<g id="a_Node000021"><a xlink:href="PusServices_8h.html" target="_top" xlink:title=" ">
<polygon fill="white" stroke="#666666" points="453,-294 369,-294 369,-275 453,-275 453,-294"/>
<text text-anchor="middle" x="411" y="-282" font-family="Helvetica,sans-Serif" font-size="10.00">PusServices.h</text>
</a>
</g>
</g>
<!-- Node13&#45;&gt;Node21 -->
<g id="edge37_Node000013_Node000021" class="edge">
<title>Node13&#45;&gt;Node21</title>
<g id="a_edge37_Node000013_Node000021"><a xlink:title=" ">
<path fill="none" stroke="#63b8ff" d="M411,-329.75C411,-322.8 411,-312.85 411,-304.13"/>
<polygon fill="#63b8ff" stroke="#63b8ff" points="414.5,-304.09 411,-294.09 407.5,-304.09 414.5,-304.09"/>
</a>
</g>
</g>
<!-- Node15&#45;&gt;Node7 -->
<g id="edge22_Node000015_Node000007" class="edge">
<title>Node15&#45;&gt;Node7</title>
<g id="a_edge22_Node000015_Node000007"><a xlink:title=" ">
<path fill="none" stroke="#63b8ff" d="M317.15,-164.86C296.2,-158.27 271.2,-147.15 255,-129 244.06,-116.74 239.1,-98.51 236.86,-84.72"/>
<polygon fill="#63b8ff" stroke="#63b8ff" points="240.28,-83.89 235.54,-74.42 233.33,-84.78 240.28,-83.89"/>
</a>
</g>
</g>
<!-- Node15&#45;&gt;Node9 -->
<g id="edge23_Node000015_Node000009" class="edge">
<title>Node15&#45;&gt;Node9</title>
<g id="a_edge23_Node000015_Node000009"><a xlink:title=" ">
<path fill="none" stroke="#63b8ff" d="M362.74,-164.74C385.79,-138.65 454.24,-61.17 484.42,-27"/>
<polygon fill="#63b8ff" stroke="#63b8ff" points="487.22,-29.12 491.22,-19.31 481.98,-24.48 487.22,-29.12"/>
</a>
</g>
</g>
<!-- Node15&#45;&gt;Node10 -->
<g id="edge24_Node000015_Node000010" class="edge">
<title>Node15&#45;&gt;Node10</title>
<g id="a_edge24_Node000015_Node000010"><a xlink:title=" ">
<path fill="none" stroke="#63b8ff" d="M357.83,-164.75C360.55,-155.86 364.46,-141.64 366,-129 370.43,-92.65 355.25,-51.46 344.89,-28.47"/>
<polygon fill="#63b8ff" stroke="#63b8ff" points="347.99,-26.83 340.56,-19.27 341.66,-29.81 347.99,-26.83"/>
</a>
</g>
</g>
<!-- Node16 -->
<g id="Node000016" class="node">
<title>Node16</title>
<g id="a_Node000016"><a xlink:href="CCSDSConfig_8h.html" target="_top" xlink:title=" ">
<polygon fill="white" stroke="#666666" points="540.5,-129 451.5,-129 451.5,-110 540.5,-110 540.5,-129"/>
<text text-anchor="middle" x="496" y="-117" font-family="Helvetica,sans-Serif" font-size="10.00">CCSDSConfig.h</text>
</a>
</g>
</g>
<!-- Node15&#45;&gt;Node16 -->
<g id="edge25_Node000015_Node000016" class="edge">
<title>Node15&#45;&gt;Node16</title>
<g id="a_edge25_Node000015_Node000016"><a xlink:title=" ">
<path fill="none" stroke="#63b8ff" d="M377.65,-164.98C400.85,-156.27 437.12,-142.63 463.4,-132.75"/>
<polygon fill="#63b8ff" stroke="#63b8ff" points="464.8,-135.97 472.93,-129.17 462.34,-129.41 464.8,-135.97"/>
</a>
</g>
</g>
<!-- Node16&#45;&gt;Node7 -->
<g id="edge29_Node000016_Node000007" class="edge">
<title>Node16&#45;&gt;Node7</title>
<g id="a_edge29_Node000016_Node000007"><a xlink:title=" ">
<path fill="none" stroke="#63b8ff" d="M454.07,-109.98C408.73,-100.78 336.39,-86.09 287.35,-76.13"/>
<polygon fill="#63b8ff" stroke="#63b8ff" points="287.76,-72.64 277.26,-74.08 286.37,-79.5 287.76,-72.64"/>
</a>
</g>
</g>
<!-- Node16&#45;&gt;Node9 -->
<g id="edge28_Node000016_Node000009" class="edge">
<title>Node16&#45;&gt;Node9</title>
<g id="a_edge28_Node000016_Node000009"><a xlink:title=" ">
<path fill="none" stroke="#63b8ff" d="M496.25,-109.66C496.73,-92.17 497.82,-52.8 498.48,-29.27"/>
<polygon fill="#63b8ff" stroke="#63b8ff" points="501.98,-29.25 498.76,-19.16 494.98,-29.06 501.98,-29.25"/>
</a>
</g>
</g>
<!-- Node16&#45;&gt;Node10 -->
<g id="edge27_Node000016_Node000010" class="edge">
<title>Node16&#45;&gt;Node10</title>
<g id="a_edge27_Node000016_Node000010"><a xlink:title=" ">
<path fill="none" stroke="#63b8ff" d="M483.18,-109.84C455.79,-91.36 391.35,-47.86 357.55,-25.05"/>
<polygon fill="#63b8ff" stroke="#63b8ff" points="359.13,-21.89 348.88,-19.2 355.21,-27.69 359.13,-21.89"/>
</a>
</g>
</g>
<!-- Node17 -->
<g id="Node000017" class="node">
<title>Node17</title>
<g id="a_Node000017"><a xlink:title=" ">
<polygon fill="#e0e0e0" stroke="#999999" points="683,-74 639,-74 639,-55 683,-55 683,-74"/>
<text text-anchor="middle" x="661" y="-62" font-family="Helvetica,sans-Serif" font-size="10.00">string</text>
</a>
</g>
</g>
<!-- Node16&#45;&gt;Node17 -->
<g id="edge26_Node000016_Node000017" class="edge">
<title>Node16&#45;&gt;Node17</title>
<g id="a_edge26_Node000016_Node000017"><a xlink:title=" ">
<path fill="none" stroke="#63b8ff" d="M522.51,-109.98C551.48,-100.68 597.9,-85.77 628.91,-75.81"/>
<polygon fill="#63b8ff" stroke="#63b8ff" points="630.34,-79.03 638.79,-72.63 628.2,-72.36 630.34,-79.03"/>
</a>
</g>
</g>
<!-- Node18 -->
<g id="Node000018" class="node">
<title>Node18</title>
<g id="a_Node000018"><a xlink:title=" ">
<polygon fill="#e0e0e0" stroke="#999999" points="620.5,-74 527.5,-74 527.5,-55 620.5,-55 620.5,-74"/>
<text text-anchor="middle" x="574" y="-62" font-family="Helvetica,sans-Serif" font-size="10.00">unordered_map</text>
</a>
</g>
</g>
<!-- Node16&#45;&gt;Node18 -->
<g id="edge30_Node000016_Node000018" class="edge">
<title>Node16&#45;&gt;Node18</title>
<g id="a_edge30_Node000016_Node000018"><a xlink:title=" ">
<path fill="none" stroke="#63b8ff" d="M508.53,-109.98C520.4,-101.92 538.46,-89.65 552.61,-80.03"/>
<polygon fill="#63b8ff" stroke="#63b8ff" points="554.94,-82.69 561.24,-74.17 551,-76.9 554.94,-82.69"/>
</a>
</g>
</g>
<!-- Node19&#45;&gt;Node14 -->
<g id="edge32_Node000019_Node000014" class="edge">
<title>Node19&#45;&gt;Node14</title>
<g id="a_edge32_Node000019_Node000014"><a xlink:title=" ">
<path fill="none" stroke="#63b8ff" d="M592.96,-219.98C612.03,-211.42 641.66,-198.11 663.55,-188.28"/>
<polygon fill="#63b8ff" stroke="#63b8ff" points="665.01,-191.46 672.7,-184.17 662.14,-185.07 665.01,-191.46"/>
</a>
</g>
</g>
<!-- Node19&#45;&gt;Node15 -->
<g id="edge36_Node000019_Node000015" class="edge">
<title>Node19&#45;&gt;Node15</title>
<g id="a_edge36_Node000019_Node000015"><a xlink:title=" ">
<path fill="none" stroke="#63b8ff" d="M538.81,-219.98C501.17,-210.87 441.34,-196.4 400.23,-186.45"/>
<polygon fill="#63b8ff" stroke="#63b8ff" points="401,-183.03 390.46,-184.08 399.36,-189.84 401,-183.03"/>
</a>
</g>
</g>
<!-- Node19&#45;&gt;Node17 -->
<g id="edge35_Node000019_Node000017" class="edge">
<title>Node19&#45;&gt;Node17</title>
<g id="a_edge35_Node000019_Node000017"><a xlink:title=" ">
<path fill="none" stroke="#63b8ff" d="M584.19,-219.86C593.53,-211.5 607.2,-198.04 616,-184 636.38,-151.48 649.87,-108.28 656.41,-84.04"/>
<polygon fill="#63b8ff" stroke="#63b8ff" points="659.87,-84.62 658.99,-74.07 653.09,-82.87 659.87,-84.62"/>
</a>
</g>
</g>
<!-- Node19&#45;&gt;Node18 -->
<g id="edge33_Node000019_Node000018" class="edge">
<title>Node19&#45;&gt;Node18</title>
<g id="a_edge33_Node000019_Node000018"><a xlink:title=" ">
<path fill="none" stroke="#63b8ff" d="M562.07,-219.8C552.17,-211.77 538.81,-198.87 533,-184 529.93,-176.13 531.15,-173.24 533,-165 536.87,-147.73 543.09,-145.29 550,-129 556.4,-113.91 562.93,-96.48 567.56,-83.7"/>
<polygon fill="#63b8ff" stroke="#63b8ff" points="570.88,-84.81 570.96,-74.21 564.29,-82.45 570.88,-84.81"/>
</a>
</g>
</g>
<!-- Node20 -->
<g id="Node000020" class="node">
<title>Node20</title>
<g id="a_Node000020"><a xlink:title=" ">
<polygon fill="#e0e0e0" stroke="#999999" points="606.5,-184 541.5,-184 541.5,-165 606.5,-165 606.5,-184"/>
<text text-anchor="middle" x="574" y="-172" font-family="Helvetica,sans-Serif" font-size="10.00">functional</text>
</a>
</g>
</g>
<!-- Node19&#45;&gt;Node20 -->
<g id="edge34_Node000019_Node000020" class="edge">
<title>Node19&#45;&gt;Node20</title>
<g id="a_edge34_Node000019_Node000020"><a xlink:title=" ">
<path fill="none" stroke="#63b8ff" d="M574,-219.75C574,-212.8 574,-202.85 574,-194.13"/>
<polygon fill="#63b8ff" stroke="#63b8ff" points="577.5,-194.09 574,-184.09 570.5,-194.09 577.5,-194.09"/>
</a>
</g>
</g>
<!-- Node21&#45;&gt;Node7 -->
<g id="edge40_Node000021_Node000007" class="edge">
<title>Node21&#45;&gt;Node7</title>
<g id="a_edge40_Node000021_Node000007"><a xlink:title=" ">
<path fill="none" stroke="#63b8ff" d="M387.4,-274.98C352.81,-261.27 288.7,-230.99 254,-184 232.21,-154.49 231.4,-109.53 233.03,-84.33"/>
<polygon fill="#63b8ff" stroke="#63b8ff" points="236.52,-84.52 233.88,-74.26 229.55,-83.93 236.52,-84.52"/>
</a>
</g>
</g>
<!-- Node21&#45;&gt;Node15 -->
<g id="edge38_Node000021_Node000015" class="edge">
<title>Node21&#45;&gt;Node15</title>
<g id="a_edge38_Node000021_Node000015"><a xlink:title=" ">
<path fill="none" stroke="#63b8ff" d="M406.42,-274.66C397.22,-256.93 376.38,-216.73 364.24,-193.32"/>
<polygon fill="#63b8ff" stroke="#63b8ff" points="367.2,-191.42 359.49,-184.16 360.99,-194.65 367.2,-191.42"/>
</a>
</g>
</g>
<!-- Node21&#45;&gt;Node16 -->
<g id="edge41_Node000021_Node000016" class="edge">
<title>Node21&#45;&gt;Node16</title>
<g id="a_edge41_Node000021_Node000016"><a xlink:title=" ">
<path fill="none" stroke="#63b8ff" d="M415.57,-274.74C429,-248.98 468.55,-173.13 486.7,-138.33"/>
<polygon fill="#63b8ff" stroke="#63b8ff" points="489.89,-139.79 491.41,-129.31 483.68,-136.56 489.89,-139.79"/>
</a>
</g>
</g>
<!-- Node21&#45;&gt;Node19 -->
<g id="edge39_Node000021_Node000019" class="edge">
<title>Node21&#45;&gt;Node19</title>
<g id="a_edge39_Node000021_Node000019"><a xlink:title=" ">
<path fill="none" stroke="#63b8ff" d="M437.19,-274.98C464.44,-266.13 507.3,-252.19 537.78,-242.28"/>
<polygon fill="#63b8ff" stroke="#63b8ff" points="539.18,-245.5 547.61,-239.08 537.01,-238.85 539.18,-245.5"/>
</a>
</g>
</g>
<!-- Node22&#45;&gt;Node6 -->
<g id="edge44_Node000022_Node000006" class="edge">
<title>Node22&#45;&gt;Node6</title>
<g id="a_edge44_Node000022_Node000006"><a xlink:title=" ">
<path fill="none" stroke="#63b8ff" d="M200,-439.75C200,-432.8 200,-422.85 200,-414.13"/>
<polygon fill="#63b8ff" stroke="#63b8ff" points="203.5,-414.09 200,-404.09 196.5,-414.09 203.5,-414.09"/>
</a>
</g>
</g>
<!-- Node23&#45;&gt;Node5 -->
<g id="edge47_Node000023_Node000005" class="edge">
<title>Node23&#45;&gt;Node5</title>
<g id="a_edge47_Node000023_Node000005"><a xlink:title=" ">
<path fill="none" stroke="#63b8ff" d="M223.11,-549.98C211.85,-541.92 194.71,-529.65 181.29,-520.03"/>
<polygon fill="#63b8ff" stroke="#63b8ff" points="183.27,-517.15 173.11,-514.17 179.2,-522.84 183.27,-517.15"/>
</a>
</g>
</g>
<!-- Node23&#45;&gt;Node6 -->
<g id="edge46_Node000023_Node000006" class="edge">
<title>Node23&#45;&gt;Node6</title>
<g id="a_edge46_Node000023_Node000006"><a xlink:title=" ">
<path fill="none" stroke="#63b8ff" d="M240.42,-549.97C252.49,-529.79 279.1,-477.94 260,-440 253.31,-426.71 240.56,-416.39 228.53,-409.05"/>
<polygon fill="#63b8ff" stroke="#63b8ff" points="230.01,-405.87 219.58,-404.02 226.58,-411.97 230.01,-405.87"/>
</a>
</g>
</g>
<!-- Node23&#45;&gt;Node9 -->
<g id="edge49_Node000023_Node000009" class="edge">
<title>Node23&#45;&gt;Node9</title>
<g id="a_edge49_Node000023_Node000009"><a xlink:title=" ">
<path fill="none" stroke="#63b8ff" d="M275.64,-551.47C278.81,-550.96 281.95,-550.46 285,-550 413.85,-530.37 863,-580.83 863,-450.5 863,-450.5 863,-450.5 863,-118.5 863,-49.94 622.67,-21.49 532.57,-13.23"/>
<polygon fill="#63b8ff" stroke="#63b8ff" points="532.87,-9.75 522.6,-12.35 532.25,-16.72 532.87,-9.75"/>
</a>
</g>
</g>
<!-- Node23&#45;&gt;Node17 -->
<g id="edge48_Node000023_Node000017" class="edge">
<title>Node23&#45;&gt;Node17</title>
<g id="a_edge48_Node000023_Node000017"><a xlink:title=" ">
<path fill="none" stroke="#63b8ff" d="M275.55,-551.35C408.85,-527.8 825,-454 825,-450.5 825,-450.5 825,-450.5 825,-173.5 825,-110.93 740.71,-82.57 692.98,-71.52"/>
<polygon fill="#63b8ff" stroke="#63b8ff" points="693.63,-68.08 683.12,-69.36 692.14,-74.92 693.63,-68.08"/>
</a>
</g>
</g>
</g>
</svg>
