<?xml version="1.0" encoding="UTF-8" standalone="no"?>
<!DOCTYPE svg PUBLIC "-//W3C//DTD SVG 1.1//EN"
 "http://www.w3.org/Graphics/SVG/1.1/DTD/svg11.dtd">
<!-- Generated by graphviz version 2.43.0 (0)
 -->
<!-- Title: src/CCSDSValidator.cpp Pages: 1 -->
<!--zoomable 632 -->

<svg id="main" version="1.1" xmlns="http://www.w3.org/2000/svg" xmlns:xlink="http://www.w3.org/1999/xlink" xml:space="preserve" onload="init(evt)">
<style type="text/css"><![CDATA[
.node, .edge {opacity: 0.7;}
.node.selected, .edge.selected {opacity: 1;}
.edge:hover path { stroke: red; }
.edge:hover polygon { stroke: red; fill: red; }
]]></style>

<defs>
  <circle id="rim" cx="0" cy="0" r="7"/>
  <circle id="rim2" cx="0" cy="0" r="3.5"/>
  <g id="zoomPlus">
    <use xlink:href="#rim" fill="#404040"><set attributeName="fill" to="#808080" begin="zoomplus.mouseover" end="zoomplus.mouseout"/></use>
    <path d="M-4,0h8M0,-4v8" fill="none" stroke="white" stroke-width="1.5" pointer-events="none"/>
  </g>
  <g id="zoomMin">
    <use xlink:href="#rim" fill="#404040"><set attributeName="fill" to="#808080" begin="zoomminus.mouseover" end="zoomminus.mouseout"/></use>
    <path d="M-4,0h8" fill="none" stroke="white" stroke-width="1.5" pointer-events="none"/>
  </g>
  <g id="arrowUp" transform="translate(30 24)">
    <use xlink:href="#rim"/>
    <path pointer-events="none" fill="none" stroke="white" stroke-width="1.5" d="M0,-3.0v7 M-2.5,-0.5L0,-3.0L2.5,-0.5"/>
  </g>
  <g id="arrowRight" transform="rotate(90) translate(36 -43)">
    <use xlink:href="#rim"/>
    <path pointer-events="none" fill="none" stroke="white" stroke-width="1.5" d="M0,-3.0v7 M-2.5,-0.5L0,-3.0L2.5,-0.5"/>
  </g>
  <g id="arrowDown" transform="rotate(180) translate(-30 -48)">
    <use xlink:href="#rim"/>
    <path pointer-events="none" fill="none" stroke="white" stroke-width="1.5" d="M0,-3.0v7 M-2.5,-0.5L0,-3.0L2.5,-0.5"/>
  </g>
  <g id="arrowLeft" transform="rotate(270) translate(-36 17)">
    <use xlink:href="#rim"/>
    <path pointer-events="none" fill="none" stroke="white" stroke-width="1.5" d="M0,-3.0v7 M-2.5,-0.5L0,-3.0L2.5,-0.5"/>
  </g>
  <g id="resetDef">
    <use xlink:href="#rim2" fill="#404040"><set attributeName="fill" to="#808080" begin="reset.mouseover" end="reset.mouseout"/></use>
  </g>
</defs>
<script type="application/ecmascript">
var viewWidth = 788;
var viewHeight = 632;
var sectionId = 'dynsection-0';
</script>
<script type="application/ecmascript" xlink:href="svg.min.js"/>
<svg id="graph" class="graph">
<g id="viewport">
<title>src/CCSDSValidator.cpp</title>
<!-- Node1 -->
<g id="Node000001" class="node">
<title>Node1</title>
<g id="a_Node000001"><a xlink:title=" ">
<polygon fill="#999999" stroke="#666666" points="692,-624 562,-624 562,-605 692,-605 692,-624"/>
<text text-anchor="middle" x="627" y="-612" font-family="Helvetica,sans-Serif" font-size="10.00">src/CCSDSValidator.cpp</text>
</a>
</g>
</g>
<!-- Node2 -->
<g id="Node000002" class="node">
<title>Node2</title>
<g id="a_Node000002"><a xlink:href="CCSDSValidator_8h.html" target="_top" xlink:title="Defines the Validator class for CCSDS packet validation.">
<polygon fill="white" stroke="#666666" points="643.5,-459 542.5,-459 542.5,-440 643.5,-440 643.5,-459"/>
<text text-anchor="middle" x="593" y="-447" font-family="Helvetica,sans-Serif" font-size="10.00">CCSDSValidator.h</text>
</a>
</g>
</g>
<!-- Node1&#45;&gt;Node2 -->
<g id="edge1_Node000001_Node000002" class="edge">
<title>Node1&#45;&gt;Node2</title>
<g id="a_edge1_Node000001_Node000002"><a xlink:title=" ">
<path fill="none" stroke="#63b8ff" d="M623.57,-604.76C620.2,-595.88 615.13,-581.66 612,-569 603.42,-534.23 597.79,-492.73 595.03,-469.22"/>
<polygon fill="#63b8ff" stroke="#63b8ff" points="598.5,-468.77 593.9,-459.22 591.54,-469.55 598.5,-468.77"/>
</a>
</g>
</g>
<!-- Node19 -->
<g id="Node000019" class="node">
<title>Node19</title>
<g id="a_Node000019"><a xlink:href="CCSDSUtils_8h.html" target="_top" xlink:title=" ">
<polygon fill="white" stroke="#666666" points="702.5,-569 621.5,-569 621.5,-550 702.5,-550 702.5,-569"/>
<text text-anchor="middle" x="662" y="-557" font-family="Helvetica,sans-Serif" font-size="10.00">CCSDSUtils.h</text>
</a>
</g>
</g>
<!-- Node1&#45;&gt;Node19 -->
<g id="edge38_Node000001_Node000019" class="edge">
<title>Node1&#45;&gt;Node19</title>
<g id="a_edge38_Node000001_Node000019"><a xlink:title=" ">
<path fill="none" stroke="#63b8ff" d="M632.78,-604.75C637.62,-597.42 644.68,-586.73 650.64,-577.7"/>
<polygon fill="#63b8ff" stroke="#63b8ff" points="653.74,-579.36 656.33,-569.09 647.9,-575.5 653.74,-579.36"/>
</a>
</g>
</g>
<!-- Node3 -->
<g id="Node000003" class="node">
<title>Node3</title>
<g id="a_Node000003"><a xlink:href="CCSDSPacket_8h.html" target="_top" xlink:title=" ">
<polygon fill="white" stroke="#666666" points="711,-404 621,-404 621,-385 711,-385 711,-404"/>
<text text-anchor="middle" x="666" y="-392" font-family="Helvetica,sans-Serif" font-size="10.00">CCSDSPacket.h</text>
</a>
</g>
</g>
<!-- Node2&#45;&gt;Node3 -->
<g id="edge2_Node000002_Node000003" class="edge">
<title>Node2&#45;&gt;Node3</title>
<g id="a_edge2_Node000002_Node000003"><a xlink:title=" ">
<path fill="none" stroke="#63b8ff" d="M604.73,-439.98C615.73,-432 632.42,-419.88 645.6,-410.31"/>
<polygon fill="#63b8ff" stroke="#63b8ff" points="648.02,-412.88 654.06,-404.17 643.91,-407.21 648.02,-412.88"/>
</a>
</g>
</g>
<!-- Node4 -->
<g id="Node000004" class="node">
<title>Node4</title>
<g id="a_Node000004"><a xlink:href="CCSDSResult_8h.html" target="_top" xlink:title=" ">
<polygon fill="white" stroke="#666666" points="674.5,-74 585.5,-74 585.5,-55 674.5,-55 674.5,-74"/>
<text text-anchor="middle" x="630" y="-62" font-family="Helvetica,sans-Serif" font-size="10.00">CCSDSResult.h</text>
</a>
</g>
</g>
<!-- Node3&#45;&gt;Node4 -->
<g id="edge3_Node000003_Node000004" class="edge">
<title>Node3&#45;&gt;Node4</title>
<g id="a_edge3_Node000003_Node000004"><a xlink:title=" ">
<path fill="none" stroke="#63b8ff" d="M677.88,-384.88C699.25,-368.26 742,-329.52 742,-285.5 742,-285.5 742,-285.5 742,-173.5 742,-127.77 693.02,-95.29 659.84,-78.54"/>
<polygon fill="#63b8ff" stroke="#63b8ff" points="661.07,-75.24 650.54,-74.04 658.02,-81.54 661.07,-75.24"/>
</a>
</g>
</g>
<!-- Node6 -->
<g id="Node000006" class="node">
<title>Node6</title>
<g id="a_Node000006"><a xlink:title=" ">
<polygon fill="#e0e0e0" stroke="#999999" points="390.5,-19 343.5,-19 343.5,0 390.5,0 390.5,-19"/>
<text text-anchor="middle" x="367" y="-7" font-family="Helvetica,sans-Serif" font-size="10.00">vector</text>
</a>
</g>
</g>
<!-- Node3&#45;&gt;Node6 -->
<g id="edge8_Node000003_Node000006" class="edge">
<title>Node3&#45;&gt;Node6</title>
<g id="a_edge8_Node000003_Node000006"><a xlink:title=" ">
<path fill="none" stroke="#63b8ff" d="M620.91,-394.26C532.27,-393.68 332.12,-381.87 196,-294 167.74,-275.76 161.44,-267.77 144,-239 101.57,-169 87.3,-105.14 152,-55 179.96,-33.33 280.41,-19.69 333.53,-13.83"/>
<polygon fill="#63b8ff" stroke="#63b8ff" points="333.92,-17.31 343.49,-12.76 333.17,-10.35 333.92,-17.31"/>
</a>
</g>
</g>
<!-- Node9 -->
<g id="Node000009" class="node">
<title>Node9</title>
<g id="a_Node000009"><a xlink:href="CCSDSHeader_8h.html" target="_top" xlink:title=" ">
<polygon fill="white" stroke="#666666" points="599.5,-129 506.5,-129 506.5,-110 599.5,-110 599.5,-129"/>
<text text-anchor="middle" x="553" y="-117" font-family="Helvetica,sans-Serif" font-size="10.00">CCSDSHeader.h</text>
</a>
</g>
</g>
<!-- Node3&#45;&gt;Node9 -->
<g id="edge9_Node000003_Node000009" class="edge">
<title>Node3&#45;&gt;Node9</title>
<g id="a_edge9_Node000003_Node000009"><a xlink:title=" ">
<path fill="none" stroke="#63b8ff" d="M665.79,-384.84C664.66,-352.95 657.24,-239.95 609,-165 601.05,-152.64 588.48,-142.2 577.26,-134.54"/>
<polygon fill="#63b8ff" stroke="#63b8ff" points="578.97,-131.48 568.67,-129.01 575.18,-137.37 578.97,-131.48"/>
</a>
</g>
</g>
<!-- Node10 -->
<g id="Node000010" class="node">
<title>Node10</title>
<g id="a_Node000010"><a xlink:href="CCSDSDataField_8h.html" target="_top" xlink:title=" ">
<polygon fill="white" stroke="#666666" points="469.5,-349 364.5,-349 364.5,-330 469.5,-330 469.5,-349"/>
<text text-anchor="middle" x="417" y="-337" font-family="Helvetica,sans-Serif" font-size="10.00">CCSDSDataField.h</text>
</a>
</g>
</g>
<!-- Node3&#45;&gt;Node10 -->
<g id="edge13_Node000003_Node000010" class="edge">
<title>Node3&#45;&gt;Node10</title>
<g id="a_edge13_Node000003_Node000010"><a xlink:title=" ">
<path fill="none" stroke="#63b8ff" d="M625.99,-384.98C582.83,-375.8 514.02,-361.15 467.24,-351.19"/>
<polygon fill="#63b8ff" stroke="#63b8ff" points="467.83,-347.74 457.32,-349.08 466.37,-354.59 467.83,-347.74"/>
</a>
</g>
</g>
<!-- Node5 -->
<g id="Node000005" class="node">
<title>Node5</title>
<g id="a_Node000005"><a xlink:title=" ">
<polygon fill="#e0e0e0" stroke="#999999" points="719.5,-19 668.5,-19 668.5,0 719.5,0 719.5,-19"/>
<text text-anchor="middle" x="694" y="-7" font-family="Helvetica,sans-Serif" font-size="10.00">variant</text>
</a>
</g>
</g>
<!-- Node4&#45;&gt;Node5 -->
<g id="edge4_Node000004_Node000005" class="edge">
<title>Node4&#45;&gt;Node5</title>
<g id="a_edge4_Node000004_Node000005"><a xlink:title=" ">
<path fill="none" stroke="#63b8ff" d="M640.28,-54.98C649.84,-47.07 664.28,-35.11 675.78,-25.58"/>
<polygon fill="#63b8ff" stroke="#63b8ff" points="678.06,-28.24 683.53,-19.17 673.6,-22.85 678.06,-28.24"/>
</a>
</g>
</g>
<!-- Node4&#45;&gt;Node6 -->
<g id="edge5_Node000004_Node000006" class="edge">
<title>Node4&#45;&gt;Node6</title>
<g id="a_edge5_Node000004_Node000006"><a xlink:title=" ">
<path fill="none" stroke="#63b8ff" d="M587.74,-54.98C535.66,-44.49 448.22,-26.87 400.52,-17.25"/>
<polygon fill="#63b8ff" stroke="#63b8ff" points="401.18,-13.82 390.69,-15.27 399.8,-20.68 401.18,-13.82"/>
</a>
</g>
</g>
<!-- Node7 -->
<g id="Node000007" class="node">
<title>Node7</title>
<g id="a_Node000007"><a xlink:title=" ">
<polygon fill="#e0e0e0" stroke="#999999" points="553,-19 503,-19 503,0 553,0 553,-19"/>
<text text-anchor="middle" x="528" y="-7" font-family="Helvetica,sans-Serif" font-size="10.00">cstdint</text>
</a>
</g>
</g>
<!-- Node4&#45;&gt;Node7 -->
<g id="edge6_Node000004_Node000007" class="edge">
<title>Node4&#45;&gt;Node7</title>
<g id="a_edge6_Node000004_Node000007"><a xlink:title=" ">
<path fill="none" stroke="#63b8ff" d="M613.61,-54.98C597.43,-46.57 572.43,-33.59 553.62,-23.81"/>
<polygon fill="#63b8ff" stroke="#63b8ff" points="555.17,-20.68 544.69,-19.17 551.95,-26.89 555.17,-20.68"/>
</a>
</g>
</g>
<!-- Node8 -->
<g id="Node000008" class="node">
<title>Node8</title>
<g id="a_Node000008"><a xlink:title=" ">
<polygon fill="#e0e0e0" stroke="#999999" points="650,-19 590,-19 590,0 650,0 650,-19"/>
<text text-anchor="middle" x="620" y="-7" font-family="Helvetica,sans-Serif" font-size="10.00">iostream</text>
</a>
</g>
</g>
<!-- Node4&#45;&gt;Node8 -->
<g id="edge7_Node000004_Node000008" class="edge">
<title>Node4&#45;&gt;Node8</title>
<g id="a_edge7_Node000004_Node000008"><a xlink:title=" ">
<path fill="none" stroke="#63b8ff" d="M628.35,-54.75C627.04,-47.8 625.16,-37.85 623.52,-29.13"/>
<polygon fill="#63b8ff" stroke="#63b8ff" points="626.91,-28.27 621.62,-19.09 620.04,-29.56 626.91,-28.27"/>
</a>
</g>
</g>
<!-- Node9&#45;&gt;Node4 -->
<g id="edge10_Node000009_Node000004" class="edge">
<title>Node9&#45;&gt;Node4</title>
<g id="a_edge10_Node000009_Node000004"><a xlink:title=" ">
<path fill="none" stroke="#63b8ff" d="M565.37,-109.98C577.09,-101.92 594.92,-89.65 608.89,-80.03"/>
<polygon fill="#63b8ff" stroke="#63b8ff" points="611.15,-82.72 617.4,-74.17 607.18,-76.96 611.15,-82.72"/>
</a>
</g>
</g>
<!-- Node9&#45;&gt;Node6 -->
<g id="edge12_Node000009_Node000006" class="edge">
<title>Node9&#45;&gt;Node6</title>
<g id="a_edge12_Node000009_Node000006"><a xlink:title=" ">
<path fill="none" stroke="#63b8ff" d="M538.09,-109.84C505.91,-91.16 429.68,-46.9 390.76,-24.3"/>
<polygon fill="#63b8ff" stroke="#63b8ff" points="392.12,-21.04 381.72,-19.05 388.61,-27.1 392.12,-21.04"/>
</a>
</g>
</g>
<!-- Node9&#45;&gt;Node7 -->
<g id="edge11_Node000009_Node000007" class="edge">
<title>Node9&#45;&gt;Node7</title>
<g id="a_edge11_Node000009_Node000007"><a xlink:title=" ">
<path fill="none" stroke="#63b8ff" d="M550.95,-109.66C546.89,-92.09 537.71,-52.45 532.27,-28.95"/>
<polygon fill="#63b8ff" stroke="#63b8ff" points="535.67,-28.11 530,-19.16 528.85,-29.69 535.67,-28.11"/>
</a>
</g>
</g>
<!-- Node10&#45;&gt;Node4 -->
<g id="edge14_Node000010_Node000004" class="edge">
<title>Node10&#45;&gt;Node4</title>
<g id="a_edge14_Node000010_Node000004"><a xlink:title=" ">
<path fill="none" stroke="#63b8ff" d="M437.57,-329.86C480.69,-310.6 580.58,-259.8 629,-184 647.17,-155.56 651.79,-143.24 646,-110 644.43,-101 641.2,-91.42 638.06,-83.46"/>
<polygon fill="#63b8ff" stroke="#63b8ff" points="641.23,-81.97 634.11,-74.12 634.78,-84.69 641.23,-81.97"/>
</a>
</g>
</g>
<!-- Node10&#45;&gt;Node6 -->
<g id="edge15_Node000010_Node000006" class="edge">
<title>Node10&#45;&gt;Node6</title>
<g id="a_edge15_Node000010_Node000006"><a xlink:title=" ">
<path fill="none" stroke="#63b8ff" d="M364.15,-333.86C325.03,-328.6 271.55,-317.47 230,-294 173.24,-261.95 154.23,-245.63 133,-184 116.95,-137.41 132.45,-91.46 174,-55 197.42,-34.45 284.38,-20.7 333.2,-14.41"/>
<polygon fill="#63b8ff" stroke="#63b8ff" points="333.8,-17.87 343.29,-13.15 332.93,-10.92 333.8,-17.87"/>
</a>
</g>
</g>
<!-- Node11 -->
<g id="Node000011" class="node">
<title>Node11</title>
<g id="a_Node000011"><a xlink:title=" ">
<polygon fill="#e0e0e0" stroke="#999999" points="200,-184 142,-184 142,-165 200,-165 200,-184"/>
<text text-anchor="middle" x="171" y="-172" font-family="Helvetica,sans-Serif" font-size="10.00">memory</text>
</a>
</g>
</g>
<!-- Node10&#45;&gt;Node11 -->
<g id="edge16_Node000010_Node000011" class="edge">
<title>Node10&#45;&gt;Node11</title>
<g id="a_edge16_Node000010_Node000011"><a xlink:title=" ">
<path fill="none" stroke="#63b8ff" d="M369.64,-329.99C318.23,-318.3 237.18,-292.34 190,-239 179.16,-226.74 174.5,-208.51 172.5,-194.73"/>
<polygon fill="#63b8ff" stroke="#63b8ff" points="175.94,-193.98 171.37,-184.42 168.98,-194.74 175.94,-193.98"/>
</a>
</g>
</g>
<!-- Node12 -->
<g id="Node000012" class="node">
<title>Node12</title>
<g id="a_Node000012"><a xlink:href="CCSDSSecondaryHeaderAbstract_8h.html" target="_top" xlink:title=" ">
<polygon fill="white" stroke="#666666" points="600.5,-184 415.5,-184 415.5,-165 600.5,-165 600.5,-184"/>
<text text-anchor="middle" x="508" y="-172" font-family="Helvetica,sans-Serif" font-size="10.00">CCSDSSecondaryHeaderAbstract.h</text>
</a>
</g>
</g>
<!-- Node10&#45;&gt;Node12 -->
<g id="edge17_Node000010_Node000012" class="edge">
<title>Node10&#45;&gt;Node12</title>
<g id="a_edge17_Node000010_Node000012"><a xlink:title=" ">
<path fill="none" stroke="#63b8ff" d="M430.5,-329.79C441.95,-321.75 458.07,-308.85 468,-294 489.05,-262.53 499.98,-218.95 504.81,-194.36"/>
<polygon fill="#63b8ff" stroke="#63b8ff" points="508.31,-194.69 506.67,-184.23 501.42,-193.43 508.31,-194.69"/>
</a>
</g>
</g>
<!-- Node16 -->
<g id="Node000016" class="node">
<title>Node16</title>
<g id="a_Node000016"><a xlink:href="CCSDSSecondaryHeaderFactory_8h.html" target="_top" xlink:title=" ">
<polygon fill="white" stroke="#666666" points="378.5,-239 199.5,-239 199.5,-220 378.5,-220 378.5,-239"/>
<text text-anchor="middle" x="289" y="-227" font-family="Helvetica,sans-Serif" font-size="10.00">CCSDSSecondaryHeaderFactory.h</text>
</a>
</g>
</g>
<!-- Node10&#45;&gt;Node16 -->
<g id="edge27_Node000010_Node000016" class="edge">
<title>Node10&#45;&gt;Node16</title>
<g id="a_edge27_Node000010_Node000016"><a xlink:title=" ">
<path fill="none" stroke="#63b8ff" d="M406.53,-329.66C384.76,-311.3 334.41,-268.81 307.21,-245.87"/>
<polygon fill="#63b8ff" stroke="#63b8ff" points="309.16,-242.93 299.26,-239.16 304.65,-248.28 309.16,-242.93"/>
</a>
</g>
</g>
<!-- Node18 -->
<g id="Node000018" class="node">
<title>Node18</title>
<g id="a_Node000018"><a xlink:href="PusServices_8h.html" target="_top" xlink:title=" ">
<polygon fill="white" stroke="#666666" points="459,-294 375,-294 375,-275 459,-275 459,-294"/>
<text text-anchor="middle" x="417" y="-282" font-family="Helvetica,sans-Serif" font-size="10.00">PusServices.h</text>
</a>
</g>
</g>
<!-- Node10&#45;&gt;Node18 -->
<g id="edge33_Node000010_Node000018" class="edge">
<title>Node10&#45;&gt;Node18</title>
<g id="a_edge33_Node000010_Node000018"><a xlink:title=" ">
<path fill="none" stroke="#63b8ff" d="M417,-329.75C417,-322.8 417,-312.85 417,-304.13"/>
<polygon fill="#63b8ff" stroke="#63b8ff" points="420.5,-304.09 417,-294.09 413.5,-304.09 420.5,-304.09"/>
</a>
</g>
</g>
<!-- Node12&#45;&gt;Node4 -->
<g id="edge18_Node000012_Node000004" class="edge">
<title>Node12&#45;&gt;Node4</title>
<g id="a_edge18_Node000012_Node000004"><a xlink:title=" ">
<path fill="none" stroke="#63b8ff" d="M544.69,-165C565.77,-158.39 591.29,-147.2 608,-129 619.33,-116.66 624.87,-98.18 627.56,-84.33"/>
<polygon fill="#63b8ff" stroke="#63b8ff" points="631.02,-84.86 629.15,-74.43 624.1,-83.75 631.02,-84.86"/>
</a>
</g>
</g>
<!-- Node12&#45;&gt;Node6 -->
<g id="edge19_Node000012_Node000006" class="edge">
<title>Node12&#45;&gt;Node6</title>
<g id="a_edge19_Node000012_Node000006"><a xlink:title=" ">
<path fill="none" stroke="#63b8ff" d="M500.42,-164.74C477.85,-138.65 410.83,-61.17 381.28,-27"/>
<polygon fill="#63b8ff" stroke="#63b8ff" points="383.81,-24.58 374.62,-19.31 378.51,-29.16 383.81,-24.58"/>
</a>
</g>
</g>
<!-- Node12&#45;&gt;Node7 -->
<g id="edge20_Node000012_Node000007" class="edge">
<title>Node12&#45;&gt;Node7</title>
<g id="a_edge20_Node000012_Node000007"><a xlink:title=" ">
<path fill="none" stroke="#63b8ff" d="M505.17,-164.75C502.45,-155.86 498.54,-141.64 497,-129 492.56,-92.57 508.2,-51.41 518.86,-28.45"/>
<polygon fill="#63b8ff" stroke="#63b8ff" points="522.1,-29.79 523.31,-19.26 515.8,-26.73 522.1,-29.79"/>
</a>
</g>
</g>
<!-- Node13 -->
<g id="Node000013" class="node">
<title>Node13</title>
<g id="a_Node000013"><a xlink:href="CCSDSConfig_8h.html" target="_top" xlink:title=" ">
<polygon fill="white" stroke="#666666" points="411.5,-129 322.5,-129 322.5,-110 411.5,-110 411.5,-129"/>
<text text-anchor="middle" x="367" y="-117" font-family="Helvetica,sans-Serif" font-size="10.00">CCSDSConfig.h</text>
</a>
</g>
</g>
<!-- Node12&#45;&gt;Node13 -->
<g id="edge21_Node000012_Node000013" class="edge">
<title>Node12&#45;&gt;Node13</title>
<g id="a_edge21_Node000012_Node000013"><a xlink:title=" ">
<path fill="none" stroke="#63b8ff" d="M485.35,-164.98C462.15,-156.27 425.88,-142.63 399.6,-132.75"/>
<polygon fill="#63b8ff" stroke="#63b8ff" points="400.66,-129.41 390.07,-129.17 398.2,-135.97 400.66,-129.41"/>
</a>
</g>
</g>
<!-- Node13&#45;&gt;Node4 -->
<g id="edge25_Node000013_Node000004" class="edge">
<title>Node13&#45;&gt;Node4</title>
<g id="a_edge25_Node000013_Node000004"><a xlink:title=" ">
<path fill="none" stroke="#63b8ff" d="M409.26,-109.98C455.04,-100.76 528.14,-86.03 577.55,-76.07"/>
<polygon fill="#63b8ff" stroke="#63b8ff" points="578.3,-79.49 587.41,-74.08 576.92,-72.63 578.3,-79.49"/>
</a>
</g>
</g>
<!-- Node13&#45;&gt;Node6 -->
<g id="edge24_Node000013_Node000006" class="edge">
<title>Node13&#45;&gt;Node6</title>
<g id="a_edge24_Node000013_Node000006"><a xlink:title=" ">
<path fill="none" stroke="#63b8ff" d="M367,-109.66C367,-92.17 367,-52.8 367,-29.27"/>
<polygon fill="#63b8ff" stroke="#63b8ff" points="370.5,-29.16 367,-19.16 363.5,-29.16 370.5,-29.16"/>
</a>
</g>
</g>
<!-- Node13&#45;&gt;Node7 -->
<g id="edge23_Node000013_Node000007" class="edge">
<title>Node13&#45;&gt;Node7</title>
<g id="a_edge23_Node000013_Node000007"><a xlink:title=" ">
<path fill="none" stroke="#63b8ff" d="M379.9,-109.84C407.46,-91.36 472.31,-47.86 506.32,-25.05"/>
<polygon fill="#63b8ff" stroke="#63b8ff" points="508.68,-27.67 515.04,-19.2 504.78,-21.86 508.68,-27.67"/>
</a>
</g>
</g>
<!-- Node14 -->
<g id="Node000014" class="node">
<title>Node14</title>
<g id="a_Node000014"><a xlink:title=" ">
<polygon fill="#e0e0e0" stroke="#999999" points="227,-74 183,-74 183,-55 227,-55 227,-74"/>
<text text-anchor="middle" x="205" y="-62" font-family="Helvetica,sans-Serif" font-size="10.00">string</text>
</a>
</g>
</g>
<!-- Node13&#45;&gt;Node14 -->
<g id="edge22_Node000013_Node000014" class="edge">
<title>Node13&#45;&gt;Node14</title>
<g id="a_edge22_Node000013_Node000014"><a xlink:title=" ">
<path fill="none" stroke="#63b8ff" d="M340.97,-109.98C312.69,-100.73 267.47,-85.94 237.02,-75.98"/>
<polygon fill="#63b8ff" stroke="#63b8ff" points="237.91,-72.58 227.31,-72.8 235.73,-79.24 237.91,-72.58"/>
</a>
</g>
</g>
<!-- Node15 -->
<g id="Node000015" class="node">
<title>Node15</title>
<g id="a_Node000015"><a xlink:title=" ">
<polygon fill="#e0e0e0" stroke="#999999" points="338.5,-74 245.5,-74 245.5,-55 338.5,-55 338.5,-74"/>
<text text-anchor="middle" x="292" y="-62" font-family="Helvetica,sans-Serif" font-size="10.00">unordered_map</text>
</a>
</g>
</g>
<!-- Node13&#45;&gt;Node15 -->
<g id="edge26_Node000013_Node000015" class="edge">
<title>Node13&#45;&gt;Node15</title>
<g id="a_edge26_Node000013_Node000015"><a xlink:title=" ">
<path fill="none" stroke="#63b8ff" d="M354.95,-109.98C343.54,-101.92 326.17,-89.65 312.57,-80.03"/>
<polygon fill="#63b8ff" stroke="#63b8ff" points="314.46,-77.08 304.27,-74.17 310.42,-82.8 314.46,-77.08"/>
</a>
</g>
</g>
<!-- Node16&#45;&gt;Node11 -->
<g id="edge28_Node000016_Node000011" class="edge">
<title>Node16&#45;&gt;Node11</title>
<g id="a_edge28_Node000016_Node000011"><a xlink:title=" ">
<path fill="none" stroke="#63b8ff" d="M270.04,-219.98C250.97,-211.42 221.34,-198.11 199.45,-188.28"/>
<polygon fill="#63b8ff" stroke="#63b8ff" points="200.86,-185.07 190.3,-184.17 197.99,-191.46 200.86,-185.07"/>
</a>
</g>
</g>
<!-- Node16&#45;&gt;Node12 -->
<g id="edge32_Node000016_Node000012" class="edge">
<title>Node16&#45;&gt;Node12</title>
<g id="a_edge32_Node000016_Node000012"><a xlink:title=" ">
<path fill="none" stroke="#63b8ff" d="M324.19,-219.98C361.83,-210.87 421.66,-196.4 462.77,-186.45"/>
<polygon fill="#63b8ff" stroke="#63b8ff" points="463.64,-189.84 472.54,-184.08 462,-183.03 463.64,-189.84"/>
</a>
</g>
</g>
<!-- Node16&#45;&gt;Node14 -->
<g id="edge31_Node000016_Node000014" class="edge">
<title>Node16&#45;&gt;Node14</title>
<g id="a_edge31_Node000016_Node000014"><a xlink:title=" ">
<path fill="none" stroke="#63b8ff" d="M278.74,-219.91C269.35,-211.57 255.64,-198.14 247,-184 227.15,-151.52 214.86,-108.31 209.03,-84.05"/>
<polygon fill="#63b8ff" stroke="#63b8ff" points="212.39,-83.04 206.75,-74.07 205.57,-84.6 212.39,-83.04"/>
</a>
</g>
</g>
<!-- Node16&#45;&gt;Node15 -->
<g id="edge29_Node000016_Node000015" class="edge">
<title>Node16&#45;&gt;Node15</title>
<g id="a_edge29_Node000016_Node000015"><a xlink:title=" ">
<path fill="none" stroke="#63b8ff" d="M300.93,-219.8C310.83,-211.77 324.19,-198.87 330,-184 333.07,-176.13 331.85,-173.24 330,-165 326.13,-147.73 319.57,-145.43 313,-129 307.07,-114.16 301.44,-96.91 297.51,-84.14"/>
<polygon fill="#63b8ff" stroke="#63b8ff" points="300.76,-82.81 294.52,-74.25 294.06,-84.83 300.76,-82.81"/>
</a>
</g>
</g>
<!-- Node17 -->
<g id="Node000017" class="node">
<title>Node17</title>
<g id="a_Node000017"><a xlink:title=" ">
<polygon fill="#e0e0e0" stroke="#999999" points="321.5,-184 256.5,-184 256.5,-165 321.5,-165 321.5,-184"/>
<text text-anchor="middle" x="289" y="-172" font-family="Helvetica,sans-Serif" font-size="10.00">functional</text>
</a>
</g>
</g>
<!-- Node16&#45;&gt;Node17 -->
<g id="edge30_Node000016_Node000017" class="edge">
<title>Node16&#45;&gt;Node17</title>
<g id="a_edge30_Node000016_Node000017"><a xlink:title=" ">
<path fill="none" stroke="#63b8ff" d="M289,-219.75C289,-212.8 289,-202.85 289,-194.13"/>
<polygon fill="#63b8ff" stroke="#63b8ff" points="292.5,-194.09 289,-184.09 285.5,-194.09 292.5,-194.09"/>
</a>
</g>
</g>
<!-- Node18&#45;&gt;Node4 -->
<g id="edge36_Node000018_Node000004" class="edge">
<title>Node18&#45;&gt;Node4</title>
<g id="a_edge36_Node000018_Node000004"><a xlink:title=" ">
<path fill="none" stroke="#63b8ff" d="M449.24,-274.96C491.67,-262.12 565.92,-233.85 609,-184 633.17,-156.03 633.96,-110.13 632.15,-84.44"/>
<polygon fill="#63b8ff" stroke="#63b8ff" points="635.6,-83.83 631.2,-74.19 628.63,-84.47 635.6,-83.83"/>
</a>
</g>
</g>
<!-- Node18&#45;&gt;Node12 -->
<g id="edge34_Node000018_Node000012" class="edge">
<title>Node18&#45;&gt;Node12</title>
<g id="a_edge34_Node000018_Node000012"><a xlink:title=" ">
<path fill="none" stroke="#63b8ff" d="M424.45,-274.66C439.65,-256.61 474.48,-215.28 494.03,-192.08"/>
<polygon fill="#63b8ff" stroke="#63b8ff" points="496.94,-194.06 500.7,-184.16 491.58,-189.55 496.94,-194.06"/>
</a>
</g>
</g>
<!-- Node18&#45;&gt;Node13 -->
<g id="edge37_Node000018_Node000013" class="edge">
<title>Node18&#45;&gt;Node13</title>
<g id="a_edge37_Node000018_Node000013"><a xlink:title=" ">
<path fill="none" stroke="#63b8ff" d="M414.31,-274.74C406.48,-249.2 383.54,-174.43 372.75,-139.23"/>
<polygon fill="#63b8ff" stroke="#63b8ff" points="375.98,-137.84 369.7,-129.31 369.29,-139.89 375.98,-137.84"/>
</a>
</g>
</g>
<!-- Node18&#45;&gt;Node16 -->
<g id="edge35_Node000018_Node000016" class="edge">
<title>Node18&#45;&gt;Node16</title>
<g id="a_edge35_Node000018_Node000016"><a xlink:title=" ">
<path fill="none" stroke="#63b8ff" d="M396.43,-274.98C375.57,-266.34 343.03,-252.87 319.23,-243.02"/>
<polygon fill="#63b8ff" stroke="#63b8ff" points="320.52,-239.76 309.94,-239.17 317.84,-246.23 320.52,-239.76"/>
</a>
</g>
</g>
<!-- Node19&#45;&gt;Node3 -->
<g id="edge39_Node000019_Node000003" class="edge">
<title>Node19&#45;&gt;Node3</title>
<g id="a_edge39_Node000019_Node000003"><a xlink:title=" ">
<path fill="none" stroke="#63b8ff" d="M681.56,-549.91C696.79,-542.35 717.55,-530.07 731,-514 748.01,-493.68 748.79,-484.98 754,-459 755.66,-450.72 758.42,-447.19 754,-440 744.55,-424.64 727.98,-414.39 711.75,-407.64"/>
<polygon fill="#63b8ff" stroke="#63b8ff" points="712.88,-404.32 702.29,-404.06 710.4,-410.87 712.88,-404.32"/>
</a>
</g>
</g>
<!-- Node19&#45;&gt;Node6 -->
<g id="edge46_Node000019_Node000006" class="edge">
<title>Node19&#45;&gt;Node6</title>
<g id="a_edge46_Node000019_Node000006"><a xlink:title=" ">
<path fill="none" stroke="#63b8ff" d="M621.14,-557.15C512.47,-553.24 218.26,-540.45 125,-514 65.05,-497 0,-512.81 0,-450.5 0,-450.5 0,-450.5 0,-118.5 0,-49.34 242.87,-21.23 333.46,-13.15"/>
<polygon fill="#63b8ff" stroke="#63b8ff" points="333.82,-16.63 343.48,-12.29 333.22,-9.66 333.82,-16.63"/>
</a>
</g>
</g>
<!-- Node19&#45;&gt;Node14 -->
<g id="edge45_Node000019_Node000014" class="edge">
<title>Node19&#45;&gt;Node14</title>
<g id="a_edge45_Node000019_Node000014"><a xlink:title=" ">
<path fill="none" stroke="#63b8ff" d="M621.06,-555.76C482.23,-545.94 38,-509.87 38,-450.5 38,-450.5 38,-450.5 38,-283.5 38,-189.39 137.3,-110.79 182.75,-79.74"/>
<polygon fill="#63b8ff" stroke="#63b8ff" points="184.96,-82.48 191.33,-74.01 181.07,-76.66 184.96,-82.48"/>
</a>
</g>
</g>
<!-- Node20 -->
<g id="Node000020" class="node">
<title>Node20</title>
<g id="a_Node000020"><a xlink:href="CCSDSManager_8h.html" target="_top" xlink:title=" ">
<polygon fill="white" stroke="#666666" points="722.5,-514 621.5,-514 621.5,-495 722.5,-495 722.5,-514"/>
<text text-anchor="middle" x="672" y="-502" font-family="Helvetica,sans-Serif" font-size="10.00">CCSDSManager.h</text>
</a>
</g>
</g>
<!-- Node19&#45;&gt;Node20 -->
<g id="edge40_Node000019_Node000020" class="edge">
<title>Node19&#45;&gt;Node20</title>
<g id="a_edge40_Node000019_Node000020"><a xlink:title=" ">
<path fill="none" stroke="#63b8ff" d="M663.65,-549.75C664.96,-542.8 666.84,-532.85 668.48,-524.13"/>
<polygon fill="#63b8ff" stroke="#63b8ff" points="671.96,-524.56 670.38,-514.09 665.09,-523.27 671.96,-524.56"/>
</a>
</g>
</g>
<!-- Node20&#45;&gt;Node2 -->
<g id="edge44_Node000020_Node000002" class="edge">
<title>Node20&#45;&gt;Node2</title>
<g id="a_edge44_Node000020_Node000002"><a xlink:title=" ">
<path fill="none" stroke="#63b8ff" d="M659.31,-494.98C647.17,-486.84 628.64,-474.41 614.25,-464.76"/>
<polygon fill="#63b8ff" stroke="#63b8ff" points="616.18,-461.84 605.92,-459.17 612.28,-467.65 616.18,-461.84"/>
</a>
</g>
</g>
<!-- Node20&#45;&gt;Node3 -->
<g id="edge42_Node000020_Node000003" class="edge">
<title>Node20&#45;&gt;Node3</title>
<g id="a_edge42_Node000020_Node000003"><a xlink:title=" ">
<path fill="none" stroke="#63b8ff" d="M671.51,-494.66C670.54,-477.17 668.35,-437.8 667.04,-414.27"/>
<polygon fill="#63b8ff" stroke="#63b8ff" points="670.53,-413.95 666.48,-404.16 663.54,-414.34 670.53,-413.95"/>
</a>
</g>
</g>
<!-- Node20&#45;&gt;Node4 -->
<g id="edge43_Node000020_Node000004" class="edge">
<title>Node20&#45;&gt;Node4</title>
<g id="a_edge43_Node000020_Node000004"><a xlink:title=" ">
<path fill="none" stroke="#63b8ff" d="M697.54,-494.92C715.42,-487.77 738.75,-476 754,-459 774.36,-436.3 780,-426 780,-395.5 780,-395.5 780,-395.5 780,-173.5 780,-120.99 718.72,-91.49 674.5,-77.03"/>
<polygon fill="#63b8ff" stroke="#63b8ff" points="675.38,-73.64 664.79,-74 673.3,-80.32 675.38,-73.64"/>
</a>
</g>
</g>
<!-- Node21 -->
<g id="Node000021" class="node">
<title>Node21</title>
<g id="a_Node000021"><a xlink:title=" ">
<polygon fill="#e0e0e0" stroke="#999999" points="745.5,-459 700.5,-459 700.5,-440 745.5,-440 745.5,-459"/>
<text text-anchor="middle" x="723" y="-447" font-family="Helvetica,sans-Serif" font-size="10.00">utility</text>
</a>
</g>
</g>
<!-- Node20&#45;&gt;Node21 -->
<g id="edge41_Node000020_Node000021" class="edge">
<title>Node20&#45;&gt;Node21</title>
<g id="a_edge41_Node000020_Node000021"><a xlink:title=" ">
<path fill="none" stroke="#63b8ff" d="M680.42,-494.75C687.77,-487.11 698.63,-475.82 707.54,-466.56"/>
<polygon fill="#63b8ff" stroke="#63b8ff" points="710.32,-468.72 714.74,-459.09 705.28,-463.87 710.32,-468.72"/>
</a>
</g>
</g>
</g>
</svg>

<g id="navigator" transform="translate(0 0)" fill="#404254">
  <rect fill="#f2f5e9" fill-opacity="0.5" stroke="#606060" stroke-width=".5" x="0" y="0" width="60" height="60"/>
  <use id="zoomplus" xlink:href="#zoomPlus" x="17" y="9" onmousedown="handleZoom(evt,'in')"/>
  <use id="zoomminus" xlink:href="#zoomMin" x="42" y="9" onmousedown="handleZoom(evt,'out')"/>
  <use id="reset" xlink:href="#resetDef" x="30" y="36" onmousedown="handleReset()"/>
   <use id="arrowup" xlink:href="#arrowUp" x="0" y="0" onmousedown="handlePan(0,-1)"/>
  <use id="arrowright" xlink:href="#arrowRight" x="0" y="0" onmousedown="handlePan(1,0)"/>
  <use id="arrowdown" xlink:href="#arrowDown" x="0" y="0" onmousedown="handlePan(0,1)"/>
  <use id="arrowleft" xlink:href="#arrowLeft" x="0" y="0" onmousedown="handlePan(-1,0)"/>
</g>
<svg viewBox="0 0 15 15" width="100%" height="30px" preserveAspectRatio="xMaxYMin meet">
 <g id="arrow_out" transform="scale(0.3 0.3)">
  <a xlink:href="CCSDSValidator_8cpp__incl_org.svg" target="_base">
   <rect id="button" ry="5" rx="5" y="6" x="6" height="38" width="38"
        fill="#f2f5e9" fill-opacity="0.5" stroke="#606060" stroke-width="1.0"/>
   <path id="arrow"
     d="M 11.500037,31.436501 C 11.940474,20.09759 22.043105,11.32322 32.158766,21.979434 L 37.068811,17.246167 C 37.068811,17.246167 37.088388,32 37.088388,32 L 22.160133,31.978069 C 22.160133,31.978069 26.997745,27.140456 26.997745,27.140456 C 18.528582,18.264221 13.291696,25.230495 11.500037,31.436501 z"
     style="fill:#404040;"/>
  </a>
 </g>
</svg>

<style type='text/css'>
<![CDATA[
[data-mouse-over-selected='false'] { opacity: 0.7; }
[data-mouse-over-selected='true']  { opacity: 1.0; }
]]>
</style>
<script type="application/ecmascript"><![CDATA[
document.addEventListener('DOMContentLoaded', (event) => {
  highlightEdges();
  highlightAdjacentNodes();
});
]]></script>
</svg>
