<?xml version="1.0" encoding="UTF-8" standalone="no"?>
<!DOCTYPE svg PUBLIC "-//W3C//DTD SVG 1.1//EN"
 "http://www.w3.org/Graphics/SVG/1.1/DTD/svg11.dtd">
<!-- Generated by graphviz version 2.43.0 (0)
 -->
<!-- Title: src/CCSDSDataField.cpp Pages: 1 -->
<svg width="672pt" height="412pt"
 viewBox="0.00 0.00 671.50 412.00" xmlns="http://www.w3.org/2000/svg" xmlns:xlink="http://www.w3.org/1999/xlink">
<g id="graph0" class="graph" transform="scale(1 1) rotate(0) translate(4 408)">
<title>src/CCSDSDataField.cpp</title>
<!-- Node1 -->
<g id="Node000001" class="node">
<title>Node1</title>
<g id="a_Node000001"><a xlink:title=" ">
<polygon fill="#999999" stroke="#666666" points="511,-404 377,-404 377,-385 511,-385 511,-404"/>
<text text-anchor="middle" x="444" y="-392" font-family="Helvetica,sans-Serif" font-size="10.00">src/CCSDSDataField.cpp</text>
</a>
</g>
</g>
<!-- Node2 -->
<g id="Node000002" class="node">
<title>Node2</title>
<g id="a_Node000002"><a xlink:href="CCSDSDataField_8h.html" target="_top" xlink:title=" ">
<polygon fill="white" stroke="#666666" points="363.5,-349 258.5,-349 258.5,-330 363.5,-330 363.5,-349"/>
<text text-anchor="middle" x="311" y="-337" font-family="Helvetica,sans-Serif" font-size="10.00">CCSDSDataField.h</text>
</a>
</g>
</g>
<!-- Node1&#45;&gt;Node2 -->
<g id="edge1_Node000001_Node000002" class="edge">
<title>Node1&#45;&gt;Node2</title>
<g id="a_edge1_Node000001_Node000002"><a xlink:title=" ">
<path fill="none" stroke="#63b8ff" d="M422.63,-384.98C400.85,-376.3 366.84,-362.75 342.08,-352.88"/>
<polygon fill="#63b8ff" stroke="#63b8ff" points="343.34,-349.62 332.76,-349.17 340.75,-356.12 343.34,-349.62"/>
</a>
</g>
</g>
<!-- Node8 -->
<g id="Node000008" class="node">
<title>Node8</title>
<g id="a_Node000008"><a xlink:title=" ">
<polygon fill="#e0e0e0" stroke="#999999" points="607,-19 547,-19 547,0 607,0 607,-19"/>
<text text-anchor="middle" x="577" y="-7" font-family="Helvetica,sans-Serif" font-size="10.00">iostream</text>
</a>
</g>
</g>
<!-- Node1&#45;&gt;Node8 -->
<g id="edge31_Node000001_Node000008" class="edge">
<title>Node1&#45;&gt;Node8</title>
<g id="a_edge31_Node000001_Node000008"><a xlink:title=" ">
<path fill="none" stroke="#63b8ff" d="M477.13,-384.94C520.21,-371.57 590,-341.31 590,-285.5 590,-285.5 590,-285.5 590,-118.5 590,-86.96 584.47,-50.62 580.62,-29.15"/>
<polygon fill="#63b8ff" stroke="#63b8ff" points="584.03,-28.33 578.75,-19.14 577.15,-29.61 584.03,-28.33"/>
</a>
</g>
</g>
<!-- Node13 -->
<g id="Node000013" class="node">
<title>Node13</title>
<g id="a_Node000013"><a xlink:href="CCSDSSecondaryHeaderFactory_8h.html" target="_top" xlink:title=" ">
<polygon fill="white" stroke="#666666" points="264.5,-239 85.5,-239 85.5,-220 264.5,-220 264.5,-239"/>
<text text-anchor="middle" x="175" y="-227" font-family="Helvetica,sans-Serif" font-size="10.00">CCSDSSecondaryHeaderFactory.h</text>
</a>
</g>
</g>
<!-- Node1&#45;&gt;Node13 -->
<g id="edge30_Node000001_Node000013" class="edge">
<title>Node1&#45;&gt;Node13</title>
<g id="a_edge30_Node000001_Node000013"><a xlink:title=" ">
<path fill="none" stroke="#63b8ff" d="M376.9,-390.95C336.64,-386.49 286.2,-375.47 249,-349 213.39,-323.66 191.25,-275.29 181.26,-248.86"/>
<polygon fill="#63b8ff" stroke="#63b8ff" points="184.5,-247.53 177.82,-239.3 177.91,-249.9 184.5,-247.53"/>
</a>
</g>
</g>
<!-- Node16 -->
<g id="Node000016" class="node">
<title>Node16</title>
<g id="a_Node000016"><a xlink:title=" ">
<polygon fill="#e0e0e0" stroke="#999999" points="663.5,-349 618.5,-349 618.5,-330 663.5,-330 663.5,-349"/>
<text text-anchor="middle" x="641" y="-337" font-family="Helvetica,sans-Serif" font-size="10.00">utility</text>
</a>
</g>
</g>
<!-- Node1&#45;&gt;Node16 -->
<g id="edge32_Node000001_Node000016" class="edge">
<title>Node1&#45;&gt;Node16</title>
<g id="a_edge32_Node000001_Node000016"><a xlink:title=" ">
<path fill="none" stroke="#63b8ff" d="M475.65,-384.98C512.14,-375.17 571.79,-359.12 608.6,-349.22"/>
<polygon fill="#63b8ff" stroke="#63b8ff" points="609.58,-352.58 618.33,-346.6 607.77,-345.82 609.58,-352.58"/>
</a>
</g>
</g>
<!-- Node3 -->
<g id="Node000003" class="node">
<title>Node3</title>
<g id="a_Node000003"><a xlink:href="CCSDSResult_8h.html" target="_top" xlink:title=" ">
<polygon fill="white" stroke="#666666" points="511.5,-74 422.5,-74 422.5,-55 511.5,-55 511.5,-74"/>
<text text-anchor="middle" x="467" y="-62" font-family="Helvetica,sans-Serif" font-size="10.00">CCSDSResult.h</text>
</a>
</g>
</g>
<!-- Node2&#45;&gt;Node3 -->
<g id="edge2_Node000002_Node000003" class="edge">
<title>Node2&#45;&gt;Node3</title>
<g id="a_edge2_Node000002_Node000003"><a xlink:title=" ">
<path fill="none" stroke="#63b8ff" d="M363.59,-337.32C434.5,-332.62 552,-312.46 552,-230.5 552,-230.5 552,-230.5 552,-173.5 552,-132.73 514.14,-98.28 488.95,-79.86"/>
<polygon fill="#63b8ff" stroke="#63b8ff" points="490.85,-76.92 480.66,-74.04 486.83,-82.65 490.85,-76.92"/>
</a>
</g>
</g>
<!-- Node6 -->
<g id="Node000006" class="node">
<title>Node6</title>
<g id="a_Node000006"><a xlink:title=" ">
<polygon fill="#e0e0e0" stroke="#999999" points="255.5,-19 208.5,-19 208.5,0 255.5,0 255.5,-19"/>
<text text-anchor="middle" x="232" y="-7" font-family="Helvetica,sans-Serif" font-size="10.00">vector</text>
</a>
</g>
</g>
<!-- Node2&#45;&gt;Node6 -->
<g id="edge8_Node000002_Node000006" class="edge">
<title>Node2&#45;&gt;Node6</title>
<g id="a_edge8_Node000002_Node000006"><a xlink:title=" ">
<path fill="none" stroke="#63b8ff" d="M258.24,-331.28C169.51,-317.64 0,-284.51 0,-230.5 0,-230.5 0,-230.5 0,-118.5 0,-32.01 134.15,-14.61 198.43,-11.23"/>
<polygon fill="#63b8ff" stroke="#63b8ff" points="198.64,-14.73 208.48,-10.79 198.33,-7.74 198.64,-14.73"/>
</a>
</g>
</g>
<!-- Node9 -->
<g id="Node000009" class="node">
<title>Node9</title>
<g id="a_Node000009"><a xlink:title=" ">
<polygon fill="#e0e0e0" stroke="#999999" points="86,-184 28,-184 28,-165 86,-165 86,-184"/>
<text text-anchor="middle" x="57" y="-172" font-family="Helvetica,sans-Serif" font-size="10.00">memory</text>
</a>
</g>
</g>
<!-- Node2&#45;&gt;Node9 -->
<g id="edge9_Node000002_Node000009" class="edge">
<title>Node2&#45;&gt;Node9</title>
<g id="a_edge9_Node000002_Node000009"><a xlink:title=" ">
<path fill="none" stroke="#63b8ff" d="M259.57,-329.94C206.28,-318.42 124.19,-292.79 76,-239 64.96,-226.68 60.33,-208.17 58.39,-194.31"/>
<polygon fill="#63b8ff" stroke="#63b8ff" points="61.83,-193.58 57.31,-184 54.87,-194.31 61.83,-193.58"/>
</a>
</g>
</g>
<!-- Node10 -->
<g id="Node000010" class="node">
<title>Node10</title>
<g id="a_Node000010"><a xlink:href="CCSDSSecondaryHeaderAbstract_8h.html" target="_top" xlink:title=" ">
<polygon fill="white" stroke="#666666" points="486.5,-184 301.5,-184 301.5,-165 486.5,-165 486.5,-184"/>
<text text-anchor="middle" x="394" y="-172" font-family="Helvetica,sans-Serif" font-size="10.00">CCSDSSecondaryHeaderAbstract.h</text>
</a>
</g>
</g>
<!-- Node2&#45;&gt;Node10 -->
<g id="edge10_Node000002_Node000010" class="edge">
<title>Node2&#45;&gt;Node10</title>
<g id="a_edge10_Node000002_Node000010"><a xlink:title=" ">
<path fill="none" stroke="#63b8ff" d="M324.73,-329.93C336.33,-321.99 352.53,-309.15 362,-294 381.69,-262.49 389.41,-218.92 392.32,-194.34"/>
<polygon fill="#63b8ff" stroke="#63b8ff" points="395.82,-194.53 393.37,-184.22 388.86,-193.81 395.82,-194.53"/>
</a>
</g>
</g>
<!-- Node2&#45;&gt;Node13 -->
<g id="edge19_Node000002_Node000013" class="edge">
<title>Node2&#45;&gt;Node13</title>
<g id="a_edge19_Node000002_Node000013"><a xlink:title=" ">
<path fill="none" stroke="#63b8ff" d="M299.87,-329.66C276.64,-311.22 222.78,-268.45 193.98,-245.57"/>
<polygon fill="#63b8ff" stroke="#63b8ff" points="195.91,-242.64 185.9,-239.16 191.56,-248.12 195.91,-242.64"/>
</a>
</g>
</g>
<!-- Node15 -->
<g id="Node000015" class="node">
<title>Node15</title>
<g id="a_Node000015"><a xlink:href="PusServices_8h.html" target="_top" xlink:title=" ">
<polygon fill="white" stroke="#666666" points="353,-294 269,-294 269,-275 353,-275 353,-294"/>
<text text-anchor="middle" x="311" y="-282" font-family="Helvetica,sans-Serif" font-size="10.00">PusServices.h</text>
</a>
</g>
</g>
<!-- Node2&#45;&gt;Node15 -->
<g id="edge25_Node000002_Node000015" class="edge">
<title>Node2&#45;&gt;Node15</title>
<g id="a_edge25_Node000002_Node000015"><a xlink:title=" ">
<path fill="none" stroke="#63b8ff" d="M311,-329.75C311,-322.8 311,-312.85 311,-304.13"/>
<polygon fill="#63b8ff" stroke="#63b8ff" points="314.5,-304.09 311,-294.09 307.5,-304.09 314.5,-304.09"/>
</a>
</g>
</g>
<!-- Node4 -->
<g id="Node000004" class="node">
<title>Node4</title>
<g id="a_Node000004"><a xlink:title=" ">
<polygon fill="#e0e0e0" stroke="#999999" points="366.5,-19 273.5,-19 273.5,0 366.5,0 366.5,-19"/>
<text text-anchor="middle" x="320" y="-7" font-family="Helvetica,sans-Serif" font-size="10.00">unordered_map</text>
</a>
</g>
</g>
<!-- Node3&#45;&gt;Node4 -->
<g id="edge3_Node000003_Node000004" class="edge">
<title>Node3&#45;&gt;Node4</title>
<g id="a_edge3_Node000003_Node000004"><a xlink:title=" ">
<path fill="none" stroke="#63b8ff" d="M443.38,-54.98C419.1,-46.23 381.05,-32.51 353.63,-22.62"/>
<polygon fill="#63b8ff" stroke="#63b8ff" points="354.64,-19.27 344.05,-19.17 352.27,-25.85 354.64,-19.27"/>
</a>
</g>
</g>
<!-- Node5 -->
<g id="Node000005" class="node">
<title>Node5</title>
<g id="a_Node000005"><a xlink:title=" ">
<polygon fill="#e0e0e0" stroke="#999999" points="504.5,-19 453.5,-19 453.5,0 504.5,0 504.5,-19"/>
<text text-anchor="middle" x="479" y="-7" font-family="Helvetica,sans-Serif" font-size="10.00">variant</text>
</a>
</g>
</g>
<!-- Node3&#45;&gt;Node5 -->
<g id="edge4_Node000003_Node000005" class="edge">
<title>Node3&#45;&gt;Node5</title>
<g id="a_edge4_Node000003_Node000005"><a xlink:title=" ">
<path fill="none" stroke="#63b8ff" d="M468.98,-54.75C470.57,-47.72 472.86,-37.62 474.85,-28.84"/>
<polygon fill="#63b8ff" stroke="#63b8ff" points="478.26,-29.62 477.06,-19.09 471.43,-28.07 478.26,-29.62"/>
</a>
</g>
</g>
<!-- Node3&#45;&gt;Node6 -->
<g id="edge5_Node000003_Node000006" class="edge">
<title>Node3&#45;&gt;Node6</title>
<g id="a_edge5_Node000003_Node000006"><a xlink:title=" ">
<path fill="none" stroke="#63b8ff" d="M425.67,-54.99C386.65,-46.84 326.27,-33.91 265.49,-19.29"/>
<polygon fill="#63b8ff" stroke="#63b8ff" points="266.28,-15.88 255.74,-16.93 264.63,-22.68 266.28,-15.88"/>
</a>
</g>
</g>
<!-- Node7 -->
<g id="Node000007" class="node">
<title>Node7</title>
<g id="a_Node000007"><a xlink:title=" ">
<polygon fill="#e0e0e0" stroke="#999999" points="435,-19 385,-19 385,0 435,0 435,-19"/>
<text text-anchor="middle" x="410" y="-7" font-family="Helvetica,sans-Serif" font-size="10.00">cstdint</text>
</a>
</g>
</g>
<!-- Node3&#45;&gt;Node7 -->
<g id="edge6_Node000003_Node000007" class="edge">
<title>Node3&#45;&gt;Node7</title>
<g id="a_edge6_Node000003_Node000007"><a xlink:title=" ">
<path fill="none" stroke="#63b8ff" d="M457.84,-54.98C449.5,-47.23 436.97,-35.58 426.82,-26.14"/>
<polygon fill="#63b8ff" stroke="#63b8ff" points="429.03,-23.42 419.32,-19.17 424.26,-28.54 429.03,-23.42"/>
</a>
</g>
</g>
<!-- Node3&#45;&gt;Node8 -->
<g id="edge7_Node000003_Node000008" class="edge">
<title>Node3&#45;&gt;Node8</title>
<g id="a_edge7_Node000003_Node000008"><a xlink:title=" ">
<path fill="none" stroke="#63b8ff" d="M484.67,-54.98C502.29,-46.5 529.58,-33.35 549.93,-23.54"/>
<polygon fill="#63b8ff" stroke="#63b8ff" points="551.52,-26.66 559.01,-19.17 548.48,-20.36 551.52,-26.66"/>
</a>
</g>
</g>
<!-- Node10&#45;&gt;Node3 -->
<g id="edge11_Node000010_Node000003" class="edge">
<title>Node10&#45;&gt;Node3</title>
<g id="a_edge11_Node000010_Node000003"><a xlink:title=" ">
<path fill="none" stroke="#63b8ff" d="M399.97,-164.66C412.06,-146.77 439.62,-106 455.38,-82.69"/>
<polygon fill="#63b8ff" stroke="#63b8ff" points="458.45,-84.4 461.15,-74.16 452.65,-80.48 458.45,-84.4"/>
</a>
</g>
</g>
<!-- Node10&#45;&gt;Node6 -->
<g id="edge17_Node000010_Node000006" class="edge">
<title>Node10&#45;&gt;Node6</title>
<g id="a_edge17_Node000010_Node000006"><a xlink:title=" ">
<path fill="none" stroke="#63b8ff" d="M385.44,-164.87C373.33,-152.65 350.48,-129.61 331,-110 301.56,-80.37 267.17,-45.82 247.65,-26.21"/>
<polygon fill="#63b8ff" stroke="#63b8ff" points="250.02,-23.63 240.48,-19.01 245.06,-28.57 250.02,-23.63"/>
</a>
</g>
</g>
<!-- Node10&#45;&gt;Node7 -->
<g id="edge18_Node000010_Node000007" class="edge">
<title>Node10&#45;&gt;Node7</title>
<g id="a_edge18_Node000010_Node000007"><a xlink:title=" ">
<path fill="none" stroke="#63b8ff" d="M394.86,-164.74C397.36,-139.31 404.64,-65.08 408.12,-29.69"/>
<polygon fill="#63b8ff" stroke="#63b8ff" points="411.64,-29.6 409.14,-19.31 404.68,-28.92 411.64,-29.6"/>
</a>
</g>
</g>
<!-- Node11 -->
<g id="Node000011" class="node">
<title>Node11</title>
<g id="a_Node000011"><a xlink:href="CCSDSConfig_8h.html" target="_top" xlink:title=" ">
<polygon fill="white" stroke="#666666" points="322.5,-129 233.5,-129 233.5,-110 322.5,-110 322.5,-129"/>
<text text-anchor="middle" x="278" y="-117" font-family="Helvetica,sans-Serif" font-size="10.00">CCSDSConfig.h</text>
</a>
</g>
</g>
<!-- Node10&#45;&gt;Node11 -->
<g id="edge12_Node000010_Node000011" class="edge">
<title>Node10&#45;&gt;Node11</title>
<g id="a_edge12_Node000010_Node000011"><a xlink:title=" ">
<path fill="none" stroke="#63b8ff" d="M375.36,-164.98C356.7,-156.46 327.75,-143.23 306.26,-133.41"/>
<polygon fill="#63b8ff" stroke="#63b8ff" points="307.53,-130.14 296.98,-129.17 304.62,-136.51 307.53,-130.14"/>
</a>
</g>
</g>
<!-- Node11&#45;&gt;Node3 -->
<g id="edge16_Node000011_Node000003" class="edge">
<title>Node11&#45;&gt;Node3</title>
<g id="a_edge16_Node000011_Node000003"><a xlink:title=" ">
<path fill="none" stroke="#63b8ff" d="M308.37,-109.98C340.37,-101.01 390.96,-86.82 426.38,-76.89"/>
<polygon fill="#63b8ff" stroke="#63b8ff" points="427.71,-80.15 436.4,-74.08 425.82,-73.41 427.71,-80.15"/>
</a>
</g>
</g>
<!-- Node11&#45;&gt;Node6 -->
<g id="edge15_Node000011_Node000006" class="edge">
<title>Node11&#45;&gt;Node6</title>
<g id="a_edge15_Node000011_Node000006"><a xlink:title=" ">
<path fill="none" stroke="#63b8ff" d="M274.24,-109.66C266.72,-92.01 249.71,-52.09 239.72,-28.64"/>
<polygon fill="#63b8ff" stroke="#63b8ff" points="242.83,-26.99 235.69,-19.16 236.39,-29.73 242.83,-26.99"/>
</a>
</g>
</g>
<!-- Node11&#45;&gt;Node7 -->
<g id="edge14_Node000011_Node000007" class="edge">
<title>Node11&#45;&gt;Node7</title>
<g id="a_edge14_Node000011_Node000007"><a xlink:title=" ">
<path fill="none" stroke="#63b8ff" d="M288.8,-109.66C311.35,-91.22 363.62,-48.45 391.58,-25.57"/>
<polygon fill="#63b8ff" stroke="#63b8ff" points="393.89,-28.2 399.42,-19.16 389.46,-22.78 393.89,-28.2"/>
</a>
</g>
</g>
<!-- Node12 -->
<g id="Node000012" class="node">
<title>Node12</title>
<g id="a_Node000012"><a xlink:title=" ">
<polygon fill="#e0e0e0" stroke="#999999" points="198,-74 154,-74 154,-55 198,-55 198,-74"/>
<text text-anchor="middle" x="176" y="-62" font-family="Helvetica,sans-Serif" font-size="10.00">string</text>
</a>
</g>
</g>
<!-- Node11&#45;&gt;Node12 -->
<g id="edge13_Node000011_Node000012" class="edge">
<title>Node11&#45;&gt;Node12</title>
<g id="a_edge13_Node000011_Node000012"><a xlink:title=" ">
<path fill="none" stroke="#63b8ff" d="M261.61,-109.98C245.43,-101.57 220.43,-88.59 201.62,-78.81"/>
<polygon fill="#63b8ff" stroke="#63b8ff" points="203.17,-75.68 192.69,-74.17 199.95,-81.89 203.17,-75.68"/>
</a>
</g>
</g>
<!-- Node13&#45;&gt;Node4 -->
<g id="edge21_Node000013_Node000004" class="edge">
<title>Node13&#45;&gt;Node4</title>
<g id="a_edge21_Node000013_Node000004"><a xlink:title=" ">
<path fill="none" stroke="#63b8ff" d="M169.36,-219.81C152.34,-192.38 105.03,-106.4 145,-55 152.52,-45.32 216.15,-30.87 264.54,-21.08"/>
<polygon fill="#63b8ff" stroke="#63b8ff" points="265.49,-24.46 274.61,-19.06 264.11,-17.59 265.49,-24.46"/>
</a>
</g>
</g>
<!-- Node13&#45;&gt;Node9 -->
<g id="edge20_Node000013_Node000009" class="edge">
<title>Node13&#45;&gt;Node9</title>
<g id="a_edge20_Node000013_Node000009"><a xlink:title=" ">
<path fill="none" stroke="#63b8ff" d="M156.04,-219.98C136.97,-211.42 107.34,-198.11 85.45,-188.28"/>
<polygon fill="#63b8ff" stroke="#63b8ff" points="86.86,-185.07 76.3,-184.17 83.99,-191.46 86.86,-185.07"/>
</a>
</g>
</g>
<!-- Node13&#45;&gt;Node10 -->
<g id="edge24_Node000013_Node000010" class="edge">
<title>Node13&#45;&gt;Node10</title>
<g id="a_edge24_Node000013_Node000010"><a xlink:title=" ">
<path fill="none" stroke="#63b8ff" d="M210.19,-219.98C247.83,-210.87 307.66,-196.4 348.77,-186.45"/>
<polygon fill="#63b8ff" stroke="#63b8ff" points="349.64,-189.84 358.54,-184.08 348,-183.03 349.64,-189.84"/>
</a>
</g>
</g>
<!-- Node13&#45;&gt;Node12 -->
<g id="edge23_Node000013_Node000012" class="edge">
<title>Node13&#45;&gt;Node12</title>
<g id="a_edge23_Node000013_Node000012"><a xlink:title=" ">
<path fill="none" stroke="#63b8ff" d="M174.01,-219.98C173.02,-211.04 171.56,-196.55 171,-184 169.42,-148.81 172.19,-107.72 174.19,-84.34"/>
<polygon fill="#63b8ff" stroke="#63b8ff" points="177.7,-84.4 175.12,-74.12 170.73,-83.77 177.7,-84.4"/>
</a>
</g>
</g>
<!-- Node14 -->
<g id="Node000014" class="node">
<title>Node14</title>
<g id="a_Node000014"><a xlink:title=" ">
<polygon fill="#e0e0e0" stroke="#999999" points="245.5,-184 180.5,-184 180.5,-165 245.5,-165 245.5,-184"/>
<text text-anchor="middle" x="213" y="-172" font-family="Helvetica,sans-Serif" font-size="10.00">functional</text>
</a>
</g>
</g>
<!-- Node13&#45;&gt;Node14 -->
<g id="edge22_Node000013_Node000014" class="edge">
<title>Node13&#45;&gt;Node14</title>
<g id="a_edge22_Node000013_Node000014"><a xlink:title=" ">
<path fill="none" stroke="#63b8ff" d="M181.27,-219.75C186.59,-212.34 194.36,-201.5 200.88,-192.41"/>
<polygon fill="#63b8ff" stroke="#63b8ff" points="203.86,-194.26 206.84,-184.09 198.17,-190.18 203.86,-194.26"/>
</a>
</g>
</g>
<!-- Node15&#45;&gt;Node3 -->
<g id="edge28_Node000015_Node000003" class="edge">
<title>Node15&#45;&gt;Node3</title>
<g id="a_edge28_Node000015_Node000003"><a xlink:title=" ">
<path fill="none" stroke="#63b8ff" d="M349.81,-275C393.87,-263.04 463.67,-236.56 495,-184 514.3,-151.62 493.13,-106.85 478.5,-82.66"/>
<polygon fill="#63b8ff" stroke="#63b8ff" points="481.44,-80.77 473.13,-74.2 475.53,-84.52 481.44,-80.77"/>
</a>
</g>
</g>
<!-- Node15&#45;&gt;Node10 -->
<g id="edge26_Node000015_Node000010" class="edge">
<title>Node15&#45;&gt;Node10</title>
<g id="a_edge26_Node000015_Node000010"><a xlink:title=" ">
<path fill="none" stroke="#63b8ff" d="M317.79,-274.66C331.6,-256.69 363.15,-215.64 381.02,-192.38"/>
<polygon fill="#63b8ff" stroke="#63b8ff" points="384.03,-194.22 387.35,-184.16 378.48,-189.95 384.03,-194.22"/>
</a>
</g>
</g>
<!-- Node15&#45;&gt;Node11 -->
<g id="edge29_Node000015_Node000011" class="edge">
<title>Node15&#45;&gt;Node11</title>
<g id="a_edge29_Node000015_Node000011"><a xlink:title=" ">
<path fill="none" stroke="#63b8ff" d="M309.23,-274.74C304.06,-249.2 288.92,-174.43 281.79,-139.23"/>
<polygon fill="#63b8ff" stroke="#63b8ff" points="285.2,-138.41 279.78,-129.31 278.34,-139.8 285.2,-138.41"/>
</a>
</g>
</g>
<!-- Node15&#45;&gt;Node13 -->
<g id="edge27_Node000015_Node000013" class="edge">
<title>Node15&#45;&gt;Node13</title>
<g id="a_edge27_Node000015_Node000013"><a xlink:title=" ">
<path fill="none" stroke="#63b8ff" d="M289.15,-274.98C266.88,-266.3 232.1,-252.75 206.78,-242.88"/>
<polygon fill="#63b8ff" stroke="#63b8ff" points="207.84,-239.54 197.25,-239.17 205.29,-246.06 207.84,-239.54"/>
</a>
</g>
</g>
</g>
</svg>
