<?xml version="1.0" encoding="UTF-8" standalone="no"?>
<!DOCTYPE svg PUBLIC "-//W3C//DTD SVG 1.1//EN"
 "http://www.w3.org/Graphics/SVG/1.1/DTD/svg11.dtd">
<!-- Generated by graphviz version 2.43.0 (0)
 -->
<!-- Title: inc/CCSDSSecondaryHeaderFactory.h Pages: 1 -->
<svg width="512pt" height="258pt"
 viewBox="0.00 0.00 512.00 258.00" xmlns="http://www.w3.org/2000/svg" xmlns:xlink="http://www.w3.org/1999/xlink">
<g id="graph0" class="graph" transform="scale(1 1) rotate(0) translate(4 254)">
<title>inc/CCSDSSecondaryHeaderFactory.h</title>
<!-- Node1 -->
<g id="Node000001" class="node">
<title>Node1</title>
<g id="a_Node000001"><a xlink:title=" ">
<polygon fill="#999999" stroke="#666666" points="338,-250 185,-250 185,-220 338,-220 338,-250"/>
<text text-anchor="start" x="193" y="-238" font-family="Helvetica,sans-Serif" font-size="10.00">inc/CCSDSSecondaryHeader</text>
<text text-anchor="middle" x="261.5" y="-227" font-family="Helvetica,sans-Serif" font-size="10.00">Factory.h</text>
</a>
</g>
</g>
<!-- Node2 -->
<g id="Node000002" class="node">
<title>Node2</title>
<g id="a_Node000002"><a xlink:title=" ">
<polygon fill="#e0e0e0" stroke="#999999" points="84.5,-184 26.5,-184 26.5,-165 84.5,-165 84.5,-184"/>
<text text-anchor="middle" x="55.5" y="-172" font-family="Helvetica,sans-Serif" font-size="10.00">memory</text>
</a>
</g>
</g>
<!-- Node1&#45;&gt;Node2 -->
<g id="edge1_Node000001_Node000002" class="edge">
<title>Node1&#45;&gt;Node2</title>
<g id="a_edge1_Node000001_Node000002"><a xlink:title=" ">
<path fill="none" stroke="#63b8ff" d="M212.16,-219.99C176.13,-209.76 127.95,-196.07 94.57,-186.6"/>
<polygon fill="#63b8ff" stroke="#63b8ff" points="95.3,-183.16 84.72,-183.8 93.39,-189.9 95.3,-183.16"/>
</a>
</g>
</g>
<!-- Node3 -->
<g id="Node000003" class="node">
<title>Node3</title>
<g id="a_Node000003"><a xlink:title=" ">
<polygon fill="#e0e0e0" stroke="#999999" points="93,-19 0,-19 0,0 93,0 93,-19"/>
<text text-anchor="middle" x="46.5" y="-7" font-family="Helvetica,sans-Serif" font-size="10.00">unordered_map</text>
</a>
</g>
</g>
<!-- Node1&#45;&gt;Node3 -->
<g id="edge2_Node000001_Node000003" class="edge">
<title>Node1&#45;&gt;Node3</title>
<g id="a_edge2_Node000001_Node000003"><a xlink:title=" ">
<path fill="none" stroke="#63b8ff" d="M220.73,-219.94C200.74,-211.65 177.22,-199.69 159.5,-184 107.55,-138 69.69,-62.73 54.22,-28.48"/>
<polygon fill="#63b8ff" stroke="#63b8ff" points="57.38,-26.98 50.14,-19.24 50.98,-29.81 57.38,-26.98"/>
</a>
</g>
</g>
<!-- Node4 -->
<g id="Node000004" class="node">
<title>Node4</title>
<g id="a_Node000004"><a xlink:title=" ">
<polygon fill="#e0e0e0" stroke="#999999" points="504,-184 439,-184 439,-165 504,-165 504,-184"/>
<text text-anchor="middle" x="471.5" y="-172" font-family="Helvetica,sans-Serif" font-size="10.00">functional</text>
</a>
</g>
</g>
<!-- Node1&#45;&gt;Node4 -->
<g id="edge3_Node000001_Node000004" class="edge">
<title>Node1&#45;&gt;Node4</title>
<g id="a_edge3_Node000001_Node000004"><a xlink:title=" ">
<path fill="none" stroke="#63b8ff" d="M311.8,-219.99C348.2,-209.85 396.76,-196.32 430.75,-186.85"/>
<polygon fill="#63b8ff" stroke="#63b8ff" points="432.1,-190.11 440.79,-184.05 430.22,-183.37 432.1,-190.11"/>
</a>
</g>
</g>
<!-- Node5 -->
<g id="Node000005" class="node">
<title>Node5</title>
<g id="a_Node000005"><a xlink:title=" ">
<polygon fill="#e0e0e0" stroke="#999999" points="444.5,-74 400.5,-74 400.5,-55 444.5,-55 444.5,-74"/>
<text text-anchor="middle" x="422.5" y="-62" font-family="Helvetica,sans-Serif" font-size="10.00">string</text>
</a>
</g>
</g>
<!-- Node1&#45;&gt;Node5 -->
<g id="edge4_Node000001_Node000005" class="edge">
<title>Node1&#45;&gt;Node5</title>
<g id="a_edge4_Node000001_Node000005"><a xlink:title=" ">
<path fill="none" stroke="#63b8ff" d="M304.36,-219.93C323.94,-211.84 346.31,-200.05 362.5,-184 391.61,-155.16 409.21,-109.26 417.26,-83.88"/>
<polygon fill="#63b8ff" stroke="#63b8ff" points="420.68,-84.67 420.21,-74.08 413.98,-82.65 420.68,-84.67"/>
</a>
</g>
</g>
<!-- Node6 -->
<g id="Node000006" class="node">
<title>Node6</title>
<g id="a_Node000006"><a xlink:href="CCSDSSecondaryHeaderAbstract_8h.html" target="_top" xlink:title=" ">
<polygon fill="white" stroke="#666666" points="354,-184 169,-184 169,-165 354,-165 354,-184"/>
<text text-anchor="middle" x="261.5" y="-172" font-family="Helvetica,sans-Serif" font-size="10.00">CCSDSSecondaryHeaderAbstract.h</text>
</a>
</g>
</g>
<!-- Node1&#45;&gt;Node6 -->
<g id="edge5_Node000001_Node000006" class="edge">
<title>Node1&#45;&gt;Node6</title>
<g id="a_edge5_Node000001_Node000006"><a xlink:title=" ">
<path fill="none" stroke="#63b8ff" d="M261.5,-219.84C261.5,-212.21 261.5,-202.7 261.5,-194.45"/>
<polygon fill="#63b8ff" stroke="#63b8ff" points="265,-194.27 261.5,-184.27 258,-194.27 265,-194.27"/>
</a>
</g>
</g>
<!-- Node7 -->
<g id="Node000007" class="node">
<title>Node7</title>
<g id="a_Node000007"><a xlink:href="CCSDSResult_8h.html" target="_top" xlink:title=" ">
<polygon fill="white" stroke="#666666" points="230,-74 141,-74 141,-55 230,-55 230,-74"/>
<text text-anchor="middle" x="185.5" y="-62" font-family="Helvetica,sans-Serif" font-size="10.00">CCSDSResult.h</text>
</a>
</g>
</g>
<!-- Node6&#45;&gt;Node7 -->
<g id="edge6_Node000006_Node000007" class="edge">
<title>Node6&#45;&gt;Node7</title>
<g id="a_edge6_Node000006_Node000007"><a xlink:title=" ">
<path fill="none" stroke="#63b8ff" d="M249.24,-164.81C238.4,-156.6 222.75,-143.43 212.5,-129 202.74,-115.27 195.56,-97.46 191.06,-84.2"/>
<polygon fill="#63b8ff" stroke="#63b8ff" points="194.29,-82.79 187.92,-74.32 187.62,-84.91 194.29,-82.79"/>
</a>
</g>
</g>
<!-- Node9 -->
<g id="Node000009" class="node">
<title>Node9</title>
<g id="a_Node000009"><a xlink:title=" ">
<polygon fill="#e0e0e0" stroke="#999999" points="306,-19 259,-19 259,0 306,0 306,-19"/>
<text text-anchor="middle" x="282.5" y="-7" font-family="Helvetica,sans-Serif" font-size="10.00">vector</text>
</a>
</g>
</g>
<!-- Node6&#45;&gt;Node9 -->
<g id="edge17_Node000006_Node000009" class="edge">
<title>Node6&#45;&gt;Node9</title>
<g id="a_edge17_Node000006_Node000009"><a xlink:title=" ">
<path fill="none" stroke="#63b8ff" d="M256.95,-164.95C251.05,-152.84 241.92,-129.92 245.5,-110 250.84,-80.33 264.46,-47.94 273.61,-28.43"/>
<polygon fill="#63b8ff" stroke="#63b8ff" points="276.84,-29.78 278.02,-19.25 270.53,-26.74 276.84,-29.78"/>
</a>
</g>
</g>
<!-- Node10 -->
<g id="Node000010" class="node">
<title>Node10</title>
<g id="a_Node000010"><a xlink:title=" ">
<polygon fill="#e0e0e0" stroke="#999999" points="374.5,-19 324.5,-19 324.5,0 374.5,0 374.5,-19"/>
<text text-anchor="middle" x="349.5" y="-7" font-family="Helvetica,sans-Serif" font-size="10.00">cstdint</text>
</a>
</g>
</g>
<!-- Node6&#45;&gt;Node10 -->
<g id="edge18_Node000006_Node000010" class="edge">
<title>Node6&#45;&gt;Node10</title>
<g id="a_edge18_Node000006_Node000010"><a xlink:title=" ">
<path fill="none" stroke="#63b8ff" d="M299.92,-164.96C319.24,-158.52 340.95,-147.5 352.5,-129 371.77,-98.13 362.99,-53.37 355.71,-28.63"/>
<polygon fill="#63b8ff" stroke="#63b8ff" points="359.04,-27.55 352.68,-19.08 352.37,-29.67 359.04,-27.55"/>
</a>
</g>
</g>
<!-- Node12 -->
<g id="Node000012" class="node">
<title>Node12</title>
<g id="a_Node000012"><a xlink:href="CCSDSConfig_8h.html" target="_top" xlink:title=" ">
<polygon fill="white" stroke="#666666" points="344,-129 255,-129 255,-110 344,-110 344,-129"/>
<text text-anchor="middle" x="299.5" y="-117" font-family="Helvetica,sans-Serif" font-size="10.00">CCSDSConfig.h</text>
</a>
</g>
</g>
<!-- Node6&#45;&gt;Node12 -->
<g id="edge12_Node000006_Node000012" class="edge">
<title>Node6&#45;&gt;Node12</title>
<g id="a_edge12_Node000006_Node000012"><a xlink:title=" ">
<path fill="none" stroke="#63b8ff" d="M267.77,-164.75C273.09,-157.34 280.86,-146.5 287.38,-137.41"/>
<polygon fill="#63b8ff" stroke="#63b8ff" points="290.36,-139.26 293.34,-129.09 284.67,-135.18 290.36,-139.26"/>
</a>
</g>
</g>
<!-- Node7&#45;&gt;Node3 -->
<g id="edge7_Node000007_Node000003" class="edge">
<title>Node7&#45;&gt;Node3</title>
<g id="a_edge7_Node000007_Node000003"><a xlink:title=" ">
<path fill="none" stroke="#63b8ff" d="M163.17,-54.98C140.3,-46.27 104.54,-32.63 78.64,-22.75"/>
<polygon fill="#63b8ff" stroke="#63b8ff" points="79.83,-19.46 69.24,-19.17 77.34,-26 79.83,-19.46"/>
</a>
</g>
</g>
<!-- Node8 -->
<g id="Node000008" class="node">
<title>Node8</title>
<g id="a_Node000008"><a xlink:title=" ">
<polygon fill="#e0e0e0" stroke="#999999" points="241,-19 190,-19 190,0 241,0 241,-19"/>
<text text-anchor="middle" x="215.5" y="-7" font-family="Helvetica,sans-Serif" font-size="10.00">variant</text>
</a>
</g>
</g>
<!-- Node7&#45;&gt;Node8 -->
<g id="edge8_Node000007_Node000008" class="edge">
<title>Node7&#45;&gt;Node8</title>
<g id="a_edge8_Node000007_Node000008"><a xlink:title=" ">
<path fill="none" stroke="#63b8ff" d="M190.45,-54.75C194.56,-47.49 200.53,-36.95 205.6,-27.98"/>
<polygon fill="#63b8ff" stroke="#63b8ff" points="208.76,-29.52 210.64,-19.09 202.67,-26.07 208.76,-29.52"/>
</a>
</g>
</g>
<!-- Node7&#45;&gt;Node9 -->
<g id="edge9_Node000007_Node000009" class="edge">
<title>Node7&#45;&gt;Node9</title>
<g id="a_edge9_Node000007_Node000009"><a xlink:title=" ">
<path fill="none" stroke="#63b8ff" d="M201.08,-54.98C216.27,-46.69 239.6,-33.94 257.4,-24.22"/>
<polygon fill="#63b8ff" stroke="#63b8ff" points="259.53,-27.04 266.63,-19.17 256.18,-20.89 259.53,-27.04"/>
</a>
</g>
</g>
<!-- Node7&#45;&gt;Node10 -->
<g id="edge10_Node000007_Node000010" class="edge">
<title>Node7&#45;&gt;Node10</title>
<g id="a_edge10_Node000007_Node000010"><a xlink:title=" ">
<path fill="none" stroke="#63b8ff" d="M211.85,-54.98C239.67,-45.99 283.67,-31.77 314.42,-21.84"/>
<polygon fill="#63b8ff" stroke="#63b8ff" points="315.85,-25.05 324.29,-18.65 313.7,-18.39 315.85,-25.05"/>
</a>
</g>
</g>
<!-- Node11 -->
<g id="Node000011" class="node">
<title>Node11</title>
<g id="a_Node000011"><a xlink:title=" ">
<polygon fill="#e0e0e0" stroke="#999999" points="171.5,-19 111.5,-19 111.5,0 171.5,0 171.5,-19"/>
<text text-anchor="middle" x="141.5" y="-7" font-family="Helvetica,sans-Serif" font-size="10.00">iostream</text>
</a>
</g>
</g>
<!-- Node7&#45;&gt;Node11 -->
<g id="edge11_Node000007_Node000011" class="edge">
<title>Node7&#45;&gt;Node11</title>
<g id="a_edge11_Node000007_Node000011"><a xlink:title=" ">
<path fill="none" stroke="#63b8ff" d="M178.23,-54.75C171.96,-47.18 162.71,-36.05 155.07,-26.84"/>
<polygon fill="#63b8ff" stroke="#63b8ff" points="157.71,-24.55 148.63,-19.09 152.33,-29.02 157.71,-24.55"/>
</a>
</g>
</g>
<!-- Node12&#45;&gt;Node5 -->
<g id="edge13_Node000012_Node000005" class="edge">
<title>Node12&#45;&gt;Node5</title>
<g id="a_edge13_Node000012_Node000005"><a xlink:title=" ">
<path fill="none" stroke="#63b8ff" d="M319.26,-109.98C339.23,-101.38 370.3,-87.99 393.15,-78.15"/>
<polygon fill="#63b8ff" stroke="#63b8ff" points="394.58,-81.34 402.38,-74.17 391.81,-74.91 394.58,-81.34"/>
</a>
</g>
</g>
<!-- Node12&#45;&gt;Node7 -->
<g id="edge16_Node000012_Node000007" class="edge">
<title>Node12&#45;&gt;Node7</title>
<g id="a_edge16_Node000012_Node000007"><a xlink:title=" ">
<path fill="none" stroke="#63b8ff" d="M281.18,-109.98C262.84,-101.46 234.39,-88.23 213.27,-78.41"/>
<polygon fill="#63b8ff" stroke="#63b8ff" points="214.69,-75.21 204.15,-74.17 211.74,-81.56 214.69,-75.21"/>
</a>
</g>
</g>
<!-- Node12&#45;&gt;Node9 -->
<g id="edge15_Node000012_Node000009" class="edge">
<title>Node12&#45;&gt;Node9</title>
<g id="a_edge15_Node000012_Node000009"><a xlink:title=" ">
<path fill="none" stroke="#63b8ff" d="M298.11,-109.66C295.36,-92.17 289.16,-52.8 285.46,-29.27"/>
<polygon fill="#63b8ff" stroke="#63b8ff" points="288.88,-28.49 283.86,-19.16 281.96,-29.58 288.88,-28.49"/>
</a>
</g>
</g>
<!-- Node12&#45;&gt;Node10 -->
<g id="edge14_Node000012_Node000010" class="edge">
<title>Node12&#45;&gt;Node10</title>
<g id="a_edge14_Node000012_Node000010"><a xlink:title=" ">
<path fill="none" stroke="#63b8ff" d="M303.59,-109.66C311.8,-91.93 330.41,-51.73 341.25,-28.32"/>
<polygon fill="#63b8ff" stroke="#63b8ff" points="344.47,-29.7 345.49,-19.16 338.11,-26.76 344.47,-29.7"/>
</a>
</g>
</g>
</g>
</svg>
