<?xml version="1.0" encoding="UTF-8" standalone="no"?>
<!DOCTYPE svg PUBLIC "-//W3C//DTD SVG 1.1//EN"
 "http://www.w3.org/Graphics/SVG/1.1/DTD/svg11.dtd">
<!-- Generated by graphviz version 2.43.0 (0)
 -->
<!-- Title: inc/CCSDSManager.h Pages: 1 -->
<!--zoomable 467 -->

<svg id="main" version="1.1" xmlns="http://www.w3.org/2000/svg" xmlns:xlink="http://www.w3.org/1999/xlink" xml:space="preserve" onload="init(evt)">
<style type="text/css"><![CDATA[
.node, .edge {opacity: 0.7;}
.node.selected, .edge.selected {opacity: 1;}
.edge:hover path { stroke: red; }
.edge:hover polygon { stroke: red; fill: red; }
]]></style>

<defs>
  <circle id="rim" cx="0" cy="0" r="7"/>
  <circle id="rim2" cx="0" cy="0" r="3.5"/>
  <g id="zoomPlus">
    <use xlink:href="#rim" fill="#404040"><set attributeName="fill" to="#808080" begin="zoomplus.mouseover" end="zoomplus.mouseout"/></use>
    <path d="M-4,0h8M0,-4v8" fill="none" stroke="white" stroke-width="1.5" pointer-events="none"/>
  </g>
  <g id="zoomMin">
    <use xlink:href="#rim" fill="#404040"><set attributeName="fill" to="#808080" begin="zoomminus.mouseover" end="zoomminus.mouseout"/></use>
    <path d="M-4,0h8" fill="none" stroke="white" stroke-width="1.5" pointer-events="none"/>
  </g>
  <g id="arrowUp" transform="translate(30 24)">
    <use xlink:href="#rim"/>
    <path pointer-events="none" fill="none" stroke="white" stroke-width="1.5" d="M0,-3.0v7 M-2.5,-0.5L0,-3.0L2.5,-0.5"/>
  </g>
  <g id="arrowRight" transform="rotate(90) translate(36 -43)">
    <use xlink:href="#rim"/>
    <path pointer-events="none" fill="none" stroke="white" stroke-width="1.5" d="M0,-3.0v7 M-2.5,-0.5L0,-3.0L2.5,-0.5"/>
  </g>
  <g id="arrowDown" transform="rotate(180) translate(-30 -48)">
    <use xlink:href="#rim"/>
    <path pointer-events="none" fill="none" stroke="white" stroke-width="1.5" d="M0,-3.0v7 M-2.5,-0.5L0,-3.0L2.5,-0.5"/>
  </g>
  <g id="arrowLeft" transform="rotate(270) translate(-36 17)">
    <use xlink:href="#rim"/>
    <path pointer-events="none" fill="none" stroke="white" stroke-width="1.5" d="M0,-3.0v7 M-2.5,-0.5L0,-3.0L2.5,-0.5"/>
  </g>
  <g id="resetDef">
    <use xlink:href="#rim2" fill="#404040"><set attributeName="fill" to="#808080" begin="reset.mouseover" end="reset.mouseout"/></use>
  </g>
</defs>
<script type="application/ecmascript">
var viewWidth = 922;
var viewHeight = 467;
var sectionId = 'dynsection-0';
</script>
<script type="application/ecmascript" xlink:href="svg.min.js"/>
<svg id="graph" class="graph">
<g id="viewport">
<title>inc/CCSDSManager.h</title>
<!-- Node1 -->
<g id="Node000001" class="node">
<title>Node1</title>
<g id="a_Node000001"><a xlink:title=" ">
<polygon fill="#999999" stroke="#666666" points="221.5,-459 103.5,-459 103.5,-440 221.5,-440 221.5,-459"/>
<text text-anchor="middle" x="162.5" y="-447" font-family="Helvetica,sans-Serif" font-size="10.00">inc/CCSDSManager.h</text>
</a>
</g>
</g>
<!-- Node2 -->
<g id="Node000002" class="node">
<title>Node2</title>
<g id="a_Node000002"><a xlink:title=" ">
<polygon fill="#e0e0e0" stroke="#999999" points="45,-404 0,-404 0,-385 45,-385 45,-404"/>
<text text-anchor="middle" x="22.5" y="-392" font-family="Helvetica,sans-Serif" font-size="10.00">utility</text>
</a>
</g>
</g>
<!-- Node1&#45;&gt;Node2 -->
<g id="edge1_Node000001_Node000002" class="edge">
<title>Node1&#45;&gt;Node2</title>
<g id="a_edge1_Node000001_Node000002"><a xlink:title=" ">
<path fill="none" stroke="#63b8ff" d="M140.01,-439.98C116.98,-431.27 80.96,-417.63 54.87,-407.75"/>
<polygon fill="#63b8ff" stroke="#63b8ff" points="55.99,-404.44 45.4,-404.17 53.52,-410.98 55.99,-404.44"/>
</a>
</g>
</g>
<!-- Node3 -->
<g id="Node000003" class="node">
<title>Node3</title>
<g id="a_Node000003"><a xlink:href="CCSDSPacket_8h.html" target="_top" xlink:title=" ">
<polygon fill="white" stroke="#666666" points="514.5,-349 424.5,-349 424.5,-330 514.5,-330 514.5,-349"/>
<text text-anchor="middle" x="469.5" y="-337" font-family="Helvetica,sans-Serif" font-size="10.00">CCSDSPacket.h</text>
</a>
</g>
</g>
<!-- Node1&#45;&gt;Node3 -->
<g id="edge2_Node000001_Node000003" class="edge">
<title>Node1&#45;&gt;Node3</title>
<g id="a_edge2_Node000001_Node000003"><a xlink:title=" ">
<path fill="none" stroke="#63b8ff" d="M186.85,-439.94C241.25,-420.79 372.82,-374.51 435.37,-352.51"/>
<polygon fill="#63b8ff" stroke="#63b8ff" points="436.88,-355.69 445.15,-349.07 434.56,-349.08 436.88,-355.69"/>
</a>
</g>
</g>
<!-- Node4 -->
<g id="Node000004" class="node">
<title>Node4</title>
<g id="a_Node000004"><a xlink:href="CCSDSResult_8h.html" target="_top" xlink:title=" ">
<polygon fill="white" stroke="#666666" points="402,-74 313,-74 313,-55 402,-55 402,-74"/>
<text text-anchor="middle" x="357.5" y="-62" font-family="Helvetica,sans-Serif" font-size="10.00">CCSDSResult.h</text>
</a>
</g>
</g>
<!-- Node1&#45;&gt;Node4 -->
<g id="edge34_Node000001_Node000004" class="edge">
<title>Node1&#45;&gt;Node4</title>
<g id="a_edge34_Node000001_Node000004"><a xlink:title=" ">
<path fill="none" stroke="#63b8ff" d="M147.8,-439.87C122.52,-423.79 73.5,-386.66 73.5,-340.5 73.5,-340.5 73.5,-340.5 73.5,-173.5 73.5,-137.3 93.48,-128.65 124.5,-110 179.03,-77.21 252.61,-67.79 302.39,-65.47"/>
<polygon fill="#63b8ff" stroke="#63b8ff" points="302.77,-68.96 312.63,-65.08 302.5,-61.97 302.77,-68.96"/>
</a>
</g>
</g>
<!-- Node18 -->
<g id="Node000018" class="node">
<title>Node18</title>
<g id="a_Node000018"><a xlink:href="CCSDSValidator_8h.html" target="_top" xlink:title="Defines the Validator class for CCSDS packet validation.">
<polygon fill="white" stroke="#666666" points="475,-404 374,-404 374,-385 475,-385 475,-404"/>
<text text-anchor="middle" x="424.5" y="-392" font-family="Helvetica,sans-Serif" font-size="10.00">CCSDSValidator.h</text>
</a>
</g>
</g>
<!-- Node1&#45;&gt;Node18 -->
<g id="edge35_Node000001_Node000018" class="edge">
<title>Node1&#45;&gt;Node18</title>
<g id="a_edge35_Node000001_Node000018"><a xlink:title=" ">
<path fill="none" stroke="#63b8ff" d="M204.59,-439.98C250.2,-430.76 323.02,-416.03 372.25,-406.07"/>
<polygon fill="#63b8ff" stroke="#63b8ff" points="372.97,-409.5 382.08,-404.08 371.58,-402.63 372.97,-409.5"/>
</a>
</g>
</g>
<!-- Node3&#45;&gt;Node4 -->
<g id="edge3_Node000003_Node000004" class="edge">
<title>Node3&#45;&gt;Node4</title>
<g id="a_edge3_Node000003_Node000004"><a xlink:title=" ">
<path fill="none" stroke="#63b8ff" d="M424.16,-334.43C327.83,-324.53 111.5,-295.09 111.5,-230.5 111.5,-230.5 111.5,-230.5 111.5,-173.5 111.5,-90.59 230.11,-70.75 302.61,-66.36"/>
<polygon fill="#63b8ff" stroke="#63b8ff" points="303.15,-69.84 312.95,-65.82 302.78,-62.85 303.15,-69.84"/>
</a>
</g>
</g>
<!-- Node7 -->
<g id="Node000007" class="node">
<title>Node7</title>
<g id="a_Node000007"><a xlink:title=" ">
<polygon fill="#e0e0e0" stroke="#999999" points="673,-19 626,-19 626,0 673,0 673,-19"/>
<text text-anchor="middle" x="649.5" y="-7" font-family="Helvetica,sans-Serif" font-size="10.00">vector</text>
</a>
</g>
</g>
<!-- Node3&#45;&gt;Node7 -->
<g id="edge10_Node000003_Node000007" class="edge">
<title>Node3&#45;&gt;Node7</title>
<g id="a_edge10_Node000003_Node000007"><a xlink:title=" ">
<path fill="none" stroke="#63b8ff" d="M486.96,-329.85C532.96,-305.8 655.94,-233.02 685.5,-129 694.49,-97.36 696.47,-86.01 685.5,-55 681.75,-44.41 674.29,-34.49 667.13,-26.71"/>
<polygon fill="#63b8ff" stroke="#63b8ff" points="669.19,-23.82 659.66,-19.19 664.22,-28.76 669.19,-23.82"/>
</a>
</g>
</g>
<!-- Node8 -->
<g id="Node000008" class="node">
<title>Node8</title>
<g id="a_Node000008"><a xlink:title=" ">
<polygon fill="#e0e0e0" stroke="#999999" points="826.5,-19 776.5,-19 776.5,0 826.5,0 826.5,-19"/>
<text text-anchor="middle" x="801.5" y="-7" font-family="Helvetica,sans-Serif" font-size="10.00">cstdint</text>
</a>
</g>
</g>
<!-- Node3&#45;&gt;Node8 -->
<g id="edge9_Node000003_Node000008" class="edge">
<title>Node3&#45;&gt;Node8</title>
<g id="a_edge9_Node000003_Node000008"><a xlink:title=" ">
<path fill="none" stroke="#63b8ff" d="M514.52,-337.07C627.39,-332.25 913.5,-312.01 913.5,-230.5 913.5,-230.5 913.5,-230.5 913.5,-118.5 913.5,-72.77 864.52,-40.29 831.34,-23.54"/>
<polygon fill="#63b8ff" stroke="#63b8ff" points="832.57,-20.24 822.04,-19.04 829.52,-26.54 832.57,-20.24"/>
</a>
</g>
</g>
<!-- Node10 -->
<g id="Node000010" class="node">
<title>Node10</title>
<g id="a_Node000010"><a xlink:href="CCSDSHeader_8h.html" target="_top" xlink:title=" ">
<polygon fill="white" stroke="#666666" points="847,-129 754,-129 754,-110 847,-110 847,-129"/>
<text text-anchor="middle" x="800.5" y="-117" font-family="Helvetica,sans-Serif" font-size="10.00">CCSDSHeader.h</text>
</a>
</g>
</g>
<!-- Node3&#45;&gt;Node10 -->
<g id="edge11_Node000003_Node000010" class="edge">
<title>Node3&#45;&gt;Node10</title>
<g id="a_edge11_Node000003_Node000010"><a xlink:title=" ">
<path fill="none" stroke="#63b8ff" d="M514.51,-338.37C590.79,-337.13 740.68,-330.06 776.5,-294 817.89,-252.34 810.49,-174.81 804.36,-139.23"/>
<polygon fill="#63b8ff" stroke="#63b8ff" points="807.77,-138.43 802.48,-129.25 800.89,-139.73 807.77,-138.43"/>
</a>
</g>
</g>
<!-- Node11 -->
<g id="Node000011" class="node">
<title>Node11</title>
<g id="a_Node000011"><a xlink:href="CCSDSDataField_8h.html" target="_top" xlink:title=" ">
<polygon fill="white" stroke="#666666" points="522,-294 417,-294 417,-275 522,-275 522,-294"/>
<text text-anchor="middle" x="469.5" y="-282" font-family="Helvetica,sans-Serif" font-size="10.00">CCSDSDataField.h</text>
</a>
</g>
</g>
<!-- Node3&#45;&gt;Node11 -->
<g id="edge15_Node000003_Node000011" class="edge">
<title>Node3&#45;&gt;Node11</title>
<g id="a_edge15_Node000003_Node000011"><a xlink:title=" ">
<path fill="none" stroke="#63b8ff" d="M469.5,-329.75C469.5,-322.8 469.5,-312.85 469.5,-304.13"/>
<polygon fill="#63b8ff" stroke="#63b8ff" points="473,-304.09 469.5,-294.09 466,-304.09 473,-304.09"/>
</a>
</g>
</g>
<!-- Node5 -->
<g id="Node000005" class="node">
<title>Node5</title>
<g id="a_Node000005"><a xlink:title=" ">
<polygon fill="#e0e0e0" stroke="#999999" points="494,-19 401,-19 401,0 494,0 494,-19"/>
<text text-anchor="middle" x="447.5" y="-7" font-family="Helvetica,sans-Serif" font-size="10.00">unordered_map</text>
</a>
</g>
</g>
<!-- Node4&#45;&gt;Node5 -->
<g id="edge4_Node000004_Node000005" class="edge">
<title>Node4&#45;&gt;Node5</title>
<g id="a_edge4_Node000004_Node000005"><a xlink:title=" ">
<path fill="none" stroke="#63b8ff" d="M371.96,-54.98C385.92,-46.77 407.29,-34.18 423.75,-24.49"/>
<polygon fill="#63b8ff" stroke="#63b8ff" points="425.94,-27.26 432.78,-19.17 422.38,-21.23 425.94,-27.26"/>
</a>
</g>
</g>
<!-- Node6 -->
<g id="Node000006" class="node">
<title>Node6</title>
<g id="a_Node000006"><a xlink:title=" ">
<polygon fill="#e0e0e0" stroke="#999999" points="383,-19 332,-19 332,0 383,0 383,-19"/>
<text text-anchor="middle" x="357.5" y="-7" font-family="Helvetica,sans-Serif" font-size="10.00">variant</text>
</a>
</g>
</g>
<!-- Node4&#45;&gt;Node6 -->
<g id="edge5_Node000004_Node000006" class="edge">
<title>Node4&#45;&gt;Node6</title>
<g id="a_edge5_Node000004_Node000006"><a xlink:title=" ">
<path fill="none" stroke="#63b8ff" d="M357.5,-54.75C357.5,-47.8 357.5,-37.85 357.5,-29.13"/>
<polygon fill="#63b8ff" stroke="#63b8ff" points="361,-29.09 357.5,-19.09 354,-29.09 361,-29.09"/>
</a>
</g>
</g>
<!-- Node4&#45;&gt;Node7 -->
<g id="edge6_Node000004_Node000007" class="edge">
<title>Node4&#45;&gt;Node7</title>
<g id="a_edge6_Node000004_Node000007"><a xlink:title=" ">
<path fill="none" stroke="#63b8ff" d="M402.17,-55.39C461.03,-44.71 563.25,-26.15 615.95,-16.59"/>
<polygon fill="#63b8ff" stroke="#63b8ff" points="616.59,-20.03 625.8,-14.8 615.34,-13.14 616.59,-20.03"/>
</a>
</g>
</g>
<!-- Node4&#45;&gt;Node8 -->
<g id="edge7_Node000004_Node000008" class="edge">
<title>Node4&#45;&gt;Node8</title>
<g id="a_edge7_Node000004_Node000008"><a xlink:title=" ">
<path fill="none" stroke="#63b8ff" d="M402.11,-58.18C490.5,-47.62 686.26,-24.26 766.33,-14.7"/>
<polygon fill="#63b8ff" stroke="#63b8ff" points="766.88,-18.16 776.39,-13.5 766.05,-11.21 766.88,-18.16"/>
</a>
</g>
</g>
<!-- Node9 -->
<g id="Node000009" class="node">
<title>Node9</title>
<g id="a_Node000009"><a xlink:title=" ">
<polygon fill="#e0e0e0" stroke="#999999" points="313.5,-19 253.5,-19 253.5,0 313.5,0 313.5,-19"/>
<text text-anchor="middle" x="283.5" y="-7" font-family="Helvetica,sans-Serif" font-size="10.00">iostream</text>
</a>
</g>
</g>
<!-- Node4&#45;&gt;Node9 -->
<g id="edge8_Node000004_Node000009" class="edge">
<title>Node4&#45;&gt;Node9</title>
<g id="a_edge8_Node000004_Node000009"><a xlink:title=" ">
<path fill="none" stroke="#63b8ff" d="M345.61,-54.98C334.35,-46.92 317.21,-34.65 303.79,-25.03"/>
<polygon fill="#63b8ff" stroke="#63b8ff" points="305.77,-22.15 295.61,-19.17 301.7,-27.84 305.77,-22.15"/>
</a>
</g>
</g>
<!-- Node10&#45;&gt;Node4 -->
<g id="edge12_Node000010_Node000004" class="edge">
<title>Node10&#45;&gt;Node4</title>
<g id="a_edge12_Node000010_Node000004"><a xlink:title=" ">
<path fill="none" stroke="#63b8ff" d="M753.93,-112.93C671.45,-103.06 500.11,-82.56 412.17,-72.04"/>
<polygon fill="#63b8ff" stroke="#63b8ff" points="412.47,-68.55 402.13,-70.84 411.64,-75.5 412.47,-68.55"/>
</a>
</g>
</g>
<!-- Node10&#45;&gt;Node7 -->
<g id="edge14_Node000010_Node000007" class="edge">
<title>Node10&#45;&gt;Node7</title>
<g id="a_edge14_Node000010_Node000007"><a xlink:title=" ">
<path fill="none" stroke="#63b8ff" d="M793.78,-109.77C783.31,-96.6 761.94,-71.44 739.5,-55 721.7,-41.96 699.51,-30.94 681.61,-23.13"/>
<polygon fill="#63b8ff" stroke="#63b8ff" points="682.74,-19.8 672.16,-19.12 680.01,-26.25 682.74,-19.8"/>
</a>
</g>
</g>
<!-- Node10&#45;&gt;Node8 -->
<g id="edge13_Node000010_Node000008" class="edge">
<title>Node10&#45;&gt;Node8</title>
<g id="a_edge13_Node000010_Node000008"><a xlink:title=" ">
<path fill="none" stroke="#63b8ff" d="M800.58,-109.66C800.74,-92.17 801.11,-52.8 801.33,-29.27"/>
<polygon fill="#63b8ff" stroke="#63b8ff" points="804.83,-29.19 801.42,-19.16 797.83,-29.13 804.83,-29.19"/>
</a>
</g>
</g>
<!-- Node11&#45;&gt;Node4 -->
<g id="edge16_Node000011_Node000004" class="edge">
<title>Node11&#45;&gt;Node4</title>
<g id="a_edge16_Node000011_Node000004"><a xlink:title=" ">
<path fill="none" stroke="#63b8ff" d="M425.65,-274.94C359.93,-259.34 239.27,-219.19 198.5,-129 178.43,-84.6 249.26,-71.02 302.81,-67"/>
<polygon fill="#63b8ff" stroke="#63b8ff" points="303.17,-70.49 312.92,-66.34 302.71,-63.5 303.17,-70.49"/>
</a>
</g>
</g>
<!-- Node11&#45;&gt;Node7 -->
<g id="edge18_Node000011_Node000007" class="edge">
<title>Node11&#45;&gt;Node7</title>
<g id="a_edge18_Node000011_Node000007"><a xlink:title=" ">
<path fill="none" stroke="#63b8ff" d="M490.73,-274.88C534,-256 631.49,-206.39 669.5,-129 685.76,-95.9 670.03,-52.02 658.74,-28.02"/>
<polygon fill="#63b8ff" stroke="#63b8ff" points="661.86,-26.44 654.27,-19.04 655.59,-29.56 661.86,-26.44"/>
</a>
</g>
</g>
<!-- Node11&#45;&gt;Node8 -->
<g id="edge17_Node000011_Node000008" class="edge">
<title>Node11&#45;&gt;Node8</title>
<g id="a_edge17_Node000011_Node000008"><a xlink:title=" ">
<path fill="none" stroke="#63b8ff" d="M522.24,-280.35C609.31,-271.96 781.01,-241.26 856.5,-129 879.47,-94.84 842.23,-49.56 818.6,-26.09"/>
<polygon fill="#63b8ff" stroke="#63b8ff" points="820.86,-23.41 811.22,-19.02 816.02,-28.46 820.86,-23.41"/>
</a>
</g>
</g>
<!-- Node12 -->
<g id="Node000012" class="node">
<title>Node12</title>
<g id="a_Node000012"><a xlink:title=" ">
<polygon fill="#e0e0e0" stroke="#999999" points="273.5,-129 215.5,-129 215.5,-110 273.5,-110 273.5,-129"/>
<text text-anchor="middle" x="244.5" y="-117" font-family="Helvetica,sans-Serif" font-size="10.00">memory</text>
</a>
</g>
</g>
<!-- Node11&#45;&gt;Node12 -->
<g id="edge19_Node000011_Node000012" class="edge">
<title>Node11&#45;&gt;Node12</title>
<g id="a_edge19_Node000011_Node000012"><a xlink:title=" ">
<path fill="none" stroke="#63b8ff" d="M432.31,-274.99C407.14,-268.04 373.97,-256.48 348.5,-239 307.67,-210.98 272.62,-163.39 255.56,-137.88"/>
<polygon fill="#63b8ff" stroke="#63b8ff" points="258.33,-135.72 249.93,-129.27 252.47,-139.56 258.33,-135.72"/>
</a>
</g>
</g>
<!-- Node13 -->
<g id="Node000013" class="node">
<title>Node13</title>
<g id="a_Node000013"><a xlink:href="CCSDSSecondaryHeaderAbstract_8h.html" target="_top" xlink:title=" ">
<polygon fill="white" stroke="#666666" points="660,-129 475,-129 475,-110 660,-110 660,-129"/>
<text text-anchor="middle" x="567.5" y="-117" font-family="Helvetica,sans-Serif" font-size="10.00">CCSDSSecondaryHeaderAbstract.h</text>
</a>
</g>
</g>
<!-- Node11&#45;&gt;Node13 -->
<g id="edge20_Node000011_Node000013" class="edge">
<title>Node11&#45;&gt;Node13</title>
<g id="a_edge20_Node000011_Node000013"><a xlink:title=" ">
<path fill="none" stroke="#63b8ff" d="M474.77,-274.74C490.32,-248.87 536.25,-172.48 557.05,-137.88"/>
<polygon fill="#63b8ff" stroke="#63b8ff" points="560.05,-139.68 562.21,-129.31 554.05,-136.07 560.05,-139.68"/>
</a>
</g>
</g>
<!-- Node14 -->
<g id="Node000014" class="node">
<title>Node14</title>
<g id="a_Node000014"><a xlink:href="CCSDSSecondaryHeaderFactory_8h.html" target="_top" xlink:title=" ">
<polygon fill="white" stroke="#666666" points="489,-184 310,-184 310,-165 489,-165 489,-184"/>
<text text-anchor="middle" x="399.5" y="-172" font-family="Helvetica,sans-Serif" font-size="10.00">CCSDSSecondaryHeaderFactory.h</text>
</a>
</g>
</g>
<!-- Node11&#45;&gt;Node14 -->
<g id="edge24_Node000011_Node000014" class="edge">
<title>Node11&#45;&gt;Node14</title>
<g id="a_edge24_Node000011_Node000014"><a xlink:title=" ">
<path fill="none" stroke="#63b8ff" d="M468.44,-274.64C466.55,-261.73 461.71,-237.42 450.5,-220 442.95,-208.27 431.43,-197.84 421.25,-190.04"/>
<polygon fill="#63b8ff" stroke="#63b8ff" points="423.27,-187.18 413.12,-184.13 419.15,-192.84 423.27,-187.18"/>
</a>
</g>
</g>
<!-- Node17 -->
<g id="Node000017" class="node">
<title>Node17</title>
<g id="a_Node000017"><a xlink:href="PusServices_8h.html" target="_top" xlink:title=" ">
<polygon fill="white" stroke="#666666" points="441.5,-239 357.5,-239 357.5,-220 441.5,-220 441.5,-239"/>
<text text-anchor="middle" x="399.5" y="-227" font-family="Helvetica,sans-Serif" font-size="10.00">PusServices.h</text>
</a>
</g>
</g>
<!-- Node11&#45;&gt;Node17 -->
<g id="edge30_Node000011_Node000017" class="edge">
<title>Node11&#45;&gt;Node17</title>
<g id="a_edge30_Node000011_Node000017"><a xlink:title=" ">
<path fill="none" stroke="#63b8ff" d="M458.25,-274.98C447.7,-267 431.7,-254.88 419.06,-245.31"/>
<polygon fill="#63b8ff" stroke="#63b8ff" points="421.04,-242.42 410.95,-239.17 416.81,-248 421.04,-242.42"/>
</a>
</g>
</g>
<!-- Node13&#45;&gt;Node4 -->
<g id="edge21_Node000013_Node000004" class="edge">
<title>Node13&#45;&gt;Node4</title>
<g id="a_edge21_Node000013_Node000004"><a xlink:title=" ">
<path fill="none" stroke="#63b8ff" d="M533.76,-109.98C497.82,-100.91 440.78,-86.52 401.37,-76.57"/>
<polygon fill="#63b8ff" stroke="#63b8ff" points="402.06,-73.14 391.5,-74.08 400.34,-79.92 402.06,-73.14"/>
</a>
</g>
</g>
<!-- Node13&#45;&gt;Node7 -->
<g id="edge22_Node000013_Node000007" class="edge">
<title>Node13&#45;&gt;Node7</title>
<g id="a_edge22_Node000013_Node000007"><a xlink:title=" ">
<path fill="none" stroke="#63b8ff" d="M574.21,-109.66C587.85,-91.69 619.02,-50.64 636.68,-27.38"/>
<polygon fill="#63b8ff" stroke="#63b8ff" points="639.67,-29.24 642.93,-19.16 634.09,-25.01 639.67,-29.24"/>
</a>
</g>
</g>
<!-- Node13&#45;&gt;Node8 -->
<g id="edge23_Node000013_Node000008" class="edge">
<title>Node13&#45;&gt;Node8</title>
<g id="a_edge23_Node000013_Node000008"><a xlink:title=" ">
<path fill="none" stroke="#63b8ff" d="M586.25,-109.84C627.35,-90.88 725.5,-45.58 773.75,-23.31"/>
<polygon fill="#63b8ff" stroke="#63b8ff" points="775.37,-26.42 782.98,-19.05 772.44,-20.06 775.37,-26.42"/>
</a>
</g>
</g>
<!-- Node14&#45;&gt;Node5 -->
<g id="edge26_Node000014_Node000005" class="edge">
<title>Node14&#45;&gt;Node5</title>
<g id="a_edge26_Node000014_Node000005"><a xlink:title=" ">
<path fill="none" stroke="#63b8ff" d="M406.69,-164.9C413.44,-156.36 423.25,-142.59 428.5,-129 441.46,-95.42 445.58,-53.21 446.89,-29.3"/>
<polygon fill="#63b8ff" stroke="#63b8ff" points="450.39,-29.29 447.33,-19.15 443.4,-28.99 450.39,-29.29"/>
</a>
</g>
</g>
<!-- Node14&#45;&gt;Node12 -->
<g id="edge25_Node000014_Node000012" class="edge">
<title>Node14&#45;&gt;Node12</title>
<g id="a_edge25_Node000014_Node000012"><a xlink:title=" ">
<path fill="none" stroke="#63b8ff" d="M374.6,-164.98C348.8,-156.16 308.28,-142.31 279.32,-132.41"/>
<polygon fill="#63b8ff" stroke="#63b8ff" points="280.19,-129.01 269.6,-129.08 277.93,-135.63 280.19,-129.01"/>
</a>
</g>
</g>
<!-- Node14&#45;&gt;Node13 -->
<g id="edge29_Node000014_Node000013" class="edge">
<title>Node14&#45;&gt;Node13</title>
<g id="a_edge29_Node000014_Node000013"><a xlink:title=" ">
<path fill="none" stroke="#63b8ff" d="M426.49,-164.98C454.7,-156.09 499.14,-142.07 530.58,-132.15"/>
<polygon fill="#63b8ff" stroke="#63b8ff" points="531.81,-135.43 540.3,-129.08 529.71,-128.75 531.81,-135.43"/>
</a>
</g>
</g>
<!-- Node15 -->
<g id="Node000015" class="node">
<title>Node15</title>
<g id="a_Node000015"><a xlink:title=" ">
<polygon fill="#e0e0e0" stroke="#999999" points="357,-129 292,-129 292,-110 357,-110 357,-129"/>
<text text-anchor="middle" x="324.5" y="-117" font-family="Helvetica,sans-Serif" font-size="10.00">functional</text>
</a>
</g>
</g>
<!-- Node14&#45;&gt;Node15 -->
<g id="edge27_Node000014_Node000015" class="edge">
<title>Node14&#45;&gt;Node15</title>
<g id="a_edge27_Node000014_Node000015"><a xlink:title=" ">
<path fill="none" stroke="#63b8ff" d="M387.45,-164.98C376.04,-156.92 358.67,-144.65 345.07,-135.03"/>
<polygon fill="#63b8ff" stroke="#63b8ff" points="346.96,-132.08 336.77,-129.17 342.92,-137.8 346.96,-132.08"/>
</a>
</g>
</g>
<!-- Node16 -->
<g id="Node000016" class="node">
<title>Node16</title>
<g id="a_Node000016"><a xlink:title=" ">
<polygon fill="#e0e0e0" stroke="#999999" points="419.5,-129 375.5,-129 375.5,-110 419.5,-110 419.5,-129"/>
<text text-anchor="middle" x="397.5" y="-117" font-family="Helvetica,sans-Serif" font-size="10.00">string</text>
</a>
</g>
</g>
<!-- Node14&#45;&gt;Node16 -->
<g id="edge28_Node000014_Node000016" class="edge">
<title>Node14&#45;&gt;Node16</title>
<g id="a_edge28_Node000014_Node000016"><a xlink:title=" ">
<path fill="none" stroke="#63b8ff" d="M399.17,-164.75C398.91,-157.8 398.53,-147.85 398.2,-139.13"/>
<polygon fill="#63b8ff" stroke="#63b8ff" points="401.7,-138.95 397.82,-129.09 394.7,-139.21 401.7,-138.95"/>
</a>
</g>
</g>
<!-- Node17&#45;&gt;Node4 -->
<g id="edge33_Node000017_Node000004" class="edge">
<title>Node17&#45;&gt;Node4</title>
<g id="a_edge33_Node000017_Node000004"><a xlink:title=" ">
<path fill="none" stroke="#63b8ff" d="M357.09,-220.59C310.41,-209.31 237.82,-183.61 206.5,-129 183.49,-88.87 250.68,-74.1 302.73,-68.67"/>
<polygon fill="#63b8ff" stroke="#63b8ff" points="303.29,-72.13 312.91,-67.7 302.63,-65.16 303.29,-72.13"/>
</a>
</g>
</g>
<!-- Node17&#45;&gt;Node13 -->
<g id="edge31_Node000017_Node000013" class="edge">
<title>Node17&#45;&gt;Node13</title>
<g id="a_edge31_Node000017_Node000013"><a xlink:title=" ">
<path fill="none" stroke="#63b8ff" d="M424.23,-219.94C444.97,-212.17 474.91,-199.57 498.5,-184 519.17,-170.36 539.65,-150.51 552.85,-136.64"/>
<polygon fill="#63b8ff" stroke="#63b8ff" points="555.47,-138.96 559.74,-129.26 550.36,-134.19 555.47,-138.96"/>
</a>
</g>
</g>
<!-- Node17&#45;&gt;Node14 -->
<g id="edge32_Node000017_Node000014" class="edge">
<title>Node17&#45;&gt;Node14</title>
<g id="a_edge32_Node000017_Node000014"><a xlink:title=" ">
<path fill="none" stroke="#63b8ff" d="M399.5,-219.75C399.5,-212.8 399.5,-202.85 399.5,-194.13"/>
<polygon fill="#63b8ff" stroke="#63b8ff" points="403,-194.09 399.5,-184.09 396,-194.09 403,-194.09"/>
</a>
</g>
</g>
<!-- Node18&#45;&gt;Node3 -->
<g id="edge36_Node000018_Node000003" class="edge">
<title>Node18&#45;&gt;Node3</title>
<g id="a_edge36_Node000018_Node000003"><a xlink:title=" ">
<path fill="none" stroke="#63b8ff" d="M431.93,-384.75C438.35,-377.18 447.81,-366.05 455.62,-356.84"/>
<polygon fill="#63b8ff" stroke="#63b8ff" points="458.4,-358.98 462.21,-349.09 453.07,-354.45 458.4,-358.98"/>
</a>
</g>
</g>
</g>
</svg>

<g id="navigator" transform="translate(0 0)" fill="#404254">
  <rect fill="#f2f5e9" fill-opacity="0.5" stroke="#606060" stroke-width=".5" x="0" y="0" width="60" height="60"/>
  <use id="zoomplus" xlink:href="#zoomPlus" x="17" y="9" onmousedown="handleZoom(evt,'in')"/>
  <use id="zoomminus" xlink:href="#zoomMin" x="42" y="9" onmousedown="handleZoom(evt,'out')"/>
  <use id="reset" xlink:href="#resetDef" x="30" y="36" onmousedown="handleReset()"/>
   <use id="arrowup" xlink:href="#arrowUp" x="0" y="0" onmousedown="handlePan(0,-1)"/>
  <use id="arrowright" xlink:href="#arrowRight" x="0" y="0" onmousedown="handlePan(1,0)"/>
  <use id="arrowdown" xlink:href="#arrowDown" x="0" y="0" onmousedown="handlePan(0,1)"/>
  <use id="arrowleft" xlink:href="#arrowLeft" x="0" y="0" onmousedown="handlePan(-1,0)"/>
</g>
<svg viewBox="0 0 15 15" width="100%" height="30px" preserveAspectRatio="xMaxYMin meet">
 <g id="arrow_out" transform="scale(0.3 0.3)">
  <a xlink:href="CCSDSManager_8h__incl_org.svg" target="_base">
   <rect id="button" ry="5" rx="5" y="6" x="6" height="38" width="38"
        fill="#f2f5e9" fill-opacity="0.5" stroke="#606060" stroke-width="1.0"/>
   <path id="arrow"
     d="M 11.500037,31.436501 C 11.940474,20.09759 22.043105,11.32322 32.158766,21.979434 L 37.068811,17.246167 C 37.068811,17.246167 37.088388,32 37.088388,32 L 22.160133,31.978069 C 22.160133,31.978069 26.997745,27.140456 26.997745,27.140456 C 18.528582,18.264221 13.291696,25.230495 11.500037,31.436501 z"
     style="fill:#404040;"/>
  </a>
 </g>
</svg>

<style type='text/css'>
<![CDATA[
[data-mouse-over-selected='false'] { opacity: 0.7; }
[data-mouse-over-selected='true']  { opacity: 1.0; }
]]>
</style>
<script type="application/ecmascript"><![CDATA[
document.addEventListener('DOMContentLoaded', (event) => {
  highlightEdges();
  highlightAdjacentNodes();
});
]]></script>
</svg>
