<?xml version="1.0" encoding="UTF-8" standalone="no"?>
<!DOCTYPE svg PUBLIC "-//W3C//DTD SVG 1.1//EN"
 "http://www.w3.org/Graphics/SVG/1.1/DTD/svg11.dtd">
<!-- Generated by graphviz version 2.43.0 (0)
 -->
<!-- Title: src/CCSDSManager.cpp Pages: 1 -->
<!--zoomable 632 -->

<svg id="main" version="1.1" xmlns="http://www.w3.org/2000/svg" xmlns:xlink="http://www.w3.org/1999/xlink" xml:space="preserve" onload="init(evt)">
<style type="text/css"><![CDATA[
.node, .edge {opacity: 0.7;}
.node.selected, .edge.selected {opacity: 1;}
.edge:hover path { stroke: red; }
.edge:hover polygon { stroke: red; fill: red; }
]]></style>

<defs>
  <circle id="rim" cx="0" cy="0" r="7"/>
  <circle id="rim2" cx="0" cy="0" r="3.5"/>
  <g id="zoomPlus">
    <use xlink:href="#rim" fill="#404040"><set attributeName="fill" to="#808080" begin="zoomplus.mouseover" end="zoomplus.mouseout"/></use>
    <path d="M-4,0h8M0,-4v8" fill="none" stroke="white" stroke-width="1.5" pointer-events="none"/>
  </g>
  <g id="zoomMin">
    <use xlink:href="#rim" fill="#404040"><set attributeName="fill" to="#808080" begin="zoomminus.mouseover" end="zoomminus.mouseout"/></use>
    <path d="M-4,0h8" fill="none" stroke="white" stroke-width="1.5" pointer-events="none"/>
  </g>
  <g id="arrowUp" transform="translate(30 24)">
    <use xlink:href="#rim"/>
    <path pointer-events="none" fill="none" stroke="white" stroke-width="1.5" d="M0,-3.0v7 M-2.5,-0.5L0,-3.0L2.5,-0.5"/>
  </g>
  <g id="arrowRight" transform="rotate(90) translate(36 -43)">
    <use xlink:href="#rim"/>
    <path pointer-events="none" fill="none" stroke="white" stroke-width="1.5" d="M0,-3.0v7 M-2.5,-0.5L0,-3.0L2.5,-0.5"/>
  </g>
  <g id="arrowDown" transform="rotate(180) translate(-30 -48)">
    <use xlink:href="#rim"/>
    <path pointer-events="none" fill="none" stroke="white" stroke-width="1.5" d="M0,-3.0v7 M-2.5,-0.5L0,-3.0L2.5,-0.5"/>
  </g>
  <g id="arrowLeft" transform="rotate(270) translate(-36 17)">
    <use xlink:href="#rim"/>
    <path pointer-events="none" fill="none" stroke="white" stroke-width="1.5" d="M0,-3.0v7 M-2.5,-0.5L0,-3.0L2.5,-0.5"/>
  </g>
  <g id="resetDef">
    <use xlink:href="#rim2" fill="#404040"><set attributeName="fill" to="#808080" begin="reset.mouseover" end="reset.mouseout"/></use>
  </g>
</defs>
<script type="application/ecmascript">
var viewWidth = 881;
var viewHeight = 632;
var sectionId = 'dynsection-0';
</script>
<script type="application/ecmascript" xlink:href="svg.min.js"/>
<svg id="graph" class="graph">
<g id="viewport">
<title>src/CCSDSManager.cpp</title>
<!-- Node1 -->
<g id="Node000001" class="node">
<title>Node1</title>
<g id="a_Node000001"><a xlink:title=" ">
<polygon fill="#999999" stroke="#666666" points="766.5,-624 637.5,-624 637.5,-605 766.5,-605 766.5,-624"/>
<text text-anchor="middle" x="702" y="-612" font-family="Helvetica,sans-Serif" font-size="10.00">src/CCSDSManager.cpp</text>
</a>
</g>
</g>
<!-- Node2 -->
<g id="Node000002" class="node">
<title>Node2</title>
<g id="a_Node000002"><a xlink:title=" ">
<polygon fill="#e0e0e0" stroke="#999999" points="569,-569 515,-569 515,-550 569,-550 569,-569"/>
<text text-anchor="middle" x="542" y="-557" font-family="Helvetica,sans-Serif" font-size="10.00">random</text>
</a>
</g>
</g>
<!-- Node1&#45;&gt;Node2 -->
<g id="edge1_Node000001_Node000002" class="edge">
<title>Node1&#45;&gt;Node2</title>
<g id="a_edge1_Node000001_Node000002"><a xlink:title=" ">
<path fill="none" stroke="#63b8ff" d="M676.29,-604.98C649.55,-596.13 607.47,-582.19 577.55,-572.28"/>
<polygon fill="#63b8ff" stroke="#63b8ff" points="578.5,-568.9 567.91,-569.08 576.3,-575.55 578.5,-568.9"/>
</a>
</g>
</g>
<!-- Node3 -->
<g id="Node000003" class="node">
<title>Node3</title>
<g id="a_Node000003"><a xlink:title=" ">
<polygon fill="#e0e0e0" stroke="#999999" points="853.5,-459 808.5,-459 808.5,-440 853.5,-440 853.5,-459"/>
<text text-anchor="middle" x="831" y="-447" font-family="Helvetica,sans-Serif" font-size="10.00">utility</text>
</a>
</g>
</g>
<!-- Node1&#45;&gt;Node3 -->
<g id="edge2_Node000001_Node000003" class="edge">
<title>Node1&#45;&gt;Node3</title>
<g id="a_edge2_Node000001_Node000003"><a xlink:title=" ">
<path fill="none" stroke="#63b8ff" d="M708.94,-604.74C729.5,-578.76 790.38,-501.83 817.59,-467.44"/>
<polygon fill="#63b8ff" stroke="#63b8ff" points="820.57,-469.32 824.03,-459.31 815.08,-464.98 820.57,-469.32"/>
</a>
</g>
</g>
<!-- Node4 -->
<g id="Node000004" class="node">
<title>Node4</title>
<g id="a_Node000004"><a xlink:title=" ">
<polygon fill="#e0e0e0" stroke="#999999" points="873,-569 809,-569 809,-550 873,-550 873,-569"/>
<text text-anchor="middle" x="841" y="-557" font-family="Helvetica,sans-Serif" font-size="10.00">algorithm</text>
</a>
</g>
</g>
<!-- Node1&#45;&gt;Node4 -->
<g id="edge3_Node000001_Node000004" class="edge">
<title>Node1&#45;&gt;Node4</title>
<g id="a_edge3_Node000001_Node000004"><a xlink:title=" ">
<path fill="none" stroke="#63b8ff" d="M724.33,-604.98C747.2,-596.27 782.96,-582.63 808.86,-572.75"/>
<polygon fill="#63b8ff" stroke="#63b8ff" points="810.16,-576 818.26,-569.17 807.67,-569.46 810.16,-576"/>
</a>
</g>
</g>
<!-- Node5 -->
<g id="Node000005" class="node">
<title>Node5</title>
<g id="a_Node000005"><a xlink:href="CCSDSManager_8h.html" target="_top" xlink:title=" ">
<polygon fill="white" stroke="#666666" points="752.5,-514 651.5,-514 651.5,-495 752.5,-495 752.5,-514"/>
<text text-anchor="middle" x="702" y="-502" font-family="Helvetica,sans-Serif" font-size="10.00">CCSDSManager.h</text>
</a>
</g>
</g>
<!-- Node1&#45;&gt;Node5 -->
<g id="edge4_Node000001_Node000005" class="edge">
<title>Node1&#45;&gt;Node5</title>
<g id="a_edge4_Node000001_Node000005"><a xlink:title=" ">
<path fill="none" stroke="#63b8ff" d="M702,-604.66C702,-587.17 702,-547.8 702,-524.27"/>
<polygon fill="#63b8ff" stroke="#63b8ff" points="705.5,-524.16 702,-514.16 698.5,-524.16 705.5,-524.16"/>
</a>
</g>
</g>
<!-- Node23 -->
<g id="Node000023" class="node">
<title>Node23</title>
<g id="a_Node000023"><a xlink:href="CCSDSUtils_8h.html" target="_top" xlink:title=" ">
<polygon fill="white" stroke="#666666" points="668.5,-569 587.5,-569 587.5,-550 668.5,-550 668.5,-569"/>
<text text-anchor="middle" x="628" y="-557" font-family="Helvetica,sans-Serif" font-size="10.00">CCSDSUtils.h</text>
</a>
</g>
</g>
<!-- Node1&#45;&gt;Node23 -->
<g id="edge45_Node000001_Node000023" class="edge">
<title>Node1&#45;&gt;Node23</title>
<g id="a_edge45_Node000001_Node000023"><a xlink:title=" ">
<path fill="none" stroke="#63b8ff" d="M690.11,-604.98C678.85,-596.92 661.71,-584.65 648.29,-575.03"/>
<polygon fill="#63b8ff" stroke="#63b8ff" points="650.27,-572.15 640.11,-569.17 646.2,-577.84 650.27,-572.15"/>
</a>
</g>
</g>
<!-- Node5&#45;&gt;Node3 -->
<g id="edge5_Node000005_Node000003" class="edge">
<title>Node5&#45;&gt;Node3</title>
<g id="a_edge5_Node000005_Node000003"><a xlink:title=" ">
<path fill="none" stroke="#63b8ff" d="M722.73,-494.98C743.76,-486.34 776.55,-472.87 800.54,-463.02"/>
<polygon fill="#63b8ff" stroke="#63b8ff" points="801.98,-466.21 809.9,-459.17 799.32,-459.73 801.98,-466.21"/>
</a>
</g>
</g>
<!-- Node6 -->
<g id="Node000006" class="node">
<title>Node6</title>
<g id="a_Node000006"><a xlink:href="CCSDSPacket_8h.html" target="_top" xlink:title=" ">
<polygon fill="white" stroke="#666666" points="708,-404 618,-404 618,-385 708,-385 708,-404"/>
<text text-anchor="middle" x="663" y="-392" font-family="Helvetica,sans-Serif" font-size="10.00">CCSDSPacket.h</text>
</a>
</g>
</g>
<!-- Node5&#45;&gt;Node6 -->
<g id="edge6_Node000005_Node000006" class="edge">
<title>Node5&#45;&gt;Node6</title>
<g id="a_edge6_Node000005_Node000006"><a xlink:title=" ">
<path fill="none" stroke="#63b8ff" d="M708.94,-494.97C718.2,-482.48 732.4,-458.67 723,-440 716.31,-426.71 703.56,-416.39 691.53,-409.05"/>
<polygon fill="#63b8ff" stroke="#63b8ff" points="693.01,-405.87 682.58,-404.02 689.58,-411.97 693.01,-405.87"/>
</a>
</g>
</g>
<!-- Node7 -->
<g id="Node000007" class="node">
<title>Node7</title>
<g id="a_Node000007"><a xlink:href="CCSDSResult_8h.html" target="_top" xlink:title=" ">
<polygon fill="white" stroke="#666666" points="672.5,-74 583.5,-74 583.5,-55 672.5,-55 672.5,-74"/>
<text text-anchor="middle" x="628" y="-62" font-family="Helvetica,sans-Serif" font-size="10.00">CCSDSResult.h</text>
</a>
</g>
</g>
<!-- Node5&#45;&gt;Node7 -->
<g id="edge42_Node000005_Node000007" class="edge">
<title>Node5&#45;&gt;Node7</title>
<g id="a_edge42_Node000005_Node000007"><a xlink:title=" ">
<path fill="none" stroke="#63b8ff" d="M714.19,-494.95C736.12,-478.45 780,-439.91 780,-395.5 780,-395.5 780,-395.5 780,-338.5 780,-230.45 765.05,-193.92 697,-110 686.35,-96.87 670.75,-86.35 657.08,-78.84"/>
<polygon fill="#63b8ff" stroke="#63b8ff" points="658.5,-75.64 648.01,-74.13 655.27,-81.85 658.5,-75.64"/>
</a>
</g>
</g>
<!-- Node22 -->
<g id="Node000022" class="node">
<title>Node22</title>
<g id="a_Node000022"><a xlink:href="CCSDSValidator_8h.html" target="_top" xlink:title="Defines the Validator class for CCSDS packet validation.">
<polygon fill="white" stroke="#666666" points="713.5,-459 612.5,-459 612.5,-440 713.5,-440 713.5,-459"/>
<text text-anchor="middle" x="663" y="-447" font-family="Helvetica,sans-Serif" font-size="10.00">CCSDSValidator.h</text>
</a>
</g>
</g>
<!-- Node5&#45;&gt;Node22 -->
<g id="edge43_Node000005_Node000022" class="edge">
<title>Node5&#45;&gt;Node22</title>
<g id="a_edge43_Node000005_Node000022"><a xlink:title=" ">
<path fill="none" stroke="#63b8ff" d="M695.56,-494.75C690.11,-487.34 682.14,-476.5 675.44,-467.41"/>
<polygon fill="#63b8ff" stroke="#63b8ff" points="678.07,-465.07 669.32,-459.09 672.43,-469.22 678.07,-465.07"/>
</a>
</g>
</g>
<!-- Node6&#45;&gt;Node7 -->
<g id="edge7_Node000006_Node000007" class="edge">
<title>Node6&#45;&gt;Node7</title>
<g id="a_edge7_Node000006_Node000007"><a xlink:title=" ">
<path fill="none" stroke="#63b8ff" d="M668.7,-384.96C679.97,-367.23 704,-324.81 704,-285.5 704,-285.5 704,-285.5 704,-173.5 704,-134.47 670.39,-99.58 647.87,-80.6"/>
<polygon fill="#63b8ff" stroke="#63b8ff" points="649.85,-77.7 639.88,-74.12 645.44,-83.14 649.85,-77.7"/>
</a>
</g>
</g>
<!-- Node10 -->
<g id="Node000010" class="node">
<title>Node10</title>
<g id="a_Node000010"><a xlink:title=" ">
<polygon fill="#e0e0e0" stroke="#999999" points="400.5,-19 353.5,-19 353.5,0 400.5,0 400.5,-19"/>
<text text-anchor="middle" x="377" y="-7" font-family="Helvetica,sans-Serif" font-size="10.00">vector</text>
</a>
</g>
</g>
<!-- Node6&#45;&gt;Node10 -->
<g id="edge13_Node000006_Node000010" class="edge">
<title>Node6&#45;&gt;Node10</title>
<g id="a_edge13_Node000006_Node000010"><a xlink:title=" ">
<path fill="none" stroke="#63b8ff" d="M617.62,-389.05C507.72,-377.6 230.65,-344.39 154,-294 127.84,-276.8 122.97,-267.49 110,-239 76,-164.33 60.16,-105.27 125,-55 158.54,-29 282.34,-17.02 343.03,-12.62"/>
<polygon fill="#63b8ff" stroke="#63b8ff" points="343.51,-16.09 353.24,-11.91 343.02,-9.11 343.51,-16.09"/>
</a>
</g>
</g>
<!-- Node13 -->
<g id="Node000013" class="node">
<title>Node13</title>
<g id="a_Node000013"><a xlink:href="CCSDSHeader_8h.html" target="_top" xlink:title=" ">
<polygon fill="white" stroke="#666666" points="863.5,-129 770.5,-129 770.5,-110 863.5,-110 863.5,-129"/>
<text text-anchor="middle" x="817" y="-117" font-family="Helvetica,sans-Serif" font-size="10.00">CCSDSHeader.h</text>
</a>
</g>
</g>
<!-- Node6&#45;&gt;Node13 -->
<g id="edge14_Node000006_Node000013" class="edge">
<title>Node6&#45;&gt;Node13</title>
<g id="a_edge14_Node000006_Node000013"><a xlink:title=" ">
<path fill="none" stroke="#63b8ff" d="M677.26,-384.79C689.43,-376.77 706.71,-363.87 718,-349 770.23,-280.26 801.21,-179.72 812.32,-138.82"/>
<polygon fill="#63b8ff" stroke="#63b8ff" points="815.7,-139.71 814.87,-129.15 808.94,-137.92 815.7,-139.71"/>
</a>
</g>
</g>
<!-- Node14 -->
<g id="Node000014" class="node">
<title>Node14</title>
<g id="a_Node000014"><a xlink:href="CCSDSDataField_8h.html" target="_top" xlink:title=" ">
<polygon fill="white" stroke="#666666" points="469.5,-349 364.5,-349 364.5,-330 469.5,-330 469.5,-349"/>
<text text-anchor="middle" x="417" y="-337" font-family="Helvetica,sans-Serif" font-size="10.00">CCSDSDataField.h</text>
</a>
</g>
</g>
<!-- Node6&#45;&gt;Node14 -->
<g id="edge18_Node000006_Node000014" class="edge">
<title>Node6&#45;&gt;Node14</title>
<g id="a_edge18_Node000006_Node000014"><a xlink:title=" ">
<path fill="none" stroke="#63b8ff" d="M623.48,-384.98C580.83,-375.8 512.85,-361.15 466.64,-351.19"/>
<polygon fill="#63b8ff" stroke="#63b8ff" points="467.35,-347.77 456.83,-349.08 465.87,-354.61 467.35,-347.77"/>
</a>
</g>
</g>
<!-- Node8 -->
<g id="Node000008" class="node">
<title>Node8</title>
<g id="a_Node000008"><a xlink:title=" ">
<polygon fill="#e0e0e0" stroke="#999999" points="511.5,-19 418.5,-19 418.5,0 511.5,0 511.5,-19"/>
<text text-anchor="middle" x="465" y="-7" font-family="Helvetica,sans-Serif" font-size="10.00">unordered_map</text>
</a>
</g>
</g>
<!-- Node7&#45;&gt;Node8 -->
<g id="edge8_Node000007_Node000008" class="edge">
<title>Node7&#45;&gt;Node8</title>
<g id="a_edge8_Node000007_Node000008"><a xlink:title=" ">
<path fill="none" stroke="#63b8ff" d="M601.81,-54.98C574.56,-46.13 531.7,-32.19 501.22,-22.28"/>
<polygon fill="#63b8ff" stroke="#63b8ff" points="501.99,-18.85 491.39,-19.08 499.82,-25.5 501.99,-18.85"/>
</a>
</g>
</g>
<!-- Node9 -->
<g id="Node000009" class="node">
<title>Node9</title>
<g id="a_Node000009"><a xlink:title=" ">
<polygon fill="#e0e0e0" stroke="#999999" points="727.5,-19 676.5,-19 676.5,0 727.5,0 727.5,-19"/>
<text text-anchor="middle" x="702" y="-7" font-family="Helvetica,sans-Serif" font-size="10.00">variant</text>
</a>
</g>
</g>
<!-- Node7&#45;&gt;Node9 -->
<g id="edge9_Node000007_Node000009" class="edge">
<title>Node7&#45;&gt;Node9</title>
<g id="a_edge9_Node000007_Node000009"><a xlink:title=" ">
<path fill="none" stroke="#63b8ff" d="M639.89,-54.98C651.15,-46.92 668.29,-34.65 681.71,-25.03"/>
<polygon fill="#63b8ff" stroke="#63b8ff" points="683.8,-27.84 689.89,-19.17 679.73,-22.15 683.8,-27.84"/>
</a>
</g>
</g>
<!-- Node7&#45;&gt;Node10 -->
<g id="edge10_Node000007_Node000010" class="edge">
<title>Node7&#45;&gt;Node10</title>
<g id="a_edge10_Node000007_Node000010"><a xlink:title=" ">
<path fill="none" stroke="#63b8ff" d="M583.37,-55.23C541.16,-47.24 475.83,-34.4 410.74,-19.31"/>
<polygon fill="#63b8ff" stroke="#63b8ff" points="411.26,-15.84 400.73,-16.97 409.67,-22.65 411.26,-15.84"/>
</a>
</g>
</g>
<!-- Node11 -->
<g id="Node000011" class="node">
<title>Node11</title>
<g id="a_Node000011"><a xlink:title=" ">
<polygon fill="#e0e0e0" stroke="#999999" points="580,-19 530,-19 530,0 580,0 580,-19"/>
<text text-anchor="middle" x="555" y="-7" font-family="Helvetica,sans-Serif" font-size="10.00">cstdint</text>
</a>
</g>
</g>
<!-- Node7&#45;&gt;Node11 -->
<g id="edge11_Node000007_Node000011" class="edge">
<title>Node7&#45;&gt;Node11</title>
<g id="a_edge11_Node000007_Node000011"><a xlink:title=" ">
<path fill="none" stroke="#63b8ff" d="M616.27,-54.98C605.27,-47 588.58,-34.88 575.4,-25.31"/>
<polygon fill="#63b8ff" stroke="#63b8ff" points="577.09,-22.21 566.94,-19.17 572.98,-27.88 577.09,-22.21"/>
</a>
</g>
</g>
<!-- Node12 -->
<g id="Node000012" class="node">
<title>Node12</title>
<g id="a_Node000012"><a xlink:title=" ">
<polygon fill="#e0e0e0" stroke="#999999" points="658,-19 598,-19 598,0 658,0 658,-19"/>
<text text-anchor="middle" x="628" y="-7" font-family="Helvetica,sans-Serif" font-size="10.00">iostream</text>
</a>
</g>
</g>
<!-- Node7&#45;&gt;Node12 -->
<g id="edge12_Node000007_Node000012" class="edge">
<title>Node7&#45;&gt;Node12</title>
<g id="a_edge12_Node000007_Node000012"><a xlink:title=" ">
<path fill="none" stroke="#63b8ff" d="M628,-54.75C628,-47.8 628,-37.85 628,-29.13"/>
<polygon fill="#63b8ff" stroke="#63b8ff" points="631.5,-29.09 628,-19.09 624.5,-29.09 631.5,-29.09"/>
</a>
</g>
</g>
<!-- Node13&#45;&gt;Node7 -->
<g id="edge15_Node000013_Node000007" class="edge">
<title>Node13&#45;&gt;Node7</title>
<g id="a_edge15_Node000013_Node000007"><a xlink:title=" ">
<path fill="none" stroke="#63b8ff" d="M786.63,-109.98C754.63,-101.01 704.04,-86.82 668.62,-76.89"/>
<polygon fill="#63b8ff" stroke="#63b8ff" points="669.18,-73.41 658.6,-74.08 667.29,-80.15 669.18,-73.41"/>
</a>
</g>
</g>
<!-- Node13&#45;&gt;Node10 -->
<g id="edge17_Node000013_Node000010" class="edge">
<title>Node13&#45;&gt;Node10</title>
<g id="a_edge17_Node000013_Node000010"><a xlink:title=" ">
<path fill="none" stroke="#63b8ff" d="M802.49,-109.9C778.24,-95.95 727.52,-68.59 681,-55 567.04,-21.71 530.54,-41.59 410.62,-19.08"/>
<polygon fill="#63b8ff" stroke="#63b8ff" points="411.17,-15.62 400.69,-17.15 409.84,-22.49 411.17,-15.62"/>
</a>
</g>
</g>
<!-- Node13&#45;&gt;Node11 -->
<g id="edge16_Node000013_Node000011" class="edge">
<title>Node13&#45;&gt;Node11</title>
<g id="a_edge16_Node000013_Node000011"><a xlink:title=" ">
<path fill="none" stroke="#63b8ff" d="M811.12,-109.97C801.1,-96.12 779.32,-68.9 754,-55 690.9,-20.36 664.29,-34.78 590.03,-19.08"/>
<polygon fill="#63b8ff" stroke="#63b8ff" points="590.75,-15.66 580.23,-16.9 589.23,-22.49 590.75,-15.66"/>
</a>
</g>
</g>
<!-- Node14&#45;&gt;Node7 -->
<g id="edge19_Node000014_Node000007" class="edge">
<title>Node14&#45;&gt;Node7</title>
<g id="a_edge19_Node000014_Node000007"><a xlink:title=" ">
<path fill="none" stroke="#63b8ff" d="M469.5,-338.04C542.56,-334.31 666,-315.43 666,-230.5 666,-230.5 666,-230.5 666,-173.5 666,-140.02 649.55,-103.84 638.3,-83.01"/>
<polygon fill="#63b8ff" stroke="#63b8ff" points="641.24,-81.1 633.28,-74.1 635.13,-84.53 641.24,-81.1"/>
</a>
</g>
</g>
<!-- Node14&#45;&gt;Node10 -->
<g id="edge20_Node000014_Node000010" class="edge">
<title>Node14&#45;&gt;Node10</title>
<g id="a_edge20_Node000014_Node000010"><a xlink:title=" ">
<path fill="none" stroke="#63b8ff" d="M364.22,-330.8C277.41,-316.63 114,-283 114,-230.5 114,-230.5 114,-230.5 114,-118.5 114,-20.61 271.84,-9.57 342.96,-9.57"/>
<polygon fill="#63b8ff" stroke="#63b8ff" points="343.17,-13.07 353.2,-9.65 343.22,-6.07 343.17,-13.07"/>
</a>
</g>
</g>
<!-- Node15 -->
<g id="Node000015" class="node">
<title>Node15</title>
<g id="a_Node000015"><a xlink:title=" ">
<polygon fill="#e0e0e0" stroke="#999999" points="200,-184 142,-184 142,-165 200,-165 200,-184"/>
<text text-anchor="middle" x="171" y="-172" font-family="Helvetica,sans-Serif" font-size="10.00">memory</text>
</a>
</g>
</g>
<!-- Node14&#45;&gt;Node15 -->
<g id="edge21_Node000014_Node000015" class="edge">
<title>Node14&#45;&gt;Node15</title>
<g id="a_edge21_Node000014_Node000015"><a xlink:title=" ">
<path fill="none" stroke="#63b8ff" d="M369.64,-329.99C318.23,-318.3 237.18,-292.34 190,-239 179.16,-226.74 174.5,-208.51 172.5,-194.73"/>
<polygon fill="#63b8ff" stroke="#63b8ff" points="175.94,-193.98 171.37,-184.42 168.98,-194.74 175.94,-193.98"/>
</a>
</g>
</g>
<!-- Node16 -->
<g id="Node000016" class="node">
<title>Node16</title>
<g id="a_Node000016"><a xlink:href="CCSDSSecondaryHeaderAbstract_8h.html" target="_top" xlink:title=" ">
<polygon fill="white" stroke="#666666" points="600.5,-184 415.5,-184 415.5,-165 600.5,-165 600.5,-184"/>
<text text-anchor="middle" x="508" y="-172" font-family="Helvetica,sans-Serif" font-size="10.00">CCSDSSecondaryHeaderAbstract.h</text>
</a>
</g>
</g>
<!-- Node14&#45;&gt;Node16 -->
<g id="edge22_Node000014_Node000016" class="edge">
<title>Node14&#45;&gt;Node16</title>
<g id="a_edge22_Node000014_Node000016"><a xlink:title=" ">
<path fill="none" stroke="#63b8ff" d="M430.5,-329.79C441.95,-321.75 458.07,-308.85 468,-294 489.05,-262.53 499.98,-218.95 504.81,-194.36"/>
<polygon fill="#63b8ff" stroke="#63b8ff" points="508.31,-194.69 506.67,-184.23 501.42,-193.43 508.31,-194.69"/>
</a>
</g>
</g>
<!-- Node19 -->
<g id="Node000019" class="node">
<title>Node19</title>
<g id="a_Node000019"><a xlink:href="CCSDSSecondaryHeaderFactory_8h.html" target="_top" xlink:title=" ">
<polygon fill="white" stroke="#666666" points="378.5,-239 199.5,-239 199.5,-220 378.5,-220 378.5,-239"/>
<text text-anchor="middle" x="289" y="-227" font-family="Helvetica,sans-Serif" font-size="10.00">CCSDSSecondaryHeaderFactory.h</text>
</a>
</g>
</g>
<!-- Node14&#45;&gt;Node19 -->
<g id="edge31_Node000014_Node000019" class="edge">
<title>Node14&#45;&gt;Node19</title>
<g id="a_edge31_Node000014_Node000019"><a xlink:title=" ">
<path fill="none" stroke="#63b8ff" d="M406.53,-329.66C384.76,-311.3 334.41,-268.81 307.21,-245.87"/>
<polygon fill="#63b8ff" stroke="#63b8ff" points="309.16,-242.93 299.26,-239.16 304.65,-248.28 309.16,-242.93"/>
</a>
</g>
</g>
<!-- Node21 -->
<g id="Node000021" class="node">
<title>Node21</title>
<g id="a_Node000021"><a xlink:href="PusServices_8h.html" target="_top" xlink:title=" ">
<polygon fill="white" stroke="#666666" points="459,-294 375,-294 375,-275 459,-275 459,-294"/>
<text text-anchor="middle" x="417" y="-282" font-family="Helvetica,sans-Serif" font-size="10.00">PusServices.h</text>
</a>
</g>
</g>
<!-- Node14&#45;&gt;Node21 -->
<g id="edge37_Node000014_Node000021" class="edge">
<title>Node14&#45;&gt;Node21</title>
<g id="a_edge37_Node000014_Node000021"><a xlink:title=" ">
<path fill="none" stroke="#63b8ff" d="M417,-329.75C417,-322.8 417,-312.85 417,-304.13"/>
<polygon fill="#63b8ff" stroke="#63b8ff" points="420.5,-304.09 417,-294.09 413.5,-304.09 420.5,-304.09"/>
</a>
</g>
</g>
<!-- Node16&#45;&gt;Node7 -->
<g id="edge23_Node000016_Node000007" class="edge">
<title>Node16&#45;&gt;Node7</title>
<g id="a_edge23_Node000016_Node000007"><a xlink:title=" ">
<path fill="none" stroke="#63b8ff" d="M517.61,-165C527.69,-156.06 544,-141.58 558,-129 576.16,-112.68 596.86,-93.88 611.01,-81"/>
<polygon fill="#63b8ff" stroke="#63b8ff" points="613.48,-83.48 618.52,-74.16 608.77,-78.3 613.48,-83.48"/>
</a>
</g>
</g>
<!-- Node16&#45;&gt;Node10 -->
<g id="edge29_Node000016_Node000010" class="edge">
<title>Node16&#45;&gt;Node10</title>
<g id="a_edge29_Node000016_Node000010"><a xlink:title=" ">
<path fill="none" stroke="#63b8ff" d="M504.65,-164.8C499.54,-152.09 489,-128.02 476,-110 451.96,-76.67 416.64,-44.08 395.33,-25.72"/>
<polygon fill="#63b8ff" stroke="#63b8ff" points="397.53,-22.99 387.64,-19.19 393,-28.33 397.53,-22.99"/>
</a>
</g>
</g>
<!-- Node16&#45;&gt;Node11 -->
<g id="edge30_Node000016_Node000011" class="edge">
<title>Node16&#45;&gt;Node11</title>
<g id="a_edge30_Node000016_Node000011"><a xlink:title=" ">
<path fill="none" stroke="#63b8ff" d="M510.53,-164.74C517.89,-139.2 539.45,-64.43 549.6,-29.23"/>
<polygon fill="#63b8ff" stroke="#63b8ff" points="553.05,-29.89 552.46,-19.31 546.33,-27.95 553.05,-29.89"/>
</a>
</g>
</g>
<!-- Node17 -->
<g id="Node000017" class="node">
<title>Node17</title>
<g id="a_Node000017"><a xlink:href="CCSDSConfig_8h.html" target="_top" xlink:title=" ">
<polygon fill="white" stroke="#666666" points="467.5,-129 378.5,-129 378.5,-110 467.5,-110 467.5,-129"/>
<text text-anchor="middle" x="423" y="-117" font-family="Helvetica,sans-Serif" font-size="10.00">CCSDSConfig.h</text>
</a>
</g>
</g>
<!-- Node16&#45;&gt;Node17 -->
<g id="edge24_Node000016_Node000017" class="edge">
<title>Node16&#45;&gt;Node17</title>
<g id="a_edge24_Node000016_Node000017"><a xlink:title=" ">
<path fill="none" stroke="#63b8ff" d="M494.34,-164.98C481.16,-156.77 460.97,-144.18 445.43,-134.49"/>
<polygon fill="#63b8ff" stroke="#63b8ff" points="447.24,-131.49 436.91,-129.17 443.54,-137.43 447.24,-131.49"/>
</a>
</g>
</g>
<!-- Node17&#45;&gt;Node7 -->
<g id="edge28_Node000017_Node000007" class="edge">
<title>Node17&#45;&gt;Node7</title>
<g id="a_edge28_Node000017_Node000007"><a xlink:title=" ">
<path fill="none" stroke="#63b8ff" d="M455.94,-109.98C490.95,-100.93 546.47,-86.58 584.93,-76.64"/>
<polygon fill="#63b8ff" stroke="#63b8ff" points="586,-79.97 594.81,-74.08 584.25,-73.2 586,-79.97"/>
</a>
</g>
</g>
<!-- Node17&#45;&gt;Node10 -->
<g id="edge27_Node000017_Node000010" class="edge">
<title>Node17&#45;&gt;Node10</title>
<g id="a_edge27_Node000017_Node000010"><a xlink:title=" ">
<path fill="none" stroke="#63b8ff" d="M419.24,-109.66C411.72,-92.01 394.71,-52.09 384.72,-28.64"/>
<polygon fill="#63b8ff" stroke="#63b8ff" points="387.83,-26.99 380.69,-19.16 381.39,-29.73 387.83,-26.99"/>
</a>
</g>
</g>
<!-- Node17&#45;&gt;Node11 -->
<g id="edge26_Node000017_Node000011" class="edge">
<title>Node17&#45;&gt;Node11</title>
<g id="a_edge26_Node000017_Node000011"><a xlink:title=" ">
<path fill="none" stroke="#63b8ff" d="M433.8,-109.66C456.35,-91.22 508.62,-48.45 536.58,-25.57"/>
<polygon fill="#63b8ff" stroke="#63b8ff" points="538.89,-28.2 544.42,-19.16 534.46,-22.78 538.89,-28.2"/>
</a>
</g>
</g>
<!-- Node18 -->
<g id="Node000018" class="node">
<title>Node18</title>
<g id="a_Node000018"><a xlink:title=" ">
<polygon fill="#e0e0e0" stroke="#999999" points="250,-74 206,-74 206,-55 250,-55 250,-74"/>
<text text-anchor="middle" x="228" y="-62" font-family="Helvetica,sans-Serif" font-size="10.00">string</text>
</a>
</g>
</g>
<!-- Node17&#45;&gt;Node18 -->
<g id="edge25_Node000017_Node000018" class="edge">
<title>Node17&#45;&gt;Node18</title>
<g id="a_edge25_Node000017_Node000018"><a xlink:title=" ">
<path fill="none" stroke="#63b8ff" d="M391.67,-109.98C355.61,-100.18 296.69,-84.17 260.25,-74.26"/>
<polygon fill="#63b8ff" stroke="#63b8ff" points="260.72,-70.77 250.16,-71.52 258.89,-77.52 260.72,-70.77"/>
</a>
</g>
</g>
<!-- Node19&#45;&gt;Node8 -->
<g id="edge33_Node000019_Node000008" class="edge">
<title>Node19&#45;&gt;Node8</title>
<g id="a_edge33_Node000019_Node000008"><a xlink:title=" ">
<path fill="none" stroke="#63b8ff" d="M298.22,-219.89C307.05,-211.33 320.43,-197.56 330,-184 351.44,-153.63 347.21,-140.12 369,-110 392.74,-77.18 426.9,-44.39 447.42,-25.86"/>
<polygon fill="#63b8ff" stroke="#63b8ff" points="449.93,-28.31 455.06,-19.05 445.27,-23.09 449.93,-28.31"/>
</a>
</g>
</g>
<!-- Node19&#45;&gt;Node15 -->
<g id="edge32_Node000019_Node000015" class="edge">
<title>Node19&#45;&gt;Node15</title>
<g id="a_edge32_Node000019_Node000015"><a xlink:title=" ">
<path fill="none" stroke="#63b8ff" d="M270.04,-219.98C250.97,-211.42 221.34,-198.11 199.45,-188.28"/>
<polygon fill="#63b8ff" stroke="#63b8ff" points="200.86,-185.07 190.3,-184.17 197.99,-191.46 200.86,-185.07"/>
</a>
</g>
</g>
<!-- Node19&#45;&gt;Node16 -->
<g id="edge36_Node000019_Node000016" class="edge">
<title>Node19&#45;&gt;Node16</title>
<g id="a_edge36_Node000019_Node000016"><a xlink:title=" ">
<path fill="none" stroke="#63b8ff" d="M324.19,-219.98C361.83,-210.87 421.66,-196.4 462.77,-186.45"/>
<polygon fill="#63b8ff" stroke="#63b8ff" points="463.64,-189.84 472.54,-184.08 462,-183.03 463.64,-189.84"/>
</a>
</g>
</g>
<!-- Node19&#45;&gt;Node18 -->
<g id="edge35_Node000019_Node000018" class="edge">
<title>Node19&#45;&gt;Node18</title>
<g id="a_edge35_Node000019_Node000018"><a xlink:title=" ">
<path fill="none" stroke="#63b8ff" d="M277.75,-219.93C267.96,-211.8 254.23,-198.68 247,-184 231.02,-151.55 227.97,-108.62 227.67,-84.35"/>
<polygon fill="#63b8ff" stroke="#63b8ff" points="231.17,-84.06 227.7,-74.05 224.17,-84.04 231.17,-84.06"/>
</a>
</g>
</g>
<!-- Node20 -->
<g id="Node000020" class="node">
<title>Node20</title>
<g id="a_Node000020"><a xlink:title=" ">
<polygon fill="#e0e0e0" stroke="#999999" points="321.5,-184 256.5,-184 256.5,-165 321.5,-165 321.5,-184"/>
<text text-anchor="middle" x="289" y="-172" font-family="Helvetica,sans-Serif" font-size="10.00">functional</text>
</a>
</g>
</g>
<!-- Node19&#45;&gt;Node20 -->
<g id="edge34_Node000019_Node000020" class="edge">
<title>Node19&#45;&gt;Node20</title>
<g id="a_edge34_Node000019_Node000020"><a xlink:title=" ">
<path fill="none" stroke="#63b8ff" d="M289,-219.75C289,-212.8 289,-202.85 289,-194.13"/>
<polygon fill="#63b8ff" stroke="#63b8ff" points="292.5,-194.09 289,-184.09 285.5,-194.09 292.5,-194.09"/>
</a>
</g>
</g>
<!-- Node21&#45;&gt;Node7 -->
<g id="edge40_Node000021_Node000007" class="edge">
<title>Node21&#45;&gt;Node7</title>
<g id="a_edge40_Node000021_Node000007"><a xlink:title=" ">
<path fill="none" stroke="#63b8ff" d="M454.4,-274.98C498.79,-262.79 571.5,-235.88 609,-184 630.49,-154.27 631.41,-109.39 629.89,-84.26"/>
<polygon fill="#63b8ff" stroke="#63b8ff" points="633.37,-83.91 629.08,-74.23 626.39,-84.47 633.37,-83.91"/>
</a>
</g>
</g>
<!-- Node21&#45;&gt;Node16 -->
<g id="edge38_Node000021_Node000016" class="edge">
<title>Node21&#45;&gt;Node16</title>
<g id="a_edge38_Node000021_Node000016"><a xlink:title=" ">
<path fill="none" stroke="#63b8ff" d="M424.45,-274.66C439.65,-256.61 474.48,-215.28 494.03,-192.08"/>
<polygon fill="#63b8ff" stroke="#63b8ff" points="496.94,-194.06 500.7,-184.16 491.58,-189.55 496.94,-194.06"/>
</a>
</g>
</g>
<!-- Node21&#45;&gt;Node17 -->
<g id="edge41_Node000021_Node000017" class="edge">
<title>Node21&#45;&gt;Node17</title>
<g id="a_edge41_Node000021_Node000017"><a xlink:title=" ">
<path fill="none" stroke="#63b8ff" d="M414.57,-274.8C409.43,-255.11 398.5,-205.64 406,-165 407.67,-155.95 411.1,-146.36 414.44,-138.41"/>
<polygon fill="#63b8ff" stroke="#63b8ff" points="417.73,-139.65 418.63,-129.09 411.34,-136.78 417.73,-139.65"/>
</a>
</g>
</g>
<!-- Node21&#45;&gt;Node19 -->
<g id="edge39_Node000021_Node000019" class="edge">
<title>Node21&#45;&gt;Node19</title>
<g id="a_edge39_Node000021_Node000019"><a xlink:title=" ">
<path fill="none" stroke="#63b8ff" d="M396.43,-274.98C375.57,-266.34 343.03,-252.87 319.23,-243.02"/>
<polygon fill="#63b8ff" stroke="#63b8ff" points="320.52,-239.76 309.94,-239.17 317.84,-246.23 320.52,-239.76"/>
</a>
</g>
</g>
<!-- Node22&#45;&gt;Node6 -->
<g id="edge44_Node000022_Node000006" class="edge">
<title>Node22&#45;&gt;Node6</title>
<g id="a_edge44_Node000022_Node000006"><a xlink:title=" ">
<path fill="none" stroke="#63b8ff" d="M663,-439.75C663,-432.8 663,-422.85 663,-414.13"/>
<polygon fill="#63b8ff" stroke="#63b8ff" points="666.5,-414.09 663,-404.09 659.5,-414.09 666.5,-414.09"/>
</a>
</g>
</g>
<!-- Node23&#45;&gt;Node5 -->
<g id="edge47_Node000023_Node000005" class="edge">
<title>Node23&#45;&gt;Node5</title>
<g id="a_edge47_Node000023_Node000005"><a xlink:title=" ">
<path fill="none" stroke="#63b8ff" d="M639.89,-549.98C651.15,-541.92 668.29,-529.65 681.71,-520.03"/>
<polygon fill="#63b8ff" stroke="#63b8ff" points="683.8,-522.84 689.89,-514.17 679.73,-517.15 683.8,-522.84"/>
</a>
</g>
</g>
<!-- Node23&#45;&gt;Node6 -->
<g id="edge46_Node000023_Node000006" class="edge">
<title>Node23&#45;&gt;Node6</title>
<g id="a_edge46_Node000023_Node000006"><a xlink:title=" ">
<path fill="none" stroke="#63b8ff" d="M622.58,-549.97C610.51,-529.79 583.9,-477.94 603,-440 609.69,-426.71 622.44,-416.39 634.47,-409.05"/>
<polygon fill="#63b8ff" stroke="#63b8ff" points="636.42,-411.97 643.42,-404.02 632.99,-405.87 636.42,-411.97"/>
</a>
</g>
</g>
<!-- Node23&#45;&gt;Node10 -->
<g id="edge49_Node000023_Node000010" class="edge">
<title>Node23&#45;&gt;Node10</title>
<g id="a_edge49_Node000023_Node000010"><a xlink:title=" ">
<path fill="none" stroke="#63b8ff" d="M587.37,-551.42C584.2,-550.92 581.05,-550.44 578,-550 449.01,-531.33 0,-580.83 0,-450.5 0,-450.5 0,-450.5 0,-118.5 0,-47.44 250.64,-20.46 343.19,-12.92"/>
<polygon fill="#63b8ff" stroke="#63b8ff" points="343.72,-16.39 353.42,-12.11 343.17,-9.41 343.72,-16.39"/>
</a>
</g>
</g>
<!-- Node23&#45;&gt;Node18 -->
<g id="edge48_Node000023_Node000018" class="edge">
<title>Node23&#45;&gt;Node18</title>
<g id="a_edge48_Node000023_Node000018"><a xlink:title=" ">
<path fill="none" stroke="#63b8ff" d="M587.45,-551.35C454.15,-527.8 38,-454 38,-450.5 38,-450.5 38,-450.5 38,-283.5 38,-184.48 150.77,-108.64 202.55,-79.04"/>
<polygon fill="#63b8ff" stroke="#63b8ff" points="204.45,-81.99 211.47,-74.05 201.03,-75.88 204.45,-81.99"/>
</a>
</g>
</g>
</g>
</svg>

<g id="navigator" transform="translate(0 0)" fill="#404254">
  <rect fill="#f2f5e9" fill-opacity="0.5" stroke="#606060" stroke-width=".5" x="0" y="0" width="60" height="60"/>
  <use id="zoomplus" xlink:href="#zoomPlus" x="17" y="9" onmousedown="handleZoom(evt,'in')"/>
  <use id="zoomminus" xlink:href="#zoomMin" x="42" y="9" onmousedown="handleZoom(evt,'out')"/>
  <use id="reset" xlink:href="#resetDef" x="30" y="36" onmousedown="handleReset()"/>
   <use id="arrowup" xlink:href="#arrowUp" x="0" y="0" onmousedown="handlePan(0,-1)"/>
  <use id="arrowright" xlink:href="#arrowRight" x="0" y="0" onmousedown="handlePan(1,0)"/>
  <use id="arrowdown" xlink:href="#arrowDown" x="0" y="0" onmousedown="handlePan(0,1)"/>
  <use id="arrowleft" xlink:href="#arrowLeft" x="0" y="0" onmousedown="handlePan(-1,0)"/>
</g>
<svg viewBox="0 0 15 15" width="100%" height="30px" preserveAspectRatio="xMaxYMin meet">
 <g id="arrow_out" transform="scale(0.3 0.3)">
  <a xlink:href="CCSDSManager_8cpp__incl_org.svg" target="_base">
   <rect id="button" ry="5" rx="5" y="6" x="6" height="38" width="38"
        fill="#f2f5e9" fill-opacity="0.5" stroke="#606060" stroke-width="1.0"/>
   <path id="arrow"
     d="M 11.500037,31.436501 C 11.940474,20.09759 22.043105,11.32322 32.158766,21.979434 L 37.068811,17.246167 C 37.068811,17.246167 37.088388,32 37.088388,32 L 22.160133,31.978069 C 22.160133,31.978069 26.997745,27.140456 26.997745,27.140456 C 18.528582,18.264221 13.291696,25.230495 11.500037,31.436501 z"
     style="fill:#404040;"/>
  </a>
 </g>
</svg>

<style type='text/css'>
<![CDATA[
[data-mouse-over-selected='false'] { opacity: 0.7; }
[data-mouse-over-selected='true']  { opacity: 1.0; }
]]>
</style>
<script type="application/ecmascript"><![CDATA[
document.addEventListener('DOMContentLoaded', (event) => {
  highlightEdges();
  highlightAdjacentNodes();
});
]]></script>
</svg>
