<?xml version="1.0" encoding="UTF-8" standalone="no"?>
<!DOCTYPE svg PUBLIC "-//W3C//DTD SVG 1.1//EN"
 "http://www.w3.org/Graphics/SVG/1.1/DTD/svg11.dtd">
<!-- Generated by graphviz version 2.43.0 (0)
 -->
<!-- Title: src/CCSDSUtils.cpp Pages: 1 -->
<svg width="1192pt" height="577pt"
 viewBox="0.00 0.00 1191.50 577.00" xmlns="http://www.w3.org/2000/svg" xmlns:xlink="http://www.w3.org/1999/xlink">
<g id="graph0" class="graph" transform="scale(1 1) rotate(0) translate(4 573)">
<title>src/CCSDSUtils.cpp</title>
<!-- Node1 -->
<g id="Node000001" class="node">
<title>Node1</title>
<g id="a_Node000001"><a xlink:title=" ">
<polygon fill="#999999" stroke="#666666" points="1064,-569 954,-569 954,-550 1064,-550 1064,-569"/>
<text text-anchor="middle" x="1009" y="-557" font-family="Helvetica,sans-Serif" font-size="10.00">src/CCSDSUtils.cpp</text>
</a>
</g>
</g>
<!-- Node2 -->
<g id="Node000002" class="node">
<title>Node2</title>
<g id="a_Node000002"><a xlink:href="CCSDSUtils_8h.html" target="_top" xlink:title=" ">
<polygon fill="white" stroke="#666666" points="301.5,-514 220.5,-514 220.5,-495 301.5,-495 301.5,-514"/>
<text text-anchor="middle" x="261" y="-502" font-family="Helvetica,sans-Serif" font-size="10.00">CCSDSUtils.h</text>
</a>
</g>
</g>
<!-- Node1&#45;&gt;Node2 -->
<g id="edge1_Node000001_Node000002" class="edge">
<title>Node1&#45;&gt;Node2</title>
<g id="a_edge1_Node000001_Node000002"><a xlink:title=" ">
<path fill="none" stroke="#63b8ff" d="M954,-554.6C814.25,-544.7 447.06,-518.68 311.89,-509.11"/>
<polygon fill="#63b8ff" stroke="#63b8ff" points="312.03,-505.61 301.81,-508.39 311.53,-512.59 312.03,-505.61"/>
</a>
</g>
</g>
<!-- Node9 -->
<g id="Node000009" class="node">
<title>Node9</title>
<g id="a_Node000009"><a xlink:title=" ">
<polygon fill="#e0e0e0" stroke="#999999" points="959,-19 899,-19 899,0 959,0 959,-19"/>
<text text-anchor="middle" x="929" y="-7" font-family="Helvetica,sans-Serif" font-size="10.00">iostream</text>
</a>
</g>
</g>
<!-- Node1&#45;&gt;Node9 -->
<g id="edge44_Node000001_Node000009" class="edge">
<title>Node1&#45;&gt;Node9</title>
<g id="a_edge44_Node000001_Node000009"><a xlink:title=" ">
<path fill="none" stroke="#63b8ff" d="M1000.73,-549.97C992.88,-541.47 981.25,-527.73 974,-514 960.18,-487.83 954,-480.09 954,-450.5 954,-450.5 954,-450.5 954,-118.5 954,-86.21 943.26,-49.86 935.86,-28.64"/>
<polygon fill="#63b8ff" stroke="#63b8ff" points="939.07,-27.23 932.37,-19.02 932.49,-29.62 939.07,-27.23"/>
</a>
</g>
</g>
<!-- Node21 -->
<g id="Node000021" class="node">
<title>Node21</title>
<g id="a_Node000021"><a xlink:title=" ">
<polygon fill="#e0e0e0" stroke="#999999" points="1035.5,-514 982.5,-514 982.5,-495 1035.5,-495 1035.5,-514"/>
<text text-anchor="middle" x="1009" y="-502" font-family="Helvetica,sans-Serif" font-size="10.00">cstddef</text>
</a>
</g>
</g>
<!-- Node1&#45;&gt;Node21 -->
<g id="edge43_Node000001_Node000021" class="edge">
<title>Node1&#45;&gt;Node21</title>
<g id="a_edge43_Node000001_Node000021"><a xlink:title=" ">
<path fill="none" stroke="#63b8ff" d="M1009,-549.75C1009,-542.8 1009,-532.85 1009,-524.13"/>
<polygon fill="#63b8ff" stroke="#63b8ff" points="1012.5,-524.09 1009,-514.09 1005.5,-524.09 1012.5,-524.09"/>
</a>
</g>
</g>
<!-- Node22 -->
<g id="Node000022" class="node">
<title>Node22</title>
<g id="a_Node000022"><a xlink:title=" ">
<polygon fill="#e0e0e0" stroke="#999999" points="1110,-514 1054,-514 1054,-495 1110,-495 1110,-514"/>
<text text-anchor="middle" x="1082" y="-502" font-family="Helvetica,sans-Serif" font-size="10.00">iomanip</text>
</a>
</g>
</g>
<!-- Node1&#45;&gt;Node22 -->
<g id="edge45_Node000001_Node000022" class="edge">
<title>Node1&#45;&gt;Node22</title>
<g id="a_edge45_Node000001_Node000022"><a xlink:title=" ">
<path fill="none" stroke="#63b8ff" d="M1020.73,-549.98C1031.73,-542 1048.42,-529.88 1061.6,-520.31"/>
<polygon fill="#63b8ff" stroke="#63b8ff" points="1064.02,-522.88 1070.06,-514.17 1059.91,-517.21 1064.02,-522.88"/>
</a>
</g>
</g>
<!-- Node23 -->
<g id="Node000023" class="node">
<title>Node23</title>
<g id="a_Node000023"><a xlink:title=" ">
<polygon fill="#e0e0e0" stroke="#999999" points="1183.5,-514 1128.5,-514 1128.5,-495 1183.5,-495 1183.5,-514"/>
<text text-anchor="middle" x="1156" y="-502" font-family="Helvetica,sans-Serif" font-size="10.00">fstream</text>
</a>
</g>
</g>
<!-- Node1&#45;&gt;Node23 -->
<g id="edge46_Node000001_Node000023" class="edge">
<title>Node1&#45;&gt;Node23</title>
<g id="a_edge46_Node000001_Node000023"><a xlink:title=" ">
<path fill="none" stroke="#63b8ff" d="M1032.62,-549.98C1056.9,-541.23 1094.95,-527.51 1122.37,-517.62"/>
<polygon fill="#63b8ff" stroke="#63b8ff" points="1123.73,-520.85 1131.95,-514.17 1121.36,-514.27 1123.73,-520.85"/>
</a>
</g>
</g>
<!-- Node3 -->
<g id="Node000003" class="node">
<title>Node3</title>
<g id="a_Node000003"><a xlink:href="CCSDSPacket_8h.html" target="_top" xlink:title=" ">
<polygon fill="white" stroke="#666666" points="252,-349 162,-349 162,-330 252,-330 252,-349"/>
<text text-anchor="middle" x="207" y="-337" font-family="Helvetica,sans-Serif" font-size="10.00">CCSDSPacket.h</text>
</a>
</g>
</g>
<!-- Node2&#45;&gt;Node3 -->
<g id="edge2_Node000002_Node000003" class="edge">
<title>Node2&#45;&gt;Node3</title>
<g id="a_edge2_Node000002_Node000003"><a xlink:title=" ">
<path fill="none" stroke="#63b8ff" d="M220.43,-503.37C186.45,-500.84 139.79,-491.19 116,-459 101.09,-438.83 123.99,-402 138,-385 148.83,-371.86 164.57,-361.3 178.29,-353.76"/>
<polygon fill="#63b8ff" stroke="#63b8ff" points="180.12,-356.76 187.37,-349.04 176.89,-350.55 180.12,-356.76"/>
</a>
</g>
</g>
<!-- Node7 -->
<g id="Node000007" class="node">
<title>Node7</title>
<g id="a_Node000007"><a xlink:title=" ">
<polygon fill="#e0e0e0" stroke="#999999" points="166.5,-19 119.5,-19 119.5,0 166.5,0 166.5,-19"/>
<text text-anchor="middle" x="143" y="-7" font-family="Helvetica,sans-Serif" font-size="10.00">vector</text>
</a>
</g>
</g>
<!-- Node2&#45;&gt;Node7 -->
<g id="edge42_Node000002_Node000007" class="edge">
<title>Node2&#45;&gt;Node7</title>
<g id="a_edge42_Node000002_Node000007"><a xlink:title=" ">
<path fill="none" stroke="#63b8ff" d="M220.22,-504.28C146.81,-503.33 0,-489.65 0,-395.5 0,-395.5 0,-395.5 0,-118.5 0,-63.78 67.51,-33.27 109.76,-19.53"/>
<polygon fill="#63b8ff" stroke="#63b8ff" points="110.87,-22.85 119.39,-16.55 108.8,-16.16 110.87,-22.85"/>
</a>
</g>
</g>
<!-- Node8 -->
<g id="Node000008" class="node">
<title>Node8</title>
<g id="a_Node000008"><a xlink:title=" ">
<polygon fill="#e0e0e0" stroke="#999999" points="832,-19 782,-19 782,0 832,0 832,-19"/>
<text text-anchor="middle" x="807" y="-7" font-family="Helvetica,sans-Serif" font-size="10.00">cstdint</text>
</a>
</g>
</g>
<!-- Node2&#45;&gt;Node8 -->
<g id="edge41_Node000002_Node000008" class="edge">
<title>Node2&#45;&gt;Node8</title>
<g id="a_edge41_Node000002_Node000008"><a xlink:title=" ">
<path fill="none" stroke="#63b8ff" d="M301.97,-501.1C445.37,-492.15 916,-458.02 916,-395.5 916,-395.5 916,-395.5 916,-118.5 916,-73.28 868.08,-40.55 835.78,-23.62"/>
<polygon fill="#63b8ff" stroke="#63b8ff" points="837.25,-20.44 826.74,-19.07 834.1,-26.69 837.25,-20.44"/>
</a>
</g>
</g>
<!-- Node16 -->
<g id="Node000016" class="node">
<title>Node16</title>
<g id="a_Node000016"><a xlink:title=" ">
<polygon fill="#e0e0e0" stroke="#999999" points="374,-129 330,-129 330,-110 374,-110 374,-129"/>
<text text-anchor="middle" x="352" y="-117" font-family="Helvetica,sans-Serif" font-size="10.00">string</text>
</a>
</g>
</g>
<!-- Node2&#45;&gt;Node16 -->
<g id="edge40_Node000002_Node000016" class="edge">
<title>Node2&#45;&gt;Node16</title>
<g id="a_edge40_Node000002_Node000016"><a xlink:title=" ">
<path fill="none" stroke="#63b8ff" d="M274.66,-494.96C298.68,-478.76 346,-441.07 346,-395.5 346,-395.5 346,-395.5 346,-228.5 346,-197.14 348.55,-160.74 350.33,-139.22"/>
<polygon fill="#63b8ff" stroke="#63b8ff" points="353.82,-139.43 351.19,-129.17 346.85,-138.83 353.82,-139.43"/>
</a>
</g>
</g>
<!-- Node18 -->
<g id="Node000018" class="node">
<title>Node18</title>
<g id="a_Node000018"><a xlink:href="CCSDSManager_8h.html" target="_top" xlink:title=" ">
<polygon fill="white" stroke="#666666" points="226.5,-459 125.5,-459 125.5,-440 226.5,-440 226.5,-459"/>
<text text-anchor="middle" x="176" y="-447" font-family="Helvetica,sans-Serif" font-size="10.00">CCSDSManager.h</text>
</a>
</g>
</g>
<!-- Node2&#45;&gt;Node18 -->
<g id="edge34_Node000002_Node000018" class="edge">
<title>Node2&#45;&gt;Node18</title>
<g id="a_edge34_Node000002_Node000018"><a xlink:title=" ">
<path fill="none" stroke="#63b8ff" d="M247.34,-494.98C234.16,-486.77 213.97,-474.18 198.43,-464.49"/>
<polygon fill="#63b8ff" stroke="#63b8ff" points="200.24,-461.49 189.91,-459.17 196.54,-467.43 200.24,-461.49"/>
</a>
</g>
</g>
<!-- Node4 -->
<g id="Node000004" class="node">
<title>Node4</title>
<g id="a_Node000004"><a xlink:href="CCSDSResult_8h.html" target="_top" xlink:title=" ">
<polygon fill="white" stroke="#666666" points="396.5,-74 307.5,-74 307.5,-55 396.5,-55 396.5,-74"/>
<text text-anchor="middle" x="352" y="-62" font-family="Helvetica,sans-Serif" font-size="10.00">CCSDSResult.h</text>
</a>
</g>
</g>
<!-- Node3&#45;&gt;Node4 -->
<g id="edge3_Node000003_Node000004" class="edge">
<title>Node3&#45;&gt;Node4</title>
<g id="a_edge3_Node000003_Node000004"><a xlink:title=" ">
<path fill="none" stroke="#63b8ff" d="M210.19,-329.8C221.8,-298.64 263.81,-190.29 315,-110 321.33,-100.07 329.63,-89.89 336.76,-81.79"/>
<polygon fill="#63b8ff" stroke="#63b8ff" points="339.52,-83.95 343.64,-74.19 334.33,-79.25 339.52,-83.95"/>
</a>
</g>
</g>
<!-- Node3&#45;&gt;Node7 -->
<g id="edge10_Node000003_Node000007" class="edge">
<title>Node3&#45;&gt;Node7</title>
<g id="a_edge10_Node000003_Node000007"><a xlink:title=" ">
<path fill="none" stroke="#63b8ff" d="M180.17,-329.98C141.85,-315.92 76,-284 76,-230.5 76,-230.5 76,-230.5 76,-118.5 76,-80.91 105.68,-45.51 125.53,-26.04"/>
<polygon fill="#63b8ff" stroke="#63b8ff" points="127.95,-28.57 132.82,-19.17 123.15,-23.48 127.95,-28.57"/>
</a>
</g>
</g>
<!-- Node3&#45;&gt;Node8 -->
<g id="edge9_Node000003_Node000008" class="edge">
<title>Node3&#45;&gt;Node8</title>
<g id="a_edge9_Node000003_Node000008"><a xlink:title=" ">
<path fill="none" stroke="#63b8ff" d="M252.07,-336.02C402.51,-327.14 878,-294.07 878,-230.5 878,-230.5 878,-230.5 878,-118.5 878,-80.27 846.55,-45.09 825.51,-25.83"/>
<polygon fill="#63b8ff" stroke="#63b8ff" points="827.6,-23.01 817.78,-19.03 822.98,-28.27 827.6,-23.01"/>
</a>
</g>
</g>
<!-- Node10 -->
<g id="Node000010" class="node">
<title>Node10</title>
<g id="a_Node000010"><a xlink:href="CCSDSHeader_8h.html" target="_top" xlink:title=" ">
<polygon fill="white" stroke="#666666" points="235.5,-129 142.5,-129 142.5,-110 235.5,-110 235.5,-129"/>
<text text-anchor="middle" x="189" y="-117" font-family="Helvetica,sans-Serif" font-size="10.00">CCSDSHeader.h</text>
</a>
</g>
</g>
<!-- Node3&#45;&gt;Node10 -->
<g id="edge11_Node000003_Node000010" class="edge">
<title>Node3&#45;&gt;Node10</title>
<g id="a_edge11_Node000003_Node000010"><a xlink:title=" ">
<path fill="none" stroke="#63b8ff" d="M206.29,-329.95C203.65,-297.95 194.3,-184.68 190.56,-139.4"/>
<polygon fill="#63b8ff" stroke="#63b8ff" points="194.03,-138.9 189.72,-129.22 187.06,-139.48 194.03,-138.9"/>
</a>
</g>
</g>
<!-- Node11 -->
<g id="Node000011" class="node">
<title>Node11</title>
<g id="a_Node000011"><a xlink:href="CCSDSDataField_8h.html" target="_top" xlink:title=" ">
<polygon fill="white" stroke="#666666" points="493.5,-294 388.5,-294 388.5,-275 493.5,-275 493.5,-294"/>
<text text-anchor="middle" x="441" y="-282" font-family="Helvetica,sans-Serif" font-size="10.00">CCSDSDataField.h</text>
</a>
</g>
</g>
<!-- Node3&#45;&gt;Node11 -->
<g id="edge15_Node000003_Node000011" class="edge">
<title>Node3&#45;&gt;Node11</title>
<g id="a_edge15_Node000003_Node000011"><a xlink:title=" ">
<path fill="none" stroke="#63b8ff" d="M244.6,-329.98C284.99,-320.84 349.28,-306.27 393.23,-296.32"/>
<polygon fill="#63b8ff" stroke="#63b8ff" points="394.13,-299.7 403.11,-294.08 392.58,-292.88 394.13,-299.7"/>
</a>
</g>
</g>
<!-- Node5 -->
<g id="Node000005" class="node">
<title>Node5</title>
<g id="a_Node000005"><a xlink:title=" ">
<polygon fill="#e0e0e0" stroke="#999999" points="613.5,-19 520.5,-19 520.5,0 613.5,0 613.5,-19"/>
<text text-anchor="middle" x="567" y="-7" font-family="Helvetica,sans-Serif" font-size="10.00">unordered_map</text>
</a>
</g>
</g>
<!-- Node4&#45;&gt;Node5 -->
<g id="edge4_Node000004_Node000005" class="edge">
<title>Node4&#45;&gt;Node5</title>
<g id="a_edge4_Node000004_Node000005"><a xlink:title=" ">
<path fill="none" stroke="#63b8ff" d="M386.54,-54.98C423.42,-45.89 481.99,-31.46 522.34,-21.51"/>
<polygon fill="#63b8ff" stroke="#63b8ff" points="523.31,-24.87 532.19,-19.08 521.64,-18.08 523.31,-24.87"/>
</a>
</g>
</g>
<!-- Node6 -->
<g id="Node000006" class="node">
<title>Node6</title>
<g id="a_Node000006"><a xlink:title=" ">
<polygon fill="#e0e0e0" stroke="#999999" points="377.5,-19 326.5,-19 326.5,0 377.5,0 377.5,-19"/>
<text text-anchor="middle" x="352" y="-7" font-family="Helvetica,sans-Serif" font-size="10.00">variant</text>
</a>
</g>
</g>
<!-- Node4&#45;&gt;Node6 -->
<g id="edge5_Node000004_Node000006" class="edge">
<title>Node4&#45;&gt;Node6</title>
<g id="a_edge5_Node000004_Node000006"><a xlink:title=" ">
<path fill="none" stroke="#63b8ff" d="M352,-54.75C352,-47.8 352,-37.85 352,-29.13"/>
<polygon fill="#63b8ff" stroke="#63b8ff" points="355.5,-29.09 352,-19.09 348.5,-29.09 355.5,-29.09"/>
</a>
</g>
</g>
<!-- Node4&#45;&gt;Node7 -->
<g id="edge6_Node000004_Node000007" class="edge">
<title>Node4&#45;&gt;Node7</title>
<g id="a_edge6_Node000004_Node000007"><a xlink:title=" ">
<path fill="none" stroke="#63b8ff" d="M318.42,-54.98C279.44,-45.1 215.53,-28.89 176.56,-19.01"/>
<polygon fill="#63b8ff" stroke="#63b8ff" points="177.3,-15.59 166.75,-16.52 175.58,-22.37 177.3,-15.59"/>
</a>
</g>
</g>
<!-- Node4&#45;&gt;Node8 -->
<g id="edge7_Node000004_Node000008" class="edge">
<title>Node4&#45;&gt;Node8</title>
<g id="a_edge7_Node000004_Node000008"><a xlink:title=" ">
<path fill="none" stroke="#63b8ff" d="M396.87,-58.27C487.31,-47.74 689.82,-24.15 771.67,-14.62"/>
<polygon fill="#63b8ff" stroke="#63b8ff" points="772.42,-18.05 781.95,-13.42 771.61,-11.1 772.42,-18.05"/>
</a>
</g>
</g>
<!-- Node4&#45;&gt;Node9 -->
<g id="edge8_Node000004_Node000009" class="edge">
<title>Node4&#45;&gt;Node9</title>
<g id="a_edge8_Node000004_Node000009"><a xlink:title=" ">
<path fill="none" stroke="#63b8ff" d="M396.51,-59.53C482.44,-51.85 677.19,-34.36 841,-19 856.64,-17.53 873.85,-15.88 888.87,-14.42"/>
<polygon fill="#63b8ff" stroke="#63b8ff" points="889.25,-17.9 898.86,-13.45 888.57,-10.94 889.25,-17.9"/>
</a>
</g>
</g>
<!-- Node10&#45;&gt;Node4 -->
<g id="edge12_Node000010_Node000004" class="edge">
<title>Node10&#45;&gt;Node4</title>
<g id="a_edge12_Node000010_Node000004"><a xlink:title=" ">
<path fill="none" stroke="#63b8ff" d="M215.19,-109.98C242.44,-101.13 285.3,-87.19 315.78,-77.28"/>
<polygon fill="#63b8ff" stroke="#63b8ff" points="317.18,-80.5 325.61,-74.08 315.01,-73.85 317.18,-80.5"/>
</a>
</g>
</g>
<!-- Node10&#45;&gt;Node7 -->
<g id="edge14_Node000010_Node000007" class="edge">
<title>Node10&#45;&gt;Node7</title>
<g id="a_edge14_Node000010_Node000007"><a xlink:title=" ">
<path fill="none" stroke="#63b8ff" d="M185.24,-109.66C177.72,-92.01 160.71,-52.09 150.72,-28.64"/>
<polygon fill="#63b8ff" stroke="#63b8ff" points="153.83,-26.99 146.69,-19.16 147.39,-29.73 153.83,-26.99"/>
</a>
</g>
</g>
<!-- Node10&#45;&gt;Node8 -->
<g id="edge13_Node000010_Node000008" class="edge">
<title>Node10&#45;&gt;Node8</title>
<g id="a_edge13_Node000010_Node000008"><a xlink:title=" ">
<path fill="none" stroke="#63b8ff" d="M200.09,-109.85C219.11,-95.57 259.67,-67.4 299,-55 343.84,-40.86 664.05,-19.55 771.75,-12.7"/>
<polygon fill="#63b8ff" stroke="#63b8ff" points="772.03,-16.19 781.79,-12.06 771.59,-9.2 772.03,-16.19"/>
</a>
</g>
</g>
<!-- Node11&#45;&gt;Node4 -->
<g id="edge16_Node000011_Node000004" class="edge">
<title>Node11&#45;&gt;Node4</title>
<g id="a_edge16_Node000011_Node000004"><a xlink:title=" ">
<path fill="none" stroke="#63b8ff" d="M430.39,-274.82C405.12,-253.35 341.93,-194.69 321,-129 315.68,-112.28 325.97,-94.43 336.1,-81.92"/>
<polygon fill="#63b8ff" stroke="#63b8ff" points="338.92,-84.02 342.89,-74.2 333.66,-79.4 338.92,-84.02"/>
</a>
</g>
</g>
<!-- Node11&#45;&gt;Node7 -->
<g id="edge18_Node000011_Node000007" class="edge">
<title>Node11&#45;&gt;Node7</title>
<g id="a_edge18_Node000011_Node000007"><a xlink:title=" ">
<path fill="none" stroke="#63b8ff" d="M390.63,-274.96C318.85,-259.79 189.55,-220.64 133,-129 113.83,-97.93 125.91,-53.24 135.22,-28.58"/>
<polygon fill="#63b8ff" stroke="#63b8ff" points="138.57,-29.63 139.06,-19.05 132.08,-27.01 138.57,-29.63"/>
</a>
</g>
</g>
<!-- Node11&#45;&gt;Node8 -->
<g id="edge17_Node000011_Node000008" class="edge">
<title>Node11&#45;&gt;Node8</title>
<g id="a_edge17_Node000011_Node000008"><a xlink:title=" ">
<path fill="none" stroke="#63b8ff" d="M493.57,-280.29C601.92,-272.23 840,-246.46 840,-175.5 840,-175.5 840,-175.5 840,-118.5 840,-85.63 825.84,-49.49 816.07,-28.46"/>
<polygon fill="#63b8ff" stroke="#63b8ff" points="819.09,-26.66 811.59,-19.18 812.79,-29.71 819.09,-26.66"/>
</a>
</g>
</g>
<!-- Node12 -->
<g id="Node000012" class="node">
<title>Node12</title>
<g id="a_Node000012"><a xlink:title=" ">
<polygon fill="#e0e0e0" stroke="#999999" points="812,-129 754,-129 754,-110 812,-110 812,-129"/>
<text text-anchor="middle" x="783" y="-117" font-family="Helvetica,sans-Serif" font-size="10.00">memory</text>
</a>
</g>
</g>
<!-- Node11&#45;&gt;Node12 -->
<g id="edge19_Node000011_Node000012" class="edge">
<title>Node11&#45;&gt;Node12</title>
<g id="a_edge19_Node000011_Node000012"><a xlink:title=" ">
<path fill="none" stroke="#63b8ff" d="M464.27,-274.94C507.17,-258.89 601.26,-222.41 677,-184 707.17,-168.7 740.38,-148.16 761.45,-134.64"/>
<polygon fill="#63b8ff" stroke="#63b8ff" points="763.46,-137.51 769.95,-129.13 759.66,-131.63 763.46,-137.51"/>
</a>
</g>
</g>
<!-- Node13 -->
<g id="Node000013" class="node">
<title>Node13</title>
<g id="a_Node000013"><a xlink:href="CCSDSSecondaryHeaderAbstract_8h.html" target="_top" xlink:title=" ">
<polygon fill="white" stroke="#666666" points="614.5,-129 429.5,-129 429.5,-110 614.5,-110 614.5,-129"/>
<text text-anchor="middle" x="522" y="-117" font-family="Helvetica,sans-Serif" font-size="10.00">CCSDSSecondaryHeaderAbstract.h</text>
</a>
</g>
</g>
<!-- Node11&#45;&gt;Node13 -->
<g id="edge20_Node000011_Node000013" class="edge">
<title>Node11&#45;&gt;Node13</title>
<g id="a_edge20_Node000011_Node000013"><a xlink:title=" ">
<path fill="none" stroke="#63b8ff" d="M430.27,-274.71C416.97,-262.69 397.08,-240.28 406,-220 423.66,-179.85 466.88,-150.06 495.29,-134"/>
<polygon fill="#63b8ff" stroke="#63b8ff" points="497.2,-136.94 504.3,-129.08 493.84,-130.8 497.2,-136.94"/>
</a>
</g>
</g>
<!-- Node14 -->
<g id="Node000014" class="node">
<title>Node14</title>
<g id="a_Node000014"><a xlink:href="CCSDSSecondaryHeaderFactory_8h.html" target="_top" xlink:title=" ">
<polygon fill="white" stroke="#666666" points="667.5,-184 488.5,-184 488.5,-165 667.5,-165 667.5,-184"/>
<text text-anchor="middle" x="578" y="-172" font-family="Helvetica,sans-Serif" font-size="10.00">CCSDSSecondaryHeaderFactory.h</text>
</a>
</g>
</g>
<!-- Node11&#45;&gt;Node14 -->
<g id="edge24_Node000011_Node000014" class="edge">
<title>Node11&#45;&gt;Node14</title>
<g id="a_edge24_Node000011_Node000014"><a xlink:title=" ">
<path fill="none" stroke="#63b8ff" d="M455.28,-274.89C469.15,-266.33 490.59,-252.55 508,-239 527.48,-223.83 548.24,-204.56 562.05,-191.24"/>
<polygon fill="#63b8ff" stroke="#63b8ff" points="564.59,-193.65 569.32,-184.17 559.71,-188.64 564.59,-193.65"/>
</a>
</g>
</g>
<!-- Node17 -->
<g id="Node000017" class="node">
<title>Node17</title>
<g id="a_Node000017"><a xlink:href="PusServices_8h.html" target="_top" xlink:title=" ">
<polygon fill="white" stroke="#666666" points="499,-239 415,-239 415,-220 499,-220 499,-239"/>
<text text-anchor="middle" x="457" y="-227" font-family="Helvetica,sans-Serif" font-size="10.00">PusServices.h</text>
</a>
</g>
</g>
<!-- Node11&#45;&gt;Node17 -->
<g id="edge30_Node000011_Node000017" class="edge">
<title>Node11&#45;&gt;Node17</title>
<g id="a_edge30_Node000011_Node000017"><a xlink:title=" ">
<path fill="none" stroke="#63b8ff" d="M443.64,-274.75C445.76,-267.72 448.81,-257.62 451.46,-248.84"/>
<polygon fill="#63b8ff" stroke="#63b8ff" points="454.87,-249.67 454.41,-239.09 448.17,-247.65 454.87,-249.67"/>
</a>
</g>
</g>
<!-- Node13&#45;&gt;Node4 -->
<g id="edge21_Node000013_Node000004" class="edge">
<title>Node13&#45;&gt;Node4</title>
<g id="a_edge21_Node000013_Node000004"><a xlink:title=" ">
<path fill="none" stroke="#63b8ff" d="M494.69,-109.98C466.15,-101.09 421.17,-87.07 389.36,-77.15"/>
<polygon fill="#63b8ff" stroke="#63b8ff" points="390.12,-73.72 379.53,-74.08 388.03,-80.4 390.12,-73.72"/>
</a>
</g>
</g>
<!-- Node13&#45;&gt;Node7 -->
<g id="edge22_Node000013_Node000007" class="edge">
<title>Node13&#45;&gt;Node7</title>
<g id="a_edge22_Node000013_Node000007"><a xlink:title=" ">
<path fill="none" stroke="#63b8ff" d="M509.77,-110C489.3,-96.18 446.34,-69.01 406,-55 326.56,-27.41 227.5,-16.57 176.61,-12.6"/>
<polygon fill="#63b8ff" stroke="#63b8ff" points="176.74,-9.1 166.51,-11.85 176.23,-16.08 176.74,-9.1"/>
</a>
</g>
</g>
<!-- Node13&#45;&gt;Node8 -->
<g id="edge23_Node000013_Node000008" class="edge">
<title>Node13&#45;&gt;Node8</title>
<g id="a_edge23_Node000013_Node000008"><a xlink:title=" ">
<path fill="none" stroke="#63b8ff" d="M544.84,-109.84C595.41,-90.68 716.94,-44.63 775.03,-22.62"/>
<polygon fill="#63b8ff" stroke="#63b8ff" points="776.34,-25.86 784.45,-19.05 773.85,-19.32 776.34,-25.86"/>
</a>
</g>
</g>
<!-- Node14&#45;&gt;Node5 -->
<g id="edge26_Node000014_Node000005" class="edge">
<title>Node14&#45;&gt;Node5</title>
<g id="a_edge26_Node000014_Node000005"><a xlink:title=" ">
<path fill="none" stroke="#63b8ff" d="M645.03,-164.97C684.08,-156.67 722.8,-140.61 707,-110 684.66,-66.71 633.81,-38.15 599.95,-23.15"/>
<polygon fill="#63b8ff" stroke="#63b8ff" points="601.03,-19.81 590.46,-19.1 598.28,-26.25 601.03,-19.81"/>
</a>
</g>
</g>
<!-- Node14&#45;&gt;Node12 -->
<g id="edge25_Node000014_Node000012" class="edge">
<title>Node14&#45;&gt;Node12</title>
<g id="a_edge25_Node000014_Node000012"><a xlink:title=" ">
<path fill="none" stroke="#63b8ff" d="M610.94,-164.98C647.2,-155.61 705.45,-140.55 743.97,-130.59"/>
<polygon fill="#63b8ff" stroke="#63b8ff" points="744.99,-133.94 753.8,-128.05 743.24,-127.16 744.99,-133.94"/>
</a>
</g>
</g>
<!-- Node14&#45;&gt;Node13 -->
<g id="edge29_Node000014_Node000013" class="edge">
<title>Node14&#45;&gt;Node13</title>
<g id="a_edge29_Node000014_Node000013"><a xlink:title=" ">
<path fill="none" stroke="#63b8ff" d="M569,-164.98C560.81,-157.23 548.49,-145.58 538.53,-136.14"/>
<polygon fill="#63b8ff" stroke="#63b8ff" points="540.83,-133.5 531.16,-129.17 536.02,-138.59 540.83,-133.5"/>
</a>
</g>
</g>
<!-- Node15 -->
<g id="Node000015" class="node">
<title>Node15</title>
<g id="a_Node000015"><a xlink:title=" ">
<polygon fill="#e0e0e0" stroke="#999999" points="697.5,-129 632.5,-129 632.5,-110 697.5,-110 697.5,-129"/>
<text text-anchor="middle" x="665" y="-117" font-family="Helvetica,sans-Serif" font-size="10.00">functional</text>
</a>
</g>
</g>
<!-- Node14&#45;&gt;Node15 -->
<g id="edge27_Node000014_Node000015" class="edge">
<title>Node14&#45;&gt;Node15</title>
<g id="a_edge27_Node000014_Node000015"><a xlink:title=" ">
<path fill="none" stroke="#63b8ff" d="M591.98,-164.98C605.47,-156.77 626.13,-144.18 642.04,-134.49"/>
<polygon fill="#63b8ff" stroke="#63b8ff" points="644.05,-137.36 650.77,-129.17 640.41,-131.38 644.05,-137.36"/>
</a>
</g>
</g>
<!-- Node14&#45;&gt;Node16 -->
<g id="edge28_Node000014_Node000016" class="edge">
<title>Node14&#45;&gt;Node16</title>
<g id="a_edge28_Node000014_Node000016"><a xlink:title=" ">
<path fill="none" stroke="#63b8ff" d="M541.69,-164.98C498.09,-154.76 425.66,-137.78 384.05,-128.02"/>
<polygon fill="#63b8ff" stroke="#63b8ff" points="384.71,-124.58 374.18,-125.7 383.11,-131.39 384.71,-124.58"/>
</a>
</g>
</g>
<!-- Node17&#45;&gt;Node4 -->
<g id="edge33_Node000017_Node000004" class="edge">
<title>Node17&#45;&gt;Node4</title>
<g id="a_edge33_Node000017_Node000004"><a xlink:title=" ">
<path fill="none" stroke="#63b8ff" d="M451.76,-219.78C439.86,-200.04 409.72,-150.49 383,-110 376.97,-100.86 370.03,-90.85 364.24,-82.64"/>
<polygon fill="#63b8ff" stroke="#63b8ff" points="366.95,-80.41 358.31,-74.28 361.24,-84.46 366.95,-80.41"/>
</a>
</g>
</g>
<!-- Node17&#45;&gt;Node13 -->
<g id="edge31_Node000017_Node000013" class="edge">
<title>Node17&#45;&gt;Node13</title>
<g id="a_edge31_Node000017_Node000013"><a xlink:title=" ">
<path fill="none" stroke="#63b8ff" d="M458.95,-219.78C462.06,-207.06 468.93,-182.97 480,-165 486.59,-154.31 496.05,-144 504.32,-136"/>
<polygon fill="#63b8ff" stroke="#63b8ff" points="506.81,-138.47 511.76,-129.11 502.05,-133.34 506.81,-138.47"/>
</a>
</g>
</g>
<!-- Node17&#45;&gt;Node14 -->
<g id="edge32_Node000017_Node000014" class="edge">
<title>Node17&#45;&gt;Node14</title>
<g id="a_edge32_Node000017_Node000014"><a xlink:title=" ">
<path fill="none" stroke="#63b8ff" d="M476.44,-219.98C495.99,-211.42 526.38,-198.11 548.82,-188.28"/>
<polygon fill="#63b8ff" stroke="#63b8ff" points="550.45,-191.39 558.21,-184.17 547.64,-184.98 550.45,-191.39"/>
</a>
</g>
</g>
<!-- Node18&#45;&gt;Node3 -->
<g id="edge36_Node000018_Node000003" class="edge">
<title>Node18&#45;&gt;Node3</title>
<g id="a_edge36_Node000018_Node000003"><a xlink:title=" ">
<path fill="none" stroke="#63b8ff" d="M166.08,-439.84C153.31,-427.59 133.89,-404.51 144,-385 151.04,-371.41 164.34,-361.09 176.92,-353.82"/>
<polygon fill="#63b8ff" stroke="#63b8ff" points="178.67,-356.86 185.85,-349.07 175.38,-350.68 178.67,-356.86"/>
</a>
</g>
</g>
<!-- Node18&#45;&gt;Node4 -->
<g id="edge37_Node000018_Node000004" class="edge">
<title>Node18&#45;&gt;Node4</title>
<g id="a_edge37_Node000018_Node000004"><a xlink:title=" ">
<path fill="none" stroke="#63b8ff" d="M146.4,-439.96C105.85,-426.24 38,-395.11 38,-340.5 38,-340.5 38,-340.5 38,-173.5 38,-119.31 207.35,-86.47 297.31,-72.84"/>
<polygon fill="#63b8ff" stroke="#63b8ff" points="297.97,-76.28 307.34,-71.35 296.94,-69.36 297.97,-76.28"/>
</a>
</g>
</g>
<!-- Node19 -->
<g id="Node000019" class="node">
<title>Node19</title>
<g id="a_Node000019"><a xlink:title=" ">
<polygon fill="#e0e0e0" stroke="#999999" points="198.5,-404 153.5,-404 153.5,-385 198.5,-385 198.5,-404"/>
<text text-anchor="middle" x="176" y="-392" font-family="Helvetica,sans-Serif" font-size="10.00">utility</text>
</a>
</g>
</g>
<!-- Node18&#45;&gt;Node19 -->
<g id="edge35_Node000018_Node000019" class="edge">
<title>Node18&#45;&gt;Node19</title>
<g id="a_edge35_Node000018_Node000019"><a xlink:title=" ">
<path fill="none" stroke="#63b8ff" d="M176,-439.75C176,-432.8 176,-422.85 176,-414.13"/>
<polygon fill="#63b8ff" stroke="#63b8ff" points="179.5,-414.09 176,-404.09 172.5,-414.09 179.5,-414.09"/>
</a>
</g>
</g>
<!-- Node20 -->
<g id="Node000020" class="node">
<title>Node20</title>
<g id="a_Node000020"><a xlink:href="CCSDSValidator_8h.html" target="_top" xlink:title="Defines the Validator class for CCSDS packet validation.">
<polygon fill="white" stroke="#666666" points="317.5,-404 216.5,-404 216.5,-385 317.5,-385 317.5,-404"/>
<text text-anchor="middle" x="267" y="-392" font-family="Helvetica,sans-Serif" font-size="10.00">CCSDSValidator.h</text>
</a>
</g>
</g>
<!-- Node18&#45;&gt;Node20 -->
<g id="edge38_Node000018_Node000020" class="edge">
<title>Node18&#45;&gt;Node20</title>
<g id="a_edge38_Node000018_Node000020"><a xlink:title=" ">
<path fill="none" stroke="#63b8ff" d="M190.62,-439.98C204.86,-431.69 226.75,-418.94 243.45,-409.22"/>
<polygon fill="#63b8ff" stroke="#63b8ff" points="245.23,-412.23 252.11,-404.17 241.71,-406.18 245.23,-412.23"/>
</a>
</g>
</g>
<!-- Node20&#45;&gt;Node3 -->
<g id="edge39_Node000020_Node000003" class="edge">
<title>Node20&#45;&gt;Node3</title>
<g id="a_edge39_Node000020_Node000003"><a xlink:title=" ">
<path fill="none" stroke="#63b8ff" d="M257.36,-384.98C248.49,-377.15 235.13,-365.34 224.39,-355.86"/>
<polygon fill="#63b8ff" stroke="#63b8ff" points="226.63,-353.17 216.82,-349.17 221.99,-358.41 226.63,-353.17"/>
</a>
</g>
</g>
</g>
</svg>
