<?xml version="1.0" encoding="UTF-8" standalone="no"?>
<!DOCTYPE svg PUBLIC "-//W3C//DTD SVG 1.1//EN"
 "http://www.w3.org/Graphics/SVG/1.1/DTD/svg11.dtd">
<!-- Generated by graphviz version 2.43.0 (0)
 -->
<!-- Title: src/CCSDSHeader.cpp Pages: 1 -->
<svg width="886pt" height="467pt"
 viewBox="0.00 0.00 886.00 467.00" xmlns="http://www.w3.org/2000/svg" xmlns:xlink="http://www.w3.org/1999/xlink">
<g id="graph0" class="graph" transform="scale(1 1) rotate(0) translate(4 463)">
<title>src/CCSDSHeader.cpp</title>
<!-- Node1 -->
<g id="Node000001" class="node">
<title>Node1</title>
<g id="a_Node000001"><a xlink:title=" ">
<polygon fill="#999999" stroke="#666666" points="206,-459 84,-459 84,-440 206,-440 206,-459"/>
<text text-anchor="middle" x="145" y="-447" font-family="Helvetica,sans-Serif" font-size="10.00">src/CCSDSHeader.cpp</text>
</a>
</g>
</g>
<!-- Node2 -->
<g id="Node000002" class="node">
<title>Node2</title>
<g id="a_Node000002"><a xlink:href="CCSDSHeader_8h.html" target="_top" xlink:title=" ">
<polygon fill="white" stroke="#666666" points="159.5,-129 66.5,-129 66.5,-110 159.5,-110 159.5,-129"/>
<text text-anchor="middle" x="113" y="-117" font-family="Helvetica,sans-Serif" font-size="10.00">CCSDSHeader.h</text>
</a>
</g>
</g>
<!-- Node1&#45;&gt;Node2 -->
<g id="edge1_Node000001_Node000002" class="edge">
<title>Node1&#45;&gt;Node2</title>
<g id="a_edge1_Node000001_Node000002"><a xlink:title=" ">
<path fill="none" stroke="#63b8ff" d="M139.99,-439.87C130.1,-421.97 109,-379.24 109,-340.5 109,-340.5 109,-340.5 109,-228.5 109,-197.17 110.7,-160.76 111.89,-139.23"/>
<polygon fill="#63b8ff" stroke="#63b8ff" points="115.38,-139.36 112.46,-129.18 108.4,-138.96 115.38,-139.36"/>
</a>
</g>
</g>
<!-- Node9 -->
<g id="Node000009" class="node">
<title>Node9</title>
<g id="a_Node000009"><a xlink:href="CCSDSUtils_8h.html" target="_top" xlink:title=" ">
<polygon fill="white" stroke="#666666" points="222.5,-404 141.5,-404 141.5,-385 222.5,-385 222.5,-404"/>
<text text-anchor="middle" x="182" y="-392" font-family="Helvetica,sans-Serif" font-size="10.00">CCSDSUtils.h</text>
</a>
</g>
</g>
<!-- Node1&#45;&gt;Node9 -->
<g id="edge10_Node000001_Node000009" class="edge">
<title>Node1&#45;&gt;Node9</title>
<g id="a_edge10_Node000001_Node000009"><a xlink:title=" ">
<path fill="none" stroke="#63b8ff" d="M151.11,-439.75C156.28,-432.34 163.85,-421.5 170.19,-412.41"/>
<polygon fill="#63b8ff" stroke="#63b8ff" points="173.15,-414.29 176,-404.09 167.41,-410.29 173.15,-414.29"/>
</a>
</g>
</g>
<!-- Node3 -->
<g id="Node000003" class="node">
<title>Node3</title>
<g id="a_Node000003"><a xlink:href="CCSDSResult_8h.html" target="_top" xlink:title=" ">
<polygon fill="white" stroke="#666666" points="395.5,-74 306.5,-74 306.5,-55 395.5,-55 395.5,-74"/>
<text text-anchor="middle" x="351" y="-62" font-family="Helvetica,sans-Serif" font-size="10.00">CCSDSResult.h</text>
</a>
</g>
</g>
<!-- Node2&#45;&gt;Node3 -->
<g id="edge2_Node000002_Node000003" class="edge">
<title>Node2&#45;&gt;Node3</title>
<g id="a_edge2_Node000002_Node000003"><a xlink:title=" ">
<path fill="none" stroke="#63b8ff" d="M151.24,-109.98C192.41,-100.82 257.99,-86.21 302.7,-76.26"/>
<polygon fill="#63b8ff" stroke="#63b8ff" points="303.46,-79.67 312.46,-74.08 301.94,-72.84 303.46,-79.67"/>
</a>
</g>
</g>
<!-- Node6 -->
<g id="Node000006" class="node">
<title>Node6</title>
<g id="a_Node000006"><a xlink:title=" ">
<polygon fill="#e0e0e0" stroke="#999999" points="796.5,-19 749.5,-19 749.5,0 796.5,0 796.5,-19"/>
<text text-anchor="middle" x="773" y="-7" font-family="Helvetica,sans-Serif" font-size="10.00">vector</text>
</a>
</g>
</g>
<!-- Node2&#45;&gt;Node6 -->
<g id="edge9_Node000002_Node000006" class="edge">
<title>Node2&#45;&gt;Node6</title>
<g id="a_edge9_Node000002_Node000006"><a xlink:title=" ">
<path fill="none" stroke="#63b8ff" d="M132.81,-109.95C166.2,-95.94 236.09,-68.33 298,-55 382.59,-36.79 645.53,-18.66 739.33,-12.61"/>
<polygon fill="#63b8ff" stroke="#63b8ff" points="739.65,-16.1 749.4,-11.97 739.2,-9.11 739.65,-16.1"/>
</a>
</g>
</g>
<!-- Node7 -->
<g id="Node000007" class="node">
<title>Node7</title>
<g id="a_Node000007"><a xlink:title=" ">
<polygon fill="#e0e0e0" stroke="#999999" points="176,-19 126,-19 126,0 176,0 176,-19"/>
<text text-anchor="middle" x="151" y="-7" font-family="Helvetica,sans-Serif" font-size="10.00">cstdint</text>
</a>
</g>
</g>
<!-- Node2&#45;&gt;Node7 -->
<g id="edge8_Node000002_Node000007" class="edge">
<title>Node2&#45;&gt;Node7</title>
<g id="a_edge8_Node000002_Node000007"><a xlink:title=" ">
<path fill="none" stroke="#63b8ff" d="M116.11,-109.66C122.32,-92.01 136.37,-52.09 144.62,-28.64"/>
<polygon fill="#63b8ff" stroke="#63b8ff" points="147.94,-29.75 147.95,-19.16 141.33,-27.43 147.94,-29.75"/>
</a>
</g>
</g>
<!-- Node4 -->
<g id="Node000004" class="node">
<title>Node4</title>
<g id="a_Node000004"><a xlink:title=" ">
<polygon fill="#e0e0e0" stroke="#999999" points="623.5,-19 530.5,-19 530.5,0 623.5,0 623.5,-19"/>
<text text-anchor="middle" x="577" y="-7" font-family="Helvetica,sans-Serif" font-size="10.00">unordered_map</text>
</a>
</g>
</g>
<!-- Node3&#45;&gt;Node4 -->
<g id="edge3_Node000003_Node000004" class="edge">
<title>Node3&#45;&gt;Node4</title>
<g id="a_edge3_Node000003_Node000004"><a xlink:title=" ">
<path fill="none" stroke="#63b8ff" d="M387.31,-54.98C426.24,-45.86 488.16,-31.33 530.6,-21.38"/>
<polygon fill="#63b8ff" stroke="#63b8ff" points="531.47,-24.77 540.4,-19.08 529.87,-17.96 531.47,-24.77"/>
</a>
</g>
</g>
<!-- Node5 -->
<g id="Node000005" class="node">
<title>Node5</title>
<g id="a_Node000005"><a xlink:title=" ">
<polygon fill="#e0e0e0" stroke="#999999" points="413.5,-19 362.5,-19 362.5,0 413.5,0 413.5,-19"/>
<text text-anchor="middle" x="388" y="-7" font-family="Helvetica,sans-Serif" font-size="10.00">variant</text>
</a>
</g>
</g>
<!-- Node3&#45;&gt;Node5 -->
<g id="edge4_Node000003_Node000005" class="edge">
<title>Node3&#45;&gt;Node5</title>
<g id="a_edge4_Node000003_Node000005"><a xlink:title=" ">
<path fill="none" stroke="#63b8ff" d="M357.11,-54.75C362.28,-47.34 369.85,-36.5 376.19,-27.41"/>
<polygon fill="#63b8ff" stroke="#63b8ff" points="379.15,-29.29 382,-19.09 373.41,-25.29 379.15,-29.29"/>
</a>
</g>
</g>
<!-- Node3&#45;&gt;Node6 -->
<g id="edge5_Node000003_Node000006" class="edge">
<title>Node3&#45;&gt;Node6</title>
<g id="a_edge5_Node000003_Node000006"><a xlink:title=" ">
<path fill="none" stroke="#63b8ff" d="M395.76,-57.88C480.68,-47.21 663.42,-24.26 739.1,-14.76"/>
<polygon fill="#63b8ff" stroke="#63b8ff" points="739.98,-18.17 749.47,-13.46 739.11,-11.23 739.98,-18.17"/>
</a>
</g>
</g>
<!-- Node3&#45;&gt;Node7 -->
<g id="edge6_Node000003_Node000007" class="edge">
<title>Node3&#45;&gt;Node7</title>
<g id="a_edge6_Node000003_Node000007"><a xlink:title=" ">
<path fill="none" stroke="#63b8ff" d="M318.87,-54.98C282.53,-45.36 223.56,-29.73 186.06,-19.79"/>
<polygon fill="#63b8ff" stroke="#63b8ff" points="186.65,-16.33 176.09,-17.15 184.86,-23.09 186.65,-16.33"/>
</a>
</g>
</g>
<!-- Node8 -->
<g id="Node000008" class="node">
<title>Node8</title>
<g id="a_Node000008"><a xlink:title=" ">
<polygon fill="#e0e0e0" stroke="#999999" points="344,-19 284,-19 284,0 344,0 344,-19"/>
<text text-anchor="middle" x="314" y="-7" font-family="Helvetica,sans-Serif" font-size="10.00">iostream</text>
</a>
</g>
</g>
<!-- Node3&#45;&gt;Node8 -->
<g id="edge7_Node000003_Node000008" class="edge">
<title>Node3&#45;&gt;Node8</title>
<g id="a_edge7_Node000003_Node000008"><a xlink:title=" ">
<path fill="none" stroke="#63b8ff" d="M344.89,-54.75C339.72,-47.34 332.15,-36.5 325.81,-27.41"/>
<polygon fill="#63b8ff" stroke="#63b8ff" points="328.59,-25.29 320,-19.09 322.85,-29.29 328.59,-25.29"/>
</a>
</g>
</g>
<!-- Node9&#45;&gt;Node6 -->
<g id="edge37_Node000009_Node000006" class="edge">
<title>Node9&#45;&gt;Node6</title>
<g id="a_edge37_Node000009_Node000006"><a xlink:title=" ">
<path fill="none" stroke="#63b8ff" d="M222.68,-391.51C371.55,-383.71 878,-352.26 878,-285.5 878,-285.5 878,-285.5 878,-118.5 878,-74.18 831.99,-41.21 800.88,-23.99"/>
<polygon fill="#63b8ff" stroke="#63b8ff" points="802.25,-20.75 791.77,-19.15 798.96,-26.93 802.25,-20.75"/>
</a>
</g>
</g>
<!-- Node9&#45;&gt;Node7 -->
<g id="edge36_Node000009_Node000007" class="edge">
<title>Node9&#45;&gt;Node7</title>
<g id="a_edge36_Node000009_Node000007"><a xlink:title=" ">
<path fill="none" stroke="#63b8ff" d="M141.16,-387.66C87.5,-377.42 0,-350.72 0,-285.5 0,-285.5 0,-285.5 0,-118.5 0,-61.84 71.21,-32.07 115.83,-18.97"/>
<polygon fill="#63b8ff" stroke="#63b8ff" points="117.03,-22.27 125.73,-16.21 115.15,-15.53 117.03,-22.27"/>
</a>
</g>
</g>
<!-- Node10 -->
<g id="Node000010" class="node">
<title>Node10</title>
<g id="a_Node000010"><a xlink:href="CCSDSPacket_8h.html" target="_top" xlink:title=" ">
<polygon fill="white" stroke="#666666" points="227,-349 137,-349 137,-330 227,-330 227,-349"/>
<text text-anchor="middle" x="182" y="-337" font-family="Helvetica,sans-Serif" font-size="10.00">CCSDSPacket.h</text>
</a>
</g>
</g>
<!-- Node9&#45;&gt;Node10 -->
<g id="edge11_Node000009_Node000010" class="edge">
<title>Node9&#45;&gt;Node10</title>
<g id="a_edge11_Node000009_Node000010"><a xlink:title=" ">
<path fill="none" stroke="#63b8ff" d="M182,-384.75C182,-377.8 182,-367.85 182,-359.13"/>
<polygon fill="#63b8ff" stroke="#63b8ff" points="185.5,-359.09 182,-349.09 178.5,-359.09 185.5,-359.09"/>
</a>
</g>
</g>
<!-- Node16 -->
<g id="Node000016" class="node">
<title>Node16</title>
<g id="a_Node000016"><a xlink:title=" ">
<polygon fill="#e0e0e0" stroke="#999999" points="298,-129 254,-129 254,-110 298,-110 298,-129"/>
<text text-anchor="middle" x="276" y="-117" font-family="Helvetica,sans-Serif" font-size="10.00">string</text>
</a>
</g>
</g>
<!-- Node9&#45;&gt;Node16 -->
<g id="edge35_Node000009_Node000016" class="edge">
<title>Node9&#45;&gt;Node16</title>
<g id="a_edge35_Node000009_Node000016"><a xlink:title=" ">
<path fill="none" stroke="#63b8ff" d="M197.64,-384.87C210.09,-377.15 226.89,-364.64 236,-349 276.3,-279.8 278.13,-180.25 276.94,-139.24"/>
<polygon fill="#63b8ff" stroke="#63b8ff" points="280.43,-138.95 276.54,-129.09 273.43,-139.22 280.43,-138.95"/>
</a>
</g>
</g>
<!-- Node10&#45;&gt;Node2 -->
<g id="edge15_Node000010_Node000002" class="edge">
<title>Node10&#45;&gt;Node2</title>
<g id="a_edge15_Node000010_Node000002"><a xlink:title=" ">
<path fill="none" stroke="#63b8ff" d="M179.3,-329.95C169.12,-297.81 133.01,-183.72 118.8,-138.83"/>
<polygon fill="#63b8ff" stroke="#63b8ff" points="122.12,-137.7 115.76,-129.22 115.44,-139.81 122.12,-137.7"/>
</a>
</g>
</g>
<!-- Node10&#45;&gt;Node3 -->
<g id="edge12_Node000010_Node000003" class="edge">
<title>Node10&#45;&gt;Node3</title>
<g id="a_edge12_Node000010_Node000003"><a xlink:title=" ">
<path fill="none" stroke="#63b8ff" d="M181.84,-329.8C181.69,-296.79 185.5,-177.68 245,-110 258.92,-94.16 279.41,-83.82 298.67,-77.13"/>
<polygon fill="#63b8ff" stroke="#63b8ff" points="299.83,-80.43 308.29,-74.05 297.69,-73.77 299.83,-80.43"/>
</a>
</g>
</g>
<!-- Node10&#45;&gt;Node6 -->
<g id="edge14_Node000010_Node000006" class="edge">
<title>Node10&#45;&gt;Node6</title>
<g id="a_edge14_Node000010_Node000006"><a xlink:title=" ">
<path fill="none" stroke="#63b8ff" d="M227.23,-335.86C375.89,-326.61 840,-292.72 840,-230.5 840,-230.5 840,-230.5 840,-118.5 840,-80.91 810.32,-45.51 790.47,-26.04"/>
<polygon fill="#63b8ff" stroke="#63b8ff" points="792.85,-23.48 783.18,-19.17 788.05,-28.57 792.85,-23.48"/>
</a>
</g>
</g>
<!-- Node10&#45;&gt;Node7 -->
<g id="edge13_Node000010_Node000007" class="edge">
<title>Node10&#45;&gt;Node7</title>
<g id="a_edge13_Node000010_Node000007"><a xlink:title=" ">
<path fill="none" stroke="#63b8ff" d="M149.68,-329.91C107.23,-316.44 38,-285.97 38,-230.5 38,-230.5 38,-230.5 38,-118.5 38,-72.68 87.15,-40.32 120.62,-23.6"/>
<polygon fill="#63b8ff" stroke="#63b8ff" points="122.5,-26.58 130.01,-19.11 119.48,-20.27 122.5,-26.58"/>
</a>
</g>
</g>
<!-- Node11 -->
<g id="Node000011" class="node">
<title>Node11</title>
<g id="a_Node000011"><a xlink:href="CCSDSDataField_8h.html" target="_top" xlink:title=" ">
<polygon fill="white" stroke="#666666" points="501.5,-294 396.5,-294 396.5,-275 501.5,-275 501.5,-294"/>
<text text-anchor="middle" x="449" y="-282" font-family="Helvetica,sans-Serif" font-size="10.00">CCSDSDataField.h</text>
</a>
</g>
</g>
<!-- Node10&#45;&gt;Node11 -->
<g id="edge16_Node000010_Node000011" class="edge">
<title>Node10&#45;&gt;Node11</title>
<g id="a_edge16_Node000010_Node000011"><a xlink:title=" ">
<path fill="none" stroke="#63b8ff" d="M224.9,-329.98C271.37,-320.76 345.59,-306.03 395.76,-296.07"/>
<polygon fill="#63b8ff" stroke="#63b8ff" points="396.64,-299.46 405.77,-294.08 395.28,-292.6 396.64,-299.46"/>
</a>
</g>
</g>
<!-- Node11&#45;&gt;Node3 -->
<g id="edge17_Node000011_Node000003" class="edge">
<title>Node11&#45;&gt;Node3</title>
<g id="a_edge17_Node000011_Node000003"><a xlink:title=" ">
<path fill="none" stroke="#63b8ff" d="M415.29,-274.89C396.65,-268.28 374.91,-257.13 363,-239 331.43,-190.93 340.19,-118.35 346.75,-84.34"/>
<polygon fill="#63b8ff" stroke="#63b8ff" points="350.21,-84.88 348.83,-74.37 343.36,-83.45 350.21,-84.88"/>
</a>
</g>
</g>
<!-- Node11&#45;&gt;Node6 -->
<g id="edge19_Node000011_Node000006" class="edge">
<title>Node11&#45;&gt;Node6</title>
<g id="a_edge19_Node000011_Node000006"><a xlink:title=" ">
<path fill="none" stroke="#63b8ff" d="M501.85,-278.42C600.32,-267.48 802,-237.51 802,-175.5 802,-175.5 802,-175.5 802,-118.5 802,-85.95 789.56,-49.71 780.97,-28.57"/>
<polygon fill="#63b8ff" stroke="#63b8ff" points="784.15,-27.09 777.03,-19.25 777.7,-29.82 784.15,-27.09"/>
</a>
</g>
</g>
<!-- Node11&#45;&gt;Node7 -->
<g id="edge18_Node000011_Node000007" class="edge">
<title>Node11&#45;&gt;Node7</title>
<g id="a_edge18_Node000011_Node000007"><a xlink:title=" ">
<path fill="none" stroke="#63b8ff" d="M422.45,-274.95C401.39,-267.42 371.8,-255.14 349,-239 261.96,-177.38 188.36,-69.64 161.69,-27.8"/>
<polygon fill="#63b8ff" stroke="#63b8ff" points="164.62,-25.88 156.33,-19.28 158.69,-29.61 164.62,-25.88"/>
</a>
</g>
</g>
<!-- Node12 -->
<g id="Node000012" class="node">
<title>Node12</title>
<g id="a_Node000012"><a xlink:title=" ">
<polygon fill="#e0e0e0" stroke="#999999" points="774,-129 716,-129 716,-110 774,-110 774,-129"/>
<text text-anchor="middle" x="745" y="-117" font-family="Helvetica,sans-Serif" font-size="10.00">memory</text>
</a>
</g>
</g>
<!-- Node11&#45;&gt;Node12 -->
<g id="edge20_Node000011_Node000012" class="edge">
<title>Node11&#45;&gt;Node12</title>
<g id="a_edge20_Node000011_Node000012"><a xlink:title=" ">
<path fill="none" stroke="#63b8ff" d="M490.72,-274.96C544.04,-262.38 637.06,-234.71 701,-184 716.56,-171.66 728.84,-152.35 736.43,-138.27"/>
<polygon fill="#63b8ff" stroke="#63b8ff" points="739.68,-139.6 741.11,-129.1 733.44,-136.42 739.68,-139.6"/>
</a>
</g>
</g>
<!-- Node13 -->
<g id="Node000013" class="node">
<title>Node13</title>
<g id="a_Node000013"><a xlink:href="CCSDSSecondaryHeaderAbstract_8h.html" target="_top" xlink:title=" ">
<polygon fill="white" stroke="#666666" points="576.5,-129 391.5,-129 391.5,-110 576.5,-110 576.5,-129"/>
<text text-anchor="middle" x="484" y="-117" font-family="Helvetica,sans-Serif" font-size="10.00">CCSDSSecondaryHeaderAbstract.h</text>
</a>
</g>
</g>
<!-- Node11&#45;&gt;Node13 -->
<g id="edge21_Node000011_Node000013" class="edge">
<title>Node11&#45;&gt;Node13</title>
<g id="a_edge21_Node000011_Node000013"><a xlink:title=" ">
<path fill="none" stroke="#63b8ff" d="M452.68,-274.79C456.29,-265.92 461.72,-251.72 465,-239 473.93,-204.32 479.43,-162.79 482.09,-139.24"/>
<polygon fill="#63b8ff" stroke="#63b8ff" points="485.57,-139.55 483.16,-129.24 478.61,-138.81 485.57,-139.55"/>
</a>
</g>
</g>
<!-- Node14 -->
<g id="Node000014" class="node">
<title>Node14</title>
<g id="a_Node000014"><a xlink:href="CCSDSSecondaryHeaderFactory_8h.html" target="_top" xlink:title=" ">
<polygon fill="white" stroke="#666666" points="691.5,-184 512.5,-184 512.5,-165 691.5,-165 691.5,-184"/>
<text text-anchor="middle" x="602" y="-172" font-family="Helvetica,sans-Serif" font-size="10.00">CCSDSSecondaryHeaderFactory.h</text>
</a>
</g>
</g>
<!-- Node11&#45;&gt;Node14 -->
<g id="edge25_Node000011_Node000014" class="edge">
<title>Node11&#45;&gt;Node14</title>
<g id="a_edge25_Node000011_Node000014"><a xlink:title=" ">
<path fill="none" stroke="#63b8ff" d="M461.26,-274.84C487.45,-256.36 549.07,-212.86 581.39,-190.05"/>
<polygon fill="#63b8ff" stroke="#63b8ff" points="583.53,-192.82 589.68,-184.2 579.49,-187.1 583.53,-192.82"/>
</a>
</g>
</g>
<!-- Node17 -->
<g id="Node000017" class="node">
<title>Node17</title>
<g id="a_Node000017"><a xlink:href="PusServices_8h.html" target="_top" xlink:title=" ">
<polygon fill="white" stroke="#666666" points="456,-239 372,-239 372,-220 456,-220 456,-239"/>
<text text-anchor="middle" x="414" y="-227" font-family="Helvetica,sans-Serif" font-size="10.00">PusServices.h</text>
</a>
</g>
</g>
<!-- Node11&#45;&gt;Node17 -->
<g id="edge31_Node000011_Node000017" class="edge">
<title>Node11&#45;&gt;Node17</title>
<g id="a_edge31_Node000011_Node000017"><a xlink:title=" ">
<path fill="none" stroke="#63b8ff" d="M443.22,-274.75C438.38,-267.42 431.32,-256.73 425.36,-247.7"/>
<polygon fill="#63b8ff" stroke="#63b8ff" points="428.1,-245.5 419.67,-239.09 422.26,-249.36 428.1,-245.5"/>
</a>
</g>
</g>
<!-- Node13&#45;&gt;Node3 -->
<g id="edge22_Node000013_Node000003" class="edge">
<title>Node13&#45;&gt;Node3</title>
<g id="a_edge22_Node000013_Node000003"><a xlink:title=" ">
<path fill="none" stroke="#63b8ff" d="M462.63,-109.98C440.85,-101.3 406.84,-87.75 382.08,-77.88"/>
<polygon fill="#63b8ff" stroke="#63b8ff" points="383.34,-74.62 372.76,-74.17 380.75,-81.12 383.34,-74.62"/>
</a>
</g>
</g>
<!-- Node13&#45;&gt;Node6 -->
<g id="edge23_Node000013_Node000006" class="edge">
<title>Node13&#45;&gt;Node6</title>
<g id="a_edge23_Node000013_Node000006"><a xlink:title=" ">
<path fill="none" stroke="#63b8ff" d="M507.16,-109.84C558.44,-90.68 681.67,-44.63 740.58,-22.62"/>
<polygon fill="#63b8ff" stroke="#63b8ff" points="741.99,-25.83 750.13,-19.05 739.54,-19.27 741.99,-25.83"/>
</a>
</g>
</g>
<!-- Node13&#45;&gt;Node7 -->
<g id="edge24_Node000013_Node000007" class="edge">
<title>Node13&#45;&gt;Node7</title>
<g id="a_edge24_Node000013_Node000007"><a xlink:title=" ">
<path fill="none" stroke="#63b8ff" d="M438.67,-109.94C400.62,-102.22 345.1,-89.68 298,-74 254.63,-59.57 206.34,-37.48 177.33,-23.52"/>
<polygon fill="#63b8ff" stroke="#63b8ff" points="178.79,-20.34 168.27,-19.13 175.74,-26.64 178.79,-20.34"/>
</a>
</g>
</g>
<!-- Node14&#45;&gt;Node4 -->
<g id="edge27_Node000014_Node000004" class="edge">
<title>Node14&#45;&gt;Node4</title>
<g id="a_edge27_Node000014_Node000004"><a xlink:title=" ">
<path fill="none" stroke="#63b8ff" d="M625.11,-164.98C640.59,-157.92 659.76,-146.23 669,-129 672.99,-121.56 672.08,-117.86 669,-110 654.77,-73.64 620.32,-42.6 597.85,-25.27"/>
<polygon fill="#63b8ff" stroke="#63b8ff" points="599.72,-22.3 589.61,-19.11 595.53,-27.9 599.72,-22.3"/>
</a>
</g>
</g>
<!-- Node14&#45;&gt;Node12 -->
<g id="edge26_Node000014_Node000012" class="edge">
<title>Node14&#45;&gt;Node12</title>
<g id="a_edge26_Node000014_Node000012"><a xlink:title=" ">
<path fill="none" stroke="#63b8ff" d="M624.98,-164.98C648.5,-156.27 685.29,-142.63 711.94,-132.75"/>
<polygon fill="#63b8ff" stroke="#63b8ff" points="713.45,-135.93 721.61,-129.17 711.01,-129.36 713.45,-135.93"/>
</a>
</g>
</g>
<!-- Node14&#45;&gt;Node13 -->
<g id="edge30_Node000014_Node000013" class="edge">
<title>Node14&#45;&gt;Node13</title>
<g id="a_edge30_Node000014_Node000013"><a xlink:title=" ">
<path fill="none" stroke="#63b8ff" d="M583.04,-164.98C563.97,-156.42 534.34,-143.11 512.45,-133.28"/>
<polygon fill="#63b8ff" stroke="#63b8ff" points="513.86,-130.07 503.3,-129.17 510.99,-136.46 513.86,-130.07"/>
</a>
</g>
</g>
<!-- Node15 -->
<g id="Node000015" class="node">
<title>Node15</title>
<g id="a_Node000015"><a xlink:title=" ">
<polygon fill="#e0e0e0" stroke="#999999" points="659.5,-129 594.5,-129 594.5,-110 659.5,-110 659.5,-129"/>
<text text-anchor="middle" x="627" y="-117" font-family="Helvetica,sans-Serif" font-size="10.00">functional</text>
</a>
</g>
</g>
<!-- Node14&#45;&gt;Node15 -->
<g id="edge28_Node000014_Node000015" class="edge">
<title>Node14&#45;&gt;Node15</title>
<g id="a_edge28_Node000014_Node000015"><a xlink:title=" ">
<path fill="none" stroke="#63b8ff" d="M606.13,-164.75C609.51,-157.57 614.42,-147.18 618.62,-138.27"/>
<polygon fill="#63b8ff" stroke="#63b8ff" points="621.85,-139.63 622.95,-129.09 615.52,-136.64 621.85,-139.63"/>
</a>
</g>
</g>
<!-- Node14&#45;&gt;Node16 -->
<g id="edge29_Node000014_Node000016" class="edge">
<title>Node14&#45;&gt;Node16</title>
<g id="a_edge29_Node000014_Node000016"><a xlink:title=" ">
<path fill="none" stroke="#63b8ff" d="M549.62,-164.98C481.48,-153.91 364.5,-134.89 308.17,-125.73"/>
<polygon fill="#63b8ff" stroke="#63b8ff" points="308.49,-122.24 298.06,-124.09 307.37,-129.15 308.49,-122.24"/>
</a>
</g>
</g>
<!-- Node17&#45;&gt;Node3 -->
<g id="edge34_Node000017_Node000003" class="edge">
<title>Node17&#45;&gt;Node3</title>
<g id="a_edge34_Node000017_Node000003"><a xlink:title=" ">
<path fill="none" stroke="#63b8ff" d="M410.61,-219.74C400.7,-194.09 371.59,-118.78 358.06,-83.78"/>
<polygon fill="#63b8ff" stroke="#63b8ff" points="361.27,-82.37 354.4,-74.31 354.74,-84.9 361.27,-82.37"/>
</a>
</g>
</g>
<!-- Node17&#45;&gt;Node13 -->
<g id="edge32_Node000017_Node000013" class="edge">
<title>Node17&#45;&gt;Node13</title>
<g id="a_edge32_Node000017_Node000013"><a xlink:title=" ">
<path fill="none" stroke="#63b8ff" d="M419.73,-219.66C431.32,-201.77 457.75,-161 472.86,-137.69"/>
<polygon fill="#63b8ff" stroke="#63b8ff" points="475.89,-139.45 478.39,-129.16 470.01,-135.65 475.89,-139.45"/>
</a>
</g>
</g>
<!-- Node17&#45;&gt;Node14 -->
<g id="edge33_Node000017_Node000014" class="edge">
<title>Node17&#45;&gt;Node14</title>
<g id="a_edge33_Node000017_Node000014"><a xlink:title=" ">
<path fill="none" stroke="#63b8ff" d="M444.21,-219.98C476.04,-211.01 526.36,-196.82 561.6,-186.89"/>
<polygon fill="#63b8ff" stroke="#63b8ff" points="562.88,-190.16 571.56,-184.08 560.98,-183.43 562.88,-190.16"/>
</a>
</g>
</g>
</g>
</svg>
