<?xml version="1.0" encoding="UTF-8" standalone="no"?>
<!DOCTYPE svg PUBLIC "-//W3C//DTD SVG 1.1//EN"
 "http://www.w3.org/Graphics/SVG/1.1/DTD/svg11.dtd">
<!-- Generated by graphviz version 2.43.0 (0)
 -->
<!-- Title: inc/CCSDSDataField.h Pages: 1 -->
<svg width="575pt" height="357pt"
 viewBox="0.00 0.00 574.50 357.00" xmlns="http://www.w3.org/2000/svg" xmlns:xlink="http://www.w3.org/1999/xlink">
<g id="graph0" class="graph" transform="scale(1 1) rotate(0) translate(4 353)">
<title>inc/CCSDSDataField.h</title>
<!-- Node1 -->
<g id="Node000001" class="node">
<title>Node1</title>
<g id="a_Node000001"><a xlink:title=" ">
<polygon fill="#999999" stroke="#666666" points="300,-349 178,-349 178,-330 300,-330 300,-349"/>
<text text-anchor="middle" x="239" y="-337" font-family="Helvetica,sans-Serif" font-size="10.00">inc/CCSDSDataField.h</text>
</a>
</g>
</g>
<!-- Node2 -->
<g id="Node000002" class="node">
<title>Node2</title>
<g id="a_Node000002"><a xlink:href="CCSDSResult_8h.html" target="_top" xlink:title=" ">
<polygon fill="white" stroke="#666666" points="511.5,-74 422.5,-74 422.5,-55 511.5,-55 511.5,-74"/>
<text text-anchor="middle" x="467" y="-62" font-family="Helvetica,sans-Serif" font-size="10.00">CCSDSResult.h</text>
</a>
</g>
</g>
<!-- Node1&#45;&gt;Node2 -->
<g id="edge1_Node000001_Node000002" class="edge">
<title>Node1&#45;&gt;Node2</title>
<g id="a_edge1_Node000001_Node000002"><a xlink:title=" ">
<path fill="none" stroke="#63b8ff" d="M300.09,-330.11C391.18,-315.86 552,-283.24 552,-230.5 552,-230.5 552,-230.5 552,-173.5 552,-132.73 514.14,-98.28 488.95,-79.86"/>
<polygon fill="#63b8ff" stroke="#63b8ff" points="490.85,-76.92 480.66,-74.04 486.83,-82.65 490.85,-76.92"/>
</a>
</g>
</g>
<!-- Node4 -->
<g id="Node000004" class="node">
<title>Node4</title>
<g id="a_Node000004"><a xlink:title=" ">
<polygon fill="#e0e0e0" stroke="#999999" points="327.5,-19 280.5,-19 280.5,0 327.5,0 327.5,-19"/>
<text text-anchor="middle" x="304" y="-7" font-family="Helvetica,sans-Serif" font-size="10.00">vector</text>
</a>
</g>
</g>
<!-- Node1&#45;&gt;Node4 -->
<g id="edge6_Node000001_Node000004" class="edge">
<title>Node1&#45;&gt;Node4</title>
<g id="a_edge6_Node000001_Node000004"><a xlink:title=" ">
<path fill="none" stroke="#63b8ff" d="M177.76,-336.47C106.95,-330.46 0,-308.47 0,-230.5 0,-230.5 0,-230.5 0,-118.5 0,-71.7 41.33,-74.23 84,-55 146.03,-27.04 225.79,-16.52 270.23,-12.66"/>
<polygon fill="#63b8ff" stroke="#63b8ff" points="270.79,-16.12 280.48,-11.83 270.23,-9.15 270.79,-16.12"/>
</a>
</g>
</g>
<!-- Node7 -->
<g id="Node000007" class="node">
<title>Node7</title>
<g id="a_Node000007"><a xlink:title=" ">
<polygon fill="#e0e0e0" stroke="#999999" points="86,-184 28,-184 28,-165 86,-165 86,-184"/>
<text text-anchor="middle" x="57" y="-172" font-family="Helvetica,sans-Serif" font-size="10.00">memory</text>
</a>
</g>
</g>
<!-- Node1&#45;&gt;Node7 -->
<g id="edge7_Node000001_Node000007" class="edge">
<title>Node1&#45;&gt;Node7</title>
<g id="a_edge7_Node000001_Node000007"><a xlink:title=" ">
<path fill="none" stroke="#63b8ff" d="M200.98,-329.97C157.41,-317.94 88.04,-291.35 57,-239 49,-225.52 49.89,-207.42 52.26,-194"/>
<polygon fill="#63b8ff" stroke="#63b8ff" points="55.72,-194.54 54.43,-184.02 48.88,-193.05 55.72,-194.54"/>
</a>
</g>
</g>
<!-- Node8 -->
<g id="Node000008" class="node">
<title>Node8</title>
<g id="a_Node000008"><a xlink:href="CCSDSSecondaryHeaderAbstract_8h.html" target="_top" xlink:title=" ">
<polygon fill="white" stroke="#666666" points="486.5,-184 301.5,-184 301.5,-165 486.5,-165 486.5,-184"/>
<text text-anchor="middle" x="394" y="-172" font-family="Helvetica,sans-Serif" font-size="10.00">CCSDSSecondaryHeaderAbstract.h</text>
</a>
</g>
</g>
<!-- Node1&#45;&gt;Node8 -->
<g id="edge8_Node000001_Node000008" class="edge">
<title>Node1&#45;&gt;Node8</title>
<g id="a_edge8_Node000001_Node000008"><a xlink:title=" ">
<path fill="none" stroke="#63b8ff" d="M263.91,-329.98C282.44,-322.68 307.46,-310.69 325,-294 355.79,-264.71 377.19,-218.65 387.32,-193.45"/>
<polygon fill="#63b8ff" stroke="#63b8ff" points="390.62,-194.63 390.97,-184.04 384.09,-192.1 390.62,-194.63"/>
</a>
</g>
</g>
<!-- Node12 -->
<g id="Node000012" class="node">
<title>Node12</title>
<g id="a_Node000012"><a xlink:href="CCSDSSecondaryHeaderFactory_8h.html" target="_top" xlink:title=" ">
<polygon fill="white" stroke="#666666" points="245.5,-239 66.5,-239 66.5,-220 245.5,-220 245.5,-239"/>
<text text-anchor="middle" x="156" y="-227" font-family="Helvetica,sans-Serif" font-size="10.00">CCSDSSecondaryHeaderFactory.h</text>
</a>
</g>
</g>
<!-- Node1&#45;&gt;Node12 -->
<g id="edge18_Node000001_Node000012" class="edge">
<title>Node1&#45;&gt;Node12</title>
<g id="a_edge18_Node000001_Node000012"><a xlink:title=" ">
<path fill="none" stroke="#63b8ff" d="M232.21,-329.66C218.4,-311.69 186.85,-270.64 168.98,-247.38"/>
<polygon fill="#63b8ff" stroke="#63b8ff" points="171.52,-244.95 162.65,-239.16 165.97,-249.22 171.52,-244.95"/>
</a>
</g>
</g>
<!-- Node14 -->
<g id="Node000014" class="node">
<title>Node14</title>
<g id="a_Node000014"><a xlink:href="PusServices_8h.html" target="_top" xlink:title=" ">
<polygon fill="white" stroke="#666666" points="316,-294 232,-294 232,-275 316,-275 316,-294"/>
<text text-anchor="middle" x="274" y="-282" font-family="Helvetica,sans-Serif" font-size="10.00">PusServices.h</text>
</a>
</g>
</g>
<!-- Node1&#45;&gt;Node14 -->
<g id="edge24_Node000001_Node000014" class="edge">
<title>Node1&#45;&gt;Node14</title>
<g id="a_edge24_Node000001_Node000014"><a xlink:title=" ">
<path fill="none" stroke="#63b8ff" d="M244.78,-329.75C249.62,-322.42 256.68,-311.73 262.64,-302.7"/>
<polygon fill="#63b8ff" stroke="#63b8ff" points="265.74,-304.36 268.33,-294.09 259.9,-300.5 265.74,-304.36"/>
</a>
</g>
</g>
<!-- Node3 -->
<g id="Node000003" class="node">
<title>Node3</title>
<g id="a_Node000003"><a xlink:title=" ">
<polygon fill="#e0e0e0" stroke="#999999" points="566.5,-19 515.5,-19 515.5,0 566.5,0 566.5,-19"/>
<text text-anchor="middle" x="541" y="-7" font-family="Helvetica,sans-Serif" font-size="10.00">variant</text>
</a>
</g>
</g>
<!-- Node2&#45;&gt;Node3 -->
<g id="edge2_Node000002_Node000003" class="edge">
<title>Node2&#45;&gt;Node3</title>
<g id="a_edge2_Node000002_Node000003"><a xlink:title=" ">
<path fill="none" stroke="#63b8ff" d="M478.89,-54.98C490.15,-46.92 507.29,-34.65 520.71,-25.03"/>
<polygon fill="#63b8ff" stroke="#63b8ff" points="522.8,-27.84 528.89,-19.17 518.73,-22.15 522.8,-27.84"/>
</a>
</g>
</g>
<!-- Node2&#45;&gt;Node4 -->
<g id="edge3_Node000002_Node000004" class="edge">
<title>Node2&#45;&gt;Node4</title>
<g id="a_edge3_Node000002_Node000004"><a xlink:title=" ">
<path fill="none" stroke="#63b8ff" d="M440.81,-54.98C412.76,-45.86 368.14,-31.36 337.54,-21.4"/>
<polygon fill="#63b8ff" stroke="#63b8ff" points="338.33,-17.98 327.74,-18.22 336.17,-24.64 338.33,-17.98"/>
</a>
</g>
</g>
<!-- Node5 -->
<g id="Node000005" class="node">
<title>Node5</title>
<g id="a_Node000005"><a xlink:title=" ">
<polygon fill="#e0e0e0" stroke="#999999" points="419,-19 369,-19 369,0 419,0 419,-19"/>
<text text-anchor="middle" x="394" y="-7" font-family="Helvetica,sans-Serif" font-size="10.00">cstdint</text>
</a>
</g>
</g>
<!-- Node2&#45;&gt;Node5 -->
<g id="edge4_Node000002_Node000005" class="edge">
<title>Node2&#45;&gt;Node5</title>
<g id="a_edge4_Node000002_Node000005"><a xlink:title=" ">
<path fill="none" stroke="#63b8ff" d="M455.27,-54.98C444.27,-47 427.58,-34.88 414.4,-25.31"/>
<polygon fill="#63b8ff" stroke="#63b8ff" points="416.09,-22.21 405.94,-19.17 411.98,-27.88 416.09,-22.21"/>
</a>
</g>
</g>
<!-- Node6 -->
<g id="Node000006" class="node">
<title>Node6</title>
<g id="a_Node000006"><a xlink:title=" ">
<polygon fill="#e0e0e0" stroke="#999999" points="497,-19 437,-19 437,0 497,0 497,-19"/>
<text text-anchor="middle" x="467" y="-7" font-family="Helvetica,sans-Serif" font-size="10.00">iostream</text>
</a>
</g>
</g>
<!-- Node2&#45;&gt;Node6 -->
<g id="edge5_Node000002_Node000006" class="edge">
<title>Node2&#45;&gt;Node6</title>
<g id="a_edge5_Node000002_Node000006"><a xlink:title=" ">
<path fill="none" stroke="#63b8ff" d="M467,-54.75C467,-47.8 467,-37.85 467,-29.13"/>
<polygon fill="#63b8ff" stroke="#63b8ff" points="470.5,-29.09 467,-19.09 463.5,-29.09 470.5,-29.09"/>
</a>
</g>
</g>
<!-- Node8&#45;&gt;Node2 -->
<g id="edge9_Node000008_Node000002" class="edge">
<title>Node8&#45;&gt;Node2</title>
<g id="a_edge9_Node000008_Node000002"><a xlink:title=" ">
<path fill="none" stroke="#63b8ff" d="M399.97,-164.66C412.06,-146.77 439.62,-106 455.38,-82.69"/>
<polygon fill="#63b8ff" stroke="#63b8ff" points="458.45,-84.4 461.15,-74.16 452.65,-80.48 458.45,-84.4"/>
</a>
</g>
</g>
<!-- Node8&#45;&gt;Node4 -->
<g id="edge10_Node000008_Node000004" class="edge">
<title>Node8&#45;&gt;Node4</title>
<g id="a_edge10_Node000008_Node000004"><a xlink:title=" ">
<path fill="none" stroke="#63b8ff" d="M389.16,-164.74C374.94,-138.98 333.06,-63.13 313.84,-28.33"/>
<polygon fill="#63b8ff" stroke="#63b8ff" points="316.76,-26.37 308.86,-19.31 310.63,-29.75 316.76,-26.37"/>
</a>
</g>
</g>
<!-- Node8&#45;&gt;Node5 -->
<g id="edge11_Node000008_Node000005" class="edge">
<title>Node8&#45;&gt;Node5</title>
<g id="a_edge11_Node000008_Node000005"><a xlink:title=" ">
<path fill="none" stroke="#63b8ff" d="M394,-164.74C394,-139.31 394,-65.08 394,-29.69"/>
<polygon fill="#63b8ff" stroke="#63b8ff" points="397.5,-29.31 394,-19.31 390.5,-29.31 397.5,-29.31"/>
</a>
</g>
</g>
<!-- Node9 -->
<g id="Node000009" class="node">
<title>Node9</title>
<g id="a_Node000009"><a xlink:href="CCSDSConfig_8h.html" target="_top" xlink:title=" ">
<polygon fill="white" stroke="#666666" points="324.5,-129 235.5,-129 235.5,-110 324.5,-110 324.5,-129"/>
<text text-anchor="middle" x="280" y="-117" font-family="Helvetica,sans-Serif" font-size="10.00">CCSDSConfig.h</text>
</a>
</g>
</g>
<!-- Node8&#45;&gt;Node9 -->
<g id="edge12_Node000008_Node000009" class="edge">
<title>Node8&#45;&gt;Node9</title>
<g id="a_edge12_Node000008_Node000009"><a xlink:title=" ">
<path fill="none" stroke="#63b8ff" d="M375.68,-164.98C357.34,-156.46 328.89,-143.23 307.77,-133.41"/>
<polygon fill="#63b8ff" stroke="#63b8ff" points="309.19,-130.21 298.65,-129.17 306.24,-136.56 309.19,-130.21"/>
</a>
</g>
</g>
<!-- Node9&#45;&gt;Node2 -->
<g id="edge16_Node000009_Node000002" class="edge">
<title>Node9&#45;&gt;Node2</title>
<g id="a_edge16_Node000009_Node000002"><a xlink:title=" ">
<path fill="none" stroke="#63b8ff" d="M310.04,-109.98C341.71,-101.01 391.77,-86.82 426.81,-76.89"/>
<polygon fill="#63b8ff" stroke="#63b8ff" points="428.05,-80.18 436.72,-74.08 426.14,-73.44 428.05,-80.18"/>
</a>
</g>
</g>
<!-- Node9&#45;&gt;Node4 -->
<g id="edge15_Node000009_Node000004" class="edge">
<title>Node9&#45;&gt;Node4</title>
<g id="a_edge15_Node000009_Node000004"><a xlink:title=" ">
<path fill="none" stroke="#63b8ff" d="M281.96,-109.66C285.87,-92.09 294.68,-52.45 299.9,-28.95"/>
<polygon fill="#63b8ff" stroke="#63b8ff" points="303.32,-29.68 302.08,-19.16 296.49,-28.16 303.32,-29.68"/>
</a>
</g>
</g>
<!-- Node9&#45;&gt;Node5 -->
<g id="edge14_Node000009_Node000005" class="edge">
<title>Node9&#45;&gt;Node5</title>
<g id="a_edge14_Node000009_Node000005"><a xlink:title=" ">
<path fill="none" stroke="#63b8ff" d="M289.33,-109.66C308.63,-91.38 353.17,-49.18 377.46,-26.17"/>
<polygon fill="#63b8ff" stroke="#63b8ff" points="380.01,-28.58 384.86,-19.16 375.19,-23.5 380.01,-28.58"/>
</a>
</g>
</g>
<!-- Node10 -->
<g id="Node000010" class="node">
<title>Node10</title>
<g id="a_Node000010"><a xlink:title=" ">
<polygon fill="#e0e0e0" stroke="#999999" points="137,-74 93,-74 93,-55 137,-55 137,-74"/>
<text text-anchor="middle" x="115" y="-62" font-family="Helvetica,sans-Serif" font-size="10.00">string</text>
</a>
</g>
</g>
<!-- Node9&#45;&gt;Node10 -->
<g id="edge13_Node000009_Node000010" class="edge">
<title>Node9&#45;&gt;Node10</title>
<g id="a_edge13_Node000009_Node000010"><a xlink:title=" ">
<path fill="none" stroke="#63b8ff" d="M253.49,-109.98C224.52,-100.68 178.1,-85.77 147.09,-75.81"/>
<polygon fill="#63b8ff" stroke="#63b8ff" points="147.8,-72.36 137.21,-72.63 145.66,-79.03 147.8,-72.36"/>
</a>
</g>
</g>
<!-- Node11 -->
<g id="Node000011" class="node">
<title>Node11</title>
<g id="a_Node000011"><a xlink:title=" ">
<polygon fill="#e0e0e0" stroke="#999999" points="250.5,-74 157.5,-74 157.5,-55 250.5,-55 250.5,-74"/>
<text text-anchor="middle" x="204" y="-62" font-family="Helvetica,sans-Serif" font-size="10.00">unordered_map</text>
</a>
</g>
</g>
<!-- Node9&#45;&gt;Node11 -->
<g id="edge17_Node000009_Node000011" class="edge">
<title>Node9&#45;&gt;Node11</title>
<g id="a_edge17_Node000009_Node000011"><a xlink:title=" ">
<path fill="none" stroke="#63b8ff" d="M267.79,-109.98C256.22,-101.92 238.62,-89.65 224.84,-80.03"/>
<polygon fill="#63b8ff" stroke="#63b8ff" points="226.64,-77.02 216.43,-74.17 222.63,-82.76 226.64,-77.02"/>
</a>
</g>
</g>
<!-- Node12&#45;&gt;Node7 -->
<g id="edge19_Node000012_Node000007" class="edge">
<title>Node12&#45;&gt;Node7</title>
<g id="a_edge19_Node000012_Node000007"><a xlink:title=" ">
<path fill="none" stroke="#63b8ff" d="M140.09,-219.98C124.45,-211.61 100.34,-198.7 82.12,-188.95"/>
<polygon fill="#63b8ff" stroke="#63b8ff" points="83.66,-185.8 73.2,-184.17 80.36,-191.98 83.66,-185.8"/>
</a>
</g>
</g>
<!-- Node12&#45;&gt;Node8 -->
<g id="edge23_Node000012_Node000008" class="edge">
<title>Node12&#45;&gt;Node8</title>
<g id="a_edge23_Node000012_Node000008"><a xlink:title=" ">
<path fill="none" stroke="#63b8ff" d="M194.24,-219.98C235.41,-210.82 300.99,-196.21 345.7,-186.26"/>
<polygon fill="#63b8ff" stroke="#63b8ff" points="346.46,-189.67 355.46,-184.08 344.94,-182.84 346.46,-189.67"/>
</a>
</g>
</g>
<!-- Node12&#45;&gt;Node10 -->
<g id="edge22_Node000012_Node000010" class="edge">
<title>Node12&#45;&gt;Node10</title>
<g id="a_edge22_Node000012_Node000010"><a xlink:title=" ">
<path fill="none" stroke="#63b8ff" d="M151.9,-219.81C147.87,-210.97 141.79,-196.78 138,-184 127.77,-149.46 120.91,-107.89 117.5,-84.29"/>
<polygon fill="#63b8ff" stroke="#63b8ff" points="120.95,-83.68 116.11,-74.26 114.02,-84.65 120.95,-83.68"/>
</a>
</g>
</g>
<!-- Node12&#45;&gt;Node11 -->
<g id="edge20_Node000012_Node000011" class="edge">
<title>Node12&#45;&gt;Node11</title>
<g id="a_edge20_Node000012_Node000011"><a xlink:title=" ">
<path fill="none" stroke="#63b8ff" d="M157.8,-219.81C160.4,-207.52 165.5,-184.4 171,-165 179.12,-136.34 190.35,-103.65 197.39,-83.8"/>
<polygon fill="#63b8ff" stroke="#63b8ff" points="200.75,-84.8 200.82,-74.2 194.16,-82.44 200.75,-84.8"/>
</a>
</g>
</g>
<!-- Node13 -->
<g id="Node000013" class="node">
<title>Node13</title>
<g id="a_Node000013"><a xlink:title=" ">
<polygon fill="#e0e0e0" stroke="#999999" points="245.5,-184 180.5,-184 180.5,-165 245.5,-165 245.5,-184"/>
<text text-anchor="middle" x="213" y="-172" font-family="Helvetica,sans-Serif" font-size="10.00">functional</text>
</a>
</g>
</g>
<!-- Node12&#45;&gt;Node13 -->
<g id="edge21_Node000012_Node000013" class="edge">
<title>Node12&#45;&gt;Node13</title>
<g id="a_edge21_Node000012_Node000013"><a xlink:title=" ">
<path fill="none" stroke="#63b8ff" d="M165.16,-219.98C173.5,-212.23 186.03,-200.58 196.18,-191.14"/>
<polygon fill="#63b8ff" stroke="#63b8ff" points="198.74,-193.54 203.68,-184.17 193.97,-188.42 198.74,-193.54"/>
</a>
</g>
</g>
<!-- Node14&#45;&gt;Node2 -->
<g id="edge27_Node000014_Node000002" class="edge">
<title>Node14&#45;&gt;Node2</title>
<g id="a_edge27_Node000014_Node000002"><a xlink:title=" ">
<path fill="none" stroke="#63b8ff" d="M316.17,-278.18C368.45,-269.08 455.48,-245.13 495,-184 515.57,-152.18 493.62,-106.84 478.6,-82.5"/>
<polygon fill="#63b8ff" stroke="#63b8ff" points="481.47,-80.5 473.1,-74 475.59,-84.3 481.47,-80.5"/>
</a>
</g>
</g>
<!-- Node14&#45;&gt;Node8 -->
<g id="edge25_Node000014_Node000008" class="edge">
<title>Node14&#45;&gt;Node8</title>
<g id="a_edge25_Node000014_Node000008"><a xlink:title=" ">
<path fill="none" stroke="#63b8ff" d="M283.82,-274.66C304.23,-256.3 351.43,-213.81 376.93,-190.87"/>
<polygon fill="#63b8ff" stroke="#63b8ff" points="379.29,-193.45 384.38,-184.16 374.61,-188.25 379.29,-193.45"/>
</a>
</g>
</g>
<!-- Node14&#45;&gt;Node9 -->
<g id="edge28_Node000014_Node000009" class="edge">
<title>Node14&#45;&gt;Node9</title>
<g id="a_edge28_Node000014_Node000009"><a xlink:title=" ">
<path fill="none" stroke="#63b8ff" d="M274.32,-274.74C275.26,-249.31 277.99,-175.08 279.29,-139.69"/>
<polygon fill="#63b8ff" stroke="#63b8ff" points="282.81,-139.43 279.68,-129.31 275.81,-139.17 282.81,-139.43"/>
</a>
</g>
</g>
<!-- Node14&#45;&gt;Node12 -->
<g id="edge26_Node000014_Node000012" class="edge">
<title>Node14&#45;&gt;Node12</title>
<g id="a_edge26_Node000014_Node000012"><a xlink:title=" ">
<path fill="none" stroke="#63b8ff" d="M255.04,-274.98C235.97,-266.42 206.34,-253.11 184.45,-243.28"/>
<polygon fill="#63b8ff" stroke="#63b8ff" points="185.86,-240.07 175.3,-239.17 182.99,-246.46 185.86,-240.07"/>
</a>
</g>
</g>
</g>
</svg>
