<?xml version="1.0" encoding="UTF-8" standalone="no"?>
<!DOCTYPE svg PUBLIC "-//W3C//DTD SVG 1.1//EN"
 "http://www.w3.org/Graphics/SVG/1.1/DTD/svg11.dtd">
<!-- Generated by graphviz version 2.43.0 (0)
 -->
<!-- Title: printPacket Pages: 1 -->
<!--zoomable 615 -->

<svg id="main" version="1.1" xmlns="http://www.w3.org/2000/svg" xmlns:xlink="http://www.w3.org/1999/xlink" xml:space="preserve" onload="init(evt)">
<style type="text/css"><![CDATA[
.node, .edge {opacity: 0.7;}
.node.selected, .edge.selected {opacity: 1;}
.edge:hover path { stroke: red; }
.edge:hover polygon { stroke: red; fill: red; }
]]></style>

<defs>
  <circle id="rim" cx="0" cy="0" r="7"/>
  <circle id="rim2" cx="0" cy="0" r="3.5"/>
  <g id="zoomPlus">
    <use xlink:href="#rim" fill="#404040"><set attributeName="fill" to="#808080" begin="zoomplus.mouseover" end="zoomplus.mouseout"/></use>
    <path d="M-4,0h8M0,-4v8" fill="none" stroke="white" stroke-width="1.5" pointer-events="none"/>
  </g>
  <g id="zoomMin">
    <use xlink:href="#rim" fill="#404040"><set attributeName="fill" to="#808080" begin="zoomminus.mouseover" end="zoomminus.mouseout"/></use>
    <path d="M-4,0h8" fill="none" stroke="white" stroke-width="1.5" pointer-events="none"/>
  </g>
  <g id="arrowUp" transform="translate(30 24)">
    <use xlink:href="#rim"/>
    <path pointer-events="none" fill="none" stroke="white" stroke-width="1.5" d="M0,-3.0v7 M-2.5,-0.5L0,-3.0L2.5,-0.5"/>
  </g>
  <g id="arrowRight" transform="rotate(90) translate(36 -43)">
    <use xlink:href="#rim"/>
    <path pointer-events="none" fill="none" stroke="white" stroke-width="1.5" d="M0,-3.0v7 M-2.5,-0.5L0,-3.0L2.5,-0.5"/>
  </g>
  <g id="arrowDown" transform="rotate(180) translate(-30 -48)">
    <use xlink:href="#rim"/>
    <path pointer-events="none" fill="none" stroke="white" stroke-width="1.5" d="M0,-3.0v7 M-2.5,-0.5L0,-3.0L2.5,-0.5"/>
  </g>
  <g id="arrowLeft" transform="rotate(270) translate(-36 17)">
    <use xlink:href="#rim"/>
    <path pointer-events="none" fill="none" stroke="white" stroke-width="1.5" d="M0,-3.0v7 M-2.5,-0.5L0,-3.0L2.5,-0.5"/>
  </g>
  <g id="resetDef">
    <use xlink:href="#rim2" fill="#404040"><set attributeName="fill" to="#808080" begin="reset.mouseover" end="reset.mouseout"/></use>
  </g>
</defs>
<script type="application/ecmascript">
var viewWidth = 657;
var viewHeight = 615;
var sectionId = 'dynsection-11';
</script>
<script type="application/ecmascript" xlink:href="svg.min.js"/>
<svg id="graph" class="graph">
<g id="viewport">
<title>printPacket</title>
<!-- Node1 -->
<g id="Node000001" class="node">
<title>Node1</title>
<g id="a_Node000001"><a xlink:title="Prints to console a CCSDS Packets, breaking it down to Primary header and Data field.">
<polygon fill="#999999" stroke="#666666" points="71,-332 0,-332 0,-313 71,-313 71,-332"/>
<text text-anchor="middle" x="35.5" y="-320" font-family="Helvetica,sans-Serif" font-size="10.00">printPacket</text>
</a>
</g>
</g>
<!-- Node2 -->
<g id="Node000002" class="node">
<title>Node2</title>
<g id="a_Node000002"><a xlink:href="CCSDSUtils_8cpp.html#aed99c8e7576ac25c49f6b913b46d1b76" target="_top" xlink:title="Prints the data field and the CRC&#45;16 checksum of the packet.">
<polygon fill="white" stroke="#666666" points="206.5,-472 120.5,-472 120.5,-453 206.5,-453 206.5,-472"/>
<text text-anchor="middle" x="163.5" y="-460" font-family="Helvetica,sans-Serif" font-size="10.00">printDataField</text>
</a>
</g>
</g>
<!-- Node1&#45;&gt;Node2 -->
<g id="edge1_Node000001_Node000002" class="edge">
<title>Node1&#45;&gt;Node2</title>
<g id="a_edge1_Node000001_Node000002"><a xlink:title=" ">
<path fill="none" stroke="#63b8ff" d="M45.16,-332.12C66.2,-355.5 120.24,-415.54 147,-445.28"/>
<polygon fill="#63b8ff" stroke="#63b8ff" points="144.49,-447.72 153.78,-452.81 149.69,-443.04 144.49,-447.72"/>
</a>
</g>
</g>
<!-- Node11 -->
<g id="Node000011" class="node">
<title>Node11</title>
<g id="a_Node000011"><a xlink:href="CCSDSUtils_8cpp.html#a3c45ef84a35555519e34164e000dada5" target="_top" xlink:title="Prints to console the primary header of a provided CCSDS packet.">
<polygon fill="white" stroke="#666666" points="220,-250 107,-250 107,-231 220,-231 220,-250"/>
<text text-anchor="middle" x="163.5" y="-238" font-family="Helvetica,sans-Serif" font-size="10.00">printPrimaryHeader</text>
</a>
</g>
</g>
<!-- Node1&#45;&gt;Node11 -->
<g id="edge10_Node000001_Node000011" class="edge">
<title>Node1&#45;&gt;Node11</title>
<g id="a_edge10_Node000001_Node000011"><a xlink:title=" ">
<path fill="none" stroke="#63b8ff" d="M51.45,-312.77C73.14,-298.65 113.55,-272.36 139.18,-255.68"/>
<polygon fill="#63b8ff" stroke="#63b8ff" points="141.1,-258.6 147.57,-250.22 137.28,-252.74 141.1,-258.6"/>
</a>
</g>
</g>
<!-- Node3 -->
<g id="Node000003" class="node">
<title>Node3</title>
<g id="a_Node000003"><a xlink:href="classCCSDS_1_1Packet.html#a6b0791e2a62a2db48b12a5ee6b762a7b" target="_top" xlink:title="Computes and retrieves the CRC&#45;16 checksum of the packet.">
<polygon fill="white" stroke="#666666" points="398,-454 269,-454 269,-435 398,-435 398,-454"/>
<text text-anchor="middle" x="333.5" y="-442" font-family="Helvetica,sans-Serif" font-size="10.00">CCSDS::Packet::getCRC</text>
</a>
</g>
</g>
<!-- Node2&#45;&gt;Node3 -->
<g id="edge2_Node000002_Node000003" class="edge">
<title>Node2&#45;&gt;Node3</title>
<g id="a_edge2_Node000002_Node000003"><a xlink:title=" ">
<path fill="none" stroke="#63b8ff" d="M206.89,-457.96C222.58,-456.28 240.85,-454.32 258.52,-452.43"/>
<polygon fill="#63b8ff" stroke="#63b8ff" points="259.26,-455.87 268.83,-451.32 258.51,-448.91 259.26,-455.87"/>
</a>
</g>
</g>
<!-- Node4 -->
<g id="Node000004" class="node">
<title>Node4</title>
<g id="a_Node000004"><a xlink:href="classCCSDS_1_1Packet.html#ae788c8d3ae1fcec2c18787c9491cdca3" target="_top" xlink:title="returns the CCSDS packet&#39;s DataField.">
<polygon fill="white" stroke="#666666" points="411,-528 256,-528 256,-509 411,-509 411,-528"/>
<text text-anchor="middle" x="333.5" y="-516" font-family="Helvetica,sans-Serif" font-size="10.00">CCSDS::Packet::getDataField</text>
</a>
</g>
</g>
<!-- Node2&#45;&gt;Node4 -->
<g id="edge3_Node000002_Node000004" class="edge">
<title>Node2&#45;&gt;Node4</title>
<g id="a_edge3_Node000002_Node000004"><a xlink:title=" ">
<path fill="none" stroke="#63b8ff" d="M184.85,-472.08C203.16,-480.42 230.96,-492.41 256,-500.5 262.54,-502.61 269.47,-504.59 276.39,-506.41"/>
<polygon fill="#63b8ff" stroke="#63b8ff" points="275.9,-509.89 286.45,-508.95 277.61,-503.11 275.9,-509.89"/>
</a>
</g>
</g>
<!-- Node5 -->
<g id="Node000005" class="node">
<title>Node5</title>
<g id="a_Node000005"><a xlink:href="CCSDSUtils_8cpp.html#a6e927daa91ea42db4bb94bfc51425b96" target="_top" xlink:title="Prints the data field details, including the secondary header and application data.">
<polygon fill="white" stroke="#666666" points="364.5,-491 302.5,-491 302.5,-472 364.5,-472 364.5,-491"/>
<text text-anchor="middle" x="333.5" y="-479" font-family="Helvetica,sans-Serif" font-size="10.00">printData</text>
</a>
</g>
</g>
<!-- Node2&#45;&gt;Node5 -->
<g id="edge4_Node000002_Node000005" class="edge">
<title>Node2&#45;&gt;Node5</title>
<g id="a_edge4_Node000002_Node000005"><a xlink:title=" ">
<path fill="none" stroke="#63b8ff" d="M206.89,-467.29C233.04,-470.25 266.37,-474.02 292.13,-476.93"/>
<polygon fill="#63b8ff" stroke="#63b8ff" points="291.98,-480.44 302.31,-478.09 292.76,-473.48 291.98,-480.44"/>
</a>
</g>
</g>
<!-- Node6 -->
<g id="Node000006" class="node">
<title>Node6</title>
<g id="a_Node000006"><a xlink:href="classCCSDS_1_1DataField.html#a692e61aef588439155bdd3e289bfa103" target="_top" xlink:title="Retrieves the application data from the data field.">
<polygon fill="white" stroke="#666666" points="649,-473 447,-473 447,-454 649,-454 649,-473"/>
<text text-anchor="middle" x="548" y="-461" font-family="Helvetica,sans-Serif" font-size="10.00">CCSDS::DataField::getApplicationData</text>
</a>
</g>
</g>
<!-- Node5&#45;&gt;Node6 -->
<g id="edge5_Node000005_Node000006" class="edge">
<title>Node5&#45;&gt;Node6</title>
<g id="a_edge5_Node000005_Node000006"><a xlink:title=" ">
<path fill="none" stroke="#63b8ff" d="M364.95,-478.92C384.18,-477.29 410.33,-475.08 436.8,-472.83"/>
<polygon fill="#63b8ff" stroke="#63b8ff" points="437.28,-476.31 446.95,-471.97 436.69,-469.33 437.28,-476.31"/>
</a>
</g>
</g>
<!-- Node7 -->
<g id="Node000007" class="node">
<title>Node7</title>
<g id="a_Node000007"><a xlink:href="CCSDSUtils_8cpp.html#a6a4f98ed870a1cf55c943c9ace54a0cf" target="_top" xlink:title="Generates a string of spaces for formatting binary outputs.">
<polygon fill="white" stroke="#666666" points="591,-436 505,-436 505,-417 591,-417 591,-436"/>
<text text-anchor="middle" x="548" y="-424" font-family="Helvetica,sans-Serif" font-size="10.00">getBitsSpaces</text>
</a>
</g>
</g>
<!-- Node5&#45;&gt;Node7 -->
<g id="edge6_Node000005_Node000007" class="edge">
<title>Node5&#45;&gt;Node7</title>
<g id="a_edge6_Node000005_Node000007"><a xlink:title=" ">
<path fill="none" stroke="#63b8ff" d="M364.76,-476.07C379.02,-473.09 396.12,-468.89 411,-463.5 427.82,-457.41 430.05,-451.22 447,-445.5 462.24,-440.35 479.3,-436.46 494.94,-433.59"/>
<polygon fill="#63b8ff" stroke="#63b8ff" points="495.73,-437 504.98,-431.84 494.53,-430.1 495.73,-437"/>
</a>
</g>
</g>
<!-- Node8 -->
<g id="Node000008" class="node">
<title>Node8</title>
<g id="a_Node000008"><a xlink:href="classCCSDS_1_1DataField.html#a586f18dcf878e68efd197994e95c6895" target="_top" xlink:title="Retrieves the secondary header data as a vector of bytes.">
<polygon fill="white" stroke="#666666" points="621.5,-606.5 474.5,-606.5 474.5,-576.5 621.5,-576.5 621.5,-606.5"/>
<text text-anchor="start" x="482.5" y="-594.5" font-family="Helvetica,sans-Serif" font-size="10.00">CCSDS::DataField::getData</text>
<text text-anchor="middle" x="548" y="-583.5" font-family="Helvetica,sans-Serif" font-size="10.00">FieldHeaderBytes</text>
</a>
</g>
</g>
<!-- Node5&#45;&gt;Node8 -->
<g id="edge7_Node000005_Node000008" class="edge">
<title>Node5&#45;&gt;Node8</title>
<g id="a_edge7_Node000005_Node000008"><a xlink:title=" ">
<path fill="none" stroke="#63b8ff" d="M364.6,-483.25C379.82,-485.46 397.82,-490.26 411,-500.5 437.69,-521.24 420.23,-546.86 447,-567.5 452.42,-571.67 458.45,-575.14 464.79,-578.01"/>
<polygon fill="#63b8ff" stroke="#63b8ff" points="463.69,-581.34 474.28,-581.8 466.29,-574.84 463.69,-581.34"/>
</a>
</g>
</g>
<!-- Node9 -->
<g id="Node000009" class="node">
<title>Node9</title>
<g id="a_Node000009"><a xlink:href="classCCSDS_1_1DataField.html#a78c2894fc2650e0dc9ec892d58dfde7a" target="_top" xlink:title="retrieves true if a known secondary header has been set">
<polygon fill="white" stroke="#666666" points="621.5,-558.5 474.5,-558.5 474.5,-528.5 621.5,-528.5 621.5,-558.5"/>
<text text-anchor="start" x="482.5" y="-546.5" font-family="Helvetica,sans-Serif" font-size="10.00">CCSDS::DataField::getData</text>
<text text-anchor="middle" x="548" y="-535.5" font-family="Helvetica,sans-Serif" font-size="10.00">FieldHeaderFlag</text>
</a>
</g>
</g>
<!-- Node5&#45;&gt;Node9 -->
<g id="edge8_Node000005_Node000009" class="edge">
<title>Node5&#45;&gt;Node9</title>
<g id="a_edge8_Node000005_Node000009"><a xlink:title=" ">
<path fill="none" stroke="#63b8ff" d="M364.81,-487.25C379.07,-490.41 396.17,-494.84 411,-500.5 427.9,-506.95 430.07,-513.12 447,-519.5 452.81,-521.69 458.89,-523.73 465.05,-525.62"/>
<polygon fill="#63b8ff" stroke="#63b8ff" points="464.21,-529.02 474.79,-528.46 466.17,-522.3 464.21,-529.02"/>
</a>
</g>
</g>
<!-- Node10 -->
<g id="Node000010" class="node">
<title>Node10</title>
<g id="a_Node000010"><a xlink:href="CCSDSUtils_8cpp.html#ac77b078f446e1e3842c118709505e87b" target="_top" xlink:title="Prints to console the HEX data from the bytes vector.">
<polygon fill="white" stroke="#666666" points="594,-510 502,-510 502,-491 594,-491 594,-510"/>
<text text-anchor="middle" x="548" y="-498" font-family="Helvetica,sans-Serif" font-size="10.00">printBufferData</text>
</a>
</g>
</g>
<!-- Node5&#45;&gt;Node10 -->
<g id="edge9_Node000005_Node000010" class="edge">
<title>Node5&#45;&gt;Node10</title>
<g id="a_edge9_Node000005_Node000010"><a xlink:title=" ">
<path fill="none" stroke="#63b8ff" d="M364.95,-484.22C397.95,-487.17 451.33,-491.95 491.77,-495.56"/>
<polygon fill="#63b8ff" stroke="#63b8ff" points="491.48,-499.05 501.76,-496.45 492.11,-492.08 491.48,-499.05"/>
</a>
</g>
</g>
<!-- Node12 -->
<g id="Node000012" class="node">
<title>Node12</title>
<g id="a_Node000012"><a xlink:href="classCCSDS_1_1Header.html#a2f4d97beaaaac5b2005b470ed14f228d" target="_top" xlink:title="Sets the header data from a 64&#45;bit integer representation.">
<polygon fill="white" stroke="#666666" points="408.5,-106 258.5,-106 258.5,-87 408.5,-87 408.5,-106"/>
<text text-anchor="middle" x="333.5" y="-94" font-family="Helvetica,sans-Serif" font-size="10.00">CCSDS::Header::deserialize</text>
</a>
</g>
</g>
<!-- Node11&#45;&gt;Node12 -->
<g id="edge11_Node000011_Node000012" class="edge">
<title>Node11&#45;&gt;Node12</title>
<g id="a_edge11_Node000011_Node000012"><a xlink:title=" ">
<path fill="none" stroke="#63b8ff" d="M175.78,-230.83C204.12,-206.54 278.5,-142.79 313.62,-112.68"/>
<polygon fill="#63b8ff" stroke="#63b8ff" points="315.95,-115.3 321.27,-106.13 311.39,-109.98 315.95,-115.3"/>
</a>
</g>
</g>
<!-- Node14 -->
<g id="Node000014" class="node">
<title>Node14</title>
<g id="a_Node000014"><a xlink:href="CCSDSUtils_8cpp.html#a993788a78365e86ff065ba8bedff543a" target="_top" xlink:title="Prints the header fields and their binary or hexadecimal representations.">
<polygon fill="white" stroke="#666666" points="370.5,-250 296.5,-250 296.5,-231 370.5,-231 370.5,-250"/>
<text text-anchor="middle" x="333.5" y="-238" font-family="Helvetica,sans-Serif" font-size="10.00">printHeader</text>
</a>
</g>
</g>
<!-- Node11&#45;&gt;Node14 -->
<g id="edge13_Node000011_Node000014" class="edge">
<title>Node11&#45;&gt;Node14</title>
<g id="a_edge13_Node000011_Node000014"><a xlink:title=" ">
<path fill="none" stroke="#63b8ff" d="M220.44,-240.5C241.74,-240.5 265.75,-240.5 286.07,-240.5"/>
<polygon fill="#63b8ff" stroke="#63b8ff" points="286.33,-244 296.33,-240.5 286.33,-237 286.33,-244"/>
</a>
</g>
</g>
<!-- Node13 -->
<g id="Node000013" class="node">
<title>Node13</title>
<g id="a_Node000013"><a xlink:href="classCCSDS_1_1Header.html#aad717b39dda3dff19adb10e3c7e38100" target="_top" xlink:title="Sets the header data from a 64&#45;bit integer representation.">
<polygon fill="white" stroke="#666666" points="615.5,-19 480.5,-19 480.5,0 615.5,0 615.5,-19"/>
<text text-anchor="middle" x="548" y="-7" font-family="Helvetica,sans-Serif" font-size="10.00">CCSDS::Header::setData</text>
</a>
</g>
</g>
<!-- Node12&#45;&gt;Node13 -->
<g id="edge12_Node000012_Node000013" class="edge">
<title>Node12&#45;&gt;Node13</title>
<g id="a_edge12_Node000012_Node000013"><a xlink:title=" ">
<path fill="none" stroke="#63b8ff" d="M346.89,-86.95C366.82,-72.08 407.78,-43.52 447,-28.5 454.51,-25.62 462.51,-23.17 470.58,-21.08"/>
<polygon fill="#63b8ff" stroke="#63b8ff" points="471.55,-24.45 480.45,-18.71 469.91,-17.64 471.55,-24.45"/>
</a>
</g>
</g>
<!-- Node14&#45;&gt;Node7 -->
<g id="edge16_Node000014_Node000007" class="edge">
<title>Node14&#45;&gt;Node7</title>
<g id="a_edge16_Node000014_Node000007"><a xlink:title=" ">
<path fill="none" stroke="#63b8ff" d="M337.81,-250.07C348.44,-279.28 384.73,-367.75 447,-408.5 461.06,-417.7 478.5,-422.54 494.85,-425"/>
<polygon fill="#63b8ff" stroke="#63b8ff" points="494.5,-428.49 504.86,-426.24 495.36,-421.54 494.5,-428.49"/>
</a>
</g>
</g>
<!-- Node15 -->
<g id="Node000015" class="node">
<title>Node15</title>
<g id="a_Node000015"><a xlink:href="classCCSDS_1_1Header.html#a3b171a18bfed281cfa837f349f7cc264" target="_top" xlink:title="11 bits">
<polygon fill="white" stroke="#666666" points="616,-142 480,-142 480,-123 616,-123 616,-142"/>
<text text-anchor="middle" x="548" y="-130" font-family="Helvetica,sans-Serif" font-size="10.00">CCSDS::Header::getAPID</text>
</a>
</g>
</g>
<!-- Node14&#45;&gt;Node15 -->
<g id="edge14_Node000014_Node000015" class="edge">
<title>Node14&#45;&gt;Node15</title>
<g id="a_edge14_Node000014_Node000015"><a xlink:title=" ">
<path fill="none" stroke="#63b8ff" d="M343.37,-230.9C361.11,-212.34 403.05,-171.58 447,-151.5 454.31,-148.16 462.19,-145.41 470.19,-143.14"/>
<polygon fill="#63b8ff" stroke="#63b8ff" points="471.18,-146.49 479.98,-140.6 469.43,-139.72 471.18,-146.49"/>
</a>
</g>
</g>
<!-- Node16 -->
<g id="Node000016" class="node">
<title>Node16</title>
<g id="a_Node000016"><a xlink:href="CCSDSUtils_8cpp.html#a1b76edce6a353d6dabf826e662d5f50c" target="_top" xlink:title="Converts a given value to its binary representation as a string, with spaces every 4 bits.">
<polygon fill="white" stroke="#666666" points="594,-105 502,-105 502,-86 594,-86 594,-105"/>
<text text-anchor="middle" x="548" y="-93" font-family="Helvetica,sans-Serif" font-size="10.00">getBinaryString</text>
</a>
</g>
</g>
<!-- Node14&#45;&gt;Node16 -->
<g id="edge15_Node000014_Node000016" class="edge">
<title>Node14&#45;&gt;Node16</title>
<g id="a_edge15_Node000014_Node000016"><a xlink:title=" ">
<path fill="none" stroke="#63b8ff" d="M340.09,-230.66C354.41,-206.48 394.93,-143.96 447,-114.5 460.43,-106.9 476.34,-102.27 491.47,-99.48"/>
<polygon fill="#63b8ff" stroke="#63b8ff" points="492.46,-102.86 501.78,-97.82 491.35,-95.95 492.46,-102.86"/>
</a>
</g>
</g>
<!-- Node17 -->
<g id="Node000017" class="node">
<title>Node17</title>
<g id="a_Node000017"><a xlink:href="classCCSDS_1_1Header.html#a836aab2a197579a57a7901071075f685" target="_top" xlink:title="1 bits">
<polygon fill="white" stroke="#666666" points="627.5,-67.5 468.5,-67.5 468.5,-37.5 627.5,-37.5 627.5,-67.5"/>
<text text-anchor="start" x="476.5" y="-55.5" font-family="Helvetica,sans-Serif" font-size="10.00">CCSDS::Header::getDataField</text>
<text text-anchor="middle" x="548" y="-44.5" font-family="Helvetica,sans-Serif" font-size="10.00">HeaderFlag</text>
</a>
</g>
</g>
<!-- Node14&#45;&gt;Node17 -->
<g id="edge17_Node000014_Node000017" class="edge">
<title>Node14&#45;&gt;Node17</title>
<g id="a_edge17_Node000014_Node000017"><a xlink:title=" ">
<path fill="none" stroke="#63b8ff" d="M339.89,-230.92C357.92,-199.21 416.62,-98.55 447,-77.5 450.78,-74.88 454.82,-72.53 459.01,-70.43"/>
<polygon fill="#63b8ff" stroke="#63b8ff" points="460.73,-73.5 468.42,-66.21 457.86,-67.11 460.73,-73.5"/>
</a>
</g>
</g>
<!-- Node18 -->
<g id="Node000018" class="node">
<title>Node18</title>
<g id="a_Node000018"><a xlink:href="classCCSDS_1_1Header.html#a9c2ac8f4b16874076de742cb19833bd7" target="_top" xlink:title="16 bits">
<polygon fill="white" stroke="#666666" points="632.5,-399 463.5,-399 463.5,-380 632.5,-380 632.5,-399"/>
<text text-anchor="middle" x="548" y="-387" font-family="Helvetica,sans-Serif" font-size="10.00">CCSDS::Header::getDataLength</text>
</a>
</g>
</g>
<!-- Node14&#45;&gt;Node18 -->
<g id="edge18_Node000014_Node000018" class="edge">
<title>Node14&#45;&gt;Node18</title>
<g id="a_edge18_Node000014_Node000018"><a xlink:title=" ">
<path fill="none" stroke="#63b8ff" d="M339.56,-250.03C353.21,-274.7 393.4,-340.83 447,-371.5 450.08,-373.26 453.29,-374.86 456.6,-376.3"/>
<polygon fill="#63b8ff" stroke="#63b8ff" points="455.54,-379.65 466.13,-379.99 458.06,-373.12 455.54,-379.65"/>
</a>
</g>
</g>
<!-- Node19 -->
<g id="Node000019" class="node">
<title>Node19</title>
<g id="a_Node000019"><a xlink:href="classCCSDS_1_1Header.html#af1ae6079606846982ff0552a2d684a1b" target="_top" xlink:title="Computes and retrieves the full header as a 64&#45;bit value.">
<polygon fill="white" stroke="#666666" points="630.5,-362 465.5,-362 465.5,-343 630.5,-343 630.5,-362"/>
<text text-anchor="middle" x="548" y="-350" font-family="Helvetica,sans-Serif" font-size="10.00">CCSDS::Header::getFullHeader</text>
</a>
</g>
</g>
<!-- Node14&#45;&gt;Node19 -->
<g id="edge19_Node000014_Node000019" class="edge">
<title>Node14&#45;&gt;Node19</title>
<g id="a_edge19_Node000014_Node000019"><a xlink:title=" ">
<path fill="none" stroke="#63b8ff" d="M343,-250.25C360.41,-269.52 402.28,-312.48 447,-333.5 452.33,-336 457.96,-338.18 463.73,-340.06"/>
<polygon fill="#63b8ff" stroke="#63b8ff" points="462.96,-343.49 473.55,-342.98 464.96,-336.78 462.96,-343.49"/>
</a>
</g>
</g>
<!-- Node20 -->
<g id="Node000020" class="node">
<title>Node20</title>
<g id="a_Node000020"><a xlink:href="classCCSDS_1_1Header.html#a8847364755456604a86e894a950f81c6" target="_top" xlink:title="14 bits">
<polygon fill="white" stroke="#666666" points="628,-324.5 468,-324.5 468,-294.5 628,-294.5 628,-324.5"/>
<text text-anchor="start" x="476" y="-312.5" font-family="Helvetica,sans-Serif" font-size="10.00">CCSDS::Header::getSequence</text>
<text text-anchor="middle" x="548" y="-301.5" font-family="Helvetica,sans-Serif" font-size="10.00">Count</text>
</a>
</g>
</g>
<!-- Node14&#45;&gt;Node20 -->
<g id="edge20_Node000014_Node000020" class="edge">
<title>Node14&#45;&gt;Node20</title>
<g id="a_edge20_Node000014_Node000020"><a xlink:title=" ">
<path fill="none" stroke="#63b8ff" d="M355.73,-250.07C378.1,-259.89 414.53,-275.17 447,-285.5 454.04,-287.74 461.41,-289.88 468.83,-291.9"/>
<polygon fill="#63b8ff" stroke="#63b8ff" points="468.03,-295.31 478.59,-294.48 469.82,-288.54 468.03,-295.31"/>
</a>
</g>
</g>
<!-- Node21 -->
<g id="Node000021" class="node">
<title>Node21</title>
<g id="a_Node000021"><a xlink:href="classCCSDS_1_1Header.html#a7aec7b479769c8348584cab4b9d1197b" target="_top" xlink:title="2 bits">
<polygon fill="white" stroke="#666666" points="628,-276.5 468,-276.5 468,-246.5 628,-246.5 628,-276.5"/>
<text text-anchor="start" x="476" y="-264.5" font-family="Helvetica,sans-Serif" font-size="10.00">CCSDS::Header::getSequence</text>
<text text-anchor="middle" x="548" y="-253.5" font-family="Helvetica,sans-Serif" font-size="10.00">Flags</text>
</a>
</g>
</g>
<!-- Node14&#45;&gt;Node21 -->
<g id="edge21_Node000014_Node000021" class="edge">
<title>Node14&#45;&gt;Node21</title>
<g id="a_edge21_Node000014_Node000021"><a xlink:title=" ">
<path fill="none" stroke="#63b8ff" d="M370.55,-244.06C394.48,-246.43 427.03,-249.64 457.65,-252.67"/>
<polygon fill="#63b8ff" stroke="#63b8ff" points="457.65,-256.19 467.94,-253.69 458.33,-249.22 457.65,-256.19"/>
</a>
</g>
</g>
<!-- Node22 -->
<g id="Node000022" class="node">
<title>Node22</title>
<g id="a_Node000022"><a xlink:href="classCCSDS_1_1Header.html#a6ac965b4a0dd459bb41e78225a376b18" target="_top" xlink:title="1 bits">
<polygon fill="white" stroke="#666666" points="615.5,-228 480.5,-228 480.5,-209 615.5,-209 615.5,-228"/>
<text text-anchor="middle" x="548" y="-216" font-family="Helvetica,sans-Serif" font-size="10.00">CCSDS::Header::getType</text>
</a>
</g>
</g>
<!-- Node14&#45;&gt;Node22 -->
<g id="edge22_Node000014_Node000022" class="edge">
<title>Node14&#45;&gt;Node22</title>
<g id="a_edge22_Node000014_Node000022"><a xlink:title=" ">
<path fill="none" stroke="#63b8ff" d="M370.55,-236.77C397.7,-233.96 435.92,-230 469.85,-226.49"/>
<polygon fill="#63b8ff" stroke="#63b8ff" points="470.64,-229.92 480.22,-225.41 469.91,-222.96 470.64,-229.92"/>
</a>
</g>
</g>
<!-- Node23 -->
<g id="Node000023" class="node">
<title>Node23</title>
<g id="a_Node000023"><a xlink:href="classCCSDS_1_1Header.html#a2e77e7032a48a692bb8dd0754ecccdc5" target="_top" xlink:title="3 bits">
<polygon fill="white" stroke="#666666" points="622.5,-190.5 473.5,-190.5 473.5,-160.5 622.5,-160.5 622.5,-190.5"/>
<text text-anchor="start" x="481.5" y="-178.5" font-family="Helvetica,sans-Serif" font-size="10.00">CCSDS::Header::getVersion</text>
<text text-anchor="middle" x="548" y="-167.5" font-family="Helvetica,sans-Serif" font-size="10.00">Number</text>
</a>
</g>
</g>
<!-- Node14&#45;&gt;Node23 -->
<g id="edge23_Node000014_Node000023" class="edge">
<title>Node14&#45;&gt;Node23</title>
<g id="a_edge23_Node000014_Node000023"><a xlink:title=" ">
<path fill="none" stroke="#63b8ff" d="M359.29,-230.91C381.94,-222.33 416.44,-209.73 447,-200.5 455.4,-197.96 464.25,-195.48 473.08,-193.12"/>
<polygon fill="#63b8ff" stroke="#63b8ff" points="474.21,-196.44 483,-190.52 472.44,-189.67 474.21,-196.44"/>
</a>
</g>
</g>
</g>
</svg>

<g id="navigator" transform="translate(0 0)" fill="#404254">
  <rect fill="#f2f5e9" fill-opacity="0.5" stroke="#606060" stroke-width=".5" x="0" y="0" width="60" height="60"/>
  <use id="zoomplus" xlink:href="#zoomPlus" x="17" y="9" onmousedown="handleZoom(evt,'in')"/>
  <use id="zoomminus" xlink:href="#zoomMin" x="42" y="9" onmousedown="handleZoom(evt,'out')"/>
  <use id="reset" xlink:href="#resetDef" x="30" y="36" onmousedown="handleReset()"/>
   <use id="arrowup" xlink:href="#arrowUp" x="0" y="0" onmousedown="handlePan(0,-1)"/>
  <use id="arrowright" xlink:href="#arrowRight" x="0" y="0" onmousedown="handlePan(1,0)"/>
  <use id="arrowdown" xlink:href="#arrowDown" x="0" y="0" onmousedown="handlePan(0,1)"/>
  <use id="arrowleft" xlink:href="#arrowLeft" x="0" y="0" onmousedown="handlePan(-1,0)"/>
</g>
<svg viewBox="0 0 15 15" width="100%" height="30px" preserveAspectRatio="xMaxYMin meet">
 <g id="arrow_out" transform="scale(0.3 0.3)">
  <a xlink:href="CCSDSUtils_8cpp_a2e40e3867139b28c1b2fa0465c3afd7e_cgraph_org.svg" target="_base">
   <rect id="button" ry="5" rx="5" y="6" x="6" height="38" width="38"
        fill="#f2f5e9" fill-opacity="0.5" stroke="#606060" stroke-width="1.0"/>
   <path id="arrow"
     d="M 11.500037,31.436501 C 11.940474,20.09759 22.043105,11.32322 32.158766,21.979434 L 37.068811,17.246167 C 37.068811,17.246167 37.088388,32 37.088388,32 L 22.160133,31.978069 C 22.160133,31.978069 26.997745,27.140456 26.997745,27.140456 C 18.528582,18.264221 13.291696,25.230495 11.500037,31.436501 z"
     style="fill:#404040;"/>
  </a>
 </g>
</svg>

<style type='text/css'>
<![CDATA[
[data-mouse-over-selected='false'] { opacity: 0.7; }
[data-mouse-over-selected='true']  { opacity: 1.0; }
]]>
</style>
<script type="application/ecmascript"><![CDATA[
document.addEventListener('DOMContentLoaded', (event) => {
  highlightEdges();
  highlightAdjacentNodes();
});
]]></script>
</svg>
