<?xml version="1.0" encoding="UTF-8" standalone="no"?>
<!DOCTYPE svg PUBLIC "-//W3C//DTD SVG 1.1//EN"
 "http://www.w3.org/Graphics/SVG/1.1/DTD/svg11.dtd">
<!-- Generated by graphviz version 2.43.0 (0)
 -->
<!-- Title: CCSDS::DataField::serialize Pages: 1 -->
<svg width="340pt" height="76pt"
 viewBox="0.00 0.00 340.00 75.50" xmlns="http://www.w3.org/2000/svg" xmlns:xlink="http://www.w3.org/1999/xlink">
<g id="graph0" class="graph" transform="scale(1 1) rotate(0) translate(4 71.5)">
<title>CCSDS::DataField::serialize</title>
<!-- Node1 -->
<g id="Node000001" class="node">
<title>Node1</title>
<g id="a_Node000001"><a xlink:title="Retrieves the full data field by combining the data field header and application data.">
<polygon fill="#999999" stroke="#666666" points="149,-40 0,-40 0,-21 149,-21 149,-40"/>
<text text-anchor="middle" x="74.5" y="-28" font-family="Helvetica,sans-Serif" font-size="10.00">CCSDS::DataField::serialize</text>
</a>
</g>
</g>
<!-- Node2 -->
<g id="Node000002" class="node">
<title>Node2</title>
<g id="a_Node000002"><a xlink:href="classCCSDS_1_1DataField.html#ac414a4c6ffe4d3cce1c225833e550a1f" target="_top" xlink:title="Retrieves the secondary header data as a vector of bytes.">
<polygon fill="white" stroke="#666666" points="332,-67.5 185,-67.5 185,-37.5 332,-37.5 332,-67.5"/>
<text text-anchor="start" x="193" y="-55.5" font-family="Helvetica,sans-Serif" font-size="10.00">CCSDS::DataField::getData</text>
<text text-anchor="middle" x="258.5" y="-44.5" font-family="Helvetica,sans-Serif" font-size="10.00">FieldHeaderBytes</text>
</a>
</g>
</g>
<!-- Node1&#45;&gt;Node2 -->
<g id="edge1_Node000001_Node000002" class="edge">
<title>Node1&#45;&gt;Node2</title>
<g id="a_edge1_Node000001_Node000002"><a xlink:title=" ">
<path fill="none" stroke="#63b8ff" d="M149,-39.38C157.51,-40.41 166.23,-41.47 174.85,-42.51"/>
<polygon fill="#63b8ff" stroke="#63b8ff" points="174.56,-46 184.91,-43.73 175.4,-39.05 174.56,-46"/>
</a>
</g>
</g>
<!-- Node3 -->
<g id="Node000003" class="node">
<title>Node3</title>
<g id="a_Node000003"><a xlink:href="classCCSDS_1_1DataField.html#abb4b5de3d4ee71281ead402cdf5055d4" target="_top" xlink:title="Updates the data field header based on the current application data size.">
<polygon fill="white" stroke="#666666" points="329.5,-19 187.5,-19 187.5,0 329.5,0 329.5,-19"/>
<text text-anchor="middle" x="258.5" y="-7" font-family="Helvetica,sans-Serif" font-size="10.00">CCSDS::DataField::update</text>
</a>
</g>
</g>
<!-- Node1&#45;&gt;Node3 -->
<g id="edge2_Node000001_Node000003" class="edge">
<title>Node1&#45;&gt;Node3</title>
<g id="a_edge2_Node000001_Node000003"><a xlink:title=" ">
<path fill="none" stroke="#63b8ff" d="M149,-22.02C158.28,-20.95 167.8,-19.85 177.17,-18.77"/>
<polygon fill="#63b8ff" stroke="#63b8ff" points="177.73,-22.23 187.26,-17.6 176.93,-15.27 177.73,-22.23"/>
</a>
</g>
</g>
</g>
</svg>
