<?xml version="1.0" encoding="UTF-8" standalone="no"?>
<!DOCTYPE svg PUBLIC "-//W3C//DTD SVG 1.1//EN"
 "http://www.w3.org/Graphics/SVG/1.1/DTD/svg11.dtd">
<!-- Generated by graphviz version 2.43.0 (0)
 -->
<!-- Title: CCSDS::Header::setData Pages: 1 -->
<svg width="861pt" height="114pt"
 viewBox="0.00 0.00 861.00 113.50" xmlns="http://www.w3.org/2000/svg" xmlns:xlink="http://www.w3.org/1999/xlink">
<g id="graph0" class="graph" transform="scale(1 1) rotate(0) translate(4 109.5)">
<title>CCSDS::Header::setData</title>
<!-- Node1 -->
<g id="Node000001" class="node">
<title>Node1</title>
<g id="a_Node000001"><a xlink:title="Sets the header data from a 64&#45;bit integer representation.">
<polygon fill="#999999" stroke="#666666" points="853,-46.5 718,-46.5 718,-27.5 853,-27.5 853,-46.5"/>
<text text-anchor="middle" x="785.5" y="-34.5" font-family="Helvetica,sans-Serif" font-size="10.00">CCSDS::Header::setData</text>
</a>
</g>
</g>
<!-- Node2 -->
<g id="Node000002" class="node">
<title>Node2</title>
<g id="a_Node000002"><a xlink:href="classCCSDS_1_1Header.html#a2f4d97beaaaac5b2005b470ed14f228d" target="_top" xlink:title="Sets the header data from a 64&#45;bit integer representation.">
<polygon fill="white" stroke="#666666" points="682,-67.5 532,-67.5 532,-48.5 682,-48.5 682,-67.5"/>
<text text-anchor="middle" x="607" y="-55.5" font-family="Helvetica,sans-Serif" font-size="10.00">CCSDS::Header::deserialize</text>
</a>
</g>
</g>
<!-- Node1&#45;&gt;Node2 -->
<g id="edge1_Node000001_Node000002" class="edge">
<title>Node1&#45;&gt;Node2</title>
<g id="a_edge1_Node000001_Node000002"><a xlink:title=" ">
<path fill="none" stroke="#63b8ff" d="M707.59,-46.15C699.16,-47.15 690.6,-48.17 682.21,-49.17"/>
<polygon fill="#63b8ff" stroke="#63b8ff" points="708.26,-49.6 717.77,-44.94 707.43,-42.65 708.26,-49.6"/>
</a>
</g>
</g>
<!-- Node8 -->
<g id="Node000008" class="node">
<title>Node8</title>
<g id="a_Node000008"><a xlink:href="classCCSDS_1_1Packet.html#ab0ea5b4bdce0b2ac00f10d22f22aaa91" target="_top" xlink:title="Sets the primary header using the provided PrimaryHeader object.">
<polygon fill="white" stroke="#666666" points="335,-30 189,-30 189,0 335,0 335,-30"/>
<text text-anchor="start" x="197" y="-18" font-family="Helvetica,sans-Serif" font-size="10.00">CCSDS::Packet::setPrimary</text>
<text text-anchor="middle" x="262" y="-7" font-family="Helvetica,sans-Serif" font-size="10.00">Header</text>
</a>
</g>
</g>
<!-- Node1&#45;&gt;Node8 -->
<g id="edge8_Node000001_Node000008" class="edge">
<title>Node1&#45;&gt;Node8</title>
<g id="a_edge8_Node000001_Node000008"><a xlink:title=" ">
<path fill="none" stroke="#63b8ff" d="M707.86,-33.77C607.54,-29.53 433.01,-22.17 335.03,-18.04"/>
<polygon fill="#63b8ff" stroke="#63b8ff" points="707.78,-37.27 717.92,-34.19 708.08,-30.27 707.78,-37.27"/>
</a>
</g>
</g>
<!-- Node3 -->
<g id="Node000003" class="node">
<title>Node3</title>
<g id="a_Node000003"><a xlink:href="classCCSDS_1_1Manager.html#a974f09b0a59fc6ed7083a467c1f7d67d" target="_top" xlink:title="Load a packet or a series of packets from a buffer.">
<polygon fill="white" stroke="#666666" points="496,-104.5 371,-104.5 371,-85.5 496,-85.5 496,-104.5"/>
<text text-anchor="middle" x="433.5" y="-92.5" font-family="Helvetica,sans-Serif" font-size="10.00">CCSDS::Manager::load</text>
</a>
</g>
</g>
<!-- Node2&#45;&gt;Node3 -->
<g id="edge2_Node000002_Node000003" class="edge">
<title>Node2&#45;&gt;Node3</title>
<g id="a_edge2_Node000002_Node000003"><a xlink:title=" ">
<path fill="none" stroke="#63b8ff" d="M551.99,-69.65C528.43,-74.73 501.15,-80.62 478.81,-85.44"/>
<polygon fill="#63b8ff" stroke="#63b8ff" points="552.8,-73.06 561.83,-67.53 551.32,-66.22 552.8,-73.06"/>
</a>
</g>
</g>
<!-- Node4 -->
<g id="Node000004" class="node">
<title>Node4</title>
<g id="a_Node000004"><a xlink:href="CCSDSUtils_8cpp.html#a3c45ef84a35555519e34164e000dada5" target="_top" xlink:title="Prints to console the primary header of a provided CCSDS packet.">
<polygon fill="white" stroke="#666666" points="490,-67.5 377,-67.5 377,-48.5 490,-48.5 490,-67.5"/>
<text text-anchor="middle" x="433.5" y="-55.5" font-family="Helvetica,sans-Serif" font-size="10.00">printPrimaryHeader</text>
</a>
</g>
</g>
<!-- Node2&#45;&gt;Node4 -->
<g id="edge3_Node000002_Node000004" class="edge">
<title>Node2&#45;&gt;Node4</title>
<g id="a_edge3_Node000002_Node000004"><a xlink:title=" ">
<path fill="none" stroke="#63b8ff" d="M521.59,-58C510.94,-58 500.27,-58 490.22,-58"/>
<polygon fill="#63b8ff" stroke="#63b8ff" points="521.78,-61.5 531.78,-58 521.78,-54.5 521.78,-61.5"/>
</a>
</g>
</g>
<!-- Node5 -->
<g id="Node000005" class="node">
<title>Node5</title>
<g id="a_Node000005"><a xlink:href="CCSDSUtils_8cpp.html#a2e40e3867139b28c1b2fa0465c3afd7e" target="_top" xlink:title="Prints to console a CCSDS Packets, breaking it down to Primary header and Data field.">
<polygon fill="white" stroke="#666666" points="297.5,-105.5 226.5,-105.5 226.5,-86.5 297.5,-86.5 297.5,-105.5"/>
<text text-anchor="middle" x="262" y="-93.5" font-family="Helvetica,sans-Serif" font-size="10.00">printPacket</text>
</a>
</g>
</g>
<!-- Node4&#45;&gt;Node5 -->
<g id="edge4_Node000004_Node000005" class="edge">
<title>Node4&#45;&gt;Node5</title>
<g id="a_edge4_Node000004_Node000005"><a xlink:title=" ">
<path fill="none" stroke="#63b8ff" d="M379.76,-69.82C353.06,-75.81 321.39,-82.91 297.77,-88.2"/>
<polygon fill="#63b8ff" stroke="#63b8ff" points="380.74,-73.19 389.73,-67.59 379.2,-66.36 380.74,-73.19"/>
</a>
</g>
</g>
<!-- Node6 -->
<g id="Node000006" class="node">
<title>Node6</title>
<g id="a_Node000006"><a xlink:href="CCSDSUtils_8cpp.html#ad200055b4cb44dddba0ced16faee7d69" target="_top" xlink:title="Prints to console a series of CCSDS Packets contained in the manager.">
<polygon fill="white" stroke="#666666" points="153,-67.5 77,-67.5 77,-48.5 153,-48.5 153,-67.5"/>
<text text-anchor="middle" x="115" y="-55.5" font-family="Helvetica,sans-Serif" font-size="10.00">printPackets</text>
</a>
</g>
</g>
<!-- Node4&#45;&gt;Node6 -->
<g id="edge7_Node000004_Node000006" class="edge">
<title>Node4&#45;&gt;Node6</title>
<g id="a_edge7_Node000004_Node000006"><a xlink:title=" ">
<path fill="none" stroke="#63b8ff" d="M366.54,-58C301.78,-58 205.34,-58 153.01,-58"/>
<polygon fill="#63b8ff" stroke="#63b8ff" points="366.64,-61.5 376.64,-58 366.64,-54.5 366.64,-61.5"/>
</a>
</g>
</g>
<!-- Node5&#45;&gt;Node6 -->
<g id="edge5_Node000005_Node000006" class="edge">
<title>Node5&#45;&gt;Node6</title>
<g id="a_edge5_Node000005_Node000006"><a xlink:title=" ">
<path fill="none" stroke="#63b8ff" d="M216.51,-84.34C195.98,-78.96 171.91,-72.65 152.47,-67.56"/>
<polygon fill="#63b8ff" stroke="#63b8ff" points="215.71,-87.75 226.27,-86.9 217.48,-80.98 215.71,-87.75"/>
</a>
</g>
</g>
<!-- Node7 -->
<g id="Node000007" class="node">
<title>Node7</title>
<g id="a_Node000007"><a xlink:href="exec__decoder_8cpp.html#a638b85ceffac097c2aa79b76ba8c055e" target="_top" xlink:title=" ">
<polygon fill="white" stroke="#666666" points="41,-46.5 0,-46.5 0,-27.5 41,-27.5 41,-46.5"/>
<text text-anchor="middle" x="20.5" y="-34.5" font-family="Helvetica,sans-Serif" font-size="10.00">main</text>
</a>
</g>
</g>
<!-- Node6&#45;&gt;Node7 -->
<g id="edge6_Node000006_Node000007" class="edge">
<title>Node6&#45;&gt;Node7</title>
<g id="a_edge6_Node000006_Node000007"><a xlink:title=" ">
<path fill="none" stroke="#63b8ff" d="M67.02,-47.33C57.85,-45.25 48.72,-43.18 41.07,-41.44"/>
<polygon fill="#63b8ff" stroke="#63b8ff" points="66.38,-50.78 76.91,-49.58 67.93,-43.95 66.38,-50.78"/>
</a>
</g>
</g>
<!-- Node8&#45;&gt;Node7 -->
<g id="edge9_Node000008_Node000007" class="edge">
<title>Node8&#45;&gt;Node7</title>
<g id="a_edge9_Node000008_Node000007"><a xlink:title=" ">
<path fill="none" stroke="#63b8ff" d="M178.8,-22.55C129.65,-27.07 71.11,-32.44 41.21,-35.19"/>
<polygon fill="#63b8ff" stroke="#63b8ff" points="179.18,-26.03 188.82,-21.63 178.54,-19.06 179.18,-26.03"/>
</a>
</g>
</g>
</g>
</svg>
