<?xml version="1.0" encoding="UTF-8" standalone="no"?>
<!DOCTYPE svg PUBLIC "-//W3C//DTD SVG 1.1//EN"
 "http://www.w3.org/Graphics/SVG/1.1/DTD/svg11.dtd">
<!-- Generated by graphviz version 2.43.0 (0)
 -->
<!-- Title: Config::load Pages: 1 -->
<svg width="512pt" height="92pt"
 viewBox="0.00 0.00 512.00 91.50" xmlns="http://www.w3.org/2000/svg" xmlns:xlink="http://www.w3.org/1999/xlink">
<g id="graph0" class="graph" transform="scale(1 1) rotate(0) translate(4 87.5)">
<title>Config::load</title>
<!-- Node1 -->
<g id="Node000001" class="node">
<title>Node1</title>
<g id="a_Node000001"><a xlink:title="Load config file.">
<polygon fill="#999999" stroke="#666666" points="504,-37 430,-37 430,-18 504,-18 504,-37"/>
<text text-anchor="middle" x="467" y="-25" font-family="Helvetica,sans-Serif" font-size="10.00">Config::load</text>
</a>
</g>
</g>
<!-- Node2 -->
<g id="Node000002" class="node">
<title>Node2</title>
<g id="a_Node000002"><a xlink:href="classCCSDS_1_1Packet.html#a9ba3b255c1cd19b48a11dba5fc8819ff" target="_top" xlink:title="Loads a packet from a configuration file, including secondary header if present.">
<polygon fill="white" stroke="#666666" points="394,-56 207,-56 207,-37 394,-37 394,-56"/>
<text text-anchor="middle" x="300.5" y="-44" font-family="Helvetica,sans-Serif" font-size="10.00">CCSDS::Packet::loadFromConfigFile</text>
</a>
</g>
</g>
<!-- Node1&#45;&gt;Node2 -->
<g id="edge1_Node000001_Node000002" class="edge">
<title>Node1&#45;&gt;Node2</title>
<g id="a_edge1_Node000001_Node000002"><a xlink:title=" ">
<path fill="none" stroke="#63b8ff" d="M419.94,-32.82C408.73,-34.12 396.39,-35.54 384.04,-36.97"/>
<polygon fill="#63b8ff" stroke="#63b8ff" points="420.37,-36.29 429.9,-31.67 419.56,-29.34 420.37,-36.29"/>
</a>
</g>
</g>
<!-- Node5 -->
<g id="Node000005" class="node">
<title>Node5</title>
<g id="a_Node000005"><a xlink:href="exec__decoder_8cpp.html#a638b85ceffac097c2aa79b76ba8c055e" target="_top" xlink:title=" ">
<polygon fill="white" stroke="#666666" points="321,-19 280,-19 280,0 321,0 321,-19"/>
<text text-anchor="middle" x="300.5" y="-7" font-family="Helvetica,sans-Serif" font-size="10.00">main</text>
</a>
</g>
</g>
<!-- Node1&#45;&gt;Node5 -->
<g id="edge4_Node000001_Node000005" class="edge">
<title>Node1&#45;&gt;Node5</title>
<g id="a_edge4_Node000001_Node000005"><a xlink:title=" ">
<path fill="none" stroke="#63b8ff" d="M419.69,-22.43C387.14,-18.87 345.24,-14.29 321.07,-11.64"/>
<polygon fill="#63b8ff" stroke="#63b8ff" points="419.58,-25.94 429.9,-23.55 420.34,-18.98 419.58,-25.94"/>
</a>
</g>
</g>
<!-- Node3 -->
<g id="Node000003" class="node">
<title>Node3</title>
<g id="a_Node000003"><a xlink:href="classCCSDS_1_1Manager.html#a063eeb88f124db9af02bd033e95733b1" target="_top" xlink:title="Loads a template packet from a configuration file.">
<polygon fill="white" stroke="#666666" points="170.5,-83.5 0.5,-83.5 0.5,-53.5 170.5,-53.5 170.5,-83.5"/>
<text text-anchor="start" x="8.5" y="-71.5" font-family="Helvetica,sans-Serif" font-size="10.00">CCSDS::Manager::loadTemplate</text>
<text text-anchor="middle" x="85.5" y="-60.5" font-family="Helvetica,sans-Serif" font-size="10.00">ConfigFile</text>
</a>
</g>
</g>
<!-- Node2&#45;&gt;Node3 -->
<g id="edge2_Node000002_Node000003" class="edge">
<title>Node2&#45;&gt;Node3</title>
<g id="a_edge2_Node000002_Node000003"><a xlink:title=" ">
<path fill="none" stroke="#63b8ff" d="M197.31,-57.05C188.42,-57.97 179.49,-58.89 170.77,-59.8"/>
<polygon fill="#63b8ff" stroke="#63b8ff" points="197.73,-60.53 207.31,-56.02 197.01,-53.57 197.73,-60.53"/>
</a>
</g>
</g>
<!-- Node4 -->
<g id="Node000004" class="node">
<title>Node4</title>
<g id="a_Node000004"><a xlink:href="classCCSDS_1_1Manager.html#a44c3bccc78ccf59d9432935e43283342" target="_top" xlink:title="Load a template packet from a binary or configuration file.">
<polygon fill="white" stroke="#666666" points="171,-35 0,-35 0,-16 171,-16 171,-35"/>
<text text-anchor="middle" x="85.5" y="-23" font-family="Helvetica,sans-Serif" font-size="10.00">CCSDS::Manager::readTemplate</text>
</a>
</g>
</g>
<!-- Node2&#45;&gt;Node4 -->
<g id="edge3_Node000002_Node000004" class="edge">
<title>Node2&#45;&gt;Node4</title>
<g id="a_edge3_Node000002_Node000004"><a xlink:title=" ">
<path fill="none" stroke="#63b8ff" d="M196.72,-36.37C188.2,-35.53 179.65,-34.68 171.29,-33.86"/>
<polygon fill="#63b8ff" stroke="#63b8ff" points="196.4,-39.85 206.69,-37.35 197.09,-32.89 196.4,-39.85"/>
</a>
</g>
</g>
</g>
</svg>
