<?xml version="1.0" encoding="UTF-8" standalone="no"?>
<!DOCTYPE svg PUBLIC "-//W3C//DTD SVG 1.1//EN"
 "http://www.w3.org/Graphics/SVG/1.1/DTD/svg11.dtd">
<!-- Generated by graphviz version 2.43.0 (0)
 -->
<!-- Title: CCSDS::Packet::update Pages: 1 -->
<svg width="522pt" height="296pt"
 viewBox="0.00 0.00 522.00 295.50" xmlns="http://www.w3.org/2000/svg" xmlns:xlink="http://www.w3.org/1999/xlink">
<g id="graph0" class="graph" transform="scale(1 1) rotate(0) translate(4 291.5)">
<title>CCSDS::Packet::update</title>
<!-- Node1 -->
<g id="Node000001" class="node">
<title>Node1</title>
<g id="a_Node000001"><a xlink:title="Updates Primary headers data field size.">
<polygon fill="#999999" stroke="#666666" points="127,-153.5 0,-153.5 0,-134.5 127,-134.5 127,-153.5"/>
<text text-anchor="middle" x="63.5" y="-141.5" font-family="Helvetica,sans-Serif" font-size="10.00">CCSDS::Packet::update</text>
</a>
</g>
</g>
<!-- Node2 -->
<g id="Node000002" class="node">
<title>Node2</title>
<g id="a_Node000002"><a xlink:href="CCSDSUtils_8cpp.html#a097094565596dc2e631f96f52a402cb4" target="_top" xlink:title="Computes the CRC&#45;16 checksum for a given data vector with configurable parameters.">
<polygon fill="white" stroke="#666666" points="268.5,-287.5 225.5,-287.5 225.5,-268.5 268.5,-268.5 268.5,-287.5"/>
<text text-anchor="middle" x="247" y="-275.5" font-family="Helvetica,sans-Serif" font-size="10.00">crc16</text>
</a>
</g>
</g>
<!-- Node1&#45;&gt;Node2 -->
<g id="edge1_Node000001_Node000002" class="edge">
<title>Node1&#45;&gt;Node2</title>
<g id="a_edge1_Node000001_Node000002"><a xlink:title=" ">
<path fill="none" stroke="#63b8ff" d="M69.73,-153.52C82.5,-175.81 117.56,-231.53 163,-259 178.67,-268.47 198.61,-273.23 215.01,-275.61"/>
<polygon fill="#63b8ff" stroke="#63b8ff" points="214.85,-279.12 225.21,-276.86 215.71,-272.17 214.85,-279.12"/>
</a>
</g>
</g>
<!-- Node3 -->
<g id="Node000003" class="node">
<title>Node3</title>
<g id="a_Node000003"><a xlink:href="classCCSDS_1_1DataField.html#a78c2894fc2650e0dc9ec892d58dfde7a" target="_top" xlink:title="retrieves true if a known secondary header has been set">
<polygon fill="white" stroke="#666666" points="320.5,-250 173.5,-250 173.5,-220 320.5,-220 320.5,-250"/>
<text text-anchor="start" x="181.5" y="-238" font-family="Helvetica,sans-Serif" font-size="10.00">CCSDS::DataField::getData</text>
<text text-anchor="middle" x="247" y="-227" font-family="Helvetica,sans-Serif" font-size="10.00">FieldHeaderFlag</text>
</a>
</g>
</g>
<!-- Node1&#45;&gt;Node3 -->
<g id="edge2_Node000001_Node000003" class="edge">
<title>Node1&#45;&gt;Node3</title>
<g id="a_edge2_Node000001_Node000003"><a xlink:title=" ">
<path fill="none" stroke="#63b8ff" d="M75.89,-153.54C93.52,-167.88 128.93,-194.99 163,-211 167.08,-212.92 171.35,-214.72 175.7,-216.4"/>
<polygon fill="#63b8ff" stroke="#63b8ff" points="174.74,-219.77 185.33,-219.89 177.12,-213.19 174.74,-219.77"/>
</a>
</g>
</g>
<!-- Node4 -->
<g id="Node000004" class="node">
<title>Node4</title>
<g id="a_Node000004"><a xlink:href="classCCSDS_1_1Header.html#a8f92d94e9ebdac82669058c75188e770" target="_top" xlink:title="2 bits">
<polygon fill="white" stroke="#666666" points="327,-202 167,-202 167,-172 327,-172 327,-202"/>
<text text-anchor="start" x="175" y="-190" font-family="Helvetica,sans-Serif" font-size="10.00">CCSDS::Header::getSequence</text>
<text text-anchor="middle" x="247" y="-179" font-family="Helvetica,sans-Serif" font-size="10.00">Flags</text>
</a>
</g>
</g>
<!-- Node1&#45;&gt;Node4 -->
<g id="edge3_Node000001_Node000004" class="edge">
<title>Node1&#45;&gt;Node4</title>
<g id="a_edge3_Node000001_Node000004"><a xlink:title=" ">
<path fill="none" stroke="#63b8ff" d="M104.78,-153.54C124.79,-158.28 149.61,-164.16 172.83,-169.66"/>
<polygon fill="#63b8ff" stroke="#63b8ff" points="172.12,-173.09 182.66,-171.99 173.74,-166.28 172.12,-173.09"/>
</a>
</g>
</g>
<!-- Node5 -->
<g id="Node000005" class="node">
<title>Node5</title>
<g id="a_Node000005"><a xlink:href="classCCSDS_1_1DataField.html#a3fb3afd39a91c9dd20cd96348f77319b" target="_top" xlink:title="Retrieves the full data field by combining the data field header and application data.">
<polygon fill="white" stroke="#666666" points="321.5,-153.5 172.5,-153.5 172.5,-134.5 321.5,-134.5 321.5,-153.5"/>
<text text-anchor="middle" x="247" y="-141.5" font-family="Helvetica,sans-Serif" font-size="10.00">CCSDS::DataField::serialize</text>
</a>
</g>
</g>
<!-- Node1&#45;&gt;Node5 -->
<g id="edge4_Node000001_Node000005" class="edge">
<title>Node1&#45;&gt;Node5</title>
<g id="a_edge4_Node000001_Node000005"><a xlink:title=" ">
<path fill="none" stroke="#63b8ff" d="M127.22,-144C138.47,-144 150.36,-144 162.1,-144"/>
<polygon fill="#63b8ff" stroke="#63b8ff" points="162.35,-147.5 172.35,-144 162.35,-140.5 162.35,-147.5"/>
</a>
</g>
</g>
<!-- Node8 -->
<g id="Node000008" class="node">
<title>Node8</title>
<g id="a_Node000008"><a xlink:href="classCCSDS_1_1Header.html#a55e33af071cfb511fe9a1f4d4060fc4b" target="_top" xlink:title="1 bits">
<polygon fill="white" stroke="#666666" points="326,-116 168,-116 168,-86 326,-86 326,-116"/>
<text text-anchor="start" x="176" y="-104" font-family="Helvetica,sans-Serif" font-size="10.00">CCSDS::Header::setDataField</text>
<text text-anchor="middle" x="247" y="-93" font-family="Helvetica,sans-Serif" font-size="10.00">HeaderFlag</text>
</a>
</g>
</g>
<!-- Node1&#45;&gt;Node8 -->
<g id="edge7_Node000001_Node000008" class="edge">
<title>Node1&#45;&gt;Node8</title>
<g id="a_edge7_Node000001_Node000008"><a xlink:title=" ">
<path fill="none" stroke="#63b8ff" d="M104.78,-134.46C124.79,-129.72 149.61,-123.84 172.83,-118.34"/>
<polygon fill="#63b8ff" stroke="#63b8ff" points="173.74,-121.72 182.66,-116.01 172.12,-114.91 173.74,-121.72"/>
</a>
</g>
</g>
<!-- Node9 -->
<g id="Node000009" class="node">
<title>Node9</title>
<g id="a_Node000009"><a xlink:href="classCCSDS_1_1Header.html#a13f68943d42c8409a84b7c36f0883633" target="_top" xlink:title="16 bits">
<polygon fill="white" stroke="#666666" points="331,-67.5 163,-67.5 163,-48.5 331,-48.5 331,-67.5"/>
<text text-anchor="middle" x="247" y="-55.5" font-family="Helvetica,sans-Serif" font-size="10.00">CCSDS::Header::setDataLength</text>
</a>
</g>
</g>
<!-- Node1&#45;&gt;Node9 -->
<g id="edge8_Node000001_Node000009" class="edge">
<title>Node1&#45;&gt;Node9</title>
<g id="a_edge8_Node000001_Node000009"><a xlink:title=" ">
<path fill="none" stroke="#63b8ff" d="M75.5,-134.45C92.88,-119.86 128.31,-92.13 163,-77 168.78,-74.48 174.94,-72.27 181.19,-70.34"/>
<polygon fill="#63b8ff" stroke="#63b8ff" points="182.39,-73.64 191.04,-67.53 180.47,-66.91 182.39,-73.64"/>
</a>
</g>
</g>
<!-- Node10 -->
<g id="Node000010" class="node">
<title>Node10</title>
<g id="a_Node000010"><a xlink:href="classCCSDS_1_1Header.html#a3706049189594d30b01c8bca8184d081" target="_top" xlink:title="14 bits">
<polygon fill="white" stroke="#666666" points="326.5,-30 167.5,-30 167.5,0 326.5,0 326.5,-30"/>
<text text-anchor="start" x="175.5" y="-18" font-family="Helvetica,sans-Serif" font-size="10.00">CCSDS::Header::setSequence</text>
<text text-anchor="middle" x="247" y="-7" font-family="Helvetica,sans-Serif" font-size="10.00">Count</text>
</a>
</g>
</g>
<!-- Node1&#45;&gt;Node10 -->
<g id="edge9_Node000001_Node000010" class="edge">
<title>Node1&#45;&gt;Node10</title>
<g id="a_edge9_Node000001_Node000010"><a xlink:title=" ">
<path fill="none" stroke="#63b8ff" d="M70.88,-134.25C84.95,-113.52 120.79,-64.84 163,-39 165.81,-37.28 168.76,-35.67 171.79,-34.18"/>
<polygon fill="#63b8ff" stroke="#63b8ff" points="173.39,-37.3 181.09,-30.03 170.54,-30.91 173.39,-37.3"/>
</a>
</g>
</g>
<!-- Node6 -->
<g id="Node000006" class="node">
<title>Node6</title>
<g id="a_Node000006"><a xlink:href="classCCSDS_1_1DataField.html#ac414a4c6ffe4d3cce1c225833e550a1f" target="_top" xlink:title="Retrieves the secondary header data as a vector of bytes.">
<polygon fill="white" stroke="#666666" points="514,-180 367,-180 367,-150 514,-150 514,-180"/>
<text text-anchor="start" x="375" y="-168" font-family="Helvetica,sans-Serif" font-size="10.00">CCSDS::DataField::getData</text>
<text text-anchor="middle" x="440.5" y="-157" font-family="Helvetica,sans-Serif" font-size="10.00">FieldHeaderBytes</text>
</a>
</g>
</g>
<!-- Node5&#45;&gt;Node6 -->
<g id="edge5_Node000005_Node000006" class="edge">
<title>Node5&#45;&gt;Node6</title>
<g id="a_edge5_Node000005_Node000006"><a xlink:title=" ">
<path fill="none" stroke="#63b8ff" d="M321.76,-152.09C333.17,-153.34 345.02,-154.64 356.62,-155.91"/>
<polygon fill="#63b8ff" stroke="#63b8ff" points="356.4,-159.41 366.72,-157.02 357.16,-152.45 356.4,-159.41"/>
</a>
</g>
</g>
<!-- Node7 -->
<g id="Node000007" class="node">
<title>Node7</title>
<g id="a_Node000007"><a xlink:href="classCCSDS_1_1DataField.html#abb4b5de3d4ee71281ead402cdf5055d4" target="_top" xlink:title="Updates the data field header based on the current application data size.">
<polygon fill="white" stroke="#666666" points="511.5,-131.5 369.5,-131.5 369.5,-112.5 511.5,-112.5 511.5,-131.5"/>
<text text-anchor="middle" x="440.5" y="-119.5" font-family="Helvetica,sans-Serif" font-size="10.00">CCSDS::DataField::update</text>
</a>
</g>
</g>
<!-- Node5&#45;&gt;Node7 -->
<g id="edge6_Node000005_Node000007" class="edge">
<title>Node5&#45;&gt;Node7</title>
<g id="a_edge6_Node000005_Node000007"><a xlink:title=" ">
<path fill="none" stroke="#63b8ff" d="M321.76,-135.53C333.95,-134.13 346.63,-132.67 358.97,-131.25"/>
<polygon fill="#63b8ff" stroke="#63b8ff" points="359.7,-134.69 369.24,-130.07 358.9,-127.74 359.7,-134.69"/>
</a>
</g>
</g>
</g>
</svg>
