<?xml version="1.0" encoding="UTF-8" standalone="no"?>
<!DOCTYPE svg PUBLIC "-//W3C//DTD SVG 1.1//EN"
 "http://www.w3.org/Graphics/SVG/1.1/DTD/svg11.dtd">
<!-- Generated by graphviz version 2.43.0 (0)
 -->
<!-- Title: CCSDS::Manager::getPacketsReference Pages: 1 -->
<svg width="354pt" height="38pt"
 viewBox="0.00 0.00 354.00 38.00" xmlns="http://www.w3.org/2000/svg" xmlns:xlink="http://www.w3.org/1999/xlink">
<g id="graph0" class="graph" transform="scale(1 1) rotate(0) translate(4 34)">
<title>CCSDS::Manager::getPacketsReference</title>
<!-- Node1 -->
<g id="Node000001" class="node">
<title>Node1</title>
<g id="a_Node000001"><a xlink:title="Returns a reference to the packets vector.">
<polygon fill="#999999" stroke="#666666" points="346,-30 189,-30 189,0 346,0 346,-30"/>
<text text-anchor="start" x="197" y="-18" font-family="Helvetica,sans-Serif" font-size="10.00">CCSDS::Manager::getPackets</text>
<text text-anchor="middle" x="267.5" y="-7" font-family="Helvetica,sans-Serif" font-size="10.00">Reference</text>
</a>
</g>
</g>
<!-- Node2 -->
<g id="Node000002" class="node">
<title>Node2</title>
<g id="a_Node000002"><a xlink:href="CCSDSUtils_8cpp.html#ad200055b4cb44dddba0ced16faee7d69" target="_top" xlink:title="Prints to console a series of CCSDS Packets contained in the manager.">
<polygon fill="white" stroke="#666666" points="153,-24.5 77,-24.5 77,-5.5 153,-5.5 153,-24.5"/>
<text text-anchor="middle" x="115" y="-12.5" font-family="Helvetica,sans-Serif" font-size="10.00">printPackets</text>
</a>
</g>
</g>
<!-- Node1&#45;&gt;Node2 -->
<g id="edge1_Node000001_Node000002" class="edge">
<title>Node1&#45;&gt;Node2</title>
<g id="a_edge1_Node000001_Node000002"><a xlink:title=" ">
<path fill="none" stroke="#63b8ff" d="M178.53,-15C169.68,-15 161.07,-15 153.21,-15"/>
<polygon fill="#63b8ff" stroke="#63b8ff" points="178.61,-18.5 188.6,-15 178.6,-11.5 178.61,-18.5"/>
</a>
</g>
</g>
<!-- Node3 -->
<g id="Node000003" class="node">
<title>Node3</title>
<g id="a_Node000003"><a xlink:href="exec__decoder_8cpp.html#a638b85ceffac097c2aa79b76ba8c055e" target="_top" xlink:title=" ">
<polygon fill="white" stroke="#666666" points="41,-24.5 0,-24.5 0,-5.5 41,-5.5 41,-24.5"/>
<text text-anchor="middle" x="20.5" y="-12.5" font-family="Helvetica,sans-Serif" font-size="10.00">main</text>
</a>
</g>
</g>
<!-- Node2&#45;&gt;Node3 -->
<g id="edge2_Node000002_Node000003" class="edge">
<title>Node2&#45;&gt;Node3</title>
<g id="a_edge2_Node000002_Node000003"><a xlink:title=" ">
<path fill="none" stroke="#63b8ff" d="M66.72,-15C57.65,-15 48.64,-15 41.07,-15"/>
<polygon fill="#63b8ff" stroke="#63b8ff" points="66.91,-18.5 76.91,-15 66.91,-11.5 66.91,-18.5"/>
</a>
</g>
</g>
</g>
</svg>
