<?xml version="1.0" encoding="UTF-8" standalone="no"?>
<!DOCTYPE svg PUBLIC "-//W3C//DTD SVG 1.1//EN"
 "http://www.w3.org/Graphics/SVG/1.1/DTD/svg11.dtd">
<!-- Generated by graphviz version 2.43.0 (0)
 -->
<!-- Title: CCSDS::Validator Pages: 1 -->
<svg width="420pt" height="225pt"
 viewBox="0.00 0.00 419.50 225.00" xmlns="http://www.w3.org/2000/svg" xmlns:xlink="http://www.w3.org/1999/xlink">
<g id="graph0" class="graph" transform="scale(1 1) rotate(0) translate(4 221)">
<title>CCSDS::Validator</title>
<!-- Node1 -->
<g id="Node000001" class="node">
<title>Node1</title>
<g id="a_Node000001"><a xlink:title="Handles validation of CCSDS packets.">
<polygon fill="#999999" stroke="#666666" points="320,-19 221,-19 221,0 320,0 320,-19"/>
<text text-anchor="middle" x="270.5" y="-7" font-family="Helvetica,sans-Serif" font-size="10.00">CCSDS::Validator</text>
</a>
</g>
</g>
<!-- Node2 -->
<g id="Node000002" class="node">
<title>Node2</title>
<g id="a_Node000002"><a xlink:href="classCCSDS_1_1Packet.html" target="_top" xlink:title="Represents a CCSDS (Consultative Committee for Space Data Systems) packet.">
<polygon fill="white" stroke="#666666" points="241,-85 154,-85 154,-66 241,-66 241,-85"/>
<text text-anchor="middle" x="197.5" y="-73" font-family="Helvetica,sans-Serif" font-size="10.00">CCSDS::Packet</text>
</a>
</g>
</g>
<!-- Node2&#45;&gt;Node1 -->
<g id="edge1_Node000001_Node000002" class="edge">
<title>Node2&#45;&gt;Node1</title>
<g id="a_edge1_Node000001_Node000002"><a xlink:title=" ">
<path fill="none" stroke="#9a32cd" stroke-dasharray="5,2" d="M213.34,-58.55C220.29,-51.74 228.64,-43.81 236.5,-37 243.74,-30.73 252.24,-24.1 258.93,-19.05"/>
<polygon fill="#9a32cd" stroke="#9a32cd" points="210.57,-56.37 205.93,-65.9 215.5,-61.34 210.57,-56.37"/>
</a>
</g>
<text text-anchor="middle" x="283.5" y="-40" font-family="Helvetica,sans-Serif" font-size="10.00" fill="grey"> m_templatePacket</text>
</g>
<!-- Node3 -->
<g id="Node000003" class="node">
<title>Node3</title>
<g id="a_Node000003"><a xlink:href="classCCSDS_1_1Header.html" target="_top" xlink:title="Manages the decomposition and manipulation of CCSDS primary headers.">
<polygon fill="white" stroke="#666666" points="91,-151 0,-151 0,-132 91,-132 91,-151"/>
<text text-anchor="middle" x="45.5" y="-139" font-family="Helvetica,sans-Serif" font-size="10.00">CCSDS::Header</text>
</a>
</g>
</g>
<!-- Node3&#45;&gt;Node2 -->
<g id="edge2_Node000002_Node000003" class="edge">
<title>Node3&#45;&gt;Node2</title>
<g id="a_edge2_Node000002_Node000003"><a xlink:title=" ">
<path fill="none" stroke="#9a32cd" stroke-dasharray="5,2" d="M49.85,-122.36C52.41,-115.33 56.4,-107.83 62.5,-103 76.45,-91.96 119.9,-84.79 153.77,-80.73"/>
<polygon fill="#9a32cd" stroke="#9a32cd" points="46.49,-121.37 47.02,-131.95 53.2,-123.35 46.49,-121.37"/>
</a>
</g>
<text text-anchor="middle" x="108.5" y="-106" font-family="Helvetica,sans-Serif" font-size="10.00" fill="grey"> m_primaryHeader</text>
</g>
<!-- Node4 -->
<g id="Node000004" class="node">
<title>Node4</title>
<g id="a_Node000004"><a xlink:href="classCCSDS_1_1DataField.html" target="_top" xlink:title="Represents the data field of a CCSDS packet.">
<polygon fill="white" stroke="#666666" points="211.5,-151 109.5,-151 109.5,-132 211.5,-132 211.5,-151"/>
<text text-anchor="middle" x="160.5" y="-139" font-family="Helvetica,sans-Serif" font-size="10.00">CCSDS::DataField</text>
</a>
</g>
</g>
<!-- Node4&#45;&gt;Node2 -->
<g id="edge3_Node000002_Node000004" class="edge">
<title>Node4&#45;&gt;Node2</title>
<g id="a_edge3_Node000002_Node000004"><a xlink:title=" ">
<path fill="none" stroke="#9a32cd" stroke-dasharray="5,2" d="M157.79,-121.65C157.71,-115.41 158.56,-108.63 161.5,-103 165.45,-95.43 172.66,-89.48 179.59,-85.14"/>
<polygon fill="#9a32cd" stroke="#9a32cd" points="154.33,-122.27 158.68,-131.93 161.31,-121.66 154.33,-122.27"/>
</a>
</g>
<text text-anchor="middle" x="193.5" y="-106" font-family="Helvetica,sans-Serif" font-size="10.00" fill="grey"> m_dataField</text>
</g>
<!-- Node5 -->
<g id="Node000005" class="node">
<title>Node5</title>
<g id="a_Node000005"><a xlink:href="classCCSDS_1_1SecondaryHeaderFactory.html" target="_top" xlink:title="A singleton factory class responsible for registering and creating instances of SecondaryHeaderAbstra...">
<polygon fill="white" stroke="#666666" points="249,-217 72,-217 72,-198 249,-198 249,-217"/>
<text text-anchor="middle" x="160.5" y="-205" font-family="Helvetica,sans-Serif" font-size="10.00">CCSDS::SecondaryHeaderFactory</text>
</a>
</g>
</g>
<!-- Node5&#45;&gt;Node4 -->
<g id="edge4_Node000004_Node000005" class="edge">
<title>Node5&#45;&gt;Node4</title>
<g id="a_edge4_Node000004_Node000005"><a xlink:title=" ">
<path fill="none" stroke="#9a32cd" stroke-dasharray="5,2" d="M160.5,-187.58C160.5,-175.63 160.5,-160.72 160.5,-151.41"/>
<polygon fill="#9a32cd" stroke="#9a32cd" points="157,-187.87 160.5,-197.87 164,-187.87 157,-187.87"/>
</a>
</g>
<text text-anchor="middle" x="230" y="-172" font-family="Helvetica,sans-Serif" font-size="10.00" fill="grey"> m_secondaryHeaderFactory</text>
</g>
<!-- Node6 -->
<g id="Node000006" class="node">
<title>Node6</title>
<g id="a_Node000006"><a xlink:href="structCCSDS_1_1CRC16Config.html" target="_top" xlink:title="Configuration structure for CRC16 calculation parameters.">
<polygon fill="white" stroke="#666666" points="376,-151 257,-151 257,-132 376,-132 376,-151"/>
<text text-anchor="middle" x="316.5" y="-139" font-family="Helvetica,sans-Serif" font-size="10.00">CCSDS::CRC16Config</text>
</a>
</g>
</g>
<!-- Node6&#45;&gt;Node1 -->
<g id="edge6_Node000001_Node000006" class="edge">
<title>Node6&#45;&gt;Node1</title>
<g id="a_edge6_Node000001_Node000006"><a xlink:title=" ">
<path fill="none" stroke="#9a32cd" stroke-dasharray="5,2" d="M327.36,-122.74C328.65,-119.9 329.77,-116.94 330.5,-114 338.73,-80.78 349.18,-65.67 330.5,-37 325.09,-28.7 316.43,-22.98 307.35,-19.05"/>
<polygon fill="#9a32cd" stroke="#9a32cd" points="324.23,-121.16 322.59,-131.62 330.4,-124.47 324.23,-121.16"/>
</a>
</g>
<text text-anchor="middle" x="376.5" y="-73" font-family="Helvetica,sans-Serif" font-size="10.00" fill="grey"> m_CRCConfig</text>
</g>
<!-- Node6&#45;&gt;Node2 -->
<g id="edge5_Node000002_Node000006" class="edge">
<title>Node6&#45;&gt;Node2</title>
<g id="a_edge5_Node000002_Node000006"><a xlink:title=" ">
<path fill="none" stroke="#9a32cd" stroke-dasharray="5,2" d="M280.53,-128.5C269.95,-124.44 258.53,-119.52 248.5,-114 233.28,-105.63 217.42,-93.31 207.51,-85.1"/>
<polygon fill="#9a32cd" stroke="#9a32cd" points="279.35,-131.8 289.94,-131.98 281.78,-125.23 279.35,-131.8"/>
</a>
</g>
<text text-anchor="middle" x="289.5" y="-106" font-family="Helvetica,sans-Serif" font-size="10.00" fill="grey"> m_CRC16Config</text>
</g>
</g>
</svg>
