<?xml version="1.0" encoding="UTF-8" standalone="no"?>
<!DOCTYPE svg PUBLIC "-//W3C//DTD SVG 1.1//EN"
 "http://www.w3.org/Graphics/SVG/1.1/DTD/svg11.dtd">
<!-- Generated by graphviz version 2.43.0 (0)
 -->
<!-- Title: ccsds::pus::SecondaryHeader::loadFromConfig Pages: 1 -->
<svg width="591pt" height="124pt"
 viewBox="0.00 0.00 591.00 123.50" xmlns="http://www.w3.org/2000/svg" xmlns:xlink="http://www.w3.org/1999/xlink">
<g id="graph0" class="graph" transform="scale(1 1) rotate(0) translate(4 119.5)">
<title>ccsds::pus::SecondaryHeader::loadFromConfig</title>
<!-- Node1 -->
<g id="Node000001" class="node">
<title>Node1</title>
<g id="a_Node000001"><a xlink:title=" ">
<polygon fill="#999999" stroke="#666666" points="159,-91.5 0,-91.5 0,-61.5 159,-61.5 159,-91.5"/>
<text text-anchor="start" x="8" y="-79.5" font-family="Helvetica,sans-Serif" font-size="10.00">ccsds::pus::SecondaryHeader</text>
<text text-anchor="middle" x="79.5" y="-68.5" font-family="Helvetica,sans-Serif" font-size="10.00">::loadFromConfig</text>
</a>
</g>
</g>
<!-- Node2 -->
<g id="Node000002" class="node">
<title>Node2</title>
<g id="a_Node000002"><a xlink:href="classccsds_1_1SecondaryHeaderAbstract.html#a1b520782a4b8edf28cd4f064538ff62f" target="_top" xlink:title=" ">
<polygon fill="white" stroke="#666666" points="371,-115.5 195,-115.5 195,-85.5 371,-85.5 371,-115.5"/>
<text text-anchor="start" x="203" y="-103.5" font-family="Helvetica,sans-Serif" font-size="10.00">ccsds::SecondaryHeaderAbstract</text>
<text text-anchor="middle" x="283" y="-92.5" font-family="Helvetica,sans-Serif" font-size="10.00">::deserialize</text>
</a>
</g>
</g>
<!-- Node1&#45;&gt;Node2 -->
<g id="edge1_Node000001_Node000002" class="edge">
<title>Node1&#45;&gt;Node2</title>
<g id="a_edge1_Node000001_Node000002"><a xlink:title=" ">
<path fill="none" stroke="#63b8ff" d="M159.27,-85.88C167.68,-86.88 176.3,-87.91 184.89,-88.93"/>
<polygon fill="#63b8ff" stroke="#63b8ff" points="184.6,-92.42 194.95,-90.13 185.43,-85.47 184.6,-92.42"/>
</a>
</g>
</g>
<!-- Node3 -->
<g id="Node000003" class="node">
<title>Node3</title>
<g id="a_Node000003"><a xlink:href="classccsds_1_1pus_1_1SecondaryHeader.html#a665fb74eef029c8ee506c5d27668e4bb" target="_top" xlink:title=" ">
<polygon fill="white" stroke="#666666" points="362.5,-67.5 203.5,-67.5 203.5,-37.5 362.5,-37.5 362.5,-67.5"/>
<text text-anchor="start" x="211.5" y="-55.5" font-family="Helvetica,sans-Serif" font-size="10.00">ccsds::pus::SecondaryHeader</text>
<text text-anchor="middle" x="283" y="-44.5" font-family="Helvetica,sans-Serif" font-size="10.00">::getType</text>
</a>
</g>
</g>
<!-- Node1&#45;&gt;Node3 -->
<g id="edge2_Node000001_Node000003" class="edge">
<title>Node1&#45;&gt;Node3</title>
<g id="a_edge2_Node000001_Node000003"><a xlink:title=" ">
<path fill="none" stroke="#63b8ff" d="M159.27,-67.12C170.34,-65.8 181.78,-64.44 193.03,-63.1"/>
<polygon fill="#63b8ff" stroke="#63b8ff" points="193.77,-66.53 203.28,-61.88 192.94,-59.58 193.77,-66.53"/>
</a>
</g>
</g>
<!-- Node4 -->
<g id="Node000004" class="node">
<title>Node4</title>
<g id="a_Node000004"><a xlink:href="classccsds_1_1SecondaryHeaderAbstract.html#aa6aebd3402c64b849ff050c2aab136c2" target="_top" xlink:title="Returns a header&#45;declared packet direction, or Unspecified for direction&#45;neutral headers.">
<polygon fill="white" stroke="#666666" points="583,-115.5 407,-115.5 407,-85.5 583,-85.5 583,-115.5"/>
<text text-anchor="start" x="415" y="-103.5" font-family="Helvetica,sans-Serif" font-size="10.00">ccsds::SecondaryHeaderAbstract</text>
<text text-anchor="middle" x="495" y="-92.5" font-family="Helvetica,sans-Serif" font-size="10.00">::getDirection</text>
</a>
</g>
</g>
<!-- Node3&#45;&gt;Node4 -->
<g id="edge3_Node000003_Node000004" class="edge">
<title>Node3&#45;&gt;Node4</title>
<g id="a_edge3_Node000003_Node000004"><a xlink:title=" ">
<path fill="none" stroke="#63b8ff" d="M349.87,-67.56C371.66,-72.54 396.08,-78.12 418.54,-83.25"/>
<polygon fill="#63b8ff" stroke="#63b8ff" points="417.84,-86.68 428.36,-85.5 419.4,-79.86 417.84,-86.68"/>
</a>
</g>
</g>
<!-- Node5 -->
<g id="Node000005" class="node">
<title>Node5</title>
<g id="a_Node000005"><a xlink:href="classccsds_1_1pus_1_1SecondaryHeader.html#a815152d627367f030412dded5825dfa1" target="_top" xlink:title=" ">
<polygon fill="white" stroke="#666666" points="574.5,-67.5 415.5,-67.5 415.5,-37.5 574.5,-37.5 574.5,-67.5"/>
<text text-anchor="start" x="423.5" y="-55.5" font-family="Helvetica,sans-Serif" font-size="10.00">ccsds::pus::SecondaryHeader</text>
<text text-anchor="middle" x="495" y="-44.5" font-family="Helvetica,sans-Serif" font-size="10.00">::getRevision</text>
</a>
</g>
</g>
<!-- Node3&#45;&gt;Node5 -->
<g id="edge4_Node000003_Node000005" class="edge">
<title>Node3&#45;&gt;Node5</title>
<g id="a_edge4_Node000003_Node000005"><a xlink:title=" ">
<path fill="none" stroke="#63b8ff" d="M362.79,-52.5C376.65,-52.5 391.17,-52.5 405.28,-52.5"/>
<polygon fill="#63b8ff" stroke="#63b8ff" points="405.46,-56 415.46,-52.5 405.46,-49 405.46,-56"/>
</a>
</g>
</g>
<!-- Node6 -->
<g id="Node000006" class="node">
<title>Node6</title>
<g id="a_Node000006"><a xlink:href="namespaceccsds_1_1pus.html#a3363f4acafba705b655befd1b58f9f24" target="_top" xlink:title="Returns the canonical selector for one PUS revision and packet direction.">
<polygon fill="white" stroke="#666666" points="551,-19 439,-19 439,0 551,0 551,-19"/>
<text text-anchor="middle" x="495" y="-7" font-family="Helvetica,sans-Serif" font-size="10.00">ccsds::pus::selector</text>
</a>
</g>
</g>
<!-- Node3&#45;&gt;Node6 -->
<g id="edge5_Node000003_Node000006" class="edge">
<title>Node3&#45;&gt;Node6</title>
<g id="a_edge5_Node000003_Node000006"><a xlink:title=" ">
<path fill="none" stroke="#63b8ff" d="M357.45,-37.46C383.75,-32.08 412.96,-26.09 437.59,-21.05"/>
<polygon fill="#63b8ff" stroke="#63b8ff" points="438.4,-24.46 447.5,-19.02 437,-17.6 438.4,-24.46"/>
</a>
</g>
</g>
</g>
</svg>
