<?xml version="1.0" encoding="UTF-8" standalone="no"?>
<!DOCTYPE svg PUBLIC "-//W3C//DTD SVG 1.1//EN"
 "http://www.w3.org/Graphics/SVG/1.1/DTD/svg11.dtd">
<!-- Generated by graphviz version 2.43.0 (0)
 -->
<!-- Title: CCSDS::Manager::Manager Pages: 1 -->
<svg width="356pt" height="76pt"
 viewBox="0.00 0.00 356.00 75.50" xmlns="http://www.w3.org/2000/svg" xmlns:xlink="http://www.w3.org/1999/xlink">
<g id="graph0" class="graph" transform="scale(1 1) rotate(0) translate(4 71.5)">
<title>CCSDS::Manager::Manager</title>
<!-- Node1 -->
<g id="Node000001" class="node">
<title>Node1</title>
<g id="a_Node000001"><a xlink:title="Constructs a Manager with a given packet template.">
<polygon fill="#999999" stroke="#666666" points="147,-45.5 0,-45.5 0,-26.5 147,-26.5 147,-45.5"/>
<text text-anchor="middle" x="73.5" y="-33.5" font-family="Helvetica,sans-Serif" font-size="10.00">CCSDS::Manager::Manager</text>
</a>
</g>
</g>
<!-- Node2 -->
<g id="Node000002" class="node">
<title>Node2</title>
<g id="a_Node000002"><a xlink:href="classCCSDS_1_1Validator.html#abe3980b1c07f77551736b5a64d495d3b" target="_top" xlink:title="Configures validation options.">
<polygon fill="white" stroke="#666666" points="340.5,-67.5 190.5,-67.5 190.5,-48.5 340.5,-48.5 340.5,-67.5"/>
<text text-anchor="middle" x="265.5" y="-55.5" font-family="Helvetica,sans-Serif" font-size="10.00">CCSDS::Validator::configure</text>
</a>
</g>
</g>
<!-- Node1&#45;&gt;Node2 -->
<g id="edge1_Node000001_Node000002" class="edge">
<title>Node1&#45;&gt;Node2</title>
<g id="a_edge1_Node000001_Node000002"><a xlink:title=" ">
<path fill="none" stroke="#63b8ff" d="M147.14,-44.41C157.97,-45.67 169.21,-46.97 180.25,-48.25"/>
<polygon fill="#63b8ff" stroke="#63b8ff" points="179.99,-51.74 190.32,-49.41 180.79,-44.78 179.99,-51.74"/>
</a>
</g>
</g>
<!-- Node3 -->
<g id="Node000003" class="node">
<title>Node3</title>
<g id="a_Node000003"><a xlink:href="classCCSDS_1_1Validator.html#af511635a2e542d8b9fabe7470bee8ef4" target="_top" xlink:title="Sets the template packet for validation.">
<polygon fill="white" stroke="#666666" points="348,-30 183,-30 183,0 348,0 348,-30"/>
<text text-anchor="start" x="191" y="-18" font-family="Helvetica,sans-Serif" font-size="10.00">CCSDS::Validator::setTemplate</text>
<text text-anchor="middle" x="265.5" y="-7" font-family="Helvetica,sans-Serif" font-size="10.00">Packet</text>
</a>
</g>
</g>
<!-- Node1&#45;&gt;Node3 -->
<g id="edge2_Node000001_Node000003" class="edge">
<title>Node1&#45;&gt;Node3</title>
<g id="a_edge2_Node000001_Node000003"><a xlink:title=" ">
<path fill="none" stroke="#63b8ff" d="M147.14,-27.97C155.5,-27.05 164.1,-26.1 172.67,-25.15"/>
<polygon fill="#63b8ff" stroke="#63b8ff" points="173.14,-28.62 182.7,-24.04 172.37,-21.66 173.14,-28.62"/>
</a>
</g>
</g>
</g>
</svg>
