<?xml version="1.0" encoding="UTF-8" standalone="no"?>
<!DOCTYPE svg PUBLIC "-//W3C//DTD SVG 1.1//EN"
 "http://www.w3.org/Graphics/SVG/1.1/DTD/svg11.dtd">
<!-- Generated by graphviz version 2.43.0 (0)
 -->
<!-- Title: CCSDS::Manager::load Pages: 1 -->
<svg width="509pt" height="64pt"
 viewBox="0.00 0.00 509.00 64.00" xmlns="http://www.w3.org/2000/svg" xmlns:xlink="http://www.w3.org/1999/xlink">
<g id="graph0" class="graph" transform="scale(1 1) rotate(0) translate(4 60)">
<title>CCSDS::Manager::load</title>
<!-- Node1 -->
<g id="Node000001" class="node">
<title>Node1</title>
<g id="a_Node000001"><a xlink:title="Load a packet or a series of packets from a buffer.">
<polygon fill="#999999" stroke="#666666" points="125,-37 0,-37 0,-18 125,-18 125,-37"/>
<text text-anchor="middle" x="62.5" y="-25" font-family="Helvetica,sans-Serif" font-size="10.00">CCSDS::Manager::load</text>
</a>
</g>
</g>
<!-- Node2 -->
<g id="Node000002" class="node">
<title>Node2</title>
<g id="a_Node000002"><a xlink:href="classCCSDS_1_1Header.html#a2f4d97beaaaac5b2005b470ed14f228d" target="_top" xlink:title="Sets the header data from a 64&#45;bit integer representation.">
<polygon fill="white" stroke="#666666" points="320.5,-56 170.5,-56 170.5,-37 320.5,-37 320.5,-56"/>
<text text-anchor="middle" x="245.5" y="-44" font-family="Helvetica,sans-Serif" font-size="10.00">CCSDS::Header::deserialize</text>
</a>
</g>
</g>
<!-- Node1&#45;&gt;Node2 -->
<g id="edge1_Node000001_Node000002" class="edge">
<title>Node1&#45;&gt;Node2</title>
<g id="a_edge1_Node000001_Node000002"><a xlink:title=" ">
<path fill="none" stroke="#63b8ff" d="M125.03,-33.96C136.4,-35.15 148.45,-36.42 160.36,-37.67"/>
<polygon fill="#63b8ff" stroke="#63b8ff" points="159.99,-41.15 170.3,-38.71 160.72,-34.19 159.99,-41.15"/>
</a>
</g>
</g>
<!-- Node4 -->
<g id="Node000004" class="node">
<title>Node4</title>
<g id="a_Node000004"><a xlink:href="classCCSDS_1_1Header.html#a9c2ac8f4b16874076de742cb19833bd7" target="_top" xlink:title="16 bits">
<polygon fill="white" stroke="#666666" points="330,-19 161,-19 161,0 330,0 330,-19"/>
<text text-anchor="middle" x="245.5" y="-7" font-family="Helvetica,sans-Serif" font-size="10.00">CCSDS::Header::getDataLength</text>
</a>
</g>
</g>
<!-- Node1&#45;&gt;Node4 -->
<g id="edge3_Node000001_Node000004" class="edge">
<title>Node1&#45;&gt;Node4</title>
<g id="a_edge3_Node000001_Node000004"><a xlink:title=" ">
<path fill="none" stroke="#63b8ff" d="M125.03,-21.38C133.28,-20.56 141.89,-19.7 150.54,-18.84"/>
<polygon fill="#63b8ff" stroke="#63b8ff" points="151.09,-22.31 160.7,-17.83 150.4,-15.34 151.09,-22.31"/>
</a>
</g>
</g>
<!-- Node3 -->
<g id="Node000003" class="node">
<title>Node3</title>
<g id="a_Node000003"><a xlink:href="classCCSDS_1_1Header.html#aad717b39dda3dff19adb10e3c7e38100" target="_top" xlink:title="Sets the header data from a 64&#45;bit integer representation.">
<polygon fill="white" stroke="#666666" points="501,-56 366,-56 366,-37 501,-37 501,-56"/>
<text text-anchor="middle" x="433.5" y="-44" font-family="Helvetica,sans-Serif" font-size="10.00">CCSDS::Header::setData</text>
</a>
</g>
</g>
<!-- Node2&#45;&gt;Node3 -->
<g id="edge2_Node000002_Node000003" class="edge">
<title>Node2&#45;&gt;Node3</title>
<g id="a_edge2_Node000002_Node000003"><a xlink:title=" ">
<path fill="none" stroke="#63b8ff" d="M320.55,-46.5C332.14,-46.5 344.15,-46.5 355.8,-46.5"/>
<polygon fill="#63b8ff" stroke="#63b8ff" points="355.94,-50 365.94,-46.5 355.94,-43 355.94,-50"/>
</a>
</g>
</g>
</g>
</svg>
