<?xml version="1.0" encoding="UTF-8" standalone="no"?>
<!DOCTYPE svg PUBLIC "-//W3C//DTD SVG 1.1//EN"
 "http://www.w3.org/Graphics/SVG/1.1/DTD/svg11.dtd">
<!-- Generated by graphviz version 2.43.0 (0)
 -->
<!-- Title: CCSDS::Header::getSequenceFlags Pages: 1 -->
<svg width="786pt" height="131pt"
 viewBox="0.00 0.00 786.00 130.50" xmlns="http://www.w3.org/2000/svg" xmlns:xlink="http://www.w3.org/1999/xlink">
<g id="graph0" class="graph" transform="scale(1 1) rotate(0) translate(4 126.5)">
<title>CCSDS::Header::getSequenceFlags</title>
<!-- Node1 -->
<g id="Node000001" class="node">
<title>Node1</title>
<g id="a_Node000001"><a xlink:title="Returns the stored 2&#45;bit sequence&#45;flags value.">
<polygon fill="#999999" stroke="#666666" points="778,-79.5 618,-79.5 618,-49.5 778,-49.5 778,-79.5"/>
<text text-anchor="start" x="626" y="-67.5" font-family="Helvetica,sans-Serif" font-size="10.00">CCSDS::Header::getSequence</text>
<text text-anchor="middle" x="698" y="-56.5" font-family="Helvetica,sans-Serif" font-size="10.00">Flags</text>
</a>
</g>
</g>
<!-- Node2 -->
<g id="Node000002" class="node">
<title>Node2</title>
<g id="a_Node000002"><a xlink:href="classCCSDS_1_1Validator.html#a8dfeabb5dba4e31d5f37c0dd4e284d7a" target="_top" xlink:title=" ">
<polygon fill="white" stroke="#666666" points="582,-122.5 445,-122.5 445,-92.5 582,-92.5 582,-122.5"/>
<text text-anchor="start" x="453" y="-110.5" font-family="Helvetica,sans-Serif" font-size="10.00">CCSDS::Validator::accept</text>
<text text-anchor="middle" x="513.5" y="-99.5" font-family="Helvetica,sans-Serif" font-size="10.00">Sequence</text>
</a>
</g>
</g>
<!-- Node1&#45;&gt;Node2 -->
<g id="edge1_Node000001_Node000002" class="edge">
<title>Node1&#45;&gt;Node2</title>
<g id="a_edge1_Node000001_Node000002"><a xlink:title=" ">
<path fill="none" stroke="#63b8ff" d="M623.03,-81.93C608.2,-85.42 592.74,-89.07 578.29,-92.47"/>
<polygon fill="#63b8ff" stroke="#63b8ff" points="624.24,-85.24 633.17,-79.54 622.63,-78.43 624.24,-85.24"/>
</a>
</g>
</g>
<!-- Node3 -->
<g id="Node000003" class="node">
<title>Node3</title>
<g id="a_Node000003"><a xlink:href="exec__encoder_8cpp.html#a638b85ceffac097c2aa79b76ba8c055e" target="_top" xlink:title=" ">
<polygon fill="white" stroke="#666666" points="534,-74 493,-74 493,-55 534,-55 534,-74"/>
<text text-anchor="middle" x="513.5" y="-62" font-family="Helvetica,sans-Serif" font-size="10.00">main</text>
</a>
</g>
</g>
<!-- Node1&#45;&gt;Node3 -->
<g id="edge2_Node000001_Node000003" class="edge">
<title>Node1&#45;&gt;Node3</title>
<g id="a_edge2_Node000001_Node000003"><a xlink:title=" ">
<path fill="none" stroke="#63b8ff" d="M607.6,-64.5C579.98,-64.5 552.13,-64.5 534.18,-64.5"/>
<polygon fill="#63b8ff" stroke="#63b8ff" points="607.75,-68 617.75,-64.5 607.75,-61 607.75,-68"/>
</a>
</g>
</g>
<!-- Node4 -->
<g id="Node000004" class="node">
<title>Node4</title>
<g id="a_Node000004"><a xlink:href="CCSDSUtils_8cpp.html#a993788a78365e86ff065ba8bedff543a" target="_top" xlink:title="Prints a primary&#45;header summary.">
<polygon fill="white" stroke="#666666" points="550.5,-37 476.5,-37 476.5,-18 550.5,-18 550.5,-37"/>
<text text-anchor="middle" x="513.5" y="-25" font-family="Helvetica,sans-Serif" font-size="10.00">printHeader</text>
</a>
</g>
</g>
<!-- Node1&#45;&gt;Node4 -->
<g id="edge3_Node000001_Node000004" class="edge">
<title>Node1&#45;&gt;Node4</title>
<g id="a_edge3_Node000001_Node000004"><a xlink:title=" ">
<path fill="none" stroke="#63b8ff" d="M612.79,-47.43C590.94,-43 568.55,-38.46 550.67,-34.83"/>
<polygon fill="#63b8ff" stroke="#63b8ff" points="612.27,-50.89 622.77,-49.45 613.67,-44.03 612.27,-50.89"/>
</a>
</g>
</g>
<!-- Node5 -->
<g id="Node000005" class="node">
<title>Node5</title>
<g id="a_Node000005"><a xlink:href="CCSDSUtils_8cpp.html#a3c45ef84a35555519e34164e000dada5" target="_top" xlink:title="Prints the primary header owned by a packet.">
<polygon fill="white" stroke="#666666" points="409,-37 296,-37 296,-18 409,-18 409,-37"/>
<text text-anchor="middle" x="352.5" y="-25" font-family="Helvetica,sans-Serif" font-size="10.00">printPrimaryHeader</text>
</a>
</g>
</g>
<!-- Node4&#45;&gt;Node5 -->
<g id="edge4_Node000004_Node000005" class="edge">
<title>Node4&#45;&gt;Node5</title>
<g id="a_edge4_Node000004_Node000005"><a xlink:title=" ">
<path fill="none" stroke="#63b8ff" d="M466.25,-27.5C448.37,-27.5 427.76,-27.5 409.09,-27.5"/>
<polygon fill="#63b8ff" stroke="#63b8ff" points="466.42,-31 476.42,-27.5 466.42,-24 466.42,-31"/>
</a>
</g>
</g>
<!-- Node6 -->
<g id="Node000006" class="node">
<title>Node6</title>
<g id="a_Node000006"><a xlink:href="CCSDSUtils_8cpp.html#a2e40e3867139b28c1b2fa0465c3afd7e" target="_top" xlink:title="Prints a human&#45;readable summary of one packet to standard output.">
<polygon fill="white" stroke="#666666" points="260,-56 189,-56 189,-37 260,-37 260,-56"/>
<text text-anchor="middle" x="224.5" y="-44" font-family="Helvetica,sans-Serif" font-size="10.00">printPacket</text>
</a>
</g>
</g>
<!-- Node5&#45;&gt;Node6 -->
<g id="edge5_Node000005_Node000006" class="edge">
<title>Node5&#45;&gt;Node6</title>
<g id="a_edge5_Node000005_Node000006"><a xlink:title=" ">
<path fill="none" stroke="#63b8ff" d="M285.87,-37.4C277.01,-38.73 268.22,-40.06 260.2,-41.27"/>
<polygon fill="#63b8ff" stroke="#63b8ff" points="286.5,-40.84 295.87,-35.89 285.46,-33.92 286.5,-40.84"/>
</a>
</g>
</g>
<!-- Node8 -->
<g id="Node000008" class="node">
<title>Node8</title>
<g id="a_Node000008"><a xlink:href="CCSDSUtils_8cpp.html#ad200055b4cb44dddba0ced16faee7d69" target="_top" xlink:title="Prints all packets currently stored in a Manager.">
<polygon fill="white" stroke="#666666" points="153,-19 77,-19 77,0 153,0 153,-19"/>
<text text-anchor="middle" x="115" y="-7" font-family="Helvetica,sans-Serif" font-size="10.00">printPackets</text>
</a>
</g>
</g>
<!-- Node5&#45;&gt;Node8 -->
<g id="edge9_Node000005_Node000008" class="edge">
<title>Node5&#45;&gt;Node8</title>
<g id="a_edge9_Node000005_Node000008"><a xlink:title=" ">
<path fill="none" stroke="#63b8ff" d="M285.92,-22.49C243.09,-19.21 188.71,-15.06 153.16,-12.34"/>
<polygon fill="#63b8ff" stroke="#63b8ff" points="285.75,-25.98 295.99,-23.26 286.28,-19.01 285.75,-25.98"/>
</a>
</g>
</g>
<!-- Node7 -->
<g id="Node000007" class="node">
<title>Node7</title>
<g id="a_Node000007"><a xlink:href="exec__validator_8cpp.html#a638b85ceffac097c2aa79b76ba8c055e" target="_top" xlink:title=" ">
<polygon fill="white" stroke="#666666" points="135.5,-56 94.5,-56 94.5,-37 135.5,-37 135.5,-56"/>
<text text-anchor="middle" x="115" y="-44" font-family="Helvetica,sans-Serif" font-size="10.00">main</text>
</a>
</g>
</g>
<!-- Node6&#45;&gt;Node7 -->
<g id="edge6_Node000006_Node000007" class="edge">
<title>Node6&#45;&gt;Node7</title>
<g id="a_edge6_Node000006_Node000007"><a xlink:title=" ">
<path fill="none" stroke="#63b8ff" d="M178.75,-46.5C163.79,-46.5 147.87,-46.5 135.81,-46.5"/>
<polygon fill="#63b8ff" stroke="#63b8ff" points="178.89,-50 188.89,-46.5 178.89,-43 178.89,-50"/>
</a>
</g>
</g>
<!-- Node6&#45;&gt;Node8 -->
<g id="edge7_Node000006_Node000008" class="edge">
<title>Node6&#45;&gt;Node8</title>
<g id="a_edge7_Node000006_Node000008"><a xlink:title=" ">
<path fill="none" stroke="#63b8ff" d="M186.08,-33.62C172.25,-28.86 156.82,-23.55 143.96,-19.12"/>
<polygon fill="#63b8ff" stroke="#63b8ff" points="185.22,-37.03 195.82,-36.97 187.5,-30.41 185.22,-37.03"/>
</a>
</g>
</g>
<!-- Node9 -->
<g id="Node000009" class="node">
<title>Node9</title>
<g id="a_Node000009"><a xlink:href="exec__decoder_8cpp.html#a638b85ceffac097c2aa79b76ba8c055e" target="_top" xlink:title=" ">
<polygon fill="white" stroke="#666666" points="41,-19 0,-19 0,0 41,0 41,-19"/>
<text text-anchor="middle" x="20.5" y="-7" font-family="Helvetica,sans-Serif" font-size="10.00">main</text>
</a>
</g>
</g>
<!-- Node8&#45;&gt;Node9 -->
<g id="edge8_Node000008_Node000009" class="edge">
<title>Node8&#45;&gt;Node9</title>
<g id="a_edge8_Node000008_Node000009"><a xlink:title=" ">
<path fill="none" stroke="#63b8ff" d="M66.72,-9.5C57.65,-9.5 48.64,-9.5 41.07,-9.5"/>
<polygon fill="#63b8ff" stroke="#63b8ff" points="66.91,-13 76.91,-9.5 66.91,-6 66.91,-13"/>
</a>
</g>
</g>
</g>
</svg>
