<?xml version="1.0" encoding="UTF-8" standalone="no"?>
<!DOCTYPE svg PUBLIC "-//W3C//DTD SVG 1.1//EN"
 "http://www.w3.org/Graphics/SVG/1.1/DTD/svg11.dtd">
<!-- Generated by graphviz version 2.43.0 (0)
 -->
<!-- Title: CCSDS::Packet Pages: 1 -->
<svg width="357pt" height="159pt"
 viewBox="0.00 0.00 357.00 159.00" xmlns="http://www.w3.org/2000/svg" xmlns:xlink="http://www.w3.org/1999/xlink">
<g id="graph0" class="graph" transform="scale(1 1) rotate(0) translate(4 155)">
<title>CCSDS::Packet</title>
<!-- Node1 -->
<g id="Node000001" class="node">
<title>Node1</title>
<g id="a_Node000001"><a xlink:title="Represents a CCSDS (Consultative Committee for Space Data Systems) packet.">
<polygon fill="#999999" stroke="#666666" points="204,-19 117,-19 117,0 204,0 204,-19"/>
<text text-anchor="middle" x="160.5" y="-7" font-family="Helvetica,sans-Serif" font-size="10.00">CCSDS::Packet</text>
</a>
</g>
</g>
<!-- Node2 -->
<g id="Node000002" class="node">
<title>Node2</title>
<g id="a_Node000002"><a xlink:href="classCCSDS_1_1Header.html" target="_top" xlink:title="Manages the decomposition and manipulation of CCSDS primary headers.">
<polygon fill="white" stroke="#666666" points="91,-85 0,-85 0,-66 91,-66 91,-85"/>
<text text-anchor="middle" x="45.5" y="-73" font-family="Helvetica,sans-Serif" font-size="10.00">CCSDS::Header</text>
</a>
</g>
</g>
<!-- Node2&#45;&gt;Node1 -->
<g id="edge1_Node000001_Node000002" class="edge">
<title>Node2&#45;&gt;Node1</title>
<g id="a_edge1_Node000001_Node000002"><a xlink:title=" ">
<path fill="none" stroke="#9a32cd" stroke-dasharray="5,2" d="M51.13,-56.3C54.1,-49.38 58.43,-41.97 64.5,-37 79.22,-24.96 99.02,-18.37 116.81,-14.78"/>
<polygon fill="#9a32cd" stroke="#9a32cd" points="47.82,-55.16 47.7,-65.75 54.4,-57.55 47.82,-55.16"/>
</a>
</g>
<text text-anchor="middle" x="110.5" y="-40" font-family="Helvetica,sans-Serif" font-size="10.00" fill="grey"> m_primaryHeader</text>
</g>
<!-- Node3 -->
<g id="Node000003" class="node">
<title>Node3</title>
<g id="a_Node000003"><a xlink:href="classCCSDS_1_1DataField.html" target="_top" xlink:title="Represents the data field of a CCSDS packet.">
<polygon fill="white" stroke="#666666" points="211.5,-85 109.5,-85 109.5,-66 211.5,-66 211.5,-85"/>
<text text-anchor="middle" x="160.5" y="-73" font-family="Helvetica,sans-Serif" font-size="10.00">CCSDS::DataField</text>
</a>
</g>
</g>
<!-- Node3&#45;&gt;Node1 -->
<g id="edge2_Node000001_Node000003" class="edge">
<title>Node3&#45;&gt;Node1</title>
<g id="a_edge2_Node000001_Node000003"><a xlink:title=" ">
<path fill="none" stroke="#9a32cd" stroke-dasharray="5,2" d="M160.5,-55.58C160.5,-43.63 160.5,-28.72 160.5,-19.41"/>
<polygon fill="#9a32cd" stroke="#9a32cd" points="157,-55.87 160.5,-65.87 164,-55.87 157,-55.87"/>
</a>
</g>
<text text-anchor="middle" x="192.5" y="-40" font-family="Helvetica,sans-Serif" font-size="10.00" fill="grey"> m_dataField</text>
</g>
<!-- Node4 -->
<g id="Node000004" class="node">
<title>Node4</title>
<g id="a_Node000004"><a xlink:href="classCCSDS_1_1SecondaryHeaderFactory.html" target="_top" xlink:title="A singleton factory class responsible for registering and creating instances of SecondaryHeaderAbstra...">
<polygon fill="white" stroke="#666666" points="249,-151 72,-151 72,-132 249,-132 249,-151"/>
<text text-anchor="middle" x="160.5" y="-139" font-family="Helvetica,sans-Serif" font-size="10.00">CCSDS::SecondaryHeaderFactory</text>
</a>
</g>
</g>
<!-- Node4&#45;&gt;Node3 -->
<g id="edge3_Node000003_Node000004" class="edge">
<title>Node4&#45;&gt;Node3</title>
<g id="a_edge3_Node000003_Node000004"><a xlink:title=" ">
<path fill="none" stroke="#9a32cd" stroke-dasharray="5,2" d="M160.5,-121.58C160.5,-109.63 160.5,-94.72 160.5,-85.41"/>
<polygon fill="#9a32cd" stroke="#9a32cd" points="157,-121.87 160.5,-131.87 164,-121.87 157,-121.87"/>
</a>
</g>
<text text-anchor="middle" x="230" y="-106" font-family="Helvetica,sans-Serif" font-size="10.00" fill="grey"> m_secondaryHeaderFactory</text>
</g>
<!-- Node5 -->
<g id="Node000005" class="node">
<title>Node5</title>
<g id="a_Node000005"><a xlink:href="structCCSDS_1_1CRC16Config.html" target="_top" xlink:title="Configuration structure for CRC16 calculation parameters.">
<polygon fill="white" stroke="#666666" points="349,-85 230,-85 230,-66 349,-66 349,-85"/>
<text text-anchor="middle" x="289.5" y="-73" font-family="Helvetica,sans-Serif" font-size="10.00">CCSDS::CRC16Config</text>
</a>
</g>
</g>
<!-- Node5&#45;&gt;Node1 -->
<g id="edge4_Node000001_Node000005" class="edge">
<title>Node5&#45;&gt;Node1</title>
<g id="a_edge4_Node000001_Node000005"><a xlink:title=" ">
<path fill="none" stroke="#9a32cd" stroke-dasharray="5,2" d="M268.33,-60.18C256.83,-52.74 242.2,-43.81 228.5,-37 214.66,-30.12 198.57,-23.78 185.51,-19.02"/>
<polygon fill="#9a32cd" stroke="#9a32cd" points="266.52,-63.18 276.8,-65.76 270.37,-57.33 266.52,-63.18"/>
</a>
</g>
<text text-anchor="middle" x="288.5" y="-40" font-family="Helvetica,sans-Serif" font-size="10.00" fill="grey"> m_CRC16Config</text>
</g>
</g>
</svg>
