<?xml version="1.0" encoding="UTF-8" standalone="no"?>
<!DOCTYPE svg PUBLIC "-//W3C//DTD SVG 1.1//EN"
 "http://www.w3.org/Graphics/SVG/1.1/DTD/svg11.dtd">
<!-- Generated by graphviz version 2.43.0 (0)
 -->
<!-- Title: Config::get Pages: 1 -->
<!--zoomable 373 -->

<svg id="main" version="1.1" xmlns="http://www.w3.org/2000/svg" xmlns:xlink="http://www.w3.org/1999/xlink" xml:space="preserve" onload="init(evt)">
<style type="text/css"><![CDATA[
.node, .edge {opacity: 0.7;}
.node.selected, .edge.selected {opacity: 1;}
.edge:hover path { stroke: red; }
.edge:hover polygon { stroke: red; fill: red; }
]]></style>

<defs>
  <circle id="rim" cx="0" cy="0" r="7"/>
  <circle id="rim2" cx="0" cy="0" r="3.5"/>
  <g id="zoomPlus">
    <use xlink:href="#rim" fill="#404040"><set attributeName="fill" to="#808080" begin="zoomplus.mouseover" end="zoomplus.mouseout"/></use>
    <path d="M-4,0h8M0,-4v8" fill="none" stroke="white" stroke-width="1.5" pointer-events="none"/>
  </g>
  <g id="zoomMin">
    <use xlink:href="#rim" fill="#404040"><set attributeName="fill" to="#808080" begin="zoomminus.mouseover" end="zoomminus.mouseout"/></use>
    <path d="M-4,0h8" fill="none" stroke="white" stroke-width="1.5" pointer-events="none"/>
  </g>
  <g id="arrowUp" transform="translate(30 24)">
    <use xlink:href="#rim"/>
    <path pointer-events="none" fill="none" stroke="white" stroke-width="1.5" d="M0,-3.0v7 M-2.5,-0.5L0,-3.0L2.5,-0.5"/>
  </g>
  <g id="arrowRight" transform="rotate(90) translate(36 -43)">
    <use xlink:href="#rim"/>
    <path pointer-events="none" fill="none" stroke="white" stroke-width="1.5" d="M0,-3.0v7 M-2.5,-0.5L0,-3.0L2.5,-0.5"/>
  </g>
  <g id="arrowDown" transform="rotate(180) translate(-30 -48)">
    <use xlink:href="#rim"/>
    <path pointer-events="none" fill="none" stroke="white" stroke-width="1.5" d="M0,-3.0v7 M-2.5,-0.5L0,-3.0L2.5,-0.5"/>
  </g>
  <g id="arrowLeft" transform="rotate(270) translate(-36 17)">
    <use xlink:href="#rim"/>
    <path pointer-events="none" fill="none" stroke="white" stroke-width="1.5" d="M0,-3.0v7 M-2.5,-0.5L0,-3.0L2.5,-0.5"/>
  </g>
  <g id="resetDef">
    <use xlink:href="#rim2" fill="#404040"><set attributeName="fill" to="#808080" begin="reset.mouseover" end="reset.mouseout"/></use>
  </g>
</defs>
<script type="application/ecmascript">
var viewWidth = 857;
var viewHeight = 373;
var sectionId = 'dynsection-0';
</script>
<script type="application/ecmascript" xlink:href="svg.min.js"/>
<svg id="graph" class="graph">
<g id="viewport">
<title>Config::get</title>
<!-- Node1 -->
<g id="Node000001" class="node">
<title>Node1</title>
<g id="a_Node000001"><a xlink:title="Get value by key and type.">
<polygon fill="#999999" stroke="#666666" points="849,-192 780,-192 780,-173 849,-173 849,-192"/>
<text text-anchor="middle" x="814.5" y="-180" font-family="Helvetica,sans-Serif" font-size="10.00">Config::get</text>
</a>
</g>
</g>
<!-- Node2 -->
<g id="Node000002" class="node">
<title>Node2</title>
<g id="a_Node000002"><a xlink:href="classConfig.html#a093d1897ebdb889d382706a73b02d249" target="_top" xlink:title=" ">
<polygon fill="white" stroke="#666666" points="730,-251 650,-251 650,-232 730,-232 730,-251"/>
<text text-anchor="middle" x="690" y="-239" font-family="Helvetica,sans-Serif" font-size="10.00">Config::isKey</text>
</a>
</g>
</g>
<!-- Node1&#45;&gt;Node2 -->
<g id="edge1_Node000001_Node000002" class="edge">
<title>Node1&#45;&gt;Node2</title>
<g id="a_edge1_Node000001_Node000002"><a xlink:title=" ">
<path fill="none" stroke="#63b8ff" d="M784.99,-196.56C772.44,-202.72 757.51,-210.01 744,-216.5 733.27,-221.65 721.28,-227.32 711.42,-231.95"/>
<polygon fill="#63b8ff" stroke="#63b8ff" points="786.63,-199.65 794.06,-192.1 783.55,-193.37 786.63,-199.65"/>
</a>
</g>
</g>
<!-- Node3 -->
<g id="Node000003" class="node">
<title>Node3</title>
<g id="a_Node000003"><a xlink:href="classPusA.html#a9eccdecae6c7893fd19bb78a524fb07a" target="_top" xlink:title=" ">
<polygon fill="white" stroke="#666666" points="576.5,-365 453.5,-365 453.5,-346 576.5,-346 576.5,-365"/>
<text text-anchor="middle" x="515" y="-353" font-family="Helvetica,sans-Serif" font-size="10.00">PusA::loadFromConfig</text>
</a>
</g>
</g>
<!-- Node1&#45;&gt;Node3 -->
<g id="edge16_Node000001_Node000003" class="edge">
<title>Node1&#45;&gt;Node3</title>
<g id="a_edge16_Node000001_Node000003"><a xlink:title=" ">
<path fill="none" stroke="#63b8ff" d="M809.23,-202.4C801.67,-232.51 782.9,-289.12 744,-317.5 695.69,-352.74 626.38,-359.83 576.88,-359.6"/>
<polygon fill="#63b8ff" stroke="#63b8ff" points="812.73,-202.81 811.6,-192.28 805.92,-201.22 812.73,-202.81"/>
</a>
</g>
</g>
<!-- Node4 -->
<g id="Node000004" class="node">
<title>Node4</title>
<g id="a_Node000004"><a xlink:href="classPusB.html#af2f47f483c90e6a4cc33ebd36f3a3c06" target="_top" xlink:title=" ">
<polygon fill="white" stroke="#666666" points="576.5,-328 453.5,-328 453.5,-309 576.5,-309 576.5,-328"/>
<text text-anchor="middle" x="515" y="-316" font-family="Helvetica,sans-Serif" font-size="10.00">PusB::loadFromConfig</text>
</a>
</g>
</g>
<!-- Node1&#45;&gt;Node4 -->
<g id="edge17_Node000001_Node000004" class="edge">
<title>Node1&#45;&gt;Node4</title>
<g id="a_edge17_Node000001_Node000004"><a xlink:title=" ">
<path fill="none" stroke="#63b8ff" d="M806.63,-201.6C796.8,-225.93 776.26,-267.25 744,-287.5 693.93,-318.94 625.55,-324.39 576.76,-323.39"/>
<polygon fill="#63b8ff" stroke="#63b8ff" points="809.98,-202.63 810.29,-192.04 803.45,-200.12 809.98,-202.63"/>
</a>
</g>
</g>
<!-- Node5 -->
<g id="Node000005" class="node">
<title>Node5</title>
<g id="a_Node000005"><a xlink:href="classPusC.html#a7a76afa586580e25a6e471add7151a4c" target="_top" xlink:title=" ">
<polygon fill="white" stroke="#666666" points="576.5,-291 453.5,-291 453.5,-272 576.5,-272 576.5,-291"/>
<text text-anchor="middle" x="515" y="-279" font-family="Helvetica,sans-Serif" font-size="10.00">PusC::loadFromConfig</text>
</a>
</g>
</g>
<!-- Node1&#45;&gt;Node5 -->
<g id="edge18_Node000001_Node000005" class="edge">
<title>Node1&#45;&gt;Node5</title>
<g id="a_edge18_Node000001_Node000005"><a xlink:title=" ">
<path fill="none" stroke="#63b8ff" d="M803.02,-200.75C791.26,-219.32 770.34,-247.21 744,-260.5 692.01,-286.74 624.86,-289.82 576.92,-287.66"/>
<polygon fill="#63b8ff" stroke="#63b8ff" points="806.13,-202.38 808.32,-192.01 800.14,-198.75 806.13,-202.38"/>
</a>
</g>
</g>
<!-- Node6 -->
<g id="Node000006" class="node">
<title>Node6</title>
<g id="a_Node000006"><a xlink:href="classCCSDS_1_1Packet.html#a69d4cb8111cfec9f231568cfc262e97e" target="_top" xlink:title="Loads a packet from a configuration object, including secondary header if present.">
<polygon fill="white" stroke="#666666" points="600,-215 430,-215 430,-196 600,-196 600,-215"/>
<text text-anchor="middle" x="515" y="-203" font-family="Helvetica,sans-Serif" font-size="10.00">CCSDS::Packet::loadFromConfig</text>
</a>
</g>
</g>
<!-- Node1&#45;&gt;Node6 -->
<g id="edge19_Node000001_Node000006" class="edge">
<title>Node1&#45;&gt;Node6</title>
<g id="a_edge19_Node000001_Node000006"><a xlink:title=" ">
<path fill="none" stroke="#63b8ff" d="M769.74,-186.36C761.21,-187.09 752.32,-187.83 744,-188.5 696.42,-192.33 643.24,-196.31 600.21,-199.46"/>
<polygon fill="#63b8ff" stroke="#63b8ff" points="770.26,-189.82 779.92,-185.48 769.66,-182.85 770.26,-189.82"/>
</a>
</g>
</g>
<!-- Node8 -->
<g id="Node000008" class="node">
<title>Node8</title>
<g id="a_Node000008"><a xlink:href="exec__decoder_8cpp.html#a638b85ceffac097c2aa79b76ba8c055e" target="_top" xlink:title=" ">
<polygon fill="white" stroke="#666666" points="106,-153 65,-153 65,-134 106,-134 106,-153"/>
<text text-anchor="middle" x="85.5" y="-141" font-family="Helvetica,sans-Serif" font-size="10.00">main</text>
</a>
</g>
</g>
<!-- Node1&#45;&gt;Node8 -->
<g id="edge20_Node000001_Node000008" class="edge">
<title>Node1&#45;&gt;Node8</title>
<g id="a_edge20_Node000001_Node000008"><a xlink:title=" ">
<path fill="none" stroke="#63b8ff" d="M770,-170.76C727.14,-159.86 659.62,-144.44 600,-138.5 408.38,-119.4 174.55,-136.09 106.16,-141.77"/>
<polygon fill="#63b8ff" stroke="#63b8ff" points="769.26,-174.19 779.82,-173.29 771.01,-167.41 769.26,-174.19"/>
</a>
</g>
</g>
<!-- Node10 -->
<g id="Node000010" class="node">
<title>Node10</title>
<g id="a_Node000010"><a xlink:href="classCCSDS_1_1DataField.html#a723659bd61e24b21d2398bc88a95db86" target="_top" xlink:title="Sets the data field header using a configuration file as reference.">
<polygon fill="white" stroke="#666666" points="588,-177.5 442,-177.5 442,-147.5 588,-147.5 588,-177.5"/>
<text text-anchor="start" x="450" y="-165.5" font-family="Helvetica,sans-Serif" font-size="10.00">CCSDS::DataField::setData</text>
<text text-anchor="middle" x="515" y="-154.5" font-family="Helvetica,sans-Serif" font-size="10.00">FieldHeader</text>
</a>
</g>
</g>
<!-- Node1&#45;&gt;Node10 -->
<g id="edge25_Node000001_Node000010" class="edge">
<title>Node1&#45;&gt;Node10</title>
<g id="a_edge25_Node000001_Node000010"><a xlink:title=" ">
<path fill="none" stroke="#63b8ff" d="M769.94,-179.57C722.22,-176.36 644.92,-171.17 588.12,-167.35"/>
<polygon fill="#63b8ff" stroke="#63b8ff" points="769.74,-183.07 779.95,-180.24 770.21,-176.08 769.74,-183.07"/>
</a>
</g>
</g>
<!-- Node11 -->
<g id="Node000011" class="node">
<title>Node11</title>
<g id="a_Node000011"><a xlink:href="classConfig.html#a666e6d9c5510736d8ef85564abe834dd" target="_top" xlink:title="Load config file.">
<polygon fill="white" stroke="#666666" points="552,-56 478,-56 478,-37 552,-37 552,-56"/>
<text text-anchor="middle" x="515" y="-44" font-family="Helvetica,sans-Serif" font-size="10.00">Config::load</text>
</a>
</g>
</g>
<!-- Node1&#45;&gt;Node11 -->
<g id="edge11_Node000001_Node000011" class="edge">
<title>Node1&#45;&gt;Node11</title>
<g id="a_edge11_Node000001_Node000011"><a xlink:title=" ">
<path fill="none" stroke="#63b8ff" d="M801.18,-164.51C788.69,-147.6 767.84,-122.82 744,-108.5 682.82,-71.73 599.48,-56.3 552.36,-50.19"/>
<polygon fill="#63b8ff" stroke="#63b8ff" points="798.57,-166.87 807.23,-172.97 804.27,-162.8 798.57,-166.87"/>
</a>
</g>
</g>
<!-- Node15 -->
<g id="Node000015" class="node">
<title>Node15</title>
<g id="a_Node000015"><a xlink:href="classConfig.html#a0c3a6f1dbed78a72da53833b419491d9" target="_top" xlink:title="Parse string &quot;[1,2,3]&quot; into vector&lt;uint8_t&gt;">
<polygon fill="white" stroke="#666666" points="744,-56 636,-56 636,-37 744,-37 744,-56"/>
<text text-anchor="middle" x="690" y="-44" font-family="Helvetica,sans-Serif" font-size="10.00">Config::parseBytes</text>
</a>
</g>
</g>
<!-- Node1&#45;&gt;Node15 -->
<g id="edge21_Node000001_Node000015" class="edge">
<title>Node1&#45;&gt;Node15</title>
<g id="a_edge21_Node000001_Node000015"><a xlink:title=" ">
<path fill="none" stroke="#63b8ff" d="M805.91,-163.52C795.31,-139.13 773.95,-96.78 744,-70.5 737.09,-64.44 728.4,-59.65 720.06,-56"/>
<polygon fill="#63b8ff" stroke="#63b8ff" points="802.7,-164.91 809.79,-172.78 809.15,-162.21 802.7,-164.91"/>
</a>
</g>
</g>
<!-- Node16 -->
<g id="Node000016" class="node">
<title>Node16</title>
<g id="a_Node000016"><a xlink:href="classConfig.html#ae9010d142dcb6a29be942eb3b1513dda" target="_top" xlink:title="Parse a single line from config.">
<polygon fill="white" stroke="#666666" points="740.5,-19 639.5,-19 639.5,0 740.5,0 740.5,-19"/>
<text text-anchor="middle" x="690" y="-7" font-family="Helvetica,sans-Serif" font-size="10.00">Config::parseLine</text>
</a>
</g>
</g>
<!-- Node1&#45;&gt;Node16 -->
<g id="edge23_Node000001_Node000016" class="edge">
<title>Node1&#45;&gt;Node16</title>
<g id="a_edge23_Node000001_Node000016"><a xlink:title=" ">
<path fill="none" stroke="#63b8ff" d="M809.96,-162.86C803.06,-130.18 784.78,-64.61 744,-27.5 740.26,-24.1 735.86,-21.34 731.21,-19.09"/>
<polygon fill="#63b8ff" stroke="#63b8ff" points="806.58,-163.8 811.94,-172.94 813.45,-162.45 806.58,-163.8"/>
</a>
</g>
</g>
<!-- Node2&#45;&gt;Node3 -->
<g id="edge2_Node000002_Node000003" class="edge">
<title>Node2&#45;&gt;Node3</title>
<g id="a_edge2_Node000002_Node000003"><a xlink:title=" ">
<path fill="none" stroke="#63b8ff" d="M677.39,-259.67C662.31,-281.69 633.88,-318.23 600,-337.5 592.87,-341.56 584.93,-344.7 576.85,-347.14"/>
<polygon fill="#63b8ff" stroke="#63b8ff" points="680.38,-261.48 683.01,-251.22 674.56,-257.61 680.38,-261.48"/>
</a>
</g>
</g>
<!-- Node2&#45;&gt;Node4 -->
<g id="edge3_Node000002_Node000004" class="edge">
<title>Node2&#45;&gt;Node4</title>
<g id="a_edge3_Node000002_Node000004"><a xlink:title=" ">
<path fill="none" stroke="#63b8ff" d="M669.58,-257.5C652.33,-270.93 625.9,-289.6 600,-300.5 591.89,-303.91 583.06,-306.71 574.26,-308.99"/>
<polygon fill="#63b8ff" stroke="#63b8ff" points="672.07,-260 677.72,-251.03 667.71,-254.52 672.07,-260"/>
</a>
</g>
</g>
<!-- Node2&#45;&gt;Node5 -->
<g id="edge4_Node000002_Node000005" class="edge">
<title>Node2&#45;&gt;Node5</title>
<g id="a_edge4_Node000002_Node000005"><a xlink:title=" ">
<path fill="none" stroke="#63b8ff" d="M639.68,-252.9C613.61,-258.93 581.96,-266.25 557.21,-271.97"/>
<polygon fill="#63b8ff" stroke="#63b8ff" points="640.79,-256.24 649.74,-250.58 639.21,-249.42 640.79,-256.24"/>
</a>
</g>
</g>
<!-- Node2&#45;&gt;Node6 -->
<g id="edge5_Node000002_Node000006" class="edge">
<title>Node2&#45;&gt;Node6</title>
<g id="a_edge5_Node000002_Node000006"><a xlink:title=" ">
<path fill="none" stroke="#63b8ff" d="M639.92,-231.29C615.39,-226.18 585.9,-220.05 561.84,-215.04"/>
<polygon fill="#63b8ff" stroke="#63b8ff" points="639.24,-234.72 649.74,-233.33 640.67,-227.87 639.24,-234.72"/>
</a>
</g>
</g>
<!-- Node2&#45;&gt;Node8 -->
<g id="edge9_Node000002_Node000008" class="edge">
<title>Node2&#45;&gt;Node8</title>
<g id="a_edge9_Node000002_Node000008"><a xlink:title=" ">
<path fill="none" stroke="#63b8ff" d="M639.89,-248.44C550.98,-259.13 358.51,-273.62 207,-224.5 160.72,-209.5 115.73,-171.08 96.39,-153.08"/>
<polygon fill="#63b8ff" stroke="#63b8ff" points="640.46,-251.9 649.96,-247.19 639.6,-244.95 640.46,-251.9"/>
</a>
</g>
</g>
<!-- Node2&#45;&gt;Node10 -->
<g id="edge10_Node000002_Node000010" class="edge">
<title>Node2&#45;&gt;Node10</title>
<g id="a_edge10_Node000002_Node000010"><a xlink:title=" ">
<path fill="none" stroke="#63b8ff" d="M667.73,-226.02C650.26,-213.89 624.48,-197.31 600,-186.5 592.51,-183.19 584.44,-180.21 576.37,-177.57"/>
<polygon fill="#63b8ff" stroke="#63b8ff" points="665.88,-229 676.06,-231.91 669.92,-223.28 665.88,-229"/>
</a>
</g>
</g>
<!-- Node7 -->
<g id="Node000007" class="node">
<title>Node7</title>
<g id="a_Node000007"><a xlink:href="classCCSDS_1_1Manager.html#a8adf5ba17eb8041092bcd6c4f1f2b135" target="_top" xlink:title="Loads a template packet from a configuration object.">
<polygon fill="white" stroke="#666666" points="385.5,-177.5 215.5,-177.5 215.5,-147.5 385.5,-147.5 385.5,-177.5"/>
<text text-anchor="start" x="223.5" y="-165.5" font-family="Helvetica,sans-Serif" font-size="10.00">CCSDS::Manager::loadTemplate</text>
<text text-anchor="middle" x="300.5" y="-154.5" font-family="Helvetica,sans-Serif" font-size="10.00">Config</text>
</a>
</g>
</g>
<!-- Node6&#45;&gt;Node7 -->
<g id="edge6_Node000006_Node000007" class="edge">
<title>Node6&#45;&gt;Node7</title>
<g id="a_edge6_Node000006_Node000007"><a xlink:title=" ">
<path fill="none" stroke="#63b8ff" d="M456.81,-193.93C431.85,-188.88 402.27,-182.89 375.66,-177.51"/>
<polygon fill="#63b8ff" stroke="#63b8ff" points="456.34,-197.4 466.84,-195.96 457.73,-190.54 456.34,-197.4"/>
</a>
</g>
</g>
<!-- Node9 -->
<g id="Node000009" class="node">
<title>Node9</title>
<g id="a_Node000009"><a xlink:href="exec__validator_8cpp.html#a638b85ceffac097c2aa79b76ba8c055e" target="_top" xlink:title=" ">
<polygon fill="white" stroke="#666666" points="321,-215 280,-215 280,-196 321,-196 321,-215"/>
<text text-anchor="middle" x="300.5" y="-203" font-family="Helvetica,sans-Serif" font-size="10.00">main</text>
</a>
</g>
</g>
<!-- Node6&#45;&gt;Node9 -->
<g id="edge8_Node000006_Node000009" class="edge">
<title>Node6&#45;&gt;Node9</title>
<g id="a_edge8_Node000006_Node000009"><a xlink:title=" ">
<path fill="none" stroke="#63b8ff" d="M419.41,-205.5C382.68,-205.5 344.06,-205.5 321.41,-205.5"/>
<polygon fill="#63b8ff" stroke="#63b8ff" points="419.71,-209 429.71,-205.5 419.71,-202 419.71,-209"/>
</a>
</g>
</g>
<!-- Node7&#45;&gt;Node8 -->
<g id="edge7_Node000007_Node000008" class="edge">
<title>Node7&#45;&gt;Node8</title>
<g id="a_edge7_Node000007_Node000008"><a xlink:title=" ">
<path fill="none" stroke="#63b8ff" d="M204.92,-154.06C167.83,-150.75 128.78,-147.27 106.09,-145.25"/>
<polygon fill="#63b8ff" stroke="#63b8ff" points="205.05,-157.59 215.32,-154.99 205.67,-150.62 205.05,-157.59"/>
</a>
</g>
</g>
<!-- Node11&#45;&gt;Node8 -->
<g id="edge15_Node000011_Node000008" class="edge">
<title>Node11&#45;&gt;Node8</title>
<g id="a_edge15_Node000011_Node000008"><a xlink:title=" ">
<path fill="none" stroke="#63b8ff" d="M467.8,-53.67C407.4,-63.43 298.52,-82.36 207,-105.5 171.06,-114.59 130.06,-128.24 106.34,-136.47"/>
<polygon fill="#63b8ff" stroke="#63b8ff" points="468.46,-57.11 477.78,-52.07 467.35,-50.19 468.46,-57.11"/>
</a>
</g>
</g>
<!-- Node12 -->
<g id="Node000012" class="node">
<title>Node12</title>
<g id="a_Node000012"><a xlink:href="classCCSDS_1_1Packet.html#a9ba3b255c1cd19b48a11dba5fc8819ff" target="_top" xlink:title="Loads a packet from a configuration file, including secondary header if present.">
<polygon fill="white" stroke="#666666" points="394,-53 207,-53 207,-34 394,-34 394,-53"/>
<text text-anchor="middle" x="300.5" y="-41" font-family="Helvetica,sans-Serif" font-size="10.00">CCSDS::Packet::loadFromConfigFile</text>
</a>
</g>
</g>
<!-- Node11&#45;&gt;Node12 -->
<g id="edge12_Node000011_Node000012" class="edge">
<title>Node11&#45;&gt;Node12</title>
<g id="a_edge12_Node000011_Node000012"><a xlink:title=" ">
<path fill="none" stroke="#63b8ff" d="M467.76,-45.85C446.14,-45.54 419.59,-45.17 394.11,-44.81"/>
<polygon fill="#63b8ff" stroke="#63b8ff" points="467.9,-49.35 477.95,-45.99 468,-42.35 467.9,-49.35"/>
</a>
</g>
</g>
<!-- Node13 -->
<g id="Node000013" class="node">
<title>Node13</title>
<g id="a_Node000013"><a xlink:href="classCCSDS_1_1Manager.html#a063eeb88f124db9af02bd033e95733b1" target="_top" xlink:title="Loads a template packet from a configuration file.">
<polygon fill="white" stroke="#666666" points="170.5,-96.5 0.5,-96.5 0.5,-66.5 170.5,-66.5 170.5,-96.5"/>
<text text-anchor="start" x="8.5" y="-84.5" font-family="Helvetica,sans-Serif" font-size="10.00">CCSDS::Manager::loadTemplate</text>
<text text-anchor="middle" x="85.5" y="-73.5" font-family="Helvetica,sans-Serif" font-size="10.00">ConfigFile</text>
</a>
</g>
</g>
<!-- Node12&#45;&gt;Node13 -->
<g id="edge13_Node000012_Node000013" class="edge">
<title>Node12&#45;&gt;Node13</title>
<g id="a_edge13_Node000012_Node000013"><a xlink:title=" ">
<path fill="none" stroke="#63b8ff" d="M236.17,-54.8C215.63,-58.46 192.51,-62.59 170.7,-66.48"/>
<polygon fill="#63b8ff" stroke="#63b8ff" points="236.8,-58.24 246.03,-53.04 235.57,-51.35 236.8,-58.24"/>
</a>
</g>
</g>
<!-- Node14 -->
<g id="Node000014" class="node">
<title>Node14</title>
<g id="a_Node000014"><a xlink:href="classCCSDS_1_1Manager.html#a44c3bccc78ccf59d9432935e43283342" target="_top" xlink:title="Load a template packet from a binary or configuration file.">
<polygon fill="white" stroke="#666666" points="171,-48 0,-48 0,-29 171,-29 171,-48"/>
<text text-anchor="middle" x="85.5" y="-36" font-family="Helvetica,sans-Serif" font-size="10.00">CCSDS::Manager::readTemplate</text>
</a>
</g>
</g>
<!-- Node12&#45;&gt;Node14 -->
<g id="edge14_Node000012_Node000014" class="edge">
<title>Node12&#45;&gt;Node14</title>
<g id="a_edge14_Node000012_Node000014"><a xlink:title=" ">
<path fill="none" stroke="#63b8ff" d="M196.44,-41.08C188.02,-40.88 179.56,-40.68 171.29,-40.49"/>
<polygon fill="#63b8ff" stroke="#63b8ff" points="196.62,-44.59 206.69,-41.32 196.78,-37.59 196.62,-44.59"/>
</a>
</g>
</g>
<!-- Node15&#45;&gt;Node11 -->
<g id="edge22_Node000015_Node000011" class="edge">
<title>Node15&#45;&gt;Node11</title>
<g id="a_edge22_Node000015_Node000011"><a xlink:title=" ">
<path fill="none" stroke="#63b8ff" d="M625.63,-46.5C600.89,-46.5 573.42,-46.5 552.17,-46.5"/>
<polygon fill="#63b8ff" stroke="#63b8ff" points="625.68,-50 635.68,-46.5 625.68,-43 625.68,-50"/>
</a>
</g>
</g>
<!-- Node16&#45;&gt;Node11 -->
<g id="edge24_Node000016_Node000011" class="edge">
<title>Node16&#45;&gt;Node11</title>
<g id="a_edge24_Node000016_Node000011"><a xlink:title=" ">
<path fill="none" stroke="#63b8ff" d="M634.43,-21.17C607.62,-26.9 576.05,-33.66 552.25,-38.75"/>
<polygon fill="#63b8ff" stroke="#63b8ff" points="635.4,-24.54 644.45,-19.03 633.94,-17.7 635.4,-24.54"/>
</a>
</g>
</g>
</g>
</svg>

<g id="navigator" transform="translate(0 0)" fill="#404254">
  <rect fill="#f2f5e9" fill-opacity="0.5" stroke="#606060" stroke-width=".5" x="0" y="0" width="60" height="60"/>
  <use id="zoomplus" xlink:href="#zoomPlus" x="17" y="9" onmousedown="handleZoom(evt,'in')"/>
  <use id="zoomminus" xlink:href="#zoomMin" x="42" y="9" onmousedown="handleZoom(evt,'out')"/>
  <use id="reset" xlink:href="#resetDef" x="30" y="36" onmousedown="handleReset()"/>
   <use id="arrowup" xlink:href="#arrowUp" x="0" y="0" onmousedown="handlePan(0,-1)"/>
  <use id="arrowright" xlink:href="#arrowRight" x="0" y="0" onmousedown="handlePan(1,0)"/>
  <use id="arrowdown" xlink:href="#arrowDown" x="0" y="0" onmousedown="handlePan(0,1)"/>
  <use id="arrowleft" xlink:href="#arrowLeft" x="0" y="0" onmousedown="handlePan(-1,0)"/>
</g>
<svg viewBox="0 0 15 15" width="100%" height="30px" preserveAspectRatio="xMaxYMin meet">
 <g id="arrow_out" transform="scale(0.3 0.3)">
  <a xlink:href="classConfig_ac0eb207d3a0c9b3039000301c612aadb_icgraph_org.svg" target="_base">
   <rect id="button" ry="5" rx="5" y="6" x="6" height="38" width="38"
        fill="#f2f5e9" fill-opacity="0.5" stroke="#606060" stroke-width="1.0"/>
   <path id="arrow"
     d="M 11.500037,31.436501 C 11.940474,20.09759 22.043105,11.32322 32.158766,21.979434 L 37.068811,17.246167 C 37.068811,17.246167 37.088388,32 37.088388,32 L 22.160133,31.978069 C 22.160133,31.978069 26.997745,27.140456 26.997745,27.140456 C 18.528582,18.264221 13.291696,25.230495 11.500037,31.436501 z"
     style="fill:#404040;"/>
  </a>
 </g>
</svg>

<style type='text/css'>
<![CDATA[
[data-mouse-over-selected='false'] { opacity: 0.7; }
[data-mouse-over-selected='true']  { opacity: 1.0; }
]]>
</style>
<script type="application/ecmascript"><![CDATA[
document.addEventListener('DOMContentLoaded', (event) => {
  highlightEdges();
  highlightAdjacentNodes();
});
]]></script>
</svg>
