<?xml version="1.0" encoding="UTF-8" standalone="no"?>
<!DOCTYPE svg PUBLIC "-//W3C//DTD SVG 1.1//EN"
 "http://www.w3.org/Graphics/SVG/1.1/DTD/svg11.dtd">
<!-- Generated by graphviz version 2.43.0 (0)
 -->
<!-- Title: Config::isKey Pages: 1 -->
<svg width="577pt" height="225pt"
 viewBox="0.00 0.00 577.00 224.50" xmlns="http://www.w3.org/2000/svg" xmlns:xlink="http://www.w3.org/1999/xlink">
<g id="graph0" class="graph" transform="scale(1 1) rotate(0) translate(4 220.5)">
<title>Config::isKey</title>
<!-- Node1 -->
<g id="Node000001" class="node">
<title>Node1</title>
<g id="a_Node000001"><a xlink:title=" ">
<polygon fill="#999999" stroke="#666666" points="569,-123.5 489,-123.5 489,-104.5 569,-104.5 569,-123.5"/>
<text text-anchor="middle" x="529" y="-111.5" font-family="Helvetica,sans-Serif" font-size="10.00">Config::isKey</text>
</a>
</g>
</g>
<!-- Node2 -->
<g id="Node000002" class="node">
<title>Node2</title>
<g id="a_Node000002"><a xlink:href="classPusA.html#a9eccdecae6c7893fd19bb78a524fb07a" target="_top" xlink:title=" ">
<polygon fill="white" stroke="#666666" points="429.5,-216.5 306.5,-216.5 306.5,-197.5 429.5,-197.5 429.5,-216.5"/>
<text text-anchor="middle" x="368" y="-204.5" font-family="Helvetica,sans-Serif" font-size="10.00">PusA::loadFromConfig</text>
</a>
</g>
</g>
<!-- Node1&#45;&gt;Node2 -->
<g id="edge1_Node000001_Node000002" class="edge">
<title>Node1&#45;&gt;Node2</title>
<g id="a_edge1_Node000001_Node000002"><a xlink:title=" ">
<path fill="none" stroke="#63b8ff" d="M515.21,-131.76C501.73,-149.11 478.9,-174.91 453,-189 445.79,-192.92 437.81,-195.99 429.71,-198.39"/>
<polygon fill="#63b8ff" stroke="#63b8ff" points="518.16,-133.66 521.37,-123.56 512.57,-129.45 518.16,-133.66"/>
</a>
</g>
</g>
<!-- Node3 -->
<g id="Node000003" class="node">
<title>Node3</title>
<g id="a_Node000003"><a xlink:href="classPusB.html#af2f47f483c90e6a4cc33ebd36f3a3c06" target="_top" xlink:title=" ">
<polygon fill="white" stroke="#666666" points="429.5,-179.5 306.5,-179.5 306.5,-160.5 429.5,-160.5 429.5,-179.5"/>
<text text-anchor="middle" x="368" y="-167.5" font-family="Helvetica,sans-Serif" font-size="10.00">PusB::loadFromConfig</text>
</a>
</g>
</g>
<!-- Node1&#45;&gt;Node3 -->
<g id="edge2_Node000001_Node000003" class="edge">
<title>Node1&#45;&gt;Node3</title>
<g id="a_edge2_Node000001_Node000003"><a xlink:title=" ">
<path fill="none" stroke="#63b8ff" d="M503.42,-128.49C489.11,-136.39 470.5,-145.81 453,-152 443.72,-155.28 433.64,-158.07 423.79,-160.4"/>
<polygon fill="#63b8ff" stroke="#63b8ff" points="505.17,-131.52 512.15,-123.55 501.72,-125.43 505.17,-131.52"/>
</a>
</g>
</g>
<!-- Node4 -->
<g id="Node000004" class="node">
<title>Node4</title>
<g id="a_Node000004"><a xlink:href="classPusC.html#a7a76afa586580e25a6e471add7151a4c" target="_top" xlink:title=" ">
<polygon fill="white" stroke="#666666" points="429.5,-142.5 306.5,-142.5 306.5,-123.5 429.5,-123.5 429.5,-142.5"/>
<text text-anchor="middle" x="368" y="-130.5" font-family="Helvetica,sans-Serif" font-size="10.00">PusC::loadFromConfig</text>
</a>
</g>
</g>
<!-- Node1&#45;&gt;Node4 -->
<g id="edge3_Node000001_Node000004" class="edge">
<title>Node1&#45;&gt;Node4</title>
<g id="a_edge3_Node000001_Node000004"><a xlink:title=" ">
<path fill="none" stroke="#63b8ff" d="M478.76,-119.88C463.18,-121.75 445.79,-123.82 429.52,-125.77"/>
<polygon fill="#63b8ff" stroke="#63b8ff" points="479.18,-123.36 488.7,-118.7 478.35,-116.41 479.18,-123.36"/>
</a>
</g>
</g>
<!-- Node5 -->
<g id="Node000005" class="node">
<title>Node5</title>
<g id="a_Node000005"><a xlink:href="classCCSDS_1_1Packet.html#a69d4cb8111cfec9f231568cfc262e97e" target="_top" xlink:title="Loads a packet from a configuration object, including secondary header if present.">
<polygon fill="white" stroke="#666666" points="453,-105.5 283,-105.5 283,-86.5 453,-86.5 453,-105.5"/>
<text text-anchor="middle" x="368" y="-93.5" font-family="Helvetica,sans-Serif" font-size="10.00">CCSDS::Packet::loadFromConfig</text>
</a>
</g>
</g>
<!-- Node1&#45;&gt;Node5 -->
<g id="edge4_Node000001_Node000005" class="edge">
<title>Node1&#45;&gt;Node5</title>
<g id="a_edge4_Node000001_Node000005"><a xlink:title=" ">
<path fill="none" stroke="#63b8ff" d="M478.62,-108.41C470.42,-107.48 461.73,-106.5 452.96,-105.51"/>
<polygon fill="#63b8ff" stroke="#63b8ff" points="478.37,-111.9 488.7,-109.55 479.15,-104.95 478.37,-111.9"/>
</a>
</g>
</g>
<!-- Node7 -->
<g id="Node000007" class="node">
<title>Node7</title>
<g id="a_Node000007"><a xlink:href="exec__decoder_8cpp.html#a638b85ceffac097c2aa79b76ba8c055e" target="_top" xlink:title=" ">
<polygon fill="white" stroke="#666666" points="41,-107.5 0,-107.5 0,-88.5 41,-88.5 41,-107.5"/>
<text text-anchor="middle" x="20.5" y="-95.5" font-family="Helvetica,sans-Serif" font-size="10.00">main</text>
</a>
</g>
</g>
<!-- Node1&#45;&gt;Node7 -->
<g id="edge8_Node000001_Node000007" class="edge">
<title>Node1&#45;&gt;Node7</title>
<g id="a_edge8_Node000001_Node000007"><a xlink:title=" ">
<path fill="none" stroke="#63b8ff" d="M504.88,-99.13C490.56,-90.82 471.44,-81.3 453,-77 290.26,-39.04 241.39,-46.94 77,-77 64.64,-79.26 51.45,-84.14 41.04,-88.62"/>
<polygon fill="#63b8ff" stroke="#63b8ff" points="503.17,-102.19 513.54,-104.35 506.78,-96.19 503.17,-102.19"/>
</a>
</g>
</g>
<!-- Node9 -->
<g id="Node000009" class="node">
<title>Node9</title>
<g id="a_Node000009"><a xlink:href="classCCSDS_1_1DataField.html#a723659bd61e24b21d2398bc88a95db86" target="_top" xlink:title="Sets the data field header using a configuration file as reference.">
<polygon fill="white" stroke="#666666" points="441,-30 295,-30 295,0 441,0 441,-30"/>
<text text-anchor="start" x="303" y="-18" font-family="Helvetica,sans-Serif" font-size="10.00">CCSDS::DataField::setData</text>
<text text-anchor="middle" x="368" y="-7" font-family="Helvetica,sans-Serif" font-size="10.00">FieldHeader</text>
</a>
</g>
</g>
<!-- Node1&#45;&gt;Node9 -->
<g id="edge9_Node000001_Node000009" class="edge">
<title>Node1&#45;&gt;Node9</title>
<g id="a_edge9_Node000001_Node000009"><a xlink:title=" ">
<path fill="none" stroke="#63b8ff" d="M512.84,-96.12C498.74,-80.47 476.44,-58.1 453,-44 443.88,-38.51 433.57,-33.87 423.38,-30.03"/>
<polygon fill="#63b8ff" stroke="#63b8ff" points="510.56,-98.82 519.79,-104.02 515.82,-94.2 510.56,-98.82"/>
</a>
</g>
</g>
<!-- Node6 -->
<g id="Node000006" class="node">
<title>Node6</title>
<g id="a_Node000006"><a xlink:href="classCCSDS_1_1Manager.html#a8adf5ba17eb8041092bcd6c4f1f2b135" target="_top" xlink:title="Loads a template packet from a configuration object.">
<polygon fill="white" stroke="#666666" points="247,-154 77,-154 77,-124 247,-124 247,-154"/>
<text text-anchor="start" x="85" y="-142" font-family="Helvetica,sans-Serif" font-size="10.00">CCSDS::Manager::loadTemplate</text>
<text text-anchor="middle" x="162" y="-131" font-family="Helvetica,sans-Serif" font-size="10.00">Config</text>
</a>
</g>
</g>
<!-- Node5&#45;&gt;Node6 -->
<g id="edge5_Node000005_Node000006" class="edge">
<title>Node5&#45;&gt;Node6</title>
<g id="a_edge5_Node000005_Node000006"><a xlink:title=" ">
<path fill="none" stroke="#63b8ff" d="M311.78,-107.64C287.89,-112.68 259.63,-118.63 234.19,-123.99"/>
<polygon fill="#63b8ff" stroke="#63b8ff" points="312.66,-111.03 321.73,-105.54 311.22,-104.18 312.66,-111.03"/>
</a>
</g>
</g>
<!-- Node8 -->
<g id="Node000008" class="node">
<title>Node8</title>
<g id="a_Node000008"><a xlink:href="exec__validator_8cpp.html#a638b85ceffac097c2aa79b76ba8c055e" target="_top" xlink:title=" ">
<polygon fill="white" stroke="#666666" points="182.5,-105.5 141.5,-105.5 141.5,-86.5 182.5,-86.5 182.5,-105.5"/>
<text text-anchor="middle" x="162" y="-93.5" font-family="Helvetica,sans-Serif" font-size="10.00">main</text>
</a>
</g>
</g>
<!-- Node5&#45;&gt;Node8 -->
<g id="edge7_Node000005_Node000008" class="edge">
<title>Node5&#45;&gt;Node8</title>
<g id="a_edge7_Node000005_Node000008"><a xlink:title=" ">
<path fill="none" stroke="#63b8ff" d="M272.84,-96C238.9,-96 203.8,-96 182.68,-96"/>
<polygon fill="#63b8ff" stroke="#63b8ff" points="272.85,-99.5 282.85,-96 272.85,-92.5 272.85,-99.5"/>
</a>
</g>
</g>
<!-- Node6&#45;&gt;Node7 -->
<g id="edge6_Node000006_Node000007" class="edge">
<title>Node6&#45;&gt;Node7</title>
<g id="a_edge6_Node000006_Node000007"><a xlink:title=" ">
<path fill="none" stroke="#63b8ff" d="M98.01,-121.14C90.92,-119.09 83.8,-117.01 77,-115 65.11,-111.48 51.84,-107.42 41.25,-104.15"/>
<polygon fill="#63b8ff" stroke="#63b8ff" points="97.05,-124.51 107.63,-123.92 98.99,-117.78 97.05,-124.51"/>
</a>
</g>
</g>
</g>
</svg>
