<?xml version="1.0" encoding="UTF-8" standalone="no"?>
<!DOCTYPE svg PUBLIC "-//W3C//DTD SVG 1.1//EN"
 "http://www.w3.org/Graphics/SVG/1.1/DTD/svg11.dtd">
<!-- Generated by graphviz version 2.43.0 (0)
 -->
<!-- Title: ccsds::Packet::getFullDataFieldBytes Pages: 1 -->
<svg width="403pt" height="56pt"
 viewBox="0.00 0.00 403.00 56.00" xmlns="http://www.w3.org/2000/svg" xmlns:xlink="http://www.w3.org/1999/xlink">

<svg id="main" version="1.1" xmlns="http://www.w3.org/2000/svg" xmlns:xlink="http://www.w3.org/1999/xlink" xml:space="preserve" onload="init(evt)">
<style type="text/css"><![CDATA[
.node, .edge {opacity: 0.7;}
.node.selected, .edge.selected {opacity: 1;}
.edge:hover path { stroke: red; }
.edge:hover polygon { stroke: red; fill: red; }
]]></style>
<script type="application/ecmascript" xlink:href="svg.min.js"/>
<svg id="graph" class="graph">
<g id="graph0" class="graph" transform="scale(1 1) rotate(0) translate(4 52)">
<title>ccsds::Packet::getFullDataFieldBytes</title>
<!-- Node1 -->
<g id="Node000001" class="node">
<title>Node1</title>
<g id="a_Node000001"><a xlink:title=" ">
<polygon fill="#999999" stroke="#666666" points="395,-30 252,-30 252,0 395,0 395,-30"/>
<text text-anchor="start" x="260" y="-18" font-family="Helvetica,sans-Serif" font-size="10.00">ccsds::Packet::getFullData</text>
<text text-anchor="middle" x="323.5" y="-7" font-family="Helvetica,sans-Serif" font-size="10.00">FieldBytes</text>
</a>
</g>
</g>
<!-- Node1&#45;&gt;Node1 -->
<g id="edge1_Node000001_Node000001" class="edge">
<title>Node1&#45;&gt;Node1</title>
<g id="a_edge1_Node000001_Node000001"><a xlink:title=" ">
<path fill="none" stroke="#63b8ff" d="M354.31,-40.6C350.1,-44.97 339.83,-48 323.5,-48 296,-48 285.69,-39.41 292.56,-30.28"/>
<polygon fill="#63b8ff" stroke="#63b8ff" points="357.81,-40.32 354.44,-30.28 350.81,-40.23 357.81,-40.32"/>
</a>
</g>
</g>
<!-- Node2 -->
<g id="Node000002" class="node">
<title>Node2</title>
<g id="a_Node000002"><a xlink:href="classccsds_1_1Validator.html#acf8ff508437a8472f83313e023a4f799" target="_top" xlink:title=" ">
<polygon fill="white" stroke="#666666" points="216,-24.5 77,-24.5 77,-5.5 216,-5.5 216,-24.5"/>
<text text-anchor="middle" x="146.5" y="-12.5" font-family="Helvetica,sans-Serif" font-size="10.00">ccsds::Validator::validate</text>
</a>
</g>
</g>
<!-- Node1&#45;&gt;Node2 -->
<g id="edge2_Node000001_Node000002" class="edge">
<title>Node1&#45;&gt;Node2</title>
<g id="a_edge2_Node000001_Node000002"><a xlink:title=" ">
<path fill="none" stroke="#63b8ff" d="M241.82,-15C233.25,-15 224.58,-15 216.17,-15"/>
<polygon fill="#63b8ff" stroke="#63b8ff" points="241.83,-18.5 251.83,-15 241.83,-11.5 241.83,-18.5"/>
</a>
</g>
</g>
<!-- Node3 -->
<g id="Node000003" class="node">
<title>Node3</title>
<g id="a_Node000003"><a xlink:href="exec__validator_8cpp.html#a638b85ceffac097c2aa79b76ba8c055e" target="_top" xlink:title=" ">
<polygon fill="white" stroke="#666666" points="41,-24.5 0,-24.5 0,-5.5 41,-5.5 41,-24.5"/>
<text text-anchor="middle" x="20.5" y="-12.5" font-family="Helvetica,sans-Serif" font-size="10.00">main</text>
</a>
</g>
</g>
<!-- Node2&#45;&gt;Node3 -->
<g id="edge3_Node000002_Node000003" class="edge">
<title>Node2&#45;&gt;Node3</title>
<g id="a_edge3_Node000002_Node000003"><a xlink:title=" ">
<path fill="none" stroke="#63b8ff" d="M66.95,-15C57.49,-15 48.59,-15 41.21,-15"/>
<polygon fill="#63b8ff" stroke="#63b8ff" points="66.97,-18.5 76.97,-15 66.97,-11.5 66.97,-18.5"/>
</a>
</g>
</g>
</g>
</svg>
</svg>

<style type='text/css'>
<![CDATA[
[data-mouse-over-selected='false'] { opacity: 0.7; }
[data-mouse-over-selected='true']  { opacity: 1.0; }
]]>
</style>
<script type="application/ecmascript"><![CDATA[
document.addEventListener('DOMContentLoaded', (event) => {
  highlightEdges();
  highlightAdjacentNodes();
});
]]></script>
</svg>
