<?xml version="1.0" encoding="UTF-8" standalone="no"?>
<!DOCTYPE svg PUBLIC "-//W3C//DTD SVG 1.1//EN"
 "http://www.w3.org/Graphics/SVG/1.1/DTD/svg11.dtd">
<!-- Generated by graphviz version 2.43.0 (0)
 -->
<!-- Title: Config::get Pages: 1 -->
<svg width="538pt" height="108pt"
 viewBox="0.00 0.00 538.00 108.18" xmlns="http://www.w3.org/2000/svg" xmlns:xlink="http://www.w3.org/1999/xlink">
<g id="graph0" class="graph" transform="scale(1 1) rotate(0) translate(4 104.18)">
<title>Config::get</title>
<!-- Node1 -->
<g id="Node000001" class="node">
<title>Node1</title>
<g id="a_Node000001"><a xlink:title="Get value by key and type.">
<polygon fill="#999999" stroke="#666666" points="530,-62.88 461,-62.88 461,-43.88 530,-43.88 530,-62.88"/>
<text text-anchor="middle" x="495.5" y="-50.88" font-family="Helvetica,sans-Serif" font-size="10.00">Config::get</text>
</a>
</g>
</g>
<!-- Node1&#45;&gt;Node1 -->
<g id="edge1_Node000001_Node000001" class="edge">
<title>Node1&#45;&gt;Node1</title>
<g id="a_edge1_Node000001_Node000001"><a xlink:title=" ">
<path fill="none" stroke="#63b8ff" d="M518.46,-72.43C516.93,-77.26 509.27,-80.88 495.5,-80.88 473.46,-80.88 467.09,-71.61 476.39,-62.96"/>
<polygon fill="#63b8ff" stroke="#63b8ff" points="521.62,-70.91 514.61,-62.96 515.14,-73.54 521.62,-70.91"/>
</a>
</g>
</g>
<!-- Node2 -->
<g id="Node000002" class="node">
<title>Node2</title>
<g id="a_Node000002"><a xlink:href="classConfig.html#a666e6d9c5510736d8ef85564abe834dd" target="_top" xlink:title="Load config file.">
<polygon fill="white" stroke="#666666" points="281,-62.88 207,-62.88 207,-43.88 281,-43.88 281,-62.88"/>
<text text-anchor="middle" x="244" y="-50.88" font-family="Helvetica,sans-Serif" font-size="10.00">Config::load</text>
</a>
</g>
</g>
<!-- Node1&#45;&gt;Node2 -->
<g id="edge2_Node000001_Node000002" class="edge">
<title>Node1&#45;&gt;Node2</title>
<g id="a_edge2_Node000001_Node000002"><a xlink:title=" ">
<path fill="none" stroke="#63b8ff" d="M473.15,-68.72C459.97,-77.22 442.32,-86.95 425,-91.38 378.49,-103.26 363.59,-102.92 317,-91.38 294.91,-85.91 272.13,-72.29 258.26,-62.93"/>
<polygon fill="#63b8ff" stroke="#63b8ff" points="475.16,-71.59 481.5,-63.1 471.25,-65.78 475.16,-71.59"/>
</a>
</g>
</g>
<!-- Node3 -->
<g id="Node000003" class="node">
<title>Node3</title>
<g id="a_Node000003"><a xlink:href="classCCSDS_1_1Manager.html#a44c3bccc78ccf59d9432935e43283342" target="_top" xlink:title="Load a template packet from a binary or configuration file.">
<polygon fill="white" stroke="#666666" points="171,-25.88 0,-25.88 0,-6.88 171,-6.88 171,-25.88"/>
<text text-anchor="middle" x="85.5" y="-13.88" font-family="Helvetica,sans-Serif" font-size="10.00">CCSDS::Manager::readTemplate</text>
</a>
</g>
</g>
<!-- Node1&#45;&gt;Node3 -->
<g id="edge8_Node000001_Node000003" class="edge">
<title>Node1&#45;&gt;Node3</title>
<g id="a_edge8_Node000001_Node000003"><a xlink:title=" ">
<path fill="none" stroke="#63b8ff" d="M472.47,-38.05C459.34,-29.86 441.97,-20.61 425,-16.38 333.34,6.5 223.33,0.65 154.15,-6.88"/>
<polygon fill="#63b8ff" stroke="#63b8ff" points="470.92,-41.22 481.21,-43.74 474.74,-35.35 470.92,-41.22"/>
</a>
</g>
</g>
<!-- Node4 -->
<g id="Node000004" class="node">
<title>Node4</title>
<g id="a_Node000004"><a xlink:href="classConfig.html#a0c3a6f1dbed78a72da53833b419491d9" target="_top" xlink:title="Parse string &quot;[1,2,3]&quot; into vector&lt;uint8_t&gt;">
<polygon fill="white" stroke="#666666" points="425,-81.88 317,-81.88 317,-62.88 425,-62.88 425,-81.88"/>
<text text-anchor="middle" x="371" y="-69.88" font-family="Helvetica,sans-Serif" font-size="10.00">Config::parseBytes</text>
</a>
</g>
</g>
<!-- Node1&#45;&gt;Node4 -->
<g id="edge4_Node000001_Node000004" class="edge">
<title>Node1&#45;&gt;Node4</title>
<g id="a_edge4_Node000001_Node000004"><a xlink:title=" ">
<path fill="none" stroke="#63b8ff" d="M450.65,-60.18C442.49,-61.45 433.87,-62.78 425.46,-64.09"/>
<polygon fill="#63b8ff" stroke="#63b8ff" points="451.36,-63.61 460.7,-58.62 450.28,-56.7 451.36,-63.61"/>
</a>
</g>
</g>
<!-- Node5 -->
<g id="Node000005" class="node">
<title>Node5</title>
<g id="a_Node000005"><a xlink:href="classConfig.html#ae9010d142dcb6a29be942eb3b1513dda" target="_top" xlink:title="Parse a single line from config.">
<polygon fill="white" stroke="#666666" points="421.5,-44.88 320.5,-44.88 320.5,-25.88 421.5,-25.88 421.5,-44.88"/>
<text text-anchor="middle" x="371" y="-32.88" font-family="Helvetica,sans-Serif" font-size="10.00">Config::parseLine</text>
</a>
</g>
</g>
<!-- Node1&#45;&gt;Node5 -->
<g id="edge6_Node000001_Node000005" class="edge">
<title>Node1&#45;&gt;Node5</title>
<g id="a_edge6_Node000001_Node000005"><a xlink:title=" ">
<path fill="none" stroke="#63b8ff" d="M450.78,-46.95C441.37,-45.57 431.36,-44.1 421.74,-42.69"/>
<polygon fill="#63b8ff" stroke="#63b8ff" points="450.3,-50.42 460.7,-48.41 451.32,-43.5 450.3,-50.42"/>
</a>
</g>
</g>
<!-- Node2&#45;&gt;Node3 -->
<g id="edge3_Node000002_Node000003" class="edge">
<title>Node2&#45;&gt;Node3</title>
<g id="a_edge3_Node000002_Node000003"><a xlink:title=" ">
<path fill="none" stroke="#63b8ff" d="M196.81,-42.46C174.56,-37.2 148.14,-30.95 126.73,-25.89"/>
<polygon fill="#63b8ff" stroke="#63b8ff" points="196.17,-45.9 206.7,-44.8 197.78,-39.09 196.17,-45.9"/>
</a>
</g>
</g>
<!-- Node4&#45;&gt;Node2 -->
<g id="edge5_Node000004_Node000002" class="edge">
<title>Node4&#45;&gt;Node2</title>
<g id="a_edge5_Node000004_Node000002"><a xlink:title=" ">
<path fill="none" stroke="#63b8ff" d="M306.98,-62.8C298.09,-61.45 289.22,-60.1 281.07,-58.86"/>
<polygon fill="#63b8ff" stroke="#63b8ff" points="306.58,-66.28 316.99,-64.32 307.63,-59.36 306.58,-66.28"/>
</a>
</g>
</g>
<!-- Node5&#45;&gt;Node2 -->
<g id="edge7_Node000005_Node000002" class="edge">
<title>Node5&#45;&gt;Node2</title>
<g id="a_edge7_Node000005_Node000002"><a xlink:title=" ">
<path fill="none" stroke="#63b8ff" d="M310.33,-43.97C300.34,-45.41 290.27,-46.86 281.11,-48.18"/>
<polygon fill="#63b8ff" stroke="#63b8ff" points="310.84,-47.43 320.24,-42.54 309.84,-40.51 310.84,-47.43"/>
</a>
</g>
</g>
</g>
</svg>
