<?xml version="1.0" encoding="UTF-8" standalone="no"?>
<!DOCTYPE svg PUBLIC "-//W3C//DTD SVG 1.1//EN"
 "http://www.w3.org/Graphics/SVG/1.1/DTD/svg11.dtd">
<!-- Generated by graphviz version 2.43.0 (0)
 -->
<!-- Title: CCSDS::Manager::loadTemplateConfigFile Pages: 1 -->
<svg width="760pt" height="78pt"
 viewBox="0.00 0.00 760.00 78.24" xmlns="http://www.w3.org/2000/svg" xmlns:xlink="http://www.w3.org/1999/xlink">
<g id="graph0" class="graph" transform="scale(1 1) rotate(0) translate(4 74.24)">
<title>CCSDS::Manager::loadTemplateConfigFile</title>
<!-- Node1 -->
<g id="Node000001" class="node">
<title>Node1</title>
<g id="a_Node000001"><a xlink:title="Loads a template packet from a configuration file.">
<polygon fill="#999999" stroke="#666666" points="170,-61.5 0,-61.5 0,-31.5 170,-31.5 170,-61.5"/>
<text text-anchor="start" x="8" y="-49.5" font-family="Helvetica,sans-Serif" font-size="10.00">CCSDS::Manager::loadTemplate</text>
<text text-anchor="middle" x="85" y="-38.5" font-family="Helvetica,sans-Serif" font-size="10.00">ConfigFile</text>
</a>
</g>
</g>
<!-- Node2 -->
<g id="Node000002" class="node">
<title>Node2</title>
<g id="a_Node000002"><a xlink:href="classCCSDS_1_1Packet.html#a9ba3b255c1cd19b48a11dba5fc8819ff" target="_top" xlink:title="Loads a packet from a configuration file, including secondary header if present.">
<polygon fill="white" stroke="#666666" points="393,-56 206,-56 206,-37 393,-37 393,-56"/>
<text text-anchor="middle" x="299.5" y="-44" font-family="Helvetica,sans-Serif" font-size="10.00">CCSDS::Packet::loadFromConfigFile</text>
</a>
</g>
</g>
<!-- Node1&#45;&gt;Node2 -->
<g id="edge1_Node000001_Node000002" class="edge">
<title>Node1&#45;&gt;Node2</title>
<g id="a_edge1_Node000001_Node000002"><a xlink:title=" ">
<path fill="none" stroke="#63b8ff" d="M170.29,-46.5C178.7,-46.5 187.31,-46.5 195.88,-46.5"/>
<polygon fill="#63b8ff" stroke="#63b8ff" points="195.91,-50 205.91,-46.5 195.91,-43 195.91,-50"/>
</a>
</g>
</g>
<!-- Node3 -->
<g id="Node000003" class="node">
<title>Node3</title>
<g id="a_Node000003"><a xlink:href="classConfig.html#a666e6d9c5510736d8ef85564abe834dd" target="_top" xlink:title="Load config file.">
<polygon fill="white" stroke="#666666" points="503,-56 429,-56 429,-37 503,-37 503,-56"/>
<text text-anchor="middle" x="466" y="-44" font-family="Helvetica,sans-Serif" font-size="10.00">Config::load</text>
</a>
</g>
</g>
<!-- Node2&#45;&gt;Node3 -->
<g id="edge2_Node000002_Node000003" class="edge">
<title>Node2&#45;&gt;Node3</title>
<g id="a_edge2_Node000002_Node000003"><a xlink:title=" ">
<path fill="none" stroke="#63b8ff" d="M393.33,-46.5C402.04,-46.5 410.6,-46.5 418.59,-46.5"/>
<polygon fill="#63b8ff" stroke="#63b8ff" points="418.74,-50 428.74,-46.5 418.74,-43 418.74,-50"/>
</a>
</g>
</g>
<!-- Node4 -->
<g id="Node000004" class="node">
<title>Node4</title>
<g id="a_Node000004"><a xlink:href="classConfig.html#ac0eb207d3a0c9b3039000301c612aadb" target="_top" xlink:title="Get value by key and type.">
<polygon fill="white" stroke="#666666" points="752,-56 683,-56 683,-37 752,-37 752,-56"/>
<text text-anchor="middle" x="717.5" y="-44" font-family="Helvetica,sans-Serif" font-size="10.00">Config::get</text>
</a>
</g>
</g>
<!-- Node3&#45;&gt;Node4 -->
<g id="edge3_Node000003_Node000004" class="edge">
<title>Node3&#45;&gt;Node4</title>
<g id="a_edge3_Node000003_Node000004"><a xlink:title=" ">
<path fill="none" stroke="#63b8ff" d="M496.09,-56C509.06,-59.77 524.64,-63.64 539,-65.5 586.6,-71.68 599.43,-71.89 647,-65.5 657.41,-64.1 668.48,-61.58 678.64,-58.81"/>
<polygon fill="#63b8ff" stroke="#63b8ff" points="679.8,-62.12 688.45,-56 677.87,-55.39 679.8,-62.12"/>
</a>
</g>
</g>
<!-- Node5 -->
<g id="Node000005" class="node">
<title>Node5</title>
<g id="a_Node000005"><a xlink:href="classConfig.html#a0c3a6f1dbed78a72da53833b419491d9" target="_top" xlink:title="Parse string &quot;[1,2,3]&quot; into vector&lt;uint8_t&gt;">
<polygon fill="white" stroke="#666666" points="647,-56 539,-56 539,-37 647,-37 647,-56"/>
<text text-anchor="middle" x="593" y="-44" font-family="Helvetica,sans-Serif" font-size="10.00">Config::parseBytes</text>
</a>
</g>
</g>
<!-- Node3&#45;&gt;Node5 -->
<g id="edge4_Node000003_Node000005" class="edge">
<title>Node3&#45;&gt;Node5</title>
<g id="a_edge4_Node000003_Node000005"><a xlink:title=" ">
<path fill="none" stroke="#63b8ff" d="M503.16,-46.5C511.14,-46.5 519.82,-46.5 528.53,-46.5"/>
<polygon fill="#63b8ff" stroke="#63b8ff" points="528.72,-50 538.72,-46.5 528.72,-43 528.72,-50"/>
</a>
</g>
</g>
<!-- Node6 -->
<g id="Node000006" class="node">
<title>Node6</title>
<g id="a_Node000006"><a xlink:href="classConfig.html#ae9010d142dcb6a29be942eb3b1513dda" target="_top" xlink:title="Parse a single line from config.">
<polygon fill="white" stroke="#666666" points="643.5,-19 542.5,-19 542.5,0 643.5,0 643.5,-19"/>
<text text-anchor="middle" x="593" y="-7" font-family="Helvetica,sans-Serif" font-size="10.00">Config::parseLine</text>
</a>
</g>
</g>
<!-- Node3&#45;&gt;Node6 -->
<g id="edge6_Node000003_Node000006" class="edge">
<title>Node3&#45;&gt;Node6</title>
<g id="a_edge6_Node000003_Node000006"><a xlink:title=" ">
<path fill="none" stroke="#63b8ff" d="M499.19,-36.97C514.53,-32.43 533.07,-26.94 549.54,-22.07"/>
<polygon fill="#63b8ff" stroke="#63b8ff" points="550.89,-25.32 559.48,-19.12 548.9,-18.61 550.89,-25.32"/>
</a>
</g>
</g>
<!-- Node5&#45;&gt;Node4 -->
<g id="edge5_Node000005_Node000004" class="edge">
<title>Node5&#45;&gt;Node4</title>
<g id="a_edge5_Node000005_Node000004"><a xlink:title=" ">
<path fill="none" stroke="#63b8ff" d="M647.02,-46.5C655.57,-46.5 664.33,-46.5 672.63,-46.5"/>
<polygon fill="#63b8ff" stroke="#63b8ff" points="672.85,-50 682.85,-46.5 672.85,-43 672.85,-50"/>
</a>
</g>
</g>
<!-- Node6&#45;&gt;Node4 -->
<g id="edge7_Node000006_Node000004" class="edge">
<title>Node6&#45;&gt;Node4</title>
<g id="a_edge7_Node000006_Node000004"><a xlink:title=" ">
<path fill="none" stroke="#63b8ff" d="M625.55,-19.03C640.58,-23.57 658.75,-29.06 674.89,-33.93"/>
<polygon fill="#63b8ff" stroke="#63b8ff" points="674.05,-37.33 684.63,-36.88 676.07,-30.63 674.05,-37.33"/>
</a>
</g>
</g>
</g>
</svg>
