<?xml version="1.0" encoding="UTF-8" standalone="no"?>
<!DOCTYPE svg PUBLIC "-//W3C//DTD SVG 1.1//EN"
 "http://www.w3.org/Graphics/SVG/1.1/DTD/svg11.dtd">
<!-- Generated by graphviz version 2.43.0 (0)
 -->
<!-- Title: CCSDS::DataField::getApplicationDataBytesSize Pages: 1 -->
<svg width="303pt" height="101pt"
 viewBox="0.00 0.00 303.00 101.00" xmlns="http://www.w3.org/2000/svg" xmlns:xlink="http://www.w3.org/1999/xlink">
<g id="graph0" class="graph" transform="scale(1 1) rotate(0) translate(4 97)">
<title>CCSDS::DataField::getApplicationDataBytesSize</title>
<!-- Node1 -->
<g id="Node000001" class="node">
<title>Node1</title>
<g id="a_Node000001"><a xlink:title="Retrieves the size of the application data stored in the data field.">
<polygon fill="#999999" stroke="#666666" points="295,-61.5 116,-61.5 116,-31.5 295,-31.5 295,-61.5"/>
<text text-anchor="start" x="124" y="-49.5" font-family="Helvetica,sans-Serif" font-size="10.00">CCSDS::DataField::getApplication</text>
<text text-anchor="middle" x="205.5" y="-38.5" font-family="Helvetica,sans-Serif" font-size="10.00">DataBytesSize</text>
</a>
</g>
</g>
<!-- Node2 -->
<g id="Node000002" class="node">
<title>Node2</title>
<g id="a_Node000002"><a xlink:href="classPusA.html#a6d27498e8b9c91b2e5f9ca8c861d108f" target="_top" xlink:title="Defines how the packet secondary header is updated using the data field as reference.">
<polygon fill="white" stroke="#666666" points="80,-93 0,-93 0,-74 80,-74 80,-93"/>
<text text-anchor="middle" x="40" y="-81" font-family="Helvetica,sans-Serif" font-size="10.00">PusA::update</text>
</a>
</g>
</g>
<!-- Node1&#45;&gt;Node2 -->
<g id="edge1_Node000001_Node000002" class="edge">
<title>Node1&#45;&gt;Node2</title>
<g id="a_edge1_Node000001_Node000002"><a xlink:title=" ">
<path fill="none" stroke="#63b8ff" d="M127.79,-63.86C111.31,-67.59 94.55,-71.38 80.21,-74.63"/>
<polygon fill="#63b8ff" stroke="#63b8ff" points="129.02,-67.17 138,-61.55 127.47,-60.34 129.02,-67.17"/>
</a>
</g>
</g>
<!-- Node3 -->
<g id="Node000003" class="node">
<title>Node3</title>
<g id="a_Node000003"><a xlink:href="classPusB.html#acb20a9fe63de9986cb0c414e8b322a18" target="_top" xlink:title="Defines how the packet secondary header is updated using the data field as reference.">
<polygon fill="white" stroke="#666666" points="80,-56 0,-56 0,-37 80,-37 80,-56"/>
<text text-anchor="middle" x="40" y="-44" font-family="Helvetica,sans-Serif" font-size="10.00">PusB::update</text>
</a>
</g>
</g>
<!-- Node1&#45;&gt;Node3 -->
<g id="edge2_Node000001_Node000003" class="edge">
<title>Node1&#45;&gt;Node3</title>
<g id="a_edge2_Node000001_Node000003"><a xlink:title=" ">
<path fill="none" stroke="#63b8ff" d="M105.45,-46.5C96.57,-46.5 87.97,-46.5 80.11,-46.5"/>
<polygon fill="#63b8ff" stroke="#63b8ff" points="105.57,-50 115.57,-46.5 105.57,-43 105.57,-50"/>
</a>
</g>
</g>
<!-- Node4 -->
<g id="Node000004" class="node">
<title>Node4</title>
<g id="a_Node000004"><a xlink:href="classPusC.html#ac745199ef5306afd3376ce726070341c" target="_top" xlink:title="Defines how the packet secondary header is updated using the data field as reference.">
<polygon fill="white" stroke="#666666" points="80,-19 0,-19 0,0 80,0 80,-19"/>
<text text-anchor="middle" x="40" y="-7" font-family="Helvetica,sans-Serif" font-size="10.00">PusC::update</text>
</a>
</g>
</g>
<!-- Node1&#45;&gt;Node4 -->
<g id="edge3_Node000001_Node000004" class="edge">
<title>Node1&#45;&gt;Node4</title>
<g id="a_edge3_Node000001_Node000004"><a xlink:title=" ">
<path fill="none" stroke="#63b8ff" d="M127.79,-29.14C111.31,-25.41 94.55,-21.62 80.21,-18.37"/>
<polygon fill="#63b8ff" stroke="#63b8ff" points="127.47,-32.66 138,-31.45 129.02,-25.83 127.47,-32.66"/>
</a>
</g>
</g>
</g>
</svg>
