<?xml version="1.0" encoding="UTF-8" standalone="no"?>
<!DOCTYPE svg PUBLIC "-//W3C//DTD SVG 1.1//EN"
 "http://www.w3.org/Graphics/SVG/1.1/DTD/svg11.dtd">
<!-- Generated by graphviz version 2.43.0 (0)
 -->
<!-- Title: ccsds::pus::TcSecondaryHeader Pages: 1 -->
<svg width="238pt" height="203pt"
 viewBox="0.00 0.00 237.50 203.00" xmlns="http://www.w3.org/2000/svg" xmlns:xlink="http://www.w3.org/1999/xlink">
<g id="graph0" class="graph" transform="scale(1 1) rotate(0) translate(4 199)">
<title>ccsds::pus::TcSecondaryHeader</title>
<!-- Node1 -->
<g id="Node000001" class="node">
<title>Node1</title>
<g id="a_Node000001"><a xlink:title=" ">
<polygon fill="#999999" stroke="#666666" points="199.5,-85 30.5,-85 30.5,-66 199.5,-66 199.5,-85"/>
<text text-anchor="middle" x="115" y="-73" font-family="Helvetica,sans-Serif" font-size="10.00">ccsds::pus::TcSecondaryHeader</text>
</a>
</g>
</g>
<!-- Node4 -->
<g id="Node000004" class="node">
<title>Node4</title>
<g id="a_Node000004"><a xlink:href="classccsds_1_1pus_1_1rev__a_1_1TcHeader.html" target="_top" xlink:title=" ">
<polygon fill="white" stroke="#666666" points="106,-30 0,-30 0,0 106,0 106,-30"/>
<text text-anchor="start" x="8" y="-18" font-family="Helvetica,sans-Serif" font-size="10.00">ccsds::pus::rev_a::</text>
<text text-anchor="middle" x="53" y="-7" font-family="Helvetica,sans-Serif" font-size="10.00">TcHeader</text>
</a>
</g>
</g>
<!-- Node1&#45;&gt;Node4 -->
<g id="edge3_Node000001_Node000004" class="edge">
<title>Node1&#45;&gt;Node4</title>
<g id="a_edge3_Node000001_Node000004"><a xlink:title=" ">
<path fill="none" stroke="#63b8ff" d="M98.54,-58.97C89.04,-50.01 77.19,-38.82 67.96,-30.11"/>
<polygon fill="#63b8ff" stroke="#63b8ff" points="96.18,-61.55 105.85,-65.87 100.98,-56.46 96.18,-61.55"/>
</a>
</g>
</g>
<!-- Node5 -->
<g id="Node000005" class="node">
<title>Node5</title>
<g id="a_Node000005"><a xlink:href="classccsds_1_1pus_1_1rev__c_1_1TcHeader.html" target="_top" xlink:title=" ">
<polygon fill="white" stroke="#666666" points="229.5,-30 124.5,-30 124.5,0 229.5,0 229.5,-30"/>
<text text-anchor="start" x="132.5" y="-18" font-family="Helvetica,sans-Serif" font-size="10.00">ccsds::pus::rev_c::</text>
<text text-anchor="middle" x="177" y="-7" font-family="Helvetica,sans-Serif" font-size="10.00">TcHeader</text>
</a>
</g>
</g>
<!-- Node1&#45;&gt;Node5 -->
<g id="edge4_Node000001_Node000005" class="edge">
<title>Node1&#45;&gt;Node5</title>
<g id="a_edge4_Node000001_Node000005"><a xlink:title=" ">
<path fill="none" stroke="#63b8ff" d="M131.46,-58.97C140.96,-50.01 152.81,-38.82 162.04,-30.11"/>
<polygon fill="#63b8ff" stroke="#63b8ff" points="129.02,-56.46 124.15,-65.87 133.82,-61.55 129.02,-56.46"/>
</a>
</g>
</g>
<!-- Node2 -->
<g id="Node000002" class="node">
<title>Node2</title>
<g id="a_Node000002"><a xlink:href="classccsds_1_1pus_1_1SecondaryHeader.html" target="_top" xlink:title=" ">
<polygon fill="white" stroke="#666666" points="194.5,-140 35.5,-140 35.5,-121 194.5,-121 194.5,-140"/>
<text text-anchor="middle" x="115" y="-128" font-family="Helvetica,sans-Serif" font-size="10.00">ccsds::pus::SecondaryHeader</text>
</a>
</g>
</g>
<!-- Node2&#45;&gt;Node1 -->
<g id="edge1_Node000001_Node000002" class="edge">
<title>Node2&#45;&gt;Node1</title>
<g id="a_edge1_Node000001_Node000002"><a xlink:title=" ">
<path fill="none" stroke="#63b8ff" d="M115,-110.66C115,-101.93 115,-91.99 115,-85.09"/>
<polygon fill="#63b8ff" stroke="#63b8ff" points="111.5,-110.75 115,-120.75 118.5,-110.75 111.5,-110.75"/>
</a>
</g>
</g>
<!-- Node3 -->
<g id="Node000003" class="node">
<title>Node3</title>
<g id="a_Node000003"><a xlink:href="classccsds_1_1SecondaryHeaderAbstract.html" target="_top" xlink:title="Interface implemented by optional packet data&#45;field secondary headers.">
<polygon fill="white" stroke="#666666" points="203,-195 27,-195 27,-176 203,-176 203,-195"/>
<text text-anchor="middle" x="115" y="-183" font-family="Helvetica,sans-Serif" font-size="10.00">ccsds::SecondaryHeaderAbstract</text>
</a>
</g>
</g>
<!-- Node3&#45;&gt;Node2 -->
<g id="edge2_Node000002_Node000003" class="edge">
<title>Node3&#45;&gt;Node2</title>
<g id="a_edge2_Node000002_Node000003"><a xlink:title=" ">
<path fill="none" stroke="#63b8ff" d="M115,-165.66C115,-156.93 115,-146.99 115,-140.09"/>
<polygon fill="#63b8ff" stroke="#63b8ff" points="111.5,-165.75 115,-175.75 118.5,-165.75 111.5,-165.75"/>
</a>
</g>
</g>
</g>
</svg>
