<?xml version="1.0" encoding="UTF-8" standalone="no"?>
<!DOCTYPE svg PUBLIC "-//W3C//DTD SVG 1.1//EN"
 "http://www.w3.org/Graphics/SVG/1.1/DTD/svg11.dtd">
<!-- Generated by graphviz version 2.43.0 (0)
 -->
<!-- Title: CCSDS::Validator::setTemplatePacket Pages: 1 -->
<svg width="356pt" height="64pt"
 viewBox="0.00 0.00 356.00 64.00" xmlns="http://www.w3.org/2000/svg" xmlns:xlink="http://www.w3.org/1999/xlink">
<g id="graph0" class="graph" transform="scale(1 1) rotate(0) translate(4 60)">
<title>CCSDS::Validator::setTemplatePacket</title>
<!-- Node1 -->
<g id="Node000001" class="node">
<title>Node1</title>
<g id="a_Node000001"><a xlink:title="Sets the template packet for validation.">
<polygon fill="#999999" stroke="#666666" points="348,-42.5 183,-42.5 183,-12.5 348,-12.5 348,-42.5"/>
<text text-anchor="start" x="191" y="-30.5" font-family="Helvetica,sans-Serif" font-size="10.00">CCSDS::Validator::setTemplate</text>
<text text-anchor="middle" x="265.5" y="-19.5" font-family="Helvetica,sans-Serif" font-size="10.00">Packet</text>
</a>
</g>
</g>
<!-- Node2 -->
<g id="Node000002" class="node">
<title>Node2</title>
<g id="a_Node000002"><a xlink:href="exec__validator_8cpp.html#a638b85ceffac097c2aa79b76ba8c055e" target="_top" xlink:title=" ">
<polygon fill="white" stroke="#666666" points="94,-56 53,-56 53,-37 94,-37 94,-56"/>
<text text-anchor="middle" x="73.5" y="-44" font-family="Helvetica,sans-Serif" font-size="10.00">main</text>
</a>
</g>
</g>
<!-- Node1&#45;&gt;Node2 -->
<g id="edge1_Node000001_Node000002" class="edge">
<title>Node1&#45;&gt;Node2</title>
<g id="a_edge1_Node000001_Node000002"><a xlink:title=" ">
<path fill="none" stroke="#63b8ff" d="M172.78,-36.67C143.08,-39.64 112.94,-42.66 94.02,-44.55"/>
<polygon fill="#63b8ff" stroke="#63b8ff" points="173.22,-40.15 182.82,-35.67 172.52,-33.18 173.22,-40.15"/>
</a>
</g>
</g>
<!-- Node3 -->
<g id="Node000003" class="node">
<title>Node3</title>
<g id="a_Node000003"><a xlink:href="classCCSDS_1_1Manager.html#aa47668beaea3b5b4f0ca9c85b374e966" target="_top" xlink:title="Constructs a Manager with a given packet template.">
<polygon fill="white" stroke="#666666" points="147,-19 0,-19 0,0 147,0 147,-19"/>
<text text-anchor="middle" x="73.5" y="-7" font-family="Helvetica,sans-Serif" font-size="10.00">CCSDS::Manager::Manager</text>
</a>
</g>
</g>
<!-- Node1&#45;&gt;Node3 -->
<g id="edge2_Node000001_Node000003" class="edge">
<title>Node1&#45;&gt;Node3</title>
<g id="a_edge2_Node000001_Node000003"><a xlink:title=" ">
<path fill="none" stroke="#63b8ff" d="M172.76,-18.81C164.15,-17.99 155.52,-17.18 147.13,-16.38"/>
<polygon fill="#63b8ff" stroke="#63b8ff" points="172.53,-22.3 182.82,-19.76 173.19,-15.33 172.53,-22.3"/>
</a>
</g>
</g>
</g>
</svg>
