<?xml version="1.0" encoding="UTF-8" standalone="no"?>
<!DOCTYPE svg PUBLIC "-//W3C//DTD SVG 1.1//EN"
 "http://www.w3.org/Graphics/SVG/1.1/DTD/svg11.dtd">
<!-- Generated by graphviz version 2.43.0 (0)
 -->
<!-- Title: CCSDS::DataField::getDataFieldHeaderBytes Pages: 1 -->
<svg width="607pt" height="76pt"
 viewBox="0.00 0.00 607.00 75.50" xmlns="http://www.w3.org/2000/svg" xmlns:xlink="http://www.w3.org/1999/xlink">
<g id="graph0" class="graph" transform="scale(1 1) rotate(0) translate(4 71.5)">
<title>CCSDS::DataField::getDataFieldHeaderBytes</title>
<!-- Node1 -->
<g id="Node000001" class="node">
<title>Node1</title>
<g id="a_Node000001"><a xlink:title="Retrieves the secondary header data as a vector of bytes.">
<polygon fill="#999999" stroke="#666666" points="599,-45.5 452,-45.5 452,-15.5 599,-15.5 599,-45.5"/>
<text text-anchor="start" x="460" y="-33.5" font-family="Helvetica,sans-Serif" font-size="10.00">CCSDS::DataField::getData</text>
<text text-anchor="middle" x="525.5" y="-22.5" font-family="Helvetica,sans-Serif" font-size="10.00">FieldHeaderBytes</text>
</a>
</g>
</g>
<!-- Node2 -->
<g id="Node000002" class="node">
<title>Node2</title>
<g id="a_Node000002"><a xlink:href="classCCSDS_1_1DataField.html#adf40e2024bf3509e4ce28ff3a8e637e2" target="_top" xlink:title="Retrieves the full data field by combining the data field header and application data.">
<polygon fill="white" stroke="#666666" points="416,-67.5 275,-67.5 275,-37.5 416,-37.5 416,-67.5"/>
<text text-anchor="start" x="283" y="-55.5" font-family="Helvetica,sans-Serif" font-size="10.00">CCSDS::DataField::getFull</text>
<text text-anchor="middle" x="345.5" y="-44.5" font-family="Helvetica,sans-Serif" font-size="10.00">DataFieldBytes</text>
</a>
</g>
</g>
<!-- Node1&#45;&gt;Node2 -->
<g id="edge1_Node000001_Node000002" class="edge">
<title>Node1&#45;&gt;Node2</title>
<g id="a_edge1_Node000001_Node000002"><a xlink:title=" ">
<path fill="none" stroke="#63b8ff" d="M441.79,-40.72C433.18,-41.79 424.49,-42.86 416.05,-43.9"/>
<polygon fill="#63b8ff" stroke="#63b8ff" points="442.35,-44.18 451.84,-39.48 441.49,-37.23 442.35,-44.18"/>
</a>
</g>
</g>
<!-- Node4 -->
<g id="Node000004" class="node">
<title>Node4</title>
<g id="a_Node000004"><a xlink:href="CCSDSUtils_8cpp.html#a6e927daa91ea42db4bb94bfc51425b96" target="_top" xlink:title="Prints the data field details, including the secondary header and application data.">
<polygon fill="white" stroke="#666666" points="376.5,-19 314.5,-19 314.5,0 376.5,0 376.5,-19"/>
<text text-anchor="middle" x="345.5" y="-7" font-family="Helvetica,sans-Serif" font-size="10.00">printData</text>
</a>
</g>
</g>
<!-- Node1&#45;&gt;Node4 -->
<g id="edge3_Node000001_Node000004" class="edge">
<title>Node1&#45;&gt;Node4</title>
<g id="a_edge3_Node000001_Node000004"><a xlink:title=" ">
<path fill="none" stroke="#63b8ff" d="M441.89,-20.75C418.54,-18 394.61,-15.18 376.55,-13.05"/>
<polygon fill="#63b8ff" stroke="#63b8ff" points="441.5,-24.23 451.84,-21.93 442.32,-17.28 441.5,-24.23"/>
</a>
</g>
</g>
<!-- Node3 -->
<g id="Node000003" class="node">
<title>Node3</title>
<g id="a_Node000003"><a xlink:href="classCCSDS_1_1Packet.html#a25c84fd13d0176cd575d70103bc4af64" target="_top" xlink:title="Updates Primary headers data field size.">
<polygon fill="white" stroke="#666666" points="239,-62 112,-62 112,-43 239,-43 239,-62"/>
<text text-anchor="middle" x="175.5" y="-50" font-family="Helvetica,sans-Serif" font-size="10.00">CCSDS::Packet::update</text>
</a>
</g>
</g>
<!-- Node2&#45;&gt;Node3 -->
<g id="edge2_Node000002_Node000003" class="edge">
<title>Node2&#45;&gt;Node3</title>
<g id="a_edge2_Node000002_Node000003"><a xlink:title=" ">
<path fill="none" stroke="#63b8ff" d="M264.68,-52.5C256.09,-52.5 247.44,-52.5 239.1,-52.5"/>
<polygon fill="#63b8ff" stroke="#63b8ff" points="264.71,-56 274.71,-52.5 264.71,-49 264.71,-56"/>
</a>
</g>
</g>
<!-- Node5 -->
<g id="Node000005" class="node">
<title>Node5</title>
<g id="a_Node000005"><a xlink:href="CCSDSUtils_8cpp.html#aed99c8e7576ac25c49f6b913b46d1b76" target="_top" xlink:title="Prints the data field and the CRC&#45;16 checksum of the packet.">
<polygon fill="white" stroke="#666666" points="218.5,-19 132.5,-19 132.5,0 218.5,0 218.5,-19"/>
<text text-anchor="middle" x="175.5" y="-7" font-family="Helvetica,sans-Serif" font-size="10.00">printDataField</text>
</a>
</g>
</g>
<!-- Node4&#45;&gt;Node5 -->
<g id="edge4_Node000004_Node000005" class="edge">
<title>Node4&#45;&gt;Node5</title>
<g id="a_edge4_Node000004_Node000005"><a xlink:title=" ">
<path fill="none" stroke="#63b8ff" d="M304.25,-9.5C278.37,-9.5 244.81,-9.5 218.58,-9.5"/>
<polygon fill="#63b8ff" stroke="#63b8ff" points="304.47,-13 314.46,-9.5 304.46,-6 304.47,-13"/>
</a>
</g>
</g>
<!-- Node6 -->
<g id="Node000006" class="node">
<title>Node6</title>
<g id="a_Node000006"><a xlink:href="CCSDSUtils_8cpp.html#a5f93cc97b1a3bb506c38638251b15339" target="_top" xlink:title="Prints to console a series of CCSDS Packets, breaking it down to Primary header and Data field.">
<polygon fill="white" stroke="#666666" points="76,-19 0,-19 0,0 76,0 76,-19"/>
<text text-anchor="middle" x="38" y="-7" font-family="Helvetica,sans-Serif" font-size="10.00">printPackets</text>
</a>
</g>
</g>
<!-- Node5&#45;&gt;Node6 -->
<g id="edge5_Node000005_Node000006" class="edge">
<title>Node5&#45;&gt;Node6</title>
<g id="a_edge5_Node000005_Node000006"><a xlink:title=" ">
<path fill="none" stroke="#63b8ff" d="M121.97,-9.5C106.64,-9.5 90.22,-9.5 76.06,-9.5"/>
<polygon fill="#63b8ff" stroke="#63b8ff" points="122.37,-13 132.37,-9.5 122.37,-6 122.37,-13"/>
</a>
</g>
</g>
</g>
</svg>
