<?xml version="1.0" encoding="UTF-8" standalone="no"?>
<!DOCTYPE svg PUBLIC "-//W3C//DTD SVG 1.1//EN"
 "http://www.w3.org/Graphics/SVG/1.1/DTD/svg11.dtd">
<!-- Generated by graphviz version 2.43.0 (0)
 -->
<!-- Title: Config::isKey Pages: 1 -->
<!--zoomable 225 -->

<svg id="main" version="1.1" xmlns="http://www.w3.org/2000/svg" xmlns:xlink="http://www.w3.org/1999/xlink" xml:space="preserve" onload="init(evt)">
<style type="text/css"><![CDATA[
.node, .edge {opacity: 0.7;}
.node.selected, .edge.selected {opacity: 1;}
.edge:hover path { stroke: red; }
.edge:hover polygon { stroke: red; fill: red; }
]]></style>

<defs>
  <circle id="rim" cx="0" cy="0" r="7"/>
  <circle id="rim2" cx="0" cy="0" r="3.5"/>
  <g id="zoomPlus">
    <use xlink:href="#rim" fill="#404040"><set attributeName="fill" to="#808080" begin="zoomplus.mouseover" end="zoomplus.mouseout"/></use>
    <path d="M-4,0h8M0,-4v8" fill="none" stroke="white" stroke-width="1.5" pointer-events="none"/>
  </g>
  <g id="zoomMin">
    <use xlink:href="#rim" fill="#404040"><set attributeName="fill" to="#808080" begin="zoomminus.mouseover" end="zoomminus.mouseout"/></use>
    <path d="M-4,0h8" fill="none" stroke="white" stroke-width="1.5" pointer-events="none"/>
  </g>
  <g id="arrowUp" transform="translate(30 24)">
    <use xlink:href="#rim"/>
    <path pointer-events="none" fill="none" stroke="white" stroke-width="1.5" d="M0,-3.0v7 M-2.5,-0.5L0,-3.0L2.5,-0.5"/>
  </g>
  <g id="arrowRight" transform="rotate(90) translate(36 -43)">
    <use xlink:href="#rim"/>
    <path pointer-events="none" fill="none" stroke="white" stroke-width="1.5" d="M0,-3.0v7 M-2.5,-0.5L0,-3.0L2.5,-0.5"/>
  </g>
  <g id="arrowDown" transform="rotate(180) translate(-30 -48)">
    <use xlink:href="#rim"/>
    <path pointer-events="none" fill="none" stroke="white" stroke-width="1.5" d="M0,-3.0v7 M-2.5,-0.5L0,-3.0L2.5,-0.5"/>
  </g>
  <g id="arrowLeft" transform="rotate(270) translate(-36 17)">
    <use xlink:href="#rim"/>
    <path pointer-events="none" fill="none" stroke="white" stroke-width="1.5" d="M0,-3.0v7 M-2.5,-0.5L0,-3.0L2.5,-0.5"/>
  </g>
  <g id="resetDef">
    <use xlink:href="#rim2" fill="#404040"><set attributeName="fill" to="#808080" begin="reset.mouseover" end="reset.mouseout"/></use>
  </g>
</defs>
<script type="application/ecmascript">
var viewWidth = 577;
var viewHeight = 225;
var sectionId = 'dynsection-2';
</script>
<script type="application/ecmascript" xlink:href="svg.min.js"/>
<svg id="graph" class="graph">
<g id="viewport">
<title>Config::isKey</title>
<!-- Node1 -->
<g id="Node000001" class="node">
<title>Node1</title>
<g id="a_Node000001"><a xlink:title=" ">
<polygon fill="#999999" stroke="#666666" points="569,-123.5 489,-123.5 489,-104.5 569,-104.5 569,-123.5"/>
<text text-anchor="middle" x="529" y="-111.5" font-family="Helvetica,sans-Serif" font-size="10.00">Config::isKey</text>
</a>
</g>
</g>
<!-- Node2 -->
<g id="Node000002" class="node">
<title>Node2</title>
<g id="a_Node000002"><a xlink:href="classPusA.html#a9eccdecae6c7893fd19bb78a524fb07a" target="_top" xlink:title=" ">
<polygon fill="white" stroke="#666666" points="429.5,-216.5 306.5,-216.5 306.5,-197.5 429.5,-197.5 429.5,-216.5"/>
<text text-anchor="middle" x="368" y="-204.5" font-family="Helvetica,sans-Serif" font-size="10.00">PusA::loadFromConfig</text>
</a>
</g>
</g>
<!-- Node1&#45;&gt;Node2 -->
<g id="edge1_Node000001_Node000002" class="edge">
<title>Node1&#45;&gt;Node2</title>
<g id="a_edge1_Node000001_Node000002"><a xlink:title=" ">
<path fill="none" stroke="#63b8ff" d="M515.21,-131.76C501.73,-149.11 478.9,-174.91 453,-189 445.79,-192.92 437.81,-195.99 429.71,-198.39"/>
<polygon fill="#63b8ff" stroke="#63b8ff" points="518.16,-133.66 521.37,-123.56 512.57,-129.45 518.16,-133.66"/>
</a>
</g>
</g>
<!-- Node3 -->
<g id="Node000003" class="node">
<title>Node3</title>
<g id="a_Node000003"><a xlink:href="classPusB.html#af2f47f483c90e6a4cc33ebd36f3a3c06" target="_top" xlink:title=" ">
<polygon fill="white" stroke="#666666" points="429.5,-179.5 306.5,-179.5 306.5,-160.5 429.5,-160.5 429.5,-179.5"/>
<text text-anchor="middle" x="368" y="-167.5" font-family="Helvetica,sans-Serif" font-size="10.00">PusB::loadFromConfig</text>
</a>
</g>
</g>
<!-- Node1&#45;&gt;Node3 -->
<g id="edge2_Node000001_Node000003" class="edge">
<title>Node1&#45;&gt;Node3</title>
<g id="a_edge2_Node000001_Node000003"><a xlink:title=" ">
<path fill="none" stroke="#63b8ff" d="M503.42,-128.49C489.11,-136.39 470.5,-145.81 453,-152 443.72,-155.28 433.64,-158.07 423.79,-160.4"/>
<polygon fill="#63b8ff" stroke="#63b8ff" points="505.17,-131.52 512.15,-123.55 501.72,-125.43 505.17,-131.52"/>
</a>
</g>
</g>
<!-- Node4 -->
<g id="Node000004" class="node">
<title>Node4</title>
<g id="a_Node000004"><a xlink:href="classPusC.html#a7a76afa586580e25a6e471add7151a4c" target="_top" xlink:title=" ">
<polygon fill="white" stroke="#666666" points="429.5,-142.5 306.5,-142.5 306.5,-123.5 429.5,-123.5 429.5,-142.5"/>
<text text-anchor="middle" x="368" y="-130.5" font-family="Helvetica,sans-Serif" font-size="10.00">PusC::loadFromConfig</text>
</a>
</g>
</g>
<!-- Node1&#45;&gt;Node4 -->
<g id="edge3_Node000001_Node000004" class="edge">
<title>Node1&#45;&gt;Node4</title>
<g id="a_edge3_Node000001_Node000004"><a xlink:title=" ">
<path fill="none" stroke="#63b8ff" d="M478.76,-119.88C463.18,-121.75 445.79,-123.82 429.52,-125.77"/>
<polygon fill="#63b8ff" stroke="#63b8ff" points="479.18,-123.36 488.7,-118.7 478.35,-116.41 479.18,-123.36"/>
</a>
</g>
</g>
<!-- Node5 -->
<g id="Node000005" class="node">
<title>Node5</title>
<g id="a_Node000005"><a xlink:href="classCCSDS_1_1Packet.html#a69d4cb8111cfec9f231568cfc262e97e" target="_top" xlink:title="Loads a packet from a configuration object, including secondary header if present.">
<polygon fill="white" stroke="#666666" points="453,-105.5 283,-105.5 283,-86.5 453,-86.5 453,-105.5"/>
<text text-anchor="middle" x="368" y="-93.5" font-family="Helvetica,sans-Serif" font-size="10.00">CCSDS::Packet::loadFromConfig</text>
</a>
</g>
</g>
<!-- Node1&#45;&gt;Node5 -->
<g id="edge4_Node000001_Node000005" class="edge">
<title>Node1&#45;&gt;Node5</title>
<g id="a_edge4_Node000001_Node000005"><a xlink:title=" ">
<path fill="none" stroke="#63b8ff" d="M478.62,-108.41C470.42,-107.48 461.73,-106.5 452.96,-105.51"/>
<polygon fill="#63b8ff" stroke="#63b8ff" points="478.37,-111.9 488.7,-109.55 479.15,-104.95 478.37,-111.9"/>
</a>
</g>
</g>
<!-- Node7 -->
<g id="Node000007" class="node">
<title>Node7</title>
<g id="a_Node000007"><a xlink:href="exec__decoder_8cpp.html#a638b85ceffac097c2aa79b76ba8c055e" target="_top" xlink:title=" ">
<polygon fill="white" stroke="#666666" points="41,-107.5 0,-107.5 0,-88.5 41,-88.5 41,-107.5"/>
<text text-anchor="middle" x="20.5" y="-95.5" font-family="Helvetica,sans-Serif" font-size="10.00">main</text>
</a>
</g>
</g>
<!-- Node1&#45;&gt;Node7 -->
<g id="edge8_Node000001_Node000007" class="edge">
<title>Node1&#45;&gt;Node7</title>
<g id="a_edge8_Node000001_Node000007"><a xlink:title=" ">
<path fill="none" stroke="#63b8ff" d="M504.88,-99.13C490.56,-90.82 471.44,-81.3 453,-77 290.26,-39.04 241.39,-46.94 77,-77 64.64,-79.26 51.45,-84.14 41.04,-88.62"/>
<polygon fill="#63b8ff" stroke="#63b8ff" points="503.17,-102.19 513.54,-104.35 506.78,-96.19 503.17,-102.19"/>
</a>
</g>
</g>
<!-- Node9 -->
<g id="Node000009" class="node">
<title>Node9</title>
<g id="a_Node000009"><a xlink:href="classCCSDS_1_1DataField.html#a723659bd61e24b21d2398bc88a95db86" target="_top" xlink:title="Sets the data field header using a configuration file as reference.">
<polygon fill="white" stroke="#666666" points="441,-30 295,-30 295,0 441,0 441,-30"/>
<text text-anchor="start" x="303" y="-18" font-family="Helvetica,sans-Serif" font-size="10.00">CCSDS::DataField::setData</text>
<text text-anchor="middle" x="368" y="-7" font-family="Helvetica,sans-Serif" font-size="10.00">FieldHeader</text>
</a>
</g>
</g>
<!-- Node1&#45;&gt;Node9 -->
<g id="edge9_Node000001_Node000009" class="edge">
<title>Node1&#45;&gt;Node9</title>
<g id="a_edge9_Node000001_Node000009"><a xlink:title=" ">
<path fill="none" stroke="#63b8ff" d="M512.84,-96.12C498.74,-80.47 476.44,-58.1 453,-44 443.88,-38.51 433.57,-33.87 423.38,-30.03"/>
<polygon fill="#63b8ff" stroke="#63b8ff" points="510.56,-98.82 519.79,-104.02 515.82,-94.2 510.56,-98.82"/>
</a>
</g>
</g>
<!-- Node6 -->
<g id="Node000006" class="node">
<title>Node6</title>
<g id="a_Node000006"><a xlink:href="classCCSDS_1_1Manager.html#a8adf5ba17eb8041092bcd6c4f1f2b135" target="_top" xlink:title="Loads a template packet from a configuration object.">
<polygon fill="white" stroke="#666666" points="247,-154 77,-154 77,-124 247,-124 247,-154"/>
<text text-anchor="start" x="85" y="-142" font-family="Helvetica,sans-Serif" font-size="10.00">CCSDS::Manager::loadTemplate</text>
<text text-anchor="middle" x="162" y="-131" font-family="Helvetica,sans-Serif" font-size="10.00">Config</text>
</a>
</g>
</g>
<!-- Node5&#45;&gt;Node6 -->
<g id="edge5_Node000005_Node000006" class="edge">
<title>Node5&#45;&gt;Node6</title>
<g id="a_edge5_Node000005_Node000006"><a xlink:title=" ">
<path fill="none" stroke="#63b8ff" d="M311.78,-107.64C287.89,-112.68 259.63,-118.63 234.19,-123.99"/>
<polygon fill="#63b8ff" stroke="#63b8ff" points="312.66,-111.03 321.73,-105.54 311.22,-104.18 312.66,-111.03"/>
</a>
</g>
</g>
<!-- Node8 -->
<g id="Node000008" class="node">
<title>Node8</title>
<g id="a_Node000008"><a xlink:href="exec__validator_8cpp.html#a638b85ceffac097c2aa79b76ba8c055e" target="_top" xlink:title=" ">
<polygon fill="white" stroke="#666666" points="182.5,-105.5 141.5,-105.5 141.5,-86.5 182.5,-86.5 182.5,-105.5"/>
<text text-anchor="middle" x="162" y="-93.5" font-family="Helvetica,sans-Serif" font-size="10.00">main</text>
</a>
</g>
</g>
<!-- Node5&#45;&gt;Node8 -->
<g id="edge7_Node000005_Node000008" class="edge">
<title>Node5&#45;&gt;Node8</title>
<g id="a_edge7_Node000005_Node000008"><a xlink:title=" ">
<path fill="none" stroke="#63b8ff" d="M272.84,-96C238.9,-96 203.8,-96 182.68,-96"/>
<polygon fill="#63b8ff" stroke="#63b8ff" points="272.85,-99.5 282.85,-96 272.85,-92.5 272.85,-99.5"/>
</a>
</g>
</g>
<!-- Node6&#45;&gt;Node7 -->
<g id="edge6_Node000006_Node000007" class="edge">
<title>Node6&#45;&gt;Node7</title>
<g id="a_edge6_Node000006_Node000007"><a xlink:title=" ">
<path fill="none" stroke="#63b8ff" d="M98.01,-121.14C90.92,-119.09 83.8,-117.01 77,-115 65.11,-111.48 51.84,-107.42 41.25,-104.15"/>
<polygon fill="#63b8ff" stroke="#63b8ff" points="97.05,-124.51 107.63,-123.92 98.99,-117.78 97.05,-124.51"/>
</a>
</g>
</g>
</g>
</svg>

<g id="navigator" transform="translate(0 0)" fill="#404254">
  <rect fill="#f2f5e9" fill-opacity="0.5" stroke="#606060" stroke-width=".5" x="0" y="0" width="60" height="60"/>
  <use id="zoomplus" xlink:href="#zoomPlus" x="17" y="9" onmousedown="handleZoom(evt,'in')"/>
  <use id="zoomminus" xlink:href="#zoomMin" x="42" y="9" onmousedown="handleZoom(evt,'out')"/>
  <use id="reset" xlink:href="#resetDef" x="30" y="36" onmousedown="handleReset()"/>
   <use id="arrowup" xlink:href="#arrowUp" x="0" y="0" onmousedown="handlePan(0,-1)"/>
  <use id="arrowright" xlink:href="#arrowRight" x="0" y="0" onmousedown="handlePan(1,0)"/>
  <use id="arrowdown" xlink:href="#arrowDown" x="0" y="0" onmousedown="handlePan(0,1)"/>
  <use id="arrowleft" xlink:href="#arrowLeft" x="0" y="0" onmousedown="handlePan(-1,0)"/>
</g>
<svg viewBox="0 0 15 15" width="100%" height="30px" preserveAspectRatio="xMaxYMin meet">
 <g id="arrow_out" transform="scale(0.3 0.3)">
  <a xlink:href="classConfig_a093d1897ebdb889d382706a73b02d249_icgraph_org.svg" target="_base">
   <rect id="button" ry="5" rx="5" y="6" x="6" height="38" width="38"
        fill="#f2f5e9" fill-opacity="0.5" stroke="#606060" stroke-width="1.0"/>
   <path id="arrow"
     d="M 11.500037,31.436501 C 11.940474,20.09759 22.043105,11.32322 32.158766,21.979434 L 37.068811,17.246167 C 37.068811,17.246167 37.088388,32 37.088388,32 L 22.160133,31.978069 C 22.160133,31.978069 26.997745,27.140456 26.997745,27.140456 C 18.528582,18.264221 13.291696,25.230495 11.500037,31.436501 z"
     style="fill:#404040;"/>
  </a>
 </g>
</svg>

<style type='text/css'>
<![CDATA[
[data-mouse-over-selected='false'] { opacity: 0.7; }
[data-mouse-over-selected='true']  { opacity: 1.0; }
]]>
</style>
<script type="application/ecmascript"><![CDATA[
document.addEventListener('DOMContentLoaded', (event) => {
  highlightEdges();
  highlightAdjacentNodes();
});
]]></script>
</svg>
