<?xml version="1.0" encoding="UTF-8" standalone="no"?>
<!DOCTYPE svg PUBLIC "-//W3C//DTD SVG 1.1//EN"
 "http://www.w3.org/Graphics/SVG/1.1/DTD/svg11.dtd">
<!-- Generated by graphviz version 2.43.0 (0)
 -->
<!-- Title: CCSDS::SecondaryHeaderFactory::registerType Pages: 1 -->
<svg width="597pt" height="76pt"
 viewBox="0.00 0.00 597.00 75.50" xmlns="http://www.w3.org/2000/svg" xmlns:xlink="http://www.w3.org/1999/xlink">
<g id="graph0" class="graph" transform="scale(1 1) rotate(0) translate(4 71.5)">
<title>CCSDS::SecondaryHeaderFactory::registerType</title>
<!-- Node1 -->
<g id="Node000001" class="node">
<title>Node1</title>
<g id="a_Node000001"><a xlink:title="Registers a new header type with its creation function.">
<polygon fill="#999999" stroke="#666666" points="589,-51 412,-51 412,-21 589,-21 589,-51"/>
<text text-anchor="start" x="420" y="-39" font-family="Helvetica,sans-Serif" font-size="10.00">CCSDS::SecondaryHeaderFactory</text>
<text text-anchor="middle" x="500.5" y="-28" font-family="Helvetica,sans-Serif" font-size="10.00">::registerType</text>
</a>
</g>
</g>
<!-- Node2 -->
<g id="Node000002" class="node">
<title>Node2</title>
<g id="a_Node000002"><a xlink:href="classCCSDS_1_1DataField.html#a469d7a355a760935c0ddc027c634bc51" target="_top" xlink:title=" ">
<polygon fill="white" stroke="#666666" points="376,-67.5 221,-67.5 221,-48.5 376,-48.5 376,-67.5"/>
<text text-anchor="middle" x="298.5" y="-55.5" font-family="Helvetica,sans-Serif" font-size="10.00">CCSDS::DataField::DataField</text>
</a>
</g>
</g>
<!-- Node1&#45;&gt;Node2 -->
<g id="edge1_Node000001_Node000002" class="edge">
<title>Node1&#45;&gt;Node2</title>
<g id="a_edge1_Node000001_Node000002"><a xlink:title=" ">
<path fill="none" stroke="#63b8ff" d="M401.73,-46.75C393.15,-47.7 384.55,-48.64 376.18,-49.57"/>
<polygon fill="#63b8ff" stroke="#63b8ff" points="402.22,-50.22 411.78,-45.65 401.45,-43.26 402.22,-50.22"/>
</a>
</g>
</g>
<!-- Node3 -->
<g id="Node000003" class="node">
<title>Node3</title>
<g id="a_Node000003"><a xlink:href="classCCSDS_1_1DataField.html#a339d345a47e95d258f5bec45c2e8d980" target="_top" xlink:title="Registers a new header type with its creation function.">
<polygon fill="white" stroke="#666666" points="373,-30 224,-30 224,0 373,0 373,-30"/>
<text text-anchor="start" x="232" y="-18" font-family="Helvetica,sans-Serif" font-size="10.00">CCSDS::DataField::Register</text>
<text text-anchor="middle" x="298.5" y="-7" font-family="Helvetica,sans-Serif" font-size="10.00">SecondaryHeader</text>
</a>
</g>
</g>
<!-- Node1&#45;&gt;Node3 -->
<g id="edge2_Node000001_Node000003" class="edge">
<title>Node1&#45;&gt;Node3</title>
<g id="a_edge2_Node000001_Node000003"><a xlink:title=" ">
<path fill="none" stroke="#63b8ff" d="M401.75,-25.74C392.11,-24.72 382.44,-23.71 373.1,-22.73"/>
<polygon fill="#63b8ff" stroke="#63b8ff" points="401.47,-29.23 411.78,-26.79 402.2,-22.26 401.47,-29.23"/>
</a>
</g>
</g>
<!-- Node4 -->
<g id="Node000004" class="node">
<title>Node4</title>
<g id="a_Node000004"><a xlink:href="classCCSDS_1_1Packet.html#ad08e87b95b8201e6c2fa373934bcf780" target="_top" xlink:title="Registers a new header type with the data field secondary header creation function.">
<polygon fill="white" stroke="#666666" points="185,-30 0,-30 0,0 185,0 185,-30"/>
<text text-anchor="start" x="8" y="-18" font-family="Helvetica,sans-Serif" font-size="10.00">CCSDS::Packet::RegisterSecondary</text>
<text text-anchor="middle" x="92.5" y="-7" font-family="Helvetica,sans-Serif" font-size="10.00">Header</text>
</a>
</g>
</g>
<!-- Node3&#45;&gt;Node4 -->
<g id="edge3_Node000003_Node000004" class="edge">
<title>Node3&#45;&gt;Node4</title>
<g id="a_edge3_Node000003_Node000004"><a xlink:title=" ">
<path fill="none" stroke="#63b8ff" d="M213.73,-15C204.31,-15 194.68,-15 185.17,-15"/>
<polygon fill="#63b8ff" stroke="#63b8ff" points="213.85,-18.5 223.85,-15 213.85,-11.5 213.85,-18.5"/>
</a>
</g>
</g>
</g>
</svg>
