<?xml version="1.0" encoding="UTF-8" standalone="no"?>
<!DOCTYPE svg PUBLIC "-//W3C//DTD SVG 1.1//EN"
 "http://www.w3.org/Graphics/SVG/1.1/DTD/svg11.dtd">
<!-- Generated by graphviz version 2.43.0 (0)
 -->
<!-- Title: CCSDS::Manager::setApplicationData Pages: 1 -->
<svg width="427pt" height="172pt"
 viewBox="0.00 0.00 427.00 171.50" xmlns="http://www.w3.org/2000/svg" xmlns:xlink="http://www.w3.org/1999/xlink">

<svg id="main" version="1.1" xmlns="http://www.w3.org/2000/svg" xmlns:xlink="http://www.w3.org/1999/xlink" xml:space="preserve" onload="init(evt)">
<style type="text/css"><![CDATA[
.node, .edge {opacity: 0.7;}
.node.selected, .edge.selected {opacity: 1;}
.edge:hover path { stroke: red; }
.edge:hover polygon { stroke: red; fill: red; }
]]></style>
<script type="application/ecmascript" xlink:href="svg.min.js"/>
<svg id="graph" class="graph">
<g id="graph0" class="graph" transform="scale(1 1) rotate(0) translate(4 167.5)">
<title>CCSDS::Manager::setApplicationData</title>
<!-- Node1 -->
<g id="Node000001" class="node">
<title>Node1</title>
<g id="a_Node000001"><a xlink:title="Sets the application data for the packet.">
<polygon fill="#999999" stroke="#666666" points="197,-96.5 0,-96.5 0,-77.5 197,-77.5 197,-96.5"/>
<text text-anchor="middle" x="98.5" y="-84.5" font-family="Helvetica,sans-Serif" font-size="10.00">CCSDS::Manager::setApplicationData</text>
</a>
</g>
</g>
<!-- Node2 -->
<g id="Node000002" class="node">
<title>Node2</title>
<g id="a_Node000002"><a xlink:href="classCCSDS_1_1Packet.html#a25e1bfe92e9b301eebcda0b932895a6d" target="_top" xlink:title="Sets the application data for the packet.">
<polygon fill="white" stroke="#666666" points="419,-163.5 233,-163.5 233,-144.5 419,-144.5 419,-163.5"/>
<text text-anchor="middle" x="326" y="-151.5" font-family="Helvetica,sans-Serif" font-size="10.00">CCSDS::Packet::setApplicationData</text>
</a>
</g>
</g>
<!-- Node1&#45;&gt;Node2 -->
<g id="edge1_Node000001_Node000002" class="edge">
<title>Node1&#45;&gt;Node2</title>
<g id="a_edge1_Node000001_Node000002"><a xlink:title=" ">
<path fill="none" stroke="#63b8ff" d="M122.81,-96.52C149.2,-107.03 193.64,-123.92 233,-135 242.42,-137.65 252.48,-140.1 262.36,-142.3"/>
<polygon fill="#63b8ff" stroke="#63b8ff" points="261.63,-145.73 272.15,-144.42 263.11,-138.89 261.63,-145.73"/>
</a>
</g>
</g>
<!-- Node3 -->
<g id="Node000003" class="node">
<title>Node3</title>
<g id="a_Node000003"><a xlink:href="classCCSDS_1_1Packet.html#a0574c8d03d7c0eb6593353947623e239" target="_top" xlink:title="Sets the sequence count for the packet.">
<polygon fill="white" stroke="#666666" points="403.5,-126 248.5,-126 248.5,-96 403.5,-96 403.5,-126"/>
<text text-anchor="start" x="256.5" y="-114" font-family="Helvetica,sans-Serif" font-size="10.00">CCSDS::Packet::setSequence</text>
<text text-anchor="middle" x="326" y="-103" font-family="Helvetica,sans-Serif" font-size="10.00">Count</text>
</a>
</g>
</g>
<!-- Node1&#45;&gt;Node3 -->
<g id="edge2_Node000001_Node000003" class="edge">
<title>Node1&#45;&gt;Node3</title>
<g id="a_edge2_Node000001_Node000003"><a xlink:title=" ">
<path fill="none" stroke="#63b8ff" d="M188.95,-96.52C205.24,-98.25 222.21,-100.06 238.42,-101.79"/>
<polygon fill="#63b8ff" stroke="#63b8ff" points="238.09,-105.27 248.4,-102.85 238.83,-98.31 238.09,-105.27"/>
</a>
</g>
</g>
<!-- Node4 -->
<g id="Node000004" class="node">
<title>Node4</title>
<g id="a_Node000004"><a xlink:href="classCCSDS_1_1Packet.html#a8a9c3befafa7f93482c1e37375bc23d4" target="_top" xlink:title="Sets the sequence flags for the packet&#39;s primary header.">
<polygon fill="white" stroke="#666666" points="403.5,-78 248.5,-78 248.5,-48 403.5,-48 403.5,-78"/>
<text text-anchor="start" x="256.5" y="-66" font-family="Helvetica,sans-Serif" font-size="10.00">CCSDS::Packet::setSequence</text>
<text text-anchor="middle" x="326" y="-55" font-family="Helvetica,sans-Serif" font-size="10.00">Flags</text>
</a>
</g>
</g>
<!-- Node1&#45;&gt;Node4 -->
<g id="edge3_Node000001_Node000004" class="edge">
<title>Node1&#45;&gt;Node4</title>
<g id="a_edge3_Node000001_Node000004"><a xlink:title=" ">
<path fill="none" stroke="#63b8ff" d="M188.95,-77.48C205.24,-75.75 222.21,-73.94 238.42,-72.21"/>
<polygon fill="#63b8ff" stroke="#63b8ff" points="238.83,-75.69 248.4,-71.15 238.09,-68.73 238.83,-75.69"/>
</a>
</g>
</g>
<!-- Node5 -->
<g id="Node000005" class="node">
<title>Node5</title>
<g id="a_Node000005"><a xlink:href="classCCSDS_1_1Packet.html#a29f623c1b7b29e37a2a71c556169b1c1" target="_top" xlink:title="needs to be called as soon as possible, probably also from constructor.">
<polygon fill="white" stroke="#666666" points="397.5,-30 254.5,-30 254.5,0 397.5,0 397.5,-30"/>
<text text-anchor="start" x="262.5" y="-18" font-family="Helvetica,sans-Serif" font-size="10.00">CCSDS::Packet::setUpdate</text>
<text text-anchor="middle" x="326" y="-7" font-family="Helvetica,sans-Serif" font-size="10.00">PacketEnable</text>
</a>
</g>
</g>
<!-- Node1&#45;&gt;Node5 -->
<g id="edge4_Node000001_Node000005" class="edge">
<title>Node1&#45;&gt;Node5</title>
<g id="a_edge4_Node000001_Node000005"><a xlink:title=" ">
<path fill="none" stroke="#63b8ff" d="M123.88,-77.49C150.48,-67.28 194.41,-50.94 233,-39 239.83,-36.89 246.98,-34.8 254.15,-32.79"/>
<polygon fill="#63b8ff" stroke="#63b8ff" points="255.2,-36.14 263.91,-30.11 253.34,-29.39 255.2,-36.14"/>
</a>
</g>
</g>
</g>
</svg>
</svg>

<style type='text/css'>
<![CDATA[
[data-mouse-over-selected='false'] { opacity: 0.7; }
[data-mouse-over-selected='true']  { opacity: 1.0; }
]]>
</style>
<script type="application/ecmascript"><![CDATA[
document.addEventListener('DOMContentLoaded', (event) => {
  highlightEdges();
  highlightAdjacentNodes();
});
]]></script>
</svg>
