<?xml version="1.0" encoding="UTF-8" standalone="no"?>
<!DOCTYPE svg PUBLIC "-//W3C//DTD SVG 1.1//EN"
 "http://www.w3.org/Graphics/SVG/1.1/DTD/svg11.dtd">
<!-- Generated by graphviz version 2.43.0 (0)
 -->
<!-- Title: CCSDS::Packet::deserialize Pages: 1 -->
<svg width="361pt" height="76pt"
 viewBox="0.00 0.00 361.00 75.50" xmlns="http://www.w3.org/2000/svg" xmlns:xlink="http://www.w3.org/1999/xlink">
<g id="graph0" class="graph" transform="scale(1 1) rotate(0) translate(4 71.5)">
<title>CCSDS::Packet::deserialize</title>
<!-- Node1 -->
<g id="Node000001" class="node">
<title>Node1</title>
<g id="a_Node000001"><a xlink:title="Deserializes a vector of bytes into a CCSDS packet.">
<polygon fill="#999999" stroke="#666666" points="353,-40 207,-40 207,-21 353,-21 353,-40"/>
<text text-anchor="middle" x="280" y="-28" font-family="Helvetica,sans-Serif" font-size="10.00">CCSDS::Packet::deserialize</text>
</a>
</g>
</g>
<!-- Node2 -->
<g id="Node000002" class="node">
<title>Node2</title>
<g id="a_Node000002"><a xlink:href="classCCSDS_1_1Manager.html#aa15ff66d78688766157c560ff31384f0" target="_top" xlink:title="Adds a new packet to the list.">
<polygon fill="white" stroke="#666666" points="162.5,-67.5 8.5,-67.5 8.5,-37.5 162.5,-37.5 162.5,-67.5"/>
<text text-anchor="start" x="16.5" y="-55.5" font-family="Helvetica,sans-Serif" font-size="10.00">CCSDS::Manager::addPacket</text>
<text text-anchor="middle" x="85.5" y="-44.5" font-family="Helvetica,sans-Serif" font-size="10.00">FromBuffer</text>
</a>
</g>
</g>
<!-- Node1&#45;&gt;Node2 -->
<g id="edge1_Node000001_Node000002" class="edge">
<title>Node1&#45;&gt;Node2</title>
<g id="a_edge1_Node000001_Node000002"><a xlink:title=" ">
<path fill="none" stroke="#63b8ff" d="M196.54,-39.92C185.29,-41.21 173.8,-42.52 162.67,-43.79"/>
<polygon fill="#63b8ff" stroke="#63b8ff" points="197.23,-43.37 206.77,-38.75 196.44,-36.41 197.23,-43.37"/>
</a>
</g>
</g>
<!-- Node3 -->
<g id="Node000003" class="node">
<title>Node3</title>
<g id="a_Node000003"><a xlink:href="classCCSDS_1_1Manager.html#a44c3bccc78ccf59d9432935e43283342" target="_top" xlink:title="Load a template packet from a binary or configuration file.">
<polygon fill="white" stroke="#666666" points="171,-19 0,-19 0,0 171,0 171,-19"/>
<text text-anchor="middle" x="85.5" y="-7" font-family="Helvetica,sans-Serif" font-size="10.00">CCSDS::Manager::readTemplate</text>
</a>
</g>
</g>
<!-- Node1&#45;&gt;Node3 -->
<g id="edge2_Node000001_Node000003" class="edge">
<title>Node1&#45;&gt;Node3</title>
<g id="a_edge2_Node000001_Node000003"><a xlink:title=" ">
<path fill="none" stroke="#63b8ff" d="M196.58,-21.51C188.15,-20.59 179.58,-19.65 171.13,-18.73"/>
<polygon fill="#63b8ff" stroke="#63b8ff" points="196.45,-25.02 206.77,-22.62 197.21,-18.06 196.45,-25.02"/>
</a>
</g>
</g>
</g>
</svg>
