<?xml version="1.0" encoding="UTF-8" standalone="no"?>
<!DOCTYPE svg PUBLIC "-//W3C//DTD SVG 1.1//EN"
 "http://www.w3.org/Graphics/SVG/1.1/DTD/svg11.dtd">
<!-- Generated by graphviz version 2.43.0 (0)
 -->
<!-- Title: PusA::loadFromConfig Pages: 1 -->
<svg width="352pt" height="46pt"
 viewBox="0.00 0.00 352.00 46.00" xmlns="http://www.w3.org/2000/svg" xmlns:xlink="http://www.w3.org/1999/xlink">
<g id="graph0" class="graph" transform="scale(1 1) rotate(0) translate(4 42)">
<title>PusA::loadFromConfig</title>
<!-- Node1 -->
<g id="Node000001" class="node">
<title>Node1</title>
<g id="a_Node000001"><a xlink:title=" ">
<polygon fill="#999999" stroke="#666666" points="123,-38 0,-38 0,-19 123,-19 123,-38"/>
<text text-anchor="middle" x="61.5" y="-26" font-family="Helvetica,sans-Serif" font-size="10.00">PusA::loadFromConfig</text>
</a>
</g>
</g>
<!-- Node2 -->
<g id="Node000002" class="node">
<title>Node2</title>
<g id="a_Node000002"><a xlink:href="classConfig.html#ac0eb207d3a0c9b3039000301c612aadb" target="_top" xlink:title="Get value by key and type.">
<polygon fill="white" stroke="#666666" points="344,-38 275,-38 275,-19 344,-19 344,-38"/>
<text text-anchor="middle" x="309.5" y="-26" font-family="Helvetica,sans-Serif" font-size="10.00">Config::get</text>
</a>
</g>
</g>
<!-- Node1&#45;&gt;Node2 -->
<g id="edge1_Node000001_Node000002" class="edge">
<title>Node1&#45;&gt;Node2</title>
<g id="a_edge1_Node000001_Node000002"><a xlink:title=" ">
<path fill="none" stroke="#63b8ff" d="M123.31,-28.5C167.19,-28.5 225.41,-28.5 264.77,-28.5"/>
<polygon fill="#63b8ff" stroke="#63b8ff" points="264.84,-32 274.84,-28.5 264.84,-25 264.84,-32"/>
</a>
</g>
</g>
<!-- Node3 -->
<g id="Node000003" class="node">
<title>Node3</title>
<g id="a_Node000003"><a xlink:href="classConfig.html#a093d1897ebdb889d382706a73b02d249" target="_top" xlink:title=" ">
<polygon fill="white" stroke="#666666" points="239,-19 159,-19 159,0 239,0 239,-19"/>
<text text-anchor="middle" x="199" y="-7" font-family="Helvetica,sans-Serif" font-size="10.00">Config::isKey</text>
</a>
</g>
</g>
<!-- Node1&#45;&gt;Node3 -->
<g id="edge2_Node000001_Node000003" class="edge">
<title>Node1&#45;&gt;Node3</title>
<g id="a_edge2_Node000001_Node000003"><a xlink:title=" ">
<path fill="none" stroke="#63b8ff" d="M123.12,-20C131.73,-18.79 140.5,-17.56 148.87,-16.39"/>
<polygon fill="#63b8ff" stroke="#63b8ff" points="149.41,-19.85 158.82,-14.99 148.44,-12.92 149.41,-19.85"/>
</a>
</g>
</g>
<!-- Node3&#45;&gt;Node2 -->
<g id="edge3_Node000003_Node000002" class="edge">
<title>Node3&#45;&gt;Node2</title>
<g id="a_edge3_Node000003_Node000002"><a xlink:title=" ">
<path fill="none" stroke="#63b8ff" d="M239.17,-16.36C247.46,-17.81 256.25,-19.35 264.7,-20.83"/>
<polygon fill="#63b8ff" stroke="#63b8ff" points="264.31,-24.31 274.76,-22.59 265.52,-17.42 264.31,-24.31"/>
</a>
</g>
</g>
</g>
</svg>
