<?xml version="1.0" encoding="UTF-8" standalone="no"?>
<!DOCTYPE svg PUBLIC "-//W3C//DTD SVG 1.1//EN"
 "http://www.w3.org/Graphics/SVG/1.1/DTD/svg11.dtd">
<!-- Generated by graphviz version 2.43.0 (0)
 -->
<!-- Title: ccsds::Config::get Pages: 1 -->
<svg width="521pt" height="212pt"
 viewBox="0.00 0.00 521.00 212.00" xmlns="http://www.w3.org/2000/svg" xmlns:xlink="http://www.w3.org/1999/xlink">
<g id="graph0" class="graph" transform="scale(1 1) rotate(0) translate(4 208)">
<title>ccsds::Config::get</title>
<!-- Node1 -->
<g id="Node000001" class="node">
<title>Node1</title>
<g id="a_Node000001"><a xlink:title="Retrieves a value by exact key and requested type.">
<polygon fill="#999999" stroke="#666666" points="513,-93.5 411,-93.5 411,-74.5 513,-74.5 513,-93.5"/>
<text text-anchor="middle" x="462" y="-81.5" font-family="Helvetica,sans-Serif" font-size="10.00">ccsds::Config::get</text>
</a>
</g>
</g>
<!-- Node2 -->
<g id="Node000002" class="node">
<title>Node2</title>
<g id="a_Node000002"><a xlink:href="classccsds_1_1Packet.html#a129b598ca603b6c97eb85695ecbb5899" target="_top" xlink:title=" ">
<polygon fill="white" stroke="#666666" points="369.5,-155.5 205.5,-155.5 205.5,-136.5 369.5,-136.5 369.5,-155.5"/>
<text text-anchor="middle" x="287.5" y="-143.5" font-family="Helvetica,sans-Serif" font-size="10.00">ccsds::Packet::loadFromConfig</text>
</a>
</g>
</g>
<!-- Node1&#45;&gt;Node2 -->
<g id="edge1_Node000001_Node000002" class="edge">
<title>Node1&#45;&gt;Node2</title>
<g id="a_edge1_Node000001_Node000002"><a xlink:title=" ">
<path fill="none" stroke="#63b8ff" d="M430.15,-97.83C413.9,-104.88 393.55,-113.35 375,-120 358.17,-126.03 339.18,-131.85 323.28,-136.44"/>
<polygon fill="#63b8ff" stroke="#63b8ff" points="431.93,-100.87 439.69,-93.65 429.12,-94.46 431.93,-100.87"/>
</a>
</g>
</g>
<!-- Node5 -->
<g id="Node000005" class="node">
<title>Node5</title>
<g id="a_Node000005"><a xlink:href="classccsds_1_1pus_1_1TmSecondaryHeader.html#ac418ea76ee75e829042019c49c42993e" target="_top" xlink:title=" ">
<polygon fill="white" stroke="#666666" points="375,-78 200,-78 200,-48 375,-48 375,-78"/>
<text text-anchor="start" x="208" y="-66" font-family="Helvetica,sans-Serif" font-size="10.00">ccsds::pus::TmSecondaryHeader</text>
<text text-anchor="middle" x="287.5" y="-55" font-family="Helvetica,sans-Serif" font-size="10.00">::loadFromConfig</text>
</a>
</g>
</g>
<!-- Node1&#45;&gt;Node5 -->
<g id="edge4_Node000001_Node000005" class="edge">
<title>Node1&#45;&gt;Node5</title>
<g id="a_edge4_Node000001_Node000005"><a xlink:title=" ">
<path fill="none" stroke="#63b8ff" d="M400.49,-76.63C392.31,-75.64 383.8,-74.6 375.27,-73.56"/>
<polygon fill="#63b8ff" stroke="#63b8ff" points="400.29,-80.14 410.64,-77.87 401.14,-73.19 400.29,-80.14"/>
</a>
</g>
</g>
<!-- Node6 -->
<g id="Node000006" class="node">
<title>Node6</title>
<g id="a_Node000006"><a xlink:href="classccsds_1_1pus_1_1rev__a_1_1TmHeader.html#ab368f9b460336dace25defa1239871d4" target="_top" xlink:title=" ">
<polygon fill="white" stroke="#666666" points="157,-118 7,-118 7,-88 157,-88 157,-118"/>
<text text-anchor="start" x="15" y="-106" font-family="Helvetica,sans-Serif" font-size="10.00">ccsds::pus::rev_a::</text>
<text text-anchor="middle" x="82" y="-95" font-family="Helvetica,sans-Serif" font-size="10.00">TmHeader::loadFromConfig</text>
</a>
</g>
</g>
<!-- Node1&#45;&gt;Node6 -->
<g id="edge7_Node000001_Node000006" class="edge">
<title>Node1&#45;&gt;Node6</title>
<g id="a_edge7_Node000001_Node000006"><a xlink:title=" ">
<path fill="none" stroke="#63b8ff" d="M400.54,-87.04C334.39,-90.36 228.3,-95.7 157.16,-99.27"/>
<polygon fill="#63b8ff" stroke="#63b8ff" points="400.99,-90.52 410.8,-86.52 400.64,-83.53 400.99,-90.52"/>
</a>
</g>
</g>
<!-- Node8 -->
<g id="Node000008" class="node">
<title>Node8</title>
<g id="a_Node000008"><a xlink:href="classccsds_1_1DataField.html#a131d499aae70ad88491d36b57d0aecc6" target="_top" xlink:title=" ">
<polygon fill="white" stroke="#666666" points="371.5,-30 203.5,-30 203.5,0 371.5,0 371.5,-30"/>
<text text-anchor="start" x="211.5" y="-18" font-family="Helvetica,sans-Serif" font-size="10.00">ccsds::DataField::setSecondary</text>
<text text-anchor="middle" x="287.5" y="-7" font-family="Helvetica,sans-Serif" font-size="10.00">Header</text>
</a>
</g>
</g>
<!-- Node1&#45;&gt;Node8 -->
<g id="edge8_Node000001_Node000008" class="edge">
<title>Node1&#45;&gt;Node8</title>
<g id="a_edge8_Node000001_Node000008"><a xlink:title=" ">
<path fill="none" stroke="#63b8ff" d="M436.64,-69.48C419.77,-59.87 396.55,-47.52 375,-39 366.74,-35.74 357.87,-32.73 349.07,-30.04"/>
<polygon fill="#63b8ff" stroke="#63b8ff" points="434.9,-72.52 445.31,-74.5 438.41,-66.46 434.9,-72.52"/>
</a>
</g>
</g>
<!-- Node3 -->
<g id="Node000003" class="node">
<title>Node3</title>
<g id="a_Node000003"><a xlink:href="classccsds_1_1Manager.html#a195b476130d9f6bfec2c2352b40f6483" target="_top" xlink:title=" ">
<polygon fill="white" stroke="#666666" points="164,-204 0,-204 0,-174 164,-174 164,-204"/>
<text text-anchor="start" x="8" y="-192" font-family="Helvetica,sans-Serif" font-size="10.00">ccsds::Manager::loadTemplate</text>
<text text-anchor="middle" x="82" y="-181" font-family="Helvetica,sans-Serif" font-size="10.00">Config</text>
</a>
</g>
</g>
<!-- Node2&#45;&gt;Node3 -->
<g id="edge2_Node000002_Node000003" class="edge">
<title>Node2&#45;&gt;Node3</title>
<g id="a_edge2_Node000002_Node000003"><a xlink:title=" ">
<path fill="none" stroke="#63b8ff" d="M231.41,-157.64C207.58,-162.68 179.39,-168.63 154.02,-173.99"/>
<polygon fill="#63b8ff" stroke="#63b8ff" points="232.28,-161.03 241.34,-155.54 230.83,-154.19 232.28,-161.03"/>
</a>
</g>
</g>
<!-- Node4 -->
<g id="Node000004" class="node">
<title>Node4</title>
<g id="a_Node000004"><a xlink:href="exec__decoder_8cpp.html#a638b85ceffac097c2aa79b76ba8c055e" target="_top" xlink:title=" ">
<polygon fill="white" stroke="#666666" points="102.5,-155.5 61.5,-155.5 61.5,-136.5 102.5,-136.5 102.5,-155.5"/>
<text text-anchor="middle" x="82" y="-143.5" font-family="Helvetica,sans-Serif" font-size="10.00">main</text>
</a>
</g>
</g>
<!-- Node2&#45;&gt;Node4 -->
<g id="edge3_Node000002_Node000004" class="edge">
<title>Node2&#45;&gt;Node4</title>
<g id="a_edge3_Node000002_Node000004"><a xlink:title=" ">
<path fill="none" stroke="#63b8ff" d="M195.31,-146C160.73,-146 124.5,-146 102.84,-146"/>
<polygon fill="#63b8ff" stroke="#63b8ff" points="195.49,-149.5 205.49,-146 195.49,-142.5 195.49,-149.5"/>
</a>
</g>
</g>
<!-- Node5&#45;&gt;Node6 -->
<g id="edge5_Node000005_Node000006" class="edge">
<title>Node5&#45;&gt;Node6</title>
<g id="a_edge5_Node000005_Node000006"><a xlink:title=" ">
<path fill="none" stroke="#63b8ff" d="M200.28,-79.95C185.91,-82.77 171.12,-85.68 157.08,-88.44"/>
<polygon fill="#63b8ff" stroke="#63b8ff" points="201.01,-83.37 210.15,-78.01 199.66,-76.5 201.01,-83.37"/>
</a>
</g>
</g>
<!-- Node7 -->
<g id="Node000007" class="node">
<title>Node7</title>
<g id="a_Node000007"><a xlink:href="classccsds_1_1pus_1_1rev__c_1_1TmHeader.html#a61eab7c956c0271621b181d418ae9318" target="_top" xlink:title=" ">
<polygon fill="white" stroke="#666666" points="157,-70 7,-70 7,-40 157,-40 157,-70"/>
<text text-anchor="start" x="15" y="-58" font-family="Helvetica,sans-Serif" font-size="10.00">ccsds::pus::rev_c::</text>
<text text-anchor="middle" x="82" y="-47" font-family="Helvetica,sans-Serif" font-size="10.00">TmHeader::loadFromConfig</text>
</a>
</g>
</g>
<!-- Node5&#45;&gt;Node7 -->
<g id="edge6_Node000005_Node000007" class="edge">
<title>Node5&#45;&gt;Node7</title>
<g id="a_edge6_Node000005_Node000007"><a xlink:title=" ">
<path fill="none" stroke="#63b8ff" d="M189.81,-59.2C178.78,-58.77 167.67,-58.33 157,-57.91"/>
<polygon fill="#63b8ff" stroke="#63b8ff" points="189.77,-62.7 199.9,-59.6 190.05,-55.71 189.77,-62.7"/>
</a>
</g>
</g>
</g>
</svg>
