<?xml version="1.0" encoding="UTF-8" standalone="no"?>
<!DOCTYPE svg PUBLIC "-//W3C//DTD SVG 1.1//EN"
 "http://www.w3.org/Graphics/SVG/1.1/DTD/svg11.dtd">
<!-- Generated by graphviz version 2.43.0 (0)
 -->
<!-- Title: CCSDS::Packet::setUpdatePacketEnable Pages: 1 -->
<svg width="461pt" height="101pt"
 viewBox="0.00 0.00 461.00 101.00" xmlns="http://www.w3.org/2000/svg" xmlns:xlink="http://www.w3.org/1999/xlink">

<svg id="main" version="1.1" xmlns="http://www.w3.org/2000/svg" xmlns:xlink="http://www.w3.org/1999/xlink" xml:space="preserve" onload="init(evt)">
<style type="text/css"><![CDATA[
.node, .edge {opacity: 0.7;}
.node.selected, .edge.selected {opacity: 1;}
.edge:hover path { stroke: red; }
.edge:hover polygon { stroke: red; fill: red; }
]]></style>
<script type="application/ecmascript" xlink:href="svg.min.js"/>
<svg id="graph" class="graph">
<g id="graph0" class="graph" transform="scale(1 1) rotate(0) translate(4 97)">
<title>CCSDS::Packet::setUpdatePacketEnable</title>
<!-- Node1 -->
<g id="Node000001" class="node">
<title>Node1</title>
<g id="a_Node000001"><a xlink:title="needs to be called as soon as possible, probably also from constructor.">
<polygon fill="#999999" stroke="#666666" points="453,-61.5 310,-61.5 310,-31.5 453,-31.5 453,-61.5"/>
<text text-anchor="start" x="318" y="-49.5" font-family="Helvetica,sans-Serif" font-size="10.00">CCSDS::Packet::setUpdate</text>
<text text-anchor="middle" x="381.5" y="-38.5" font-family="Helvetica,sans-Serif" font-size="10.00">PacketEnable</text>
</a>
</g>
</g>
<!-- Node2 -->
<g id="Node000002" class="node">
<title>Node2</title>
<g id="a_Node000002"><a xlink:href="classCCSDS_1_1Manager.html#a4fd11a40ea4d569a483061892bfb688f" target="_top" xlink:title="Adds a new packet to the list.">
<polygon fill="white" stroke="#666666" points="252.5,-93 98.5,-93 98.5,-74 252.5,-74 252.5,-93"/>
<text text-anchor="middle" x="175.5" y="-81" font-family="Helvetica,sans-Serif" font-size="10.00">CCSDS::Manager::addPacket</text>
</a>
</g>
</g>
<!-- Node1&#45;&gt;Node2 -->
<g id="edge1_Node000001_Node000002" class="edge">
<title>Node1&#45;&gt;Node2</title>
<g id="a_edge1_Node000001_Node000002"><a xlink:title=" ">
<path fill="none" stroke="#63b8ff" d="M299.67,-61.16C275.94,-65.46 250.61,-70.06 229.14,-73.95"/>
<polygon fill="#63b8ff" stroke="#63b8ff" points="300.51,-64.57 309.72,-59.34 299.26,-57.68 300.51,-64.57"/>
</a>
</g>
</g>
<!-- Node3 -->
<g id="Node000003" class="node">
<title>Node3</title>
<g id="a_Node000003"><a xlink:href="classCCSDS_1_1Manager.html#a2f6c84bec310a521c55d88ce49506395" target="_top" xlink:title="Sets the application data for the packet.">
<polygon fill="white" stroke="#666666" points="274,-56 77,-56 77,-37 274,-37 274,-56"/>
<text text-anchor="middle" x="175.5" y="-44" font-family="Helvetica,sans-Serif" font-size="10.00">CCSDS::Manager::setApplicationData</text>
</a>
</g>
</g>
<!-- Node1&#45;&gt;Node3 -->
<g id="edge2_Node000001_Node000003" class="edge">
<title>Node1&#45;&gt;Node3</title>
<g id="a_edge2_Node000001_Node000003"><a xlink:title=" ">
<path fill="none" stroke="#63b8ff" d="M299.61,-46.5C291.23,-46.5 282.65,-46.5 274.11,-46.5"/>
<polygon fill="#63b8ff" stroke="#63b8ff" points="299.72,-50 309.72,-46.5 299.72,-43 299.72,-50"/>
</a>
</g>
</g>
<!-- Node5 -->
<g id="Node000005" class="node">
<title>Node5</title>
<g id="a_Node000005"><a xlink:href="classCCSDS_1_1Validator.html#af6e8699c7d3d0719934106ca2d58fb95" target="_top" xlink:title="Validates a given packet.">
<polygon fill="white" stroke="#666666" points="248,-19 103,-19 103,0 248,0 248,-19"/>
<text text-anchor="middle" x="175.5" y="-7" font-family="Helvetica,sans-Serif" font-size="10.00">CCSDS::Validator::validate</text>
</a>
</g>
</g>
<!-- Node1&#45;&gt;Node5 -->
<g id="edge4_Node000001_Node000005" class="edge">
<title>Node1&#45;&gt;Node5</title>
<g id="a_edge4_Node000001_Node000005"><a xlink:title=" ">
<path fill="none" stroke="#63b8ff" d="M299.67,-31.84C275.94,-27.54 250.61,-22.94 229.14,-19.05"/>
<polygon fill="#63b8ff" stroke="#63b8ff" points="299.26,-35.32 309.72,-33.66 300.51,-28.43 299.26,-35.32"/>
</a>
</g>
</g>
<!-- Node4 -->
<g id="Node000004" class="node">
<title>Node4</title>
<g id="a_Node000004"><a xlink:href="exec__decoder_8cpp.html#a638b85ceffac097c2aa79b76ba8c055e" target="_top" xlink:title=" ">
<polygon fill="white" stroke="#666666" points="41,-56 0,-56 0,-37 41,-37 41,-56"/>
<text text-anchor="middle" x="20.5" y="-44" font-family="Helvetica,sans-Serif" font-size="10.00">main</text>
</a>
</g>
</g>
<!-- Node3&#45;&gt;Node4 -->
<g id="edge3_Node000003_Node000004" class="edge">
<title>Node3&#45;&gt;Node4</title>
<g id="a_edge3_Node000003_Node000004"><a xlink:title=" ">
<path fill="none" stroke="#63b8ff" d="M66.54,-46.5C57,-46.5 48.25,-46.5 41.05,-46.5"/>
<polygon fill="#63b8ff" stroke="#63b8ff" points="66.74,-50 76.74,-46.5 66.74,-43 66.74,-50"/>
</a>
</g>
</g>
</g>
</svg>
</svg>

<style type='text/css'>
<![CDATA[
[data-mouse-over-selected='false'] { opacity: 0.7; }
[data-mouse-over-selected='true']  { opacity: 1.0; }
]]>
</style>
<script type="application/ecmascript"><![CDATA[
document.addEventListener('DOMContentLoaded', (event) => {
  highlightEdges();
  highlightAdjacentNodes();
});
]]></script>
</svg>
