<?xml version="1.0" encoding="UTF-8" standalone="no"?>
<!DOCTYPE svg PUBLIC "-//W3C//DTD SVG 1.1//EN"
 "http://www.w3.org/Graphics/SVG/1.1/DTD/svg11.dtd">
<!-- Generated by graphviz version 2.43.0 (0)
 -->
<!-- Title: Config::get Pages: 1 -->
<!--zoomable 211 -->

<svg id="main" version="1.1" xmlns="http://www.w3.org/2000/svg" xmlns:xlink="http://www.w3.org/1999/xlink" xml:space="preserve" onload="init(evt)">
<style type="text/css"><![CDATA[
.node, .edge {opacity: 0.7;}
.node.selected, .edge.selected {opacity: 1;}
.edge:hover path { stroke: red; }
.edge:hover polygon { stroke: red; fill: red; }
]]></style>

<defs>
  <circle id="rim" cx="0" cy="0" r="7"/>
  <circle id="rim2" cx="0" cy="0" r="3.5"/>
  <g id="zoomPlus">
    <use xlink:href="#rim" fill="#404040"><set attributeName="fill" to="#808080" begin="zoomplus.mouseover" end="zoomplus.mouseout"/></use>
    <path d="M-4,0h8M0,-4v8" fill="none" stroke="white" stroke-width="1.5" pointer-events="none"/>
  </g>
  <g id="zoomMin">
    <use xlink:href="#rim" fill="#404040"><set attributeName="fill" to="#808080" begin="zoomminus.mouseover" end="zoomminus.mouseout"/></use>
    <path d="M-4,0h8" fill="none" stroke="white" stroke-width="1.5" pointer-events="none"/>
  </g>
  <g id="arrowUp" transform="translate(30 24)">
    <use xlink:href="#rim"/>
    <path pointer-events="none" fill="none" stroke="white" stroke-width="1.5" d="M0,-3.0v7 M-2.5,-0.5L0,-3.0L2.5,-0.5"/>
  </g>
  <g id="arrowRight" transform="rotate(90) translate(36 -43)">
    <use xlink:href="#rim"/>
    <path pointer-events="none" fill="none" stroke="white" stroke-width="1.5" d="M0,-3.0v7 M-2.5,-0.5L0,-3.0L2.5,-0.5"/>
  </g>
  <g id="arrowDown" transform="rotate(180) translate(-30 -48)">
    <use xlink:href="#rim"/>
    <path pointer-events="none" fill="none" stroke="white" stroke-width="1.5" d="M0,-3.0v7 M-2.5,-0.5L0,-3.0L2.5,-0.5"/>
  </g>
  <g id="arrowLeft" transform="rotate(270) translate(-36 17)">
    <use xlink:href="#rim"/>
    <path pointer-events="none" fill="none" stroke="white" stroke-width="1.5" d="M0,-3.0v7 M-2.5,-0.5L0,-3.0L2.5,-0.5"/>
  </g>
  <g id="resetDef">
    <use xlink:href="#rim2" fill="#404040"><set attributeName="fill" to="#808080" begin="reset.mouseover" end="reset.mouseout"/></use>
  </g>
</defs>
<script type="application/ecmascript">
var viewWidth = 544;
var viewHeight = 211;
var sectionId = 'dynsection-1';
</script>
<script type="application/ecmascript" xlink:href="svg.min.js"/>
<svg id="graph" class="graph">
<g id="viewport">
<title>Config::get</title>
<!-- Node1 -->
<g id="Node000001" class="node">
<title>Node1</title>
<g id="a_Node000001"><a xlink:title="Get value by key and type.">
<polygon fill="#999999" stroke="#666666" points="536,-107.77 467,-107.77 467,-88.77 536,-88.77 536,-107.77"/>
<text text-anchor="middle" x="501.5" y="-95.77" font-family="Helvetica,sans-Serif" font-size="10.00">Config::get</text>
</a>
</g>
</g>
<!-- Node1&#45;&gt;Node1 -->
<g id="edge1_Node000001_Node000001" class="edge">
<title>Node1&#45;&gt;Node1</title>
<g id="a_edge1_Node000001_Node000001"><a xlink:title=" ">
<path fill="none" stroke="#63b8ff" d="M524.46,-117.32C522.93,-122.15 515.27,-125.77 501.5,-125.77 479.46,-125.77 473.09,-116.5 482.39,-107.85"/>
<polygon fill="#63b8ff" stroke="#63b8ff" points="527.62,-115.8 520.61,-107.85 521.14,-118.43 527.62,-115.8"/>
</a>
</g>
</g>
<!-- Node2 -->
<g id="Node000002" class="node">
<title>Node2</title>
<g id="a_Node000002"><a xlink:href="classConfig.html#a093d1897ebdb889d382706a73b02d249" target="_top" xlink:title=" ">
<polygon fill="white" stroke="#666666" points="287,-202.77 207,-202.77 207,-183.77 287,-183.77 287,-202.77"/>
<text text-anchor="middle" x="247" y="-190.77" font-family="Helvetica,sans-Serif" font-size="10.00">Config::isKey</text>
</a>
</g>
</g>
<!-- Node1&#45;&gt;Node2 -->
<g id="edge2_Node000001_Node000002" class="edge">
<title>Node1&#45;&gt;Node2</title>
<g id="a_edge2_Node000001_Node000002"><a xlink:title=" ">
<path fill="none" stroke="#63b8ff" d="M488.41,-116.23C476.08,-132.97 455.35,-157.11 431,-169.27 385.42,-192.03 325.87,-195.78 287.28,-195.35"/>
<polygon fill="#63b8ff" stroke="#63b8ff" points="491.44,-118.01 494.36,-107.82 485.73,-113.96 491.44,-118.01"/>
</a>
</g>
</g>
<!-- Node3 -->
<g id="Node000003" class="node">
<title>Node3</title>
<g id="a_Node000003"><a xlink:href="exec__decoder_8cpp.html#a638b85ceffac097c2aa79b76ba8c055e" target="_top" xlink:title=" ">
<polygon fill="white" stroke="#666666" points="106,-164.77 65,-164.77 65,-145.77 106,-145.77 106,-164.77"/>
<text text-anchor="middle" x="85.5" y="-152.77" font-family="Helvetica,sans-Serif" font-size="10.00">main</text>
</a>
</g>
</g>
<!-- Node1&#45;&gt;Node3 -->
<g id="edge7_Node000001_Node000003" class="edge">
<title>Node1&#45;&gt;Node3</title>
<g id="a_edge7_Node000001_Node000003"><a xlink:title=" ">
<path fill="none" stroke="#63b8ff" d="M456.9,-109.06C448.35,-110.97 439.42,-112.8 431,-114.27 308.17,-135.65 158.74,-149.26 106.03,-153.69"/>
<polygon fill="#63b8ff" stroke="#63b8ff" points="457.75,-112.46 466.71,-106.82 456.18,-105.64 457.75,-112.46"/>
</a>
</g>
</g>
<!-- Node4 -->
<g id="Node000004" class="node">
<title>Node4</title>
<g id="a_Node000004"><a xlink:href="classConfig.html#a666e6d9c5510736d8ef85564abe834dd" target="_top" xlink:title="Load config file.">
<polygon fill="white" stroke="#666666" points="284,-88.77 210,-88.77 210,-69.77 284,-69.77 284,-88.77"/>
<text text-anchor="middle" x="247" y="-76.77" font-family="Helvetica,sans-Serif" font-size="10.00">Config::load</text>
</a>
</g>
</g>
<!-- Node1&#45;&gt;Node4 -->
<g id="edge4_Node000001_Node000004" class="edge">
<title>Node1&#45;&gt;Node4</title>
<g id="a_edge4_Node000001_Node000004"><a xlink:title=" ">
<path fill="none" stroke="#63b8ff" d="M456.81,-101.27C420.76,-103.03 368.37,-103.93 323,-98.27 308.07,-96.41 291.85,-92.54 278.32,-88.77"/>
<polygon fill="#63b8ff" stroke="#63b8ff" points="457.18,-104.75 466.98,-100.73 456.81,-97.76 457.18,-104.75"/>
</a>
</g>
</g>
<!-- Node5 -->
<g id="Node000005" class="node">
<title>Node5</title>
<g id="a_Node000005"><a xlink:href="classCCSDS_1_1Manager.html#a44c3bccc78ccf59d9432935e43283342" target="_top" xlink:title="Load a template packet from a binary or configuration file.">
<polygon fill="white" stroke="#666666" points="171,-51.77 0,-51.77 0,-32.77 171,-32.77 171,-51.77"/>
<text text-anchor="middle" x="85.5" y="-39.77" font-family="Helvetica,sans-Serif" font-size="10.00">CCSDS::Manager::readTemplate</text>
</a>
</g>
</g>
<!-- Node1&#45;&gt;Node5 -->
<g id="edge12_Node000001_Node000005" class="edge">
<title>Node1&#45;&gt;Node5</title>
<g id="a_edge12_Node000001_Node000005"><a xlink:title=" ">
<path fill="none" stroke="#63b8ff" d="M489.89,-79.94C478.13,-61.69 457.32,-34.76 431,-23.27 321.76,24.43 174.19,-13.51 113.88,-32.77"/>
<polygon fill="#63b8ff" stroke="#63b8ff" points="486.97,-81.89 495.19,-88.58 492.94,-78.22 486.97,-81.89"/>
</a>
</g>
</g>
<!-- Node6 -->
<g id="Node000006" class="node">
<title>Node6</title>
<g id="a_Node000006"><a xlink:href="classConfig.html#a0c3a6f1dbed78a72da53833b419491d9" target="_top" xlink:title="Parse string &quot;[1,2,3]&quot; into vector&lt;uint8_t&gt;">
<polygon fill="white" stroke="#666666" points="431,-88.77 323,-88.77 323,-69.77 431,-69.77 431,-88.77"/>
<text text-anchor="middle" x="377" y="-76.77" font-family="Helvetica,sans-Serif" font-size="10.00">Config::parseBytes</text>
</a>
</g>
</g>
<!-- Node1&#45;&gt;Node6 -->
<g id="edge8_Node000001_Node000006" class="edge">
<title>Node1&#45;&gt;Node6</title>
<g id="a_edge8_Node000001_Node000006"><a xlink:title=" ">
<path fill="none" stroke="#63b8ff" d="M456.65,-91.47C448.49,-90.2 439.87,-88.87 431.46,-87.56"/>
<polygon fill="#63b8ff" stroke="#63b8ff" points="456.28,-94.95 466.7,-93.03 457.36,-88.03 456.28,-94.95"/>
</a>
</g>
</g>
<!-- Node7 -->
<g id="Node000007" class="node">
<title>Node7</title>
<g id="a_Node000007"><a xlink:href="classConfig.html#ae9010d142dcb6a29be942eb3b1513dda" target="_top" xlink:title="Parse a single line from config.">
<polygon fill="white" stroke="#666666" points="427.5,-51.77 326.5,-51.77 326.5,-32.77 427.5,-32.77 427.5,-51.77"/>
<text text-anchor="middle" x="377" y="-39.77" font-family="Helvetica,sans-Serif" font-size="10.00">Config::parseLine</text>
</a>
</g>
</g>
<!-- Node1&#45;&gt;Node7 -->
<g id="edge10_Node000001_Node000007" class="edge">
<title>Node1&#45;&gt;Node7</title>
<g id="a_edge10_Node000001_Node000007"><a xlink:title=" ">
<path fill="none" stroke="#63b8ff" d="M475.42,-83.78C462.4,-76.55 446.09,-67.95 431,-61.27 423.31,-57.87 414.81,-54.61 406.91,-51.78"/>
<polygon fill="#63b8ff" stroke="#63b8ff" points="473.83,-86.9 484.26,-88.76 477.27,-80.8 473.83,-86.9"/>
</a>
</g>
</g>
<!-- Node2&#45;&gt;Node3 -->
<g id="edge3_Node000002_Node000003" class="edge">
<title>Node2&#45;&gt;Node3</title>
<g id="a_edge3_Node000002_Node000003"><a xlink:title=" ">
<path fill="none" stroke="#63b8ff" d="M196.92,-181.58C166.37,-174.3 128.72,-165.33 106.22,-159.97"/>
<polygon fill="#63b8ff" stroke="#63b8ff" points="196.44,-185.06 206.98,-183.97 198.07,-178.25 196.44,-185.06"/>
</a>
</g>
</g>
<!-- Node4&#45;&gt;Node3 -->
<g id="edge5_Node000004_Node000003" class="edge">
<title>Node4&#45;&gt;Node3</title>
<g id="a_edge5_Node000004_Node000003"><a xlink:title=" ">
<path fill="none" stroke="#63b8ff" d="M216.44,-93.35C184.23,-108.7 133.63,-132.81 106.04,-145.96"/>
<polygon fill="#63b8ff" stroke="#63b8ff" points="218.28,-96.36 225.8,-88.89 215.27,-90.04 218.28,-96.36"/>
</a>
</g>
</g>
<!-- Node4&#45;&gt;Node5 -->
<g id="edge6_Node000004_Node000005" class="edge">
<title>Node4&#45;&gt;Node5</title>
<g id="a_edge6_Node000004_Node000005"><a xlink:title=" ">
<path fill="none" stroke="#63b8ff" d="M199.99,-68.6C177.14,-63.29 149.75,-56.94 127.61,-51.81"/>
<polygon fill="#63b8ff" stroke="#63b8ff" points="199.27,-72.02 209.81,-70.87 200.86,-65.2 199.27,-72.02"/>
</a>
</g>
</g>
<!-- Node6&#45;&gt;Node4 -->
<g id="edge9_Node000006_Node000004" class="edge">
<title>Node6&#45;&gt;Node4</title>
<g id="a_edge9_Node000006_Node000004"><a xlink:title=" ">
<path fill="none" stroke="#63b8ff" d="M312.65,-79.27C302.84,-79.27 293.01,-79.27 284.08,-79.27"/>
<polygon fill="#63b8ff" stroke="#63b8ff" points="312.83,-82.77 322.83,-79.27 312.83,-75.77 312.83,-82.77"/>
</a>
</g>
</g>
<!-- Node7&#45;&gt;Node4 -->
<g id="edge11_Node000007_Node000004" class="edge">
<title>Node7&#45;&gt;Node4</title>
<g id="a_edge11_Node000007_Node000004"><a xlink:title=" ">
<path fill="none" stroke="#63b8ff" d="M333.36,-54.59C316.41,-59.49 297.19,-65.05 281.3,-69.64"/>
<polygon fill="#63b8ff" stroke="#63b8ff" points="334.4,-57.94 343.04,-51.8 332.46,-51.21 334.4,-57.94"/>
</a>
</g>
</g>
</g>
</svg>

<g id="navigator" transform="translate(0 0)" fill="#404254">
  <rect fill="#f2f5e9" fill-opacity="0.5" stroke="#606060" stroke-width=".5" x="0" y="0" width="60" height="60"/>
  <use id="zoomplus" xlink:href="#zoomPlus" x="17" y="9" onmousedown="handleZoom(evt,'in')"/>
  <use id="zoomminus" xlink:href="#zoomMin" x="42" y="9" onmousedown="handleZoom(evt,'out')"/>
  <use id="reset" xlink:href="#resetDef" x="30" y="36" onmousedown="handleReset()"/>
   <use id="arrowup" xlink:href="#arrowUp" x="0" y="0" onmousedown="handlePan(0,-1)"/>
  <use id="arrowright" xlink:href="#arrowRight" x="0" y="0" onmousedown="handlePan(1,0)"/>
  <use id="arrowdown" xlink:href="#arrowDown" x="0" y="0" onmousedown="handlePan(0,1)"/>
  <use id="arrowleft" xlink:href="#arrowLeft" x="0" y="0" onmousedown="handlePan(-1,0)"/>
</g>
<svg viewBox="0 0 15 15" width="100%" height="30px" preserveAspectRatio="xMaxYMin meet">
 <g id="arrow_out" transform="scale(0.3 0.3)">
  <a xlink:href="classConfig_ac0eb207d3a0c9b3039000301c612aadb_icgraph_org.svg" target="_base">
   <rect id="button" ry="5" rx="5" y="6" x="6" height="38" width="38"
        fill="#f2f5e9" fill-opacity="0.5" stroke="#606060" stroke-width="1.0"/>
   <path id="arrow"
     d="M 11.500037,31.436501 C 11.940474,20.09759 22.043105,11.32322 32.158766,21.979434 L 37.068811,17.246167 C 37.068811,17.246167 37.088388,32 37.088388,32 L 22.160133,31.978069 C 22.160133,31.978069 26.997745,27.140456 26.997745,27.140456 C 18.528582,18.264221 13.291696,25.230495 11.500037,31.436501 z"
     style="fill:#404040;"/>
  </a>
 </g>
</svg>

<style type='text/css'>
<![CDATA[
[data-mouse-over-selected='false'] { opacity: 0.7; }
[data-mouse-over-selected='true']  { opacity: 1.0; }
]]>
</style>
<script type="application/ecmascript"><![CDATA[
document.addEventListener('DOMContentLoaded', (event) => {
  highlightEdges();
  highlightAdjacentNodes();
});
]]></script>
</svg>
