<?xml version="1.0" encoding="UTF-8" standalone="no"?>
<!DOCTYPE svg PUBLIC "-//W3C//DTD SVG 1.1//EN"
 "http://www.w3.org/Graphics/SVG/1.1/DTD/svg11.dtd">
<!-- Generated by graphviz version 2.43.0 (0)
 -->
<!-- Title: CCSDS::Header::setData Pages: 1 -->
<svg width="786pt" height="94pt"
 viewBox="0.00 0.00 786.00 93.50" xmlns="http://www.w3.org/2000/svg" xmlns:xlink="http://www.w3.org/1999/xlink">
<g id="graph0" class="graph" transform="scale(1 1) rotate(0) translate(4 89.5)">
<title>CCSDS::Header::setData</title>
<!-- Node1 -->
<g id="Node000001" class="node">
<title>Node1</title>
<g id="a_Node000001"><a xlink:title="Sets the header data from a 64&#45;bit integer representation.">
<polygon fill="#999999" stroke="#666666" points="778,-45.5 643,-45.5 643,-26.5 778,-26.5 778,-45.5"/>
<text text-anchor="middle" x="710.5" y="-33.5" font-family="Helvetica,sans-Serif" font-size="10.00">CCSDS::Header::setData</text>
</a>
</g>
</g>
<!-- Node2 -->
<g id="Node000002" class="node">
<title>Node2</title>
<g id="a_Node000002"><a xlink:href="classCCSDS_1_1Header.html#a2f4d97beaaaac5b2005b470ed14f228d" target="_top" xlink:title="Sets the header data from a 64&#45;bit integer representation.">
<polygon fill="white" stroke="#666666" points="607,-67.5 457,-67.5 457,-48.5 607,-48.5 607,-67.5"/>
<text text-anchor="middle" x="532" y="-55.5" font-family="Helvetica,sans-Serif" font-size="10.00">CCSDS::Header::deserialize</text>
</a>
</g>
</g>
<!-- Node1&#45;&gt;Node2 -->
<g id="edge1_Node000001_Node000002" class="edge">
<title>Node1&#45;&gt;Node2</title>
<g id="a_edge1_Node000001_Node000002"><a xlink:title=" ">
<path fill="none" stroke="#63b8ff" d="M632.59,-45.59C624.16,-46.64 615.6,-47.7 607.21,-48.75"/>
<polygon fill="#63b8ff" stroke="#63b8ff" points="633.28,-49.03 642.77,-44.32 632.42,-42.08 633.28,-49.03"/>
</a>
</g>
</g>
<!-- Node9 -->
<g id="Node000009" class="node">
<title>Node9</title>
<g id="a_Node000009"><a xlink:href="classCCSDS_1_1Packet.html#ab0ea5b4bdce0b2ac00f10d22f22aaa91" target="_top" xlink:title="Sets the primary header using the provided PrimaryHeader object.">
<polygon fill="white" stroke="#666666" points="605,-30 459,-30 459,0 605,0 605,-30"/>
<text text-anchor="start" x="467" y="-18" font-family="Helvetica,sans-Serif" font-size="10.00">CCSDS::Packet::setPrimary</text>
<text text-anchor="middle" x="532" y="-7" font-family="Helvetica,sans-Serif" font-size="10.00">Header</text>
</a>
</g>
</g>
<!-- Node1&#45;&gt;Node9 -->
<g id="edge9_Node000001_Node000009" class="edge">
<title>Node1&#45;&gt;Node9</title>
<g id="a_edge9_Node000001_Node000009"><a xlink:title=" ">
<path fill="none" stroke="#63b8ff" d="M632.57,-26.85C623.45,-25.76 614.17,-24.66 605.13,-23.58"/>
<polygon fill="#63b8ff" stroke="#63b8ff" points="632.43,-30.35 642.77,-28.06 633.26,-23.4 632.43,-30.35"/>
</a>
</g>
</g>
<!-- Node3 -->
<g id="Node000003" class="node">
<title>Node3</title>
<g id="a_Node000003"><a xlink:href="classCCSDS_1_1Manager.html#a974f09b0a59fc6ed7083a467c1f7d67d" target="_top" xlink:title="Load a packet or a series of packets from a buffer.">
<polygon fill="white" stroke="#666666" points="421,-85.5 296,-85.5 296,-66.5 421,-66.5 421,-85.5"/>
<text text-anchor="middle" x="358.5" y="-73.5" font-family="Helvetica,sans-Serif" font-size="10.00">CCSDS::Manager::load</text>
</a>
</g>
</g>
<!-- Node2&#45;&gt;Node3 -->
<g id="edge2_Node000002_Node000003" class="edge">
<title>Node2&#45;&gt;Node3</title>
<g id="a_edge2_Node000002_Node000003"><a xlink:title=" ">
<path fill="none" stroke="#63b8ff" d="M446.72,-66.85C438.13,-67.75 429.52,-68.65 421.23,-69.52"/>
<polygon fill="#63b8ff" stroke="#63b8ff" points="447.2,-70.32 456.78,-65.79 446.46,-63.35 447.2,-70.32"/>
</a>
</g>
</g>
<!-- Node4 -->
<g id="Node000004" class="node">
<title>Node4</title>
<g id="a_Node000004"><a xlink:href="CCSDSUtils_8cpp.html#a3c45ef84a35555519e34164e000dada5" target="_top" xlink:title="Prints to console the primary header of a provided CCSDS packet.">
<polygon fill="white" stroke="#666666" points="415,-48.5 302,-48.5 302,-29.5 415,-29.5 415,-48.5"/>
<text text-anchor="middle" x="358.5" y="-36.5" font-family="Helvetica,sans-Serif" font-size="10.00">printPrimaryHeader</text>
</a>
</g>
</g>
<!-- Node2&#45;&gt;Node4 -->
<g id="edge3_Node000002_Node000004" class="edge">
<title>Node2&#45;&gt;Node4</title>
<g id="a_edge3_Node000002_Node000004"><a xlink:title=" ">
<path fill="none" stroke="#63b8ff" d="M446.59,-48.65C435.94,-47.47 425.27,-46.29 415.22,-45.17"/>
<polygon fill="#63b8ff" stroke="#63b8ff" points="446.45,-52.15 456.78,-49.78 447.22,-45.2 446.45,-52.15"/>
</a>
</g>
</g>
<!-- Node5 -->
<g id="Node000005" class="node">
<title>Node5</title>
<g id="a_Node000005"><a xlink:href="CCSDSUtils_8cpp.html#a2e40e3867139b28c1b2fa0465c3afd7e" target="_top" xlink:title="Prints to console a CCSDS Packets, breaking it down to Primary header and Data field.">
<polygon fill="white" stroke="#666666" points="260,-67.5 189,-67.5 189,-48.5 260,-48.5 260,-67.5"/>
<text text-anchor="middle" x="224.5" y="-55.5" font-family="Helvetica,sans-Serif" font-size="10.00">printPacket</text>
</a>
</g>
</g>
<!-- Node4&#45;&gt;Node5 -->
<g id="edge4_Node000004_Node000005" class="edge">
<title>Node4&#45;&gt;Node5</title>
<g id="a_edge4_Node000004_Node000005"><a xlink:title=" ">
<path fill="none" stroke="#63b8ff" d="M291.92,-48.44C281.01,-50.01 270.09,-51.58 260.34,-52.99"/>
<polygon fill="#63b8ff" stroke="#63b8ff" points="292.5,-51.89 301.9,-47 291.51,-44.96 292.5,-51.89"/>
</a>
</g>
</g>
<!-- Node7 -->
<g id="Node000007" class="node">
<title>Node7</title>
<g id="a_Node000007"><a xlink:href="CCSDSUtils_8cpp.html#ad200055b4cb44dddba0ced16faee7d69" target="_top" xlink:title="Prints to console a series of CCSDS Packets contained in the manager.">
<polygon fill="white" stroke="#666666" points="153,-30.5 77,-30.5 77,-11.5 153,-11.5 153,-30.5"/>
<text text-anchor="middle" x="115" y="-18.5" font-family="Helvetica,sans-Serif" font-size="10.00">printPackets</text>
</a>
</g>
</g>
<!-- Node4&#45;&gt;Node7 -->
<g id="edge8_Node000004_Node000007" class="edge">
<title>Node4&#45;&gt;Node7</title>
<g id="a_edge8_Node000004_Node000007"><a xlink:title=" ">
<path fill="none" stroke="#63b8ff" d="M291.62,-34.09C247.06,-30.77 189.84,-26.5 153.04,-23.76"/>
<polygon fill="#63b8ff" stroke="#63b8ff" points="291.56,-37.59 301.79,-34.85 292.08,-30.61 291.56,-37.59"/>
</a>
</g>
</g>
<!-- Node6 -->
<g id="Node000006" class="node">
<title>Node6</title>
<g id="a_Node000006"><a xlink:href="exec__validator_8cpp.html#a638b85ceffac097c2aa79b76ba8c055e" target="_top" xlink:title=" ">
<polygon fill="white" stroke="#666666" points="135.5,-67.5 94.5,-67.5 94.5,-48.5 135.5,-48.5 135.5,-67.5"/>
<text text-anchor="middle" x="115" y="-55.5" font-family="Helvetica,sans-Serif" font-size="10.00">main</text>
</a>
</g>
</g>
<!-- Node5&#45;&gt;Node6 -->
<g id="edge5_Node000005_Node000006" class="edge">
<title>Node5&#45;&gt;Node6</title>
<g id="a_edge5_Node000005_Node000006"><a xlink:title=" ">
<path fill="none" stroke="#63b8ff" d="M178.75,-58C163.79,-58 147.87,-58 135.81,-58"/>
<polygon fill="#63b8ff" stroke="#63b8ff" points="178.89,-61.5 188.89,-58 178.89,-54.5 178.89,-61.5"/>
</a>
</g>
</g>
<!-- Node5&#45;&gt;Node7 -->
<g id="edge6_Node000005_Node000007" class="edge">
<title>Node5&#45;&gt;Node7</title>
<g id="a_edge6_Node000005_Node000007"><a xlink:title=" ">
<path fill="none" stroke="#63b8ff" d="M186.08,-45.12C172.25,-40.36 156.82,-35.05 143.96,-30.62"/>
<polygon fill="#63b8ff" stroke="#63b8ff" points="185.22,-48.53 195.82,-48.47 187.5,-41.91 185.22,-48.53"/>
</a>
</g>
</g>
<!-- Node8 -->
<g id="Node000008" class="node">
<title>Node8</title>
<g id="a_Node000008"><a xlink:href="exec__decoder_8cpp.html#a638b85ceffac097c2aa79b76ba8c055e" target="_top" xlink:title=" ">
<polygon fill="white" stroke="#666666" points="41,-30.5 0,-30.5 0,-11.5 41,-11.5 41,-30.5"/>
<text text-anchor="middle" x="20.5" y="-18.5" font-family="Helvetica,sans-Serif" font-size="10.00">main</text>
</a>
</g>
</g>
<!-- Node7&#45;&gt;Node8 -->
<g id="edge7_Node000007_Node000008" class="edge">
<title>Node7&#45;&gt;Node8</title>
<g id="a_edge7_Node000007_Node000008"><a xlink:title=" ">
<path fill="none" stroke="#63b8ff" d="M66.72,-21C57.65,-21 48.64,-21 41.07,-21"/>
<polygon fill="#63b8ff" stroke="#63b8ff" points="66.91,-24.5 76.91,-21 66.91,-17.5 66.91,-24.5"/>
</a>
</g>
</g>
</g>
</svg>
