<?xml version="1.0" encoding="UTF-8" standalone="no"?>
<!DOCTYPE svg PUBLIC "-//W3C//DTD SVG 1.1//EN"
 "http://www.w3.org/Graphics/SVG/1.1/DTD/svg11.dtd">
<!-- Generated by graphviz version 2.43.0 (0)
 -->
<!-- Title: CCSDS::DataField::setDataFieldHeader Pages: 1 -->
<svg width="375pt" height="52pt"
 viewBox="0.00 0.00 375.00 51.50" xmlns="http://www.w3.org/2000/svg" xmlns:xlink="http://www.w3.org/1999/xlink">
<g id="graph0" class="graph" transform="scale(1 1) rotate(0) translate(4 47.5)">
<title>CCSDS::DataField::setDataFieldHeader</title>
<!-- Node1 -->
<g id="Node000001" class="node">
<title>Node1</title>
<g id="a_Node000001"><a xlink:title="Sets the data field header using a configuration file as reference.">
<polygon fill="#999999" stroke="#666666" points="146,-43.5 0,-43.5 0,-13.5 146,-13.5 146,-43.5"/>
<text text-anchor="start" x="8" y="-31.5" font-family="Helvetica,sans-Serif" font-size="10.00">CCSDS::DataField::setData</text>
<text text-anchor="middle" x="73" y="-20.5" font-family="Helvetica,sans-Serif" font-size="10.00">FieldHeader</text>
</a>
</g>
</g>
<!-- Node2 -->
<g id="Node000002" class="node">
<title>Node2</title>
<g id="a_Node000002"><a xlink:href="classConfig.html#ac0eb207d3a0c9b3039000301c612aadb" target="_top" xlink:title="Get value by key and type.">
<polygon fill="white" stroke="#666666" points="367,-38 298,-38 298,-19 367,-19 367,-38"/>
<text text-anchor="middle" x="332.5" y="-26" font-family="Helvetica,sans-Serif" font-size="10.00">Config::get</text>
</a>
</g>
</g>
<!-- Node1&#45;&gt;Node2 -->
<g id="edge1_Node000001_Node000002" class="edge">
<title>Node1&#45;&gt;Node2</title>
<g id="a_edge1_Node000001_Node000002"><a xlink:title=" ">
<path fill="none" stroke="#63b8ff" d="M146.07,-28.5C191.49,-28.5 248.68,-28.5 287.45,-28.5"/>
<polygon fill="#63b8ff" stroke="#63b8ff" points="287.87,-32 297.87,-28.5 287.87,-25 287.87,-32"/>
</a>
</g>
</g>
<!-- Node3 -->
<g id="Node000003" class="node">
<title>Node3</title>
<g id="a_Node000003"><a xlink:href="classConfig.html#a093d1897ebdb889d382706a73b02d249" target="_top" xlink:title=" ">
<polygon fill="white" stroke="#666666" points="262,-19 182,-19 182,0 262,0 262,-19"/>
<text text-anchor="middle" x="222" y="-7" font-family="Helvetica,sans-Serif" font-size="10.00">Config::isKey</text>
</a>
</g>
</g>
<!-- Node1&#45;&gt;Node3 -->
<g id="edge2_Node000001_Node000003" class="edge">
<title>Node1&#45;&gt;Node3</title>
<g id="a_edge2_Node000001_Node000003"><a xlink:title=" ">
<path fill="none" stroke="#63b8ff" d="M146.21,-19.17C154.89,-18.05 163.59,-16.92 171.83,-15.85"/>
<polygon fill="#63b8ff" stroke="#63b8ff" points="172.52,-19.3 181.99,-14.54 171.62,-12.35 172.52,-19.3"/>
</a>
</g>
</g>
<!-- Node3&#45;&gt;Node2 -->
<g id="edge3_Node000003_Node000002" class="edge">
<title>Node3&#45;&gt;Node2</title>
<g id="a_edge3_Node000003_Node000002"><a xlink:title=" ">
<path fill="none" stroke="#63b8ff" d="M262.17,-16.36C270.46,-17.81 279.25,-19.35 287.7,-20.83"/>
<polygon fill="#63b8ff" stroke="#63b8ff" points="287.31,-24.31 297.76,-22.59 288.52,-17.42 287.31,-24.31"/>
</a>
</g>
</g>
</g>
</svg>
