<?xml version="1.0" encoding="UTF-8" standalone="no"?>
<!DOCTYPE svg PUBLIC "-//W3C//DTD SVG 1.1//EN"
 "http://www.w3.org/Graphics/SVG/1.1/DTD/svg11.dtd">
<!-- Generated by graphviz version 2.43.0 (0)
 -->
<!-- Title: CCSDS::DataField::update Pages: 1 -->
<svg width="498pt" height="27pt"
 viewBox="0.00 0.00 498.00 27.00" xmlns="http://www.w3.org/2000/svg" xmlns:xlink="http://www.w3.org/1999/xlink">
<g id="graph0" class="graph" transform="scale(1 1) rotate(0) translate(4 23)">
<title>CCSDS::DataField::update</title>
<!-- Node1 -->
<g id="Node000001" class="node">
<title>Node1</title>
<g id="a_Node000001"><a xlink:title="Updates the data field header based on the current application data size.">
<polygon fill="#999999" stroke="#666666" points="490,-19 348,-19 348,0 490,0 490,-19"/>
<text text-anchor="middle" x="419" y="-7" font-family="Helvetica,sans-Serif" font-size="10.00">CCSDS::DataField::update</text>
</a>
</g>
</g>
<!-- Node2 -->
<g id="Node000002" class="node">
<title>Node2</title>
<g id="a_Node000002"><a xlink:href="classCCSDS_1_1DataField.html#a36e6685c51f6c5c60323df6bb10d781d" target="_top" xlink:title="Retrieves the full data field by combining the data field header and application data.">
<polygon fill="white" stroke="#666666" points="312,-19 163,-19 163,0 312,0 312,-19"/>
<text text-anchor="middle" x="237.5" y="-7" font-family="Helvetica,sans-Serif" font-size="10.00">CCSDS::DataField::serialize</text>
</a>
</g>
</g>
<!-- Node1&#45;&gt;Node2 -->
<g id="edge1_Node000001_Node000002" class="edge">
<title>Node1&#45;&gt;Node2</title>
<g id="a_edge1_Node000001_Node000002"><a xlink:title=" ">
<path fill="none" stroke="#63b8ff" d="M337.59,-9.5C329.13,-9.5 320.55,-9.5 312.17,-9.5"/>
<polygon fill="#63b8ff" stroke="#63b8ff" points="337.83,-13 347.83,-9.5 337.83,-6 337.83,-13"/>
</a>
</g>
</g>
<!-- Node3 -->
<g id="Node000003" class="node">
<title>Node3</title>
<g id="a_Node000003"><a xlink:href="classCCSDS_1_1Packet.html#a25c84fd13d0176cd575d70103bc4af64" target="_top" xlink:title="Updates Primary headers data field size.">
<polygon fill="white" stroke="#666666" points="127,-19 0,-19 0,0 127,0 127,-19"/>
<text text-anchor="middle" x="63.5" y="-7" font-family="Helvetica,sans-Serif" font-size="10.00">CCSDS::Packet::update</text>
</a>
</g>
</g>
<!-- Node2&#45;&gt;Node3 -->
<g id="edge2_Node000002_Node000003" class="edge">
<title>Node2&#45;&gt;Node3</title>
<g id="a_edge2_Node000002_Node000003"><a xlink:title=" ">
<path fill="none" stroke="#63b8ff" d="M152.52,-9.5C143.94,-9.5 135.33,-9.5 127.04,-9.5"/>
<polygon fill="#63b8ff" stroke="#63b8ff" points="152.56,-13 162.56,-9.5 152.56,-6 152.56,-13"/>
</a>
</g>
</g>
</g>
</svg>
