<?xml version="1.0" encoding="UTF-8" standalone="no"?>
<!DOCTYPE svg PUBLIC "-//W3C//DTD SVG 1.1//EN"
 "http://www.w3.org/Graphics/SVG/1.1/DTD/svg11.dtd">
<!-- Generated by graphviz version 2.43.0 (0)
 -->
<!-- Title: CCSDS::Manager Pages: 1 -->
<svg width="452pt" height="291pt"
 viewBox="0.00 0.00 451.50 291.00" xmlns="http://www.w3.org/2000/svg" xmlns:xlink="http://www.w3.org/1999/xlink">

<svg id="main" version="1.1" xmlns="http://www.w3.org/2000/svg" xmlns:xlink="http://www.w3.org/1999/xlink" xml:space="preserve" onload="init(evt)">
<style type="text/css"><![CDATA[
.node, .edge {opacity: 0.7;}
.node.selected, .edge.selected {opacity: 1;}
.edge:hover path { stroke: red; }
.edge:hover polygon { stroke: red; fill: red; }
]]></style>
<script type="application/ecmascript" xlink:href="svg.min.js"/>
<svg id="graph" class="graph">
<g id="graph0" class="graph" transform="scale(1 1) rotate(0) translate(4 287)">
<title>CCSDS::Manager</title>
<!-- Node1 -->
<g id="Node000001" class="node">
<title>Node1</title>
<g id="a_Node000001"><a xlink:title="Manages CCSDS packets and their templates.">
<polygon fill="#999999" stroke="#666666" points="187.5,-19 89.5,-19 89.5,0 187.5,0 187.5,-19"/>
<text text-anchor="middle" x="138.5" y="-7" font-family="Helvetica,sans-Serif" font-size="10.00">CCSDS::Manager</text>
</a>
</g>
</g>
<!-- Node2 -->
<g id="Node000002" class="node">
<title>Node2</title>
<g id="a_Node000002"><a xlink:href="classCCSDS_1_1Packet.html" target="_top" xlink:title="Represents a CCSDS (Consultative Committee for Space Data Systems) packet.">
<polygon fill="white" stroke="#666666" points="233,-151 146,-151 146,-132 233,-132 233,-151"/>
<text text-anchor="middle" x="189.5" y="-139" font-family="Helvetica,sans-Serif" font-size="10.00">CCSDS::Packet</text>
</a>
</g>
</g>
<!-- Node2&#45;&gt;Node1 -->
<g id="edge1_Node000001_Node000002" class="edge">
<title>Node2&#45;&gt;Node1</title>
<g id="a_edge1_Node000001_Node000002"><a xlink:title=" ">
<path fill="none" stroke="#9a32cd" stroke-dasharray="5,2" d="M192.3,-121.97C194.63,-100.02 195.4,-63.13 179.5,-37 174.83,-29.33 167,-23.46 159.42,-19.23"/>
<polygon fill="#9a32cd" stroke="#9a32cd" points="188.82,-121.59 191.01,-131.96 195.76,-122.48 188.82,-121.59"/>
</a>
</g>
<text text-anchor="middle" x="240.5" y="-73" font-family="Helvetica,sans-Serif" font-size="10.00" fill="grey"> m_templatePacket</text>
</g>
<!-- Node7 -->
<g id="Node000007" class="node">
<title>Node7</title>
<g id="a_Node000007"><a xlink:href="classCCSDS_1_1Validator.html" target="_top" xlink:title="Handles validation of CCSDS packets.">
<polygon fill="white" stroke="#666666" points="134,-85 35,-85 35,-66 134,-66 134,-85"/>
<text text-anchor="middle" x="84.5" y="-73" font-family="Helvetica,sans-Serif" font-size="10.00">CCSDS::Validator</text>
</a>
</g>
</g>
<!-- Node2&#45;&gt;Node7 -->
<g id="edge7_Node000007_Node000002" class="edge">
<title>Node2&#45;&gt;Node7</title>
<g id="a_edge7_Node000007_Node000002"><a xlink:title=" ">
<path fill="none" stroke="#9a32cd" stroke-dasharray="5,2" d="M135.88,-132.89C113.98,-128.61 92.21,-122.4 85.5,-114 79.08,-105.96 80.2,-93.56 82,-85.24"/>
<polygon fill="#9a32cd" stroke="#9a32cd" points="135.43,-136.37 145.9,-134.73 136.7,-129.49 135.43,-136.37"/>
</a>
</g>
<text text-anchor="middle" x="132.5" y="-106" font-family="Helvetica,sans-Serif" font-size="10.00" fill="grey"> m_templatePacket</text>
</g>
<!-- Node3 -->
<g id="Node000003" class="node">
<title>Node3</title>
<g id="a_Node000003"><a xlink:href="classCCSDS_1_1Header.html" target="_top" xlink:title="Manages the decomposition and manipulation of CCSDS primary headers.">
<polygon fill="white" stroke="#666666" points="235,-217 144,-217 144,-198 235,-198 235,-217"/>
<text text-anchor="middle" x="189.5" y="-205" font-family="Helvetica,sans-Serif" font-size="10.00">CCSDS::Header</text>
</a>
</g>
</g>
<!-- Node3&#45;&gt;Node2 -->
<g id="edge2_Node000002_Node000003" class="edge">
<title>Node3&#45;&gt;Node2</title>
<g id="a_edge2_Node000002_Node000003"><a xlink:title=" ">
<path fill="none" stroke="#9a32cd" stroke-dasharray="5,2" d="M189.5,-187.58C189.5,-175.63 189.5,-160.72 189.5,-151.41"/>
<polygon fill="#9a32cd" stroke="#9a32cd" points="186,-187.87 189.5,-197.87 193,-187.87 186,-187.87"/>
</a>
</g>
<text text-anchor="middle" x="235.5" y="-172" font-family="Helvetica,sans-Serif" font-size="10.00" fill="grey"> m_primaryHeader</text>
</g>
<!-- Node4 -->
<g id="Node000004" class="node">
<title>Node4</title>
<g id="a_Node000004"><a xlink:href="classCCSDS_1_1DataField.html" target="_top" xlink:title="Represents the data field of a CCSDS packet.">
<polygon fill="white" stroke="#666666" points="355.5,-217 253.5,-217 253.5,-198 355.5,-198 355.5,-217"/>
<text text-anchor="middle" x="304.5" y="-205" font-family="Helvetica,sans-Serif" font-size="10.00">CCSDS::DataField</text>
</a>
</g>
</g>
<!-- Node4&#45;&gt;Node2 -->
<g id="edge3_Node000002_Node000004" class="edge">
<title>Node4&#45;&gt;Node2</title>
<g id="a_edge3_Node000002_Node000004"><a xlink:title=" ">
<path fill="none" stroke="#9a32cd" stroke-dasharray="5,2" d="M297.36,-188.3C293.82,-181.38 288.92,-173.97 282.5,-169 268.43,-158.1 250.07,-151.69 233.38,-147.91"/>
<polygon fill="#9a32cd" stroke="#9a32cd" points="294.3,-190.04 301.57,-197.75 300.7,-187.2 294.3,-190.04"/>
</a>
</g>
<text text-anchor="middle" x="324.5" y="-172" font-family="Helvetica,sans-Serif" font-size="10.00" fill="grey"> m_dataField</text>
</g>
<!-- Node5 -->
<g id="Node000005" class="node">
<title>Node5</title>
<g id="a_Node000005"><a xlink:href="classCCSDS_1_1SecondaryHeaderFactory.html" target="_top" xlink:title="A singleton factory class responsible for registering and creating instances of SecondaryHeaderAbstra...">
<polygon fill="white" stroke="#666666" points="393,-283 216,-283 216,-264 393,-264 393,-283"/>
<text text-anchor="middle" x="304.5" y="-271" font-family="Helvetica,sans-Serif" font-size="10.00">CCSDS::SecondaryHeaderFactory</text>
</a>
</g>
</g>
<!-- Node5&#45;&gt;Node4 -->
<g id="edge4_Node000004_Node000005" class="edge">
<title>Node5&#45;&gt;Node4</title>
<g id="a_edge4_Node000004_Node000005"><a xlink:title=" ">
<path fill="none" stroke="#9a32cd" stroke-dasharray="5,2" d="M304.5,-253.58C304.5,-241.63 304.5,-226.72 304.5,-217.41"/>
<polygon fill="#9a32cd" stroke="#9a32cd" points="301,-253.87 304.5,-263.87 308,-253.87 301,-253.87"/>
</a>
</g>
<text text-anchor="middle" x="374" y="-238" font-family="Helvetica,sans-Serif" font-size="10.00" fill="grey"> m_secondaryHeaderFactory</text>
</g>
<!-- Node6 -->
<g id="Node000006" class="node">
<title>Node6</title>
<g id="a_Node000006"><a xlink:href="structCCSDS_1_1CRC16Config.html" target="_top" xlink:title="Configuration structure for CRC16 calculation parameters.">
<polygon fill="white" stroke="#666666" points="119,-217 0,-217 0,-198 119,-198 119,-217"/>
<text text-anchor="middle" x="59.5" y="-205" font-family="Helvetica,sans-Serif" font-size="10.00">CCSDS::CRC16Config</text>
</a>
</g>
</g>
<!-- Node6&#45;&gt;Node2 -->
<g id="edge5_Node000002_Node000006" class="edge">
<title>Node6&#45;&gt;Node2</title>
<g id="a_edge5_Node000002_Node000006"><a xlink:title=" ">
<path fill="none" stroke="#9a32cd" stroke-dasharray="5,2" d="M74.87,-190.67C82.83,-183.22 93.05,-174.74 103.5,-169 117.88,-161.1 134.93,-155.22 150.04,-151.04"/>
<polygon fill="#9a32cd" stroke="#9a32cd" points="72.19,-188.4 67.48,-197.9 77.08,-193.41 72.19,-188.4"/>
</a>
</g>
<text text-anchor="middle" x="144.5" y="-172" font-family="Helvetica,sans-Serif" font-size="10.00" fill="grey"> m_CRC16Config</text>
</g>
<!-- Node6&#45;&gt;Node7 -->
<g id="edge8_Node000007_Node000006" class="edge">
<title>Node6&#45;&gt;Node7</title>
<g id="a_edge8_Node000007_Node000006"><a xlink:title=" ">
<path fill="none" stroke="#9a32cd" stroke-dasharray="5,2" d="M60.13,-187.54C60.91,-172.38 62.65,-150.65 66.5,-132 69.98,-115.14 76.78,-96.19 80.95,-85.37"/>
<polygon fill="#9a32cd" stroke="#9a32cd" points="56.63,-187.55 59.7,-197.69 63.62,-187.85 56.63,-187.55"/>
</a>
</g>
<text text-anchor="middle" x="101.5" y="-139" font-family="Helvetica,sans-Serif" font-size="10.00" fill="grey"> m_CRCConfig</text>
</g>
<!-- Node7&#45;&gt;Node1 -->
<g id="edge6_Node000001_Node000007" class="edge">
<title>Node7&#45;&gt;Node1</title>
<g id="a_edge6_Node000001_Node000007"><a xlink:title=" ">
<path fill="none" stroke="#9a32cd" stroke-dasharray="5,2" d="M98.32,-58.12C108.71,-45.81 122.56,-29.39 130.99,-19.41"/>
<polygon fill="#9a32cd" stroke="#9a32cd" points="95.56,-55.97 91.78,-65.87 100.91,-60.48 95.56,-55.97"/>
</a>
</g>
<text text-anchor="middle" x="146.5" y="-40" font-family="Helvetica,sans-Serif" font-size="10.00" fill="grey"> m_validator</text>
</g>
</g>
</svg>
</svg>

<style type='text/css'>
<![CDATA[
[data-mouse-over-selected='false'] { opacity: 0.7; }
[data-mouse-over-selected='true']  { opacity: 1.0; }
]]>
</style>
<script type="application/ecmascript"><![CDATA[
document.addEventListener('DOMContentLoaded', (event) => {
  highlightEdges();
  highlightAdjacentNodes();
});
]]></script>
</svg>
