<?xml version="1.0" encoding="UTF-8" standalone="no"?>
<!DOCTYPE svg PUBLIC "-//W3C//DTD SVG 1.1//EN"
 "http://www.w3.org/Graphics/SVG/1.1/DTD/svg11.dtd">
<!-- Generated by graphviz version 2.43.0 (0)
 -->
<!-- Title: CCSDS::Manager::readTemplate Pages: 1 -->
<!--zoomable 178 -->

<svg id="main" version="1.1" xmlns="http://www.w3.org/2000/svg" xmlns:xlink="http://www.w3.org/1999/xlink" xml:space="preserve" onload="init(evt)">
<style type="text/css"><![CDATA[
.node, .edge {opacity: 0.7;}
.node.selected, .edge.selected {opacity: 1;}
.edge:hover path { stroke: red; }
.edge:hover polygon { stroke: red; fill: red; }
]]></style>

<defs>
  <circle id="rim" cx="0" cy="0" r="7"/>
  <circle id="rim2" cx="0" cy="0" r="3.5"/>
  <g id="zoomPlus">
    <use xlink:href="#rim" fill="#404040"><set attributeName="fill" to="#808080" begin="zoomplus.mouseover" end="zoomplus.mouseout"/></use>
    <path d="M-4,0h8M0,-4v8" fill="none" stroke="white" stroke-width="1.5" pointer-events="none"/>
  </g>
  <g id="zoomMin">
    <use xlink:href="#rim" fill="#404040"><set attributeName="fill" to="#808080" begin="zoomminus.mouseover" end="zoomminus.mouseout"/></use>
    <path d="M-4,0h8" fill="none" stroke="white" stroke-width="1.5" pointer-events="none"/>
  </g>
  <g id="arrowUp" transform="translate(30 24)">
    <use xlink:href="#rim"/>
    <path pointer-events="none" fill="none" stroke="white" stroke-width="1.5" d="M0,-3.0v7 M-2.5,-0.5L0,-3.0L2.5,-0.5"/>
  </g>
  <g id="arrowRight" transform="rotate(90) translate(36 -43)">
    <use xlink:href="#rim"/>
    <path pointer-events="none" fill="none" stroke="white" stroke-width="1.5" d="M0,-3.0v7 M-2.5,-0.5L0,-3.0L2.5,-0.5"/>
  </g>
  <g id="arrowDown" transform="rotate(180) translate(-30 -48)">
    <use xlink:href="#rim"/>
    <path pointer-events="none" fill="none" stroke="white" stroke-width="1.5" d="M0,-3.0v7 M-2.5,-0.5L0,-3.0L2.5,-0.5"/>
  </g>
  <g id="arrowLeft" transform="rotate(270) translate(-36 17)">
    <use xlink:href="#rim"/>
    <path pointer-events="none" fill="none" stroke="white" stroke-width="1.5" d="M0,-3.0v7 M-2.5,-0.5L0,-3.0L2.5,-0.5"/>
  </g>
  <g id="resetDef">
    <use xlink:href="#rim2" fill="#404040"><set attributeName="fill" to="#808080" begin="reset.mouseover" end="reset.mouseout"/></use>
  </g>
</defs>
<script type="application/ecmascript">
var viewWidth = 610;
var viewHeight = 178;
var sectionId = 'dynsection-12';
</script>
<script type="application/ecmascript" xlink:href="svg.min.js"/>
<svg id="graph" class="graph">
<g id="viewport">
<title>CCSDS::Manager::readTemplate</title>
<!-- Node1 -->
<g id="Node000001" class="node">
<title>Node1</title>
<g id="a_Node000001"><a xlink:title="Load a template packet from a binary or configuration file.">
<polygon fill="#999999" stroke="#666666" points="171,-94 0,-94 0,-75 171,-75 171,-94"/>
<text text-anchor="middle" x="85.5" y="-82" font-family="Helvetica,sans-Serif" font-size="10.00">CCSDS::Manager::readTemplate</text>
</a>
</g>
</g>
<!-- Node2 -->
<g id="Node000002" class="node">
<title>Node2</title>
<g id="a_Node000002"><a xlink:href="classCCSDS_1_1Packet.html#a1f6665c4b9e28efd62a30ff1c1db1223" target="_top" xlink:title="Deserializes a vector of bytes into a CCSDS packet.">
<polygon fill="white" stroke="#666666" points="353,-170 207,-170 207,-151 353,-151 353,-170"/>
<text text-anchor="middle" x="280" y="-158" font-family="Helvetica,sans-Serif" font-size="10.00">CCSDS::Packet::deserialize</text>
</a>
</g>
</g>
<!-- Node1&#45;&gt;Node2 -->
<g id="edge1_Node000001_Node000002" class="edge">
<title>Node1&#45;&gt;Node2</title>
<g id="a_edge1_Node000001_Node000002"><a xlink:title=" ">
<path fill="none" stroke="#63b8ff" d="M107.18,-94.07C131,-104.94 171.45,-122.93 207,-136.5 217.17,-140.38 228.27,-144.26 238.65,-147.72"/>
<polygon fill="#63b8ff" stroke="#63b8ff" points="237.72,-151.11 248.32,-150.91 239.92,-144.46 237.72,-151.11"/>
</a>
</g>
</g>
<!-- Node3 -->
<g id="Node000003" class="node">
<title>Node3</title>
<g id="a_Node000003"><a xlink:href="classConfig.html#ac0eb207d3a0c9b3039000301c612aadb" target="_top" xlink:title="Get value by key and type.">
<polygon fill="white" stroke="#666666" points="602,-75 533,-75 533,-56 602,-56 602,-75"/>
<text text-anchor="middle" x="567.5" y="-63" font-family="Helvetica,sans-Serif" font-size="10.00">Config::get</text>
</a>
</g>
</g>
<!-- Node1&#45;&gt;Node3 -->
<g id="edge2_Node000001_Node000003" class="edge">
<title>Node1&#45;&gt;Node3</title>
<g id="a_edge2_Node000001_Node000003"><a xlink:title=" ">
<path fill="none" stroke="#63b8ff" d="M135.54,-94.01C157.33,-97.78 183.35,-101.65 207,-103.5 335.69,-113.58 370.71,-114.23 497,-87.5 508.19,-85.13 520.13,-81.7 530.91,-78.24"/>
<polygon fill="#63b8ff" stroke="#63b8ff" points="532.03,-81.56 540.42,-75.09 529.83,-74.91 532.03,-81.56"/>
</a>
</g>
</g>
<!-- Node4 -->
<g id="Node000004" class="node">
<title>Node4</title>
<g id="a_Node000004"><a xlink:href="classConfig.html#a666e6d9c5510736d8ef85564abe834dd" target="_top" xlink:title="Load config file.">
<polygon fill="white" stroke="#666666" points="317,-94 243,-94 243,-75 317,-75 317,-94"/>
<text text-anchor="middle" x="280" y="-82" font-family="Helvetica,sans-Serif" font-size="10.00">Config::load</text>
</a>
</g>
</g>
<!-- Node1&#45;&gt;Node4 -->
<g id="edge4_Node000001_Node000004" class="edge">
<title>Node1&#45;&gt;Node4</title>
<g id="a_edge4_Node000001_Node000004"><a xlink:title=" ">
<path fill="none" stroke="#63b8ff" d="M171.21,-84.5C192.22,-84.5 213.98,-84.5 232.39,-84.5"/>
<polygon fill="#63b8ff" stroke="#63b8ff" points="232.53,-88 242.53,-84.5 232.53,-81 232.53,-88"/>
</a>
</g>
</g>
<!-- Node7 -->
<g id="Node000007" class="node">
<title>Node7</title>
<g id="a_Node000007"><a xlink:href="CCSDSUtils_8cpp.html#a7c53ed59dcb970211aa0217eb095cc4d" target="_top" xlink:title="Read a specified binary file and return its contents as a buffer.">
<polygon fill="white" stroke="#666666" points="323.5,-57 236.5,-57 236.5,-38 323.5,-38 323.5,-57"/>
<text text-anchor="middle" x="280" y="-45" font-family="Helvetica,sans-Serif" font-size="10.00">readBinaryFile</text>
</a>
</g>
</g>
<!-- Node1&#45;&gt;Node7 -->
<g id="edge10_Node000001_Node000007" class="edge">
<title>Node1&#45;&gt;Node7</title>
<g id="a_edge10_Node000001_Node000007"><a xlink:title=" ">
<path fill="none" stroke="#63b8ff" d="M136.07,-74.97C163.75,-69.65 198.23,-63.02 226.39,-57.61"/>
<polygon fill="#63b8ff" stroke="#63b8ff" points="227.29,-61 236.45,-55.68 225.97,-54.13 227.29,-61"/>
</a>
</g>
</g>
<!-- Node8 -->
<g id="Node000008" class="node">
<title>Node8</title>
<g id="a_Node000008"><a xlink:href="CCSDSUtils_8cpp.html#a3b974227bd1064e006f517e8423a0545" target="_top" xlink:title="Tests if str ends with suffix.">
<polygon fill="white" stroke="#666666" points="325,-20 235,-20 235,-1 325,-1 325,-20"/>
<text text-anchor="middle" x="280" y="-8" font-family="Helvetica,sans-Serif" font-size="10.00">stringEndsWith</text>
</a>
</g>
</g>
<!-- Node1&#45;&gt;Node8 -->
<g id="edge11_Node000001_Node000008" class="edge">
<title>Node1&#45;&gt;Node8</title>
<g id="a_edge11_Node000001_Node000008"><a xlink:title=" ">
<path fill="none" stroke="#63b8ff" d="M104.42,-74.85C127.57,-62.7 169.38,-41.81 207,-28.5 212.9,-26.41 219.15,-24.47 225.41,-22.69"/>
<polygon fill="#63b8ff" stroke="#63b8ff" points="226.47,-26.03 235.2,-20.04 224.63,-19.28 226.47,-26.03"/>
</a>
</g>
</g>
<!-- Node3&#45;&gt;Node3 -->
<g id="edge3_Node000003_Node000003" class="edge">
<title>Node3&#45;&gt;Node3</title>
<g id="a_edge3_Node000003_Node000003"><a xlink:title=" ">
<path fill="none" stroke="#63b8ff" d="M548.39,-75.08C539.09,-83.73 545.46,-93 567.5,-93 581.27,-93 588.93,-89.38 590.46,-84.55"/>
<polygon fill="#63b8ff" stroke="#63b8ff" points="593.62,-83.03 586.61,-75.08 587.14,-85.66 593.62,-83.03"/>
</a>
</g>
</g>
<!-- Node4&#45;&gt;Node3 -->
<g id="edge5_Node000004_Node000003" class="edge">
<title>Node4&#45;&gt;Node3</title>
<g id="a_edge5_Node000004_Node000003"><a xlink:title=" ">
<path fill="none" stroke="#63b8ff" d="M317.16,-82.09C369.56,-78.61 466.5,-72.16 522.83,-68.41"/>
<polygon fill="#63b8ff" stroke="#63b8ff" points="523.11,-71.9 532.85,-67.74 522.64,-64.91 523.11,-71.9"/>
</a>
</g>
</g>
<!-- Node5 -->
<g id="Node000005" class="node">
<title>Node5</title>
<g id="a_Node000005"><a xlink:href="classConfig.html#a0c3a6f1dbed78a72da53833b419491d9" target="_top" xlink:title="Parse string &quot;[1,2,3]&quot; into vector&lt;uint8_t&gt;">
<polygon fill="white" stroke="#666666" points="497,-56 389,-56 389,-37 497,-37 497,-56"/>
<text text-anchor="middle" x="443" y="-44" font-family="Helvetica,sans-Serif" font-size="10.00">Config::parseBytes</text>
</a>
</g>
</g>
<!-- Node4&#45;&gt;Node5 -->
<g id="edge6_Node000004_Node000005" class="edge">
<title>Node4&#45;&gt;Node5</title>
<g id="a_edge6_Node000004_Node000005"><a xlink:title=" ">
<path fill="none" stroke="#63b8ff" d="M317.13,-75.97C339.21,-70.76 367.77,-64.02 392.01,-58.3"/>
<polygon fill="#63b8ff" stroke="#63b8ff" points="392.82,-61.7 401.75,-56 391.21,-54.89 392.82,-61.7"/>
</a>
</g>
</g>
<!-- Node6 -->
<g id="Node000006" class="node">
<title>Node6</title>
<g id="a_Node000006"><a xlink:href="classConfig.html#ae9010d142dcb6a29be942eb3b1513dda" target="_top" xlink:title="Parse a single line from config.">
<polygon fill="white" stroke="#666666" points="493.5,-19 392.5,-19 392.5,0 493.5,0 493.5,-19"/>
<text text-anchor="middle" x="443" y="-7" font-family="Helvetica,sans-Serif" font-size="10.00">Config::parseLine</text>
</a>
</g>
</g>
<!-- Node4&#45;&gt;Node6 -->
<g id="edge8_Node000004_Node000006" class="edge">
<title>Node4&#45;&gt;Node6</title>
<g id="a_edge8_Node000004_Node000006"><a xlink:title=" ">
<path fill="none" stroke="#63b8ff" d="M317.01,-79.75C329.04,-77.09 342.14,-72.94 353,-66.5 373.29,-54.47 369.22,-40.36 389,-27.5 391.41,-25.94 393.96,-24.49 396.6,-23.16"/>
<polygon fill="#63b8ff" stroke="#63b8ff" points="398.08,-26.34 405.8,-19.08 395.24,-19.94 398.08,-26.34"/>
</a>
</g>
</g>
<!-- Node5&#45;&gt;Node3 -->
<g id="edge7_Node000005_Node000003" class="edge">
<title>Node5&#45;&gt;Node3</title>
<g id="a_edge7_Node000005_Node000003"><a xlink:title=" ">
<path fill="none" stroke="#63b8ff" d="M497.02,-54.72C505.66,-56.06 514.53,-57.44 522.91,-58.74"/>
<polygon fill="#63b8ff" stroke="#63b8ff" points="522.43,-62.21 532.85,-60.28 523.5,-55.29 522.43,-62.21"/>
</a>
</g>
</g>
<!-- Node6&#45;&gt;Node3 -->
<g id="edge9_Node000006_Node000003" class="edge">
<title>Node6&#45;&gt;Node3</title>
<g id="a_edge9_Node000006_Node000003"><a xlink:title=" ">
<path fill="none" stroke="#63b8ff" d="M475.17,-19.08C482.43,-21.59 490.06,-24.45 497,-27.5 512.4,-34.26 528.95,-43.24 542.03,-50.77"/>
<polygon fill="#63b8ff" stroke="#63b8ff" points="540.49,-53.92 550.88,-55.94 544.02,-47.87 540.49,-53.92"/>
</a>
</g>
</g>
</g>
</svg>

<g id="navigator" transform="translate(0 0)" fill="#404254">
  <rect fill="#f2f5e9" fill-opacity="0.5" stroke="#606060" stroke-width=".5" x="0" y="0" width="60" height="60"/>
  <use id="zoomplus" xlink:href="#zoomPlus" x="17" y="9" onmousedown="handleZoom(evt,'in')"/>
  <use id="zoomminus" xlink:href="#zoomMin" x="42" y="9" onmousedown="handleZoom(evt,'out')"/>
  <use id="reset" xlink:href="#resetDef" x="30" y="36" onmousedown="handleReset()"/>
   <use id="arrowup" xlink:href="#arrowUp" x="0" y="0" onmousedown="handlePan(0,-1)"/>
  <use id="arrowright" xlink:href="#arrowRight" x="0" y="0" onmousedown="handlePan(1,0)"/>
  <use id="arrowdown" xlink:href="#arrowDown" x="0" y="0" onmousedown="handlePan(0,1)"/>
  <use id="arrowleft" xlink:href="#arrowLeft" x="0" y="0" onmousedown="handlePan(-1,0)"/>
</g>
<svg viewBox="0 0 15 15" width="100%" height="30px" preserveAspectRatio="xMaxYMin meet">
 <g id="arrow_out" transform="scale(0.3 0.3)">
  <a xlink:href="classCCSDS_1_1Manager_a44c3bccc78ccf59d9432935e43283342_cgraph_org.svg" target="_base">
   <rect id="button" ry="5" rx="5" y="6" x="6" height="38" width="38"
        fill="#f2f5e9" fill-opacity="0.5" stroke="#606060" stroke-width="1.0"/>
   <path id="arrow"
     d="M 11.500037,31.436501 C 11.940474,20.09759 22.043105,11.32322 32.158766,21.979434 L 37.068811,17.246167 C 37.068811,17.246167 37.088388,32 37.088388,32 L 22.160133,31.978069 C 22.160133,31.978069 26.997745,27.140456 26.997745,27.140456 C 18.528582,18.264221 13.291696,25.230495 11.500037,31.436501 z"
     style="fill:#404040;"/>
  </a>
 </g>
</svg>

<style type='text/css'>
<![CDATA[
[data-mouse-over-selected='false'] { opacity: 0.7; }
[data-mouse-over-selected='true']  { opacity: 1.0; }
]]>
</style>
<script type="application/ecmascript"><![CDATA[
document.addEventListener('DOMContentLoaded', (event) => {
  highlightEdges();
  highlightAdjacentNodes();
});
]]></script>
</svg>
