<?xml version="1.0" encoding="UTF-8" standalone="no"?>
<!DOCTYPE svg PUBLIC "-//W3C//DTD SVG 1.1//EN"
 "http://www.w3.org/Graphics/SVG/1.1/DTD/svg11.dtd">
<!-- Generated by graphviz version 2.43.0 (0)
 -->
<!-- Title: CCSDS::DataField::getDataFieldHeaderFlag Pages: 1 -->
<svg width="552pt" height="64pt"
 viewBox="0.00 0.00 552.00 64.00" xmlns="http://www.w3.org/2000/svg" xmlns:xlink="http://www.w3.org/1999/xlink">
<g id="graph0" class="graph" transform="scale(1 1) rotate(0) translate(4 60)">
<title>CCSDS::DataField::getDataFieldHeaderFlag</title>
<!-- Node1 -->
<g id="Node000001" class="node">
<title>Node1</title>
<g id="a_Node000001"><a xlink:title="retrieves true if a known secondary header has been set">
<polygon fill="#999999" stroke="#666666" points="544,-42.5 397,-42.5 397,-12.5 544,-12.5 544,-42.5"/>
<text text-anchor="start" x="405" y="-30.5" font-family="Helvetica,sans-Serif" font-size="10.00">CCSDS::DataField::getData</text>
<text text-anchor="middle" x="470.5" y="-19.5" font-family="Helvetica,sans-Serif" font-size="10.00">FieldHeaderFlag</text>
</a>
</g>
</g>
<!-- Node2 -->
<g id="Node000002" class="node">
<title>Node2</title>
<g id="a_Node000002"><a xlink:href="CCSDSUtils_8cpp.html#a6e927daa91ea42db4bb94bfc51425b96" target="_top" xlink:title="Prints the data field details, including the secondary header and application data.">
<polygon fill="white" stroke="#666666" points="328.5,-56 266.5,-56 266.5,-37 328.5,-37 328.5,-56"/>
<text text-anchor="middle" x="297.5" y="-44" font-family="Helvetica,sans-Serif" font-size="10.00">printData</text>
</a>
</g>
</g>
<!-- Node1&#45;&gt;Node2 -->
<g id="edge1_Node000001_Node000002" class="edge">
<title>Node1&#45;&gt;Node2</title>
<g id="a_edge1_Node000001_Node000002"><a xlink:title=" ">
<path fill="none" stroke="#63b8ff" d="M386.78,-36.69C365.92,-39.01 344.85,-41.35 328.52,-43.16"/>
<polygon fill="#63b8ff" stroke="#63b8ff" points="387.43,-40.14 396.98,-35.56 386.66,-33.18 387.43,-40.14"/>
</a>
</g>
</g>
<!-- Node5 -->
<g id="Node000005" class="node">
<title>Node5</title>
<g id="a_Node000005"><a xlink:href="classCCSDS_1_1Packet.html#a25c84fd13d0176cd575d70103bc4af64" target="_top" xlink:title="Updates Primary headers data field size.">
<polygon fill="white" stroke="#666666" points="361,-19 234,-19 234,0 361,0 361,-19"/>
<text text-anchor="middle" x="297.5" y="-7" font-family="Helvetica,sans-Serif" font-size="10.00">CCSDS::Packet::update</text>
</a>
</g>
</g>
<!-- Node1&#45;&gt;Node5 -->
<g id="edge4_Node000001_Node000005" class="edge">
<title>Node1&#45;&gt;Node5</title>
<g id="a_edge4_Node000001_Node000005"><a xlink:title=" ">
<path fill="none" stroke="#63b8ff" d="M386.86,-18.8C378.2,-17.89 369.51,-16.97 361.13,-16.09"/>
<polygon fill="#63b8ff" stroke="#63b8ff" points="386.67,-22.3 396.98,-19.87 387.4,-15.34 386.67,-22.3"/>
</a>
</g>
</g>
<!-- Node3 -->
<g id="Node000003" class="node">
<title>Node3</title>
<g id="a_Node000003"><a xlink:href="CCSDSUtils_8cpp.html#aed99c8e7576ac25c49f6b913b46d1b76" target="_top" xlink:title="Prints the data field and the CRC&#45;16 checksum of the packet.">
<polygon fill="white" stroke="#666666" points="198,-56 112,-56 112,-37 198,-37 198,-56"/>
<text text-anchor="middle" x="155" y="-44" font-family="Helvetica,sans-Serif" font-size="10.00">printDataField</text>
</a>
</g>
</g>
<!-- Node2&#45;&gt;Node3 -->
<g id="edge2_Node000002_Node000003" class="edge">
<title>Node2&#45;&gt;Node3</title>
<g id="a_edge2_Node000002_Node000003"><a xlink:title=" ">
<path fill="none" stroke="#63b8ff" d="M256.34,-46.5C238.11,-46.5 216.54,-46.5 198.08,-46.5"/>
<polygon fill="#63b8ff" stroke="#63b8ff" points="256.36,-50 266.36,-46.5 256.36,-43 256.36,-50"/>
</a>
</g>
</g>
<!-- Node4 -->
<g id="Node000004" class="node">
<title>Node4</title>
<g id="a_Node000004"><a xlink:href="CCSDSUtils_8cpp.html#a5f93cc97b1a3bb506c38638251b15339" target="_top" xlink:title="Prints to console a series of CCSDS Packets, breaking it down to Primary header and Data field.">
<polygon fill="white" stroke="#666666" points="76,-56 0,-56 0,-37 76,-37 76,-56"/>
<text text-anchor="middle" x="38" y="-44" font-family="Helvetica,sans-Serif" font-size="10.00">printPackets</text>
</a>
</g>
</g>
<!-- Node3&#45;&gt;Node4 -->
<g id="edge3_Node000003_Node000004" class="edge">
<title>Node3&#45;&gt;Node4</title>
<g id="a_edge3_Node000003_Node000004"><a xlink:title=" ">
<path fill="none" stroke="#63b8ff" d="M101.82,-46.5C93.19,-46.5 84.39,-46.5 76.23,-46.5"/>
<polygon fill="#63b8ff" stroke="#63b8ff" points="101.83,-50 111.83,-46.5 101.83,-43 101.83,-50"/>
</a>
</g>
</g>
</g>
</svg>
