<?xml version="1.0" encoding="UTF-8" standalone="no"?>
<!DOCTYPE svg PUBLIC "-//W3C//DTD SVG 1.1//EN"
 "http://www.w3.org/Graphics/SVG/1.1/DTD/svg11.dtd">
<!-- Generated by graphviz version 2.43.0 (0)
 -->
<!-- Title: CCSDS::Packet::update Pages: 1 -->
<svg width="522pt" height="306pt"
 viewBox="0.00 0.00 522.00 305.50" xmlns="http://www.w3.org/2000/svg" xmlns:xlink="http://www.w3.org/1999/xlink">
<g id="graph0" class="graph" transform="scale(1 1) rotate(0) translate(4 301.5)">
<title>CCSDS::Packet::update</title>
<!-- Node1 -->
<g id="Node000001" class="node">
<title>Node1</title>
<g id="a_Node000001"><a xlink:title="Updates Primary headers data field size.">
<polygon fill="#999999" stroke="#666666" points="127,-158.5 0,-158.5 0,-139.5 127,-139.5 127,-158.5"/>
<text text-anchor="middle" x="63.5" y="-146.5" font-family="Helvetica,sans-Serif" font-size="10.00">CCSDS::Packet::update</text>
</a>
</g>
</g>
<!-- Node2 -->
<g id="Node000002" class="node">
<title>Node2</title>
<g id="a_Node000002"><a xlink:href="CCSDSUtils_8cpp.html#a2c103ebdbc6ee2ceda285e5834c07b8b" target="_top" xlink:title="Computes the CRC&#45;16 checksum for a given data vector with configurable parameters.">
<polygon fill="white" stroke="#666666" points="268.5,-297.5 225.5,-297.5 225.5,-278.5 268.5,-278.5 268.5,-297.5"/>
<text text-anchor="middle" x="247" y="-285.5" font-family="Helvetica,sans-Serif" font-size="10.00">crc16</text>
</a>
</g>
</g>
<!-- Node1&#45;&gt;Node2 -->
<g id="edge1_Node000001_Node000002" class="edge">
<title>Node1&#45;&gt;Node2</title>
<g id="a_edge1_Node000001_Node000002"><a xlink:title=" ">
<path fill="none" stroke="#63b8ff" d="M69.44,-158.6C81.8,-181.62 116.48,-240.2 163,-269 178.67,-278.7 198.77,-283.46 215.26,-285.79"/>
<polygon fill="#63b8ff" stroke="#63b8ff" points="215.15,-289.3 225.49,-287 215.97,-282.35 215.15,-289.3"/>
</a>
</g>
</g>
<!-- Node3 -->
<g id="Node000003" class="node">
<title>Node3</title>
<g id="a_Node000003"><a xlink:href="classCCSDS_1_1DataField.html#a78c2894fc2650e0dc9ec892d58dfde7a" target="_top" xlink:title="retrieves true if a known secondary header has been set">
<polygon fill="white" stroke="#666666" points="320.5,-260 173.5,-260 173.5,-230 320.5,-230 320.5,-260"/>
<text text-anchor="start" x="181.5" y="-248" font-family="Helvetica,sans-Serif" font-size="10.00">CCSDS::DataField::getData</text>
<text text-anchor="middle" x="247" y="-237" font-family="Helvetica,sans-Serif" font-size="10.00">FieldHeaderFlag</text>
</a>
</g>
</g>
<!-- Node1&#45;&gt;Node3 -->
<g id="edge2_Node000001_Node000003" class="edge">
<title>Node1&#45;&gt;Node3</title>
<g id="a_edge2_Node000001_Node000003"><a xlink:title=" ">
<path fill="none" stroke="#63b8ff" d="M74.91,-158.56C92.05,-173.82 127.82,-203.73 163,-221 166.97,-222.95 171.13,-224.77 175.37,-226.46"/>
<polygon fill="#63b8ff" stroke="#63b8ff" points="174.19,-229.75 184.78,-229.96 176.63,-223.19 174.19,-229.75"/>
</a>
</g>
</g>
<!-- Node4 -->
<g id="Node000004" class="node">
<title>Node4</title>
<g id="a_Node000004"><a xlink:href="classCCSDS_1_1DataField.html#adf40e2024bf3509e4ce28ff3a8e637e2" target="_top" xlink:title="Retrieves the full data field by combining the data field header and application data.">
<polygon fill="white" stroke="#666666" points="317.5,-212 176.5,-212 176.5,-182 317.5,-182 317.5,-212"/>
<text text-anchor="start" x="184.5" y="-200" font-family="Helvetica,sans-Serif" font-size="10.00">CCSDS::DataField::getFull</text>
<text text-anchor="middle" x="247" y="-189" font-family="Helvetica,sans-Serif" font-size="10.00">DataFieldBytes</text>
</a>
</g>
</g>
<!-- Node1&#45;&gt;Node4 -->
<g id="edge3_Node000001_Node000004" class="edge">
<title>Node1&#45;&gt;Node4</title>
<g id="a_edge3_Node000001_Node000004"><a xlink:title=" ">
<path fill="none" stroke="#63b8ff" d="M100.79,-158.6C123.18,-164.52 152.57,-172.29 179.06,-179.3"/>
<polygon fill="#63b8ff" stroke="#63b8ff" points="178.48,-182.76 189.04,-181.94 180.27,-176 178.48,-182.76"/>
</a>
</g>
</g>
<!-- Node7 -->
<g id="Node000007" class="node">
<title>Node7</title>
<g id="a_Node000007"><a xlink:href="classCCSDS_1_1Header.html#a7aec7b479769c8348584cab4b9d1197b" target="_top" xlink:title="2 bits">
<polygon fill="white" stroke="#666666" points="327,-164 167,-164 167,-134 327,-134 327,-164"/>
<text text-anchor="start" x="175" y="-152" font-family="Helvetica,sans-Serif" font-size="10.00">CCSDS::Header::getSequence</text>
<text text-anchor="middle" x="247" y="-141" font-family="Helvetica,sans-Serif" font-size="10.00">Flags</text>
</a>
</g>
</g>
<!-- Node1&#45;&gt;Node7 -->
<g id="edge6_Node000001_Node000007" class="edge">
<title>Node1&#45;&gt;Node7</title>
<g id="a_edge6_Node000001_Node000007"><a xlink:title=" ">
<path fill="none" stroke="#63b8ff" d="M127.22,-149C136.82,-149 146.89,-149 156.94,-149"/>
<polygon fill="#63b8ff" stroke="#63b8ff" points="156.95,-152.5 166.95,-149 156.95,-145.5 156.95,-152.5"/>
</a>
</g>
</g>
<!-- Node8 -->
<g id="Node000008" class="node">
<title>Node8</title>
<g id="a_Node000008"><a xlink:href="classCCSDS_1_1Header.html#acb05f2c875ad0148eabd8b60185bd4fd" target="_top" xlink:title="1 bits">
<polygon fill="white" stroke="#666666" points="326,-116 168,-116 168,-86 326,-86 326,-116"/>
<text text-anchor="start" x="176" y="-104" font-family="Helvetica,sans-Serif" font-size="10.00">CCSDS::Header::setDataField</text>
<text text-anchor="middle" x="247" y="-93" font-family="Helvetica,sans-Serif" font-size="10.00">HeaderFlag</text>
</a>
</g>
</g>
<!-- Node1&#45;&gt;Node8 -->
<g id="edge7_Node000001_Node000008" class="edge">
<title>Node1&#45;&gt;Node8</title>
<g id="a_edge7_Node000001_Node000008"><a xlink:title=" ">
<path fill="none" stroke="#63b8ff" d="M100.79,-139.4C123.18,-133.48 152.57,-125.71 179.06,-118.7"/>
<polygon fill="#63b8ff" stroke="#63b8ff" points="180.27,-122 189.04,-116.06 178.48,-115.24 180.27,-122"/>
</a>
</g>
</g>
<!-- Node9 -->
<g id="Node000009" class="node">
<title>Node9</title>
<g id="a_Node000009"><a xlink:href="classCCSDS_1_1Header.html#a393ea2e62793c0070aff3b654b0aa23b" target="_top" xlink:title="16 bits">
<polygon fill="white" stroke="#666666" points="331,-67.5 163,-67.5 163,-48.5 331,-48.5 331,-67.5"/>
<text text-anchor="middle" x="247" y="-55.5" font-family="Helvetica,sans-Serif" font-size="10.00">CCSDS::Header::setDataLength</text>
</a>
</g>
</g>
<!-- Node1&#45;&gt;Node9 -->
<g id="edge8_Node000001_Node000009" class="edge">
<title>Node1&#45;&gt;Node9</title>
<g id="a_edge8_Node000001_Node000009"><a xlink:title=" ">
<path fill="none" stroke="#63b8ff" d="M74.53,-139.46C91.4,-123.95 127.16,-93.36 163,-77 168.43,-74.52 174.21,-72.35 180.09,-70.46"/>
<polygon fill="#63b8ff" stroke="#63b8ff" points="181.45,-73.71 190.05,-67.52 179.47,-66.99 181.45,-73.71"/>
</a>
</g>
</g>
<!-- Node10 -->
<g id="Node000010" class="node">
<title>Node10</title>
<g id="a_Node000010"><a xlink:href="classCCSDS_1_1Header.html#a436a51a4ee99dd21e63766aa5d213ad4" target="_top" xlink:title="14 bits">
<polygon fill="white" stroke="#666666" points="326.5,-30 167.5,-30 167.5,0 326.5,0 326.5,-30"/>
<text text-anchor="start" x="175.5" y="-18" font-family="Helvetica,sans-Serif" font-size="10.00">CCSDS::Header::setSequence</text>
<text text-anchor="middle" x="247" y="-7" font-family="Helvetica,sans-Serif" font-size="10.00">Count</text>
</a>
</g>
</g>
<!-- Node1&#45;&gt;Node10 -->
<g id="edge9_Node000001_Node000010" class="edge">
<title>Node1&#45;&gt;Node10</title>
<g id="a_edge9_Node000001_Node000010"><a xlink:title=" ">
<path fill="none" stroke="#63b8ff" d="M70.35,-139.43C83.89,-118.07 119.59,-66.28 163,-39 165.65,-37.34 168.41,-35.79 171.26,-34.34"/>
<polygon fill="#63b8ff" stroke="#63b8ff" points="172.95,-37.42 180.58,-30.07 170.03,-31.05 172.95,-37.42"/>
</a>
</g>
</g>
<!-- Node5 -->
<g id="Node000005" class="node">
<title>Node5</title>
<g id="a_Node000005"><a xlink:href="classCCSDS_1_1DataField.html#a586f18dcf878e68efd197994e95c6895" target="_top" xlink:title="Retrieves the secondary header data as a vector of bytes.">
<polygon fill="white" stroke="#666666" points="514,-233 367,-233 367,-203 514,-203 514,-233"/>
<text text-anchor="start" x="375" y="-221" font-family="Helvetica,sans-Serif" font-size="10.00">CCSDS::DataField::getData</text>
<text text-anchor="middle" x="440.5" y="-210" font-family="Helvetica,sans-Serif" font-size="10.00">FieldHeaderBytes</text>
</a>
</g>
</g>
<!-- Node4&#45;&gt;Node5 -->
<g id="edge4_Node000004_Node000005" class="edge">
<title>Node4&#45;&gt;Node5</title>
<g id="a_edge4_Node000004_Node000005"><a xlink:title=" ">
<path fill="none" stroke="#63b8ff" d="M317.68,-204.64C330.46,-206.04 343.91,-207.52 357.03,-208.96"/>
<polygon fill="#63b8ff" stroke="#63b8ff" points="356.65,-212.44 366.98,-210.05 357.42,-205.48 356.65,-212.44"/>
</a>
</g>
</g>
<!-- Node6 -->
<g id="Node000006" class="node">
<title>Node6</title>
<g id="a_Node000006"><a xlink:href="classCCSDS_1_1DataField.html#abb4b5de3d4ee71281ead402cdf5055d4" target="_top" xlink:title="Updates the data field header based on the current application data size.">
<polygon fill="white" stroke="#666666" points="511.5,-184.5 369.5,-184.5 369.5,-165.5 511.5,-165.5 511.5,-184.5"/>
<text text-anchor="middle" x="440.5" y="-172.5" font-family="Helvetica,sans-Serif" font-size="10.00">CCSDS::DataField::update</text>
</a>
</g>
</g>
<!-- Node4&#45;&gt;Node6 -->
<g id="edge5_Node000004_Node000006" class="edge">
<title>Node4&#45;&gt;Node6</title>
<g id="a_edge5_Node000004_Node000006"><a xlink:title=" ">
<path fill="none" stroke="#63b8ff" d="M317.68,-189C331.19,-187.44 345.45,-185.8 359.27,-184.22"/>
<polygon fill="#63b8ff" stroke="#63b8ff" points="359.7,-187.69 369.23,-183.07 358.9,-180.74 359.7,-187.69"/>
</a>
</g>
</g>
</g>
</svg>
