<?xml version="1.0" encoding="UTF-8" standalone="no"?>
<!DOCTYPE svg PUBLIC "-//W3C//DTD SVG 1.1//EN"
 "http://www.w3.org/Graphics/SVG/1.1/DTD/svg11.dtd">
<!-- Generated by graphviz version 2.43.0 (0)
 -->
<!-- Title: Config::load Pages: 1 -->
<svg width="331pt" height="82pt"
 viewBox="0.00 0.00 331.00 82.00" xmlns="http://www.w3.org/2000/svg" xmlns:xlink="http://www.w3.org/1999/xlink">
<g id="graph0" class="graph" transform="scale(1 1) rotate(0) translate(4 78)">
<title>Config::load</title>
<!-- Node1 -->
<g id="Node000001" class="node">
<title>Node1</title>
<g id="a_Node000001"><a xlink:title="Load config file.">
<polygon fill="#999999" stroke="#666666" points="74,-56 0,-56 0,-37 74,-37 74,-56"/>
<text text-anchor="middle" x="37" y="-44" font-family="Helvetica,sans-Serif" font-size="10.00">Config::load</text>
</a>
</g>
</g>
<!-- Node2 -->
<g id="Node000002" class="node">
<title>Node2</title>
<g id="a_Node000002"><a xlink:href="classConfig.html#ac0eb207d3a0c9b3039000301c612aadb" target="_top" xlink:title="Get value by key and type.">
<polygon fill="white" stroke="#666666" points="323,-56 254,-56 254,-37 323,-37 323,-56"/>
<text text-anchor="middle" x="288.5" y="-44" font-family="Helvetica,sans-Serif" font-size="10.00">Config::get</text>
</a>
</g>
</g>
<!-- Node1&#45;&gt;Node2 -->
<g id="edge1_Node000001_Node000002" class="edge">
<title>Node1&#45;&gt;Node2</title>
<g id="a_edge1_Node000001_Node000002"><a xlink:title=" ">
<path fill="none" stroke="#63b8ff" d="M67.09,-56C80.06,-59.77 95.64,-63.64 110,-65.5 157.6,-71.68 170.43,-71.89 218,-65.5 228.41,-64.1 239.48,-61.58 249.64,-58.81"/>
<polygon fill="#63b8ff" stroke="#63b8ff" points="250.8,-62.12 259.45,-56 248.87,-55.39 250.8,-62.12"/>
</a>
</g>
</g>
<!-- Node3 -->
<g id="Node000003" class="node">
<title>Node3</title>
<g id="a_Node000003"><a xlink:href="classConfig.html#a0c3a6f1dbed78a72da53833b419491d9" target="_top" xlink:title="Parse string &quot;[1,2,3]&quot; into vector&lt;uint8_t&gt;">
<polygon fill="white" stroke="#666666" points="218,-56 110,-56 110,-37 218,-37 218,-56"/>
<text text-anchor="middle" x="164" y="-44" font-family="Helvetica,sans-Serif" font-size="10.00">Config::parseBytes</text>
</a>
</g>
</g>
<!-- Node1&#45;&gt;Node3 -->
<g id="edge3_Node000001_Node000003" class="edge">
<title>Node1&#45;&gt;Node3</title>
<g id="a_edge3_Node000001_Node000003"><a xlink:title=" ">
<path fill="none" stroke="#63b8ff" d="M74.16,-46.5C82.14,-46.5 90.82,-46.5 99.53,-46.5"/>
<polygon fill="#63b8ff" stroke="#63b8ff" points="99.72,-50 109.72,-46.5 99.72,-43 99.72,-50"/>
</a>
</g>
</g>
<!-- Node4 -->
<g id="Node000004" class="node">
<title>Node4</title>
<g id="a_Node000004"><a xlink:href="classConfig.html#ae9010d142dcb6a29be942eb3b1513dda" target="_top" xlink:title="Parse a single line from config.">
<polygon fill="white" stroke="#666666" points="214.5,-19 113.5,-19 113.5,0 214.5,0 214.5,-19"/>
<text text-anchor="middle" x="164" y="-7" font-family="Helvetica,sans-Serif" font-size="10.00">Config::parseLine</text>
</a>
</g>
</g>
<!-- Node1&#45;&gt;Node4 -->
<g id="edge5_Node000001_Node000004" class="edge">
<title>Node1&#45;&gt;Node4</title>
<g id="a_edge5_Node000001_Node000004"><a xlink:title=" ">
<path fill="none" stroke="#63b8ff" d="M70.19,-36.97C85.53,-32.43 104.07,-26.94 120.54,-22.07"/>
<polygon fill="#63b8ff" stroke="#63b8ff" points="121.89,-25.32 130.48,-19.12 119.9,-18.61 121.89,-25.32"/>
</a>
</g>
</g>
<!-- Node2&#45;&gt;Node2 -->
<g id="edge2_Node000002_Node000002" class="edge">
<title>Node2&#45;&gt;Node2</title>
<g id="a_edge2_Node000002_Node000002"><a xlink:title=" ">
<path fill="none" stroke="#63b8ff" d="M269.39,-56.08C260.09,-64.73 266.46,-74 288.5,-74 302.27,-74 309.93,-70.38 311.46,-65.55"/>
<polygon fill="#63b8ff" stroke="#63b8ff" points="314.62,-64.03 307.61,-56.08 308.14,-66.66 314.62,-64.03"/>
</a>
</g>
</g>
<!-- Node3&#45;&gt;Node2 -->
<g id="edge4_Node000003_Node000002" class="edge">
<title>Node3&#45;&gt;Node2</title>
<g id="a_edge4_Node000003_Node000002"><a xlink:title=" ">
<path fill="none" stroke="#63b8ff" d="M218.02,-46.5C226.57,-46.5 235.33,-46.5 243.63,-46.5"/>
<polygon fill="#63b8ff" stroke="#63b8ff" points="243.85,-50 253.85,-46.5 243.85,-43 243.85,-50"/>
</a>
</g>
</g>
<!-- Node4&#45;&gt;Node2 -->
<g id="edge6_Node000004_Node000002" class="edge">
<title>Node4&#45;&gt;Node2</title>
<g id="a_edge6_Node000004_Node000002"><a xlink:title=" ">
<path fill="none" stroke="#63b8ff" d="M196.55,-19.03C211.58,-23.57 229.75,-29.06 245.89,-33.93"/>
<polygon fill="#63b8ff" stroke="#63b8ff" points="245.05,-37.33 255.63,-36.88 247.07,-30.63 245.05,-37.33"/>
</a>
</g>
</g>
</g>
</svg>
