<?xml version="1.0" encoding="UTF-8" standalone="no"?>
<!DOCTYPE svg PUBLIC "-//W3C//DTD SVG 1.1//EN"
 "http://www.w3.org/Graphics/SVG/1.1/DTD/svg11.dtd">
<!-- Generated by graphviz version 2.43.0 (0)
 -->
<!-- Title: ccsds::Packet::setUpdatePacketEnable Pages: 1 -->
<!--zoomable 192 -->

<svg id="main" version="1.1" xmlns="http://www.w3.org/2000/svg" xmlns:xlink="http://www.w3.org/1999/xlink" xml:space="preserve" onload="init(evt)">
<style type="text/css"><![CDATA[
.node, .edge {opacity: 0.7;}
.node.selected, .edge.selected {opacity: 1;}
.edge:hover path { stroke: red; }
.edge:hover polygon { stroke: red; fill: red; }
]]></style>

<defs>
  <circle id="rim" cx="0" cy="0" r="7"/>
  <circle id="rim2" cx="0" cy="0" r="3.5"/>
  <g id="zoomPlus">
    <use xlink:href="#rim" fill="#404040"><set attributeName="fill" to="#808080" begin="zoomplus.mouseover" end="zoomplus.mouseout"/></use>
    <path d="M-4,0h8M0,-4v8" fill="none" stroke="white" stroke-width="1.5" pointer-events="none"/>
  </g>
  <g id="zoomMin">
    <use xlink:href="#rim" fill="#404040"><set attributeName="fill" to="#808080" begin="zoomminus.mouseover" end="zoomminus.mouseout"/></use>
    <path d="M-4,0h8" fill="none" stroke="white" stroke-width="1.5" pointer-events="none"/>
  </g>
  <g id="arrowUp" transform="translate(30 24)">
    <use xlink:href="#rim"/>
    <path pointer-events="none" fill="none" stroke="white" stroke-width="1.5" d="M0,-3.0v7 M-2.5,-0.5L0,-3.0L2.5,-0.5"/>
  </g>
  <g id="arrowRight" transform="rotate(90) translate(36 -43)">
    <use xlink:href="#rim"/>
    <path pointer-events="none" fill="none" stroke="white" stroke-width="1.5" d="M0,-3.0v7 M-2.5,-0.5L0,-3.0L2.5,-0.5"/>
  </g>
  <g id="arrowDown" transform="rotate(180) translate(-30 -48)">
    <use xlink:href="#rim"/>
    <path pointer-events="none" fill="none" stroke="white" stroke-width="1.5" d="M0,-3.0v7 M-2.5,-0.5L0,-3.0L2.5,-0.5"/>
  </g>
  <g id="arrowLeft" transform="rotate(270) translate(-36 17)">
    <use xlink:href="#rim"/>
    <path pointer-events="none" fill="none" stroke="white" stroke-width="1.5" d="M0,-3.0v7 M-2.5,-0.5L0,-3.0L2.5,-0.5"/>
  </g>
  <g id="resetDef">
    <use xlink:href="#rim2" fill="#404040"><set attributeName="fill" to="#808080" begin="reset.mouseover" end="reset.mouseout"/></use>
  </g>
</defs>
<script type="application/ecmascript">
var viewWidth = 754;
var viewHeight = 192;
var sectionId = 'dynsection-49';
</script>
<script type="application/ecmascript" xlink:href="svg.min.js"/>
<svg id="graph" class="graph">
<g id="viewport">
<title>ccsds::Packet::setUpdatePacketEnable</title>
<!-- Node1 -->
<g id="Node000001" class="node">
<title>Node1</title>
<g id="a_Node000001"><a xlink:title=" ">
<polygon fill="#999999" stroke="#666666" points="746,-97.5 609,-97.5 609,-67.5 746,-67.5 746,-97.5"/>
<text text-anchor="start" x="617" y="-85.5" font-family="Helvetica,sans-Serif" font-size="10.00">ccsds::Packet::setUpdate</text>
<text text-anchor="middle" x="677.5" y="-74.5" font-family="Helvetica,sans-Serif" font-size="10.00">PacketEnable</text>
</a>
</g>
</g>
<!-- Node2 -->
<g id="Node000002" class="node">
<title>Node2</title>
<g id="a_Node000002"><a xlink:href="classccsds_1_1Manager.html#a4e1d27ce8fd50c2f79fe176bbf747a96" target="_top" xlink:title=" ">
<polygon fill="white" stroke="#666666" points="551.5,-148 403.5,-148 403.5,-129 551.5,-129 551.5,-148"/>
<text text-anchor="middle" x="477.5" y="-136" font-family="Helvetica,sans-Serif" font-size="10.00">ccsds::Manager::addPacket</text>
</a>
</g>
</g>
<!-- Node1&#45;&gt;Node2 -->
<g id="edge1_Node000001_Node000002" class="edge">
<title>Node1&#45;&gt;Node2</title>
<g id="a_edge1_Node000001_Node000002"><a xlink:title=" ">
<path fill="none" stroke="#63b8ff" d="M630.54,-101.21C612.78,-107.95 592.15,-115.2 573,-120.5 561.33,-123.73 548.69,-126.57 536.57,-128.99"/>
<polygon fill="#63b8ff" stroke="#63b8ff" points="632.02,-104.39 640.09,-97.53 629.5,-97.86 632.02,-104.39"/>
</a>
</g>
</g>
<!-- Node7 -->
<g id="Node000007" class="node">
<title>Node7</title>
<g id="a_Node000007"><a xlink:href="classccsds_1_1Manager.html#abab5b0569b23305058ee80cf70170850" target="_top" xlink:title=" ">
<polygon fill="white" stroke="#666666" points="548,-111 407,-111 407,-92 548,-92 548,-111"/>
<text text-anchor="middle" x="477.5" y="-99" font-family="Helvetica,sans-Serif" font-size="10.00">ccsds::Manager::Manager</text>
</a>
</g>
</g>
<!-- Node1&#45;&gt;Node7 -->
<g id="edge6_Node000001_Node000007" class="edge">
<title>Node1&#45;&gt;Node7</title>
<g id="a_edge6_Node000001_Node000007"><a xlink:title=" ">
<path fill="none" stroke="#63b8ff" d="M598.66,-89.97C581.99,-91.57 564.48,-93.25 548.14,-94.82"/>
<polygon fill="#63b8ff" stroke="#63b8ff" points="599.29,-93.42 608.91,-88.99 598.62,-86.46 599.29,-93.42"/>
</a>
</g>
</g>
<!-- Node8 -->
<g id="Node000008" class="node">
<title>Node8</title>
<g id="a_Node000008"><a xlink:href="classccsds_1_1Manager.html#a1ae9675ee3ba08504c160e66f86674c0" target="_top" xlink:title=" ">
<polygon fill="white" stroke="#666666" points="560,-74 395,-74 395,-55 560,-55 560,-74"/>
<text text-anchor="middle" x="477.5" y="-62" font-family="Helvetica,sans-Serif" font-size="10.00">ccsds::Manager::readTemplate</text>
</a>
</g>
</g>
<!-- Node1&#45;&gt;Node8 -->
<g id="edge7_Node000001_Node000008" class="edge">
<title>Node1&#45;&gt;Node8</title>
<g id="a_edge7_Node000001_Node000008"><a xlink:title=" ">
<path fill="none" stroke="#63b8ff" d="M598.85,-75.44C586.15,-74.29 572.95,-73.09 560.15,-71.92"/>
<polygon fill="#63b8ff" stroke="#63b8ff" points="598.64,-78.94 608.91,-76.36 599.27,-71.96 598.64,-78.94"/>
</a>
</g>
</g>
<!-- Node9 -->
<g id="Node000009" class="node">
<title>Node9</title>
<g id="a_Node000009"><a xlink:href="classccsds_1_1Manager.html#a24d82384ac61254e99a337864795436c" target="_top" xlink:title=" ">
<polygon fill="white" stroke="#666666" points="573,-37 382,-37 382,-18 573,-18 573,-37"/>
<text text-anchor="middle" x="477.5" y="-25" font-family="Helvetica,sans-Serif" font-size="10.00">ccsds::Manager::setApplicationData</text>
</a>
</g>
</g>
<!-- Node1&#45;&gt;Node9 -->
<g id="edge8_Node000001_Node000009" class="edge">
<title>Node1&#45;&gt;Node9</title>
<g id="a_edge8_Node000001_Node000009"><a xlink:title=" ">
<path fill="none" stroke="#63b8ff" d="M629.2,-63.85C611.73,-57.42 591.64,-50.57 573,-45.5 561.24,-42.3 548.5,-39.46 536.3,-37.03"/>
<polygon fill="#63b8ff" stroke="#63b8ff" points="628.02,-67.14 638.61,-67.36 630.47,-60.59 628.02,-67.14"/>
</a>
</g>
</g>
<!-- Node3 -->
<g id="Node000003" class="node">
<title>Node3</title>
<g id="a_Node000003"><a xlink:href="classccsds_1_1Manager.html#a80467521c0276b4937bebca73ee69546" target="_top" xlink:title=" ">
<polygon fill="white" stroke="#666666" points="310,-166 191,-166 191,-147 310,-147 310,-166"/>
<text text-anchor="middle" x="250.5" y="-154" font-family="Helvetica,sans-Serif" font-size="10.00">ccsds::Manager::load</text>
</a>
</g>
</g>
<!-- Node2&#45;&gt;Node3 -->
<g id="edge2_Node000002_Node000003" class="edge">
<title>Node2&#45;&gt;Node3</title>
<g id="a_edge2_Node000002_Node000003"><a xlink:title=" ">
<path fill="none" stroke="#63b8ff" d="M393.41,-145.15C365.82,-147.35 335.69,-149.76 310.32,-151.79"/>
<polygon fill="#63b8ff" stroke="#63b8ff" points="393.76,-148.63 403.45,-144.34 393.2,-141.65 393.76,-148.63"/>
</a>
</g>
</g>
<!-- Node6 -->
<g id="Node000006" class="node">
<title>Node6</title>
<g id="a_Node000006"><a xlink:href="classccsds_1_1Manager.html#a173de7c2ce31dcbcec4ced96c417e07e" target="_top" xlink:title=" ">
<polygon fill="white" stroke="#666666" points="310,-129 191,-129 191,-110 310,-110 310,-129"/>
<text text-anchor="middle" x="250.5" y="-117" font-family="Helvetica,sans-Serif" font-size="10.00">ccsds::Manager::load</text>
</a>
</g>
</g>
<!-- Node2&#45;&gt;Node6 -->
<g id="edge5_Node000002_Node000006" class="edge">
<title>Node2&#45;&gt;Node6</title>
<g id="a_edge5_Node000002_Node000006"><a xlink:title=" ">
<path fill="none" stroke="#63b8ff" d="M393.41,-131.48C365.82,-129.15 335.69,-126.61 310.32,-124.47"/>
<polygon fill="#63b8ff" stroke="#63b8ff" points="393.19,-134.98 403.45,-132.33 393.78,-128 393.19,-134.98"/>
</a>
</g>
</g>
<!-- Node4 -->
<g id="Node000004" class="node">
<title>Node4</title>
<g id="a_Node000004"><a xlink:href="classccsds_1_1Manager.html#a6e7bc6f09b2abdc3ab3843b6832e6052" target="_top" xlink:title=" ">
<polygon fill="white" stroke="#666666" points="119,-184 0,-184 0,-165 119,-165 119,-184"/>
<text text-anchor="middle" x="59.5" y="-172" font-family="Helvetica,sans-Serif" font-size="10.00">ccsds::Manager::load</text>
</a>
</g>
</g>
<!-- Node3&#45;&gt;Node4 -->
<g id="edge3_Node000003_Node000004" class="edge">
<title>Node3&#45;&gt;Node4</title>
<g id="a_edge3_Node000003_Node000004"><a xlink:title=" ">
<path fill="none" stroke="#63b8ff" d="M180.89,-163.03C160.62,-164.96 138.63,-167.06 119.06,-168.92"/>
<polygon fill="#63b8ff" stroke="#63b8ff" points="181.37,-166.5 190.99,-162.07 180.71,-159.54 181.37,-166.5"/>
</a>
</g>
</g>
<!-- Node5 -->
<g id="Node000005" class="node">
<title>Node5</title>
<g id="a_Node000005"><a xlink:href="exec__decoder_8cpp.html#a638b85ceffac097c2aa79b76ba8c055e" target="_top" xlink:title=" ">
<polygon fill="white" stroke="#666666" points="80,-147 39,-147 39,-128 80,-128 80,-147"/>
<text text-anchor="middle" x="59.5" y="-135" font-family="Helvetica,sans-Serif" font-size="10.00">main</text>
</a>
</g>
</g>
<!-- Node3&#45;&gt;Node5 -->
<g id="edge4_Node000003_Node000005" class="edge">
<title>Node3&#45;&gt;Node5</title>
<g id="a_edge4_Node000003_Node000005"><a xlink:title=" ">
<path fill="none" stroke="#63b8ff" d="M181.03,-149.62C145.12,-146.01 103.77,-141.85 80.03,-139.46"/>
<polygon fill="#63b8ff" stroke="#63b8ff" points="180.69,-153.1 190.99,-150.62 181.39,-146.14 180.69,-153.1"/>
</a>
</g>
</g>
<!-- Node10 -->
<g id="Node000010" class="node">
<title>Node10</title>
<g id="a_Node000010"><a xlink:href="exec__encoder_8cpp.html#a638b85ceffac097c2aa79b76ba8c055e" target="_top" xlink:title=" ">
<polygon fill="white" stroke="#666666" points="271,-56 230,-56 230,-37 271,-37 271,-56"/>
<text text-anchor="middle" x="250.5" y="-44" font-family="Helvetica,sans-Serif" font-size="10.00">main</text>
</a>
</g>
</g>
<!-- Node9&#45;&gt;Node10 -->
<g id="edge9_Node000009_Node000010" class="edge">
<title>Node9&#45;&gt;Node10</title>
<g id="a_edge9_Node000009_Node000010"><a xlink:title=" ">
<path fill="none" stroke="#63b8ff" d="M371.51,-36.37C333.24,-39.6 293.8,-42.93 271.02,-44.85"/>
<polygon fill="#63b8ff" stroke="#63b8ff" points="372.06,-39.83 381.73,-35.5 371.47,-32.86 372.06,-39.83"/>
</a>
</g>
</g>
<!-- Node11 -->
<g id="Node000011" class="node">
<title>Node11</title>
<g id="a_Node000011"><a xlink:href="classccsds_1_1Manager.html#aa4be5c60b050d8f78fb9cad7443ac4b5" target="_top" xlink:title=" ">
<polygon fill="white" stroke="#666666" points="346,-19 155,-19 155,0 346,0 346,-19"/>
<text text-anchor="middle" x="250.5" y="-7" font-family="Helvetica,sans-Serif" font-size="10.00">ccsds::Manager::setApplicationData</text>
</a>
</g>
</g>
<!-- Node9&#45;&gt;Node11 -->
<g id="edge10_Node000009_Node000011" class="edge">
<title>Node9&#45;&gt;Node11</title>
<g id="a_edge10_Node000009_Node000011"><a xlink:title=" ">
<path fill="none" stroke="#63b8ff" d="M371.75,-19.12C363.21,-18.44 354.62,-17.75 346.16,-17.07"/>
<polygon fill="#63b8ff" stroke="#63b8ff" points="371.48,-22.61 381.73,-19.92 372.04,-15.63 371.48,-22.61"/>
</a>
</g>
</g>
</g>
</svg>

<g id="navigator" transform="translate(0 0)" fill="#404254">
  <rect fill="#f2f5e9" fill-opacity="0.5" stroke="#606060" stroke-width=".5" x="0" y="0" width="60" height="60"/>
  <use id="zoomplus" xlink:href="#zoomPlus" x="17" y="9" onmousedown="handleZoom(evt,'in')"/>
  <use id="zoomminus" xlink:href="#zoomMin" x="42" y="9" onmousedown="handleZoom(evt,'out')"/>
  <use id="reset" xlink:href="#resetDef" x="30" y="36" onmousedown="handleReset()"/>
   <use id="arrowup" xlink:href="#arrowUp" x="0" y="0" onmousedown="handlePan(0,-1)"/>
  <use id="arrowright" xlink:href="#arrowRight" x="0" y="0" onmousedown="handlePan(1,0)"/>
  <use id="arrowdown" xlink:href="#arrowDown" x="0" y="0" onmousedown="handlePan(0,1)"/>
  <use id="arrowleft" xlink:href="#arrowLeft" x="0" y="0" onmousedown="handlePan(-1,0)"/>
</g>
<svg viewBox="0 0 15 15" width="100%" height="30px" preserveAspectRatio="xMaxYMin meet">
 <g id="arrow_out" transform="scale(0.3 0.3)">
  <a xlink:href="classccsds_1_1Packet_a217dbaa5f2aae5ece38b52192fc00222_icgraph_org.svg" target="_base">
   <rect id="button" ry="5" rx="5" y="6" x="6" height="38" width="38"
        fill="#f2f5e9" fill-opacity="0.5" stroke="#606060" stroke-width="1.0"/>
   <path id="arrow"
     d="M 11.500037,31.436501 C 11.940474,20.09759 22.043105,11.32322 32.158766,21.979434 L 37.068811,17.246167 C 37.068811,17.246167 37.088388,32 37.088388,32 L 22.160133,31.978069 C 22.160133,31.978069 26.997745,27.140456 26.997745,27.140456 C 18.528582,18.264221 13.291696,25.230495 11.500037,31.436501 z"
     style="fill:#404040;"/>
  </a>
 </g>
</svg>

<style type='text/css'>
<![CDATA[
[data-mouse-over-selected='false'] { opacity: 0.7; }
[data-mouse-over-selected='true']  { opacity: 1.0; }
]]>
</style>
<script type="application/ecmascript"><![CDATA[
document.addEventListener('DOMContentLoaded', (event) => {
  highlightEdges();
  highlightAdjacentNodes();
});
]]></script>
</svg>
