<?xml version="1.0" encoding="UTF-8" standalone="no"?>
<!DOCTYPE svg PUBLIC "-//W3C//DTD SVG 1.1//EN"
 "http://www.w3.org/Graphics/SVG/1.1/DTD/svg11.dtd">
<!-- Generated by graphviz version 2.43.0 (0)
 -->
<!-- Title: CCSDS::Packet::RegisterSecondaryHeader Pages: 1 -->
<svg width="591pt" height="38pt"
 viewBox="0.00 0.00 591.00 38.00" xmlns="http://www.w3.org/2000/svg" xmlns:xlink="http://www.w3.org/1999/xlink">
<g id="graph0" class="graph" transform="scale(1 1) rotate(0) translate(4 34)">
<title>CCSDS::Packet::RegisterSecondaryHeader</title>
<!-- Node1 -->
<g id="Node000001" class="node">
<title>Node1</title>
<g id="a_Node000001"><a xlink:title="Registers a new header type with the data field secondary header creation function.">
<polygon fill="#999999" stroke="#666666" points="185,-30 0,-30 0,0 185,0 185,-30"/>
<text text-anchor="start" x="8" y="-18" font-family="Helvetica,sans-Serif" font-size="10.00">CCSDS::Packet::RegisterSecondary</text>
<text text-anchor="middle" x="92.5" y="-7" font-family="Helvetica,sans-Serif" font-size="10.00">Header</text>
</a>
</g>
</g>
<!-- Node2 -->
<g id="Node000002" class="node">
<title>Node2</title>
<g id="a_Node000002"><a xlink:href="classCCSDS_1_1DataField.html#a339d345a47e95d258f5bec45c2e8d980" target="_top" xlink:title="Registers a new header type with its creation function.">
<polygon fill="white" stroke="#666666" points="370,-30 221,-30 221,0 370,0 370,-30"/>
<text text-anchor="start" x="229" y="-18" font-family="Helvetica,sans-Serif" font-size="10.00">CCSDS::DataField::Register</text>
<text text-anchor="middle" x="295.5" y="-7" font-family="Helvetica,sans-Serif" font-size="10.00">SecondaryHeader</text>
</a>
</g>
</g>
<!-- Node1&#45;&gt;Node2 -->
<g id="edge1_Node000001_Node000002" class="edge">
<title>Node1&#45;&gt;Node2</title>
<g id="a_edge1_Node000001_Node000002"><a xlink:title=" ">
<path fill="none" stroke="#63b8ff" d="M185.18,-15C193.64,-15 202.19,-15 210.58,-15"/>
<polygon fill="#63b8ff" stroke="#63b8ff" points="210.72,-18.5 220.72,-15 210.72,-11.5 210.72,-18.5"/>
</a>
</g>
</g>
<!-- Node3 -->
<g id="Node000003" class="node">
<title>Node3</title>
<g id="a_Node000003"><a xlink:href="classCCSDS_1_1SecondaryHeaderFactory.html#a7794ddfd6f46ca20b967a1e57a7fa286" target="_top" xlink:title="Registers a new header type with its creation function.">
<polygon fill="white" stroke="#666666" points="583,-30 406,-30 406,0 583,0 583,-30"/>
<text text-anchor="start" x="414" y="-18" font-family="Helvetica,sans-Serif" font-size="10.00">CCSDS::SecondaryHeaderFactory</text>
<text text-anchor="middle" x="494.5" y="-7" font-family="Helvetica,sans-Serif" font-size="10.00">::registerType</text>
</a>
</g>
</g>
<!-- Node2&#45;&gt;Node3 -->
<g id="edge2_Node000002_Node000003" class="edge">
<title>Node2&#45;&gt;Node3</title>
<g id="a_edge2_Node000002_Node000003"><a xlink:title=" ">
<path fill="none" stroke="#63b8ff" d="M370.14,-15C378.54,-15 387.2,-15 395.86,-15"/>
<polygon fill="#63b8ff" stroke="#63b8ff" points="396,-18.5 406,-15 396,-11.5 396,-18.5"/>
</a>
</g>
</g>
</g>
</svg>
