<?xml version="1.0" encoding="UTF-8" standalone="no"?>
<!DOCTYPE svg PUBLIC "-//W3C//DTD SVG 1.1//EN"
 "http://www.w3.org/Graphics/SVG/1.1/DTD/svg11.dtd">
<!-- Generated by graphviz version 2.43.0 (0)
 -->
<!-- Title: CCSDS::Result::has_value Pages: 1 -->
<svg width="312pt" height="64pt"
 viewBox="0.00 0.00 312.00 64.00" xmlns="http://www.w3.org/2000/svg" xmlns:xlink="http://www.w3.org/1999/xlink">
<g id="graph0" class="graph" transform="scale(1 1) rotate(0) translate(4 60)">
<title>CCSDS::Result::has_value</title>
<!-- Node1 -->
<g id="Node000001" class="node">
<title>Node1</title>
<g id="a_Node000001"><a xlink:title="Checks if the result contains a valid value.">
<polygon fill="#999999" stroke="#666666" points="304,-42.5 194,-42.5 194,-12.5 304,-12.5 304,-42.5"/>
<text text-anchor="start" x="202" y="-30.5" font-family="Helvetica,sans-Serif" font-size="10.00">CCSDS::Result::has</text>
<text text-anchor="middle" x="249" y="-19.5" font-family="Helvetica,sans-Serif" font-size="10.00">_value</text>
</a>
</g>
</g>
<!-- Node2 -->
<g id="Node000002" class="node">
<title>Node2</title>
<g id="a_Node000002"><a xlink:href="exec__encoder_8cpp.html#a638b85ceffac097c2aa79b76ba8c055e" target="_top" xlink:title=" ">
<polygon fill="white" stroke="#666666" points="99.5,-56 58.5,-56 58.5,-37 99.5,-37 99.5,-56"/>
<text text-anchor="middle" x="79" y="-44" font-family="Helvetica,sans-Serif" font-size="10.00">main</text>
</a>
</g>
</g>
<!-- Node1&#45;&gt;Node2 -->
<g id="edge1_Node000001_Node000002" class="edge">
<title>Node1&#45;&gt;Node2</title>
<g id="a_edge1_Node000001_Node000002"><a xlink:title=" ">
<path fill="none" stroke="#63b8ff" d="M183.91,-34.75C153.93,-38.14 120.36,-41.93 99.7,-44.27"/>
<polygon fill="#63b8ff" stroke="#63b8ff" points="184.38,-38.22 193.92,-33.62 183.59,-31.26 184.38,-38.22"/>
</a>
</g>
</g>
<!-- Node3 -->
<g id="Node000003" class="node">
<title>Node3</title>
<g id="a_Node000003"><a xlink:href="classCCSDS_1_1Result.html#a55c7244dcaabeff8095855bb6eb6f0bf" target="_top" xlink:title="Implicit conversion to bool, allowing usage like if (result).">
<polygon fill="white" stroke="#666666" points="158,-19 0,-19 0,0 158,0 158,-19"/>
<text text-anchor="middle" x="79" y="-7" font-family="Helvetica,sans-Serif" font-size="10.00">CCSDS::Result::operator bool</text>
</a>
</g>
</g>
<!-- Node1&#45;&gt;Node3 -->
<g id="edge2_Node000001_Node000003" class="edge">
<title>Node1&#45;&gt;Node3</title>
<g id="a_edge2_Node000001_Node000003"><a xlink:title=" ">
<path fill="none" stroke="#63b8ff" d="M183.83,-20.62C175.43,-19.72 166.74,-18.79 158.14,-17.87"/>
<polygon fill="#63b8ff" stroke="#63b8ff" points="183.6,-24.12 193.92,-21.71 184.35,-17.16 183.6,-24.12"/>
</a>
</g>
</g>
</g>
</svg>
