<?xml version="1.0" encoding="UTF-8" standalone="no"?>
<!DOCTYPE svg PUBLIC "-//W3C//DTD SVG 1.1//EN"
 "http://www.w3.org/Graphics/SVG/1.1/DTD/svg11.dtd">
<!-- Generated by graphviz version 2.43.0 (0)
 -->
<!-- Title: CCSDS::Manager::loadTemplateConfig Pages: 1 -->
<svg width="605pt" height="52pt"
 viewBox="0.00 0.00 605.00 51.50" xmlns="http://www.w3.org/2000/svg" xmlns:xlink="http://www.w3.org/1999/xlink">
<g id="graph0" class="graph" transform="scale(1 1) rotate(0) translate(4 47.5)">
<title>CCSDS::Manager::loadTemplateConfig</title>
<!-- Node1 -->
<g id="Node000001" class="node">
<title>Node1</title>
<g id="a_Node000001"><a xlink:title="Loads a template packet from a configuration object.">
<polygon fill="#999999" stroke="#666666" points="170,-43.5 0,-43.5 0,-13.5 170,-13.5 170,-43.5"/>
<text text-anchor="start" x="8" y="-31.5" font-family="Helvetica,sans-Serif" font-size="10.00">CCSDS::Manager::loadTemplate</text>
<text text-anchor="middle" x="85" y="-20.5" font-family="Helvetica,sans-Serif" font-size="10.00">Config</text>
</a>
</g>
</g>
<!-- Node2 -->
<g id="Node000002" class="node">
<title>Node2</title>
<g id="a_Node000002"><a xlink:href="classCCSDS_1_1Packet.html#a69d4cb8111cfec9f231568cfc262e97e" target="_top" xlink:title="Loads a packet from a configuration object, including secondary header if present.">
<polygon fill="white" stroke="#666666" points="376,-38 206,-38 206,-19 376,-19 376,-38"/>
<text text-anchor="middle" x="291" y="-26" font-family="Helvetica,sans-Serif" font-size="10.00">CCSDS::Packet::loadFromConfig</text>
</a>
</g>
</g>
<!-- Node1&#45;&gt;Node2 -->
<g id="edge1_Node000001_Node000002" class="edge">
<title>Node1&#45;&gt;Node2</title>
<g id="a_edge1_Node000001_Node000002"><a xlink:title=" ">
<path fill="none" stroke="#63b8ff" d="M170.15,-28.5C178.5,-28.5 187.02,-28.5 195.46,-28.5"/>
<polygon fill="#63b8ff" stroke="#63b8ff" points="195.71,-32 205.71,-28.5 195.71,-25 195.71,-32"/>
</a>
</g>
</g>
<!-- Node3 -->
<g id="Node000003" class="node">
<title>Node3</title>
<g id="a_Node000003"><a xlink:href="classConfig.html#ac0eb207d3a0c9b3039000301c612aadb" target="_top" xlink:title="Get value by key and type.">
<polygon fill="white" stroke="#666666" points="597,-38 528,-38 528,-19 597,-19 597,-38"/>
<text text-anchor="middle" x="562.5" y="-26" font-family="Helvetica,sans-Serif" font-size="10.00">Config::get</text>
</a>
</g>
</g>
<!-- Node2&#45;&gt;Node3 -->
<g id="edge2_Node000002_Node000003" class="edge">
<title>Node2&#45;&gt;Node3</title>
<g id="a_edge2_Node000002_Node000003"><a xlink:title=" ">
<path fill="none" stroke="#63b8ff" d="M376.16,-28.5C423.03,-28.5 479.45,-28.5 517.63,-28.5"/>
<polygon fill="#63b8ff" stroke="#63b8ff" points="517.9,-32 527.9,-28.5 517.9,-25 517.9,-32"/>
</a>
</g>
</g>
<!-- Node4 -->
<g id="Node000004" class="node">
<title>Node4</title>
<g id="a_Node000004"><a xlink:href="classConfig.html#a093d1897ebdb889d382706a73b02d249" target="_top" xlink:title=" ">
<polygon fill="white" stroke="#666666" points="492,-19 412,-19 412,0 492,0 492,-19"/>
<text text-anchor="middle" x="452" y="-7" font-family="Helvetica,sans-Serif" font-size="10.00">Config::isKey</text>
</a>
</g>
</g>
<!-- Node2&#45;&gt;Node4 -->
<g id="edge3_Node000002_Node000004" class="edge">
<title>Node2&#45;&gt;Node4</title>
<g id="a_edge3_Node000002_Node000004"><a xlink:title=" ">
<path fill="none" stroke="#63b8ff" d="M371.97,-18.94C382.19,-17.72 392.4,-16.5 401.93,-15.36"/>
<polygon fill="#63b8ff" stroke="#63b8ff" points="402.45,-18.83 411.96,-14.17 401.62,-11.88 402.45,-18.83"/>
</a>
</g>
</g>
<!-- Node4&#45;&gt;Node3 -->
<g id="edge4_Node000004_Node000003" class="edge">
<title>Node4&#45;&gt;Node3</title>
<g id="a_edge4_Node000004_Node000003"><a xlink:title=" ">
<path fill="none" stroke="#63b8ff" d="M492.17,-16.36C500.46,-17.81 509.25,-19.35 517.7,-20.83"/>
<polygon fill="#63b8ff" stroke="#63b8ff" points="517.31,-24.31 527.76,-22.59 518.52,-17.42 517.31,-24.31"/>
</a>
</g>
</g>
</g>
</svg>
