<?xml version="1.0" encoding="UTF-8" standalone="no"?>
<!DOCTYPE svg PUBLIC "-//W3C//DTD SVG 1.1//EN"
 "http://www.w3.org/Graphics/SVG/1.1/DTD/svg11.dtd">
<!-- Generated by graphviz version 2.43.0 (0)
 -->
<!-- Title: CCSDS::DataField::update Pages: 1 -->
<svg width="490pt" height="38pt"
 viewBox="0.00 0.00 490.00 38.00" xmlns="http://www.w3.org/2000/svg" xmlns:xlink="http://www.w3.org/1999/xlink">
<g id="graph0" class="graph" transform="scale(1 1) rotate(0) translate(4 34)">
<title>CCSDS::DataField::update</title>
<!-- Node1 -->
<g id="Node000001" class="node">
<title>Node1</title>
<g id="a_Node000001"><a xlink:title="Updates the data field header based on the current application data size.">
<polygon fill="#999999" stroke="#666666" points="482,-24.5 340,-24.5 340,-5.5 482,-5.5 482,-24.5"/>
<text text-anchor="middle" x="411" y="-12.5" font-family="Helvetica,sans-Serif" font-size="10.00">CCSDS::DataField::update</text>
</a>
</g>
</g>
<!-- Node2 -->
<g id="Node000002" class="node">
<title>Node2</title>
<g id="a_Node000002"><a xlink:href="classCCSDS_1_1DataField.html#adf40e2024bf3509e4ce28ff3a8e637e2" target="_top" xlink:title="Retrieves the full data field by combining the data field header and application data.">
<polygon fill="white" stroke="#666666" points="304,-30 163,-30 163,0 304,0 304,-30"/>
<text text-anchor="start" x="171" y="-18" font-family="Helvetica,sans-Serif" font-size="10.00">CCSDS::DataField::getFull</text>
<text text-anchor="middle" x="233.5" y="-7" font-family="Helvetica,sans-Serif" font-size="10.00">DataFieldBytes</text>
</a>
</g>
</g>
<!-- Node1&#45;&gt;Node2 -->
<g id="edge1_Node000001_Node000002" class="edge">
<title>Node1&#45;&gt;Node2</title>
<g id="a_edge1_Node000001_Node000002"><a xlink:title=" ">
<path fill="none" stroke="#63b8ff" d="M329.61,-15C321.13,-15 312.56,-15 304.22,-15"/>
<polygon fill="#63b8ff" stroke="#63b8ff" points="329.88,-18.5 339.88,-15 329.88,-11.5 329.88,-18.5"/>
</a>
</g>
</g>
<!-- Node3 -->
<g id="Node000003" class="node">
<title>Node3</title>
<g id="a_Node000003"><a xlink:href="classCCSDS_1_1Packet.html#a25c84fd13d0176cd575d70103bc4af64" target="_top" xlink:title="Updates Primary headers data field size.">
<polygon fill="white" stroke="#666666" points="127,-24.5 0,-24.5 0,-5.5 127,-5.5 127,-24.5"/>
<text text-anchor="middle" x="63.5" y="-12.5" font-family="Helvetica,sans-Serif" font-size="10.00">CCSDS::Packet::update</text>
</a>
</g>
</g>
<!-- Node2&#45;&gt;Node3 -->
<g id="edge2_Node000002_Node000003" class="edge">
<title>Node2&#45;&gt;Node3</title>
<g id="a_edge2_Node000002_Node000003"><a xlink:title=" ">
<path fill="none" stroke="#63b8ff" d="M152.68,-15C144.09,-15 135.44,-15 127.1,-15"/>
<polygon fill="#63b8ff" stroke="#63b8ff" points="152.71,-18.5 162.71,-15 152.71,-11.5 152.71,-18.5"/>
</a>
</g>
</g>
</g>
</svg>
