<?xml version="1.0" encoding="UTF-8" standalone="no"?>
<!DOCTYPE svg PUBLIC "-//W3C//DTD SVG 1.1//EN"
 "http://www.w3.org/Graphics/SVG/1.1/DTD/svg11.dtd">
<!-- Generated by graphviz version 2.43.0 (0)
 -->
<!-- Title: CCSDS::SecondaryHeaderAbstract Pages: 1 -->
<svg width="306pt" height="82pt"
 viewBox="0.00 0.00 305.50 82.00" xmlns="http://www.w3.org/2000/svg" xmlns:xlink="http://www.w3.org/1999/xlink">
<g id="graph0" class="graph" transform="scale(1 1) rotate(0) translate(4 78)">
<title>CCSDS::SecondaryHeaderAbstract</title>
<!-- Node1 -->
<g id="Node000001" class="node">
<title>Node1</title>
<g id="a_Node000001"><a xlink:title="Abstract base class for a (Packet Utilization Standard) header.">
<polygon fill="#999999" stroke="#666666" points="279,-74 97,-74 97,-55 279,-55 279,-74"/>
<text text-anchor="middle" x="188" y="-62" font-family="Helvetica,sans-Serif" font-size="10.00">CCSDS::SecondaryHeaderAbstract</text>
</a>
</g>
</g>
<!-- Node2 -->
<g id="Node000002" class="node">
<title>Node2</title>
<g id="a_Node000002"><a xlink:href="classCCSDS_1_1BufferHeader.html" target="_top" xlink:title="Represents a fixed secondary header used as a data buffer.">
<polygon fill="white" stroke="#666666" points="120,-19 0,-19 0,0 120,0 120,-19"/>
<text text-anchor="middle" x="60" y="-7" font-family="Helvetica,sans-Serif" font-size="10.00">CCSDS::BufferHeader</text>
</a>
</g>
</g>
<!-- Node1&#45;&gt;Node2 -->
<g id="edge1_Node000001_Node000002" class="edge">
<title>Node1&#45;&gt;Node2</title>
<g id="a_edge1_Node000001_Node000002"><a xlink:title=" ">
<path fill="none" stroke="#63b8ff" d="M157.88,-51.03C134.21,-41.23 101.85,-27.83 80.94,-19.17"/>
<polygon fill="#63b8ff" stroke="#63b8ff" points="156.86,-54.39 167.43,-54.98 159.53,-47.93 156.86,-54.39"/>
</a>
</g>
</g>
<!-- Node3 -->
<g id="Node000003" class="node">
<title>Node3</title>
<g id="a_Node000003"><a xlink:href="classPusA.html" target="_top" xlink:title="Represents a PUS Type A (Telemetry) header.">
<polygon fill="white" stroke="#666666" points="179.5,-19 138.5,-19 138.5,0 179.5,0 179.5,-19"/>
<text text-anchor="middle" x="159" y="-7" font-family="Helvetica,sans-Serif" font-size="10.00">PusA</text>
</a>
</g>
</g>
<!-- Node1&#45;&gt;Node3 -->
<g id="edge2_Node000001_Node000003" class="edge">
<title>Node1&#45;&gt;Node3</title>
<g id="a_edge2_Node000001_Node000003"><a xlink:title=" ">
<path fill="none" stroke="#63b8ff" d="M178.32,-45.82C173.4,-36.82 167.64,-26.29 163.7,-19.09"/>
<polygon fill="#63b8ff" stroke="#63b8ff" points="175.34,-47.66 183.21,-54.75 181.48,-44.3 175.34,-47.66"/>
</a>
</g>
</g>
<!-- Node4 -->
<g id="Node000004" class="node">
<title>Node4</title>
<g id="a_Node000004"><a xlink:href="classPusB.html" target="_top" xlink:title="Represents a PUS Type B (Event Reporting) header.">
<polygon fill="white" stroke="#666666" points="238.5,-19 197.5,-19 197.5,0 238.5,0 238.5,-19"/>
<text text-anchor="middle" x="218" y="-7" font-family="Helvetica,sans-Serif" font-size="10.00">PusB</text>
</a>
</g>
</g>
<!-- Node1&#45;&gt;Node4 -->
<g id="edge3_Node000001_Node000004" class="edge">
<title>Node1&#45;&gt;Node4</title>
<g id="a_edge3_Node000001_Node000004"><a xlink:title=" ">
<path fill="none" stroke="#63b8ff" d="M198.01,-45.82C203.1,-36.82 209.06,-26.29 213.14,-19.09"/>
<polygon fill="#63b8ff" stroke="#63b8ff" points="194.83,-44.32 192.95,-54.75 200.93,-47.77 194.83,-44.32"/>
</a>
</g>
</g>
<!-- Node5 -->
<g id="Node000005" class="node">
<title>Node5</title>
<g id="a_Node000005"><a xlink:href="classPusC.html" target="_top" xlink:title="Represents a PUS Type C (Time Code) header.">
<polygon fill="white" stroke="#666666" points="297.5,-19 256.5,-19 256.5,0 297.5,0 297.5,-19"/>
<text text-anchor="middle" x="277" y="-7" font-family="Helvetica,sans-Serif" font-size="10.00">PusC</text>
</a>
</g>
</g>
<!-- Node1&#45;&gt;Node5 -->
<g id="edge4_Node000001_Node000005" class="edge">
<title>Node1&#45;&gt;Node5</title>
<g id="a_edge4_Node000001_Node000005"><a xlink:title=" ">
<path fill="none" stroke="#63b8ff" d="M211.18,-49.7C227.39,-40.04 248.55,-27.44 262.44,-19.17"/>
<polygon fill="#63b8ff" stroke="#63b8ff" points="209.1,-46.86 202.3,-54.98 212.68,-52.88 209.1,-46.86"/>
</a>
</g>
</g>
</g>
</svg>
