<?xml version="1.0" encoding="UTF-8" standalone="no"?>
<!DOCTYPE svg PUBLIC "-//W3C//DTD SVG 1.1//EN"
 "http://www.w3.org/Graphics/SVG/1.1/DTD/svg11.dtd">
<!-- Generated by graphviz version 2.43.0 (0)
 -->
<!-- Title: CCSDS::Packet::setUpdatePacketEnable Pages: 1 -->
<svg width="461pt" height="175pt"
 viewBox="0.00 0.00 461.00 175.00" xmlns="http://www.w3.org/2000/svg" xmlns:xlink="http://www.w3.org/1999/xlink">

<svg id="main" version="1.1" xmlns="http://www.w3.org/2000/svg" xmlns:xlink="http://www.w3.org/1999/xlink" xml:space="preserve" onload="init(evt)">
<style type="text/css"><![CDATA[
.node, .edge {opacity: 0.7;}
.node.selected, .edge.selected {opacity: 1;}
.edge:hover path { stroke: red; }
.edge:hover polygon { stroke: red; fill: red; }
]]></style>
<script type="application/ecmascript" xlink:href="svg.min.js"/>
<svg id="graph" class="graph">
<g id="graph0" class="graph" transform="scale(1 1) rotate(0) translate(4 171)">
<title>CCSDS::Packet::setUpdatePacketEnable</title>
<!-- Node1 -->
<g id="Node000001" class="node">
<title>Node1</title>
<g id="a_Node000001"><a xlink:title="needs to be called as soon as possible, probably also from constructor.">
<polygon fill="#999999" stroke="#666666" points="453,-98.5 310,-98.5 310,-68.5 453,-68.5 453,-98.5"/>
<text text-anchor="start" x="318" y="-86.5" font-family="Helvetica,sans-Serif" font-size="10.00">CCSDS::Packet::setUpdate</text>
<text text-anchor="middle" x="381.5" y="-75.5" font-family="Helvetica,sans-Serif" font-size="10.00">PacketEnable</text>
</a>
</g>
</g>
<!-- Node2 -->
<g id="Node000002" class="node">
<title>Node2</title>
<g id="a_Node000002"><a xlink:href="classCCSDS_1_1Manager.html#a4fd11a40ea4d569a483061892bfb688f" target="_top" xlink:title="Adds a new packet to the list.">
<polygon fill="white" stroke="#666666" points="252.5,-167 98.5,-167 98.5,-148 252.5,-148 252.5,-167"/>
<text text-anchor="middle" x="175.5" y="-155" font-family="Helvetica,sans-Serif" font-size="10.00">CCSDS::Manager::addPacket</text>
</a>
</g>
</g>
<!-- Node1&#45;&gt;Node2 -->
<g id="edge1_Node000001_Node000002" class="edge">
<title>Node1&#45;&gt;Node2</title>
<g id="a_edge1_Node000001_Node000002"><a xlink:title=" ">
<path fill="none" stroke="#63b8ff" d="M348.27,-103.73C327.73,-115.78 300.14,-130.45 274,-139.5 264.24,-142.88 253.7,-145.66 243.28,-147.95"/>
<polygon fill="#63b8ff" stroke="#63b8ff" points="350.11,-106.7 356.91,-98.57 346.53,-100.69 350.11,-106.7"/>
</a>
</g>
</g>
<!-- Node3 -->
<g id="Node000003" class="node">
<title>Node3</title>
<g id="a_Node000003"><a xlink:href="classCCSDS_1_1Manager.html#aa47668beaea3b5b4f0ca9c85b374e966" target="_top" xlink:title="Constructs a Manager with a given packet template.">
<polygon fill="white" stroke="#666666" points="249,-130 102,-130 102,-111 249,-111 249,-130"/>
<text text-anchor="middle" x="175.5" y="-118" font-family="Helvetica,sans-Serif" font-size="10.00">CCSDS::Manager::Manager</text>
</a>
</g>
</g>
<!-- Node1&#45;&gt;Node3 -->
<g id="edge2_Node000001_Node000003" class="edge">
<title>Node1&#45;&gt;Node3</title>
<g id="a_edge2_Node000001_Node000003"><a xlink:title=" ">
<path fill="none" stroke="#63b8ff" d="M299.67,-98.16C275.94,-102.46 250.61,-107.06 229.14,-110.95"/>
<polygon fill="#63b8ff" stroke="#63b8ff" points="300.51,-101.57 309.72,-96.34 299.26,-94.68 300.51,-101.57"/>
</a>
</g>
</g>
<!-- Node4 -->
<g id="Node000004" class="node">
<title>Node4</title>
<g id="a_Node000004"><a xlink:href="classCCSDS_1_1Manager.html#a44c3bccc78ccf59d9432935e43283342" target="_top" xlink:title="Load a template packet from a binary or configuration file.">
<polygon fill="white" stroke="#666666" points="261,-93 90,-93 90,-74 261,-74 261,-93"/>
<text text-anchor="middle" x="175.5" y="-81" font-family="Helvetica,sans-Serif" font-size="10.00">CCSDS::Manager::readTemplate</text>
</a>
</g>
</g>
<!-- Node1&#45;&gt;Node4 -->
<g id="edge3_Node000001_Node000004" class="edge">
<title>Node1&#45;&gt;Node4</title>
<g id="a_edge3_Node000001_Node000004"><a xlink:title=" ">
<path fill="none" stroke="#63b8ff" d="M299.69,-83.5C287.04,-83.5 273.93,-83.5 261.2,-83.5"/>
<polygon fill="#63b8ff" stroke="#63b8ff" points="299.72,-87 309.72,-83.5 299.72,-80 299.72,-87"/>
</a>
</g>
</g>
<!-- Node5 -->
<g id="Node000005" class="node">
<title>Node5</title>
<g id="a_Node000005"><a xlink:href="classCCSDS_1_1Manager.html#abb8e2225df8018c04ad76c874cadee69" target="_top" xlink:title="Sets the application data for the packet.">
<polygon fill="white" stroke="#666666" points="274,-56 77,-56 77,-37 274,-37 274,-56"/>
<text text-anchor="middle" x="175.5" y="-44" font-family="Helvetica,sans-Serif" font-size="10.00">CCSDS::Manager::setApplicationData</text>
</a>
</g>
</g>
<!-- Node1&#45;&gt;Node5 -->
<g id="edge4_Node000001_Node000005" class="edge">
<title>Node1&#45;&gt;Node5</title>
<g id="a_edge4_Node000001_Node000005"><a xlink:title=" ">
<path fill="none" stroke="#63b8ff" d="M299.67,-68.84C275.94,-64.54 250.61,-59.94 229.14,-56.05"/>
<polygon fill="#63b8ff" stroke="#63b8ff" points="299.26,-72.32 309.72,-70.66 300.51,-65.43 299.26,-72.32"/>
</a>
</g>
</g>
<!-- Node7 -->
<g id="Node000007" class="node">
<title>Node7</title>
<g id="a_Node000007"><a xlink:href="classCCSDS_1_1Validator.html#af6e8699c7d3d0719934106ca2d58fb95" target="_top" xlink:title="Validates a given packet.">
<polygon fill="white" stroke="#666666" points="248,-19 103,-19 103,0 248,0 248,-19"/>
<text text-anchor="middle" x="175.5" y="-7" font-family="Helvetica,sans-Serif" font-size="10.00">CCSDS::Validator::validate</text>
</a>
</g>
</g>
<!-- Node1&#45;&gt;Node7 -->
<g id="edge6_Node000001_Node000007" class="edge">
<title>Node1&#45;&gt;Node7</title>
<g id="a_edge6_Node000001_Node000007"><a xlink:title=" ">
<path fill="none" stroke="#63b8ff" d="M347.1,-63.12C326.65,-51.44 299.57,-37.39 274,-28.5 263,-24.68 251.03,-21.55 239.36,-19.02"/>
<polygon fill="#63b8ff" stroke="#63b8ff" points="345.6,-66.3 356.01,-68.29 349.12,-60.24 345.6,-66.3"/>
</a>
</g>
</g>
<!-- Node6 -->
<g id="Node000006" class="node">
<title>Node6</title>
<g id="a_Node000006"><a xlink:href="exec__encoder_8cpp.html#a638b85ceffac097c2aa79b76ba8c055e" target="_top" xlink:title=" ">
<polygon fill="white" stroke="#666666" points="41,-56 0,-56 0,-37 41,-37 41,-56"/>
<text text-anchor="middle" x="20.5" y="-44" font-family="Helvetica,sans-Serif" font-size="10.00">main</text>
</a>
</g>
</g>
<!-- Node5&#45;&gt;Node6 -->
<g id="edge5_Node000005_Node000006" class="edge">
<title>Node5&#45;&gt;Node6</title>
<g id="a_edge5_Node000005_Node000006"><a xlink:title=" ">
<path fill="none" stroke="#63b8ff" d="M66.54,-46.5C57,-46.5 48.25,-46.5 41.05,-46.5"/>
<polygon fill="#63b8ff" stroke="#63b8ff" points="66.74,-50 76.74,-46.5 66.74,-43 66.74,-50"/>
</a>
</g>
</g>
<!-- Node8 -->
<g id="Node000008" class="node">
<title>Node8</title>
<g id="a_Node000008"><a xlink:href="exec__validator_8cpp.html#a638b85ceffac097c2aa79b76ba8c055e" target="_top" xlink:title=" ">
<polygon fill="white" stroke="#666666" points="41,-19 0,-19 0,0 41,0 41,-19"/>
<text text-anchor="middle" x="20.5" y="-7" font-family="Helvetica,sans-Serif" font-size="10.00">main</text>
</a>
</g>
</g>
<!-- Node7&#45;&gt;Node8 -->
<g id="edge7_Node000007_Node000008" class="edge">
<title>Node7&#45;&gt;Node8</title>
<g id="a_edge7_Node000007_Node000008"><a xlink:title=" ">
<path fill="none" stroke="#63b8ff" d="M92.8,-9.5C73.47,-9.5 54.58,-9.5 41.1,-9.5"/>
<polygon fill="#63b8ff" stroke="#63b8ff" points="92.93,-13 102.93,-9.5 92.93,-6 92.93,-13"/>
</a>
</g>
</g>
</g>
</svg>
</svg>

<style type='text/css'>
<![CDATA[
[data-mouse-over-selected='false'] { opacity: 0.7; }
[data-mouse-over-selected='true']  { opacity: 1.0; }
]]>
</style>
<script type="application/ecmascript"><![CDATA[
document.addEventListener('DOMContentLoaded', (event) => {
  highlightEdges();
  highlightAdjacentNodes();
});
]]></script>
</svg>
