<?xml version="1.0" encoding="UTF-8" standalone="no"?>
<!DOCTYPE svg PUBLIC "-//W3C//DTD SVG 1.1//EN"
 "http://www.w3.org/Graphics/SVG/1.1/DTD/svg11.dtd">
<!-- Generated by graphviz version 2.43.0 (0)
 -->
<!-- Title: CCSDS::Packet::loadFromConfigFile Pages: 1 -->
<svg width="554pt" height="78pt"
 viewBox="0.00 0.00 554.00 78.24" xmlns="http://www.w3.org/2000/svg" xmlns:xlink="http://www.w3.org/1999/xlink">
<g id="graph0" class="graph" transform="scale(1 1) rotate(0) translate(4 74.24)">
<title>CCSDS::Packet::loadFromConfigFile</title>
<!-- Node1 -->
<g id="Node000001" class="node">
<title>Node1</title>
<g id="a_Node000001"><a xlink:title="Loads a packet from a configuration file, including secondary header if present.">
<polygon fill="#999999" stroke="#666666" points="187,-56 0,-56 0,-37 187,-37 187,-56"/>
<text text-anchor="middle" x="93.5" y="-44" font-family="Helvetica,sans-Serif" font-size="10.00">CCSDS::Packet::loadFromConfigFile</text>
</a>
</g>
</g>
<!-- Node2 -->
<g id="Node000002" class="node">
<title>Node2</title>
<g id="a_Node000002"><a xlink:href="classConfig.html#a666e6d9c5510736d8ef85564abe834dd" target="_top" xlink:title="Load config file.">
<polygon fill="white" stroke="#666666" points="297,-56 223,-56 223,-37 297,-37 297,-56"/>
<text text-anchor="middle" x="260" y="-44" font-family="Helvetica,sans-Serif" font-size="10.00">Config::load</text>
</a>
</g>
</g>
<!-- Node1&#45;&gt;Node2 -->
<g id="edge1_Node000001_Node000002" class="edge">
<title>Node1&#45;&gt;Node2</title>
<g id="a_edge1_Node000001_Node000002"><a xlink:title=" ">
<path fill="none" stroke="#63b8ff" d="M187.33,-46.5C196.04,-46.5 204.6,-46.5 212.59,-46.5"/>
<polygon fill="#63b8ff" stroke="#63b8ff" points="212.74,-50 222.74,-46.5 212.74,-43 212.74,-50"/>
</a>
</g>
</g>
<!-- Node3 -->
<g id="Node000003" class="node">
<title>Node3</title>
<g id="a_Node000003"><a xlink:href="classConfig.html#ac0eb207d3a0c9b3039000301c612aadb" target="_top" xlink:title="Get value by key and type.">
<polygon fill="white" stroke="#666666" points="546,-56 477,-56 477,-37 546,-37 546,-56"/>
<text text-anchor="middle" x="511.5" y="-44" font-family="Helvetica,sans-Serif" font-size="10.00">Config::get</text>
</a>
</g>
</g>
<!-- Node2&#45;&gt;Node3 -->
<g id="edge2_Node000002_Node000003" class="edge">
<title>Node2&#45;&gt;Node3</title>
<g id="a_edge2_Node000002_Node000003"><a xlink:title=" ">
<path fill="none" stroke="#63b8ff" d="M290.09,-56C303.06,-59.77 318.64,-63.64 333,-65.5 380.6,-71.68 393.43,-71.89 441,-65.5 451.41,-64.1 462.48,-61.58 472.64,-58.81"/>
<polygon fill="#63b8ff" stroke="#63b8ff" points="473.8,-62.12 482.45,-56 471.87,-55.39 473.8,-62.12"/>
</a>
</g>
</g>
<!-- Node4 -->
<g id="Node000004" class="node">
<title>Node4</title>
<g id="a_Node000004"><a xlink:href="classConfig.html#a0c3a6f1dbed78a72da53833b419491d9" target="_top" xlink:title="Parse string &quot;[1,2,3]&quot; into vector&lt;uint8_t&gt;">
<polygon fill="white" stroke="#666666" points="441,-56 333,-56 333,-37 441,-37 441,-56"/>
<text text-anchor="middle" x="387" y="-44" font-family="Helvetica,sans-Serif" font-size="10.00">Config::parseBytes</text>
</a>
</g>
</g>
<!-- Node2&#45;&gt;Node4 -->
<g id="edge3_Node000002_Node000004" class="edge">
<title>Node2&#45;&gt;Node4</title>
<g id="a_edge3_Node000002_Node000004"><a xlink:title=" ">
<path fill="none" stroke="#63b8ff" d="M297.16,-46.5C305.14,-46.5 313.82,-46.5 322.53,-46.5"/>
<polygon fill="#63b8ff" stroke="#63b8ff" points="322.72,-50 332.72,-46.5 322.72,-43 322.72,-50"/>
</a>
</g>
</g>
<!-- Node5 -->
<g id="Node000005" class="node">
<title>Node5</title>
<g id="a_Node000005"><a xlink:href="classConfig.html#ae9010d142dcb6a29be942eb3b1513dda" target="_top" xlink:title="Parse a single line from config.">
<polygon fill="white" stroke="#666666" points="437.5,-19 336.5,-19 336.5,0 437.5,0 437.5,-19"/>
<text text-anchor="middle" x="387" y="-7" font-family="Helvetica,sans-Serif" font-size="10.00">Config::parseLine</text>
</a>
</g>
</g>
<!-- Node2&#45;&gt;Node5 -->
<g id="edge5_Node000002_Node000005" class="edge">
<title>Node2&#45;&gt;Node5</title>
<g id="a_edge5_Node000002_Node000005"><a xlink:title=" ">
<path fill="none" stroke="#63b8ff" d="M293.19,-36.97C308.53,-32.43 327.07,-26.94 343.54,-22.07"/>
<polygon fill="#63b8ff" stroke="#63b8ff" points="344.89,-25.32 353.48,-19.12 342.9,-18.61 344.89,-25.32"/>
</a>
</g>
</g>
<!-- Node4&#45;&gt;Node3 -->
<g id="edge4_Node000004_Node000003" class="edge">
<title>Node4&#45;&gt;Node3</title>
<g id="a_edge4_Node000004_Node000003"><a xlink:title=" ">
<path fill="none" stroke="#63b8ff" d="M441.02,-46.5C449.57,-46.5 458.33,-46.5 466.63,-46.5"/>
<polygon fill="#63b8ff" stroke="#63b8ff" points="466.85,-50 476.85,-46.5 466.85,-43 466.85,-50"/>
</a>
</g>
</g>
<!-- Node5&#45;&gt;Node3 -->
<g id="edge6_Node000005_Node000003" class="edge">
<title>Node5&#45;&gt;Node3</title>
<g id="a_edge6_Node000005_Node000003"><a xlink:title=" ">
<path fill="none" stroke="#63b8ff" d="M419.55,-19.03C434.58,-23.57 452.75,-29.06 468.89,-33.93"/>
<polygon fill="#63b8ff" stroke="#63b8ff" points="468.05,-37.33 478.63,-36.88 470.07,-30.63 468.05,-37.33"/>
</a>
</g>
</g>
</g>
</svg>
