<?xml version="1.0" encoding="UTF-8" standalone="no"?>
<!DOCTYPE svg PUBLIC "-//W3C//DTD SVG 1.1//EN"
 "http://www.w3.org/Graphics/SVG/1.1/DTD/svg11.dtd">
<!-- Generated by graphviz version 2.43.0 (0)
 -->
<!-- Title: CCSDS::Manager::readTemplate Pages: 1 -->
<svg width="761pt" height="187pt"
 viewBox="0.00 0.00 761.00 187.00" xmlns="http://www.w3.org/2000/svg" xmlns:xlink="http://www.w3.org/1999/xlink">
<g id="graph0" class="graph" transform="scale(1 1) rotate(0) translate(4 183)">
<title>CCSDS::Manager::readTemplate</title>
<!-- Node1 -->
<g id="Node000001" class="node">
<title>Node1</title>
<g id="a_Node000001"><a xlink:title="Load a template packet from a binary or configuration file.">
<polygon fill="#999999" stroke="#666666" points="171,-105 0,-105 0,-86 171,-86 171,-105"/>
<text text-anchor="middle" x="85.5" y="-93" font-family="Helvetica,sans-Serif" font-size="10.00">CCSDS::Manager::readTemplate</text>
</a>
</g>
</g>
<!-- Node2 -->
<g id="Node000002" class="node">
<title>Node2</title>
<g id="a_Node000002"><a xlink:href="classCCSDS_1_1Packet.html#ac771c4d20e282fe43bc6938b30cc69ef" target="_top" xlink:title="Deserializes a vector of bytes into a CCSDS packet.">
<polygon fill="white" stroke="#666666" points="373.5,-179 227.5,-179 227.5,-160 373.5,-160 373.5,-179"/>
<text text-anchor="middle" x="300.5" y="-167" font-family="Helvetica,sans-Serif" font-size="10.00">CCSDS::Packet::deserialize</text>
</a>
</g>
</g>
<!-- Node1&#45;&gt;Node2 -->
<g id="edge1_Node000001_Node000002" class="edge">
<title>Node1&#45;&gt;Node2</title>
<g id="a_edge1_Node000001_Node000002"><a xlink:title=" ">
<path fill="none" stroke="#63b8ff" d="M103.52,-105.03C126.39,-117.45 168.6,-139.05 207,-151.5 214.14,-153.82 221.7,-155.88 229.28,-157.71"/>
<polygon fill="#63b8ff" stroke="#63b8ff" points="228.72,-161.17 239.25,-159.98 230.27,-154.34 228.72,-161.17"/>
</a>
</g>
</g>
<!-- Node3 -->
<g id="Node000003" class="node">
<title>Node3</title>
<g id="a_Node000003"><a xlink:href="classCCSDS_1_1Packet.html#a9ba3b255c1cd19b48a11dba5fc8819ff" target="_top" xlink:title="Loads a packet from a configuration file, including secondary header if present.">
<polygon fill="white" stroke="#666666" points="394,-142 207,-142 207,-123 394,-123 394,-142"/>
<text text-anchor="middle" x="300.5" y="-130" font-family="Helvetica,sans-Serif" font-size="10.00">CCSDS::Packet::loadFromConfigFile</text>
</a>
</g>
</g>
<!-- Node1&#45;&gt;Node3 -->
<g id="edge2_Node000001_Node000003" class="edge">
<title>Node1&#45;&gt;Node3</title>
<g id="a_edge2_Node000001_Node000003"><a xlink:title=" ">
<path fill="none" stroke="#63b8ff" d="M141.35,-105.03C169.81,-109.97 204.77,-116.04 234.57,-121.22"/>
<polygon fill="#63b8ff" stroke="#63b8ff" points="234.01,-124.68 244.46,-122.94 235.21,-117.78 234.01,-124.68"/>
</a>
</g>
</g>
<!-- Node8 -->
<g id="Node000008" class="node">
<title>Node8</title>
<g id="a_Node000008"><a xlink:href="CCSDSUtils_8cpp.html#a7c53ed59dcb970211aa0217eb095cc4d" target="_top" xlink:title="Read a specified binary file and return its contents as a buffer.">
<polygon fill="white" stroke="#666666" points="344,-105 257,-105 257,-86 344,-86 344,-105"/>
<text text-anchor="middle" x="300.5" y="-93" font-family="Helvetica,sans-Serif" font-size="10.00">readBinaryFile</text>
</a>
</g>
</g>
<!-- Node1&#45;&gt;Node8 -->
<g id="edge9_Node000001_Node000008" class="edge">
<title>Node1&#45;&gt;Node8</title>
<g id="a_edge9_Node000001_Node000008"><a xlink:title=" ">
<path fill="none" stroke="#63b8ff" d="M171.3,-95.5C196.75,-95.5 223.93,-95.5 246.68,-95.5"/>
<polygon fill="#63b8ff" stroke="#63b8ff" points="246.8,-99 256.8,-95.5 246.8,-92 246.8,-99"/>
</a>
</g>
</g>
<!-- Node9 -->
<g id="Node000009" class="node">
<title>Node9</title>
<g id="a_Node000009"><a xlink:href="classCCSDS_1_1Packet.html#a29f623c1b7b29e37a2a71c556169b1c1" target="_top" xlink:title="needs to be called as soon as possible, probably also from constructor.">
<polygon fill="white" stroke="#666666" points="372,-67.5 229,-67.5 229,-37.5 372,-37.5 372,-67.5"/>
<text text-anchor="start" x="237" y="-55.5" font-family="Helvetica,sans-Serif" font-size="10.00">CCSDS::Packet::setUpdate</text>
<text text-anchor="middle" x="300.5" y="-44.5" font-family="Helvetica,sans-Serif" font-size="10.00">PacketEnable</text>
</a>
</g>
</g>
<!-- Node1&#45;&gt;Node9 -->
<g id="edge10_Node000001_Node000009" class="edge">
<title>Node1&#45;&gt;Node9</title>
<g id="a_edge10_Node000001_Node000009"><a xlink:title=" ">
<path fill="none" stroke="#63b8ff" d="M133.77,-85.96C158.77,-80.91 190.15,-74.58 218.86,-68.78"/>
<polygon fill="#63b8ff" stroke="#63b8ff" points="219.78,-72.16 228.89,-66.75 218.39,-65.3 219.78,-72.16"/>
</a>
</g>
</g>
<!-- Node10 -->
<g id="Node000010" class="node">
<title>Node10</title>
<g id="a_Node000010"><a xlink:href="CCSDSUtils_8cpp.html#a3b974227bd1064e006f517e8423a0545" target="_top" xlink:title="Tests if str ends with suffix.">
<polygon fill="white" stroke="#666666" points="345.5,-19 255.5,-19 255.5,0 345.5,0 345.5,-19"/>
<text text-anchor="middle" x="300.5" y="-7" font-family="Helvetica,sans-Serif" font-size="10.00">stringEndsWith</text>
</a>
</g>
</g>
<!-- Node1&#45;&gt;Node10 -->
<g id="edge11_Node000001_Node000010" class="edge">
<title>Node1&#45;&gt;Node10</title>
<g id="a_edge11_Node000001_Node000010"><a xlink:title=" ">
<path fill="none" stroke="#63b8ff" d="M100.29,-85.98C122,-71.42 165.93,-43.73 207,-28.5 219.13,-24 232.57,-20.47 245.36,-17.74"/>
<polygon fill="#63b8ff" stroke="#63b8ff" points="246.32,-21.12 255.44,-15.72 244.95,-14.25 246.32,-21.12"/>
</a>
</g>
</g>
<!-- Node4 -->
<g id="Node000004" class="node">
<title>Node4</title>
<g id="a_Node000004"><a xlink:href="classConfig.html#a666e6d9c5510736d8ef85564abe834dd" target="_top" xlink:title="Load config file.">
<polygon fill="white" stroke="#666666" points="504,-142 430,-142 430,-123 504,-123 504,-142"/>
<text text-anchor="middle" x="467" y="-130" font-family="Helvetica,sans-Serif" font-size="10.00">Config::load</text>
</a>
</g>
</g>
<!-- Node3&#45;&gt;Node4 -->
<g id="edge3_Node000003_Node000004" class="edge">
<title>Node3&#45;&gt;Node4</title>
<g id="a_edge3_Node000003_Node000004"><a xlink:title=" ">
<path fill="none" stroke="#63b8ff" d="M394.33,-132.5C403.04,-132.5 411.6,-132.5 419.59,-132.5"/>
<polygon fill="#63b8ff" stroke="#63b8ff" points="419.74,-136 429.74,-132.5 419.74,-129 419.74,-136"/>
</a>
</g>
</g>
<!-- Node5 -->
<g id="Node000005" class="node">
<title>Node5</title>
<g id="a_Node000005"><a xlink:href="classConfig.html#ac0eb207d3a0c9b3039000301c612aadb" target="_top" xlink:title="Get value by key and type.">
<polygon fill="white" stroke="#666666" points="753,-142 684,-142 684,-123 753,-123 753,-142"/>
<text text-anchor="middle" x="718.5" y="-130" font-family="Helvetica,sans-Serif" font-size="10.00">Config::get</text>
</a>
</g>
</g>
<!-- Node4&#45;&gt;Node5 -->
<g id="edge4_Node000004_Node000005" class="edge">
<title>Node4&#45;&gt;Node5</title>
<g id="a_edge4_Node000004_Node000005"><a xlink:title=" ">
<path fill="none" stroke="#63b8ff" d="M497.09,-142C510.06,-145.77 525.64,-149.64 540,-151.5 587.6,-157.68 600.43,-157.89 648,-151.5 658.41,-150.1 669.48,-147.58 679.64,-144.81"/>
<polygon fill="#63b8ff" stroke="#63b8ff" points="680.8,-148.12 689.45,-142 678.87,-141.39 680.8,-148.12"/>
</a>
</g>
</g>
<!-- Node6 -->
<g id="Node000006" class="node">
<title>Node6</title>
<g id="a_Node000006"><a xlink:href="classConfig.html#a0c3a6f1dbed78a72da53833b419491d9" target="_top" xlink:title="Parse string &quot;[1,2,3]&quot; into vector&lt;uint8_t&gt;">
<polygon fill="white" stroke="#666666" points="648,-142 540,-142 540,-123 648,-123 648,-142"/>
<text text-anchor="middle" x="594" y="-130" font-family="Helvetica,sans-Serif" font-size="10.00">Config::parseBytes</text>
</a>
</g>
</g>
<!-- Node4&#45;&gt;Node6 -->
<g id="edge5_Node000004_Node000006" class="edge">
<title>Node4&#45;&gt;Node6</title>
<g id="a_edge5_Node000004_Node000006"><a xlink:title=" ">
<path fill="none" stroke="#63b8ff" d="M504.16,-132.5C512.14,-132.5 520.82,-132.5 529.53,-132.5"/>
<polygon fill="#63b8ff" stroke="#63b8ff" points="529.72,-136 539.72,-132.5 529.72,-129 529.72,-136"/>
</a>
</g>
</g>
<!-- Node7 -->
<g id="Node000007" class="node">
<title>Node7</title>
<g id="a_Node000007"><a xlink:href="classConfig.html#ae9010d142dcb6a29be942eb3b1513dda" target="_top" xlink:title="Parse a single line from config.">
<polygon fill="white" stroke="#666666" points="644.5,-105 543.5,-105 543.5,-86 644.5,-86 644.5,-105"/>
<text text-anchor="middle" x="594" y="-93" font-family="Helvetica,sans-Serif" font-size="10.00">Config::parseLine</text>
</a>
</g>
</g>
<!-- Node4&#45;&gt;Node7 -->
<g id="edge7_Node000004_Node000007" class="edge">
<title>Node4&#45;&gt;Node7</title>
<g id="a_edge7_Node000004_Node000007"><a xlink:title=" ">
<path fill="none" stroke="#63b8ff" d="M500.19,-122.97C515.53,-118.43 534.07,-112.94 550.54,-108.07"/>
<polygon fill="#63b8ff" stroke="#63b8ff" points="551.89,-111.32 560.48,-105.12 549.9,-104.61 551.89,-111.32"/>
</a>
</g>
</g>
<!-- Node6&#45;&gt;Node5 -->
<g id="edge6_Node000006_Node000005" class="edge">
<title>Node6&#45;&gt;Node5</title>
<g id="a_edge6_Node000006_Node000005"><a xlink:title=" ">
<path fill="none" stroke="#63b8ff" d="M648.02,-132.5C656.57,-132.5 665.33,-132.5 673.63,-132.5"/>
<polygon fill="#63b8ff" stroke="#63b8ff" points="673.85,-136 683.85,-132.5 673.85,-129 673.85,-136"/>
</a>
</g>
</g>
<!-- Node7&#45;&gt;Node5 -->
<g id="edge8_Node000007_Node000005" class="edge">
<title>Node7&#45;&gt;Node5</title>
<g id="a_edge8_Node000007_Node000005"><a xlink:title=" ">
<path fill="none" stroke="#63b8ff" d="M626.55,-105.03C641.58,-109.57 659.75,-115.06 675.89,-119.93"/>
<polygon fill="#63b8ff" stroke="#63b8ff" points="675.05,-123.33 685.63,-122.88 677.07,-116.63 675.05,-123.33"/>
</a>
</g>
</g>
</g>
</svg>
