<?xml version="1.0" encoding="UTF-8" standalone="no"?>
<!DOCTYPE svg PUBLIC "-//W3C//DTD SVG 1.1//EN"
 "http://www.w3.org/Graphics/SVG/1.1/DTD/svg11.dtd">
<!-- Generated by graphviz version 2.43.0 (0)
 -->
<!-- Title: src/exec_validator.cpp Pages: 1 -->
<svg width="1254pt" height="687pt"
 viewBox="0.00 0.00 1253.50 687.00" xmlns="http://www.w3.org/2000/svg" xmlns:xlink="http://www.w3.org/1999/xlink">
<g id="graph0" class="graph" transform="scale(1 1) rotate(0) translate(4 683)">
<title>src/exec_validator.cpp</title>
<!-- Node1 -->
<g id="Node000001" class="node">
<title>Node1</title>
<g id="a_Node000001"><a xlink:title=" ">
<polygon fill="#999999" stroke="#666666" points="702.5,-679 577.5,-679 577.5,-660 702.5,-660 702.5,-679"/>
<text text-anchor="middle" x="640" y="-667" font-family="Helvetica,sans-Serif" font-size="10.00">src/exec_validator.cpp</text>
</a>
</g>
</g>
<!-- Node2 -->
<g id="Node000002" class="node">
<title>Node2</title>
<g id="a_Node000002"><a xlink:title=" ">
<polygon fill="#e0e0e0" stroke="#999999" points="1090.5,-19 997.5,-19 997.5,0 1090.5,0 1090.5,-19"/>
<text text-anchor="middle" x="1044" y="-7" font-family="Helvetica,sans-Serif" font-size="10.00">unordered_map</text>
</a>
</g>
</g>
<!-- Node1&#45;&gt;Node2 -->
<g id="edge1_Node000001_Node000002" class="edge">
<title>Node1&#45;&gt;Node2</title>
<g id="a_edge1_Node000001_Node000002"><a xlink:title=" ">
<path fill="none" stroke="#63b8ff" d="M702.54,-665.91C794.7,-661.28 961.93,-649.58 1016,-624 1052.79,-606.59 1082,-601.21 1082,-560.5 1082,-560.5 1082,-560.5 1082,-118.5 1082,-85.02 1065.55,-48.84 1054.3,-28.01"/>
<polygon fill="#63b8ff" stroke="#63b8ff" points="1057.24,-26.1 1049.28,-19.1 1051.13,-29.53 1057.24,-26.1"/>
</a>
</g>
</g>
<!-- Node3 -->
<g id="Node000003" class="node">
<title>Node3</title>
<g id="a_Node000003"><a xlink:title=" ">
<polygon fill="#e0e0e0" stroke="#999999" points="193,-74 149,-74 149,-55 193,-55 193,-74"/>
<text text-anchor="middle" x="171" y="-62" font-family="Helvetica,sans-Serif" font-size="10.00">string</text>
</a>
</g>
</g>
<!-- Node1&#45;&gt;Node3 -->
<g id="edge2_Node000001_Node000003" class="edge">
<title>Node1&#45;&gt;Node3</title>
<g id="a_edge2_Node000001_Node000003"><a xlink:title=" ">
<path fill="none" stroke="#63b8ff" d="M577.34,-668.66C437.86,-667.32 114,-654.13 114,-560.5 114,-560.5 114,-560.5 114,-173.5 114,-137.51 139.06,-101.76 155.95,-81.76"/>
<polygon fill="#63b8ff" stroke="#63b8ff" points="158.62,-84.02 162.59,-74.2 153.36,-79.4 158.62,-84.02"/>
</a>
</g>
</g>
<!-- Node4 -->
<g id="Node000004" class="node">
<title>Node4</title>
<g id="a_Node000004"><a xlink:title=" ">
<polygon fill="#e0e0e0" stroke="#999999" points="579.5,-19 532.5,-19 532.5,0 579.5,0 579.5,-19"/>
<text text-anchor="middle" x="556" y="-7" font-family="Helvetica,sans-Serif" font-size="10.00">vector</text>
</a>
</g>
</g>
<!-- Node1&#45;&gt;Node4 -->
<g id="edge3_Node000001_Node000004" class="edge">
<title>Node1&#45;&gt;Node4</title>
<g id="a_edge3_Node000001_Node000004"><a xlink:title=" ">
<path fill="none" stroke="#63b8ff" d="M577.26,-666.23C462.99,-661.53 225.5,-649.04 147,-624 93.59,-606.96 38,-616.57 38,-560.5 38,-560.5 38,-560.5 38,-118.5 38,-79.67 63.13,-72.07 98,-55 172.8,-18.38 429.55,-11.89 522.27,-10.75"/>
<polygon fill="#63b8ff" stroke="#63b8ff" points="522.53,-14.24 532.49,-10.63 522.45,-7.24 522.53,-14.24"/>
</a>
</g>
</g>
<!-- Node5 -->
<g id="Node000005" class="node">
<title>Node5</title>
<g id="a_Node000005"><a xlink:title=" ">
<polygon fill="#e0e0e0" stroke="#999999" points="289,-19 229,-19 229,0 289,0 289,-19"/>
<text text-anchor="middle" x="259" y="-7" font-family="Helvetica,sans-Serif" font-size="10.00">iostream</text>
</a>
</g>
</g>
<!-- Node1&#45;&gt;Node5 -->
<g id="edge4_Node000001_Node000005" class="edge">
<title>Node1&#45;&gt;Node5</title>
<g id="a_edge4_Node000001_Node000005"><a xlink:title=" ">
<path fill="none" stroke="#63b8ff" d="M577.13,-669.05C447.24,-669.32 153.94,-665.17 64,-624 27.57,-607.32 0,-600.57 0,-560.5 0,-560.5 0,-560.5 0,-118.5 0,-24.93 145.77,-10.97 218.59,-9.84"/>
<polygon fill="#63b8ff" stroke="#63b8ff" points="218.81,-13.33 228.78,-9.75 218.75,-6.33 218.81,-13.33"/>
</a>
</g>
</g>
<!-- Node6 -->
<g id="Node000006" class="node">
<title>Node6</title>
<g id="a_Node000006"><a xlink:title=" ">
<polygon fill="#e0e0e0" stroke="#999999" points="630,-624 580,-624 580,-605 630,-605 630,-624"/>
<text text-anchor="middle" x="605" y="-612" font-family="Helvetica,sans-Serif" font-size="10.00">chrono</text>
</a>
</g>
</g>
<!-- Node1&#45;&gt;Node6 -->
<g id="edge5_Node000001_Node000006" class="edge">
<title>Node1&#45;&gt;Node6</title>
<g id="a_edge5_Node000001_Node000006"><a xlink:title=" ">
<path fill="none" stroke="#63b8ff" d="M634.22,-659.75C629.38,-652.42 622.32,-641.73 616.36,-632.7"/>
<polygon fill="#63b8ff" stroke="#63b8ff" points="619.1,-630.5 610.67,-624.09 613.26,-634.36 619.1,-630.5"/>
</a>
</g>
</g>
<!-- Node7 -->
<g id="Node000007" class="node">
<title>Node7</title>
<g id="a_Node000007"><a xlink:title=" ">
<polygon fill="#e0e0e0" stroke="#999999" points="703.5,-624 648.5,-624 648.5,-605 703.5,-605 703.5,-624"/>
<text text-anchor="middle" x="676" y="-612" font-family="Helvetica,sans-Serif" font-size="10.00">fstream</text>
</a>
</g>
</g>
<!-- Node1&#45;&gt;Node7 -->
<g id="edge6_Node000001_Node000007" class="edge">
<title>Node1&#45;&gt;Node7</title>
<g id="a_edge6_Node000001_Node000007"><a xlink:title=" ">
<path fill="none" stroke="#63b8ff" d="M645.94,-659.75C650.98,-652.34 658.34,-641.5 664.51,-632.41"/>
<polygon fill="#63b8ff" stroke="#63b8ff" points="667.44,-634.33 670.17,-624.09 661.65,-630.39 667.44,-634.33"/>
</a>
</g>
</g>
<!-- Node8 -->
<g id="Node000008" class="node">
<title>Node8</title>
<g id="a_Node000008"><a xlink:title=" ">
<polygon fill="#e0e0e0" stroke="#999999" points="778,-624 722,-624 722,-605 778,-605 778,-624"/>
<text text-anchor="middle" x="750" y="-612" font-family="Helvetica,sans-Serif" font-size="10.00">sstream</text>
</a>
</g>
</g>
<!-- Node1&#45;&gt;Node8 -->
<g id="edge7_Node000001_Node000008" class="edge">
<title>Node1&#45;&gt;Node8</title>
<g id="a_edge7_Node000001_Node000008"><a xlink:title=" ">
<path fill="none" stroke="#63b8ff" d="M657.67,-659.98C675.29,-651.5 702.58,-638.35 722.93,-628.54"/>
<polygon fill="#63b8ff" stroke="#63b8ff" points="724.52,-631.66 732.01,-624.17 721.48,-625.36 724.52,-631.66"/>
</a>
</g>
</g>
<!-- Node9 -->
<g id="Node000009" class="node">
<title>Node9</title>
<g id="a_Node000009"><a xlink:href="CCSDSPack_8h.html" target="_top" xlink:title=" ">
<polygon fill="white" stroke="#666666" points="561.5,-624 480.5,-624 480.5,-605 561.5,-605 561.5,-624"/>
<text text-anchor="middle" x="521" y="-612" font-family="Helvetica,sans-Serif" font-size="10.00">CCSDSPack.h</text>
</a>
</g>
</g>
<!-- Node1&#45;&gt;Node9 -->
<g id="edge8_Node000001_Node000009" class="edge">
<title>Node1&#45;&gt;Node9</title>
<g id="a_edge8_Node000001_Node000009"><a xlink:title=" ">
<path fill="none" stroke="#63b8ff" d="M620.88,-659.98C601.65,-651.42 571.77,-638.11 549.69,-628.28"/>
<polygon fill="#63b8ff" stroke="#63b8ff" points="551.03,-625.04 540.47,-624.17 548.18,-631.44 551.03,-625.04"/>
</a>
</g>
</g>
<!-- Node26 -->
<g id="Node000026" class="node">
<title>Node26</title>
<g id="a_Node000026"><a xlink:href="exec__utils_8h.html" target="_top" xlink:title=" ">
<polygon fill="white" stroke="#666666" points="1007,-624 933,-624 933,-605 1007,-605 1007,-624"/>
<text text-anchor="middle" x="970" y="-612" font-family="Helvetica,sans-Serif" font-size="10.00">exec_utils.h</text>
</a>
</g>
</g>
<!-- Node1&#45;&gt;Node26 -->
<g id="edge63_Node000001_Node000026" class="edge">
<title>Node1&#45;&gt;Node26</title>
<g id="a_edge63_Node000001_Node000026"><a xlink:title=" ">
<path fill="none" stroke="#63b8ff" d="M693.02,-659.98C756.57,-649.78 862.09,-632.83 922.9,-623.07"/>
<polygon fill="#63b8ff" stroke="#63b8ff" points="923.66,-626.49 932.98,-621.45 922.55,-619.58 923.66,-626.49"/>
</a>
</g>
</g>
<!-- Node28 -->
<g id="Node000028" class="node">
<title>Node28</title>
<g id="a_Node000028"><a xlink:title=" ">
<polygon fill="#e0e0e0" stroke="#999999" points="1245.5,-624 1110.5,-624 1110.5,-605 1245.5,-605 1245.5,-624"/>
<text text-anchor="middle" x="1178" y="-612" font-family="Helvetica,sans-Serif" font-size="10.00">../test/inc/TestManager.h</text>
</a>
</g>
</g>
<!-- Node1&#45;&gt;Node28 -->
<g id="edge66_Node000001_Node000028" class="edge">
<title>Node1&#45;&gt;Node28</title>
<g id="a_edge66_Node000001_Node000028"><a xlink:title=" ">
<path fill="none" stroke="#63b8ff" d="M702.71,-662.5C790.63,-654.06 955.52,-638.14 1096,-624 1097.47,-623.85 1098.95,-623.7 1100.45,-623.55"/>
<polygon fill="#63b8ff" stroke="#63b8ff" points="1100.84,-627.03 1110.43,-622.54 1100.13,-620.07 1100.84,-627.03"/>
</a>
</g>
</g>
<!-- Node10 -->
<g id="Node000010" class="node">
<title>Node10</title>
<g id="a_Node000010"><a xlink:href="CCSDSDataField_8h.html" target="_top" xlink:title=" ">
<polygon fill="white" stroke="#666666" points="632.5,-349 527.5,-349 527.5,-330 632.5,-330 632.5,-349"/>
<text text-anchor="middle" x="580" y="-337" font-family="Helvetica,sans-Serif" font-size="10.00">CCSDSDataField.h</text>
</a>
</g>
</g>
<!-- Node9&#45;&gt;Node10 -->
<g id="edge9_Node000009_Node000010" class="edge">
<title>Node9&#45;&gt;Node10</title>
<g id="a_edge9_Node000009_Node000010"><a xlink:title=" ">
<path fill="none" stroke="#63b8ff" d="M480.26,-610.06C437.29,-604.33 377.63,-589.26 392,-550 424.87,-460.22 517.3,-385.3 559.06,-354.97"/>
<polygon fill="#63b8ff" stroke="#63b8ff" points="561.28,-357.69 567.39,-349.03 557.22,-351.99 561.28,-357.69"/>
</a>
</g>
</g>
<!-- Node11 -->
<g id="Node000011" class="node">
<title>Node11</title>
<g id="a_Node000011"><a xlink:href="CCSDSResult_8h.html" target="_top" xlink:title=" ">
<polygon fill="white" stroke="#666666" points="821.5,-74 732.5,-74 732.5,-55 821.5,-55 821.5,-74"/>
<text text-anchor="middle" x="777" y="-62" font-family="Helvetica,sans-Serif" font-size="10.00">CCSDSResult.h</text>
</a>
</g>
</g>
<!-- Node9&#45;&gt;Node11 -->
<g id="edge53_Node000009_Node000011" class="edge">
<title>Node9&#45;&gt;Node11</title>
<g id="a_edge53_Node000009_Node000011"><a xlink:title=" ">
<path fill="none" stroke="#63b8ff" d="M561.63,-606.06C658.3,-587.81 894,-539.8 894,-505.5 894,-505.5 894,-505.5 894,-228.5 894,-163.27 831.39,-106.25 797.77,-80.33"/>
<polygon fill="#63b8ff" stroke="#63b8ff" points="799.62,-77.35 789.52,-74.15 795.42,-82.95 799.62,-77.35"/>
</a>
</g>
</g>
<!-- Node15 -->
<g id="Node000015" class="node">
<title>Node15</title>
<g id="a_Node000015"><a xlink:href="CCSDSSecondaryHeaderAbstract_8h.html" target="_top" xlink:title=" ">
<polygon fill="white" stroke="#666666" points="440.5,-184 255.5,-184 255.5,-165 440.5,-165 440.5,-184"/>
<text text-anchor="middle" x="348" y="-172" font-family="Helvetica,sans-Serif" font-size="10.00">CCSDSSecondaryHeaderAbstract.h</text>
</a>
</g>
</g>
<!-- Node9&#45;&gt;Node15 -->
<g id="edge54_Node000009_Node000015" class="edge">
<title>Node9&#45;&gt;Node15</title>
<g id="a_edge54_Node000009_Node000015"><a xlink:title=" ">
<path fill="none" stroke="#63b8ff" d="M480.31,-611.11C435.23,-607.14 361.33,-596.64 304,-569 264.35,-549.89 228,-549.52 228,-505.5 228,-505.5 228,-505.5 228,-283.5 228,-236.36 279.8,-204.54 315.33,-188.26"/>
<polygon fill="#63b8ff" stroke="#63b8ff" points="317.11,-191.31 324.86,-184.09 314.3,-184.89 317.11,-191.31"/>
</a>
</g>
</g>
<!-- Node17 -->
<g id="Node000017" class="node">
<title>Node17</title>
<g id="a_Node000017"><a xlink:href="CCSDSSecondaryHeaderFactory_8h.html" target="_top" xlink:title=" ">
<polygon fill="white" stroke="#666666" points="561.5,-239 382.5,-239 382.5,-220 561.5,-220 561.5,-239"/>
<text text-anchor="middle" x="472" y="-227" font-family="Helvetica,sans-Serif" font-size="10.00">CCSDSSecondaryHeaderFactory.h</text>
</a>
</g>
</g>
<!-- Node9&#45;&gt;Node17 -->
<g id="edge55_Node000009_Node000017" class="edge">
<title>Node9&#45;&gt;Node17</title>
<g id="a_edge55_Node000009_Node000017"><a xlink:title=" ">
<path fill="none" stroke="#63b8ff" d="M492.04,-604.99C472.81,-598.04 448.21,-586.48 432,-569 411.26,-546.64 406,-536 406,-505.5 406,-505.5 406,-505.5 406,-338.5 406,-301.23 434.98,-265.93 454.53,-246.36"/>
<polygon fill="#63b8ff" stroke="#63b8ff" points="457.19,-248.65 461.98,-239.2 452.34,-243.61 457.19,-248.65"/>
</a>
</g>
</g>
<!-- Node19 -->
<g id="Node000019" class="node">
<title>Node19</title>
<g id="a_Node000019"><a xlink:href="PusServices_8h.html" target="_top" xlink:title=" ">
<polygon fill="white" stroke="#666666" points="340,-294 256,-294 256,-275 340,-275 340,-294"/>
<text text-anchor="middle" x="298" y="-282" font-family="Helvetica,sans-Serif" font-size="10.00">PusServices.h</text>
</a>
</g>
</g>
<!-- Node9&#45;&gt;Node19 -->
<g id="edge62_Node000009_Node000019" class="edge">
<title>Node9&#45;&gt;Node19</title>
<g id="a_edge62_Node000009_Node000019"><a xlink:title=" ">
<path fill="none" stroke="#63b8ff" d="M480.32,-612.12C414.52,-607.49 292,-587.81 292,-505.5 292,-505.5 292,-505.5 292,-393.5 292,-362.14 294.55,-325.74 296.33,-304.22"/>
<polygon fill="#63b8ff" stroke="#63b8ff" points="299.82,-304.43 297.19,-294.17 292.85,-303.83 299.82,-304.43"/>
</a>
</g>
</g>
<!-- Node20 -->
<g id="Node000020" class="node">
<title>Node20</title>
<g id="a_Node000020"><a xlink:href="CCSDSHeader_8h.html" target="_top" xlink:title=" ">
<polygon fill="white" stroke="#666666" points="1015.5,-129 922.5,-129 922.5,-110 1015.5,-110 1015.5,-129"/>
<text text-anchor="middle" x="969" y="-117" font-family="Helvetica,sans-Serif" font-size="10.00">CCSDSHeader.h</text>
</a>
</g>
</g>
<!-- Node9&#45;&gt;Node20 -->
<g id="edge38_Node000009_Node000020" class="edge">
<title>Node9&#45;&gt;Node20</title>
<g id="a_edge38_Node000009_Node000020"><a xlink:title=" ">
<path fill="none" stroke="#63b8ff" d="M561.63,-606.38C564.79,-605.89 567.95,-605.42 571,-605 645.61,-594.68 848.41,-615.05 908,-569 931.87,-550.55 932,-535.67 932,-505.5 932,-505.5 932,-505.5 932,-283.5 932,-269.07 954.32,-178.72 964.29,-139.09"/>
<polygon fill="#63b8ff" stroke="#63b8ff" points="967.74,-139.72 966.8,-129.16 960.96,-138 967.74,-139.72"/>
</a>
</g>
</g>
<!-- Node21 -->
<g id="Node000021" class="node">
<title>Node21</title>
<g id="a_Node000021"><a xlink:href="CCSDSManager_8h.html" target="_top" xlink:title=" ">
<polygon fill="white" stroke="#666666" points="626.5,-514 525.5,-514 525.5,-495 626.5,-495 626.5,-514"/>
<text text-anchor="middle" x="576" y="-502" font-family="Helvetica,sans-Serif" font-size="10.00">CCSDSManager.h</text>
</a>
</g>
</g>
<!-- Node9&#45;&gt;Node21 -->
<g id="edge42_Node000009_Node000021" class="edge">
<title>Node9&#45;&gt;Node21</title>
<g id="a_edge42_Node000009_Node000021"><a xlink:title=" ">
<path fill="none" stroke="#63b8ff" d="M525.5,-604.66C534.53,-586.93 555,-546.73 566.93,-523.32"/>
<polygon fill="#63b8ff" stroke="#63b8ff" points="570.17,-524.66 571.59,-514.16 563.93,-521.48 570.17,-524.66"/>
</a>
</g>
</g>
<!-- Node23 -->
<g id="Node000023" class="node">
<title>Node23</title>
<g id="a_Node000023"><a xlink:href="CCSDSPacket_8h.html" target="_top" xlink:title=" ">
<polygon fill="white" stroke="#666666" points="748,-404 658,-404 658,-385 748,-385 748,-404"/>
<text text-anchor="middle" x="703" y="-392" font-family="Helvetica,sans-Serif" font-size="10.00">CCSDSPacket.h</text>
</a>
</g>
</g>
<!-- Node9&#45;&gt;Node23 -->
<g id="edge52_Node000009_Node000023" class="edge">
<title>Node9&#45;&gt;Node23</title>
<g id="a_edge52_Node000009_Node000023"><a xlink:title=" ">
<path fill="none" stroke="#63b8ff" d="M543.68,-604.94C588.72,-586.47 688.02,-538.05 722,-459 728.45,-444 721.92,-426.13 714.81,-413.17"/>
<polygon fill="#63b8ff" stroke="#63b8ff" points="717.64,-411.09 709.47,-404.35 711.65,-414.72 717.64,-411.09"/>
</a>
</g>
</g>
<!-- Node24 -->
<g id="Node000024" class="node">
<title>Node24</title>
<g id="a_Node000024"><a xlink:href="CCSDSValidator_8h.html" target="_top" xlink:title="Defines the Validator class for CCSDS packet validation.">
<polygon fill="white" stroke="#666666" points="713.5,-459 612.5,-459 612.5,-440 713.5,-440 713.5,-459"/>
<text text-anchor="middle" x="663" y="-447" font-family="Helvetica,sans-Serif" font-size="10.00">CCSDSValidator.h</text>
</a>
</g>
</g>
<!-- Node9&#45;&gt;Node24 -->
<g id="edge61_Node000009_Node000024" class="edge">
<title>Node9&#45;&gt;Node24</title>
<g id="a_edge61_Node000009_Node000024"><a xlink:title=" ">
<path fill="none" stroke="#63b8ff" d="M534.29,-604.84C557.46,-589.17 605.58,-553.99 635,-514 645.14,-500.22 652.65,-482.18 657.32,-468.85"/>
<polygon fill="#63b8ff" stroke="#63b8ff" points="660.65,-469.94 660.46,-459.35 654,-467.75 660.65,-469.94"/>
</a>
</g>
</g>
<!-- Node25 -->
<g id="Node000025" class="node">
<title>Node25</title>
<g id="a_Node000025"><a xlink:href="CCSDSUtils_8h.html" target="_top" xlink:title=" ">
<polygon fill="white" stroke="#666666" points="522.5,-569 441.5,-569 441.5,-550 522.5,-550 522.5,-569"/>
<text text-anchor="middle" x="482" y="-557" font-family="Helvetica,sans-Serif" font-size="10.00">CCSDSUtils.h</text>
</a>
</g>
</g>
<!-- Node9&#45;&gt;Node25 -->
<g id="edge56_Node000009_Node000025" class="edge">
<title>Node9&#45;&gt;Node25</title>
<g id="a_edge56_Node000009_Node000025"><a xlink:title=" ">
<path fill="none" stroke="#63b8ff" d="M514.56,-604.75C509.11,-597.34 501.14,-586.5 494.44,-577.41"/>
<polygon fill="#63b8ff" stroke="#63b8ff" points="497.07,-575.07 488.32,-569.09 491.43,-579.22 497.07,-575.07"/>
</a>
</g>
</g>
<!-- Node10&#45;&gt;Node4 -->
<g id="edge16_Node000010_Node000004" class="edge">
<title>Node10&#45;&gt;Node4</title>
<g id="a_edge16_Node000010_Node000004"><a xlink:title=" ">
<path fill="none" stroke="#63b8ff" d="M583.49,-329.83C593.28,-304.48 619.55,-228.26 609,-165 600.48,-113.91 577.13,-57.07 564.46,-28.69"/>
<polygon fill="#63b8ff" stroke="#63b8ff" points="567.5,-26.94 560.18,-19.28 561.13,-29.84 567.5,-26.94"/>
</a>
</g>
</g>
<!-- Node10&#45;&gt;Node11 -->
<g id="edge10_Node000010_Node000011" class="edge">
<title>Node10&#45;&gt;Node11</title>
<g id="a_edge10_Node000010_Node000011"><a xlink:title=" ">
<path fill="none" stroke="#63b8ff" d="M615.28,-329.88C636.38,-323.16 662.42,-311.89 680,-294 711.25,-262.21 755.34,-132.57 771.11,-83.99"/>
<polygon fill="#63b8ff" stroke="#63b8ff" points="774.53,-84.79 774.26,-74.2 767.86,-82.65 774.53,-84.79"/>
</a>
</g>
</g>
<!-- Node14 -->
<g id="Node000014" class="node">
<title>Node14</title>
<g id="a_Node000014"><a xlink:title=" ">
<polygon fill="#e0e0e0" stroke="#999999" points="600,-184 542,-184 542,-165 600,-165 600,-184"/>
<text text-anchor="middle" x="571" y="-172" font-family="Helvetica,sans-Serif" font-size="10.00">memory</text>
</a>
</g>
</g>
<!-- Node10&#45;&gt;Node14 -->
<g id="edge17_Node000010_Node000014" class="edge">
<title>Node10&#45;&gt;Node14</title>
<g id="a_edge17_Node000010_Node000014"><a xlink:title=" ">
<path fill="none" stroke="#63b8ff" d="M579.52,-329.74C578.11,-304.31 574.01,-230.08 572.06,-194.69"/>
<polygon fill="#63b8ff" stroke="#63b8ff" points="575.53,-194.1 571.49,-184.31 568.54,-194.48 575.53,-194.1"/>
</a>
</g>
</g>
<!-- Node10&#45;&gt;Node15 -->
<g id="edge18_Node000010_Node000015" class="edge">
<title>Node10&#45;&gt;Node15</title>
<g id="a_edge18_Node000010_Node000015"><a xlink:title=" ">
<path fill="none" stroke="#63b8ff" d="M544.04,-329.95C498.44,-317.36 420.1,-289.67 373,-239 361.42,-226.54 354.96,-208.07 351.53,-194.26"/>
<polygon fill="#63b8ff" stroke="#63b8ff" points="354.92,-193.42 349.38,-184.39 348.08,-194.91 354.92,-193.42"/>
</a>
</g>
</g>
<!-- Node10&#45;&gt;Node17 -->
<g id="edge27_Node000010_Node000017" class="edge">
<title>Node10&#45;&gt;Node17</title>
<g id="a_edge27_Node000010_Node000017"><a xlink:title=" ">
<path fill="none" stroke="#63b8ff" d="M571.16,-329.66C552.96,-311.46 511.05,-269.55 487.97,-246.47"/>
<polygon fill="#63b8ff" stroke="#63b8ff" points="490.2,-243.75 480.66,-239.16 485.25,-248.7 490.2,-243.75"/>
</a>
</g>
</g>
<!-- Node10&#45;&gt;Node19 -->
<g id="edge33_Node000010_Node000019" class="edge">
<title>Node10&#45;&gt;Node19</title>
<g id="a_edge33_Node000010_Node000019"><a xlink:title=" ">
<path fill="none" stroke="#63b8ff" d="M534.69,-329.98C484.38,-320.53 403.28,-305.29 350.3,-295.33"/>
<polygon fill="#63b8ff" stroke="#63b8ff" points="350.9,-291.88 340.43,-293.47 349.61,-298.76 350.9,-291.88"/>
</a>
</g>
</g>
<!-- Node11&#45;&gt;Node2 -->
<g id="edge11_Node000011_Node000002" class="edge">
<title>Node11&#45;&gt;Node2</title>
<g id="a_edge11_Node000011_Node000002"><a xlink:title=" ">
<path fill="none" stroke="#63b8ff" d="M819.9,-54.98C866.37,-45.76 940.59,-31.03 990.76,-21.07"/>
<polygon fill="#63b8ff" stroke="#63b8ff" points="991.64,-24.46 1000.77,-19.08 990.28,-17.6 991.64,-24.46"/>
</a>
</g>
</g>
<!-- Node11&#45;&gt;Node4 -->
<g id="edge13_Node000011_Node000004" class="edge">
<title>Node11&#45;&gt;Node4</title>
<g id="a_edge13_Node000011_Node000004"><a xlink:title=" ">
<path fill="none" stroke="#63b8ff" d="M741.49,-54.98C699.54,-44.92 630.27,-28.31 589.3,-18.49"/>
<polygon fill="#63b8ff" stroke="#63b8ff" points="590.07,-15.07 579.53,-16.14 588.44,-21.88 590.07,-15.07"/>
</a>
</g>
</g>
<!-- Node11&#45;&gt;Node5 -->
<g id="edge15_Node000011_Node000005" class="edge">
<title>Node11&#45;&gt;Node5</title>
<g id="a_edge15_Node000011_Node000005"><a xlink:title=" ">
<path fill="none" stroke="#63b8ff" d="M732.39,-58.94C632.92,-48.76 394.28,-24.34 299.15,-14.61"/>
<polygon fill="#63b8ff" stroke="#63b8ff" points="299.37,-11.11 289.07,-13.58 298.66,-18.08 299.37,-11.11"/>
</a>
</g>
</g>
<!-- Node12 -->
<g id="Node000012" class="node">
<title>Node12</title>
<g id="a_Node000012"><a xlink:title=" ">
<polygon fill="#e0e0e0" stroke="#999999" points="802.5,-19 751.5,-19 751.5,0 802.5,0 802.5,-19"/>
<text text-anchor="middle" x="777" y="-7" font-family="Helvetica,sans-Serif" font-size="10.00">variant</text>
</a>
</g>
</g>
<!-- Node11&#45;&gt;Node12 -->
<g id="edge12_Node000011_Node000012" class="edge">
<title>Node11&#45;&gt;Node12</title>
<g id="a_edge12_Node000011_Node000012"><a xlink:title=" ">
<path fill="none" stroke="#63b8ff" d="M777,-54.75C777,-47.8 777,-37.85 777,-29.13"/>
<polygon fill="#63b8ff" stroke="#63b8ff" points="780.5,-29.09 777,-19.09 773.5,-29.09 780.5,-29.09"/>
</a>
</g>
</g>
<!-- Node13 -->
<g id="Node000013" class="node">
<title>Node13</title>
<g id="a_Node000013"><a xlink:title=" ">
<polygon fill="#e0e0e0" stroke="#999999" points="652,-19 602,-19 602,0 652,0 652,-19"/>
<text text-anchor="middle" x="627" y="-7" font-family="Helvetica,sans-Serif" font-size="10.00">cstdint</text>
</a>
</g>
</g>
<!-- Node11&#45;&gt;Node13 -->
<g id="edge14_Node000011_Node000013" class="edge">
<title>Node11&#45;&gt;Node13</title>
<g id="a_edge14_Node000011_Node000013"><a xlink:title=" ">
<path fill="none" stroke="#63b8ff" d="M752.9,-54.98C728.12,-46.23 689.3,-32.51 661.31,-22.62"/>
<polygon fill="#63b8ff" stroke="#63b8ff" points="662.13,-19.2 651.54,-19.17 659.8,-25.8 662.13,-19.2"/>
</a>
</g>
</g>
<!-- Node15&#45;&gt;Node4 -->
<g id="edge25_Node000015_Node000004" class="edge">
<title>Node15&#45;&gt;Node4</title>
<g id="a_edge25_Node000015_Node000004"><a xlink:title=" ">
<path fill="none" stroke="#63b8ff" d="M358.89,-164.97C392.44,-138.68 494.51,-58.69 537.06,-25.34"/>
<polygon fill="#63b8ff" stroke="#63b8ff" points="539.25,-28.07 544.97,-19.15 534.94,-22.56 539.25,-28.07"/>
</a>
</g>
</g>
<!-- Node15&#45;&gt;Node11 -->
<g id="edge19_Node000015_Node000011" class="edge">
<title>Node15&#45;&gt;Node11</title>
<g id="a_edge19_Node000015_Node000011"><a xlink:title=" ">
<path fill="none" stroke="#63b8ff" d="M391.81,-164.97C433.84,-156.57 499.01,-143.01 555,-129 620.48,-112.62 695.87,-90.31 739.8,-76.97"/>
<polygon fill="#63b8ff" stroke="#63b8ff" points="740.93,-80.28 749.47,-74.02 738.89,-73.58 740.93,-80.28"/>
</a>
</g>
</g>
<!-- Node15&#45;&gt;Node13 -->
<g id="edge26_Node000015_Node000013" class="edge">
<title>Node15&#45;&gt;Node13</title>
<g id="a_edge26_Node000015_Node000013"><a xlink:title=" ">
<path fill="none" stroke="#63b8ff" d="M364.89,-164.92C381.97,-156.16 409.04,-142.04 432,-129 495.56,-92.9 568.79,-47.28 604.74,-24.61"/>
<polygon fill="#63b8ff" stroke="#63b8ff" points="606.87,-27.41 613.45,-19.11 603.13,-21.49 606.87,-27.41"/>
</a>
</g>
</g>
<!-- Node16 -->
<g id="Node000016" class="node">
<title>Node16</title>
<g id="a_Node000016"><a xlink:href="CCSDSConfig_8h.html" target="_top" xlink:title=" ">
<polygon fill="white" stroke="#666666" points="395.5,-129 306.5,-129 306.5,-110 395.5,-110 395.5,-129"/>
<text text-anchor="middle" x="351" y="-117" font-family="Helvetica,sans-Serif" font-size="10.00">CCSDSConfig.h</text>
</a>
</g>
</g>
<!-- Node15&#45;&gt;Node16 -->
<g id="edge20_Node000015_Node000016" class="edge">
<title>Node15&#45;&gt;Node16</title>
<g id="a_edge20_Node000015_Node000016"><a xlink:title=" ">
<path fill="none" stroke="#63b8ff" d="M348.5,-164.75C348.89,-157.8 349.45,-147.85 349.95,-139.13"/>
<polygon fill="#63b8ff" stroke="#63b8ff" points="353.44,-139.27 350.51,-129.09 346.45,-138.88 353.44,-139.27"/>
</a>
</g>
</g>
<!-- Node16&#45;&gt;Node3 -->
<g id="edge21_Node000016_Node000003" class="edge">
<title>Node16&#45;&gt;Node3</title>
<g id="a_edge21_Node000016_Node000003"><a xlink:title=" ">
<path fill="none" stroke="#63b8ff" d="M322.08,-109.98C289.48,-100.39 236.63,-84.82 202.86,-74.88"/>
<polygon fill="#63b8ff" stroke="#63b8ff" points="203.62,-71.46 193.04,-71.99 201.64,-78.17 203.62,-71.46"/>
</a>
</g>
</g>
<!-- Node16&#45;&gt;Node4 -->
<g id="edge23_Node000016_Node000004" class="edge">
<title>Node16&#45;&gt;Node4</title>
<g id="a_edge23_Node000016_Node000004"><a xlink:title=" ">
<path fill="none" stroke="#63b8ff" d="M358.58,-109.89C370.86,-96.42 396.43,-70.31 423,-55 454.43,-36.89 494.31,-24.79 522.17,-17.83"/>
<polygon fill="#63b8ff" stroke="#63b8ff" points="523.32,-21.16 532.22,-15.42 521.68,-14.35 523.32,-21.16"/>
</a>
</g>
</g>
<!-- Node16&#45;&gt;Node11 -->
<g id="edge24_Node000016_Node000011" class="edge">
<title>Node16&#45;&gt;Node11</title>
<g id="a_edge24_Node000016_Node000011"><a xlink:title=" ">
<path fill="none" stroke="#63b8ff" d="M395.78,-112.93C474.51,-103.13 637.4,-82.87 722.51,-72.28"/>
<polygon fill="#63b8ff" stroke="#63b8ff" points="723.01,-75.74 732.5,-71.04 722.14,-68.8 723.01,-75.74"/>
</a>
</g>
</g>
<!-- Node16&#45;&gt;Node13 -->
<g id="edge22_Node000016_Node000013" class="edge">
<title>Node16&#45;&gt;Node13</title>
<g id="a_edge22_Node000016_Node000013"><a xlink:title=" ">
<path fill="none" stroke="#63b8ff" d="M373.12,-109.84C421.99,-90.72 539.29,-44.82 595.69,-22.75"/>
<polygon fill="#63b8ff" stroke="#63b8ff" points="597.12,-25.95 605.16,-19.05 594.57,-19.43 597.12,-25.95"/>
</a>
</g>
</g>
<!-- Node17&#45;&gt;Node2 -->
<g id="edge29_Node000017_Node000002" class="edge">
<title>Node17&#45;&gt;Node2</title>
<g id="a_edge29_Node000017_Node000002"><a xlink:title=" ">
<path fill="none" stroke="#63b8ff" d="M561.78,-224.53C701.3,-216.42 960.75,-192.96 1024,-129 1050.2,-102.51 1049.58,-55.32 1046.81,-29.19"/>
<polygon fill="#63b8ff" stroke="#63b8ff" points="1050.26,-28.59 1045.52,-19.11 1043.32,-29.48 1050.26,-28.59"/>
</a>
</g>
</g>
<!-- Node17&#45;&gt;Node3 -->
<g id="edge31_Node000017_Node000003" class="edge">
<title>Node17&#45;&gt;Node3</title>
<g id="a_edge31_Node000017_Node000003"><a xlink:title=" ">
<path fill="none" stroke="#63b8ff" d="M395.45,-219.97C339.73,-212.57 270,-200.44 246,-184 209.63,-159.09 187.19,-110.14 177.17,-83.62"/>
<polygon fill="#63b8ff" stroke="#63b8ff" points="180.41,-82.28 173.73,-74.05 173.82,-84.65 180.41,-82.28"/>
</a>
</g>
</g>
<!-- Node17&#45;&gt;Node14 -->
<g id="edge28_Node000017_Node000014" class="edge">
<title>Node17&#45;&gt;Node14</title>
<g id="a_edge28_Node000017_Node000014"><a xlink:title=" ">
<path fill="none" stroke="#63b8ff" d="M487.91,-219.98C503.55,-211.61 527.66,-198.7 545.88,-188.95"/>
<polygon fill="#63b8ff" stroke="#63b8ff" points="547.64,-191.98 554.8,-184.17 544.34,-185.8 547.64,-191.98"/>
</a>
</g>
</g>
<!-- Node17&#45;&gt;Node15 -->
<g id="edge32_Node000017_Node000015" class="edge">
<title>Node17&#45;&gt;Node15</title>
<g id="a_edge32_Node000017_Node000015"><a xlink:title=" ">
<path fill="none" stroke="#63b8ff" d="M452.08,-219.98C431.95,-211.38 400.62,-197.99 377.59,-188.15"/>
<polygon fill="#63b8ff" stroke="#63b8ff" points="378.86,-184.88 368.29,-184.17 376.1,-191.32 378.86,-184.88"/>
</a>
</g>
</g>
<!-- Node18 -->
<g id="Node000018" class="node">
<title>Node18</title>
<g id="a_Node000018"><a xlink:title=" ">
<polygon fill="#e0e0e0" stroke="#999999" points="523.5,-184 458.5,-184 458.5,-165 523.5,-165 523.5,-184"/>
<text text-anchor="middle" x="491" y="-172" font-family="Helvetica,sans-Serif" font-size="10.00">functional</text>
</a>
</g>
</g>
<!-- Node17&#45;&gt;Node18 -->
<g id="edge30_Node000017_Node000018" class="edge">
<title>Node17&#45;&gt;Node18</title>
<g id="a_edge30_Node000017_Node000018"><a xlink:title=" ">
<path fill="none" stroke="#63b8ff" d="M475.14,-219.75C477.68,-212.65 481.36,-202.4 484.53,-193.56"/>
<polygon fill="#63b8ff" stroke="#63b8ff" points="487.84,-194.68 487.92,-184.09 481.25,-192.32 487.84,-194.68"/>
</a>
</g>
</g>
<!-- Node19&#45;&gt;Node11 -->
<g id="edge36_Node000019_Node000011" class="edge">
<title>Node19&#45;&gt;Node11</title>
<g id="a_edge36_Node000019_Node000011"><a xlink:title=" ">
<path fill="none" stroke="#63b8ff" d="M340.07,-283.42C395.29,-281.83 494.1,-273.8 570,-239 592.07,-228.88 713.91,-121.58 759.65,-80.96"/>
<polygon fill="#63b8ff" stroke="#63b8ff" points="762.11,-83.45 767.26,-74.19 757.46,-78.22 762.11,-83.45"/>
</a>
</g>
</g>
<!-- Node19&#45;&gt;Node15 -->
<g id="edge34_Node000019_Node000015" class="edge">
<title>Node19&#45;&gt;Node15</title>
<g id="a_edge34_Node000019_Node000015"><a xlink:title=" ">
<path fill="none" stroke="#63b8ff" d="M302.09,-274.66C310.3,-256.93 328.91,-216.73 339.75,-193.32"/>
<polygon fill="#63b8ff" stroke="#63b8ff" points="342.97,-194.7 343.99,-184.16 336.61,-191.76 342.97,-194.7"/>
</a>
</g>
</g>
<!-- Node19&#45;&gt;Node16 -->
<g id="edge37_Node000019_Node000016" class="edge">
<title>Node19&#45;&gt;Node16</title>
<g id="a_edge37_Node000019_Node000016"><a xlink:title=" ">
<path fill="none" stroke="#63b8ff" d="M288.69,-274.96C267.8,-254.74 220.94,-202.84 246,-165 257.5,-147.63 277.29,-137.02 296.61,-130.55"/>
<polygon fill="#63b8ff" stroke="#63b8ff" points="297.76,-133.86 306.31,-127.61 295.73,-127.16 297.76,-133.86"/>
</a>
</g>
</g>
<!-- Node19&#45;&gt;Node17 -->
<g id="edge35_Node000019_Node000017" class="edge">
<title>Node19&#45;&gt;Node17</title>
<g id="a_edge35_Node000019_Node000017"><a xlink:title=" ">
<path fill="none" stroke="#63b8ff" d="M325.96,-274.98C355.3,-266.05 401.6,-251.94 434.19,-242.02"/>
<polygon fill="#63b8ff" stroke="#63b8ff" points="435.28,-245.34 443.82,-239.08 433.24,-238.65 435.28,-245.34"/>
</a>
</g>
</g>
<!-- Node20&#45;&gt;Node4 -->
<g id="edge41_Node000020_Node000004" class="edge">
<title>Node20&#45;&gt;Node4</title>
<g id="a_edge41_Node000020_Node000004"><a xlink:title=" ">
<path fill="none" stroke="#63b8ff" d="M953.71,-109.79C928.68,-95.94 877.04,-69.02 830,-55 727.9,-24.57 697.66,-38.94 593,-19 591.93,-18.8 590.85,-18.58 589.75,-18.36"/>
<polygon fill="#63b8ff" stroke="#63b8ff" points="590.34,-14.91 579.83,-16.25 588.88,-21.76 590.34,-14.91"/>
</a>
</g>
</g>
<!-- Node20&#45;&gt;Node11 -->
<g id="edge39_Node000020_Node000011" class="edge">
<title>Node20&#45;&gt;Node11</title>
<g id="a_edge39_Node000020_Node000011"><a xlink:title=" ">
<path fill="none" stroke="#63b8ff" d="M938.15,-109.98C905.5,-100.97 853.8,-86.7 817.8,-76.76"/>
<polygon fill="#63b8ff" stroke="#63b8ff" points="818.66,-73.37 808.09,-74.08 816.8,-80.12 818.66,-73.37"/>
</a>
</g>
</g>
<!-- Node20&#45;&gt;Node13 -->
<g id="edge40_Node000020_Node000013" class="edge">
<title>Node20&#45;&gt;Node13</title>
<g id="a_edge40_Node000020_Node000013"><a xlink:title=" ">
<path fill="none" stroke="#63b8ff" d="M962.96,-109.81C952.65,-95.74 930.21,-68.2 904,-55 862.17,-33.94 726.89,-19.41 662.15,-13.48"/>
<polygon fill="#63b8ff" stroke="#63b8ff" points="662.3,-9.98 652.02,-12.57 661.67,-16.95 662.3,-9.98"/>
</a>
</g>
</g>
<!-- Node21&#45;&gt;Node11 -->
<g id="edge49_Node000021_Node000011" class="edge">
<title>Node21&#45;&gt;Node11</title>
<g id="a_edge49_Node000021_Node000011"><a xlink:title=" ">
<path fill="none" stroke="#63b8ff" d="M625.09,-494.99C705.4,-479.67 856,-444.41 856,-395.5 856,-395.5 856,-395.5 856,-283.5 856,-204.76 809.88,-119.07 788.11,-83.02"/>
<polygon fill="#63b8ff" stroke="#63b8ff" points="790.91,-80.89 782.68,-74.22 784.96,-84.57 790.91,-80.89"/>
</a>
</g>
</g>
<!-- Node22 -->
<g id="Node000022" class="node">
<title>Node22</title>
<g id="a_Node000022"><a xlink:title=" ">
<polygon fill="#e0e0e0" stroke="#999999" points="555.5,-459 510.5,-459 510.5,-440 555.5,-440 555.5,-459"/>
<text text-anchor="middle" x="533" y="-447" font-family="Helvetica,sans-Serif" font-size="10.00">utility</text>
</a>
</g>
</g>
<!-- Node21&#45;&gt;Node22 -->
<g id="edge43_Node000021_Node000022" class="edge">
<title>Node21&#45;&gt;Node22</title>
<g id="a_edge43_Node000021_Node000022"><a xlink:title=" ">
<path fill="none" stroke="#63b8ff" d="M568.9,-494.75C562.83,-487.26 553.91,-476.28 546.49,-467.13"/>
<polygon fill="#63b8ff" stroke="#63b8ff" points="548.99,-464.65 539.97,-459.09 543.55,-469.06 548.99,-464.65"/>
</a>
</g>
</g>
<!-- Node21&#45;&gt;Node23 -->
<g id="edge44_Node000021_Node000023" class="edge">
<title>Node21&#45;&gt;Node23</title>
<g id="a_edge44_Node000021_Node000023"><a xlink:title=" ">
<path fill="none" stroke="#63b8ff" d="M577.54,-494.99C580.36,-481.64 587.54,-455.72 603,-440 617.98,-424.77 639.08,-414.34 658.05,-407.42"/>
<polygon fill="#63b8ff" stroke="#63b8ff" points="659.39,-410.66 667.72,-404.12 657.13,-404.04 659.39,-410.66"/>
</a>
</g>
</g>
<!-- Node21&#45;&gt;Node24 -->
<g id="edge50_Node000021_Node000024" class="edge">
<title>Node21&#45;&gt;Node24</title>
<g id="a_edge50_Node000021_Node000024"><a xlink:title=" ">
<path fill="none" stroke="#63b8ff" d="M589.98,-494.98C603.47,-486.77 624.13,-474.18 640.04,-464.49"/>
<polygon fill="#63b8ff" stroke="#63b8ff" points="642.05,-467.36 648.77,-459.17 638.41,-461.38 642.05,-467.36"/>
</a>
</g>
</g>
<!-- Node23&#45;&gt;Node4 -->
<g id="edge46_Node000023_Node000004" class="edge">
<title>Node23&#45;&gt;Node4</title>
<g id="a_edge46_Node000023_Node000004"><a xlink:title=" ">
<path fill="none" stroke="#63b8ff" d="M701.58,-384.85C694.77,-344.93 662.83,-175.3 594,-55 588.1,-44.68 579.65,-34.5 572.22,-26.49"/>
<polygon fill="#63b8ff" stroke="#63b8ff" points="574.72,-24.04 565.26,-19.27 569.68,-28.9 574.72,-24.04"/>
</a>
</g>
</g>
<!-- Node23&#45;&gt;Node10 -->
<g id="edge48_Node000023_Node000010" class="edge">
<title>Node23&#45;&gt;Node10</title>
<g id="a_edge48_Node000023_Node000010"><a xlink:title=" ">
<path fill="none" stroke="#63b8ff" d="M683.24,-384.98C663.27,-376.38 632.2,-362.99 609.35,-353.15"/>
<polygon fill="#63b8ff" stroke="#63b8ff" points="610.69,-349.91 600.12,-349.17 607.92,-356.34 610.69,-349.91"/>
</a>
</g>
</g>
<!-- Node23&#45;&gt;Node11 -->
<g id="edge45_Node000023_Node000011" class="edge">
<title>Node23&#45;&gt;Node11</title>
<g id="a_edge45_Node000023_Node000011"><a xlink:title=" ">
<path fill="none" stroke="#63b8ff" d="M716.9,-384.81C728.73,-376.79 745.44,-363.9 756,-349 773.45,-324.39 780,-315.67 780,-285.5 780,-285.5 780,-285.5 780,-173.5 780,-142.18 778.72,-105.77 777.84,-84.23"/>
<polygon fill="#63b8ff" stroke="#63b8ff" points="781.33,-84.02 777.4,-74.18 774.34,-84.32 781.33,-84.02"/>
</a>
</g>
</g>
<!-- Node23&#45;&gt;Node20 -->
<g id="edge47_Node000023_Node000020" class="edge">
<title>Node23&#45;&gt;Node20</title>
<g id="a_edge47_Node000023_Node000020"><a xlink:title=" ">
<path fill="none" stroke="#63b8ff" d="M727.96,-384.92C747.33,-377.45 774.13,-365.26 794,-349 872.22,-284.96 936.11,-179.43 959.46,-137.98"/>
<polygon fill="#63b8ff" stroke="#63b8ff" points="962.6,-139.54 964.4,-129.1 956.48,-136.14 962.6,-139.54"/>
</a>
</g>
</g>
<!-- Node24&#45;&gt;Node23 -->
<g id="edge51_Node000024_Node000023" class="edge">
<title>Node24&#45;&gt;Node23</title>
<g id="a_edge51_Node000024_Node000023"><a xlink:title=" ">
<path fill="none" stroke="#63b8ff" d="M669.61,-439.75C675.26,-432.26 683.54,-421.28 690.45,-412.13"/>
<polygon fill="#63b8ff" stroke="#63b8ff" points="693.29,-414.18 696.52,-404.09 687.7,-409.96 693.29,-414.18"/>
</a>
</g>
</g>
<!-- Node25&#45;&gt;Node3 -->
<g id="edge59_Node000025_Node000003" class="edge">
<title>Node25&#45;&gt;Node3</title>
<g id="a_edge59_Node000025_Node000003"><a xlink:title=" ">
<path fill="none" stroke="#63b8ff" d="M475.81,-549.84C457.1,-523.86 399.03,-444.72 344,-385 303.94,-341.53 279.68,-343.26 247,-294 201.05,-224.73 180.63,-125.21 173.8,-84.23"/>
<polygon fill="#63b8ff" stroke="#63b8ff" points="177.22,-83.42 172.2,-74.09 170.3,-84.51 177.22,-83.42"/>
</a>
</g>
</g>
<!-- Node25&#45;&gt;Node4 -->
<g id="edge60_Node000025_Node000004" class="edge">
<title>Node25&#45;&gt;Node4</title>
<g id="a_edge60_Node000025_Node000004"><a xlink:title=" ">
<path fill="none" stroke="#63b8ff" d="M458.71,-550C372.44,-516.84 76,-387.47 76,-175.5 76,-175.5 76,-175.5 76,-118.5 76,-78.43 103.82,-72.21 140,-55 207.53,-22.88 435.56,-13.64 522.21,-11.25"/>
<polygon fill="#63b8ff" stroke="#63b8ff" points="522.39,-14.75 532.29,-10.99 522.21,-7.75 522.39,-14.75"/>
</a>
</g>
</g>
<!-- Node25&#45;&gt;Node21 -->
<g id="edge58_Node000025_Node000021" class="edge">
<title>Node25&#45;&gt;Node21</title>
<g id="a_edge58_Node000025_Node000021"><a xlink:title=" ">
<path fill="none" stroke="#63b8ff" d="M497.1,-549.98C511.82,-541.69 534.42,-528.94 551.67,-519.22"/>
<polygon fill="#63b8ff" stroke="#63b8ff" points="553.63,-522.13 560.62,-514.17 550.19,-516.03 553.63,-522.13"/>
</a>
</g>
</g>
<!-- Node25&#45;&gt;Node23 -->
<g id="edge57_Node000025_Node000023" class="edge">
<title>Node25&#45;&gt;Node23</title>
<g id="a_edge57_Node000025_Node000023"><a xlink:title=" ">
<path fill="none" stroke="#63b8ff" d="M480.47,-549.96C477.14,-528.37 471.68,-471.06 501,-440 520.76,-419.07 594.98,-406.9 647.71,-400.73"/>
<polygon fill="#63b8ff" stroke="#63b8ff" points="648.41,-404.17 657.95,-399.57 647.62,-397.22 648.41,-404.17"/>
</a>
</g>
</g>
<!-- Node26&#45;&gt;Node11 -->
<g id="edge65_Node000026_Node000011" class="edge">
<title>Node26&#45;&gt;Node11</title>
<g id="a_edge65_Node000026_Node000011"><a xlink:title=" ">
<path fill="none" stroke="#63b8ff" d="M970,-604.82C970,-586.48 970,-542.44 970,-505.5 970,-505.5 970,-505.5 970,-228.5 970,-147.61 869.83,-98.67 813.82,-77.63"/>
<polygon fill="#63b8ff" stroke="#63b8ff" points="814.84,-74.28 804.24,-74.14 812.44,-80.85 814.84,-74.28"/>
</a>
</g>
</g>
<!-- Node27 -->
<g id="Node000027" class="node">
<title>Node27</title>
<g id="a_Node000027"><a xlink:title=" ">
<polygon fill="#e0e0e0" stroke="#999999" points="1030,-569 998,-569 998,-550 1030,-550 1030,-569"/>
<text text-anchor="middle" x="1014" y="-557" font-family="Helvetica,sans-Serif" font-size="10.00">set</text>
</a>
</g>
</g>
<!-- Node26&#45;&gt;Node27 -->
<g id="edge64_Node000026_Node000027" class="edge">
<title>Node26&#45;&gt;Node27</title>
<g id="a_edge64_Node000026_Node000027"><a xlink:title=" ">
<path fill="none" stroke="#63b8ff" d="M977.27,-604.75C983.54,-597.18 992.79,-586.05 1000.43,-576.84"/>
<polygon fill="#63b8ff" stroke="#63b8ff" points="1003.17,-579.02 1006.87,-569.09 997.79,-574.55 1003.17,-579.02"/>
</a>
</g>
</g>
</g>
</svg>
