<?xml version="1.0" encoding="UTF-8" standalone="no"?>
<!DOCTYPE svg PUBLIC "-//W3C//DTD SVG 1.1//EN"
 "http://www.w3.org/Graphics/SVG/1.1/DTD/svg11.dtd">
<!-- Generated by graphviz version 2.43.0 (0)
 -->
<!-- Title: src/exec_encoder.cpp Pages: 1 -->
<!--zoomable 577 -->

<svg id="main" version="1.1" xmlns="http://www.w3.org/2000/svg" xmlns:xlink="http://www.w3.org/1999/xlink" xml:space="preserve" onload="init(evt)">
<style type="text/css"><![CDATA[
.node, .edge {opacity: 0.7;}
.node.selected, .edge.selected {opacity: 1;}
.edge:hover path { stroke: red; }
.edge:hover polygon { stroke: red; fill: red; }
]]></style>

<defs>
  <circle id="rim" cx="0" cy="0" r="7"/>
  <circle id="rim2" cx="0" cy="0" r="3.5"/>
  <g id="zoomPlus">
    <use xlink:href="#rim" fill="#404040"><set attributeName="fill" to="#808080" begin="zoomplus.mouseover" end="zoomplus.mouseout"/></use>
    <path d="M-4,0h8M0,-4v8" fill="none" stroke="white" stroke-width="1.5" pointer-events="none"/>
  </g>
  <g id="zoomMin">
    <use xlink:href="#rim" fill="#404040"><set attributeName="fill" to="#808080" begin="zoomminus.mouseover" end="zoomminus.mouseout"/></use>
    <path d="M-4,0h8" fill="none" stroke="white" stroke-width="1.5" pointer-events="none"/>
  </g>
  <g id="arrowUp" transform="translate(30 24)">
    <use xlink:href="#rim"/>
    <path pointer-events="none" fill="none" stroke="white" stroke-width="1.5" d="M0,-3.0v7 M-2.5,-0.5L0,-3.0L2.5,-0.5"/>
  </g>
  <g id="arrowRight" transform="rotate(90) translate(36 -43)">
    <use xlink:href="#rim"/>
    <path pointer-events="none" fill="none" stroke="white" stroke-width="1.5" d="M0,-3.0v7 M-2.5,-0.5L0,-3.0L2.5,-0.5"/>
  </g>
  <g id="arrowDown" transform="rotate(180) translate(-30 -48)">
    <use xlink:href="#rim"/>
    <path pointer-events="none" fill="none" stroke="white" stroke-width="1.5" d="M0,-3.0v7 M-2.5,-0.5L0,-3.0L2.5,-0.5"/>
  </g>
  <g id="arrowLeft" transform="rotate(270) translate(-36 17)">
    <use xlink:href="#rim"/>
    <path pointer-events="none" fill="none" stroke="white" stroke-width="1.5" d="M0,-3.0v7 M-2.5,-0.5L0,-3.0L2.5,-0.5"/>
  </g>
  <g id="resetDef">
    <use xlink:href="#rim2" fill="#404040"><set attributeName="fill" to="#808080" begin="reset.mouseover" end="reset.mouseout"/></use>
  </g>
</defs>
<script type="application/ecmascript">
var viewWidth = 1182;
var viewHeight = 577;
var sectionId = 'dynsection-0';
</script>
<script type="application/ecmascript" xlink:href="svg.min.js"/>
<svg id="graph" class="graph">
<g id="viewport">
<title>src/exec_encoder.cpp</title>
<!-- Node1 -->
<g id="Node000001" class="node">
<title>Node1</title>
<g id="a_Node000001"><a xlink:title=" ">
<polygon fill="#999999" stroke="#666666" points="367,-569 247,-569 247,-550 367,-550 367,-569"/>
<text text-anchor="middle" x="307" y="-557" font-family="Helvetica,sans-Serif" font-size="10.00">src/exec_encoder.cpp</text>
</a>
</g>
</g>
<!-- Node2 -->
<g id="Node000002" class="node">
<title>Node2</title>
<g id="a_Node000002"><a xlink:title=" ">
<polygon fill="#e0e0e0" stroke="#999999" points="304.5,-19 211.5,-19 211.5,0 304.5,0 304.5,-19"/>
<text text-anchor="middle" x="258" y="-7" font-family="Helvetica,sans-Serif" font-size="10.00">unordered_map</text>
</a>
</g>
</g>
<!-- Node1&#45;&gt;Node2 -->
<g id="edge1_Node000001_Node000002" class="edge">
<title>Node1&#45;&gt;Node2</title>
<g id="a_edge1_Node000001_Node000002"><a xlink:title=" ">
<path fill="none" stroke="#63b8ff" d="M246.68,-557.33C200.24,-553.94 136.06,-543.61 88,-514 57.42,-495.16 38,-486.42 38,-450.5 38,-450.5 38,-450.5 38,-118.5 38,-45.8 136,-22.04 201.18,-14.27"/>
<polygon fill="#63b8ff" stroke="#63b8ff" points="201.78,-17.72 211.34,-13.15 201.02,-10.77 201.78,-17.72"/>
</a>
</g>
</g>
<!-- Node3 -->
<g id="Node000003" class="node">
<title>Node3</title>
<g id="a_Node000003"><a xlink:title=" ">
<polygon fill="#e0e0e0" stroke="#999999" points="254,-129 210,-129 210,-110 254,-110 254,-129"/>
<text text-anchor="middle" x="232" y="-117" font-family="Helvetica,sans-Serif" font-size="10.00">string</text>
</a>
</g>
</g>
<!-- Node1&#45;&gt;Node3 -->
<g id="edge2_Node000001_Node000003" class="edge">
<title>Node1&#45;&gt;Node3</title>
<g id="a_edge2_Node000001_Node000003"><a xlink:title=" ">
<path fill="none" stroke="#63b8ff" d="M349.31,-549.93C387.18,-540.29 433.78,-522.32 413,-495 376.7,-447.28 336.18,-486.68 283,-459 243.65,-438.52 206,-439.86 206,-395.5 206,-395.5 206,-395.5 206,-228.5 206,-196.15 217.17,-159.82 224.86,-138.62"/>
<polygon fill="#63b8ff" stroke="#63b8ff" points="228.23,-139.6 228.49,-129.01 221.68,-137.13 228.23,-139.6"/>
</a>
</g>
</g>
<!-- Node4 -->
<g id="Node000004" class="node">
<title>Node4</title>
<g id="a_Node000004"><a xlink:title=" ">
<polygon fill="#e0e0e0" stroke="#999999" points="1083.5,-19 1036.5,-19 1036.5,0 1083.5,0 1083.5,-19"/>
<text text-anchor="middle" x="1060" y="-7" font-family="Helvetica,sans-Serif" font-size="10.00">vector</text>
</a>
</g>
</g>
<!-- Node1&#45;&gt;Node4 -->
<g id="edge3_Node000001_Node000004" class="edge">
<title>Node1&#45;&gt;Node4</title>
<g id="a_edge3_Node000001_Node000004"><a xlink:title=" ">
<path fill="none" stroke="#63b8ff" d="M367.02,-557.45C516.5,-554.41 902.3,-543.82 1027,-514 1096.22,-497.45 1174,-521.67 1174,-450.5 1174,-450.5 1174,-450.5 1174,-118.5 1174,-72.47 1124.42,-40.18 1090.65,-23.53"/>
<polygon fill="#63b8ff" stroke="#63b8ff" points="1091.71,-20.16 1081.18,-19.05 1088.72,-26.49 1091.71,-20.16"/>
</a>
</g>
</g>
<!-- Node5 -->
<g id="Node000005" class="node">
<title>Node5</title>
<g id="a_Node000005"><a xlink:title=" ">
<polygon fill="#e0e0e0" stroke="#999999" points="81,-19 21,-19 21,0 81,0 81,-19"/>
<text text-anchor="middle" x="51" y="-7" font-family="Helvetica,sans-Serif" font-size="10.00">iostream</text>
</a>
</g>
</g>
<!-- Node1&#45;&gt;Node5 -->
<g id="edge4_Node000001_Node000005" class="edge">
<title>Node1&#45;&gt;Node5</title>
<g id="a_edge4_Node000001_Node000005"><a xlink:title=" ">
<path fill="none" stroke="#63b8ff" d="M246.99,-558.81C193.67,-556.64 115.23,-547.27 56,-514 23.19,-495.57 0,-488.13 0,-450.5 0,-450.5 0,-450.5 0,-118.5 0,-83.28 22.45,-47.25 37.56,-26.99"/>
<polygon fill="#63b8ff" stroke="#63b8ff" points="40.33,-29.13 43.69,-19.09 34.8,-24.84 40.33,-29.13"/>
</a>
</g>
</g>
<!-- Node6 -->
<g id="Node000006" class="node">
<title>Node6</title>
<g id="a_Node000006"><a xlink:title=" ">
<polygon fill="#e0e0e0" stroke="#999999" points="192,-514 142,-514 142,-495 192,-495 192,-514"/>
<text text-anchor="middle" x="167" y="-502" font-family="Helvetica,sans-Serif" font-size="10.00">chrono</text>
</a>
</g>
</g>
<!-- Node1&#45;&gt;Node6 -->
<g id="edge5_Node000001_Node000006" class="edge">
<title>Node1&#45;&gt;Node6</title>
<g id="a_edge5_Node000001_Node000006"><a xlink:title=" ">
<path fill="none" stroke="#63b8ff" d="M284.51,-549.98C261.48,-541.27 225.46,-527.63 199.37,-517.75"/>
<polygon fill="#63b8ff" stroke="#63b8ff" points="200.49,-514.44 189.9,-514.17 198.02,-520.98 200.49,-514.44"/>
</a>
</g>
</g>
<!-- Node7 -->
<g id="Node000007" class="node">
<title>Node7</title>
<g id="a_Node000007"><a xlink:title=" ">
<polygon fill="#e0e0e0" stroke="#999999" points="266,-514 210,-514 210,-495 266,-495 266,-514"/>
<text text-anchor="middle" x="238" y="-502" font-family="Helvetica,sans-Serif" font-size="10.00">iomanip</text>
</a>
</g>
</g>
<!-- Node1&#45;&gt;Node7 -->
<g id="edge6_Node000001_Node000007" class="edge">
<title>Node1&#45;&gt;Node7</title>
<g id="a_edge6_Node000001_Node000007"><a xlink:title=" ">
<path fill="none" stroke="#63b8ff" d="M295.91,-549.98C285.51,-542 269.74,-529.88 257.28,-520.31"/>
<polygon fill="#63b8ff" stroke="#63b8ff" points="259.35,-517.49 249.29,-514.17 255.09,-523.04 259.35,-517.49"/>
</a>
</g>
</g>
<!-- Node8 -->
<g id="Node000008" class="node">
<title>Node8</title>
<g id="a_Node000008"><a xlink:title=" ">
<polygon fill="#e0e0e0" stroke="#999999" points="330,-514 284,-514 284,-495 330,-495 330,-514"/>
<text text-anchor="middle" x="307" y="-502" font-family="Helvetica,sans-Serif" font-size="10.00">locale</text>
</a>
</g>
</g>
<!-- Node1&#45;&gt;Node8 -->
<g id="edge7_Node000001_Node000008" class="edge">
<title>Node1&#45;&gt;Node8</title>
<g id="a_edge7_Node000001_Node000008"><a xlink:title=" ">
<path fill="none" stroke="#63b8ff" d="M307,-549.75C307,-542.8 307,-532.85 307,-524.13"/>
<polygon fill="#63b8ff" stroke="#63b8ff" points="310.5,-524.09 307,-514.09 303.5,-524.09 310.5,-524.09"/>
</a>
</g>
</g>
<!-- Node9 -->
<g id="Node000009" class="node">
<title>Node9</title>
<g id="a_Node000009"><a xlink:title=" ">
<polygon fill="#e0e0e0" stroke="#999999" points="404,-514 348,-514 348,-495 404,-495 404,-514"/>
<text text-anchor="middle" x="376" y="-502" font-family="Helvetica,sans-Serif" font-size="10.00">sstream</text>
</a>
</g>
</g>
<!-- Node1&#45;&gt;Node9 -->
<g id="edge8_Node000001_Node000009" class="edge">
<title>Node1&#45;&gt;Node9</title>
<g id="a_edge8_Node000001_Node000009"><a xlink:title=" ">
<path fill="none" stroke="#63b8ff" d="M318.09,-549.98C328.49,-542 344.26,-529.88 356.72,-520.31"/>
<polygon fill="#63b8ff" stroke="#63b8ff" points="358.91,-523.04 364.71,-514.17 354.65,-517.49 358.91,-523.04"/>
</a>
</g>
</g>
<!-- Node10 -->
<g id="Node000010" class="node">
<title>Node10</title>
<g id="a_Node000010"><a xlink:href="CCSDSManager_8h.html" target="_top" xlink:title=" ">
<polygon fill="white" stroke="#666666" points="627.5,-459 526.5,-459 526.5,-440 627.5,-440 627.5,-459"/>
<text text-anchor="middle" x="577" y="-447" font-family="Helvetica,sans-Serif" font-size="10.00">CCSDSManager.h</text>
</a>
</g>
</g>
<!-- Node1&#45;&gt;Node10 -->
<g id="edge9_Node000001_Node000010" class="edge">
<title>Node1&#45;&gt;Node10</title>
<g id="a_edge9_Node000001_Node000010"><a xlink:title=" ">
<path fill="none" stroke="#63b8ff" d="M367.11,-554.11C430.02,-548.39 523.41,-536.37 551,-514 564.72,-502.88 571.26,-483.35 574.35,-468.88"/>
<polygon fill="#63b8ff" stroke="#63b8ff" points="577.8,-469.47 576.09,-459.02 570.9,-468.25 577.8,-469.47"/>
</a>
</g>
</g>
<!-- Node13 -->
<g id="Node000013" class="node">
<title>Node13</title>
<g id="a_Node000013"><a xlink:href="CCSDSResult_8h.html" target="_top" xlink:title=" ">
<polygon fill="white" stroke="#666666" points="347.5,-74 258.5,-74 258.5,-55 347.5,-55 347.5,-74"/>
<text text-anchor="middle" x="303" y="-62" font-family="Helvetica,sans-Serif" font-size="10.00">CCSDSResult.h</text>
</a>
</g>
</g>
<!-- Node1&#45;&gt;Node13 -->
<g id="edge47_Node000001_Node000013" class="edge">
<title>Node1&#45;&gt;Node13</title>
<g id="a_edge47_Node000001_Node000013"><a xlink:title=" ">
<path fill="none" stroke="#63b8ff" d="M246.91,-555.67C178.47,-548.83 76,-525.98 76,-450.5 76,-450.5 76,-450.5 76,-173.5 76,-97.43 181.23,-74.88 248.4,-68.24"/>
<polygon fill="#63b8ff" stroke="#63b8ff" points="248.78,-71.72 258.42,-67.33 248.15,-64.74 248.78,-71.72"/>
</a>
</g>
</g>
<!-- Node16 -->
<g id="Node000016" class="node">
<title>Node16</title>
<g id="a_Node000016"><a xlink:href="CCSDSHeader_8h.html" target="_top" xlink:title=" ">
<polygon fill="white" stroke="#666666" points="1031.5,-129 938.5,-129 938.5,-110 1031.5,-110 1031.5,-129"/>
<text text-anchor="middle" x="985" y="-117" font-family="Helvetica,sans-Serif" font-size="10.00">CCSDSHeader.h</text>
</a>
</g>
</g>
<!-- Node1&#45;&gt;Node16 -->
<g id="edge46_Node000001_Node000016" class="edge">
<title>Node1&#45;&gt;Node16</title>
<g id="a_edge46_Node000001_Node000016"><a xlink:title=" ">
<path fill="none" stroke="#63b8ff" d="M367.29,-556.98C558.05,-551.39 1136,-528.06 1136,-450.5 1136,-450.5 1136,-450.5 1136,-338.5 1136,-247.59 1046.17,-167.23 1005.08,-135.23"/>
<polygon fill="#63b8ff" stroke="#63b8ff" points="1007.18,-132.42 997.1,-129.14 1002.93,-137.99 1007.18,-132.42"/>
</a>
</g>
</g>
<!-- Node24 -->
<g id="Node000024" class="node">
<title>Node24</title>
<g id="a_Node000024"><a xlink:href="CCSDSUtils_8h.html" target="_top" xlink:title=" ">
<polygon fill="white" stroke="#666666" points="541.5,-514 460.5,-514 460.5,-495 541.5,-495 541.5,-514"/>
<text text-anchor="middle" x="501" y="-502" font-family="Helvetica,sans-Serif" font-size="10.00">CCSDSUtils.h</text>
</a>
</g>
</g>
<!-- Node1&#45;&gt;Node24 -->
<g id="edge48_Node000001_Node000024" class="edge">
<title>Node1&#45;&gt;Node24</title>
<g id="a_edge48_Node000001_Node000024"><a xlink:title=" ">
<path fill="none" stroke="#63b8ff" d="M338.17,-549.98C371.16,-540.97 423.4,-526.7 459.77,-516.76"/>
<polygon fill="#63b8ff" stroke="#63b8ff" points="460.86,-520.09 469.59,-514.08 459.02,-513.34 460.86,-520.09"/>
</a>
</g>
</g>
<!-- Node25 -->
<g id="Node000025" class="node">
<title>Node25</title>
<g id="a_Node000025"><a xlink:href="exec__utils_8h.html" target="_top" xlink:title=" ">
<polygon fill="white" stroke="#666666" points="178,-459 104,-459 104,-440 178,-440 178,-459"/>
<text text-anchor="middle" x="141" y="-447" font-family="Helvetica,sans-Serif" font-size="10.00">exec_utils.h</text>
</a>
</g>
</g>
<!-- Node1&#45;&gt;Node25 -->
<g id="edge54_Node000001_Node000025" class="edge">
<title>Node1&#45;&gt;Node25</title>
<g id="a_edge54_Node000001_Node000025"><a xlink:title=" ">
<path fill="none" stroke="#63b8ff" d="M246.87,-551.01C202.34,-544.09 147.06,-532.1 133,-514 123.12,-501.27 127,-482.58 132.22,-468.78"/>
<polygon fill="#63b8ff" stroke="#63b8ff" points="135.54,-469.92 136.27,-459.35 129.11,-467.15 135.54,-469.92"/>
</a>
</g>
</g>
<!-- Node11 -->
<g id="Node000011" class="node">
<title>Node11</title>
<g id="a_Node000011"><a xlink:title=" ">
<polygon fill="#e0e0e0" stroke="#999999" points="629.5,-404 584.5,-404 584.5,-385 629.5,-385 629.5,-404"/>
<text text-anchor="middle" x="607" y="-392" font-family="Helvetica,sans-Serif" font-size="10.00">utility</text>
</a>
</g>
</g>
<!-- Node10&#45;&gt;Node11 -->
<g id="edge10_Node000010_Node000011" class="edge">
<title>Node10&#45;&gt;Node11</title>
<g id="a_edge10_Node000010_Node000011"><a xlink:title=" ">
<path fill="none" stroke="#63b8ff" d="M581.95,-439.75C586.06,-432.49 592.03,-421.95 597.1,-412.98"/>
<polygon fill="#63b8ff" stroke="#63b8ff" points="600.26,-414.52 602.14,-404.09 594.17,-411.07 600.26,-414.52"/>
</a>
</g>
</g>
<!-- Node12 -->
<g id="Node000012" class="node">
<title>Node12</title>
<g id="a_Node000012"><a xlink:href="CCSDSPacket_8h.html" target="_top" xlink:title=" ">
<polygon fill="white" stroke="#666666" points="743,-349 653,-349 653,-330 743,-330 743,-349"/>
<text text-anchor="middle" x="698" y="-337" font-family="Helvetica,sans-Serif" font-size="10.00">CCSDSPacket.h</text>
</a>
</g>
</g>
<!-- Node10&#45;&gt;Node12 -->
<g id="edge11_Node000010_Node000012" class="edge">
<title>Node10&#45;&gt;Node12</title>
<g id="a_edge11_Node000010_Node000012"><a xlink:title=" ">
<path fill="none" stroke="#63b8ff" d="M573.91,-439.77C569.85,-426.6 564.5,-401.44 576,-385 591.17,-363.33 618.06,-352.17 642.74,-346.45"/>
<polygon fill="#63b8ff" stroke="#63b8ff" points="643.7,-349.82 652.78,-344.38 642.28,-342.97 643.7,-349.82"/>
</a>
</g>
</g>
<!-- Node10&#45;&gt;Node13 -->
<g id="edge43_Node000010_Node000013" class="edge">
<title>Node10&#45;&gt;Node13</title>
<g id="a_edge43_Node000010_Node000013"><a xlink:title=" ">
<path fill="none" stroke="#63b8ff" d="M526.29,-440.66C441.94,-426.16 282,-391.9 282,-340.5 282,-340.5 282,-340.5 282,-173.5 282,-141.46 291.02,-105.03 297.23,-83.73"/>
<polygon fill="#63b8ff" stroke="#63b8ff" points="300.61,-84.65 300.17,-74.07 293.91,-82.62 300.61,-84.65"/>
</a>
</g>
</g>
<!-- Node23 -->
<g id="Node000023" class="node">
<title>Node23</title>
<g id="a_Node000023"><a xlink:href="CCSDSValidator_8h.html" target="_top" xlink:title="Defines the Validator class for CCSDS packet validation.">
<polygon fill="white" stroke="#666666" points="748.5,-404 647.5,-404 647.5,-385 748.5,-385 748.5,-404"/>
<text text-anchor="middle" x="698" y="-392" font-family="Helvetica,sans-Serif" font-size="10.00">CCSDSValidator.h</text>
</a>
</g>
</g>
<!-- Node10&#45;&gt;Node23 -->
<g id="edge44_Node000010_Node000023" class="edge">
<title>Node10&#45;&gt;Node23</title>
<g id="a_edge44_Node000010_Node000023"><a xlink:title=" ">
<path fill="none" stroke="#63b8ff" d="M596.44,-439.98C615.99,-431.42 646.38,-418.11 668.82,-408.28"/>
<polygon fill="#63b8ff" stroke="#63b8ff" points="670.45,-411.39 678.21,-404.17 667.64,-404.98 670.45,-411.39"/>
</a>
</g>
</g>
<!-- Node12&#45;&gt;Node4 -->
<g id="edge19_Node000012_Node000004" class="edge">
<title>Node12&#45;&gt;Node4</title>
<g id="a_edge19_Node000012_Node000004"><a xlink:title=" ">
<path fill="none" stroke="#63b8ff" d="M743.14,-334.57C805.25,-328.47 913.13,-315.16 946,-294 1020.95,-245.76 1022.4,-209.82 1060,-129 1074.15,-98.57 1080.43,-88.12 1075,-55 1073.53,-46.05 1070.51,-36.47 1067.56,-28.51"/>
<polygon fill="#63b8ff" stroke="#63b8ff" points="1070.79,-27.16 1063.86,-19.15 1064.28,-29.74 1070.79,-27.16"/>
</a>
</g>
</g>
<!-- Node12&#45;&gt;Node13 -->
<g id="edge12_Node000012_Node000013" class="edge">
<title>Node12&#45;&gt;Node13</title>
<g id="a_edge12_Node000012_Node000013"><a xlink:title=" ">
<path fill="none" stroke="#63b8ff" d="M674.83,-330C613.71,-306.58 445.8,-235.7 344,-129 330.86,-115.23 319.45,-96.68 312.03,-83.19"/>
<polygon fill="#63b8ff" stroke="#63b8ff" points="314.94,-81.21 307.16,-74.02 308.76,-84.49 314.94,-81.21"/>
</a>
</g>
</g>
<!-- Node15 -->
<g id="Node000015" class="node">
<title>Node15</title>
<g id="a_Node000015"><a xlink:title=" ">
<polygon fill="#e0e0e0" stroke="#999999" points="829,-19 779,-19 779,0 829,0 829,-19"/>
<text text-anchor="middle" x="804" y="-7" font-family="Helvetica,sans-Serif" font-size="10.00">cstdint</text>
</a>
</g>
</g>
<!-- Node12&#45;&gt;Node15 -->
<g id="edge18_Node000012_Node000015" class="edge">
<title>Node12&#45;&gt;Node15</title>
<g id="a_edge18_Node000012_Node000015"><a xlink:title=" ">
<path fill="none" stroke="#63b8ff" d="M743.22,-335.22C805.48,-327.98 910,-304.75 910,-230.5 910,-230.5 910,-230.5 910,-118.5 910,-73.98 863.55,-41.07 832.15,-23.92"/>
<polygon fill="#63b8ff" stroke="#63b8ff" points="833.43,-20.64 822.95,-19.1 830.19,-26.84 833.43,-20.64"/>
</a>
</g>
</g>
<!-- Node12&#45;&gt;Node16 -->
<g id="edge20_Node000012_Node000016" class="edge">
<title>Node12&#45;&gt;Node16</title>
<g id="a_edge20_Node000012_Node000016"><a xlink:title=" ">
<path fill="none" stroke="#63b8ff" d="M743.12,-334.88C801.1,-329.36 897.47,-316.97 924,-294 970.61,-253.64 981.61,-175.45 984.2,-139.47"/>
<polygon fill="#63b8ff" stroke="#63b8ff" points="987.7,-139.55 984.78,-129.37 980.72,-139.15 987.7,-139.55"/>
</a>
</g>
</g>
<!-- Node17 -->
<g id="Node000017" class="node">
<title>Node17</title>
<g id="a_Node000017"><a xlink:href="CCSDSDataField_8h.html" target="_top" xlink:title=" ">
<polygon fill="white" stroke="#666666" points="750.5,-294 645.5,-294 645.5,-275 750.5,-275 750.5,-294"/>
<text text-anchor="middle" x="698" y="-282" font-family="Helvetica,sans-Serif" font-size="10.00">CCSDSDataField.h</text>
</a>
</g>
</g>
<!-- Node12&#45;&gt;Node17 -->
<g id="edge24_Node000012_Node000017" class="edge">
<title>Node12&#45;&gt;Node17</title>
<g id="a_edge24_Node000012_Node000017"><a xlink:title=" ">
<path fill="none" stroke="#63b8ff" d="M698,-329.75C698,-322.8 698,-312.85 698,-304.13"/>
<polygon fill="#63b8ff" stroke="#63b8ff" points="701.5,-304.09 698,-294.09 694.5,-304.09 701.5,-304.09"/>
</a>
</g>
</g>
<!-- Node13&#45;&gt;Node2 -->
<g id="edge13_Node000013_Node000002" class="edge">
<title>Node13&#45;&gt;Node2</title>
<g id="a_edge13_Node000013_Node000002"><a xlink:title=" ">
<path fill="none" stroke="#63b8ff" d="M295.57,-54.75C289.15,-47.18 279.69,-36.05 271.88,-26.84"/>
<polygon fill="#63b8ff" stroke="#63b8ff" points="274.43,-24.45 265.29,-19.09 269.1,-28.98 274.43,-24.45"/>
</a>
</g>
</g>
<!-- Node13&#45;&gt;Node4 -->
<g id="edge15_Node000013_Node000004" class="edge">
<title>Node13&#45;&gt;Node4</title>
<g id="a_edge15_Node000013_Node000004"><a xlink:title=" ">
<path fill="none" stroke="#63b8ff" d="M347.53,-60.38C485.51,-50.72 903.98,-21.42 1026.16,-12.87"/>
<polygon fill="#63b8ff" stroke="#63b8ff" points="1026.67,-16.34 1036.4,-12.15 1026.18,-9.36 1026.67,-16.34"/>
</a>
</g>
</g>
<!-- Node13&#45;&gt;Node5 -->
<g id="edge17_Node000013_Node000005" class="edge">
<title>Node13&#45;&gt;Node5</title>
<g id="a_edge17_Node000013_Node000005"><a xlink:title=" ">
<path fill="none" stroke="#63b8ff" d="M262.51,-54.98C215.33,-45.06 137.86,-28.77 90.92,-18.9"/>
<polygon fill="#63b8ff" stroke="#63b8ff" points="91.61,-15.47 81.11,-16.83 90.17,-22.32 91.61,-15.47"/>
</a>
</g>
</g>
<!-- Node14 -->
<g id="Node000014" class="node">
<title>Node14</title>
<g id="a_Node000014"><a xlink:title=" ">
<polygon fill="#e0e0e0" stroke="#999999" points="373.5,-19 322.5,-19 322.5,0 373.5,0 373.5,-19"/>
<text text-anchor="middle" x="348" y="-7" font-family="Helvetica,sans-Serif" font-size="10.00">variant</text>
</a>
</g>
</g>
<!-- Node13&#45;&gt;Node14 -->
<g id="edge14_Node000013_Node000014" class="edge">
<title>Node13&#45;&gt;Node14</title>
<g id="a_edge14_Node000013_Node000014"><a xlink:title=" ">
<path fill="none" stroke="#63b8ff" d="M310.43,-54.75C316.85,-47.18 326.31,-36.05 334.12,-26.84"/>
<polygon fill="#63b8ff" stroke="#63b8ff" points="336.9,-28.98 340.71,-19.09 331.57,-24.45 336.9,-28.98"/>
</a>
</g>
</g>
<!-- Node13&#45;&gt;Node15 -->
<g id="edge16_Node000013_Node000015" class="edge">
<title>Node13&#45;&gt;Node15</title>
<g id="a_edge16_Node000013_Node000015"><a xlink:title=" ">
<path fill="none" stroke="#63b8ff" d="M347.75,-56.85C352.56,-56.19 357.38,-55.57 362,-55 512.67,-36.57 692.93,-20.18 768.22,-13.58"/>
<polygon fill="#63b8ff" stroke="#63b8ff" points="768.89,-17.03 778.55,-12.68 768.28,-10.06 768.89,-17.03"/>
</a>
</g>
</g>
<!-- Node16&#45;&gt;Node4 -->
<g id="edge23_Node000016_Node000004" class="edge">
<title>Node16&#45;&gt;Node4</title>
<g id="a_edge23_Node000016_Node000004"><a xlink:title=" ">
<path fill="none" stroke="#63b8ff" d="M991.14,-109.66C1003.62,-91.69 1032.12,-50.64 1048.28,-27.38"/>
<polygon fill="#63b8ff" stroke="#63b8ff" points="1051.16,-29.37 1053.99,-19.16 1045.41,-25.38 1051.16,-29.37"/>
</a>
</g>
</g>
<!-- Node16&#45;&gt;Node13 -->
<g id="edge21_Node000016_Node000013" class="edge">
<title>Node16&#45;&gt;Node13</title>
<g id="a_edge21_Node000016_Node000013"><a xlink:title=" ">
<path fill="none" stroke="#63b8ff" d="M938.39,-114.88C816.44,-105.4 488.35,-79.9 357.74,-69.75"/>
<polygon fill="#63b8ff" stroke="#63b8ff" points="357.81,-66.25 347.57,-68.96 357.27,-73.23 357.81,-66.25"/>
</a>
</g>
</g>
<!-- Node16&#45;&gt;Node15 -->
<g id="edge22_Node000016_Node000015" class="edge">
<title>Node16&#45;&gt;Node15</title>
<g id="a_edge22_Node000016_Node000015"><a xlink:title=" ">
<path fill="none" stroke="#63b8ff" d="M978.82,-109.92C968.74,-96.48 947.52,-70.42 924,-55 897.87,-37.87 864.24,-26.13 839.23,-19.03"/>
<polygon fill="#63b8ff" stroke="#63b8ff" points="839.99,-15.61 829.43,-16.36 838.15,-22.36 839.99,-15.61"/>
</a>
</g>
</g>
<!-- Node17&#45;&gt;Node4 -->
<g id="edge27_Node000017_Node000004" class="edge">
<title>Node17&#45;&gt;Node4</title>
<g id="a_edge27_Node000017_Node000004"><a xlink:title=" ">
<path fill="none" stroke="#63b8ff" d="M750.57,-275.66C827.44,-261.24 969.15,-222.87 1041,-129 1063.4,-99.73 1063.92,-54.33 1062.1,-29.06"/>
<polygon fill="#63b8ff" stroke="#63b8ff" points="1065.57,-28.64 1061.16,-19 1058.6,-29.28 1065.57,-28.64"/>
</a>
</g>
</g>
<!-- Node17&#45;&gt;Node13 -->
<g id="edge25_Node000017_Node000013" class="edge">
<title>Node17&#45;&gt;Node13</title>
<g id="a_edge25_Node000017_Node000013"><a xlink:title=" ">
<path fill="none" stroke="#63b8ff" d="M654.35,-274.95C622.93,-267.82 580.08,-256.05 545,-239 452.5,-194.03 357.61,-114.17 319.92,-80.81"/>
<polygon fill="#63b8ff" stroke="#63b8ff" points="322.16,-78.12 312.37,-74.07 317.5,-83.34 322.16,-78.12"/>
</a>
</g>
</g>
<!-- Node17&#45;&gt;Node15 -->
<g id="edge26_Node000017_Node000015" class="edge">
<title>Node17&#45;&gt;Node15</title>
<g id="a_edge26_Node000017_Node000015"><a xlink:title=" ">
<path fill="none" stroke="#63b8ff" d="M713.51,-274.88C747.75,-254.77 828.77,-200.94 854,-129 867.04,-91.82 838.35,-49.59 819.26,-26.94"/>
<polygon fill="#63b8ff" stroke="#63b8ff" points="821.75,-24.47 812.52,-19.27 816.49,-29.09 821.75,-24.47"/>
</a>
</g>
</g>
<!-- Node18 -->
<g id="Node000018" class="node">
<title>Node18</title>
<g id="a_Node000018"><a xlink:title=" ">
<polygon fill="#e0e0e0" stroke="#999999" points="482,-129 424,-129 424,-110 482,-110 482,-129"/>
<text text-anchor="middle" x="453" y="-117" font-family="Helvetica,sans-Serif" font-size="10.00">memory</text>
</a>
</g>
</g>
<!-- Node17&#45;&gt;Node18 -->
<g id="edge28_Node000017_Node000018" class="edge">
<title>Node17&#45;&gt;Node18</title>
<g id="a_edge28_Node000017_Node000018"><a xlink:title=" ">
<path fill="none" stroke="#63b8ff" d="M670.23,-274.97C628.68,-261.14 549.5,-230.61 496,-184 481.3,-171.19 469.34,-152.26 461.81,-138.4"/>
<polygon fill="#63b8ff" stroke="#63b8ff" points="464.83,-136.63 457.12,-129.36 458.62,-139.85 464.83,-136.63"/>
</a>
</g>
</g>
<!-- Node19 -->
<g id="Node000019" class="node">
<title>Node19</title>
<g id="a_Node000019"><a xlink:href="CCSDSSecondaryHeaderAbstract_8h.html" target="_top" xlink:title=" ">
<polygon fill="white" stroke="#666666" points="844.5,-129 659.5,-129 659.5,-110 844.5,-110 844.5,-129"/>
<text text-anchor="middle" x="752" y="-117" font-family="Helvetica,sans-Serif" font-size="10.00">CCSDSSecondaryHeaderAbstract.h</text>
</a>
</g>
</g>
<!-- Node17&#45;&gt;Node19 -->
<g id="edge29_Node000017_Node000019" class="edge">
<title>Node17&#45;&gt;Node19</title>
<g id="a_edge29_Node000017_Node000019"><a xlink:title=" ">
<path fill="none" stroke="#63b8ff" d="M713.62,-274.83C725.71,-267.15 741.6,-254.74 749,-239 764.26,-206.52 760.12,-163.31 755.93,-139.05"/>
<polygon fill="#63b8ff" stroke="#63b8ff" points="759.34,-138.23 754.02,-129.07 752.47,-139.55 759.34,-138.23"/>
</a>
</g>
</g>
<!-- Node20 -->
<g id="Node000020" class="node">
<title>Node20</title>
<g id="a_Node000020"><a xlink:href="CCSDSSecondaryHeaderFactory_8h.html" target="_top" xlink:title=" ">
<polygon fill="white" stroke="#666666" points="717.5,-184 538.5,-184 538.5,-165 717.5,-165 717.5,-184"/>
<text text-anchor="middle" x="628" y="-172" font-family="Helvetica,sans-Serif" font-size="10.00">CCSDSSecondaryHeaderFactory.h</text>
</a>
</g>
</g>
<!-- Node17&#45;&gt;Node20 -->
<g id="edge33_Node000017_Node000020" class="edge">
<title>Node17&#45;&gt;Node20</title>
<g id="a_edge33_Node000017_Node000020"><a xlink:title=" ">
<path fill="none" stroke="#63b8ff" d="M684.38,-274.87C672.84,-266.89 656.67,-254.02 647,-239 638.24,-225.39 633.37,-207.58 630.76,-194.28"/>
<polygon fill="#63b8ff" stroke="#63b8ff" points="634.2,-193.63 629.06,-184.36 627.3,-194.81 634.2,-193.63"/>
</a>
</g>
</g>
<!-- Node22 -->
<g id="Node000022" class="node">
<title>Node22</title>
<g id="a_Node000022"><a xlink:href="PusServices_8h.html" target="_top" xlink:title=" ">
<polygon fill="white" stroke="#666666" points="740,-239 656,-239 656,-220 740,-220 740,-239"/>
<text text-anchor="middle" x="698" y="-227" font-family="Helvetica,sans-Serif" font-size="10.00">PusServices.h</text>
</a>
</g>
</g>
<!-- Node17&#45;&gt;Node22 -->
<g id="edge39_Node000017_Node000022" class="edge">
<title>Node17&#45;&gt;Node22</title>
<g id="a_edge39_Node000017_Node000022"><a xlink:title=" ">
<path fill="none" stroke="#63b8ff" d="M698,-274.75C698,-267.8 698,-257.85 698,-249.13"/>
<polygon fill="#63b8ff" stroke="#63b8ff" points="701.5,-249.09 698,-239.09 694.5,-249.09 701.5,-249.09"/>
</a>
</g>
</g>
<!-- Node19&#45;&gt;Node4 -->
<g id="edge31_Node000019_Node000004" class="edge">
<title>Node19&#45;&gt;Node4</title>
<g id="a_edge31_Node000019_Node000004"><a xlink:title=" ">
<path fill="none" stroke="#63b8ff" d="M776.43,-109.94C831.28,-90.7 964.31,-44.05 1026.69,-22.18"/>
<polygon fill="#63b8ff" stroke="#63b8ff" points="1028.14,-25.38 1036.42,-18.77 1025.82,-18.77 1028.14,-25.38"/>
</a>
</g>
</g>
<!-- Node19&#45;&gt;Node13 -->
<g id="edge30_Node000019_Node000013" class="edge">
<title>Node19&#45;&gt;Node13</title>
<g id="a_edge30_Node000019_Node000013"><a xlink:title=" ">
<path fill="none" stroke="#63b8ff" d="M679.86,-109.98C590,-99.38 438.48,-81.49 357.65,-71.95"/>
<polygon fill="#63b8ff" stroke="#63b8ff" points="358.02,-68.47 347.67,-70.77 357.19,-75.42 358.02,-68.47"/>
</a>
</g>
</g>
<!-- Node19&#45;&gt;Node15 -->
<g id="edge32_Node000019_Node000015" class="edge">
<title>Node19&#45;&gt;Node15</title>
<g id="a_edge32_Node000019_Node000015"><a xlink:title=" ">
<path fill="none" stroke="#63b8ff" d="M756.26,-109.66C764.79,-91.93 784.15,-51.73 795.42,-28.32"/>
<polygon fill="#63b8ff" stroke="#63b8ff" points="798.65,-29.69 799.83,-19.16 792.34,-26.65 798.65,-29.69"/>
</a>
</g>
</g>
<!-- Node20&#45;&gt;Node2 -->
<g id="edge35_Node000020_Node000002" class="edge">
<title>Node20&#45;&gt;Node2</title>
<g id="a_edge35_Node000020_Node000002"><a xlink:title=" ">
<path fill="none" stroke="#63b8ff" d="M615.63,-164.87C596.58,-151.84 558.62,-126.85 524,-110 445.49,-71.78 348.32,-38.83 295.87,-22.14"/>
<polygon fill="#63b8ff" stroke="#63b8ff" points="296.89,-18.79 286.3,-19.12 294.78,-25.47 296.89,-18.79"/>
</a>
</g>
</g>
<!-- Node20&#45;&gt;Node3 -->
<g id="edge37_Node000020_Node000003" class="edge">
<title>Node20&#45;&gt;Node3</title>
<g id="a_edge37_Node000020_Node000003"><a xlink:title=" ">
<path fill="none" stroke="#63b8ff" d="M564.38,-164.98C478.84,-153.54 329.96,-133.61 264.48,-124.85"/>
<polygon fill="#63b8ff" stroke="#63b8ff" points="264.72,-121.35 254.35,-123.49 263.79,-128.29 264.72,-121.35"/>
</a>
</g>
</g>
<!-- Node20&#45;&gt;Node18 -->
<g id="edge34_Node000020_Node000018" class="edge">
<title>Node20&#45;&gt;Node18</title>
<g id="a_edge34_Node000020_Node000018"><a xlink:title=" ">
<path fill="none" stroke="#63b8ff" d="M599.88,-164.98C570.38,-156.05 523.81,-141.94 491.03,-132.02"/>
<polygon fill="#63b8ff" stroke="#63b8ff" points="491.92,-128.63 481.34,-129.08 489.89,-135.33 491.92,-128.63"/>
</a>
</g>
</g>
<!-- Node20&#45;&gt;Node19 -->
<g id="edge38_Node000020_Node000019" class="edge">
<title>Node20&#45;&gt;Node19</title>
<g id="a_edge38_Node000020_Node000019"><a xlink:title=" ">
<path fill="none" stroke="#63b8ff" d="M647.92,-164.98C668.05,-156.38 699.38,-142.99 722.41,-133.15"/>
<polygon fill="#63b8ff" stroke="#63b8ff" points="723.9,-136.32 731.71,-129.17 721.14,-129.88 723.9,-136.32"/>
</a>
</g>
</g>
<!-- Node21 -->
<g id="Node000021" class="node">
<title>Node21</title>
<g id="a_Node000021"><a xlink:title=" ">
<polygon fill="#e0e0e0" stroke="#999999" points="641.5,-129 576.5,-129 576.5,-110 641.5,-110 641.5,-129"/>
<text text-anchor="middle" x="609" y="-117" font-family="Helvetica,sans-Serif" font-size="10.00">functional</text>
</a>
</g>
</g>
<!-- Node20&#45;&gt;Node21 -->
<g id="edge36_Node000020_Node000021" class="edge">
<title>Node20&#45;&gt;Node21</title>
<g id="a_edge36_Node000020_Node000021"><a xlink:title=" ">
<path fill="none" stroke="#63b8ff" d="M624.86,-164.75C622.32,-157.65 618.64,-147.4 615.47,-138.56"/>
<polygon fill="#63b8ff" stroke="#63b8ff" points="618.75,-137.32 612.08,-129.09 612.16,-139.68 618.75,-137.32"/>
</a>
</g>
</g>
<!-- Node22&#45;&gt;Node13 -->
<g id="edge42_Node000022_Node000013" class="edge">
<title>Node22&#45;&gt;Node13</title>
<g id="a_edge42_Node000022_Node000013"><a xlink:title=" ">
<path fill="none" stroke="#63b8ff" d="M655.84,-226.65C619.07,-223.03 566.12,-212.75 530,-184 500.91,-160.85 520.39,-132.77 491,-110 470.39,-94.04 405.5,-81.05 357.69,-73.31"/>
<polygon fill="#63b8ff" stroke="#63b8ff" points="358.2,-69.85 347.77,-71.74 357.1,-76.76 358.2,-69.85"/>
</a>
</g>
</g>
<!-- Node22&#45;&gt;Node19 -->
<g id="edge40_Node000022_Node000019" class="edge">
<title>Node22&#45;&gt;Node19</title>
<g id="a_edge40_Node000022_Node000019"><a xlink:title=" ">
<path fill="none" stroke="#63b8ff" d="M704.32,-219.95C710.6,-211.22 720.24,-197.11 727,-184 734.55,-169.36 741.28,-151.89 745.85,-138.98"/>
<polygon fill="#63b8ff" stroke="#63b8ff" points="749.21,-139.97 749.14,-129.37 742.59,-137.69 749.21,-139.97"/>
</a>
</g>
</g>
<!-- Node22&#45;&gt;Node20 -->
<g id="edge41_Node000022_Node000020" class="edge">
<title>Node22&#45;&gt;Node20</title>
<g id="a_edge41_Node000022_Node000020"><a xlink:title=" ">
<path fill="none" stroke="#63b8ff" d="M686.75,-219.98C676.2,-212 660.2,-199.88 647.56,-190.31"/>
<polygon fill="#63b8ff" stroke="#63b8ff" points="649.54,-187.42 639.45,-184.17 645.31,-193 649.54,-187.42"/>
</a>
</g>
</g>
<!-- Node23&#45;&gt;Node12 -->
<g id="edge45_Node000023_Node000012" class="edge">
<title>Node23&#45;&gt;Node12</title>
<g id="a_edge45_Node000023_Node000012"><a xlink:title=" ">
<path fill="none" stroke="#63b8ff" d="M698,-384.75C698,-377.8 698,-367.85 698,-359.13"/>
<polygon fill="#63b8ff" stroke="#63b8ff" points="701.5,-359.09 698,-349.09 694.5,-359.09 701.5,-359.09"/>
</a>
</g>
</g>
<!-- Node24&#45;&gt;Node3 -->
<g id="edge51_Node000024_Node000003" class="edge">
<title>Node24&#45;&gt;Node3</title>
<g id="a_edge51_Node000024_Node000003"><a xlink:title=" ">
<path fill="none" stroke="#63b8ff" d="M460.28,-495.21C387.81,-479.29 244,-441.84 244,-395.5 244,-395.5 244,-395.5 244,-228.5 244,-197 238.89,-160.64 235.34,-139.16"/>
<polygon fill="#63b8ff" stroke="#63b8ff" points="238.76,-138.4 233.62,-129.14 231.87,-139.59 238.76,-138.4"/>
</a>
</g>
</g>
<!-- Node24&#45;&gt;Node4 -->
<g id="edge53_Node000024_Node000004" class="edge">
<title>Node24&#45;&gt;Node4</title>
<g id="a_edge53_Node000024_Node000004"><a xlink:title=" ">
<path fill="none" stroke="#63b8ff" d="M541.56,-500.47C675.93,-489.9 1098,-452.18 1098,-395.5 1098,-395.5 1098,-395.5 1098,-338.5 1098,-264.11 1136,-249.89 1136,-175.5 1136,-175.5 1136,-175.5 1136,-118.5 1136,-79.47 1102.39,-44.58 1079.87,-25.6"/>
<polygon fill="#63b8ff" stroke="#63b8ff" points="1081.85,-22.7 1071.88,-19.12 1077.44,-28.14 1081.85,-22.7"/>
</a>
</g>
</g>
<!-- Node24&#45;&gt;Node10 -->
<g id="edge50_Node000024_Node000010" class="edge">
<title>Node24&#45;&gt;Node10</title>
<g id="a_edge50_Node000024_Node000010"><a xlink:title=" ">
<path fill="none" stroke="#63b8ff" d="M513.21,-494.98C524.78,-486.92 542.38,-474.65 556.16,-465.03"/>
<polygon fill="#63b8ff" stroke="#63b8ff" points="558.37,-467.76 564.57,-459.17 554.36,-462.02 558.37,-467.76"/>
</a>
</g>
</g>
<!-- Node24&#45;&gt;Node12 -->
<g id="edge49_Node000024_Node000012" class="edge">
<title>Node24&#45;&gt;Node12</title>
<g id="a_edge49_Node000024_Node000012"><a xlink:title=" ">
<path fill="none" stroke="#63b8ff" d="M502.08,-494.84C503.92,-482.19 508.43,-458.18 518,-440 532.97,-411.54 538.34,-402.98 565,-385 588.52,-369.14 618.19,-358.49 643.53,-351.61"/>
<polygon fill="#63b8ff" stroke="#63b8ff" points="644.57,-354.95 653.37,-349.06 642.81,-348.18 644.57,-354.95"/>
</a>
</g>
</g>
<!-- Node24&#45;&gt;Node15 -->
<g id="edge52_Node000024_Node000015" class="edge">
<title>Node24&#45;&gt;Node15</title>
<g id="a_edge52_Node000024_Node000015"><a xlink:title=" ">
<path fill="none" stroke="#63b8ff" d="M469.26,-494.95C427.13,-481.46 358,-450.88 358,-395.5 358,-395.5 358,-395.5 358,-173.5 358,-86.23 663.08,-31.82 768.6,-15.61"/>
<polygon fill="#63b8ff" stroke="#63b8ff" points="769.38,-19.03 778.74,-14.07 768.33,-12.11 769.38,-19.03"/>
</a>
</g>
</g>
<!-- Node25&#45;&gt;Node13 -->
<g id="edge55_Node000025_Node000013" class="edge">
<title>Node25&#45;&gt;Node13</title>
<g id="a_edge55_Node000025_Node000013"><a xlink:title=" ">
<path fill="none" stroke="#63b8ff" d="M142.75,-439.86C146.3,-421.6 154,-377.7 154,-340.5 154,-340.5 154,-340.5 154,-173.5 154,-121.22 214.87,-91.65 258.8,-77.12"/>
<polygon fill="#63b8ff" stroke="#63b8ff" points="259.96,-80.42 268.44,-74.08 257.85,-73.75 259.96,-80.42"/>
</a>
</g>
</g>
</g>
</svg>

<g id="navigator" transform="translate(0 0)" fill="#404254">
  <rect fill="#f2f5e9" fill-opacity="0.5" stroke="#606060" stroke-width=".5" x="0" y="0" width="60" height="60"/>
  <use id="zoomplus" xlink:href="#zoomPlus" x="17" y="9" onmousedown="handleZoom(evt,'in')"/>
  <use id="zoomminus" xlink:href="#zoomMin" x="42" y="9" onmousedown="handleZoom(evt,'out')"/>
  <use id="reset" xlink:href="#resetDef" x="30" y="36" onmousedown="handleReset()"/>
   <use id="arrowup" xlink:href="#arrowUp" x="0" y="0" onmousedown="handlePan(0,-1)"/>
  <use id="arrowright" xlink:href="#arrowRight" x="0" y="0" onmousedown="handlePan(1,0)"/>
  <use id="arrowdown" xlink:href="#arrowDown" x="0" y="0" onmousedown="handlePan(0,1)"/>
  <use id="arrowleft" xlink:href="#arrowLeft" x="0" y="0" onmousedown="handlePan(-1,0)"/>
</g>
<svg viewBox="0 0 15 15" width="100%" height="30px" preserveAspectRatio="xMaxYMin meet">
 <g id="arrow_out" transform="scale(0.3 0.3)">
  <a xlink:href="exec__encoder_8cpp__incl_org.svg" target="_base">
   <rect id="button" ry="5" rx="5" y="6" x="6" height="38" width="38"
        fill="#f2f5e9" fill-opacity="0.5" stroke="#606060" stroke-width="1.0"/>
   <path id="arrow"
     d="M 11.500037,31.436501 C 11.940474,20.09759 22.043105,11.32322 32.158766,21.979434 L 37.068811,17.246167 C 37.068811,17.246167 37.088388,32 37.088388,32 L 22.160133,31.978069 C 22.160133,31.978069 26.997745,27.140456 26.997745,27.140456 C 18.528582,18.264221 13.291696,25.230495 11.500037,31.436501 z"
     style="fill:#404040;"/>
  </a>
 </g>
</svg>

<style type='text/css'>
<![CDATA[
[data-mouse-over-selected='false'] { opacity: 0.7; }
[data-mouse-over-selected='true']  { opacity: 1.0; }
]]>
</style>
<script type="application/ecmascript"><![CDATA[
document.addEventListener('DOMContentLoaded', (event) => {
  highlightEdges();
  highlightAdjacentNodes();
});
]]></script>
</svg>
