<?xml version="1.0" encoding="UTF-8" standalone="no"?>
<!DOCTYPE svg PUBLIC "-//W3C//DTD SVG 1.1//EN"
 "http://www.w3.org/Graphics/SVG/1.1/DTD/svg11.dtd">
<!-- Generated by graphviz version 2.43.0 (0)
 -->
<!-- Title: inc/exec_utils.h Pages: 1 -->
<svg width="531pt" height="82pt"
 viewBox="0.00 0.00 530.50 82.00" xmlns="http://www.w3.org/2000/svg" xmlns:xlink="http://www.w3.org/1999/xlink">
<g id="graph0" class="graph" transform="scale(1 1) rotate(0) translate(4 78)">
<title>inc/exec_utils.h</title>
<!-- Node1 -->
<g id="Node000001" class="node">
<title>Node1</title>
<g id="a_Node000001"><a xlink:title=" ">
<polygon fill="#999999" stroke="#666666" points="309,-74 217,-74 217,-55 309,-55 309,-74"/>
<text text-anchor="middle" x="263" y="-62" font-family="Helvetica,sans-Serif" font-size="10.00">inc/exec_utils.h</text>
</a>
</g>
</g>
<!-- Node2 -->
<g id="Node000002" class="node">
<title>Node2</title>
<g id="a_Node000002"><a xlink:href="exec__decoder_8cpp.html" target="_top" xlink:title=" ">
<polygon fill="white" stroke="#666666" points="120,-19 0,-19 0,0 120,0 120,-19"/>
<text text-anchor="middle" x="60" y="-7" font-family="Helvetica,sans-Serif" font-size="10.00">src/exec_decoder.cpp</text>
</a>
</g>
</g>
<!-- Node1&#45;&gt;Node2 -->
<g id="edge1_Node000001_Node000002" class="edge">
<title>Node1&#45;&gt;Node2</title>
<g id="a_edge1_Node000001_Node000002"><a xlink:title=" ">
<path fill="none" stroke="#63b8ff" d="M220.63,-52.44C182.63,-42.52 127.64,-28.16 92.87,-19.08"/>
<polygon fill="#63b8ff" stroke="#63b8ff" points="219.82,-55.84 230.38,-54.98 221.59,-49.07 219.82,-55.84"/>
</a>
</g>
</g>
<!-- Node3 -->
<g id="Node000003" class="node">
<title>Node3</title>
<g id="a_Node000003"><a xlink:href="exec__encoder_8cpp.html" target="_top" xlink:title=" ">
<polygon fill="white" stroke="#666666" points="258,-19 138,-19 138,0 258,0 258,-19"/>
<text text-anchor="middle" x="198" y="-7" font-family="Helvetica,sans-Serif" font-size="10.00">src/exec_encoder.cpp</text>
</a>
</g>
</g>
<!-- Node1&#45;&gt;Node3 -->
<g id="edge2_Node000001_Node000003" class="edge">
<title>Node1&#45;&gt;Node3</title>
<g id="a_edge2_Node000001_Node000003"><a xlink:title=" ">
<path fill="none" stroke="#63b8ff" d="M244.73,-48.6C233.08,-39.11 218.4,-27.13 208.63,-19.17"/>
<polygon fill="#63b8ff" stroke="#63b8ff" points="242.59,-51.38 252.56,-54.98 247.02,-45.95 242.59,-51.38"/>
</a>
</g>
</g>
<!-- Node4 -->
<g id="Node000004" class="node">
<title>Node4</title>
<g id="a_Node000004"><a xlink:href="exec__utils_8cpp.html" target="_top" xlink:title=" ">
<polygon fill="white" stroke="#666666" points="379.5,-19 276.5,-19 276.5,0 379.5,0 379.5,-19"/>
<text text-anchor="middle" x="328" y="-7" font-family="Helvetica,sans-Serif" font-size="10.00">src/exec_utils.cpp</text>
</a>
</g>
</g>
<!-- Node1&#45;&gt;Node4 -->
<g id="edge3_Node000001_Node000004" class="edge">
<title>Node1&#45;&gt;Node4</title>
<g id="a_edge3_Node000001_Node000004"><a xlink:title=" ">
<path fill="none" stroke="#63b8ff" d="M281.27,-48.6C292.92,-39.11 307.6,-27.13 317.37,-19.17"/>
<polygon fill="#63b8ff" stroke="#63b8ff" points="278.98,-45.95 273.44,-54.98 283.41,-51.38 278.98,-45.95"/>
</a>
</g>
</g>
<!-- Node5 -->
<g id="Node000005" class="node">
<title>Node5</title>
<g id="a_Node000005"><a xlink:href="exec__validator_8cpp.html" target="_top" xlink:title=" ">
<polygon fill="white" stroke="#666666" points="522.5,-19 397.5,-19 397.5,0 522.5,0 522.5,-19"/>
<text text-anchor="middle" x="460" y="-7" font-family="Helvetica,sans-Serif" font-size="10.00">src/exec_validator.cpp</text>
</a>
</g>
</g>
<!-- Node1&#45;&gt;Node5 -->
<g id="edge4_Node000001_Node000005" class="edge">
<title>Node1&#45;&gt;Node5</title>
<g id="a_edge4_Node000001_Node000005"><a xlink:title=" ">
<path fill="none" stroke="#63b8ff" d="M304.59,-52.31C341.45,-42.39 394.5,-28.12 428.1,-19.08"/>
<polygon fill="#63b8ff" stroke="#63b8ff" points="303.4,-49.01 294.65,-54.98 305.22,-55.77 303.4,-49.01"/>
</a>
</g>
</g>
</g>
</svg>
