<?xml version="1.0" encoding="UTF-8" standalone="no"?>
<!DOCTYPE svg PUBLIC "-//W3C//DTD SVG 1.1//EN"
 "http://www.w3.org/Graphics/SVG/1.1/DTD/svg11.dtd">
<!-- Generated by graphviz version 2.43.0 (0)
 -->
<!-- Title: src/exec_encoder.cpp Pages: 1 -->
<svg width="1194pt" height="687pt"
 viewBox="0.00 0.00 1194.00 687.00" xmlns="http://www.w3.org/2000/svg" xmlns:xlink="http://www.w3.org/1999/xlink">
<g id="graph0" class="graph" transform="scale(1 1) rotate(0) translate(4 683)">
<title>src/exec_encoder.cpp</title>
<!-- Node1 -->
<g id="Node000001" class="node">
<title>Node1</title>
<g id="a_Node000001"><a xlink:title=" ">
<polygon fill="#999999" stroke="#666666" points="1054,-679 934,-679 934,-660 1054,-660 1054,-679"/>
<text text-anchor="middle" x="994" y="-667" font-family="Helvetica,sans-Serif" font-size="10.00">src/exec_encoder.cpp</text>
</a>
</g>
</g>
<!-- Node2 -->
<g id="Node000002" class="node">
<title>Node2</title>
<g id="a_Node000002"><a xlink:title=" ">
<polygon fill="#e0e0e0" stroke="#999999" points="890.5,-74 797.5,-74 797.5,-55 890.5,-55 890.5,-74"/>
<text text-anchor="middle" x="844" y="-62" font-family="Helvetica,sans-Serif" font-size="10.00">unordered_map</text>
</a>
</g>
</g>
<!-- Node1&#45;&gt;Node2 -->
<g id="edge1_Node000001_Node000002" class="edge">
<title>Node1&#45;&gt;Node2</title>
<g id="a_edge1_Node000001_Node000002"><a xlink:title=" ">
<path fill="none" stroke="#63b8ff" d="M990.49,-659.99C983.4,-641.97 968,-598.49 968,-560.5 968,-560.5 968,-560.5 968,-228.5 968,-198.33 960.4,-190.33 944,-165 921.67,-130.52 885.67,-98.51 863.5,-80.53"/>
<polygon fill="#63b8ff" stroke="#63b8ff" points="865.47,-77.63 855.47,-74.14 861.12,-83.11 865.47,-77.63"/>
</a>
</g>
</g>
<!-- Node3 -->
<g id="Node000003" class="node">
<title>Node3</title>
<g id="a_Node000003"><a xlink:title=" ">
<polygon fill="#e0e0e0" stroke="#999999" points="730,-74 686,-74 686,-55 730,-55 730,-74"/>
<text text-anchor="middle" x="708" y="-62" font-family="Helvetica,sans-Serif" font-size="10.00">string</text>
</a>
</g>
</g>
<!-- Node1&#45;&gt;Node3 -->
<g id="edge2_Node000001_Node000003" class="edge">
<title>Node1&#45;&gt;Node3</title>
<g id="a_edge2_Node000001_Node000003"><a xlink:title=" ">
<path fill="none" stroke="#63b8ff" d="M984.28,-659.74C966.38,-642.59 930,-602.56 930,-560.5 930,-560.5 930,-560.5 930,-228.5 930,-135.39 801.54,-89.62 740.06,-73.04"/>
<polygon fill="#63b8ff" stroke="#63b8ff" points="740.66,-69.58 730.1,-70.45 738.9,-76.35 740.66,-69.58"/>
</a>
</g>
</g>
<!-- Node4 -->
<g id="Node000004" class="node">
<title>Node4</title>
<g id="a_Node000004"><a xlink:title=" ">
<polygon fill="#e0e0e0" stroke="#999999" points="526.5,-19 479.5,-19 479.5,0 526.5,0 526.5,-19"/>
<text text-anchor="middle" x="503" y="-7" font-family="Helvetica,sans-Serif" font-size="10.00">vector</text>
</a>
</g>
</g>
<!-- Node1&#45;&gt;Node4 -->
<g id="edge3_Node000001_Node000004" class="edge">
<title>Node1&#45;&gt;Node4</title>
<g id="a_edge3_Node000001_Node000004"><a xlink:title=" ">
<path fill="none" stroke="#63b8ff" d="M1054.22,-660.25C1110.53,-648.75 1186,-621.88 1186,-560.5 1186,-560.5 1186,-560.5 1186,-118.5 1186,-51.39 1113.9,-72.1 1049,-55 951.41,-29.28 640.35,-15.62 536.85,-11.7"/>
<polygon fill="#63b8ff" stroke="#63b8ff" points="536.79,-8.2 526.66,-11.32 536.53,-15.19 536.79,-8.2"/>
</a>
</g>
</g>
<!-- Node5 -->
<g id="Node000005" class="node">
<title>Node5</title>
<g id="a_Node000005"><a xlink:title=" ">
<polygon fill="#e0e0e0" stroke="#999999" points="135,-19 75,-19 75,0 135,0 135,-19"/>
<text text-anchor="middle" x="105" y="-7" font-family="Helvetica,sans-Serif" font-size="10.00">iostream</text>
</a>
</g>
</g>
<!-- Node1&#45;&gt;Node5 -->
<g id="edge4_Node000001_Node000005" class="edge">
<title>Node1&#45;&gt;Node5</title>
<g id="a_edge4_Node000001_Node000005"><a xlink:title=" ">
<path fill="none" stroke="#63b8ff" d="M933.69,-668.31C718.33,-666.86 0,-654.94 0,-560.5 0,-560.5 0,-560.5 0,-118.5 0,-74.18 46.01,-41.21 77.12,-23.99"/>
<polygon fill="#63b8ff" stroke="#63b8ff" points="79.04,-26.93 86.23,-19.15 75.75,-20.75 79.04,-26.93"/>
</a>
</g>
</g>
<!-- Node6 -->
<g id="Node000006" class="node">
<title>Node6</title>
<g id="a_Node000006"><a xlink:title=" ">
<polygon fill="#e0e0e0" stroke="#999999" points="1046,-624 996,-624 996,-605 1046,-605 1046,-624"/>
<text text-anchor="middle" x="1021" y="-612" font-family="Helvetica,sans-Serif" font-size="10.00">chrono</text>
</a>
</g>
</g>
<!-- Node1&#45;&gt;Node6 -->
<g id="edge5_Node000001_Node000006" class="edge">
<title>Node1&#45;&gt;Node6</title>
<g id="a_edge5_Node000001_Node000006"><a xlink:title=" ">
<path fill="none" stroke="#63b8ff" d="M998.46,-659.75C1002.12,-652.57 1007.41,-642.18 1011.95,-633.27"/>
<polygon fill="#63b8ff" stroke="#63b8ff" points="1015.2,-634.59 1016.62,-624.09 1008.97,-631.41 1015.2,-634.59"/>
</a>
</g>
</g>
<!-- Node7 -->
<g id="Node000007" class="node">
<title>Node7</title>
<g id="a_Node000007"><a xlink:title=" ">
<polygon fill="#e0e0e0" stroke="#999999" points="1120,-624 1064,-624 1064,-605 1120,-605 1120,-624"/>
<text text-anchor="middle" x="1092" y="-612" font-family="Helvetica,sans-Serif" font-size="10.00">sstream</text>
</a>
</g>
</g>
<!-- Node1&#45;&gt;Node7 -->
<g id="edge6_Node000001_Node000007" class="edge">
<title>Node1&#45;&gt;Node7</title>
<g id="a_edge6_Node000001_Node000007"><a xlink:title=" ">
<path fill="none" stroke="#63b8ff" d="M1009.75,-659.98C1025.23,-651.61 1049.09,-638.7 1067.14,-628.95"/>
<polygon fill="#63b8ff" stroke="#63b8ff" points="1068.84,-632.01 1075.97,-624.17 1065.51,-625.85 1068.84,-632.01"/>
</a>
</g>
</g>
<!-- Node8 -->
<g id="Node000008" class="node">
<title>Node8</title>
<g id="a_Node000008"><a xlink:href="CCSDSPack_8h.html" target="_top" xlink:title=" ">
<polygon fill="white" stroke="#666666" points="560.5,-624 479.5,-624 479.5,-605 560.5,-605 560.5,-624"/>
<text text-anchor="middle" x="520" y="-612" font-family="Helvetica,sans-Serif" font-size="10.00">CCSDSPack.h</text>
</a>
</g>
</g>
<!-- Node1&#45;&gt;Node8 -->
<g id="edge7_Node000001_Node000008" class="edge">
<title>Node1&#45;&gt;Node8</title>
<g id="a_edge7_Node000001_Node000008"><a xlink:title=" ">
<path fill="none" stroke="#63b8ff" d="M933.97,-661.79C839.67,-651.24 658.55,-630.99 570.52,-621.15"/>
<polygon fill="#63b8ff" stroke="#63b8ff" points="570.83,-617.66 560.51,-620.03 570.06,-624.62 570.83,-617.66"/>
</a>
</g>
</g>
<!-- Node25 -->
<g id="Node000025" class="node">
<title>Node25</title>
<g id="a_Node000025"><a xlink:href="exec__utils_8h.html" target="_top" xlink:title=" ">
<polygon fill="white" stroke="#666666" points="1004,-129 930,-129 930,-110 1004,-110 1004,-129"/>
<text text-anchor="middle" x="967" y="-117" font-family="Helvetica,sans-Serif" font-size="10.00">exec_utils.h</text>
</a>
</g>
</g>
<!-- Node1&#45;&gt;Node25 -->
<g id="edge63_Node000001_Node000025" class="edge">
<title>Node1&#45;&gt;Node25</title>
<g id="a_edge63_Node000001_Node000025"><a xlink:title=" ">
<path fill="none" stroke="#63b8ff" d="M1054.17,-664.28C1081.66,-658.99 1111.86,-647.69 1129,-624 1133.95,-617.16 1130.36,-613.33 1129,-605 1098.25,-415.91 1004.06,-200.98 975.38,-138.44"/>
<polygon fill="#63b8ff" stroke="#63b8ff" points="978.45,-136.75 971.08,-129.15 972.1,-139.69 978.45,-136.75"/>
</a>
</g>
</g>
<!-- Node9 -->
<g id="Node000009" class="node">
<title>Node9</title>
<g id="a_Node000009"><a xlink:href="CCSDSDataField_8h.html" target="_top" xlink:title=" ">
<polygon fill="white" stroke="#666666" points="749.5,-349 644.5,-349 644.5,-330 749.5,-330 749.5,-349"/>
<text text-anchor="middle" x="697" y="-337" font-family="Helvetica,sans-Serif" font-size="10.00">CCSDSDataField.h</text>
</a>
</g>
</g>
<!-- Node8&#45;&gt;Node9 -->
<g id="edge8_Node000008_Node000009" class="edge">
<title>Node8&#45;&gt;Node9</title>
<g id="a_edge8_Node000008_Node000009"><a xlink:title=" ">
<path fill="none" stroke="#63b8ff" d="M560.62,-611.49C594.61,-607.74 642.33,-597.36 673,-569 695.15,-548.52 697,-535.67 697,-505.5 697,-505.5 697,-505.5 697,-448.5 697,-417.19 697,-380.77 697,-359.23"/>
<polygon fill="#63b8ff" stroke="#63b8ff" points="700.5,-359.18 697,-349.18 693.5,-359.18 700.5,-359.18"/>
</a>
</g>
</g>
<!-- Node10 -->
<g id="Node000010" class="node">
<title>Node10</title>
<g id="a_Node000010"><a xlink:href="CCSDSResult_8h.html" target="_top" xlink:title=" ">
<polygon fill="white" stroke="#666666" points="322.5,-74 233.5,-74 233.5,-55 322.5,-55 322.5,-74"/>
<text text-anchor="middle" x="278" y="-62" font-family="Helvetica,sans-Serif" font-size="10.00">CCSDSResult.h</text>
</a>
</g>
</g>
<!-- Node8&#45;&gt;Node10 -->
<g id="edge52_Node000008_Node000010" class="edge">
<title>Node8&#45;&gt;Node10</title>
<g id="a_edge52_Node000008_Node000010"><a xlink:title=" ">
<path fill="none" stroke="#63b8ff" d="M479.39,-611.39C376.19,-604.91 112,-580.97 112,-505.5 112,-505.5 112,-505.5 112,-283.5 112,-198.02 135.96,-171.82 195,-110 208.4,-95.96 227.22,-85.38 243.55,-78.06"/>
<polygon fill="#63b8ff" stroke="#63b8ff" points="244.98,-81.25 252.82,-74.13 242.25,-74.81 244.98,-81.25"/>
</a>
</g>
</g>
<!-- Node14 -->
<g id="Node000014" class="node">
<title>Node14</title>
<g id="a_Node000014"><a xlink:href="CCSDSSecondaryHeaderAbstract_8h.html" target="_top" xlink:title=" ">
<polygon fill="white" stroke="#666666" points="552.5,-184 367.5,-184 367.5,-165 552.5,-165 552.5,-184"/>
<text text-anchor="middle" x="460" y="-172" font-family="Helvetica,sans-Serif" font-size="10.00">CCSDSSecondaryHeaderAbstract.h</text>
</a>
</g>
</g>
<!-- Node8&#45;&gt;Node14 -->
<g id="edge53_Node000008_Node000014" class="edge">
<title>Node8&#45;&gt;Node14</title>
<g id="a_edge53_Node000008_Node000014"><a xlink:title=" ">
<path fill="none" stroke="#63b8ff" d="M516.71,-604.77C513.5,-595.89 508.71,-581.67 506,-569 475.6,-426.79 464.04,-251.07 460.93,-194.19"/>
<polygon fill="#63b8ff" stroke="#63b8ff" points="464.43,-193.99 460.41,-184.18 457.44,-194.35 464.43,-193.99"/>
</a>
</g>
</g>
<!-- Node15 -->
<g id="Node000015" class="node">
<title>Node15</title>
<g id="a_Node000015"><a xlink:href="CCSDSConfig_8h.html" target="_top" xlink:title=" ">
<polygon fill="white" stroke="#666666" points="601.5,-129 512.5,-129 512.5,-110 601.5,-110 601.5,-129"/>
<text text-anchor="middle" x="557" y="-117" font-family="Helvetica,sans-Serif" font-size="10.00">CCSDSConfig.h</text>
</a>
</g>
</g>
<!-- Node8&#45;&gt;Node15 -->
<g id="edge62_Node000008_Node000015" class="edge">
<title>Node8&#45;&gt;Node15</title>
<g id="a_edge62_Node000008_Node000015"><a xlink:title=" ">
<path fill="none" stroke="#63b8ff" d="M560.52,-610.37C656.93,-601.81 892,-573.93 892,-505.5 892,-505.5 892,-505.5 892,-283.5 892,-225.06 881.86,-199.93 835,-165 800.59,-139.35 682.57,-127.95 611.84,-123.32"/>
<polygon fill="#63b8ff" stroke="#63b8ff" points="611.96,-119.82 601.76,-122.69 611.52,-126.81 611.96,-119.82"/>
</a>
</g>
</g>
<!-- Node16 -->
<g id="Node000016" class="node">
<title>Node16</title>
<g id="a_Node000016"><a xlink:href="CCSDSSecondaryHeaderFactory_8h.html" target="_top" xlink:title=" ">
<polygon fill="white" stroke="#666666" points="787.5,-239 608.5,-239 608.5,-220 787.5,-220 787.5,-239"/>
<text text-anchor="middle" x="698" y="-227" font-family="Helvetica,sans-Serif" font-size="10.00">CCSDSSecondaryHeaderFactory.h</text>
</a>
</g>
</g>
<!-- Node8&#45;&gt;Node16 -->
<g id="edge54_Node000008_Node000016" class="edge">
<title>Node8&#45;&gt;Node16</title>
<g id="a_edge54_Node000008_Node000016"><a xlink:title=" ">
<path fill="none" stroke="#63b8ff" d="M560.6,-614.1C633.25,-612.83 778,-598.61 778,-505.5 778,-505.5 778,-505.5 778,-393.5 778,-334.65 735.46,-274.95 712.42,-246.93"/>
<polygon fill="#63b8ff" stroke="#63b8ff" points="715.09,-244.67 705.96,-239.29 709.74,-249.19 715.09,-244.67"/>
</a>
</g>
</g>
<!-- Node18 -->
<g id="Node000018" class="node">
<title>Node18</title>
<g id="a_Node000018"><a xlink:href="PusServices_8h.html" target="_top" xlink:title=" ">
<polygon fill="white" stroke="#666666" points="578,-294 494,-294 494,-275 578,-275 578,-294"/>
<text text-anchor="middle" x="536" y="-282" font-family="Helvetica,sans-Serif" font-size="10.00">PusServices.h</text>
</a>
</g>
</g>
<!-- Node8&#45;&gt;Node18 -->
<g id="edge61_Node000008_Node000018" class="edge">
<title>Node8&#45;&gt;Node18</title>
<g id="a_edge61_Node000008_Node000018"><a xlink:title=" ">
<path fill="none" stroke="#63b8ff" d="M550.16,-604.91C591.04,-591.21 659,-560.2 659,-505.5 659,-505.5 659,-505.5 659,-448.5 659,-382.16 593.27,-325.7 557.91,-300.14"/>
<polygon fill="#63b8ff" stroke="#63b8ff" points="559.83,-297.2 549.63,-294.31 555.8,-302.93 559.83,-297.2"/>
</a>
</g>
</g>
<!-- Node19 -->
<g id="Node000019" class="node">
<title>Node19</title>
<g id="a_Node000019"><a xlink:href="CCSDSHeader_8h.html" target="_top" xlink:title=" ">
<polygon fill="white" stroke="#666666" points="121.5,-129 28.5,-129 28.5,-110 121.5,-110 121.5,-129"/>
<text text-anchor="middle" x="75" y="-117" font-family="Helvetica,sans-Serif" font-size="10.00">CCSDSHeader.h</text>
</a>
</g>
</g>
<!-- Node8&#45;&gt;Node19 -->
<g id="edge37_Node000008_Node000019" class="edge">
<title>Node8&#45;&gt;Node19</title>
<g id="a_edge37_Node000008_Node000019"><a xlink:title=" ">
<path fill="none" stroke="#63b8ff" d="M479.26,-611.62C379.29,-606.65 127.82,-592.01 98,-569 74.11,-550.57 74,-535.67 74,-505.5 74,-505.5 74,-505.5 74,-228.5 74,-197.19 74.43,-160.77 74.72,-139.23"/>
<polygon fill="#63b8ff" stroke="#63b8ff" points="78.22,-139.23 74.87,-129.18 71.22,-139.13 78.22,-139.23"/>
</a>
</g>
</g>
<!-- Node20 -->
<g id="Node000020" class="node">
<title>Node20</title>
<g id="a_Node000020"><a xlink:href="CCSDSManager_8h.html" target="_top" xlink:title=" ">
<polygon fill="white" stroke="#666666" points="408.5,-514 307.5,-514 307.5,-495 408.5,-495 408.5,-514"/>
<text text-anchor="middle" x="358" y="-502" font-family="Helvetica,sans-Serif" font-size="10.00">CCSDSManager.h</text>
</a>
</g>
</g>
<!-- Node8&#45;&gt;Node20 -->
<g id="edge41_Node000008_Node000020" class="edge">
<title>Node8&#45;&gt;Node20</title>
<g id="a_edge41_Node000008_Node000020"><a xlink:title=" ">
<path fill="none" stroke="#63b8ff" d="M507.02,-604.84C479.17,-586.28 413.48,-542.49 379.38,-519.75"/>
<polygon fill="#63b8ff" stroke="#63b8ff" points="381.31,-516.83 371.05,-514.2 377.42,-522.66 381.31,-516.83"/>
</a>
</g>
</g>
<!-- Node22 -->
<g id="Node000022" class="node">
<title>Node22</title>
<g id="a_Node000022"><a xlink:href="CCSDSPacket_8h.html" target="_top" xlink:title=" ">
<polygon fill="white" stroke="#666666" points="281,-404 191,-404 191,-385 281,-385 281,-404"/>
<text text-anchor="middle" x="236" y="-392" font-family="Helvetica,sans-Serif" font-size="10.00">CCSDSPacket.h</text>
</a>
</g>
</g>
<!-- Node8&#45;&gt;Node22 -->
<g id="edge51_Node000008_Node000022" class="edge">
<title>Node8&#45;&gt;Node22</title>
<g id="a_edge51_Node000008_Node000022"><a xlink:title=" ">
<path fill="none" stroke="#63b8ff" d="M479.3,-610.33C401.51,-601.78 233.69,-570.61 169,-459 156.92,-438.16 182.12,-419.9 204.99,-408.38"/>
<polygon fill="#63b8ff" stroke="#63b8ff" points="206.66,-411.46 214.2,-404.01 203.67,-405.13 206.66,-411.46"/>
</a>
</g>
</g>
<!-- Node23 -->
<g id="Node000023" class="node">
<title>Node23</title>
<g id="a_Node000023"><a xlink:href="CCSDSValidator_8h.html" target="_top" xlink:title="Defines the Validator class for CCSDS packet validation.">
<polygon fill="white" stroke="#666666" points="279.5,-459 178.5,-459 178.5,-440 279.5,-440 279.5,-459"/>
<text text-anchor="middle" x="229" y="-447" font-family="Helvetica,sans-Serif" font-size="10.00">CCSDSValidator.h</text>
</a>
</g>
</g>
<!-- Node8&#45;&gt;Node23 -->
<g id="edge60_Node000008_Node000023" class="edge">
<title>Node8&#45;&gt;Node23</title>
<g id="a_edge60_Node000008_Node000023"><a xlink:title=" ">
<path fill="none" stroke="#63b8ff" d="M494,-604.95C451.07,-590.16 363.6,-557.22 298,-514 277.32,-500.37 256.85,-480.51 243.64,-466.65"/>
<polygon fill="#63b8ff" stroke="#63b8ff" points="246.14,-464.19 236.76,-459.26 241.02,-468.96 246.14,-464.19"/>
</a>
</g>
</g>
<!-- Node24 -->
<g id="Node000024" class="node">
<title>Node24</title>
<g id="a_Node000024"><a xlink:href="CCSDSUtils_8h.html" target="_top" xlink:title=" ">
<polygon fill="white" stroke="#666666" points="595.5,-569 514.5,-569 514.5,-550 595.5,-550 595.5,-569"/>
<text text-anchor="middle" x="555" y="-557" font-family="Helvetica,sans-Serif" font-size="10.00">CCSDSUtils.h</text>
</a>
</g>
</g>
<!-- Node8&#45;&gt;Node24 -->
<g id="edge55_Node000008_Node000024" class="edge">
<title>Node8&#45;&gt;Node24</title>
<g id="a_edge55_Node000008_Node000024"><a xlink:title=" ">
<path fill="none" stroke="#63b8ff" d="M525.78,-604.75C530.62,-597.42 537.68,-586.73 543.64,-577.7"/>
<polygon fill="#63b8ff" stroke="#63b8ff" points="546.74,-579.36 549.33,-569.09 540.9,-575.5 546.74,-579.36"/>
</a>
</g>
</g>
<!-- Node9&#45;&gt;Node4 -->
<g id="edge14_Node000009_Node000004" class="edge">
<title>Node9&#45;&gt;Node4</title>
<g id="a_edge14_Node000009_Node000004"><a xlink:title=" ">
<path fill="none" stroke="#63b8ff" d="M717.59,-329.99C802.83,-293.81 1117.83,-150.34 992,-55 955.83,-27.59 641.51,-14.99 536.78,-11.53"/>
<polygon fill="#63b8ff" stroke="#63b8ff" points="536.86,-8.03 526.76,-11.2 536.64,-15.02 536.86,-8.03"/>
</a>
</g>
</g>
<!-- Node9&#45;&gt;Node10 -->
<g id="edge9_Node000009_Node000010" class="edge">
<title>Node9&#45;&gt;Node10</title>
<g id="a_edge9_Node000009_Node000010"><a xlink:title=" ">
<path fill="none" stroke="#63b8ff" d="M644.29,-333.29C600.3,-327.59 536.68,-316.13 485,-294 383.11,-250.37 347.3,-228.27 298,-129 290.84,-114.59 285.55,-97.07 282.22,-84.09"/>
<polygon fill="#63b8ff" stroke="#63b8ff" points="285.54,-82.94 279.79,-74.04 278.74,-84.58 285.54,-82.94"/>
</a>
</g>
</g>
<!-- Node13 -->
<g id="Node000013" class="node">
<title>Node13</title>
<g id="a_Node000013"><a xlink:title=" ">
<polygon fill="#e0e0e0" stroke="#999999" points="826,-184 768,-184 768,-165 826,-165 826,-184"/>
<text text-anchor="middle" x="797" y="-172" font-family="Helvetica,sans-Serif" font-size="10.00">memory</text>
</a>
</g>
</g>
<!-- Node9&#45;&gt;Node13 -->
<g id="edge15_Node000009_Node000013" class="edge">
<title>Node9&#45;&gt;Node13</title>
<g id="a_edge15_Node000009_Node000013"><a xlink:title=" ">
<path fill="none" stroke="#63b8ff" d="M705.97,-329.94C730.07,-306.89 794.56,-244.88 797,-239 802.89,-224.83 802.37,-207.29 800.68,-194.24"/>
<polygon fill="#63b8ff" stroke="#63b8ff" points="804.09,-193.42 799.01,-184.12 797.18,-194.56 804.09,-193.42"/>
</a>
</g>
</g>
<!-- Node9&#45;&gt;Node14 -->
<g id="edge16_Node000009_Node000014" class="edge">
<title>Node9&#45;&gt;Node14</title>
<g id="a_edge16_Node000009_Node000014"><a xlink:title=" ">
<path fill="none" stroke="#63b8ff" d="M684.59,-329.97C646.21,-303.57 529.09,-223.02 480.98,-189.93"/>
<polygon fill="#63b8ff" stroke="#63b8ff" points="482.79,-186.93 472.57,-184.15 478.83,-192.7 482.79,-186.93"/>
</a>
</g>
</g>
<!-- Node9&#45;&gt;Node16 -->
<g id="edge26_Node000009_Node000016" class="edge">
<title>Node9&#45;&gt;Node16</title>
<g id="a_edge26_Node000009_Node000016"><a xlink:title=" ">
<path fill="none" stroke="#63b8ff" d="M697.08,-329.66C697.24,-312.17 697.61,-272.8 697.83,-249.27"/>
<polygon fill="#63b8ff" stroke="#63b8ff" points="701.33,-249.19 697.92,-239.16 694.33,-249.13 701.33,-249.19"/>
</a>
</g>
</g>
<!-- Node9&#45;&gt;Node18 -->
<g id="edge32_Node000009_Node000018" class="edge">
<title>Node9&#45;&gt;Node18</title>
<g id="a_edge32_Node000009_Node000018"><a xlink:title=" ">
<path fill="none" stroke="#63b8ff" d="M671.13,-329.98C644.22,-321.13 601.88,-307.19 571.77,-297.28"/>
<polygon fill="#63b8ff" stroke="#63b8ff" points="572.66,-293.88 562.07,-294.08 570.47,-300.53 572.66,-293.88"/>
</a>
</g>
</g>
<!-- Node10&#45;&gt;Node4 -->
<g id="edge11_Node000010_Node000004" class="edge">
<title>Node10&#45;&gt;Node4</title>
<g id="a_edge11_Node000010_Node000004"><a xlink:title=" ">
<path fill="none" stroke="#63b8ff" d="M314.15,-54.98C356.98,-44.9 427.76,-28.22 469.43,-18.41"/>
<polygon fill="#63b8ff" stroke="#63b8ff" points="470.43,-21.77 479.36,-16.07 468.83,-14.95 470.43,-21.77"/>
</a>
</g>
</g>
<!-- Node10&#45;&gt;Node5 -->
<g id="edge13_Node000010_Node000005" class="edge">
<title>Node10&#45;&gt;Node5</title>
<g id="a_edge13_Node000010_Node000005"><a xlink:title=" ">
<path fill="none" stroke="#63b8ff" d="M250.2,-54.98C221.03,-46.05 175,-31.94 142.6,-22.02"/>
<polygon fill="#63b8ff" stroke="#63b8ff" points="143.6,-18.66 133.01,-19.08 141.55,-25.36 143.6,-18.66"/>
</a>
</g>
</g>
<!-- Node11 -->
<g id="Node000011" class="node">
<title>Node11</title>
<g id="a_Node000011"><a xlink:title=" ">
<polygon fill="#e0e0e0" stroke="#999999" points="303.5,-19 252.5,-19 252.5,0 303.5,0 303.5,-19"/>
<text text-anchor="middle" x="278" y="-7" font-family="Helvetica,sans-Serif" font-size="10.00">variant</text>
</a>
</g>
</g>
<!-- Node10&#45;&gt;Node11 -->
<g id="edge10_Node000010_Node000011" class="edge">
<title>Node10&#45;&gt;Node11</title>
<g id="a_edge10_Node000010_Node000011"><a xlink:title=" ">
<path fill="none" stroke="#63b8ff" d="M278,-54.75C278,-47.8 278,-37.85 278,-29.13"/>
<polygon fill="#63b8ff" stroke="#63b8ff" points="281.5,-29.09 278,-19.09 274.5,-29.09 281.5,-29.09"/>
</a>
</g>
</g>
<!-- Node12 -->
<g id="Node000012" class="node">
<title>Node12</title>
<g id="a_Node000012"><a xlink:title=" ">
<polygon fill="#e0e0e0" stroke="#999999" points="378,-19 328,-19 328,0 378,0 378,-19"/>
<text text-anchor="middle" x="353" y="-7" font-family="Helvetica,sans-Serif" font-size="10.00">cstdint</text>
</a>
</g>
</g>
<!-- Node10&#45;&gt;Node12 -->
<g id="edge12_Node000010_Node000012" class="edge">
<title>Node10&#45;&gt;Node12</title>
<g id="a_edge12_Node000010_Node000012"><a xlink:title=" ">
<path fill="none" stroke="#63b8ff" d="M290.05,-54.98C301.46,-46.92 318.83,-34.65 332.43,-25.03"/>
<polygon fill="#63b8ff" stroke="#63b8ff" points="334.58,-27.8 340.73,-19.17 330.54,-22.08 334.58,-27.8"/>
</a>
</g>
</g>
<!-- Node14&#45;&gt;Node4 -->
<g id="edge18_Node000014_Node000004" class="edge">
<title>Node14&#45;&gt;Node4</title>
<g id="a_edge18_Node000014_Node000004"><a xlink:title=" ">
<path fill="none" stroke="#63b8ff" d="M462.31,-164.74C469.05,-139.2 488.77,-64.43 498.06,-29.23"/>
<polygon fill="#63b8ff" stroke="#63b8ff" points="501.51,-29.87 500.68,-19.31 494.74,-28.08 501.51,-29.87"/>
</a>
</g>
</g>
<!-- Node14&#45;&gt;Node10 -->
<g id="edge17_Node000014_Node000010" class="edge">
<title>Node14&#45;&gt;Node10</title>
<g id="a_edge17_Node000014_Node000010"><a xlink:title=" ">
<path fill="none" stroke="#63b8ff" d="M445.41,-164.84C413.92,-146.16 339.33,-101.9 301.25,-79.3"/>
<polygon fill="#63b8ff" stroke="#63b8ff" points="302.79,-76.14 292.4,-74.05 299.22,-82.16 302.79,-76.14"/>
</a>
</g>
</g>
<!-- Node14&#45;&gt;Node12 -->
<g id="edge19_Node000014_Node000012" class="edge">
<title>Node14&#45;&gt;Node12</title>
<g id="a_edge19_Node000014_Node000012"><a xlink:title=" ">
<path fill="none" stroke="#63b8ff" d="M454.25,-164.74C437.27,-138.87 387.12,-62.48 364.41,-27.88"/>
<polygon fill="#63b8ff" stroke="#63b8ff" points="367.19,-25.75 358.78,-19.31 361.34,-29.59 367.19,-25.75"/>
</a>
</g>
</g>
<!-- Node14&#45;&gt;Node15 -->
<g id="edge20_Node000014_Node000015" class="edge">
<title>Node14&#45;&gt;Node15</title>
<g id="a_edge20_Node000014_Node000015"><a xlink:title=" ">
<path fill="none" stroke="#63b8ff" d="M475.58,-164.98C490.77,-156.69 514.1,-143.94 531.9,-134.22"/>
<polygon fill="#63b8ff" stroke="#63b8ff" points="534.03,-137.04 541.13,-129.17 530.68,-130.89 534.03,-137.04"/>
</a>
</g>
</g>
<!-- Node15&#45;&gt;Node2 -->
<g id="edge25_Node000015_Node000002" class="edge">
<title>Node15&#45;&gt;Node2</title>
<g id="a_edge25_Node000015_Node000002"><a xlink:title=" ">
<path fill="none" stroke="#63b8ff" d="M601.53,-110.28C651.78,-101 733.59,-85.89 788.09,-75.82"/>
<polygon fill="#63b8ff" stroke="#63b8ff" points="788.74,-79.26 797.94,-74.01 787.47,-72.38 788.74,-79.26"/>
</a>
</g>
</g>
<!-- Node15&#45;&gt;Node3 -->
<g id="edge21_Node000015_Node000003" class="edge">
<title>Node15&#45;&gt;Node3</title>
<g id="a_edge21_Node000015_Node000003"><a xlink:title=" ">
<path fill="none" stroke="#63b8ff" d="M581.26,-109.98C607.06,-100.93 647.98,-86.56 676.32,-76.62"/>
<polygon fill="#63b8ff" stroke="#63b8ff" points="677.49,-79.92 685.77,-73.3 675.17,-73.31 677.49,-79.92"/>
</a>
</g>
</g>
<!-- Node15&#45;&gt;Node4 -->
<g id="edge23_Node000015_Node000004" class="edge">
<title>Node15&#45;&gt;Node4</title>
<g id="a_edge23_Node000015_Node000004"><a xlink:title=" ">
<path fill="none" stroke="#63b8ff" d="M552.58,-109.66C543.72,-91.93 523.61,-51.73 511.91,-28.32"/>
<polygon fill="#63b8ff" stroke="#63b8ff" points="514.93,-26.54 507.33,-19.16 508.67,-29.67 514.93,-26.54"/>
</a>
</g>
</g>
<!-- Node15&#45;&gt;Node10 -->
<g id="edge24_Node000015_Node000010" class="edge">
<title>Node15&#45;&gt;Node10</title>
<g id="a_edge24_Node000015_Node000010"><a xlink:title=" ">
<path fill="none" stroke="#63b8ff" d="M512.48,-110.04C463.73,-100.78 385.51,-85.92 332.97,-75.94"/>
<polygon fill="#63b8ff" stroke="#63b8ff" points="333.3,-72.44 322.82,-74.01 331.99,-79.32 333.3,-72.44"/>
</a>
</g>
</g>
<!-- Node15&#45;&gt;Node12 -->
<g id="edge22_Node000015_Node000012" class="edge">
<title>Node15&#45;&gt;Node12</title>
<g id="a_edge22_Node000015_Node000012"><a xlink:title=" ">
<path fill="none" stroke="#63b8ff" d="M540.65,-109.84C505.05,-91 420.33,-46.14 377.98,-23.73"/>
<polygon fill="#63b8ff" stroke="#63b8ff" points="379.62,-20.63 369.14,-19.05 376.34,-26.82 379.62,-20.63"/>
</a>
</g>
</g>
<!-- Node16&#45;&gt;Node2 -->
<g id="edge28_Node000016_Node000002" class="edge">
<title>Node16&#45;&gt;Node2</title>
<g id="a_edge28_Node000016_Node000002"><a xlink:title=" ">
<path fill="none" stroke="#63b8ff" d="M705.85,-219.74C729.22,-193.65 798.61,-116.17 829.22,-82"/>
<polygon fill="#63b8ff" stroke="#63b8ff" points="832.05,-84.09 836.11,-74.31 826.83,-79.42 832.05,-84.09"/>
</a>
</g>
</g>
<!-- Node16&#45;&gt;Node3 -->
<g id="edge30_Node000016_Node000003" class="edge">
<title>Node16&#45;&gt;Node3</title>
<g id="a_edge30_Node000016_Node000003"><a xlink:title=" ">
<path fill="none" stroke="#63b8ff" d="M698.54,-219.74C700.1,-194.31 704.65,-120.08 706.82,-84.69"/>
<polygon fill="#63b8ff" stroke="#63b8ff" points="710.34,-84.5 707.46,-74.31 703.35,-84.07 710.34,-84.5"/>
</a>
</g>
</g>
<!-- Node16&#45;&gt;Node13 -->
<g id="edge27_Node000016_Node000013" class="edge">
<title>Node16&#45;&gt;Node13</title>
<g id="a_edge27_Node000016_Node000013"><a xlink:title=" ">
<path fill="none" stroke="#63b8ff" d="M713.91,-219.98C729.55,-211.61 753.66,-198.7 771.88,-188.95"/>
<polygon fill="#63b8ff" stroke="#63b8ff" points="773.64,-191.98 780.8,-184.17 770.34,-185.8 773.64,-191.98"/>
</a>
</g>
</g>
<!-- Node16&#45;&gt;Node14 -->
<g id="edge31_Node000016_Node000014" class="edge">
<title>Node16&#45;&gt;Node14</title>
<g id="a_edge31_Node000016_Node000014"><a xlink:title=" ">
<path fill="none" stroke="#63b8ff" d="M659.76,-219.98C618.59,-210.82 553.01,-196.21 508.3,-186.26"/>
<polygon fill="#63b8ff" stroke="#63b8ff" points="509.06,-182.84 498.54,-184.08 507.54,-189.67 509.06,-182.84"/>
</a>
</g>
</g>
<!-- Node17 -->
<g id="Node000017" class="node">
<title>Node17</title>
<g id="a_Node000017"><a xlink:title=" ">
<polygon fill="#e0e0e0" stroke="#999999" points="673.5,-184 608.5,-184 608.5,-165 673.5,-165 673.5,-184"/>
<text text-anchor="middle" x="641" y="-172" font-family="Helvetica,sans-Serif" font-size="10.00">functional</text>
</a>
</g>
</g>
<!-- Node16&#45;&gt;Node17 -->
<g id="edge29_Node000016_Node000017" class="edge">
<title>Node16&#45;&gt;Node17</title>
<g id="a_edge29_Node000016_Node000017"><a xlink:title=" ">
<path fill="none" stroke="#63b8ff" d="M688.84,-219.98C680.5,-212.23 667.97,-200.58 657.82,-191.14"/>
<polygon fill="#63b8ff" stroke="#63b8ff" points="660.03,-188.42 650.32,-184.17 655.26,-193.54 660.03,-188.42"/>
</a>
</g>
</g>
<!-- Node18&#45;&gt;Node10 -->
<g id="edge35_Node000018_Node000010" class="edge">
<title>Node18&#45;&gt;Node10</title>
<g id="a_edge35_Node000018_Node000010"><a xlink:title=" ">
<path fill="none" stroke="#63b8ff" d="M513.8,-274.95C478.11,-260.4 407.09,-228.05 359,-184 326.22,-153.97 299.79,-108.24 286.78,-83.28"/>
<polygon fill="#63b8ff" stroke="#63b8ff" points="289.83,-81.57 282.18,-74.24 283.59,-84.74 289.83,-81.57"/>
</a>
</g>
</g>
<!-- Node18&#45;&gt;Node14 -->
<g id="edge33_Node000018_Node000014" class="edge">
<title>Node18&#45;&gt;Node14</title>
<g id="a_edge33_Node000018_Node000014"><a xlink:title=" ">
<path fill="none" stroke="#63b8ff" d="M529.78,-274.66C517.14,-256.69 488.25,-215.64 471.88,-192.38"/>
<polygon fill="#63b8ff" stroke="#63b8ff" points="474.71,-190.32 466.09,-184.16 468.99,-194.35 474.71,-190.32"/>
</a>
</g>
</g>
<!-- Node18&#45;&gt;Node15 -->
<g id="edge36_Node000018_Node000015" class="edge">
<title>Node18&#45;&gt;Node15</title>
<g id="a_edge36_Node000018_Node000015"><a xlink:title=" ">
<path fill="none" stroke="#63b8ff" d="M539.06,-274.86C544.93,-257.78 557.59,-218.35 562,-184 563.08,-175.62 562.47,-173.43 562,-165 561.52,-156.45 560.53,-147.03 559.55,-139.06"/>
<polygon fill="#63b8ff" stroke="#63b8ff" points="563.01,-138.47 558.24,-129.01 556.07,-139.38 563.01,-138.47"/>
</a>
</g>
</g>
<!-- Node18&#45;&gt;Node16 -->
<g id="edge34_Node000018_Node000016" class="edge">
<title>Node18&#45;&gt;Node16</title>
<g id="a_edge34_Node000018_Node000016"><a xlink:title=" ">
<path fill="none" stroke="#63b8ff" d="M562.03,-274.98C589.11,-266.13 631.71,-252.19 662.01,-242.28"/>
<polygon fill="#63b8ff" stroke="#63b8ff" points="663.35,-245.52 671.77,-239.08 661.18,-238.87 663.35,-245.52"/>
</a>
</g>
</g>
<!-- Node19&#45;&gt;Node4 -->
<g id="edge40_Node000019_Node000004" class="edge">
<title>Node19&#45;&gt;Node4</title>
<g id="a_edge40_Node000019_Node000004"><a xlink:title=" ">
<path fill="none" stroke="#63b8ff" d="M91.49,-109.88C118.46,-96.15 174.01,-69.4 224,-55 310.43,-30.1 416.18,-18.04 469.24,-13.2"/>
<polygon fill="#63b8ff" stroke="#63b8ff" points="469.78,-16.67 479.43,-12.3 469.16,-9.69 469.78,-16.67"/>
</a>
</g>
</g>
<!-- Node19&#45;&gt;Node10 -->
<g id="edge38_Node000019_Node000010" class="edge">
<title>Node19&#45;&gt;Node10</title>
<g id="a_edge38_Node000019_Node000010"><a xlink:title=" ">
<path fill="none" stroke="#63b8ff" d="M107.62,-109.98C142.29,-100.93 197.26,-86.58 235.35,-76.64"/>
<polygon fill="#63b8ff" stroke="#63b8ff" points="236.34,-79.99 245.13,-74.08 234.57,-73.22 236.34,-79.99"/>
</a>
</g>
</g>
<!-- Node19&#45;&gt;Node12 -->
<g id="edge39_Node000019_Node000012" class="edge">
<title>Node19&#45;&gt;Node12</title>
<g id="a_edge39_Node000019_Node000012"><a xlink:title=" ">
<path fill="none" stroke="#63b8ff" d="M82.12,-109.99C94.19,-96.18 120.07,-69.01 148,-55 151.82,-53.08 260.28,-30.05 317.85,-17.9"/>
<polygon fill="#63b8ff" stroke="#63b8ff" points="318.58,-21.32 327.64,-15.83 317.13,-14.47 318.58,-21.32"/>
</a>
</g>
</g>
<!-- Node20&#45;&gt;Node10 -->
<g id="edge48_Node000020_Node000010" class="edge">
<title>Node20&#45;&gt;Node10</title>
<g id="a_edge48_Node000020_Node000010"><a xlink:title=" ">
<path fill="none" stroke="#63b8ff" d="M356.2,-494.82C347.74,-453.87 311.32,-275.9 287,-129 284.52,-114.03 282.13,-97 280.44,-84.35"/>
<polygon fill="#63b8ff" stroke="#63b8ff" points="283.87,-83.61 279.1,-74.15 276.93,-84.52 283.87,-83.61"/>
</a>
</g>
</g>
<!-- Node21 -->
<g id="Node000021" class="node">
<title>Node21</title>
<g id="a_Node000021"><a xlink:title=" ">
<polygon fill="#e0e0e0" stroke="#999999" points="419.5,-459 374.5,-459 374.5,-440 419.5,-440 419.5,-459"/>
<text text-anchor="middle" x="397" y="-447" font-family="Helvetica,sans-Serif" font-size="10.00">utility</text>
</a>
</g>
</g>
<!-- Node20&#45;&gt;Node21 -->
<g id="edge42_Node000020_Node000021" class="edge">
<title>Node20&#45;&gt;Node21</title>
<g id="a_edge42_Node000020_Node000021"><a xlink:title=" ">
<path fill="none" stroke="#63b8ff" d="M364.44,-494.75C369.89,-487.34 377.86,-476.5 384.56,-467.41"/>
<polygon fill="#63b8ff" stroke="#63b8ff" points="387.57,-469.22 390.68,-459.09 381.93,-465.07 387.57,-469.22"/>
</a>
</g>
</g>
<!-- Node20&#45;&gt;Node22 -->
<g id="edge43_Node000020_Node000022" class="edge">
<title>Node20&#45;&gt;Node22</title>
<g id="a_edge43_Node000020_Node000022"><a xlink:title=" ">
<path fill="none" stroke="#63b8ff" d="M348.57,-494.78C335.2,-482.47 309.91,-459.31 288,-440 276.86,-430.18 264.2,-419.34 254.16,-410.82"/>
<polygon fill="#63b8ff" stroke="#63b8ff" points="256.33,-408.07 246.44,-404.28 251.81,-413.41 256.33,-408.07"/>
</a>
</g>
</g>
<!-- Node20&#45;&gt;Node23 -->
<g id="edge49_Node000020_Node000023" class="edge">
<title>Node20&#45;&gt;Node23</title>
<g id="a_edge49_Node000020_Node000023"><a xlink:title=" ">
<path fill="none" stroke="#63b8ff" d="M337.27,-494.98C316.24,-486.34 283.45,-472.87 259.46,-463.02"/>
<polygon fill="#63b8ff" stroke="#63b8ff" points="260.68,-459.73 250.1,-459.17 258.02,-466.21 260.68,-459.73"/>
</a>
</g>
</g>
<!-- Node22&#45;&gt;Node4 -->
<g id="edge45_Node000022_Node000004" class="edge">
<title>Node22&#45;&gt;Node4</title>
<g id="a_edge45_Node000022_Node000004"><a xlink:title=" ">
<path fill="none" stroke="#63b8ff" d="M239.73,-384.74C253.27,-353.39 302.03,-244.45 359,-165 398.86,-109.4 457.11,-52.78 485.77,-26.16"/>
<polygon fill="#63b8ff" stroke="#63b8ff" points="488.36,-28.53 493.35,-19.18 483.62,-23.38 488.36,-28.53"/>
</a>
</g>
</g>
<!-- Node22&#45;&gt;Node9 -->
<g id="edge47_Node000022_Node000009" class="edge">
<title>Node22&#45;&gt;Node9</title>
<g id="a_edge47_Node000022_Node000009"><a xlink:title=" ">
<path fill="none" stroke="#63b8ff" d="M281.04,-388.32C363.78,-378.81 540.11,-358.54 634.42,-347.69"/>
<polygon fill="#63b8ff" stroke="#63b8ff" points="634.86,-351.17 644.4,-346.55 634.06,-344.21 634.86,-351.17"/>
</a>
</g>
</g>
<!-- Node22&#45;&gt;Node10 -->
<g id="edge44_Node000022_Node000010" class="edge">
<title>Node22&#45;&gt;Node10</title>
<g id="a_edge44_Node000022_Node000010"><a xlink:title=" ">
<path fill="none" stroke="#63b8ff" d="M229.12,-384.84C215.85,-367.23 188,-325.51 188,-285.5 188,-285.5 188,-285.5 188,-173.5 188,-143.33 193.28,-133.66 212,-110 222.21,-97.09 237.21,-86.57 250.32,-79"/>
<polygon fill="#63b8ff" stroke="#63b8ff" points="252.35,-81.88 259.45,-74.01 248.99,-75.73 252.35,-81.88"/>
</a>
</g>
</g>
<!-- Node22&#45;&gt;Node19 -->
<g id="edge46_Node000022_Node000019" class="edge">
<title>Node22&#45;&gt;Node19</title>
<g id="a_edge46_Node000022_Node000019"><a xlink:title=" ">
<path fill="none" stroke="#63b8ff" d="M219.33,-384.89C205.62,-377.09 186.47,-364.47 174,-349 145.93,-314.19 98.57,-186.41 81.43,-138.66"/>
<polygon fill="#63b8ff" stroke="#63b8ff" points="84.66,-137.28 78,-129.04 78.07,-139.64 84.66,-137.28"/>
</a>
</g>
</g>
<!-- Node23&#45;&gt;Node22 -->
<g id="edge50_Node000023_Node000022" class="edge">
<title>Node23&#45;&gt;Node22</title>
<g id="a_edge50_Node000023_Node000022"><a xlink:title=" ">
<path fill="none" stroke="#63b8ff" d="M230.16,-439.75C231.07,-432.8 232.39,-422.85 233.54,-414.13"/>
<polygon fill="#63b8ff" stroke="#63b8ff" points="237.03,-414.46 234.87,-404.09 230.09,-413.54 237.03,-414.46"/>
</a>
</g>
</g>
<!-- Node24&#45;&gt;Node3 -->
<g id="edge58_Node000024_Node000003" class="edge">
<title>Node24&#45;&gt;Node3</title>
<g id="a_edge58_Node000024_Node000003"><a xlink:title=" ">
<path fill="none" stroke="#63b8ff" d="M554.79,-549.75C554.6,-521.39 558.04,-431.17 607,-385 657.51,-337.37 704.73,-392.3 759,-349 822.11,-298.64 819.73,-263.28 835,-184 845.11,-131.5 780.31,-94.88 739.5,-77.33"/>
<polygon fill="#63b8ff" stroke="#63b8ff" points="740.78,-74.07 730.2,-73.48 738.1,-80.54 740.78,-74.07"/>
</a>
</g>
</g>
<!-- Node24&#45;&gt;Node4 -->
<g id="edge59_Node000024_Node000004" class="edge">
<title>Node24&#45;&gt;Node4</title>
<g id="a_edge59_Node000024_Node000004"><a xlink:title=" ">
<path fill="none" stroke="#63b8ff" d="M568.03,-549.9C649.18,-496.2 1082,-208.3 1082,-175.5 1082,-175.5 1082,-175.5 1082,-118.5 1082,-77.47 1052.42,-71.83 1015,-55 929.13,-16.38 636.83,-11.19 536.86,-10.56"/>
<polygon fill="#63b8ff" stroke="#63b8ff" points="536.73,-7.06 526.71,-10.51 536.69,-14.06 536.73,-7.06"/>
</a>
</g>
</g>
<!-- Node24&#45;&gt;Node20 -->
<g id="edge57_Node000024_Node000020" class="edge">
<title>Node24&#45;&gt;Node20</title>
<g id="a_edge57_Node000024_Node000020"><a xlink:title=" ">
<path fill="none" stroke="#63b8ff" d="M523.35,-549.98C489.84,-540.97 436.8,-526.7 399.86,-516.76"/>
<polygon fill="#63b8ff" stroke="#63b8ff" points="400.47,-513.3 389.9,-514.08 398.65,-520.06 400.47,-513.3"/>
</a>
</g>
</g>
<!-- Node24&#45;&gt;Node22 -->
<g id="edge56_Node000024_Node000022" class="edge">
<title>Node24&#45;&gt;Node22</title>
<g id="a_edge56_Node000024_Node000022"><a xlink:title=" ">
<path fill="none" stroke="#63b8ff" d="M548.46,-549.72C531.43,-527.55 483.3,-469.01 429,-440 386.03,-417.05 331.52,-405.87 291.39,-400.46"/>
<polygon fill="#63b8ff" stroke="#63b8ff" points="291.62,-396.96 281.26,-399.18 290.74,-403.91 291.62,-396.96"/>
</a>
</g>
</g>
<!-- Node25&#45;&gt;Node2 -->
<g id="edge66_Node000025_Node000002" class="edge">
<title>Node25&#45;&gt;Node2</title>
<g id="a_edge66_Node000025_Node000002"><a xlink:title=" ">
<path fill="none" stroke="#63b8ff" d="M947.24,-109.98C927.27,-101.38 896.2,-87.99 873.35,-78.15"/>
<polygon fill="#63b8ff" stroke="#63b8ff" points="874.69,-74.91 864.12,-74.17 871.92,-81.34 874.69,-74.91"/>
</a>
</g>
</g>
<!-- Node25&#45;&gt;Node10 -->
<g id="edge65_Node000025_Node000010" class="edge">
<title>Node25&#45;&gt;Node10</title>
<g id="a_edge65_Node000025_Node000010"><a xlink:title=" ">
<path fill="none" stroke="#63b8ff" d="M929.96,-115.65C815.68,-106.86 468.19,-80.13 332.81,-69.72"/>
<polygon fill="#63b8ff" stroke="#63b8ff" points="332.91,-66.21 322.67,-68.94 332.37,-73.19 332.91,-66.21"/>
</a>
</g>
</g>
<!-- Node26 -->
<g id="Node000026" class="node">
<title>Node26</title>
<g id="a_Node000026"><a xlink:title=" ">
<polygon fill="#e0e0e0" stroke="#999999" points="983,-74 951,-74 951,-55 983,-55 983,-74"/>
<text text-anchor="middle" x="967" y="-62" font-family="Helvetica,sans-Serif" font-size="10.00">set</text>
</a>
</g>
</g>
<!-- Node25&#45;&gt;Node26 -->
<g id="edge64_Node000025_Node000026" class="edge">
<title>Node25&#45;&gt;Node26</title>
<g id="a_edge64_Node000025_Node000026"><a xlink:title=" ">
<path fill="none" stroke="#63b8ff" d="M967,-109.75C967,-102.8 967,-92.85 967,-84.13"/>
<polygon fill="#63b8ff" stroke="#63b8ff" points="970.5,-84.09 967,-74.09 963.5,-84.09 970.5,-84.09"/>
</a>
</g>
</g>
</g>
</svg>
