<?xml version="1.0" encoding="UTF-8" standalone="no"?>
<!DOCTYPE svg PUBLIC "-//W3C//DTD SVG 1.1//EN"
 "http://www.w3.org/Graphics/SVG/1.1/DTD/svg11.dtd">
<!-- Generated by graphviz version 2.43.0 (0)
 -->
<!-- Title: main Pages: 1 -->
<svg width="1082pt" height="836pt"
 viewBox="0.00 0.00 1082.00 836.00" xmlns="http://www.w3.org/2000/svg" xmlns:xlink="http://www.w3.org/1999/xlink">
<g id="graph0" class="graph" transform="scale(1 1) rotate(0) translate(4 832)">
<title>main</title>
<!-- Node1 -->
<g id="Node000001" class="node">
<title>Node1</title>
<g id="a_Node000001"><a xlink:title=" ">
<polygon fill="#999999" stroke="#666666" points="41,-437 0,-437 0,-418 41,-418 41,-437"/>
<text text-anchor="middle" x="20.5" y="-425" font-family="Helvetica,sans-Serif" font-size="10.00">main</text>
</a>
</g>
</g>
<!-- Node2 -->
<g id="Node000002" class="node">
<title>Node2</title>
<g id="a_Node000002"><a xlink:href="exec__encoder_8cpp.html#a314da15e7fc8f48e094a1a5ddabab89c" target="_top" xlink:title=" ">
<polygon fill="white" stroke="#666666" points="221.5,-815 129.5,-815 129.5,-796 221.5,-796 221.5,-815"/>
<text text-anchor="middle" x="175.5" y="-803" font-family="Helvetica,sans-Serif" font-size="10.00">customConsole</text>
</a>
</g>
</g>
<!-- Node1&#45;&gt;Node2 -->
<g id="edge1_Node000001_Node000002" class="edge">
<title>Node1&#45;&gt;Node2</title>
<g id="a_edge1_Node000001_Node000002"><a xlink:title=" ">
<path fill="none" stroke="#63b8ff" d="M21.54,-437.28C21.97,-489.55 26.67,-735.66 77,-787.5 88.02,-798.85 103.68,-804.37 119.24,-806.78"/>
<polygon fill="#63b8ff" stroke="#63b8ff" points="119.07,-810.29 129.4,-807.95 119.87,-803.33 119.07,-810.29"/>
</a>
</g>
</g>
<!-- Node3 -->
<g id="Node000003" class="node">
<title>Node3</title>
<g id="a_Node000003"><a xlink:href="exec__encoder_8cpp.html#a132eda413acdf67b79532c3b7f340e5c" target="_top" xlink:title=" ">
<polygon fill="white" stroke="#666666" points="206,-778 145,-778 145,-759 206,-759 206,-778"/>
<text text-anchor="middle" x="175.5" y="-766" font-family="Helvetica,sans-Serif" font-size="10.00">fileExists</text>
</a>
</g>
</g>
<!-- Node1&#45;&gt;Node3 -->
<g id="edge2_Node000001_Node000003" class="edge">
<title>Node1&#45;&gt;Node3</title>
<g id="a_edge2_Node000001_Node000003"><a xlink:title=" ">
<path fill="none" stroke="#63b8ff" d="M21.74,-437.19C23.16,-485.89 31.97,-703.48 77,-749.5 91.79,-764.62 114.78,-769.61 134.72,-770.71"/>
<polygon fill="#63b8ff" stroke="#63b8ff" points="134.73,-774.21 144.82,-770.96 134.91,-767.21 134.73,-774.21"/>
</a>
</g>
</g>
<!-- Node4 -->
<g id="Node000004" class="node">
<title>Node4</title>
<g id="a_Node000004"><a xlink:href="classCCSDS_1_1Manager.html#a1b7106979c669a3be5c2ff950743c126" target="_top" xlink:title="Retrieves a buffer containing all the stored packets sequentially.">
<polygon fill="white" stroke="#666666" points="254,-740.5 97,-740.5 97,-710.5 254,-710.5 254,-740.5"/>
<text text-anchor="start" x="105" y="-728.5" font-family="Helvetica,sans-Serif" font-size="10.00">CCSDS::Manager::getPackets</text>
<text text-anchor="middle" x="175.5" y="-717.5" font-family="Helvetica,sans-Serif" font-size="10.00">Buffer</text>
</a>
</g>
</g>
<!-- Node1&#45;&gt;Node4 -->
<g id="edge3_Node000001_Node000004" class="edge">
<title>Node1&#45;&gt;Node4</title>
<g id="a_edge3_Node000001_Node000004"><a xlink:title=" ">
<path fill="none" stroke="#63b8ff" d="M22.1,-437.14C25.04,-481.11 39.28,-662.18 77,-701.5 80.28,-704.92 83.96,-707.88 87.92,-710.45"/>
<polygon fill="#63b8ff" stroke="#63b8ff" points="86.55,-713.69 96.99,-715.45 89.93,-707.56 86.55,-713.69"/>
</a>
</g>
</g>
<!-- Node5 -->
<g id="Node000005" class="node">
<title>Node5</title>
<g id="a_Node000005"><a xlink:href="classCCSDS_1_1Result.html#a22dd52b6ed9b5be6cd6bfdd35e78cb7b" target="_top" xlink:title="Checks if the result contains a valid value.">
<polygon fill="white" stroke="#666666" points="230.5,-692.5 120.5,-692.5 120.5,-662.5 230.5,-662.5 230.5,-692.5"/>
<text text-anchor="start" x="128.5" y="-680.5" font-family="Helvetica,sans-Serif" font-size="10.00">CCSDS::Result::has</text>
<text text-anchor="middle" x="175.5" y="-669.5" font-family="Helvetica,sans-Serif" font-size="10.00">_value</text>
</a>
</g>
</g>
<!-- Node1&#45;&gt;Node5 -->
<g id="edge4_Node000001_Node000005" class="edge">
<title>Node1&#45;&gt;Node5</title>
<g id="a_edge4_Node000001_Node000005"><a xlink:title=" ">
<path fill="none" stroke="#63b8ff" d="M22.56,-437.25C27.01,-476.44 45.44,-621.92 77,-653.5 86.09,-662.6 98.04,-668.44 110.45,-672.16"/>
<polygon fill="#63b8ff" stroke="#63b8ff" points="109.89,-675.63 120.45,-674.7 111.62,-668.84 109.89,-675.63"/>
</a>
</g>
</g>
<!-- Node6 -->
<g id="Node000006" class="node">
<title>Node6</title>
<g id="a_Node000006"><a xlink:href="exec__encoder_8cpp.html#ad22ec46bf14d6f9481feb14ae83a388d" target="_top" xlink:title=" ">
<polygon fill="white" stroke="#666666" points="224,-644 127,-644 127,-625 224,-625 224,-644"/>
<text text-anchor="middle" x="175.5" y="-632" font-family="Helvetica,sans-Serif" font-size="10.00">parseArguments</text>
</a>
</g>
</g>
<!-- Node1&#45;&gt;Node6 -->
<g id="edge5_Node000001_Node000006" class="edge">
<title>Node1&#45;&gt;Node6</title>
<g id="a_edge5_Node000001_Node000006"><a xlink:title=" ">
<path fill="none" stroke="#63b8ff" d="M21.1,-437.13C20.38,-468.35 22.65,-567.49 77,-616.5 87.9,-626.34 102.37,-631.61 116.81,-634.28"/>
<polygon fill="#63b8ff" stroke="#63b8ff" points="116.36,-637.75 126.76,-635.73 117.37,-630.83 116.36,-637.75"/>
</a>
</g>
</g>
<!-- Node7 -->
<g id="Node000007" class="node">
<title>Node7</title>
<g id="a_Node000007"><a xlink:href="exec__encoder_8cpp.html#a0d20b69b0ad703df78459e1033d5c1d4" target="_top" xlink:title=" ">
<polygon fill="white" stroke="#666666" points="206.5,-607 144.5,-607 144.5,-588 206.5,-588 206.5,-607"/>
<text text-anchor="middle" x="175.5" y="-595" font-family="Helvetica,sans-Serif" font-size="10.00">printHelp</text>
</a>
</g>
</g>
<!-- Node1&#45;&gt;Node7 -->
<g id="edge6_Node000001_Node000007" class="edge">
<title>Node1&#45;&gt;Node7</title>
<g id="a_edge6_Node000001_Node000007"><a xlink:title=" ">
<path fill="none" stroke="#63b8ff" d="M21.89,-437.16C23.54,-464.27 32.15,-541.6 77,-579.5 92.71,-592.78 115.01,-597.58 134.31,-598.93"/>
<polygon fill="#63b8ff" stroke="#63b8ff" points="134.24,-602.43 144.37,-599.35 134.53,-595.44 134.24,-602.43"/>
</a>
</g>
</g>
<!-- Node8 -->
<g id="Node000008" class="node">
<title>Node8</title>
<g id="a_Node000008"><a xlink:href="CCSDSUtils_8cpp.html#ad200055b4cb44dddba0ced16faee7d69" target="_top" xlink:title="Prints to console a series of CCSDS Packets contained in the manager.">
<polygon fill="white" stroke="#666666" points="213.5,-570 137.5,-570 137.5,-551 213.5,-551 213.5,-570"/>
<text text-anchor="middle" x="175.5" y="-558" font-family="Helvetica,sans-Serif" font-size="10.00">printPackets</text>
</a>
</g>
</g>
<!-- Node1&#45;&gt;Node8 -->
<g id="edge7_Node000001_Node000008" class="edge">
<title>Node1&#45;&gt;Node8</title>
<g id="a_edge7_Node000001_Node000008"><a xlink:title=" ">
<path fill="none" stroke="#63b8ff" d="M23.11,-437.07C27.43,-459.44 41.4,-515.33 77,-542.5 91.3,-553.41 110.17,-558.41 127.5,-560.51"/>
<polygon fill="#63b8ff" stroke="#63b8ff" points="127.19,-564 137.47,-561.44 127.84,-557.03 127.19,-564"/>
</a>
</g>
</g>
<!-- Node37 -->
<g id="Node000037" class="node">
<title>Node37</title>
<g id="a_Node000037"><a xlink:href="CCSDSUtils_8cpp.html#a7c53ed59dcb970211aa0217eb095cc4d" target="_top" xlink:title="Read a specified binary file and return its contents as a buffer.">
<polygon fill="white" stroke="#666666" points="219,-533 132,-533 132,-514 219,-514 219,-533"/>
<text text-anchor="middle" x="175.5" y="-521" font-family="Helvetica,sans-Serif" font-size="10.00">readBinaryFile</text>
</a>
</g>
</g>
<!-- Node1&#45;&gt;Node37 -->
<g id="edge36_Node000001_Node000037" class="edge">
<title>Node1&#45;&gt;Node37</title>
<g id="a_edge36_Node000001_Node000037"><a xlink:title=" ">
<path fill="none" stroke="#63b8ff" d="M25.47,-437.26C32.88,-454.15 50.51,-488.62 77,-505.5 90.22,-513.92 106.37,-518.63 121.69,-521.2"/>
<polygon fill="#63b8ff" stroke="#63b8ff" points="121.21,-524.67 131.6,-522.6 122.19,-517.74 121.21,-524.67"/>
</a>
</g>
</g>
<!-- Node38 -->
<g id="Node000038" class="node">
<title>Node38</title>
<g id="a_Node000038"><a xlink:href="classCCSDS_1_1Header.html#ab2086b4d0be47cfdfefa91ec132fc302" target="_top" xlink:title="11 bits">
<polygon fill="white" stroke="#666666" points="243,-496 108,-496 108,-477 243,-477 243,-496"/>
<text text-anchor="middle" x="175.5" y="-484" font-family="Helvetica,sans-Serif" font-size="10.00">CCSDS::Header::setAPID</text>
</a>
</g>
</g>
<!-- Node1&#45;&gt;Node38 -->
<g id="edge37_Node000001_Node000038" class="edge">
<title>Node1&#45;&gt;Node38</title>
<g id="a_edge37_Node000001_Node000038"><a xlink:title=" ">
<path fill="none" stroke="#63b8ff" d="M31.64,-437.25C42.13,-446.76 59.42,-460.87 77,-468.5 83.68,-471.4 90.81,-473.83 98.06,-475.87"/>
<polygon fill="#63b8ff" stroke="#63b8ff" points="97.44,-479.32 107.99,-478.41 99.18,-472.54 97.44,-479.32"/>
</a>
</g>
</g>
<!-- Node39 -->
<g id="Node000039" class="node">
<title>Node39</title>
<g id="a_Node000039"><a xlink:href="classCCSDS_1_1Manager.html#a2f6c84bec310a521c55d88ce49506395" target="_top" xlink:title="Sets the application data for the packet.">
<polygon fill="white" stroke="#666666" points="274,-459 77,-459 77,-440 274,-440 274,-459"/>
<text text-anchor="middle" x="175.5" y="-447" font-family="Helvetica,sans-Serif" font-size="10.00">CCSDS::Manager::setApplicationData</text>
</a>
</g>
</g>
<!-- Node1&#45;&gt;Node39 -->
<g id="edge38_Node000001_Node000039" class="edge">
<title>Node1&#45;&gt;Node39</title>
<g id="a_edge38_Node000001_Node000039"><a xlink:title=" ">
<path fill="none" stroke="#63b8ff" d="M41.19,-430.33C55.89,-432.44 77,-435.48 98.11,-438.52"/>
<polygon fill="#63b8ff" stroke="#63b8ff" points="97.71,-441.99 108.11,-439.95 98.71,-435.07 97.71,-441.99"/>
</a>
</g>
</g>
<!-- Node44 -->
<g id="Node000044" class="node">
<title>Node44</title>
<g id="a_Node000044"><a xlink:href="classCCSDS_1_1Header.html#acb05f2c875ad0148eabd8b60185bd4fd" target="_top" xlink:title="1 bits">
<polygon fill="white" stroke="#666666" points="254.5,-421.5 96.5,-421.5 96.5,-391.5 254.5,-391.5 254.5,-421.5"/>
<text text-anchor="start" x="104.5" y="-409.5" font-family="Helvetica,sans-Serif" font-size="10.00">CCSDS::Header::setDataField</text>
<text text-anchor="middle" x="175.5" y="-398.5" font-family="Helvetica,sans-Serif" font-size="10.00">HeaderFlag</text>
</a>
</g>
</g>
<!-- Node1&#45;&gt;Node44 -->
<g id="edge43_Node000001_Node000044" class="edge">
<title>Node1&#45;&gt;Node44</title>
<g id="a_edge43_Node000001_Node000044"><a xlink:title=" ">
<path fill="none" stroke="#63b8ff" d="M41.19,-424.8C53.13,-423.16 69.3,-420.94 86.26,-418.61"/>
<polygon fill="#63b8ff" stroke="#63b8ff" points="86.89,-422.06 96.32,-417.23 85.93,-415.12 86.89,-422.06"/>
</a>
</g>
</g>
<!-- Node45 -->
<g id="Node000045" class="node">
<title>Node45</title>
<g id="a_Node000045"><a xlink:href="classCCSDS_1_1Manager.html#a216193530d41332d5ff67dbcd78a6c50" target="_top" xlink:title="Sets the size of the data field.">
<polygon fill="white" stroke="#666666" points="265.5,-373 85.5,-373 85.5,-354 265.5,-354 265.5,-373"/>
<text text-anchor="middle" x="175.5" y="-361" font-family="Helvetica,sans-Serif" font-size="10.00">CCSDS::Manager::setDatFieldSize</text>
</a>
</g>
</g>
<!-- Node1&#45;&gt;Node45 -->
<g id="edge44_Node000001_Node000045" class="edge">
<title>Node1&#45;&gt;Node45</title>
<g id="a_edge44_Node000001_Node000045"><a xlink:title=" ">
<path fill="none" stroke="#63b8ff" d="M30.34,-417.96C40.55,-407.55 58.34,-391.21 77,-382.5 82.36,-380 88.02,-377.83 93.83,-375.94"/>
<polygon fill="#63b8ff" stroke="#63b8ff" points="95.09,-379.22 103.69,-373.03 93.11,-372.51 95.09,-379.22"/>
</a>
</g>
</g>
<!-- Node46 -->
<g id="Node000046" class="node">
<title>Node46</title>
<g id="a_Node000046"><a xlink:href="classCCSDS_1_1Manager.html#a12705ae8e0c680ec128a3d0d55b738b6" target="_top" xlink:title="Sets a new packet template.">
<polygon fill="white" stroke="#666666" points="251,-335.5 100,-335.5 100,-305.5 251,-305.5 251,-335.5"/>
<text text-anchor="start" x="108" y="-323.5" font-family="Helvetica,sans-Serif" font-size="10.00">CCSDS::Manager::setPacket</text>
<text text-anchor="middle" x="175.5" y="-312.5" font-family="Helvetica,sans-Serif" font-size="10.00">Template</text>
</a>
</g>
</g>
<!-- Node1&#45;&gt;Node46 -->
<g id="edge45_Node000001_Node000046" class="edge">
<title>Node1&#45;&gt;Node46</title>
<g id="a_edge45_Node000001_Node000046"><a xlink:title=" ">
<path fill="none" stroke="#63b8ff" d="M25.22,-417.98C32.47,-400.74 50.15,-364.4 77,-345.5 81.22,-342.53 85.77,-339.91 90.51,-337.6"/>
<polygon fill="#63b8ff" stroke="#63b8ff" points="92.07,-340.74 99.83,-333.53 89.27,-334.32 92.07,-340.74"/>
</a>
</g>
</g>
<!-- Node47 -->
<g id="Node000047" class="node">
<title>Node47</title>
<g id="a_Node000047"><a xlink:href="classCCSDS_1_1Packet.html#ab0ea5b4bdce0b2ac00f10d22f22aaa91" target="_top" xlink:title="Sets the primary header using the provided PrimaryHeader object.">
<polygon fill="white" stroke="#666666" points="678,-292.5 532,-292.5 532,-262.5 678,-262.5 678,-292.5"/>
<text text-anchor="start" x="540" y="-280.5" font-family="Helvetica,sans-Serif" font-size="10.00">CCSDS::Packet::setPrimary</text>
<text text-anchor="middle" x="605" y="-269.5" font-family="Helvetica,sans-Serif" font-size="10.00">Header</text>
</a>
</g>
</g>
<!-- Node1&#45;&gt;Node47 -->
<g id="edge46_Node000001_Node000047" class="edge">
<title>Node1&#45;&gt;Node47</title>
<g id="a_edge46_Node000001_Node000047"><a xlink:title=" ">
<path fill="none" stroke="#63b8ff" d="M22.23,-417.76C24.69,-392.6 35.09,-325.36 77,-296.5 146.84,-248.41 391.52,-259.96 521.46,-270.03"/>
<polygon fill="#63b8ff" stroke="#63b8ff" points="521.52,-273.54 531.76,-270.84 522.07,-266.57 521.52,-273.54"/>
</a>
</g>
</g>
<!-- Node48 -->
<g id="Node000048" class="node">
<title>Node48</title>
<g id="a_Node000048"><a xlink:href="classCCSDS_1_1Header.html#a436a51a4ee99dd21e63766aa5d213ad4" target="_top" xlink:title="14 bits">
<polygon fill="white" stroke="#666666" points="255,-249.5 96,-249.5 96,-219.5 255,-219.5 255,-249.5"/>
<text text-anchor="start" x="104" y="-237.5" font-family="Helvetica,sans-Serif" font-size="10.00">CCSDS::Header::setSequence</text>
<text text-anchor="middle" x="175.5" y="-226.5" font-family="Helvetica,sans-Serif" font-size="10.00">Count</text>
</a>
</g>
</g>
<!-- Node1&#45;&gt;Node48 -->
<g id="edge48_Node000001_Node000048" class="edge">
<title>Node1&#45;&gt;Node48</title>
<g id="a_edge48_Node000001_Node000048"><a xlink:title=" ">
<path fill="none" stroke="#63b8ff" d="M21.83,-417.76C23.32,-389.6 31.54,-307.3 77,-263.5 80.47,-260.15 84.32,-257.19 88.41,-254.57"/>
<polygon fill="#63b8ff" stroke="#63b8ff" points="90.13,-257.61 97.12,-249.65 86.69,-251.52 90.13,-257.61"/>
</a>
</g>
</g>
<!-- Node49 -->
<g id="Node000049" class="node">
<title>Node49</title>
<g id="a_Node000049"><a xlink:href="classCCSDS_1_1Header.html#a4559aef5cb954546e07448905eaaf451" target="_top" xlink:title="2 bits">
<polygon fill="white" stroke="#666666" points="255,-201.5 96,-201.5 96,-171.5 255,-171.5 255,-201.5"/>
<text text-anchor="start" x="104" y="-189.5" font-family="Helvetica,sans-Serif" font-size="10.00">CCSDS::Header::setSequence</text>
<text text-anchor="middle" x="175.5" y="-178.5" font-family="Helvetica,sans-Serif" font-size="10.00">Flags</text>
</a>
</g>
</g>
<!-- Node1&#45;&gt;Node49 -->
<g id="edge49_Node000001_Node000049" class="edge">
<title>Node1&#45;&gt;Node49</title>
<g id="a_edge49_Node000001_Node000049"><a xlink:title=" ">
<path fill="none" stroke="#63b8ff" d="M22.65,-417.88C27.38,-379.86 46.55,-240.68 77,-210.5 80.06,-207.46 83.45,-204.79 87.06,-202.44"/>
<polygon fill="#63b8ff" stroke="#63b8ff" points="88.84,-205.45 95.86,-197.51 85.42,-199.34 88.84,-205.45"/>
</a>
</g>
</g>
<!-- Node50 -->
<g id="Node000050" class="node">
<title>Node50</title>
<g id="a_Node000050"><a xlink:href="classCCSDS_1_1Manager.html#a24d0f60835c70b6101fe5be1233aa7b2" target="_top" xlink:title="enable sync pattern utilization both in serialization, deserialization, read and write.">
<polygon fill="white" stroke="#666666" points="264,-153.5 87,-153.5 87,-123.5 264,-123.5 264,-153.5"/>
<text text-anchor="start" x="95" y="-141.5" font-family="Helvetica,sans-Serif" font-size="10.00">CCSDS::Manager::setSyncPattern</text>
<text text-anchor="middle" x="175.5" y="-130.5" font-family="Helvetica,sans-Serif" font-size="10.00">Enable</text>
</a>
</g>
</g>
<!-- Node1&#45;&gt;Node50 -->
<g id="edge50_Node000001_Node000050" class="edge">
<title>Node1&#45;&gt;Node50</title>
<g id="a_edge50_Node000001_Node000050"><a xlink:title=" ">
<path fill="none" stroke="#63b8ff" d="M22.17,-417.89C25.37,-374.86 40.43,-200.37 77,-162.5 77.92,-161.55 78.87,-160.63 79.85,-159.75"/>
<polygon fill="#63b8ff" stroke="#63b8ff" points="82.05,-162.48 87.87,-153.63 77.8,-156.91 82.05,-162.48"/>
</a>
</g>
</g>
<!-- Node51 -->
<g id="Node000051" class="node">
<title>Node51</title>
<g id="a_Node000051"><a xlink:href="classCCSDS_1_1Header.html#ad8cd215c24c61d3426a7b3c91261d1a9" target="_top" xlink:title="1 bits">
<polygon fill="white" stroke="#666666" points="242.5,-105 108.5,-105 108.5,-86 242.5,-86 242.5,-105"/>
<text text-anchor="middle" x="175.5" y="-93" font-family="Helvetica,sans-Serif" font-size="10.00">CCSDS::Header::setType</text>
</a>
</g>
</g>
<!-- Node1&#45;&gt;Node51 -->
<g id="edge51_Node000001_Node000051" class="edge">
<title>Node1&#45;&gt;Node51</title>
<g id="a_edge51_Node000001_Node000051"><a xlink:title=" ">
<path fill="none" stroke="#63b8ff" d="M21.8,-417.76C23.46,-369.79 33.18,-159.07 77,-114.5 83.08,-108.31 90.54,-103.82 98.6,-100.6"/>
<polygon fill="#63b8ff" stroke="#63b8ff" points="99.9,-103.86 108.29,-97.38 97.69,-97.22 99.9,-103.86"/>
</a>
</g>
</g>
<!-- Node52 -->
<g id="Node000052" class="node">
<title>Node52</title>
<g id="a_Node000052"><a xlink:href="classCCSDS_1_1Header.html#a2bd86ea88c3d0f681ff7157bfca2063c" target="_top" xlink:title="3 bits">
<polygon fill="white" stroke="#666666" points="249.5,-67.5 101.5,-67.5 101.5,-37.5 249.5,-37.5 249.5,-67.5"/>
<text text-anchor="start" x="109.5" y="-55.5" font-family="Helvetica,sans-Serif" font-size="10.00">CCSDS::Header::setVersion</text>
<text text-anchor="middle" x="175.5" y="-44.5" font-family="Helvetica,sans-Serif" font-size="10.00">Number</text>
</a>
</g>
</g>
<!-- Node1&#45;&gt;Node52 -->
<g id="edge52_Node000001_Node000052" class="edge">
<title>Node1&#45;&gt;Node52</title>
<g id="a_edge52_Node000001_Node000052"><a xlink:title=" ">
<path fill="none" stroke="#63b8ff" d="M21.64,-417.68C22.57,-366.25 29.41,-128.29 77,-76.5 81.33,-71.78 86.43,-67.93 91.99,-64.78"/>
<polygon fill="#63b8ff" stroke="#63b8ff" points="93.57,-67.9 101.05,-60.39 90.52,-61.6 93.57,-67.9"/>
</a>
</g>
</g>
<!-- Node53 -->
<g id="Node000053" class="node">
<title>Node53</title>
<g id="a_Node000053"><a xlink:href="CCSDSUtils_8cpp.html#ac3822e47eaaef0f66ec2b86d7a4b09fc" target="_top" xlink:title="This function takes in a buffer of data and a file name.">
<polygon fill="white" stroke="#666666" points="220.5,-19 130.5,-19 130.5,0 220.5,0 220.5,-19"/>
<text text-anchor="middle" x="175.5" y="-7" font-family="Helvetica,sans-Serif" font-size="10.00">writeBinaryFile</text>
</a>
</g>
</g>
<!-- Node1&#45;&gt;Node53 -->
<g id="edge53_Node000001_Node000053" class="edge">
<title>Node1&#45;&gt;Node53</title>
<g id="a_edge53_Node000001_Node000053"><a xlink:title=" ">
<path fill="none" stroke="#63b8ff" d="M21.39,-417.8C20.97,-362.43 21.69,-86.89 77,-28.5 88.09,-16.79 104.09,-11.1 119.93,-8.6"/>
<polygon fill="#63b8ff" stroke="#63b8ff" points="120.74,-12.02 130.26,-7.38 119.92,-5.07 120.74,-12.02"/>
</a>
</g>
</g>
<!-- Node9 -->
<g id="Node000009" class="node">
<title>Node9</title>
<g id="a_Node000009"><a xlink:href="classCCSDS_1_1Manager.html#a4551f2d0dab76e85ef697c4f390cbd7c" target="_top" xlink:title="Returns a reference to the packets vector.">
<polygon fill="white" stroke="#666666" points="481.5,-603.5 324.5,-603.5 324.5,-573.5 481.5,-573.5 481.5,-603.5"/>
<text text-anchor="start" x="332.5" y="-591.5" font-family="Helvetica,sans-Serif" font-size="10.00">CCSDS::Manager::getPackets</text>
<text text-anchor="middle" x="403" y="-580.5" font-family="Helvetica,sans-Serif" font-size="10.00">Reference</text>
</a>
</g>
</g>
<!-- Node8&#45;&gt;Node9 -->
<g id="edge8_Node000008_Node000009" class="edge">
<title>Node8&#45;&gt;Node9</title>
<g id="a_edge8_Node000008_Node000009"><a xlink:title=" ">
<path fill="none" stroke="#63b8ff" d="M213.74,-565.12C241.06,-568.52 279.34,-573.27 314.25,-577.6"/>
<polygon fill="#63b8ff" stroke="#63b8ff" points="314.12,-581.11 324.47,-578.87 314.98,-574.17 314.12,-581.11"/>
</a>
</g>
</g>
<!-- Node10 -->
<g id="Node000010" class="node">
<title>Node10</title>
<g id="a_Node000010"><a xlink:href="classCCSDS_1_1Manager.html#a540afafc78a4450dd6d2a2113d5a3640" target="_top" xlink:title="returns the currently set sync pattern.">
<polygon fill="white" stroke="#666666" points="492,-555 314,-555 314,-536 492,-536 492,-555"/>
<text text-anchor="middle" x="403" y="-543" font-family="Helvetica,sans-Serif" font-size="10.00">CCSDS::Manager::getSyncPattern</text>
</a>
</g>
</g>
<!-- Node8&#45;&gt;Node10 -->
<g id="edge9_Node000008_Node000010" class="edge">
<title>Node8&#45;&gt;Node10</title>
<g id="a_edge9_Node000008_Node000010"><a xlink:title=" ">
<path fill="none" stroke="#63b8ff" d="M213.74,-558.02C238.23,-556.39 271.53,-554.18 303.31,-552.06"/>
<polygon fill="#63b8ff" stroke="#63b8ff" points="303.81,-555.54 313.56,-551.38 303.35,-548.55 303.81,-555.54"/>
</a>
</g>
</g>
<!-- Node11 -->
<g id="Node000011" class="node">
<title>Node11</title>
<g id="a_Node000011"><a xlink:href="classCCSDS_1_1Manager.html#ab57dc694191ba220e81f7b7d833504e7" target="_top" xlink:title="returns the current settings of the sync pattern enable">
<polygon fill="white" stroke="#666666" points="492,-517.5 314,-517.5 314,-487.5 492,-487.5 492,-517.5"/>
<text text-anchor="start" x="322" y="-505.5" font-family="Helvetica,sans-Serif" font-size="10.00">CCSDS::Manager::getSyncPattern</text>
<text text-anchor="middle" x="403" y="-494.5" font-family="Helvetica,sans-Serif" font-size="10.00">Enable</text>
</a>
</g>
</g>
<!-- Node8&#45;&gt;Node11 -->
<g id="edge10_Node000008_Node000011" class="edge">
<title>Node8&#45;&gt;Node11</title>
<g id="a_edge10_Node000008_Node000011"><a xlink:title=" ">
<path fill="none" stroke="#63b8ff" d="M213.51,-555.56C231.92,-552.63 254.36,-548.33 274,-542.5 290.62,-537.57 293.6,-533.12 310,-527.5 317.27,-525.01 324.92,-522.6 332.59,-520.33"/>
<polygon fill="#63b8ff" stroke="#63b8ff" points="333.64,-523.67 342.27,-517.52 331.69,-516.94 333.64,-523.67"/>
</a>
</g>
</g>
<!-- Node12 -->
<g id="Node000012" class="node">
<title>Node12</title>
<g id="a_Node000012"><a xlink:href="classCCSDS_1_1Manager.html#a6a35b16dd386f9519552d43a079263c2" target="_top" xlink:title="Retrieves the packet template.">
<polygon fill="white" stroke="#666666" points="485.5,-828 320.5,-828 320.5,-809 485.5,-809 485.5,-828"/>
<text text-anchor="middle" x="403" y="-816" font-family="Helvetica,sans-Serif" font-size="10.00">CCSDS::Manager::getTemplate</text>
</a>
</g>
</g>
<!-- Node8&#45;&gt;Node12 -->
<g id="edge11_Node000008_Node000012" class="edge">
<title>Node8&#45;&gt;Node12</title>
<g id="a_edge11_Node000008_Node000012"><a xlink:title=" ">
<path fill="none" stroke="#63b8ff" d="M213.72,-558.12C234.25,-558.91 258.63,-563.66 274,-579.5 342.99,-650.61 241.41,-728 310,-799.5 311.24,-800.79 312.55,-802.01 313.91,-803.16"/>
<polygon fill="#63b8ff" stroke="#63b8ff" points="312.04,-806.13 322.25,-808.97 316.04,-800.38 312.04,-806.13"/>
</a>
</g>
</g>
<!-- Node13 -->
<g id="Node000013" class="node">
<title>Node13</title>
<g id="a_Node000013"><a xlink:href="classCCSDS_1_1Manager.html#a67eb2b2ef2b45dcd25cdd80fa4057bbf" target="_top" xlink:title="Retrieves the total number of packets managed.">
<polygon fill="white" stroke="#666666" points="474.5,-790.5 331.5,-790.5 331.5,-760.5 474.5,-760.5 474.5,-790.5"/>
<text text-anchor="start" x="339.5" y="-778.5" font-family="Helvetica,sans-Serif" font-size="10.00">CCSDS::Manager::getTotal</text>
<text text-anchor="middle" x="403" y="-767.5" font-family="Helvetica,sans-Serif" font-size="10.00">Packets</text>
</a>
</g>
</g>
<!-- Node8&#45;&gt;Node13 -->
<g id="edge12_Node000008_Node000013" class="edge">
<title>Node8&#45;&gt;Node13</title>
<g id="a_edge12_Node000008_Node000013"><a xlink:title=" ">
<path fill="none" stroke="#63b8ff" d="M213.91,-558.43C234.24,-559.37 258.36,-564.17 274,-579.5 328.22,-632.65 258.87,-690.37 310,-746.5 313.74,-750.6 318.05,-754.13 322.72,-757.16"/>
<polygon fill="#63b8ff" stroke="#63b8ff" points="321.04,-760.23 331.47,-762.09 324.48,-754.13 321.04,-760.23"/>
</a>
</g>
</g>
<!-- Node14 -->
<g id="Node000014" class="node">
<title>Node14</title>
<g id="a_Node000014"><a xlink:href="CCSDSUtils_8cpp.html#ac77b078f446e1e3842c118709505e87b" target="_top" xlink:title="Prints to console the HEX data from the bytes vector.">
<polygon fill="white" stroke="#666666" points="1035.5,-742 943.5,-742 943.5,-723 1035.5,-723 1035.5,-742"/>
<text text-anchor="middle" x="989.5" y="-730" font-family="Helvetica,sans-Serif" font-size="10.00">printBufferData</text>
</a>
</g>
</g>
<!-- Node8&#45;&gt;Node14 -->
<g id="edge13_Node000008_Node000014" class="edge">
<title>Node8&#45;&gt;Node14</title>
<g id="a_edge13_Node000008_Node000014"><a xlink:title=" ">
<path fill="none" stroke="#63b8ff" d="M213.78,-559.11C233.82,-560.31 257.69,-565.14 274,-579.5 312.28,-613.22 269.64,-657.29 310,-688.5 406.34,-763 788.16,-745.99 932.68,-736.59"/>
<polygon fill="#63b8ff" stroke="#63b8ff" points="933.33,-740.05 943.07,-735.9 932.86,-733.07 933.33,-740.05"/>
</a>
</g>
</g>
<!-- Node15 -->
<g id="Node000015" class="node">
<title>Node15</title>
<g id="a_Node000015"><a xlink:href="CCSDSUtils_8cpp.html#a2e40e3867139b28c1b2fa0465c3afd7e" target="_top" xlink:title="Prints to console a CCSDS Packets, breaking it down to Primary header and Data field.">
<polygon fill="white" stroke="#666666" points="438.5,-679 367.5,-679 367.5,-660 438.5,-660 438.5,-679"/>
<text text-anchor="middle" x="403" y="-667" font-family="Helvetica,sans-Serif" font-size="10.00">printPacket</text>
</a>
</g>
</g>
<!-- Node8&#45;&gt;Node15 -->
<g id="edge14_Node000008_Node000015" class="edge">
<title>Node8&#45;&gt;Node15</title>
<g id="a_edge14_Node000008_Node000015"><a xlink:title=" ">
<path fill="none" stroke="#63b8ff" d="M213.77,-560.37C233.33,-562.02 256.75,-566.87 274,-579.5 300.96,-599.24 283.67,-624.93 310,-645.5 323.46,-656.02 341.08,-661.96 357.29,-665.3"/>
<polygon fill="#63b8ff" stroke="#63b8ff" points="356.7,-668.75 367.16,-667.06 357.93,-661.85 356.7,-668.75"/>
</a>
</g>
</g>
<!-- Node24 -->
<g id="Node000024" class="node">
<title>Node24</title>
<g id="a_Node000024"><a xlink:href="CCSDSUtils_8cpp.html#a3c45ef84a35555519e34164e000dada5" target="_top" xlink:title="Prints to console the primary header of a provided CCSDS packet.">
<polygon fill="white" stroke="#666666" points="661.5,-581 548.5,-581 548.5,-562 661.5,-562 661.5,-581"/>
<text text-anchor="middle" x="605" y="-569" font-family="Helvetica,sans-Serif" font-size="10.00">printPrimaryHeader</text>
</a>
</g>
</g>
<!-- Node8&#45;&gt;Node24 -->
<g id="edge35_Node000008_Node000024" class="edge">
<title>Node8&#45;&gt;Node24</title>
<g id="a_edge35_Node000008_Node000024"><a xlink:title=" ">
<path fill="none" stroke="#63b8ff" d="M213.7,-562.94C232.57,-565.34 255.37,-570.1 274,-579.5 293.38,-589.28 289.77,-604.63 310,-612.5 387.04,-642.47 414.69,-627.41 496,-612.5 524.23,-607.32 554.64,-595.12 575.98,-585.37"/>
<polygon fill="#63b8ff" stroke="#63b8ff" points="577.53,-588.51 585.1,-581.1 574.56,-582.17 577.53,-588.51"/>
</a>
</g>
</g>
<!-- Node16 -->
<g id="Node000016" class="node">
<title>Node16</title>
<g id="a_Node000016"><a xlink:href="CCSDSUtils_8cpp.html#aed99c8e7576ac25c49f6b913b46d1b76" target="_top" xlink:title="Prints the data field and the CRC&#45;16 checksum of the packet.">
<polygon fill="white" stroke="#666666" points="648,-673 562,-673 562,-654 648,-654 648,-673"/>
<text text-anchor="middle" x="605" y="-661" font-family="Helvetica,sans-Serif" font-size="10.00">printDataField</text>
</a>
</g>
</g>
<!-- Node15&#45;&gt;Node16 -->
<g id="edge15_Node000015_Node000016" class="edge">
<title>Node15&#45;&gt;Node16</title>
<g id="a_edge15_Node000015_Node000016"><a xlink:title=" ">
<path fill="none" stroke="#63b8ff" d="M438.84,-668.45C470.01,-667.52 516.14,-666.14 551.73,-665.07"/>
<polygon fill="#63b8ff" stroke="#63b8ff" points="552.05,-668.56 561.94,-664.76 551.84,-661.56 552.05,-668.56"/>
</a>
</g>
</g>
<!-- Node15&#45;&gt;Node24 -->
<g id="edge21_Node000015_Node000024" class="edge">
<title>Node15&#45;&gt;Node24</title>
<g id="a_edge21_Node000015_Node000024"><a xlink:title=" ">
<path fill="none" stroke="#63b8ff" d="M438.61,-663.43C456.28,-659.6 477.83,-653.79 496,-645.5 529.66,-630.15 564.17,-604.41 584.85,-587.69"/>
<polygon fill="#63b8ff" stroke="#63b8ff" points="587.32,-590.19 592.82,-581.14 582.87,-584.78 587.32,-590.19"/>
</a>
</g>
</g>
<!-- Node17 -->
<g id="Node000017" class="node">
<title>Node17</title>
<g id="a_Node000017"><a xlink:href="classCCSDS_1_1Packet.html#a6b0791e2a62a2db48b12a5ee6b762a7b" target="_top" xlink:title="Computes and retrieves the CRC&#45;16 checksum of the packet.">
<polygon fill="white" stroke="#666666" points="856,-667 727,-667 727,-648 856,-648 856,-667"/>
<text text-anchor="middle" x="791.5" y="-655" font-family="Helvetica,sans-Serif" font-size="10.00">CCSDS::Packet::getCRC</text>
</a>
</g>
</g>
<!-- Node16&#45;&gt;Node17 -->
<g id="edge16_Node000016_Node000017" class="edge">
<title>Node16&#45;&gt;Node17</title>
<g id="a_edge16_Node000016_Node000017"><a xlink:title=" ">
<path fill="none" stroke="#63b8ff" d="M648.33,-662.12C668.53,-661.47 693.31,-660.66 716.48,-659.91"/>
<polygon fill="#63b8ff" stroke="#63b8ff" points="716.76,-663.4 726.64,-659.58 716.54,-656.4 716.76,-663.4"/>
</a>
</g>
</g>
<!-- Node18 -->
<g id="Node000018" class="node">
<title>Node18</title>
<g id="a_Node000018"><a xlink:href="classCCSDS_1_1Packet.html#ae788c8d3ae1fcec2c18787c9491cdca3" target="_top" xlink:title="returns the CCSDS packet&#39;s DataField.">
<polygon fill="white" stroke="#666666" points="869,-630 714,-630 714,-611 869,-611 869,-630"/>
<text text-anchor="middle" x="791.5" y="-618" font-family="Helvetica,sans-Serif" font-size="10.00">CCSDS::Packet::getDataField</text>
</a>
</g>
</g>
<!-- Node16&#45;&gt;Node18 -->
<g id="edge17_Node000016_Node000018" class="edge">
<title>Node16&#45;&gt;Node18</title>
<g id="a_edge17_Node000016_Node000018"><a xlink:title=" ">
<path fill="none" stroke="#63b8ff" d="M646.95,-653.96C674.3,-647.58 710.47,-639.15 739.66,-632.35"/>
<polygon fill="#63b8ff" stroke="#63b8ff" points="740.72,-635.69 749.67,-630.02 739.13,-628.88 740.72,-635.69"/>
</a>
</g>
</g>
<!-- Node19 -->
<g id="Node000019" class="node">
<title>Node19</title>
<g id="a_Node000019"><a xlink:href="CCSDSUtils_8cpp.html#a6e927daa91ea42db4bb94bfc51425b96" target="_top" xlink:title="Prints the data field details, including the secondary header and application data.">
<polygon fill="#fff0f0" stroke="red" points="822.5,-704 760.5,-704 760.5,-685 822.5,-685 822.5,-704"/>
<text text-anchor="middle" x="791.5" y="-692" font-family="Helvetica,sans-Serif" font-size="10.00">printData</text>
</a>
</g>
</g>
<!-- Node16&#45;&gt;Node19 -->
<g id="edge18_Node000016_Node000019" class="edge">
<title>Node16&#45;&gt;Node19</title>
<g id="a_edge18_Node000016_Node000019"><a xlink:title=" ">
<path fill="none" stroke="#63b8ff" d="M648.33,-670.61C678.97,-675.76 720.13,-682.68 750.28,-687.74"/>
<polygon fill="#63b8ff" stroke="#63b8ff" points="750.01,-691.25 760.45,-689.45 751.17,-684.34 750.01,-691.25"/>
</a>
</g>
</g>
<!-- Node19&#45;&gt;Node14 -->
<g id="edge20_Node000019_Node000014" class="edge">
<title>Node19&#45;&gt;Node14</title>
<g id="a_edge20_Node000019_Node000014"><a xlink:title=" ">
<path fill="none" stroke="#63b8ff" d="M822.7,-700.35C852.14,-706.06 897.61,-714.88 933.49,-721.83"/>
<polygon fill="#63b8ff" stroke="#63b8ff" points="932.85,-725.28 943.33,-723.74 934.18,-718.4 932.85,-725.28"/>
</a>
</g>
</g>
<!-- Node21 -->
<g id="Node000021" class="node">
<title>Node21</title>
<g id="a_Node000021"><a xlink:href="CCSDSUtils_8cpp.html#a6a4f98ed870a1cf55c943c9ace54a0cf" target="_top" xlink:title="Generates a string of spaces for formatting binary outputs.">
<polygon fill="white" stroke="#666666" points="1032.5,-705 946.5,-705 946.5,-686 1032.5,-686 1032.5,-705"/>
<text text-anchor="middle" x="989.5" y="-693" font-family="Helvetica,sans-Serif" font-size="10.00">getBitsSpaces</text>
</a>
</g>
</g>
<!-- Node19&#45;&gt;Node21 -->
<g id="edge19_Node000019_Node000021" class="edge">
<title>Node19&#45;&gt;Node21</title>
<g id="a_edge19_Node000019_Node000021"><a xlink:title=" ">
<path fill="none" stroke="#63b8ff" d="M822.7,-694.65C852.8,-694.81 899.64,-695.05 935.87,-695.23"/>
<polygon fill="#63b8ff" stroke="#63b8ff" points="936.24,-698.73 946.26,-695.28 936.28,-691.73 936.24,-698.73"/>
</a>
</g>
</g>
<!-- Node25 -->
<g id="Node000025" class="node">
<title>Node25</title>
<g id="a_Node000025"><a xlink:href="classCCSDS_1_1Header.html#a2f4d97beaaaac5b2005b470ed14f228d" target="_top" xlink:title="Sets the header data from a 64&#45;bit integer representation.">
<polygon fill="white" stroke="#666666" points="866.5,-411 716.5,-411 716.5,-392 866.5,-392 866.5,-411"/>
<text text-anchor="middle" x="791.5" y="-399" font-family="Helvetica,sans-Serif" font-size="10.00">CCSDS::Header::deserialize</text>
</a>
</g>
</g>
<!-- Node24&#45;&gt;Node25 -->
<g id="edge22_Node000024_Node000025" class="edge">
<title>Node24&#45;&gt;Node25</title>
<g id="a_edge22_Node000024_Node000025"><a xlink:title=" ">
<path fill="none" stroke="#63b8ff" d="M616.45,-561.87C646.64,-534.05 734.27,-453.31 772.41,-418.17"/>
<polygon fill="#63b8ff" stroke="#63b8ff" points="775.18,-420.37 780.17,-411.02 770.44,-415.22 775.18,-420.37"/>
</a>
</g>
</g>
<!-- Node27 -->
<g id="Node000027" class="node">
<title>Node27</title>
<g id="a_Node000027"><a xlink:href="CCSDSUtils_8cpp.html#a993788a78365e86ff065ba8bedff543a" target="_top" xlink:title="Prints the header fields and their binary or hexadecimal representations.">
<polygon fill="white" stroke="#666666" points="828.5,-533 754.5,-533 754.5,-514 828.5,-514 828.5,-533"/>
<text text-anchor="middle" x="791.5" y="-521" font-family="Helvetica,sans-Serif" font-size="10.00">printHeader</text>
</a>
</g>
</g>
<!-- Node24&#45;&gt;Node27 -->
<g id="edge24_Node000024_Node000027" class="edge">
<title>Node24&#45;&gt;Node27</title>
<g id="a_edge24_Node000024_Node000027"><a xlink:title=" ">
<path fill="none" stroke="#63b8ff" d="M642.89,-561.9C672.12,-554.3 713.11,-543.63 744.48,-535.47"/>
<polygon fill="#63b8ff" stroke="#63b8ff" points="745.5,-538.82 754.3,-532.92 743.74,-532.05 745.5,-538.82"/>
</a>
</g>
</g>
<!-- Node26 -->
<g id="Node000026" class="node">
<title>Node26</title>
<g id="a_Node000026"><a xlink:href="classCCSDS_1_1Header.html#aad717b39dda3dff19adb10e3c7e38100" target="_top" xlink:title="Sets the header data from a 64&#45;bit integer representation.">
<polygon fill="white" stroke="#666666" points="1057,-287 922,-287 922,-268 1057,-268 1057,-287"/>
<text text-anchor="middle" x="989.5" y="-275" font-family="Helvetica,sans-Serif" font-size="10.00">CCSDS::Header::setData</text>
</a>
</g>
</g>
<!-- Node25&#45;&gt;Node26 -->
<g id="edge23_Node000025_Node000026" class="edge">
<title>Node25&#45;&gt;Node26</title>
<g id="a_edge23_Node000025_Node000026"><a xlink:title=" ">
<path fill="none" stroke="#63b8ff" d="M799.76,-391.9C816.1,-371.03 858.02,-321.4 905,-296.5 909.48,-294.12 914.25,-292.04 919.16,-290.22"/>
<polygon fill="#63b8ff" stroke="#63b8ff" points="920.33,-293.52 928.71,-287.03 918.11,-286.88 920.33,-293.52"/>
</a>
</g>
</g>
<!-- Node27&#45;&gt;Node21 -->
<g id="edge27_Node000027_Node000021" class="edge">
<title>Node27&#45;&gt;Node21</title>
<g id="a_edge27_Node000027_Node000021"><a xlink:title=" ">
<path fill="none" stroke="#63b8ff" d="M803.78,-533.04C819.8,-547.04 849.39,-574.51 869,-602.5 889.98,-632.46 876.35,-653.76 905,-676.5 914.01,-683.65 925.19,-688.21 936.42,-691.1"/>
<polygon fill="#63b8ff" stroke="#63b8ff" points="935.73,-694.53 946.24,-693.23 937.21,-687.69 935.73,-694.53"/>
</a>
</g>
</g>
<!-- Node28 -->
<g id="Node000028" class="node">
<title>Node28</title>
<g id="a_Node000028"><a xlink:href="classCCSDS_1_1Header.html#a3b171a18bfed281cfa837f349f7cc264" target="_top" xlink:title="11 bits">
<polygon fill="white" stroke="#666666" points="1057.5,-533 921.5,-533 921.5,-514 1057.5,-514 1057.5,-533"/>
<text text-anchor="middle" x="989.5" y="-521" font-family="Helvetica,sans-Serif" font-size="10.00">CCSDS::Header::getAPID</text>
</a>
</g>
</g>
<!-- Node27&#45;&gt;Node28 -->
<g id="edge25_Node000027_Node000028" class="edge">
<title>Node27&#45;&gt;Node28</title>
<g id="a_edge25_Node000027_Node000028"><a xlink:title=" ">
<path fill="none" stroke="#63b8ff" d="M828.91,-523.5C851.98,-523.5 882.71,-523.5 911.04,-523.5"/>
<polygon fill="#63b8ff" stroke="#63b8ff" points="911.35,-527 921.35,-523.5 911.35,-520 911.35,-527"/>
</a>
</g>
</g>
<!-- Node29 -->
<g id="Node000029" class="node">
<title>Node29</title>
<g id="a_Node000029"><a xlink:href="CCSDSUtils_8cpp.html#a1b76edce6a353d6dabf826e662d5f50c" target="_top" xlink:title="Converts a given value to its binary representation as a string, with spaces every 4 bits.">
<polygon fill="white" stroke="#666666" points="1035.5,-496 943.5,-496 943.5,-477 1035.5,-477 1035.5,-496"/>
<text text-anchor="middle" x="989.5" y="-484" font-family="Helvetica,sans-Serif" font-size="10.00">getBinaryString</text>
</a>
</g>
</g>
<!-- Node27&#45;&gt;Node29 -->
<g id="edge26_Node000027_Node000029" class="edge">
<title>Node27&#45;&gt;Node29</title>
<g id="a_edge26_Node000027_Node000029"><a xlink:title=" ">
<path fill="none" stroke="#63b8ff" d="M828.91,-516.63C858.2,-511.1 899.85,-503.24 933.25,-496.93"/>
<polygon fill="#63b8ff" stroke="#63b8ff" points="934.15,-500.32 943.33,-495.03 932.85,-493.44 934.15,-500.32"/>
</a>
</g>
</g>
<!-- Node30 -->
<g id="Node000030" class="node">
<title>Node30</title>
<g id="a_Node000030"><a xlink:href="classCCSDS_1_1Header.html#a836aab2a197579a57a7901071075f685" target="_top" xlink:title="1 bits">
<polygon fill="white" stroke="#666666" points="1069,-458.5 910,-458.5 910,-428.5 1069,-428.5 1069,-458.5"/>
<text text-anchor="start" x="918" y="-446.5" font-family="Helvetica,sans-Serif" font-size="10.00">CCSDS::Header::getDataField</text>
<text text-anchor="middle" x="989.5" y="-435.5" font-family="Helvetica,sans-Serif" font-size="10.00">HeaderFlag</text>
</a>
</g>
</g>
<!-- Node27&#45;&gt;Node30 -->
<g id="edge28_Node000027_Node000030" class="edge">
<title>Node27&#45;&gt;Node30</title>
<g id="a_edge28_Node000027_Node000030"><a xlink:title=" ">
<path fill="none" stroke="#63b8ff" d="M810.02,-513.81C831.81,-502.03 870.38,-482.04 905,-468.5 911.15,-466.09 917.64,-463.78 924.16,-461.6"/>
<polygon fill="#63b8ff" stroke="#63b8ff" points="925.28,-464.91 933.71,-458.5 923.12,-458.26 925.28,-464.91"/>
</a>
</g>
</g>
<!-- Node31 -->
<g id="Node000031" class="node">
<title>Node31</title>
<g id="a_Node000031"><a xlink:href="classCCSDS_1_1Header.html#a9c2ac8f4b16874076de742cb19833bd7" target="_top" xlink:title="16 bits">
<polygon fill="white" stroke="#666666" points="1074,-410 905,-410 905,-391 1074,-391 1074,-410"/>
<text text-anchor="middle" x="989.5" y="-398" font-family="Helvetica,sans-Serif" font-size="10.00">CCSDS::Header::getDataLength</text>
</a>
</g>
</g>
<!-- Node27&#45;&gt;Node31 -->
<g id="edge29_Node000027_Node000031" class="edge">
<title>Node27&#45;&gt;Node31</title>
<g id="a_edge29_Node000027_Node000031"><a xlink:title=" ">
<path fill="none" stroke="#63b8ff" d="M799.78,-514C816.17,-493.33 858.17,-444.17 905,-419.5 909.49,-417.13 914.26,-415.06 919.17,-413.25"/>
<polygon fill="#63b8ff" stroke="#63b8ff" points="920.34,-416.55 928.73,-410.06 918.13,-409.9 920.34,-416.55"/>
</a>
</g>
</g>
<!-- Node32 -->
<g id="Node000032" class="node">
<title>Node32</title>
<g id="a_Node000032"><a xlink:href="classCCSDS_1_1Header.html#af1ae6079606846982ff0552a2d684a1b" target="_top" xlink:title="Computes and retrieves the full header as a 64&#45;bit value.">
<polygon fill="white" stroke="#666666" points="1072,-373 907,-373 907,-354 1072,-354 1072,-373"/>
<text text-anchor="middle" x="989.5" y="-361" font-family="Helvetica,sans-Serif" font-size="10.00">CCSDS::Header::getFullHeader</text>
</a>
</g>
</g>
<!-- Node27&#45;&gt;Node32 -->
<g id="edge30_Node000027_Node000032" class="edge">
<title>Node27&#45;&gt;Node32</title>
<g id="a_edge30_Node000027_Node000032"><a xlink:title=" ">
<path fill="none" stroke="#63b8ff" d="M799.76,-513.65C822.37,-483.09 890.88,-391.37 905,-382.5 908.37,-380.38 911.96,-378.5 915.67,-376.83"/>
<polygon fill="#63b8ff" stroke="#63b8ff" points="917.1,-380.02 925.11,-373.08 914.52,-373.51 917.1,-380.02"/>
</a>
</g>
</g>
<!-- Node33 -->
<g id="Node000033" class="node">
<title>Node33</title>
<g id="a_Node000033"><a xlink:href="classCCSDS_1_1Header.html#a8847364755456604a86e894a950f81c6" target="_top" xlink:title="14 bits">
<polygon fill="white" stroke="#666666" points="1069.5,-335.5 909.5,-335.5 909.5,-305.5 1069.5,-305.5 1069.5,-335.5"/>
<text text-anchor="start" x="917.5" y="-323.5" font-family="Helvetica,sans-Serif" font-size="10.00">CCSDS::Header::getSequence</text>
<text text-anchor="middle" x="989.5" y="-312.5" font-family="Helvetica,sans-Serif" font-size="10.00">Count</text>
</a>
</g>
</g>
<!-- Node27&#45;&gt;Node33 -->
<g id="edge31_Node000027_Node000033" class="edge">
<title>Node27&#45;&gt;Node33</title>
<g id="a_edge31_Node000027_Node000033"><a xlink:title=" ">
<path fill="none" stroke="#63b8ff" d="M800.54,-514C815.25,-496.33 847.01,-456.92 869,-420.5 888.11,-388.85 876.89,-369.52 905,-345.5 906.96,-343.82 909.04,-342.26 911.19,-340.8"/>
<polygon fill="#63b8ff" stroke="#63b8ff" points="913.06,-343.76 919.89,-335.67 909.5,-337.73 913.06,-343.76"/>
</a>
</g>
</g>
<!-- Node34 -->
<g id="Node000034" class="node">
<title>Node34</title>
<g id="a_Node000034"><a xlink:href="classCCSDS_1_1Header.html#a7aec7b479769c8348584cab4b9d1197b" target="_top" xlink:title="2 bits">
<polygon fill="white" stroke="#666666" points="1069.5,-667.5 909.5,-667.5 909.5,-637.5 1069.5,-637.5 1069.5,-667.5"/>
<text text-anchor="start" x="917.5" y="-655.5" font-family="Helvetica,sans-Serif" font-size="10.00">CCSDS::Header::getSequence</text>
<text text-anchor="middle" x="989.5" y="-644.5" font-family="Helvetica,sans-Serif" font-size="10.00">Flags</text>
</a>
</g>
</g>
<!-- Node27&#45;&gt;Node34 -->
<g id="edge32_Node000027_Node000034" class="edge">
<title>Node27&#45;&gt;Node34</title>
<g id="a_edge32_Node000027_Node000034"><a xlink:title=" ">
<path fill="none" stroke="#63b8ff" d="M801.6,-533.07C823.93,-556.37 881.29,-615.07 905,-628.5 908.21,-630.32 911.56,-632.01 915.01,-633.57"/>
<polygon fill="#63b8ff" stroke="#63b8ff" points="913.73,-636.83 924.31,-637.45 916.42,-630.37 913.73,-636.83"/>
</a>
</g>
</g>
<!-- Node35 -->
<g id="Node000035" class="node">
<title>Node35</title>
<g id="a_Node000035"><a xlink:href="classCCSDS_1_1Header.html#a6ac965b4a0dd459bb41e78225a376b18" target="_top" xlink:title="1 bits">
<polygon fill="white" stroke="#666666" points="1057,-619 922,-619 922,-600 1057,-600 1057,-619"/>
<text text-anchor="middle" x="989.5" y="-607" font-family="Helvetica,sans-Serif" font-size="10.00">CCSDS::Header::getType</text>
</a>
</g>
</g>
<!-- Node27&#45;&gt;Node35 -->
<g id="edge33_Node000027_Node000035" class="edge">
<title>Node27&#45;&gt;Node35</title>
<g id="a_edge33_Node000027_Node000035"><a xlink:title=" ">
<path fill="none" stroke="#63b8ff" d="M805.64,-533.21C825.93,-547.75 866.58,-575.14 905,-590.5 911.4,-593.06 918.22,-595.31 925.1,-597.29"/>
<polygon fill="#63b8ff" stroke="#63b8ff" points="924.61,-600.79 935.18,-599.99 926.42,-594.02 924.61,-600.79"/>
</a>
</g>
</g>
<!-- Node36 -->
<g id="Node000036" class="node">
<title>Node36</title>
<g id="a_Node000036"><a xlink:href="classCCSDS_1_1Header.html#a2e77e7032a48a692bb8dd0754ecccdc5" target="_top" xlink:title="3 bits">
<polygon fill="white" stroke="#666666" points="1064,-581.5 915,-581.5 915,-551.5 1064,-551.5 1064,-581.5"/>
<text text-anchor="start" x="923" y="-569.5" font-family="Helvetica,sans-Serif" font-size="10.00">CCSDS::Header::getVersion</text>
<text text-anchor="middle" x="989.5" y="-558.5" font-family="Helvetica,sans-Serif" font-size="10.00">Number</text>
</a>
</g>
</g>
<!-- Node27&#45;&gt;Node36 -->
<g id="edge34_Node000027_Node000036" class="edge">
<title>Node27&#45;&gt;Node36</title>
<g id="a_edge34_Node000027_Node000036"><a xlink:title=" ">
<path fill="none" stroke="#63b8ff" d="M828.91,-531.49C851.68,-536.48 881.93,-543.12 909.96,-549.27"/>
<polygon fill="#63b8ff" stroke="#63b8ff" points="909.24,-552.7 919.76,-551.42 910.74,-545.86 909.24,-552.7"/>
</a>
</g>
</g>
<!-- Node40 -->
<g id="Node000040" class="node">
<title>Node40</title>
<g id="a_Node000040"><a xlink:href="classCCSDS_1_1Packet.html#a25e1bfe92e9b301eebcda0b932895a6d" target="_top" xlink:title="Sets the application data for the packet.">
<polygon fill="white" stroke="#666666" points="496,-421 310,-421 310,-402 496,-402 496,-421"/>
<text text-anchor="middle" x="403" y="-409" font-family="Helvetica,sans-Serif" font-size="10.00">CCSDS::Packet::setApplicationData</text>
</a>
</g>
</g>
<!-- Node39&#45;&gt;Node40 -->
<g id="edge39_Node000039_Node000040" class="edge">
<title>Node39&#45;&gt;Node40</title>
<g id="a_edge39_Node000039_Node000040"><a xlink:title=" ">
<path fill="none" stroke="#63b8ff" d="M233.11,-439.96C264.21,-434.72 302.95,-428.19 335.48,-422.71"/>
<polygon fill="#63b8ff" stroke="#63b8ff" points="336.09,-426.16 345.36,-421.04 334.92,-419.25 336.09,-426.16"/>
</a>
</g>
</g>
<!-- Node41 -->
<g id="Node000041" class="node">
<title>Node41</title>
<g id="a_Node000041"><a xlink:href="classCCSDS_1_1Packet.html#a0574c8d03d7c0eb6593353947623e239" target="_top" xlink:title="Sets the sequence count for the packet.">
<polygon fill="white" stroke="#666666" points="480.5,-383.5 325.5,-383.5 325.5,-353.5 480.5,-353.5 480.5,-383.5"/>
<text text-anchor="start" x="333.5" y="-371.5" font-family="Helvetica,sans-Serif" font-size="10.00">CCSDS::Packet::setSequence</text>
<text text-anchor="middle" x="403" y="-360.5" font-family="Helvetica,sans-Serif" font-size="10.00">Count</text>
</a>
</g>
</g>
<!-- Node39&#45;&gt;Node41 -->
<g id="edge40_Node000039_Node000041" class="edge">
<title>Node39&#45;&gt;Node41</title>
<g id="a_edge40_Node000039_Node000041"><a xlink:title=" ">
<path fill="none" stroke="#63b8ff" d="M250.84,-439.97C258.91,-437.5 266.79,-434.4 274,-430.5 294.18,-419.59 290.23,-405.14 310,-393.5 313.69,-391.33 317.57,-389.34 321.58,-387.52"/>
<polygon fill="#63b8ff" stroke="#63b8ff" points="323.19,-390.64 331.09,-383.57 320.51,-384.17 323.19,-390.64"/>
</a>
</g>
</g>
<!-- Node42 -->
<g id="Node000042" class="node">
<title>Node42</title>
<g id="a_Node000042"><a xlink:href="classCCSDS_1_1Packet.html#a8a9c3befafa7f93482c1e37375bc23d4" target="_top" xlink:title="Sets the sequence flags for the packet&#39;s primary header.">
<polygon fill="white" stroke="#666666" points="480.5,-335.5 325.5,-335.5 325.5,-305.5 480.5,-305.5 480.5,-335.5"/>
<text text-anchor="start" x="333.5" y="-323.5" font-family="Helvetica,sans-Serif" font-size="10.00">CCSDS::Packet::setSequence</text>
<text text-anchor="middle" x="403" y="-312.5" font-family="Helvetica,sans-Serif" font-size="10.00">Flags</text>
</a>
</g>
</g>
<!-- Node39&#45;&gt;Node42 -->
<g id="edge41_Node000039_Node000042" class="edge">
<title>Node39&#45;&gt;Node42</title>
<g id="a_edge41_Node000039_Node000042"><a xlink:title=" ">
<path fill="none" stroke="#63b8ff" d="M258.57,-439.99C264.1,-437.44 269.32,-434.31 274,-430.5 306.13,-404.34 278.71,-371.66 310,-344.5 312.02,-342.75 314.15,-341.12 316.37,-339.61"/>
<polygon fill="#63b8ff" stroke="#63b8ff" points="318.48,-342.43 325.34,-334.35 314.94,-336.39 318.48,-342.43"/>
</a>
</g>
</g>
<!-- Node43 -->
<g id="Node000043" class="node">
<title>Node43</title>
<g id="a_Node000043"><a xlink:href="classCCSDS_1_1Packet.html#a29f623c1b7b29e37a2a71c556169b1c1" target="_top" xlink:title="needs to be called as soon as possible, probably also from constructor.">
<polygon fill="white" stroke="#666666" points="474.5,-469.5 331.5,-469.5 331.5,-439.5 474.5,-439.5 474.5,-469.5"/>
<text text-anchor="start" x="339.5" y="-457.5" font-family="Helvetica,sans-Serif" font-size="10.00">CCSDS::Packet::setUpdate</text>
<text text-anchor="middle" x="403" y="-446.5" font-family="Helvetica,sans-Serif" font-size="10.00">PacketEnable</text>
</a>
</g>
</g>
<!-- Node39&#45;&gt;Node43 -->
<g id="edge42_Node000039_Node000043" class="edge">
<title>Node39&#45;&gt;Node43</title>
<g id="a_edge42_Node000039_Node000043"><a xlink:title=" ">
<path fill="none" stroke="#63b8ff" d="M274.1,-451.66C289.76,-452.01 305.83,-452.37 321.05,-452.71"/>
<polygon fill="#63b8ff" stroke="#63b8ff" points="321.37,-456.21 331.44,-452.94 321.52,-449.21 321.37,-456.21"/>
</a>
</g>
</g>
<!-- Node47&#45;&gt;Node26 -->
<g id="edge47_Node000047_Node000026" class="edge">
<title>Node47&#45;&gt;Node26</title>
<g id="a_edge47_Node000047_Node000026"><a xlink:title=" ">
<path fill="none" stroke="#63b8ff" d="M678.4,-277.5C745.04,-277.5 843.58,-277.5 911.61,-277.5"/>
<polygon fill="#63b8ff" stroke="#63b8ff" points="911.84,-281 921.84,-277.5 911.84,-274 911.84,-281"/>
</a>
</g>
</g>
</g>
</svg>
