<?xml version="1.0" encoding="UTF-8" standalone="no"?>
<!DOCTYPE svg PUBLIC "-//W3C//DTD SVG 1.1//EN"
 "http://www.w3.org/Graphics/SVG/1.1/DTD/svg11.dtd">
<!-- Generated by graphviz version 2.43.0 (0)
 -->
<!-- Title: src/exec_encoder.cpp Pages: 1 -->
<!--zoomable 577 -->

<svg id="main" version="1.1" xmlns="http://www.w3.org/2000/svg" xmlns:xlink="http://www.w3.org/1999/xlink" xml:space="preserve" onload="init(evt)">
<style type="text/css"><![CDATA[
.node, .edge {opacity: 0.7;}
.node.selected, .edge.selected {opacity: 1;}
.edge:hover path { stroke: red; }
.edge:hover polygon { stroke: red; fill: red; }
]]></style>

<defs>
  <circle id="rim" cx="0" cy="0" r="7"/>
  <circle id="rim2" cx="0" cy="0" r="3.5"/>
  <g id="zoomPlus">
    <use xlink:href="#rim" fill="#404040"><set attributeName="fill" to="#808080" begin="zoomplus.mouseover" end="zoomplus.mouseout"/></use>
    <path d="M-4,0h8M0,-4v8" fill="none" stroke="white" stroke-width="1.5" pointer-events="none"/>
  </g>
  <g id="zoomMin">
    <use xlink:href="#rim" fill="#404040"><set attributeName="fill" to="#808080" begin="zoomminus.mouseover" end="zoomminus.mouseout"/></use>
    <path d="M-4,0h8" fill="none" stroke="white" stroke-width="1.5" pointer-events="none"/>
  </g>
  <g id="arrowUp" transform="translate(30 24)">
    <use xlink:href="#rim"/>
    <path pointer-events="none" fill="none" stroke="white" stroke-width="1.5" d="M0,-3.0v7 M-2.5,-0.5L0,-3.0L2.5,-0.5"/>
  </g>
  <g id="arrowRight" transform="rotate(90) translate(36 -43)">
    <use xlink:href="#rim"/>
    <path pointer-events="none" fill="none" stroke="white" stroke-width="1.5" d="M0,-3.0v7 M-2.5,-0.5L0,-3.0L2.5,-0.5"/>
  </g>
  <g id="arrowDown" transform="rotate(180) translate(-30 -48)">
    <use xlink:href="#rim"/>
    <path pointer-events="none" fill="none" stroke="white" stroke-width="1.5" d="M0,-3.0v7 M-2.5,-0.5L0,-3.0L2.5,-0.5"/>
  </g>
  <g id="arrowLeft" transform="rotate(270) translate(-36 17)">
    <use xlink:href="#rim"/>
    <path pointer-events="none" fill="none" stroke="white" stroke-width="1.5" d="M0,-3.0v7 M-2.5,-0.5L0,-3.0L2.5,-0.5"/>
  </g>
  <g id="resetDef">
    <use xlink:href="#rim2" fill="#404040"><set attributeName="fill" to="#808080" begin="reset.mouseover" end="reset.mouseout"/></use>
  </g>
</defs>
<script type="application/ecmascript">
var viewWidth = 1076;
var viewHeight = 577;
var sectionId = 'dynsection-0';
</script>
<script type="application/ecmascript" xlink:href="svg.min.js"/>
<svg id="graph" class="graph">
<g id="viewport">
<title>src/exec_encoder.cpp</title>
<!-- Node1 -->
<g id="Node000001" class="node">
<title>Node1</title>
<g id="a_Node000001"><a xlink:title=" ">
<polygon fill="#999999" stroke="#666666" points="815,-569 695,-569 695,-550 815,-550 815,-569"/>
<text text-anchor="middle" x="755" y="-557" font-family="Helvetica,sans-Serif" font-size="10.00">src/exec_encoder.cpp</text>
</a>
</g>
</g>
<!-- Node2 -->
<g id="Node000002" class="node">
<title>Node2</title>
<g id="a_Node000002"><a xlink:title=" ">
<polygon fill="#e0e0e0" stroke="#999999" points="346.5,-19 253.5,-19 253.5,0 346.5,0 346.5,-19"/>
<text text-anchor="middle" x="300" y="-7" font-family="Helvetica,sans-Serif" font-size="10.00">unordered_map</text>
</a>
</g>
</g>
<!-- Node1&#45;&gt;Node2 -->
<g id="edge1_Node000001_Node000002" class="edge">
<title>Node1&#45;&gt;Node2</title>
<g id="a_edge1_Node000001_Node000002"><a xlink:title=" ">
<path fill="none" stroke="#63b8ff" d="M694.98,-556.75C566.33,-552.55 267.76,-540.23 170,-514 107.12,-497.13 38,-515.6 38,-450.5 38,-450.5 38,-450.5 38,-118.5 38,-30.33 166.39,-12.68 243.41,-10.02"/>
<polygon fill="#63b8ff" stroke="#63b8ff" points="243.56,-13.52 253.46,-9.75 243.37,-6.52 243.56,-13.52"/>
</a>
</g>
</g>
<!-- Node3 -->
<g id="Node000003" class="node">
<title>Node3</title>
<g id="a_Node000003"><a xlink:title=" ">
<polygon fill="#e0e0e0" stroke="#999999" points="1040,-129 996,-129 996,-110 1040,-110 1040,-129"/>
<text text-anchor="middle" x="1018" y="-117" font-family="Helvetica,sans-Serif" font-size="10.00">string</text>
</a>
</g>
</g>
<!-- Node1&#45;&gt;Node3 -->
<g id="edge2_Node000001_Node000003" class="edge">
<title>Node1&#45;&gt;Node3</title>
<g id="a_edge2_Node000001_Node000003"><a xlink:title=" ">
<path fill="none" stroke="#63b8ff" d="M815.21,-556.76C861.66,-553.05 926.03,-542.58 975,-514 1007.25,-495.18 1030,-487.84 1030,-450.5 1030,-450.5 1030,-450.5 1030,-228.5 1030,-197 1024.89,-160.64 1021.34,-139.16"/>
<polygon fill="#63b8ff" stroke="#63b8ff" points="1024.76,-138.4 1019.62,-129.14 1017.87,-139.59 1024.76,-138.4"/>
</a>
</g>
</g>
<!-- Node4 -->
<g id="Node000004" class="node">
<title>Node4</title>
<g id="a_Node000004"><a xlink:title=" ">
<polygon fill="#e0e0e0" stroke="#999999" points="879.5,-19 832.5,-19 832.5,0 879.5,0 879.5,-19"/>
<text text-anchor="middle" x="856" y="-7" font-family="Helvetica,sans-Serif" font-size="10.00">vector</text>
</a>
</g>
</g>
<!-- Node1&#45;&gt;Node4 -->
<g id="edge3_Node000001_Node000004" class="edge">
<title>Node1&#45;&gt;Node4</title>
<g id="a_edge3_Node000001_Node000004"><a xlink:title=" ">
<path fill="none" stroke="#63b8ff" d="M815.05,-557.7C867.59,-554.76 944.57,-544.88 1004,-514 1039.56,-495.53 1068,-490.57 1068,-450.5 1068,-450.5 1068,-450.5 1068,-118.5 1068,-39.59 949.95,-18.31 890.03,-12.59"/>
<polygon fill="#63b8ff" stroke="#63b8ff" points="890.17,-9.09 879.91,-11.72 889.57,-16.06 890.17,-9.09"/>
</a>
</g>
</g>
<!-- Node5 -->
<g id="Node000005" class="node">
<title>Node5</title>
<g id="a_Node000005"><a xlink:title=" ">
<polygon fill="#e0e0e0" stroke="#999999" points="696,-514 664,-514 664,-495 696,-495 696,-514"/>
<text text-anchor="middle" x="680" y="-502" font-family="Helvetica,sans-Serif" font-size="10.00">set</text>
</a>
</g>
</g>
<!-- Node1&#45;&gt;Node5 -->
<g id="edge4_Node000001_Node000005" class="edge">
<title>Node1&#45;&gt;Node5</title>
<g id="a_edge4_Node000001_Node000005"><a xlink:title=" ">
<path fill="none" stroke="#63b8ff" d="M742.95,-549.98C731.54,-541.92 714.17,-529.65 700.57,-520.03"/>
<polygon fill="#63b8ff" stroke="#63b8ff" points="702.46,-517.08 692.27,-514.17 698.42,-522.8 702.46,-517.08"/>
</a>
</g>
</g>
<!-- Node6 -->
<g id="Node000006" class="node">
<title>Node6</title>
<g id="a_Node000006"><a xlink:title=" ">
<polygon fill="#e0e0e0" stroke="#999999" points="131,-19 71,-19 71,0 131,0 131,-19"/>
<text text-anchor="middle" x="101" y="-7" font-family="Helvetica,sans-Serif" font-size="10.00">iostream</text>
</a>
</g>
</g>
<!-- Node1&#45;&gt;Node6 -->
<g id="edge5_Node000001_Node000006" class="edge">
<title>Node1&#45;&gt;Node6</title>
<g id="a_edge5_Node000001_Node000006"><a xlink:title=" ">
<path fill="none" stroke="#63b8ff" d="M694.87,-557.16C536.6,-553.29 116.67,-540.6 60,-514 24.85,-497.5 0,-489.33 0,-450.5 0,-450.5 0,-450.5 0,-118.5 0,-74.76 44.74,-41.41 74.66,-23.99"/>
<polygon fill="#63b8ff" stroke="#63b8ff" points="76.39,-27.03 83.41,-19.1 72.97,-20.92 76.39,-27.03"/>
</a>
</g>
</g>
<!-- Node7 -->
<g id="Node000007" class="node">
<title>Node7</title>
<g id="a_Node000007"><a xlink:title=" ">
<polygon fill="#e0e0e0" stroke="#999999" points="820,-514 752,-514 752,-495 820,-495 820,-514"/>
<text text-anchor="middle" x="786" y="-502" font-family="Helvetica,sans-Serif" font-size="10.00">filesystem</text>
</a>
</g>
</g>
<!-- Node1&#45;&gt;Node7 -->
<g id="edge6_Node000001_Node000007" class="edge">
<title>Node1&#45;&gt;Node7</title>
<g id="a_edge6_Node000001_Node000007"><a xlink:title=" ">
<path fill="none" stroke="#63b8ff" d="M760.12,-549.75C764.36,-542.49 770.53,-531.95 775.78,-522.98"/>
<polygon fill="#63b8ff" stroke="#63b8ff" points="778.95,-524.49 780.98,-514.09 772.91,-520.95 778.95,-524.49"/>
</a>
</g>
</g>
<!-- Node8 -->
<g id="Node000008" class="node">
<title>Node8</title>
<g id="a_Node000008"><a xlink:href="CCSDSManager_8h.html" target="_top" xlink:title=" ">
<polygon fill="white" stroke="#666666" points="759.5,-459 658.5,-459 658.5,-440 759.5,-440 759.5,-459"/>
<text text-anchor="middle" x="709" y="-447" font-family="Helvetica,sans-Serif" font-size="10.00">CCSDSManager.h</text>
</a>
</g>
</g>
<!-- Node1&#45;&gt;Node8 -->
<g id="edge7_Node000001_Node000008" class="edge">
<title>Node1&#45;&gt;Node8</title>
<g id="a_edge7_Node000001_Node000008"><a xlink:title=" ">
<path fill="none" stroke="#63b8ff" d="M751.24,-549.66C743.72,-532.01 726.71,-492.09 716.72,-468.64"/>
<polygon fill="#63b8ff" stroke="#63b8ff" points="719.83,-466.99 712.69,-459.16 713.39,-469.73 719.83,-466.99"/>
</a>
</g>
</g>
<!-- Node11 -->
<g id="Node000011" class="node">
<title>Node11</title>
<g id="a_Node000011"><a xlink:href="CCSDSResult_8h.html" target="_top" xlink:title=" ">
<polygon fill="white" stroke="#666666" points="429.5,-74 340.5,-74 340.5,-55 429.5,-55 429.5,-74"/>
<text text-anchor="middle" x="385" y="-62" font-family="Helvetica,sans-Serif" font-size="10.00">CCSDSResult.h</text>
</a>
</g>
</g>
<!-- Node1&#45;&gt;Node11 -->
<g id="edge45_Node000001_Node000011" class="edge">
<title>Node1&#45;&gt;Node11</title>
<g id="a_edge45_Node000001_Node000011"><a xlink:title=" ">
<path fill="none" stroke="#63b8ff" d="M694.74,-555.22C528.57,-545.38 76,-512.87 76,-450.5 76,-450.5 76,-450.5 76,-173.5 76,-136.16 98.51,-128.4 131,-110 164.28,-91.16 266.28,-77.64 330.45,-70.74"/>
<polygon fill="#63b8ff" stroke="#63b8ff" points="330.83,-74.22 340.4,-69.69 330.09,-67.26 330.83,-74.22"/>
</a>
</g>
</g>
<!-- Node14 -->
<g id="Node000014" class="node">
<title>Node14</title>
<g id="a_Node000014"><a xlink:href="CCSDSHeader_8h.html" target="_top" xlink:title=" ">
<polygon fill="white" stroke="#666666" points="825.5,-129 732.5,-129 732.5,-110 825.5,-110 825.5,-129"/>
<text text-anchor="middle" x="779" y="-117" font-family="Helvetica,sans-Serif" font-size="10.00">CCSDSHeader.h</text>
</a>
</g>
</g>
<!-- Node1&#45;&gt;Node14 -->
<g id="edge44_Node000001_Node000014" class="edge">
<title>Node1&#45;&gt;Node14</title>
<g id="a_edge44_Node000001_Node000014"><a xlink:title=" ">
<path fill="none" stroke="#63b8ff" d="M776.63,-549.91C792.89,-542.5 814.74,-530.4 829,-514 849.12,-490.86 856,-481.17 856,-450.5 856,-450.5 856,-450.5 856,-283.5 856,-225.04 815.01,-165.11 792.84,-136.98"/>
<polygon fill="#63b8ff" stroke="#63b8ff" points="795.4,-134.58 786.38,-129.01 789.96,-138.98 795.4,-134.58"/>
</a>
</g>
</g>
<!-- Node22 -->
<g id="Node000022" class="node">
<title>Node22</title>
<g id="a_Node000022"><a xlink:href="CCSDSUtils_8h.html" target="_top" xlink:title=" ">
<polygon fill="white" stroke="#666666" points="965.5,-514 884.5,-514 884.5,-495 965.5,-495 965.5,-514"/>
<text text-anchor="middle" x="925" y="-502" font-family="Helvetica,sans-Serif" font-size="10.00">CCSDSUtils.h</text>
</a>
</g>
</g>
<!-- Node1&#45;&gt;Node22 -->
<g id="edge46_Node000001_Node000022" class="edge">
<title>Node1&#45;&gt;Node22</title>
<g id="a_edge46_Node000001_Node000022"><a xlink:title=" ">
<path fill="none" stroke="#63b8ff" d="M782.31,-549.98C810.85,-541.09 855.83,-527.07 887.64,-517.15"/>
<polygon fill="#63b8ff" stroke="#63b8ff" points="888.97,-520.4 897.47,-514.08 886.88,-513.72 888.97,-520.4"/>
</a>
</g>
</g>
<!-- Node9 -->
<g id="Node000009" class="node">
<title>Node9</title>
<g id="a_Node000009"><a xlink:title=" ">
<polygon fill="#e0e0e0" stroke="#999999" points="632.5,-404 587.5,-404 587.5,-385 632.5,-385 632.5,-404"/>
<text text-anchor="middle" x="610" y="-392" font-family="Helvetica,sans-Serif" font-size="10.00">utility</text>
</a>
</g>
</g>
<!-- Node8&#45;&gt;Node9 -->
<g id="edge8_Node000008_Node000009" class="edge">
<title>Node8&#45;&gt;Node9</title>
<g id="a_edge8_Node000008_Node000009"><a xlink:title=" ">
<path fill="none" stroke="#63b8ff" d="M693.09,-439.98C677.45,-431.61 653.34,-418.7 635.12,-408.95"/>
<polygon fill="#63b8ff" stroke="#63b8ff" points="636.66,-405.8 626.2,-404.17 633.36,-411.98 636.66,-405.8"/>
</a>
</g>
</g>
<!-- Node10 -->
<g id="Node000010" class="node">
<title>Node10</title>
<g id="a_Node000010"><a xlink:href="CCSDSPacket_8h.html" target="_top" xlink:title=" ">
<polygon fill="white" stroke="#666666" points="787,-349 697,-349 697,-330 787,-330 787,-349"/>
<text text-anchor="middle" x="742" y="-337" font-family="Helvetica,sans-Serif" font-size="10.00">CCSDSPacket.h</text>
</a>
</g>
</g>
<!-- Node8&#45;&gt;Node10 -->
<g id="edge9_Node000008_Node000010" class="edge">
<title>Node8&#45;&gt;Node10</title>
<g id="a_edge9_Node000008_Node000010"><a xlink:title=" ">
<path fill="none" stroke="#63b8ff" d="M725.03,-439.95C737.41,-432.35 753.65,-419.97 761,-404 767.83,-389.17 761.25,-371.28 754.04,-358.27"/>
<polygon fill="#63b8ff" stroke="#63b8ff" points="756.81,-356.11 748.6,-349.41 750.85,-359.77 756.81,-356.11"/>
</a>
</g>
</g>
<!-- Node8&#45;&gt;Node11 -->
<g id="edge41_Node000008_Node000011" class="edge">
<title>Node8&#45;&gt;Node11</title>
<g id="a_edge41_Node000008_Node000011"><a xlink:title=" ">
<path fill="none" stroke="#63b8ff" d="M658.27,-444.63C514.38,-432.98 114,-395.62 114,-340.5 114,-340.5 114,-340.5 114,-173.5 114,-137.85 132.72,-128.81 163,-110 213.87,-78.41 282.8,-68.66 330.29,-65.94"/>
<polygon fill="#63b8ff" stroke="#63b8ff" points="330.56,-69.43 340.38,-65.45 330.22,-62.44 330.56,-69.43"/>
</a>
</g>
</g>
<!-- Node21 -->
<g id="Node000021" class="node">
<title>Node21</title>
<g id="a_Node000021"><a xlink:href="CCSDSValidator_8h.html" target="_top" xlink:title="Defines the Validator class for CCSDS packet validation.">
<polygon fill="white" stroke="#666666" points="751.5,-404 650.5,-404 650.5,-385 751.5,-385 751.5,-404"/>
<text text-anchor="middle" x="701" y="-392" font-family="Helvetica,sans-Serif" font-size="10.00">CCSDSValidator.h</text>
</a>
</g>
</g>
<!-- Node8&#45;&gt;Node21 -->
<g id="edge42_Node000008_Node000021" class="edge">
<title>Node8&#45;&gt;Node21</title>
<g id="a_edge42_Node000008_Node000021"><a xlink:title=" ">
<path fill="none" stroke="#63b8ff" d="M707.68,-439.75C706.63,-432.8 705.13,-422.85 703.81,-414.13"/>
<polygon fill="#63b8ff" stroke="#63b8ff" points="707.25,-413.45 702.3,-404.09 700.33,-414.5 707.25,-413.45"/>
</a>
</g>
</g>
<!-- Node10&#45;&gt;Node4 -->
<g id="edge17_Node000010_Node000004" class="edge">
<title>Node10&#45;&gt;Node4</title>
<g id="a_edge17_Node000010_Node000004"><a xlink:title=" ">
<path fill="none" stroke="#63b8ff" d="M748.92,-329.58C773.27,-297.44 854.38,-183.59 870,-74 871.19,-65.64 871.28,-63.35 870,-55 868.65,-46.19 865.87,-36.74 863.15,-28.82"/>
<polygon fill="#63b8ff" stroke="#63b8ff" points="866.34,-27.35 859.6,-19.18 859.77,-29.77 866.34,-27.35"/>
</a>
</g>
</g>
<!-- Node10&#45;&gt;Node11 -->
<g id="edge10_Node000010_Node000011" class="edge">
<title>Node10&#45;&gt;Node11</title>
<g id="a_edge10_Node000010_Node000011"><a xlink:title=" ">
<path fill="none" stroke="#63b8ff" d="M696.68,-335C558.53,-323.72 152,-285.82 152,-230.5 152,-230.5 152,-230.5 152,-173.5 152,-95.36 261.2,-73.59 330.08,-67.63"/>
<polygon fill="#63b8ff" stroke="#63b8ff" points="330.65,-71.1 340.35,-66.84 330.11,-64.12 330.65,-71.1"/>
</a>
</g>
</g>
<!-- Node13 -->
<g id="Node000013" class="node">
<title>Node13</title>
<g id="a_Node000013"><a xlink:title=" ">
<polygon fill="#e0e0e0" stroke="#999999" points="691,-19 641,-19 641,0 691,0 691,-19"/>
<text text-anchor="middle" x="666" y="-7" font-family="Helvetica,sans-Serif" font-size="10.00">cstdint</text>
</a>
</g>
</g>
<!-- Node10&#45;&gt;Node13 -->
<g id="edge16_Node000010_Node000013" class="edge">
<title>Node10&#45;&gt;Node13</title>
<g id="a_edge16_Node000010_Node000013"><a xlink:title=" ">
<path fill="none" stroke="#63b8ff" d="M736.72,-329.9C726.27,-312.07 704,-269.46 704,-230.5 704,-230.5 704,-230.5 704,-118.5 704,-85.02 687.55,-48.84 676.3,-28.01"/>
<polygon fill="#63b8ff" stroke="#63b8ff" points="679.24,-26.1 671.28,-19.1 673.13,-29.53 679.24,-26.1"/>
</a>
</g>
</g>
<!-- Node10&#45;&gt;Node14 -->
<g id="edge18_Node000010_Node000014" class="edge">
<title>Node10&#45;&gt;Node14</title>
<g id="a_edge18_Node000010_Node000014"><a xlink:title=" ">
<path fill="none" stroke="#63b8ff" d="M743.45,-329.95C748.89,-297.88 768.19,-184.2 775.84,-139.12"/>
<polygon fill="#63b8ff" stroke="#63b8ff" points="779.3,-139.67 777.52,-129.22 772.4,-138.5 779.3,-139.67"/>
</a>
</g>
</g>
<!-- Node15 -->
<g id="Node000015" class="node">
<title>Node15</title>
<g id="a_Node000015"><a xlink:href="CCSDSDataField_8h.html" target="_top" xlink:title=" ">
<polygon fill="white" stroke="#666666" points="569.5,-294 464.5,-294 464.5,-275 569.5,-275 569.5,-294"/>
<text text-anchor="middle" x="517" y="-282" font-family="Helvetica,sans-Serif" font-size="10.00">CCSDSDataField.h</text>
</a>
</g>
</g>
<!-- Node10&#45;&gt;Node15 -->
<g id="edge22_Node000010_Node000015" class="edge">
<title>Node10&#45;&gt;Node15</title>
<g id="a_edge22_Node000010_Node000015"><a xlink:title=" ">
<path fill="none" stroke="#63b8ff" d="M705.85,-329.98C667.09,-320.86 605.45,-306.33 563.2,-296.38"/>
<polygon fill="#63b8ff" stroke="#63b8ff" points="563.97,-292.97 553.43,-294.08 562.36,-299.78 563.97,-292.97"/>
</a>
</g>
</g>
<!-- Node11&#45;&gt;Node2 -->
<g id="edge11_Node000011_Node000002" class="edge">
<title>Node11&#45;&gt;Node2</title>
<g id="a_edge11_Node000011_Node000002"><a xlink:title=" ">
<path fill="none" stroke="#63b8ff" d="M371.34,-54.98C358.16,-46.77 337.97,-34.18 322.43,-24.49"/>
<polygon fill="#63b8ff" stroke="#63b8ff" points="324.24,-21.49 313.91,-19.17 320.54,-27.43 324.24,-21.49"/>
</a>
</g>
</g>
<!-- Node11&#45;&gt;Node4 -->
<g id="edge13_Node000011_Node000004" class="edge">
<title>Node11&#45;&gt;Node4</title>
<g id="a_edge13_Node000011_Node000004"><a xlink:title=" ">
<path fill="none" stroke="#63b8ff" d="M429.74,-58.47C523.54,-47.91 739.03,-23.66 822.3,-14.29"/>
<polygon fill="#63b8ff" stroke="#63b8ff" points="822.69,-17.77 832.24,-13.17 821.91,-10.81 822.69,-17.77"/>
</a>
</g>
</g>
<!-- Node11&#45;&gt;Node6 -->
<g id="edge15_Node000011_Node000006" class="edge">
<title>Node11&#45;&gt;Node6</title>
<g id="a_edge15_Node000011_Node000006"><a xlink:title=" ">
<path fill="none" stroke="#63b8ff" d="M340.31,-55.16C285.54,-44.94 193.56,-27.77 141.01,-17.97"/>
<polygon fill="#63b8ff" stroke="#63b8ff" points="141.52,-14.5 131.05,-16.11 140.24,-21.38 141.52,-14.5"/>
</a>
</g>
</g>
<!-- Node12 -->
<g id="Node000012" class="node">
<title>Node12</title>
<g id="a_Node000012"><a xlink:title=" ">
<polygon fill="#e0e0e0" stroke="#999999" points="415.5,-19 364.5,-19 364.5,0 415.5,0 415.5,-19"/>
<text text-anchor="middle" x="390" y="-7" font-family="Helvetica,sans-Serif" font-size="10.00">variant</text>
</a>
</g>
</g>
<!-- Node11&#45;&gt;Node12 -->
<g id="edge12_Node000011_Node000012" class="edge">
<title>Node11&#45;&gt;Node12</title>
<g id="a_edge12_Node000011_Node000012"><a xlink:title=" ">
<path fill="none" stroke="#63b8ff" d="M385.83,-54.75C386.48,-47.8 387.42,-37.85 388.24,-29.13"/>
<polygon fill="#63b8ff" stroke="#63b8ff" points="391.73,-29.37 389.19,-19.09 384.77,-28.72 391.73,-29.37"/>
</a>
</g>
</g>
<!-- Node11&#45;&gt;Node13 -->
<g id="edge14_Node000011_Node000013" class="edge">
<title>Node11&#45;&gt;Node13</title>
<g id="a_edge14_Node000011_Node000013"><a xlink:title=" ">
<path fill="none" stroke="#63b8ff" d="M429.53,-55.1C485.41,-44.56 580.1,-26.7 631.06,-17.09"/>
<polygon fill="#63b8ff" stroke="#63b8ff" points="631.76,-20.52 640.94,-15.23 630.46,-13.64 631.76,-20.52"/>
</a>
</g>
</g>
<!-- Node14&#45;&gt;Node4 -->
<g id="edge21_Node000014_Node000004" class="edge">
<title>Node14&#45;&gt;Node4</title>
<g id="a_edge21_Node000014_Node000004"><a xlink:title=" ">
<path fill="none" stroke="#63b8ff" d="M785.3,-109.66C798.11,-91.69 827.38,-50.64 843.96,-27.38"/>
<polygon fill="#63b8ff" stroke="#63b8ff" points="846.87,-29.33 849.83,-19.16 841.17,-25.27 846.87,-29.33"/>
</a>
</g>
</g>
<!-- Node14&#45;&gt;Node11 -->
<g id="edge19_Node000014_Node000011" class="edge">
<title>Node14&#45;&gt;Node11</title>
<g id="a_edge19_Node000014_Node000011"><a xlink:title=" ">
<path fill="none" stroke="#63b8ff" d="M732.26,-112.21C659,-102.36 517.51,-83.32 439.65,-72.85"/>
<polygon fill="#63b8ff" stroke="#63b8ff" points="439.94,-69.36 429.56,-71.49 439.01,-76.3 439.94,-69.36"/>
</a>
</g>
</g>
<!-- Node14&#45;&gt;Node13 -->
<g id="edge20_Node000014_Node000013" class="edge">
<title>Node14&#45;&gt;Node13</title>
<g id="a_edge20_Node000014_Node000013"><a xlink:title=" ">
<path fill="none" stroke="#63b8ff" d="M770.97,-109.61C759.55,-97.08 737.79,-73.68 718,-55 707.2,-44.8 694.55,-33.96 684.43,-25.52"/>
<polygon fill="#63b8ff" stroke="#63b8ff" points="686.56,-22.74 676.62,-19.07 682.1,-28.14 686.56,-22.74"/>
</a>
</g>
</g>
<!-- Node15&#45;&gt;Node4 -->
<g id="edge25_Node000015_Node000004" class="edge">
<title>Node15&#45;&gt;Node4</title>
<g id="a_edge25_Node000015_Node000004"><a xlink:title=" ">
<path fill="none" stroke="#63b8ff" d="M562.73,-274.97C633.16,-259.28 767.11,-218.87 835,-129 857.17,-99.65 858.78,-54.63 857.62,-29.37"/>
<polygon fill="#63b8ff" stroke="#63b8ff" points="861.11,-29.03 856.96,-19.28 854.12,-29.49 861.11,-29.03"/>
</a>
</g>
</g>
<!-- Node15&#45;&gt;Node11 -->
<g id="edge23_Node000015_Node000011" class="edge">
<title>Node15&#45;&gt;Node11</title>
<g id="a_edge23_Node000015_Node000011"><a xlink:title=" ">
<path fill="none" stroke="#63b8ff" d="M464.23,-281.48C418.1,-277.74 350.62,-267.38 299,-239 243.65,-208.57 227.43,-189.42 209,-129 206.54,-120.92 203.81,-116.66 209,-110 223.85,-90.93 284.1,-78.73 330.01,-72.02"/>
<polygon fill="#63b8ff" stroke="#63b8ff" points="330.73,-75.45 340.15,-70.59 329.76,-68.52 330.73,-75.45"/>
</a>
</g>
</g>
<!-- Node15&#45;&gt;Node13 -->
<g id="edge24_Node000015_Node000013" class="edge">
<title>Node15&#45;&gt;Node13</title>
<g id="a_edge24_Node000015_Node000013"><a xlink:title=" ">
<path fill="none" stroke="#63b8ff" d="M527.72,-274.73C553.39,-253.05 618.43,-193.98 648,-129 662.89,-96.28 665.88,-53.77 666.25,-29.57"/>
<polygon fill="#63b8ff" stroke="#63b8ff" points="669.75,-29.29 666.26,-19.29 662.75,-29.28 669.75,-29.29"/>
</a>
</g>
</g>
<!-- Node16 -->
<g id="Node000016" class="node">
<title>Node16</title>
<g id="a_Node000016"><a xlink:title=" ">
<polygon fill="#e0e0e0" stroke="#999999" points="276,-129 218,-129 218,-110 276,-110 276,-129"/>
<text text-anchor="middle" x="247" y="-117" font-family="Helvetica,sans-Serif" font-size="10.00">memory</text>
</a>
</g>
</g>
<!-- Node15&#45;&gt;Node16 -->
<g id="edge26_Node000015_Node000016" class="edge">
<title>Node15&#45;&gt;Node16</title>
<g id="a_edge26_Node000015_Node000016"><a xlink:title=" ">
<path fill="none" stroke="#63b8ff" d="M464.35,-277.98C405.46,-268.89 311.58,-245.18 260,-184 249.69,-171.77 246.82,-153.53 246.31,-139.74"/>
<polygon fill="#63b8ff" stroke="#63b8ff" points="249.81,-139.43 246.32,-129.42 242.81,-139.42 249.81,-139.43"/>
</a>
</g>
</g>
<!-- Node17 -->
<g id="Node000017" class="node">
<title>Node17</title>
<g id="a_Node000017"><a xlink:href="CCSDSSecondaryHeaderAbstract_8h.html" target="_top" xlink:title=" ">
<polygon fill="white" stroke="#666666" points="638.5,-129 453.5,-129 453.5,-110 638.5,-110 638.5,-129"/>
<text text-anchor="middle" x="546" y="-117" font-family="Helvetica,sans-Serif" font-size="10.00">CCSDSSecondaryHeaderAbstract.h</text>
</a>
</g>
</g>
<!-- Node15&#45;&gt;Node17 -->
<g id="edge27_Node000015_Node000017" class="edge">
<title>Node15&#45;&gt;Node17</title>
<g id="a_edge27_Node000015_Node000017"><a xlink:title=" ">
<path fill="none" stroke="#63b8ff" d="M519.98,-274.73C522.92,-265.83 527.33,-251.6 530,-239 537.41,-204.1 542.08,-162.65 544.35,-139.17"/>
<polygon fill="#63b8ff" stroke="#63b8ff" points="547.84,-139.48 545.28,-129.2 540.87,-138.83 547.84,-139.48"/>
</a>
</g>
</g>
<!-- Node18 -->
<g id="Node000018" class="node">
<title>Node18</title>
<g id="a_Node000018"><a xlink:href="CCSDSSecondaryHeaderFactory_8h.html" target="_top" xlink:title=" ">
<polygon fill="white" stroke="#666666" points="447.5,-184 268.5,-184 268.5,-165 447.5,-165 447.5,-184"/>
<text text-anchor="middle" x="358" y="-172" font-family="Helvetica,sans-Serif" font-size="10.00">CCSDSSecondaryHeaderFactory.h</text>
</a>
</g>
</g>
<!-- Node15&#45;&gt;Node18 -->
<g id="edge31_Node000015_Node000018" class="edge">
<title>Node15&#45;&gt;Node18</title>
<g id="a_edge31_Node000015_Node000018"><a xlink:title=" ">
<path fill="none" stroke="#63b8ff" d="M495.96,-274.94C477.34,-266.91 449.81,-253.93 428,-239 407.4,-224.9 386.56,-205.13 373.04,-191.41"/>
<polygon fill="#63b8ff" stroke="#63b8ff" points="375.46,-188.87 365.99,-184.12 370.43,-193.74 375.46,-188.87"/>
</a>
</g>
</g>
<!-- Node20 -->
<g id="Node000020" class="node">
<title>Node20</title>
<g id="a_Node000020"><a xlink:href="PusServices_8h.html" target="_top" xlink:title=" ">
<polygon fill="white" stroke="#666666" points="521,-239 437,-239 437,-220 521,-220 521,-239"/>
<text text-anchor="middle" x="479" y="-227" font-family="Helvetica,sans-Serif" font-size="10.00">PusServices.h</text>
</a>
</g>
</g>
<!-- Node15&#45;&gt;Node20 -->
<g id="edge37_Node000015_Node000020" class="edge">
<title>Node15&#45;&gt;Node20</title>
<g id="a_edge37_Node000015_Node000020"><a xlink:title=" ">
<path fill="none" stroke="#63b8ff" d="M510.73,-274.75C505.41,-267.34 497.64,-256.5 491.12,-247.41"/>
<polygon fill="#63b8ff" stroke="#63b8ff" points="493.83,-245.18 485.16,-239.09 488.14,-249.26 493.83,-245.18"/>
</a>
</g>
</g>
<!-- Node17&#45;&gt;Node4 -->
<g id="edge29_Node000017_Node000004" class="edge">
<title>Node17&#45;&gt;Node4</title>
<g id="a_edge29_Node000017_Node000004"><a xlink:title=" ">
<path fill="none" stroke="#63b8ff" d="M570.58,-109.94C625.8,-90.7 759.69,-44.05 822.47,-22.18"/>
<polygon fill="#63b8ff" stroke="#63b8ff" points="823.97,-25.36 832.27,-18.77 821.67,-18.75 823.97,-25.36"/>
</a>
</g>
</g>
<!-- Node17&#45;&gt;Node11 -->
<g id="edge28_Node000017_Node000011" class="edge">
<title>Node17&#45;&gt;Node11</title>
<g id="a_edge28_Node000017_Node000011"><a xlink:title=" ">
<path fill="none" stroke="#63b8ff" d="M520.13,-109.98C493.22,-101.13 450.88,-87.19 420.77,-77.28"/>
<polygon fill="#63b8ff" stroke="#63b8ff" points="421.66,-73.88 411.07,-74.08 419.47,-80.53 421.66,-73.88"/>
</a>
</g>
</g>
<!-- Node17&#45;&gt;Node13 -->
<g id="edge30_Node000017_Node000013" class="edge">
<title>Node17&#45;&gt;Node13</title>
<g id="a_edge30_Node000017_Node000013"><a xlink:title=" ">
<path fill="none" stroke="#63b8ff" d="M555.12,-109.74C568.06,-97.38 592.57,-74.16 614,-55 625.07,-45.1 637.73,-34.26 647.78,-25.76"/>
<polygon fill="#63b8ff" stroke="#63b8ff" points="650.13,-28.35 655.53,-19.23 645.62,-23 650.13,-28.35"/>
</a>
</g>
</g>
<!-- Node18&#45;&gt;Node2 -->
<g id="edge33_Node000018_Node000002" class="edge">
<title>Node18&#45;&gt;Node2</title>
<g id="a_edge33_Node000018_Node000002"><a xlink:title=" ">
<path fill="none" stroke="#63b8ff" d="M349.36,-164.76C341.52,-156.31 330.27,-142.81 324,-129 309.01,-95.98 303.32,-53.57 301.21,-29.48"/>
<polygon fill="#63b8ff" stroke="#63b8ff" points="304.68,-28.95 300.43,-19.24 297.7,-29.48 304.68,-28.95"/>
</a>
</g>
</g>
<!-- Node18&#45;&gt;Node3 -->
<g id="edge35_Node000018_Node000003" class="edge">
<title>Node18&#45;&gt;Node3</title>
<g id="a_edge35_Node000018_Node000003"><a xlink:title=" ">
<path fill="none" stroke="#63b8ff" d="M447.7,-166.3C596.83,-154.32 888.98,-130.86 985.9,-123.08"/>
<polygon fill="#63b8ff" stroke="#63b8ff" points="986.27,-126.56 995.96,-122.27 985.71,-119.58 986.27,-126.56"/>
</a>
</g>
</g>
<!-- Node18&#45;&gt;Node16 -->
<g id="edge32_Node000018_Node000016" class="edge">
<title>Node18&#45;&gt;Node16</title>
<g id="a_edge32_Node000018_Node000016"><a xlink:title=" ">
<path fill="none" stroke="#63b8ff" d="M340.17,-164.98C322.39,-156.5 294.85,-143.35 274.32,-133.54"/>
<polygon fill="#63b8ff" stroke="#63b8ff" points="275.69,-130.32 265.16,-129.17 272.67,-136.64 275.69,-130.32"/>
</a>
</g>
</g>
<!-- Node18&#45;&gt;Node17 -->
<g id="edge36_Node000018_Node000017" class="edge">
<title>Node18&#45;&gt;Node17</title>
<g id="a_edge36_Node000018_Node000017"><a xlink:title=" ">
<path fill="none" stroke="#63b8ff" d="M388.21,-164.98C420.04,-156.01 470.36,-141.82 505.6,-131.89"/>
<polygon fill="#63b8ff" stroke="#63b8ff" points="506.88,-135.16 515.56,-129.08 504.98,-128.43 506.88,-135.16"/>
</a>
</g>
</g>
<!-- Node19 -->
<g id="Node000019" class="node">
<title>Node19</title>
<g id="a_Node000019"><a xlink:title=" ">
<polygon fill="#e0e0e0" stroke="#999999" points="397.5,-129 332.5,-129 332.5,-110 397.5,-110 397.5,-129"/>
<text text-anchor="middle" x="365" y="-117" font-family="Helvetica,sans-Serif" font-size="10.00">functional</text>
</a>
</g>
</g>
<!-- Node18&#45;&gt;Node19 -->
<g id="edge34_Node000018_Node000019" class="edge">
<title>Node18&#45;&gt;Node19</title>
<g id="a_edge34_Node000018_Node000019"><a xlink:title=" ">
<path fill="none" stroke="#63b8ff" d="M359.16,-164.75C360.07,-157.8 361.39,-147.85 362.54,-139.13"/>
<polygon fill="#63b8ff" stroke="#63b8ff" points="366.03,-139.46 363.87,-129.09 359.09,-138.54 366.03,-139.46"/>
</a>
</g>
</g>
<!-- Node20&#45;&gt;Node11 -->
<g id="edge40_Node000020_Node000011" class="edge">
<title>Node20&#45;&gt;Node11</title>
<g id="a_edge40_Node000020_Node000011"><a xlink:title=" ">
<path fill="none" stroke="#63b8ff" d="M476.9,-219.96C473.63,-207.45 466.7,-183.63 457,-165 440.61,-133.51 415.08,-100.89 399.24,-81.93"/>
<polygon fill="#63b8ff" stroke="#63b8ff" points="401.84,-79.6 392.71,-74.24 396.51,-84.13 401.84,-79.6"/>
</a>
</g>
</g>
<!-- Node20&#45;&gt;Node17 -->
<g id="edge38_Node000020_Node000017" class="edge">
<title>Node20&#45;&gt;Node17</title>
<g id="a_edge38_Node000020_Node000017"><a xlink:title=" ">
<path fill="none" stroke="#63b8ff" d="M484.48,-219.66C495.58,-201.77 520.87,-161 535.33,-137.69"/>
<polygon fill="#63b8ff" stroke="#63b8ff" points="538.33,-139.5 540.63,-129.16 532.38,-135.81 538.33,-139.5"/>
</a>
</g>
</g>
<!-- Node20&#45;&gt;Node18 -->
<g id="edge39_Node000020_Node000018" class="edge">
<title>Node20&#45;&gt;Node18</title>
<g id="a_edge39_Node000020_Node000018"><a xlink:title=" ">
<path fill="none" stroke="#63b8ff" d="M459.56,-219.98C440.01,-211.42 409.62,-198.11 387.18,-188.28"/>
<polygon fill="#63b8ff" stroke="#63b8ff" points="388.36,-184.98 377.79,-184.17 385.55,-191.39 388.36,-184.98"/>
</a>
</g>
</g>
<!-- Node21&#45;&gt;Node10 -->
<g id="edge43_Node000021_Node000010" class="edge">
<title>Node21&#45;&gt;Node10</title>
<g id="a_edge43_Node000021_Node000010"><a xlink:title=" ">
<path fill="none" stroke="#63b8ff" d="M707.77,-384.75C713.56,-377.26 722.06,-366.28 729.14,-357.13"/>
<polygon fill="#63b8ff" stroke="#63b8ff" points="732.01,-359.14 735.36,-349.09 726.47,-354.86 732.01,-359.14"/>
</a>
</g>
</g>
<!-- Node22&#45;&gt;Node3 -->
<g id="edge49_Node000022_Node000003" class="edge">
<title>Node22&#45;&gt;Node3</title>
<g id="a_edge49_Node000022_Node000003"><a xlink:title=" ">
<path fill="none" stroke="#63b8ff" d="M935.45,-494.91C945.02,-486.58 959.03,-473.16 968,-459 984.15,-433.52 992,-425.67 992,-395.5 992,-395.5 992,-395.5 992,-228.5 992,-196.15 1003.17,-159.82 1010.86,-138.62"/>
<polygon fill="#63b8ff" stroke="#63b8ff" points="1014.23,-139.6 1014.49,-129.01 1007.68,-137.13 1014.23,-139.6"/>
</a>
</g>
</g>
<!-- Node22&#45;&gt;Node4 -->
<g id="edge51_Node000022_Node000004" class="edge">
<title>Node22&#45;&gt;Node4</title>
<g id="a_edge51_Node000022_Node000004"><a xlink:title=" ">
<path fill="none" stroke="#63b8ff" d="M929.03,-494.75C937,-476.64 954,-433.55 954,-395.5 954,-395.5 954,-395.5 954,-228.5 954,-146.98 896.29,-62.2 869.44,-27.17"/>
<polygon fill="#63b8ff" stroke="#63b8ff" points="871.97,-24.72 863.05,-19.01 866.46,-29.04 871.97,-24.72"/>
</a>
</g>
</g>
<!-- Node22&#45;&gt;Node8 -->
<g id="edge48_Node000022_Node000008" class="edge">
<title>Node22&#45;&gt;Node8</title>
<g id="a_edge48_Node000022_Node000008"><a xlink:title=" ">
<path fill="none" stroke="#63b8ff" d="M890.3,-494.98C853.25,-485.89 794.41,-471.46 753.87,-461.51"/>
<polygon fill="#63b8ff" stroke="#63b8ff" points="754.52,-458.07 743.98,-459.08 752.85,-464.86 754.52,-458.07"/>
</a>
</g>
</g>
<!-- Node22&#45;&gt;Node10 -->
<g id="edge47_Node000022_Node000010" class="edge">
<title>Node22&#45;&gt;Node10</title>
<g id="a_edge47_Node000022_Node000010"><a xlink:title=" ">
<path fill="none" stroke="#63b8ff" d="M915.42,-494.97C886.16,-468.9 797.64,-390.06 759.64,-356.21"/>
<polygon fill="#63b8ff" stroke="#63b8ff" points="761.73,-353.38 751.93,-349.34 757.07,-358.61 761.73,-353.38"/>
</a>
</g>
</g>
<!-- Node22&#45;&gt;Node13 -->
<g id="edge50_Node000022_Node000013" class="edge">
<title>Node22&#45;&gt;Node13</title>
<g id="a_edge50_Node000022_Node000013"><a xlink:title=" ">
<path fill="none" stroke="#63b8ff" d="M922.3,-494.92C916.84,-476.77 905,-433.07 905,-395.5 905,-395.5 905,-395.5 905,-228.5 905,-118.72 765.67,-49.49 699.77,-22.89"/>
<polygon fill="#63b8ff" stroke="#63b8ff" points="700.82,-19.54 690.23,-19.13 698.25,-26.05 700.82,-19.54"/>
</a>
</g>
</g>
</g>
</svg>

<g id="navigator" transform="translate(0 0)" fill="#404254">
  <rect fill="#f2f5e9" fill-opacity="0.5" stroke="#606060" stroke-width=".5" x="0" y="0" width="60" height="60"/>
  <use id="zoomplus" xlink:href="#zoomPlus" x="17" y="9" onmousedown="handleZoom(evt,'in')"/>
  <use id="zoomminus" xlink:href="#zoomMin" x="42" y="9" onmousedown="handleZoom(evt,'out')"/>
  <use id="reset" xlink:href="#resetDef" x="30" y="36" onmousedown="handleReset()"/>
   <use id="arrowup" xlink:href="#arrowUp" x="0" y="0" onmousedown="handlePan(0,-1)"/>
  <use id="arrowright" xlink:href="#arrowRight" x="0" y="0" onmousedown="handlePan(1,0)"/>
  <use id="arrowdown" xlink:href="#arrowDown" x="0" y="0" onmousedown="handlePan(0,1)"/>
  <use id="arrowleft" xlink:href="#arrowLeft" x="0" y="0" onmousedown="handlePan(-1,0)"/>
</g>
<svg viewBox="0 0 15 15" width="100%" height="30px" preserveAspectRatio="xMaxYMin meet">
 <g id="arrow_out" transform="scale(0.3 0.3)">
  <a xlink:href="exec__encoder_8cpp__incl_org.svg" target="_base">
   <rect id="button" ry="5" rx="5" y="6" x="6" height="38" width="38"
        fill="#f2f5e9" fill-opacity="0.5" stroke="#606060" stroke-width="1.0"/>
   <path id="arrow"
     d="M 11.500037,31.436501 C 11.940474,20.09759 22.043105,11.32322 32.158766,21.979434 L 37.068811,17.246167 C 37.068811,17.246167 37.088388,32 37.088388,32 L 22.160133,31.978069 C 22.160133,31.978069 26.997745,27.140456 26.997745,27.140456 C 18.528582,18.264221 13.291696,25.230495 11.500037,31.436501 z"
     style="fill:#404040;"/>
  </a>
 </g>
</svg>

<style type='text/css'>
<![CDATA[
[data-mouse-over-selected='false'] { opacity: 0.7; }
[data-mouse-over-selected='true']  { opacity: 1.0; }
]]>
</style>
<script type="application/ecmascript"><![CDATA[
document.addEventListener('DOMContentLoaded', (event) => {
  highlightEdges();
  highlightAdjacentNodes();
});
]]></script>
</svg>
