<?xml version="1.0" encoding="UTF-8" standalone="no"?>
<!DOCTYPE svg PUBLIC "-//W3C//DTD SVG 1.1//EN"
 "http://www.w3.org/Graphics/SVG/1.1/DTD/svg11.dtd">
<!-- Generated by graphviz version 2.43.0 (0)
 -->
<!-- Title: src/exec_validator.cpp Pages: 1 -->
<!--zoomable 687 -->

<svg id="main" version="1.1" xmlns="http://www.w3.org/2000/svg" xmlns:xlink="http://www.w3.org/1999/xlink" xml:space="preserve" onload="init(evt)">
<style type="text/css"><![CDATA[
.node, .edge {opacity: 0.7;}
.node.selected, .edge.selected {opacity: 1;}
.edge:hover path { stroke: red; }
.edge:hover polygon { stroke: red; fill: red; }
]]></style>

<defs>
  <circle id="rim" cx="0" cy="0" r="7"/>
  <circle id="rim2" cx="0" cy="0" r="3.5"/>
  <g id="zoomPlus">
    <use xlink:href="#rim" fill="#404040"><set attributeName="fill" to="#808080" begin="zoomplus.mouseover" end="zoomplus.mouseout"/></use>
    <path d="M-4,0h8M0,-4v8" fill="none" stroke="white" stroke-width="1.5" pointer-events="none"/>
  </g>
  <g id="zoomMin">
    <use xlink:href="#rim" fill="#404040"><set attributeName="fill" to="#808080" begin="zoomminus.mouseover" end="zoomminus.mouseout"/></use>
    <path d="M-4,0h8" fill="none" stroke="white" stroke-width="1.5" pointer-events="none"/>
  </g>
  <g id="arrowUp" transform="translate(30 24)">
    <use xlink:href="#rim"/>
    <path pointer-events="none" fill="none" stroke="white" stroke-width="1.5" d="M0,-3.0v7 M-2.5,-0.5L0,-3.0L2.5,-0.5"/>
  </g>
  <g id="arrowRight" transform="rotate(90) translate(36 -43)">
    <use xlink:href="#rim"/>
    <path pointer-events="none" fill="none" stroke="white" stroke-width="1.5" d="M0,-3.0v7 M-2.5,-0.5L0,-3.0L2.5,-0.5"/>
  </g>
  <g id="arrowDown" transform="rotate(180) translate(-30 -48)">
    <use xlink:href="#rim"/>
    <path pointer-events="none" fill="none" stroke="white" stroke-width="1.5" d="M0,-3.0v7 M-2.5,-0.5L0,-3.0L2.5,-0.5"/>
  </g>
  <g id="arrowLeft" transform="rotate(270) translate(-36 17)">
    <use xlink:href="#rim"/>
    <path pointer-events="none" fill="none" stroke="white" stroke-width="1.5" d="M0,-3.0v7 M-2.5,-0.5L0,-3.0L2.5,-0.5"/>
  </g>
  <g id="resetDef">
    <use xlink:href="#rim2" fill="#404040"><set attributeName="fill" to="#808080" begin="reset.mouseover" end="reset.mouseout"/></use>
  </g>
</defs>
<script type="application/ecmascript">
var viewWidth = 1432;
var viewHeight = 687;
var sectionId = 'dynsection-0';
</script>
<script type="application/ecmascript" xlink:href="svg.min.js"/>
<svg id="graph" class="graph">
<g id="viewport">
<title>src/exec_validator.cpp</title>
<!-- Node1 -->
<g id="Node000001" class="node">
<title>Node1</title>
<g id="a_Node000001"><a xlink:title=" ">
<polygon fill="#999999" stroke="#666666" points="1118.5,-679 993.5,-679 993.5,-660 1118.5,-660 1118.5,-679"/>
<text text-anchor="middle" x="1056" y="-667" font-family="Helvetica,sans-Serif" font-size="10.00">src/exec_validator.cpp</text>
</a>
</g>
</g>
<!-- Node2 -->
<g id="Node000002" class="node">
<title>Node2</title>
<g id="a_Node000002"><a xlink:title=" ">
<polygon fill="#e0e0e0" stroke="#999999" points="892.5,-74 799.5,-74 799.5,-55 892.5,-55 892.5,-74"/>
<text text-anchor="middle" x="846" y="-62" font-family="Helvetica,sans-Serif" font-size="10.00">unordered_map</text>
</a>
</g>
</g>
<!-- Node1&#45;&gt;Node2 -->
<g id="edge1_Node000001_Node000002" class="edge">
<title>Node1&#45;&gt;Node2</title>
<g id="a_edge1_Node000001_Node000002"><a xlink:title=" ">
<path fill="none" stroke="#63b8ff" d="M1035.34,-659.98C1019.9,-652.61 999.42,-640.52 987,-624 969.3,-600.45 968,-589.96 968,-560.5 968,-560.5 968,-560.5 968,-228.5 968,-198.33 960.27,-190.41 944,-165 932.14,-146.47 887.84,-104.21 863.06,-81.17"/>
<polygon fill="#63b8ff" stroke="#63b8ff" points="865.2,-78.38 855.48,-74.16 860.44,-83.52 865.2,-78.38"/>
</a>
</g>
</g>
<!-- Node3 -->
<g id="Node000003" class="node">
<title>Node3</title>
<g id="a_Node000003"><a xlink:title=" ">
<polygon fill="#e0e0e0" stroke="#999999" points="727,-74 683,-74 683,-55 727,-55 727,-74"/>
<text text-anchor="middle" x="705" y="-62" font-family="Helvetica,sans-Serif" font-size="10.00">string</text>
</a>
</g>
</g>
<!-- Node1&#45;&gt;Node3 -->
<g id="edge2_Node000001_Node000003" class="edge">
<title>Node1&#45;&gt;Node3</title>
<g id="a_edge2_Node000001_Node000003"><a xlink:title=" ">
<path fill="none" stroke="#63b8ff" d="M1030.8,-659.91C994.03,-645.58 930,-613.08 930,-560.5 930,-560.5 930,-560.5 930,-228.5 930,-134.37 799.27,-89.04 737.11,-72.8"/>
<polygon fill="#63b8ff" stroke="#63b8ff" points="737.95,-69.4 727.4,-70.35 736.24,-76.19 737.95,-69.4"/>
</a>
</g>
</g>
<!-- Node4 -->
<g id="Node000004" class="node">
<title>Node4</title>
<g id="a_Node000004"><a xlink:title=" ">
<polygon fill="#e0e0e0" stroke="#999999" points="529.5,-19 482.5,-19 482.5,0 529.5,0 529.5,-19"/>
<text text-anchor="middle" x="506" y="-7" font-family="Helvetica,sans-Serif" font-size="10.00">vector</text>
</a>
</g>
</g>
<!-- Node1&#45;&gt;Node4 -->
<g id="edge3_Node000001_Node000004" class="edge">
<title>Node1&#45;&gt;Node4</title>
<g id="a_edge3_Node000001_Node000004"><a xlink:title=" ">
<path fill="none" stroke="#63b8ff" d="M1118.59,-661.72C1178.56,-651.34 1260,-625.32 1260,-560.5 1260,-560.5 1260,-560.5 1260,-118.5 1260,-44.72 687.01,-17.5 540.03,-11.73"/>
<polygon fill="#63b8ff" stroke="#63b8ff" points="539.94,-8.23 529.81,-11.34 539.67,-15.22 539.94,-8.23"/>
</a>
</g>
</g>
<!-- Node5 -->
<g id="Node000005" class="node">
<title>Node5</title>
<g id="a_Node000005"><a xlink:title=" ">
<polygon fill="#e0e0e0" stroke="#999999" points="117,-19 57,-19 57,0 117,0 117,-19"/>
<text text-anchor="middle" x="87" y="-7" font-family="Helvetica,sans-Serif" font-size="10.00">iostream</text>
</a>
</g>
</g>
<!-- Node1&#45;&gt;Node5 -->
<g id="edge4_Node000001_Node000005" class="edge">
<title>Node1&#45;&gt;Node5</title>
<g id="a_edge4_Node000001_Node000005"><a xlink:title=" ">
<path fill="none" stroke="#63b8ff" d="M993.5,-668.71C766.65,-668.64 0,-661 0,-560.5 0,-560.5 0,-560.5 0,-118.5 0,-77.58 38.35,-43.39 64.12,-25.03"/>
<polygon fill="#63b8ff" stroke="#63b8ff" points="66.35,-27.75 72.63,-19.21 62.4,-21.97 66.35,-27.75"/>
</a>
</g>
</g>
<!-- Node6 -->
<g id="Node000006" class="node">
<title>Node6</title>
<g id="a_Node000006"><a xlink:title=" ">
<polygon fill="#e0e0e0" stroke="#999999" points="1046,-624 996,-624 996,-605 1046,-605 1046,-624"/>
<text text-anchor="middle" x="1021" y="-612" font-family="Helvetica,sans-Serif" font-size="10.00">chrono</text>
</a>
</g>
</g>
<!-- Node1&#45;&gt;Node6 -->
<g id="edge5_Node000001_Node000006" class="edge">
<title>Node1&#45;&gt;Node6</title>
<g id="a_edge5_Node000001_Node000006"><a xlink:title=" ">
<path fill="none" stroke="#63b8ff" d="M1050.22,-659.75C1045.38,-652.42 1038.32,-641.73 1032.36,-632.7"/>
<polygon fill="#63b8ff" stroke="#63b8ff" points="1035.1,-630.5 1026.67,-624.09 1029.26,-634.36 1035.1,-630.5"/>
</a>
</g>
</g>
<!-- Node7 -->
<g id="Node000007" class="node">
<title>Node7</title>
<g id="a_Node000007"><a xlink:title=" ">
<polygon fill="#e0e0e0" stroke="#999999" points="1119.5,-624 1064.5,-624 1064.5,-605 1119.5,-605 1119.5,-624"/>
<text text-anchor="middle" x="1092" y="-612" font-family="Helvetica,sans-Serif" font-size="10.00">fstream</text>
</a>
</g>
</g>
<!-- Node1&#45;&gt;Node7 -->
<g id="edge6_Node000001_Node000007" class="edge">
<title>Node1&#45;&gt;Node7</title>
<g id="a_edge6_Node000001_Node000007"><a xlink:title=" ">
<path fill="none" stroke="#63b8ff" d="M1061.94,-659.75C1066.98,-652.34 1074.34,-641.5 1080.51,-632.41"/>
<polygon fill="#63b8ff" stroke="#63b8ff" points="1083.44,-634.33 1086.17,-624.09 1077.65,-630.39 1083.44,-634.33"/>
</a>
</g>
</g>
<!-- Node8 -->
<g id="Node000008" class="node">
<title>Node8</title>
<g id="a_Node000008"><a xlink:title=" ">
<polygon fill="#e0e0e0" stroke="#999999" points="1194,-624 1138,-624 1138,-605 1194,-605 1194,-624"/>
<text text-anchor="middle" x="1166" y="-612" font-family="Helvetica,sans-Serif" font-size="10.00">sstream</text>
</a>
</g>
</g>
<!-- Node1&#45;&gt;Node8 -->
<g id="edge7_Node000001_Node000008" class="edge">
<title>Node1&#45;&gt;Node8</title>
<g id="a_edge7_Node000001_Node000008"><a xlink:title=" ">
<path fill="none" stroke="#63b8ff" d="M1073.67,-659.98C1091.29,-651.5 1118.58,-638.35 1138.93,-628.54"/>
<polygon fill="#63b8ff" stroke="#63b8ff" points="1140.52,-631.66 1148.01,-624.17 1137.48,-625.36 1140.52,-631.66"/>
</a>
</g>
</g>
<!-- Node9 -->
<g id="Node000009" class="node">
<title>Node9</title>
<g id="a_Node000009"><a xlink:href="CCSDSPack_8h.html" target="_top" xlink:title=" ">
<polygon fill="white" stroke="#666666" points="561.5,-624 480.5,-624 480.5,-605 561.5,-605 561.5,-624"/>
<text text-anchor="middle" x="521" y="-612" font-family="Helvetica,sans-Serif" font-size="10.00">CCSDSPack.h</text>
</a>
</g>
</g>
<!-- Node1&#45;&gt;Node9 -->
<g id="edge8_Node000001_Node000009" class="edge">
<title>Node1&#45;&gt;Node9</title>
<g id="a_edge8_Node000001_Node000009"><a xlink:title=" ">
<path fill="none" stroke="#63b8ff" d="M993.32,-662.29C886.19,-651.68 669.93,-630.25 571.66,-620.52"/>
<polygon fill="#63b8ff" stroke="#63b8ff" points="571.97,-617.03 561.68,-619.53 571.28,-624 571.97,-617.03"/>
</a>
</g>
</g>
<!-- Node26 -->
<g id="Node000026" class="node">
<title>Node26</title>
<g id="a_Node000026"><a xlink:href="exec__utils_8h.html" target="_top" xlink:title=" ">
<polygon fill="white" stroke="#666666" points="997,-129 923,-129 923,-110 997,-110 997,-129"/>
<text text-anchor="middle" x="960" y="-117" font-family="Helvetica,sans-Serif" font-size="10.00">exec_utils.h</text>
</a>
</g>
</g>
<!-- Node1&#45;&gt;Node26 -->
<g id="edge64_Node000001_Node000026" class="edge">
<title>Node1&#45;&gt;Node26</title>
<g id="a_edge64_Node000001_Node000026"><a xlink:title=" ">
<path fill="none" stroke="#63b8ff" d="M1118.73,-666.16C1149.32,-661.45 1183.61,-650.12 1203,-624 1208.03,-617.22 1204.95,-613.22 1203,-605 1156.09,-406.82 1014.82,-197.45 972.26,-137.45"/>
<polygon fill="#63b8ff" stroke="#63b8ff" points="974.98,-135.22 966.31,-129.13 969.28,-139.3 974.98,-135.22"/>
</a>
</g>
</g>
<!-- Node28 -->
<g id="Node000028" class="node">
<title>Node28</title>
<g id="a_Node000028"><a xlink:title=" ">
<polygon fill="#e0e0e0" stroke="#999999" points="1423.5,-624 1288.5,-624 1288.5,-605 1423.5,-605 1423.5,-624"/>
<text text-anchor="middle" x="1356" y="-612" font-family="Helvetica,sans-Serif" font-size="10.00">../test/inc/TestManager.h</text>
</a>
</g>
</g>
<!-- Node1&#45;&gt;Node28 -->
<g id="edge68_Node000001_Node000028" class="edge">
<title>Node1&#45;&gt;Node28</title>
<g id="a_edge68_Node000001_Node000028"><a xlink:title=" ">
<path fill="none" stroke="#63b8ff" d="M1104.2,-659.98C1156.75,-650.7 1240.85,-635.84 1297.23,-625.88"/>
<polygon fill="#63b8ff" stroke="#63b8ff" points="1298.18,-629.27 1307.42,-624.08 1296.97,-622.38 1298.18,-629.27"/>
</a>
</g>
</g>
<!-- Node10 -->
<g id="Node000010" class="node">
<title>Node10</title>
<g id="a_Node000010"><a xlink:href="CCSDSDataField_8h.html" target="_top" xlink:title=" ">
<polygon fill="white" stroke="#666666" points="749.5,-349 644.5,-349 644.5,-330 749.5,-330 749.5,-349"/>
<text text-anchor="middle" x="697" y="-337" font-family="Helvetica,sans-Serif" font-size="10.00">CCSDSDataField.h</text>
</a>
</g>
</g>
<!-- Node9&#45;&gt;Node10 -->
<g id="edge9_Node000009_Node000010" class="edge">
<title>Node9&#45;&gt;Node10</title>
<g id="a_edge9_Node000009_Node000010"><a xlink:title=" ">
<path fill="none" stroke="#63b8ff" d="M561.7,-611.38C595.44,-607.56 642.64,-597.12 673,-569 695.13,-548.5 697,-535.67 697,-505.5 697,-505.5 697,-505.5 697,-448.5 697,-417.19 697,-380.77 697,-359.23"/>
<polygon fill="#63b8ff" stroke="#63b8ff" points="700.5,-359.18 697,-349.18 693.5,-359.18 700.5,-359.18"/>
</a>
</g>
</g>
<!-- Node11 -->
<g id="Node000011" class="node">
<title>Node11</title>
<g id="a_Node000011"><a xlink:href="CCSDSResult_8h.html" target="_top" xlink:title=" ">
<polygon fill="white" stroke="#666666" points="311.5,-74 222.5,-74 222.5,-55 311.5,-55 311.5,-74"/>
<text text-anchor="middle" x="267" y="-62" font-family="Helvetica,sans-Serif" font-size="10.00">CCSDSResult.h</text>
</a>
</g>
</g>
<!-- Node9&#45;&gt;Node11 -->
<g id="edge53_Node000009_Node000011" class="edge">
<title>Node9&#45;&gt;Node11</title>
<g id="a_edge53_Node000009_Node000011"><a xlink:title=" ">
<path fill="none" stroke="#63b8ff" d="M480.29,-611.41C376.84,-604.98 112,-581.14 112,-505.5 112,-505.5 112,-505.5 112,-283.5 112,-197.83 138.81,-173.79 196,-110 207.68,-96.98 224.05,-86.37 238.13,-78.78"/>
<polygon fill="#63b8ff" stroke="#63b8ff" points="240.12,-81.69 247.43,-74.02 236.93,-75.46 240.12,-81.69"/>
</a>
</g>
</g>
<!-- Node15 -->
<g id="Node000015" class="node">
<title>Node15</title>
<g id="a_Node000015"><a xlink:href="CCSDSSecondaryHeaderAbstract_8h.html" target="_top" xlink:title=" ">
<polygon fill="white" stroke="#666666" points="552.5,-184 367.5,-184 367.5,-165 552.5,-165 552.5,-184"/>
<text text-anchor="middle" x="460" y="-172" font-family="Helvetica,sans-Serif" font-size="10.00">CCSDSSecondaryHeaderAbstract.h</text>
</a>
</g>
</g>
<!-- Node9&#45;&gt;Node15 -->
<g id="edge54_Node000009_Node000015" class="edge">
<title>Node9&#45;&gt;Node15</title>
<g id="a_edge54_Node000009_Node000015"><a xlink:title=" ">
<path fill="none" stroke="#63b8ff" d="M517.46,-604.79C514,-595.93 508.86,-581.73 506,-569 474.16,-427.1 463.54,-251.18 460.8,-194.22"/>
<polygon fill="#63b8ff" stroke="#63b8ff" points="464.3,-194.03 460.34,-184.2 457.3,-194.35 464.3,-194.03"/>
</a>
</g>
</g>
<!-- Node16 -->
<g id="Node000016" class="node">
<title>Node16</title>
<g id="a_Node000016"><a xlink:href="CCSDSConfig_8h.html" target="_top" xlink:title=" ">
<polygon fill="white" stroke="#666666" points="608.5,-129 519.5,-129 519.5,-110 608.5,-110 608.5,-129"/>
<text text-anchor="middle" x="564" y="-117" font-family="Helvetica,sans-Serif" font-size="10.00">CCSDSConfig.h</text>
</a>
</g>
</g>
<!-- Node9&#45;&gt;Node16 -->
<g id="edge63_Node000009_Node000016" class="edge">
<title>Node9&#45;&gt;Node16</title>
<g id="a_edge63_Node000009_Node000016"><a xlink:title=" ">
<path fill="none" stroke="#63b8ff" d="M561.76,-610.32C658.14,-601.67 892,-573.67 892,-505.5 892,-505.5 892,-505.5 892,-283.5 892,-225.06 881.79,-200.02 835,-165 801.74,-140.1 688.14,-128.48 619.02,-123.6"/>
<polygon fill="#63b8ff" stroke="#63b8ff" points="618.96,-120.08 608.74,-122.9 618.48,-127.07 618.96,-120.08"/>
</a>
</g>
</g>
<!-- Node17 -->
<g id="Node000017" class="node">
<title>Node17</title>
<g id="a_Node000017"><a xlink:href="CCSDSSecondaryHeaderFactory_8h.html" target="_top" xlink:title=" ">
<polygon fill="white" stroke="#666666" points="787.5,-239 608.5,-239 608.5,-220 787.5,-220 787.5,-239"/>
<text text-anchor="middle" x="698" y="-227" font-family="Helvetica,sans-Serif" font-size="10.00">CCSDSSecondaryHeaderFactory.h</text>
</a>
</g>
</g>
<!-- Node9&#45;&gt;Node17 -->
<g id="edge55_Node000009_Node000017" class="edge">
<title>Node9&#45;&gt;Node17</title>
<g id="a_edge55_Node000009_Node000017"><a xlink:title=" ">
<path fill="none" stroke="#63b8ff" d="M561.72,-614.04C634.19,-612.64 778,-598.18 778,-505.5 778,-505.5 778,-505.5 778,-393.5 778,-334.65 735.46,-274.95 712.42,-246.93"/>
<polygon fill="#63b8ff" stroke="#63b8ff" points="715.09,-244.67 705.96,-239.29 709.74,-249.19 715.09,-244.67"/>
</a>
</g>
</g>
<!-- Node19 -->
<g id="Node000019" class="node">
<title>Node19</title>
<g id="a_Node000019"><a xlink:href="PusServices_8h.html" target="_top" xlink:title=" ">
<polygon fill="white" stroke="#666666" points="578,-294 494,-294 494,-275 578,-275 578,-294"/>
<text text-anchor="middle" x="536" y="-282" font-family="Helvetica,sans-Serif" font-size="10.00">PusServices.h</text>
</a>
</g>
</g>
<!-- Node9&#45;&gt;Node19 -->
<g id="edge62_Node000009_Node000019" class="edge">
<title>Node9&#45;&gt;Node19</title>
<g id="a_edge62_Node000009_Node000019"><a xlink:title=" ">
<path fill="none" stroke="#63b8ff" d="M550.6,-604.96C591.15,-591.24 659,-560.11 659,-505.5 659,-505.5 659,-505.5 659,-448.5 659,-382.16 593.27,-325.7 557.91,-300.14"/>
<polygon fill="#63b8ff" stroke="#63b8ff" points="559.83,-297.2 549.63,-294.31 555.8,-302.93 559.83,-297.2"/>
</a>
</g>
</g>
<!-- Node20 -->
<g id="Node000020" class="node">
<title>Node20</title>
<g id="a_Node000020"><a xlink:href="CCSDSHeader_8h.html" target="_top" xlink:title=" ">
<polygon fill="white" stroke="#666666" points="121.5,-129 28.5,-129 28.5,-110 121.5,-110 121.5,-129"/>
<text text-anchor="middle" x="75" y="-117" font-family="Helvetica,sans-Serif" font-size="10.00">CCSDSHeader.h</text>
</a>
</g>
</g>
<!-- Node9&#45;&gt;Node20 -->
<g id="edge38_Node000009_Node000020" class="edge">
<title>Node9&#45;&gt;Node20</title>
<g id="a_edge38_Node000009_Node000020"><a xlink:title=" ">
<path fill="none" stroke="#63b8ff" d="M480.16,-611.62C379.95,-606.67 127.89,-592.06 98,-569 74.11,-550.57 74,-535.67 74,-505.5 74,-505.5 74,-505.5 74,-228.5 74,-197.19 74.43,-160.77 74.72,-139.23"/>
<polygon fill="#63b8ff" stroke="#63b8ff" points="78.22,-139.23 74.87,-129.18 71.22,-139.13 78.22,-139.23"/>
</a>
</g>
</g>
<!-- Node21 -->
<g id="Node000021" class="node">
<title>Node21</title>
<g id="a_Node000021"><a xlink:href="CCSDSManager_8h.html" target="_top" xlink:title=" ">
<polygon fill="white" stroke="#666666" points="408.5,-514 307.5,-514 307.5,-495 408.5,-495 408.5,-514"/>
<text text-anchor="middle" x="358" y="-502" font-family="Helvetica,sans-Serif" font-size="10.00">CCSDSManager.h</text>
</a>
</g>
</g>
<!-- Node9&#45;&gt;Node21 -->
<g id="edge42_Node000009_Node000021" class="edge">
<title>Node9&#45;&gt;Node21</title>
<g id="a_edge42_Node000009_Node000021"><a xlink:title=" ">
<path fill="none" stroke="#63b8ff" d="M507.94,-604.84C479.92,-586.28 413.82,-542.49 379.51,-519.75"/>
<polygon fill="#63b8ff" stroke="#63b8ff" points="381.4,-516.8 371.13,-514.2 377.53,-522.64 381.4,-516.8"/>
</a>
</g>
</g>
<!-- Node23 -->
<g id="Node000023" class="node">
<title>Node23</title>
<g id="a_Node000023"><a xlink:href="CCSDSPacket_8h.html" target="_top" xlink:title=" ">
<polygon fill="white" stroke="#666666" points="292,-404 202,-404 202,-385 292,-385 292,-404"/>
<text text-anchor="middle" x="247" y="-392" font-family="Helvetica,sans-Serif" font-size="10.00">CCSDSPacket.h</text>
</a>
</g>
</g>
<!-- Node9&#45;&gt;Node23 -->
<g id="edge52_Node000009_Node000023" class="edge">
<title>Node9&#45;&gt;Node23</title>
<g id="a_edge52_Node000009_Node000023"><a xlink:title=" ">
<path fill="none" stroke="#63b8ff" d="M480.49,-610.41C402.59,-601.99 233.92,-571.02 169,-459 155.98,-436.53 184.42,-418.73 210.53,-407.77"/>
<polygon fill="#63b8ff" stroke="#63b8ff" points="211.96,-410.97 219.97,-404.04 209.38,-404.46 211.96,-410.97"/>
</a>
</g>
</g>
<!-- Node24 -->
<g id="Node000024" class="node">
<title>Node24</title>
<g id="a_Node000024"><a xlink:href="CCSDSValidator_8h.html" target="_top" xlink:title="Defines the Validator class for CCSDS packet validation.">
<polygon fill="white" stroke="#666666" points="279.5,-459 178.5,-459 178.5,-440 279.5,-440 279.5,-459"/>
<text text-anchor="middle" x="229" y="-447" font-family="Helvetica,sans-Serif" font-size="10.00">CCSDSValidator.h</text>
</a>
</g>
</g>
<!-- Node9&#45;&gt;Node24 -->
<g id="edge61_Node000009_Node000024" class="edge">
<title>Node9&#45;&gt;Node24</title>
<g id="a_edge61_Node000009_Node000024"><a xlink:title=" ">
<path fill="none" stroke="#63b8ff" d="M494.88,-604.97C451.75,-590.22 363.88,-557.33 298,-514 277.31,-500.39 256.84,-480.53 243.64,-466.65"/>
<polygon fill="#63b8ff" stroke="#63b8ff" points="246.14,-464.2 236.76,-459.27 241.01,-468.97 246.14,-464.2"/>
</a>
</g>
</g>
<!-- Node25 -->
<g id="Node000025" class="node">
<title>Node25</title>
<g id="a_Node000025"><a xlink:href="CCSDSUtils_8h.html" target="_top" xlink:title=" ">
<polygon fill="white" stroke="#666666" points="595.5,-569 514.5,-569 514.5,-550 595.5,-550 595.5,-569"/>
<text text-anchor="middle" x="555" y="-557" font-family="Helvetica,sans-Serif" font-size="10.00">CCSDSUtils.h</text>
</a>
</g>
</g>
<!-- Node9&#45;&gt;Node25 -->
<g id="edge56_Node000009_Node000025" class="edge">
<title>Node9&#45;&gt;Node25</title>
<g id="a_edge56_Node000009_Node000025"><a xlink:title=" ">
<path fill="none" stroke="#63b8ff" d="M526.61,-604.75C531.32,-597.42 538.17,-586.73 543.97,-577.7"/>
<polygon fill="#63b8ff" stroke="#63b8ff" points="547.04,-579.4 549.49,-569.09 541.14,-575.62 547.04,-579.4"/>
</a>
</g>
</g>
<!-- Node10&#45;&gt;Node4 -->
<g id="edge15_Node000010_Node000004" class="edge">
<title>Node10&#45;&gt;Node4</title>
<g id="a_edge15_Node000010_Node000004"><a xlink:title=" ">
<path fill="none" stroke="#63b8ff" d="M717.17,-329.93C800.68,-293.54 1109.2,-149.29 985,-55 949.66,-28.17 643,-15.22 539.76,-11.6"/>
<polygon fill="#63b8ff" stroke="#63b8ff" points="539.7,-8.09 529.58,-11.24 539.46,-15.09 539.7,-8.09"/>
</a>
</g>
</g>
<!-- Node10&#45;&gt;Node11 -->
<g id="edge10_Node000010_Node000011" class="edge">
<title>Node10&#45;&gt;Node11</title>
<g id="a_edge10_Node000010_Node000011"><a xlink:title=" ">
<path fill="none" stroke="#63b8ff" d="M644.29,-333.29C600.3,-327.59 536.68,-316.13 485,-294 381.26,-249.58 348.55,-226.66 292,-129 283.65,-114.58 276.93,-96.84 272.57,-83.78"/>
<polygon fill="#63b8ff" stroke="#63b8ff" points="275.85,-82.55 269.48,-74.09 269.18,-84.68 275.85,-82.55"/>
</a>
</g>
</g>
<!-- Node14 -->
<g id="Node000014" class="node">
<title>Node14</title>
<g id="a_Node000014"><a xlink:title=" ">
<polygon fill="#e0e0e0" stroke="#999999" points="826,-184 768,-184 768,-165 826,-165 826,-184"/>
<text text-anchor="middle" x="797" y="-172" font-family="Helvetica,sans-Serif" font-size="10.00">memory</text>
</a>
</g>
</g>
<!-- Node10&#45;&gt;Node14 -->
<g id="edge16_Node000010_Node000014" class="edge">
<title>Node10&#45;&gt;Node14</title>
<g id="a_edge16_Node000010_Node000014"><a xlink:title=" ">
<path fill="none" stroke="#63b8ff" d="M705.97,-329.94C730.07,-306.89 794.56,-244.88 797,-239 802.89,-224.83 802.37,-207.29 800.68,-194.24"/>
<polygon fill="#63b8ff" stroke="#63b8ff" points="804.09,-193.42 799.01,-184.12 797.18,-194.56 804.09,-193.42"/>
</a>
</g>
</g>
<!-- Node10&#45;&gt;Node15 -->
<g id="edge17_Node000010_Node000015" class="edge">
<title>Node10&#45;&gt;Node15</title>
<g id="a_edge17_Node000010_Node000015"><a xlink:title=" ">
<path fill="none" stroke="#63b8ff" d="M684.59,-329.97C646.21,-303.57 529.09,-223.02 480.98,-189.93"/>
<polygon fill="#63b8ff" stroke="#63b8ff" points="482.79,-186.93 472.57,-184.15 478.83,-192.7 482.79,-186.93"/>
</a>
</g>
</g>
<!-- Node10&#45;&gt;Node17 -->
<g id="edge27_Node000010_Node000017" class="edge">
<title>Node10&#45;&gt;Node17</title>
<g id="a_edge27_Node000010_Node000017"><a xlink:title=" ">
<path fill="none" stroke="#63b8ff" d="M697.08,-329.66C697.24,-312.17 697.61,-272.8 697.83,-249.27"/>
<polygon fill="#63b8ff" stroke="#63b8ff" points="701.33,-249.19 697.92,-239.16 694.33,-249.13 701.33,-249.19"/>
</a>
</g>
</g>
<!-- Node10&#45;&gt;Node19 -->
<g id="edge33_Node000010_Node000019" class="edge">
<title>Node10&#45;&gt;Node19</title>
<g id="a_edge33_Node000010_Node000019"><a xlink:title=" ">
<path fill="none" stroke="#63b8ff" d="M671.13,-329.98C644.22,-321.13 601.88,-307.19 571.77,-297.28"/>
<polygon fill="#63b8ff" stroke="#63b8ff" points="572.66,-293.88 562.07,-294.08 570.47,-300.53 572.66,-293.88"/>
</a>
</g>
</g>
<!-- Node11&#45;&gt;Node4 -->
<g id="edge12_Node000011_Node000004" class="edge">
<title>Node11&#45;&gt;Node4</title>
<g id="a_edge12_Node000011_Node000004"><a xlink:title=" ">
<path fill="none" stroke="#63b8ff" d="M305.4,-54.98C351.58,-44.74 428.34,-27.72 472.31,-17.97"/>
<polygon fill="#63b8ff" stroke="#63b8ff" points="473.22,-21.36 482.22,-15.77 471.7,-14.52 473.22,-21.36"/>
</a>
</g>
</g>
<!-- Node11&#45;&gt;Node5 -->
<g id="edge14_Node000011_Node000005" class="edge">
<title>Node11&#45;&gt;Node5</title>
<g id="a_edge14_Node000011_Node000005"><a xlink:title=" ">
<path fill="none" stroke="#63b8ff" d="M238.08,-54.98C207.73,-46.05 159.83,-31.94 126.12,-22.02"/>
<polygon fill="#63b8ff" stroke="#63b8ff" points="126.73,-18.55 116.15,-19.08 124.75,-25.26 126.73,-18.55"/>
</a>
</g>
</g>
<!-- Node12 -->
<g id="Node000012" class="node">
<title>Node12</title>
<g id="a_Node000012"><a xlink:title=" ">
<polygon fill="#e0e0e0" stroke="#999999" points="292.5,-19 241.5,-19 241.5,0 292.5,0 292.5,-19"/>
<text text-anchor="middle" x="267" y="-7" font-family="Helvetica,sans-Serif" font-size="10.00">variant</text>
</a>
</g>
</g>
<!-- Node11&#45;&gt;Node12 -->
<g id="edge11_Node000011_Node000012" class="edge">
<title>Node11&#45;&gt;Node12</title>
<g id="a_edge11_Node000011_Node000012"><a xlink:title=" ">
<path fill="none" stroke="#63b8ff" d="M267,-54.75C267,-47.8 267,-37.85 267,-29.13"/>
<polygon fill="#63b8ff" stroke="#63b8ff" points="270.5,-29.09 267,-19.09 263.5,-29.09 270.5,-29.09"/>
</a>
</g>
</g>
<!-- Node13 -->
<g id="Node000013" class="node">
<title>Node13</title>
<g id="a_Node000013"><a xlink:title=" ">
<polygon fill="#e0e0e0" stroke="#999999" points="374,-19 324,-19 324,0 374,0 374,-19"/>
<text text-anchor="middle" x="349" y="-7" font-family="Helvetica,sans-Serif" font-size="10.00">cstdint</text>
</a>
</g>
</g>
<!-- Node11&#45;&gt;Node13 -->
<g id="edge13_Node000011_Node000013" class="edge">
<title>Node11&#45;&gt;Node13</title>
<g id="a_edge13_Node000011_Node000013"><a xlink:title=" ">
<path fill="none" stroke="#63b8ff" d="M280.17,-54.98C292.77,-46.84 312,-34.41 326.94,-24.76"/>
<polygon fill="#63b8ff" stroke="#63b8ff" points="329.09,-27.54 335.59,-19.17 325.29,-21.66 329.09,-27.54"/>
</a>
</g>
</g>
<!-- Node15&#45;&gt;Node4 -->
<g id="edge19_Node000015_Node000004" class="edge">
<title>Node15&#45;&gt;Node4</title>
<g id="a_edge19_Node000015_Node000004"><a xlink:title=" ">
<path fill="none" stroke="#63b8ff" d="M462.47,-164.74C469.68,-139.2 490.78,-64.43 500.71,-29.23"/>
<polygon fill="#63b8ff" stroke="#63b8ff" points="504.17,-29.88 503.51,-19.31 497.43,-27.98 504.17,-29.88"/>
</a>
</g>
</g>
<!-- Node15&#45;&gt;Node11 -->
<g id="edge18_Node000015_Node000011" class="edge">
<title>Node15&#45;&gt;Node11</title>
<g id="a_edge18_Node000015_Node000011"><a xlink:title=" ">
<path fill="none" stroke="#63b8ff" d="M444.53,-164.84C410.99,-146.08 331.37,-101.52 291.14,-79.01"/>
<polygon fill="#63b8ff" stroke="#63b8ff" points="292.71,-75.88 282.27,-74.05 289.29,-81.98 292.71,-75.88"/>
</a>
</g>
</g>
<!-- Node15&#45;&gt;Node13 -->
<g id="edge20_Node000015_Node000013" class="edge">
<title>Node15&#45;&gt;Node13</title>
<g id="a_edge20_Node000015_Node000013"><a xlink:title=" ">
<path fill="none" stroke="#63b8ff" d="M454.03,-164.74C436.42,-138.87 384.4,-62.48 360.84,-27.88"/>
<polygon fill="#63b8ff" stroke="#63b8ff" points="363.52,-25.6 355,-19.31 357.73,-29.54 363.52,-25.6"/>
</a>
</g>
</g>
<!-- Node15&#45;&gt;Node16 -->
<g id="edge21_Node000015_Node000016" class="edge">
<title>Node15&#45;&gt;Node16</title>
<g id="a_edge21_Node000015_Node000016"><a xlink:title=" ">
<path fill="none" stroke="#63b8ff" d="M476.71,-164.98C493.21,-156.57 518.7,-143.59 537.88,-133.81"/>
<polygon fill="#63b8ff" stroke="#63b8ff" points="539.67,-136.83 546.99,-129.17 536.49,-130.59 539.67,-136.83"/>
</a>
</g>
</g>
<!-- Node16&#45;&gt;Node2 -->
<g id="edge26_Node000016_Node000002" class="edge">
<title>Node16&#45;&gt;Node2</title>
<g id="a_edge26_Node000016_Node000002"><a xlink:title=" ">
<path fill="none" stroke="#63b8ff" d="M608.68,-110.1C658,-100.83 737.42,-85.91 790.64,-75.9"/>
<polygon fill="#63b8ff" stroke="#63b8ff" points="791.41,-79.32 800.59,-74.03 790.12,-72.44 791.41,-79.32"/>
</a>
</g>
</g>
<!-- Node16&#45;&gt;Node3 -->
<g id="edge22_Node000016_Node000003" class="edge">
<title>Node16&#45;&gt;Node3</title>
<g id="a_edge22_Node000016_Node000003"><a xlink:title=" ">
<path fill="none" stroke="#63b8ff" d="M586.65,-109.98C610.12,-101.16 646.99,-87.31 673.33,-77.4"/>
<polygon fill="#63b8ff" stroke="#63b8ff" points="674.74,-80.61 682.87,-73.82 672.27,-74.06 674.74,-80.61"/>
</a>
</g>
</g>
<!-- Node16&#45;&gt;Node4 -->
<g id="edge24_Node000016_Node000004" class="edge">
<title>Node16&#45;&gt;Node4</title>
<g id="a_edge24_Node000016_Node000004"><a xlink:title=" ">
<path fill="none" stroke="#63b8ff" d="M559.25,-109.66C549.69,-91.85 527.95,-51.37 515.4,-28.01"/>
<polygon fill="#63b8ff" stroke="#63b8ff" points="518.46,-26.31 510.65,-19.16 512.3,-29.62 518.46,-26.31"/>
</a>
</g>
</g>
<!-- Node16&#45;&gt;Node11 -->
<g id="edge25_Node000016_Node000011" class="edge">
<title>Node16&#45;&gt;Node11</title>
<g id="a_edge25_Node000016_Node000011"><a xlink:title=" ">
<path fill="none" stroke="#63b8ff" d="M519.21,-110.51C466.32,-101.07 378.36,-85.37 321.55,-75.23"/>
<polygon fill="#63b8ff" stroke="#63b8ff" points="322.12,-71.78 311.66,-73.47 320.89,-78.67 322.12,-71.78"/>
</a>
</g>
</g>
<!-- Node16&#45;&gt;Node13 -->
<g id="edge23_Node000016_Node000013" class="edge">
<title>Node16&#45;&gt;Node13</title>
<g id="a_edge23_Node000016_Node000013"><a xlink:title=" ">
<path fill="none" stroke="#63b8ff" d="M546.77,-109.84C509.17,-90.96 419.58,-45.96 375.05,-23.59"/>
<polygon fill="#63b8ff" stroke="#63b8ff" points="376.52,-20.41 366.01,-19.05 373.38,-26.66 376.52,-20.41"/>
</a>
</g>
</g>
<!-- Node17&#45;&gt;Node2 -->
<g id="edge29_Node000017_Node000002" class="edge">
<title>Node17&#45;&gt;Node2</title>
<g id="a_edge29_Node000017_Node000002"><a xlink:title=" ">
<path fill="none" stroke="#63b8ff" d="M705.96,-219.74C729.65,-193.65 799.99,-116.17 831.02,-82"/>
<polygon fill="#63b8ff" stroke="#63b8ff" points="833.87,-84.06 838,-74.31 828.69,-79.36 833.87,-84.06"/>
</a>
</g>
</g>
<!-- Node17&#45;&gt;Node3 -->
<g id="edge31_Node000017_Node000003" class="edge">
<title>Node17&#45;&gt;Node3</title>
<g id="a_edge31_Node000017_Node000003"><a xlink:title=" ">
<path fill="none" stroke="#63b8ff" d="M698.38,-219.74C699.47,-194.31 702.66,-120.08 704.18,-84.69"/>
<polygon fill="#63b8ff" stroke="#63b8ff" points="707.69,-84.45 704.62,-74.31 700.7,-84.15 707.69,-84.45"/>
</a>
</g>
</g>
<!-- Node17&#45;&gt;Node14 -->
<g id="edge28_Node000017_Node000014" class="edge">
<title>Node17&#45;&gt;Node14</title>
<g id="a_edge28_Node000017_Node000014"><a xlink:title=" ">
<path fill="none" stroke="#63b8ff" d="M713.91,-219.98C729.55,-211.61 753.66,-198.7 771.88,-188.95"/>
<polygon fill="#63b8ff" stroke="#63b8ff" points="773.64,-191.98 780.8,-184.17 770.34,-185.8 773.64,-191.98"/>
</a>
</g>
</g>
<!-- Node17&#45;&gt;Node15 -->
<g id="edge32_Node000017_Node000015" class="edge">
<title>Node17&#45;&gt;Node15</title>
<g id="a_edge32_Node000017_Node000015"><a xlink:title=" ">
<path fill="none" stroke="#63b8ff" d="M659.76,-219.98C618.59,-210.82 553.01,-196.21 508.3,-186.26"/>
<polygon fill="#63b8ff" stroke="#63b8ff" points="509.06,-182.84 498.54,-184.08 507.54,-189.67 509.06,-182.84"/>
</a>
</g>
</g>
<!-- Node18 -->
<g id="Node000018" class="node">
<title>Node18</title>
<g id="a_Node000018"><a xlink:title=" ">
<polygon fill="#e0e0e0" stroke="#999999" points="673.5,-184 608.5,-184 608.5,-165 673.5,-165 673.5,-184"/>
<text text-anchor="middle" x="641" y="-172" font-family="Helvetica,sans-Serif" font-size="10.00">functional</text>
</a>
</g>
</g>
<!-- Node17&#45;&gt;Node18 -->
<g id="edge30_Node000017_Node000018" class="edge">
<title>Node17&#45;&gt;Node18</title>
<g id="a_edge30_Node000017_Node000018"><a xlink:title=" ">
<path fill="none" stroke="#63b8ff" d="M688.84,-219.98C680.5,-212.23 667.97,-200.58 657.82,-191.14"/>
<polygon fill="#63b8ff" stroke="#63b8ff" points="660.03,-188.42 650.32,-184.17 655.26,-193.54 660.03,-188.42"/>
</a>
</g>
</g>
<!-- Node19&#45;&gt;Node11 -->
<g id="edge36_Node000019_Node000011" class="edge">
<title>Node19&#45;&gt;Node11</title>
<g id="a_edge36_Node000019_Node000011"><a xlink:title=" ">
<path fill="none" stroke="#63b8ff" d="M514.96,-274.97C479.98,-260.11 408.8,-226.92 359,-184 323.64,-153.53 292.7,-107.65 277.32,-82.86"/>
<polygon fill="#63b8ff" stroke="#63b8ff" points="280.24,-80.92 272.05,-74.2 274.26,-84.56 280.24,-80.92"/>
</a>
</g>
</g>
<!-- Node19&#45;&gt;Node15 -->
<g id="edge34_Node000019_Node000015" class="edge">
<title>Node19&#45;&gt;Node15</title>
<g id="a_edge34_Node000019_Node000015"><a xlink:title=" ">
<path fill="none" stroke="#63b8ff" d="M529.78,-274.66C517.14,-256.69 488.25,-215.64 471.88,-192.38"/>
<polygon fill="#63b8ff" stroke="#63b8ff" points="474.71,-190.32 466.09,-184.16 468.99,-194.35 474.71,-190.32"/>
</a>
</g>
</g>
<!-- Node19&#45;&gt;Node16 -->
<g id="edge37_Node000019_Node000016" class="edge">
<title>Node19&#45;&gt;Node16</title>
<g id="a_edge37_Node000019_Node000016"><a xlink:title=" ">
<path fill="none" stroke="#63b8ff" d="M538.96,-274.85C544.67,-257.75 557.05,-218.28 562,-184 564.15,-169.12 564.58,-152.09 564.51,-139.41"/>
<polygon fill="#63b8ff" stroke="#63b8ff" points="568,-139.12 564.34,-129.18 561,-139.24 568,-139.12"/>
</a>
</g>
</g>
<!-- Node19&#45;&gt;Node17 -->
<g id="edge35_Node000019_Node000017" class="edge">
<title>Node19&#45;&gt;Node17</title>
<g id="a_edge35_Node000019_Node000017"><a xlink:title=" ">
<path fill="none" stroke="#63b8ff" d="M562.03,-274.98C589.11,-266.13 631.71,-252.19 662.01,-242.28"/>
<polygon fill="#63b8ff" stroke="#63b8ff" points="663.35,-245.52 671.77,-239.08 661.18,-238.87 663.35,-245.52"/>
</a>
</g>
</g>
<!-- Node20&#45;&gt;Node4 -->
<g id="edge41_Node000020_Node000004" class="edge">
<title>Node20&#45;&gt;Node4</title>
<g id="a_edge41_Node000020_Node000004"><a xlink:title=" ">
<path fill="none" stroke="#63b8ff" d="M90.17,-109.79C115.01,-95.93 166.26,-69 213,-55 304.26,-27.67 416.78,-16.59 472.07,-12.56"/>
<polygon fill="#63b8ff" stroke="#63b8ff" points="472.61,-16.03 482.34,-11.84 472.12,-9.05 472.61,-16.03"/>
</a>
</g>
</g>
<!-- Node20&#45;&gt;Node11 -->
<g id="edge39_Node000020_Node000011" class="edge">
<title>Node20&#45;&gt;Node11</title>
<g id="a_edge39_Node000020_Node000011"><a xlink:title=" ">
<path fill="none" stroke="#63b8ff" d="M105.85,-109.98C138.5,-100.97 190.2,-86.7 226.2,-76.76"/>
<polygon fill="#63b8ff" stroke="#63b8ff" points="227.2,-80.12 235.91,-74.08 225.34,-73.37 227.2,-80.12"/>
</a>
</g>
</g>
<!-- Node20&#45;&gt;Node13 -->
<g id="edge40_Node000020_Node000013" class="edge">
<title>Node20&#45;&gt;Node13</title>
<g id="a_edge40_Node000020_Node000013"><a xlink:title=" ">
<path fill="none" stroke="#63b8ff" d="M79.83,-109.92C88.16,-96 106.58,-68.68 130,-55 137.92,-50.37 253.69,-28.29 313.61,-17.07"/>
<polygon fill="#63b8ff" stroke="#63b8ff" points="314.58,-20.45 323.77,-15.18 313.29,-13.57 314.58,-20.45"/>
</a>
</g>
</g>
<!-- Node21&#45;&gt;Node11 -->
<g id="edge49_Node000021_Node000011" class="edge">
<title>Node21&#45;&gt;Node11</title>
<g id="a_edge49_Node000021_Node000011"><a xlink:title=" ">
<path fill="none" stroke="#63b8ff" d="M356.09,-494.8C347.12,-453.8 308.31,-275.61 279,-129 276,-114.01 272.8,-96.98 270.45,-84.34"/>
<polygon fill="#63b8ff" stroke="#63b8ff" points="273.83,-83.34 268.57,-74.14 266.94,-84.61 273.83,-83.34"/>
</a>
</g>
</g>
<!-- Node22 -->
<g id="Node000022" class="node">
<title>Node22</title>
<g id="a_Node000022"><a xlink:title=" ">
<polygon fill="#e0e0e0" stroke="#999999" points="419.5,-459 374.5,-459 374.5,-440 419.5,-440 419.5,-459"/>
<text text-anchor="middle" x="397" y="-447" font-family="Helvetica,sans-Serif" font-size="10.00">utility</text>
</a>
</g>
</g>
<!-- Node21&#45;&gt;Node22 -->
<g id="edge43_Node000021_Node000022" class="edge">
<title>Node21&#45;&gt;Node22</title>
<g id="a_edge43_Node000021_Node000022"><a xlink:title=" ">
<path fill="none" stroke="#63b8ff" d="M364.44,-494.75C369.89,-487.34 377.86,-476.5 384.56,-467.41"/>
<polygon fill="#63b8ff" stroke="#63b8ff" points="387.57,-469.22 390.68,-459.09 381.93,-465.07 387.57,-469.22"/>
</a>
</g>
</g>
<!-- Node21&#45;&gt;Node23 -->
<g id="edge44_Node000021_Node000023" class="edge">
<title>Node21&#45;&gt;Node23</title>
<g id="a_edge44_Node000021_Node000023"><a xlink:title=" ">
<path fill="none" stroke="#63b8ff" d="M348.92,-494.66C330.12,-476.38 286.76,-434.18 263.1,-411.17"/>
<polygon fill="#63b8ff" stroke="#63b8ff" points="265.51,-408.62 255.9,-404.16 260.63,-413.64 265.51,-408.62"/>
</a>
</g>
</g>
<!-- Node21&#45;&gt;Node24 -->
<g id="edge50_Node000021_Node000024" class="edge">
<title>Node21&#45;&gt;Node24</title>
<g id="a_edge50_Node000021_Node000024"><a xlink:title=" ">
<path fill="none" stroke="#63b8ff" d="M337.27,-494.98C316.24,-486.34 283.45,-472.87 259.46,-463.02"/>
<polygon fill="#63b8ff" stroke="#63b8ff" points="260.68,-459.73 250.1,-459.17 258.02,-466.21 260.68,-459.73"/>
</a>
</g>
</g>
<!-- Node23&#45;&gt;Node4 -->
<g id="edge46_Node000023_Node000004" class="edge">
<title>Node23&#45;&gt;Node4</title>
<g id="a_edge46_Node000023_Node000004"><a xlink:title=" ">
<path fill="none" stroke="#63b8ff" d="M250.19,-384.68C261.84,-353.16 304.23,-243.68 359,-165 398.47,-108.3 458.49,-52.18 488.14,-25.91"/>
<polygon fill="#63b8ff" stroke="#63b8ff" points="490.77,-28.26 495.99,-19.04 486.16,-23 490.77,-28.26"/>
</a>
</g>
</g>
<!-- Node23&#45;&gt;Node10 -->
<g id="edge48_Node000023_Node000010" class="edge">
<title>Node23&#45;&gt;Node10</title>
<g id="a_edge48_Node000023_Node000010"><a xlink:title=" ">
<path fill="none" stroke="#63b8ff" d="M292.21,-388.18C372.98,-378.66 542.22,-358.73 634.22,-347.89"/>
<polygon fill="#63b8ff" stroke="#63b8ff" points="634.71,-351.36 644.23,-346.72 633.89,-344.41 634.71,-351.36"/>
</a>
</g>
</g>
<!-- Node23&#45;&gt;Node11 -->
<g id="edge45_Node000023_Node000011" class="edge">
<title>Node23&#45;&gt;Node11</title>
<g id="a_edge45_Node000023_Node000011"><a xlink:title=" ">
<path fill="none" stroke="#63b8ff" d="M238.29,-384.86C221.88,-367.6 188,-326.95 188,-285.5 188,-285.5 188,-285.5 188,-173.5 188,-143.33 194.32,-134.45 212,-110 220.63,-98.06 233.25,-87.54 244.22,-79.73"/>
<polygon fill="#63b8ff" stroke="#63b8ff" points="246.25,-82.58 252.56,-74.07 242.32,-76.79 246.25,-82.58"/>
</a>
</g>
</g>
<!-- Node23&#45;&gt;Node20 -->
<g id="edge47_Node000023_Node000020" class="edge">
<title>Node23&#45;&gt;Node20</title>
<g id="a_edge47_Node000023_Node000020"><a xlink:title=" ">
<path fill="none" stroke="#63b8ff" d="M226.03,-384.97C209.97,-377.52 188.23,-365.35 174,-349 144.64,-315.26 98.08,-186.82 81.29,-138.78"/>
<polygon fill="#63b8ff" stroke="#63b8ff" points="84.52,-137.4 77.93,-129.1 77.9,-139.69 84.52,-137.4"/>
</a>
</g>
</g>
<!-- Node24&#45;&gt;Node23 -->
<g id="edge51_Node000024_Node000023" class="edge">
<title>Node24&#45;&gt;Node23</title>
<g id="a_edge51_Node000024_Node000023"><a xlink:title=" ">
<path fill="none" stroke="#63b8ff" d="M231.97,-439.75C234.36,-432.72 237.79,-422.62 240.77,-413.84"/>
<polygon fill="#63b8ff" stroke="#63b8ff" points="244.18,-414.68 244.08,-404.09 237.55,-412.43 244.18,-414.68"/>
</a>
</g>
</g>
<!-- Node25&#45;&gt;Node3 -->
<g id="edge59_Node000025_Node000003" class="edge">
<title>Node25&#45;&gt;Node3</title>
<g id="a_edge59_Node000025_Node000003"><a xlink:title=" ">
<path fill="none" stroke="#63b8ff" d="M554.79,-549.75C554.6,-521.39 558.04,-431.17 607,-385 657.51,-337.37 704.73,-392.3 759,-349 822.11,-298.64 819.73,-263.28 835,-184 845.29,-130.56 778.25,-94.1 736.56,-76.87"/>
<polygon fill="#63b8ff" stroke="#63b8ff" points="737.67,-73.54 727.08,-73.1 735.08,-80.05 737.67,-73.54"/>
</a>
</g>
</g>
<!-- Node25&#45;&gt;Node4 -->
<g id="edge60_Node000025_Node000004" class="edge">
<title>Node25&#45;&gt;Node4</title>
<g id="a_edge60_Node000025_Node000004"><a xlink:title=" ">
<path fill="none" stroke="#63b8ff" d="M568.03,-549.9C649.18,-496.2 1082,-208.3 1082,-175.5 1082,-175.5 1082,-175.5 1082,-118.5 1082,-75.16 1047.94,-71.83 1008,-55 923.19,-19.26 638.79,-12.21 540.09,-10.83"/>
<polygon fill="#63b8ff" stroke="#63b8ff" points="539.83,-7.33 529.79,-10.7 539.74,-14.33 539.83,-7.33"/>
</a>
</g>
</g>
<!-- Node25&#45;&gt;Node21 -->
<g id="edge58_Node000025_Node000021" class="edge">
<title>Node25&#45;&gt;Node21</title>
<g id="a_edge58_Node000025_Node000021"><a xlink:title=" ">
<path fill="none" stroke="#63b8ff" d="M523.35,-549.98C489.84,-540.97 436.8,-526.7 399.86,-516.76"/>
<polygon fill="#63b8ff" stroke="#63b8ff" points="400.47,-513.3 389.9,-514.08 398.65,-520.06 400.47,-513.3"/>
</a>
</g>
</g>
<!-- Node25&#45;&gt;Node23 -->
<g id="edge57_Node000025_Node000023" class="edge">
<title>Node25&#45;&gt;Node23</title>
<g id="a_edge57_Node000025_Node000023"><a xlink:title=" ">
<path fill="none" stroke="#63b8ff" d="M548.43,-549.76C531.35,-527.69 483.1,-469.37 429,-440 389.67,-418.65 340.06,-407.4 302.57,-401.55"/>
<polygon fill="#63b8ff" stroke="#63b8ff" points="302.73,-398.04 292.33,-400.05 301.71,-404.97 302.73,-398.04"/>
</a>
</g>
</g>
<!-- Node26&#45;&gt;Node2 -->
<g id="edge67_Node000026_Node000002" class="edge">
<title>Node26&#45;&gt;Node2</title>
<g id="a_edge67_Node000026_Node000002"><a xlink:title=" ">
<path fill="none" stroke="#63b8ff" d="M941.68,-109.98C923.34,-101.46 894.89,-88.23 873.77,-78.41"/>
<polygon fill="#63b8ff" stroke="#63b8ff" points="875.19,-75.21 864.65,-74.17 872.24,-81.56 875.19,-75.21"/>
</a>
</g>
</g>
<!-- Node26&#45;&gt;Node11 -->
<g id="edge66_Node000026_Node000011" class="edge">
<title>Node26&#45;&gt;Node11</title>
<g id="a_edge66_Node000026_Node000011"><a xlink:title=" ">
<path fill="none" stroke="#63b8ff" d="M922.74,-115.65C807.8,-106.86 458.29,-80.13 322.13,-69.72"/>
<polygon fill="#63b8ff" stroke="#63b8ff" points="322.17,-66.21 311.93,-68.94 321.63,-73.19 322.17,-66.21"/>
</a>
</g>
</g>
<!-- Node27 -->
<g id="Node000027" class="node">
<title>Node27</title>
<g id="a_Node000027"><a xlink:title=" ">
<polygon fill="#e0e0e0" stroke="#999999" points="976,-74 944,-74 944,-55 976,-55 976,-74"/>
<text text-anchor="middle" x="960" y="-62" font-family="Helvetica,sans-Serif" font-size="10.00">set</text>
</a>
</g>
</g>
<!-- Node26&#45;&gt;Node27 -->
<g id="edge65_Node000026_Node000027" class="edge">
<title>Node26&#45;&gt;Node27</title>
<g id="a_edge65_Node000026_Node000027"><a xlink:title=" ">
<path fill="none" stroke="#63b8ff" d="M960,-109.75C960,-102.8 960,-92.85 960,-84.13"/>
<polygon fill="#63b8ff" stroke="#63b8ff" points="963.5,-84.09 960,-74.09 956.5,-84.09 963.5,-84.09"/>
</a>
</g>
</g>
</g>
</svg>

<g id="navigator" transform="translate(0 0)" fill="#404254">
  <rect fill="#f2f5e9" fill-opacity="0.5" stroke="#606060" stroke-width=".5" x="0" y="0" width="60" height="60"/>
  <use id="zoomplus" xlink:href="#zoomPlus" x="17" y="9" onmousedown="handleZoom(evt,'in')"/>
  <use id="zoomminus" xlink:href="#zoomMin" x="42" y="9" onmousedown="handleZoom(evt,'out')"/>
  <use id="reset" xlink:href="#resetDef" x="30" y="36" onmousedown="handleReset()"/>
   <use id="arrowup" xlink:href="#arrowUp" x="0" y="0" onmousedown="handlePan(0,-1)"/>
  <use id="arrowright" xlink:href="#arrowRight" x="0" y="0" onmousedown="handlePan(1,0)"/>
  <use id="arrowdown" xlink:href="#arrowDown" x="0" y="0" onmousedown="handlePan(0,1)"/>
  <use id="arrowleft" xlink:href="#arrowLeft" x="0" y="0" onmousedown="handlePan(-1,0)"/>
</g>
<svg viewBox="0 0 15 15" width="100%" height="30px" preserveAspectRatio="xMaxYMin meet">
 <g id="arrow_out" transform="scale(0.3 0.3)">
  <a xlink:href="exec__validator_8cpp__incl_org.svg" target="_base">
   <rect id="button" ry="5" rx="5" y="6" x="6" height="38" width="38"
        fill="#f2f5e9" fill-opacity="0.5" stroke="#606060" stroke-width="1.0"/>
   <path id="arrow"
     d="M 11.500037,31.436501 C 11.940474,20.09759 22.043105,11.32322 32.158766,21.979434 L 37.068811,17.246167 C 37.068811,17.246167 37.088388,32 37.088388,32 L 22.160133,31.978069 C 22.160133,31.978069 26.997745,27.140456 26.997745,27.140456 C 18.528582,18.264221 13.291696,25.230495 11.500037,31.436501 z"
     style="fill:#404040;"/>
  </a>
 </g>
</svg>

<style type='text/css'>
<![CDATA[
[data-mouse-over-selected='false'] { opacity: 0.7; }
[data-mouse-over-selected='true']  { opacity: 1.0; }
]]>
</style>
<script type="application/ecmascript"><![CDATA[
document.addEventListener('DOMContentLoaded', (event) => {
  highlightEdges();
  highlightAdjacentNodes();
});
]]></script>
</svg>
