<?xml version="1.0" encoding="UTF-8" standalone="no"?>
<!DOCTYPE svg PUBLIC "-//W3C//DTD SVG 1.1//EN"
 "http://www.w3.org/Graphics/SVG/1.1/DTD/svg11.dtd">
<!-- Generated by graphviz version 2.43.0 (0)
 -->
<!-- Title: src/exec_decoder.cpp Pages: 1 -->
<!--zoomable 577 -->

<svg id="main" version="1.1" xmlns="http://www.w3.org/2000/svg" xmlns:xlink="http://www.w3.org/1999/xlink" xml:space="preserve" onload="init(evt)">
<style type="text/css"><![CDATA[
.node, .edge {opacity: 0.7;}
.node.selected, .edge.selected {opacity: 1;}
.edge:hover path { stroke: red; }
.edge:hover polygon { stroke: red; fill: red; }
]]></style>

<defs>
  <circle id="rim" cx="0" cy="0" r="7"/>
  <circle id="rim2" cx="0" cy="0" r="3.5"/>
  <g id="zoomPlus">
    <use xlink:href="#rim" fill="#404040"><set attributeName="fill" to="#808080" begin="zoomplus.mouseover" end="zoomplus.mouseout"/></use>
    <path d="M-4,0h8M0,-4v8" fill="none" stroke="white" stroke-width="1.5" pointer-events="none"/>
  </g>
  <g id="zoomMin">
    <use xlink:href="#rim" fill="#404040"><set attributeName="fill" to="#808080" begin="zoomminus.mouseover" end="zoomminus.mouseout"/></use>
    <path d="M-4,0h8" fill="none" stroke="white" stroke-width="1.5" pointer-events="none"/>
  </g>
  <g id="arrowUp" transform="translate(30 24)">
    <use xlink:href="#rim"/>
    <path pointer-events="none" fill="none" stroke="white" stroke-width="1.5" d="M0,-3.0v7 M-2.5,-0.5L0,-3.0L2.5,-0.5"/>
  </g>
  <g id="arrowRight" transform="rotate(90) translate(36 -43)">
    <use xlink:href="#rim"/>
    <path pointer-events="none" fill="none" stroke="white" stroke-width="1.5" d="M0,-3.0v7 M-2.5,-0.5L0,-3.0L2.5,-0.5"/>
  </g>
  <g id="arrowDown" transform="rotate(180) translate(-30 -48)">
    <use xlink:href="#rim"/>
    <path pointer-events="none" fill="none" stroke="white" stroke-width="1.5" d="M0,-3.0v7 M-2.5,-0.5L0,-3.0L2.5,-0.5"/>
  </g>
  <g id="arrowLeft" transform="rotate(270) translate(-36 17)">
    <use xlink:href="#rim"/>
    <path pointer-events="none" fill="none" stroke="white" stroke-width="1.5" d="M0,-3.0v7 M-2.5,-0.5L0,-3.0L2.5,-0.5"/>
  </g>
  <g id="resetDef">
    <use xlink:href="#rim2" fill="#404040"><set attributeName="fill" to="#808080" begin="reset.mouseover" end="reset.mouseout"/></use>
  </g>
</defs>
<script type="application/ecmascript">
var viewWidth = 1155;
var viewHeight = 577;
var sectionId = 'dynsection-0';
</script>
<script type="application/ecmascript" xlink:href="svg.min.js"/>
<svg id="graph" class="graph">
<g id="viewport">
<title>src/exec_decoder.cpp</title>
<!-- Node1 -->
<g id="Node000001" class="node">
<title>Node1</title>
<g id="a_Node000001"><a xlink:title=" ">
<polygon fill="#999999" stroke="#666666" points="298,-569 178,-569 178,-550 298,-550 298,-569"/>
<text text-anchor="middle" x="238" y="-557" font-family="Helvetica,sans-Serif" font-size="10.00">src/exec_decoder.cpp</text>
</a>
</g>
</g>
<!-- Node2 -->
<g id="Node000002" class="node">
<title>Node2</title>
<g id="a_Node000002"><a xlink:title=" ">
<polygon fill="#e0e0e0" stroke="#999999" points="276.5,-19 183.5,-19 183.5,0 276.5,0 276.5,-19"/>
<text text-anchor="middle" x="230" y="-7" font-family="Helvetica,sans-Serif" font-size="10.00">unordered_map</text>
</a>
</g>
</g>
<!-- Node1&#45;&gt;Node2 -->
<g id="edge1_Node000001_Node000002" class="edge">
<title>Node1&#45;&gt;Node2</title>
<g id="a_edge1_Node000001_Node000002"><a xlink:title=" ">
<path fill="none" stroke="#63b8ff" d="M177.99,-551.56C119.08,-541.02 38,-514.82 38,-450.5 38,-450.5 38,-450.5 38,-118.5 38,-55.9 116.48,-29.2 173.09,-18.08"/>
<polygon fill="#63b8ff" stroke="#63b8ff" points="173.83,-21.51 183.03,-16.25 172.56,-14.62 173.83,-21.51"/>
</a>
</g>
</g>
<!-- Node3 -->
<g id="Node000003" class="node">
<title>Node3</title>
<g id="a_Node000003"><a xlink:title=" ">
<polygon fill="#e0e0e0" stroke="#999999" points="227,-129 183,-129 183,-110 227,-110 227,-129"/>
<text text-anchor="middle" x="205" y="-117" font-family="Helvetica,sans-Serif" font-size="10.00">string</text>
</a>
</g>
</g>
<!-- Node1&#45;&gt;Node3 -->
<g id="edge2_Node000001_Node000003" class="edge">
<title>Node1&#45;&gt;Node3</title>
<g id="a_edge2_Node000001_Node000003"><a xlink:title=" ">
<path fill="none" stroke="#63b8ff" d="M248.44,-549.87C257.42,-541.7 269.74,-528.55 275,-514 277.87,-506.06 277.32,-503.12 275,-495 252.81,-417.26 179,-421.34 179,-340.5 179,-340.5 179,-340.5 179,-228.5 179,-196.15 190.17,-159.82 197.86,-138.62"/>
<polygon fill="#63b8ff" stroke="#63b8ff" points="201.23,-139.6 201.49,-129.01 194.68,-137.13 201.23,-139.6"/>
</a>
</g>
</g>
<!-- Node4 -->
<g id="Node000004" class="node">
<title>Node4</title>
<g id="a_Node000004"><a xlink:title=" ">
<polygon fill="#e0e0e0" stroke="#999999" points="1056.5,-19 1009.5,-19 1009.5,0 1056.5,0 1056.5,-19"/>
<text text-anchor="middle" x="1033" y="-7" font-family="Helvetica,sans-Serif" font-size="10.00">vector</text>
</a>
</g>
</g>
<!-- Node1&#45;&gt;Node4 -->
<g id="edge3_Node000001_Node000004" class="edge">
<title>Node1&#45;&gt;Node4</title>
<g id="a_edge3_Node000001_Node000004"><a xlink:title=" ">
<path fill="none" stroke="#63b8ff" d="M298.25,-557.73C454.31,-555.31 868.77,-545.97 1002,-514 1070.41,-497.59 1147,-520.85 1147,-450.5 1147,-450.5 1147,-450.5 1147,-118.5 1147,-72.47 1097.42,-40.18 1063.65,-23.53"/>
<polygon fill="#63b8ff" stroke="#63b8ff" points="1064.71,-20.16 1054.18,-19.05 1061.72,-26.49 1064.71,-20.16"/>
</a>
</g>
</g>
<!-- Node5 -->
<g id="Node000005" class="node">
<title>Node5</title>
<g id="a_Node000005"><a xlink:title=" ">
<polygon fill="#e0e0e0" stroke="#999999" points="84,-19 24,-19 24,0 84,0 84,-19"/>
<text text-anchor="middle" x="54" y="-7" font-family="Helvetica,sans-Serif" font-size="10.00">iostream</text>
</a>
</g>
</g>
<!-- Node1&#45;&gt;Node5 -->
<g id="edge4_Node000001_Node000005" class="edge">
<title>Node1&#45;&gt;Node5</title>
<g id="a_edge4_Node000001_Node000005"><a xlink:title=" ">
<path fill="none" stroke="#63b8ff" d="M177.94,-556.46C107.44,-550.47 0,-528.54 0,-450.5 0,-450.5 0,-450.5 0,-118.5 0,-82.89 23.77,-46.99 39.77,-26.86"/>
<polygon fill="#63b8ff" stroke="#63b8ff" points="42.59,-28.95 46.26,-19.01 37.19,-24.49 42.59,-28.95"/>
</a>
</g>
</g>
<!-- Node6 -->
<g id="Node000006" class="node">
<title>Node6</title>
<g id="a_Node000006"><a xlink:title=" ">
<polygon fill="#e0e0e0" stroke="#999999" points="192,-514 142,-514 142,-495 192,-495 192,-514"/>
<text text-anchor="middle" x="167" y="-502" font-family="Helvetica,sans-Serif" font-size="10.00">chrono</text>
</a>
</g>
</g>
<!-- Node1&#45;&gt;Node6 -->
<g id="edge5_Node000001_Node000006" class="edge">
<title>Node1&#45;&gt;Node6</title>
<g id="a_edge5_Node000001_Node000006"><a xlink:title=" ">
<path fill="none" stroke="#63b8ff" d="M226.59,-549.98C215.89,-542 199.66,-529.88 186.84,-520.31"/>
<polygon fill="#63b8ff" stroke="#63b8ff" points="188.72,-517.35 178.61,-514.17 184.53,-522.96 188.72,-517.35"/>
</a>
</g>
</g>
<!-- Node7 -->
<g id="Node000007" class="node">
<title>Node7</title>
<g id="a_Node000007"><a xlink:title=" ">
<polygon fill="#e0e0e0" stroke="#999999" points="266,-514 210,-514 210,-495 266,-495 266,-514"/>
<text text-anchor="middle" x="238" y="-502" font-family="Helvetica,sans-Serif" font-size="10.00">sstream</text>
</a>
</g>
</g>
<!-- Node1&#45;&gt;Node7 -->
<g id="edge6_Node000001_Node000007" class="edge">
<title>Node1&#45;&gt;Node7</title>
<g id="a_edge6_Node000001_Node000007"><a xlink:title=" ">
<path fill="none" stroke="#63b8ff" d="M238,-549.75C238,-542.8 238,-532.85 238,-524.13"/>
<polygon fill="#63b8ff" stroke="#63b8ff" points="241.5,-524.09 238,-514.09 234.5,-524.09 241.5,-524.09"/>
</a>
</g>
</g>
<!-- Node8 -->
<g id="Node000008" class="node">
<title>Node8</title>
<g id="a_Node000008"><a xlink:href="CCSDSManager_8h.html" target="_top" xlink:title=" ">
<polygon fill="white" stroke="#666666" points="498.5,-459 397.5,-459 397.5,-440 498.5,-440 498.5,-459"/>
<text text-anchor="middle" x="448" y="-447" font-family="Helvetica,sans-Serif" font-size="10.00">CCSDSManager.h</text>
</a>
</g>
</g>
<!-- Node1&#45;&gt;Node8 -->
<g id="edge7_Node000001_Node000008" class="edge">
<title>Node1&#45;&gt;Node8</title>
<g id="a_edge7_Node000001_Node000008"><a xlink:title=" ">
<path fill="none" stroke="#63b8ff" d="M298.03,-555.98C335.46,-551.6 382.66,-540.66 416,-514 430.14,-502.7 438.58,-483.51 443.21,-469.18"/>
<polygon fill="#63b8ff" stroke="#63b8ff" points="446.63,-469.96 446.04,-459.38 439.9,-468.01 446.63,-469.96"/>
</a>
</g>
</g>
<!-- Node11 -->
<g id="Node000011" class="node">
<title>Node11</title>
<g id="a_Node000011"><a xlink:href="CCSDSResult_8h.html" target="_top" xlink:title=" ">
<polygon fill="white" stroke="#666666" points="319.5,-74 230.5,-74 230.5,-55 319.5,-55 319.5,-74"/>
<text text-anchor="middle" x="275" y="-62" font-family="Helvetica,sans-Serif" font-size="10.00">CCSDSResult.h</text>
</a>
</g>
</g>
<!-- Node1&#45;&gt;Node11 -->
<g id="edge45_Node000001_Node000011" class="edge">
<title>Node1&#45;&gt;Node11</title>
<g id="a_edge45_Node000001_Node000011"><a xlink:title=" ">
<path fill="none" stroke="#63b8ff" d="M196.7,-549.92C148.7,-537.24 76,-508.47 76,-450.5 76,-450.5 76,-450.5 76,-173.5 76,-107.54 161.49,-81.65 220.4,-71.64"/>
<polygon fill="#63b8ff" stroke="#63b8ff" points="221.02,-75.09 230.34,-70.06 219.91,-68.17 221.02,-75.09"/>
</a>
</g>
</g>
<!-- Node14 -->
<g id="Node000014" class="node">
<title>Node14</title>
<g id="a_Node000014"><a xlink:href="CCSDSHeader_8h.html" target="_top" xlink:title=" ">
<polygon fill="white" stroke="#666666" points="1004.5,-129 911.5,-129 911.5,-110 1004.5,-110 1004.5,-129"/>
<text text-anchor="middle" x="958" y="-117" font-family="Helvetica,sans-Serif" font-size="10.00">CCSDSHeader.h</text>
</a>
</g>
</g>
<!-- Node1&#45;&gt;Node14 -->
<g id="edge44_Node000001_Node000014" class="edge">
<title>Node1&#45;&gt;Node14</title>
<g id="a_edge44_Node000001_Node000014"><a xlink:title=" ">
<path fill="none" stroke="#63b8ff" d="M298.21,-557.37C495.37,-552.89 1109,-532.35 1109,-450.5 1109,-450.5 1109,-450.5 1109,-338.5 1109,-247.59 1019.17,-167.23 978.08,-135.23"/>
<polygon fill="#63b8ff" stroke="#63b8ff" points="980.18,-132.42 970.1,-129.14 975.93,-137.99 980.18,-132.42"/>
</a>
</g>
</g>
<!-- Node22 -->
<g id="Node000022" class="node">
<title>Node22</title>
<g id="a_Node000022"><a xlink:href="CCSDSUtils_8h.html" target="_top" xlink:title=" ">
<polygon fill="white" stroke="#666666" points="406.5,-514 325.5,-514 325.5,-495 406.5,-495 406.5,-514"/>
<text text-anchor="middle" x="366" y="-502" font-family="Helvetica,sans-Serif" font-size="10.00">CCSDSUtils.h</text>
</a>
</g>
</g>
<!-- Node1&#45;&gt;Node22 -->
<g id="edge46_Node000001_Node000022" class="edge">
<title>Node1&#45;&gt;Node22</title>
<g id="a_edge46_Node000001_Node000022"><a xlink:title=" ">
<path fill="none" stroke="#63b8ff" d="M258.57,-549.98C279.43,-541.34 311.97,-527.87 335.77,-518.02"/>
<polygon fill="#63b8ff" stroke="#63b8ff" points="337.16,-521.23 345.06,-514.17 334.48,-514.76 337.16,-521.23"/>
</a>
</g>
</g>
<!-- Node23 -->
<g id="Node000023" class="node">
<title>Node23</title>
<g id="a_Node000023"><a xlink:href="exec__utils_8h.html" target="_top" xlink:title=" ">
<polygon fill="white" stroke="#666666" points="178,-459 104,-459 104,-440 178,-440 178,-459"/>
<text text-anchor="middle" x="141" y="-447" font-family="Helvetica,sans-Serif" font-size="10.00">exec_utils.h</text>
</a>
</g>
</g>
<!-- Node1&#45;&gt;Node23 -->
<g id="edge52_Node000001_Node000023" class="edge">
<title>Node1&#45;&gt;Node23</title>
<g id="a_edge52_Node000001_Node000023"><a xlink:title=" ">
<path fill="none" stroke="#63b8ff" d="M188.42,-549.98C167.65,-543.7 145.46,-532.82 133,-514 124.1,-500.56 127.85,-481.97 132.78,-468.38"/>
<polygon fill="#63b8ff" stroke="#63b8ff" points="136.02,-469.7 136.58,-459.12 129.54,-467.04 136.02,-469.7"/>
</a>
</g>
</g>
<!-- Node9 -->
<g id="Node000009" class="node">
<title>Node9</title>
<g id="a_Node000009"><a xlink:title=" ">
<polygon fill="#e0e0e0" stroke="#999999" points="521.5,-404 476.5,-404 476.5,-385 521.5,-385 521.5,-404"/>
<text text-anchor="middle" x="499" y="-392" font-family="Helvetica,sans-Serif" font-size="10.00">utility</text>
</a>
</g>
</g>
<!-- Node8&#45;&gt;Node9 -->
<g id="edge8_Node000008_Node000009" class="edge">
<title>Node8&#45;&gt;Node9</title>
<g id="a_edge8_Node000008_Node000009"><a xlink:title=" ">
<path fill="none" stroke="#63b8ff" d="M456.42,-439.75C463.77,-432.11 474.63,-420.82 483.54,-411.56"/>
<polygon fill="#63b8ff" stroke="#63b8ff" points="486.32,-413.72 490.74,-404.09 481.28,-408.87 486.32,-413.72"/>
</a>
</g>
</g>
<!-- Node10 -->
<g id="Node000010" class="node">
<title>Node10</title>
<g id="a_Node000010"><a xlink:href="CCSDSPacket_8h.html" target="_top" xlink:title=" ">
<polygon fill="white" stroke="#666666" points="649,-349 559,-349 559,-330 649,-330 649,-349"/>
<text text-anchor="middle" x="604" y="-337" font-family="Helvetica,sans-Serif" font-size="10.00">CCSDSPacket.h</text>
</a>
</g>
</g>
<!-- Node8&#45;&gt;Node10 -->
<g id="edge9_Node000008_Node000010" class="edge">
<title>Node8&#45;&gt;Node10</title>
<g id="a_edge9_Node000008_Node000010"><a xlink:title=" ">
<path fill="none" stroke="#63b8ff" d="M448.31,-439.84C449.26,-426.31 453.05,-400.12 468,-385 489.39,-363.37 521.44,-352.25 549.05,-346.54"/>
<polygon fill="#63b8ff" stroke="#63b8ff" points="549.82,-349.95 559,-344.67 548.52,-343.07 549.82,-349.95"/>
</a>
</g>
</g>
<!-- Node8&#45;&gt;Node11 -->
<g id="edge41_Node000008_Node000011" class="edge">
<title>Node8&#45;&gt;Node11</title>
<g id="a_edge41_Node000008_Node000011"><a xlink:title=" ">
<path fill="none" stroke="#63b8ff" d="M397.29,-442.22C340.11,-431.98 255,-405.77 255,-340.5 255,-340.5 255,-340.5 255,-173.5 255,-141.51 263.59,-105.07 269.51,-83.75"/>
<polygon fill="#63b8ff" stroke="#63b8ff" points="272.89,-84.66 272.3,-74.08 266.16,-82.71 272.89,-84.66"/>
</a>
</g>
</g>
<!-- Node21 -->
<g id="Node000021" class="node">
<title>Node21</title>
<g id="a_Node000021"><a xlink:href="CCSDSValidator_8h.html" target="_top" xlink:title="Defines the Validator class for CCSDS packet validation.">
<polygon fill="white" stroke="#666666" points="649.5,-404 548.5,-404 548.5,-385 649.5,-385 649.5,-404"/>
<text text-anchor="middle" x="599" y="-392" font-family="Helvetica,sans-Serif" font-size="10.00">CCSDSValidator.h</text>
</a>
</g>
</g>
<!-- Node8&#45;&gt;Node21 -->
<g id="edge42_Node000008_Node000021" class="edge">
<title>Node8&#45;&gt;Node21</title>
<g id="a_edge42_Node000008_Node000021"><a xlink:title=" ">
<path fill="none" stroke="#63b8ff" d="M472.26,-439.98C497.32,-431.19 536.63,-417.39 564.83,-407.49"/>
<polygon fill="#63b8ff" stroke="#63b8ff" points="566.02,-410.78 574.3,-404.17 563.7,-404.18 566.02,-410.78"/>
</a>
</g>
</g>
<!-- Node10&#45;&gt;Node4 -->
<g id="edge17_Node000010_Node000004" class="edge">
<title>Node10&#45;&gt;Node4</title>
<g id="a_edge17_Node000010_Node000004"><a xlink:title=" ">
<path fill="none" stroke="#63b8ff" d="M649.22,-336.54C725.26,-332.52 874.77,-321.32 919,-294 1015.63,-234.32 1032.98,-186.44 1049,-74 1050.19,-65.64 1050.45,-63.32 1049,-55 1047.43,-46 1044.2,-36.42 1041.06,-28.46"/>
<polygon fill="#63b8ff" stroke="#63b8ff" points="1044.23,-26.97 1037.11,-19.12 1037.78,-29.69 1044.23,-26.97"/>
</a>
</g>
</g>
<!-- Node10&#45;&gt;Node11 -->
<g id="edge10_Node000010_Node000011" class="edge">
<title>Node10&#45;&gt;Node11</title>
<g id="a_edge10_Node000010_Node000011"><a xlink:title=" ">
<path fill="none" stroke="#63b8ff" d="M588.03,-329.87C541.68,-304.21 404.79,-224.26 317,-129 304.15,-115.06 292.52,-96.8 284.77,-83.45"/>
<polygon fill="#63b8ff" stroke="#63b8ff" points="287.6,-81.34 279.64,-74.34 281.5,-84.77 287.6,-81.34"/>
</a>
</g>
</g>
<!-- Node13 -->
<g id="Node000013" class="node">
<title>Node13</title>
<g id="a_Node000013"><a xlink:title=" ">
<polygon fill="#e0e0e0" stroke="#999999" points="802,-19 752,-19 752,0 802,0 802,-19"/>
<text text-anchor="middle" x="777" y="-7" font-family="Helvetica,sans-Serif" font-size="10.00">cstdint</text>
</a>
</g>
</g>
<!-- Node10&#45;&gt;Node13 -->
<g id="edge16_Node000010_Node000013" class="edge">
<title>Node10&#45;&gt;Node13</title>
<g id="a_edge16_Node000010_Node000013"><a xlink:title=" ">
<path fill="none" stroke="#63b8ff" d="M649.14,-330.68C728.1,-315.71 883,-280.04 883,-230.5 883,-230.5 883,-230.5 883,-118.5 883,-73.98 836.55,-41.07 805.15,-23.92"/>
<polygon fill="#63b8ff" stroke="#63b8ff" points="806.43,-20.64 795.95,-19.1 803.19,-26.84 806.43,-20.64"/>
</a>
</g>
</g>
<!-- Node10&#45;&gt;Node14 -->
<g id="edge18_Node000010_Node000014" class="edge">
<title>Node10&#45;&gt;Node14</title>
<g id="a_edge18_Node000010_Node000014"><a xlink:title=" ">
<path fill="none" stroke="#63b8ff" d="M649.18,-337.2C721.8,-334.21 860.1,-324.56 897,-294 944.71,-254.49 955.14,-175.22 957.39,-139.15"/>
<polygon fill="#63b8ff" stroke="#63b8ff" points="960.89,-139.21 957.88,-129.06 953.9,-138.88 960.89,-139.21"/>
</a>
</g>
</g>
<!-- Node15 -->
<g id="Node000015" class="node">
<title>Node15</title>
<g id="a_Node000015"><a xlink:href="CCSDSDataField_8h.html" target="_top" xlink:title=" ">
<polygon fill="white" stroke="#666666" points="661.5,-294 556.5,-294 556.5,-275 661.5,-275 661.5,-294"/>
<text text-anchor="middle" x="609" y="-282" font-family="Helvetica,sans-Serif" font-size="10.00">CCSDSDataField.h</text>
</a>
</g>
</g>
<!-- Node10&#45;&gt;Node15 -->
<g id="edge22_Node000010_Node000015" class="edge">
<title>Node10&#45;&gt;Node15</title>
<g id="a_edge22_Node000010_Node000015"><a xlink:title=" ">
<path fill="none" stroke="#63b8ff" d="M604.83,-329.75C605.48,-322.8 606.42,-312.85 607.24,-304.13"/>
<polygon fill="#63b8ff" stroke="#63b8ff" points="610.73,-304.37 608.19,-294.09 603.77,-303.72 610.73,-304.37"/>
</a>
</g>
</g>
<!-- Node11&#45;&gt;Node2 -->
<g id="edge11_Node000011_Node000002" class="edge">
<title>Node11&#45;&gt;Node2</title>
<g id="a_edge11_Node000011_Node000002"><a xlink:title=" ">
<path fill="none" stroke="#63b8ff" d="M267.57,-54.75C261.15,-47.18 251.69,-36.05 243.88,-26.84"/>
<polygon fill="#63b8ff" stroke="#63b8ff" points="246.43,-24.45 237.29,-19.09 241.1,-28.98 246.43,-24.45"/>
</a>
</g>
</g>
<!-- Node11&#45;&gt;Node4 -->
<g id="edge13_Node000011_Node000004" class="edge">
<title>Node11&#45;&gt;Node4</title>
<g id="a_edge13_Node000011_Node000004"><a xlink:title=" ">
<path fill="none" stroke="#63b8ff" d="M319.59,-60.38C457.75,-50.72 876.77,-21.42 999.12,-12.87"/>
<polygon fill="#63b8ff" stroke="#63b8ff" points="999.64,-16.34 1009.37,-12.15 999.15,-9.36 999.64,-16.34"/>
</a>
</g>
</g>
<!-- Node11&#45;&gt;Node5 -->
<g id="edge15_Node000011_Node000005" class="edge">
<title>Node11&#45;&gt;Node5</title>
<g id="a_edge15_Node000011_Node000005"><a xlink:title=" ">
<path fill="none" stroke="#63b8ff" d="M239.49,-54.98C199.7,-45.44 135.35,-30.01 93.86,-20.06"/>
<polygon fill="#63b8ff" stroke="#63b8ff" points="94.63,-16.65 84.09,-17.72 93,-23.45 94.63,-16.65"/>
</a>
</g>
</g>
<!-- Node12 -->
<g id="Node000012" class="node">
<title>Node12</title>
<g id="a_Node000012"><a xlink:title=" ">
<polygon fill="#e0e0e0" stroke="#999999" points="345.5,-19 294.5,-19 294.5,0 345.5,0 345.5,-19"/>
<text text-anchor="middle" x="320" y="-7" font-family="Helvetica,sans-Serif" font-size="10.00">variant</text>
</a>
</g>
</g>
<!-- Node11&#45;&gt;Node12 -->
<g id="edge12_Node000011_Node000012" class="edge">
<title>Node11&#45;&gt;Node12</title>
<g id="a_edge12_Node000011_Node000012"><a xlink:title=" ">
<path fill="none" stroke="#63b8ff" d="M282.43,-54.75C288.85,-47.18 298.31,-36.05 306.12,-26.84"/>
<polygon fill="#63b8ff" stroke="#63b8ff" points="308.9,-28.98 312.71,-19.09 303.57,-24.45 308.9,-28.98"/>
</a>
</g>
</g>
<!-- Node11&#45;&gt;Node13 -->
<g id="edge14_Node000011_Node000013" class="edge">
<title>Node11&#45;&gt;Node13</title>
<g id="a_edge14_Node000011_Node000013"><a xlink:title=" ">
<path fill="none" stroke="#63b8ff" d="M319.75,-56.85C324.56,-56.19 329.38,-55.56 334,-55 485.38,-36.5 666.55,-20.08 741.68,-13.53"/>
<polygon fill="#63b8ff" stroke="#63b8ff" points="742.32,-16.99 751.98,-12.63 741.71,-10.01 742.32,-16.99"/>
</a>
</g>
</g>
<!-- Node14&#45;&gt;Node4 -->
<g id="edge21_Node000014_Node000004" class="edge">
<title>Node14&#45;&gt;Node4</title>
<g id="a_edge21_Node000014_Node000004"><a xlink:title=" ">
<path fill="none" stroke="#63b8ff" d="M964.14,-109.66C976.62,-91.69 1005.12,-50.64 1021.28,-27.38"/>
<polygon fill="#63b8ff" stroke="#63b8ff" points="1024.16,-29.37 1026.99,-19.16 1018.41,-25.38 1024.16,-29.37"/>
</a>
</g>
</g>
<!-- Node14&#45;&gt;Node11 -->
<g id="edge19_Node000014_Node000011" class="edge">
<title>Node14&#45;&gt;Node11</title>
<g id="a_edge19_Node000014_Node000011"><a xlink:title=" ">
<path fill="none" stroke="#63b8ff" d="M911.32,-114.88C789.19,-105.4 460.63,-79.9 329.82,-69.75"/>
<polygon fill="#63b8ff" stroke="#63b8ff" points="329.88,-66.25 319.64,-68.96 329.34,-73.23 329.88,-66.25"/>
</a>
</g>
</g>
<!-- Node14&#45;&gt;Node13 -->
<g id="edge20_Node000014_Node000013" class="edge">
<title>Node14&#45;&gt;Node13</title>
<g id="a_edge20_Node000014_Node000013"><a xlink:title=" ">
<path fill="none" stroke="#63b8ff" d="M951.82,-109.92C941.74,-96.48 920.52,-70.42 897,-55 870.87,-37.87 837.24,-26.13 812.23,-19.03"/>
<polygon fill="#63b8ff" stroke="#63b8ff" points="812.99,-15.61 802.43,-16.36 811.15,-22.36 812.99,-15.61"/>
</a>
</g>
</g>
<!-- Node15&#45;&gt;Node4 -->
<g id="edge25_Node000015_Node000004" class="edge">
<title>Node15&#45;&gt;Node4</title>
<g id="a_edge25_Node000015_Node000004"><a xlink:title=" ">
<path fill="none" stroke="#63b8ff" d="M661.59,-279.94C749.69,-270.94 926.07,-239.36 1014,-129 1036.97,-100.17 1037.27,-54.6 1035.26,-29.19"/>
<polygon fill="#63b8ff" stroke="#63b8ff" points="1038.72,-28.67 1034.25,-19.07 1031.76,-29.37 1038.72,-28.67"/>
</a>
</g>
</g>
<!-- Node15&#45;&gt;Node11 -->
<g id="edge23_Node000015_Node000011" class="edge">
<title>Node15&#45;&gt;Node11</title>
<g id="a_edge23_Node000015_Node000011"><a xlink:title=" ">
<path fill="none" stroke="#63b8ff" d="M581.3,-274.96C558,-267.21 524.22,-254.62 497,-239 413.33,-191.01 326.84,-114.01 291.52,-81.16"/>
<polygon fill="#63b8ff" stroke="#63b8ff" points="293.73,-78.44 284.04,-74.15 288.94,-83.54 293.73,-78.44"/>
</a>
</g>
</g>
<!-- Node15&#45;&gt;Node13 -->
<g id="edge24_Node000015_Node000013" class="edge">
<title>Node15&#45;&gt;Node13</title>
<g id="a_edge24_Node000015_Node000013"><a xlink:title=" ">
<path fill="none" stroke="#63b8ff" d="M634.94,-274.96C684.16,-257.1 789.54,-210.57 827,-129 843.6,-92.85 812.89,-49.64 792.67,-26.69"/>
<polygon fill="#63b8ff" stroke="#63b8ff" points="795.14,-24.21 785.81,-19.2 789.99,-28.94 795.14,-24.21"/>
</a>
</g>
</g>
<!-- Node16 -->
<g id="Node000016" class="node">
<title>Node16</title>
<g id="a_Node000016"><a xlink:title=" ">
<polygon fill="#e0e0e0" stroke="#999999" points="455,-129 397,-129 397,-110 455,-110 455,-129"/>
<text text-anchor="middle" x="426" y="-117" font-family="Helvetica,sans-Serif" font-size="10.00">memory</text>
</a>
</g>
</g>
<!-- Node15&#45;&gt;Node16 -->
<g id="edge26_Node000015_Node000016" class="edge">
<title>Node15&#45;&gt;Node16</title>
<g id="a_edge26_Node000015_Node000016"><a xlink:title=" ">
<path fill="none" stroke="#63b8ff" d="M590.39,-274.86C559.92,-259.96 498.88,-226.85 460,-184 447.93,-170.7 438.71,-152.34 432.93,-138.78"/>
<polygon fill="#63b8ff" stroke="#63b8ff" points="436.02,-137.1 429.05,-129.12 429.53,-139.71 436.02,-137.1"/>
</a>
</g>
</g>
<!-- Node17 -->
<g id="Node000017" class="node">
<title>Node17</title>
<g id="a_Node000017"><a xlink:href="CCSDSSecondaryHeaderAbstract_8h.html" target="_top" xlink:title=" ">
<polygon fill="white" stroke="#666666" points="817.5,-129 632.5,-129 632.5,-110 817.5,-110 817.5,-129"/>
<text text-anchor="middle" x="725" y="-117" font-family="Helvetica,sans-Serif" font-size="10.00">CCSDSSecondaryHeaderAbstract.h</text>
</a>
</g>
</g>
<!-- Node15&#45;&gt;Node17 -->
<g id="edge27_Node000015_Node000017" class="edge">
<title>Node15&#45;&gt;Node17</title>
<g id="a_edge27_Node000015_Node000017"><a xlink:title=" ">
<path fill="none" stroke="#63b8ff" d="M626.75,-274.99C641.71,-267.17 663.03,-254.46 678,-239 697.83,-218.52 700.46,-210.49 711,-184 716.75,-169.56 720.36,-152.29 722.47,-139.4"/>
<polygon fill="#63b8ff" stroke="#63b8ff" points="725.95,-139.8 723.96,-129.39 719.03,-138.77 725.95,-139.8"/>
</a>
</g>
</g>
<!-- Node18 -->
<g id="Node000018" class="node">
<title>Node18</title>
<g id="a_Node000018"><a xlink:href="CCSDSSecondaryHeaderFactory_8h.html" target="_top" xlink:title=" ">
<polygon fill="white" stroke="#666666" points="681.5,-184 502.5,-184 502.5,-165 681.5,-165 681.5,-184"/>
<text text-anchor="middle" x="592" y="-172" font-family="Helvetica,sans-Serif" font-size="10.00">CCSDSSecondaryHeaderFactory.h</text>
</a>
</g>
</g>
<!-- Node15&#45;&gt;Node18 -->
<g id="edge31_Node000015_Node000018" class="edge">
<title>Node15&#45;&gt;Node18</title>
<g id="a_edge31_Node000015_Node000018"><a xlink:title=" ">
<path fill="none" stroke="#63b8ff" d="M599.98,-274.96C591.93,-266.66 580.71,-253.25 576,-239 570.99,-223.84 576.29,-206.2 582.1,-193.36"/>
<polygon fill="#63b8ff" stroke="#63b8ff" points="585.32,-194.75 586.68,-184.24 579.07,-191.61 585.32,-194.75"/>
</a>
</g>
</g>
<!-- Node20 -->
<g id="Node000020" class="node">
<title>Node20</title>
<g id="a_Node000020"><a xlink:href="PusServices_8h.html" target="_top" xlink:title=" ">
<polygon fill="white" stroke="#666666" points="669,-239 585,-239 585,-220 669,-220 669,-239"/>
<text text-anchor="middle" x="627" y="-227" font-family="Helvetica,sans-Serif" font-size="10.00">PusServices.h</text>
</a>
</g>
</g>
<!-- Node15&#45;&gt;Node20 -->
<g id="edge37_Node000015_Node000020" class="edge">
<title>Node15&#45;&gt;Node20</title>
<g id="a_edge37_Node000015_Node000020"><a xlink:title=" ">
<path fill="none" stroke="#63b8ff" d="M611.97,-274.75C614.36,-267.72 617.79,-257.62 620.77,-248.84"/>
<polygon fill="#63b8ff" stroke="#63b8ff" points="624.18,-249.68 624.08,-239.09 617.55,-247.43 624.18,-249.68"/>
</a>
</g>
</g>
<!-- Node17&#45;&gt;Node4 -->
<g id="edge29_Node000017_Node000004" class="edge">
<title>Node17&#45;&gt;Node4</title>
<g id="a_edge29_Node000017_Node000004"><a xlink:title=" ">
<path fill="none" stroke="#63b8ff" d="M749.43,-109.94C804.28,-90.7 937.31,-44.05 999.69,-22.18"/>
<polygon fill="#63b8ff" stroke="#63b8ff" points="1001.14,-25.38 1009.42,-18.77 998.82,-18.77 1001.14,-25.38"/>
</a>
</g>
</g>
<!-- Node17&#45;&gt;Node11 -->
<g id="edge28_Node000017_Node000011" class="edge">
<title>Node17&#45;&gt;Node11</title>
<g id="a_edge28_Node000017_Node000011"><a xlink:title=" ">
<path fill="none" stroke="#63b8ff" d="M652.7,-109.98C562.64,-99.38 410.78,-81.49 329.77,-71.95"/>
<polygon fill="#63b8ff" stroke="#63b8ff" points="330.11,-68.47 319.77,-70.77 329.3,-75.42 330.11,-68.47"/>
</a>
</g>
</g>
<!-- Node17&#45;&gt;Node13 -->
<g id="edge30_Node000017_Node000013" class="edge">
<title>Node17&#45;&gt;Node13</title>
<g id="a_edge30_Node000017_Node000013"><a xlink:title=" ">
<path fill="none" stroke="#63b8ff" d="M729.26,-109.66C737.79,-91.93 757.15,-51.73 768.42,-28.32"/>
<polygon fill="#63b8ff" stroke="#63b8ff" points="771.65,-29.69 772.83,-19.16 765.34,-26.65 771.65,-29.69"/>
</a>
</g>
</g>
<!-- Node18&#45;&gt;Node2 -->
<g id="edge33_Node000018_Node000002" class="edge">
<title>Node18&#45;&gt;Node2</title>
<g id="a_edge33_Node000018_Node000002"><a xlink:title=" ">
<path fill="none" stroke="#63b8ff" d="M579.07,-164.99C559.17,-152.1 519.6,-127.31 484,-110 408.29,-73.2 315.26,-39.53 265.46,-22.39"/>
<polygon fill="#63b8ff" stroke="#63b8ff" points="266.4,-19.01 255.81,-19.09 264.13,-25.63 266.4,-19.01"/>
</a>
</g>
</g>
<!-- Node18&#45;&gt;Node3 -->
<g id="edge35_Node000018_Node000003" class="edge">
<title>Node18&#45;&gt;Node3</title>
<g id="a_edge35_Node000018_Node000003"><a xlink:title=" ">
<path fill="none" stroke="#63b8ff" d="M529.82,-164.98C446.43,-153.56 301.44,-133.71 237.21,-124.91"/>
<polygon fill="#63b8ff" stroke="#63b8ff" points="237.64,-121.44 227.26,-123.55 236.69,-128.37 237.64,-121.44"/>
</a>
</g>
</g>
<!-- Node18&#45;&gt;Node16 -->
<g id="edge32_Node000018_Node000016" class="edge">
<title>Node18&#45;&gt;Node16</title>
<g id="a_edge32_Node000018_Node000016"><a xlink:title=" ">
<path fill="none" stroke="#63b8ff" d="M565.33,-164.98C537.46,-156.09 493.55,-142.07 462.48,-132.15"/>
<polygon fill="#63b8ff" stroke="#63b8ff" points="463.47,-128.79 452.88,-129.08 461.34,-135.46 463.47,-128.79"/>
</a>
</g>
</g>
<!-- Node18&#45;&gt;Node17 -->
<g id="edge36_Node000018_Node000017" class="edge">
<title>Node18&#45;&gt;Node17</title>
<g id="a_edge36_Node000018_Node000017"><a xlink:title=" ">
<path fill="none" stroke="#63b8ff" d="M613.37,-164.98C635.15,-156.3 669.16,-142.75 693.92,-132.88"/>
<polygon fill="#63b8ff" stroke="#63b8ff" points="695.25,-136.12 703.24,-129.17 692.66,-129.62 695.25,-136.12"/>
</a>
</g>
</g>
<!-- Node19 -->
<g id="Node000019" class="node">
<title>Node19</title>
<g id="a_Node000019"><a xlink:title=" ">
<polygon fill="#e0e0e0" stroke="#999999" points="614.5,-129 549.5,-129 549.5,-110 614.5,-110 614.5,-129"/>
<text text-anchor="middle" x="582" y="-117" font-family="Helvetica,sans-Serif" font-size="10.00">functional</text>
</a>
</g>
</g>
<!-- Node18&#45;&gt;Node19 -->
<g id="edge34_Node000018_Node000019" class="edge">
<title>Node18&#45;&gt;Node19</title>
<g id="a_edge34_Node000018_Node000019"><a xlink:title=" ">
<path fill="none" stroke="#63b8ff" d="M590.35,-164.75C589.04,-157.8 587.16,-147.85 585.52,-139.13"/>
<polygon fill="#63b8ff" stroke="#63b8ff" points="588.91,-138.27 583.62,-129.09 582.04,-139.56 588.91,-138.27"/>
</a>
</g>
</g>
<!-- Node20&#45;&gt;Node11 -->
<g id="edge40_Node000020_Node000011" class="edge">
<title>Node20&#45;&gt;Node11</title>
<g id="a_edge40_Node000020_Node000011"><a xlink:title=" ">
<path fill="none" stroke="#63b8ff" d="M584.82,-223.69C556.02,-218.38 518.75,-207.26 494,-184 468.14,-159.7 490.95,-133.09 464,-110 444.04,-92.9 378.29,-80.12 329.93,-72.75"/>
<polygon fill="#63b8ff" stroke="#63b8ff" points="330.3,-69.26 319.9,-71.26 329.27,-76.19 330.3,-69.26"/>
</a>
</g>
</g>
<!-- Node20&#45;&gt;Node17 -->
<g id="edge38_Node000020_Node000017" class="edge">
<title>Node20&#45;&gt;Node17</title>
<g id="a_edge38_Node000020_Node000017"><a xlink:title=" ">
<path fill="none" stroke="#63b8ff" d="M643.61,-219.89C657.59,-212 677.41,-199.26 691,-184 702.94,-170.59 712.18,-152.24 718,-138.72"/>
<polygon fill="#63b8ff" stroke="#63b8ff" points="721.39,-139.67 721.91,-129.09 714.9,-137.03 721.39,-139.67"/>
</a>
</g>
</g>
<!-- Node20&#45;&gt;Node18 -->
<g id="edge39_Node000020_Node000018" class="edge">
<title>Node20&#45;&gt;Node18</title>
<g id="a_edge39_Node000020_Node000018"><a xlink:title=" ">
<path fill="none" stroke="#63b8ff" d="M621.22,-219.75C616.38,-212.42 609.32,-201.73 603.36,-192.7"/>
<polygon fill="#63b8ff" stroke="#63b8ff" points="606.1,-190.5 597.67,-184.09 600.26,-194.36 606.1,-190.5"/>
</a>
</g>
</g>
<!-- Node21&#45;&gt;Node10 -->
<g id="edge43_Node000021_Node000010" class="edge">
<title>Node21&#45;&gt;Node10</title>
<g id="a_edge43_Node000021_Node000010"><a xlink:title=" ">
<path fill="none" stroke="#63b8ff" d="M599.83,-384.75C600.48,-377.8 601.42,-367.85 602.24,-359.13"/>
<polygon fill="#63b8ff" stroke="#63b8ff" points="605.73,-359.37 603.19,-349.09 598.77,-358.72 605.73,-359.37"/>
</a>
</g>
</g>
<!-- Node22&#45;&gt;Node3 -->
<g id="edge49_Node000022_Node000003" class="edge">
<title>Node22&#45;&gt;Node3</title>
<g id="a_edge49_Node000022_Node000003"><a xlink:title=" ">
<path fill="none" stroke="#63b8ff" d="M348.62,-494.99C309.31,-474.38 217,-417.76 217,-340.5 217,-340.5 217,-340.5 217,-228.5 217,-197 211.89,-160.64 208.34,-139.16"/>
<polygon fill="#63b8ff" stroke="#63b8ff" points="211.76,-138.4 206.62,-129.14 204.87,-139.59 211.76,-138.4"/>
</a>
</g>
</g>
<!-- Node22&#45;&gt;Node4 -->
<g id="edge51_Node000022_Node000004" class="edge">
<title>Node22&#45;&gt;Node4</title>
<g id="a_edge51_Node000022_Node000004"><a xlink:title=" ">
<path fill="none" stroke="#63b8ff" d="M406.69,-501.59C556.83,-494.03 1071,-463.18 1071,-395.5 1071,-395.5 1071,-395.5 1071,-338.5 1071,-264.11 1109,-249.89 1109,-175.5 1109,-175.5 1109,-175.5 1109,-118.5 1109,-79.47 1075.39,-44.58 1052.87,-25.6"/>
<polygon fill="#63b8ff" stroke="#63b8ff" points="1054.85,-22.7 1044.88,-19.12 1050.44,-28.14 1054.85,-22.7"/>
</a>
</g>
</g>
<!-- Node22&#45;&gt;Node8 -->
<g id="edge48_Node000022_Node000008" class="edge">
<title>Node22&#45;&gt;Node8</title>
<g id="a_edge48_Node000022_Node000008"><a xlink:title=" ">
<path fill="none" stroke="#63b8ff" d="M379.17,-494.98C391.77,-486.84 411,-474.41 425.94,-464.76"/>
<polygon fill="#63b8ff" stroke="#63b8ff" points="428.09,-467.54 434.59,-459.17 424.29,-461.66 428.09,-467.54"/>
</a>
</g>
</g>
<!-- Node22&#45;&gt;Node10 -->
<g id="edge47_Node000022_Node000010" class="edge">
<title>Node22&#45;&gt;Node10</title>
<g id="a_edge47_Node000022_Node000010"><a xlink:title=" ">
<path fill="none" stroke="#63b8ff" d="M367.73,-494.64C370.55,-481.73 377.08,-457.42 389,-440 410,-409.33 419.4,-402.86 452,-385 482.11,-368.5 519.02,-357.51 548.92,-350.58"/>
<polygon fill="#63b8ff" stroke="#63b8ff" points="549.78,-353.97 558.78,-348.38 548.25,-347.14 549.78,-353.97"/>
</a>
</g>
</g>
<!-- Node22&#45;&gt;Node13 -->
<g id="edge50_Node000022_Node000013" class="edge">
<title>Node22&#45;&gt;Node13</title>
<g id="a_edge50_Node000022_Node000013"><a xlink:title=" ">
<path fill="none" stroke="#63b8ff" d="M361.13,-494.85C351.52,-476.92 331,-434.13 331,-395.5 331,-395.5 331,-395.5 331,-173.5 331,-86.23 636.08,-31.82 741.6,-15.61"/>
<polygon fill="#63b8ff" stroke="#63b8ff" points="742.38,-19.03 751.74,-14.07 741.33,-12.11 742.38,-19.03"/>
</a>
</g>
</g>
<!-- Node23&#45;&gt;Node11 -->
<g id="edge53_Node000023_Node000011" class="edge">
<title>Node23&#45;&gt;Node11</title>
<g id="a_edge53_Node000023_Node000011"><a xlink:title=" ">
<path fill="none" stroke="#63b8ff" d="M141,-439.82C141,-421.48 141,-377.44 141,-340.5 141,-340.5 141,-340.5 141,-173.5 141,-141.69 150.8,-131.76 174,-110 190.14,-94.86 212.28,-84.33 231.71,-77.32"/>
<polygon fill="#63b8ff" stroke="#63b8ff" points="232.94,-80.6 241.28,-74.07 230.69,-73.97 232.94,-80.6"/>
</a>
</g>
</g>
</g>
</svg>

<g id="navigator" transform="translate(0 0)" fill="#404254">
  <rect fill="#f2f5e9" fill-opacity="0.5" stroke="#606060" stroke-width=".5" x="0" y="0" width="60" height="60"/>
  <use id="zoomplus" xlink:href="#zoomPlus" x="17" y="9" onmousedown="handleZoom(evt,'in')"/>
  <use id="zoomminus" xlink:href="#zoomMin" x="42" y="9" onmousedown="handleZoom(evt,'out')"/>
  <use id="reset" xlink:href="#resetDef" x="30" y="36" onmousedown="handleReset()"/>
   <use id="arrowup" xlink:href="#arrowUp" x="0" y="0" onmousedown="handlePan(0,-1)"/>
  <use id="arrowright" xlink:href="#arrowRight" x="0" y="0" onmousedown="handlePan(1,0)"/>
  <use id="arrowdown" xlink:href="#arrowDown" x="0" y="0" onmousedown="handlePan(0,1)"/>
  <use id="arrowleft" xlink:href="#arrowLeft" x="0" y="0" onmousedown="handlePan(-1,0)"/>
</g>
<svg viewBox="0 0 15 15" width="100%" height="30px" preserveAspectRatio="xMaxYMin meet">
 <g id="arrow_out" transform="scale(0.3 0.3)">
  <a xlink:href="exec__decoder_8cpp__incl_org.svg" target="_base">
   <rect id="button" ry="5" rx="5" y="6" x="6" height="38" width="38"
        fill="#f2f5e9" fill-opacity="0.5" stroke="#606060" stroke-width="1.0"/>
   <path id="arrow"
     d="M 11.500037,31.436501 C 11.940474,20.09759 22.043105,11.32322 32.158766,21.979434 L 37.068811,17.246167 C 37.068811,17.246167 37.088388,32 37.088388,32 L 22.160133,31.978069 C 22.160133,31.978069 26.997745,27.140456 26.997745,27.140456 C 18.528582,18.264221 13.291696,25.230495 11.500037,31.436501 z"
     style="fill:#404040;"/>
  </a>
 </g>
</svg>

<style type='text/css'>
<![CDATA[
[data-mouse-over-selected='false'] { opacity: 0.7; }
[data-mouse-over-selected='true']  { opacity: 1.0; }
]]>
</style>
<script type="application/ecmascript"><![CDATA[
document.addEventListener('DOMContentLoaded', (event) => {
  highlightEdges();
  highlightAdjacentNodes();
});
]]></script>
</svg>
