<?xml version="1.0" encoding="UTF-8" standalone="no"?>
<!DOCTYPE svg PUBLIC "-//W3C//DTD SVG 1.1//EN"
 "http://www.w3.org/Graphics/SVG/1.1/DTD/svg11.dtd">
<!-- Generated by graphviz version 2.43.0 (0)
 -->
<!-- Title: src/exec_encoder.cpp Pages: 1 -->
<svg width="1076pt" height="577pt"
 viewBox="0.00 0.00 1076.00 577.00" xmlns="http://www.w3.org/2000/svg" xmlns:xlink="http://www.w3.org/1999/xlink">
<g id="graph0" class="graph" transform="scale(1 1) rotate(0) translate(4 573)">
<title>src/exec_encoder.cpp</title>
<!-- Node1 -->
<g id="Node000001" class="node">
<title>Node1</title>
<g id="a_Node000001"><a xlink:title=" ">
<polygon fill="#999999" stroke="#666666" points="750,-569 630,-569 630,-550 750,-550 750,-569"/>
<text text-anchor="middle" x="690" y="-557" font-family="Helvetica,sans-Serif" font-size="10.00">src/exec_encoder.cpp</text>
</a>
</g>
</g>
<!-- Node2 -->
<g id="Node000002" class="node">
<title>Node2</title>
<g id="a_Node000002"><a xlink:title=" ">
<polygon fill="#e0e0e0" stroke="#999999" points="346.5,-19 253.5,-19 253.5,0 346.5,0 346.5,-19"/>
<text text-anchor="middle" x="300" y="-7" font-family="Helvetica,sans-Serif" font-size="10.00">unordered_map</text>
</a>
</g>
</g>
<!-- Node1&#45;&gt;Node2 -->
<g id="edge1_Node000001_Node000002" class="edge">
<title>Node1&#45;&gt;Node2</title>
<g id="a_edge1_Node000001_Node000002"><a xlink:title=" ">
<path fill="none" stroke="#63b8ff" d="M629.59,-555.94C512.44,-550.55 258.47,-536.6 174,-514 109.56,-496.76 38,-517.21 38,-450.5 38,-450.5 38,-450.5 38,-118.5 38,-30.33 166.39,-12.68 243.41,-10.02"/>
<polygon fill="#63b8ff" stroke="#63b8ff" points="243.56,-13.52 253.46,-9.75 243.37,-6.52 243.56,-13.52"/>
</a>
</g>
</g>
<!-- Node3 -->
<g id="Node000003" class="node">
<title>Node3</title>
<g id="a_Node000003"><a xlink:title=" ">
<polygon fill="#e0e0e0" stroke="#999999" points="1040,-129 996,-129 996,-110 1040,-110 1040,-129"/>
<text text-anchor="middle" x="1018" y="-117" font-family="Helvetica,sans-Serif" font-size="10.00">string</text>
</a>
</g>
</g>
<!-- Node1&#45;&gt;Node3 -->
<g id="edge2_Node000001_Node000003" class="edge">
<title>Node1&#45;&gt;Node3</title>
<g id="a_edge2_Node000001_Node000003"><a xlink:title=" ">
<path fill="none" stroke="#63b8ff" d="M750.06,-553.99C821.96,-547.75 937.38,-534.84 975,-514 1007.66,-495.91 1030,-487.84 1030,-450.5 1030,-450.5 1030,-450.5 1030,-228.5 1030,-197 1024.89,-160.64 1021.34,-139.16"/>
<polygon fill="#63b8ff" stroke="#63b8ff" points="1024.76,-138.4 1019.62,-129.14 1017.87,-139.59 1024.76,-138.4"/>
</a>
</g>
</g>
<!-- Node4 -->
<g id="Node000004" class="node">
<title>Node4</title>
<g id="a_Node000004"><a xlink:title=" ">
<polygon fill="#e0e0e0" stroke="#999999" points="879.5,-19 832.5,-19 832.5,0 879.5,0 879.5,-19"/>
<text text-anchor="middle" x="856" y="-7" font-family="Helvetica,sans-Serif" font-size="10.00">vector</text>
</a>
</g>
</g>
<!-- Node1&#45;&gt;Node4 -->
<g id="edge3_Node000001_Node000004" class="edge">
<title>Node1&#45;&gt;Node4</title>
<g id="a_edge3_Node000001_Node000004"><a xlink:title=" ">
<path fill="none" stroke="#63b8ff" d="M750.33,-554.56C828.96,-548.65 961.55,-535.79 1005,-514 1040.54,-496.18 1068,-490.26 1068,-450.5 1068,-450.5 1068,-450.5 1068,-118.5 1068,-39.59 949.95,-18.31 890.03,-12.59"/>
<polygon fill="#63b8ff" stroke="#63b8ff" points="890.17,-9.09 879.91,-11.72 889.57,-16.06 890.17,-9.09"/>
</a>
</g>
</g>
<!-- Node5 -->
<g id="Node000005" class="node">
<title>Node5</title>
<g id="a_Node000005"><a xlink:title=" ">
<polygon fill="#e0e0e0" stroke="#999999" points="562,-514 530,-514 530,-495 562,-495 562,-514"/>
<text text-anchor="middle" x="546" y="-502" font-family="Helvetica,sans-Serif" font-size="10.00">set</text>
</a>
</g>
</g>
<!-- Node1&#45;&gt;Node5 -->
<g id="edge4_Node000001_Node000005" class="edge">
<title>Node1&#45;&gt;Node5</title>
<g id="a_edge4_Node000001_Node000005"><a xlink:title=" ">
<path fill="none" stroke="#63b8ff" d="M666.86,-549.98C640.92,-540.44 598.95,-524.99 571.92,-515.04"/>
<polygon fill="#63b8ff" stroke="#63b8ff" points="572.95,-511.69 562.36,-511.52 570.54,-518.26 572.95,-511.69"/>
</a>
</g>
</g>
<!-- Node6 -->
<g id="Node000006" class="node">
<title>Node6</title>
<g id="a_Node000006"><a xlink:title=" ">
<polygon fill="#e0e0e0" stroke="#999999" points="131,-19 71,-19 71,0 131,0 131,-19"/>
<text text-anchor="middle" x="101" y="-7" font-family="Helvetica,sans-Serif" font-size="10.00">iostream</text>
</a>
</g>
</g>
<!-- Node1&#45;&gt;Node6 -->
<g id="edge5_Node000001_Node000006" class="edge">
<title>Node1&#45;&gt;Node6</title>
<g id="a_edge5_Node000001_Node000006"><a xlink:title=" ">
<path fill="none" stroke="#63b8ff" d="M629.76,-556.7C482.32,-551.93 111.65,-537.73 61,-514 25.56,-497.4 0,-489.63 0,-450.5 0,-450.5 0,-450.5 0,-118.5 0,-74.76 44.74,-41.41 74.66,-23.99"/>
<polygon fill="#63b8ff" stroke="#63b8ff" points="76.39,-27.03 83.41,-19.1 72.97,-20.92 76.39,-27.03"/>
</a>
</g>
</g>
<!-- Node7 -->
<g id="Node000007" class="node">
<title>Node7</title>
<g id="a_Node000007"><a xlink:title=" ">
<polygon fill="#e0e0e0" stroke="#999999" points="686,-514 618,-514 618,-495 686,-495 686,-514"/>
<text text-anchor="middle" x="652" y="-502" font-family="Helvetica,sans-Serif" font-size="10.00">filesystem</text>
</a>
</g>
</g>
<!-- Node1&#45;&gt;Node7 -->
<g id="edge6_Node000001_Node000007" class="edge">
<title>Node1&#45;&gt;Node7</title>
<g id="a_edge6_Node000001_Node000007"><a xlink:title=" ">
<path fill="none" stroke="#63b8ff" d="M683.73,-549.75C678.41,-542.34 670.64,-531.5 664.12,-522.41"/>
<polygon fill="#63b8ff" stroke="#63b8ff" points="666.83,-520.18 658.16,-514.09 661.14,-524.26 666.83,-520.18"/>
</a>
</g>
</g>
<!-- Node8 -->
<g id="Node000008" class="node">
<title>Node8</title>
<g id="a_Node000008"><a xlink:title=" ">
<polygon fill="#e0e0e0" stroke="#999999" points="754,-514 704,-514 704,-495 754,-495 754,-514"/>
<text text-anchor="middle" x="729" y="-502" font-family="Helvetica,sans-Serif" font-size="10.00">chrono</text>
</a>
</g>
</g>
<!-- Node1&#45;&gt;Node8 -->
<g id="edge7_Node000001_Node000008" class="edge">
<title>Node1&#45;&gt;Node8</title>
<g id="a_edge7_Node000001_Node000008"><a xlink:title=" ">
<path fill="none" stroke="#63b8ff" d="M696.44,-549.75C701.89,-542.34 709.86,-531.5 716.56,-522.41"/>
<polygon fill="#63b8ff" stroke="#63b8ff" points="719.57,-524.22 722.68,-514.09 713.93,-520.07 719.57,-524.22"/>
</a>
</g>
</g>
<!-- Node9 -->
<g id="Node000009" class="node">
<title>Node9</title>
<g id="a_Node000009"><a xlink:title=" ">
<polygon fill="#e0e0e0" stroke="#999999" points="828,-514 772,-514 772,-495 828,-495 828,-514"/>
<text text-anchor="middle" x="800" y="-502" font-family="Helvetica,sans-Serif" font-size="10.00">sstream</text>
</a>
</g>
</g>
<!-- Node1&#45;&gt;Node9 -->
<g id="edge8_Node000001_Node000009" class="edge">
<title>Node1&#45;&gt;Node9</title>
<g id="a_edge8_Node000001_Node000009"><a xlink:title=" ">
<path fill="none" stroke="#63b8ff" d="M707.67,-549.98C725.29,-541.5 752.58,-528.35 772.93,-518.54"/>
<polygon fill="#63b8ff" stroke="#63b8ff" points="774.52,-521.66 782.01,-514.17 771.48,-515.36 774.52,-521.66"/>
</a>
</g>
</g>
<!-- Node10 -->
<g id="Node000010" class="node">
<title>Node10</title>
<g id="a_Node000010"><a xlink:href="CCSDSManager_8h.html" target="_top" xlink:title=" ">
<polygon fill="white" stroke="#666666" points="657.5,-459 556.5,-459 556.5,-440 657.5,-440 657.5,-459"/>
<text text-anchor="middle" x="607" y="-447" font-family="Helvetica,sans-Serif" font-size="10.00">CCSDSManager.h</text>
</a>
</g>
</g>
<!-- Node1&#45;&gt;Node10 -->
<g id="edge9_Node000001_Node000010" class="edge">
<title>Node1&#45;&gt;Node10</title>
<g id="a_edge9_Node000001_Node000010"><a xlink:title=" ">
<path fill="none" stroke="#63b8ff" d="M658.78,-549.85C640.94,-543.15 619.99,-531.92 609,-514 600.8,-500.63 601.09,-482.52 602.97,-469.06"/>
<polygon fill="#63b8ff" stroke="#63b8ff" points="606.45,-469.52 604.77,-459.06 599.56,-468.28 606.45,-469.52"/>
</a>
</g>
</g>
<!-- Node13 -->
<g id="Node000013" class="node">
<title>Node13</title>
<g id="a_Node000013"><a xlink:href="CCSDSResult_8h.html" target="_top" xlink:title=" ">
<polygon fill="white" stroke="#666666" points="429.5,-74 340.5,-74 340.5,-55 429.5,-55 429.5,-74"/>
<text text-anchor="middle" x="385" y="-62" font-family="Helvetica,sans-Serif" font-size="10.00">CCSDSResult.h</text>
</a>
</g>
</g>
<!-- Node1&#45;&gt;Node13 -->
<g id="edge47_Node000001_Node000013" class="edge">
<title>Node1&#45;&gt;Node13</title>
<g id="a_edge47_Node000001_Node000013"><a xlink:title=" ">
<path fill="none" stroke="#63b8ff" d="M629.73,-554.19C475.03,-542.34 76,-506.34 76,-450.5 76,-450.5 76,-450.5 76,-173.5 76,-136.16 98.51,-128.4 131,-110 164.28,-91.16 266.28,-77.64 330.45,-70.74"/>
<polygon fill="#63b8ff" stroke="#63b8ff" points="330.83,-74.22 340.4,-69.69 330.09,-67.26 330.83,-74.22"/>
</a>
</g>
</g>
<!-- Node16 -->
<g id="Node000016" class="node">
<title>Node16</title>
<g id="a_Node000016"><a xlink:href="CCSDSHeader_8h.html" target="_top" xlink:title=" ">
<polygon fill="white" stroke="#666666" points="825.5,-129 732.5,-129 732.5,-110 825.5,-110 825.5,-129"/>
<text text-anchor="middle" x="779" y="-117" font-family="Helvetica,sans-Serif" font-size="10.00">CCSDSHeader.h</text>
</a>
</g>
</g>
<!-- Node1&#45;&gt;Node16 -->
<g id="edge46_Node000001_Node000016" class="edge">
<title>Node1&#45;&gt;Node16</title>
<g id="a_edge46_Node000001_Node000016"><a xlink:title=" ">
<path fill="none" stroke="#63b8ff" d="M750.15,-553.56C779.85,-548.13 814.13,-536.95 837,-514 857.8,-493.14 856,-479.96 856,-450.5 856,-450.5 856,-450.5 856,-283.5 856,-225.04 815.01,-165.11 792.84,-136.98"/>
<polygon fill="#63b8ff" stroke="#63b8ff" points="795.4,-134.58 786.38,-129.01 789.96,-138.98 795.4,-134.58"/>
</a>
</g>
</g>
<!-- Node24 -->
<g id="Node000024" class="node">
<title>Node24</title>
<g id="a_Node000024"><a xlink:href="CCSDSUtils_8h.html" target="_top" xlink:title=" ">
<polygon fill="white" stroke="#666666" points="965.5,-514 884.5,-514 884.5,-495 965.5,-495 965.5,-514"/>
<text text-anchor="middle" x="925" y="-502" font-family="Helvetica,sans-Serif" font-size="10.00">CCSDSUtils.h</text>
</a>
</g>
</g>
<!-- Node1&#45;&gt;Node24 -->
<g id="edge48_Node000001_Node000024" class="edge">
<title>Node1&#45;&gt;Node24</title>
<g id="a_edge48_Node000001_Node000024"><a xlink:title=" ">
<path fill="none" stroke="#63b8ff" d="M727.76,-549.98C768.32,-540.84 832.89,-526.27 877.03,-516.32"/>
<polygon fill="#63b8ff" stroke="#63b8ff" points="877.96,-519.7 886.95,-514.08 876.42,-512.87 877.96,-519.7"/>
</a>
</g>
</g>
<!-- Node11 -->
<g id="Node000011" class="node">
<title>Node11</title>
<g id="a_Node000011"><a xlink:title=" ">
<polygon fill="#e0e0e0" stroke="#999999" points="556.5,-404 511.5,-404 511.5,-385 556.5,-385 556.5,-404"/>
<text text-anchor="middle" x="534" y="-392" font-family="Helvetica,sans-Serif" font-size="10.00">utility</text>
</a>
</g>
</g>
<!-- Node10&#45;&gt;Node11 -->
<g id="edge10_Node000010_Node000011" class="edge">
<title>Node10&#45;&gt;Node11</title>
<g id="a_edge10_Node000010_Node000011"><a xlink:title=" ">
<path fill="none" stroke="#63b8ff" d="M595.27,-439.98C584.27,-432 567.58,-419.88 554.4,-410.31"/>
<polygon fill="#63b8ff" stroke="#63b8ff" points="556.09,-407.21 545.94,-404.17 551.98,-412.88 556.09,-407.21"/>
</a>
</g>
</g>
<!-- Node12 -->
<g id="Node000012" class="node">
<title>Node12</title>
<g id="a_Node000012"><a xlink:href="CCSDSPacket_8h.html" target="_top" xlink:title=" ">
<polygon fill="white" stroke="#666666" points="749,-349 659,-349 659,-330 749,-330 749,-349"/>
<text text-anchor="middle" x="704" y="-337" font-family="Helvetica,sans-Serif" font-size="10.00">CCSDSPacket.h</text>
</a>
</g>
</g>
<!-- Node10&#45;&gt;Node12 -->
<g id="edge11_Node000010_Node000012" class="edge">
<title>Node10&#45;&gt;Node12</title>
<g id="a_edge11_Node000010_Node000012"><a xlink:title=" ">
<path fill="none" stroke="#63b8ff" d="M632.17,-439.89C649.37,-432.79 671.42,-421.09 685,-404 695.18,-391.19 699.91,-373.02 702.11,-359.4"/>
<polygon fill="#63b8ff" stroke="#63b8ff" points="705.61,-359.61 703.42,-349.24 698.67,-358.71 705.61,-359.61"/>
</a>
</g>
</g>
<!-- Node10&#45;&gt;Node13 -->
<g id="edge43_Node000010_Node000013" class="edge">
<title>Node10&#45;&gt;Node13</title>
<g id="a_edge43_Node000010_Node000013"><a xlink:title=" ">
<path fill="none" stroke="#63b8ff" d="M556.1,-448.04C430.14,-445.54 114,-430.31 114,-340.5 114,-340.5 114,-340.5 114,-173.5 114,-137.85 132.72,-128.81 163,-110 213.87,-78.41 282.8,-68.66 330.29,-65.94"/>
<polygon fill="#63b8ff" stroke="#63b8ff" points="330.56,-69.43 340.38,-65.45 330.22,-62.44 330.56,-69.43"/>
</a>
</g>
</g>
<!-- Node23 -->
<g id="Node000023" class="node">
<title>Node23</title>
<g id="a_Node000023"><a xlink:href="CCSDSValidator_8h.html" target="_top" xlink:title="Defines the Validator class for CCSDS packet validation.">
<polygon fill="white" stroke="#666666" points="675.5,-404 574.5,-404 574.5,-385 675.5,-385 675.5,-404"/>
<text text-anchor="middle" x="625" y="-392" font-family="Helvetica,sans-Serif" font-size="10.00">CCSDSValidator.h</text>
</a>
</g>
</g>
<!-- Node10&#45;&gt;Node23 -->
<g id="edge44_Node000010_Node000023" class="edge">
<title>Node10&#45;&gt;Node23</title>
<g id="a_edge44_Node000010_Node000023"><a xlink:title=" ">
<path fill="none" stroke="#63b8ff" d="M609.97,-439.75C612.36,-432.72 615.79,-422.62 618.77,-413.84"/>
<polygon fill="#63b8ff" stroke="#63b8ff" points="622.18,-414.68 622.08,-404.09 615.55,-412.43 622.18,-414.68"/>
</a>
</g>
</g>
<!-- Node12&#45;&gt;Node4 -->
<g id="edge19_Node000012_Node000004" class="edge">
<title>Node12&#45;&gt;Node4</title>
<g id="a_edge19_Node000012_Node000004"><a xlink:title=" ">
<path fill="none" stroke="#63b8ff" d="M712.1,-329.62C736.89,-302 812.58,-214.31 854,-129 868.7,-98.73 875.11,-88.26 870,-55 868.65,-46.19 865.87,-36.74 863.15,-28.82"/>
<polygon fill="#63b8ff" stroke="#63b8ff" points="866.34,-27.35 859.6,-19.18 859.77,-29.77 866.34,-27.35"/>
</a>
</g>
</g>
<!-- Node12&#45;&gt;Node13 -->
<g id="edge12_Node000012_Node000013" class="edge">
<title>Node12&#45;&gt;Node13</title>
<g id="a_edge12_Node000012_Node000013"><a xlink:title=" ">
<path fill="none" stroke="#63b8ff" d="M658.83,-339.21C526.99,-340.09 152,-333.52 152,-230.5 152,-230.5 152,-230.5 152,-173.5 152,-95.36 261.2,-73.59 330.08,-67.63"/>
<polygon fill="#63b8ff" stroke="#63b8ff" points="330.65,-71.1 340.35,-66.84 330.11,-64.12 330.65,-71.1"/>
</a>
</g>
</g>
<!-- Node15 -->
<g id="Node000015" class="node">
<title>Node15</title>
<g id="a_Node000015"><a xlink:title=" ">
<polygon fill="#e0e0e0" stroke="#999999" points="691,-19 641,-19 641,0 691,0 691,-19"/>
<text text-anchor="middle" x="666" y="-7" font-family="Helvetica,sans-Serif" font-size="10.00">cstdint</text>
</a>
</g>
</g>
<!-- Node12&#45;&gt;Node15 -->
<g id="edge18_Node000012_Node000015" class="edge">
<title>Node12&#45;&gt;Node15</title>
<g id="a_edge18_Node000012_Node000015"><a xlink:title=" ">
<path fill="none" stroke="#63b8ff" d="M704,-329.82C704,-311.48 704,-267.44 704,-230.5 704,-230.5 704,-230.5 704,-118.5 704,-85.02 687.55,-48.84 676.3,-28.01"/>
<polygon fill="#63b8ff" stroke="#63b8ff" points="679.24,-26.1 671.28,-19.1 673.13,-29.53 679.24,-26.1"/>
</a>
</g>
</g>
<!-- Node12&#45;&gt;Node16 -->
<g id="edge20_Node000012_Node000016" class="edge">
<title>Node12&#45;&gt;Node16</title>
<g id="a_edge20_Node000012_Node000016"><a xlink:title=" ">
<path fill="none" stroke="#63b8ff" d="M706.94,-329.95C718,-297.81 757.25,-183.72 772.69,-138.83"/>
<polygon fill="#63b8ff" stroke="#63b8ff" points="776.06,-139.82 776,-129.22 769.44,-137.54 776.06,-139.82"/>
</a>
</g>
</g>
<!-- Node17 -->
<g id="Node000017" class="node">
<title>Node17</title>
<g id="a_Node000017"><a xlink:href="CCSDSDataField_8h.html" target="_top" xlink:title=" ">
<polygon fill="white" stroke="#666666" points="569.5,-294 464.5,-294 464.5,-275 569.5,-275 569.5,-294"/>
<text text-anchor="middle" x="517" y="-282" font-family="Helvetica,sans-Serif" font-size="10.00">CCSDSDataField.h</text>
</a>
</g>
</g>
<!-- Node12&#45;&gt;Node17 -->
<g id="edge24_Node000012_Node000017" class="edge">
<title>Node12&#45;&gt;Node17</title>
<g id="a_edge24_Node000012_Node000017"><a xlink:title=" ">
<path fill="none" stroke="#63b8ff" d="M673.96,-329.98C642.29,-321.01 592.23,-306.82 557.19,-296.89"/>
<polygon fill="#63b8ff" stroke="#63b8ff" points="557.86,-293.44 547.28,-294.08 555.95,-300.18 557.86,-293.44"/>
</a>
</g>
</g>
<!-- Node13&#45;&gt;Node2 -->
<g id="edge13_Node000013_Node000002" class="edge">
<title>Node13&#45;&gt;Node2</title>
<g id="a_edge13_Node000013_Node000002"><a xlink:title=" ">
<path fill="none" stroke="#63b8ff" d="M371.34,-54.98C358.16,-46.77 337.97,-34.18 322.43,-24.49"/>
<polygon fill="#63b8ff" stroke="#63b8ff" points="324.24,-21.49 313.91,-19.17 320.54,-27.43 324.24,-21.49"/>
</a>
</g>
</g>
<!-- Node13&#45;&gt;Node4 -->
<g id="edge15_Node000013_Node000004" class="edge">
<title>Node13&#45;&gt;Node4</title>
<g id="a_edge15_Node000013_Node000004"><a xlink:title=" ">
<path fill="none" stroke="#63b8ff" d="M429.74,-58.47C523.54,-47.91 739.03,-23.66 822.3,-14.29"/>
<polygon fill="#63b8ff" stroke="#63b8ff" points="822.69,-17.77 832.24,-13.17 821.91,-10.81 822.69,-17.77"/>
</a>
</g>
</g>
<!-- Node13&#45;&gt;Node6 -->
<g id="edge17_Node000013_Node000006" class="edge">
<title>Node13&#45;&gt;Node6</title>
<g id="a_edge17_Node000013_Node000006"><a xlink:title=" ">
<path fill="none" stroke="#63b8ff" d="M340.31,-55.16C285.54,-44.94 193.56,-27.77 141.01,-17.97"/>
<polygon fill="#63b8ff" stroke="#63b8ff" points="141.52,-14.5 131.05,-16.11 140.24,-21.38 141.52,-14.5"/>
</a>
</g>
</g>
<!-- Node14 -->
<g id="Node000014" class="node">
<title>Node14</title>
<g id="a_Node000014"><a xlink:title=" ">
<polygon fill="#e0e0e0" stroke="#999999" points="415.5,-19 364.5,-19 364.5,0 415.5,0 415.5,-19"/>
<text text-anchor="middle" x="390" y="-7" font-family="Helvetica,sans-Serif" font-size="10.00">variant</text>
</a>
</g>
</g>
<!-- Node13&#45;&gt;Node14 -->
<g id="edge14_Node000013_Node000014" class="edge">
<title>Node13&#45;&gt;Node14</title>
<g id="a_edge14_Node000013_Node000014"><a xlink:title=" ">
<path fill="none" stroke="#63b8ff" d="M385.83,-54.75C386.48,-47.8 387.42,-37.85 388.24,-29.13"/>
<polygon fill="#63b8ff" stroke="#63b8ff" points="391.73,-29.37 389.19,-19.09 384.77,-28.72 391.73,-29.37"/>
</a>
</g>
</g>
<!-- Node13&#45;&gt;Node15 -->
<g id="edge16_Node000013_Node000015" class="edge">
<title>Node13&#45;&gt;Node15</title>
<g id="a_edge16_Node000013_Node000015"><a xlink:title=" ">
<path fill="none" stroke="#63b8ff" d="M429.53,-55.1C485.41,-44.56 580.1,-26.7 631.06,-17.09"/>
<polygon fill="#63b8ff" stroke="#63b8ff" points="631.76,-20.52 640.94,-15.23 630.46,-13.64 631.76,-20.52"/>
</a>
</g>
</g>
<!-- Node16&#45;&gt;Node4 -->
<g id="edge23_Node000016_Node000004" class="edge">
<title>Node16&#45;&gt;Node4</title>
<g id="a_edge23_Node000016_Node000004"><a xlink:title=" ">
<path fill="none" stroke="#63b8ff" d="M785.3,-109.66C798.11,-91.69 827.38,-50.64 843.96,-27.38"/>
<polygon fill="#63b8ff" stroke="#63b8ff" points="846.87,-29.33 849.83,-19.16 841.17,-25.27 846.87,-29.33"/>
</a>
</g>
</g>
<!-- Node16&#45;&gt;Node13 -->
<g id="edge21_Node000016_Node000013" class="edge">
<title>Node16&#45;&gt;Node13</title>
<g id="a_edge21_Node000016_Node000013"><a xlink:title=" ">
<path fill="none" stroke="#63b8ff" d="M732.26,-112.21C659,-102.36 517.51,-83.32 439.65,-72.85"/>
<polygon fill="#63b8ff" stroke="#63b8ff" points="439.94,-69.36 429.56,-71.49 439.01,-76.3 439.94,-69.36"/>
</a>
</g>
</g>
<!-- Node16&#45;&gt;Node15 -->
<g id="edge22_Node000016_Node000015" class="edge">
<title>Node16&#45;&gt;Node15</title>
<g id="a_edge22_Node000016_Node000015"><a xlink:title=" ">
<path fill="none" stroke="#63b8ff" d="M770.97,-109.61C759.55,-97.08 737.79,-73.68 718,-55 707.2,-44.8 694.55,-33.96 684.43,-25.52"/>
<polygon fill="#63b8ff" stroke="#63b8ff" points="686.56,-22.74 676.62,-19.07 682.1,-28.14 686.56,-22.74"/>
</a>
</g>
</g>
<!-- Node17&#45;&gt;Node4 -->
<g id="edge27_Node000017_Node000004" class="edge">
<title>Node17&#45;&gt;Node4</title>
<g id="a_edge27_Node000017_Node000004"><a xlink:title=" ">
<path fill="none" stroke="#63b8ff" d="M562.73,-274.97C633.16,-259.28 767.11,-218.87 835,-129 857.17,-99.65 858.78,-54.63 857.62,-29.37"/>
<polygon fill="#63b8ff" stroke="#63b8ff" points="861.11,-29.03 856.96,-19.28 854.12,-29.49 861.11,-29.03"/>
</a>
</g>
</g>
<!-- Node17&#45;&gt;Node13 -->
<g id="edge25_Node000017_Node000013" class="edge">
<title>Node17&#45;&gt;Node13</title>
<g id="a_edge25_Node000017_Node000013"><a xlink:title=" ">
<path fill="none" stroke="#63b8ff" d="M464.23,-281.48C418.1,-277.74 350.62,-267.38 299,-239 243.65,-208.57 227.43,-189.42 209,-129 206.54,-120.92 203.81,-116.66 209,-110 223.85,-90.93 284.1,-78.73 330.01,-72.02"/>
<polygon fill="#63b8ff" stroke="#63b8ff" points="330.73,-75.45 340.15,-70.59 329.76,-68.52 330.73,-75.45"/>
</a>
</g>
</g>
<!-- Node17&#45;&gt;Node15 -->
<g id="edge26_Node000017_Node000015" class="edge">
<title>Node17&#45;&gt;Node15</title>
<g id="a_edge26_Node000017_Node000015"><a xlink:title=" ">
<path fill="none" stroke="#63b8ff" d="M527.72,-274.73C553.39,-253.05 618.43,-193.98 648,-129 662.89,-96.28 665.88,-53.77 666.25,-29.57"/>
<polygon fill="#63b8ff" stroke="#63b8ff" points="669.75,-29.29 666.26,-19.29 662.75,-29.28 669.75,-29.29"/>
</a>
</g>
</g>
<!-- Node18 -->
<g id="Node000018" class="node">
<title>Node18</title>
<g id="a_Node000018"><a xlink:title=" ">
<polygon fill="#e0e0e0" stroke="#999999" points="276,-129 218,-129 218,-110 276,-110 276,-129"/>
<text text-anchor="middle" x="247" y="-117" font-family="Helvetica,sans-Serif" font-size="10.00">memory</text>
</a>
</g>
</g>
<!-- Node17&#45;&gt;Node18 -->
<g id="edge28_Node000017_Node000018" class="edge">
<title>Node17&#45;&gt;Node18</title>
<g id="a_edge28_Node000017_Node000018"><a xlink:title=" ">
<path fill="none" stroke="#63b8ff" d="M464.35,-277.98C405.46,-268.89 311.58,-245.18 260,-184 249.69,-171.77 246.82,-153.53 246.31,-139.74"/>
<polygon fill="#63b8ff" stroke="#63b8ff" points="249.81,-139.43 246.32,-129.42 242.81,-139.42 249.81,-139.43"/>
</a>
</g>
</g>
<!-- Node19 -->
<g id="Node000019" class="node">
<title>Node19</title>
<g id="a_Node000019"><a xlink:href="CCSDSSecondaryHeaderAbstract_8h.html" target="_top" xlink:title=" ">
<polygon fill="white" stroke="#666666" points="638.5,-129 453.5,-129 453.5,-110 638.5,-110 638.5,-129"/>
<text text-anchor="middle" x="546" y="-117" font-family="Helvetica,sans-Serif" font-size="10.00">CCSDSSecondaryHeaderAbstract.h</text>
</a>
</g>
</g>
<!-- Node17&#45;&gt;Node19 -->
<g id="edge29_Node000017_Node000019" class="edge">
<title>Node17&#45;&gt;Node19</title>
<g id="a_edge29_Node000017_Node000019"><a xlink:title=" ">
<path fill="none" stroke="#63b8ff" d="M519.98,-274.73C522.92,-265.83 527.33,-251.6 530,-239 537.41,-204.1 542.08,-162.65 544.35,-139.17"/>
<polygon fill="#63b8ff" stroke="#63b8ff" points="547.84,-139.48 545.28,-129.2 540.87,-138.83 547.84,-139.48"/>
</a>
</g>
</g>
<!-- Node20 -->
<g id="Node000020" class="node">
<title>Node20</title>
<g id="a_Node000020"><a xlink:href="CCSDSSecondaryHeaderFactory_8h.html" target="_top" xlink:title=" ">
<polygon fill="white" stroke="#666666" points="447.5,-184 268.5,-184 268.5,-165 447.5,-165 447.5,-184"/>
<text text-anchor="middle" x="358" y="-172" font-family="Helvetica,sans-Serif" font-size="10.00">CCSDSSecondaryHeaderFactory.h</text>
</a>
</g>
</g>
<!-- Node17&#45;&gt;Node20 -->
<g id="edge33_Node000017_Node000020" class="edge">
<title>Node17&#45;&gt;Node20</title>
<g id="a_edge33_Node000017_Node000020"><a xlink:title=" ">
<path fill="none" stroke="#63b8ff" d="M495.96,-274.94C477.34,-266.91 449.81,-253.93 428,-239 407.4,-224.9 386.56,-205.13 373.04,-191.41"/>
<polygon fill="#63b8ff" stroke="#63b8ff" points="375.46,-188.87 365.99,-184.12 370.43,-193.74 375.46,-188.87"/>
</a>
</g>
</g>
<!-- Node22 -->
<g id="Node000022" class="node">
<title>Node22</title>
<g id="a_Node000022"><a xlink:href="PusServices_8h.html" target="_top" xlink:title=" ">
<polygon fill="white" stroke="#666666" points="521,-239 437,-239 437,-220 521,-220 521,-239"/>
<text text-anchor="middle" x="479" y="-227" font-family="Helvetica,sans-Serif" font-size="10.00">PusServices.h</text>
</a>
</g>
</g>
<!-- Node17&#45;&gt;Node22 -->
<g id="edge39_Node000017_Node000022" class="edge">
<title>Node17&#45;&gt;Node22</title>
<g id="a_edge39_Node000017_Node000022"><a xlink:title=" ">
<path fill="none" stroke="#63b8ff" d="M510.73,-274.75C505.41,-267.34 497.64,-256.5 491.12,-247.41"/>
<polygon fill="#63b8ff" stroke="#63b8ff" points="493.83,-245.18 485.16,-239.09 488.14,-249.26 493.83,-245.18"/>
</a>
</g>
</g>
<!-- Node19&#45;&gt;Node4 -->
<g id="edge31_Node000019_Node000004" class="edge">
<title>Node19&#45;&gt;Node4</title>
<g id="a_edge31_Node000019_Node000004"><a xlink:title=" ">
<path fill="none" stroke="#63b8ff" d="M570.58,-109.94C625.8,-90.7 759.69,-44.05 822.47,-22.18"/>
<polygon fill="#63b8ff" stroke="#63b8ff" points="823.97,-25.36 832.27,-18.77 821.67,-18.75 823.97,-25.36"/>
</a>
</g>
</g>
<!-- Node19&#45;&gt;Node13 -->
<g id="edge30_Node000019_Node000013" class="edge">
<title>Node19&#45;&gt;Node13</title>
<g id="a_edge30_Node000019_Node000013"><a xlink:title=" ">
<path fill="none" stroke="#63b8ff" d="M520.13,-109.98C493.22,-101.13 450.88,-87.19 420.77,-77.28"/>
<polygon fill="#63b8ff" stroke="#63b8ff" points="421.66,-73.88 411.07,-74.08 419.47,-80.53 421.66,-73.88"/>
</a>
</g>
</g>
<!-- Node19&#45;&gt;Node15 -->
<g id="edge32_Node000019_Node000015" class="edge">
<title>Node19&#45;&gt;Node15</title>
<g id="a_edge32_Node000019_Node000015"><a xlink:title=" ">
<path fill="none" stroke="#63b8ff" d="M555.12,-109.74C568.06,-97.38 592.57,-74.16 614,-55 625.07,-45.1 637.73,-34.26 647.78,-25.76"/>
<polygon fill="#63b8ff" stroke="#63b8ff" points="650.13,-28.35 655.53,-19.23 645.62,-23 650.13,-28.35"/>
</a>
</g>
</g>
<!-- Node20&#45;&gt;Node2 -->
<g id="edge35_Node000020_Node000002" class="edge">
<title>Node20&#45;&gt;Node2</title>
<g id="a_edge35_Node000020_Node000002"><a xlink:title=" ">
<path fill="none" stroke="#63b8ff" d="M349.36,-164.76C341.52,-156.31 330.27,-142.81 324,-129 309.01,-95.98 303.32,-53.57 301.21,-29.48"/>
<polygon fill="#63b8ff" stroke="#63b8ff" points="304.68,-28.95 300.43,-19.24 297.7,-29.48 304.68,-28.95"/>
</a>
</g>
</g>
<!-- Node20&#45;&gt;Node3 -->
<g id="edge37_Node000020_Node000003" class="edge">
<title>Node20&#45;&gt;Node3</title>
<g id="a_edge37_Node000020_Node000003"><a xlink:title=" ">
<path fill="none" stroke="#63b8ff" d="M447.7,-166.3C596.83,-154.32 888.98,-130.86 985.9,-123.08"/>
<polygon fill="#63b8ff" stroke="#63b8ff" points="986.27,-126.56 995.96,-122.27 985.71,-119.58 986.27,-126.56"/>
</a>
</g>
</g>
<!-- Node20&#45;&gt;Node18 -->
<g id="edge34_Node000020_Node000018" class="edge">
<title>Node20&#45;&gt;Node18</title>
<g id="a_edge34_Node000020_Node000018"><a xlink:title=" ">
<path fill="none" stroke="#63b8ff" d="M340.17,-164.98C322.39,-156.5 294.85,-143.35 274.32,-133.54"/>
<polygon fill="#63b8ff" stroke="#63b8ff" points="275.69,-130.32 265.16,-129.17 272.67,-136.64 275.69,-130.32"/>
</a>
</g>
</g>
<!-- Node20&#45;&gt;Node19 -->
<g id="edge38_Node000020_Node000019" class="edge">
<title>Node20&#45;&gt;Node19</title>
<g id="a_edge38_Node000020_Node000019"><a xlink:title=" ">
<path fill="none" stroke="#63b8ff" d="M388.21,-164.98C420.04,-156.01 470.36,-141.82 505.6,-131.89"/>
<polygon fill="#63b8ff" stroke="#63b8ff" points="506.88,-135.16 515.56,-129.08 504.98,-128.43 506.88,-135.16"/>
</a>
</g>
</g>
<!-- Node21 -->
<g id="Node000021" class="node">
<title>Node21</title>
<g id="a_Node000021"><a xlink:title=" ">
<polygon fill="#e0e0e0" stroke="#999999" points="397.5,-129 332.5,-129 332.5,-110 397.5,-110 397.5,-129"/>
<text text-anchor="middle" x="365" y="-117" font-family="Helvetica,sans-Serif" font-size="10.00">functional</text>
</a>
</g>
</g>
<!-- Node20&#45;&gt;Node21 -->
<g id="edge36_Node000020_Node000021" class="edge">
<title>Node20&#45;&gt;Node21</title>
<g id="a_edge36_Node000020_Node000021"><a xlink:title=" ">
<path fill="none" stroke="#63b8ff" d="M359.16,-164.75C360.07,-157.8 361.39,-147.85 362.54,-139.13"/>
<polygon fill="#63b8ff" stroke="#63b8ff" points="366.03,-139.46 363.87,-129.09 359.09,-138.54 366.03,-139.46"/>
</a>
</g>
</g>
<!-- Node22&#45;&gt;Node13 -->
<g id="edge42_Node000022_Node000013" class="edge">
<title>Node22&#45;&gt;Node13</title>
<g id="a_edge42_Node000022_Node000013"><a xlink:title=" ">
<path fill="none" stroke="#63b8ff" d="M476.9,-219.96C473.63,-207.45 466.7,-183.63 457,-165 440.61,-133.51 415.08,-100.89 399.24,-81.93"/>
<polygon fill="#63b8ff" stroke="#63b8ff" points="401.84,-79.6 392.71,-74.24 396.51,-84.13 401.84,-79.6"/>
</a>
</g>
</g>
<!-- Node22&#45;&gt;Node19 -->
<g id="edge40_Node000022_Node000019" class="edge">
<title>Node22&#45;&gt;Node19</title>
<g id="a_edge40_Node000022_Node000019"><a xlink:title=" ">
<path fill="none" stroke="#63b8ff" d="M484.48,-219.66C495.58,-201.77 520.87,-161 535.33,-137.69"/>
<polygon fill="#63b8ff" stroke="#63b8ff" points="538.33,-139.5 540.63,-129.16 532.38,-135.81 538.33,-139.5"/>
</a>
</g>
</g>
<!-- Node22&#45;&gt;Node20 -->
<g id="edge41_Node000022_Node000020" class="edge">
<title>Node22&#45;&gt;Node20</title>
<g id="a_edge41_Node000022_Node000020"><a xlink:title=" ">
<path fill="none" stroke="#63b8ff" d="M459.56,-219.98C440.01,-211.42 409.62,-198.11 387.18,-188.28"/>
<polygon fill="#63b8ff" stroke="#63b8ff" points="388.36,-184.98 377.79,-184.17 385.55,-191.39 388.36,-184.98"/>
</a>
</g>
</g>
<!-- Node23&#45;&gt;Node12 -->
<g id="edge45_Node000023_Node000012" class="edge">
<title>Node23&#45;&gt;Node12</title>
<g id="a_edge45_Node000023_Node000012"><a xlink:title=" ">
<path fill="none" stroke="#63b8ff" d="M637.69,-384.98C649.83,-376.84 668.36,-364.41 682.75,-354.76"/>
<polygon fill="#63b8ff" stroke="#63b8ff" points="684.72,-357.65 691.08,-349.17 680.82,-351.84 684.72,-357.65"/>
</a>
</g>
</g>
<!-- Node24&#45;&gt;Node3 -->
<g id="edge51_Node000024_Node000003" class="edge">
<title>Node24&#45;&gt;Node3</title>
<g id="a_edge51_Node000024_Node000003"><a xlink:title=" ">
<path fill="none" stroke="#63b8ff" d="M935.45,-494.91C945.02,-486.58 959.03,-473.16 968,-459 984.15,-433.52 992,-425.67 992,-395.5 992,-395.5 992,-395.5 992,-228.5 992,-196.15 1003.17,-159.82 1010.86,-138.62"/>
<polygon fill="#63b8ff" stroke="#63b8ff" points="1014.23,-139.6 1014.49,-129.01 1007.68,-137.13 1014.23,-139.6"/>
</a>
</g>
</g>
<!-- Node24&#45;&gt;Node4 -->
<g id="edge53_Node000024_Node000004" class="edge">
<title>Node24&#45;&gt;Node4</title>
<g id="a_edge53_Node000024_Node000004"><a xlink:title=" ">
<path fill="none" stroke="#63b8ff" d="M929.03,-494.75C937,-476.64 954,-433.55 954,-395.5 954,-395.5 954,-395.5 954,-228.5 954,-146.98 896.29,-62.2 869.44,-27.17"/>
<polygon fill="#63b8ff" stroke="#63b8ff" points="871.97,-24.72 863.05,-19.01 866.46,-29.04 871.97,-24.72"/>
</a>
</g>
</g>
<!-- Node24&#45;&gt;Node10 -->
<g id="edge50_Node000024_Node000010" class="edge">
<title>Node24&#45;&gt;Node10</title>
<g id="a_edge50_Node000024_Node000010"><a xlink:title=" ">
<path fill="none" stroke="#63b8ff" d="M884.4,-496.73C829.49,-487.58 731.11,-471.18 667.48,-460.58"/>
<polygon fill="#63b8ff" stroke="#63b8ff" points="668.01,-457.12 657.57,-458.93 666.86,-464.03 668.01,-457.12"/>
</a>
</g>
</g>
<!-- Node24&#45;&gt;Node12 -->
<g id="edge49_Node000024_Node000012" class="edge">
<title>Node24&#45;&gt;Node12</title>
<g id="a_edge49_Node000024_Node000012"><a xlink:title=" ">
<path fill="none" stroke="#63b8ff" d="M913.43,-494.97C877.71,-468.62 768.88,-388.35 723.84,-355.13"/>
<polygon fill="#63b8ff" stroke="#63b8ff" points="725.85,-352.27 715.72,-349.15 721.69,-357.9 725.85,-352.27"/>
</a>
</g>
</g>
<!-- Node24&#45;&gt;Node15 -->
<g id="edge52_Node000024_Node000015" class="edge">
<title>Node24&#45;&gt;Node15</title>
<g id="a_edge52_Node000024_Node000015"><a xlink:title=" ">
<path fill="none" stroke="#63b8ff" d="M922.3,-494.92C916.84,-476.77 905,-433.07 905,-395.5 905,-395.5 905,-395.5 905,-228.5 905,-118.72 765.67,-49.49 699.77,-22.89"/>
<polygon fill="#63b8ff" stroke="#63b8ff" points="700.82,-19.54 690.23,-19.13 698.25,-26.05 700.82,-19.54"/>
</a>
</g>
</g>
</g>
</svg>
