<?xml version="1.0" encoding="UTF-8" standalone="no"?>
<!DOCTYPE svg PUBLIC "-//W3C//DTD SVG 1.1//EN"
 "http://www.w3.org/Graphics/SVG/1.1/DTD/svg11.dtd">
<!-- Generated by graphviz version 2.43.0 (0)
 -->
<!-- Title: src/exec_encoder.cpp Pages: 1 -->
<svg width="1090pt" height="577pt"
 viewBox="0.00 0.00 1090.00 577.00" xmlns="http://www.w3.org/2000/svg" xmlns:xlink="http://www.w3.org/1999/xlink">
<g id="graph0" class="graph" transform="scale(1 1) rotate(0) translate(4 573)">
<title>src/exec_encoder.cpp</title>
<!-- Node1 -->
<g id="Node000001" class="node">
<title>Node1</title>
<g id="a_Node000001"><a xlink:title=" ">
<polygon fill="#999999" stroke="#666666" points="727,-569 607,-569 607,-550 727,-550 727,-569"/>
<text text-anchor="middle" x="667" y="-557" font-family="Helvetica,sans-Serif" font-size="10.00">src/exec_encoder.cpp</text>
</a>
</g>
</g>
<!-- Node2 -->
<g id="Node000002" class="node">
<title>Node2</title>
<g id="a_Node000002"><a xlink:title=" ">
<polygon fill="#e0e0e0" stroke="#999999" points="320.5,-19 227.5,-19 227.5,0 320.5,0 320.5,-19"/>
<text text-anchor="middle" x="274" y="-7" font-family="Helvetica,sans-Serif" font-size="10.00">unordered_map</text>
</a>
</g>
</g>
<!-- Node1&#45;&gt;Node2 -->
<g id="edge1_Node000001_Node000002" class="edge">
<title>Node1&#45;&gt;Node2</title>
<g id="a_edge1_Node000001_Node000002"><a xlink:title=" ">
<path fill="none" stroke="#63b8ff" d="M606.73,-555.77C493.14,-550.18 251.57,-536.08 171,-514 107.83,-496.69 38,-516 38,-450.5 38,-450.5 38,-450.5 38,-118.5 38,-77.06 159.86,-39.41 228.44,-21.5"/>
<polygon fill="#63b8ff" stroke="#63b8ff" points="229.34,-24.88 238.16,-19 227.6,-18.1 229.34,-24.88"/>
</a>
</g>
</g>
<!-- Node3 -->
<g id="Node000003" class="node">
<title>Node3</title>
<g id="a_Node000003"><a xlink:title=" ">
<polygon fill="#e0e0e0" stroke="#999999" points="1040,-129 996,-129 996,-110 1040,-110 1040,-129"/>
<text text-anchor="middle" x="1018" y="-117" font-family="Helvetica,sans-Serif" font-size="10.00">string</text>
</a>
</g>
</g>
<!-- Node1&#45;&gt;Node3 -->
<g id="edge2_Node000001_Node000003" class="edge">
<title>Node1&#45;&gt;Node3</title>
<g id="a_edge2_Node000001_Node000003"><a xlink:title=" ">
<path fill="none" stroke="#63b8ff" d="M727.28,-553.96C803.93,-547.47 931.43,-534.06 974,-514 1012,-496.1 1044,-492.5 1044,-450.5 1044,-450.5 1044,-450.5 1044,-228.5 1044,-196.15 1032.83,-159.82 1025.14,-138.62"/>
<polygon fill="#63b8ff" stroke="#63b8ff" points="1028.32,-137.13 1021.51,-129.01 1021.77,-139.6 1028.32,-137.13"/>
</a>
</g>
</g>
<!-- Node4 -->
<g id="Node000004" class="node">
<title>Node4</title>
<g id="a_Node000004"><a xlink:title=" ">
<polygon fill="#e0e0e0" stroke="#999999" points="915.5,-19 868.5,-19 868.5,0 915.5,0 915.5,-19"/>
<text text-anchor="middle" x="892" y="-7" font-family="Helvetica,sans-Serif" font-size="10.00">vector</text>
</a>
</g>
</g>
<!-- Node1&#45;&gt;Node4 -->
<g id="edge3_Node000001_Node000004" class="edge">
<title>Node1&#45;&gt;Node4</title>
<g id="a_edge3_Node000001_Node000004"><a xlink:title=" ">
<path fill="none" stroke="#63b8ff" d="M727.24,-554.86C811.57,-549.05 959.99,-536.04 1009,-514 1048.22,-496.36 1082,-493.5 1082,-450.5 1082,-450.5 1082,-450.5 1082,-118.5 1082,-47.39 980.16,-22.51 925.6,-14.29"/>
<polygon fill="#63b8ff" stroke="#63b8ff" points="926.07,-10.82 915.68,-12.9 925.1,-17.75 926.07,-10.82"/>
</a>
</g>
</g>
<!-- Node5 -->
<g id="Node000005" class="node">
<title>Node5</title>
<g id="a_Node000005"><a xlink:title=" ">
<polygon fill="#e0e0e0" stroke="#999999" points="515,-514 483,-514 483,-495 515,-495 515,-514"/>
<text text-anchor="middle" x="499" y="-502" font-family="Helvetica,sans-Serif" font-size="10.00">set</text>
</a>
</g>
</g>
<!-- Node1&#45;&gt;Node5 -->
<g id="edge4_Node000001_Node000005" class="edge">
<title>Node1&#45;&gt;Node5</title>
<g id="a_edge4_Node000001_Node000005"><a xlink:title=" ">
<path fill="none" stroke="#63b8ff" d="M640.01,-549.98C608.34,-539.99 556.21,-523.55 524.98,-513.7"/>
<polygon fill="#63b8ff" stroke="#63b8ff" points="525.85,-510.3 515.26,-510.63 523.74,-516.98 525.85,-510.3"/>
</a>
</g>
</g>
<!-- Node6 -->
<g id="Node000006" class="node">
<title>Node6</title>
<g id="a_Node000006"><a xlink:title=" ">
<polygon fill="#e0e0e0" stroke="#999999" points="105,-19 45,-19 45,0 105,0 105,-19"/>
<text text-anchor="middle" x="75" y="-7" font-family="Helvetica,sans-Serif" font-size="10.00">iostream</text>
</a>
</g>
</g>
<!-- Node1&#45;&gt;Node6 -->
<g id="edge5_Node000001_Node000006" class="edge">
<title>Node1&#45;&gt;Node6</title>
<g id="a_edge5_Node000001_Node000006"><a xlink:title=" ">
<path fill="none" stroke="#63b8ff" d="M606.86,-556.52C463.42,-551.47 109.54,-536.82 61,-514 25.58,-497.35 0,-489.63 0,-450.5 0,-450.5 0,-450.5 0,-118.5 0,-79.64 33.17,-44.7 55.39,-25.65"/>
<polygon fill="#63b8ff" stroke="#63b8ff" points="57.79,-28.22 63.28,-19.16 53.34,-22.81 57.79,-28.22"/>
</a>
</g>
</g>
<!-- Node7 -->
<g id="Node000007" class="node">
<title>Node7</title>
<g id="a_Node000007"><a xlink:title=" ">
<polygon fill="#e0e0e0" stroke="#999999" points="621,-514 571,-514 571,-495 621,-495 621,-514"/>
<text text-anchor="middle" x="596" y="-502" font-family="Helvetica,sans-Serif" font-size="10.00">chrono</text>
</a>
</g>
</g>
<!-- Node1&#45;&gt;Node7 -->
<g id="edge6_Node000001_Node000007" class="edge">
<title>Node1&#45;&gt;Node7</title>
<g id="a_edge6_Node000001_Node000007"><a xlink:title=" ">
<path fill="none" stroke="#63b8ff" d="M655.59,-549.98C644.89,-542 628.66,-529.88 615.84,-520.31"/>
<polygon fill="#63b8ff" stroke="#63b8ff" points="617.72,-517.35 607.61,-514.17 613.53,-522.96 617.72,-517.35"/>
</a>
</g>
</g>
<!-- Node8 -->
<g id="Node000008" class="node">
<title>Node8</title>
<g id="a_Node000008"><a xlink:title=" ">
<polygon fill="#e0e0e0" stroke="#999999" points="695,-514 639,-514 639,-495 695,-495 695,-514"/>
<text text-anchor="middle" x="667" y="-502" font-family="Helvetica,sans-Serif" font-size="10.00">iomanip</text>
</a>
</g>
</g>
<!-- Node1&#45;&gt;Node8 -->
<g id="edge7_Node000001_Node000008" class="edge">
<title>Node1&#45;&gt;Node8</title>
<g id="a_edge7_Node000001_Node000008"><a xlink:title=" ">
<path fill="none" stroke="#63b8ff" d="M667,-549.75C667,-542.8 667,-532.85 667,-524.13"/>
<polygon fill="#63b8ff" stroke="#63b8ff" points="670.5,-524.09 667,-514.09 663.5,-524.09 670.5,-524.09"/>
</a>
</g>
</g>
<!-- Node9 -->
<g id="Node000009" class="node">
<title>Node9</title>
<g id="a_Node000009"><a xlink:title=" ">
<polygon fill="#e0e0e0" stroke="#999999" points="759,-514 713,-514 713,-495 759,-495 759,-514"/>
<text text-anchor="middle" x="736" y="-502" font-family="Helvetica,sans-Serif" font-size="10.00">locale</text>
</a>
</g>
</g>
<!-- Node1&#45;&gt;Node9 -->
<g id="edge8_Node000001_Node000009" class="edge">
<title>Node1&#45;&gt;Node9</title>
<g id="a_edge8_Node000001_Node000009"><a xlink:title=" ">
<path fill="none" stroke="#63b8ff" d="M678.09,-549.98C688.49,-542 704.26,-529.88 716.72,-520.31"/>
<polygon fill="#63b8ff" stroke="#63b8ff" points="718.91,-523.04 724.71,-514.17 714.65,-517.49 718.91,-523.04"/>
</a>
</g>
</g>
<!-- Node10 -->
<g id="Node000010" class="node">
<title>Node10</title>
<g id="a_Node000010"><a xlink:title=" ">
<polygon fill="#e0e0e0" stroke="#999999" points="833,-514 777,-514 777,-495 833,-495 833,-514"/>
<text text-anchor="middle" x="805" y="-502" font-family="Helvetica,sans-Serif" font-size="10.00">sstream</text>
</a>
</g>
</g>
<!-- Node1&#45;&gt;Node10 -->
<g id="edge9_Node000001_Node000010" class="edge">
<title>Node1&#45;&gt;Node10</title>
<g id="a_edge9_Node000001_Node000010"><a xlink:title=" ">
<path fill="none" stroke="#63b8ff" d="M689.17,-549.98C711.77,-541.3 747.06,-527.75 772.75,-517.88"/>
<polygon fill="#63b8ff" stroke="#63b8ff" points="774.34,-521.02 782.42,-514.17 771.83,-514.49 774.34,-521.02"/>
</a>
</g>
</g>
<!-- Node11 -->
<g id="Node000011" class="node">
<title>Node11</title>
<g id="a_Node000011"><a xlink:href="CCSDSManager_8h.html" target="_top" xlink:title=" ">
<polygon fill="white" stroke="#666666" points="671.5,-459 570.5,-459 570.5,-440 671.5,-440 671.5,-459"/>
<text text-anchor="middle" x="621" y="-447" font-family="Helvetica,sans-Serif" font-size="10.00">CCSDSManager.h</text>
</a>
</g>
</g>
<!-- Node1&#45;&gt;Node11 -->
<g id="edge10_Node000001_Node000011" class="edge">
<title>Node1&#45;&gt;Node11</title>
<g id="a_edge10_Node000001_Node000011"><a xlink:title=" ">
<path fill="none" stroke="#63b8ff" d="M617.42,-549.98C596.65,-543.7 574.46,-532.82 562,-514 549.41,-494.98 572.41,-476.23 593.27,-464.09"/>
<polygon fill="#63b8ff" stroke="#63b8ff" points="595.18,-467.03 602.27,-459.15 591.82,-460.89 595.18,-467.03"/>
</a>
</g>
</g>
<!-- Node14 -->
<g id="Node000014" class="node">
<title>Node14</title>
<g id="a_Node000014"><a xlink:href="CCSDSResult_8h.html" target="_top" xlink:title=" ">
<polygon fill="white" stroke="#666666" points="273.5,-74 184.5,-74 184.5,-55 273.5,-55 273.5,-74"/>
<text text-anchor="middle" x="229" y="-62" font-family="Helvetica,sans-Serif" font-size="10.00">CCSDSResult.h</text>
</a>
</g>
</g>
<!-- Node1&#45;&gt;Node14 -->
<g id="edge48_Node000001_Node000014" class="edge">
<title>Node1&#45;&gt;Node14</title>
<g id="a_edge48_Node000001_Node000014"><a xlink:title=" ">
<path fill="none" stroke="#63b8ff" d="M606.8,-553.78C456.37,-541.19 76,-504.05 76,-450.5 76,-450.5 76,-450.5 76,-173.5 76,-120.49 138.06,-91.2 183.13,-76.91"/>
<polygon fill="#63b8ff" stroke="#63b8ff" points="184.18,-80.25 192.74,-74.01 182.16,-73.55 184.18,-80.25"/>
</a>
</g>
</g>
<!-- Node17 -->
<g id="Node000017" class="node">
<title>Node17</title>
<g id="a_Node000017"><a xlink:href="CCSDSHeader_8h.html" target="_top" xlink:title=" ">
<polygon fill="white" stroke="#666666" points="863.5,-129 770.5,-129 770.5,-110 863.5,-110 863.5,-129"/>
<text text-anchor="middle" x="817" y="-117" font-family="Helvetica,sans-Serif" font-size="10.00">CCSDSHeader.h</text>
</a>
</g>
</g>
<!-- Node1&#45;&gt;Node17 -->
<g id="edge47_Node000001_Node000017" class="edge">
<title>Node1&#45;&gt;Node17</title>
<g id="a_edge47_Node000001_Node000017"><a xlink:title=" ">
<path fill="none" stroke="#63b8ff" d="M727.16,-553.09C796.44,-546.12 905.42,-532.63 942,-514 977.71,-495.82 1006,-490.57 1006,-450.5 1006,-450.5 1006,-450.5 1006,-393.5 1006,-276.01 886.2,-172.56 837.36,-135.26"/>
<polygon fill="#63b8ff" stroke="#63b8ff" points="839.21,-132.28 829.11,-129.08 835.01,-137.88 839.21,-132.28"/>
</a>
</g>
</g>
<!-- Node25 -->
<g id="Node000025" class="node">
<title>Node25</title>
<g id="a_Node000025"><a xlink:href="CCSDSUtils_8h.html" target="_top" xlink:title=" ">
<polygon fill="white" stroke="#666666" points="932.5,-514 851.5,-514 851.5,-495 932.5,-495 932.5,-514"/>
<text text-anchor="middle" x="892" y="-502" font-family="Helvetica,sans-Serif" font-size="10.00">CCSDSUtils.h</text>
</a>
</g>
</g>
<!-- Node1&#45;&gt;Node25 -->
<g id="edge49_Node000001_Node000025" class="edge">
<title>Node1&#45;&gt;Node25</title>
<g id="a_edge49_Node000001_Node000025"><a xlink:title=" ">
<path fill="none" stroke="#63b8ff" d="M703.15,-549.98C741.91,-540.86 803.55,-526.33 845.8,-516.38"/>
<polygon fill="#63b8ff" stroke="#63b8ff" points="846.64,-519.78 855.57,-514.08 845.03,-512.97 846.64,-519.78"/>
</a>
</g>
</g>
<!-- Node12 -->
<g id="Node000012" class="node">
<title>Node12</title>
<g id="a_Node000012"><a xlink:title=" ">
<polygon fill="#e0e0e0" stroke="#999999" points="668.5,-404 623.5,-404 623.5,-385 668.5,-385 668.5,-404"/>
<text text-anchor="middle" x="646" y="-392" font-family="Helvetica,sans-Serif" font-size="10.00">utility</text>
</a>
</g>
</g>
<!-- Node11&#45;&gt;Node12 -->
<g id="edge11_Node000011_Node000012" class="edge">
<title>Node11&#45;&gt;Node12</title>
<g id="a_edge11_Node000011_Node000012"><a xlink:title=" ">
<path fill="none" stroke="#63b8ff" d="M625.13,-439.75C628.51,-432.57 633.42,-422.18 637.62,-413.27"/>
<polygon fill="#63b8ff" stroke="#63b8ff" points="640.85,-414.63 641.95,-404.09 634.52,-411.64 640.85,-414.63"/>
</a>
</g>
</g>
<!-- Node13 -->
<g id="Node000013" class="node">
<title>Node13</title>
<g id="a_Node000013"><a xlink:href="CCSDSPacket_8h.html" target="_top" xlink:title=" ">
<polygon fill="white" stroke="#666666" points="784,-349 694,-349 694,-330 784,-330 784,-349"/>
<text text-anchor="middle" x="739" y="-337" font-family="Helvetica,sans-Serif" font-size="10.00">CCSDSPacket.h</text>
</a>
</g>
</g>
<!-- Node11&#45;&gt;Node13 -->
<g id="edge12_Node000011_Node000013" class="edge">
<title>Node11&#45;&gt;Node13</title>
<g id="a_edge12_Node000011_Node000013"><a xlink:title=" ">
<path fill="none" stroke="#63b8ff" d="M616.88,-439.78C611.33,-426.62 603.4,-401.48 615,-385 630.69,-362.71 658.64,-351.53 684.04,-345.94"/>
<polygon fill="#63b8ff" stroke="#63b8ff" points="684.84,-349.35 693.99,-344 683.5,-342.48 684.84,-349.35"/>
</a>
</g>
</g>
<!-- Node11&#45;&gt;Node14 -->
<g id="edge44_Node000011_Node000014" class="edge">
<title>Node11&#45;&gt;Node14</title>
<g id="a_edge44_Node000011_Node000014"><a xlink:title=" ">
<path fill="none" stroke="#63b8ff" d="M570.07,-448.35C441.5,-446.61 114,-433.08 114,-340.5 114,-340.5 114,-340.5 114,-173.5 114,-127.06 164.45,-94.76 198.52,-78.24"/>
<polygon fill="#63b8ff" stroke="#63b8ff" points="200.05,-81.39 207.64,-74 197.1,-75.04 200.05,-81.39"/>
</a>
</g>
</g>
<!-- Node24 -->
<g id="Node000024" class="node">
<title>Node24</title>
<g id="a_Node000024"><a xlink:href="CCSDSValidator_8h.html" target="_top" xlink:title="Defines the Validator class for CCSDS packet validation.">
<polygon fill="white" stroke="#666666" points="787.5,-404 686.5,-404 686.5,-385 787.5,-385 787.5,-404"/>
<text text-anchor="middle" x="737" y="-392" font-family="Helvetica,sans-Serif" font-size="10.00">CCSDSValidator.h</text>
</a>
</g>
</g>
<!-- Node11&#45;&gt;Node24 -->
<g id="edge45_Node000011_Node000024" class="edge">
<title>Node11&#45;&gt;Node24</title>
<g id="a_edge45_Node000011_Node000024"><a xlink:title=" ">
<path fill="none" stroke="#63b8ff" d="M639.64,-439.98C658.3,-431.46 687.25,-418.23 708.74,-408.41"/>
<polygon fill="#63b8ff" stroke="#63b8ff" points="710.38,-411.51 718.02,-404.17 707.47,-405.14 710.38,-411.51"/>
</a>
</g>
</g>
<!-- Node13&#45;&gt;Node4 -->
<g id="edge20_Node000013_Node000004" class="edge">
<title>Node13&#45;&gt;Node4</title>
<g id="a_edge20_Node000013_Node000004"><a xlink:title=" ">
<path fill="none" stroke="#63b8ff" d="M747.36,-329.7C772.93,-302.29 850.85,-215.16 892,-129 906.46,-98.72 912.43,-88.12 907,-55 905.53,-46.05 902.51,-36.47 899.56,-28.51"/>
<polygon fill="#63b8ff" stroke="#63b8ff" points="902.79,-27.16 895.86,-19.15 896.28,-29.74 902.79,-27.16"/>
</a>
</g>
</g>
<!-- Node13&#45;&gt;Node14 -->
<g id="edge13_Node000013_Node000014" class="edge">
<title>Node13&#45;&gt;Node14</title>
<g id="a_edge13_Node000013_Node000014"><a xlink:title=" ">
<path fill="none" stroke="#63b8ff" d="M693.91,-334.97C556.46,-323.62 152,-285.55 152,-230.5 152,-230.5 152,-230.5 152,-173.5 152,-134.3 186.06,-99.47 208.87,-80.54"/>
<polygon fill="#63b8ff" stroke="#63b8ff" points="211.33,-83.05 216.97,-74.09 206.97,-77.58 211.33,-83.05"/>
</a>
</g>
</g>
<!-- Node16 -->
<g id="Node000016" class="node">
<title>Node16</title>
<g id="a_Node000016"><a xlink:title=" ">
<polygon fill="#e0e0e0" stroke="#999999" points="710,-19 660,-19 660,0 710,0 710,-19"/>
<text text-anchor="middle" x="685" y="-7" font-family="Helvetica,sans-Serif" font-size="10.00">cstdint</text>
</a>
</g>
</g>
<!-- Node13&#45;&gt;Node16 -->
<g id="edge19_Node000013_Node000016" class="edge">
<title>Node13&#45;&gt;Node16</title>
<g id="a_edge19_Node000013_Node000016"><a xlink:title=" ">
<path fill="none" stroke="#63b8ff" d="M737.56,-329.73C730.35,-285.99 698.28,-91.14 688.1,-29.36"/>
<polygon fill="#63b8ff" stroke="#63b8ff" points="691.5,-28.45 686.42,-19.15 684.59,-29.58 691.5,-28.45"/>
</a>
</g>
</g>
<!-- Node13&#45;&gt;Node17 -->
<g id="edge21_Node000013_Node000017" class="edge">
<title>Node13&#45;&gt;Node17</title>
<g id="a_edge21_Node000013_Node000017"><a xlink:title=" ">
<path fill="none" stroke="#63b8ff" d="M742.33,-329.99C745.8,-321.06 751.39,-306.58 756,-294 776.65,-237.69 799.84,-170.6 810.72,-138.87"/>
<polygon fill="#63b8ff" stroke="#63b8ff" points="814.11,-139.79 814.04,-129.19 807.48,-137.52 814.11,-139.79"/>
</a>
</g>
</g>
<!-- Node18 -->
<g id="Node000018" class="node">
<title>Node18</title>
<g id="a_Node000018"><a xlink:href="CCSDSDataField_8h.html" target="_top" xlink:title=" ">
<polygon fill="white" stroke="#666666" points="591.5,-294 486.5,-294 486.5,-275 591.5,-275 591.5,-294"/>
<text text-anchor="middle" x="539" y="-282" font-family="Helvetica,sans-Serif" font-size="10.00">CCSDSDataField.h</text>
</a>
</g>
</g>
<!-- Node13&#45;&gt;Node18 -->
<g id="edge25_Node000013_Node000018" class="edge">
<title>Node13&#45;&gt;Node18</title>
<g id="a_edge25_Node000013_Node000018"><a xlink:title=" ">
<path fill="none" stroke="#63b8ff" d="M706.87,-329.98C672.85,-320.97 619,-306.7 581.5,-296.76"/>
<polygon fill="#63b8ff" stroke="#63b8ff" points="581.95,-293.26 571.39,-294.08 580.16,-300.03 581.95,-293.26"/>
</a>
</g>
</g>
<!-- Node14&#45;&gt;Node2 -->
<g id="edge14_Node000014_Node000002" class="edge">
<title>Node14&#45;&gt;Node2</title>
<g id="a_edge14_Node000014_Node000002"><a xlink:title=" ">
<path fill="none" stroke="#63b8ff" d="M236.43,-54.75C242.85,-47.18 252.31,-36.05 260.12,-26.84"/>
<polygon fill="#63b8ff" stroke="#63b8ff" points="262.9,-28.98 266.71,-19.09 257.57,-24.45 262.9,-28.98"/>
</a>
</g>
</g>
<!-- Node14&#45;&gt;Node4 -->
<g id="edge16_Node000014_Node000004" class="edge">
<title>Node14&#45;&gt;Node4</title>
<g id="a_edge16_Node000014_Node000004"><a xlink:title=" ">
<path fill="none" stroke="#63b8ff" d="M273.53,-59.94C398.01,-49.99 747.67,-22.04 858.12,-13.21"/>
<polygon fill="#63b8ff" stroke="#63b8ff" points="858.65,-16.68 868.34,-12.39 858.09,-9.7 858.65,-16.68"/>
</a>
</g>
</g>
<!-- Node14&#45;&gt;Node6 -->
<g id="edge18_Node000014_Node000006" class="edge">
<title>Node14&#45;&gt;Node6</title>
<g id="a_edge18_Node000014_Node000006"><a xlink:title=" ">
<path fill="none" stroke="#63b8ff" d="M204.26,-54.98C178.63,-46.16 138.37,-32.31 109.59,-22.41"/>
<polygon fill="#63b8ff" stroke="#63b8ff" points="110.53,-19.03 99.94,-19.08 108.25,-25.65 110.53,-19.03"/>
</a>
</g>
</g>
<!-- Node15 -->
<g id="Node000015" class="node">
<title>Node15</title>
<g id="a_Node000015"><a xlink:title=" ">
<polygon fill="#e0e0e0" stroke="#999999" points="209.5,-19 158.5,-19 158.5,0 209.5,0 209.5,-19"/>
<text text-anchor="middle" x="184" y="-7" font-family="Helvetica,sans-Serif" font-size="10.00">variant</text>
</a>
</g>
</g>
<!-- Node14&#45;&gt;Node15 -->
<g id="edge15_Node000014_Node000015" class="edge">
<title>Node14&#45;&gt;Node15</title>
<g id="a_edge15_Node000014_Node000015"><a xlink:title=" ">
<path fill="none" stroke="#63b8ff" d="M221.57,-54.75C215.15,-47.18 205.69,-36.05 197.88,-26.84"/>
<polygon fill="#63b8ff" stroke="#63b8ff" points="200.43,-24.45 191.29,-19.09 195.1,-28.98 200.43,-24.45"/>
</a>
</g>
</g>
<!-- Node14&#45;&gt;Node16 -->
<g id="edge17_Node000014_Node000016" class="edge">
<title>Node14&#45;&gt;Node16</title>
<g id="a_edge17_Node000014_Node000016"><a xlink:title=" ">
<path fill="none" stroke="#63b8ff" d="M273.55,-58.32C364.05,-47.8 567.72,-24.13 649.77,-14.6"/>
<polygon fill="#63b8ff" stroke="#63b8ff" points="650.3,-18.06 659.83,-13.43 649.5,-11.1 650.3,-18.06"/>
</a>
</g>
</g>
<!-- Node17&#45;&gt;Node4 -->
<g id="edge24_Node000017_Node000004" class="edge">
<title>Node17&#45;&gt;Node4</title>
<g id="a_edge24_Node000017_Node000004"><a xlink:title=" ">
<path fill="none" stroke="#63b8ff" d="M823.14,-109.66C835.62,-91.69 864.12,-50.64 880.28,-27.38"/>
<polygon fill="#63b8ff" stroke="#63b8ff" points="883.16,-29.37 885.99,-19.16 877.41,-25.38 883.16,-29.37"/>
</a>
</g>
</g>
<!-- Node17&#45;&gt;Node14 -->
<g id="edge22_Node000017_Node000014" class="edge">
<title>Node17&#45;&gt;Node14</title>
<g id="a_edge22_Node000017_Node000014"><a xlink:title=" ">
<path fill="none" stroke="#63b8ff" d="M770.37,-114.3C662.92,-104.61 398.37,-80.77 283.59,-70.42"/>
<polygon fill="#63b8ff" stroke="#63b8ff" points="283.89,-66.93 273.62,-69.52 283.26,-73.91 283.89,-66.93"/>
</a>
</g>
</g>
<!-- Node17&#45;&gt;Node16 -->
<g id="edge23_Node000017_Node000016" class="edge">
<title>Node17&#45;&gt;Node16</title>
<g id="a_edge23_Node000017_Node000016"><a xlink:title=" ">
<path fill="none" stroke="#63b8ff" d="M809.71,-109.62C798.83,-96.7 777.35,-72.36 756,-55 741.69,-43.37 724.15,-32.35 710.08,-24.18"/>
<polygon fill="#63b8ff" stroke="#63b8ff" points="711.4,-20.91 700.98,-19.01 707.94,-26.99 711.4,-20.91"/>
</a>
</g>
</g>
<!-- Node18&#45;&gt;Node4 -->
<g id="edge28_Node000018_Node000004" class="edge">
<title>Node18&#45;&gt;Node4</title>
<g id="a_edge28_Node000018_Node000004"><a xlink:title=" ">
<path fill="none" stroke="#63b8ff" d="M591.53,-275.31C667.1,-260.54 804.87,-221.84 873,-129 894.7,-99.43 895.54,-54.49 893.95,-29.31"/>
<polygon fill="#63b8ff" stroke="#63b8ff" points="897.43,-28.92 893.11,-19.25 890.45,-29.51 897.43,-28.92"/>
</a>
</g>
</g>
<!-- Node18&#45;&gt;Node14 -->
<g id="edge26_Node000018_Node000014" class="edge">
<title>Node18&#45;&gt;Node14</title>
<g id="a_edge26_Node000018_Node000014"><a xlink:title=" ">
<path fill="none" stroke="#63b8ff" d="M487.8,-274.97C452.14,-267.96 403.98,-256.33 364,-239 286.49,-205.41 245.66,-205.1 209,-129 201.73,-113.92 209.09,-95.57 216.85,-82.49"/>
<polygon fill="#63b8ff" stroke="#63b8ff" points="219.85,-84.3 222.37,-74.01 213.98,-80.48 219.85,-84.3"/>
</a>
</g>
</g>
<!-- Node18&#45;&gt;Node16 -->
<g id="edge27_Node000018_Node000016" class="edge">
<title>Node18&#45;&gt;Node16</title>
<g id="a_edge27_Node000018_Node000016"><a xlink:title=" ">
<path fill="none" stroke="#63b8ff" d="M564.4,-274.97C601.46,-260.72 666,-228.32 666,-175.5 666,-175.5 666,-175.5 666,-118.5 666,-86.56 674.16,-50.1 679.78,-28.77"/>
<polygon fill="#63b8ff" stroke="#63b8ff" points="683.17,-29.66 682.44,-19.09 676.42,-27.81 683.17,-29.66"/>
</a>
</g>
</g>
<!-- Node19 -->
<g id="Node000019" class="node">
<title>Node19</title>
<g id="a_Node000019"><a xlink:title=" ">
<polygon fill="#e0e0e0" stroke="#999999" points="276,-129 218,-129 218,-110 276,-110 276,-129"/>
<text text-anchor="middle" x="247" y="-117" font-family="Helvetica,sans-Serif" font-size="10.00">memory</text>
</a>
</g>
</g>
<!-- Node18&#45;&gt;Node19 -->
<g id="edge29_Node000018_Node000019" class="edge">
<title>Node18&#45;&gt;Node19</title>
<g id="a_edge29_Node000018_Node000019"><a xlink:title=" ">
<path fill="none" stroke="#63b8ff" d="M507.08,-274.92C459.65,-261.14 369.15,-230.76 304,-184 286.03,-171.1 269.64,-151.65 259.09,-137.68"/>
<polygon fill="#63b8ff" stroke="#63b8ff" points="261.77,-135.42 253.04,-129.41 256.12,-139.55 261.77,-135.42"/>
</a>
</g>
</g>
<!-- Node20 -->
<g id="Node000020" class="node">
<title>Node20</title>
<g id="a_Node000020"><a xlink:href="CCSDSSecondaryHeaderAbstract_8h.html" target="_top" xlink:title=" ">
<polygon fill="white" stroke="#666666" points="638.5,-129 453.5,-129 453.5,-110 638.5,-110 638.5,-129"/>
<text text-anchor="middle" x="546" y="-117" font-family="Helvetica,sans-Serif" font-size="10.00">CCSDSSecondaryHeaderAbstract.h</text>
</a>
</g>
</g>
<!-- Node18&#45;&gt;Node20 -->
<g id="edge30_Node000018_Node000020" class="edge">
<title>Node18&#45;&gt;Node20</title>
<g id="a_edge30_Node000018_Node000020"><a xlink:title=" ">
<path fill="none" stroke="#63b8ff" d="M542.09,-274.77C545.05,-265.9 549.32,-251.69 551,-239 555.65,-203.92 551.8,-162.53 548.77,-139.11"/>
<polygon fill="#63b8ff" stroke="#63b8ff" points="552.23,-138.59 547.39,-129.17 545.3,-139.56 552.23,-138.59"/>
</a>
</g>
</g>
<!-- Node21 -->
<g id="Node000021" class="node">
<title>Node21</title>
<g id="a_Node000021"><a xlink:href="CCSDSSecondaryHeaderFactory_8h.html" target="_top" xlink:title=" ">
<polygon fill="white" stroke="#666666" points="511.5,-184 332.5,-184 332.5,-165 511.5,-165 511.5,-184"/>
<text text-anchor="middle" x="422" y="-172" font-family="Helvetica,sans-Serif" font-size="10.00">CCSDSSecondaryHeaderFactory.h</text>
</a>
</g>
</g>
<!-- Node18&#45;&gt;Node21 -->
<g id="edge34_Node000018_Node000021" class="edge">
<title>Node18&#45;&gt;Node21</title>
<g id="a_edge34_Node000018_Node000021"><a xlink:title=" ">
<path fill="none" stroke="#63b8ff" d="M509.79,-275C490.38,-268.05 465.52,-256.49 449,-239 437.19,-226.49 430.13,-208.03 426.21,-194.24"/>
<polygon fill="#63b8ff" stroke="#63b8ff" points="429.56,-193.21 423.71,-184.38 422.78,-194.93 429.56,-193.21"/>
</a>
</g>
</g>
<!-- Node23 -->
<g id="Node000023" class="node">
<title>Node23</title>
<g id="a_Node000023"><a xlink:href="PusServices_8h.html" target="_top" xlink:title=" ">
<polygon fill="white" stroke="#666666" points="542,-239 458,-239 458,-220 542,-220 542,-239"/>
<text text-anchor="middle" x="500" y="-227" font-family="Helvetica,sans-Serif" font-size="10.00">PusServices.h</text>
</a>
</g>
</g>
<!-- Node18&#45;&gt;Node23 -->
<g id="edge40_Node000018_Node000023" class="edge">
<title>Node18&#45;&gt;Node23</title>
<g id="a_edge40_Node000018_Node000023"><a xlink:title=" ">
<path fill="none" stroke="#63b8ff" d="M532.56,-274.75C527.11,-267.34 519.14,-256.5 512.44,-247.41"/>
<polygon fill="#63b8ff" stroke="#63b8ff" points="515.07,-245.07 506.32,-239.09 509.43,-249.22 515.07,-245.07"/>
</a>
</g>
</g>
<!-- Node20&#45;&gt;Node4 -->
<g id="edge32_Node000020_Node000004" class="edge">
<title>Node20&#45;&gt;Node4</title>
<g id="a_edge32_Node000020_Node000004"><a xlink:title=" ">
<path fill="none" stroke="#63b8ff" d="M573.44,-109.94C636.23,-90.34 790.2,-42.28 858.47,-20.97"/>
<polygon fill="#63b8ff" stroke="#63b8ff" points="859.78,-24.22 868.28,-17.9 857.69,-17.54 859.78,-24.22"/>
</a>
</g>
</g>
<!-- Node20&#45;&gt;Node14 -->
<g id="edge31_Node000020_Node000014" class="edge">
<title>Node20&#45;&gt;Node14</title>
<g id="a_edge31_Node000020_Node000014"><a xlink:title=" ">
<path fill="none" stroke="#63b8ff" d="M495.07,-109.98C437.16,-100.3 342.99,-84.56 283.6,-74.63"/>
<polygon fill="#63b8ff" stroke="#63b8ff" points="284.1,-71.16 273.66,-72.97 282.94,-78.07 284.1,-71.16"/>
</a>
</g>
</g>
<!-- Node20&#45;&gt;Node16 -->
<g id="edge33_Node000020_Node000016" class="edge">
<title>Node20&#45;&gt;Node16</title>
<g id="a_edge33_Node000020_Node000016"><a xlink:title=" ">
<path fill="none" stroke="#63b8ff" d="M552.23,-109.84C561.96,-96.75 581.84,-71.71 603,-55 619.15,-42.25 639.47,-31.19 655.84,-23.29"/>
<polygon fill="#63b8ff" stroke="#63b8ff" points="657.4,-26.43 664.96,-19.01 654.42,-20.09 657.4,-26.43"/>
</a>
</g>
</g>
<!-- Node21&#45;&gt;Node2 -->
<g id="edge36_Node000021_Node000002" class="edge">
<title>Node21&#45;&gt;Node2</title>
<g id="a_edge36_Node000021_Node000002"><a xlink:title=" ">
<path fill="none" stroke="#63b8ff" d="M408.24,-164.98C395.46,-156.7 376.31,-143.3 362,-129 329.82,-96.84 299.95,-52.29 284.66,-28.01"/>
<polygon fill="#63b8ff" stroke="#63b8ff" points="287.45,-25.86 279.21,-19.21 281.5,-29.55 287.45,-25.86"/>
</a>
</g>
</g>
<!-- Node21&#45;&gt;Node3 -->
<g id="edge38_Node000021_Node000003" class="edge">
<title>Node21&#45;&gt;Node3</title>
<g id="a_edge38_Node000021_Node000003"><a xlink:title=" ">
<path fill="none" stroke="#63b8ff" d="M511.55,-165.54C646.92,-153.5 897.26,-131.24 985.88,-123.36"/>
<polygon fill="#63b8ff" stroke="#63b8ff" points="986.22,-126.84 995.87,-122.47 985.6,-119.87 986.22,-126.84"/>
</a>
</g>
</g>
<!-- Node21&#45;&gt;Node19 -->
<g id="edge35_Node000021_Node000019" class="edge">
<title>Node21&#45;&gt;Node19</title>
<g id="a_edge35_Node000021_Node000019"><a xlink:title=" ">
<path fill="none" stroke="#63b8ff" d="M393.88,-164.98C364.38,-156.05 317.81,-141.94 285.03,-132.02"/>
<polygon fill="#63b8ff" stroke="#63b8ff" points="285.92,-128.63 275.34,-129.08 283.89,-135.33 285.92,-128.63"/>
</a>
</g>
</g>
<!-- Node21&#45;&gt;Node20 -->
<g id="edge39_Node000021_Node000020" class="edge">
<title>Node21&#45;&gt;Node20</title>
<g id="a_edge39_Node000021_Node000020"><a xlink:title=" ">
<path fill="none" stroke="#63b8ff" d="M441.92,-164.98C462.05,-156.38 493.38,-142.99 516.41,-133.15"/>
<polygon fill="#63b8ff" stroke="#63b8ff" points="517.9,-136.32 525.71,-129.17 515.14,-129.88 517.9,-136.32"/>
</a>
</g>
</g>
<!-- Node22 -->
<g id="Node000022" class="node">
<title>Node22</title>
<g id="a_Node000022"><a xlink:title=" ">
<polygon fill="#e0e0e0" stroke="#999999" points="435.5,-129 370.5,-129 370.5,-110 435.5,-110 435.5,-129"/>
<text text-anchor="middle" x="403" y="-117" font-family="Helvetica,sans-Serif" font-size="10.00">functional</text>
</a>
</g>
</g>
<!-- Node21&#45;&gt;Node22 -->
<g id="edge37_Node000021_Node000022" class="edge">
<title>Node21&#45;&gt;Node22</title>
<g id="a_edge37_Node000021_Node000022"><a xlink:title=" ">
<path fill="none" stroke="#63b8ff" d="M418.86,-164.75C416.32,-157.65 412.64,-147.4 409.47,-138.56"/>
<polygon fill="#63b8ff" stroke="#63b8ff" points="412.75,-137.32 406.08,-129.09 406.16,-139.68 412.75,-137.32"/>
</a>
</g>
</g>
<!-- Node23&#45;&gt;Node14 -->
<g id="edge43_Node000023_Node000014" class="edge">
<title>Node23&#45;&gt;Node14</title>
<g id="a_edge43_Node000023_Node000014"><a xlink:title=" ">
<path fill="none" stroke="#63b8ff" d="M457.73,-227.32C419.18,-224.21 362.51,-214.31 324,-184 294.78,-161.01 308.73,-138.62 285,-110 275.37,-98.38 262.26,-87.77 251.15,-79.82"/>
<polygon fill="#63b8ff" stroke="#63b8ff" points="252.99,-76.84 242.77,-74.05 249.02,-82.61 252.99,-76.84"/>
</a>
</g>
</g>
<!-- Node23&#45;&gt;Node20 -->
<g id="edge41_Node000023_Node000020" class="edge">
<title>Node23&#45;&gt;Node20</title>
<g id="a_edge41_Node000023_Node000020"><a xlink:title=" ">
<path fill="none" stroke="#63b8ff" d="M504.36,-219.71C508.73,-210.79 515.58,-196.55 521,-184 527.54,-168.88 534.35,-151.45 539.21,-138.68"/>
<polygon fill="#63b8ff" stroke="#63b8ff" points="542.53,-139.79 542.78,-129.2 535.98,-137.32 542.53,-139.79"/>
</a>
</g>
</g>
<!-- Node23&#45;&gt;Node21 -->
<g id="edge42_Node000023_Node000021" class="edge">
<title>Node23&#45;&gt;Node21</title>
<g id="a_edge42_Node000023_Node000021"><a xlink:title=" ">
<path fill="none" stroke="#63b8ff" d="M487.47,-219.98C475.6,-211.92 457.54,-199.65 443.39,-190.03"/>
<polygon fill="#63b8ff" stroke="#63b8ff" points="445,-186.9 434.76,-184.17 441.06,-192.69 445,-186.9"/>
</a>
</g>
</g>
<!-- Node24&#45;&gt;Node13 -->
<g id="edge46_Node000024_Node000013" class="edge">
<title>Node24&#45;&gt;Node13</title>
<g id="a_edge46_Node000024_Node000013"><a xlink:title=" ">
<path fill="none" stroke="#63b8ff" d="M737.33,-384.75C737.59,-377.8 737.97,-367.85 738.3,-359.13"/>
<polygon fill="#63b8ff" stroke="#63b8ff" points="741.8,-359.21 738.68,-349.09 734.8,-358.95 741.8,-359.21"/>
</a>
</g>
</g>
<!-- Node25&#45;&gt;Node3 -->
<g id="edge52_Node000025_Node000003" class="edge">
<title>Node25&#45;&gt;Node3</title>
<g id="a_edge52_Node000025_Node000003"><a xlink:title=" ">
<path fill="none" stroke="#63b8ff" d="M906.66,-494.8C918.57,-486.94 934.85,-474.3 944,-459 1008.73,-350.79 1017.07,-192.83 1017.97,-139.15"/>
<polygon fill="#63b8ff" stroke="#63b8ff" points="1021.47,-139.11 1018.06,-129.08 1014.47,-139.05 1021.47,-139.11"/>
</a>
</g>
</g>
<!-- Node25&#45;&gt;Node4 -->
<g id="edge54_Node000025_Node000004" class="edge">
<title>Node25&#45;&gt;Node4</title>
<g id="a_edge54_Node000025_Node000004"><a xlink:title=" ">
<path fill="none" stroke="#63b8ff" d="M897.28,-494.9C907.73,-477.07 930,-434.46 930,-395.5 930,-395.5 930,-395.5 930,-338.5 930,-264.11 968,-249.89 968,-175.5 968,-175.5 968,-175.5 968,-118.5 968,-79.47 934.39,-44.58 911.87,-25.6"/>
<polygon fill="#63b8ff" stroke="#63b8ff" points="913.85,-22.7 903.88,-19.12 909.44,-28.14 913.85,-22.7"/>
</a>
</g>
</g>
<!-- Node25&#45;&gt;Node11 -->
<g id="edge51_Node000025_Node000011" class="edge">
<title>Node25&#45;&gt;Node11</title>
<g id="a_edge51_Node000025_Node000011"><a xlink:title=" ">
<path fill="none" stroke="#63b8ff" d="M851.43,-495.57C804.36,-486.36 726.59,-471.15 674.59,-460.98"/>
<polygon fill="#63b8ff" stroke="#63b8ff" points="675.03,-457.5 664.55,-459.02 673.69,-464.37 675.03,-457.5"/>
</a>
</g>
</g>
<!-- Node25&#45;&gt;Node13 -->
<g id="edge50_Node000025_Node000013" class="edge">
<title>Node25&#45;&gt;Node13</title>
<g id="a_edge50_Node000025_Node000013"><a xlink:title=" ">
<path fill="none" stroke="#63b8ff" d="M879.83,-494.95C868.58,-486.65 851.87,-473.24 840,-459 815.65,-429.78 822.12,-413.56 797,-385 786.81,-373.42 773.23,-362.81 761.77,-354.85"/>
<polygon fill="#63b8ff" stroke="#63b8ff" points="763.4,-351.73 753.14,-349.07 759.5,-357.55 763.4,-351.73"/>
</a>
</g>
</g>
<!-- Node25&#45;&gt;Node16 -->
<g id="edge53_Node000025_Node000016" class="edge">
<title>Node25&#45;&gt;Node16</title>
<g id="a_edge53_Node000025_Node000016"><a xlink:title=" ">
<path fill="none" stroke="#63b8ff" d="M886.72,-494.9C876.27,-477.07 854,-434.46 854,-395.5 854,-395.5 854,-395.5 854,-283.5 854,-275.98 733.71,-86.84 696.1,-27.88"/>
<polygon fill="#63b8ff" stroke="#63b8ff" points="698.95,-25.84 690.62,-19.3 693.05,-29.61 698.95,-25.84"/>
</a>
</g>
</g>
</g>
</svg>
