<?xml version="1.0" encoding="UTF-8" standalone="no"?>
<!DOCTYPE svg PUBLIC "-//W3C//DTD SVG 1.1//EN"
 "http://www.w3.org/Graphics/SVG/1.1/DTD/svg11.dtd">
<!-- Generated by graphviz version 2.43.0 (0)
 -->
<!-- Title: src/exec_encoder.cpp Pages: 1 -->
<svg width="1090pt" height="577pt"
 viewBox="0.00 0.00 1090.00 577.00" xmlns="http://www.w3.org/2000/svg" xmlns:xlink="http://www.w3.org/1999/xlink">
<g id="graph0" class="graph" transform="scale(1 1) rotate(0) translate(4 573)">
<title>src/exec_encoder.cpp</title>
<!-- Node1 -->
<g id="Node000001" class="node">
<title>Node1</title>
<g id="a_Node000001"><a xlink:title=" ">
<polygon fill="#999999" stroke="#666666" points="654,-569 534,-569 534,-550 654,-550 654,-569"/>
<text text-anchor="middle" x="594" y="-557" font-family="Helvetica,sans-Serif" font-size="10.00">src/exec_encoder.cpp</text>
</a>
</g>
</g>
<!-- Node2 -->
<g id="Node000002" class="node">
<title>Node2</title>
<g id="a_Node000002"><a xlink:title=" ">
<polygon fill="#e0e0e0" stroke="#999999" points="348.5,-19 255.5,-19 255.5,0 348.5,0 348.5,-19"/>
<text text-anchor="middle" x="302" y="-7" font-family="Helvetica,sans-Serif" font-size="10.00">unordered_map</text>
</a>
</g>
</g>
<!-- Node1&#45;&gt;Node2 -->
<g id="edge1_Node000001_Node000002" class="edge">
<title>Node1&#45;&gt;Node2</title>
<g id="a_edge1_Node000001_Node000002"><a xlink:title=" ">
<path fill="none" stroke="#63b8ff" d="M533.97,-559.36C390.2,-559.81 38,-550.68 38,-450.5 38,-450.5 38,-450.5 38,-118.5 38,-73.54 170.84,-38.02 248.06,-21.17"/>
<polygon fill="#63b8ff" stroke="#63b8ff" points="249.07,-24.54 258.11,-19.02 247.6,-17.69 249.07,-24.54"/>
</a>
</g>
</g>
<!-- Node3 -->
<g id="Node000003" class="node">
<title>Node3</title>
<g id="a_Node000003"><a xlink:title=" ">
<polygon fill="#e0e0e0" stroke="#999999" points="1040,-129 996,-129 996,-110 1040,-110 1040,-129"/>
<text text-anchor="middle" x="1018" y="-117" font-family="Helvetica,sans-Serif" font-size="10.00">string</text>
</a>
</g>
</g>
<!-- Node1&#45;&gt;Node3 -->
<g id="edge2_Node000001_Node000003" class="edge">
<title>Node1&#45;&gt;Node3</title>
<g id="a_edge2_Node000001_Node000003"><a xlink:title=" ">
<path fill="none" stroke="#63b8ff" d="M654.25,-555.98C746.85,-551.36 919.31,-539.55 975,-514 1012.88,-496.62 1044,-492.18 1044,-450.5 1044,-450.5 1044,-450.5 1044,-228.5 1044,-196.15 1032.83,-159.82 1025.14,-138.62"/>
<polygon fill="#63b8ff" stroke="#63b8ff" points="1028.32,-137.13 1021.51,-129.01 1021.77,-139.6 1028.32,-137.13"/>
</a>
</g>
</g>
<!-- Node4 -->
<g id="Node000004" class="node">
<title>Node4</title>
<g id="a_Node000004"><a xlink:title=" ">
<polygon fill="#e0e0e0" stroke="#999999" points="915.5,-19 868.5,-19 868.5,0 915.5,0 915.5,-19"/>
<text text-anchor="middle" x="892" y="-7" font-family="Helvetica,sans-Serif" font-size="10.00">vector</text>
</a>
</g>
</g>
<!-- Node1&#45;&gt;Node4 -->
<g id="edge3_Node000001_Node000004" class="edge">
<title>Node1&#45;&gt;Node4</title>
<g id="a_edge3_Node000001_Node000004"><a xlink:title=" ">
<path fill="none" stroke="#63b8ff" d="M654.03,-556.54C753.49,-552.55 947.68,-541.43 1010,-514 1049.05,-496.81 1082,-493.17 1082,-450.5 1082,-450.5 1082,-450.5 1082,-118.5 1082,-47.39 980.16,-22.51 925.6,-14.29"/>
<polygon fill="#63b8ff" stroke="#63b8ff" points="926.07,-10.82 915.68,-12.9 925.1,-17.75 926.07,-10.82"/>
</a>
</g>
</g>
<!-- Node5 -->
<g id="Node000005" class="node">
<title>Node5</title>
<g id="a_Node000005"><a xlink:title=" ">
<polygon fill="#e0e0e0" stroke="#999999" points="356,-514 324,-514 324,-495 356,-495 356,-514"/>
<text text-anchor="middle" x="340" y="-502" font-family="Helvetica,sans-Serif" font-size="10.00">set</text>
</a>
</g>
</g>
<!-- Node1&#45;&gt;Node5 -->
<g id="edge4_Node000001_Node000005" class="edge">
<title>Node1&#45;&gt;Node5</title>
<g id="a_edge4_Node000001_Node000005"><a xlink:title=" ">
<path fill="none" stroke="#63b8ff" d="M545.25,-549.98C499.71,-541.74 429.94,-528.42 370,-514 368.73,-513.69 367.43,-513.37 366.12,-513.03"/>
<polygon fill="#63b8ff" stroke="#63b8ff" points="366.7,-509.56 356.13,-510.33 364.87,-516.32 366.7,-509.56"/>
</a>
</g>
</g>
<!-- Node6 -->
<g id="Node000006" class="node">
<title>Node6</title>
<g id="a_Node000006"><a xlink:title=" ">
<polygon fill="#e0e0e0" stroke="#999999" points="79,-19 19,-19 19,0 79,0 79,-19"/>
<text text-anchor="middle" x="49" y="-7" font-family="Helvetica,sans-Serif" font-size="10.00">iostream</text>
</a>
</g>
</g>
<!-- Node1&#45;&gt;Node6 -->
<g id="edge5_Node000001_Node000006" class="edge">
<title>Node1&#45;&gt;Node6</title>
<g id="a_edge5_Node000001_Node000006"><a xlink:title=" ">
<path fill="none" stroke="#63b8ff" d="M533.84,-558.56C413.19,-557.87 146.15,-551.94 64,-514 27.62,-497.2 0,-490.57 0,-450.5 0,-450.5 0,-450.5 0,-118.5 0,-83.68 21.38,-47.74 35.9,-27.35"/>
<polygon fill="#63b8ff" stroke="#63b8ff" points="38.84,-29.25 41.98,-19.13 33.21,-25.09 38.84,-29.25"/>
</a>
</g>
</g>
<!-- Node7 -->
<g id="Node000007" class="node">
<title>Node7</title>
<g id="a_Node000007"><a xlink:title=" ">
<polygon fill="#e0e0e0" stroke="#999999" points="480,-514 412,-514 412,-495 480,-495 480,-514"/>
<text text-anchor="middle" x="446" y="-502" font-family="Helvetica,sans-Serif" font-size="10.00">filesystem</text>
</a>
</g>
</g>
<!-- Node1&#45;&gt;Node7 -->
<g id="edge6_Node000001_Node000007" class="edge">
<title>Node1&#45;&gt;Node7</title>
<g id="a_edge6_Node000001_Node000007"><a xlink:title=" ">
<path fill="none" stroke="#63b8ff" d="M570.22,-549.98C545.77,-541.23 507.47,-527.51 479.85,-517.62"/>
<polygon fill="#63b8ff" stroke="#63b8ff" points="480.81,-514.25 470.21,-514.17 478.45,-520.84 480.81,-514.25"/>
</a>
</g>
</g>
<!-- Node8 -->
<g id="Node000008" class="node">
<title>Node8</title>
<g id="a_Node000008"><a xlink:title=" ">
<polygon fill="#e0e0e0" stroke="#999999" points="548,-514 498,-514 498,-495 548,-495 548,-514"/>
<text text-anchor="middle" x="523" y="-502" font-family="Helvetica,sans-Serif" font-size="10.00">chrono</text>
</a>
</g>
</g>
<!-- Node1&#45;&gt;Node8 -->
<g id="edge7_Node000001_Node000008" class="edge">
<title>Node1&#45;&gt;Node8</title>
<g id="a_edge7_Node000001_Node000008"><a xlink:title=" ">
<path fill="none" stroke="#63b8ff" d="M582.59,-549.98C571.89,-542 555.66,-529.88 542.84,-520.31"/>
<polygon fill="#63b8ff" stroke="#63b8ff" points="544.72,-517.35 534.61,-514.17 540.53,-522.96 544.72,-517.35"/>
</a>
</g>
</g>
<!-- Node9 -->
<g id="Node000009" class="node">
<title>Node9</title>
<g id="a_Node000009"><a xlink:title=" ">
<polygon fill="#e0e0e0" stroke="#999999" points="622,-514 566,-514 566,-495 622,-495 622,-514"/>
<text text-anchor="middle" x="594" y="-502" font-family="Helvetica,sans-Serif" font-size="10.00">iomanip</text>
</a>
</g>
</g>
<!-- Node1&#45;&gt;Node9 -->
<g id="edge8_Node000001_Node000009" class="edge">
<title>Node1&#45;&gt;Node9</title>
<g id="a_edge8_Node000001_Node000009"><a xlink:title=" ">
<path fill="none" stroke="#63b8ff" d="M594,-549.75C594,-542.8 594,-532.85 594,-524.13"/>
<polygon fill="#63b8ff" stroke="#63b8ff" points="597.5,-524.09 594,-514.09 590.5,-524.09 597.5,-524.09"/>
</a>
</g>
</g>
<!-- Node10 -->
<g id="Node000010" class="node">
<title>Node10</title>
<g id="a_Node000010"><a xlink:title=" ">
<polygon fill="#e0e0e0" stroke="#999999" points="686,-514 640,-514 640,-495 686,-495 686,-514"/>
<text text-anchor="middle" x="663" y="-502" font-family="Helvetica,sans-Serif" font-size="10.00">locale</text>
</a>
</g>
</g>
<!-- Node1&#45;&gt;Node10 -->
<g id="edge9_Node000001_Node000010" class="edge">
<title>Node1&#45;&gt;Node10</title>
<g id="a_edge9_Node000001_Node000010"><a xlink:title=" ">
<path fill="none" stroke="#63b8ff" d="M605.09,-549.98C615.49,-542 631.26,-529.88 643.72,-520.31"/>
<polygon fill="#63b8ff" stroke="#63b8ff" points="645.91,-523.04 651.71,-514.17 641.65,-517.49 645.91,-523.04"/>
</a>
</g>
</g>
<!-- Node11 -->
<g id="Node000011" class="node">
<title>Node11</title>
<g id="a_Node000011"><a xlink:title=" ">
<polygon fill="#e0e0e0" stroke="#999999" points="760,-514 704,-514 704,-495 760,-495 760,-514"/>
<text text-anchor="middle" x="732" y="-502" font-family="Helvetica,sans-Serif" font-size="10.00">sstream</text>
</a>
</g>
</g>
<!-- Node1&#45;&gt;Node11 -->
<g id="edge10_Node000001_Node000011" class="edge">
<title>Node1&#45;&gt;Node11</title>
<g id="a_edge10_Node000001_Node000011"><a xlink:title=" ">
<path fill="none" stroke="#63b8ff" d="M616.17,-549.98C638.77,-541.3 674.06,-527.75 699.75,-517.88"/>
<polygon fill="#63b8ff" stroke="#63b8ff" points="701.34,-521.02 709.42,-514.17 698.83,-514.49 701.34,-521.02"/>
</a>
</g>
</g>
<!-- Node12 -->
<g id="Node000012" class="node">
<title>Node12</title>
<g id="a_Node000012"><a xlink:title=" ">
<polygon fill="#e0e0e0" stroke="#999999" points="833.5,-514 778.5,-514 778.5,-495 833.5,-495 833.5,-514"/>
<text text-anchor="middle" x="806" y="-502" font-family="Helvetica,sans-Serif" font-size="10.00">fstream</text>
</a>
</g>
</g>
<!-- Node1&#45;&gt;Node12 -->
<g id="edge11_Node000001_Node000012" class="edge">
<title>Node1&#45;&gt;Node12</title>
<g id="a_edge11_Node000001_Node000012"><a xlink:title=" ">
<path fill="none" stroke="#63b8ff" d="M628.06,-549.98C666.5,-540.37 728.84,-524.79 768.6,-514.85"/>
<polygon fill="#63b8ff" stroke="#63b8ff" points="769.59,-518.21 778.44,-512.39 767.89,-511.42 769.59,-518.21"/>
</a>
</g>
</g>
<!-- Node13 -->
<g id="Node000013" class="node">
<title>Node13</title>
<g id="a_Node000013"><a xlink:href="CCSDSManager_8h.html" target="_top" xlink:title=" ">
<polygon fill="white" stroke="#666666" points="671.5,-459 570.5,-459 570.5,-440 671.5,-440 671.5,-459"/>
<text text-anchor="middle" x="621" y="-447" font-family="Helvetica,sans-Serif" font-size="10.00">CCSDSManager.h</text>
</a>
</g>
</g>
<!-- Node1&#45;&gt;Node13 -->
<g id="edge12_Node000001_Node000013" class="edge">
<title>Node1&#45;&gt;Node13</title>
<g id="a_edge12_Node000001_Node000013"><a xlink:title=" ">
<path fill="none" stroke="#63b8ff" d="M533.83,-557.53C464.56,-554.25 364.93,-541.62 403,-495 422.56,-471.04 502.95,-459.65 560.41,-454.47"/>
<polygon fill="#63b8ff" stroke="#63b8ff" points="560.84,-457.95 570.5,-453.6 560.24,-450.97 560.84,-457.95"/>
</a>
</g>
</g>
<!-- Node16 -->
<g id="Node000016" class="node">
<title>Node16</title>
<g id="a_Node000016"><a xlink:href="CCSDSResult_8h.html" target="_top" xlink:title=" ">
<polygon fill="white" stroke="#666666" points="305.5,-74 216.5,-74 216.5,-55 305.5,-55 305.5,-74"/>
<text text-anchor="middle" x="261" y="-62" font-family="Helvetica,sans-Serif" font-size="10.00">CCSDSResult.h</text>
</a>
</g>
</g>
<!-- Node1&#45;&gt;Node16 -->
<g id="edge50_Node000001_Node000016" class="edge">
<title>Node1&#45;&gt;Node16</title>
<g id="a_edge50_Node000001_Node000016"><a xlink:title=" ">
<path fill="none" stroke="#63b8ff" d="M533.82,-558.49C397.32,-556.83 76,-543.11 76,-450.5 76,-450.5 76,-450.5 76,-173.5 76,-112.58 151.74,-85.4 206.3,-73.73"/>
<polygon fill="#63b8ff" stroke="#63b8ff" points="207.11,-77.14 216.22,-71.73 205.72,-70.28 207.11,-77.14"/>
</a>
</g>
</g>
<!-- Node19 -->
<g id="Node000019" class="node">
<title>Node19</title>
<g id="a_Node000019"><a xlink:href="CCSDSHeader_8h.html" target="_top" xlink:title=" ">
<polygon fill="white" stroke="#666666" points="863.5,-129 770.5,-129 770.5,-110 863.5,-110 863.5,-129"/>
<text text-anchor="middle" x="817" y="-117" font-family="Helvetica,sans-Serif" font-size="10.00">CCSDSHeader.h</text>
</a>
</g>
</g>
<!-- Node1&#45;&gt;Node19 -->
<g id="edge49_Node000001_Node000019" class="edge">
<title>Node1&#45;&gt;Node19</title>
<g id="a_edge49_Node000001_Node000019"><a xlink:title=" ">
<path fill="none" stroke="#63b8ff" d="M654.06,-555.47C739.86,-550.35 892.61,-538.12 942,-514 978,-496.42 1006,-490.57 1006,-450.5 1006,-450.5 1006,-450.5 1006,-393.5 1006,-276.01 886.2,-172.56 837.36,-135.26"/>
<polygon fill="#63b8ff" stroke="#63b8ff" points="839.21,-132.28 829.11,-129.08 835.01,-137.88 839.21,-132.28"/>
</a>
</g>
</g>
<!-- Node27 -->
<g id="Node000027" class="node">
<title>Node27</title>
<g id="a_Node000027"><a xlink:href="CCSDSUtils_8h.html" target="_top" xlink:title=" ">
<polygon fill="white" stroke="#666666" points="932.5,-514 851.5,-514 851.5,-495 932.5,-495 932.5,-514"/>
<text text-anchor="middle" x="892" y="-502" font-family="Helvetica,sans-Serif" font-size="10.00">CCSDSUtils.h</text>
</a>
</g>
</g>
<!-- Node1&#45;&gt;Node27 -->
<g id="edge51_Node000001_Node000027" class="edge">
<title>Node1&#45;&gt;Node27</title>
<g id="a_edge51_Node000001_Node000027"><a xlink:title=" ">
<path fill="none" stroke="#63b8ff" d="M641.88,-549.98C696.55,-540.26 785.62,-524.42 841.41,-514.5"/>
<polygon fill="#63b8ff" stroke="#63b8ff" points="842.19,-517.91 851.42,-512.72 840.96,-511.02 842.19,-517.91"/>
</a>
</g>
</g>
<!-- Node14 -->
<g id="Node000014" class="node">
<title>Node14</title>
<g id="a_Node000014"><a xlink:title=" ">
<polygon fill="#e0e0e0" stroke="#999999" points="668.5,-404 623.5,-404 623.5,-385 668.5,-385 668.5,-404"/>
<text text-anchor="middle" x="646" y="-392" font-family="Helvetica,sans-Serif" font-size="10.00">utility</text>
</a>
</g>
</g>
<!-- Node13&#45;&gt;Node14 -->
<g id="edge13_Node000013_Node000014" class="edge">
<title>Node13&#45;&gt;Node14</title>
<g id="a_edge13_Node000013_Node000014"><a xlink:title=" ">
<path fill="none" stroke="#63b8ff" d="M625.13,-439.75C628.51,-432.57 633.42,-422.18 637.62,-413.27"/>
<polygon fill="#63b8ff" stroke="#63b8ff" points="640.85,-414.63 641.95,-404.09 634.52,-411.64 640.85,-414.63"/>
</a>
</g>
</g>
<!-- Node15 -->
<g id="Node000015" class="node">
<title>Node15</title>
<g id="a_Node000015"><a xlink:href="CCSDSPacket_8h.html" target="_top" xlink:title=" ">
<polygon fill="white" stroke="#666666" points="784,-349 694,-349 694,-330 784,-330 784,-349"/>
<text text-anchor="middle" x="739" y="-337" font-family="Helvetica,sans-Serif" font-size="10.00">CCSDSPacket.h</text>
</a>
</g>
</g>
<!-- Node13&#45;&gt;Node15 -->
<g id="edge14_Node000013_Node000015" class="edge">
<title>Node13&#45;&gt;Node15</title>
<g id="a_edge14_Node000013_Node000015"><a xlink:title=" ">
<path fill="none" stroke="#63b8ff" d="M616.88,-439.78C611.33,-426.62 603.4,-401.48 615,-385 630.69,-362.71 658.64,-351.53 684.04,-345.94"/>
<polygon fill="#63b8ff" stroke="#63b8ff" points="684.84,-349.35 693.99,-344 683.5,-342.48 684.84,-349.35"/>
</a>
</g>
</g>
<!-- Node13&#45;&gt;Node16 -->
<g id="edge46_Node000013_Node000016" class="edge">
<title>Node13&#45;&gt;Node16</title>
<g id="a_edge46_Node000013_Node000016"><a xlink:title=" ">
<path fill="none" stroke="#63b8ff" d="M570.07,-448.35C441.5,-446.61 114,-433.08 114,-340.5 114,-340.5 114,-340.5 114,-173.5 114,-121.64 174.14,-91.94 217.49,-77.27"/>
<polygon fill="#63b8ff" stroke="#63b8ff" points="218.83,-80.51 227.28,-74.11 216.68,-73.85 218.83,-80.51"/>
</a>
</g>
</g>
<!-- Node26 -->
<g id="Node000026" class="node">
<title>Node26</title>
<g id="a_Node000026"><a xlink:href="CCSDSValidator_8h.html" target="_top" xlink:title="Defines the Validator class for CCSDS packet validation.">
<polygon fill="white" stroke="#666666" points="787.5,-404 686.5,-404 686.5,-385 787.5,-385 787.5,-404"/>
<text text-anchor="middle" x="737" y="-392" font-family="Helvetica,sans-Serif" font-size="10.00">CCSDSValidator.h</text>
</a>
</g>
</g>
<!-- Node13&#45;&gt;Node26 -->
<g id="edge47_Node000013_Node000026" class="edge">
<title>Node13&#45;&gt;Node26</title>
<g id="a_edge47_Node000013_Node000026"><a xlink:title=" ">
<path fill="none" stroke="#63b8ff" d="M639.64,-439.98C658.3,-431.46 687.25,-418.23 708.74,-408.41"/>
<polygon fill="#63b8ff" stroke="#63b8ff" points="710.38,-411.51 718.02,-404.17 707.47,-405.14 710.38,-411.51"/>
</a>
</g>
</g>
<!-- Node15&#45;&gt;Node4 -->
<g id="edge22_Node000015_Node000004" class="edge">
<title>Node15&#45;&gt;Node4</title>
<g id="a_edge22_Node000015_Node000004"><a xlink:title=" ">
<path fill="none" stroke="#63b8ff" d="M747.36,-329.7C772.93,-302.29 850.85,-215.16 892,-129 906.46,-98.72 912.43,-88.12 907,-55 905.53,-46.05 902.51,-36.47 899.56,-28.51"/>
<polygon fill="#63b8ff" stroke="#63b8ff" points="902.79,-27.16 895.86,-19.15 896.28,-29.74 902.79,-27.16"/>
</a>
</g>
</g>
<!-- Node15&#45;&gt;Node16 -->
<g id="edge15_Node000015_Node000016" class="edge">
<title>Node15&#45;&gt;Node16</title>
<g id="a_edge15_Node000015_Node000016"><a xlink:title=" ">
<path fill="none" stroke="#63b8ff" d="M693.91,-334.97C556.46,-323.62 152,-285.55 152,-230.5 152,-230.5 152,-230.5 152,-173.5 152,-128.28 199.92,-95.55 232.22,-78.62"/>
<polygon fill="#63b8ff" stroke="#63b8ff" points="233.9,-81.69 241.26,-74.07 230.75,-75.44 233.9,-81.69"/>
</a>
</g>
</g>
<!-- Node18 -->
<g id="Node000018" class="node">
<title>Node18</title>
<g id="a_Node000018"><a xlink:title=" ">
<polygon fill="#e0e0e0" stroke="#999999" points="710,-19 660,-19 660,0 710,0 710,-19"/>
<text text-anchor="middle" x="685" y="-7" font-family="Helvetica,sans-Serif" font-size="10.00">cstdint</text>
</a>
</g>
</g>
<!-- Node15&#45;&gt;Node18 -->
<g id="edge21_Node000015_Node000018" class="edge">
<title>Node15&#45;&gt;Node18</title>
<g id="a_edge21_Node000015_Node000018"><a xlink:title=" ">
<path fill="none" stroke="#63b8ff" d="M737.56,-329.73C730.35,-285.99 698.28,-91.14 688.1,-29.36"/>
<polygon fill="#63b8ff" stroke="#63b8ff" points="691.5,-28.45 686.42,-19.15 684.59,-29.58 691.5,-28.45"/>
</a>
</g>
</g>
<!-- Node15&#45;&gt;Node19 -->
<g id="edge23_Node000015_Node000019" class="edge">
<title>Node15&#45;&gt;Node19</title>
<g id="a_edge23_Node000015_Node000019"><a xlink:title=" ">
<path fill="none" stroke="#63b8ff" d="M742.33,-329.99C745.8,-321.06 751.39,-306.58 756,-294 776.65,-237.69 799.84,-170.6 810.72,-138.87"/>
<polygon fill="#63b8ff" stroke="#63b8ff" points="814.11,-139.79 814.04,-129.19 807.48,-137.52 814.11,-139.79"/>
</a>
</g>
</g>
<!-- Node20 -->
<g id="Node000020" class="node">
<title>Node20</title>
<g id="a_Node000020"><a xlink:href="CCSDSDataField_8h.html" target="_top" xlink:title=" ">
<polygon fill="white" stroke="#666666" points="593.5,-294 488.5,-294 488.5,-275 593.5,-275 593.5,-294"/>
<text text-anchor="middle" x="541" y="-282" font-family="Helvetica,sans-Serif" font-size="10.00">CCSDSDataField.h</text>
</a>
</g>
</g>
<!-- Node15&#45;&gt;Node20 -->
<g id="edge27_Node000015_Node000020" class="edge">
<title>Node15&#45;&gt;Node20</title>
<g id="a_edge27_Node000015_Node000020"><a xlink:title=" ">
<path fill="none" stroke="#63b8ff" d="M707.19,-329.98C673.51,-320.97 620.2,-306.7 583.08,-296.76"/>
<polygon fill="#63b8ff" stroke="#63b8ff" points="583.63,-293.29 573.06,-294.08 581.82,-300.05 583.63,-293.29"/>
</a>
</g>
</g>
<!-- Node16&#45;&gt;Node2 -->
<g id="edge16_Node000016_Node000002" class="edge">
<title>Node16&#45;&gt;Node2</title>
<g id="a_edge16_Node000016_Node000002"><a xlink:title=" ">
<path fill="none" stroke="#63b8ff" d="M267.77,-54.75C273.56,-47.26 282.06,-36.28 289.14,-27.13"/>
<polygon fill="#63b8ff" stroke="#63b8ff" points="292.01,-29.14 295.36,-19.09 286.47,-24.86 292.01,-29.14"/>
</a>
</g>
</g>
<!-- Node16&#45;&gt;Node4 -->
<g id="edge18_Node000016_Node000004" class="edge">
<title>Node16&#45;&gt;Node4</title>
<g id="a_edge18_Node000016_Node000004"><a xlink:title=" ">
<path fill="none" stroke="#63b8ff" d="M305.62,-59.75C425.45,-49.69 752.33,-22.23 858.33,-13.33"/>
<polygon fill="#63b8ff" stroke="#63b8ff" points="858.78,-16.8 868.45,-12.48 858.19,-9.83 858.78,-16.8"/>
</a>
</g>
</g>
<!-- Node16&#45;&gt;Node6 -->
<g id="edge20_Node000016_Node000006" class="edge">
<title>Node16&#45;&gt;Node6</title>
<g id="a_edge20_Node000016_Node000006"><a xlink:title=" ">
<path fill="none" stroke="#63b8ff" d="M226.94,-54.98C189.36,-45.59 128.94,-30.49 89.11,-20.53"/>
<polygon fill="#63b8ff" stroke="#63b8ff" points="89.75,-17.08 79.2,-18.05 88.05,-23.87 89.75,-17.08"/>
</a>
</g>
</g>
<!-- Node17 -->
<g id="Node000017" class="node">
<title>Node17</title>
<g id="a_Node000017"><a xlink:title=" ">
<polygon fill="#e0e0e0" stroke="#999999" points="237.5,-19 186.5,-19 186.5,0 237.5,0 237.5,-19"/>
<text text-anchor="middle" x="212" y="-7" font-family="Helvetica,sans-Serif" font-size="10.00">variant</text>
</a>
</g>
</g>
<!-- Node16&#45;&gt;Node17 -->
<g id="edge17_Node000016_Node000017" class="edge">
<title>Node16&#45;&gt;Node17</title>
<g id="a_edge17_Node000016_Node000017"><a xlink:title=" ">
<path fill="none" stroke="#63b8ff" d="M252.91,-54.75C245.84,-47.11 235.41,-35.82 226.85,-26.56"/>
<polygon fill="#63b8ff" stroke="#63b8ff" points="229.3,-24.06 219.94,-19.09 224.16,-28.81 229.3,-24.06"/>
</a>
</g>
</g>
<!-- Node16&#45;&gt;Node18 -->
<g id="edge19_Node000016_Node000018" class="edge">
<title>Node16&#45;&gt;Node18</title>
<g id="a_edge19_Node000016_Node000018"><a xlink:title=" ">
<path fill="none" stroke="#63b8ff" d="M305.57,-57.93C390.25,-47.34 572.78,-24.53 649.69,-14.91"/>
<polygon fill="#63b8ff" stroke="#63b8ff" points="650.33,-18.36 659.82,-13.65 649.46,-11.42 650.33,-18.36"/>
</a>
</g>
</g>
<!-- Node19&#45;&gt;Node4 -->
<g id="edge26_Node000019_Node000004" class="edge">
<title>Node19&#45;&gt;Node4</title>
<g id="a_edge26_Node000019_Node000004"><a xlink:title=" ">
<path fill="none" stroke="#63b8ff" d="M823.14,-109.66C835.62,-91.69 864.12,-50.64 880.28,-27.38"/>
<polygon fill="#63b8ff" stroke="#63b8ff" points="883.16,-29.37 885.99,-19.16 877.41,-25.38 883.16,-29.37"/>
</a>
</g>
</g>
<!-- Node19&#45;&gt;Node16 -->
<g id="edge24_Node000019_Node000016" class="edge">
<title>Node19&#45;&gt;Node16</title>
<g id="a_edge24_Node000019_Node000016"><a xlink:title=" ">
<path fill="none" stroke="#63b8ff" d="M770.07,-114.03C667.74,-104.27 424.94,-81.13 315.8,-70.72"/>
<polygon fill="#63b8ff" stroke="#63b8ff" points="315.95,-67.22 305.66,-69.76 315.29,-74.19 315.95,-67.22"/>
</a>
</g>
</g>
<!-- Node19&#45;&gt;Node18 -->
<g id="edge25_Node000019_Node000018" class="edge">
<title>Node19&#45;&gt;Node18</title>
<g id="a_edge25_Node000019_Node000018"><a xlink:title=" ">
<path fill="none" stroke="#63b8ff" d="M809.71,-109.62C798.83,-96.7 777.35,-72.36 756,-55 741.69,-43.37 724.15,-32.35 710.08,-24.18"/>
<polygon fill="#63b8ff" stroke="#63b8ff" points="711.4,-20.91 700.98,-19.01 707.94,-26.99 711.4,-20.91"/>
</a>
</g>
</g>
<!-- Node20&#45;&gt;Node4 -->
<g id="edge30_Node000020_Node000004" class="edge">
<title>Node20&#45;&gt;Node4</title>
<g id="a_edge30_Node000020_Node000004"><a xlink:title=" ">
<path fill="none" stroke="#63b8ff" d="M593.53,-275.14C668.72,-260.2 805.38,-221.32 873,-129 894.67,-99.41 895.52,-54.48 893.94,-29.3"/>
<polygon fill="#63b8ff" stroke="#63b8ff" points="897.42,-28.92 893.11,-19.25 890.45,-29.5 897.42,-28.92"/>
</a>
</g>
</g>
<!-- Node20&#45;&gt;Node16 -->
<g id="edge28_Node000020_Node000016" class="edge">
<title>Node20&#45;&gt;Node16</title>
<g id="a_edge28_Node000020_Node000016"><a xlink:title=" ">
<path fill="none" stroke="#63b8ff" d="M488.29,-278.68C408.04,-268.01 259.25,-234.28 209,-129 199.96,-110.06 218.54,-91.89 235.95,-79.87"/>
<polygon fill="#63b8ff" stroke="#63b8ff" points="238.28,-82.54 244.8,-74.18 234.49,-76.65 238.28,-82.54"/>
</a>
</g>
</g>
<!-- Node20&#45;&gt;Node18 -->
<g id="edge29_Node000020_Node000018" class="edge">
<title>Node20&#45;&gt;Node18</title>
<g id="a_edge29_Node000020_Node000018"><a xlink:title=" ">
<path fill="none" stroke="#63b8ff" d="M565.7,-274.97C602.12,-260.62 666,-227.98 666,-175.5 666,-175.5 666,-175.5 666,-118.5 666,-86.56 674.16,-50.1 679.78,-28.77"/>
<polygon fill="#63b8ff" stroke="#63b8ff" points="683.17,-29.66 682.44,-19.09 676.42,-27.81 683.17,-29.66"/>
</a>
</g>
</g>
<!-- Node21 -->
<g id="Node000021" class="node">
<title>Node21</title>
<g id="a_Node000021"><a xlink:title=" ">
<polygon fill="#e0e0e0" stroke="#999999" points="276,-129 218,-129 218,-110 276,-110 276,-129"/>
<text text-anchor="middle" x="247" y="-117" font-family="Helvetica,sans-Serif" font-size="10.00">memory</text>
</a>
</g>
</g>
<!-- Node20&#45;&gt;Node21 -->
<g id="edge31_Node000020_Node000021" class="edge">
<title>Node20&#45;&gt;Node21</title>
<g id="a_edge31_Node000020_Node000021"><a xlink:title=" ">
<path fill="none" stroke="#63b8ff" d="M507.65,-274.93C459.09,-261.33 367.57,-231.38 302,-184 284.16,-171.11 268.24,-151.34 258.17,-137.29"/>
<polygon fill="#63b8ff" stroke="#63b8ff" points="261.01,-135.25 252.44,-129.01 255.26,-139.23 261.01,-135.25"/>
</a>
</g>
</g>
<!-- Node22 -->
<g id="Node000022" class="node">
<title>Node22</title>
<g id="a_Node000022"><a xlink:href="CCSDSSecondaryHeaderAbstract_8h.html" target="_top" xlink:title=" ">
<polygon fill="white" stroke="#666666" points="638.5,-129 453.5,-129 453.5,-110 638.5,-110 638.5,-129"/>
<text text-anchor="middle" x="546" y="-117" font-family="Helvetica,sans-Serif" font-size="10.00">CCSDSSecondaryHeaderAbstract.h</text>
</a>
</g>
</g>
<!-- Node20&#45;&gt;Node22 -->
<g id="edge32_Node000020_Node000022" class="edge">
<title>Node20&#45;&gt;Node22</title>
<g id="a_edge32_Node000020_Node000022"><a xlink:title=" ">
<path fill="none" stroke="#63b8ff" d="M544.6,-274.82C548.06,-265.99 553.03,-251.81 555,-239 560.38,-203.95 554.48,-162.55 550.02,-139.12"/>
<polygon fill="#63b8ff" stroke="#63b8ff" points="553.42,-138.28 548,-129.18 546.56,-139.67 553.42,-138.28"/>
</a>
</g>
</g>
<!-- Node23 -->
<g id="Node000023" class="node">
<title>Node23</title>
<g id="a_Node000023"><a xlink:href="CCSDSSecondaryHeaderFactory_8h.html" target="_top" xlink:title=" ">
<polygon fill="white" stroke="#666666" points="511.5,-184 332.5,-184 332.5,-165 511.5,-165 511.5,-184"/>
<text text-anchor="middle" x="422" y="-172" font-family="Helvetica,sans-Serif" font-size="10.00">CCSDSSecondaryHeaderFactory.h</text>
</a>
</g>
</g>
<!-- Node20&#45;&gt;Node23 -->
<g id="edge36_Node000020_Node000023" class="edge">
<title>Node20&#45;&gt;Node23</title>
<g id="a_edge36_Node000020_Node000023"><a xlink:title=" ">
<path fill="none" stroke="#63b8ff" d="M513.54,-274.88C494.57,-267.78 469.83,-256.07 453,-239 440.63,-226.46 432.38,-208 427.53,-194.22"/>
<polygon fill="#63b8ff" stroke="#63b8ff" points="430.75,-192.8 424.34,-184.36 424.09,-194.96 430.75,-192.8"/>
</a>
</g>
</g>
<!-- Node25 -->
<g id="Node000025" class="node">
<title>Node25</title>
<g id="a_Node000025"><a xlink:href="PusServices_8h.html" target="_top" xlink:title=" ">
<polygon fill="white" stroke="#666666" points="546,-239 462,-239 462,-220 546,-220 546,-239"/>
<text text-anchor="middle" x="504" y="-227" font-family="Helvetica,sans-Serif" font-size="10.00">PusServices.h</text>
</a>
</g>
</g>
<!-- Node20&#45;&gt;Node25 -->
<g id="edge42_Node000020_Node000025" class="edge">
<title>Node20&#45;&gt;Node25</title>
<g id="a_edge42_Node000020_Node000025"><a xlink:title=" ">
<path fill="none" stroke="#63b8ff" d="M534.89,-274.75C529.72,-267.34 522.15,-256.5 515.81,-247.41"/>
<polygon fill="#63b8ff" stroke="#63b8ff" points="518.59,-245.29 510,-239.09 512.85,-249.29 518.59,-245.29"/>
</a>
</g>
</g>
<!-- Node22&#45;&gt;Node4 -->
<g id="edge34_Node000022_Node000004" class="edge">
<title>Node22&#45;&gt;Node4</title>
<g id="a_edge34_Node000022_Node000004"><a xlink:title=" ">
<path fill="none" stroke="#63b8ff" d="M573.44,-109.94C636.23,-90.34 790.2,-42.28 858.47,-20.97"/>
<polygon fill="#63b8ff" stroke="#63b8ff" points="859.78,-24.22 868.28,-17.9 857.69,-17.54 859.78,-24.22"/>
</a>
</g>
</g>
<!-- Node22&#45;&gt;Node16 -->
<g id="edge33_Node000022_Node000016" class="edge">
<title>Node22&#45;&gt;Node16</title>
<g id="a_edge33_Node000022_Node000016"><a xlink:title=" ">
<path fill="none" stroke="#63b8ff" d="M500.21,-109.98C449.95,-100.64 369.3,-85.64 315.74,-75.68"/>
<polygon fill="#63b8ff" stroke="#63b8ff" points="316.21,-72.21 305.74,-73.82 314.93,-79.09 316.21,-72.21"/>
</a>
</g>
</g>
<!-- Node22&#45;&gt;Node18 -->
<g id="edge35_Node000022_Node000018" class="edge">
<title>Node22&#45;&gt;Node18</title>
<g id="a_edge35_Node000022_Node000018"><a xlink:title=" ">
<path fill="none" stroke="#63b8ff" d="M552.23,-109.84C561.96,-96.75 581.84,-71.71 603,-55 619.15,-42.25 639.47,-31.19 655.84,-23.29"/>
<polygon fill="#63b8ff" stroke="#63b8ff" points="657.4,-26.43 664.96,-19.01 654.42,-20.09 657.4,-26.43"/>
</a>
</g>
</g>
<!-- Node23&#45;&gt;Node2 -->
<g id="edge38_Node000023_Node000002" class="edge">
<title>Node23&#45;&gt;Node2</title>
<g id="a_edge38_Node000023_Node000002"><a xlink:title=" ">
<path fill="none" stroke="#63b8ff" d="M406.63,-164.9C393.48,-156.93 374.71,-144.07 362,-129 335.71,-97.83 317.11,-53.18 308.12,-28.55"/>
<polygon fill="#63b8ff" stroke="#63b8ff" points="311.39,-27.3 304.77,-19.03 304.79,-29.63 311.39,-27.3"/>
</a>
</g>
</g>
<!-- Node23&#45;&gt;Node3 -->
<g id="edge40_Node000023_Node000003" class="edge">
<title>Node23&#45;&gt;Node3</title>
<g id="a_edge40_Node000023_Node000003"><a xlink:title=" ">
<path fill="none" stroke="#63b8ff" d="M511.55,-165.54C646.92,-153.5 897.26,-131.24 985.88,-123.36"/>
<polygon fill="#63b8ff" stroke="#63b8ff" points="986.22,-126.84 995.87,-122.47 985.6,-119.87 986.22,-126.84"/>
</a>
</g>
</g>
<!-- Node23&#45;&gt;Node21 -->
<g id="edge37_Node000023_Node000021" class="edge">
<title>Node23&#45;&gt;Node21</title>
<g id="a_edge37_Node000023_Node000021"><a xlink:title=" ">
<path fill="none" stroke="#63b8ff" d="M393.88,-164.98C364.38,-156.05 317.81,-141.94 285.03,-132.02"/>
<polygon fill="#63b8ff" stroke="#63b8ff" points="285.92,-128.63 275.34,-129.08 283.89,-135.33 285.92,-128.63"/>
</a>
</g>
</g>
<!-- Node23&#45;&gt;Node22 -->
<g id="edge41_Node000023_Node000022" class="edge">
<title>Node23&#45;&gt;Node22</title>
<g id="a_edge41_Node000023_Node000022"><a xlink:title=" ">
<path fill="none" stroke="#63b8ff" d="M441.92,-164.98C462.05,-156.38 493.38,-142.99 516.41,-133.15"/>
<polygon fill="#63b8ff" stroke="#63b8ff" points="517.9,-136.32 525.71,-129.17 515.14,-129.88 517.9,-136.32"/>
</a>
</g>
</g>
<!-- Node24 -->
<g id="Node000024" class="node">
<title>Node24</title>
<g id="a_Node000024"><a xlink:title=" ">
<polygon fill="#e0e0e0" stroke="#999999" points="435.5,-129 370.5,-129 370.5,-110 435.5,-110 435.5,-129"/>
<text text-anchor="middle" x="403" y="-117" font-family="Helvetica,sans-Serif" font-size="10.00">functional</text>
</a>
</g>
</g>
<!-- Node23&#45;&gt;Node24 -->
<g id="edge39_Node000023_Node000024" class="edge">
<title>Node23&#45;&gt;Node24</title>
<g id="a_edge39_Node000023_Node000024"><a xlink:title=" ">
<path fill="none" stroke="#63b8ff" d="M418.86,-164.75C416.32,-157.65 412.64,-147.4 409.47,-138.56"/>
<polygon fill="#63b8ff" stroke="#63b8ff" points="412.75,-137.32 406.08,-129.09 406.16,-139.68 412.75,-137.32"/>
</a>
</g>
</g>
<!-- Node25&#45;&gt;Node16 -->
<g id="edge45_Node000025_Node000016" class="edge">
<title>Node25&#45;&gt;Node16</title>
<g id="a_edge45_Node000025_Node000016"><a xlink:title=" ">
<path fill="none" stroke="#63b8ff" d="M461.92,-227.66C422.48,-224.83 363.8,-215.15 324,-184 294.72,-161.09 302.49,-142.81 285,-110 280.24,-101.08 274.91,-91.18 270.48,-82.98"/>
<polygon fill="#63b8ff" stroke="#63b8ff" points="273.46,-81.15 265.63,-74.02 267.31,-84.48 273.46,-81.15"/>
</a>
</g>
</g>
<!-- Node25&#45;&gt;Node22 -->
<g id="edge43_Node000025_Node000022" class="edge">
<title>Node25&#45;&gt;Node22</title>
<g id="a_edge43_Node000025_Node000022"><a xlink:title=" ">
<path fill="none" stroke="#63b8ff" d="M507.44,-219.66C514.3,-202.01 529.83,-162.09 538.95,-138.64"/>
<polygon fill="#63b8ff" stroke="#63b8ff" points="542.27,-139.75 542.63,-129.16 535.75,-137.21 542.27,-139.75"/>
</a>
</g>
</g>
<!-- Node25&#45;&gt;Node23 -->
<g id="edge44_Node000025_Node000023" class="edge">
<title>Node25&#45;&gt;Node23</title>
<g id="a_edge44_Node000025_Node000023"><a xlink:title=" ">
<path fill="none" stroke="#63b8ff" d="M490.83,-219.98C478.23,-211.84 459,-199.41 444.06,-189.76"/>
<polygon fill="#63b8ff" stroke="#63b8ff" points="445.71,-186.66 435.41,-184.17 441.91,-192.54 445.71,-186.66"/>
</a>
</g>
</g>
<!-- Node26&#45;&gt;Node15 -->
<g id="edge48_Node000026_Node000015" class="edge">
<title>Node26&#45;&gt;Node15</title>
<g id="a_edge48_Node000026_Node000015"><a xlink:title=" ">
<path fill="none" stroke="#63b8ff" d="M737.33,-384.75C737.59,-377.8 737.97,-367.85 738.3,-359.13"/>
<polygon fill="#63b8ff" stroke="#63b8ff" points="741.8,-359.21 738.68,-349.09 734.8,-358.95 741.8,-359.21"/>
</a>
</g>
</g>
<!-- Node27&#45;&gt;Node3 -->
<g id="edge54_Node000027_Node000003" class="edge">
<title>Node27&#45;&gt;Node3</title>
<g id="a_edge54_Node000027_Node000003"><a xlink:title=" ">
<path fill="none" stroke="#63b8ff" d="M906.66,-494.8C918.57,-486.94 934.85,-474.3 944,-459 1008.73,-350.79 1017.07,-192.83 1017.97,-139.15"/>
<polygon fill="#63b8ff" stroke="#63b8ff" points="1021.47,-139.11 1018.06,-129.08 1014.47,-139.05 1021.47,-139.11"/>
</a>
</g>
</g>
<!-- Node27&#45;&gt;Node4 -->
<g id="edge56_Node000027_Node000004" class="edge">
<title>Node27&#45;&gt;Node4</title>
<g id="a_edge56_Node000027_Node000004"><a xlink:title=" ">
<path fill="none" stroke="#63b8ff" d="M897.28,-494.9C907.73,-477.07 930,-434.46 930,-395.5 930,-395.5 930,-395.5 930,-338.5 930,-264.11 968,-249.89 968,-175.5 968,-175.5 968,-175.5 968,-118.5 968,-79.47 934.39,-44.58 911.87,-25.6"/>
<polygon fill="#63b8ff" stroke="#63b8ff" points="913.85,-22.7 903.88,-19.12 909.44,-28.14 913.85,-22.7"/>
</a>
</g>
</g>
<!-- Node27&#45;&gt;Node13 -->
<g id="edge53_Node000027_Node000013" class="edge">
<title>Node27&#45;&gt;Node13</title>
<g id="a_edge53_Node000027_Node000013"><a xlink:title=" ">
<path fill="none" stroke="#63b8ff" d="M851.43,-495.57C804.36,-486.36 726.59,-471.15 674.59,-460.98"/>
<polygon fill="#63b8ff" stroke="#63b8ff" points="675.03,-457.5 664.55,-459.02 673.69,-464.37 675.03,-457.5"/>
</a>
</g>
</g>
<!-- Node27&#45;&gt;Node15 -->
<g id="edge52_Node000027_Node000015" class="edge">
<title>Node27&#45;&gt;Node15</title>
<g id="a_edge52_Node000027_Node000015"><a xlink:title=" ">
<path fill="none" stroke="#63b8ff" d="M879.83,-494.95C868.58,-486.65 851.87,-473.24 840,-459 815.65,-429.78 822.12,-413.56 797,-385 786.81,-373.42 773.23,-362.81 761.77,-354.85"/>
<polygon fill="#63b8ff" stroke="#63b8ff" points="763.4,-351.73 753.14,-349.07 759.5,-357.55 763.4,-351.73"/>
</a>
</g>
</g>
<!-- Node27&#45;&gt;Node18 -->
<g id="edge55_Node000027_Node000018" class="edge">
<title>Node27&#45;&gt;Node18</title>
<g id="a_edge55_Node000027_Node000018"><a xlink:title=" ">
<path fill="none" stroke="#63b8ff" d="M886.72,-494.9C876.27,-477.07 854,-434.46 854,-395.5 854,-395.5 854,-395.5 854,-283.5 854,-275.98 733.71,-86.84 696.1,-27.88"/>
<polygon fill="#63b8ff" stroke="#63b8ff" points="698.95,-25.84 690.62,-19.3 693.05,-29.61 698.95,-25.84"/>
</a>
</g>
</g>
</g>
</svg>
