<?xml version="1.0" encoding="UTF-8" standalone="no"?>
<!DOCTYPE svg PUBLIC "-//W3C//DTD SVG 1.1//EN"
 "http://www.w3.org/Graphics/SVG/1.1/DTD/svg11.dtd">
<!-- Generated by graphviz version 2.43.0 (0)
 -->
<!-- Title: src/exec_encoder.cpp Pages: 1 -->
<svg width="1076pt" height="577pt"
 viewBox="0.00 0.00 1076.00 577.00" xmlns="http://www.w3.org/2000/svg" xmlns:xlink="http://www.w3.org/1999/xlink">
<g id="graph0" class="graph" transform="scale(1 1) rotate(0) translate(4 573)">
<title>src/exec_encoder.cpp</title>
<!-- Node1 -->
<g id="Node000001" class="node">
<title>Node1</title>
<g id="a_Node000001"><a xlink:title=" ">
<polygon fill="#999999" stroke="#666666" points="686,-569 566,-569 566,-550 686,-550 686,-569"/>
<text text-anchor="middle" x="626" y="-557" font-family="Helvetica,sans-Serif" font-size="10.00">src/exec_encoder.cpp</text>
</a>
</g>
</g>
<!-- Node2 -->
<g id="Node000002" class="node">
<title>Node2</title>
<g id="a_Node000002"><a xlink:title=" ">
<polygon fill="#e0e0e0" stroke="#999999" points="345.5,-19 252.5,-19 252.5,0 345.5,0 345.5,-19"/>
<text text-anchor="middle" x="299" y="-7" font-family="Helvetica,sans-Serif" font-size="10.00">unordered_map</text>
</a>
</g>
</g>
<!-- Node1&#45;&gt;Node2 -->
<g id="edge1_Node000001_Node000002" class="edge">
<title>Node1&#45;&gt;Node2</title>
<g id="a_edge1_Node000001_Node000002"><a xlink:title=" ">
<path fill="none" stroke="#63b8ff" d="M565.66,-558.06C447.4,-556.42 189.63,-548.83 109,-514 70.14,-497.21 38,-492.83 38,-450.5 38,-450.5 38,-450.5 38,-118.5 38,-30.74 165.55,-12.9 242.32,-10.11"/>
<polygon fill="#63b8ff" stroke="#63b8ff" points="242.44,-13.61 252.34,-9.82 242.24,-6.61 242.44,-13.61"/>
</a>
</g>
</g>
<!-- Node3 -->
<g id="Node000003" class="node">
<title>Node3</title>
<g id="a_Node000003"><a xlink:title=" ">
<polygon fill="#e0e0e0" stroke="#999999" points="1040,-129 996,-129 996,-110 1040,-110 1040,-129"/>
<text text-anchor="middle" x="1018" y="-117" font-family="Helvetica,sans-Serif" font-size="10.00">string</text>
</a>
</g>
</g>
<!-- Node1&#45;&gt;Node3 -->
<g id="edge2_Node000001_Node000003" class="edge">
<title>Node1&#45;&gt;Node3</title>
<g id="a_edge2_Node000001_Node000003"><a xlink:title=" ">
<path fill="none" stroke="#63b8ff" d="M686.12,-555.98C772.41,-551.51 926.34,-540.07 975,-514 1007.91,-496.37 1030,-487.84 1030,-450.5 1030,-450.5 1030,-450.5 1030,-228.5 1030,-197 1024.89,-160.64 1021.34,-139.16"/>
<polygon fill="#63b8ff" stroke="#63b8ff" points="1024.76,-138.4 1019.62,-129.14 1017.87,-139.59 1024.76,-138.4"/>
</a>
</g>
</g>
<!-- Node4 -->
<g id="Node000004" class="node">
<title>Node4</title>
<g id="a_Node000004"><a xlink:title=" ">
<polygon fill="#e0e0e0" stroke="#999999" points="879.5,-19 832.5,-19 832.5,0 879.5,0 879.5,-19"/>
<text text-anchor="middle" x="856" y="-7" font-family="Helvetica,sans-Serif" font-size="10.00">vector</text>
</a>
</g>
</g>
<!-- Node1&#45;&gt;Node4 -->
<g id="edge3_Node000001_Node000004" class="edge">
<title>Node1&#45;&gt;Node4</title>
<g id="a_edge3_Node000001_Node000004"><a xlink:title=" ">
<path fill="none" stroke="#63b8ff" d="M686.07,-556.25C778.38,-552 950.2,-540.68 1005,-514 1040.74,-496.6 1068,-490.26 1068,-450.5 1068,-450.5 1068,-450.5 1068,-118.5 1068,-39.59 949.95,-18.31 890.03,-12.59"/>
<polygon fill="#63b8ff" stroke="#63b8ff" points="890.17,-9.09 879.91,-11.72 889.57,-16.06 890.17,-9.09"/>
</a>
</g>
</g>
<!-- Node5 -->
<g id="Node000005" class="node">
<title>Node5</title>
<g id="a_Node000005"><a xlink:title=" ">
<polygon fill="#e0e0e0" stroke="#999999" points="424,-514 392,-514 392,-495 424,-495 424,-514"/>
<text text-anchor="middle" x="408" y="-502" font-family="Helvetica,sans-Serif" font-size="10.00">set</text>
</a>
</g>
</g>
<!-- Node1&#45;&gt;Node5 -->
<g id="edge4_Node000001_Node000005" class="edge">
<title>Node1&#45;&gt;Node5</title>
<g id="a_edge4_Node000001_Node000005"><a xlink:title=" ">
<path fill="none" stroke="#63b8ff" d="M587.71,-549.95C549.64,-541.33 489.62,-527.41 438,-514 436.73,-513.67 435.44,-513.33 434.13,-512.98"/>
<polygon fill="#63b8ff" stroke="#63b8ff" points="434.73,-509.51 424.16,-510.22 432.86,-516.26 434.73,-509.51"/>
</a>
</g>
</g>
<!-- Node6 -->
<g id="Node000006" class="node">
<title>Node6</title>
<g id="a_Node000006"><a xlink:title=" ">
<polygon fill="#e0e0e0" stroke="#999999" points="138,-19 78,-19 78,0 138,0 138,-19"/>
<text text-anchor="middle" x="108" y="-7" font-family="Helvetica,sans-Serif" font-size="10.00">iostream</text>
</a>
</g>
</g>
<!-- Node1&#45;&gt;Node6 -->
<g id="edge5_Node000001_Node000006" class="edge">
<title>Node1&#45;&gt;Node6</title>
<g id="a_edge5_Node000001_Node000006"><a xlink:title=" ">
<path fill="none" stroke="#63b8ff" d="M565.83,-559.03C439.29,-559.31 150.06,-555.25 62,-514 26.28,-497.27 0,-489.94 0,-450.5 0,-450.5 0,-450.5 0,-118.5 0,-73.37 47.74,-40.51 79.74,-23.55"/>
<polygon fill="#63b8ff" stroke="#63b8ff" points="81.36,-26.65 88.69,-19 78.19,-20.41 81.36,-26.65"/>
</a>
</g>
</g>
<!-- Node7 -->
<g id="Node000007" class="node">
<title>Node7</title>
<g id="a_Node000007"><a xlink:title=" ">
<polygon fill="#e0e0e0" stroke="#999999" points="548,-514 480,-514 480,-495 548,-495 548,-514"/>
<text text-anchor="middle" x="514" y="-502" font-family="Helvetica,sans-Serif" font-size="10.00">filesystem</text>
</a>
</g>
</g>
<!-- Node1&#45;&gt;Node7 -->
<g id="edge6_Node000001_Node000007" class="edge">
<title>Node1&#45;&gt;Node7</title>
<g id="a_edge6_Node000001_Node000007"><a xlink:title=" ">
<path fill="none" stroke="#63b8ff" d="M608.01,-549.98C590.07,-541.5 562.28,-528.35 541.57,-518.54"/>
<polygon fill="#63b8ff" stroke="#63b8ff" points="542.86,-515.28 532.32,-514.17 539.86,-521.61 542.86,-515.28"/>
</a>
</g>
</g>
<!-- Node8 -->
<g id="Node000008" class="node">
<title>Node8</title>
<g id="a_Node000008"><a xlink:title=" ">
<polygon fill="#e0e0e0" stroke="#999999" points="616,-514 566,-514 566,-495 616,-495 616,-514"/>
<text text-anchor="middle" x="591" y="-502" font-family="Helvetica,sans-Serif" font-size="10.00">chrono</text>
</a>
</g>
</g>
<!-- Node1&#45;&gt;Node8 -->
<g id="edge7_Node000001_Node000008" class="edge">
<title>Node1&#45;&gt;Node8</title>
<g id="a_edge7_Node000001_Node000008"><a xlink:title=" ">
<path fill="none" stroke="#63b8ff" d="M620.22,-549.75C615.38,-542.42 608.32,-531.73 602.36,-522.7"/>
<polygon fill="#63b8ff" stroke="#63b8ff" points="605.1,-520.5 596.67,-514.09 599.26,-524.36 605.1,-520.5"/>
</a>
</g>
</g>
<!-- Node9 -->
<g id="Node000009" class="node">
<title>Node9</title>
<g id="a_Node000009"><a xlink:title=" ">
<polygon fill="#e0e0e0" stroke="#999999" points="690,-514 634,-514 634,-495 690,-495 690,-514"/>
<text text-anchor="middle" x="662" y="-502" font-family="Helvetica,sans-Serif" font-size="10.00">iomanip</text>
</a>
</g>
</g>
<!-- Node1&#45;&gt;Node9 -->
<g id="edge8_Node000001_Node000009" class="edge">
<title>Node1&#45;&gt;Node9</title>
<g id="a_edge8_Node000001_Node000009"><a xlink:title=" ">
<path fill="none" stroke="#63b8ff" d="M631.94,-549.75C636.98,-542.34 644.34,-531.5 650.51,-522.41"/>
<polygon fill="#63b8ff" stroke="#63b8ff" points="653.44,-524.33 656.17,-514.09 647.65,-520.39 653.44,-524.33"/>
</a>
</g>
</g>
<!-- Node10 -->
<g id="Node000010" class="node">
<title>Node10</title>
<g id="a_Node000010"><a xlink:title=" ">
<polygon fill="#e0e0e0" stroke="#999999" points="754,-514 708,-514 708,-495 754,-495 754,-514"/>
<text text-anchor="middle" x="731" y="-502" font-family="Helvetica,sans-Serif" font-size="10.00">locale</text>
</a>
</g>
</g>
<!-- Node1&#45;&gt;Node10 -->
<g id="edge9_Node000001_Node000010" class="edge">
<title>Node1&#45;&gt;Node10</title>
<g id="a_edge9_Node000001_Node000010"><a xlink:title=" ">
<path fill="none" stroke="#63b8ff" d="M642.87,-549.98C659.61,-541.54 685.5,-528.47 704.89,-518.68"/>
<polygon fill="#63b8ff" stroke="#63b8ff" points="706.47,-521.8 713.82,-514.17 703.32,-515.55 706.47,-521.8"/>
</a>
</g>
</g>
<!-- Node11 -->
<g id="Node000011" class="node">
<title>Node11</title>
<g id="a_Node000011"><a xlink:title=" ">
<polygon fill="#e0e0e0" stroke="#999999" points="828,-514 772,-514 772,-495 828,-495 828,-514"/>
<text text-anchor="middle" x="800" y="-502" font-family="Helvetica,sans-Serif" font-size="10.00">sstream</text>
</a>
</g>
</g>
<!-- Node1&#45;&gt;Node11 -->
<g id="edge10_Node000001_Node000011" class="edge">
<title>Node1&#45;&gt;Node11</title>
<g id="a_edge10_Node000001_Node000011"><a xlink:title=" ">
<path fill="none" stroke="#63b8ff" d="M653.96,-549.98C683.3,-541.05 729.6,-526.94 762.19,-517.02"/>
<polygon fill="#63b8ff" stroke="#63b8ff" points="763.28,-520.34 771.82,-514.08 761.24,-513.65 763.28,-520.34"/>
</a>
</g>
</g>
<!-- Node12 -->
<g id="Node000012" class="node">
<title>Node12</title>
<g id="a_Node000012"><a xlink:href="CCSDSManager_8h.html" target="_top" xlink:title=" ">
<polygon fill="white" stroke="#666666" points="629.5,-459 528.5,-459 528.5,-440 629.5,-440 629.5,-459"/>
<text text-anchor="middle" x="579" y="-447" font-family="Helvetica,sans-Serif" font-size="10.00">CCSDSManager.h</text>
</a>
</g>
</g>
<!-- Node1&#45;&gt;Node12 -->
<g id="edge11_Node000001_Node000012" class="edge">
<title>Node1&#45;&gt;Node12</title>
<g id="a_edge11_Node000001_Node000012"><a xlink:title=" ">
<path fill="none" stroke="#63b8ff" d="M571.55,-549.95C531.98,-542.5 483.3,-530.32 471,-514 451.98,-488.75 489.36,-471.7 525.24,-461.68"/>
<polygon fill="#63b8ff" stroke="#63b8ff" points="526.49,-464.97 535.27,-459.04 524.71,-458.2 526.49,-464.97"/>
</a>
</g>
</g>
<!-- Node15 -->
<g id="Node000015" class="node">
<title>Node15</title>
<g id="a_Node000015"><a xlink:href="CCSDSResult_8h.html" target="_top" xlink:title=" ">
<polygon fill="white" stroke="#666666" points="429.5,-74 340.5,-74 340.5,-55 429.5,-55 429.5,-74"/>
<text text-anchor="middle" x="385" y="-62" font-family="Helvetica,sans-Serif" font-size="10.00">CCSDSResult.h</text>
</a>
</g>
</g>
<!-- Node1&#45;&gt;Node15 -->
<g id="edge49_Node000001_Node000015" class="edge">
<title>Node1&#45;&gt;Node15</title>
<g id="a_edge49_Node000001_Node000015"><a xlink:title=" ">
<path fill="none" stroke="#63b8ff" d="M565.83,-559.23C423.12,-559.34 76,-549.45 76,-450.5 76,-450.5 76,-450.5 76,-173.5 76,-136.16 98.51,-128.4 131,-110 164.28,-91.16 266.28,-77.64 330.45,-70.74"/>
<polygon fill="#63b8ff" stroke="#63b8ff" points="330.83,-74.22 340.4,-69.69 330.09,-67.26 330.83,-74.22"/>
</a>
</g>
</g>
<!-- Node18 -->
<g id="Node000018" class="node">
<title>Node18</title>
<g id="a_Node000018"><a xlink:href="CCSDSHeader_8h.html" target="_top" xlink:title=" ">
<polygon fill="white" stroke="#666666" points="825.5,-129 732.5,-129 732.5,-110 825.5,-110 825.5,-129"/>
<text text-anchor="middle" x="779" y="-117" font-family="Helvetica,sans-Serif" font-size="10.00">CCSDSHeader.h</text>
</a>
</g>
</g>
<!-- Node1&#45;&gt;Node18 -->
<g id="edge48_Node000001_Node000018" class="edge">
<title>Node1&#45;&gt;Node18</title>
<g id="a_edge48_Node000001_Node000018"><a xlink:title=" ">
<path fill="none" stroke="#63b8ff" d="M686.04,-552.67C740.44,-546.21 815.31,-533.97 837,-514 858.68,-494.05 856,-479.96 856,-450.5 856,-450.5 856,-450.5 856,-283.5 856,-225.04 815.01,-165.11 792.84,-136.98"/>
<polygon fill="#63b8ff" stroke="#63b8ff" points="795.4,-134.58 786.38,-129.01 789.96,-138.98 795.4,-134.58"/>
</a>
</g>
</g>
<!-- Node26 -->
<g id="Node000026" class="node">
<title>Node26</title>
<g id="a_Node000026"><a xlink:href="CCSDSUtils_8h.html" target="_top" xlink:title=" ">
<polygon fill="white" stroke="#666666" points="965.5,-514 884.5,-514 884.5,-495 965.5,-495 965.5,-514"/>
<text text-anchor="middle" x="925" y="-502" font-family="Helvetica,sans-Serif" font-size="10.00">CCSDSUtils.h</text>
</a>
</g>
</g>
<!-- Node1&#45;&gt;Node26 -->
<g id="edge50_Node000001_Node000026" class="edge">
<title>Node1&#45;&gt;Node26</title>
<g id="a_edge50_Node000001_Node000026"><a xlink:title=" ">
<path fill="none" stroke="#63b8ff" d="M674.04,-549.98C728.9,-540.26 818.27,-524.42 874.24,-514.5"/>
<polygon fill="#63b8ff" stroke="#63b8ff" points="875.05,-517.91 884.28,-512.72 873.83,-511.02 875.05,-517.91"/>
</a>
</g>
</g>
<!-- Node13 -->
<g id="Node000013" class="node">
<title>Node13</title>
<g id="a_Node000013"><a xlink:title=" ">
<polygon fill="#e0e0e0" stroke="#999999" points="556.5,-404 511.5,-404 511.5,-385 556.5,-385 556.5,-404"/>
<text text-anchor="middle" x="534" y="-392" font-family="Helvetica,sans-Serif" font-size="10.00">utility</text>
</a>
</g>
</g>
<!-- Node12&#45;&gt;Node13 -->
<g id="edge12_Node000012_Node000013" class="edge">
<title>Node12&#45;&gt;Node13</title>
<g id="a_edge12_Node000012_Node000013"><a xlink:title=" ">
<path fill="none" stroke="#63b8ff" d="M571.57,-439.75C565.15,-432.18 555.69,-421.05 547.88,-411.84"/>
<polygon fill="#63b8ff" stroke="#63b8ff" points="550.43,-409.45 541.29,-404.09 545.1,-413.98 550.43,-409.45"/>
</a>
</g>
</g>
<!-- Node14 -->
<g id="Node000014" class="node">
<title>Node14</title>
<g id="a_Node000014"><a xlink:href="CCSDSPacket_8h.html" target="_top" xlink:title=" ">
<polygon fill="white" stroke="#666666" points="749,-349 659,-349 659,-330 749,-330 749,-349"/>
<text text-anchor="middle" x="704" y="-337" font-family="Helvetica,sans-Serif" font-size="10.00">CCSDSPacket.h</text>
</a>
</g>
</g>
<!-- Node12&#45;&gt;Node14 -->
<g id="edge13_Node000012_Node000014" class="edge">
<title>Node12&#45;&gt;Node14</title>
<g id="a_edge13_Node000012_Node000014"><a xlink:title=" ">
<path fill="none" stroke="#63b8ff" d="M621.03,-439.97C642.87,-433.51 668.39,-422.48 685,-404 696.06,-391.7 700.69,-373.19 702.62,-359.32"/>
<polygon fill="#63b8ff" stroke="#63b8ff" points="706.14,-359.31 703.69,-349.01 699.18,-358.59 706.14,-359.31"/>
</a>
</g>
</g>
<!-- Node12&#45;&gt;Node15 -->
<g id="edge45_Node000012_Node000015" class="edge">
<title>Node12&#45;&gt;Node15</title>
<g id="a_edge45_Node000012_Node000015"><a xlink:title=" ">
<path fill="none" stroke="#63b8ff" d="M528.35,-447.38C407.83,-443.33 114,-424.83 114,-340.5 114,-340.5 114,-340.5 114,-173.5 114,-137.85 132.72,-128.81 163,-110 213.87,-78.41 282.8,-68.66 330.29,-65.94"/>
<polygon fill="#63b8ff" stroke="#63b8ff" points="330.56,-69.43 340.38,-65.45 330.22,-62.44 330.56,-69.43"/>
</a>
</g>
</g>
<!-- Node25 -->
<g id="Node000025" class="node">
<title>Node25</title>
<g id="a_Node000025"><a xlink:href="CCSDSValidator_8h.html" target="_top" xlink:title="Defines the Validator class for CCSDS packet validation.">
<polygon fill="white" stroke="#666666" points="675.5,-404 574.5,-404 574.5,-385 675.5,-385 675.5,-404"/>
<text text-anchor="middle" x="625" y="-392" font-family="Helvetica,sans-Serif" font-size="10.00">CCSDSValidator.h</text>
</a>
</g>
</g>
<!-- Node12&#45;&gt;Node25 -->
<g id="edge46_Node000012_Node000025" class="edge">
<title>Node12&#45;&gt;Node25</title>
<g id="a_edge46_Node000012_Node000025"><a xlink:title=" ">
<path fill="none" stroke="#63b8ff" d="M586.6,-439.75C593.16,-432.18 602.82,-421.05 610.81,-411.84"/>
<polygon fill="#63b8ff" stroke="#63b8ff" points="613.63,-413.94 617.55,-404.09 608.35,-409.35 613.63,-413.94"/>
</a>
</g>
</g>
<!-- Node14&#45;&gt;Node4 -->
<g id="edge21_Node000014_Node000004" class="edge">
<title>Node14&#45;&gt;Node4</title>
<g id="a_edge21_Node000014_Node000004"><a xlink:title=" ">
<path fill="none" stroke="#63b8ff" d="M712.1,-329.62C736.89,-302 812.58,-214.31 854,-129 868.7,-98.73 875.11,-88.26 870,-55 868.65,-46.19 865.87,-36.74 863.15,-28.82"/>
<polygon fill="#63b8ff" stroke="#63b8ff" points="866.34,-27.35 859.6,-19.18 859.77,-29.77 866.34,-27.35"/>
</a>
</g>
</g>
<!-- Node14&#45;&gt;Node15 -->
<g id="edge14_Node000014_Node000015" class="edge">
<title>Node14&#45;&gt;Node15</title>
<g id="a_edge14_Node000014_Node000015"><a xlink:title=" ">
<path fill="none" stroke="#63b8ff" d="M658.83,-339.21C526.99,-340.09 152,-333.52 152,-230.5 152,-230.5 152,-230.5 152,-173.5 152,-95.36 261.2,-73.59 330.08,-67.63"/>
<polygon fill="#63b8ff" stroke="#63b8ff" points="330.65,-71.1 340.35,-66.84 330.11,-64.12 330.65,-71.1"/>
</a>
</g>
</g>
<!-- Node17 -->
<g id="Node000017" class="node">
<title>Node17</title>
<g id="a_Node000017"><a xlink:title=" ">
<polygon fill="#e0e0e0" stroke="#999999" points="691,-19 641,-19 641,0 691,0 691,-19"/>
<text text-anchor="middle" x="666" y="-7" font-family="Helvetica,sans-Serif" font-size="10.00">cstdint</text>
</a>
</g>
</g>
<!-- Node14&#45;&gt;Node17 -->
<g id="edge20_Node000014_Node000017" class="edge">
<title>Node14&#45;&gt;Node17</title>
<g id="a_edge20_Node000014_Node000017"><a xlink:title=" ">
<path fill="none" stroke="#63b8ff" d="M704,-329.82C704,-311.48 704,-267.44 704,-230.5 704,-230.5 704,-230.5 704,-118.5 704,-85.02 687.55,-48.84 676.3,-28.01"/>
<polygon fill="#63b8ff" stroke="#63b8ff" points="679.24,-26.1 671.28,-19.1 673.13,-29.53 679.24,-26.1"/>
</a>
</g>
</g>
<!-- Node14&#45;&gt;Node18 -->
<g id="edge22_Node000014_Node000018" class="edge">
<title>Node14&#45;&gt;Node18</title>
<g id="a_edge22_Node000014_Node000018"><a xlink:title=" ">
<path fill="none" stroke="#63b8ff" d="M706.94,-329.95C718,-297.81 757.25,-183.72 772.69,-138.83"/>
<polygon fill="#63b8ff" stroke="#63b8ff" points="776.06,-139.82 776,-129.22 769.44,-137.54 776.06,-139.82"/>
</a>
</g>
</g>
<!-- Node19 -->
<g id="Node000019" class="node">
<title>Node19</title>
<g id="a_Node000019"><a xlink:href="CCSDSDataField_8h.html" target="_top" xlink:title=" ">
<polygon fill="white" stroke="#666666" points="567.5,-294 462.5,-294 462.5,-275 567.5,-275 567.5,-294"/>
<text text-anchor="middle" x="515" y="-282" font-family="Helvetica,sans-Serif" font-size="10.00">CCSDSDataField.h</text>
</a>
</g>
</g>
<!-- Node14&#45;&gt;Node19 -->
<g id="edge26_Node000014_Node000019" class="edge">
<title>Node14&#45;&gt;Node19</title>
<g id="a_edge26_Node000014_Node000019"><a xlink:title=" ">
<path fill="none" stroke="#63b8ff" d="M673.63,-329.98C641.63,-321.01 591.04,-306.82 555.62,-296.89"/>
<polygon fill="#63b8ff" stroke="#63b8ff" points="556.18,-293.41 545.6,-294.08 554.29,-300.15 556.18,-293.41"/>
</a>
</g>
</g>
<!-- Node15&#45;&gt;Node2 -->
<g id="edge15_Node000015_Node000002" class="edge">
<title>Node15&#45;&gt;Node2</title>
<g id="a_edge15_Node000015_Node000002"><a xlink:title=" ">
<path fill="none" stroke="#63b8ff" d="M371.18,-54.98C357.85,-46.77 337.42,-34.18 321.69,-24.49"/>
<polygon fill="#63b8ff" stroke="#63b8ff" points="323.42,-21.44 313.07,-19.17 319.75,-27.4 323.42,-21.44"/>
</a>
</g>
</g>
<!-- Node15&#45;&gt;Node4 -->
<g id="edge17_Node000015_Node000004" class="edge">
<title>Node15&#45;&gt;Node4</title>
<g id="a_edge17_Node000015_Node000004"><a xlink:title=" ">
<path fill="none" stroke="#63b8ff" d="M429.74,-58.47C523.54,-47.91 739.03,-23.66 822.3,-14.29"/>
<polygon fill="#63b8ff" stroke="#63b8ff" points="822.69,-17.77 832.24,-13.17 821.91,-10.81 822.69,-17.77"/>
</a>
</g>
</g>
<!-- Node15&#45;&gt;Node6 -->
<g id="edge19_Node000015_Node000006" class="edge">
<title>Node15&#45;&gt;Node6</title>
<g id="a_edge19_Node000015_Node000006"><a xlink:title=" ">
<path fill="none" stroke="#63b8ff" d="M340.5,-54.98C287.41,-44.83 199.46,-28 148.3,-18.21"/>
<polygon fill="#63b8ff" stroke="#63b8ff" points="148.76,-14.73 138.28,-16.29 147.44,-21.61 148.76,-14.73"/>
</a>
</g>
</g>
<!-- Node16 -->
<g id="Node000016" class="node">
<title>Node16</title>
<g id="a_Node000016"><a xlink:title=" ">
<polygon fill="#e0e0e0" stroke="#999999" points="414.5,-19 363.5,-19 363.5,0 414.5,0 414.5,-19"/>
<text text-anchor="middle" x="389" y="-7" font-family="Helvetica,sans-Serif" font-size="10.00">variant</text>
</a>
</g>
</g>
<!-- Node15&#45;&gt;Node16 -->
<g id="edge16_Node000015_Node000016" class="edge">
<title>Node15&#45;&gt;Node16</title>
<g id="a_edge16_Node000015_Node000016"><a xlink:title=" ">
<path fill="none" stroke="#63b8ff" d="M385.66,-54.75C386.18,-47.8 386.94,-37.85 387.59,-29.13"/>
<polygon fill="#63b8ff" stroke="#63b8ff" points="391.09,-29.32 388.35,-19.09 384.11,-28.8 391.09,-29.32"/>
</a>
</g>
</g>
<!-- Node15&#45;&gt;Node17 -->
<g id="edge18_Node000015_Node000017" class="edge">
<title>Node15&#45;&gt;Node17</title>
<g id="a_edge18_Node000015_Node000017"><a xlink:title=" ">
<path fill="none" stroke="#63b8ff" d="M429.53,-55.1C485.41,-44.56 580.1,-26.7 631.06,-17.09"/>
<polygon fill="#63b8ff" stroke="#63b8ff" points="631.76,-20.52 640.94,-15.23 630.46,-13.64 631.76,-20.52"/>
</a>
</g>
</g>
<!-- Node18&#45;&gt;Node4 -->
<g id="edge25_Node000018_Node000004" class="edge">
<title>Node18&#45;&gt;Node4</title>
<g id="a_edge25_Node000018_Node000004"><a xlink:title=" ">
<path fill="none" stroke="#63b8ff" d="M785.3,-109.66C798.11,-91.69 827.38,-50.64 843.96,-27.38"/>
<polygon fill="#63b8ff" stroke="#63b8ff" points="846.87,-29.33 849.83,-19.16 841.17,-25.27 846.87,-29.33"/>
</a>
</g>
</g>
<!-- Node18&#45;&gt;Node15 -->
<g id="edge23_Node000018_Node000015" class="edge">
<title>Node18&#45;&gt;Node15</title>
<g id="a_edge23_Node000018_Node000015"><a xlink:title=" ">
<path fill="none" stroke="#63b8ff" d="M732.26,-112.21C659,-102.36 517.51,-83.32 439.65,-72.85"/>
<polygon fill="#63b8ff" stroke="#63b8ff" points="439.94,-69.36 429.56,-71.49 439.01,-76.3 439.94,-69.36"/>
</a>
</g>
</g>
<!-- Node18&#45;&gt;Node17 -->
<g id="edge24_Node000018_Node000017" class="edge">
<title>Node18&#45;&gt;Node17</title>
<g id="a_edge24_Node000018_Node000017"><a xlink:title=" ">
<path fill="none" stroke="#63b8ff" d="M770.97,-109.61C759.55,-97.08 737.79,-73.68 718,-55 707.2,-44.8 694.55,-33.96 684.43,-25.52"/>
<polygon fill="#63b8ff" stroke="#63b8ff" points="686.56,-22.74 676.62,-19.07 682.1,-28.14 686.56,-22.74"/>
</a>
</g>
</g>
<!-- Node19&#45;&gt;Node4 -->
<g id="edge29_Node000019_Node000004" class="edge">
<title>Node19&#45;&gt;Node4</title>
<g id="a_edge29_Node000019_Node000004"><a xlink:title=" ">
<path fill="none" stroke="#63b8ff" d="M561.3,-274.99C632.24,-259.39 766.75,-219.12 835,-129 857.21,-99.68 858.8,-54.65 857.63,-29.38"/>
<polygon fill="#63b8ff" stroke="#63b8ff" points="861.12,-29.03 856.97,-19.29 854.13,-29.5 861.12,-29.03"/>
</a>
</g>
</g>
<!-- Node19&#45;&gt;Node15 -->
<g id="edge27_Node000019_Node000015" class="edge">
<title>Node19&#45;&gt;Node15</title>
<g id="a_edge27_Node000019_Node000015"><a xlink:title=" ">
<path fill="none" stroke="#63b8ff" d="M462.5,-281.29C417.02,-277.42 350.73,-266.98 300,-239 244.44,-208.36 227.89,-189.57 209,-129 206.49,-120.94 203.81,-116.66 209,-110 223.85,-90.93 284.1,-78.73 330.01,-72.02"/>
<polygon fill="#63b8ff" stroke="#63b8ff" points="330.73,-75.45 340.15,-70.59 329.76,-68.52 330.73,-75.45"/>
</a>
</g>
</g>
<!-- Node19&#45;&gt;Node17 -->
<g id="edge28_Node000019_Node000017" class="edge">
<title>Node19&#45;&gt;Node17</title>
<g id="a_edge28_Node000019_Node000017"><a xlink:title=" ">
<path fill="none" stroke="#63b8ff" d="M525.88,-274.77C551.95,-253.18 618,-194.28 648,-129 663.01,-96.34 665.96,-53.8 666.29,-29.59"/>
<polygon fill="#63b8ff" stroke="#63b8ff" points="669.79,-29.29 666.28,-19.3 662.79,-29.3 669.79,-29.29"/>
</a>
</g>
</g>
<!-- Node20 -->
<g id="Node000020" class="node">
<title>Node20</title>
<g id="a_Node000020"><a xlink:title=" ">
<polygon fill="#e0e0e0" stroke="#999999" points="276,-129 218,-129 218,-110 276,-110 276,-129"/>
<text text-anchor="middle" x="247" y="-117" font-family="Helvetica,sans-Serif" font-size="10.00">memory</text>
</a>
</g>
</g>
<!-- Node19&#45;&gt;Node20 -->
<g id="edge30_Node000019_Node000020" class="edge">
<title>Node19&#45;&gt;Node20</title>
<g id="a_edge30_Node000019_Node000020"><a xlink:title=" ">
<path fill="none" stroke="#63b8ff" d="M462.36,-277.5C404.27,-268 312.23,-243.94 261,-184 250.57,-171.8 247.41,-153.56 246.66,-139.76"/>
<polygon fill="#63b8ff" stroke="#63b8ff" points="250.15,-139.38 246.49,-129.44 243.15,-139.49 250.15,-139.38"/>
</a>
</g>
</g>
<!-- Node21 -->
<g id="Node000021" class="node">
<title>Node21</title>
<g id="a_Node000021"><a xlink:href="CCSDSSecondaryHeaderAbstract_8h.html" target="_top" xlink:title=" ">
<polygon fill="white" stroke="#666666" points="638.5,-129 453.5,-129 453.5,-110 638.5,-110 638.5,-129"/>
<text text-anchor="middle" x="546" y="-117" font-family="Helvetica,sans-Serif" font-size="10.00">CCSDSSecondaryHeaderAbstract.h</text>
</a>
</g>
</g>
<!-- Node19&#45;&gt;Node21 -->
<g id="edge31_Node000019_Node000021" class="edge">
<title>Node19&#45;&gt;Node21</title>
<g id="a_edge31_Node000019_Node000021"><a xlink:title=" ">
<path fill="none" stroke="#63b8ff" d="M518.77,-274.81C522.45,-265.96 527.93,-251.77 531,-239 539.32,-204.34 543.23,-162.81 544.9,-139.25"/>
<polygon fill="#63b8ff" stroke="#63b8ff" points="548.39,-139.45 545.55,-129.24 541.41,-138.99 548.39,-139.45"/>
</a>
</g>
</g>
<!-- Node22 -->
<g id="Node000022" class="node">
<title>Node22</title>
<g id="a_Node000022"><a xlink:href="CCSDSSecondaryHeaderFactory_8h.html" target="_top" xlink:title=" ">
<polygon fill="white" stroke="#666666" points="448.5,-184 269.5,-184 269.5,-165 448.5,-165 448.5,-184"/>
<text text-anchor="middle" x="359" y="-172" font-family="Helvetica,sans-Serif" font-size="10.00">CCSDSSecondaryHeaderFactory.h</text>
</a>
</g>
</g>
<!-- Node19&#45;&gt;Node22 -->
<g id="edge35_Node000019_Node000022" class="edge">
<title>Node19&#45;&gt;Node22</title>
<g id="a_edge35_Node000019_Node000022"><a xlink:title=" ">
<path fill="none" stroke="#63b8ff" d="M495.05,-274.97C477.06,-266.87 450.26,-253.77 429,-239 408.5,-224.76 387.64,-205.02 374.09,-191.34"/>
<polygon fill="#63b8ff" stroke="#63b8ff" points="376.5,-188.8 367.02,-184.08 371.49,-193.68 376.5,-188.8"/>
</a>
</g>
</g>
<!-- Node24 -->
<g id="Node000024" class="node">
<title>Node24</title>
<g id="a_Node000024"><a xlink:href="PusServices_8h.html" target="_top" xlink:title=" ">
<polygon fill="white" stroke="#666666" points="522,-239 438,-239 438,-220 522,-220 522,-239"/>
<text text-anchor="middle" x="480" y="-227" font-family="Helvetica,sans-Serif" font-size="10.00">PusServices.h</text>
</a>
</g>
</g>
<!-- Node19&#45;&gt;Node24 -->
<g id="edge41_Node000019_Node000024" class="edge">
<title>Node19&#45;&gt;Node24</title>
<g id="a_edge41_Node000019_Node000024"><a xlink:title=" ">
<path fill="none" stroke="#63b8ff" d="M509.22,-274.75C504.38,-267.42 497.32,-256.73 491.36,-247.7"/>
<polygon fill="#63b8ff" stroke="#63b8ff" points="494.1,-245.5 485.67,-239.09 488.26,-249.36 494.1,-245.5"/>
</a>
</g>
</g>
<!-- Node21&#45;&gt;Node4 -->
<g id="edge33_Node000021_Node000004" class="edge">
<title>Node21&#45;&gt;Node4</title>
<g id="a_edge33_Node000021_Node000004"><a xlink:title=" ">
<path fill="none" stroke="#63b8ff" d="M570.58,-109.94C625.8,-90.7 759.69,-44.05 822.47,-22.18"/>
<polygon fill="#63b8ff" stroke="#63b8ff" points="823.97,-25.36 832.27,-18.77 821.67,-18.75 823.97,-25.36"/>
</a>
</g>
</g>
<!-- Node21&#45;&gt;Node15 -->
<g id="edge32_Node000021_Node000015" class="edge">
<title>Node21&#45;&gt;Node15</title>
<g id="a_edge32_Node000021_Node000015"><a xlink:title=" ">
<path fill="none" stroke="#63b8ff" d="M520.13,-109.98C493.22,-101.13 450.88,-87.19 420.77,-77.28"/>
<polygon fill="#63b8ff" stroke="#63b8ff" points="421.66,-73.88 411.07,-74.08 419.47,-80.53 421.66,-73.88"/>
</a>
</g>
</g>
<!-- Node21&#45;&gt;Node17 -->
<g id="edge34_Node000021_Node000017" class="edge">
<title>Node21&#45;&gt;Node17</title>
<g id="a_edge34_Node000021_Node000017"><a xlink:title=" ">
<path fill="none" stroke="#63b8ff" d="M555.12,-109.74C568.06,-97.38 592.57,-74.16 614,-55 625.07,-45.1 637.73,-34.26 647.78,-25.76"/>
<polygon fill="#63b8ff" stroke="#63b8ff" points="650.13,-28.35 655.53,-19.23 645.62,-23 650.13,-28.35"/>
</a>
</g>
</g>
<!-- Node22&#45;&gt;Node2 -->
<g id="edge37_Node000022_Node000002" class="edge">
<title>Node22&#45;&gt;Node2</title>
<g id="a_edge37_Node000022_Node000002"><a xlink:title=" ">
<path fill="none" stroke="#63b8ff" d="M350.12,-164.79C342.07,-156.38 330.49,-142.89 324,-129 308.62,-96.1 302.61,-53.65 300.33,-29.51"/>
<polygon fill="#63b8ff" stroke="#63b8ff" points="303.8,-28.94 299.49,-19.26 296.82,-29.51 303.8,-28.94"/>
</a>
</g>
</g>
<!-- Node22&#45;&gt;Node3 -->
<g id="edge39_Node000022_Node000003" class="edge">
<title>Node22&#45;&gt;Node3</title>
<g id="a_edge39_Node000022_Node000003"><a xlink:title=" ">
<path fill="none" stroke="#63b8ff" d="M448.56,-166.3C597.47,-154.32 889.18,-130.86 985.95,-123.08"/>
<polygon fill="#63b8ff" stroke="#63b8ff" points="986.31,-126.56 996,-122.27 985.75,-119.58 986.31,-126.56"/>
</a>
</g>
</g>
<!-- Node22&#45;&gt;Node20 -->
<g id="edge36_Node000022_Node000020" class="edge">
<title>Node22&#45;&gt;Node20</title>
<g id="a_edge36_Node000022_Node000020"><a xlink:title=" ">
<path fill="none" stroke="#63b8ff" d="M341.01,-164.98C323.07,-156.5 295.28,-143.35 274.57,-133.54"/>
<polygon fill="#63b8ff" stroke="#63b8ff" points="275.86,-130.28 265.32,-129.17 272.86,-136.61 275.86,-130.28"/>
</a>
</g>
</g>
<!-- Node22&#45;&gt;Node21 -->
<g id="edge40_Node000022_Node000021" class="edge">
<title>Node22&#45;&gt;Node21</title>
<g id="a_edge40_Node000022_Node000021"><a xlink:title=" ">
<path fill="none" stroke="#63b8ff" d="M389.04,-164.98C420.71,-156.01 470.77,-141.82 505.81,-131.89"/>
<polygon fill="#63b8ff" stroke="#63b8ff" points="507.05,-135.18 515.72,-129.08 505.14,-128.44 507.05,-135.18"/>
</a>
</g>
</g>
<!-- Node23 -->
<g id="Node000023" class="node">
<title>Node23</title>
<g id="a_Node000023"><a xlink:title=" ">
<polygon fill="#e0e0e0" stroke="#999999" points="397.5,-129 332.5,-129 332.5,-110 397.5,-110 397.5,-129"/>
<text text-anchor="middle" x="365" y="-117" font-family="Helvetica,sans-Serif" font-size="10.00">functional</text>
</a>
</g>
</g>
<!-- Node22&#45;&gt;Node23 -->
<g id="edge38_Node000022_Node000023" class="edge">
<title>Node22&#45;&gt;Node23</title>
<g id="a_edge38_Node000022_Node000023"><a xlink:title=" ">
<path fill="none" stroke="#63b8ff" d="M359.99,-164.75C360.78,-157.8 361.9,-147.85 362.89,-139.13"/>
<polygon fill="#63b8ff" stroke="#63b8ff" points="366.38,-139.42 364.03,-129.09 359.42,-138.63 366.38,-139.42"/>
</a>
</g>
</g>
<!-- Node24&#45;&gt;Node15 -->
<g id="edge44_Node000024_Node000015" class="edge">
<title>Node24&#45;&gt;Node15</title>
<g id="a_edge44_Node000024_Node000015"><a xlink:title=" ">
<path fill="none" stroke="#63b8ff" d="M477.91,-219.95C474.67,-207.43 467.76,-183.6 458,-165 441.42,-133.41 415.53,-100.82 399.45,-81.9"/>
<polygon fill="#63b8ff" stroke="#63b8ff" points="402.01,-79.5 392.82,-74.22 396.71,-84.07 402.01,-79.5"/>
</a>
</g>
</g>
<!-- Node24&#45;&gt;Node21 -->
<g id="edge42_Node000024_Node000021" class="edge">
<title>Node24&#45;&gt;Node21</title>
<g id="a_edge42_Node000024_Node000021"><a xlink:title=" ">
<path fill="none" stroke="#63b8ff" d="M485.4,-219.66C496.33,-201.77 521.25,-161 535.49,-137.69"/>
<polygon fill="#63b8ff" stroke="#63b8ff" points="538.48,-139.52 540.71,-129.16 532.51,-135.87 538.48,-139.52"/>
</a>
</g>
</g>
<!-- Node24&#45;&gt;Node22 -->
<g id="edge43_Node000024_Node000022" class="edge">
<title>Node24&#45;&gt;Node22</title>
<g id="a_edge43_Node000024_Node000022"><a xlink:title=" ">
<path fill="none" stroke="#63b8ff" d="M460.56,-219.98C441.01,-211.42 410.62,-198.11 388.18,-188.28"/>
<polygon fill="#63b8ff" stroke="#63b8ff" points="389.36,-184.98 378.79,-184.17 386.55,-191.39 389.36,-184.98"/>
</a>
</g>
</g>
<!-- Node25&#45;&gt;Node14 -->
<g id="edge47_Node000025_Node000014" class="edge">
<title>Node25&#45;&gt;Node14</title>
<g id="a_edge47_Node000025_Node000014"><a xlink:title=" ">
<path fill="none" stroke="#63b8ff" d="M637.69,-384.98C649.83,-376.84 668.36,-364.41 682.75,-354.76"/>
<polygon fill="#63b8ff" stroke="#63b8ff" points="684.72,-357.65 691.08,-349.17 680.82,-351.84 684.72,-357.65"/>
</a>
</g>
</g>
<!-- Node26&#45;&gt;Node3 -->
<g id="edge53_Node000026_Node000003" class="edge">
<title>Node26&#45;&gt;Node3</title>
<g id="a_edge53_Node000026_Node000003"><a xlink:title=" ">
<path fill="none" stroke="#63b8ff" d="M935.45,-494.91C945.02,-486.58 959.03,-473.16 968,-459 984.15,-433.52 992,-425.67 992,-395.5 992,-395.5 992,-395.5 992,-228.5 992,-196.15 1003.17,-159.82 1010.86,-138.62"/>
<polygon fill="#63b8ff" stroke="#63b8ff" points="1014.23,-139.6 1014.49,-129.01 1007.68,-137.13 1014.23,-139.6"/>
</a>
</g>
</g>
<!-- Node26&#45;&gt;Node4 -->
<g id="edge55_Node000026_Node000004" class="edge">
<title>Node26&#45;&gt;Node4</title>
<g id="a_edge55_Node000026_Node000004"><a xlink:title=" ">
<path fill="none" stroke="#63b8ff" d="M929.03,-494.75C937,-476.64 954,-433.55 954,-395.5 954,-395.5 954,-395.5 954,-228.5 954,-146.98 896.29,-62.2 869.44,-27.17"/>
<polygon fill="#63b8ff" stroke="#63b8ff" points="871.97,-24.72 863.05,-19.01 866.46,-29.04 871.97,-24.72"/>
</a>
</g>
</g>
<!-- Node26&#45;&gt;Node12 -->
<g id="edge52_Node000026_Node000012" class="edge">
<title>Node26&#45;&gt;Node12</title>
<g id="a_edge52_Node000026_Node000012"><a xlink:title=" ">
<path fill="none" stroke="#63b8ff" d="M884.29,-497.26C823.85,-488.01 709.96,-470.56 639.67,-459.79"/>
<polygon fill="#63b8ff" stroke="#63b8ff" points="640.04,-456.31 629.62,-458.25 638.98,-463.23 640.04,-456.31"/>
</a>
</g>
</g>
<!-- Node26&#45;&gt;Node14 -->
<g id="edge51_Node000026_Node000014" class="edge">
<title>Node26&#45;&gt;Node14</title>
<g id="a_edge51_Node000026_Node000014"><a xlink:title=" ">
<path fill="none" stroke="#63b8ff" d="M913.43,-494.97C877.71,-468.62 768.88,-388.35 723.84,-355.13"/>
<polygon fill="#63b8ff" stroke="#63b8ff" points="725.85,-352.27 715.72,-349.15 721.69,-357.9 725.85,-352.27"/>
</a>
</g>
</g>
<!-- Node26&#45;&gt;Node17 -->
<g id="edge54_Node000026_Node000017" class="edge">
<title>Node26&#45;&gt;Node17</title>
<g id="a_edge54_Node000026_Node000017"><a xlink:title=" ">
<path fill="none" stroke="#63b8ff" d="M922.3,-494.92C916.84,-476.77 905,-433.07 905,-395.5 905,-395.5 905,-395.5 905,-228.5 905,-118.72 765.67,-49.49 699.77,-22.89"/>
<polygon fill="#63b8ff" stroke="#63b8ff" points="700.82,-19.54 690.23,-19.13 698.25,-26.05 700.82,-19.54"/>
</a>
</g>
</g>
</g>
</svg>
