<?xml version="1.0" encoding="UTF-8" standalone="no"?>
<!DOCTYPE svg PUBLIC "-//W3C//DTD SVG 1.1//EN"
 "http://www.w3.org/Graphics/SVG/1.1/DTD/svg11.dtd">
<!-- Generated by graphviz version 2.43.0 (0)
 -->
<!-- Title: src/exec_encoder.cpp Pages: 1 -->
<svg width="1168pt" height="577pt"
 viewBox="0.00 0.00 1168.00 577.00" xmlns="http://www.w3.org/2000/svg" xmlns:xlink="http://www.w3.org/1999/xlink">
<g id="graph0" class="graph" transform="scale(1 1) rotate(0) translate(4 573)">
<title>src/exec_encoder.cpp</title>
<!-- Node1 -->
<g id="Node000001" class="node">
<title>Node1</title>
<g id="a_Node000001"><a xlink:title=" ">
<polygon fill="#999999" stroke="#666666" points="821,-569 701,-569 701,-550 821,-550 821,-569"/>
<text text-anchor="middle" x="761" y="-557" font-family="Helvetica,sans-Serif" font-size="10.00">src/exec_encoder.cpp</text>
</a>
</g>
</g>
<!-- Node2 -->
<g id="Node000002" class="node">
<title>Node2</title>
<g id="a_Node000002"><a xlink:title=" ">
<polygon fill="#e0e0e0" stroke="#999999" points="353.5,-19 260.5,-19 260.5,0 353.5,0 353.5,-19"/>
<text text-anchor="middle" x="307" y="-7" font-family="Helvetica,sans-Serif" font-size="10.00">unordered_map</text>
</a>
</g>
</g>
<!-- Node1&#45;&gt;Node2 -->
<g id="edge1_Node000001_Node000002" class="edge">
<title>Node1&#45;&gt;Node2</title>
<g id="a_edge1_Node000001_Node000002"><a xlink:title=" ">
<path fill="none" stroke="#63b8ff" d="M700.96,-556.78C571.5,-552.61 269.76,-540.31 171,-514 107.7,-497.14 38,-516 38,-450.5 38,-450.5 38,-450.5 38,-118.5 38,-72.99 172.29,-37.87 251.1,-21.18"/>
<polygon fill="#63b8ff" stroke="#63b8ff" points="252.29,-24.51 261.37,-19.05 250.86,-17.66 252.29,-24.51"/>
</a>
</g>
</g>
<!-- Node3 -->
<g id="Node000003" class="node">
<title>Node3</title>
<g id="a_Node000003"><a xlink:title=" ">
<polygon fill="#e0e0e0" stroke="#999999" points="1040,-129 996,-129 996,-110 1040,-110 1040,-129"/>
<text text-anchor="middle" x="1018" y="-117" font-family="Helvetica,sans-Serif" font-size="10.00">string</text>
</a>
</g>
</g>
<!-- Node1&#45;&gt;Node3 -->
<g id="edge2_Node000001_Node000003" class="edge">
<title>Node1&#45;&gt;Node3</title>
<g id="a_edge2_Node000001_Node000003"><a xlink:title=" ">
<path fill="none" stroke="#63b8ff" d="M821.28,-558.82C871.49,-556.47 943.07,-546.84 996,-514 1026.06,-495.35 1044,-485.88 1044,-450.5 1044,-450.5 1044,-450.5 1044,-228.5 1044,-196.15 1032.83,-159.82 1025.14,-138.62"/>
<polygon fill="#63b8ff" stroke="#63b8ff" points="1028.32,-137.13 1021.51,-129.01 1021.77,-139.6 1028.32,-137.13"/>
</a>
</g>
</g>
<!-- Node4 -->
<g id="Node000004" class="node">
<title>Node4</title>
<g id="a_Node000004"><a xlink:title=" ">
<polygon fill="#e0e0e0" stroke="#999999" points="915.5,-19 868.5,-19 868.5,0 915.5,0 915.5,-19"/>
<text text-anchor="middle" x="892" y="-7" font-family="Helvetica,sans-Serif" font-size="10.00">vector</text>
</a>
</g>
</g>
<!-- Node1&#45;&gt;Node4 -->
<g id="edge3_Node000001_Node000004" class="edge">
<title>Node1&#45;&gt;Node4</title>
<g id="a_edge3_Node000001_Node000004"><a xlink:title=" ">
<path fill="none" stroke="#63b8ff" d="M821.25,-559.07C876.77,-557.19 959.87,-548.09 1023,-514 1056.9,-495.69 1082,-489.02 1082,-450.5 1082,-450.5 1082,-450.5 1082,-118.5 1082,-47.39 980.16,-22.51 925.6,-14.29"/>
<polygon fill="#63b8ff" stroke="#63b8ff" points="926.07,-10.82 915.68,-12.9 925.1,-17.75 926.07,-10.82"/>
</a>
</g>
</g>
<!-- Node5 -->
<g id="Node000005" class="node">
<title>Node5</title>
<g id="a_Node000005"><a xlink:title=" ">
<polygon fill="#e0e0e0" stroke="#999999" points="671,-514 639,-514 639,-495 671,-495 671,-514"/>
<text text-anchor="middle" x="655" y="-502" font-family="Helvetica,sans-Serif" font-size="10.00">set</text>
</a>
</g>
</g>
<!-- Node1&#45;&gt;Node5 -->
<g id="edge4_Node000001_Node000005" class="edge">
<title>Node1&#45;&gt;Node5</title>
<g id="a_edge4_Node000001_Node000005"><a xlink:title=" ">
<path fill="none" stroke="#63b8ff" d="M743.97,-549.98C726.77,-541.38 700,-528 680.31,-518.16"/>
<polygon fill="#63b8ff" stroke="#63b8ff" points="681.8,-514.99 671.29,-513.65 678.67,-521.25 681.8,-514.99"/>
</a>
</g>
</g>
<!-- Node6 -->
<g id="Node000006" class="node">
<title>Node6</title>
<g id="a_Node000006"><a xlink:title=" ">
<polygon fill="#e0e0e0" stroke="#999999" points="84,-19 24,-19 24,0 84,0 84,-19"/>
<text text-anchor="middle" x="54" y="-7" font-family="Helvetica,sans-Serif" font-size="10.00">iostream</text>
</a>
</g>
</g>
<!-- Node1&#45;&gt;Node6 -->
<g id="edge5_Node000001_Node000006" class="edge">
<title>Node1&#45;&gt;Node6</title>
<g id="a_edge5_Node000001_Node000006"><a xlink:title=" ">
<path fill="none" stroke="#63b8ff" d="M700.74,-557.16C541.58,-553.28 118.23,-540.56 61,-514 25.5,-497.53 0,-489.63 0,-450.5 0,-450.5 0,-450.5 0,-118.5 0,-82.89 23.77,-46.99 39.77,-26.86"/>
<polygon fill="#63b8ff" stroke="#63b8ff" points="42.59,-28.95 46.26,-19.01 37.19,-24.49 42.59,-28.95"/>
</a>
</g>
</g>
<!-- Node7 -->
<g id="Node000007" class="node">
<title>Node7</title>
<g id="a_Node000007"><a xlink:title=" ">
<polygon fill="#e0e0e0" stroke="#999999" points="795,-514 727,-514 727,-495 795,-495 795,-514"/>
<text text-anchor="middle" x="761" y="-502" font-family="Helvetica,sans-Serif" font-size="10.00">filesystem</text>
</a>
</g>
</g>
<!-- Node1&#45;&gt;Node7 -->
<g id="edge6_Node000001_Node000007" class="edge">
<title>Node1&#45;&gt;Node7</title>
<g id="a_edge6_Node000001_Node000007"><a xlink:title=" ">
<path fill="none" stroke="#63b8ff" d="M761,-549.75C761,-542.8 761,-532.85 761,-524.13"/>
<polygon fill="#63b8ff" stroke="#63b8ff" points="764.5,-524.09 761,-514.09 757.5,-524.09 764.5,-524.09"/>
</a>
</g>
</g>
<!-- Node8 -->
<g id="Node000008" class="node">
<title>Node8</title>
<g id="a_Node000008"><a xlink:href="CCSDSManager_8h.html" target="_top" xlink:title=" ">
<polygon fill="white" stroke="#666666" points="723.5,-459 622.5,-459 622.5,-440 723.5,-440 723.5,-459"/>
<text text-anchor="middle" x="673" y="-447" font-family="Helvetica,sans-Serif" font-size="10.00">CCSDSManager.h</text>
</a>
</g>
</g>
<!-- Node1&#45;&gt;Node8 -->
<g id="edge7_Node000001_Node000008" class="edge">
<title>Node1&#45;&gt;Node8</title>
<g id="a_edge7_Node000001_Node000008"><a xlink:title=" ">
<path fill="none" stroke="#63b8ff" d="M751.68,-549.67C742.68,-540.95 728.84,-527.07 718,-514 705.51,-498.94 692.74,-480.59 684.02,-467.5"/>
<polygon fill="#63b8ff" stroke="#63b8ff" points="686.86,-465.45 678.44,-459.02 681.01,-469.29 686.86,-465.45"/>
</a>
</g>
</g>
<!-- Node11 -->
<g id="Node000011" class="node">
<title>Node11</title>
<g id="a_Node000011"><a xlink:href="CCSDSResult_8h.html" target="_top" xlink:title=" ">
<polygon fill="white" stroke="#666666" points="269.5,-74 180.5,-74 180.5,-55 269.5,-55 269.5,-74"/>
<text text-anchor="middle" x="225" y="-62" font-family="Helvetica,sans-Serif" font-size="10.00">CCSDSResult.h</text>
</a>
</g>
</g>
<!-- Node1&#45;&gt;Node11 -->
<g id="edge45_Node000001_Node000011" class="edge">
<title>Node1&#45;&gt;Node11</title>
<g id="a_edge45_Node000001_Node000011"><a xlink:title=" ">
<path fill="none" stroke="#63b8ff" d="M700.81,-555.31C533.66,-545.66 76,-513.48 76,-450.5 76,-450.5 76,-450.5 76,-173.5 76,-121.22 136.87,-91.65 180.8,-77.12"/>
<polygon fill="#63b8ff" stroke="#63b8ff" points="181.96,-80.42 190.44,-74.08 179.85,-73.75 181.96,-80.42"/>
</a>
</g>
</g>
<!-- Node14 -->
<g id="Node000014" class="node">
<title>Node14</title>
<g id="a_Node000014"><a xlink:href="CCSDSHeader_8h.html" target="_top" xlink:title=" ">
<polygon fill="white" stroke="#666666" points="863.5,-129 770.5,-129 770.5,-110 863.5,-110 863.5,-129"/>
<text text-anchor="middle" x="817" y="-117" font-family="Helvetica,sans-Serif" font-size="10.00">CCSDSHeader.h</text>
</a>
</g>
</g>
<!-- Node1&#45;&gt;Node14 -->
<g id="edge44_Node000001_Node000014" class="edge">
<title>Node1&#45;&gt;Node14</title>
<g id="a_edge44_Node000001_Node000014"><a xlink:title=" ">
<path fill="none" stroke="#63b8ff" d="M821.25,-557.19C893.79,-552.03 1006,-531.03 1006,-450.5 1006,-450.5 1006,-450.5 1006,-393.5 1006,-276.01 886.2,-172.56 837.36,-135.26"/>
<polygon fill="#63b8ff" stroke="#63b8ff" points="839.21,-132.28 829.11,-129.08 835.01,-137.88 839.21,-132.28"/>
</a>
</g>
</g>
<!-- Node22 -->
<g id="Node000022" class="node">
<title>Node22</title>
<g id="a_Node000022"><a xlink:href="CCSDSUtils_8h.html" target="_top" xlink:title=" ">
<polygon fill="white" stroke="#666666" points="894.5,-514 813.5,-514 813.5,-495 894.5,-495 894.5,-514"/>
<text text-anchor="middle" x="854" y="-502" font-family="Helvetica,sans-Serif" font-size="10.00">CCSDSUtils.h</text>
</a>
</g>
</g>
<!-- Node1&#45;&gt;Node22 -->
<g id="edge46_Node000001_Node000022" class="edge">
<title>Node1&#45;&gt;Node22</title>
<g id="a_edge46_Node000001_Node000022"><a xlink:title=" ">
<path fill="none" stroke="#63b8ff" d="M775.94,-549.98C790.5,-541.69 812.87,-528.94 829.93,-519.22"/>
<polygon fill="#63b8ff" stroke="#63b8ff" points="831.83,-522.16 838.79,-514.17 828.36,-516.08 831.83,-522.16"/>
</a>
</g>
</g>
<!-- Node23 -->
<g id="Node000023" class="node">
<title>Node23</title>
<g id="a_Node000023"><a xlink:title=" ">
<polygon fill="#e0e0e0" stroke="#999999" points="1160,-514 1110,-514 1110,-495 1160,-495 1160,-514"/>
<text text-anchor="middle" x="1135" y="-502" font-family="Helvetica,sans-Serif" font-size="10.00">chrono</text>
</a>
</g>
</g>
<!-- Node1&#45;&gt;Node23 -->
<g id="edge52_Node000001_Node000023" class="edge">
<title>Node1&#45;&gt;Node23</title>
<g id="a_edge52_Node000001_Node000023"><a xlink:title=" ">
<path fill="none" stroke="#63b8ff" d="M821.14,-552.03C888.37,-544.44 1000.36,-530.75 1096,-514 1097.27,-513.78 1098.56,-513.54 1099.86,-513.3"/>
<polygon fill="#63b8ff" stroke="#63b8ff" points="1100.77,-516.69 1109.88,-511.29 1099.39,-509.82 1100.77,-516.69"/>
</a>
</g>
</g>
<!-- Node9 -->
<g id="Node000009" class="node">
<title>Node9</title>
<g id="a_Node000009"><a xlink:title=" ">
<polygon fill="#e0e0e0" stroke="#999999" points="668.5,-404 623.5,-404 623.5,-385 668.5,-385 668.5,-404"/>
<text text-anchor="middle" x="646" y="-392" font-family="Helvetica,sans-Serif" font-size="10.00">utility</text>
</a>
</g>
</g>
<!-- Node8&#45;&gt;Node9 -->
<g id="edge8_Node000008_Node000009" class="edge">
<title>Node8&#45;&gt;Node9</title>
<g id="a_edge8_Node000008_Node000009"><a xlink:title=" ">
<path fill="none" stroke="#63b8ff" d="M668.54,-439.75C664.88,-432.57 659.59,-422.18 655.05,-413.27"/>
<polygon fill="#63b8ff" stroke="#63b8ff" points="658.03,-411.41 650.38,-404.09 651.8,-414.59 658.03,-411.41"/>
</a>
</g>
</g>
<!-- Node10 -->
<g id="Node000010" class="node">
<title>Node10</title>
<g id="a_Node000010"><a xlink:href="CCSDSPacket_8h.html" target="_top" xlink:title=" ">
<polygon fill="white" stroke="#666666" points="784,-349 694,-349 694,-330 784,-330 784,-349"/>
<text text-anchor="middle" x="739" y="-337" font-family="Helvetica,sans-Serif" font-size="10.00">CCSDSPacket.h</text>
</a>
</g>
</g>
<!-- Node8&#45;&gt;Node10 -->
<g id="edge9_Node000008_Node000010" class="edge">
<title>Node8&#45;&gt;Node10</title>
<g id="a_edge9_Node000008_Node000010"><a xlink:title=" ">
<path fill="none" stroke="#63b8ff" d="M654.74,-439.87C632.59,-428.2 599.96,-406.37 615,-385 630.69,-362.71 658.64,-351.53 684.04,-345.94"/>
<polygon fill="#63b8ff" stroke="#63b8ff" points="684.84,-349.35 693.99,-344 683.5,-342.48 684.84,-349.35"/>
</a>
</g>
</g>
<!-- Node8&#45;&gt;Node11 -->
<g id="edge41_Node000008_Node000011" class="edge">
<title>Node8&#45;&gt;Node11</title>
<g id="a_edge41_Node000008_Node000011"><a xlink:title=" ">
<path fill="none" stroke="#63b8ff" d="M622.41,-449.37C484.8,-450.38 114,-443.54 114,-340.5 114,-340.5 114,-340.5 114,-173.5 114,-127.98 162.54,-95.44 195.42,-78.61"/>
<polygon fill="#63b8ff" stroke="#63b8ff" points="197.2,-81.64 204.64,-74.09 194.12,-75.35 197.2,-81.64"/>
</a>
</g>
</g>
<!-- Node21 -->
<g id="Node000021" class="node">
<title>Node21</title>
<g id="a_Node000021"><a xlink:href="CCSDSValidator_8h.html" target="_top" xlink:title="Defines the Validator class for CCSDS packet validation.">
<polygon fill="white" stroke="#666666" points="787.5,-404 686.5,-404 686.5,-385 787.5,-385 787.5,-404"/>
<text text-anchor="middle" x="737" y="-392" font-family="Helvetica,sans-Serif" font-size="10.00">CCSDSValidator.h</text>
</a>
</g>
</g>
<!-- Node8&#45;&gt;Node21 -->
<g id="edge42_Node000008_Node000021" class="edge">
<title>Node8&#45;&gt;Node21</title>
<g id="a_edge42_Node000008_Node000021"><a xlink:title=" ">
<path fill="none" stroke="#63b8ff" d="M683.28,-439.98C692.84,-432.07 707.28,-420.11 718.78,-410.58"/>
<polygon fill="#63b8ff" stroke="#63b8ff" points="721.06,-413.24 726.53,-404.17 716.6,-407.85 721.06,-413.24"/>
</a>
</g>
</g>
<!-- Node10&#45;&gt;Node4 -->
<g id="edge17_Node000010_Node000004" class="edge">
<title>Node10&#45;&gt;Node4</title>
<g id="a_edge17_Node000010_Node000004"><a xlink:title=" ">
<path fill="none" stroke="#63b8ff" d="M747.36,-329.7C772.93,-302.29 850.85,-215.16 892,-129 906.46,-98.72 912.43,-88.12 907,-55 905.53,-46.05 902.51,-36.47 899.56,-28.51"/>
<polygon fill="#63b8ff" stroke="#63b8ff" points="902.79,-27.16 895.86,-19.15 896.28,-29.74 902.79,-27.16"/>
</a>
</g>
</g>
<!-- Node10&#45;&gt;Node11 -->
<g id="edge10_Node000010_Node000011" class="edge">
<title>Node10&#45;&gt;Node11</title>
<g id="a_edge10_Node000010_Node000011"><a xlink:title=" ">
<path fill="none" stroke="#63b8ff" d="M693.91,-334.97C556.46,-323.62 152,-285.55 152,-230.5 152,-230.5 152,-230.5 152,-173.5 152,-134.97 184.29,-99.92 205.92,-80.77"/>
<polygon fill="#63b8ff" stroke="#63b8ff" points="208.25,-83.38 213.59,-74.23 203.71,-78.05 208.25,-83.38"/>
</a>
</g>
</g>
<!-- Node13 -->
<g id="Node000013" class="node">
<title>Node13</title>
<g id="a_Node000013"><a xlink:title=" ">
<polygon fill="#e0e0e0" stroke="#999999" points="710,-19 660,-19 660,0 710,0 710,-19"/>
<text text-anchor="middle" x="685" y="-7" font-family="Helvetica,sans-Serif" font-size="10.00">cstdint</text>
</a>
</g>
</g>
<!-- Node10&#45;&gt;Node13 -->
<g id="edge16_Node000010_Node000013" class="edge">
<title>Node10&#45;&gt;Node13</title>
<g id="a_edge16_Node000010_Node000013"><a xlink:title=" ">
<path fill="none" stroke="#63b8ff" d="M737.56,-329.73C730.35,-285.99 698.28,-91.14 688.1,-29.36"/>
<polygon fill="#63b8ff" stroke="#63b8ff" points="691.5,-28.45 686.42,-19.15 684.59,-29.58 691.5,-28.45"/>
</a>
</g>
</g>
<!-- Node10&#45;&gt;Node14 -->
<g id="edge18_Node000010_Node000014" class="edge">
<title>Node10&#45;&gt;Node14</title>
<g id="a_edge18_Node000010_Node000014"><a xlink:title=" ">
<path fill="none" stroke="#63b8ff" d="M742.33,-329.99C745.8,-321.06 751.39,-306.58 756,-294 776.65,-237.69 799.84,-170.6 810.72,-138.87"/>
<polygon fill="#63b8ff" stroke="#63b8ff" points="814.11,-139.79 814.04,-129.19 807.48,-137.52 814.11,-139.79"/>
</a>
</g>
</g>
<!-- Node15 -->
<g id="Node000015" class="node">
<title>Node15</title>
<g id="a_Node000015"><a xlink:href="CCSDSDataField_8h.html" target="_top" xlink:title=" ">
<polygon fill="white" stroke="#666666" points="591.5,-294 486.5,-294 486.5,-275 591.5,-275 591.5,-294"/>
<text text-anchor="middle" x="539" y="-282" font-family="Helvetica,sans-Serif" font-size="10.00">CCSDSDataField.h</text>
</a>
</g>
</g>
<!-- Node10&#45;&gt;Node15 -->
<g id="edge22_Node000010_Node000015" class="edge">
<title>Node10&#45;&gt;Node15</title>
<g id="a_edge22_Node000010_Node000015"><a xlink:title=" ">
<path fill="none" stroke="#63b8ff" d="M706.87,-329.98C672.85,-320.97 619,-306.7 581.5,-296.76"/>
<polygon fill="#63b8ff" stroke="#63b8ff" points="581.95,-293.26 571.39,-294.08 580.16,-300.03 581.95,-293.26"/>
</a>
</g>
</g>
<!-- Node11&#45;&gt;Node2 -->
<g id="edge11_Node000011_Node000002" class="edge">
<title>Node11&#45;&gt;Node2</title>
<g id="a_edge11_Node000011_Node000002"><a xlink:title=" ">
<path fill="none" stroke="#63b8ff" d="M238.17,-54.98C250.77,-46.84 270,-34.41 284.94,-24.76"/>
<polygon fill="#63b8ff" stroke="#63b8ff" points="287.09,-27.54 293.59,-19.17 283.29,-21.66 287.09,-27.54"/>
</a>
</g>
</g>
<!-- Node11&#45;&gt;Node4 -->
<g id="edge13_Node000011_Node000004" class="edge">
<title>Node11&#45;&gt;Node4</title>
<g id="a_edge13_Node000011_Node000004"><a xlink:title=" ">
<path fill="none" stroke="#63b8ff" d="M269.54,-59.96C394.66,-50.02 747.43,-21.99 858.25,-13.18"/>
<polygon fill="#63b8ff" stroke="#63b8ff" points="858.81,-16.65 868.5,-12.37 858.25,-9.67 858.81,-16.65"/>
</a>
</g>
</g>
<!-- Node11&#45;&gt;Node6 -->
<g id="edge15_Node000011_Node000006" class="edge">
<title>Node11&#45;&gt;Node6</title>
<g id="a_edge15_Node000011_Node000006"><a xlink:title=" ">
<path fill="none" stroke="#63b8ff" d="M197.53,-54.98C168.82,-46.09 123.58,-32.07 91.58,-22.15"/>
<polygon fill="#63b8ff" stroke="#63b8ff" points="92.28,-18.7 81.69,-19.08 90.2,-25.39 92.28,-18.7"/>
</a>
</g>
</g>
<!-- Node12 -->
<g id="Node000012" class="node">
<title>Node12</title>
<g id="a_Node000012"><a xlink:title=" ">
<polygon fill="#e0e0e0" stroke="#999999" points="242.5,-19 191.5,-19 191.5,0 242.5,0 242.5,-19"/>
<text text-anchor="middle" x="217" y="-7" font-family="Helvetica,sans-Serif" font-size="10.00">variant</text>
</a>
</g>
</g>
<!-- Node11&#45;&gt;Node12 -->
<g id="edge12_Node000011_Node000012" class="edge">
<title>Node11&#45;&gt;Node12</title>
<g id="a_edge12_Node000011_Node000012"><a xlink:title=" ">
<path fill="none" stroke="#63b8ff" d="M223.68,-54.75C222.63,-47.8 221.13,-37.85 219.81,-29.13"/>
<polygon fill="#63b8ff" stroke="#63b8ff" points="223.25,-28.45 218.3,-19.09 216.33,-29.5 223.25,-28.45"/>
</a>
</g>
</g>
<!-- Node11&#45;&gt;Node13 -->
<g id="edge14_Node000011_Node000013" class="edge">
<title>Node11&#45;&gt;Node13</title>
<g id="a_edge14_Node000011_Node000013"><a xlink:title=" ">
<path fill="none" stroke="#63b8ff" d="M269.52,-58.37C360.68,-47.87 566.92,-24.1 649.67,-14.57"/>
<polygon fill="#63b8ff" stroke="#63b8ff" points="650.29,-18.02 659.82,-13.4 649.49,-11.07 650.29,-18.02"/>
</a>
</g>
</g>
<!-- Node14&#45;&gt;Node4 -->
<g id="edge21_Node000014_Node000004" class="edge">
<title>Node14&#45;&gt;Node4</title>
<g id="a_edge21_Node000014_Node000004"><a xlink:title=" ">
<path fill="none" stroke="#63b8ff" d="M823.14,-109.66C835.62,-91.69 864.12,-50.64 880.28,-27.38"/>
<polygon fill="#63b8ff" stroke="#63b8ff" points="883.16,-29.37 885.99,-19.16 877.41,-25.38 883.16,-29.37"/>
</a>
</g>
</g>
<!-- Node14&#45;&gt;Node11 -->
<g id="edge19_Node000014_Node000011" class="edge">
<title>Node14&#45;&gt;Node11</title>
<g id="a_edge19_Node000014_Node000011"><a xlink:title=" ">
<path fill="none" stroke="#63b8ff" d="M770.05,-114.3C661.74,-104.6 394.86,-80.71 279.54,-70.38"/>
<polygon fill="#63b8ff" stroke="#63b8ff" points="279.79,-66.89 269.52,-69.49 279.17,-73.86 279.79,-66.89"/>
</a>
</g>
</g>
<!-- Node14&#45;&gt;Node13 -->
<g id="edge20_Node000014_Node000013" class="edge">
<title>Node14&#45;&gt;Node13</title>
<g id="a_edge20_Node000014_Node000013"><a xlink:title=" ">
<path fill="none" stroke="#63b8ff" d="M809.71,-109.62C798.83,-96.7 777.35,-72.36 756,-55 741.69,-43.37 724.15,-32.35 710.08,-24.18"/>
<polygon fill="#63b8ff" stroke="#63b8ff" points="711.4,-20.91 700.98,-19.01 707.94,-26.99 711.4,-20.91"/>
</a>
</g>
</g>
<!-- Node15&#45;&gt;Node4 -->
<g id="edge25_Node000015_Node000004" class="edge">
<title>Node15&#45;&gt;Node4</title>
<g id="a_edge25_Node000015_Node000004"><a xlink:title=" ">
<path fill="none" stroke="#63b8ff" d="M591.53,-275.31C667.1,-260.54 804.87,-221.84 873,-129 894.7,-99.43 895.54,-54.49 893.95,-29.31"/>
<polygon fill="#63b8ff" stroke="#63b8ff" points="897.43,-28.92 893.11,-19.25 890.45,-29.51 897.43,-28.92"/>
</a>
</g>
</g>
<!-- Node15&#45;&gt;Node11 -->
<g id="edge23_Node000015_Node000011" class="edge">
<title>Node15&#45;&gt;Node11</title>
<g id="a_edge23_Node000015_Node000011"><a xlink:title=" ">
<path fill="none" stroke="#63b8ff" d="M487.8,-274.97C452.14,-267.96 403.98,-256.33 364,-239 286.49,-205.41 245.66,-205.1 209,-129 201.92,-114.31 207.8,-96.15 214.34,-83.01"/>
<polygon fill="#63b8ff" stroke="#63b8ff" points="217.49,-84.54 219.26,-74.09 211.36,-81.16 217.49,-84.54"/>
</a>
</g>
</g>
<!-- Node15&#45;&gt;Node13 -->
<g id="edge24_Node000015_Node000013" class="edge">
<title>Node15&#45;&gt;Node13</title>
<g id="a_edge24_Node000015_Node000013"><a xlink:title=" ">
<path fill="none" stroke="#63b8ff" d="M564.4,-274.97C601.46,-260.72 666,-228.32 666,-175.5 666,-175.5 666,-175.5 666,-118.5 666,-86.56 674.16,-50.1 679.78,-28.77"/>
<polygon fill="#63b8ff" stroke="#63b8ff" points="683.17,-29.66 682.44,-19.09 676.42,-27.81 683.17,-29.66"/>
</a>
</g>
</g>
<!-- Node16 -->
<g id="Node000016" class="node">
<title>Node16</title>
<g id="a_Node000016"><a xlink:title=" ">
<polygon fill="#e0e0e0" stroke="#999999" points="276,-129 218,-129 218,-110 276,-110 276,-129"/>
<text text-anchor="middle" x="247" y="-117" font-family="Helvetica,sans-Serif" font-size="10.00">memory</text>
</a>
</g>
</g>
<!-- Node15&#45;&gt;Node16 -->
<g id="edge26_Node000015_Node000016" class="edge">
<title>Node15&#45;&gt;Node16</title>
<g id="a_edge26_Node000015_Node000016"><a xlink:title=" ">
<path fill="none" stroke="#63b8ff" d="M507.08,-274.92C459.65,-261.14 369.15,-230.76 304,-184 286.03,-171.1 269.64,-151.65 259.09,-137.68"/>
<polygon fill="#63b8ff" stroke="#63b8ff" points="261.77,-135.42 253.04,-129.41 256.12,-139.55 261.77,-135.42"/>
</a>
</g>
</g>
<!-- Node17 -->
<g id="Node000017" class="node">
<title>Node17</title>
<g id="a_Node000017"><a xlink:href="CCSDSSecondaryHeaderAbstract_8h.html" target="_top" xlink:title=" ">
<polygon fill="white" stroke="#666666" points="638.5,-129 453.5,-129 453.5,-110 638.5,-110 638.5,-129"/>
<text text-anchor="middle" x="546" y="-117" font-family="Helvetica,sans-Serif" font-size="10.00">CCSDSSecondaryHeaderAbstract.h</text>
</a>
</g>
</g>
<!-- Node15&#45;&gt;Node17 -->
<g id="edge27_Node000015_Node000017" class="edge">
<title>Node15&#45;&gt;Node17</title>
<g id="a_edge27_Node000015_Node000017"><a xlink:title=" ">
<path fill="none" stroke="#63b8ff" d="M542.09,-274.77C545.05,-265.9 549.32,-251.69 551,-239 555.65,-203.92 551.8,-162.53 548.77,-139.11"/>
<polygon fill="#63b8ff" stroke="#63b8ff" points="552.23,-138.59 547.39,-129.17 545.3,-139.56 552.23,-138.59"/>
</a>
</g>
</g>
<!-- Node18 -->
<g id="Node000018" class="node">
<title>Node18</title>
<g id="a_Node000018"><a xlink:href="CCSDSSecondaryHeaderFactory_8h.html" target="_top" xlink:title=" ">
<polygon fill="white" stroke="#666666" points="511.5,-184 332.5,-184 332.5,-165 511.5,-165 511.5,-184"/>
<text text-anchor="middle" x="422" y="-172" font-family="Helvetica,sans-Serif" font-size="10.00">CCSDSSecondaryHeaderFactory.h</text>
</a>
</g>
</g>
<!-- Node15&#45;&gt;Node18 -->
<g id="edge31_Node000015_Node000018" class="edge">
<title>Node15&#45;&gt;Node18</title>
<g id="a_edge31_Node000015_Node000018"><a xlink:title=" ">
<path fill="none" stroke="#63b8ff" d="M509.79,-275C490.38,-268.05 465.52,-256.49 449,-239 437.19,-226.49 430.13,-208.03 426.21,-194.24"/>
<polygon fill="#63b8ff" stroke="#63b8ff" points="429.56,-193.21 423.71,-184.38 422.78,-194.93 429.56,-193.21"/>
</a>
</g>
</g>
<!-- Node20 -->
<g id="Node000020" class="node">
<title>Node20</title>
<g id="a_Node000020"><a xlink:href="PusServices_8h.html" target="_top" xlink:title=" ">
<polygon fill="white" stroke="#666666" points="542,-239 458,-239 458,-220 542,-220 542,-239"/>
<text text-anchor="middle" x="500" y="-227" font-family="Helvetica,sans-Serif" font-size="10.00">PusServices.h</text>
</a>
</g>
</g>
<!-- Node15&#45;&gt;Node20 -->
<g id="edge37_Node000015_Node000020" class="edge">
<title>Node15&#45;&gt;Node20</title>
<g id="a_edge37_Node000015_Node000020"><a xlink:title=" ">
<path fill="none" stroke="#63b8ff" d="M532.56,-274.75C527.11,-267.34 519.14,-256.5 512.44,-247.41"/>
<polygon fill="#63b8ff" stroke="#63b8ff" points="515.07,-245.07 506.32,-239.09 509.43,-249.22 515.07,-245.07"/>
</a>
</g>
</g>
<!-- Node17&#45;&gt;Node4 -->
<g id="edge29_Node000017_Node000004" class="edge">
<title>Node17&#45;&gt;Node4</title>
<g id="a_edge29_Node000017_Node000004"><a xlink:title=" ">
<path fill="none" stroke="#63b8ff" d="M573.44,-109.94C636.23,-90.34 790.2,-42.28 858.47,-20.97"/>
<polygon fill="#63b8ff" stroke="#63b8ff" points="859.78,-24.22 868.28,-17.9 857.69,-17.54 859.78,-24.22"/>
</a>
</g>
</g>
<!-- Node17&#45;&gt;Node11 -->
<g id="edge28_Node000017_Node000011" class="edge">
<title>Node17&#45;&gt;Node11</title>
<g id="a_edge28_Node000017_Node000011"><a xlink:title=" ">
<path fill="none" stroke="#63b8ff" d="M494.43,-109.98C435.62,-100.28 339.88,-84.47 279.78,-74.54"/>
<polygon fill="#63b8ff" stroke="#63b8ff" points="280.15,-71.06 269.72,-72.88 279.01,-77.97 280.15,-71.06"/>
</a>
</g>
</g>
<!-- Node17&#45;&gt;Node13 -->
<g id="edge30_Node000017_Node000013" class="edge">
<title>Node17&#45;&gt;Node13</title>
<g id="a_edge30_Node000017_Node000013"><a xlink:title=" ">
<path fill="none" stroke="#63b8ff" d="M552.23,-109.84C561.96,-96.75 581.84,-71.71 603,-55 619.15,-42.25 639.47,-31.19 655.84,-23.29"/>
<polygon fill="#63b8ff" stroke="#63b8ff" points="657.4,-26.43 664.96,-19.01 654.42,-20.09 657.4,-26.43"/>
</a>
</g>
</g>
<!-- Node18&#45;&gt;Node2 -->
<g id="edge33_Node000018_Node000002" class="edge">
<title>Node18&#45;&gt;Node2</title>
<g id="a_edge33_Node000018_Node000002"><a xlink:title=" ">
<path fill="none" stroke="#63b8ff" d="M406.24,-164.85C393.02,-156.94 374.37,-144.18 362,-129 336.78,-98.04 320.24,-53.63 312.36,-28.9"/>
<polygon fill="#63b8ff" stroke="#63b8ff" points="315.62,-27.59 309.36,-19.04 308.93,-29.63 315.62,-27.59"/>
</a>
</g>
</g>
<!-- Node18&#45;&gt;Node3 -->
<g id="edge35_Node000018_Node000003" class="edge">
<title>Node18&#45;&gt;Node3</title>
<g id="a_edge35_Node000018_Node000003"><a xlink:title=" ">
<path fill="none" stroke="#63b8ff" d="M511.55,-165.54C646.92,-153.5 897.26,-131.24 985.88,-123.36"/>
<polygon fill="#63b8ff" stroke="#63b8ff" points="986.22,-126.84 995.87,-122.47 985.6,-119.87 986.22,-126.84"/>
</a>
</g>
</g>
<!-- Node18&#45;&gt;Node16 -->
<g id="edge32_Node000018_Node000016" class="edge">
<title>Node18&#45;&gt;Node16</title>
<g id="a_edge32_Node000018_Node000016"><a xlink:title=" ">
<path fill="none" stroke="#63b8ff" d="M393.88,-164.98C364.38,-156.05 317.81,-141.94 285.03,-132.02"/>
<polygon fill="#63b8ff" stroke="#63b8ff" points="285.92,-128.63 275.34,-129.08 283.89,-135.33 285.92,-128.63"/>
</a>
</g>
</g>
<!-- Node18&#45;&gt;Node17 -->
<g id="edge36_Node000018_Node000017" class="edge">
<title>Node18&#45;&gt;Node17</title>
<g id="a_edge36_Node000018_Node000017"><a xlink:title=" ">
<path fill="none" stroke="#63b8ff" d="M441.92,-164.98C462.05,-156.38 493.38,-142.99 516.41,-133.15"/>
<polygon fill="#63b8ff" stroke="#63b8ff" points="517.9,-136.32 525.71,-129.17 515.14,-129.88 517.9,-136.32"/>
</a>
</g>
</g>
<!-- Node19 -->
<g id="Node000019" class="node">
<title>Node19</title>
<g id="a_Node000019"><a xlink:title=" ">
<polygon fill="#e0e0e0" stroke="#999999" points="435.5,-129 370.5,-129 370.5,-110 435.5,-110 435.5,-129"/>
<text text-anchor="middle" x="403" y="-117" font-family="Helvetica,sans-Serif" font-size="10.00">functional</text>
</a>
</g>
</g>
<!-- Node18&#45;&gt;Node19 -->
<g id="edge34_Node000018_Node000019" class="edge">
<title>Node18&#45;&gt;Node19</title>
<g id="a_edge34_Node000018_Node000019"><a xlink:title=" ">
<path fill="none" stroke="#63b8ff" d="M418.86,-164.75C416.32,-157.65 412.64,-147.4 409.47,-138.56"/>
<polygon fill="#63b8ff" stroke="#63b8ff" points="412.75,-137.32 406.08,-129.09 406.16,-139.68 412.75,-137.32"/>
</a>
</g>
</g>
<!-- Node20&#45;&gt;Node11 -->
<g id="edge40_Node000020_Node000011" class="edge">
<title>Node20&#45;&gt;Node11</title>
<g id="a_edge40_Node000020_Node000011"><a xlink:title=" ">
<path fill="none" stroke="#63b8ff" d="M457.73,-227.32C419.18,-224.21 362.51,-214.31 324,-184 294.78,-161.01 309.2,-138.22 285,-110 274.77,-98.08 260.79,-87.47 248.9,-79.61"/>
<polygon fill="#63b8ff" stroke="#63b8ff" points="250.63,-76.56 240.31,-74.16 246.87,-82.47 250.63,-76.56"/>
</a>
</g>
</g>
<!-- Node20&#45;&gt;Node17 -->
<g id="edge38_Node000020_Node000017" class="edge">
<title>Node20&#45;&gt;Node17</title>
<g id="a_edge38_Node000020_Node000017"><a xlink:title=" ">
<path fill="none" stroke="#63b8ff" d="M504.36,-219.71C508.73,-210.79 515.58,-196.55 521,-184 527.54,-168.88 534.35,-151.45 539.21,-138.68"/>
<polygon fill="#63b8ff" stroke="#63b8ff" points="542.53,-139.79 542.78,-129.2 535.98,-137.32 542.53,-139.79"/>
</a>
</g>
</g>
<!-- Node20&#45;&gt;Node18 -->
<g id="edge39_Node000020_Node000018" class="edge">
<title>Node20&#45;&gt;Node18</title>
<g id="a_edge39_Node000020_Node000018"><a xlink:title=" ">
<path fill="none" stroke="#63b8ff" d="M487.47,-219.98C475.6,-211.92 457.54,-199.65 443.39,-190.03"/>
<polygon fill="#63b8ff" stroke="#63b8ff" points="445,-186.9 434.76,-184.17 441.06,-192.69 445,-186.9"/>
</a>
</g>
</g>
<!-- Node21&#45;&gt;Node10 -->
<g id="edge43_Node000021_Node000010" class="edge">
<title>Node21&#45;&gt;Node10</title>
<g id="a_edge43_Node000021_Node000010"><a xlink:title=" ">
<path fill="none" stroke="#63b8ff" d="M737.33,-384.75C737.59,-377.8 737.97,-367.85 738.3,-359.13"/>
<polygon fill="#63b8ff" stroke="#63b8ff" points="741.8,-359.21 738.68,-349.09 734.8,-358.95 741.8,-359.21"/>
</a>
</g>
</g>
<!-- Node22&#45;&gt;Node3 -->
<g id="edge49_Node000022_Node000003" class="edge">
<title>Node22&#45;&gt;Node3</title>
<g id="a_edge49_Node000022_Node000003"><a xlink:title=" ">
<path fill="none" stroke="#63b8ff" d="M887.36,-494.9C906.7,-488.22 929.94,-476.99 944,-459 1021.99,-359.22 1021.75,-194.63 1019.21,-139.3"/>
<polygon fill="#63b8ff" stroke="#63b8ff" points="1022.7,-139.01 1018.66,-129.22 1015.71,-139.39 1022.7,-139.01"/>
</a>
</g>
</g>
<!-- Node22&#45;&gt;Node4 -->
<g id="edge51_Node000022_Node000004" class="edge">
<title>Node22&#45;&gt;Node4</title>
<g id="a_edge51_Node000022_Node000004"><a xlink:title=" ">
<path fill="none" stroke="#63b8ff" d="M865.88,-494.88C887.25,-478.26 930,-439.52 930,-395.5 930,-395.5 930,-395.5 930,-338.5 930,-264.11 968,-249.89 968,-175.5 968,-175.5 968,-175.5 968,-118.5 968,-79.47 934.39,-44.58 911.87,-25.6"/>
<polygon fill="#63b8ff" stroke="#63b8ff" points="913.85,-22.7 903.88,-19.12 909.44,-28.14 913.85,-22.7"/>
</a>
</g>
</g>
<!-- Node22&#45;&gt;Node8 -->
<g id="edge48_Node000022_Node000008" class="edge">
<title>Node22&#45;&gt;Node8</title>
<g id="a_edge48_Node000022_Node000008"><a xlink:title=" ">
<path fill="none" stroke="#63b8ff" d="M824.92,-494.98C794.4,-486.05 746.24,-471.94 712.34,-462.02"/>
<polygon fill="#63b8ff" stroke="#63b8ff" points="712.89,-458.53 702.31,-459.08 710.92,-465.25 712.89,-458.53"/>
</a>
</g>
</g>
<!-- Node22&#45;&gt;Node10 -->
<g id="edge47_Node000022_Node000010" class="edge">
<title>Node22&#45;&gt;Node10</title>
<g id="a_edge47_Node000022_Node000010"><a xlink:title=" ">
<path fill="none" stroke="#63b8ff" d="M851.44,-494.99C844.94,-474.41 826.22,-420.97 797,-385 787.4,-373.19 774.07,-362.67 762.6,-354.84"/>
<polygon fill="#63b8ff" stroke="#63b8ff" points="764.2,-351.7 753.92,-349.15 760.37,-357.56 764.2,-351.7"/>
</a>
</g>
</g>
<!-- Node22&#45;&gt;Node13 -->
<g id="edge50_Node000022_Node000013" class="edge">
<title>Node22&#45;&gt;Node13</title>
<g id="a_edge50_Node000022_Node000013"><a xlink:title=" ">
<path fill="none" stroke="#63b8ff" d="M854,-494.82C854,-476.48 854,-432.44 854,-395.5 854,-395.5 854,-395.5 854,-283.5 854,-275.98 733.71,-86.84 696.1,-27.88"/>
<polygon fill="#63b8ff" stroke="#63b8ff" points="698.95,-25.84 690.62,-19.3 693.05,-29.61 698.95,-25.84"/>
</a>
</g>
</g>
</g>
</svg>
