<?xml version="1.0" encoding="UTF-8" standalone="no"?>
<!DOCTYPE svg PUBLIC "-//W3C//DTD SVG 1.1//EN"
 "http://www.w3.org/Graphics/SVG/1.1/DTD/svg11.dtd">
<!-- Generated by graphviz version 2.43.0 (0)
 -->
<!-- Title: src/exec_encoder.cpp Pages: 1 -->
<!--zoomable 687 -->

<svg id="main" version="1.1" xmlns="http://www.w3.org/2000/svg" xmlns:xlink="http://www.w3.org/1999/xlink" xml:space="preserve" onload="init(evt)">
<style type="text/css"><![CDATA[
.node, .edge {opacity: 0.7;}
.node.selected, .edge.selected {opacity: 1;}
.edge:hover path { stroke: red; }
.edge:hover polygon { stroke: red; fill: red; }
]]></style>

<defs>
  <circle id="rim" cx="0" cy="0" r="7"/>
  <circle id="rim2" cx="0" cy="0" r="3.5"/>
  <g id="zoomPlus">
    <use xlink:href="#rim" fill="#404040"><set attributeName="fill" to="#808080" begin="zoomplus.mouseover" end="zoomplus.mouseout"/></use>
    <path d="M-4,0h8M0,-4v8" fill="none" stroke="white" stroke-width="1.5" pointer-events="none"/>
  </g>
  <g id="zoomMin">
    <use xlink:href="#rim" fill="#404040"><set attributeName="fill" to="#808080" begin="zoomminus.mouseover" end="zoomminus.mouseout"/></use>
    <path d="M-4,0h8" fill="none" stroke="white" stroke-width="1.5" pointer-events="none"/>
  </g>
  <g id="arrowUp" transform="translate(30 24)">
    <use xlink:href="#rim"/>
    <path pointer-events="none" fill="none" stroke="white" stroke-width="1.5" d="M0,-3.0v7 M-2.5,-0.5L0,-3.0L2.5,-0.5"/>
  </g>
  <g id="arrowRight" transform="rotate(90) translate(36 -43)">
    <use xlink:href="#rim"/>
    <path pointer-events="none" fill="none" stroke="white" stroke-width="1.5" d="M0,-3.0v7 M-2.5,-0.5L0,-3.0L2.5,-0.5"/>
  </g>
  <g id="arrowDown" transform="rotate(180) translate(-30 -48)">
    <use xlink:href="#rim"/>
    <path pointer-events="none" fill="none" stroke="white" stroke-width="1.5" d="M0,-3.0v7 M-2.5,-0.5L0,-3.0L2.5,-0.5"/>
  </g>
  <g id="arrowLeft" transform="rotate(270) translate(-36 17)">
    <use xlink:href="#rim"/>
    <path pointer-events="none" fill="none" stroke="white" stroke-width="1.5" d="M0,-3.0v7 M-2.5,-0.5L0,-3.0L2.5,-0.5"/>
  </g>
  <g id="resetDef">
    <use xlink:href="#rim2" fill="#404040"><set attributeName="fill" to="#808080" begin="reset.mouseover" end="reset.mouseout"/></use>
  </g>
</defs>
<script type="application/ecmascript">
var viewWidth = 1099;
var viewHeight = 687;
var sectionId = 'dynsection-0';
</script>
<script type="application/ecmascript" xlink:href="svg.min.js"/>
<svg id="graph" class="graph">
<g id="viewport">
<title>src/exec_encoder.cpp</title>
<!-- Node1 -->
<g id="Node000001" class="node">
<title>Node1</title>
<g id="a_Node000001"><a xlink:title=" ">
<polygon fill="#999999" stroke="#666666" points="580,-679 460,-679 460,-660 580,-660 580,-679"/>
<text text-anchor="middle" x="520" y="-667" font-family="Helvetica,sans-Serif" font-size="10.00">src/exec_encoder.cpp</text>
</a>
</g>
</g>
<!-- Node2 -->
<g id="Node000002" class="node">
<title>Node2</title>
<g id="a_Node000002"><a xlink:title=" ">
<polygon fill="#e0e0e0" stroke="#999999" points="1090.5,-19 997.5,-19 997.5,0 1090.5,0 1090.5,-19"/>
<text text-anchor="middle" x="1044" y="-7" font-family="Helvetica,sans-Serif" font-size="10.00">unordered_map</text>
</a>
</g>
</g>
<!-- Node1&#45;&gt;Node2 -->
<g id="edge1_Node000001_Node000002" class="edge">
<title>Node1&#45;&gt;Node2</title>
<g id="a_edge1_Node000001_Node000002"><a xlink:title=" ">
<path fill="none" stroke="#63b8ff" d="M580.2,-668.05C694.83,-666.39 939.79,-658.75 1016,-624 1053.04,-607.11 1082,-601.21 1082,-560.5 1082,-560.5 1082,-560.5 1082,-118.5 1082,-85.02 1065.55,-48.84 1054.3,-28.01"/>
<polygon fill="#63b8ff" stroke="#63b8ff" points="1057.24,-26.1 1049.28,-19.1 1051.13,-29.53 1057.24,-26.1"/>
</a>
</g>
</g>
<!-- Node3 -->
<g id="Node000003" class="node">
<title>Node3</title>
<g id="a_Node000003"><a xlink:title=" ">
<polygon fill="#e0e0e0" stroke="#999999" points="193,-74 149,-74 149,-55 193,-55 193,-74"/>
<text text-anchor="middle" x="171" y="-62" font-family="Helvetica,sans-Serif" font-size="10.00">string</text>
</a>
</g>
</g>
<!-- Node1&#45;&gt;Node3 -->
<g id="edge2_Node000001_Node000003" class="edge">
<title>Node1&#45;&gt;Node3</title>
<g id="a_edge2_Node000001_Node000003"><a xlink:title=" ">
<path fill="none" stroke="#63b8ff" d="M459.66,-664.98C346.56,-656.73 114,-631.16 114,-560.5 114,-560.5 114,-560.5 114,-173.5 114,-137.51 139.06,-101.76 155.95,-81.76"/>
<polygon fill="#63b8ff" stroke="#63b8ff" points="158.62,-84.02 162.59,-74.2 153.36,-79.4 158.62,-84.02"/>
</a>
</g>
</g>
<!-- Node4 -->
<g id="Node000004" class="node">
<title>Node4</title>
<g id="a_Node000004"><a xlink:title=" ">
<polygon fill="#e0e0e0" stroke="#999999" points="533.5,-19 486.5,-19 486.5,0 533.5,0 533.5,-19"/>
<text text-anchor="middle" x="510" y="-7" font-family="Helvetica,sans-Serif" font-size="10.00">vector</text>
</a>
</g>
</g>
<!-- Node1&#45;&gt;Node4 -->
<g id="edge3_Node000001_Node000004" class="edge">
<title>Node1&#45;&gt;Node4</title>
<g id="a_edge3_Node000001_Node000004"><a xlink:title=" ">
<path fill="none" stroke="#63b8ff" d="M459.93,-667.54C330.72,-663.85 38,-646.04 38,-560.5 38,-560.5 38,-560.5 38,-118.5 38,-79.67 63.22,-72.26 98,-55 164.35,-22.07 390.51,-13.33 476.48,-11.16"/>
<polygon fill="#63b8ff" stroke="#63b8ff" points="476.56,-14.66 486.48,-10.92 476.4,-7.66 476.56,-14.66"/>
</a>
</g>
</g>
<!-- Node5 -->
<g id="Node000005" class="node">
<title>Node5</title>
<g id="a_Node000005"><a xlink:title=" ">
<polygon fill="#e0e0e0" stroke="#999999" points="262,-19 202,-19 202,0 262,0 262,-19"/>
<text text-anchor="middle" x="232" y="-7" font-family="Helvetica,sans-Serif" font-size="10.00">iostream</text>
</a>
</g>
</g>
<!-- Node1&#45;&gt;Node5 -->
<g id="edge4_Node000001_Node000005" class="edge">
<title>Node1&#45;&gt;Node5</title>
<g id="a_edge4_Node000001_Node000005"><a xlink:title=" ">
<path fill="none" stroke="#63b8ff" d="M459.81,-667.33C353.31,-664.48 136.44,-654.94 68,-624 30.32,-606.96 0,-601.85 0,-560.5 0,-560.5 0,-560.5 0,-118.5 0,-35 125.05,-15.89 191.53,-11.64"/>
<polygon fill="#63b8ff" stroke="#63b8ff" points="191.88,-15.12 201.67,-11.07 191.49,-8.13 191.88,-15.12"/>
</a>
</g>
</g>
<!-- Node6 -->
<g id="Node000006" class="node">
<title>Node6</title>
<g id="a_Node000006"><a xlink:title=" ">
<polygon fill="#e0e0e0" stroke="#999999" points="587,-624 537,-624 537,-605 587,-605 587,-624"/>
<text text-anchor="middle" x="562" y="-612" font-family="Helvetica,sans-Serif" font-size="10.00">chrono</text>
</a>
</g>
</g>
<!-- Node1&#45;&gt;Node6 -->
<g id="edge5_Node000001_Node000006" class="edge">
<title>Node1&#45;&gt;Node6</title>
<g id="a_edge5_Node000001_Node000006"><a xlink:title=" ">
<path fill="none" stroke="#63b8ff" d="M526.94,-659.75C532.87,-652.26 541.57,-641.28 548.82,-632.13"/>
<polygon fill="#63b8ff" stroke="#63b8ff" points="551.73,-634.1 555.19,-624.09 546.24,-629.75 551.73,-634.1"/>
</a>
</g>
</g>
<!-- Node7 -->
<g id="Node000007" class="node">
<title>Node7</title>
<g id="a_Node000007"><a xlink:title=" ">
<polygon fill="#e0e0e0" stroke="#999999" points="661,-624 605,-624 605,-605 661,-605 661,-624"/>
<text text-anchor="middle" x="633" y="-612" font-family="Helvetica,sans-Serif" font-size="10.00">sstream</text>
</a>
</g>
</g>
<!-- Node1&#45;&gt;Node7 -->
<g id="edge6_Node000001_Node000007" class="edge">
<title>Node1&#45;&gt;Node7</title>
<g id="a_edge6_Node000001_Node000007"><a xlink:title=" ">
<path fill="none" stroke="#63b8ff" d="M538.16,-659.98C556.25,-651.5 584.28,-638.35 605.19,-628.54"/>
<polygon fill="#63b8ff" stroke="#63b8ff" points="606.95,-631.59 614.51,-624.17 603.97,-625.25 606.95,-631.59"/>
</a>
</g>
</g>
<!-- Node8 -->
<g id="Node000008" class="node">
<title>Node8</title>
<g id="a_Node000008"><a xlink:href="CCSDSPack_8h.html" target="_top" xlink:title=" ">
<polygon fill="white" stroke="#666666" points="518.5,-624 437.5,-624 437.5,-605 518.5,-605 518.5,-624"/>
<text text-anchor="middle" x="478" y="-612" font-family="Helvetica,sans-Serif" font-size="10.00">CCSDSPack.h</text>
</a>
</g>
</g>
<!-- Node1&#45;&gt;Node8 -->
<g id="edge7_Node000001_Node000008" class="edge">
<title>Node1&#45;&gt;Node8</title>
<g id="a_edge7_Node000001_Node000008"><a xlink:title=" ">
<path fill="none" stroke="#63b8ff" d="M513.06,-659.75C507.13,-652.26 498.43,-641.28 491.18,-632.13"/>
<polygon fill="#63b8ff" stroke="#63b8ff" points="493.76,-629.75 484.81,-624.09 488.27,-634.1 493.76,-629.75"/>
</a>
</g>
</g>
<!-- Node25 -->
<g id="Node000025" class="node">
<title>Node25</title>
<g id="a_Node000025"><a xlink:href="exec__utils_8h.html" target="_top" xlink:title=" ">
<polygon fill="white" stroke="#666666" points="1007,-624 933,-624 933,-605 1007,-605 1007,-624"/>
<text text-anchor="middle" x="970" y="-612" font-family="Helvetica,sans-Serif" font-size="10.00">exec_utils.h</text>
</a>
</g>
</g>
<!-- Node1&#45;&gt;Node25 -->
<g id="edge62_Node000001_Node000025" class="edge">
<title>Node1&#45;&gt;Node25</title>
<g id="a_edge62_Node000001_Node000025"><a xlink:title=" ">
<path fill="none" stroke="#63b8ff" d="M580.22,-661.41C670.83,-650.74 840.35,-630.77 922.69,-621.07"/>
<polygon fill="#63b8ff" stroke="#63b8ff" points="923.24,-624.53 932.77,-619.89 922.42,-617.58 923.24,-624.53"/>
</a>
</g>
</g>
<!-- Node9 -->
<g id="Node000009" class="node">
<title>Node9</title>
<g id="a_Node000009"><a xlink:href="CCSDSDataField_8h.html" target="_top" xlink:title=" ">
<polygon fill="white" stroke="#666666" points="632.5,-349 527.5,-349 527.5,-330 632.5,-330 632.5,-349"/>
<text text-anchor="middle" x="580" y="-337" font-family="Helvetica,sans-Serif" font-size="10.00">CCSDSDataField.h</text>
</a>
</g>
</g>
<!-- Node8&#45;&gt;Node9 -->
<g id="edge8_Node000008_Node000009" class="edge">
<title>Node8&#45;&gt;Node9</title>
<g id="a_edge8_Node000008_Node000009"><a xlink:title=" ">
<path fill="none" stroke="#63b8ff" d="M442.95,-604.88C424.35,-598.33 403.1,-587.24 392,-569 387.61,-561.79 389.12,-557.94 392,-550 424.63,-460.13 517.19,-385.26 559.02,-354.96"/>
<polygon fill="#63b8ff" stroke="#63b8ff" points="561.25,-357.67 567.36,-349.02 557.19,-351.97 561.25,-357.67"/>
</a>
</g>
</g>
<!-- Node10 -->
<g id="Node000010" class="node">
<title>Node10</title>
<g id="a_Node000010"><a xlink:href="CCSDSResult_8h.html" target="_top" xlink:title=" ">
<polygon fill="white" stroke="#666666" points="821.5,-74 732.5,-74 732.5,-55 821.5,-55 821.5,-74"/>
<text text-anchor="middle" x="777" y="-62" font-family="Helvetica,sans-Serif" font-size="10.00">CCSDSResult.h</text>
</a>
</g>
</g>
<!-- Node8&#45;&gt;Node10 -->
<g id="edge52_Node000008_Node000010" class="edge">
<title>Node8&#45;&gt;Node10</title>
<g id="a_edge52_Node000008_Node000010"><a xlink:title=" ">
<path fill="none" stroke="#63b8ff" d="M518.65,-605.11C623.32,-583.22 894,-524.76 894,-505.5 894,-505.5 894,-505.5 894,-228.5 894,-163.27 831.39,-106.25 797.77,-80.33"/>
<polygon fill="#63b8ff" stroke="#63b8ff" points="799.62,-77.35 789.52,-74.15 795.42,-82.95 799.62,-77.35"/>
</a>
</g>
</g>
<!-- Node14 -->
<g id="Node000014" class="node">
<title>Node14</title>
<g id="a_Node000014"><a xlink:href="CCSDSSecondaryHeaderAbstract_8h.html" target="_top" xlink:title=" ">
<polygon fill="white" stroke="#666666" points="440.5,-184 255.5,-184 255.5,-165 440.5,-165 440.5,-184"/>
<text text-anchor="middle" x="348" y="-172" font-family="Helvetica,sans-Serif" font-size="10.00">CCSDSSecondaryHeaderAbstract.h</text>
</a>
</g>
</g>
<!-- Node8&#45;&gt;Node14 -->
<g id="edge53_Node000008_Node000014" class="edge">
<title>Node8&#45;&gt;Node14</title>
<g id="a_edge53_Node000008_Node000014"><a xlink:title=" ">
<path fill="none" stroke="#63b8ff" d="M437.28,-613.6C366.44,-611.39 228,-595.57 228,-505.5 228,-505.5 228,-505.5 228,-283.5 228,-236.36 279.8,-204.54 315.33,-188.26"/>
<polygon fill="#63b8ff" stroke="#63b8ff" points="317.11,-191.31 324.86,-184.09 314.3,-184.89 317.11,-191.31"/>
</a>
</g>
</g>
<!-- Node16 -->
<g id="Node000016" class="node">
<title>Node16</title>
<g id="a_Node000016"><a xlink:href="CCSDSSecondaryHeaderFactory_8h.html" target="_top" xlink:title=" ">
<polygon fill="white" stroke="#666666" points="561.5,-239 382.5,-239 382.5,-220 561.5,-220 561.5,-239"/>
<text text-anchor="middle" x="472" y="-227" font-family="Helvetica,sans-Serif" font-size="10.00">CCSDSSecondaryHeaderFactory.h</text>
</a>
</g>
</g>
<!-- Node8&#45;&gt;Node16 -->
<g id="edge54_Node000008_Node000016" class="edge">
<title>Node8&#45;&gt;Node16</title>
<g id="a_edge54_Node000008_Node000016"><a xlink:title=" ">
<path fill="none" stroke="#63b8ff" d="M464.8,-604.71C453.59,-596.62 437.81,-583.69 428,-569 411.42,-544.16 406,-535.37 406,-505.5 406,-505.5 406,-505.5 406,-338.5 406,-301.23 434.98,-265.93 454.53,-246.36"/>
<polygon fill="#63b8ff" stroke="#63b8ff" points="457.19,-248.65 461.98,-239.2 452.34,-243.61 457.19,-248.65"/>
</a>
</g>
</g>
<!-- Node18 -->
<g id="Node000018" class="node">
<title>Node18</title>
<g id="a_Node000018"><a xlink:href="PusServices_8h.html" target="_top" xlink:title=" ">
<polygon fill="white" stroke="#666666" points="340,-294 256,-294 256,-275 340,-275 340,-294"/>
<text text-anchor="middle" x="298" y="-282" font-family="Helvetica,sans-Serif" font-size="10.00">PusServices.h</text>
</a>
</g>
</g>
<!-- Node8&#45;&gt;Node18 -->
<g id="edge61_Node000008_Node000018" class="edge">
<title>Node8&#45;&gt;Node18</title>
<g id="a_edge61_Node000008_Node000018"><a xlink:title=" ">
<path fill="none" stroke="#63b8ff" d="M437.18,-608.12C382.43,-598.36 292,-572.15 292,-505.5 292,-505.5 292,-505.5 292,-393.5 292,-362.14 294.55,-325.74 296.33,-304.22"/>
<polygon fill="#63b8ff" stroke="#63b8ff" points="299.82,-304.43 297.19,-294.17 292.85,-303.83 299.82,-304.43"/>
</a>
</g>
</g>
<!-- Node19 -->
<g id="Node000019" class="node">
<title>Node19</title>
<g id="a_Node000019"><a xlink:href="CCSDSHeader_8h.html" target="_top" xlink:title=" ">
<polygon fill="white" stroke="#666666" points="1015.5,-129 922.5,-129 922.5,-110 1015.5,-110 1015.5,-129"/>
<text text-anchor="middle" x="969" y="-117" font-family="Helvetica,sans-Serif" font-size="10.00">CCSDSHeader.h</text>
</a>
</g>
</g>
<!-- Node8&#45;&gt;Node19 -->
<g id="edge37_Node000008_Node000019" class="edge">
<title>Node8&#45;&gt;Node19</title>
<g id="a_edge37_Node000008_Node000019"><a xlink:title=" ">
<path fill="none" stroke="#63b8ff" d="M518.62,-606.34C521.79,-605.86 524.94,-605.4 528,-605 612.09,-593.88 840.57,-620.46 908,-569 931.98,-550.69 932,-535.67 932,-505.5 932,-505.5 932,-505.5 932,-283.5 932,-269.07 954.32,-178.72 964.29,-139.09"/>
<polygon fill="#63b8ff" stroke="#63b8ff" points="967.74,-139.72 966.8,-129.16 960.96,-138 967.74,-139.72"/>
</a>
</g>
</g>
<!-- Node20 -->
<g id="Node000020" class="node">
<title>Node20</title>
<g id="a_Node000020"><a xlink:href="CCSDSManager_8h.html" target="_top" xlink:title=" ">
<polygon fill="white" stroke="#666666" points="624.5,-514 523.5,-514 523.5,-495 624.5,-495 624.5,-514"/>
<text text-anchor="middle" x="574" y="-502" font-family="Helvetica,sans-Serif" font-size="10.00">CCSDSManager.h</text>
</a>
</g>
</g>
<!-- Node8&#45;&gt;Node20 -->
<g id="edge41_Node000008_Node000020" class="edge">
<title>Node8&#45;&gt;Node20</title>
<g id="a_edge41_Node000008_Node000020"><a xlink:title=" ">
<path fill="none" stroke="#63b8ff" d="M488.69,-604.85C499.01,-596.26 514.82,-582.47 527,-569 540.33,-554.27 553.62,-535.88 562.65,-522.69"/>
<polygon fill="#63b8ff" stroke="#63b8ff" points="565.73,-524.38 568.41,-514.13 559.92,-520.47 565.73,-524.38"/>
</a>
</g>
</g>
<!-- Node22 -->
<g id="Node000022" class="node">
<title>Node22</title>
<g id="a_Node000022"><a xlink:href="CCSDSPacket_8h.html" target="_top" xlink:title=" ">
<polygon fill="white" stroke="#666666" points="748,-404 658,-404 658,-385 748,-385 748,-404"/>
<text text-anchor="middle" x="703" y="-392" font-family="Helvetica,sans-Serif" font-size="10.00">CCSDSPacket.h</text>
</a>
</g>
</g>
<!-- Node8&#45;&gt;Node22 -->
<g id="edge51_Node000008_Node000022" class="edge">
<title>Node8&#45;&gt;Node22</title>
<g id="a_edge51_Node000008_Node000022"><a xlink:title=" ">
<path fill="none" stroke="#63b8ff" d="M511.75,-604.87C569,-588.1 682.73,-544.97 722,-459 728.78,-444.15 722.22,-426.26 715.01,-413.26"/>
<polygon fill="#63b8ff" stroke="#63b8ff" points="717.79,-411.1 709.59,-404.4 711.82,-414.76 717.79,-411.1"/>
</a>
</g>
</g>
<!-- Node23 -->
<g id="Node000023" class="node">
<title>Node23</title>
<g id="a_Node000023"><a xlink:href="CCSDSValidator_8h.html" target="_top" xlink:title="Defines the Validator class for CCSDS packet validation.">
<polygon fill="white" stroke="#666666" points="713.5,-459 612.5,-459 612.5,-440 713.5,-440 713.5,-459"/>
<text text-anchor="middle" x="663" y="-447" font-family="Helvetica,sans-Serif" font-size="10.00">CCSDSValidator.h</text>
</a>
</g>
</g>
<!-- Node8&#45;&gt;Node23 -->
<g id="edge60_Node000008_Node000023" class="edge">
<title>Node8&#45;&gt;Node23</title>
<g id="a_edge60_Node000008_Node000023"><a xlink:title=" ">
<path fill="none" stroke="#63b8ff" d="M498.45,-604.96C530.85,-590.54 594.27,-558.5 633,-514 644.5,-500.79 652.53,-482.42 657.38,-468.83"/>
<polygon fill="#63b8ff" stroke="#63b8ff" points="660.76,-469.75 660.58,-459.15 654.12,-467.55 660.76,-469.75"/>
</a>
</g>
</g>
<!-- Node24 -->
<g id="Node000024" class="node">
<title>Node24</title>
<g id="a_Node000024"><a xlink:href="CCSDSUtils_8h.html" target="_top" xlink:title=" ">
<polygon fill="white" stroke="#666666" points="518.5,-569 437.5,-569 437.5,-550 518.5,-550 518.5,-569"/>
<text text-anchor="middle" x="478" y="-557" font-family="Helvetica,sans-Serif" font-size="10.00">CCSDSUtils.h</text>
</a>
</g>
</g>
<!-- Node8&#45;&gt;Node24 -->
<g id="edge55_Node000008_Node000024" class="edge">
<title>Node8&#45;&gt;Node24</title>
<g id="a_edge55_Node000008_Node000024"><a xlink:title=" ">
<path fill="none" stroke="#63b8ff" d="M478,-604.75C478,-597.8 478,-587.85 478,-579.13"/>
<polygon fill="#63b8ff" stroke="#63b8ff" points="481.5,-579.09 478,-569.09 474.5,-579.09 481.5,-579.09"/>
</a>
</g>
</g>
<!-- Node9&#45;&gt;Node4 -->
<g id="edge15_Node000009_Node000004" class="edge">
<title>Node9&#45;&gt;Node4</title>
<g id="a_edge15_Node000009_Node000004"><a xlink:title=" ">
<path fill="none" stroke="#63b8ff" d="M584.22,-329.67C595.96,-303.87 627.03,-226.55 609,-165 592.52,-108.72 548.55,-53.5 525.15,-26.91"/>
<polygon fill="#63b8ff" stroke="#63b8ff" points="527.62,-24.42 518.33,-19.31 522.41,-29.09 527.62,-24.42"/>
</a>
</g>
</g>
<!-- Node9&#45;&gt;Node10 -->
<g id="edge9_Node000009_Node000010" class="edge">
<title>Node9&#45;&gt;Node10</title>
<g id="a_edge9_Node000009_Node000010"><a xlink:title=" ">
<path fill="none" stroke="#63b8ff" d="M615.28,-329.88C636.38,-323.16 662.42,-311.89 680,-294 711.25,-262.21 755.34,-132.57 771.11,-83.99"/>
<polygon fill="#63b8ff" stroke="#63b8ff" points="774.53,-84.79 774.26,-74.2 767.86,-82.65 774.53,-84.79"/>
</a>
</g>
</g>
<!-- Node13 -->
<g id="Node000013" class="node">
<title>Node13</title>
<g id="a_Node000013"><a xlink:title=" ">
<polygon fill="#e0e0e0" stroke="#999999" points="600,-184 542,-184 542,-165 600,-165 600,-184"/>
<text text-anchor="middle" x="571" y="-172" font-family="Helvetica,sans-Serif" font-size="10.00">memory</text>
</a>
</g>
</g>
<!-- Node9&#45;&gt;Node13 -->
<g id="edge16_Node000009_Node000013" class="edge">
<title>Node9&#45;&gt;Node13</title>
<g id="a_edge16_Node000009_Node000013"><a xlink:title=" ">
<path fill="none" stroke="#63b8ff" d="M579.52,-329.74C578.11,-304.31 574.01,-230.08 572.06,-194.69"/>
<polygon fill="#63b8ff" stroke="#63b8ff" points="575.53,-194.1 571.49,-184.31 568.54,-194.48 575.53,-194.1"/>
</a>
</g>
</g>
<!-- Node9&#45;&gt;Node14 -->
<g id="edge17_Node000009_Node000014" class="edge">
<title>Node9&#45;&gt;Node14</title>
<g id="a_edge17_Node000009_Node000014"><a xlink:title=" ">
<path fill="none" stroke="#63b8ff" d="M544.04,-329.95C498.44,-317.36 420.1,-289.67 373,-239 361.42,-226.54 354.96,-208.07 351.53,-194.26"/>
<polygon fill="#63b8ff" stroke="#63b8ff" points="354.92,-193.42 349.38,-184.39 348.08,-194.91 354.92,-193.42"/>
</a>
</g>
</g>
<!-- Node9&#45;&gt;Node16 -->
<g id="edge26_Node000009_Node000016" class="edge">
<title>Node9&#45;&gt;Node16</title>
<g id="a_edge26_Node000009_Node000016"><a xlink:title=" ">
<path fill="none" stroke="#63b8ff" d="M571.16,-329.66C552.96,-311.46 511.05,-269.55 487.97,-246.47"/>
<polygon fill="#63b8ff" stroke="#63b8ff" points="490.2,-243.75 480.66,-239.16 485.25,-248.7 490.2,-243.75"/>
</a>
</g>
</g>
<!-- Node9&#45;&gt;Node18 -->
<g id="edge32_Node000009_Node000018" class="edge">
<title>Node9&#45;&gt;Node18</title>
<g id="a_edge32_Node000009_Node000018"><a xlink:title=" ">
<path fill="none" stroke="#63b8ff" d="M534.69,-329.98C484.38,-320.53 403.28,-305.29 350.3,-295.33"/>
<polygon fill="#63b8ff" stroke="#63b8ff" points="350.9,-291.88 340.43,-293.47 349.61,-298.76 350.9,-291.88"/>
</a>
</g>
</g>
<!-- Node10&#45;&gt;Node2 -->
<g id="edge10_Node000010_Node000002" class="edge">
<title>Node10&#45;&gt;Node2</title>
<g id="a_edge10_Node000010_Node000002"><a xlink:title=" ">
<path fill="none" stroke="#63b8ff" d="M819.9,-54.98C866.37,-45.76 940.59,-31.03 990.76,-21.07"/>
<polygon fill="#63b8ff" stroke="#63b8ff" points="991.64,-24.46 1000.77,-19.08 990.28,-17.6 991.64,-24.46"/>
</a>
</g>
</g>
<!-- Node10&#45;&gt;Node4 -->
<g id="edge12_Node000010_Node000004" class="edge">
<title>Node10&#45;&gt;Node4</title>
<g id="a_edge12_Node000010_Node000004"><a xlink:title=" ">
<path fill="none" stroke="#63b8ff" d="M732.39,-55.34C685.98,-46.75 611.26,-32.59 547,-19 545.94,-18.77 544.86,-18.54 543.77,-18.31"/>
<polygon fill="#63b8ff" stroke="#63b8ff" points="544.38,-14.86 533.86,-16.11 542.86,-21.69 544.38,-14.86"/>
</a>
</g>
</g>
<!-- Node10&#45;&gt;Node5 -->
<g id="edge14_Node000010_Node000005" class="edge">
<title>Node10&#45;&gt;Node5</title>
<g id="a_edge14_Node000010_Node000005"><a xlink:title=" ">
<path fill="none" stroke="#63b8ff" d="M732.4,-59.16C628.52,-49.06 371.74,-24.09 272.27,-14.42"/>
<polygon fill="#63b8ff" stroke="#63b8ff" points="272.33,-10.91 262.03,-13.42 271.65,-17.87 272.33,-10.91"/>
</a>
</g>
</g>
<!-- Node11 -->
<g id="Node000011" class="node">
<title>Node11</title>
<g id="a_Node000011"><a xlink:title=" ">
<polygon fill="#e0e0e0" stroke="#999999" points="802.5,-19 751.5,-19 751.5,0 802.5,0 802.5,-19"/>
<text text-anchor="middle" x="777" y="-7" font-family="Helvetica,sans-Serif" font-size="10.00">variant</text>
</a>
</g>
</g>
<!-- Node10&#45;&gt;Node11 -->
<g id="edge11_Node000010_Node000011" class="edge">
<title>Node10&#45;&gt;Node11</title>
<g id="a_edge11_Node000010_Node000011"><a xlink:title=" ">
<path fill="none" stroke="#63b8ff" d="M777,-54.75C777,-47.8 777,-37.85 777,-29.13"/>
<polygon fill="#63b8ff" stroke="#63b8ff" points="780.5,-29.09 777,-19.09 773.5,-29.09 780.5,-29.09"/>
</a>
</g>
</g>
<!-- Node12 -->
<g id="Node000012" class="node">
<title>Node12</title>
<g id="a_Node000012"><a xlink:title=" ">
<polygon fill="#e0e0e0" stroke="#999999" points="606,-19 556,-19 556,0 606,0 606,-19"/>
<text text-anchor="middle" x="581" y="-7" font-family="Helvetica,sans-Serif" font-size="10.00">cstdint</text>
</a>
</g>
</g>
<!-- Node10&#45;&gt;Node12 -->
<g id="edge13_Node000010_Node000012" class="edge">
<title>Node10&#45;&gt;Node12</title>
<g id="a_edge13_Node000010_Node000012"><a xlink:title=" ">
<path fill="none" stroke="#63b8ff" d="M745.51,-54.98C710.1,-45.41 652.75,-29.9 615.97,-19.96"/>
<polygon fill="#63b8ff" stroke="#63b8ff" points="616.75,-16.54 606.18,-17.31 614.92,-23.3 616.75,-16.54"/>
</a>
</g>
</g>
<!-- Node14&#45;&gt;Node4 -->
<g id="edge24_Node000014_Node000004" class="edge">
<title>Node14&#45;&gt;Node4</title>
<g id="a_edge24_Node000014_Node000004"><a xlink:title=" ">
<path fill="none" stroke="#63b8ff" d="M363.34,-164.94C377.34,-156.73 398.2,-143.47 414,-129 448.82,-97.11 481.71,-52.15 498.47,-27.8"/>
<polygon fill="#63b8ff" stroke="#63b8ff" points="501.53,-29.51 504.25,-19.27 495.74,-25.58 501.53,-29.51"/>
</a>
</g>
</g>
<!-- Node14&#45;&gt;Node10 -->
<g id="edge18_Node000014_Node000010" class="edge">
<title>Node14&#45;&gt;Node10</title>
<g id="a_edge18_Node000014_Node000010"><a xlink:title=" ">
<path fill="none" stroke="#63b8ff" d="M393.72,-164.97C436.82,-156.68 503.1,-143.28 560,-129 623.98,-112.95 697.45,-90.61 740.4,-77.16"/>
<polygon fill="#63b8ff" stroke="#63b8ff" points="741.63,-80.44 750.12,-74.1 739.53,-73.76 741.63,-80.44"/>
</a>
</g>
</g>
<!-- Node14&#45;&gt;Node12 -->
<g id="edge25_Node000014_Node000012" class="edge">
<title>Node14&#45;&gt;Node12</title>
<g id="a_edge25_Node000014_Node000012"><a xlink:title=" ">
<path fill="none" stroke="#63b8ff" d="M368.75,-164.89C387.49,-156.75 415.48,-143.61 438,-129 487.54,-96.85 539.4,-50.04 564.9,-26.01"/>
<polygon fill="#63b8ff" stroke="#63b8ff" points="567.37,-28.48 572.21,-19.05 562.55,-23.41 567.37,-28.48"/>
</a>
</g>
</g>
<!-- Node15 -->
<g id="Node000015" class="node">
<title>Node15</title>
<g id="a_Node000015"><a xlink:href="CCSDSConfig_8h.html" target="_top" xlink:title=" ">
<polygon fill="white" stroke="#666666" points="405.5,-129 316.5,-129 316.5,-110 405.5,-110 405.5,-129"/>
<text text-anchor="middle" x="361" y="-117" font-family="Helvetica,sans-Serif" font-size="10.00">CCSDSConfig.h</text>
</a>
</g>
</g>
<!-- Node14&#45;&gt;Node15 -->
<g id="edge19_Node000014_Node000015" class="edge">
<title>Node14&#45;&gt;Node15</title>
<g id="a_edge19_Node000014_Node000015"><a xlink:title=" ">
<path fill="none" stroke="#63b8ff" d="M350.15,-164.75C351.87,-157.72 354.35,-147.62 356.5,-138.84"/>
<polygon fill="#63b8ff" stroke="#63b8ff" points="359.91,-139.63 358.89,-129.09 353.11,-137.97 359.91,-139.63"/>
</a>
</g>
</g>
<!-- Node15&#45;&gt;Node3 -->
<g id="edge20_Node000015_Node000003" class="edge">
<title>Node15&#45;&gt;Node3</title>
<g id="a_edge20_Node000015_Node000003"><a xlink:title=" ">
<path fill="none" stroke="#63b8ff" d="M330.47,-109.98C295.53,-100.24 238.55,-84.34 203,-74.43"/>
<polygon fill="#63b8ff" stroke="#63b8ff" points="203.71,-70.99 193.14,-71.68 201.83,-77.73 203.71,-70.99"/>
</a>
</g>
</g>
<!-- Node15&#45;&gt;Node4 -->
<g id="edge22_Node000015_Node000004" class="edge">
<title>Node15&#45;&gt;Node4</title>
<g id="a_edge22_Node000015_Node000004"><a xlink:title=" ">
<path fill="none" stroke="#63b8ff" d="M367.13,-109.71C376.73,-96.46 396.45,-71.21 418,-55 435.91,-41.53 458.54,-30.52 476.87,-22.82"/>
<polygon fill="#63b8ff" stroke="#63b8ff" points="478.34,-26 486.29,-18.99 475.71,-19.52 478.34,-26"/>
</a>
</g>
</g>
<!-- Node15&#45;&gt;Node10 -->
<g id="edge23_Node000015_Node000010" class="edge">
<title>Node15&#45;&gt;Node10</title>
<g id="a_edge23_Node000015_Node000010"><a xlink:title=" ">
<path fill="none" stroke="#63b8ff" d="M405.52,-112.83C482.28,-103.05 639.29,-83.04 722.47,-72.45"/>
<polygon fill="#63b8ff" stroke="#63b8ff" points="723.01,-75.91 732.49,-71.17 722.12,-68.96 723.01,-75.91"/>
</a>
</g>
</g>
<!-- Node15&#45;&gt;Node12 -->
<g id="edge21_Node000015_Node000012" class="edge">
<title>Node15&#45;&gt;Node12</title>
<g id="a_edge21_Node000015_Node000012"><a xlink:title=" ">
<path fill="none" stroke="#63b8ff" d="M378.63,-109.84C417.1,-90.96 508.78,-45.96 554.34,-23.59"/>
<polygon fill="#63b8ff" stroke="#63b8ff" points="556.16,-26.6 563.59,-19.05 553.07,-20.31 556.16,-26.6"/>
</a>
</g>
</g>
<!-- Node16&#45;&gt;Node2 -->
<g id="edge28_Node000016_Node000002" class="edge">
<title>Node16&#45;&gt;Node2</title>
<g id="a_edge28_Node000016_Node000002"><a xlink:title=" ">
<path fill="none" stroke="#63b8ff" d="M561.78,-224.53C701.3,-216.42 960.75,-192.96 1024,-129 1050.2,-102.51 1049.58,-55.32 1046.81,-29.19"/>
<polygon fill="#63b8ff" stroke="#63b8ff" points="1050.26,-28.59 1045.52,-19.11 1043.32,-29.48 1050.26,-28.59"/>
</a>
</g>
</g>
<!-- Node16&#45;&gt;Node3 -->
<g id="edge30_Node000016_Node000003" class="edge">
<title>Node16&#45;&gt;Node3</title>
<g id="a_edge30_Node000016_Node000003"><a xlink:title=" ">
<path fill="none" stroke="#63b8ff" d="M395.45,-219.97C339.73,-212.57 270,-200.44 246,-184 209.63,-159.09 187.19,-110.14 177.17,-83.62"/>
<polygon fill="#63b8ff" stroke="#63b8ff" points="180.41,-82.28 173.73,-74.05 173.82,-84.65 180.41,-82.28"/>
</a>
</g>
</g>
<!-- Node16&#45;&gt;Node13 -->
<g id="edge27_Node000016_Node000013" class="edge">
<title>Node16&#45;&gt;Node13</title>
<g id="a_edge27_Node000016_Node000013"><a xlink:title=" ">
<path fill="none" stroke="#63b8ff" d="M487.91,-219.98C503.55,-211.61 527.66,-198.7 545.88,-188.95"/>
<polygon fill="#63b8ff" stroke="#63b8ff" points="547.64,-191.98 554.8,-184.17 544.34,-185.8 547.64,-191.98"/>
</a>
</g>
</g>
<!-- Node16&#45;&gt;Node14 -->
<g id="edge31_Node000016_Node000014" class="edge">
<title>Node16&#45;&gt;Node14</title>
<g id="a_edge31_Node000016_Node000014"><a xlink:title=" ">
<path fill="none" stroke="#63b8ff" d="M452.08,-219.98C431.95,-211.38 400.62,-197.99 377.59,-188.15"/>
<polygon fill="#63b8ff" stroke="#63b8ff" points="378.86,-184.88 368.29,-184.17 376.1,-191.32 378.86,-184.88"/>
</a>
</g>
</g>
<!-- Node17 -->
<g id="Node000017" class="node">
<title>Node17</title>
<g id="a_Node000017"><a xlink:title=" ">
<polygon fill="#e0e0e0" stroke="#999999" points="523.5,-184 458.5,-184 458.5,-165 523.5,-165 523.5,-184"/>
<text text-anchor="middle" x="491" y="-172" font-family="Helvetica,sans-Serif" font-size="10.00">functional</text>
</a>
</g>
</g>
<!-- Node16&#45;&gt;Node17 -->
<g id="edge29_Node000016_Node000017" class="edge">
<title>Node16&#45;&gt;Node17</title>
<g id="a_edge29_Node000016_Node000017"><a xlink:title=" ">
<path fill="none" stroke="#63b8ff" d="M475.14,-219.75C477.68,-212.65 481.36,-202.4 484.53,-193.56"/>
<polygon fill="#63b8ff" stroke="#63b8ff" points="487.84,-194.68 487.92,-184.09 481.25,-192.32 487.84,-194.68"/>
</a>
</g>
</g>
<!-- Node18&#45;&gt;Node10 -->
<g id="edge35_Node000018_Node000010" class="edge">
<title>Node18&#45;&gt;Node10</title>
<g id="a_edge35_Node000018_Node000010"><a xlink:title=" ">
<path fill="none" stroke="#63b8ff" d="M340.07,-283.42C395.29,-281.83 494.1,-273.8 570,-239 592.07,-228.88 713.91,-121.58 759.65,-80.96"/>
<polygon fill="#63b8ff" stroke="#63b8ff" points="762.11,-83.45 767.26,-74.19 757.46,-78.22 762.11,-83.45"/>
</a>
</g>
</g>
<!-- Node18&#45;&gt;Node14 -->
<g id="edge33_Node000018_Node000014" class="edge">
<title>Node18&#45;&gt;Node14</title>
<g id="a_edge33_Node000018_Node000014"><a xlink:title=" ">
<path fill="none" stroke="#63b8ff" d="M302.09,-274.66C310.3,-256.93 328.91,-216.73 339.75,-193.32"/>
<polygon fill="#63b8ff" stroke="#63b8ff" points="342.97,-194.7 343.99,-184.16 336.61,-191.76 342.97,-194.7"/>
</a>
</g>
</g>
<!-- Node18&#45;&gt;Node15 -->
<g id="edge36_Node000018_Node000015" class="edge">
<title>Node18&#45;&gt;Node15</title>
<g id="a_edge36_Node000018_Node000015"><a xlink:title=" ">
<path fill="none" stroke="#63b8ff" d="M288.61,-274.9C267.55,-254.57 220.35,-202.44 246,-165 259.7,-145 283.79,-133.99 306.38,-127.92"/>
<polygon fill="#63b8ff" stroke="#63b8ff" points="307.38,-131.29 316.28,-125.54 305.74,-124.48 307.38,-131.29"/>
</a>
</g>
</g>
<!-- Node18&#45;&gt;Node16 -->
<g id="edge34_Node000018_Node000016" class="edge">
<title>Node18&#45;&gt;Node16</title>
<g id="a_edge34_Node000018_Node000016"><a xlink:title=" ">
<path fill="none" stroke="#63b8ff" d="M325.96,-274.98C355.3,-266.05 401.6,-251.94 434.19,-242.02"/>
<polygon fill="#63b8ff" stroke="#63b8ff" points="435.28,-245.34 443.82,-239.08 433.24,-238.65 435.28,-245.34"/>
</a>
</g>
</g>
<!-- Node19&#45;&gt;Node4 -->
<g id="edge40_Node000019_Node000004" class="edge">
<title>Node19&#45;&gt;Node4</title>
<g id="a_edge40_Node000019_Node000004"><a xlink:title=" ">
<path fill="none" stroke="#63b8ff" d="M954.15,-109.89C929.33,-95.91 877.46,-68.52 830,-55 708.06,-20.26 671.83,-41.22 547,-19 545.93,-18.81 544.84,-18.61 543.75,-18.4"/>
<polygon fill="#63b8ff" stroke="#63b8ff" points="544.32,-14.94 533.81,-16.34 542.89,-21.8 544.32,-14.94"/>
</a>
</g>
</g>
<!-- Node19&#45;&gt;Node10 -->
<g id="edge38_Node000019_Node000010" class="edge">
<title>Node19&#45;&gt;Node10</title>
<g id="a_edge38_Node000019_Node000010"><a xlink:title=" ">
<path fill="none" stroke="#63b8ff" d="M938.15,-109.98C905.5,-100.97 853.8,-86.7 817.8,-76.76"/>
<polygon fill="#63b8ff" stroke="#63b8ff" points="818.66,-73.37 808.09,-74.08 816.8,-80.12 818.66,-73.37"/>
</a>
</g>
</g>
<!-- Node19&#45;&gt;Node12 -->
<g id="edge39_Node000019_Node000012" class="edge">
<title>Node19&#45;&gt;Node12</title>
<g id="a_edge39_Node000019_Node000012"><a xlink:title=" ">
<path fill="none" stroke="#63b8ff" d="M962.99,-109.75C952.73,-95.58 930.35,-67.9 904,-55 853.85,-30.44 689.15,-17.31 616.25,-12.57"/>
<polygon fill="#63b8ff" stroke="#63b8ff" points="616.39,-9.07 606.19,-11.94 615.95,-16.06 616.39,-9.07"/>
</a>
</g>
</g>
<!-- Node20&#45;&gt;Node10 -->
<g id="edge48_Node000020_Node000010" class="edge">
<title>Node20&#45;&gt;Node10</title>
<g id="a_edge48_Node000020_Node000010"><a xlink:title=" ">
<path fill="none" stroke="#63b8ff" d="M623.77,-495C704.72,-479.74 856,-444.65 856,-395.5 856,-395.5 856,-395.5 856,-283.5 856,-204.76 809.88,-119.07 788.11,-83.02"/>
<polygon fill="#63b8ff" stroke="#63b8ff" points="790.91,-80.89 782.68,-74.22 784.96,-84.57 790.91,-80.89"/>
</a>
</g>
</g>
<!-- Node21 -->
<g id="Node000021" class="node">
<title>Node21</title>
<g id="a_Node000021"><a xlink:title=" ">
<polygon fill="#e0e0e0" stroke="#999999" points="555.5,-459 510.5,-459 510.5,-440 555.5,-440 555.5,-459"/>
<text text-anchor="middle" x="533" y="-447" font-family="Helvetica,sans-Serif" font-size="10.00">utility</text>
</a>
</g>
</g>
<!-- Node20&#45;&gt;Node21 -->
<g id="edge42_Node000020_Node000021" class="edge">
<title>Node20&#45;&gt;Node21</title>
<g id="a_edge42_Node000020_Node000021"><a xlink:title=" ">
<path fill="none" stroke="#63b8ff" d="M567.23,-494.75C561.44,-487.26 552.94,-476.28 545.86,-467.13"/>
<polygon fill="#63b8ff" stroke="#63b8ff" points="548.53,-464.86 539.64,-459.09 542.99,-469.14 548.53,-464.86"/>
</a>
</g>
</g>
<!-- Node20&#45;&gt;Node22 -->
<g id="edge43_Node000020_Node000022" class="edge">
<title>Node20&#45;&gt;Node22</title>
<g id="a_edge43_Node000020_Node000022"><a xlink:title=" ">
<path fill="none" stroke="#63b8ff" d="M575.83,-494.98C579.11,-481.63 587.16,-455.69 603,-440 618.29,-424.86 639.63,-414.4 658.66,-407.45"/>
<polygon fill="#63b8ff" stroke="#63b8ff" points="660.04,-410.68 668.36,-404.13 657.77,-404.06 660.04,-410.68"/>
</a>
</g>
</g>
<!-- Node20&#45;&gt;Node23 -->
<g id="edge49_Node000020_Node000023" class="edge">
<title>Node20&#45;&gt;Node23</title>
<g id="a_edge49_Node000020_Node000023"><a xlink:title=" ">
<path fill="none" stroke="#63b8ff" d="M588.3,-494.98C602.1,-486.77 623.24,-474.18 639.51,-464.49"/>
<polygon fill="#63b8ff" stroke="#63b8ff" points="641.64,-467.29 648.44,-459.17 638.06,-461.28 641.64,-467.29"/>
</a>
</g>
</g>
<!-- Node22&#45;&gt;Node4 -->
<g id="edge45_Node000022_Node000004" class="edge">
<title>Node22&#45;&gt;Node4</title>
<g id="a_edge45_Node000022_Node000004"><a xlink:title=" ">
<path fill="none" stroke="#63b8ff" d="M700.82,-384.84C691.74,-349.52 655.07,-213.28 604,-110 591.26,-84.24 589.44,-76.16 570,-55 559.23,-43.28 545,-32.57 533.1,-24.6"/>
<polygon fill="#63b8ff" stroke="#63b8ff" points="534.85,-21.56 524.55,-19.06 531.04,-27.43 534.85,-21.56"/>
</a>
</g>
</g>
<!-- Node22&#45;&gt;Node9 -->
<g id="edge47_Node000022_Node000009" class="edge">
<title>Node22&#45;&gt;Node9</title>
<g id="a_edge47_Node000022_Node000009"><a xlink:title=" ">
<path fill="none" stroke="#63b8ff" d="M683.24,-384.98C663.27,-376.38 632.2,-362.99 609.35,-353.15"/>
<polygon fill="#63b8ff" stroke="#63b8ff" points="610.69,-349.91 600.12,-349.17 607.92,-356.34 610.69,-349.91"/>
</a>
</g>
</g>
<!-- Node22&#45;&gt;Node10 -->
<g id="edge44_Node000022_Node000010" class="edge">
<title>Node22&#45;&gt;Node10</title>
<g id="a_edge44_Node000022_Node000010"><a xlink:title=" ">
<path fill="none" stroke="#63b8ff" d="M716.9,-384.81C728.73,-376.79 745.44,-363.9 756,-349 773.45,-324.39 780,-315.67 780,-285.5 780,-285.5 780,-285.5 780,-173.5 780,-142.18 778.72,-105.77 777.84,-84.23"/>
<polygon fill="#63b8ff" stroke="#63b8ff" points="781.33,-84.02 777.4,-74.18 774.34,-84.32 781.33,-84.02"/>
</a>
</g>
</g>
<!-- Node22&#45;&gt;Node19 -->
<g id="edge46_Node000022_Node000019" class="edge">
<title>Node22&#45;&gt;Node19</title>
<g id="a_edge46_Node000022_Node000019"><a xlink:title=" ">
<path fill="none" stroke="#63b8ff" d="M727.96,-384.92C747.33,-377.45 774.13,-365.26 794,-349 872.22,-284.96 936.11,-179.43 959.46,-137.98"/>
<polygon fill="#63b8ff" stroke="#63b8ff" points="962.6,-139.54 964.4,-129.1 956.48,-136.14 962.6,-139.54"/>
</a>
</g>
</g>
<!-- Node23&#45;&gt;Node22 -->
<g id="edge50_Node000023_Node000022" class="edge">
<title>Node23&#45;&gt;Node22</title>
<g id="a_edge50_Node000023_Node000022"><a xlink:title=" ">
<path fill="none" stroke="#63b8ff" d="M669.61,-439.75C675.26,-432.26 683.54,-421.28 690.45,-412.13"/>
<polygon fill="#63b8ff" stroke="#63b8ff" points="693.29,-414.18 696.52,-404.09 687.7,-409.96 693.29,-414.18"/>
</a>
</g>
</g>
<!-- Node24&#45;&gt;Node3 -->
<g id="edge58_Node000024_Node000003" class="edge">
<title>Node24&#45;&gt;Node3</title>
<g id="a_edge58_Node000024_Node000003"><a xlink:title=" ">
<path fill="none" stroke="#63b8ff" d="M472.04,-549.81C454.02,-523.76 398,-444.44 344,-385 304.25,-341.25 279.68,-343.26 247,-294 201.05,-224.73 180.63,-125.21 173.8,-84.23"/>
<polygon fill="#63b8ff" stroke="#63b8ff" points="177.22,-83.42 172.2,-74.09 170.3,-84.51 177.22,-83.42"/>
</a>
</g>
</g>
<!-- Node24&#45;&gt;Node4 -->
<g id="edge59_Node000024_Node000004" class="edge">
<title>Node24&#45;&gt;Node4</title>
<g id="a_edge59_Node000024_Node000004"><a xlink:title=" ">
<path fill="none" stroke="#63b8ff" d="M454.94,-549.93C369.52,-516.52 76,-386.37 76,-175.5 76,-175.5 76,-175.5 76,-118.5 76,-78.43 103.93,-72.45 140,-55 198.96,-26.48 396.11,-15.23 475.97,-11.78"/>
<polygon fill="#63b8ff" stroke="#63b8ff" points="476.59,-15.26 486.44,-11.34 476.3,-8.26 476.59,-15.26"/>
</a>
</g>
</g>
<!-- Node24&#45;&gt;Node20 -->
<g id="edge57_Node000024_Node000020" class="edge">
<title>Node24&#45;&gt;Node20</title>
<g id="a_edge57_Node000024_Node000020"><a xlink:title=" ">
<path fill="none" stroke="#63b8ff" d="M493.42,-549.98C508.45,-541.69 531.54,-528.94 549.16,-519.22"/>
<polygon fill="#63b8ff" stroke="#63b8ff" points="551.23,-522.07 558.3,-514.17 547.85,-515.94 551.23,-522.07"/>
</a>
</g>
</g>
<!-- Node24&#45;&gt;Node22 -->
<g id="edge56_Node000024_Node000022" class="edge">
<title>Node24&#45;&gt;Node22</title>
<g id="a_edge56_Node000024_Node000022"><a xlink:title=" ">
<path fill="none" stroke="#63b8ff" d="M476.8,-549.93C474.3,-528.24 471.01,-470.76 501,-440 521.04,-419.45 594.8,-407.22 647.39,-400.92"/>
<polygon fill="#63b8ff" stroke="#63b8ff" points="648.07,-404.37 657.61,-399.74 647.27,-397.41 648.07,-404.37"/>
</a>
</g>
</g>
<!-- Node25&#45;&gt;Node10 -->
<g id="edge64_Node000025_Node000010" class="edge">
<title>Node25&#45;&gt;Node10</title>
<g id="a_edge64_Node000025_Node000010"><a xlink:title=" ">
<path fill="none" stroke="#63b8ff" d="M970,-604.82C970,-586.48 970,-542.44 970,-505.5 970,-505.5 970,-505.5 970,-228.5 970,-147.61 869.83,-98.67 813.82,-77.63"/>
<polygon fill="#63b8ff" stroke="#63b8ff" points="814.84,-74.28 804.24,-74.14 812.44,-80.85 814.84,-74.28"/>
</a>
</g>
</g>
<!-- Node26 -->
<g id="Node000026" class="node">
<title>Node26</title>
<g id="a_Node000026"><a xlink:title=" ">
<polygon fill="#e0e0e0" stroke="#999999" points="1030,-569 998,-569 998,-550 1030,-550 1030,-569"/>
<text text-anchor="middle" x="1014" y="-557" font-family="Helvetica,sans-Serif" font-size="10.00">set</text>
</a>
</g>
</g>
<!-- Node25&#45;&gt;Node26 -->
<g id="edge63_Node000025_Node000026" class="edge">
<title>Node25&#45;&gt;Node26</title>
<g id="a_edge63_Node000025_Node000026"><a xlink:title=" ">
<path fill="none" stroke="#63b8ff" d="M977.27,-604.75C983.54,-597.18 992.79,-586.05 1000.43,-576.84"/>
<polygon fill="#63b8ff" stroke="#63b8ff" points="1003.17,-579.02 1006.87,-569.09 997.79,-574.55 1003.17,-579.02"/>
</a>
</g>
</g>
</g>
</svg>

<g id="navigator" transform="translate(0 0)" fill="#404254">
  <rect fill="#f2f5e9" fill-opacity="0.5" stroke="#606060" stroke-width=".5" x="0" y="0" width="60" height="60"/>
  <use id="zoomplus" xlink:href="#zoomPlus" x="17" y="9" onmousedown="handleZoom(evt,'in')"/>
  <use id="zoomminus" xlink:href="#zoomMin" x="42" y="9" onmousedown="handleZoom(evt,'out')"/>
  <use id="reset" xlink:href="#resetDef" x="30" y="36" onmousedown="handleReset()"/>
   <use id="arrowup" xlink:href="#arrowUp" x="0" y="0" onmousedown="handlePan(0,-1)"/>
  <use id="arrowright" xlink:href="#arrowRight" x="0" y="0" onmousedown="handlePan(1,0)"/>
  <use id="arrowdown" xlink:href="#arrowDown" x="0" y="0" onmousedown="handlePan(0,1)"/>
  <use id="arrowleft" xlink:href="#arrowLeft" x="0" y="0" onmousedown="handlePan(-1,0)"/>
</g>
<svg viewBox="0 0 15 15" width="100%" height="30px" preserveAspectRatio="xMaxYMin meet">
 <g id="arrow_out" transform="scale(0.3 0.3)">
  <a xlink:href="exec__encoder_8cpp__incl_org.svg" target="_base">
   <rect id="button" ry="5" rx="5" y="6" x="6" height="38" width="38"
        fill="#f2f5e9" fill-opacity="0.5" stroke="#606060" stroke-width="1.0"/>
   <path id="arrow"
     d="M 11.500037,31.436501 C 11.940474,20.09759 22.043105,11.32322 32.158766,21.979434 L 37.068811,17.246167 C 37.068811,17.246167 37.088388,32 37.088388,32 L 22.160133,31.978069 C 22.160133,31.978069 26.997745,27.140456 26.997745,27.140456 C 18.528582,18.264221 13.291696,25.230495 11.500037,31.436501 z"
     style="fill:#404040;"/>
  </a>
 </g>
</svg>

<style type='text/css'>
<![CDATA[
[data-mouse-over-selected='false'] { opacity: 0.7; }
[data-mouse-over-selected='true']  { opacity: 1.0; }
]]>
</style>
<script type="application/ecmascript"><![CDATA[
document.addEventListener('DOMContentLoaded', (event) => {
  highlightEdges();
  highlightAdjacentNodes();
});
]]></script>
</svg>
