<?xml version="1.0" encoding="UTF-8" standalone="no"?>
<!DOCTYPE svg PUBLIC "-//W3C//DTD SVG 1.1//EN"
 "http://www.w3.org/Graphics/SVG/1.1/DTD/svg11.dtd">
<!-- Generated by graphviz version 2.43.0 (0)
 -->
<!-- Title: Graphical Class Hierarchy Pages: 1 -->
<svg width="346pt" height="138pt"
 viewBox="0.00 0.00 346.00 138.00" xmlns="http://www.w3.org/2000/svg" xmlns:xlink="http://www.w3.org/1999/xlink">
<g id="graph0" class="graph" transform="scale(1 1) rotate(0) translate(4 134)">
<title>Graphical Class Hierarchy</title>
<!-- Node0 -->
<g id="Node000000" class="node">
<title>Node0</title>
<g id="a_Node000000"><a xlink:href="classCCSDS_1_1SecondaryHeaderAbstract.html" target="_top" xlink:title="Abstract base class for a (Packet Utilization Standard) header.">
<polygon fill="white" stroke="#666666" points="182,-74 0,-74 0,-55 182,-55 182,-74"/>
<text text-anchor="middle" x="91" y="-62" font-family="Helvetica,sans-Serif" font-size="10.00">CCSDS::SecondaryHeaderAbstract</text>
</a>
</g>
</g>
<!-- Node1 -->
<g id="Node000001" class="node">
<title>Node1</title>
<g id="a_Node000001"><a xlink:href="classCCSDS_1_1BufferHeader.html" target="_top" xlink:title="Represents a fixed secondary header used as a data buffer.">
<polygon fill="white" stroke="#666666" points="338,-130 218,-130 218,-111 338,-111 338,-130"/>
<text text-anchor="middle" x="278" y="-118" font-family="Helvetica,sans-Serif" font-size="10.00">CCSDS::BufferHeader</text>
</a>
</g>
</g>
<!-- Node0&#45;&gt;Node1 -->
<g id="edge1_Node000000_Node000001" class="edge">
<title>Node0&#45;&gt;Node1</title>
<g id="a_edge1_Node000000_Node000001"><a xlink:title=" ">
<path fill="none" stroke="#63b8ff" d="M133.44,-77.04C167.4,-87.32 214.73,-101.65 245.61,-111"/>
<polygon fill="#63b8ff" stroke="#63b8ff" points="134.39,-73.67 123.8,-74.13 132.36,-80.37 134.39,-73.67"/>
</a>
</g>
</g>
<!-- Node2 -->
<g id="Node000002" class="node">
<title>Node2</title>
<g id="a_Node000002"><a xlink:href="classPusA.html" target="_top" xlink:title="Represents a PUS Type A (Telemetry) header.">
<polygon fill="white" stroke="#666666" points="298.5,-93 257.5,-93 257.5,-74 298.5,-74 298.5,-93"/>
<text text-anchor="middle" x="278" y="-81" font-family="Helvetica,sans-Serif" font-size="10.00">PusA</text>
</a>
</g>
</g>
<!-- Node0&#45;&gt;Node2 -->
<g id="edge2_Node000000_Node000002" class="edge">
<title>Node0&#45;&gt;Node2</title>
<g id="a_edge2_Node000000_Node000002"><a xlink:title=" ">
<path fill="none" stroke="#63b8ff" d="M192.34,-74.8C217.14,-77.35 241.19,-79.82 257.27,-81.47"/>
<polygon fill="#63b8ff" stroke="#63b8ff" points="192.37,-71.29 182.06,-73.75 191.65,-78.25 192.37,-71.29"/>
</a>
</g>
</g>
<!-- Node3 -->
<g id="Node000003" class="node">
<title>Node3</title>
<g id="a_Node000003"><a xlink:href="classPusB.html" target="_top" xlink:title="Represents a PUS Type B (Event Reporting) header.">
<polygon fill="white" stroke="#666666" points="298.5,-56 257.5,-56 257.5,-37 298.5,-37 298.5,-56"/>
<text text-anchor="middle" x="278" y="-44" font-family="Helvetica,sans-Serif" font-size="10.00">PusB</text>
</a>
</g>
</g>
<!-- Node0&#45;&gt;Node3 -->
<g id="edge3_Node000000_Node000003" class="edge">
<title>Node0&#45;&gt;Node3</title>
<g id="a_edge3_Node000000_Node000003"><a xlink:title=" ">
<path fill="none" stroke="#63b8ff" d="M192.34,-54.74C217.14,-52.32 241.19,-49.98 257.27,-48.42"/>
<polygon fill="#63b8ff" stroke="#63b8ff" points="191.68,-51.29 182.06,-55.74 192.35,-58.25 191.68,-51.29"/>
</a>
</g>
</g>
<!-- Node4 -->
<g id="Node000004" class="node">
<title>Node4</title>
<g id="a_Node000004"><a xlink:href="classPusC.html" target="_top" xlink:title="Represents a PUS Type C (Time Code) header.">
<polygon fill="white" stroke="#666666" points="298.5,-19 257.5,-19 257.5,0 298.5,0 298.5,-19"/>
<text text-anchor="middle" x="278" y="-7" font-family="Helvetica,sans-Serif" font-size="10.00">PusC</text>
</a>
</g>
</g>
<!-- Node0&#45;&gt;Node4 -->
<g id="edge4_Node000000_Node000004" class="edge">
<title>Node0&#45;&gt;Node4</title>
<g id="a_edge4_Node000000_Node000004"><a xlink:title=" ">
<path fill="none" stroke="#63b8ff" d="M134.14,-51.97C172.75,-40.49 228.2,-24.01 257.36,-15.34"/>
<polygon fill="#63b8ff" stroke="#63b8ff" points="132.81,-48.72 124.22,-54.92 134.81,-55.42 132.81,-48.72"/>
</a>
</g>
</g>
</g>
</svg>
