<?xml version="1.0" encoding="UTF-8" standalone="no"?>
<!DOCTYPE svg PUBLIC "-//W3C//DTD SVG 1.1//EN"
 "http://www.w3.org/Graphics/SVG/1.1/DTD/svg11.dtd">
<!-- Generated by graphviz version 2.43.0 (0)
 -->
<!-- Title: ccsds_pus_c_tm_decode Pages: 1 -->
<svg width="835pt" height="258pt"
 viewBox="0.00 0.00 835.00 258.00" xmlns="http://www.w3.org/2000/svg" xmlns:xlink="http://www.w3.org/1999/xlink">
<g id="graph0" class="graph" transform="scale(1 1) rotate(0) translate(4 254)">
<title>ccsds_pus_c_tm_decode</title>
<!-- Node1 -->
<g id="Node000001" class="node">
<title>Node1</title>
<g id="a_Node000001"><a xlink:title="Decodes one complete PUS&#45;C TM secondary header.">
<polygon fill="#999999" stroke="#666666" points="136,-114 0,-114 0,-95 136,-95 136,-114"/>
<text text-anchor="middle" x="68" y="-102" font-family="Helvetica,sans-Serif" font-size="10.00">ccsds_pus_c_tm_decode</text>
</a>
</g>
</g>
<!-- Node2 -->
<g id="Node000002" class="node">
<title>Node2</title>
<g id="a_Node000002"><a xlink:href="cuc_8c.html#a436559277f86936e9201271fa2574967" target="_top" xlink:title="Decodes one complete numeric CUC value from caller&#45;owned bytes.">
<polygon fill="white" stroke="#666666" points="308.5,-171 202.5,-171 202.5,-152 308.5,-152 308.5,-171"/>
<text text-anchor="middle" x="255.5" y="-159" font-family="Helvetica,sans-Serif" font-size="10.00">ccsds_cuc_decode</text>
</a>
</g>
</g>
<!-- Node1&#45;&gt;Node2 -->
<g id="edge1_Node000001_Node000002" class="edge">
<title>Node1&#45;&gt;Node2</title>
<g id="a_edge1_Node000001_Node000002"><a xlink:title=" ">
<path fill="none" stroke="#63b8ff" d="M98.24,-114.1C118.82,-120.8 147.04,-129.87 172,-137.5 184.61,-141.35 198.34,-145.41 210.92,-149.06"/>
<polygon fill="#63b8ff" stroke="#63b8ff" points="210.14,-152.48 220.72,-151.9 212.09,-145.75 210.14,-152.48"/>
</a>
</g>
</g>
<!-- Node3 -->
<g id="Node000003" class="node">
<title>Node3</title>
<g id="a_Node000003"><a xlink:href="cuc_8c.html#abd905237c1885654f75ccee85e7d08d8" target="_top" xlink:title="Returns the encoded P&#45;field + T&#45;field size without validating the layout.">
<polygon fill="white" stroke="#666666" points="513.5,-100 376.5,-100 376.5,-81 513.5,-81 513.5,-100"/>
<text text-anchor="middle" x="445" y="-88" font-family="Helvetica,sans-Serif" font-size="10.00">ccsds_cuc_encoded_size</text>
</a>
</g>
</g>
<!-- Node1&#45;&gt;Node3 -->
<g id="edge7_Node000001_Node000003" class="edge">
<title>Node1&#45;&gt;Node3</title>
<g id="a_edge7_Node000001_Node000003"><a xlink:title=" ">
<path fill="none" stroke="#63b8ff" d="M136.21,-106.97C190.89,-108.38 270.01,-109.08 339,-104.5 349.96,-103.77 361.52,-102.62 372.8,-101.29"/>
<polygon fill="#63b8ff" stroke="#63b8ff" points="373.57,-104.72 383.06,-100.02 372.71,-97.77 373.57,-104.72"/>
</a>
</g>
</g>
<!-- Node8 -->
<g id="Node000008" class="node">
<title>Node8</title>
<g id="a_Node000008"><a xlink:href="bytes_8h.html#abc80bd6553a5888e248bc36939933744" target="_top" xlink:title="Loads a CCSDS&#45;standard big&#45;endian 16&#45;bit value.">
<polygon fill="white" stroke="#666666" points="305,-229 206,-229 206,-210 305,-210 305,-229"/>
<text text-anchor="middle" x="255.5" y="-217" font-family="Helvetica,sans-Serif" font-size="10.00">ccsds_load_be16</text>
</a>
</g>
</g>
<!-- Node1&#45;&gt;Node8 -->
<g id="edge8_Node000001_Node000008" class="edge">
<title>Node1&#45;&gt;Node8</title>
<g id="a_edge8_Node000001_Node000008"><a xlink:title=" ">
<path fill="none" stroke="#63b8ff" d="M80.53,-114.18C99.05,-129.44 136.9,-159.52 172,-180.5 187.88,-189.99 206.44,-198.94 221.93,-205.86"/>
<polygon fill="#63b8ff" stroke="#63b8ff" points="220.56,-209.08 231.12,-209.9 223.37,-202.67 220.56,-209.08"/>
</a>
</g>
</g>
<!-- Node10 -->
<g id="Node000010" class="node">
<title>Node10</title>
<g id="a_Node000010"><a xlink:href="pus__tm_8c.html#a8fefd2934d2dbc393203a858130d3856" target="_top" xlink:title="Returns exact encoded size for valid PUS&#45;C TM tailoring, otherwise zero.">
<polygon fill="white" stroke="#666666" points="339,-95 172,-95 172,-76 339,-76 339,-95"/>
<text text-anchor="middle" x="255.5" y="-83" font-family="Helvetica,sans-Serif" font-size="10.00">ccsds_pus_c_tm_encoded_size</text>
</a>
</g>
</g>
<!-- Node1&#45;&gt;Node10 -->
<g id="edge11_Node000001_Node000010" class="edge">
<title>Node1&#45;&gt;Node10</title>
<g id="a_edge11_Node000001_Node000010"><a xlink:title=" ">
<path fill="none" stroke="#63b8ff" d="M136.23,-97.61C144.58,-96.76 153.22,-95.87 161.87,-94.99"/>
<polygon fill="#63b8ff" stroke="#63b8ff" points="162.41,-98.45 172,-93.95 161.69,-91.49 162.41,-98.45"/>
</a>
</g>
</g>
<!-- Node11 -->
<g id="Node000011" class="node">
<title>Node11</title>
<g id="a_Node000011"><a xlink:href="pus__tm_8c.html#ad3fd36292a45ef0b5ceec6b4b804e63a" target="_top" xlink:title="Validates PUS&#45;C TM tailoring.">
<polygon fill="white" stroke="#666666" points="515,-62.5 375,-62.5 375,-32.5 515,-32.5 515,-62.5"/>
<text text-anchor="start" x="383" y="-50.5" font-family="Helvetica,sans-Serif" font-size="10.00">ccsds_pus_c_tm_validate</text>
<text text-anchor="middle" x="445" y="-39.5" font-family="Helvetica,sans-Serif" font-size="10.00">_tailoring</text>
</a>
</g>
</g>
<!-- Node1&#45;&gt;Node11 -->
<g id="edge17_Node000001_Node000011" class="edge">
<title>Node1&#45;&gt;Node11</title>
<g id="a_edge17_Node000001_Node000011"><a xlink:title=" ">
<path fill="none" stroke="#63b8ff" d="M89.78,-94.84C110.22,-85.82 142.56,-72.82 172,-66.5 235.81,-52.79 309.77,-48.34 364.45,-47.15"/>
<polygon fill="#63b8ff" stroke="#63b8ff" points="364.84,-50.64 374.78,-46.96 364.71,-43.64 364.84,-50.64"/>
</a>
</g>
</g>
<!-- Node14 -->
<g id="Node000014" class="node">
<title>Node14</title>
<g id="a_Node000014"><a xlink:href="pus_8h.html#abdb8b33ff5e40c0946fd2291312ded24" target="_top" xlink:title="Returns non&#45;zero when the configured trailing spare region contains only zero octets.">
<polygon fill="white" stroke="#666666" points="324.5,-19 186.5,-19 186.5,0 324.5,0 324.5,-19"/>
<text text-anchor="middle" x="255.5" y="-7" font-family="Helvetica,sans-Serif" font-size="10.00">ccsds_pus_spare_is_zero</text>
</a>
</g>
</g>
<!-- Node1&#45;&gt;Node14 -->
<g id="edge18_Node000001_Node000014" class="edge">
<title>Node1&#45;&gt;Node14</title>
<g id="a_edge18_Node000001_Node000014"><a xlink:title=" ">
<path fill="none" stroke="#63b8ff" d="M80.29,-94.88C98.48,-79.82 135.9,-50.64 172,-33.5 181.5,-28.99 192.02,-25.15 202.28,-21.94"/>
<polygon fill="#63b8ff" stroke="#63b8ff" points="203.4,-25.26 211.99,-19.06 201.41,-18.55 203.4,-25.26"/>
</a>
</g>
</g>
<!-- Node2&#45;&gt;Node3 -->
<g id="edge2_Node000002_Node000003" class="edge">
<title>Node2&#45;&gt;Node3</title>
<g id="a_edge2_Node000002_Node000003"><a xlink:title=" ">
<path fill="none" stroke="#63b8ff" d="M298.04,-151.91C311.41,-148.17 326.09,-143.35 339,-137.5 356.29,-129.66 357.92,-122.79 375,-114.5 383.46,-110.39 392.82,-106.65 401.83,-103.41"/>
<polygon fill="#63b8ff" stroke="#63b8ff" points="403.12,-106.67 411.42,-100.09 400.83,-100.05 403.12,-106.67"/>
</a>
</g>
</g>
<!-- Node4 -->
<g id="Node000004" class="node">
<title>Node4</title>
<g id="a_Node000004"><a xlink:href="cuc_8c.html#a3bb920cae5f443cb5f41282544bc91b7" target="_top" xlink:title="Validates the supported basic CUC layout.">
<polygon fill="white" stroke="#666666" points="827,-116 717,-116 717,-97 827,-97 827,-116"/>
<text text-anchor="middle" x="772" y="-104" font-family="Helvetica,sans-Serif" font-size="10.00">ccsds_cuc_validate</text>
</a>
</g>
</g>
<!-- Node2&#45;&gt;Node4 -->
<g id="edge3_Node000002_Node000004" class="edge">
<title>Node2&#45;&gt;Node4</title>
<g id="a_edge3_Node000002_Node000004"><a xlink:title=" ">
<path fill="none" stroke="#63b8ff" d="M308.7,-155.73C329.35,-153.46 353.29,-150.84 375,-148.5 491.93,-135.89 628.32,-121.49 706.67,-113.25"/>
<polygon fill="#63b8ff" stroke="#63b8ff" points="707.29,-116.71 716.87,-112.18 706.56,-109.74 707.29,-116.71"/>
</a>
</g>
</g>
<!-- Node5 -->
<g id="Node000005" class="node">
<title>Node5</title>
<g id="a_Node000005"><a xlink:href="bytes_8h.html#a83337ad15c9932af4124b8aeea4270f7" target="_top" xlink:title="Loads 0..8 CCSDS&#45;standard big&#45;endian octets.">
<polygon fill="white" stroke="#666666" points="500.5,-213 389.5,-213 389.5,-194 500.5,-194 500.5,-213"/>
<text text-anchor="middle" x="445" y="-201" font-family="Helvetica,sans-Serif" font-size="10.00">ccsds_load_be_uint</text>
</a>
</g>
</g>
<!-- Node2&#45;&gt;Node5 -->
<g id="edge4_Node000002_Node000005" class="edge">
<title>Node2&#45;&gt;Node5</title>
<g id="a_edge4_Node000002_Node000005"><a xlink:title=" ">
<path fill="none" stroke="#63b8ff" d="M299.05,-171.03C326.4,-177.16 362.14,-185.16 391.29,-191.69"/>
<polygon fill="#63b8ff" stroke="#63b8ff" points="390.77,-195.16 401.3,-193.93 392.3,-188.33 390.77,-195.16"/>
</a>
</g>
</g>
<!-- Node7 -->
<g id="Node000007" class="node">
<title>Node7</title>
<g id="a_Node000007"><a xlink:href="cuc_8c.html#ab5dc55660b1193664799add7549fce09" target="_top" xlink:title=" ">
<polygon fill="white" stroke="#666666" points="477.5,-176 412.5,-176 412.5,-157 477.5,-157 477.5,-176"/>
<text text-anchor="middle" x="445" y="-164" font-family="Helvetica,sans-Serif" font-size="10.00">cuc_pfield</text>
</a>
</g>
</g>
<!-- Node2&#45;&gt;Node7 -->
<g id="edge6_Node000002_Node000007" class="edge">
<title>Node2&#45;&gt;Node7</title>
<g id="a_edge6_Node000002_Node000007"><a xlink:title=" ">
<path fill="none" stroke="#63b8ff" d="M308.73,-162.89C338.23,-163.68 374.6,-164.65 402.19,-165.39"/>
<polygon fill="#63b8ff" stroke="#63b8ff" points="402.22,-168.89 412.31,-165.65 402.4,-161.89 402.22,-168.89"/>
</a>
</g>
</g>
<!-- Node6 -->
<g id="Node000006" class="node">
<title>Node6</title>
<g id="a_Node000006"><a xlink:href="bytes_8h.html#a3e09d1360c5624e2e27f266f37fdf84a" target="_top" xlink:title="Loads 0..8 octets into a uint64_t using explicit wire byte order.">
<polygon fill="white" stroke="#666666" points="663,-231 569,-231 569,-212 663,-212 663,-231"/>
<text text-anchor="middle" x="616" y="-219" font-family="Helvetica,sans-Serif" font-size="10.00">ccsds_load_uint</text>
</a>
</g>
</g>
<!-- Node5&#45;&gt;Node6 -->
<g id="edge5_Node000005_Node000006" class="edge">
<title>Node5&#45;&gt;Node6</title>
<g id="a_edge5_Node000005_Node000006"><a xlink:title=" ">
<path fill="none" stroke="#63b8ff" d="M500.87,-209.34C519.41,-211.32 540.13,-213.53 558.78,-215.51"/>
<polygon fill="#63b8ff" stroke="#63b8ff" points="558.58,-219.01 568.89,-216.59 559.32,-212.05 558.58,-219.01"/>
</a>
</g>
</g>
<!-- Node9 -->
<g id="Node000009" class="node">
<title>Node9</title>
<g id="a_Node000009"><a xlink:href="bytes_8h.html#a678b1b7d7c81754310024520a94a4246" target="_top" xlink:title="Loads a 16&#45;bit integer using explicit wire byte order.">
<polygon fill="white" stroke="#666666" points="491.5,-250 398.5,-250 398.5,-231 491.5,-231 491.5,-250"/>
<text text-anchor="middle" x="445" y="-238" font-family="Helvetica,sans-Serif" font-size="10.00">ccsds_load_u16</text>
</a>
</g>
</g>
<!-- Node8&#45;&gt;Node9 -->
<g id="edge9_Node000008_Node000009" class="edge">
<title>Node8&#45;&gt;Node9</title>
<g id="a_edge9_Node000008_Node000009"><a xlink:title=" ">
<path fill="none" stroke="#63b8ff" d="M305.27,-224.96C330.66,-227.81 361.81,-231.29 388.16,-234.25"/>
<polygon fill="#63b8ff" stroke="#63b8ff" points="388.04,-237.75 398.37,-235.39 388.82,-230.8 388.04,-237.75"/>
</a>
</g>
</g>
<!-- Node9&#45;&gt;Node6 -->
<g id="edge10_Node000009_Node000006" class="edge">
<title>Node9&#45;&gt;Node6</title>
<g id="a_edge10_Node000009_Node000006"><a xlink:title=" ">
<path fill="none" stroke="#63b8ff" d="M491.73,-235.36C512.41,-233.03 537.04,-230.26 558.83,-227.82"/>
<polygon fill="#63b8ff" stroke="#63b8ff" points="559.39,-231.27 568.94,-226.68 558.61,-224.32 559.39,-231.27"/>
</a>
</g>
</g>
<!-- Node10&#45;&gt;Node3 -->
<g id="edge12_Node000010_Node000003" class="edge">
<title>Node10&#45;&gt;Node3</title>
<g id="a_edge12_Node000010_Node000003"><a xlink:title=" ">
<path fill="none" stroke="#63b8ff" d="M339.01,-87.7C348.08,-87.94 357.29,-88.19 366.29,-88.43"/>
<polygon fill="#63b8ff" stroke="#63b8ff" points="366.26,-91.93 376.35,-88.7 366.45,-84.93 366.26,-91.93"/>
</a>
</g>
</g>
<!-- Node10&#45;&gt;Node11 -->
<g id="edge13_Node000010_Node000011" class="edge">
<title>Node10&#45;&gt;Node11</title>
<g id="a_edge13_Node000010_Node000011"><a xlink:title=" ">
<path fill="none" stroke="#63b8ff" d="M303.81,-75.91C322.27,-72.17 343.95,-67.78 364.66,-63.58"/>
<polygon fill="#63b8ff" stroke="#63b8ff" points="365.63,-66.96 374.73,-61.54 364.24,-60.09 365.63,-66.96"/>
</a>
</g>
</g>
<!-- Node12 -->
<g id="Node000012" class="node">
<title>Node12</title>
<g id="a_Node000012"><a xlink:href="pus__tm_8c.html#a74554a8d759fb67ac7fe96be3e758d7a" target="_top" xlink:title=" ">
<polygon fill="white" stroke="#666666" points="681,-79 551,-79 551,-60 681,-60 681,-79"/>
<text text-anchor="middle" x="616" y="-67" font-family="Helvetica,sans-Serif" font-size="10.00">validate_time_tailoring</text>
</a>
</g>
</g>
<!-- Node11&#45;&gt;Node12 -->
<g id="edge14_Node000011_Node000012" class="edge">
<title>Node11&#45;&gt;Node12</title>
<g id="a_edge14_Node000011_Node000012"><a xlink:title=" ">
<path fill="none" stroke="#63b8ff" d="M515.23,-56.51C523.59,-57.6 532.15,-58.72 540.58,-59.81"/>
<polygon fill="#63b8ff" stroke="#63b8ff" points="540.41,-63.32 550.78,-61.14 541.31,-56.38 540.41,-63.32"/>
</a>
</g>
</g>
<!-- Node12&#45;&gt;Node4 -->
<g id="edge15_Node000012_Node000004" class="edge">
<title>Node12&#45;&gt;Node4</title>
<g id="a_edge15_Node000012_Node000004"><a xlink:title=" ">
<path fill="none" stroke="#63b8ff" d="M656.66,-79.03C676.34,-83.76 700.32,-89.52 721.22,-94.54"/>
<polygon fill="#63b8ff" stroke="#63b8ff" points="720.67,-98.01 731.21,-96.94 722.3,-91.2 720.67,-98.01"/>
</a>
</g>
</g>
<!-- Node13 -->
<g id="Node000013" class="node">
<title>Node13</title>
<g id="a_Node000013"><a xlink:href="pus__tm_8c.html#a48a83676b00d92beebf1a62cd17dde0d" target="_top" xlink:title=" ">
<polygon fill="white" stroke="#666666" points="813.5,-79 730.5,-79 730.5,-60 813.5,-60 813.5,-79"/>
<text text-anchor="middle" x="772" y="-67" font-family="Helvetica,sans-Serif" font-size="10.00">cuc_is_empty</text>
</a>
</g>
</g>
<!-- Node12&#45;&gt;Node13 -->
<g id="edge16_Node000012_Node000013" class="edge">
<title>Node12&#45;&gt;Node13</title>
<g id="a_edge16_Node000012_Node000013"><a xlink:title=" ">
<path fill="none" stroke="#63b8ff" d="M681.42,-69.5C694.3,-69.5 707.66,-69.5 720.01,-69.5"/>
<polygon fill="#63b8ff" stroke="#63b8ff" points="720.11,-73 730.11,-69.5 720.11,-66 720.11,-73"/>
</a>
</g>
</g>
</g>
</svg>
