<?xml version="1.0" encoding="UTF-8" standalone="no"?>
<!DOCTYPE svg PUBLIC "-//W3C//DTD SVG 1.1//EN"
 "http://www.w3.org/Graphics/SVG/1.1/DTD/svg11.dtd">
<!-- Generated by graphviz version 2.43.0 (0)
 -->
<!-- Title: src/PusServices.cpp Pages: 1 -->
<svg width="818pt" height="632pt"
 viewBox="0.00 0.00 818.00 632.00" xmlns="http://www.w3.org/2000/svg" xmlns:xlink="http://www.w3.org/1999/xlink">
<g id="graph0" class="graph" transform="scale(1 1) rotate(0) translate(4 628)">
<title>src/PusServices.cpp</title>
<!-- Node1 -->
<g id="Node000001" class="node">
<title>Node1</title>
<g id="a_Node000001"><a xlink:title=" ">
<polygon fill="#999999" stroke="#666666" points="625.5,-624 512.5,-624 512.5,-605 625.5,-605 625.5,-624"/>
<text text-anchor="middle" x="569" y="-612" font-family="Helvetica,sans-Serif" font-size="10.00">src/PusServices.cpp</text>
</a>
</g>
</g>
<!-- Node2 -->
<g id="Node000002" class="node">
<title>Node2</title>
<g id="a_Node000002"><a xlink:href="PusServices_8h.html" target="_top" xlink:title=" ">
<polygon fill="white" stroke="#666666" points="394,-294 310,-294 310,-275 394,-275 394,-294"/>
<text text-anchor="middle" x="352" y="-282" font-family="Helvetica,sans-Serif" font-size="10.00">PusServices.h</text>
</a>
</g>
</g>
<!-- Node1&#45;&gt;Node2 -->
<g id="edge1_Node000001_Node000002" class="edge">
<title>Node1&#45;&gt;Node2</title>
<g id="a_edge1_Node000001_Node000002"><a xlink:title=" ">
<path fill="none" stroke="#63b8ff" d="M543.8,-604.91C507.03,-590.58 443,-558.08 443,-505.5 443,-505.5 443,-505.5 443,-393.5 443,-351.65 402.54,-317.59 375.58,-299.54"/>
<polygon fill="#63b8ff" stroke="#63b8ff" points="377.33,-296.51 367.03,-294.04 373.55,-302.4 377.33,-296.51"/>
</a>
</g>
</g>
<!-- Node15 -->
<g id="Node000015" class="node">
<title>Node15</title>
<g id="a_Node000015"><a xlink:href="CCSDSDataField_8h.html" target="_top" xlink:title=" ">
<polygon fill="white" stroke="#666666" points="578.5,-349 473.5,-349 473.5,-330 578.5,-330 578.5,-349"/>
<text text-anchor="middle" x="526" y="-337" font-family="Helvetica,sans-Serif" font-size="10.00">CCSDSDataField.h</text>
</a>
</g>
</g>
<!-- Node1&#45;&gt;Node15 -->
<g id="edge24_Node000001_Node000015" class="edge">
<title>Node1&#45;&gt;Node15</title>
<g id="a_edge24_Node000001_Node000015"><a xlink:title=" ">
<path fill="none" stroke="#63b8ff" d="M594.4,-604.97C631.46,-590.72 696,-558.32 696,-505.5 696,-505.5 696,-505.5 696,-448.5 696,-393.26 631.27,-365.07 581.69,-351.58"/>
<polygon fill="#63b8ff" stroke="#63b8ff" points="582.56,-348.19 572,-349.08 580.81,-354.97 582.56,-348.19"/>
</a>
</g>
</g>
<!-- Node16 -->
<g id="Node000016" class="node">
<title>Node16</title>
<g id="a_Node000016"><a xlink:href="CCSDSUtils_8h.html" target="_top" xlink:title=" ">
<polygon fill="white" stroke="#666666" points="609.5,-569 528.5,-569 528.5,-550 609.5,-550 609.5,-569"/>
<text text-anchor="middle" x="569" y="-557" font-family="Helvetica,sans-Serif" font-size="10.00">CCSDSUtils.h</text>
</a>
</g>
</g>
<!-- Node1&#45;&gt;Node16 -->
<g id="edge31_Node000001_Node000016" class="edge">
<title>Node1&#45;&gt;Node16</title>
<g id="a_edge31_Node000001_Node000016"><a xlink:title=" ">
<path fill="none" stroke="#63b8ff" d="M569,-604.75C569,-597.8 569,-587.85 569,-579.13"/>
<polygon fill="#63b8ff" stroke="#63b8ff" points="572.5,-579.09 569,-569.09 565.5,-579.09 572.5,-579.09"/>
</a>
</g>
</g>
<!-- Node3 -->
<g id="Node000003" class="node">
<title>Node3</title>
<g id="a_Node000003"><a xlink:href="CCSDSSecondaryHeaderAbstract_8h.html" target="_top" xlink:title=" ">
<polygon fill="white" stroke="#666666" points="470.5,-184 285.5,-184 285.5,-165 470.5,-165 470.5,-184"/>
<text text-anchor="middle" x="378" y="-172" font-family="Helvetica,sans-Serif" font-size="10.00">CCSDSSecondaryHeaderAbstract.h</text>
</a>
</g>
</g>
<!-- Node2&#45;&gt;Node3 -->
<g id="edge2_Node000002_Node000003" class="edge">
<title>Node2&#45;&gt;Node3</title>
<g id="a_edge2_Node000002_Node000003"><a xlink:title=" ">
<path fill="none" stroke="#63b8ff" d="M354.13,-274.66C358.36,-257.09 367.9,-217.45 373.56,-193.95"/>
<polygon fill="#63b8ff" stroke="#63b8ff" points="376.98,-194.7 375.92,-184.16 370.17,-193.06 376.98,-194.7"/>
</a>
</g>
</g>
<!-- Node4 -->
<g id="Node000004" class="node">
<title>Node4</title>
<g id="a_Node000004"><a xlink:href="CCSDSResult_8h.html" target="_top" xlink:title=" ">
<polygon fill="white" stroke="#666666" points="159.5,-74 70.5,-74 70.5,-55 159.5,-55 159.5,-74"/>
<text text-anchor="middle" x="115" y="-62" font-family="Helvetica,sans-Serif" font-size="10.00">CCSDSResult.h</text>
</a>
</g>
</g>
<!-- Node2&#45;&gt;Node4 -->
<g id="edge22_Node000002_Node000004" class="edge">
<title>Node2&#45;&gt;Node4</title>
<g id="a_edge22_Node000002_Node000004"><a xlink:title=" ">
<path fill="none" stroke="#63b8ff" d="M334.67,-274.94C295.44,-254.76 199.01,-200.48 144,-129 133.5,-115.36 125.73,-97.31 120.88,-83.94"/>
<polygon fill="#63b8ff" stroke="#63b8ff" points="124.17,-82.73 117.63,-74.4 117.54,-84.99 124.17,-82.73"/>
</a>
</g>
</g>
<!-- Node9 -->
<g id="Node000009" class="node">
<title>Node9</title>
<g id="a_Node000009"><a xlink:href="CCSDSConfig_8h.html" target="_top" xlink:title=" ">
<polygon fill="white" stroke="#666666" points="419.5,-129 330.5,-129 330.5,-110 419.5,-110 419.5,-129"/>
<text text-anchor="middle" x="375" y="-117" font-family="Helvetica,sans-Serif" font-size="10.00">CCSDSConfig.h</text>
</a>
</g>
</g>
<!-- Node2&#45;&gt;Node9 -->
<g id="edge23_Node000002_Node000009" class="edge">
<title>Node2&#45;&gt;Node9</title>
<g id="a_edge23_Node000002_Node000009"><a xlink:title=" ">
<path fill="none" stroke="#63b8ff" d="M339.02,-274.85C311.24,-255.24 250.63,-205.94 277,-165 287.16,-149.23 304.43,-138.98 321.66,-132.35"/>
<polygon fill="#63b8ff" stroke="#63b8ff" points="322.9,-135.63 331.19,-129.03 320.59,-129.02 322.9,-135.63"/>
</a>
</g>
</g>
<!-- Node12 -->
<g id="Node000012" class="node">
<title>Node12</title>
<g id="a_Node000012"><a xlink:href="CCSDSSecondaryHeaderFactory_8h.html" target="_top" xlink:title=" ">
<polygon fill="white" stroke="#666666" points="629.5,-239 450.5,-239 450.5,-220 629.5,-220 629.5,-239"/>
<text text-anchor="middle" x="540" y="-227" font-family="Helvetica,sans-Serif" font-size="10.00">CCSDSSecondaryHeaderFactory.h</text>
</a>
</g>
</g>
<!-- Node2&#45;&gt;Node12 -->
<g id="edge16_Node000002_Node000012" class="edge">
<title>Node2&#45;&gt;Node12</title>
<g id="a_edge16_Node000002_Node000012"><a xlink:title=" ">
<path fill="none" stroke="#63b8ff" d="M382.21,-274.98C414.04,-266.01 464.36,-251.82 499.6,-241.89"/>
<polygon fill="#63b8ff" stroke="#63b8ff" points="500.88,-245.16 509.56,-239.08 498.98,-238.43 500.88,-245.16"/>
</a>
</g>
</g>
<!-- Node3&#45;&gt;Node4 -->
<g id="edge3_Node000003_Node000004" class="edge">
<title>Node3&#45;&gt;Node4</title>
<g id="a_edge3_Node000003_Node000004"><a xlink:title=" ">
<path fill="none" stroke="#63b8ff" d="M285.32,-165.97C248.18,-159.86 206.17,-148.84 172,-129 152.45,-117.65 135.96,-97.27 125.82,-82.66"/>
<polygon fill="#63b8ff" stroke="#63b8ff" points="128.55,-80.45 120.11,-74.04 122.72,-84.31 128.55,-80.45"/>
</a>
</g>
</g>
<!-- Node6 -->
<g id="Node000006" class="node">
<title>Node6</title>
<g id="a_Node000006"><a xlink:title=" ">
<polygon fill="#e0e0e0" stroke="#999999" points="401.5,-19 354.5,-19 354.5,0 401.5,0 401.5,-19"/>
<text text-anchor="middle" x="378" y="-7" font-family="Helvetica,sans-Serif" font-size="10.00">vector</text>
</a>
</g>
</g>
<!-- Node3&#45;&gt;Node6 -->
<g id="edge8_Node000003_Node000006" class="edge">
<title>Node3&#45;&gt;Node6</title>
<g id="a_edge8_Node000003_Node000006"><a xlink:title=" ">
<path fill="none" stroke="#63b8ff" d="M402.34,-164.94C449.11,-147.14 543.92,-103.74 509,-55 487.1,-24.43 443,-14.61 412.04,-11.59"/>
<polygon fill="#63b8ff" stroke="#63b8ff" points="411.93,-8.07 401.69,-10.78 411.39,-15.05 411.93,-8.07"/>
</a>
</g>
</g>
<!-- Node7 -->
<g id="Node000007" class="node">
<title>Node7</title>
<g id="a_Node000007"><a xlink:title=" ">
<polygon fill="#e0e0e0" stroke="#999999" points="241,-19 191,-19 191,0 241,0 241,-19"/>
<text text-anchor="middle" x="216" y="-7" font-family="Helvetica,sans-Serif" font-size="10.00">cstdint</text>
</a>
</g>
</g>
<!-- Node3&#45;&gt;Node7 -->
<g id="edge9_Node000003_Node000007" class="edge">
<title>Node3&#45;&gt;Node7</title>
<g id="a_edge9_Node000003_Node000007"><a xlink:title=" ">
<path fill="none" stroke="#63b8ff" d="M393.74,-164.92C413.25,-153.13 442.36,-130.99 429,-110 389.61,-48.12 300.55,-24.09 250.97,-15.26"/>
<polygon fill="#63b8ff" stroke="#63b8ff" points="251.47,-11.79 241.03,-13.59 250.31,-18.69 251.47,-11.79"/>
</a>
</g>
</g>
<!-- Node3&#45;&gt;Node9 -->
<g id="edge10_Node000003_Node000009" class="edge">
<title>Node3&#45;&gt;Node9</title>
<g id="a_edge10_Node000003_Node000009"><a xlink:title=" ">
<path fill="none" stroke="#63b8ff" d="M377.5,-164.75C377.11,-157.8 376.55,-147.85 376.05,-139.13"/>
<polygon fill="#63b8ff" stroke="#63b8ff" points="379.55,-138.88 375.49,-129.09 372.56,-139.27 379.55,-138.88"/>
</a>
</g>
</g>
<!-- Node5 -->
<g id="Node000005" class="node">
<title>Node5</title>
<g id="a_Node000005"><a xlink:title=" ">
<polygon fill="#e0e0e0" stroke="#999999" points="151.5,-19 100.5,-19 100.5,0 151.5,0 151.5,-19"/>
<text text-anchor="middle" x="126" y="-7" font-family="Helvetica,sans-Serif" font-size="10.00">variant</text>
</a>
</g>
</g>
<!-- Node4&#45;&gt;Node5 -->
<g id="edge4_Node000004_Node000005" class="edge">
<title>Node4&#45;&gt;Node5</title>
<g id="a_edge4_Node000004_Node000005"><a xlink:title=" ">
<path fill="none" stroke="#63b8ff" d="M116.82,-54.75C118.26,-47.8 120.32,-37.85 122.13,-29.13"/>
<polygon fill="#63b8ff" stroke="#63b8ff" points="125.61,-29.59 124.22,-19.09 118.76,-28.17 125.61,-29.59"/>
</a>
</g>
</g>
<!-- Node4&#45;&gt;Node6 -->
<g id="edge5_Node000004_Node000006" class="edge">
<title>Node4&#45;&gt;Node6</title>
<g id="a_edge5_Node000004_Node000006"><a xlink:title=" ">
<path fill="none" stroke="#63b8ff" d="M157.26,-54.98C209.34,-44.49 296.78,-26.87 344.48,-17.25"/>
<polygon fill="#63b8ff" stroke="#63b8ff" points="345.2,-20.68 354.31,-15.27 343.82,-13.82 345.2,-20.68"/>
</a>
</g>
</g>
<!-- Node4&#45;&gt;Node7 -->
<g id="edge6_Node000004_Node000007" class="edge">
<title>Node4&#45;&gt;Node7</title>
<g id="a_edge6_Node000004_Node000007"><a xlink:title=" ">
<path fill="none" stroke="#63b8ff" d="M131.23,-54.98C147.18,-46.61 171.78,-33.7 190.38,-23.95"/>
<polygon fill="#63b8ff" stroke="#63b8ff" points="192.25,-26.92 199.48,-19.17 189,-20.72 192.25,-26.92"/>
</a>
</g>
</g>
<!-- Node8 -->
<g id="Node000008" class="node">
<title>Node8</title>
<g id="a_Node000008"><a xlink:title=" ">
<polygon fill="#e0e0e0" stroke="#999999" points="82,-19 22,-19 22,0 82,0 82,-19"/>
<text text-anchor="middle" x="52" y="-7" font-family="Helvetica,sans-Serif" font-size="10.00">iostream</text>
</a>
</g>
</g>
<!-- Node4&#45;&gt;Node8 -->
<g id="edge7_Node000004_Node000008" class="edge">
<title>Node4&#45;&gt;Node8</title>
<g id="a_edge7_Node000004_Node000008"><a xlink:title=" ">
<path fill="none" stroke="#63b8ff" d="M104.88,-54.98C95.56,-47.15 81.53,-35.34 70.26,-25.86"/>
<polygon fill="#63b8ff" stroke="#63b8ff" points="72.21,-22.93 62.31,-19.17 67.71,-28.29 72.21,-22.93"/>
</a>
</g>
</g>
<!-- Node9&#45;&gt;Node4 -->
<g id="edge14_Node000009_Node000004" class="edge">
<title>Node9&#45;&gt;Node4</title>
<g id="a_edge14_Node000009_Node000004"><a xlink:title=" ">
<path fill="none" stroke="#63b8ff" d="M333.23,-109.98C288.06,-100.78 216,-86.09 167.15,-76.13"/>
<polygon fill="#63b8ff" stroke="#63b8ff" points="167.6,-72.65 157.1,-74.08 166.2,-79.51 167.6,-72.65"/>
</a>
</g>
</g>
<!-- Node9&#45;&gt;Node6 -->
<g id="edge13_Node000009_Node000006" class="edge">
<title>Node9&#45;&gt;Node6</title>
<g id="a_edge13_Node000009_Node000006"><a xlink:title=" ">
<path fill="none" stroke="#63b8ff" d="M375.25,-109.66C375.73,-92.17 376.82,-52.8 377.48,-29.27"/>
<polygon fill="#63b8ff" stroke="#63b8ff" points="380.98,-29.25 377.76,-19.16 373.98,-29.06 380.98,-29.25"/>
</a>
</g>
</g>
<!-- Node9&#45;&gt;Node7 -->
<g id="edge12_Node000009_Node000007" class="edge">
<title>Node9&#45;&gt;Node7</title>
<g id="a_edge12_Node000009_Node000007"><a xlink:title=" ">
<path fill="none" stroke="#63b8ff" d="M362.26,-109.84C335.04,-91.36 271,-47.86 237.41,-25.05"/>
<polygon fill="#63b8ff" stroke="#63b8ff" points="239.04,-21.92 228.8,-19.2 235.11,-27.71 239.04,-21.92"/>
</a>
</g>
</g>
<!-- Node10 -->
<g id="Node000010" class="node">
<title>Node10</title>
<g id="a_Node000010"><a xlink:title=" ">
<polygon fill="#e0e0e0" stroke="#999999" points="642,-74 598,-74 598,-55 642,-55 642,-74"/>
<text text-anchor="middle" x="620" y="-62" font-family="Helvetica,sans-Serif" font-size="10.00">string</text>
</a>
</g>
</g>
<!-- Node9&#45;&gt;Node10 -->
<g id="edge11_Node000009_Node000010" class="edge">
<title>Node9&#45;&gt;Node10</title>
<g id="a_edge11_Node000009_Node000010"><a xlink:title=" ">
<path fill="none" stroke="#63b8ff" d="M414.36,-109.98C462.58,-99.56 543.32,-82.09 587.93,-72.44"/>
<polygon fill="#63b8ff" stroke="#63b8ff" points="588.9,-75.81 597.93,-70.27 587.42,-68.97 588.9,-75.81"/>
</a>
</g>
</g>
<!-- Node11 -->
<g id="Node000011" class="node">
<title>Node11</title>
<g id="a_Node000011"><a xlink:title=" ">
<polygon fill="#e0e0e0" stroke="#999999" points="499.5,-74 406.5,-74 406.5,-55 499.5,-55 499.5,-74"/>
<text text-anchor="middle" x="453" y="-62" font-family="Helvetica,sans-Serif" font-size="10.00">unordered_map</text>
</a>
</g>
</g>
<!-- Node9&#45;&gt;Node11 -->
<g id="edge15_Node000009_Node000011" class="edge">
<title>Node9&#45;&gt;Node11</title>
<g id="a_edge15_Node000009_Node000011"><a xlink:title=" ">
<path fill="none" stroke="#63b8ff" d="M387.53,-109.98C399.4,-101.92 417.46,-89.65 431.61,-80.03"/>
<polygon fill="#63b8ff" stroke="#63b8ff" points="433.94,-82.69 440.24,-74.17 430,-76.9 433.94,-82.69"/>
</a>
</g>
</g>
<!-- Node12&#45;&gt;Node3 -->
<g id="edge21_Node000012_Node000003" class="edge">
<title>Node12&#45;&gt;Node3</title>
<g id="a_edge21_Node000012_Node000003"><a xlink:title=" ">
<path fill="none" stroke="#63b8ff" d="M513.97,-219.98C486.89,-211.13 444.29,-197.19 413.99,-187.28"/>
<polygon fill="#63b8ff" stroke="#63b8ff" points="414.82,-183.87 404.23,-184.08 412.65,-190.52 414.82,-183.87"/>
</a>
</g>
</g>
<!-- Node12&#45;&gt;Node10 -->
<g id="edge20_Node000012_Node000010" class="edge">
<title>Node12&#45;&gt;Node10</title>
<g id="a_edge20_Node000012_Node000010"><a xlink:title=" ">
<path fill="none" stroke="#63b8ff" d="M558.57,-219.95C572.57,-212.5 591,-200.32 601,-184 619.98,-153.02 621.92,-109.26 621.23,-84.51"/>
<polygon fill="#63b8ff" stroke="#63b8ff" points="624.71,-84.13 620.76,-74.3 617.72,-84.45 624.71,-84.13"/>
</a>
</g>
</g>
<!-- Node12&#45;&gt;Node11 -->
<g id="edge18_Node000012_Node000011" class="edge">
<title>Node12&#45;&gt;Node11</title>
<g id="a_edge18_Node000012_Node000011"><a xlink:title=" ">
<path fill="none" stroke="#63b8ff" d="M535.32,-219.74C521.57,-193.98 481.09,-118.13 462.51,-83.33"/>
<polygon fill="#63b8ff" stroke="#63b8ff" points="465.5,-81.48 457.7,-74.31 459.32,-84.78 465.5,-81.48"/>
</a>
</g>
</g>
<!-- Node13 -->
<g id="Node000013" class="node">
<title>Node13</title>
<g id="a_Node000013"><a xlink:title=" ">
<polygon fill="#e0e0e0" stroke="#999999" points="706,-184 648,-184 648,-165 706,-165 706,-184"/>
<text text-anchor="middle" x="677" y="-172" font-family="Helvetica,sans-Serif" font-size="10.00">memory</text>
</a>
</g>
</g>
<!-- Node12&#45;&gt;Node13 -->
<g id="edge17_Node000012_Node000013" class="edge">
<title>Node12&#45;&gt;Node13</title>
<g id="a_edge17_Node000012_Node000013"><a xlink:title=" ">
<path fill="none" stroke="#63b8ff" d="M562.01,-219.98C584.45,-211.3 619.48,-197.75 644.99,-187.88"/>
<polygon fill="#63b8ff" stroke="#63b8ff" points="646.52,-191.04 654.59,-184.17 644,-184.51 646.52,-191.04"/>
</a>
</g>
</g>
<!-- Node14 -->
<g id="Node000014" class="node">
<title>Node14</title>
<g id="a_Node000014"><a xlink:title=" ">
<polygon fill="#e0e0e0" stroke="#999999" points="591.5,-184 526.5,-184 526.5,-165 591.5,-165 591.5,-184"/>
<text text-anchor="middle" x="559" y="-172" font-family="Helvetica,sans-Serif" font-size="10.00">functional</text>
</a>
</g>
</g>
<!-- Node12&#45;&gt;Node14 -->
<g id="edge19_Node000012_Node000014" class="edge">
<title>Node12&#45;&gt;Node14</title>
<g id="a_edge19_Node000012_Node000014"><a xlink:title=" ">
<path fill="none" stroke="#63b8ff" d="M543.14,-219.75C545.68,-212.65 549.36,-202.4 552.53,-193.56"/>
<polygon fill="#63b8ff" stroke="#63b8ff" points="555.84,-194.68 555.92,-184.09 549.25,-192.32 555.84,-194.68"/>
</a>
</g>
</g>
<!-- Node15&#45;&gt;Node2 -->
<g id="edge30_Node000015_Node000002" class="edge">
<title>Node15&#45;&gt;Node2</title>
<g id="a_edge30_Node000015_Node000002"><a xlink:title=" ">
<path fill="none" stroke="#63b8ff" d="M498.04,-329.98C468.7,-321.05 422.4,-306.94 389.81,-297.02"/>
<polygon fill="#63b8ff" stroke="#63b8ff" points="390.76,-293.65 380.18,-294.08 388.72,-300.34 390.76,-293.65"/>
</a>
</g>
</g>
<!-- Node15&#45;&gt;Node3 -->
<g id="edge28_Node000015_Node000003" class="edge">
<title>Node15&#45;&gt;Node3</title>
<g id="a_edge28_Node000015_Node000003"><a xlink:title=" ">
<path fill="none" stroke="#63b8ff" d="M518.04,-329.74C494.35,-303.65 424.01,-226.17 392.98,-192"/>
<polygon fill="#63b8ff" stroke="#63b8ff" points="395.31,-189.36 386,-184.31 390.13,-194.06 395.31,-189.36"/>
</a>
</g>
</g>
<!-- Node15&#45;&gt;Node4 -->
<g id="edge25_Node000015_Node000004" class="edge">
<title>Node15&#45;&gt;Node4</title>
<g id="a_edge25_Node000015_Node000004"><a xlink:title=" ">
<path fill="none" stroke="#63b8ff" d="M473.08,-335.72C425.87,-331.49 355.92,-320.83 301,-294 205.53,-247.35 174.14,-224.71 128,-129 121.2,-114.89 117.95,-97.35 116.4,-84.28"/>
<polygon fill="#63b8ff" stroke="#63b8ff" points="119.87,-83.76 115.43,-74.14 112.9,-84.43 119.87,-83.76"/>
</a>
</g>
</g>
<!-- Node15&#45;&gt;Node6 -->
<g id="edge26_Node000015_Node000006" class="edge">
<title>Node15&#45;&gt;Node6</title>
<g id="a_edge26_Node000015_Node000006"><a xlink:title=" ">
<path fill="none" stroke="#63b8ff" d="M571.12,-329.98C642.14,-313.66 772,-270.79 772,-175.5 772,-175.5 772,-175.5 772,-118.5 772,-44.07 507.17,-19.09 411.75,-12.51"/>
<polygon fill="#63b8ff" stroke="#63b8ff" points="411.97,-9.01 401.76,-11.84 411.5,-16 411.97,-9.01"/>
</a>
</g>
</g>
<!-- Node15&#45;&gt;Node12 -->
<g id="edge29_Node000015_Node000012" class="edge">
<title>Node15&#45;&gt;Node12</title>
<g id="a_edge29_Node000015_Node000012"><a xlink:title=" ">
<path fill="none" stroke="#63b8ff" d="M527.15,-329.66C529.41,-312.17 534.52,-272.8 537.57,-249.27"/>
<polygon fill="#63b8ff" stroke="#63b8ff" points="541.06,-249.53 538.88,-239.16 534.12,-248.63 541.06,-249.53"/>
</a>
</g>
</g>
<!-- Node15&#45;&gt;Node13 -->
<g id="edge27_Node000015_Node000013" class="edge">
<title>Node15&#45;&gt;Node13</title>
<g id="a_edge27_Node000015_Node000013"><a xlink:title=" ">
<path fill="none" stroke="#63b8ff" d="M537.98,-329.94C559.88,-313.88 607.06,-277.38 639,-239 650.79,-224.84 661.3,-206.61 668.26,-193.32"/>
<polygon fill="#63b8ff" stroke="#63b8ff" points="671.45,-194.77 672.85,-184.27 665.2,-191.6 671.45,-194.77"/>
</a>
</g>
</g>
<!-- Node16&#45;&gt;Node6 -->
<g id="edge47_Node000016_Node000006" class="edge">
<title>Node16&#45;&gt;Node6</title>
<g id="a_edge47_Node000016_Node000006"><a xlink:title=" ">
<path fill="none" stroke="#63b8ff" d="M609.61,-558C678.29,-554.77 810,-537.27 810,-450.5 810,-450.5 810,-450.5 810,-118.5 810,-36.46 513.07,-16.22 411.55,-11.7"/>
<polygon fill="#63b8ff" stroke="#63b8ff" points="411.67,-8.2 401.53,-11.27 411.38,-15.19 411.67,-8.2"/>
</a>
</g>
</g>
<!-- Node16&#45;&gt;Node10 -->
<g id="edge46_Node000016_Node000010" class="edge">
<title>Node16&#45;&gt;Node10</title>
<g id="a_edge46_Node000016_Node000010"><a xlink:title=" ">
<path fill="none" stroke="#63b8ff" d="M589.56,-549.92C633.79,-529.95 734,-475.83 734,-395.5 734,-395.5 734,-395.5 734,-173.5 734,-127.47 684.42,-95.18 650.65,-78.53"/>
<polygon fill="#63b8ff" stroke="#63b8ff" points="651.71,-75.16 641.18,-74.05 648.72,-81.49 651.71,-75.16"/>
</a>
</g>
</g>
<!-- Node17 -->
<g id="Node000017" class="node">
<title>Node17</title>
<g id="a_Node000017"><a xlink:href="CCSDSPacket_8h.html" target="_top" xlink:title=" ">
<polygon fill="white" stroke="#666666" points="232,-404 142,-404 142,-385 232,-385 232,-404"/>
<text text-anchor="middle" x="187" y="-392" font-family="Helvetica,sans-Serif" font-size="10.00">CCSDSPacket.h</text>
</a>
</g>
</g>
<!-- Node16&#45;&gt;Node17 -->
<g id="edge32_Node000016_Node000017" class="edge">
<title>Node16&#45;&gt;Node17</title>
<g id="a_edge32_Node000016_Node000017"><a xlink:title=" ">
<path fill="none" stroke="#63b8ff" d="M551.94,-549.86C511.31,-529.44 405.36,-477.13 314,-440 284,-427.81 249.26,-415.77 223.7,-407.3"/>
<polygon fill="#63b8ff" stroke="#63b8ff" points="224.64,-403.92 214.04,-404.12 222.45,-410.57 224.64,-403.92"/>
</a>
</g>
</g>
<!-- Node19 -->
<g id="Node000019" class="node">
<title>Node19</title>
<g id="a_Node000019"><a xlink:href="CCSDSManager_8h.html" target="_top" xlink:title=" ">
<polygon fill="white" stroke="#666666" points="241.5,-514 140.5,-514 140.5,-495 241.5,-495 241.5,-514"/>
<text text-anchor="middle" x="191" y="-502" font-family="Helvetica,sans-Serif" font-size="10.00">CCSDSManager.h</text>
</a>
</g>
</g>
<!-- Node16&#45;&gt;Node19 -->
<g id="edge40_Node000016_Node000019" class="edge">
<title>Node16&#45;&gt;Node19</title>
<g id="a_edge40_Node000016_Node000019"><a xlink:title=" ">
<path fill="none" stroke="#63b8ff" d="M528.19,-552.78C461.59,-543.44 329.22,-524.88 251.62,-514"/>
<polygon fill="#63b8ff" stroke="#63b8ff" points="251.89,-510.5 241.5,-512.58 250.92,-517.44 251.89,-510.5"/>
</a>
</g>
</g>
<!-- Node17&#45;&gt;Node4 -->
<g id="edge33_Node000017_Node000004" class="edge">
<title>Node17&#45;&gt;Node4</title>
<g id="a_edge33_Node000017_Node000004"><a xlink:title=" ">
<path fill="none" stroke="#63b8ff" d="M152.44,-384.92C108.43,-371.69 38,-341.73 38,-285.5 38,-285.5 38,-285.5 38,-173.5 38,-134.3 72.06,-99.47 94.87,-80.54"/>
<polygon fill="#63b8ff" stroke="#63b8ff" points="97.33,-83.05 102.97,-74.09 92.97,-77.58 97.33,-83.05"/>
</a>
</g>
</g>
<!-- Node17&#45;&gt;Node6 -->
<g id="edge34_Node000017_Node000006" class="edge">
<title>Node17&#45;&gt;Node6</title>
<g id="a_edge34_Node000017_Node000006"><a xlink:title=" ">
<path fill="none" stroke="#63b8ff" d="M189.01,-384.83C196.42,-353.8 223.93,-245.79 266,-165 294.3,-110.64 340.18,-54.17 363.46,-27.02"/>
<polygon fill="#63b8ff" stroke="#63b8ff" points="366.27,-29.13 370.17,-19.28 360.98,-24.54 366.27,-29.13"/>
</a>
</g>
</g>
<!-- Node17&#45;&gt;Node15 -->
<g id="edge39_Node000017_Node000015" class="edge">
<title>Node17&#45;&gt;Node15</title>
<g id="a_edge39_Node000017_Node000015"><a xlink:title=" ">
<path fill="none" stroke="#63b8ff" d="M232.02,-386.46C291.38,-377.18 396.13,-360.8 463.24,-350.31"/>
<polygon fill="#63b8ff" stroke="#63b8ff" points="463.93,-353.75 473.27,-348.74 462.85,-346.83 463.93,-353.75"/>
</a>
</g>
</g>
<!-- Node18 -->
<g id="Node000018" class="node">
<title>Node18</title>
<g id="a_Node000018"><a xlink:href="CCSDSHeader_8h.html" target="_top" xlink:title=" ">
<polygon fill="white" stroke="#666666" points="273.5,-129 180.5,-129 180.5,-110 273.5,-110 273.5,-129"/>
<text text-anchor="middle" x="227" y="-117" font-family="Helvetica,sans-Serif" font-size="10.00">CCSDSHeader.h</text>
</a>
</g>
</g>
<!-- Node17&#45;&gt;Node18 -->
<g id="edge35_Node000017_Node000018" class="edge">
<title>Node17&#45;&gt;Node18</title>
<g id="a_edge35_Node000017_Node000018"><a xlink:title=" ">
<path fill="none" stroke="#63b8ff" d="M183.4,-384.82C179.94,-375.99 174.97,-361.81 173,-349 164.3,-292.33 161.72,-276.21 173,-220 179.38,-188.2 199.97,-156.06 213.8,-137.23"/>
<polygon fill="#63b8ff" stroke="#63b8ff" points="216.7,-139.19 219.95,-129.11 211.12,-134.96 216.7,-139.19"/>
</a>
</g>
</g>
<!-- Node18&#45;&gt;Node4 -->
<g id="edge36_Node000018_Node000004" class="edge">
<title>Node18&#45;&gt;Node4</title>
<g id="a_edge36_Node000018_Node000004"><a xlink:title=" ">
<path fill="none" stroke="#63b8ff" d="M209.01,-109.98C191.07,-101.5 163.28,-88.35 142.57,-78.54"/>
<polygon fill="#63b8ff" stroke="#63b8ff" points="143.86,-75.28 133.32,-74.17 140.86,-81.61 143.86,-75.28"/>
</a>
</g>
</g>
<!-- Node18&#45;&gt;Node6 -->
<g id="edge38_Node000018_Node000006" class="edge">
<title>Node18&#45;&gt;Node6</title>
<g id="a_edge38_Node000018_Node000006"><a xlink:title=" ">
<path fill="none" stroke="#63b8ff" d="M233.72,-109.77C244.19,-96.6 265.56,-71.44 288,-55 305.8,-41.96 327.99,-30.94 345.89,-23.13"/>
<polygon fill="#63b8ff" stroke="#63b8ff" points="347.49,-26.25 355.34,-19.12 344.76,-19.8 347.49,-26.25"/>
</a>
</g>
</g>
<!-- Node18&#45;&gt;Node7 -->
<g id="edge37_Node000018_Node000007" class="edge">
<title>Node18&#45;&gt;Node7</title>
<g id="a_edge37_Node000018_Node000007"><a xlink:title=" ">
<path fill="none" stroke="#63b8ff" d="M223.14,-109.85C219.44,-101.04 214.11,-86.87 212,-74 209.56,-59.14 210.85,-42.11 212.6,-29.43"/>
<polygon fill="#63b8ff" stroke="#63b8ff" points="216.11,-29.62 214.23,-19.19 209.2,-28.51 216.11,-29.62"/>
</a>
</g>
</g>
<!-- Node19&#45;&gt;Node4 -->
<g id="edge43_Node000019_Node000004" class="edge">
<title>Node19&#45;&gt;Node4</title>
<g id="a_edge43_Node000019_Node000004"><a xlink:title=" ">
<path fill="none" stroke="#63b8ff" d="M140.32,-496.96C83.73,-486.48 0,-460.07 0,-395.5 0,-395.5 0,-395.5 0,-173.5 0,-127.06 50.45,-94.76 84.52,-78.24"/>
<polygon fill="#63b8ff" stroke="#63b8ff" points="86.05,-81.39 93.64,-74 83.1,-75.04 86.05,-81.39"/>
</a>
</g>
</g>
<!-- Node19&#45;&gt;Node17 -->
<g id="edge42_Node000019_Node000017" class="edge">
<title>Node19&#45;&gt;Node17</title>
<g id="a_edge42_Node000019_Node000017"><a xlink:title=" ">
<path fill="none" stroke="#63b8ff" d="M171.73,-494.9C157.88,-487.55 140.24,-475.54 132,-459 122.29,-439.5 142.62,-421.14 161.26,-409.23"/>
<polygon fill="#63b8ff" stroke="#63b8ff" points="163.08,-412.22 169.86,-404.08 159.48,-406.21 163.08,-412.22"/>
</a>
</g>
</g>
<!-- Node20 -->
<g id="Node000020" class="node">
<title>Node20</title>
<g id="a_Node000020"><a xlink:title=" ">
<polygon fill="#e0e0e0" stroke="#999999" points="304.5,-459 259.5,-459 259.5,-440 304.5,-440 304.5,-459"/>
<text text-anchor="middle" x="282" y="-447" font-family="Helvetica,sans-Serif" font-size="10.00">utility</text>
</a>
</g>
</g>
<!-- Node19&#45;&gt;Node20 -->
<g id="edge41_Node000019_Node000020" class="edge">
<title>Node19&#45;&gt;Node20</title>
<g id="a_edge41_Node000019_Node000020"><a xlink:title=" ">
<path fill="none" stroke="#63b8ff" d="M205.62,-494.98C219.86,-486.69 241.75,-473.94 258.45,-464.22"/>
<polygon fill="#63b8ff" stroke="#63b8ff" points="260.23,-467.23 267.11,-459.17 256.71,-461.18 260.23,-467.23"/>
</a>
</g>
</g>
<!-- Node21 -->
<g id="Node000021" class="node">
<title>Node21</title>
<g id="a_Node000021"><a xlink:href="CCSDSValidator_8h.html" target="_top" xlink:title="Defines the Validator class for CCSDS packet validation.">
<polygon fill="white" stroke="#666666" points="241.5,-459 140.5,-459 140.5,-440 241.5,-440 241.5,-459"/>
<text text-anchor="middle" x="191" y="-447" font-family="Helvetica,sans-Serif" font-size="10.00">CCSDSValidator.h</text>
</a>
</g>
</g>
<!-- Node19&#45;&gt;Node21 -->
<g id="edge44_Node000019_Node000021" class="edge">
<title>Node19&#45;&gt;Node21</title>
<g id="a_edge44_Node000019_Node000021"><a xlink:title=" ">
<path fill="none" stroke="#63b8ff" d="M191,-494.75C191,-487.8 191,-477.85 191,-469.13"/>
<polygon fill="#63b8ff" stroke="#63b8ff" points="194.5,-469.09 191,-459.09 187.5,-469.09 194.5,-469.09"/>
</a>
</g>
</g>
<!-- Node21&#45;&gt;Node17 -->
<g id="edge45_Node000021_Node000017" class="edge">
<title>Node21&#45;&gt;Node17</title>
<g id="a_edge45_Node000021_Node000017"><a xlink:title=" ">
<path fill="none" stroke="#63b8ff" d="M190.34,-439.75C189.82,-432.8 189.06,-422.85 188.41,-414.13"/>
<polygon fill="#63b8ff" stroke="#63b8ff" points="191.89,-413.8 187.65,-404.09 184.91,-414.32 191.89,-413.8"/>
</a>
</g>
</g>
</g>
</svg>
