<?xml version="1.0" encoding="UTF-8" standalone="no"?>
<!DOCTYPE svg PUBLIC "-//W3C//DTD SVG 1.1//EN"
 "http://www.w3.org/Graphics/SVG/1.1/DTD/svg11.dtd">
<!-- Generated by graphviz version 2.43.0 (0)
 -->
<!-- Title: src/PusServices.cpp Pages: 1 -->
<svg width="900pt" height="632pt"
 viewBox="0.00 0.00 900.00 632.00" xmlns="http://www.w3.org/2000/svg" xmlns:xlink="http://www.w3.org/1999/xlink">
<g id="graph0" class="graph" transform="scale(1 1) rotate(0) translate(4 628)">
<title>src/PusServices.cpp</title>
<!-- Node1 -->
<g id="Node000001" class="node">
<title>Node1</title>
<g id="a_Node000001"><a xlink:title=" ">
<polygon fill="#999999" stroke="#666666" points="450.5,-624 337.5,-624 337.5,-605 450.5,-605 450.5,-624"/>
<text text-anchor="middle" x="394" y="-612" font-family="Helvetica,sans-Serif" font-size="10.00">src/PusServices.cpp</text>
</a>
</g>
</g>
<!-- Node2 -->
<g id="Node000002" class="node">
<title>Node2</title>
<g id="a_Node000002"><a xlink:href="PusServices_8h.html" target="_top" xlink:title=" ">
<polygon fill="white" stroke="#666666" points="342,-294 258,-294 258,-275 342,-275 342,-294"/>
<text text-anchor="middle" x="300" y="-282" font-family="Helvetica,sans-Serif" font-size="10.00">PusServices.h</text>
</a>
</g>
</g>
<!-- Node1&#45;&gt;Node2 -->
<g id="edge1_Node000001_Node000002" class="edge">
<title>Node1&#45;&gt;Node2</title>
<g id="a_edge1_Node000001_Node000002"><a xlink:title=" ">
<path fill="none" stroke="#63b8ff" d="M337.2,-608.12C236.69,-597.02 38,-567.26 38,-505.5 38,-505.5 38,-505.5 38,-393.5 38,-303.75 171.03,-287.07 247.51,-284.89"/>
<polygon fill="#63b8ff" stroke="#63b8ff" points="247.98,-288.39 257.91,-284.68 247.83,-281.39 247.98,-288.39"/>
</a>
</g>
</g>
<!-- Node15 -->
<g id="Node000015" class="node">
<title>Node15</title>
<g id="a_Node000015"><a xlink:href="CCSDSDataField_8h.html" target="_top" xlink:title=" ">
<polygon fill="white" stroke="#666666" points="446.5,-349 341.5,-349 341.5,-330 446.5,-330 446.5,-349"/>
<text text-anchor="middle" x="394" y="-337" font-family="Helvetica,sans-Serif" font-size="10.00">CCSDSDataField.h</text>
</a>
</g>
</g>
<!-- Node1&#45;&gt;Node15 -->
<g id="edge24_Node000001_Node000015" class="edge">
<title>Node1&#45;&gt;Node15</title>
<g id="a_edge24_Node000001_Node000015"><a xlink:title=" ">
<path fill="none" stroke="#63b8ff" d="M394,-604.82C394,-586.48 394,-542.44 394,-505.5 394,-505.5 394,-505.5 394,-448.5 394,-417.19 394,-380.77 394,-359.23"/>
<polygon fill="#63b8ff" stroke="#63b8ff" points="397.5,-359.18 394,-349.18 390.5,-359.18 397.5,-359.18"/>
</a>
</g>
</g>
<!-- Node16 -->
<g id="Node000016" class="node">
<title>Node16</title>
<g id="a_Node000016"><a xlink:href="CCSDSUtils_8h.html" target="_top" xlink:title=" ">
<polygon fill="white" stroke="#666666" points="523.5,-569 442.5,-569 442.5,-550 523.5,-550 523.5,-569"/>
<text text-anchor="middle" x="483" y="-557" font-family="Helvetica,sans-Serif" font-size="10.00">CCSDSUtils.h</text>
</a>
</g>
</g>
<!-- Node1&#45;&gt;Node16 -->
<g id="edge31_Node000001_Node000016" class="edge">
<title>Node1&#45;&gt;Node16</title>
<g id="a_edge31_Node000001_Node000016"><a xlink:title=" ">
<path fill="none" stroke="#63b8ff" d="M408.3,-604.98C422.1,-596.77 443.24,-584.18 459.51,-574.49"/>
<polygon fill="#63b8ff" stroke="#63b8ff" points="461.64,-577.29 468.44,-569.17 458.06,-571.28 461.64,-577.29"/>
</a>
</g>
</g>
<!-- Node3 -->
<g id="Node000003" class="node">
<title>Node3</title>
<g id="a_Node000003"><a xlink:href="CCSDSSecondaryHeaderAbstract_8h.html" target="_top" xlink:title=" ">
<polygon fill="white" stroke="#666666" points="486.5,-184 301.5,-184 301.5,-165 486.5,-165 486.5,-184"/>
<text text-anchor="middle" x="394" y="-172" font-family="Helvetica,sans-Serif" font-size="10.00">CCSDSSecondaryHeaderAbstract.h</text>
</a>
</g>
</g>
<!-- Node2&#45;&gt;Node3 -->
<g id="edge2_Node000002_Node000003" class="edge">
<title>Node2&#45;&gt;Node3</title>
<g id="a_edge2_Node000002_Node000003"><a xlink:title=" ">
<path fill="none" stroke="#63b8ff" d="M307.69,-274.66C323.47,-256.54 359.7,-214.91 379.84,-191.77"/>
<polygon fill="#63b8ff" stroke="#63b8ff" points="382.54,-194 386.46,-184.16 377.26,-189.4 382.54,-194"/>
</a>
</g>
</g>
<!-- Node4 -->
<g id="Node000004" class="node">
<title>Node4</title>
<g id="a_Node000004"><a xlink:href="CCSDSResult_8h.html" target="_top" xlink:title=" ">
<polygon fill="white" stroke="#666666" points="591.5,-74 502.5,-74 502.5,-55 591.5,-55 591.5,-74"/>
<text text-anchor="middle" x="547" y="-62" font-family="Helvetica,sans-Serif" font-size="10.00">CCSDSResult.h</text>
</a>
</g>
</g>
<!-- Node2&#45;&gt;Node4 -->
<g id="edge22_Node000002_Node000004" class="edge">
<title>Node2&#45;&gt;Node4</title>
<g id="a_edge22_Node000002_Node000004"><a xlink:title=" ">
<path fill="none" stroke="#63b8ff" d="M331.06,-274.9C373.29,-261.77 448.84,-232.93 495,-184 522.4,-154.96 536.81,-109.14 543.07,-83.82"/>
<polygon fill="#63b8ff" stroke="#63b8ff" points="546.49,-84.59 545.33,-74.05 539.67,-83.01 546.49,-84.59"/>
</a>
</g>
</g>
<!-- Node10 -->
<g id="Node000010" class="node">
<title>Node10</title>
<g id="a_Node000010"><a xlink:href="CCSDSConfig_8h.html" target="_top" xlink:title=" ">
<polygon fill="white" stroke="#666666" points="447.5,-129 358.5,-129 358.5,-110 447.5,-110 447.5,-129"/>
<text text-anchor="middle" x="403" y="-117" font-family="Helvetica,sans-Serif" font-size="10.00">CCSDSConfig.h</text>
</a>
</g>
</g>
<!-- Node2&#45;&gt;Node10 -->
<g id="edge23_Node000002_Node000010" class="edge">
<title>Node2&#45;&gt;Node10</title>
<g id="a_edge23_Node000002_Node000010"><a xlink:title=" ">
<path fill="none" stroke="#63b8ff" d="M296.22,-274.83C287.72,-253.88 269.61,-199.69 293,-165 305.63,-146.27 327.61,-135.42 348.63,-129.14"/>
<polygon fill="#63b8ff" stroke="#63b8ff" points="349.75,-132.46 358.5,-126.49 347.93,-125.7 349.75,-132.46"/>
</a>
</g>
</g>
<!-- Node12 -->
<g id="Node000012" class="node">
<title>Node12</title>
<g id="a_Node000012"><a xlink:href="CCSDSSecondaryHeaderFactory_8h.html" target="_top" xlink:title=" ">
<polygon fill="white" stroke="#666666" points="254.5,-239 75.5,-239 75.5,-220 254.5,-220 254.5,-239"/>
<text text-anchor="middle" x="165" y="-227" font-family="Helvetica,sans-Serif" font-size="10.00">CCSDSSecondaryHeaderFactory.h</text>
</a>
</g>
</g>
<!-- Node2&#45;&gt;Node12 -->
<g id="edge16_Node000002_Node000012" class="edge">
<title>Node2&#45;&gt;Node12</title>
<g id="a_edge16_Node000002_Node000012"><a xlink:title=" ">
<path fill="none" stroke="#63b8ff" d="M278.31,-274.98C256.2,-266.3 221.68,-252.75 196.55,-242.88"/>
<polygon fill="#63b8ff" stroke="#63b8ff" points="197.67,-239.57 187.08,-239.17 195.11,-246.08 197.67,-239.57"/>
</a>
</g>
</g>
<!-- Node3&#45;&gt;Node4 -->
<g id="edge3_Node000003_Node000004" class="edge">
<title>Node3&#45;&gt;Node4</title>
<g id="a_edge3_Node000003_Node000004"><a xlink:title=" ">
<path fill="none" stroke="#63b8ff" d="M406.26,-164.84C432.45,-146.36 494.07,-102.86 526.39,-80.05"/>
<polygon fill="#63b8ff" stroke="#63b8ff" points="528.53,-82.82 534.68,-74.2 524.49,-77.1 528.53,-82.82"/>
</a>
</g>
</g>
<!-- Node7 -->
<g id="Node000007" class="node">
<title>Node7</title>
<g id="a_Node000007"><a xlink:title=" ">
<polygon fill="#e0e0e0" stroke="#999999" points="801.5,-19 754.5,-19 754.5,0 801.5,0 801.5,-19"/>
<text text-anchor="middle" x="778" y="-7" font-family="Helvetica,sans-Serif" font-size="10.00">vector</text>
</a>
</g>
</g>
<!-- Node3&#45;&gt;Node7 -->
<g id="edge14_Node000003_Node000007" class="edge">
<title>Node3&#45;&gt;Node7</title>
<g id="a_edge14_Node000003_Node000007"><a xlink:title=" ">
<path fill="none" stroke="#63b8ff" d="M486.89,-167.93C588.53,-160.95 739.69,-147.6 759,-129 785.8,-103.19 784.46,-55.73 781.19,-29.38"/>
<polygon fill="#63b8ff" stroke="#63b8ff" points="784.61,-28.59 779.7,-19.21 777.69,-29.61 784.61,-28.59"/>
</a>
</g>
</g>
<!-- Node8 -->
<g id="Node000008" class="node">
<title>Node8</title>
<g id="a_Node000008"><a xlink:title=" ">
<polygon fill="#e0e0e0" stroke="#999999" points="458,-19 408,-19 408,0 458,0 458,-19"/>
<text text-anchor="middle" x="433" y="-7" font-family="Helvetica,sans-Serif" font-size="10.00">cstdint</text>
</a>
</g>
</g>
<!-- Node3&#45;&gt;Node8 -->
<g id="edge15_Node000003_Node000008" class="edge">
<title>Node3&#45;&gt;Node8</title>
<g id="a_edge15_Node000003_Node000008"><a xlink:title=" ">
<path fill="none" stroke="#63b8ff" d="M381.22,-165C370.61,-157.1 356.28,-144.27 350,-129 346.79,-121.19 347.12,-117.94 350,-110 362.73,-74.87 393.89,-43.43 414.2,-25.69"/>
<polygon fill="#63b8ff" stroke="#63b8ff" points="416.53,-28.3 421.9,-19.16 412.01,-22.96 416.53,-28.3"/>
</a>
</g>
</g>
<!-- Node3&#45;&gt;Node10 -->
<g id="edge9_Node000003_Node000010" class="edge">
<title>Node3&#45;&gt;Node10</title>
<g id="a_edge9_Node000003_Node000010"><a xlink:title=" ">
<path fill="none" stroke="#63b8ff" d="M395.49,-164.75C396.67,-157.8 398.36,-147.85 399.84,-139.13"/>
<polygon fill="#63b8ff" stroke="#63b8ff" points="403.32,-139.53 401.54,-129.09 396.42,-138.36 403.32,-139.53"/>
</a>
</g>
</g>
<!-- Node5 -->
<g id="Node000005" class="node">
<title>Node5</title>
<g id="a_Node000005"><a xlink:title=" ">
<polygon fill="#e0e0e0" stroke="#999999" points="280.5,-19 187.5,-19 187.5,0 280.5,0 280.5,-19"/>
<text text-anchor="middle" x="234" y="-7" font-family="Helvetica,sans-Serif" font-size="10.00">unordered_map</text>
</a>
</g>
</g>
<!-- Node4&#45;&gt;Node5 -->
<g id="edge4_Node000004_Node000005" class="edge">
<title>Node4&#45;&gt;Node5</title>
<g id="a_edge4_Node000004_Node000005"><a xlink:title=" ">
<path fill="none" stroke="#63b8ff" d="M502.49,-55.96C446.89,-46.55 351.68,-30.43 290.85,-20.13"/>
<polygon fill="#63b8ff" stroke="#63b8ff" points="291.1,-16.62 280.66,-18.4 289.93,-23.52 291.1,-16.62"/>
</a>
</g>
</g>
<!-- Node6 -->
<g id="Node000006" class="node">
<title>Node6</title>
<g id="a_Node000006"><a xlink:title=" ">
<polygon fill="#e0e0e0" stroke="#999999" points="548.5,-19 497.5,-19 497.5,0 548.5,0 548.5,-19"/>
<text text-anchor="middle" x="523" y="-7" font-family="Helvetica,sans-Serif" font-size="10.00">variant</text>
</a>
</g>
</g>
<!-- Node4&#45;&gt;Node6 -->
<g id="edge5_Node000004_Node000006" class="edge">
<title>Node4&#45;&gt;Node6</title>
<g id="a_edge5_Node000004_Node000006"><a xlink:title=" ">
<path fill="none" stroke="#63b8ff" d="M543.04,-54.75C539.79,-47.57 535.08,-37.18 531.05,-28.27"/>
<polygon fill="#63b8ff" stroke="#63b8ff" points="534.2,-26.75 526.89,-19.09 527.83,-29.64 534.2,-26.75"/>
</a>
</g>
</g>
<!-- Node4&#45;&gt;Node7 -->
<g id="edge6_Node000004_Node000007" class="edge">
<title>Node4&#45;&gt;Node7</title>
<g id="a_edge6_Node000004_Node000007"><a xlink:title=" ">
<path fill="none" stroke="#63b8ff" d="M584.11,-54.98C628.41,-44.82 701.85,-27.97 744.49,-18.19"/>
<polygon fill="#63b8ff" stroke="#63b8ff" points="745.41,-21.57 754.38,-15.92 743.85,-14.74 745.41,-21.57"/>
</a>
</g>
</g>
<!-- Node4&#45;&gt;Node8 -->
<g id="edge7_Node000004_Node000008" class="edge">
<title>Node4&#45;&gt;Node8</title>
<g id="a_edge7_Node000004_Node000008"><a xlink:title=" ">
<path fill="none" stroke="#63b8ff" d="M528.68,-54.98C510.34,-46.46 481.89,-33.23 460.77,-23.41"/>
<polygon fill="#63b8ff" stroke="#63b8ff" points="462.19,-20.21 451.65,-19.17 459.24,-26.56 462.19,-20.21"/>
</a>
</g>
</g>
<!-- Node9 -->
<g id="Node000009" class="node">
<title>Node9</title>
<g id="a_Node000009"><a xlink:title=" ">
<polygon fill="#e0e0e0" stroke="#999999" points="627,-19 567,-19 567,0 627,0 627,-19"/>
<text text-anchor="middle" x="597" y="-7" font-family="Helvetica,sans-Serif" font-size="10.00">iostream</text>
</a>
</g>
</g>
<!-- Node4&#45;&gt;Node9 -->
<g id="edge8_Node000004_Node000009" class="edge">
<title>Node4&#45;&gt;Node9</title>
<g id="a_edge8_Node000004_Node000009"><a xlink:title=" ">
<path fill="none" stroke="#63b8ff" d="M555.26,-54.75C562.46,-47.11 573.11,-35.82 581.85,-26.56"/>
<polygon fill="#63b8ff" stroke="#63b8ff" points="584.58,-28.76 588.9,-19.09 579.49,-23.96 584.58,-28.76"/>
</a>
</g>
</g>
<!-- Node10&#45;&gt;Node4 -->
<g id="edge13_Node000010_Node000004" class="edge">
<title>Node10&#45;&gt;Node4</title>
<g id="a_edge13_Node000010_Node000004"><a xlink:title=" ">
<path fill="none" stroke="#63b8ff" d="M426.14,-109.98C449.82,-101.27 486.87,-87.63 513.71,-77.75"/>
<polygon fill="#63b8ff" stroke="#63b8ff" points="515.27,-80.91 523.44,-74.17 512.85,-74.34 515.27,-80.91"/>
</a>
</g>
</g>
<!-- Node10&#45;&gt;Node7 -->
<g id="edge12_Node000010_Node000007" class="edge">
<title>Node10&#45;&gt;Node7</title>
<g id="a_edge12_Node000010_Node000007"><a xlink:title=" ">
<path fill="none" stroke="#63b8ff" d="M412.23,-109.85C427.78,-95.83 460.75,-68.37 494,-55 579.52,-20.61 689.46,-12.68 744.07,-10.93"/>
<polygon fill="#63b8ff" stroke="#63b8ff" points="744.33,-14.42 754.23,-10.66 744.14,-7.43 744.33,-14.42"/>
</a>
</g>
</g>
<!-- Node10&#45;&gt;Node8 -->
<g id="edge11_Node000010_Node000008" class="edge">
<title>Node10&#45;&gt;Node8</title>
<g id="a_edge11_Node000010_Node000008"><a xlink:title=" ">
<path fill="none" stroke="#63b8ff" d="M405.46,-109.66C410.34,-92.09 421.35,-52.45 427.87,-28.95"/>
<polygon fill="#63b8ff" stroke="#63b8ff" points="431.29,-29.73 430.59,-19.16 424.55,-27.86 431.29,-29.73"/>
</a>
</g>
</g>
<!-- Node11 -->
<g id="Node000011" class="node">
<title>Node11</title>
<g id="a_Node000011"><a xlink:title=" ">
<polygon fill="#e0e0e0" stroke="#999999" points="174,-74 130,-74 130,-55 174,-55 174,-74"/>
<text text-anchor="middle" x="152" y="-62" font-family="Helvetica,sans-Serif" font-size="10.00">string</text>
</a>
</g>
</g>
<!-- Node10&#45;&gt;Node11 -->
<g id="edge10_Node000010_Node000011" class="edge">
<title>Node10&#45;&gt;Node11</title>
<g id="a_edge10_Node000010_Node000011"><a xlink:title=" ">
<path fill="none" stroke="#63b8ff" d="M362.67,-109.98C313.05,-99.51 229.78,-81.92 184.21,-72.3"/>
<polygon fill="#63b8ff" stroke="#63b8ff" points="184.79,-68.85 174.28,-70.2 183.34,-75.69 184.79,-68.85"/>
</a>
</g>
</g>
<!-- Node12&#45;&gt;Node3 -->
<g id="edge21_Node000012_Node000003" class="edge">
<title>Node12&#45;&gt;Node3</title>
<g id="a_edge21_Node000012_Node000003"><a xlink:title=" ">
<path fill="none" stroke="#63b8ff" d="M201.79,-219.98C241.24,-210.86 303.98,-196.33 346.98,-186.38"/>
<polygon fill="#63b8ff" stroke="#63b8ff" points="347.97,-189.75 356.92,-184.08 346.39,-182.93 347.97,-189.75"/>
</a>
</g>
</g>
<!-- Node12&#45;&gt;Node5 -->
<g id="edge18_Node000012_Node000005" class="edge">
<title>Node12&#45;&gt;Node5</title>
<g id="a_edge18_Node000012_Node000005"><a xlink:title=" ">
<path fill="none" stroke="#63b8ff" d="M158.26,-219.71C138.43,-192.7 83.92,-109.45 121,-55 133.92,-36.03 156.27,-25.15 177.71,-18.91"/>
<polygon fill="#63b8ff" stroke="#63b8ff" points="178.67,-22.27 187.46,-16.35 176.89,-15.5 178.67,-22.27"/>
</a>
</g>
</g>
<!-- Node12&#45;&gt;Node11 -->
<g id="edge20_Node000012_Node000011" class="edge">
<title>Node12&#45;&gt;Node11</title>
<g id="a_edge20_Node000012_Node000011"><a xlink:title=" ">
<path fill="none" stroke="#63b8ff" d="M164.3,-219.74C162.27,-194.31 156.35,-120.08 153.53,-84.69"/>
<polygon fill="#63b8ff" stroke="#63b8ff" points="156.99,-84 152.7,-74.31 150.01,-84.55 156.99,-84"/>
</a>
</g>
</g>
<!-- Node13 -->
<g id="Node000013" class="node">
<title>Node13</title>
<g id="a_Node000013"><a xlink:title=" ">
<polygon fill="#e0e0e0" stroke="#999999" points="86,-184 28,-184 28,-165 86,-165 86,-184"/>
<text text-anchor="middle" x="57" y="-172" font-family="Helvetica,sans-Serif" font-size="10.00">memory</text>
</a>
</g>
</g>
<!-- Node12&#45;&gt;Node13 -->
<g id="edge17_Node000012_Node000013" class="edge">
<title>Node12&#45;&gt;Node13</title>
<g id="a_edge17_Node000012_Node000013"><a xlink:title=" ">
<path fill="none" stroke="#63b8ff" d="M147.65,-219.98C130.43,-211.54 103.8,-198.47 83.85,-188.68"/>
<polygon fill="#63b8ff" stroke="#63b8ff" points="85.19,-185.43 74.67,-184.17 82.1,-191.72 85.19,-185.43"/>
</a>
</g>
</g>
<!-- Node14 -->
<g id="Node000014" class="node">
<title>Node14</title>
<g id="a_Node000014"><a xlink:title=" ">
<polygon fill="#e0e0e0" stroke="#999999" points="245.5,-184 180.5,-184 180.5,-165 245.5,-165 245.5,-184"/>
<text text-anchor="middle" x="213" y="-172" font-family="Helvetica,sans-Serif" font-size="10.00">functional</text>
</a>
</g>
</g>
<!-- Node12&#45;&gt;Node14 -->
<g id="edge19_Node000012_Node000014" class="edge">
<title>Node12&#45;&gt;Node14</title>
<g id="a_edge19_Node000012_Node000014"><a xlink:title=" ">
<path fill="none" stroke="#63b8ff" d="M172.93,-219.75C179.85,-212.11 190.07,-200.82 198.45,-191.56"/>
<polygon fill="#63b8ff" stroke="#63b8ff" points="201.1,-193.85 205.22,-184.09 195.91,-189.15 201.1,-193.85"/>
</a>
</g>
</g>
<!-- Node15&#45;&gt;Node2 -->
<g id="edge30_Node000015_Node000002" class="edge">
<title>Node15&#45;&gt;Node2</title>
<g id="a_edge30_Node000015_Node000002"><a xlink:title=" ">
<path fill="none" stroke="#63b8ff" d="M378.9,-329.98C364.18,-321.69 341.58,-308.94 324.33,-299.22"/>
<polygon fill="#63b8ff" stroke="#63b8ff" points="325.81,-296.03 315.38,-294.17 322.37,-302.13 325.81,-296.03"/>
</a>
</g>
</g>
<!-- Node15&#45;&gt;Node3 -->
<g id="edge28_Node000015_Node000003" class="edge">
<title>Node15&#45;&gt;Node3</title>
<g id="a_edge28_Node000015_Node000003"><a xlink:title=" ">
<path fill="none" stroke="#63b8ff" d="M394,-329.74C394,-304.31 394,-230.08 394,-194.69"/>
<polygon fill="#63b8ff" stroke="#63b8ff" points="397.5,-194.31 394,-184.31 390.5,-194.31 397.5,-194.31"/>
</a>
</g>
</g>
<!-- Node15&#45;&gt;Node4 -->
<g id="edge25_Node000015_Node000004" class="edge">
<title>Node15&#45;&gt;Node4</title>
<g id="a_edge25_Node000015_Node000004"><a xlink:title=" ">
<path fill="none" stroke="#63b8ff" d="M433.06,-329.93C479.84,-317.09 552,-287.98 552,-230.5 552,-230.5 552,-230.5 552,-173.5 552,-142.16 549.87,-105.75 548.39,-84.22"/>
<polygon fill="#63b8ff" stroke="#63b8ff" points="551.88,-83.9 547.67,-74.17 544.9,-84.4 551.88,-83.9"/>
</a>
</g>
</g>
<!-- Node15&#45;&gt;Node7 -->
<g id="edge26_Node000015_Node000007" class="edge">
<title>Node15&#45;&gt;Node7</title>
<g id="a_edge26_Node000015_Node000007"><a xlink:title=" ">
<path fill="none" stroke="#63b8ff" d="M430,-329.96C507.32,-309.62 689.51,-250.68 779,-129 798.99,-101.82 802.45,-88.12 796,-55 794.21,-45.8 790.52,-36.09 786.94,-28.1"/>
<polygon fill="#63b8ff" stroke="#63b8ff" points="790.09,-26.57 782.62,-19.06 783.77,-29.59 790.09,-26.57"/>
</a>
</g>
</g>
<!-- Node15&#45;&gt;Node12 -->
<g id="edge29_Node000015_Node000012" class="edge">
<title>Node15&#45;&gt;Node12</title>
<g id="a_edge29_Node000015_Node000012"><a xlink:title=" ">
<path fill="none" stroke="#63b8ff" d="M352.84,-329.93C322.98,-322.77 282.18,-310.96 249,-294 223.49,-280.96 197.74,-260.1 181.6,-245.87"/>
<polygon fill="#63b8ff" stroke="#63b8ff" points="183.86,-243.2 174.09,-239.11 179.18,-248.4 183.86,-243.2"/>
</a>
</g>
</g>
<!-- Node15&#45;&gt;Node13 -->
<g id="edge27_Node000015_Node000013" class="edge">
<title>Node15&#45;&gt;Node13</title>
<g id="a_edge27_Node000015_Node000013"><a xlink:title=" ">
<path fill="none" stroke="#63b8ff" d="M341.98,-329.96C258.6,-315.15 100.85,-282.09 66,-239 56.04,-226.69 54.37,-208.47 54.85,-194.69"/>
<polygon fill="#63b8ff" stroke="#63b8ff" points="58.37,-194.64 55.63,-184.4 51.39,-194.11 58.37,-194.64"/>
</a>
</g>
</g>
<!-- Node16&#45;&gt;Node7 -->
<g id="edge47_Node000016_Node000007" class="edge">
<title>Node16&#45;&gt;Node7</title>
<g id="a_edge47_Node000016_Node000007"><a xlink:title=" ">
<path fill="none" stroke="#63b8ff" d="M523.71,-556.41C627.16,-549.98 892,-526.14 892,-450.5 892,-450.5 892,-450.5 892,-118.5 892,-72.47 842.42,-40.18 808.65,-23.53"/>
<polygon fill="#63b8ff" stroke="#63b8ff" points="809.71,-20.16 799.18,-19.05 806.72,-26.49 809.71,-20.16"/>
</a>
</g>
</g>
<!-- Node16&#45;&gt;Node11 -->
<g id="edge46_Node000016_Node000011" class="edge">
<title>Node16&#45;&gt;Node11</title>
<g id="a_edge46_Node000016_Node000011"><a xlink:title=" ">
<path fill="none" stroke="#63b8ff" d="M442.24,-553.66C325.79,-538.7 0,-488.54 0,-395.5 0,-395.5 0,-395.5 0,-228.5 0,-199.04 2.13,-189.15 19,-165 46.56,-125.53 94.73,-95.23 124.91,-78.92"/>
<polygon fill="#63b8ff" stroke="#63b8ff" points="126.81,-81.88 134.03,-74.12 123.55,-75.68 126.81,-81.88"/>
</a>
</g>
</g>
<!-- Node17 -->
<g id="Node000017" class="node">
<title>Node17</title>
<g id="a_Node000017"><a xlink:href="CCSDSPacket_8h.html" target="_top" xlink:title=" ">
<polygon fill="white" stroke="#666666" points="673,-404 583,-404 583,-385 673,-385 673,-404"/>
<text text-anchor="middle" x="628" y="-392" font-family="Helvetica,sans-Serif" font-size="10.00">CCSDSPacket.h</text>
</a>
</g>
</g>
<!-- Node16&#45;&gt;Node17 -->
<g id="edge32_Node000016_Node000017" class="edge">
<title>Node16&#45;&gt;Node17</title>
<g id="a_edge32_Node000016_Node000017"><a xlink:title=" ">
<path fill="none" stroke="#63b8ff" d="M481.75,-549.85C479.19,-528.5 475.65,-472.61 503,-440 520.31,-419.37 547.87,-408.3 572.72,-402.36"/>
<polygon fill="#63b8ff" stroke="#63b8ff" points="573.76,-405.72 582.8,-400.19 572.28,-398.88 573.76,-405.72"/>
</a>
</g>
</g>
<!-- Node19 -->
<g id="Node000019" class="node">
<title>Node19</title>
<g id="a_Node000019"><a xlink:href="CCSDSManager_8h.html" target="_top" xlink:title=" ">
<polygon fill="white" stroke="#666666" points="675.5,-514 574.5,-514 574.5,-495 675.5,-495 675.5,-514"/>
<text text-anchor="middle" x="625" y="-502" font-family="Helvetica,sans-Serif" font-size="10.00">CCSDSManager.h</text>
</a>
</g>
</g>
<!-- Node16&#45;&gt;Node19 -->
<g id="edge40_Node000016_Node000019" class="edge">
<title>Node16&#45;&gt;Node19</title>
<g id="a_edge40_Node000016_Node000019"><a xlink:title=" ">
<path fill="none" stroke="#63b8ff" d="M505.81,-549.98C529.17,-541.27 565.7,-527.63 592.17,-517.75"/>
<polygon fill="#63b8ff" stroke="#63b8ff" points="593.63,-520.95 601.77,-514.17 591.18,-514.39 593.63,-520.95"/>
</a>
</g>
</g>
<!-- Node17&#45;&gt;Node4 -->
<g id="edge33_Node000017_Node000004" class="edge">
<title>Node17&#45;&gt;Node4</title>
<g id="a_edge33_Node000017_Node000004"><a xlink:title=" ">
<path fill="none" stroke="#63b8ff" d="M626.46,-384.56C620.3,-349.26 596.11,-216.26 564,-110 561.34,-101.19 557.78,-91.64 554.61,-83.65"/>
<polygon fill="#63b8ff" stroke="#63b8ff" points="557.78,-82.17 550.76,-74.24 551.3,-84.82 557.78,-82.17"/>
</a>
</g>
</g>
<!-- Node17&#45;&gt;Node7 -->
<g id="edge34_Node000017_Node000007" class="edge">
<title>Node17&#45;&gt;Node7</title>
<g id="a_edge34_Node000017_Node000007"><a xlink:title=" ">
<path fill="none" stroke="#63b8ff" d="M636.82,-384.74C645.31,-376.07 658.27,-362.22 668,-349 735.47,-257.36 757.22,-234.85 799,-129 811.23,-98.01 821.45,-86.64 811,-55 807.54,-44.54 800.57,-34.53 793.92,-26.66"/>
<polygon fill="#63b8ff" stroke="#63b8ff" points="796.33,-24.1 787.02,-19.04 791.14,-28.8 796.33,-24.1"/>
</a>
</g>
</g>
<!-- Node17&#45;&gt;Node15 -->
<g id="edge39_Node000017_Node000015" class="edge">
<title>Node17&#45;&gt;Node15</title>
<g id="a_edge39_Node000017_Node000015"><a xlink:title=" ">
<path fill="none" stroke="#63b8ff" d="M590.4,-384.98C550.01,-375.84 485.72,-361.27 441.77,-351.32"/>
<polygon fill="#63b8ff" stroke="#63b8ff" points="442.42,-347.88 431.89,-349.08 440.87,-354.7 442.42,-347.88"/>
</a>
</g>
</g>
<!-- Node18 -->
<g id="Node000018" class="node">
<title>Node18</title>
<g id="a_Node000018"><a xlink:href="CCSDSHeader_8h.html" target="_top" xlink:title=" ">
<polygon fill="white" stroke="#666666" points="749.5,-129 656.5,-129 656.5,-110 749.5,-110 749.5,-129"/>
<text text-anchor="middle" x="703" y="-117" font-family="Helvetica,sans-Serif" font-size="10.00">CCSDSHeader.h</text>
</a>
</g>
</g>
<!-- Node17&#45;&gt;Node18 -->
<g id="edge35_Node000017_Node000018" class="edge">
<title>Node17&#45;&gt;Node18</title>
<g id="a_edge35_Node000017_Node000018"><a xlink:title=" ">
<path fill="none" stroke="#63b8ff" d="M633.28,-384.9C643.73,-367.07 666,-324.46 666,-285.5 666,-285.5 666,-285.5 666,-228.5 666,-195.12 682.02,-158.91 692.98,-138.04"/>
<polygon fill="#63b8ff" stroke="#63b8ff" points="696.13,-139.57 697.86,-129.12 689.99,-136.21 696.13,-139.57"/>
</a>
</g>
</g>
<!-- Node18&#45;&gt;Node4 -->
<g id="edge36_Node000018_Node000004" class="edge">
<title>Node18&#45;&gt;Node4</title>
<g id="a_edge36_Node000018_Node000004"><a xlink:title=" ">
<path fill="none" stroke="#63b8ff" d="M677.94,-109.98C651.97,-101.16 611.19,-87.31 582.04,-77.41"/>
<polygon fill="#63b8ff" stroke="#63b8ff" points="582.85,-73.99 572.26,-74.08 580.6,-80.61 582.85,-73.99"/>
</a>
</g>
</g>
<!-- Node18&#45;&gt;Node7 -->
<g id="edge38_Node000018_Node000007" class="edge">
<title>Node18&#45;&gt;Node7</title>
<g id="a_edge38_Node000018_Node000007"><a xlink:title=" ">
<path fill="none" stroke="#63b8ff" d="M709.14,-109.66C721.62,-91.69 750.12,-50.64 766.28,-27.38"/>
<polygon fill="#63b8ff" stroke="#63b8ff" points="769.16,-29.37 771.99,-19.16 763.41,-25.38 769.16,-29.37"/>
</a>
</g>
</g>
<!-- Node18&#45;&gt;Node8 -->
<g id="edge37_Node000018_Node000008" class="edge">
<title>Node18&#45;&gt;Node8</title>
<g id="a_edge37_Node000018_Node000008"><a xlink:title=" ">
<path fill="none" stroke="#63b8ff" d="M691.69,-109.87C673.51,-96.37 636.23,-70.22 601,-55 557.07,-36.02 503.1,-23.48 468.38,-16.68"/>
<polygon fill="#63b8ff" stroke="#63b8ff" points="468.73,-13.19 458.26,-14.76 467.43,-20.06 468.73,-13.19"/>
</a>
</g>
</g>
<!-- Node19&#45;&gt;Node4 -->
<g id="edge43_Node000019_Node000004" class="edge">
<title>Node19&#45;&gt;Node4</title>
<g id="a_edge43_Node000019_Node000004"><a xlink:title=" ">
<path fill="none" stroke="#63b8ff" d="M647.01,-494.99C680.9,-480.27 742,-446.64 742,-395.5 742,-395.5 742,-395.5 742,-338.5 742,-219.82 618.46,-117.11 568.04,-80.14"/>
<polygon fill="#63b8ff" stroke="#63b8ff" points="569.96,-77.2 559.79,-74.2 565.87,-82.88 569.96,-77.2"/>
</a>
</g>
</g>
<!-- Node19&#45;&gt;Node17 -->
<g id="edge42_Node000019_Node000017" class="edge">
<title>Node19&#45;&gt;Node17</title>
<g id="a_edge42_Node000019_Node000017"><a xlink:title=" ">
<path fill="none" stroke="#63b8ff" d="M644.58,-494.98C658.67,-487.68 676.6,-475.68 685,-459 694.89,-439.35 674.13,-421.13 654.95,-409.3"/>
<polygon fill="#63b8ff" stroke="#63b8ff" points="656.49,-406.15 646.08,-404.17 652.99,-412.21 656.49,-406.15"/>
</a>
</g>
</g>
<!-- Node20 -->
<g id="Node000020" class="node">
<title>Node20</title>
<g id="a_Node000020"><a xlink:title=" ">
<polygon fill="#e0e0e0" stroke="#999999" points="556.5,-459 511.5,-459 511.5,-440 556.5,-440 556.5,-459"/>
<text text-anchor="middle" x="534" y="-447" font-family="Helvetica,sans-Serif" font-size="10.00">utility</text>
</a>
</g>
</g>
<!-- Node19&#45;&gt;Node20 -->
<g id="edge41_Node000019_Node000020" class="edge">
<title>Node19&#45;&gt;Node20</title>
<g id="a_edge41_Node000019_Node000020"><a xlink:title=" ">
<path fill="none" stroke="#63b8ff" d="M610.38,-494.98C596.14,-486.69 574.25,-473.94 557.55,-464.22"/>
<polygon fill="#63b8ff" stroke="#63b8ff" points="559.29,-461.18 548.89,-459.17 555.77,-467.23 559.29,-461.18"/>
</a>
</g>
</g>
<!-- Node21 -->
<g id="Node000021" class="node">
<title>Node21</title>
<g id="a_Node000021"><a xlink:href="CCSDSValidator_8h.html" target="_top" xlink:title="Defines the Validator class for CCSDS packet validation.">
<polygon fill="white" stroke="#666666" points="675.5,-459 574.5,-459 574.5,-440 675.5,-440 675.5,-459"/>
<text text-anchor="middle" x="625" y="-447" font-family="Helvetica,sans-Serif" font-size="10.00">CCSDSValidator.h</text>
</a>
</g>
</g>
<!-- Node19&#45;&gt;Node21 -->
<g id="edge44_Node000019_Node000021" class="edge">
<title>Node19&#45;&gt;Node21</title>
<g id="a_edge44_Node000019_Node000021"><a xlink:title=" ">
<path fill="none" stroke="#63b8ff" d="M625,-494.75C625,-487.8 625,-477.85 625,-469.13"/>
<polygon fill="#63b8ff" stroke="#63b8ff" points="628.5,-469.09 625,-459.09 621.5,-469.09 628.5,-469.09"/>
</a>
</g>
</g>
<!-- Node21&#45;&gt;Node17 -->
<g id="edge45_Node000021_Node000017" class="edge">
<title>Node21&#45;&gt;Node17</title>
<g id="a_edge45_Node000021_Node000017"><a xlink:title=" ">
<path fill="none" stroke="#63b8ff" d="M625.5,-439.75C625.89,-432.8 626.45,-422.85 626.95,-414.13"/>
<polygon fill="#63b8ff" stroke="#63b8ff" points="630.44,-414.27 627.51,-404.09 623.45,-413.88 630.44,-414.27"/>
</a>
</g>
</g>
</g>
</svg>
