<?xml version="1.0" encoding="UTF-8" standalone="no"?>
<!DOCTYPE svg PUBLIC "-//W3C//DTD SVG 1.1//EN"
 "http://www.w3.org/Graphics/SVG/1.1/DTD/svg11.dtd">
<!-- Generated by graphviz version 2.43.0 (0)
 -->
<!-- Title: inc/PusServices.h Pages: 1 -->
<svg width="1120pt" height="357pt"
 viewBox="0.00 0.00 1119.50 357.00" xmlns="http://www.w3.org/2000/svg" xmlns:xlink="http://www.w3.org/1999/xlink">
<g id="graph0" class="graph" transform="scale(1 1) rotate(0) translate(4 353)">
<title>inc/PusServices.h</title>
<!-- Node1 -->
<g id="Node000001" class="node">
<title>Node1</title>
<g id="a_Node000001"><a xlink:title=" ">
<polygon fill="#999999" stroke="#666666" points="689.5,-349 588.5,-349 588.5,-330 689.5,-330 689.5,-349"/>
<text text-anchor="middle" x="639" y="-337" font-family="Helvetica,sans-Serif" font-size="10.00">inc/PusServices.h</text>
</a>
</g>
</g>
<!-- Node2 -->
<g id="Node000002" class="node">
<title>Node2</title>
<g id="a_Node000002"><a xlink:href="CCSDSDataField_8h.html" target="_top" xlink:title=" ">
<polygon fill="white" stroke="#666666" points="632,-294 510,-294 510,-275 632,-275 632,-294"/>
<text text-anchor="middle" x="571" y="-282" font-family="Helvetica,sans-Serif" font-size="10.00">inc/CCSDSDataField.h</text>
</a>
</g>
</g>
<!-- Node1&#45;&gt;Node2 -->
<g id="edge1_Node000001_Node000002" class="edge">
<title>Node1&#45;&gt;Node2</title>
<g id="a_edge1_Node000001_Node000002"><a xlink:title=" ">
<path fill="none" stroke="#63b8ff" d="M619.88,-323.6C607.7,-314.11 592.34,-302.13 582.12,-294.17"/>
<polygon fill="#63b8ff" stroke="#63b8ff" points="618.04,-326.6 628.07,-329.98 622.34,-321.08 618.04,-326.6"/>
</a>
</g>
</g>
<!-- Node15 -->
<g id="Node000015" class="node">
<title>Node15</title>
<g id="a_Node000015"><a xlink:href="PusServices_8cpp.html" target="_top" xlink:title=" ">
<polygon fill="white" stroke="#666666" points="763.5,-294 650.5,-294 650.5,-275 763.5,-275 763.5,-294"/>
<text text-anchor="middle" x="707" y="-282" font-family="Helvetica,sans-Serif" font-size="10.00">src/PusServices.cpp</text>
</a>
</g>
</g>
<!-- Node1&#45;&gt;Node15 -->
<g id="edge23_Node000001_Node000015" class="edge">
<title>Node1&#45;&gt;Node15</title>
<g id="a_edge23_Node000001_Node000015"><a xlink:title=" ">
<path fill="none" stroke="#63b8ff" d="M658.12,-323.6C670.3,-314.11 685.66,-302.13 695.88,-294.17"/>
<polygon fill="#63b8ff" stroke="#63b8ff" points="655.66,-321.08 649.93,-329.98 659.96,-326.6 655.66,-321.08"/>
</a>
</g>
</g>
<!-- Node3 -->
<g id="Node000003" class="node">
<title>Node3</title>
<g id="a_Node000003"><a xlink:href="CCSDSPacket_8h.html" target="_top" xlink:title=" ">
<polygon fill="white" stroke="#666666" points="624.5,-239 517.5,-239 517.5,-220 624.5,-220 624.5,-239"/>
<text text-anchor="middle" x="571" y="-227" font-family="Helvetica,sans-Serif" font-size="10.00">inc/CCSDSPacket.h</text>
</a>
</g>
</g>
<!-- Node2&#45;&gt;Node3 -->
<g id="edge2_Node000002_Node000003" class="edge">
<title>Node2&#45;&gt;Node3</title>
<g id="a_edge2_Node000002_Node000003"><a xlink:title=" ">
<path fill="none" stroke="#63b8ff" d="M571,-264.66C571,-255.93 571,-245.99 571,-239.09"/>
<polygon fill="#63b8ff" stroke="#63b8ff" points="567.5,-264.75 571,-274.75 574.5,-264.75 567.5,-264.75"/>
</a>
</g>
</g>
<!-- Node6 -->
<g id="Node000006" class="node">
<title>Node6</title>
<g id="a_Node000006"><a xlink:href="CCSDSDataField_8cpp.html" target="_top" xlink:title=" ">
<polygon fill="white" stroke="#666666" points="134,-19 0,-19 0,0 134,0 134,-19"/>
<text text-anchor="middle" x="67" y="-7" font-family="Helvetica,sans-Serif" font-size="10.00">src/CCSDSDataField.cpp</text>
</a>
</g>
</g>
<!-- Node2&#45;&gt;Node6 -->
<g id="edge21_Node000002_Node000006" class="edge">
<title>Node2&#45;&gt;Node6</title>
<g id="a_edge21_Node000002_Node000006"><a xlink:title=" ">
<path fill="none" stroke="#63b8ff" d="M506.74,-273.19C420.22,-257.46 277,-224.08 277,-175.5 277,-175.5 277,-175.5 277,-118.5 277,-78.43 154.53,-36.57 96.64,-19.03"/>
<polygon fill="#63b8ff" stroke="#63b8ff" points="506.27,-276.66 516.73,-274.97 507.5,-269.77 506.27,-276.66"/>
</a>
</g>
</g>
<!-- Node9 -->
<g id="Node000009" class="node">
<title>Node9</title>
<g id="a_Node000009"><a xlink:href="CCSDSPacket_8cpp.html" target="_top" xlink:title=" ">
<polygon fill="white" stroke="#666666" points="1111.5,-19 992.5,-19 992.5,0 1111.5,0 1111.5,-19"/>
<text text-anchor="middle" x="1052" y="-7" font-family="Helvetica,sans-Serif" font-size="10.00">src/CCSDSPacket.cpp</text>
</a>
</g>
</g>
<!-- Node2&#45;&gt;Node9 -->
<g id="edge22_Node000002_Node000009" class="edge">
<title>Node2&#45;&gt;Node9</title>
<g id="a_edge22_Node000002_Node000009"><a xlink:title=" ">
<path fill="none" stroke="#63b8ff" d="M640.02,-273.43C762.47,-254.61 1005,-212.65 1005,-175.5 1005,-175.5 1005,-175.5 1005,-118.5 1005,-78.63 1032.27,-36.83 1045.27,-19.18"/>
<polygon fill="#63b8ff" stroke="#63b8ff" points="639.34,-269.99 629.98,-274.96 640.4,-276.91 639.34,-269.99"/>
</a>
</g>
</g>
<!-- Node4 -->
<g id="Node000004" class="node">
<title>Node4</title>
<g id="a_Node000004"><a xlink:href="CCSDSManager_8h.html" target="_top" xlink:title=" ">
<polygon fill="white" stroke="#666666" points="562,-129 444,-129 444,-110 562,-110 562,-129"/>
<text text-anchor="middle" x="503" y="-117" font-family="Helvetica,sans-Serif" font-size="10.00">inc/CCSDSManager.h</text>
</a>
</g>
</g>
<!-- Node3&#45;&gt;Node4 -->
<g id="edge3_Node000003_Node000004" class="edge">
<title>Node3&#45;&gt;Node4</title>
<g id="a_edge3_Node000003_Node000004"><a xlink:title=" ">
<path fill="none" stroke="#63b8ff" d="M560.5,-211.13C552.72,-198.32 541.81,-180.51 532,-165 524.11,-152.53 514.75,-138.27 508.85,-129.32"/>
<polygon fill="#63b8ff" stroke="#63b8ff" points="557.6,-213.09 565.77,-219.83 563.58,-209.46 557.6,-213.09"/>
</a>
</g>
</g>
<!-- Node5 -->
<g id="Node000005" class="node">
<title>Node5</title>
<g id="a_Node000005"><a xlink:href="CCSDSUtils_8h.html" target="_top" xlink:title=" ">
<polygon fill="white" stroke="#666666" points="634,-74 536,-74 536,-55 634,-55 634,-74"/>
<text text-anchor="middle" x="585" y="-62" font-family="Helvetica,sans-Serif" font-size="10.00">inc/CCSDSUtils.h</text>
</a>
</g>
</g>
<!-- Node3&#45;&gt;Node5 -->
<g id="edge16_Node000003_Node000005" class="edge">
<title>Node3&#45;&gt;Node5</title>
<g id="a_edge16_Node000003_Node000005"><a xlink:title=" ">
<path fill="none" stroke="#63b8ff" d="M572.64,-209.37C575.68,-174.03 582.05,-99.79 584.24,-74.31"/>
<polygon fill="#63b8ff" stroke="#63b8ff" points="569.12,-209.47 571.75,-219.74 576.1,-210.07 569.12,-209.47"/>
</a>
</g>
</g>
<!-- Node3&#45;&gt;Node9 -->
<g id="edge20_Node000003_Node000009" class="edge">
<title>Node3&#45;&gt;Node9</title>
<g id="a_edge20_Node000003_Node000009"><a xlink:title=" ">
<path fill="none" stroke="#63b8ff" d="M599,-215.81C687.34,-175.77 958.7,-52.78 1033.01,-19.1"/>
<polygon fill="#63b8ff" stroke="#63b8ff" points="597.52,-212.64 589.86,-219.95 600.41,-219.01 597.52,-212.64"/>
</a>
</g>
</g>
<!-- Node14 -->
<g id="Node000014" class="node">
<title>Node14</title>
<g id="a_Node000014"><a xlink:href="CCSDSValidator_8h.html" target="_top" xlink:title="Defines the Validator class for CCSDS packet validation.">
<polygon fill="white" stroke="#666666" points="523.5,-184 404.5,-184 404.5,-165 523.5,-165 523.5,-184"/>
<text text-anchor="middle" x="464" y="-172" font-family="Helvetica,sans-Serif" font-size="10.00">inc/CCSDSValidator.h</text>
</a>
</g>
</g>
<!-- Node3&#45;&gt;Node14 -->
<g id="edge17_Node000003_Node000014" class="edge">
<title>Node3&#45;&gt;Node14</title>
<g id="a_edge17_Node000003_Node000014"><a xlink:title=" ">
<path fill="none" stroke="#63b8ff" d="M544.76,-215.5C525.07,-205.75 498.68,-192.68 481.5,-184.17"/>
<polygon fill="#63b8ff" stroke="#63b8ff" points="543.29,-218.68 553.81,-219.98 546.4,-212.41 543.29,-218.68"/>
</a>
</g>
</g>
<!-- Node4&#45;&gt;Node5 -->
<g id="edge4_Node000004_Node000005" class="edge">
<title>Node4&#45;&gt;Node5</title>
<g id="a_edge4_Node000004_Node000005"><a xlink:title=" ">
<path fill="none" stroke="#63b8ff" d="M524.78,-104.42C539.66,-94.81 558.91,-82.37 571.59,-74.17"/>
<polygon fill="#63b8ff" stroke="#63b8ff" points="522.67,-101.62 516.17,-109.98 526.47,-107.5 522.67,-101.62"/>
</a>
</g>
</g>
<!-- Node8 -->
<g id="Node000008" class="node">
<title>Node8</title>
<g id="a_Node000008"><a xlink:href="CCSDSManager_8cpp.html" target="_top" xlink:title=" ">
<polygon fill="white" stroke="#666666" points="567.5,-19 438.5,-19 438.5,0 567.5,0 567.5,-19"/>
<text text-anchor="middle" x="503" y="-7" font-family="Helvetica,sans-Serif" font-size="10.00">src/CCSDSManager.cpp</text>
</a>
</g>
</g>
<!-- Node4&#45;&gt;Node8 -->
<g id="edge13_Node000004_Node000008" class="edge">
<title>Node4&#45;&gt;Node8</title>
<g id="a_edge13_Node000004_Node000008"><a xlink:title=" ">
<path fill="none" stroke="#63b8ff" d="M503,-99.48C503,-75.84 503,-36.5 503,-19.16"/>
<polygon fill="#63b8ff" stroke="#63b8ff" points="499.5,-99.66 503,-109.66 506.5,-99.66 499.5,-99.66"/>
</a>
</g>
</g>
<!-- Node12 -->
<g id="Node000012" class="node">
<title>Node12</title>
<g id="a_Node000012"><a xlink:href="exec__decoder_8cpp.html" target="_top" xlink:title=" ">
<polygon fill="white" stroke="#666666" points="974,-19 854,-19 854,0 974,0 974,-19"/>
<text text-anchor="middle" x="914" y="-7" font-family="Helvetica,sans-Serif" font-size="10.00">src/exec_decoder.cpp</text>
</a>
</g>
</g>
<!-- Node4&#45;&gt;Node12 -->
<g id="edge14_Node000004_Node000012" class="edge">
<title>Node4&#45;&gt;Node12</title>
<g id="a_edge14_Node000004_Node000012"><a xlink:title=" ">
<path fill="none" stroke="#63b8ff" d="M545.37,-107.37C627.68,-85.74 807.58,-38.46 881.4,-19.07"/>
<polygon fill="#63b8ff" stroke="#63b8ff" points="544.38,-104.01 535.59,-109.94 546.16,-110.78 544.38,-104.01"/>
</a>
</g>
</g>
<!-- Node13 -->
<g id="Node000013" class="node">
<title>Node13</title>
<g id="a_Node000013"><a xlink:href="exec__encoder_8cpp.html" target="_top" xlink:title=" ">
<polygon fill="white" stroke="#666666" points="420,-19 300,-19 300,0 420,0 420,-19"/>
<text text-anchor="middle" x="360" y="-7" font-family="Helvetica,sans-Serif" font-size="10.00">src/exec_encoder.cpp</text>
</a>
</g>
</g>
<!-- Node4&#45;&gt;Node13 -->
<g id="edge15_Node000004_Node000013" class="edge">
<title>Node4&#45;&gt;Node13</title>
<g id="a_edge15_Node000004_Node000013"><a xlink:title=" ">
<path fill="none" stroke="#63b8ff" d="M483.14,-103.5C452.78,-80.57 395.78,-37.52 371.46,-19.16"/>
<polygon fill="#63b8ff" stroke="#63b8ff" points="481.21,-106.43 491.3,-109.66 485.43,-100.84 481.21,-106.43"/>
</a>
</g>
</g>
<!-- Node5&#45;&gt;Node6 -->
<g id="edge5_Node000005_Node000006" class="edge">
<title>Node5&#45;&gt;Node6</title>
<g id="a_edge5_Node000005_Node000006"><a xlink:title=" ">
<path fill="none" stroke="#63b8ff" d="M525.97,-57.77C441.2,-49.48 280.08,-33.57 143,-19 140.1,-18.69 137.13,-18.37 134.13,-18.05"/>
<polygon fill="#63b8ff" stroke="#63b8ff" points="525.63,-61.25 535.93,-58.74 526.31,-54.28 525.63,-61.25"/>
</a>
</g>
</g>
<!-- Node7 -->
<g id="Node000007" class="node">
<title>Node7</title>
<g id="a_Node000007"><a xlink:href="CCSDSHeader_8cpp.html" target="_top" xlink:title=" ">
<polygon fill="white" stroke="#666666" points="708,-19 586,-19 586,0 708,0 708,-19"/>
<text text-anchor="middle" x="647" y="-7" font-family="Helvetica,sans-Serif" font-size="10.00">src/CCSDSHeader.cpp</text>
</a>
</g>
</g>
<!-- Node5&#45;&gt;Node7 -->
<g id="edge6_Node000005_Node000007" class="edge">
<title>Node5&#45;&gt;Node7</title>
<g id="a_edge6_Node000005_Node000007"><a xlink:title=" ">
<path fill="none" stroke="#63b8ff" d="M602.75,-48.32C613.81,-38.87 627.63,-27.06 636.86,-19.17"/>
<polygon fill="#63b8ff" stroke="#63b8ff" points="600.29,-45.83 594.96,-54.98 604.84,-51.15 600.29,-45.83"/>
</a>
</g>
</g>
<!-- Node5&#45;&gt;Node8 -->
<g id="edge7_Node000005_Node000008" class="edge">
<title>Node5&#45;&gt;Node8</title>
<g id="a_edge7_Node000005_Node000008"><a xlink:title=" ">
<path fill="none" stroke="#63b8ff" d="M563.22,-49.42C548.34,-39.81 529.09,-27.37 516.41,-19.17"/>
<polygon fill="#63b8ff" stroke="#63b8ff" points="561.53,-52.5 571.83,-54.98 565.33,-46.62 561.53,-52.5"/>
</a>
</g>
</g>
<!-- Node5&#45;&gt;Node9 -->
<g id="edge8_Node000005_Node000009" class="edge">
<title>Node5&#45;&gt;Node9</title>
<g id="a_edge8_Node000005_Node000009"><a xlink:title=" ">
<path fill="none" stroke="#63b8ff" d="M644.12,-57.1C721.87,-48.63 862.72,-33.13 983,-19 986,-18.65 989.07,-18.28 992.17,-17.91"/>
<polygon fill="#63b8ff" stroke="#63b8ff" points="643.6,-53.64 634.04,-58.2 644.36,-60.59 643.6,-53.64"/>
</a>
</g>
</g>
<!-- Node10 -->
<g id="Node000010" class="node">
<title>Node10</title>
<g id="a_Node000010"><a xlink:href="CCSDSUtils_8cpp.html" target="_top" xlink:title=" ">
<polygon fill="white" stroke="#666666" points="836,-19 726,-19 726,0 836,0 836,-19"/>
<text text-anchor="middle" x="781" y="-7" font-family="Helvetica,sans-Serif" font-size="10.00">src/CCSDSUtils.cpp</text>
</a>
</g>
</g>
<!-- Node5&#45;&gt;Node10 -->
<g id="edge9_Node000005_Node000010" class="edge">
<title>Node5&#45;&gt;Node10</title>
<g id="a_edge9_Node000005_Node000010"><a xlink:title=" ">
<path fill="none" stroke="#63b8ff" d="M626.38,-52.31C663.05,-42.39 715.83,-28.12 749.26,-19.08"/>
<polygon fill="#63b8ff" stroke="#63b8ff" points="625.23,-49 616.49,-54.98 627.06,-55.75 625.23,-49"/>
</a>
</g>
</g>
<!-- Node11 -->
<g id="Node000011" class="node">
<title>Node11</title>
<g id="a_Node000011"><a xlink:href="CCSDSValidator_8cpp.html" target="_top" xlink:title=" ">
<polygon fill="white" stroke="#666666" points="282,-19 152,-19 152,0 282,0 282,-19"/>
<text text-anchor="middle" x="217" y="-7" font-family="Helvetica,sans-Serif" font-size="10.00">src/CCSDSValidator.cpp</text>
</a>
</g>
</g>
<!-- Node5&#45;&gt;Node11 -->
<g id="edge10_Node000005_Node000011" class="edge">
<title>Node5&#45;&gt;Node11</title>
<g id="a_edge10_Node000005_Node000011"><a xlink:title=" ">
<path fill="none" stroke="#63b8ff" d="M525.54,-54.94C456.95,-45.06 344.83,-28.91 276.3,-19.04"/>
<polygon fill="#63b8ff" stroke="#63b8ff" points="525.35,-58.45 535.75,-56.41 526.35,-51.52 525.35,-58.45"/>
</a>
</g>
</g>
<!-- Node5&#45;&gt;Node12 -->
<g id="edge11_Node000005_Node000012" class="edge">
<title>Node5&#45;&gt;Node12</title>
<g id="a_edge11_Node000005_Node000012"><a xlink:title=" ">
<path fill="none" stroke="#63b8ff" d="M644.24,-53.96C705.99,-44.01 801.87,-28.56 861.13,-19.02"/>
<polygon fill="#63b8ff" stroke="#63b8ff" points="643.57,-50.52 634.25,-55.57 644.68,-57.43 643.57,-50.52"/>
</a>
</g>
</g>
<!-- Node5&#45;&gt;Node13 -->
<g id="edge12_Node000005_Node000013" class="edge">
<title>Node5&#45;&gt;Node13</title>
<g id="a_edge12_Node000005_Node000013"><a xlink:title=" ">
<path fill="none" stroke="#63b8ff" d="M539.11,-52.69C496.95,-42.76 435.3,-28.24 396.43,-19.08"/>
<polygon fill="#63b8ff" stroke="#63b8ff" points="538.31,-56.1 548.85,-54.98 539.92,-49.28 538.31,-56.1"/>
</a>
</g>
</g>
<!-- Node14&#45;&gt;Node4 -->
<g id="edge18_Node000014_Node000004" class="edge">
<title>Node14&#45;&gt;Node4</title>
<g id="a_edge18_Node000014_Node000004"><a xlink:title=" ">
<path fill="none" stroke="#63b8ff" d="M476.38,-156.67C483.14,-147.5 491.21,-136.52 496.68,-129.09"/>
<polygon fill="#63b8ff" stroke="#63b8ff" points="473.55,-154.62 470.44,-164.75 479.19,-158.77 473.55,-154.62"/>
</a>
</g>
</g>
<!-- Node14&#45;&gt;Node11 -->
<g id="edge19_Node000014_Node000011" class="edge">
<title>Node14&#45;&gt;Node11</title>
<g id="a_edge19_Node000014_Node000011"><a xlink:title=" ">
<path fill="none" stroke="#63b8ff" d="M443.46,-158.85C411.33,-136.06 347.03,-90.99 291,-55 270.82,-42.04 246.96,-27.89 231.9,-19.11"/>
<polygon fill="#63b8ff" stroke="#63b8ff" points="441.82,-161.98 452,-164.92 445.88,-156.27 441.82,-161.98"/>
</a>
</g>
</g>
</g>
</svg>
